<svg xmlns="http://www.w3.org/2000/svg" xmlns:xlink="http://www.w3.org/1999/xlink" width="173.819" height="90.201" viewBox="0 0 173.819 90.201"><defs><clipPath id="a"><rect width="173.819" height="90.202" fill="none"/></clipPath><clipPath id="b"><rect width="173.819" height="90.202" transform="translate(0 0)" fill="none"/></clipPath><clipPath id="d"><rect width="60.859" height="16.74" transform="translate(28.066 9.546)" fill="none"/></clipPath><clipPath id="f"><rect width="93.267" height="21.648" transform="translate(38.166 32.602)" fill="none"/></clipPath><clipPath id="g"><rect width="101.872" height="18.004" transform="translate(38.655 53.984)" fill="none"/></clipPath></defs><g clip-path="url(#a)"><path d="M148.795,71.544l10.176-.279L141.144,16.133,23.533,30.841l-.117,1.945-9.15,1.145L11.6,78.139l35.681-.978.062,9.888L58,76.867,149.7,74.354Z" fill="#dc000c"/><g clip-path="url(#b)"><path d="M46,90.2,45.93,78.554l-35.776.981,2.827-46.81,9.15-1.145.117-1.945L142.089,14.648,160.818,72.57l-10.176.279.909,2.81-93,2.548Zm2.622-14.434.051,8.129,8.762-8.371,90.42-2.478-.909-2.81,10.176-.279L140.2,17.617,24.819,32.046,24.7,33.991l-9.15,1.145L13.039,76.743Z" fill="#110605"/></g><rect width="80.06" height="24.277" transform="translate(16.334 10.944) rotate(-7.857)" fill="#1a1311"/><g clip-path="url(#b)"><g opacity="0.75" style="mix-blend-mode:multiply;isolation:isolate"><g clip-path="url(#d)"><path d="M30.972,26.191l-1.32-9.564-1.578-.612-.008-.058,3.781-1.306,1.606,11.635Z" fill="#1a1311"/><path d="M40.115,24.929,38.8,15.365l-1.579-.612-.008-.058,3.782-1.306,1.6,11.635Z" fill="#1a1311"/><path d="M46.94,16.561,46.572,13.9l2.422-.334.367,2.661Zm.917,6.652-.367-2.661,2.422-.334.367,2.661Z" fill="#1a1311"/><path d="M53.826,17.539c-.4-2.927.778-6.194,3.709-6.6s4.954,2.42,5.358,5.347c.4,2.868-.85,6.158-3.716,6.553s-4.955-2.435-5.351-5.3m6.551-.9c-.189-1.375-.919-3.384-2.493-3.167s-1.731,2.349-1.542,3.724c.186,1.345.937,3.32,2.484,3.106s1.737-2.317,1.551-3.663" fill="#1a1311"/><path d="M63.66,16.182c-.4-2.927.776-6.193,3.709-6.6S72.323,12,72.727,14.931c.4,2.868-.85,6.159-3.716,6.554s-4.955-2.435-5.351-5.3m6.551-.9c-.189-1.375-.919-3.385-2.493-3.167s-1.732,2.349-1.542,3.724c.186,1.345.937,3.319,2.484,3.106s1.737-2.317,1.551-3.663" fill="#1a1311"/><path d="M87.482,10.741l.039-.021,1.4,2.625a6.772,6.772,0,0,1-3.483,1.88c-2.085.287-3.336-1.332-4.977-1.105a4.253,4.253,0,0,0-2.041,1l-.211.859-.05.035-1.5-2.653a6.894,6.894,0,0,1,3.58-1.865c2.087-.288,3.338,1.333,4.992,1.1A4.254,4.254,0,0,0,87.272,11.6Z" fill="#1a1311"/></g></g></g><path d="M30.617,25.837,29.3,16.273l-1.578-.612-.008-.058L31.492,14.3,33.1,25.932Z" fill="#fff"/><path d="M39.761,24.575l-1.319-9.564L36.863,14.4l-.008-.058,3.782-1.306,1.6,11.635Z" fill="#fff"/><path d="M46.586,16.207l-.368-2.661,2.422-.334.367,2.661Zm.917,6.652L47.136,20.2l2.422-.334.367,2.661Z" fill="#fff"/><g clip-path="url(#b)"><path d="M53.472,17.185c-.4-2.927.777-6.194,3.709-6.6s4.954,2.42,5.358,5.347c.4,2.868-.85,6.158-3.716,6.553s-4.955-2.435-5.351-5.3m6.551-.9c-.189-1.375-.919-3.384-2.493-3.167s-1.732,2.349-1.542,3.724c.186,1.345.937,3.32,2.484,3.106s1.737-2.317,1.551-3.663" fill="#fff"/><path d="M63.306,15.827c-.4-2.927.776-6.193,3.709-6.6s4.954,2.419,5.358,5.346c.4,2.868-.85,6.159-3.716,6.555s-4.955-2.436-5.351-5.3m6.551-.9c-.189-1.375-.919-3.385-2.493-3.167s-1.732,2.349-1.542,3.724c.186,1.345.937,3.319,2.484,3.107s1.737-2.317,1.551-3.664" fill="#fff"/><path d="M87.128,10.386l.039-.021,1.4,2.625a6.765,6.765,0,0,1-3.483,1.88c-2.085.288-3.336-1.332-4.978-1.1a4.254,4.254,0,0,0-2.041,1.005l-.211.858-.049.035L76.3,13.01a6.888,6.888,0,0,1,3.581-1.864c2.086-.289,3.337,1.333,4.992,1.1a4.246,4.246,0,0,0,2.042-1.006Z" fill="#fff"/><g opacity="0.4" style="mix-blend-mode:multiply;isolation:isolate"><g clip-path="url(#f)"><path d="M46.007,40.479l5.693-.5.22,2.522-6.153.519c.012.35,0,.684,0,1,2.677-.285,5.925.693,7.119,3.339a7.111,7.111,0,0,1-.446,6.348l-3.713-.99.58-1.838,1.119.3a4.431,4.431,0,0,0-.219-2.713c-.713-1.6-2.535-2.127-4.309-1.884a15.187,15.187,0,0,0,.624,2.906c.224-.4.414-.772.634-1.212l2.509.973c-1.482,3.372-3.746,4.777-5.968,4.972-1.928.167-4.027-.56-4.766-2.458a4.826,4.826,0,0,1,.548-4.323,8.235,8.235,0,0,1,3.479-2.74c-.021-.453-.008-.945.005-1.437l-4.573.4-.219-2.5,4.94-.432a3.988,3.988,0,0,0,.069-.478l.167-1.277,2.778.248ZM41.638,50.831c.4,1,1.806.98,2.663.626a14.731,14.731,0,0,1-1.115-3.879,4.328,4.328,0,0,0-1.276,1.284,2.162,2.162,0,0,0-.272,1.969" fill="#136281"/><path d="M73.718,48.5l-1.7,2.357c-.967-.7-1.84-1.382-2.657-2.046a47.355,47.355,0,0,1-5.968-5.629L60,48.2l.868.607L59.6,50.368,56.4,48.14l6.808-9.547a54.323,54.323,0,0,0,9.641,9.339Zm-5.539-5.368-.741-2.546,1.753-.486.7,2.531Zm2.144-1.081-.739-2.528,1.733-.5.762,2.579Z" fill="#136281"/><path d="M96.16,45.388c-2,2.716-5.1,4.984-8.733,4.67a7.716,7.716,0,0,1-6.882-5.707l2.972-.715a4.751,4.751,0,0,0,4.145,3.616c2.778.23,4.722-1.657,5.995-3.4Zm-15.072-6.9a15.467,15.467,0,0,1,3.325-1.972,11.089,11.089,0,0,1,7.311-.182,17,17,0,0,1,3.2,1.717l-2.674,3.914-2.1-1.184.988-1.61c-1.868-.836-4.982-.9-8.266,1.545Z" fill="#136281"/><path d="M104.585,45.95l1.89-.83.513,1.006a4.86,4.86,0,0,0,2.3-2.495c1.1-2.69-.276-3.376-2.818-3.242A33.522,33.522,0,0,0,99.617,41.6l-.722-2.547a36.127,36.127,0,0,1,7.213-1.313l.721-1.062a12.433,12.433,0,0,0-5.269-.381l-.432-2.4a12.664,12.664,0,0,1,9.064,1.451L108.481,37.8c3.623.174,4.852,3.659,3.556,6.82-.641,1.563-2.228,3.523-5.8,4.624Z" fill="#136281"/><path d="M119.313,44.946c-2.478-2.746-1.9-6.949-1.206-10.216l-1.314-.219L117.2,32.6l4.335.707c-.558,2.5-1.75,6.251-.52,8.877a3.968,3.968,0,0,0,3.7,2.288A4.816,4.816,0,0,0,128.8,41.91l2.635,1.347a7.908,7.908,0,0,1-6.165,3.989,7.082,7.082,0,0,1-5.956-2.3m5.244-5.013-.759-2.546,1.737-.449.739,2.529Zm2.46-.215-.74-2.547,1.755-.451.721,2.53Z" fill="#136281"/><path d="M46.007,40.479l5.693-.5.22,2.522-6.153.519c.012.35,0,.684,0,1,2.677-.285,5.925.693,7.119,3.339a7.111,7.111,0,0,1-.446,6.348l-3.713-.99.58-1.838,1.119.3a4.431,4.431,0,0,0-.219-2.713c-.713-1.6-2.535-2.127-4.309-1.884a15.187,15.187,0,0,0,.624,2.906c.224-.4.414-.772.634-1.212l2.509.973c-1.482,3.372-3.746,4.777-5.968,4.972-1.928.167-4.027-.56-4.766-2.458a4.826,4.826,0,0,1,.548-4.323,8.235,8.235,0,0,1,3.479-2.74c-.021-.453-.008-.945.005-1.437l-4.573.4-.219-2.5,4.94-.432a3.988,3.988,0,0,0,.069-.478l.167-1.277,2.778.248ZM41.638,50.831c.4,1,1.806.98,2.663.626a14.731,14.731,0,0,1-1.115-3.879,4.328,4.328,0,0,0-1.276,1.284,2.162,2.162,0,0,0-.272,1.969" fill="#136281"/><path d="M73.718,48.5l-1.7,2.357c-.967-.7-1.84-1.382-2.657-2.046a47.355,47.355,0,0,1-5.968-5.629L60,48.2l.868.607L59.6,50.368,56.4,48.14l6.808-9.547a54.323,54.323,0,0,0,9.641,9.339Zm-5.539-5.368-.741-2.546,1.753-.486.7,2.531Zm2.144-1.081-.739-2.528,1.733-.5.762,2.579Z" fill="#136281"/><path d="M96.16,45.388c-2,2.716-5.1,4.984-8.733,4.67a7.716,7.716,0,0,1-6.882-5.707l2.972-.715a4.751,4.751,0,0,0,4.145,3.616c2.778.23,4.722-1.657,5.995-3.4Zm-15.072-6.9a15.467,15.467,0,0,1,3.325-1.972,11.089,11.089,0,0,1,7.311-.182,17,17,0,0,1,3.2,1.717l-2.674,3.914-2.1-1.184.988-1.61c-1.868-.836-4.982-.9-8.266,1.545Z" fill="#136281"/><path d="M104.585,45.95l1.89-.83.513,1.006a4.86,4.86,0,0,0,2.3-2.495c1.1-2.69-.276-3.376-2.818-3.242A33.522,33.522,0,0,0,99.617,41.6l-.722-2.547a36.127,36.127,0,0,1,7.213-1.313l.721-1.062a12.433,12.433,0,0,0-5.269-.381l-.432-2.4a12.664,12.664,0,0,1,9.064,1.451L108.481,37.8c3.623.174,4.852,3.659,3.556,6.82-.641,1.563-2.228,3.523-5.8,4.624Z" fill="#136281"/><path d="M119.313,44.946c-2.478-2.746-1.9-6.949-1.206-10.216l-1.314-.219L117.2,32.6l4.335.707c-.558,2.5-1.75,6.251-.52,8.877a3.968,3.968,0,0,0,3.7,2.288A4.816,4.816,0,0,0,128.8,41.91l2.635,1.347a7.908,7.908,0,0,1-6.165,3.989,7.082,7.082,0,0,1-5.956-2.3m5.244-5.013-.759-2.546,1.737-.449.739,2.529Zm2.46-.215-.74-2.547,1.755-.451.721,2.53Z" fill="#136281"/></g></g><path d="M43.172,39.062l5.693-.5.22,2.522-6.153.519c.012.35,0,.684-.005,1,2.677-.285,5.925.693,7.119,3.339a7.111,7.111,0,0,1-.446,6.348l-3.713-.99.58-1.838,1.119.3a4.431,4.431,0,0,0-.219-2.713c-.713-1.6-2.535-2.127-4.309-1.884a15.187,15.187,0,0,0,.624,2.906c.224-.4.414-.772.634-1.212l2.509.973c-1.482,3.372-3.746,4.777-5.968,4.972-1.928.167-4.027-.56-4.766-2.458a4.826,4.826,0,0,1,.548-4.323,8.235,8.235,0,0,1,3.479-2.74c-.021-.453-.008-.945.005-1.437l-4.573.4-.219-2.5,4.94-.432a3.989,3.989,0,0,0,.069-.478l.167-1.277,2.778.248ZM38.8,49.414c.4,1,1.806.98,2.663.626a14.731,14.731,0,0,1-1.115-3.879,4.328,4.328,0,0,0-1.276,1.284,2.162,2.162,0,0,0-.272,1.969" fill="#fff"/><path d="M70.883,47.086l-1.7,2.357c-.967-.7-1.84-1.382-2.657-2.046a47.355,47.355,0,0,1-5.968-5.629l-3.394,5.01.868.607L56.76,48.95l-3.191-2.228,6.808-9.547a54.323,54.323,0,0,0,9.641,9.339Zm-5.539-5.368L64.6,39.172l1.753-.486.7,2.531Zm2.144-1.081-.739-2.528,1.733-.5.762,2.579Z" fill="#fff"/><path d="M93.326,43.971c-2,2.716-5.1,4.984-8.733,4.67a7.716,7.716,0,0,1-6.882-5.707l2.972-.715a4.751,4.751,0,0,0,4.145,3.616c2.778.23,4.722-1.657,5.995-3.4Zm-15.072-6.9A15.467,15.467,0,0,1,81.579,35.1a11.089,11.089,0,0,1,7.311-.182,17,17,0,0,1,3.2,1.717l-2.674,3.914-2.1-1.184.988-1.61c-1.868-.836-4.982-.9-8.266,1.545Z" fill="#fff"/><path d="M101.75,44.533l1.89-.83.513,1.006a4.86,4.86,0,0,0,2.3-2.495c1.1-2.69-.276-3.376-2.818-3.242a33.521,33.521,0,0,0-6.851,1.211l-.722-2.547a36.127,36.127,0,0,1,7.213-1.313l.721-1.062a12.433,12.433,0,0,0-5.269-.381l-.432-2.4a12.664,12.664,0,0,1,9.064,1.451l-1.711,2.447c3.623.174,4.852,3.659,3.556,6.82-.641,1.563-2.228,3.523-5.8,4.624Z" fill="#fff"/><path d="M116.479,43.528c-2.479-2.746-1.9-6.949-1.206-10.215l-1.315-.22.408-1.909,4.336.707c-.559,2.5-1.75,6.251-.521,8.877a3.967,3.967,0,0,0,3.7,2.288,4.818,4.818,0,0,0,4.088-2.563L128.6,41.84a7.9,7.9,0,0,1-6.165,3.988,7.078,7.078,0,0,1-5.955-2.3m5.243-5.013-.759-2.546,1.737-.448.739,2.528Zm2.46-.215-.74-2.547L125.2,35.3l.721,2.531Z" fill="#fff"/><path d="M43.172,39.062l5.693-.5.22,2.522-6.153.519c.012.35,0,.684-.005,1,2.677-.285,5.925.693,7.119,3.339a7.111,7.111,0,0,1-.446,6.348l-3.713-.99.58-1.838,1.119.3a4.431,4.431,0,0,0-.219-2.713c-.713-1.6-2.535-2.127-4.309-1.884a15.187,15.187,0,0,0,.624,2.906c.224-.4.414-.772.634-1.212l2.509.973c-1.482,3.372-3.746,4.777-5.968,4.972-1.928.167-4.027-.56-4.766-2.458a4.826,4.826,0,0,1,.548-4.323,8.235,8.235,0,0,1,3.479-2.74c-.021-.453-.008-.945.005-1.437l-4.573.4-.219-2.5,4.94-.432a3.989,3.989,0,0,0,.069-.478l.167-1.277,2.778.248ZM38.8,49.414c.4,1,1.806.98,2.663.626a14.731,14.731,0,0,1-1.115-3.879,4.328,4.328,0,0,0-1.276,1.284,2.162,2.162,0,0,0-.272,1.969" fill="#fff"/><path d="M70.883,47.086l-1.7,2.357c-.967-.7-1.84-1.382-2.657-2.046a47.355,47.355,0,0,1-5.968-5.629l-3.394,5.01.868.607L56.76,48.95l-3.191-2.228,6.808-9.547a54.323,54.323,0,0,0,9.641,9.339Zm-5.539-5.368L64.6,39.172l1.753-.486.7,2.531Zm2.144-1.081-.739-2.528,1.733-.5.762,2.579Z" fill="#fff"/><path d="M93.326,43.971c-2,2.716-5.1,4.984-8.733,4.67a7.716,7.716,0,0,1-6.882-5.707l2.972-.715a4.751,4.751,0,0,0,4.145,3.616c2.778.23,4.722-1.657,5.995-3.4Zm-15.072-6.9A15.467,15.467,0,0,1,81.579,35.1a11.089,11.089,0,0,1,7.311-.182,17,17,0,0,1,3.2,1.717l-2.674,3.914-2.1-1.184.988-1.61c-1.868-.836-4.982-.9-8.266,1.545Z" fill="#fff"/><path d="M101.75,44.533l1.89-.83.513,1.006a4.86,4.86,0,0,0,2.3-2.495c1.1-2.69-.276-3.376-2.818-3.242a33.521,33.521,0,0,0-6.851,1.211l-.722-2.547a36.127,36.127,0,0,1,7.213-1.313l.721-1.062a12.433,12.433,0,0,0-5.269-.381l-.432-2.4a12.664,12.664,0,0,1,9.064,1.451l-1.711,2.447c3.623.174,4.852,3.659,3.556,6.82-.641,1.563-2.228,3.523-5.8,4.624Z" fill="#fff"/><path d="M116.479,43.528c-2.479-2.746-1.9-6.949-1.206-10.215l-1.315-.22.408-1.909,4.336.707c-.559,2.5-1.75,6.251-.521,8.877a3.967,3.967,0,0,0,3.7,2.288,4.818,4.818,0,0,0,4.088-2.563L128.6,41.84a7.9,7.9,0,0,1-6.165,3.988,7.078,7.078,0,0,1-5.955-2.3m5.243-5.013-.759-2.546,1.737-.448.739,2.528Zm2.46-.215-.74-2.547L125.2,35.3l.721,2.531Z" fill="#fff"/><g opacity="0.4" style="mix-blend-mode:multiply;isolation:isolate"><g clip-path="url(#g)"><path d="M39.628,71.988l-.973-14.946,2.889-.188L42.516,71.8ZM52.4,63.9l-1.518,4.209a22.861,22.861,0,0,1-4.657-1.726A13.477,13.477,0,0,1,42.5,63.3l2.282-1.827a13.03,13.03,0,0,0,2.338,2.139,11.482,11.482,0,0,0,2.761,1.273l.524-1.591Z" fill="#136281"/><rect width="15.373" height="2.828" transform="translate(54.389 62.175) rotate(-3.71)" fill="#136281"/><path d="M87.122,55.447l-5.062,13.9-2.807-.85,3.823-10.237-5.923.386a13.893,13.893,0,0,1-3.831,6.424L71.194,63.3c1.8-1.9,3.283-4.043,3.281-6.632l-1.376.142-.2-1.894L77.16,54.5c.072.537.125,1.059.175,1.563Z" fill="#136281"/><path d="M97.773,57.973l-8.067-1.347.548-2.641,8.03,1.332Zm-.307,3.8-7.452.449L89.837,59.5l7.471-.451ZM94.751,68.6,93,65.21l1.882-.873.51,1.016a19.329,19.329,0,0,0,4.269-3.094,15.41,15.41,0,0,0,3.068-4.52l2.637,1.069a19.891,19.891,0,0,1-2.072,3.635A22.048,22.048,0,0,1,94.751,68.6" fill="#136281"/><path d="M120.837,55.371,120.3,65.8l-9.6.625-.156-2.4,7.247-.472.236-5.455L109.258,59.1l-.392-3.175,1.907-.212.089.8Zm-3.746,4.319.156,2.4-6.474.422-.157-2.4Z" fill="#136281"/><rect width="15.373" height="2.828" transform="translate(125.003 57.582) rotate(-3.71)" fill="#136281"/></g></g><path d="M36.793,70.571,35.82,55.625l2.889-.188.972,14.946Zm12.773-8.09L48.048,66.69a22.861,22.861,0,0,1-4.657-1.726,13.477,13.477,0,0,1-3.728-3.082l2.282-1.827a13.03,13.03,0,0,0,2.338,2.139,11.482,11.482,0,0,0,2.761,1.273l.524-1.591Z" fill="#fff"/><rect width="15.373" height="2.828" transform="translate(51.555 60.758) rotate(-3.71)" fill="#fff"/><path d="M84.287,54.03l-5.062,13.9-2.807-.85,3.823-10.237-5.923.386a13.894,13.894,0,0,1-3.831,6.424l-2.128-1.77c1.8-1.9,3.283-4.043,3.281-6.632l-1.376.142-.2-1.894,4.259-.417c.072.537.125,1.059.175,1.563Z" fill="#fff"/><path d="M94.939,56.555l-8.067-1.347.548-2.641L95.45,53.9Zm-.307,3.8L87.18,60.8,87,58.086l7.471-.451Zm-2.715,6.825-1.753-3.387,1.882-.873.51,1.016a19.329,19.329,0,0,0,4.269-3.094,15.41,15.41,0,0,0,3.068-4.52l2.637,1.069a19.891,19.891,0,0,1-2.072,3.635,22.048,22.048,0,0,1-8.541,6.154" fill="#fff"/><path d="M118,53.954l-.541,10.425-9.6.625-.156-2.4,7.248-.472.236-5.455-8.763,1.007-.392-3.175,1.906-.212.089.8Zm-3.746,4.319.155,2.4-6.474.422-.156-2.4Z" fill="#fff"/><rect width="15.373" height="2.828" transform="translate(122.168 56.165) rotate(-3.71)" fill="#fff"/></g></g></svg>