<?xml version="1.0" encoding="UTF-8"?>
<svg id="_レイヤー_2" data-name="レイヤー 2" xmlns="http://www.w3.org/2000/svg" xmlns:xlink="http://www.w3.org/1999/xlink" viewBox="0 0 234.83 142.49">
  <defs>
    <style>
      .cls-1 {
        filter: url(#drop-shadow-1);
      }

      .cls-2 {
        fill: #fff;
      }

      .cls-3 {
        fill: #045898;
      }

      .cls-4 {
        fill: #40220f;
      }

      .cls-5 {
        fill: #00a0e9;
      }

      .cls-6 {
        fill: #fff100;
      }

      .cls-7 {
        fill: #e60012;
      }
    </style>
    <filter id="drop-shadow-1" x="52.56" y="7.52" width="130.8" height="23.52" filterUnits="userSpaceOnUse">
      <feOffset dx=".88" dy=".88"/>
      <feGaussianBlur result="blur" stdDeviation=".88"/>
      <feFlood flood-color="#231815" flood-opacity=".7"/>
      <feComposite in2="blur" operator="in"/>
      <feComposite in="SourceGraphic"/>
    </filter>
  </defs>
  <g id="_テキスト1" data-name="テキスト1">
    <g>
      <g>
        <path class="cls-4" d="M42.72,72.4v-15.31l-1.11-.97v-.09l4.85-.45v5.65c2.15-.54,4.34-1.15,6.39-2.06l.51-1.45.08-.02,2.09,4.44c-2.6,1.04-5.32,1.99-8.09,2.51l-.98-1.93v6.21h8.3l.81-1.26h.08l.89,4.72h-13.83Z"/>
        <path class="cls-4" d="M65.54,70.49l.04-.04,1.51-.02c2.13-1.17,4.13-3.31,4.85-5.67h-10.94l.7-4.18h.08l.81,1c4.51-.19,9.03-.32,13.54-.32-.26,5.78-2.45,9.31-7.02,12.6l-3.58-3.36ZM62.75,59.51l.72-4.18h.09l.79,1c3.34-.26,6.75-.32,10.11-.32l.7,3.51h-12.41Z"/>
        <path class="cls-4" d="M90.13,67.07c-1.75,2.69-3.96,4.81-6.56,6.6l-3.24-3.77.06-.04,1.6.17c1.85-1.36,3.49-2.9,4.79-4.81l-3.9-2.14,2.64-3.42.06.02.13,1.23c.92.41,1.83.87,2.75,1.3.81-1.8,1.38-3.72,1.83-5.65l-.79-1.1.02-.06,4.77.91c-.57,2.62-1.34,5.22-2.47,7.66,1.02.54,2.02,1.1,3.02,1.67l-1,3.49-3.72-2.06Z"/>
        <path class="cls-4" d="M109.27,69.95l.04-.08,1.39-.08c1.37-1.28,2.41-3.16,2.41-5.09,0-2.5-2.01-4.6-4.46-4.6-2.74,0-4.81,2.16-4.81,4.93,0,1.02.29,2.02.89,2.85,1.35-1.49,2.09-3.77,2.4-5.74l-.75-1.08.02-.08,4.21.65c-.58,4.03-1.93,7.96-5.53,10.16-2.99-1.14-4.52-3.71-4.52-6.9,0-4.62,3.69-7.92,8.11-7.92,4.93,0,7.9,3.3,7.9,8.12,0,3.18-1.54,5.88-4.02,7.76l-3.28-2.91Z"/>
        <path class="cls-4" d="M124.27,64.6l-2.43-7.04,3.81-.39,1.45,4.85,1.32.58.04.06-4.19,1.93ZM126.85,69.69l.04-.04,1.6.15c3.26-2.36,5.77-5.15,7.13-9.51l-.79-1.36.02-.04,4.68,1.26c-1.77,6.56-4.79,10.11-9.49,13.4l-3.19-3.85ZM129.7,63.32l-2.15-6.86,3.81-.39,1.17,4.68,1.34.56.02.09-4.19,1.93ZM134.74,58.17l-.87-2.45,2.7-.58.3,2.6-2.13.43ZM138.04,57.8l-.87-2.45,2.7-.58.3,2.6-2.13.43Z"/>
        <path class="cls-4" d="M146.1,70.19l.04-.09,1.66.06c2.62-2.14,3.98-4.66,4.62-7.99h-4.68l-1.79,3.72-3.24-2.38c1.23-2.51,2.55-5.04,4.09-7.41l-.6-1.34.02-.09,4.36,1.45-1.32,2.77c3.26-.19,6.54-.32,9.79-.32l.7,3.59h-3.51c-.68,5.09-2.7,8.34-6.64,11.48l-3.51-3.46Z"/>
        <path class="cls-4" d="M175.52,73.74v-4.2h-6c-.38,1.73-.98,3.2-1.85,4.83l-4.34-2.29.06-.06,1.53-.48c.38-.65.66-1.3.89-1.99h-2.62l.68-3.92h.11l.75.95,1.75-.06c.19-1.67.21-3.57.23-5.85h-2.87l.66-3.88h.08l.75.93,1.34-.09-.04-1.6-.96-.91v-.09l4.55-.43v2.94l5.3-.11v-1.93l-1.04-.89v-.11l4.55-.43v3.29h1.6l.68,3.29h-2.28v5.59h2.43l.68,3.29h-3.11v4.81l-3.51-.61ZM175.52,63.89l-3.11,2.36-2.21-3.44c-.04,1.36-.11,2.55-.21,3.62l5.53-.11v-2.42ZM175.52,60.66h-5.3l-.02,1.67,3.13-1.32,1.11,2.4,1.09.17v-2.92Z"/>
        <path class="cls-4" d="M190.72,66.77c-1.36,0-2.49-1.15-2.49-2.53s1.13-2.53,2.49-2.53,2.49,1.15,2.49,2.53-1.13,2.53-2.49,2.53Z"/>
      </g>
      <g>
        <path class="cls-4" d="M1.11,101.36v-15.31l-1.11-.97v-.09l4.85-.45v5.65c2.15-.54,4.34-1.15,6.39-2.06l.51-1.45.08-.02,2.09,4.44c-2.6,1.04-5.32,1.99-8.09,2.51l-.98-1.93v6.21h8.3l.81-1.26h.08l.89,4.72H1.11Z"/>
        <path class="cls-4" d="M22.8,99.45l.04-.04,1.51-.02c2.13-1.17,4.13-3.31,4.85-5.67h-10.94l.7-4.18h.08l.81,1c4.51-.19,9.03-.32,13.54-.32-.26,5.78-2.45,9.31-7.02,12.6l-3.58-3.36ZM20.01,88.47l.72-4.18h.09l.79,1c3.34-.26,6.75-.32,10.11-.32l.7,3.51h-12.41Z"/>
        <path class="cls-4" d="M46.03,96.03c-1.75,2.69-3.96,4.81-6.56,6.6l-3.24-3.77.06-.04,1.6.17c1.85-1.36,3.49-2.9,4.79-4.81l-3.9-2.14,2.64-3.42.06.02.13,1.23c.92.41,1.83.87,2.75,1.3.81-1.8,1.38-3.72,1.83-5.65l-.79-1.1.02-.06,4.77.91c-.57,2.62-1.34,5.22-2.47,7.66,1.02.54,2.02,1.1,3.02,1.67l-1,3.49-3.72-2.06Z"/>
        <path class="cls-4" d="M63.93,98.91l.04-.08,1.39-.08c1.37-1.28,2.41-3.16,2.41-5.09,0-2.5-2.01-4.6-4.46-4.6-2.74,0-4.81,2.16-4.81,4.93,0,1.02.29,2.02.89,2.85,1.35-1.49,2.09-3.77,2.4-5.74l-.75-1.08.02-.08,4.21.65c-.58,4.03-1.93,7.96-5.53,10.16-2.99-1.14-4.52-3.71-4.52-6.9,0-4.62,3.69-7.92,8.11-7.92,4.93,0,7.9,3.3,7.9,8.12,0,3.18-1.54,5.88-4.02,7.76l-3.28-2.91Z"/>
        <path class="cls-4" d="M77.77,93.56l-2.43-7.04,3.81-.39,1.45,4.85,1.32.58.04.06-4.19,1.93ZM80.34,98.65l.04-.04,1.6.15c3.26-2.36,5.77-5.15,7.13-9.51l-.79-1.36.02-.04,4.68,1.26c-1.77,6.56-4.79,10.11-9.49,13.4l-3.19-3.85ZM83.2,92.28l-2.15-6.86,3.81-.39,1.17,4.68,1.34.56.02.09-4.19,1.93ZM88.24,87.13l-.87-2.45,2.7-.58.3,2.6-2.13.43ZM91.54,86.76l-.87-2.45,2.7-.58.3,2.6-2.13.43Z"/>
        <path class="cls-4" d="M100.08,99.15l.04-.09,1.66.06c2.62-2.14,3.98-4.66,4.62-7.99h-4.68l-1.79,3.72-3.24-2.38c1.23-2.51,2.55-5.04,4.09-7.41l-.6-1.34.02-.09,4.36,1.45-1.32,2.77c3.26-.19,6.54-.32,9.79-.32l.7,3.59h-3.51c-.68,5.09-2.7,8.34-6.64,11.48l-3.51-3.46Z"/>
        <path class="cls-4" d="M129.93,102.7v-4.2h-6c-.38,1.73-.98,3.2-1.85,4.83l-4.34-2.29.06-.06,1.53-.48c.38-.65.66-1.3.89-1.99h-2.62l.68-3.92h.11l.75.95,1.75-.06c.19-1.67.21-3.57.23-5.85h-2.87l.66-3.88h.08l.75.93,1.34-.09-.04-1.6-.96-.91v-.09l4.55-.43v2.94l5.3-.11v-1.93l-1.04-.89v-.11l4.55-.43v3.29h1.6l.68,3.29h-2.28v5.59h2.43l.68,3.29h-3.11v4.81l-3.51-.61ZM129.93,92.85l-3.11,2.36-2.21-3.44c-.04,1.36-.11,2.55-.21,3.62l5.53-.11v-2.42ZM129.93,89.62h-5.3l-.02,1.67,3.13-1.32,1.11,2.4,1.09.17v-2.92Z"/>
        <path class="cls-4" d="M145.26,98.56l.04-.06,1.7.13c3.17-2.6,4.7-5.15,5.39-9.22h-10.64l.7-4.2h.08l.72.93c3.7-.15,7.41-.28,11.13-.32,0-.09-.02-.17-.02-.28,0-1.32,1.15-2.32,2.41-2.32,1.32,0,2.38,1.08,2.38,2.42s-1.06,2.45-2.38,2.45c-.13,0-.26-.02-.38-.04-.47,6.08-2.85,10.59-7.68,14.18l-3.45-3.66ZM156.78,84.75c-.49,0-.87.41-.87.89s.38.89.87.89.87-.39.87-.89-.38-.89-.87-.89Z"/>
        <path class="cls-4" d="M174.51,92.63l.06-.02,2.96,4.05c-3.73,3.12-8.81,4.85-13.54,5.63v-16.43l-1.11-.95v-.09l4.85-.48v13.23c2.41-.71,4.53-1.8,6.58-3.25l.19-1.69Z"/>
        <path class="cls-4" d="M196.01,97.18h.09l.15,4.89c-5.04,0-10.47-.78-14.94-3.27l2.47-3.98h.08l.26,1.39c3.36,1.54,6.9,2.08,10.56,2.06h.45l.89-1.08ZM182.62,88.26l1.06-4.11h.08l.6,1.06c3.6.06,7.22.26,10.81.52l.45,3.53-13.01-1ZM183.67,93.73l1.32-4.05.08.02.53,1.1c2.75.22,5.51.45,8.24.89l.23,3.55-10.41-1.52Z"/>
        <path class="cls-4" d="M209.66,92.8l.04-.06,1.45-.5c.62-1.13,1-2.34,1.28-3.59h-12.3l.7-4.27h.09l.81,1c4.96-.28,9.96-.32,14.92-.32-.21,3.4-.81,6.67-2.58,9.61l-4.41-1.86ZM202.62,100.49l.04-.09,1.36-.45c1.08-1.78,1.53-3.98,1.53-6.06,0-.82-.06-1.65-.21-2.45l-1.21-.63-.02-.11,4.6-1.45c.36,1.6.53,3.25.53,4.87,0,2.9-.6,5.87-2.17,8.31l-4.45-1.95Z"/>
        <path class="cls-4" d="M231.02,102.29c-.85-1.23-1.64-2.56-2.36-3.88l-.15,1.43-11.05,1.39-.06-4.87h.08l.96,1.02,1.02-.11,2.98-11.52-.85-1.15.04-.06,4.83.82-3.11,11.5,4.26-.43c-.55-1.13-1.06-2.27-1.53-3.44l4.6-1.52.02.06-.66,1.23c.94,2.17,2.02,4.27,3.36,6.21l1.41.09.02.06-3.81,3.16Z"/>
      </g>
      <g>
        <g>
          <g>
            <polygon class="cls-3" points="58.77 44.38 58.77 30.06 30.41 33.98 58.77 44.38"/>
            <polygon class="cls-3" points="176.05 30.06 176.05 44.38 204.42 33.98 176.05 30.06"/>
          </g>
          <polygon class="cls-5" points="194.82 9.78 211.71 9.78 205.08 27.08 211.71 44.39 176.05 44.39 194.82 35.07 194.82 9.78"/>
          <polygon class="cls-5" points="40 9.78 23.11 9.78 29.75 27.08 23.11 44.39 58.78 44.39 40 35.07 40 9.78"/>
          <rect class="cls-5" x="40" width="154.82" height="35"/>
        </g>
        <g class="cls-1">
          <path class="cls-2" d="M71.52,21.78c-1.95-.57-3.62-1.4-4.99-2.47-.28.24-.56.47-.87.68l.91.83-2.34,2.15-1.02-1.23,1.19-1c-.5.28-1.06.53-1.67.79l-1.17-2.22v3.38h-4.12v.3l-1.87-.32.07-7.03-.59-.53v-.08l.83-.13-1.33-1.13,1.95-3.24-.33-.77.04-.07,2.87.98-.37.7c.95-.09,2.06-.13,2.89-.15-.17,1.15-.52,2.3-1,3.26l.96-.04v4.66l.76.26c1.11-.41,2.13-.96,3.04-1.66l-3.41.32v-2.39h.07l.43.47h.15l.67-1.47-.11-.26-1.09.08v-2.81h.07l.56.62.83-.06.96-1.83-.33-.85.02-.06,3.23.96-.72,1.57,1.48-.09-.3-.66,2.39-.55.76,2.17.8.24.02.06-1.97,1.06,1.06.26-.56,1.41.57-.04.56-.85h.07l.57,2.53-3.95.38c1.08.62,2.11,1,3.21,1.28l.87-.41.06.02-.82,3ZM57.65,26.55l-.52-1.88-.33,2.34-1.98-.7.59-2.64-.41-.6.02-.08,2.32.3-.09.6,1.26-.3.56,2.7-1.41.26ZM58.62,13.65h-1.13l-.56,1.07,1.28-.13.41-.94ZM57.95,16.65h-.5v1.13h.5v-1.13ZM57.95,19.63h-.5v1.13h.5v-1.13ZM59.58,26.19l-.8-2.58,1.56-.38.56,2.71-1.32.24ZM59.91,16.65h-.5v1.13h.5v-1.13ZM59.91,19.63h-.5v1.13h.5v-1.13ZM61.42,25.76l-.8-2.49,1.56-.38.56,2.6-1.32.26ZM65.77,24.89l-1.37-1.68,2.47-2.15-.04-.83.04-.02,2.08,1.64-3.17,3.04ZM67.07,15.61h.07l.44.47h.09l.72-1.58-.24-.55-3.69.28,1.33.34-.52,1.3.54-.04.56-.85h.07l.44,2,.17.04v-1.41ZM64.88,25.11l.06-.06.96.11c1.32-.87,2.5-1.88,3.39-3.02l-.09-.83.06-.02,2.24,1.57c-1.28,1.92-2.82,3.34-4.84,4.47l-1.78-2.22ZM68.61,12.9l-.04.96.54.15-.5-1.11Z"/>
          <path class="cls-2" d="M77.67,23.91l.06-.07,1.22.04c1.87-1.56,2.89-3.36,3.36-5.77h-3.28l-1.32,2.77-2.5-1.83c.91-1.88,1.91-3.75,3.02-5.52l-.44-.98.06-.07,3.32,1.11-.93,1.98c2.35-.13,4.73-.23,7.08-.23l.56,2.77h-2.6c-.5,3.68-2.08,6.13-4.91,8.41l-2.69-2.6Z"/>
          <path class="cls-2" d="M90.84,18.2l.8-3.28.07.02.59.85,2.93.02.22,2.7-4.62-.3ZM93.15,25.3l-2.21-2.83.06-.06,1.15.09,2.24-2.38,2.22,1.77-3.47,3.39ZM91.56,13.2l1.19-3.07.06.02.46.92,2.69.34-.17,2.7-4.23-.91ZM100.55,19.04c-.26,2.83-.87,5.35-2.28,7.86l-3.52-1.75.04-.08,1.08-.38c1.41-2.85,1.84-5,1.85-11.2h-.85l.61-3.51h.07l.69.85c2.34-.19,5.93-.28,8.47-.28l.07,8.48h-6.23ZM103.74,13.5h-3l-.04,2.83h3.04v-2.83ZM105,26.94c-1.37-2.28-2.43-4.79-3.13-6.9l2.89-.75c.59,1.75,1.56,3.83,2.35,5.22l1.17.17.04.06-3.32,2.21Z"/>
          <path class="cls-2" d="M121.94,21.38h.07l.67,4.34c-1.19.19-2.35.34-3.56.34-3.97,0-7.38-1.57-9.03-5.39l3.75-1.66.04.06-.37,1.15c1.13,1.96,3.56,2.47,5.64,2.47.69,0,1.35-.04,2.04-.13l.76-1.17ZM111.15,14.71l.63-3.58h.06l.7.89c2.34-.17,4.67-.24,7.01-.28l-.41-1.13,2.35-.53.26,2.26-.91.19.46,2.19h-10.16ZM122.77,12.41l-.76-2.13,2.35-.53.26,2.26-1.85.4Z"/>
          <path class="cls-2" d="M127.05,26.17l.54-3.05h.07l.56.7c2.56-.13,6.43-.23,9.6-.26v-5h-10.23l.54-3.05h.07l.56.7,4.08-.13v-5.07l-.87-.77v-.07l3.99-.38v6.2l4.91-.06.07,10.26h-13.89ZM129.01,15.58l-1.46-4.28,2.78-.47.95,3.11.82.51.04.06-3.11,1.07ZM127.58,22.23l.5-2.87h.07l.52.68c3.13-.26,6.47-.3,8.34-.3l.52,2.49h-9.96ZM136.63,14.09l1.78-2.6-.24-.96.04-.06,2.97,1.47-2.37,4-2.17-1.85Z"/>
          <path class="cls-2" d="M160.2,26.89c-3.43-.26-6.56-.83-9.42-1.88v-7.47l-1.13.19.04-1.15h-1.19v3.53l.69-.21,1.15,2.53-5.84,1.68-.46-3.53.07-.02.93.64.65-.21v-4.41h-1.71l.57-3.39h.07l.7.89.35-.04v-2.88l-.83-.72v-.08l3.65-.34v3.81l.7-.04.48,2.36.04-1.75h.07l.78.66.2-.04v-2.64l-.82-.72v-.07l3.52-.32v3.22l.83-.17v-3.36l-.82-.72v-.08l3.52-.32v4l3.54-.6.07,8.71-3.62-.55v1.19l-2.71-.43v-5.17l-.83.13v5.62c2.26.62,4.25.96,6.28,1.06l1.08-.83.06.02-.7,3.9ZM157.86,16.46l-.83.11v4.47l.83-.53v-4.05Z"/>
          <path class="cls-2" d="M174.03,26.68v-3.66h-5.23c-.33,1.51-.85,2.79-1.61,4.2l-3.78-2,.06-.06,1.33-.41c.33-.57.57-1.13.78-1.74h-2.28l.59-3.41h.09l.65.83,1.52-.06c.17-1.45.19-3.11.2-5.09h-2.5l.57-3.38h.07l.65.81,1.17-.07-.04-1.4-.83-.79v-.08l3.97-.38v2.56l4.62-.09v-1.68l-.91-.77v-.09l3.97-.38v2.87h1.39l.59,2.87h-1.98v4.86h2.11l.59,2.87h-2.71v4.19l-3.06-.53ZM174.03,18.1l-2.71,2.05-1.93-3c-.04,1.19-.09,2.22-.19,3.15l4.82-.09v-2.11ZM174.03,15.29h-4.62l-.02,1.45,2.73-1.15.96,2.09.95.15v-2.54Z"/>
        </g>
      </g>
      <g>
        <rect class="cls-7" x="23.11" y="115.98" width="188.6" height="26.51" rx="10.12" ry="10.12"/>
        <g>
          <path class="cls-6" d="M42.01,127.42l.56.18c0,.08-.03.13-.07.18-.15,1.65-.48,2.96-.99,3.99.39.51.86.92,1.41,1.21-.22.22-.52.66-.67.98-.52-.32-.95-.73-1.32-1.23-.39.51-.85.92-1.38,1.25-.11-.3-.35-.74-.55-.98-.12.36-.26.7-.44.99-.17-.2-.58-.52-.81-.65.09-.16.18-.33.26-.51l-.69.4c-.11-.37-.38-.96-.63-1.4-.04.06-.11.09-.2.08-.22.73-.61,1.54-1.02,2.07-.18-.18-.52-.47-.74-.63.38-.45.72-1.21.91-1.92l1.06.37.77-.4c.23.37.48.84.63,1.21.45-1.22.49-2.73.5-3.95v-3.93s4.17.01,4.17.01v1.12s-3.22,0-3.22,0v1.61s2.31,0,2.31,0l.17-.03ZM38.02,124.71l-.02,6.63h-2.77s.02-6.64.02-6.64h2.77ZM37.06,130.35v-.96s-.91,0-.91,0v.96s.91,0,.91,0ZM37.06,128.49v-.96s-.91,0-.91,0v.96s.91,0,.91,0ZM37.07,126.62v-.94s-.91,0-.91,0v.94s.91,0,.91,0ZM39.52,129.46c-.04,1.13-.15,2.41-.49,3.48.5-.27.94-.67,1.3-1.2-.34-.67-.59-1.42-.8-2.28h0ZM40.22,128.7c.15.74.38,1.41.66,2.02.27-.63.47-1.37.59-2.2h-1.95s0,.36,0,.36l.69-.18Z"/>
          <path class="cls-6" d="M47.34,130.09c-.02.1-.09.17-.22.18-.23,1.7-.56,3-2.81,3.71-.1-.32-.35-.81-.57-1.06,1.99-.53,2.22-1.48,2.35-2.98l1.25.15ZM47.19,126.99v-.62s-3.24,0-3.24,0v-1.13s3.24,0,3.24,0v-.92s1.29.09,1.29.09c0,.1-.08.16-.23.2v.63s3.34,0,3.34,0v1.13s-3.34,0-3.34,0v.62s2.51,0,2.51,0v1.07s-5.96-.02-5.96-.02v-1.07s2.39,0,2.39,0ZM51.42,130.81h-1.03s0-1.12,0-1.12h-5.32s0,1.1,0,1.1h-.99s0-2.21,0-2.21l7.33.02v2.21ZM49.22,132.39c0,.33.05.37.36.37h.86c.29,0,.34-.17.38-1.23.2.2.64.38.92.46-.12,1.48-.39,1.87-1.2,1.87h-1.1c-.99,0-1.24-.36-1.24-1.47v-2.45s1.26.09,1.26.09c0,.1-.07.16-.22.2v2.15Z"/>
          <path class="cls-6" d="M56.83,126.23l-1.4,1.21v-2.22s1.41-1.31,1.41-1.31h1.64s-.03,10.54-.03,10.54h-1.64s.02-8.22.02-8.22Z"/>
          <path class="cls-6" d="M61.35,133.84c-.33-.4-.55-.93-.55-1.84l.02-5.62c0-.9.23-1.43.56-1.83.44-.53,1.01-.74,1.61-.74s1.16.21,1.61.74c.33.4.55.93.55,1.84l-.02,5.62c0,.9-.23,1.43-.56,1.83-.45.53-1.01.74-1.61.74s-1.17-.21-1.61-.74ZM62.97,132.81c.29,0,.52-.24.52-.8l.02-5.62c0-.56-.22-.8-.51-.8s-.52.24-.52.8l-.02,5.62c0,.56.22.8.51.8Z"/>
          <path class="cls-6" d="M69.39,132.26c0,.48-.31.85-.71.85-.4,0-.71-.38-.71-.85,0-.46.31-.84.71-.84.41,0,.71.4.7.84ZM69.41,126.17c0,.46-.31.84-.71.84-.4,0-.71-.38-.71-.84,0-.48.31-.85.71-.85.41,0,.71.4.71.85Z"/>
          <path class="cls-6" d="M72.47,133.87c-.33-.4-.55-.93-.55-1.84l.02-5.62c0-.9.23-1.43.56-1.83.44-.53,1.01-.74,1.61-.74s1.16.21,1.61.74c.33.4.55.93.55,1.84l-.02,5.62c0,.9-.23,1.43-.56,1.83-.45.53-1.01.74-1.61.74s-1.17-.21-1.61-.74ZM74.08,132.84c.29,0,.52-.24.52-.8l.02-5.62c0-.56-.22-.8-.51-.8s-.52.24-.52.8l-.02,5.62c0,.56.22.8.51.8Z"/>
          <path class="cls-6" d="M78.29,133.88c-.33-.4-.55-.93-.55-1.84l.02-5.62c0-.9.23-1.43.56-1.83.44-.53,1.01-.74,1.61-.73.6,0,1.16.21,1.61.74.33.4.55.93.55,1.84l-.02,5.62c0,.9-.23,1.43-.56,1.83-.45.53-1.01.74-1.61.74-.6,0-1.17-.21-1.61-.74ZM79.9,132.85c.29,0,.52-.24.52-.8l.02-5.62c0-.56-.22-.8-.51-.8-.29,0-.52.23-.52.8l-.02,5.62c0,.56.22.8.51.8Z"/>
          <path class="cls-6" d="M85.92,131.02c-.26-.18-.51-.3-.83-.3-.37,0-.59.18-.84.47l-1-1.2c.62-.74,1.11-1.08,1.75-1.07.47,0,.78.15,1.13.39.26.18.51.3.83.3.37,0,.59-.18.84-.47l1,1.2c-.61.74-1.11,1.08-1.75,1.08-.47,0-.79-.15-1.13-.39Z"/>
          <path class="cls-2" d="M100.19,126.81c-.62.18-1.32.32-2.14.41,0,.58-.02,1.18-.02,1.7.84-.25,1.72-.4,2.36-.4,2.03,0,3.59,1.04,3.58,3.03,0,1.79-1.02,3.1-3.14,3.1-.85,0-1.64-.33-2.31-1.11.26-.32.56-.8.77-1.19.46.56.99.84,1.56.85,1,0,1.54-.7,1.54-1.65,0-.99-.71-1.7-2.04-1.7-.67.01-1.52.16-2.33.41v2.45c-.01,1.14-.74,2.14-2.26,2.13-1.08,0-2.3-.61-2.3-2.12,0-.84.57-1.71,1.5-2.38.45-.32.99-.63,1.57-.87v-2.12c-.81.05-1.73.06-2.73.05l-.02-1.48c1.03,0,1.94,0,2.76-.04v-2.1s1.96.05,1.96.05c0,.15-.12.26-.32.28-.04.48-.06,1.05-.09,1.62.69-.1,1.34-.24,1.9-.45l.19,1.54ZM96.54,130.87c-.72.43-1.66.99-1.66,1.82,0,.51.3.83.84.83.51,0,.83-.28.83-.88,0-.31,0-1.04,0-1.77ZM103.52,128.02c-.67-.62-1.79-1.27-2.78-1.65l.76-1.28c1.08.37,2.21,1.01,2.9,1.62l-.88,1.32Z"/>
          <path class="cls-2" d="M106.21,128.4l11.51.03v1.62s-11.52-.03-11.52-.03v-1.62Z"/>
          <path class="cls-2" d="M126.07,124.01c0,.12-.14.21-.34.23-.01.17-.04.4-.05.64.17,2.01.96,6.92,5.38,8.98-.47.35-.91.85-1.14,1.26-2.83-1.39-4.25-3.96-4.96-6.26-.66,2.19-1.97,4.61-4.61,6.24-.26-.38-.74-.83-1.25-1.18,5.01-2.76,4.85-8.44,4.94-10.09l2.02.18Z"/>
          <path class="cls-2" d="M135.41,127.52v.54c.33.46,1.23,1.85,1.44,2.18-.24.32-.46.65-.77,1.06-.15-.37-.41-.92-.68-1.45l-.02,5.37h-1.35s.01-4.71.01-4.71c-.33.98-.71,1.85-1.15,2.48-.13-.41-.44-.98-.65-1.31.71-.98,1.37-2.69,1.7-4.18h-1.4s0-1.38,0-1.38h1.51s0-2.58,0-2.58l1.67.1c-.01.11-.1.18-.32.22v2.26s1.24,0,1.24,0v1.37s-1.25,0-1.25,0ZM136.21,133.49c.73-.32,1.85-.9,2.93-1.44l.33,1.05c-.87.58-1.77,1.16-2.39,1.5.01.11-.04.21-.14.27l-.73-1.39ZM141.06,130.2c.14.38.31.74.51,1.09.45-.41.93-.93,1.23-1.33l1.25.96c-.06.07-.2.1-.35.07-.36.34-1.02.85-1.51,1.21.54.66,1.22,1.18,2.02,1.5-.31.28-.73.83-.94,1.21-.91-.5-1.64-1.27-2.21-2.21v1.09c0,1.23-.44,1.5-2.31,1.49-.05-.38-.21-.97-.39-1.33.42.03.91.03,1.06.03.15,0,.2-.06.2-.21v-3.98s-2.88,0-2.88,0v-1.21s2.9,0,2.9,0v-.58s-2.24,0-2.24,0v-1.15s2.24,0,2.24,0v-.57s-2.55,0-2.55,0v-1.21s1.15,0,1.15,0c-.13-.35-.32-.74-.5-1.07l1.18-.39c.28.43.58,1.02.69,1.39l-.2.07h1.82s-.13-.04-.13-.04c.22-.41.51-1.01.65-1.45l1.59.5c-.05.09-.16.13-.34.13-.14.25-.34.57-.53.87h1.31s0,1.22,0,1.22h-2.7s0,.56,0,.56h2.4s0,1.16,0,1.16h-2.4s0,.57,0,.57h2.92s0,1.22,0,1.22h-2.92s0,.4,0,.4ZM138.11,132.25c-.22-.43-.74-1.12-1.18-1.6l1.02-.67c.46.46.99,1.09,1.23,1.53l-1.07.74Z"/>
          <path class="cls-2" d="M148.83,134.21l5.11-5.96c1.06-1.24,1.12-1.99,1.12-3.07,0-.97-.48-1.45-1.16-1.46-.51,0-.88.25-1.05.6-.1.2-.17.5-.17.8v1.08s-3.82-.01-3.82-.01v-.94c0-1.65.44-2.68,1.27-3.5,1.03-1.02,2.37-1.45,3.79-1.44,1.42,0,2.65.35,3.61,1.32.82.83,1.36,2.01,1.36,3.71,0,1.96-.63,3.23-1.98,4.72l-3.6,4,5.72.02v3.42s-10.2-.03-10.2-.03v-3.25Z"/>
          <path class="cls-2" d="M164.64,129.24c-.27.43-.56.84-.86,1.2-.11-.37-.43-1.2-.61-1.57.94-1.16,1.89-3.19,2.47-5.17l1.62.54c-.05.11-.16.16-.35.15-.26.77-.56,1.55-.9,2.3l.37.11c-.03.11-.13.19-.32.22l-.02,8.34h-1.41s.02-6.12.02-6.12ZM167.25,124.3l7.49.02-.03,10.92h-1.41s0-.49,0-.49h-4.73s0,.58,0,.58h-1.35s.03-11.03.03-11.03ZM168.58,133.45h4.73s.02-7.85.02-7.85h-4.73s-.02,7.85-.02,7.85ZM172.96,128.23h-1.46s0,1.2,0,1.2h1.18s0,3.36,0,3.36h-3.44s0-3.36,0-3.36h1.11s0-1.2,0-1.2h-1.44s0-1.09,0-1.09h1.44s0-1.27,0-1.27l1.44.09c-.01.1-.1.17-.29.2v.99s1.46,0,1.46,0v1.09ZM171.54,131.76v-1.31s-1.23,0-1.23,0v1.31s1.23,0,1.23,0Z"/>
          <path class="cls-2" d="M178.1,125.43c.75.05,1.94.06,2.87.06.4,0,.8-.01,1.18-.02-.01-.53-.02-1.14-.02-1.51l1.93.09c-.01.14-.12.22-.32.26v1.11c1.27-.07,2.56-.17,3.75-.41l.14,1.44c-1.17.2-2.4.29-3.9.36,0,.58,0,1.15.02,1.72,1.11-.08,2.34-.24,3.12-.41l.12,1.37c-.82.17-2.06.29-3.22.35.01.61.05,1.16.07,1.61,1.12.37,2.27.97,3.34,1.75l-.94,1.35c-.77-.69-1.57-1.22-2.35-1.6v.36c-.03,1.01-.86,1.71-2.59,1.7-1.65,0-2.76-.81-2.75-1.99,0-1.25,1.33-1.99,2.83-1.98.31,0,.63.01.95.08,0-.37-.02-.79-.03-1.24-.33.01-.68.01-.96,0-1.68-.03-2.73-.28-2.72-1.2,0-.52.39-.99,1.29-1.53l1.05.55c-.45.2-.76.42-.76.6,0,.2.16.3,1.4.3.21,0,.43,0,.67-.01l-.07-1.76c-.38.01-.82.01-1.21,0-.85,0-2.1-.03-2.87-.03v-1.39ZM182.35,132.37c-.37-.1-.77-.18-1.1-.18-.77,0-1.35.32-1.35.8,0,.49.61.76,1.41.76.73,0,1.05-.31,1.05-.9v-.48Z"/>
          <path class="cls-2" d="M189.56,125.24c.38,0,.95,0,1.3-.03,1.43-.09,6.77-.41,8.86-.51l.02,1.67c-1.1-.04-1.71.06-2.69.75-1.36.9-3.05,2.6-3.06,4.01,0,1.41,1.24,2.23,3.95,2.52l-.77,1.54c-3.51-.43-4.89-1.92-4.89-4.06,0-1.51,1.4-3.46,3.26-4.76-1.53.13-4.4.35-5.53.47-.03.1-.19.18-.3.21l-.15-1.82ZM197.82,128.21c.53.44,1.17,1.15,1.5,1.68l-.73.58c-.27-.48-1.01-1.32-1.45-1.7l.68-.56ZM199.29,127.11c.56.45,1.18,1.12,1.5,1.66l-.72.57c-.28-.46-.98-1.28-1.47-1.69l.68-.54Z"/>
        </g>
      </g>
    </g>
  </g>
</svg>