<?xml version="1.0" encoding="UTF-8"?>
<svg xmlns="http://www.w3.org/2000/svg" viewBox="0 0 225.97 74.63">
  <defs>
    <style>
      .cls-1 {
        fill: #eaf6fd;
        fill-rule: evenodd;
      }

      .cls-2 {
        isolation: isolate;
      }

      .cls-3 {
        mix-blend-mode: multiply;
      }

      .cls-4 {
        fill: #fff;
      }

      .cls-5 {
        fill: #b8def3;
      }

      .cls-6 {
        fill: #0b318f;
      }
    </style>
  </defs>
  <g class="cls-2">
    <g id="_レイヤー_2" data-name="レイヤー 2">
      <g id="_テキスト_丼コメント_" data-name="テキスト（丼コメント）">
        <g>
          <rect class="cls-6" width="225.97" height="74.63"/>
          <g>
            <path class="cls-4" d="M134.37,32.62c-.67.87-1.92,1.03-2.78.36s-1.03-1.92-.36-2.78,1.91-1.03,2.78-.36,1.03,1.91.36,2.78Z"/>
            <path class="cls-5" d="M144.2,26.84c-.87,1.13-2.49,1.34-3.62.47s-1.34-2.49-.47-3.62,2.49-1.34,3.62-.47,1.34,2.49.47,3.62Z"/>
            <path class="cls-4" d="M145.17,14.37c-1.13,1.47-3.24,1.74-4.7.61s-1.74-3.24-.61-4.7,3.24-1.74,4.7-.61,1.74,3.24.61,4.7Z"/>
          </g>
          <g>
            <path class="cls-4" d="M186.63,67.03c-1.09.14-2.08-.63-2.22-1.72s.63-2.08,1.72-2.22,2.08.63,2.22,1.72-.63,2.08-1.72,2.22Z"/>
            <path class="cls-5" d="M197.66,69.92c-1.41.18-2.71-.82-2.89-2.23s.82-2.71,2.23-2.89,2.71.82,2.89,2.23-.82,2.71-2.23,2.89Z"/>
            <path class="cls-4" d="M207.19,61.81c-1.84.23-3.52-1.07-3.75-2.9s1.07-3.52,2.9-3.75,3.52,1.07,3.75,2.9-1.07,3.52-2.9,3.75Z"/>
          </g>
          <g>
            <g>
              <g>
                <polygon class="cls-4" points="211.61 25.48 211.58 25.48 211.57 25.5 211.61 25.48"/>
                <polygon class="cls-4" points="211.61 25.48 211.58 25.48 211.57 25.5 211.61 25.48"/>
              </g>
              <g>
                <path class="cls-4" d="M157.04,44.36c-.37.02-.73.3-.74.6-.02.31.22.65.59.65.42,0,.89.09,1.31-.22-.17-.74-.53-1.06-1.15-1.03Z"/>
                <path class="cls-4" d="M157.04,44.36c-.37.02-.73.3-.74.6-.02.31.22.65.59.65.42,0,.89.09,1.31-.22-.17-.74-.53-1.06-1.15-1.03Z"/>
              </g>
              <g>
                <path class="cls-4" d="M182.84,28.82c-.18-.16-.33-.37-.53-.47-.27-.13-.56-.04-.76.18-.23.25-.17.55,0,.78.19.27.39.59.83.54.47-.06.6-.34.48-1.03Z"/>
                <path class="cls-4" d="M182.84,28.82c-.18-.16-.33-.37-.53-.47-.27-.13-.56-.04-.76.18-.23.25-.17.55,0,.78.19.27.39.59.83.54.47-.06.6-.34.48-1.03Z"/>
              </g>
              <g>
                <path class="cls-4" d="M160.66,37.17c.2.21.41.15.65.06.24-.09.5-.12.74-.18,0-.75-.02-.76-1.18-.73-.07.09-.13.14-.15.2-.08.21-.28.41-.06.65Z"/>
                <path class="cls-4" d="M160.66,37.17c.2.21.41.15.65.06.24-.09.5-.12.74-.18,0-.75-.02-.76-1.18-.73-.07.09-.13.14-.15.2-.08.21-.28.41-.06.65Z"/>
              </g>
              <g>
                <path class="cls-4" d="M176.31,34.38c.33.49.57,1.06,1.3.76.09-.59-.02-.77-.55-1.03-.34-.16-.58-.12-.75.27Z"/>
                <path class="cls-4" d="M176.31,34.38c.33.49.57,1.06,1.3.76.09-.59-.02-.77-.55-1.03-.34-.16-.58-.12-.75.27Z"/>
              </g>
              <g>
                <path class="cls-4" d="M142.26,36.71c.19.45.52.71,1.01.83.15-.23.29-.44.42-.63-.5-.64-.8-.68-1.43-.21Z"/>
                <path class="cls-4" d="M142.26,36.71c.19.45.52.71,1.01.83.15-.23.29-.44.42-.63-.5-.64-.8-.68-1.43-.21Z"/>
              </g>
              <g>
                <path class="cls-4" d="M171.1,45.39c-.32,0-.46.19-.49.47.18.21.34.4.49.58.31-.05.57-.1.84-.14-.16-.54-.48-.9-.84-.9Z"/>
                <path class="cls-4" d="M171.1,45.39c-.32,0-.46.19-.49.47.18.21.34.4.49.58.31-.05.57-.1.84-.14-.16-.54-.48-.9-.84-.9Z"/>
              </g>
              <g>
                <path class="cls-4" d="M156.8,33.16c-.27-.13-.55-.03-.69.29-.06.12-.14.23-.23.39.19.22.36.42.62.71.19-.3.33-.46.4-.65.1-.26.23-.58-.11-.74Z"/>
                <path class="cls-4" d="M156.8,33.16c-.27-.13-.55-.03-.69.29-.06.12-.14.23-.23.39.19.22.36.42.62.71.19-.3.33-.46.4-.65.1-.26.23-.58-.11-.74Z"/>
              </g>
              <g>
                <path class="cls-4" d="M141.88,41.87c-.24-.19-.43-.14-.57.12-.27.52.03.94.72.96.22-.68.2-.82-.15-1.09Z"/>
                <path class="cls-4" d="M141.88,41.87c-.24-.19-.43-.14-.57.12-.27.52.03.94.72.96.22-.68.2-.82-.15-1.09Z"/>
              </g>
              <g>
                <path class="cls-4" d="M160.16,49.98c.14,0,.38-.1.43-.23.12-.25-.09-.38-.3-.47-.4-.17-.78-.09-1.19.18.25.47.67.48,1.06.51Z"/>
                <path class="cls-4" d="M160.16,49.98c.14,0,.38-.1.43-.23.12-.25-.09-.38-.3-.47-.4-.17-.78-.09-1.19.18.25.47.67.48,1.06.51Z"/>
              </g>
              <g>
                <path class="cls-4" d="M192.95,34.91c.22.13.41.24.65.39.24-.21.48-.41.76-.65-.37-.33-.68-.43-1.08-.29-.3.1-.41.28-.33.55Z"/>
                <path class="cls-4" d="M192.95,34.91c.22.13.41.24.65.39.24-.21.48-.41.76-.65-.37-.33-.68-.43-1.08-.29-.3.1-.41.28-.33.55Z"/>
              </g>
              <g>
                <path class="cls-4" d="M151.59,32.32c-.04.14-.09.29-.15.47.46.37.89.39,1.36.26-.19-.59-.46-.74-1.22-.72Z"/>
                <path class="cls-4" d="M151.59,32.32c-.04.14-.09.29-.15.47.46.37.89.39,1.36.26-.19-.59-.46-.74-1.22-.72Z"/>
              </g>
              <g>
                <path class="cls-4" d="M182.47,37.73c-.28-.63-.63-.71-1.42-.29.85.64.89.65,1.42.29Z"/>
                <path class="cls-4" d="M182.47,37.73c-.28-.63-.63-.71-1.42-.29.85.64.89.65,1.42.29Z"/>
              </g>
              <g>
                <path class="cls-4" d="M172.91,35.47c.06-.07.09-.27.04-.31-.19-.16-.4-.33-.64-.39-.14-.04-.33.13-.55.23.25.32.44.55.67.84.19-.14.35-.24.47-.38Z"/>
                <path class="cls-4" d="M172.91,35.47c.06-.07.09-.27.04-.31-.19-.16-.4-.33-.64-.39-.14-.04-.33.13-.55.23.25.32.44.55.67.84.19-.14.35-.24.47-.38Z"/>
              </g>
              <g>
                <path class="cls-4" d="M176.79,42.55c.32-.78.2-.92-.75-.89q-.06.69.75.89Z"/>
                <path class="cls-4" d="M176.79,42.55c.32-.78.2-.92-.75-.89q-.06.69.75.89Z"/>
              </g>
              <g>
                <path class="cls-4" d="M185.15,30.15c.22.22.42.44.64.66.22-.07.41-.14.61-.2-.08-.62-.64-.84-1.24-.46Z"/>
                <path class="cls-4" d="M185.15,30.15c.22.22.42.44.64.66.22-.07.41-.14.61-.2-.08-.62-.64-.84-1.24-.46Z"/>
              </g>
              <g>
                <path class="cls-4" d="M190.8,33.51c.05-.08.05-.27,0-.32-.26-.21-.55-.39-.91-.64-.12.81.12,1.16.64,1.12.1,0,.24-.08.28-.16Z"/>
                <path class="cls-4" d="M190.8,33.51c.05-.08.05-.27,0-.32-.26-.21-.55-.39-.91-.64-.12.81.12,1.16.64,1.12.1,0,.24-.08.28-.16Z"/>
              </g>
              <g>
                <path class="cls-4" d="M154.72,57.67c-.1.32.22.63.74.78q.1-.55-.27-1.15c-.17.12-.43.22-.48.37Z"/>
                <path class="cls-4" d="M154.72,57.67c-.1.32.22.63.74.78q.1-.55-.27-1.15c-.17.12-.43.22-.48.37Z"/>
              </g>
              <g>
                <path class="cls-4" d="M163.44,42.01c.08.54.4.8.91.87.28-.71.02-.96-.91-.87Z"/>
                <path class="cls-4" d="M163.44,42.01c.08.54.4.8.91.87.28-.71.02-.96-.91-.87Z"/>
              </g>
              <g>
                <path class="cls-4" d="M169.12,54.89c.27-.1.29-.34.23-.58-.07-.27-.33-.38-.61-.29-.25.08-.33.23-.24.48.1.31.37.49.62.4Z"/>
                <path class="cls-4" d="M169.12,54.89c.27-.1.29-.34.23-.58-.07-.27-.33-.38-.61-.29-.25.08-.33.23-.24.48.1.31.37.49.62.4Z"/>
              </g>
              <g>
                <path class="cls-4" d="M165.11,48.29c-.23-.47-.51-.63-1.05-.6.09.74.31.86,1.05.6Z"/>
                <path class="cls-4" d="M165.11,48.29c-.23-.47-.51-.63-1.05-.6.09.74.31.86,1.05.6Z"/>
              </g>
              <g>
                <path class="cls-4" d="M170.32,50.54c0-.34-.2-.45-.79-.44-.03.09-.06.15-.05.18.07.24.16.48.25.76.17-.04.35-.04.45-.12.09-.07.13-.25.13-.38Z"/>
                <path class="cls-4" d="M170.32,50.54c0-.34-.2-.45-.79-.44-.03.09-.06.15-.05.18.07.24.16.48.25.76.17-.04.35-.04.45-.12.09-.07.13-.25.13-.38Z"/>
              </g>
              <g>
                <path class="cls-4" d="M154.3,41.29c-.5-.02-.85.02-1.14.6.39.04.69.15.95.07.11-.03.13-.42.19-.67Z"/>
                <path class="cls-4" d="M154.3,41.29c-.5-.02-.85.02-1.14.6.39.04.69.15.95.07.11-.03.13-.42.19-.67Z"/>
              </g>
              <g>
                <path class="cls-4" d="M164.66,35.52c.08-.07.14-.29.1-.36-.11-.17-.27-.34-.45-.42-.13-.06-.33.04-.63.09.26.3.42.53.62.7.07.06.29.05.37-.01Z"/>
                <path class="cls-4" d="M164.66,35.52c.08-.07.14-.29.1-.36-.11-.17-.27-.34-.45-.42-.13-.06-.33.04-.63.09.26.3.42.53.62.7.07.06.29.05.37-.01Z"/>
              </g>
              <g>
                <path class="cls-4" d="M157.55,55.19c-.07-.17-.33-.3-.53-.35-.09-.02-.31.21-.34.35-.08.4.36.32.59.62.13-.27.34-.51.28-.63Z"/>
                <path class="cls-4" d="M157.55,55.19c-.07-.17-.33-.3-.53-.35-.09-.02-.31.21-.34.35-.08.4.36.32.59.62.13-.27.34-.51.28-.63Z"/>
              </g>
              <g>
                <path class="cls-4" d="M149.13,34.76c-.34-.17-.63-.22-.91-.05-.09.06-.16.22-.16.34,0,.07.15.2.24.2.34.02.66-.02.83-.49Z"/>
                <path class="cls-4" d="M149.13,34.76c-.34-.17-.63-.22-.91-.05-.09.06-.16.22-.16.34,0,.07.15.2.24.2.34.02.66-.02.83-.49Z"/>
              </g>
              <g>
                <path class="cls-4" d="M174.16,49.67c-.4-.5-.6-.59-.86-.4-.18.14-.22.46-.04.62.42.37.59-.15.9-.22Z"/>
                <path class="cls-4" d="M174.16,49.67c-.4-.5-.6-.59-.86-.4-.18.14-.22.46-.04.62.42.37.59-.15.9-.22Z"/>
              </g>
              <g>
                <path class="cls-4" d="M156.41,31.31c.39.2.76.49,1.26.11-.33-.49-.89-.54-1.26-.11Z"/>
                <path class="cls-4" d="M156.41,31.31c.39.2.76.49,1.26.11-.33-.49-.89-.54-1.26-.11Z"/>
              </g>
              <g>
                <path class="cls-4" d="M174.49,52.57c0-.26.06-.51-.03-.68-.14-.24-.39-.43-.71-.23.09.57.1.59.74.9Z"/>
                <path class="cls-4" d="M174.49,52.57c0-.26.06-.51-.03-.68-.14-.24-.39-.43-.71-.23.09.57.1.59.74.9Z"/>
              </g>
              <g>
                <path class="cls-4" d="M188.13,41.39c.11.09.28.19.4.16.12-.03.26-.21.26-.33,0-.13-.13-.33-.25-.36-.22-.06-.46-.02-.82-.02.21.3.29.45.41.55Z"/>
                <path class="cls-4" d="M188.13,41.39c.11.09.28.19.4.16.12-.03.26-.21.26-.33,0-.13-.13-.33-.25-.36-.22-.06-.46-.02-.82-.02.21.3.29.45.41.55Z"/>
              </g>
              <g>
                <path class="cls-4" d="M178.96,50c.03-.15-.03-.38-.13-.49-.22-.21-.47-.16-.67.1.03.28.11.57.43.62.11.02.35-.13.37-.23Z"/>
                <path class="cls-4" d="M178.96,50c.03-.15-.03-.38-.13-.49-.22-.21-.47-.16-.67.1.03.28.11.57.43.62.11.02.35-.13.37-.23Z"/>
              </g>
              <g>
                <path class="cls-4" d="M164.68,51.24c.19.17.39.35.61.55.22-.35.32-.65.02-.87-.25-.18-.48-.04-.63.32Z"/>
                <path class="cls-4" d="M164.68,51.24c.19.17.39.35.61.55.22-.35.32-.65.02-.87-.25-.18-.48-.04-.63.32Z"/>
              </g>
              <g>
                <path class="cls-4" d="M143.91,39.87c-.4.39-.4.42.17.92.39-.52.38-.53-.17-.92Z"/>
                <path class="cls-4" d="M143.91,39.87c-.4.39-.4.42.17.92.39-.52.38-.53-.17-.92Z"/>
              </g>
              <g>
                <path class="cls-4" d="M163.26,57.27c.03-.14.11-.33.09-.51-.02-.2-.39-.36-.56-.27-.17.1-.31.26-.13.45.14.14.18.48.6.33Z"/>
                <path class="cls-4" d="M163.26,57.27c.03-.14.11-.33.09-.51-.02-.2-.39-.36-.56-.27-.17.1-.31.26-.13.45.14.14.18.48.6.33Z"/>
              </g>
              <g>
                <path class="cls-4" d="M181.69,44.55c.08.13.28.18.43.26.08-.19.16-.38.29-.66-.25-.08-.43-.21-.55-.17-.27.09-.3.36-.17.57Z"/>
                <path class="cls-4" d="M181.69,44.55c.08.13.28.18.43.26.08-.19.16-.38.29-.66-.25-.08-.43-.21-.55-.17-.27.09-.3.36-.17.57Z"/>
              </g>
              <g>
                <path class="cls-4" d="M182.34,32.5c-.31.09-.55.15-.77.22.04.46.24.63.58.52.34-.11.21-.39.19-.74Z"/>
                <path class="cls-4" d="M182.34,32.5c-.31.09-.55.15-.77.22.04.46.24.63.58.52.34-.11.21-.39.19-.74Z"/>
              </g>
              <g>
                <path class="cls-4" d="M187.37,37.78c.03.23-.01.43.07.53.11.11.32.2.47.18.11-.01.28-.22.27-.32,0-.11-.18-.24-.31-.3-.12-.06-.27-.05-.5-.08Z"/>
                <path class="cls-4" d="M187.37,37.78c.03.23-.01.43.07.53.11.11.32.2.47.18.11-.01.28-.22.27-.32,0-.11-.18-.24-.31-.3-.12-.06-.27-.05-.5-.08Z"/>
              </g>
              <g>
                <path class="cls-4" d="M173.03,30.03c.19.27.25.72.64.5.34-.2.12-.51-.1-.81-.18.11-.35.2-.54.31Z"/>
                <path class="cls-4" d="M173.03,30.03c.19.27.25.72.64.5.34-.2.12-.51-.1-.81-.18.11-.35.2-.54.31Z"/>
              </g>
              <g>
                <path class="cls-4" d="M191.99,38.37c-.29-.28-.4-.67-.93-.61.17.64.26.7.93.61Z"/>
                <path class="cls-4" d="M191.99,38.37c-.29-.28-.4-.67-.93-.61.17.64.26.7.93.61Z"/>
              </g>
              <g>
                <path class="cls-4" d="M178.21,32.96c-.09-.09-.29-.12-.42-.08-.2.05-.31.21-.2.46.08.23.28.2.46.15.18-.05.3-.38.16-.52Z"/>
                <path class="cls-4" d="M178.21,32.96c-.09-.09-.29-.12-.42-.08-.2.05-.31.21-.2.46.08.23.28.2.46.15.18-.05.3-.38.16-.52Z"/>
              </g>
              <g>
                <path class="cls-4" d="M149.18,44.66c.11-.28.22-.44.21-.59,0-.24-.2-.27-.41-.25-.23.03-.36.17-.28.37.06.15.25.25.48.47Z"/>
                <path class="cls-4" d="M149.18,44.66c.11-.28.22-.44.21-.59,0-.24-.2-.27-.41-.25-.23.03-.36.17-.28.37.06.15.25.25.48.47Z"/>
              </g>
              <g>
                <path class="cls-4" d="M151.06,55.77c.12-.56-.06-.88-.64-1.11.04.54.25.84.64,1.11Z"/>
                <path class="cls-4" d="M151.06,55.77c.12-.56-.06-.88-.64-1.11.04.54.25.84.64,1.11Z"/>
              </g>
              <g>
                <path class="cls-4" d="M167.64,29c-.29.21-.02.49.12.82.21-.16.38-.29.62-.47-.28-.22-.44-.56-.74-.35Z"/>
                <path class="cls-4" d="M167.64,29c-.29.21-.02.49.12.82.21-.16.38-.29.62-.47-.28-.22-.44-.56-.74-.35Z"/>
              </g>
              <g>
                <path class="cls-4" d="M178.46,29.3c-.11-.18-.18-.44-.34-.54-.19-.11-.43-.02-.61.23.28.16.53.3.78.44.05-.05.11-.09.16-.14Z"/>
                <path class="cls-4" d="M178.46,29.3c-.11-.18-.18-.44-.34-.54-.19-.11-.43-.02-.61.23.28.16.53.3.78.44.05-.05.11-.09.16-.14Z"/>
              </g>
              <g>
                <path class="cls-4" d="M149.4,37.62c.11.26.11.58.53.64.09-.2.3-.38.1-.61-.17-.19-.39-.26-.62-.03Z"/>
                <path class="cls-4" d="M149.4,37.62c.11.26.11.58.53.64.09-.2.3-.38.1-.61-.17-.19-.39-.26-.62-.03Z"/>
              </g>
              <g>
                <path class="cls-4" d="M160.6,31.69c.16.37.27.63.41.96.36-.68.3-.83-.41-.96Z"/>
                <path class="cls-4" d="M160.6,31.69c.16.37.27.63.41.96.36-.68.3-.83-.41-.96Z"/>
              </g>
              <g>
                <path class="cls-4" d="M169.76,33.16q-.1-.46-.84-.48c.17.45.43.6.84.48Z"/>
                <path class="cls-4" d="M169.76,33.16q-.1-.46-.84-.48c.17.45.43.6.84.48Z"/>
              </g>
              <g>
                <path class="cls-4" d="M161,43.99c.29-.63.26-.67-.5-.84.16.35.07.73.5.84Z"/>
                <path class="cls-4" d="M161,43.99c.29-.63.26-.67-.5-.84.16.35.07.73.5.84Z"/>
              </g>
              <g>
                <path class="cls-4" d="M184.21,43c-.08.12-.13.29-.11.42.02.15.15.28.27.49.15-.22.29-.35.31-.49.02-.13-.07-.3-.16-.41-.05-.06-.27-.06-.3-.02Z"/>
                <path class="cls-4" d="M184.21,43c-.08.12-.13.29-.11.42.02.15.15.28.27.49.15-.22.29-.35.31-.49.02-.13-.07-.3-.16-.41-.05-.06-.27-.06-.3-.02Z"/>
              </g>
              <g>
                <path class="cls-4" d="M176.28,47.58c.12.26.3.27.57.24-.1-.29-.18-.53-.3-.91-.18.26-.41.37-.27.67Z"/>
                <path class="cls-4" d="M176.28,47.58c.12.26.3.27.57.24-.1-.29-.18-.53-.3-.91-.18.26-.41.37-.27.67Z"/>
              </g>
              <g>
                <path class="cls-4" d="M160.36,54.2c0,.45.18.67.55.75.15-.61.12-.65-.55-.75Z"/>
                <path class="cls-4" d="M160.36,54.2c0,.45.18.67.55.75.15-.61.12-.65-.55-.75Z"/>
              </g>
              <g>
                <path class="cls-4" d="M163.96,29.77q.2.56.44.79c.24-.54.13-.77-.44-.79Z"/>
                <path class="cls-4" d="M163.96,29.77q.2.56.44.79c.24-.54.13-.77-.44-.79Z"/>
              </g>
              <g>
                <path class="cls-4" d="M185.56,38.23c-.25-.3-.43-.52-.67-.81-.25.61-.21.65.67.81Z"/>
                <path class="cls-4" d="M185.56,38.23c-.25-.3-.43-.52-.67-.81-.25.61-.21.65.67.81Z"/>
              </g>
              <g>
                <path class="cls-4" d="M167.25,46.61c.16.72.23.74.89.18-.33-.07-.59-.12-.89-.18Z"/>
                <path class="cls-4" d="M167.25,46.61c.16.72.23.74.89.18-.33-.07-.59-.12-.89-.18Z"/>
              </g>
              <g>
                <path class="cls-4" d="M167.04,40.8c.1.79.14.82.66.6-.2-.18-.37-.34-.66-.6Z"/>
                <path class="cls-4" d="M167.04,40.8c.1.79.14.82.66.6-.2-.18-.37-.34-.66-.6Z"/>
              </g>
              <g>
                <path class="cls-4" d="M152.11,58.31c.17.32.28.52.45.82.26-.35.18-.56,0-.72-.07-.07-.22-.05-.45-.09Z"/>
                <path class="cls-4" d="M152.11,58.31c.17.32.28.52.45.82.26-.35.18-.56,0-.72-.07-.07-.22-.05-.45-.09Z"/>
              </g>
              <g>
                <path class="cls-4" d="M168.17,34.18c-.67,0-.68.02-.49.71.17-.25.31-.46.49-.71Z"/>
                <path class="cls-4" d="M168.17,34.18c-.67,0-.68.02-.49.71.17-.25.31-.46.49-.71Z"/>
              </g>
              <g>
                <path class="cls-4" d="M155.98,42.51c.03-.05.06-.1.1-.16-.22-.14-.44-.28-.73-.45,0,.56.32.58.63.61Z"/>
                <path class="cls-4" d="M155.98,42.51c.03-.05.06-.1.1-.16-.22-.14-.44-.28-.73-.45,0,.56.32.58.63.61Z"/>
              </g>
              <g>
                <path class="cls-4" d="M182.17,47.03c.04.29.08.53.12.77q.34-.48-.12-.77Z"/>
                <path class="cls-4" d="M182.17,47.03c.04.29.08.53.12.77q.34-.48-.12-.77Z"/>
              </g>
              <g>
                <path class="cls-4" d="M159.16,58.66c-.13-.23-.23-.39-.32-.55-.05.03-.1.06-.14.09.08.17.06.41.46.46Z"/>
                <path class="cls-4" d="M159.16,58.66c-.13-.23-.23-.39-.32-.55-.05.03-.1.06-.14.09.08.17.06.41.46.46Z"/>
              </g>
              <g>
                <path class="cls-4" d="M213.12,21.75c-.36,1.05-1.09,1.78-1.14,2.81.34.22.64.09.97-.26.02.7.53.74.92.88.25.09.36.22.34.46-.06.7-.12,1.4-.18,2.11,0,.12-.03.24,0,.35.23.67.47,1.34.97,1.87.56.59.89,1.26.66,2.1-.2.74-.12,1.52.21,2.15.67,1.33.64,2.66.33,4.05-.1.45-.11.93.12,1.37.69-.29,1.14-1.12.95-1.91-.17-.69-.09-1.36,0-2.04.16-1.15.42-2.28.21-3.45-.08-.42-.21-.83-.22-1.25-.04-1.46-.36-2.81-1.33-3.95-.06-.07-.1-.16-.14-.25-.31-.72-.99-1.22-1.17-2.02-.02-.08-.13-.14-.18-.22-.1-.17-.23-.34-.29-.53-.21-.76-.54-1.46-1.04-2.27Z"/>
                <path class="cls-4" d="M213.12,21.75c-.36,1.05-1.09,1.78-1.14,2.81.34.22.64.09.97-.26.02.7.53.74.92.88.25.09.36.22.34.46-.06.7-.12,1.4-.18,2.11,0,.12-.03.24,0,.35.23.67.47,1.34.97,1.87.56.59.89,1.26.66,2.1-.2.74-.12,1.52.21,2.15.67,1.33.64,2.66.33,4.05-.1.45-.11.93.12,1.37.69-.29,1.14-1.12.95-1.91-.17-.69-.09-1.36,0-2.04.16-1.15.42-2.28.21-3.45-.08-.42-.21-.83-.22-1.25-.04-1.46-.36-2.81-1.33-3.95-.06-.07-.1-.16-.14-.25-.31-.72-.99-1.22-1.17-2.02-.02-.08-.13-.14-.18-.22-.1-.17-.23-.34-.29-.53-.21-.76-.54-1.46-1.04-2.27Z"/>
              </g>
              <g>
                <path class="cls-4" d="M191.85,33.63c-1.42.21-2.84.4-4.25.65-1.26.23-2.49.54-3.74.8-.6.12-1.22.18-1.82.31-1.23.26-2.44.62-3.67.82-2.01.32-4,.77-5.95,1.32-2.02.57-4.02,1.26-6.11,1.56-1.16.17-2.36.29-3.53.21-1.26-.08-2.53-.34-3.76-.67-1.3-.35-2.6-.43-3.93-.43-1.73,0-2.99.88-4.03,2.14-.58.71-1.05,1.52-1.93,1.93-.14.06-.24.22-.36.35.39.3.78.18,1.07-.04.64-.48,1.24-1.01,1.82-1.56.83-.78,1.79-1.28,2.92-1.21,1.03.07,2.06.29,3.08.49,1.6.32,3.2.51,4.83.57,1.45.06,2.87-.18,4.3-.38,1.95-.28,3.8-.88,5.68-1.43.17.15.37.1,1.01-.05-.04-.07-.07-.14-.11-.21.17-.05.33-.09.5-.13.95-.24,1.88-.57,2.81-.89.1.05.21.06.36.02.08-.02.17-.12.2-.21.36-.12.72-.23,1.09-.34,2-.58,4.02-1.09,6.03-1.62,1.42-.37,2.84-.72,4.27-1.07,1.09-.27,2.18-.52,3.27-.78,0-.05-.02-.1-.03-.14Z"/>
                <path class="cls-4" d="M191.85,33.63c-1.42.21-2.84.4-4.25.65-1.26.23-2.49.54-3.74.8-.6.12-1.22.18-1.82.31-1.23.26-2.44.62-3.67.82-2.01.32-4,.77-5.95,1.32-2.02.57-4.02,1.26-6.11,1.56-1.16.17-2.36.29-3.53.21-1.26-.08-2.53-.34-3.76-.67-1.3-.35-2.6-.43-3.93-.43-1.73,0-2.99.88-4.03,2.14-.58.71-1.05,1.52-1.93,1.93-.14.06-.24.22-.36.35.39.3.78.18,1.07-.04.64-.48,1.24-1.01,1.82-1.56.83-.78,1.79-1.28,2.92-1.21,1.03.07,2.06.29,3.08.49,1.6.32,3.2.51,4.83.57,1.45.06,2.87-.18,4.3-.38,1.95-.28,3.8-.88,5.68-1.43.17.15.37.1,1.01-.05-.04-.07-.07-.14-.11-.21.17-.05.33-.09.5-.13.95-.24,1.88-.57,2.81-.89.1.05.21.06.36.02.08-.02.17-.12.2-.21.36-.12.72-.23,1.09-.34,2-.58,4.02-1.09,6.03-1.62,1.42-.37,2.84-.72,4.27-1.07,1.09-.27,2.18-.52,3.27-.78,0-.05-.02-.1-.03-.14Z"/>
              </g>
              <g>
                <path class="cls-4" d="M154.37,49.94c.08-1.02-.15-2.01-.34-3-.08-.41-.09-.77.02-1.17.13-.48.25-.98.06-1.5-2.75,2.07-5.16,3.59-6.44,4.03-.78-1.25-1.58-2.52-2.44-3.89-.17.67-.33,1.16.06,1.67.31.4.56.85.83,1.28.45.74.9,1.5,1.36,2.23.67,1.06.89,2.23,1.08,3.4.13.76-.07,1.59-.16,2.38-.08.72-.21,1.43-.34,2.22.17-.09.32-.12.39-.21.35-.45.66-.91.72-1.51.09-.82.29-1.63.33-2.45.06-1.03-.24-2-.7-2.93-.18-.37-.47-.72-.4-1.24,1.5-.13,2.58-1.09,3.69-1.95.08.3.12.55.22.77.11.24.29.45.48.72-.3.22-.61.45-.91.67.18.3.37.35.62.19.35-.22.7-.43,1.15-.7.06.34.12.65.21,1.09-.9.3-1.72.57-2.54.84,0,.06.02.12.03.18.53.28,1.1-.09,1.7.03-.11.1-.2.16-.27.24-.54.69-1.14,1.23-2.11,1.13-.06,0-.13.05-.18.08-.28.49.09.78.25,1.1.75.09,1.47,0,1.92-.53.56-.64,1.14-1.31,1.37-2.19.09-.34.32-.65.34-.99Z"/>
                <path class="cls-4" d="M154.37,49.94c.08-1.02-.15-2.01-.34-3-.08-.41-.09-.77.02-1.17.13-.48.25-.98.06-1.5-2.75,2.07-5.16,3.59-6.44,4.03-.78-1.25-1.58-2.52-2.44-3.89-.17.67-.33,1.16.06,1.67.31.4.56.85.83,1.28.45.74.9,1.5,1.36,2.23.67,1.06.89,2.23,1.08,3.4.13.76-.07,1.59-.16,2.38-.08.72-.21,1.43-.34,2.22.17-.09.32-.12.39-.21.35-.45.66-.91.72-1.51.09-.82.29-1.63.33-2.45.06-1.03-.24-2-.7-2.93-.18-.37-.47-.72-.4-1.24,1.5-.13,2.58-1.09,3.69-1.95.08.3.12.55.22.77.11.24.29.45.48.72-.3.22-.61.45-.91.67.18.3.37.35.62.19.35-.22.7-.43,1.15-.7.06.34.12.65.21,1.09-.9.3-1.72.57-2.54.84,0,.06.02.12.03.18.53.28,1.1-.09,1.7.03-.11.1-.2.16-.27.24-.54.69-1.14,1.23-2.11,1.13-.06,0-.13.05-.18.08-.28.49.09.78.25,1.1.75.09,1.47,0,1.92-.53.56-.64,1.14-1.31,1.37-2.19.09-.34.32-.65.34-.99Z"/>
              </g>
              <g>
                <path class="cls-4" d="M144.37,57.44c.55-.67,1.14-1.32,1.6-2.06.85-1.36,1.06-2.81.35-4.31-.17-.36-.49-.64-.69-.98-.8-1.31-1.57-2.63-2.36-3.95-.09-.16-.21-.3-.31-.43-.52.21-.52.6-.38.96.28.69.6,1.38.97,2.03.44.78.95,1.52,1.42,2.28.16.26.28.54.39.83.1.26.12.52,0,.82-.22.55-.43,1.12-.49,1.69-.1.99-.34,1.88-.97,2.68-.14.17-.43.48-.08.85.2-.14.43-.24.57-.41Z"/>
                <path class="cls-4" d="M144.37,57.44c.55-.67,1.14-1.32,1.6-2.06.85-1.36,1.06-2.81.35-4.31-.17-.36-.49-.64-.69-.98-.8-1.31-1.57-2.63-2.36-3.95-.09-.16-.21-.3-.31-.43-.52.21-.52.6-.38.96.28.69.6,1.38.97,2.03.44.78.95,1.52,1.42,2.28.16.26.28.54.39.83.1.26.12.52,0,.82-.22.55-.43,1.12-.49,1.69-.1.99-.34,1.88-.97,2.68-.14.17-.43.48-.08.85.2-.14.43-.24.57-.41Z"/>
              </g>
              <g>
                <path class="cls-4" d="M205.17,36.93c.83-.06,1.65-.16,2.48-.17,1.08-.02,2.16-.11,3.25.04,1.16.15,2.33.01,3.49-.21-3.23-.5-6.53-.21-9.73-.98.12-.11.24-.16.37-.19,1.89-.33,3.78-.65,5.66-.98.88-.16,1.76-.34,2.64-.54.34-.08.61-.29.83-.74-1.76.18-3.42.38-5.09.5-1.69.12-3.38.14-5.07.21.69-.28,1.41-.43,2.11-.63,1.92-.54,3.82-1.1,5.74-1.64.45-.13.92-.23,1.37-.36.19-.05.36-.15.27-.43-.2.02-.42.02-.62.06-1.51.29-3.02.6-4.53.88-1.37.26-2.75.5-4.12.74-.2.04-.42,0-.63,0,.09-.16.17-.2.25-.23,1.05-.38,2.09-.75,3.14-1.13,1.18-.43,2.37-.83,3.53-1.31.7-.28,1.35-.67,2.02-1.02.09-.05.14-.15.24-.25-.1-.03-.14-.05-.17-.04-1.52.47-3.03.93-4.54,1.4-.57.18-1.13.36-1.7.52-.12.04-.27,0-.54,0,2.03-1.09,3.92-2.11,5.81-3.13-.74.2-1.43.49-2.13.77-.67.27-1.29.7-2.07.7.19-.22.4-.41.65-.53,1.16-.53,2.12-1.34,3.07-2.15.18-.16.3-.39.45-.59v-.02c-.3.22-.6.44-.92.65-.32.21-.64.42-.97.59-.31.16-.58.43-1.06.45.19-.3.32-.5.44-.7.79-1.24,1.58-2.47,2.37-3.71.11-.18.18-.39.26-.59-.21-.01-.3.05-.38.13-.96.88-1.89,1.79-2.87,2.64-.49.43-1.05.8-1.6,1.15-.94.59-1.88,1.18-2.85,1.72-.78.43-1.57.92-2.42,1.15-1.09.3-2.14.62-3,1.37-.49.42-1.08.44-1.63.42-.7-.03-1.4-.23-2.08-.41-.2-.05-.39-.24-.53-.41-.22-.29-.4-.62-.62-.98-.21.95.04,1.6.76,1.99.68.37,1.37.72,2.08,1.09-.02.33-.11.69.3.9.08.04.05.26.08.4.04.21.03.47.15.61.39.43.27.86.13,1.32-.05.18-.06.37-.1.55-.21.89-.4,1.76-1.37,2.23-.89.43-1.67,1.06-2.36,1.8-.5.54-1.02,1.05-1.56,1.54-1.35,1.22-2.74,2.42-3.82,3.9-1.31,1.8-2.91,3.3-4.51,4.81-.8.75-1.77,1.33-2.69,1.95-1.25.85-2.53,1.66-3.79,2.5-.35.23-.68.51-1.04.74-.29.19-.6.38-.92.51-.7.29-1.41.56-2.12.82-.82.3-1.64.6-2.47.88-.33.11-.69.18-1.03.26-2.21.53-4.41,1.1-6.63,1.56-1.59.33-3.22.53-4.83.76-1.28.18-2.57.35-3.87.47-.63.06-1.28-.08-1.91,0-1.12.13-2.21.11-3.31-.13-.97-.21-1.93-.44-2.9-.66-.58-.13-1.15-.21-1.76-.14-.31.04-.65-.06-.96-.14-.91-.24-1.81-.55-2.73-.76-.76-.17-1.52-.32-2.22-.69-.73-.38-1.49-.71-2.26-1.02-1.03-.41-2.1-.73-3.11-1.18-.58-.26-1.19-.54-1.64-1.09.48-.24,1.12.14,1.45-.48-.54-.11-1.05-.19-1.54-.32-.47-.13-1.02.15-1.56-.33,1.03-.04,1.94-.09,2.85-.1,1.04,0,2,.27,2.84.9.43.32.86.66,1.27,1.01.3.25.56.53.9.85.16-.56.06-.96-.19-1.35-.39-.62-.94-1.05-1.57-1.4-.41-.23-.77-.53-1.16-.79-.26-.17-.51-.34-.79-.48-.72-.36-1.44-.72-2.17-1.05-.88-.4-1.68-.97-2.65-1.13-.08-.01-.15-.08-.27-.14.45-.47.9-.67,1.47-.35.25.14.51.26.76.39.7.37,1.45.49,2.26.44-.74-.55-1.49-1.1-2.16-1.59.47-.85.91-1.66,1.37-2.45.26-.46.51-.95.95-1.3.54.42,1.09.67,1.77.67.7,0,1.23-.26,1.52-.85.27-.55.23-1.18-.21-1.66-.38-.42-.84-.76-1.32-1.17.7-.56,1.43-1.11,2.12-1.7,1.15-.98,2.23-2.05,3.42-2.98,1.77-1.38,3.8-2.35,5.81-3.32,1.27-.62,2.57-1.2,3.86-1.77,1.56-.68,3.11-1.39,4.71-1.97,1.04-.38,2.15-.56,3.22-.85,1.5-.41,3.02-.75,4.56-1.02,2.39-.41,4.8-.41,7.21-.54.94-.05,1.88-.15,2.82-.23,1.17-.1,2.35-.25,3.52-.32,1.22-.07,2.45-.06,3.68-.11,1.42-.07,2.81.13,4.1.69,1.15.5,2.36.71,3.56.88.99.14,1.93.27,2.67,1.02.02.02.08,0,0,0,.15-.27.26-.48.38-.7.03-.05.07-.1.1-.15-.16-.03-.34-.02-.48-.09-.16-.08-.33-.2-.41-.35-.27-.47-.5-.96-.73-1.46-.06-.13-.06-.29-.08-.46.93.17,1.51.61,1.74,1.52.11.45.39.86.65,1.25.2.3.4.63.78.76.26-.49.24-.48.09-.86-.16-.43-.49-.8-.48-1.34.71-.04,1.25.67,2.07.33-.29-.2-.52-.36-.75-.5-1.01-.62-2.01-1.24-2.71-2.23-.06-.09-.17-.22-.26-.23-.46-.02-.69-.39-1-.63-1.18-.95-2.32-1.94-3.53-2.85-1.71-1.29-3.69-1.99-5.77-2.44-.53-.12-1.07-.22-1.61-.28-1.13-.13-2.26-.29-3.39-.33-1.7-.06-3.41-.04-5.11-.03-.83,0-1.66,0-2.48.09-1.51.16-2.98.48-4.46.85-1.54.39-3.07.79-4.51,1.49-.83.4-1.65.83-2.48,1.24-.61.3-1.27.54-1.84.9-1.3.82-2.58,1.67-3.82,2.58-.99.72-1.94,1.52-2.84,2.34-.92.84-1.75,1.78-2.66,2.64-.89.84-1.84,1.63-2.74,2.46-.34.32-.62.7-.94,1.04-1.04,1.1-2.11,2.17-3.12,3.29-.6.66-1.07,1.43-1.79,1.99-.55.43-1,1-1.45,1.55-.36.43-.57.99-1.13,1.24-.11.05-.17.21-.24.33-.24.4-.42.86-.72,1.2-.67.75-1.23,1.55-1.67,2.46-.23.48-.56.87-1.1,1.04-1.37.43-1.92,1.52-2.2,2.8-.04.2.05.45.14.65.09.21.25.39.32.51.55.11,1.02.21,1.48.3-.08.13-.15.16-.21.17-1.34.15-1.96.73-2.29,2.38-.09.47.5,1.14.91,1.01.93-.3,1.74-.08,2.52.46.26.18.6.26.87.43.53.33,1.05.7,1.57,1.06.25.17.5.37.76.51.57.31,1.18.56,1.74.88,1.24.71,2.55,1.22,3.94,1.53.71.16,1.44.27,2.16.39.48.09.98.15,1.18.66.18-.03.31-.05.54-.08-.27.6-.07,1,.24,1.44.22.31.35.74.37,1.12.04.93.26,1.79.6,2.67.25.64.61.93,1.21,1.11.56.16.75.13,1.05-.37.19-.32.34-.66.52-1.03.52.15,1,.29,1.49.43.11-.67.4-1,1.06-1.33.11-.06.21-.25.22-.38.02-.26-.04-.52-.03-.78.02-.34-.09-.57-.38-.77-.27-.19-.46-.47-.69-.71-.23-.24-.47-.46-.73-.72.98.03,1.87.07,2.77.08.45,0,.83.09,1.07.54.08.15.26.28.42.35.35.14.71.24,1.08.34.75.21,1.5.4,2.26.6.45.12.91.22,1.37.32.18.04.38.05.56.11,1.55.53,3.15.56,4.77.46.38-.02.78-.07,1.13.04.5.16.98.1,1.47.06.35-.03.71-.05,1.06-.09,1.36-.15,2.73-.27,4.08-.46.84-.12,1.66-.36,2.5-.51,1.58-.3,3.16-.58,4.64-1.27,1.03-.48,2.13-.83,3.08-1.43,2.02-1.26,4.19-2.3,5.93-3.97.73-.7,1.51-1.36,2.22-2.09.95-.97,1.62-2.15,2.25-3.35.86-1.64,1.67-3.29,2.52-4.93.42-.81.89-1.61,1.34-2.41-.02-.02-.04-.04-.06-.07-.66.69-1.32,1.39-2.06,2.17.18-.63.32-1.15.49-1.66.05-.14.19-.26.31-.37.47-.46.94-.93,1.42-1.38.42-.38.8-.84,1.29-1.1,1.1-.58,2.25-1.09,3.4-1.58.35-.15.76-.24,1.15-.25.89-.03,1.79-.02,2.68.02,1.31.07,2.63.13,3.94.28.62.07,1.23.33,1.84.51,1.14.34,2.29.56,3.48.62.89.05,1.79.12,2.68.17.28.01.57,0,.85-.05.37-.07.62-.29.69-.71-3.93-1.61-8.03-2.61-12.1-3.73.14-.08.27-.12.41-.13ZM187.04,25.71s.1-.09.15-.13c.49.21.99.41,1.48.63.11.05.23.2.23.32.04.65.33,1.22.58,1.8.03.08.03.17.05.29-.55.12-.9-.26-1.33-.41-.5-.18-.63-.57-.72-1.04-.05-.25-.18-.48-.26-.73-.07-.24-.12-.49-.18-.73ZM185.3,24.68c.85.2,1.29.74,1.43,1.6.07.43.24.84.39,1.34-.66.02-1.1-.23-1.53-.5-.09-.05-.15-.19-.16-.3-.11-.7-.2-1.39-.31-2.12.14-.02.16-.03.18-.03ZM183.18,23.67c.48-.04.82.25,1.2.41.09.04.15.23.17.36.08.72.15,1.44.24,2.34-.51-.22-.96-.34-1.31-.59-.19-.13-.3-.48-.31-.74-.04-.59,0-1.17.02-1.78ZM182.37,24.01c0,.51.03,1.02.05,1.65-.34-.11-.62-.17-.85-.29-.12-.06-.23-.26-.23-.39.02-.7.08-1.4.13-2.17.92.35.91.35.9,1.21ZM180.96,22.55c-.08.86-.15,1.67-.22,2.56-.23-.02-.37-.02-.51-.04-.18-.04-.36-.09-.53-.14-.1-.64,0-1.27.4-2.5.25.04.51.07.86.12ZM179.27,22.13c-.14.89-.27,1.74-.41,2.66-.26-.04-.53-.08-.89-.13.14-.49.26-.9.38-1.32.12-.43.24-.85.38-1.37.25.07.4.11.54.15ZM177.73,21.87c-.21.89-.4,1.73-.6,2.62-.57-.12-1.09-.22-1.68-.35.23-.83.45-1.61.69-2.48.54.07,1.04.13,1.59.2ZM174.7,21.6c.23.03.46.04.78.06-.16.84-.48,1.59-.75,2.41-.63.03-1.18.05-1.84.08.08-.25.11-.43.19-.58.28-.52.6-1.02.85-1.55.17-.36.41-.48.78-.43ZM172.66,21.54c.18.03.37.04.62.06-.06.2-.1.35-.16.49-.22.52-.47,1.03-.66,1.56-.14.37-.34.6-.76.6-.33,0-.65.03-.98.05-.04-.05-.07-.1-.11-.15.18-.29.38-.58.55-.88.24-.41.5-.81.68-1.24.17-.39.4-.56.81-.49ZM170.94,21.59s.08.07.12.11c-.1.18-.2.35-.29.53-.26.53-.53,1.05-.78,1.59-.23.48-.31.52-.94.34.56-.84,1.1-1.66,1.66-2.48.04-.06.16-.06.24-.09ZM169.67,21.46c-.11.28-.14.4-.21.5-.37.58-.82,1.12-1.1,1.73-.29.61-.69.69-1.36.55.54-.94,1.16-1.74,1.85-2.49.14-.16.45-.16.83-.29ZM167.48,21.56c-.63.93-1.18,1.78-1.76,2.6-.11.15-.34.27-.53.3-.39.06-.79.05-1.28.07.12-.23.18-.4.29-.54.46-.6.95-1.18,1.38-1.79.46-.66,1.08-.76,1.9-.64ZM165.32,21.85c-.18.23-.31.41-.46.58-.52.64-1.06,1.27-1.56,1.93-.22.28-.47.37-.92.31.11-.2.16-.35.26-.48.52-.67,1.06-1.33,1.59-2,.26-.33.58-.44,1.09-.34ZM161.26,22.95c.49-.46,1.08-.64,1.86-.76-.39.55-.77.98-1.04,1.48-.58,1.09-1.49,1.63-2.68,1.78-.27.03-.53.1-.79.15-.03-.05-.05-.09-.08-.14.18-.17.35-.35.53-.52.73-.67,1.48-1.32,2.2-1.99ZM157.37,24.26c.22-.23.54-.38.83-.51.49-.22,1-.41,1.5-.61.04.05.08.1.12.15-.13.15-.26.3-.4.44-.71.69-1.45,1.35-2.14,2.06-.47.47-1.08.51-1.78.75.11-.23.14-.35.22-.44.55-.62,1.08-1.25,1.66-1.83ZM148.98,28.8c1.29-.83,2.56-1.68,3.87-2.49.54-.33,1.13-.58,1.7-.86.07-.03.16-.02.25-.03h0s-.01-.02-.01-.02l.04.02s-.02,0-.03,0c-.71.71-1.42,1.43-2.15,2.13-.1.09-.24.15-.37.2-1.27.5-2.54.99-3.87,1.43.19-.13.38-.26.57-.39ZM134.13,44.47c-.15-.45,0-.89.3-.97.27-.07.72.25.8.57.09.33-.19.8-.54.89-.26.07-.43-.09-.56-.5ZM148.5,64.91c-.48-.1-.89-.05-1.23.36-.11.13-.28.22-.5.39-.27-1.16-1.01-1.89-1.7-2.66-.46-.51-.84-1.07-1.02-1.85.45.08.85.12,1.23.22.19.05.47.17.52.33.15.47.57.6.89.86.46.37.91.75,1.38,1.11.18.14.4.25.59.37.19.12.39.26.57.38-.24.59-.24.6-.73.5ZM164.43,62.87c-.62.11-1.23.25-1.86.31-1.22.13-2.45.2-3.68-.03-.34-.07-.69-.17-1-.33-.43-.22-.84-.51-1.37-.85.41-.03.7-.07.99-.07.52-.01,1.05.07,1.56-.02,1.13-.18,2.2-.02,3.28.3.67.2,1.37.33,2.05.49,0,.07.01.13.02.2ZM162.39,61.65c.96-.17,1.9-.32,2.87-.05.73.2,1.49.27,2.23.4.22.04.43.11.64.22-2.01.76-3.89.29-5.74-.58ZM172.29,61.49c-.69.22-1.37.4-2.13.24-.94-.2-1.91-.29-2.87-.42-.2-.03-.4-.08-.6-.21.8-.24,1.6-.5,2.41-.69.25-.06.56.05.83.13.8.25,1.59.52,2.39.79-.01.06-.02.11-.03.17ZM173.65,60.71c-.59-.28-1.23-.47-1.84-.7-.1-.04-.19-.1-.31-.17.18-.29.44-.23.65-.23.49,0,2.67.67,3.07.94-.5.35-.99.44-1.57.16ZM175.81,59.79c-.47-.26-1.01-.38-1.52-.57-.24-.09-.47-.19-.77-.31.61-.47,1.18-.67,1.88-.39.68.27,1.39.46,2.09.67.11.03.23.02.32.12-.64.51-1.2.93-2.01.48ZM179.7,58.39c-.55.57-1.16.67-1.88.38-.59-.24-1.22-.39-1.82-.58-.13-.04-.25-.11-.45-.2.56-.48,1.2-.65,1.77-.94.07-.04.19-.02.27.02.7.39,1.39.8,2.08,1.2.01,0,.01.04.04.12ZM180.42,57.37c-.27-.15-.55-.26-.83-.41-.54-.29-1.1-.38-1.86-.09.19-.23.24-.34.34-.4.45-.26.9-.51,1.37-.74.13-.06.35-.08.46,0,.62.43,1.21.88,1.86,1.37-.7.59-.73.6-1.34.27ZM183.24,56.03c-.25.2-.46.37-.68.54-.65-.48-1.25-.93-1.94-1.44.46-.32.82-.57,1.23-.85.59.48.93,1.12,1.38,1.75ZM184.67,54.88c-.33.28-.62.51-.98.81-.44-.57-.84-1.1-1.28-1.67.39-.36.75-.69,1.23-1.13.36.7.68,1.32,1.03,1.99ZM185.99,53.57c.03.13-.06.32-.16.42-.16.16-.37.27-.58.41-.42-.63-.81-1.21-1.22-1.84.25-.4.53-.86,1.1-1.15.37.71.7,1.4.87,2.16ZM186.72,53.23c-.36-.82-.68-1.55-1.05-2.39.33-.35.7-.75,1.17-1.25.22,1.01.43,1.88.57,2.75.07.43-.38.59-.69.89ZM188.07,51.94c-.25-.93-.46-1.76-.71-2.69.48-.32,1.02-.68,1.62-1.08.06.22.11.36.12.51.03.35-.02.72.07,1.05.3,1.07-.47,1.54-1.11,2.22ZM189.85,50.01c-.07-.21-.13-.32-.14-.44-.03-.33-.05-.66-.06-.99-.06-1.03.08-1.23,1.24-1.67-.19,1.11-.09,2.21-1.03,3.1ZM191.66,47.62c.24-.84-.11-1.82.64-2.56.08.69-.27,2.24-.64,2.56Z"/>
                <path class="cls-4" d="M205.17,36.93c.83-.06,1.65-.16,2.48-.17,1.08-.02,2.16-.11,3.25.04,1.16.15,2.33.01,3.49-.21-3.23-.5-6.53-.21-9.73-.98.12-.11.24-.16.37-.19,1.89-.33,3.78-.65,5.66-.98.88-.16,1.76-.34,2.64-.54.34-.08.61-.29.83-.74-1.76.18-3.42.38-5.09.5-1.69.12-3.38.14-5.07.21.69-.28,1.41-.43,2.11-.63,1.92-.54,3.82-1.1,5.74-1.64.45-.13.92-.23,1.37-.36.19-.05.36-.15.27-.43-.2.02-.42.02-.62.06-1.51.29-3.02.6-4.53.88-1.37.26-2.75.5-4.12.74-.2.04-.42,0-.63,0,.09-.16.17-.2.25-.23,1.05-.38,2.09-.75,3.14-1.13,1.18-.43,2.37-.83,3.53-1.31.7-.28,1.35-.67,2.02-1.02.09-.05.14-.15.24-.25-.1-.03-.14-.05-.17-.04-1.52.47-3.03.93-4.54,1.4-.57.18-1.13.36-1.7.52-.12.04-.27,0-.54,0,2.03-1.09,3.92-2.11,5.81-3.13-.74.2-1.43.49-2.13.77-.67.27-1.29.7-2.07.7.19-.22.4-.41.65-.53,1.16-.53,2.12-1.34,3.07-2.15.18-.16.3-.39.45-.59v-.02c-.3.22-.6.44-.92.65-.32.21-.64.42-.97.59-.31.16-.58.43-1.06.45.19-.3.32-.5.44-.7.79-1.24,1.58-2.47,2.37-3.71.11-.18.18-.39.26-.59-.21-.01-.3.05-.38.13-.96.88-1.89,1.79-2.87,2.64-.49.43-1.05.8-1.6,1.15-.94.59-1.88,1.18-2.85,1.72-.78.43-1.57.92-2.42,1.15-1.09.3-2.14.62-3,1.37-.49.42-1.08.44-1.63.42-.7-.03-1.4-.23-2.08-.41-.2-.05-.39-.24-.53-.41-.22-.29-.4-.62-.62-.98-.21.95.04,1.6.76,1.99.68.37,1.37.72,2.08,1.09-.02.33-.11.69.3.9.08.04.05.26.08.4.04.21.03.47.15.61.39.43.27.86.13,1.32-.05.18-.06.37-.1.55-.21.89-.4,1.76-1.37,2.23-.89.43-1.67,1.06-2.36,1.8-.5.54-1.02,1.05-1.56,1.54-1.35,1.22-2.74,2.42-3.82,3.9-1.31,1.8-2.91,3.3-4.51,4.81-.8.75-1.77,1.33-2.69,1.95-1.25.85-2.53,1.66-3.79,2.5-.35.23-.68.51-1.04.74-.29.19-.6.38-.92.51-.7.29-1.41.56-2.12.82-.82.3-1.64.6-2.47.88-.33.11-.69.18-1.03.26-2.21.53-4.41,1.1-6.63,1.56-1.59.33-3.22.53-4.83.76-1.28.18-2.57.35-3.87.47-.63.06-1.28-.08-1.91,0-1.12.13-2.21.11-3.31-.13-.97-.21-1.93-.44-2.9-.66-.58-.13-1.15-.21-1.76-.14-.31.04-.65-.06-.96-.14-.91-.24-1.81-.55-2.73-.76-.76-.17-1.52-.32-2.22-.69-.73-.38-1.49-.71-2.26-1.02-1.03-.41-2.1-.73-3.11-1.18-.58-.26-1.19-.54-1.64-1.09.48-.24,1.12.14,1.45-.48-.54-.11-1.05-.19-1.54-.32-.47-.13-1.02.15-1.56-.33,1.03-.04,1.94-.09,2.85-.1,1.04,0,2,.27,2.84.9.43.32.86.66,1.27,1.01.3.25.56.53.9.85.16-.56.06-.96-.19-1.35-.39-.62-.94-1.05-1.57-1.4-.41-.23-.77-.53-1.16-.79-.26-.17-.51-.34-.79-.48-.72-.36-1.44-.72-2.17-1.05-.88-.4-1.68-.97-2.65-1.13-.08-.01-.15-.08-.27-.14.45-.47.9-.67,1.47-.35.25.14.51.26.76.39.7.37,1.45.49,2.26.44-.74-.55-1.49-1.1-2.16-1.59.47-.85.91-1.66,1.37-2.45.26-.46.51-.95.95-1.3.54.42,1.09.67,1.77.67.7,0,1.23-.26,1.52-.85.27-.55.23-1.18-.21-1.66-.38-.42-.84-.76-1.32-1.17.7-.56,1.43-1.11,2.12-1.7,1.15-.98,2.23-2.05,3.42-2.98,1.77-1.38,3.8-2.35,5.81-3.32,1.27-.62,2.57-1.2,3.86-1.77,1.56-.68,3.11-1.39,4.71-1.97,1.04-.38,2.15-.56,3.22-.85,1.5-.41,3.02-.75,4.56-1.02,2.39-.41,4.8-.41,7.21-.54.94-.05,1.88-.15,2.82-.23,1.17-.1,2.35-.25,3.52-.32,1.22-.07,2.45-.06,3.68-.11,1.42-.07,2.81.13,4.1.69,1.15.5,2.36.71,3.56.88.99.14,1.93.27,2.67,1.02.02.02.08,0,0,0,.15-.27.26-.48.38-.7.03-.05.07-.1.1-.15-.16-.03-.34-.02-.48-.09-.16-.08-.33-.2-.41-.35-.27-.47-.5-.96-.73-1.46-.06-.13-.06-.29-.08-.46.93.17,1.51.61,1.74,1.52.11.45.39.86.65,1.25.2.3.4.63.78.76.26-.49.24-.48.09-.86-.16-.43-.49-.8-.48-1.34.71-.04,1.25.67,2.07.33-.29-.2-.52-.36-.75-.5-1.01-.62-2.01-1.24-2.71-2.23-.06-.09-.17-.22-.26-.23-.46-.02-.69-.39-1-.63-1.18-.95-2.32-1.94-3.53-2.85-1.71-1.29-3.69-1.99-5.77-2.44-.53-.12-1.07-.22-1.61-.28-1.13-.13-2.26-.29-3.39-.33-1.7-.06-3.41-.04-5.11-.03-.83,0-1.66,0-2.48.09-1.51.16-2.98.48-4.46.85-1.54.39-3.07.79-4.51,1.49-.83.4-1.65.83-2.48,1.24-.61.3-1.27.54-1.84.9-1.3.82-2.58,1.67-3.82,2.58-.99.72-1.94,1.52-2.84,2.34-.92.84-1.75,1.78-2.66,2.64-.89.84-1.84,1.63-2.74,2.46-.34.32-.62.7-.94,1.04-1.04,1.1-2.11,2.17-3.12,3.29-.6.66-1.07,1.43-1.79,1.99-.55.43-1,1-1.45,1.55-.36.43-.57.99-1.13,1.24-.11.05-.17.21-.24.33-.24.4-.42.86-.72,1.2-.67.75-1.23,1.55-1.67,2.46-.23.48-.56.87-1.1,1.04-1.37.43-1.92,1.52-2.2,2.8-.04.2.05.45.14.65.09.21.25.39.32.51.55.11,1.02.21,1.48.3-.08.13-.15.16-.21.17-1.34.15-1.96.73-2.29,2.38-.09.47.5,1.14.91,1.01.93-.3,1.74-.08,2.52.46.26.18.6.26.87.43.53.33,1.05.7,1.57,1.06.25.17.5.37.76.51.57.31,1.18.56,1.74.88,1.24.71,2.55,1.22,3.94,1.53.71.16,1.44.27,2.16.39.48.09.98.15,1.18.66.18-.03.31-.05.54-.08-.27.6-.07,1,.24,1.44.22.31.35.74.37,1.12.04.93.26,1.79.6,2.67.25.64.61.93,1.21,1.11.56.16.75.13,1.05-.37.19-.32.34-.66.52-1.03.52.15,1,.29,1.49.43.11-.67.4-1,1.06-1.33.11-.06.21-.25.22-.38.02-.26-.04-.52-.03-.78.02-.34-.09-.57-.38-.77-.27-.19-.46-.47-.69-.71-.23-.24-.47-.46-.73-.72.98.03,1.87.07,2.77.08.45,0,.83.09,1.07.54.08.15.26.28.42.35.35.14.71.24,1.08.34.75.21,1.5.4,2.26.6.45.12.91.22,1.37.32.18.04.38.05.56.11,1.55.53,3.15.56,4.77.46.38-.02.78-.07,1.13.04.5.16.98.1,1.47.06.35-.03.71-.05,1.06-.09,1.36-.15,2.73-.27,4.08-.46.84-.12,1.66-.36,2.5-.51,1.58-.3,3.16-.58,4.64-1.27,1.03-.48,2.13-.83,3.08-1.43,2.02-1.26,4.19-2.3,5.93-3.97.73-.7,1.51-1.36,2.22-2.09.95-.97,1.62-2.15,2.25-3.35.86-1.64,1.67-3.29,2.52-4.93.42-.81.89-1.61,1.34-2.41-.02-.02-.04-.04-.06-.07-.66.69-1.32,1.39-2.06,2.17.18-.63.32-1.15.49-1.66.05-.14.19-.26.31-.37.47-.46.94-.93,1.42-1.38.42-.38.8-.84,1.29-1.1,1.1-.58,2.25-1.09,3.4-1.58.35-.15.76-.24,1.15-.25.89-.03,1.79-.02,2.68.02,1.31.07,2.63.13,3.94.28.62.07,1.23.33,1.84.51,1.14.34,2.29.56,3.48.62.89.05,1.79.12,2.68.17.28.01.57,0,.85-.05.37-.07.62-.29.69-.71-3.93-1.61-8.03-2.61-12.1-3.73.14-.08.27-.12.41-.13ZM187.04,25.71s.1-.09.15-.13c.49.21.99.41,1.48.63.11.05.23.2.23.32.04.65.33,1.22.58,1.8.03.08.03.17.05.29-.55.12-.9-.26-1.33-.41-.5-.18-.63-.57-.72-1.04-.05-.25-.18-.48-.26-.73-.07-.24-.12-.49-.18-.73ZM185.3,24.68c.85.2,1.29.74,1.43,1.6.07.43.24.84.39,1.34-.66.02-1.1-.23-1.53-.5-.09-.05-.15-.19-.16-.3-.11-.7-.2-1.39-.31-2.12.14-.02.16-.03.18-.03ZM183.18,23.67c.48-.04.82.25,1.2.41.09.04.15.23.17.36.08.72.15,1.44.24,2.34-.51-.22-.96-.34-1.31-.59-.19-.13-.3-.48-.31-.74-.04-.59,0-1.17.02-1.78ZM182.37,24.01c0,.51.03,1.02.05,1.65-.34-.11-.62-.17-.85-.29-.12-.06-.23-.26-.23-.39.02-.7.08-1.4.13-2.17.92.35.91.35.9,1.21ZM180.96,22.55c-.08.86-.15,1.67-.22,2.56-.23-.02-.37-.02-.51-.04-.18-.04-.36-.09-.53-.14-.1-.64,0-1.27.4-2.5.25.04.51.07.86.12ZM179.27,22.13c-.14.89-.27,1.74-.41,2.66-.26-.04-.53-.08-.89-.13.14-.49.26-.9.38-1.32.12-.43.24-.85.38-1.37.25.07.4.11.54.15ZM177.73,21.87c-.21.89-.4,1.73-.6,2.62-.57-.12-1.09-.22-1.68-.35.23-.83.45-1.61.69-2.48.54.07,1.04.13,1.59.2ZM174.7,21.6c.23.03.46.04.78.06-.16.84-.48,1.59-.75,2.41-.63.03-1.18.05-1.84.08.08-.25.11-.43.19-.58.28-.52.6-1.02.85-1.55.17-.36.41-.48.78-.43ZM172.66,21.54c.18.03.37.04.62.06-.06.2-.1.35-.16.49-.22.52-.47,1.03-.66,1.56-.14.37-.34.6-.76.6-.33,0-.65.03-.98.05-.04-.05-.07-.1-.11-.15.18-.29.38-.58.55-.88.24-.41.5-.81.68-1.24.17-.39.4-.56.81-.49ZM170.94,21.59s.08.07.12.11c-.1.18-.2.35-.29.53-.26.53-.53,1.05-.78,1.59-.23.48-.31.52-.94.34.56-.84,1.1-1.66,1.66-2.48.04-.06.16-.06.24-.09ZM169.67,21.46c-.11.28-.14.4-.21.5-.37.58-.82,1.12-1.1,1.73-.29.61-.69.69-1.36.55.54-.94,1.16-1.74,1.85-2.49.14-.16.45-.16.83-.29ZM167.48,21.56c-.63.93-1.18,1.78-1.76,2.6-.11.15-.34.27-.53.3-.39.06-.79.05-1.28.07.12-.23.18-.4.29-.54.46-.6.95-1.18,1.38-1.79.46-.66,1.08-.76,1.9-.64ZM165.32,21.85c-.18.23-.31.41-.46.58-.52.64-1.06,1.27-1.56,1.93-.22.28-.47.37-.92.31.11-.2.16-.35.26-.48.52-.67,1.06-1.33,1.59-2,.26-.33.58-.44,1.09-.34ZM161.26,22.95c.49-.46,1.08-.64,1.86-.76-.39.55-.77.98-1.04,1.48-.58,1.09-1.49,1.63-2.68,1.78-.27.03-.53.1-.79.15-.03-.05-.05-.09-.08-.14.18-.17.35-.35.53-.52.73-.67,1.48-1.32,2.2-1.99ZM157.37,24.26c.22-.23.54-.38.83-.51.49-.22,1-.41,1.5-.61.04.05.08.1.12.15-.13.15-.26.3-.4.44-.71.69-1.45,1.35-2.14,2.06-.47.47-1.08.51-1.78.75.11-.23.14-.35.22-.44.55-.62,1.08-1.25,1.66-1.83ZM148.98,28.8c1.29-.83,2.56-1.68,3.87-2.49.54-.33,1.13-.58,1.7-.86.07-.03.16-.02.25-.03h0s-.01-.02-.01-.02l.04.02s-.02,0-.03,0c-.71.71-1.42,1.43-2.15,2.13-.1.09-.24.15-.37.2-1.27.5-2.54.99-3.87,1.43.19-.13.38-.26.57-.39ZM134.13,44.47c-.15-.45,0-.89.3-.97.27-.07.72.25.8.57.09.33-.19.8-.54.89-.26.07-.43-.09-.56-.5ZM148.5,64.91c-.48-.1-.89-.05-1.23.36-.11.13-.28.22-.5.39-.27-1.16-1.01-1.89-1.7-2.66-.46-.51-.84-1.07-1.02-1.85.45.08.85.12,1.23.22.19.05.47.17.52.33.15.47.57.6.89.86.46.37.91.75,1.38,1.11.18.14.4.25.59.37.19.12.39.26.57.38-.24.59-.24.6-.73.5ZM164.43,62.87c-.62.11-1.23.25-1.86.31-1.22.13-2.45.2-3.68-.03-.34-.07-.69-.17-1-.33-.43-.22-.84-.51-1.37-.85.41-.03.7-.07.99-.07.52-.01,1.05.07,1.56-.02,1.13-.18,2.2-.02,3.28.3.67.2,1.37.33,2.05.49,0,.07.01.13.02.2ZM162.39,61.65c.96-.17,1.9-.32,2.87-.05.73.2,1.49.27,2.23.4.22.04.43.11.64.22-2.01.76-3.89.29-5.74-.58ZM172.29,61.49c-.69.22-1.37.4-2.13.24-.94-.2-1.91-.29-2.87-.42-.2-.03-.4-.08-.6-.21.8-.24,1.6-.5,2.41-.69.25-.06.56.05.83.13.8.25,1.59.52,2.39.79-.01.06-.02.11-.03.17ZM173.65,60.71c-.59-.28-1.23-.47-1.84-.7-.1-.04-.19-.1-.31-.17.18-.29.44-.23.65-.23.49,0,2.67.67,3.07.94-.5.35-.99.44-1.57.16ZM175.81,59.79c-.47-.26-1.01-.38-1.52-.57-.24-.09-.47-.19-.77-.31.61-.47,1.18-.67,1.88-.39.68.27,1.39.46,2.09.67.11.03.23.02.32.12-.64.51-1.2.93-2.01.48ZM179.7,58.39c-.55.57-1.16.67-1.88.38-.59-.24-1.22-.39-1.82-.58-.13-.04-.25-.11-.45-.2.56-.48,1.2-.65,1.77-.94.07-.04.19-.02.27.02.7.39,1.39.8,2.08,1.2.01,0,.01.04.04.12ZM180.42,57.37c-.27-.15-.55-.26-.83-.41-.54-.29-1.1-.38-1.86-.09.19-.23.24-.34.34-.4.45-.26.9-.51,1.37-.74.13-.06.35-.08.46,0,.62.43,1.21.88,1.86,1.37-.7.59-.73.6-1.34.27ZM183.24,56.03c-.25.2-.46.37-.68.54-.65-.48-1.25-.93-1.94-1.44.46-.32.82-.57,1.23-.85.59.48.93,1.12,1.38,1.75ZM184.67,54.88c-.33.28-.62.51-.98.81-.44-.57-.84-1.1-1.28-1.67.39-.36.75-.69,1.23-1.13.36.7.68,1.32,1.03,1.99ZM185.99,53.57c.03.13-.06.32-.16.42-.16.16-.37.27-.58.41-.42-.63-.81-1.21-1.22-1.84.25-.4.53-.86,1.1-1.15.37.71.7,1.4.87,2.16ZM186.72,53.23c-.36-.82-.68-1.55-1.05-2.39.33-.35.7-.75,1.17-1.25.22,1.01.43,1.88.57,2.75.07.43-.38.59-.69.89ZM188.07,51.94c-.25-.93-.46-1.76-.71-2.69.48-.32,1.02-.68,1.62-1.08.06.22.11.36.12.51.03.35-.02.72.07,1.05.3,1.07-.47,1.54-1.11,2.22ZM189.85,50.01c-.07-.21-.13-.32-.14-.44-.03-.33-.05-.66-.06-.99-.06-1.03.08-1.23,1.24-1.67-.19,1.11-.09,2.21-1.03,3.1ZM191.66,47.62c.24-.84-.11-1.82.64-2.56.08.69-.27,2.24-.64,2.56Z"/>
              </g>
              <g>
                <path class="cls-4" d="M140.16,50.8c.11-.37.23-.82.11-1.15-.23-.68-.7-1.23-1.46-1.41-.73-.17-1.45-.14-2.15.15-.82.34-1.09,1.12-.7,1.91.4.81,1.13,1.16,1.93,1.38.31.09.67.05.88.06.39-.22.64-.34.87-.49.19-.13.46-.26.51-.45ZM136.73,49.94c-.14-.57.03-.82.62-.94.62-.12,1.02.02,1.2.44.05.12.08.24.08.35-.27.07-.53.25-.79.35-.2.08-.36.27-.46.45-.3-.11-.57-.26-.66-.65Z"/>
                <path class="cls-4" d="M140.16,50.8c.11-.37.23-.82.11-1.15-.23-.68-.7-1.23-1.46-1.41-.73-.17-1.45-.14-2.15.15-.82.34-1.09,1.12-.7,1.91.4.81,1.13,1.16,1.93,1.38.31.09.67.05.88.06.39-.22.64-.34.87-.49.19-.13.46-.26.51-.45ZM136.73,49.94c-.14-.57.03-.82.62-.94.62-.12,1.02.02,1.2.44.05.12.08.24.08.35-.27.07-.53.25-.79.35-.2.08-.36.27-.46.45-.3-.11-.57-.26-.66-.65Z"/>
              </g>
            </g>
            <g>
              <g class="cls-3">
                <polygon class="cls-1" points="211.61 25.48 211.58 25.48 211.57 25.5 211.61 25.48"/>
              </g>
              <g class="cls-3">
                <path class="cls-1" d="M157.04,44.36c-.37.02-.73.3-.74.6-.02.31.22.65.59.65.42,0,.89.09,1.31-.22-.17-.74-.53-1.06-1.15-1.03Z"/>
              </g>
              <g class="cls-3">
                <path class="cls-1" d="M182.84,28.82c-.18-.16-.33-.37-.53-.47-.27-.13-.56-.04-.76.18-.23.25-.17.55,0,.78.19.27.39.59.83.54.47-.06.6-.34.48-1.03Z"/>
              </g>
              <g class="cls-3">
                <path class="cls-1" d="M160.66,37.17c.2.21.41.15.65.06.24-.09.5-.12.74-.18,0-.75-.02-.76-1.18-.73-.07.09-.13.14-.15.2-.08.21-.28.41-.06.65Z"/>
              </g>
              <g class="cls-3">
                <path class="cls-1" d="M176.31,34.38c.33.49.57,1.06,1.3.76.09-.59-.02-.77-.55-1.03-.34-.16-.58-.12-.75.27Z"/>
              </g>
              <g class="cls-3">
                <path class="cls-1" d="M142.26,36.71c.19.45.52.71,1.01.83.15-.23.29-.44.42-.63-.5-.64-.8-.68-1.43-.21Z"/>
              </g>
              <g class="cls-3">
                <path class="cls-1" d="M171.1,45.39c-.32,0-.46.19-.49.47.18.21.34.4.49.58.31-.05.57-.1.84-.14-.16-.54-.48-.9-.84-.9Z"/>
              </g>
              <g class="cls-3">
                <path class="cls-1" d="M156.8,33.16c-.27-.13-.55-.03-.69.29-.06.12-.14.23-.23.39.19.22.36.42.62.71.19-.3.33-.46.4-.65.1-.26.23-.58-.11-.74Z"/>
              </g>
              <g class="cls-3">
                <path class="cls-1" d="M141.88,41.87c-.24-.19-.43-.14-.57.12-.27.52.03.94.72.96.22-.68.2-.82-.15-1.09Z"/>
              </g>
              <g class="cls-3">
                <path class="cls-1" d="M160.16,49.98c.14,0,.38-.1.43-.23.12-.25-.09-.38-.3-.47-.4-.17-.78-.09-1.19.18.25.47.67.48,1.06.51Z"/>
              </g>
              <g class="cls-3">
                <path class="cls-1" d="M192.95,34.91c.22.13.41.24.65.39.24-.21.48-.41.76-.65-.37-.33-.68-.43-1.08-.29-.3.1-.41.28-.33.55Z"/>
              </g>
              <g class="cls-3">
                <path class="cls-1" d="M151.59,32.32c-.04.14-.09.29-.15.47.46.37.89.39,1.36.26-.19-.59-.46-.74-1.22-.72Z"/>
              </g>
              <g class="cls-3">
                <path class="cls-1" d="M182.47,37.73c-.28-.63-.63-.71-1.42-.29.85.64.89.65,1.42.29Z"/>
              </g>
              <g class="cls-3">
                <path class="cls-1" d="M172.91,35.47c.06-.07.09-.27.04-.31-.19-.16-.4-.33-.64-.39-.14-.04-.33.13-.55.23.25.32.44.55.67.84.19-.14.35-.24.47-.38Z"/>
              </g>
              <g class="cls-3">
                <path class="cls-1" d="M176.79,42.55c.32-.78.2-.92-.75-.89q-.06.69.75.89Z"/>
              </g>
              <g class="cls-3">
                <path class="cls-1" d="M185.15,30.15c.22.22.42.44.64.66.22-.07.41-.14.61-.2-.08-.62-.64-.84-1.24-.46Z"/>
              </g>
              <g class="cls-3">
                <path class="cls-1" d="M190.8,33.51c.05-.08.05-.27,0-.32-.26-.21-.55-.39-.91-.64-.12.81.12,1.16.64,1.12.1,0,.24-.08.28-.16Z"/>
              </g>
              <g class="cls-3">
                <path class="cls-1" d="M154.72,57.67c-.1.32.22.63.74.78q.1-.55-.27-1.15c-.17.12-.43.22-.48.37Z"/>
              </g>
              <g class="cls-3">
                <path class="cls-1" d="M163.44,42.01c.08.54.4.8.91.87.28-.71.02-.96-.91-.87Z"/>
              </g>
              <g class="cls-3">
                <path class="cls-1" d="M169.12,54.89c.27-.1.29-.34.23-.58-.07-.27-.33-.38-.61-.29-.25.08-.33.23-.24.48.1.31.37.49.62.4Z"/>
              </g>
              <g class="cls-3">
                <path class="cls-1" d="M165.11,48.29c-.23-.47-.51-.63-1.05-.6.09.74.31.86,1.05.6Z"/>
              </g>
              <g class="cls-3">
                <path class="cls-1" d="M170.32,50.54c0-.34-.2-.45-.79-.44-.03.09-.06.15-.05.18.07.24.16.48.25.76.17-.04.35-.04.45-.12.09-.07.13-.25.13-.38Z"/>
              </g>
              <g class="cls-3">
                <path class="cls-1" d="M154.3,41.29c-.5-.02-.85.02-1.14.6.39.04.69.15.95.07.11-.03.13-.42.19-.67Z"/>
              </g>
              <g class="cls-3">
                <path class="cls-1" d="M164.66,35.52c.08-.07.14-.29.1-.36-.11-.17-.27-.34-.45-.42-.13-.06-.33.04-.63.09.26.3.42.53.62.7.07.06.29.05.37-.01Z"/>
              </g>
              <g class="cls-3">
                <path class="cls-1" d="M157.55,55.19c-.07-.17-.33-.3-.53-.35-.09-.02-.31.21-.34.35-.08.4.36.32.59.62.13-.27.34-.51.28-.63Z"/>
              </g>
              <g class="cls-3">
                <path class="cls-1" d="M149.13,34.76c-.34-.17-.63-.22-.91-.05-.09.06-.16.22-.16.34,0,.07.15.2.24.2.34.02.66-.02.83-.49Z"/>
              </g>
              <g class="cls-3">
                <path class="cls-1" d="M174.16,49.67c-.4-.5-.6-.59-.86-.4-.18.14-.22.46-.04.62.42.37.59-.15.9-.22Z"/>
              </g>
              <g class="cls-3">
                <path class="cls-1" d="M156.41,31.31c.39.2.76.49,1.26.11-.33-.49-.89-.54-1.26-.11Z"/>
              </g>
              <g class="cls-3">
                <path class="cls-1" d="M174.49,52.57c0-.26.06-.51-.03-.68-.14-.24-.39-.43-.71-.23.09.57.1.59.74.9Z"/>
              </g>
              <g class="cls-3">
                <path class="cls-1" d="M188.13,41.39c.11.09.28.19.4.16.12-.03.26-.21.26-.33,0-.13-.13-.33-.25-.36-.22-.06-.46-.02-.82-.02.21.3.29.45.41.55Z"/>
              </g>
              <g class="cls-3">
                <path class="cls-1" d="M178.96,50c.03-.15-.03-.38-.13-.49-.22-.21-.47-.16-.67.1.03.28.11.57.43.62.11.02.35-.13.37-.23Z"/>
              </g>
              <g class="cls-3">
                <path class="cls-1" d="M164.68,51.24c.19.17.39.35.61.55.22-.35.32-.65.02-.87-.25-.18-.48-.04-.63.32Z"/>
              </g>
              <g class="cls-3">
                <path class="cls-1" d="M143.91,39.87c-.4.39-.4.42.17.92.39-.52.38-.53-.17-.92Z"/>
              </g>
              <g class="cls-3">
                <path class="cls-1" d="M163.26,57.27c.03-.14.11-.33.09-.51-.02-.2-.39-.36-.56-.27-.17.1-.31.26-.13.45.14.14.18.48.6.33Z"/>
              </g>
              <g class="cls-3">
                <path class="cls-1" d="M181.69,44.55c.08.13.28.18.43.26.08-.19.16-.38.29-.66-.25-.08-.43-.21-.55-.17-.27.09-.3.36-.17.57Z"/>
              </g>
              <g class="cls-3">
                <path class="cls-1" d="M182.34,32.5c-.31.09-.55.15-.77.22.04.46.24.63.58.52.34-.11.21-.39.19-.74Z"/>
              </g>
              <g class="cls-3">
                <path class="cls-1" d="M187.37,37.78c.03.23-.01.43.07.53.11.11.32.2.47.18.11-.01.28-.22.27-.32,0-.11-.18-.24-.31-.3-.12-.06-.27-.05-.5-.08Z"/>
              </g>
              <g class="cls-3">
                <path class="cls-1" d="M173.03,30.03c.19.27.25.72.64.5.34-.2.12-.51-.1-.81-.18.11-.35.2-.54.31Z"/>
              </g>
              <g class="cls-3">
                <path class="cls-1" d="M191.99,38.37c-.29-.28-.4-.67-.93-.61.17.64.26.7.93.61Z"/>
              </g>
              <g class="cls-3">
                <path class="cls-1" d="M178.21,32.96c-.09-.09-.29-.12-.42-.08-.2.05-.31.21-.2.46.08.23.28.2.46.15.18-.05.3-.38.16-.52Z"/>
              </g>
              <g class="cls-3">
                <path class="cls-1" d="M149.18,44.66c.11-.28.22-.44.21-.59,0-.24-.2-.27-.41-.25-.23.03-.36.17-.28.37.06.15.25.25.48.47Z"/>
              </g>
              <g class="cls-3">
                <path class="cls-1" d="M151.06,55.77c.12-.56-.06-.88-.64-1.11.04.54.25.84.64,1.11Z"/>
              </g>
              <g class="cls-3">
                <path class="cls-1" d="M167.64,29c-.29.21-.02.49.12.82.21-.16.38-.29.62-.47-.28-.22-.44-.56-.74-.35Z"/>
              </g>
              <g class="cls-3">
                <path class="cls-1" d="M178.46,29.3c-.11-.18-.18-.44-.34-.54-.19-.11-.43-.02-.61.23.28.16.53.3.78.44.05-.05.11-.09.16-.14Z"/>
              </g>
              <g class="cls-3">
                <path class="cls-1" d="M149.4,37.62c.11.26.11.58.53.64.09-.2.3-.38.1-.61-.17-.19-.39-.26-.62-.03Z"/>
              </g>
              <g class="cls-3">
                <path class="cls-1" d="M160.6,31.69c.16.37.27.63.41.96.36-.68.3-.83-.41-.96Z"/>
              </g>
              <g class="cls-3">
                <path class="cls-1" d="M169.76,33.16q-.1-.46-.84-.48c.17.45.43.6.84.48Z"/>
              </g>
              <g class="cls-3">
                <path class="cls-1" d="M161,43.99c.29-.63.26-.67-.5-.84.16.35.07.73.5.84Z"/>
              </g>
              <g class="cls-3">
                <path class="cls-1" d="M184.21,43c-.08.12-.13.29-.11.42.02.15.15.28.27.49.15-.22.29-.35.31-.49.02-.13-.07-.3-.16-.41-.05-.06-.27-.06-.3-.02Z"/>
              </g>
              <g class="cls-3">
                <path class="cls-1" d="M176.28,47.58c.12.26.3.27.57.24-.1-.29-.18-.53-.3-.91-.18.26-.41.37-.27.67Z"/>
              </g>
              <g class="cls-3">
                <path class="cls-1" d="M160.36,54.2c0,.45.18.67.55.75.15-.61.12-.65-.55-.75Z"/>
              </g>
              <g class="cls-3">
                <path class="cls-1" d="M163.96,29.77q.2.56.44.79c.24-.54.13-.77-.44-.79Z"/>
              </g>
              <g class="cls-3">
                <path class="cls-1" d="M185.56,38.23c-.25-.3-.43-.52-.67-.81-.25.61-.21.65.67.81Z"/>
              </g>
              <g class="cls-3">
                <path class="cls-1" d="M167.25,46.61c.16.72.23.74.89.18-.33-.07-.59-.12-.89-.18Z"/>
              </g>
              <g class="cls-3">
                <path class="cls-1" d="M167.04,40.8c.1.79.14.82.66.6-.2-.18-.37-.34-.66-.6Z"/>
              </g>
              <g class="cls-3">
                <path class="cls-1" d="M152.11,58.31c.17.32.28.52.45.82.26-.35.18-.56,0-.72-.07-.07-.22-.05-.45-.09Z"/>
              </g>
              <g class="cls-3">
                <path class="cls-1" d="M168.17,34.18c-.67,0-.68.02-.49.71.17-.25.31-.46.49-.71Z"/>
              </g>
              <g class="cls-3">
                <path class="cls-1" d="M155.98,42.51c.03-.05.06-.1.1-.16-.22-.14-.44-.28-.73-.45,0,.56.32.58.63.61Z"/>
              </g>
              <g class="cls-3">
                <path class="cls-1" d="M182.17,47.03c.04.29.08.53.12.77q.34-.48-.12-.77Z"/>
              </g>
              <g class="cls-3">
                <path class="cls-1" d="M159.16,58.66c-.13-.23-.23-.39-.32-.55-.05.03-.1.06-.14.09.08.17.06.41.46.46Z"/>
              </g>
              <g class="cls-3">
                <path class="cls-1" d="M213.12,21.75c-.36,1.05-1.09,1.78-1.14,2.81.34.22.64.09.97-.26.02.7.53.74.92.88.25.09.36.22.34.46-.06.7-.12,1.4-.18,2.11,0,.12-.03.24,0,.35.23.67.47,1.34.97,1.87.56.59.89,1.26.66,2.1-.2.74-.12,1.52.21,2.15.67,1.33.64,2.66.33,4.05-.1.45-.11.93.12,1.37.69-.29,1.14-1.12.95-1.91-.17-.69-.09-1.36,0-2.04.16-1.15.42-2.28.21-3.45-.08-.42-.21-.83-.22-1.25-.04-1.46-.36-2.81-1.33-3.95-.06-.07-.1-.16-.14-.25-.31-.72-.99-1.22-1.17-2.02-.02-.08-.13-.14-.18-.22-.1-.17-.23-.34-.29-.53-.21-.76-.54-1.46-1.04-2.27Z"/>
              </g>
              <g class="cls-3">
                <path class="cls-1" d="M191.85,33.63c-1.42.21-2.84.4-4.25.65-1.26.23-2.49.54-3.74.8-.6.12-1.22.18-1.82.31-1.23.26-2.44.62-3.67.82-2.01.32-4,.77-5.95,1.32-2.02.57-4.02,1.26-6.11,1.56-1.16.17-2.36.29-3.53.21-1.26-.08-2.53-.34-3.76-.67-1.3-.35-2.6-.43-3.93-.43-1.73,0-2.99.88-4.03,2.14-.58.71-1.05,1.52-1.93,1.93-.14.06-.24.22-.36.35.39.3.78.18,1.07-.04.64-.48,1.24-1.01,1.82-1.56.83-.78,1.79-1.28,2.92-1.21,1.03.07,2.06.29,3.08.49,1.6.32,3.2.51,4.83.57,1.45.06,2.87-.18,4.3-.38,1.95-.28,3.8-.88,5.68-1.43.17.15.37.1,1.01-.05-.04-.07-.07-.14-.11-.21.17-.05.33-.09.5-.13.95-.24,1.88-.57,2.81-.89.1.05.21.06.36.02.08-.02.17-.12.2-.21.36-.12.72-.23,1.09-.34,2-.58,4.02-1.09,6.03-1.62,1.42-.37,2.84-.72,4.27-1.07,1.09-.27,2.18-.52,3.27-.78,0-.05-.02-.1-.03-.14Z"/>
              </g>
              <g class="cls-3">
                <path class="cls-1" d="M154.37,49.94c.08-1.02-.15-2.01-.34-3-.08-.41-.09-.77.02-1.17.13-.48.25-.98.06-1.5-2.75,2.07-5.16,3.59-6.44,4.03-.78-1.25-1.58-2.52-2.44-3.89-.17.67-.33,1.16.06,1.67.31.4.56.85.83,1.28.45.74.9,1.5,1.36,2.23.67,1.06.89,2.23,1.08,3.4.13.76-.07,1.59-.16,2.38-.08.72-.21,1.43-.34,2.22.17-.09.32-.12.39-.21.35-.45.66-.91.72-1.51.09-.82.29-1.63.33-2.45.06-1.03-.24-2-.7-2.93-.18-.37-.47-.72-.4-1.24,1.5-.13,2.58-1.09,3.69-1.95.08.3.12.55.22.77.11.24.29.45.48.72-.3.22-.61.45-.91.67.18.3.37.35.62.19.35-.22.7-.43,1.15-.7.06.34.12.65.21,1.09-.9.3-1.72.57-2.54.84,0,.06.02.12.03.18.53.28,1.1-.09,1.7.03-.11.1-.2.16-.27.24-.54.69-1.14,1.23-2.11,1.13-.06,0-.13.05-.18.08-.28.49.09.78.25,1.1.75.09,1.47,0,1.92-.53.56-.64,1.14-1.31,1.37-2.19.09-.34.32-.65.34-.99Z"/>
              </g>
              <g class="cls-3">
                <path class="cls-1" d="M144.37,57.44c.55-.67,1.14-1.32,1.6-2.06.85-1.36,1.06-2.81.35-4.31-.17-.36-.49-.64-.69-.98-.8-1.31-1.57-2.63-2.36-3.95-.09-.16-.21-.3-.31-.43-.52.21-.52.6-.38.96.28.69.6,1.38.97,2.03.44.78.95,1.52,1.42,2.28.16.26.28.54.39.83.1.26.12.52,0,.82-.22.55-.43,1.12-.49,1.69-.1.99-.34,1.88-.97,2.68-.14.17-.43.48-.08.85.2-.14.43-.24.57-.41Z"/>
              </g>
              <g class="cls-3">
                <path class="cls-1" d="M205.17,36.93c.83-.06,1.65-.16,2.48-.17,1.08-.02,2.16-.11,3.25.04,1.16.15,2.33.01,3.49-.21-3.23-.5-6.53-.21-9.73-.98.12-.11.24-.16.37-.19,1.89-.33,3.78-.65,5.66-.98.88-.16,1.76-.34,2.64-.54.34-.08.61-.29.83-.74-1.76.18-3.42.38-5.09.5-1.69.12-3.38.14-5.07.21.69-.28,1.41-.43,2.11-.63,1.92-.54,3.82-1.1,5.74-1.64.45-.13.92-.23,1.37-.36.19-.05.36-.15.27-.43-.2.02-.42.02-.62.06-1.51.29-3.02.6-4.53.88-1.37.26-2.75.5-4.12.74-.2.04-.42,0-.63,0,.09-.16.17-.2.25-.23,1.05-.38,2.09-.75,3.14-1.13,1.18-.43,2.37-.83,3.53-1.31.7-.28,1.35-.67,2.02-1.02.09-.05.14-.15.24-.25-.1-.03-.14-.05-.17-.04-1.52.47-3.03.93-4.54,1.4-.57.18-1.13.36-1.7.52-.12.04-.27,0-.54,0,2.03-1.09,3.92-2.11,5.81-3.13-.74.2-1.43.49-2.13.77-.67.27-1.29.7-2.07.7.19-.22.4-.41.65-.53,1.16-.53,2.12-1.34,3.07-2.15.18-.16.3-.39.45-.59v-.02c-.3.22-.6.44-.92.65-.32.21-.64.42-.97.59-.31.16-.58.43-1.06.45.19-.3.32-.5.44-.7.79-1.24,1.58-2.47,2.37-3.71.11-.18.18-.39.26-.59-.21-.01-.3.05-.38.13-.96.88-1.89,1.79-2.87,2.64-.49.43-1.05.8-1.6,1.15-.94.59-1.88,1.18-2.85,1.72-.78.43-1.57.92-2.42,1.15-1.09.3-2.14.62-3,1.37-.49.42-1.08.44-1.63.42-.7-.03-1.4-.23-2.08-.41-.2-.05-.39-.24-.53-.41-.22-.29-.4-.62-.62-.98-.21.95.04,1.6.76,1.99.68.37,1.37.72,2.08,1.09-.02.33-.11.69.3.9.08.04.05.26.08.4.04.21.03.47.15.61.39.43.27.86.13,1.32-.05.18-.06.37-.1.55-.21.89-.4,1.76-1.37,2.23-.89.43-1.67,1.06-2.36,1.8-.5.54-1.02,1.05-1.56,1.54-1.35,1.22-2.74,2.42-3.82,3.9-1.31,1.8-2.91,3.3-4.51,4.81-.8.75-1.77,1.33-2.69,1.95-1.25.85-2.53,1.66-3.79,2.5-.35.23-.68.51-1.04.74-.29.19-.6.38-.92.51-.7.29-1.41.56-2.12.82-.82.3-1.64.6-2.47.88-.33.11-.69.18-1.03.26-2.21.53-4.41,1.1-6.63,1.56-1.59.33-3.22.53-4.83.76-1.28.18-2.57.35-3.87.47-.63.06-1.28-.08-1.91,0-1.12.13-2.21.11-3.31-.13-.97-.21-1.93-.44-2.9-.66-.58-.13-1.15-.21-1.76-.14-.31.04-.65-.06-.96-.14-.91-.24-1.81-.55-2.73-.76-.76-.17-1.52-.32-2.22-.69-.73-.38-1.49-.71-2.26-1.02-1.03-.41-2.1-.73-3.11-1.18-.58-.26-1.19-.54-1.64-1.09.48-.24,1.12.14,1.45-.48-.54-.11-1.05-.19-1.54-.32-.47-.13-1.02.15-1.56-.33,1.03-.04,1.94-.09,2.85-.1,1.04,0,2,.27,2.84.9.43.32.86.66,1.27,1.01.3.25.56.53.9.85.16-.56.06-.96-.19-1.35-.39-.62-.94-1.05-1.57-1.4-.41-.23-.77-.53-1.16-.79-.26-.17-.51-.34-.79-.48-.72-.36-1.44-.72-2.17-1.05-.88-.4-1.68-.97-2.65-1.13-.08-.01-.15-.08-.27-.14.45-.47.9-.67,1.47-.35.25.14.51.26.76.39.7.37,1.45.49,2.26.44-.74-.55-1.49-1.1-2.16-1.59.47-.85.91-1.66,1.37-2.45.26-.46.51-.95.95-1.3.54.42,1.09.67,1.77.67.7,0,1.23-.26,1.52-.85.27-.55.23-1.18-.21-1.66-.38-.42-.84-.76-1.32-1.17.7-.56,1.43-1.11,2.12-1.7,1.15-.98,2.23-2.05,3.42-2.98,1.77-1.38,3.8-2.35,5.81-3.32,1.27-.62,2.57-1.2,3.86-1.77,1.56-.68,3.11-1.39,4.71-1.97,1.04-.38,2.15-.56,3.22-.85,1.5-.41,3.02-.75,4.56-1.02,2.39-.41,4.8-.41,7.21-.54.94-.05,1.88-.15,2.82-.23,1.17-.1,2.35-.25,3.52-.32,1.22-.07,2.45-.06,3.68-.11,1.42-.07,2.81.13,4.1.69,1.15.5,2.36.71,3.56.88.99.14,1.93.27,2.67,1.02.02.02.08,0,0,0,.15-.27.26-.48.38-.7.03-.05.07-.1.1-.15-.16-.03-.34-.02-.48-.09-.16-.08-.33-.2-.41-.35-.27-.47-.5-.96-.73-1.46-.06-.13-.06-.29-.08-.46.93.17,1.51.61,1.74,1.52.11.45.39.86.65,1.25.2.3.4.63.78.76.26-.49.24-.48.09-.86-.16-.43-.49-.8-.48-1.34.71-.04,1.25.67,2.07.33-.29-.2-.52-.36-.75-.5-1.01-.62-2.01-1.24-2.71-2.23-.06-.09-.17-.22-.26-.23-.46-.02-.69-.39-1-.63-1.18-.95-2.32-1.94-3.53-2.85-1.71-1.29-3.69-1.99-5.77-2.44-.53-.12-1.07-.22-1.61-.28-1.13-.13-2.26-.29-3.39-.33-1.7-.06-3.41-.04-5.11-.03-.83,0-1.66,0-2.48.09-1.51.16-2.98.48-4.46.85-1.54.39-3.07.79-4.51,1.49-.83.4-1.65.83-2.48,1.24-.61.3-1.27.54-1.84.9-1.3.82-2.58,1.67-3.82,2.58-.99.72-1.94,1.52-2.84,2.34-.92.84-1.75,1.78-2.66,2.64-.89.84-1.84,1.63-2.74,2.46-.34.32-.62.7-.94,1.04-1.04,1.1-2.11,2.17-3.12,3.29-.6.66-1.07,1.43-1.79,1.99-.55.43-1,1-1.45,1.55-.36.43-.57.99-1.13,1.24-.11.05-.17.21-.24.33-.24.4-.42.86-.72,1.2-.67.75-1.23,1.55-1.67,2.46-.23.48-.56.87-1.1,1.04-1.37.43-1.92,1.52-2.2,2.8-.04.2.05.45.14.65.09.21.25.39.32.51.55.11,1.02.21,1.48.3-.08.13-.15.16-.21.17-1.34.15-1.96.73-2.29,2.38-.09.47.5,1.14.91,1.01.93-.3,1.74-.08,2.52.46.26.18.6.26.87.43.53.33,1.05.7,1.57,1.06.25.17.5.37.76.51.57.31,1.18.56,1.74.88,1.24.71,2.55,1.22,3.94,1.53.71.16,1.44.27,2.16.39.48.09.98.15,1.18.66.18-.03.31-.05.54-.08-.27.6-.07,1,.24,1.44.22.31.35.74.37,1.12.04.93.26,1.79.6,2.67.25.64.61.93,1.21,1.11.56.16.75.13,1.05-.37.19-.32.34-.66.52-1.03.52.15,1,.29,1.49.43.11-.67.4-1,1.06-1.33.11-.06.21-.25.22-.38.02-.26-.04-.52-.03-.78.02-.34-.09-.57-.38-.77-.27-.19-.46-.47-.69-.71-.23-.24-.47-.46-.73-.72.98.03,1.87.07,2.77.08.45,0,.83.09,1.07.54.08.15.26.28.42.35.35.14.71.24,1.08.34.75.21,1.5.4,2.26.6.45.12.91.22,1.37.32.18.04.38.05.56.11,1.55.53,3.15.56,4.77.46.38-.02.78-.07,1.13.04.5.16.98.1,1.47.06.35-.03.71-.05,1.06-.09,1.36-.15,2.73-.27,4.08-.46.84-.12,1.66-.36,2.5-.51,1.58-.3,3.16-.58,4.64-1.27,1.03-.48,2.13-.83,3.08-1.43,2.02-1.26,4.19-2.3,5.93-3.97.73-.7,1.51-1.36,2.22-2.09.95-.97,1.62-2.15,2.25-3.35.86-1.64,1.67-3.29,2.52-4.93.42-.81.89-1.61,1.34-2.41-.02-.02-.04-.04-.06-.07-.66.69-1.32,1.39-2.06,2.17.18-.63.32-1.15.49-1.66.05-.14.19-.26.31-.37.47-.46.94-.93,1.42-1.38.42-.38.8-.84,1.29-1.1,1.1-.58,2.25-1.09,3.4-1.58.35-.15.76-.24,1.15-.25.89-.03,1.79-.02,2.68.02,1.31.07,2.63.13,3.94.28.62.07,1.23.33,1.84.51,1.14.34,2.29.56,3.48.62.89.05,1.79.12,2.68.17.28.01.57,0,.85-.05.37-.07.62-.29.69-.71-3.93-1.61-8.03-2.61-12.1-3.73.14-.08.27-.12.41-.13ZM187.04,25.71s.1-.09.15-.13c.49.21.99.41,1.48.63.11.05.23.2.23.32.04.65.33,1.22.58,1.8.03.08.03.17.05.29-.55.12-.9-.26-1.33-.41-.5-.18-.63-.57-.72-1.04-.05-.25-.18-.48-.26-.73-.07-.24-.12-.49-.18-.73ZM185.3,24.68c.85.2,1.29.74,1.43,1.6.07.43.24.84.39,1.34-.66.02-1.1-.23-1.53-.5-.09-.05-.15-.19-.16-.3-.11-.7-.2-1.39-.31-2.12.14-.02.16-.03.18-.03ZM183.18,23.67c.48-.04.82.25,1.2.41.09.04.15.23.17.36.08.72.15,1.44.24,2.34-.51-.22-.96-.34-1.31-.59-.19-.13-.3-.48-.31-.74-.04-.59,0-1.17.02-1.78ZM182.37,24.01c0,.51.03,1.02.05,1.65-.34-.11-.62-.17-.85-.29-.12-.06-.23-.26-.23-.39.02-.7.08-1.4.13-2.17.92.35.91.35.9,1.21ZM180.96,22.55c-.08.86-.15,1.67-.22,2.56-.23-.02-.37-.02-.51-.04-.18-.04-.36-.09-.53-.14-.1-.64,0-1.27.4-2.5.25.04.51.07.86.12ZM179.27,22.13c-.14.89-.27,1.74-.41,2.66-.26-.04-.53-.08-.89-.13.14-.49.26-.9.38-1.32.12-.43.24-.85.38-1.37.25.07.4.11.54.15ZM177.73,21.87c-.21.89-.4,1.73-.6,2.62-.57-.12-1.09-.22-1.68-.35.23-.83.45-1.61.69-2.48.54.07,1.04.13,1.59.2ZM174.7,21.6c.23.03.46.04.78.06-.16.84-.48,1.59-.75,2.41-.63.03-1.18.05-1.84.08.08-.25.11-.43.19-.58.28-.52.6-1.02.85-1.55.17-.36.41-.48.78-.43ZM172.66,21.54c.18.03.37.04.62.06-.06.2-.1.35-.16.49-.22.52-.47,1.03-.66,1.56-.14.37-.34.6-.76.6-.33,0-.65.03-.98.05-.04-.05-.07-.1-.11-.15.18-.29.38-.58.55-.88.24-.41.5-.81.68-1.24.17-.39.4-.56.81-.49ZM170.94,21.59s.08.07.12.11c-.1.18-.2.35-.29.53-.26.53-.53,1.05-.78,1.59-.23.48-.31.52-.94.34.56-.84,1.1-1.66,1.66-2.48.04-.06.16-.06.24-.09ZM169.67,21.46c-.11.28-.14.4-.21.5-.37.58-.82,1.12-1.1,1.73-.29.61-.69.69-1.36.55.54-.94,1.16-1.74,1.85-2.49.14-.16.45-.16.83-.29ZM167.48,21.56c-.63.93-1.18,1.78-1.76,2.6-.11.15-.34.27-.53.3-.39.06-.79.05-1.28.07.12-.23.18-.4.29-.54.46-.6.95-1.18,1.38-1.79.46-.66,1.08-.76,1.9-.64ZM165.32,21.85c-.18.23-.31.41-.46.58-.52.64-1.06,1.27-1.56,1.93-.22.28-.47.37-.92.31.11-.2.16-.35.26-.48.52-.67,1.06-1.33,1.59-2,.26-.33.58-.44,1.09-.34ZM161.26,22.95c.49-.46,1.08-.64,1.86-.76-.39.55-.77.98-1.04,1.48-.58,1.09-1.49,1.63-2.68,1.78-.27.03-.53.1-.79.15-.03-.05-.05-.09-.08-.14.18-.17.35-.35.53-.52.73-.67,1.48-1.32,2.2-1.99ZM157.37,24.26c.22-.23.54-.38.83-.51.49-.22,1-.41,1.5-.61.04.05.08.1.12.15-.13.15-.26.3-.4.44-.71.69-1.45,1.35-2.14,2.06-.47.47-1.08.51-1.78.75.11-.23.14-.35.22-.44.55-.62,1.08-1.25,1.66-1.83ZM148.98,28.8c1.29-.83,2.56-1.68,3.87-2.49.54-.33,1.13-.58,1.7-.86.07-.03.16-.02.25-.03h0s-.01-.02-.01-.02l.04.02s-.02,0-.03,0c-.71.71-1.42,1.43-2.15,2.13-.1.09-.24.15-.37.2-1.27.5-2.54.99-3.87,1.43.19-.13.38-.26.57-.39ZM134.13,44.47c-.15-.45,0-.89.3-.97.27-.07.72.25.8.57.09.33-.19.8-.54.89-.26.07-.43-.09-.56-.5ZM148.5,64.91c-.48-.1-.89-.05-1.23.36-.11.13-.28.22-.5.39-.27-1.16-1.01-1.89-1.7-2.66-.46-.51-.84-1.07-1.02-1.85.45.08.85.12,1.23.22.19.05.47.17.52.33.15.47.57.6.89.86.46.37.91.75,1.38,1.11.18.14.4.25.59.37.19.12.39.26.57.38-.24.59-.24.6-.73.5ZM164.43,62.87c-.62.11-1.23.25-1.86.31-1.22.13-2.45.2-3.68-.03-.34-.07-.69-.17-1-.33-.43-.22-.84-.51-1.37-.85.41-.03.7-.07.99-.07.52-.01,1.05.07,1.56-.02,1.13-.18,2.2-.02,3.28.3.67.2,1.37.33,2.05.49,0,.07.01.13.02.2ZM162.39,61.65c.96-.17,1.9-.32,2.87-.05.73.2,1.49.27,2.23.4.22.04.43.11.64.22-2.01.76-3.89.29-5.74-.58ZM172.29,61.49c-.69.22-1.37.4-2.13.24-.94-.2-1.91-.29-2.87-.42-.2-.03-.4-.08-.6-.21.8-.24,1.6-.5,2.41-.69.25-.06.56.05.83.13.8.25,1.59.52,2.39.79-.01.06-.02.11-.03.17ZM173.65,60.71c-.59-.28-1.23-.47-1.84-.7-.1-.04-.19-.1-.31-.17.18-.29.44-.23.65-.23.49,0,2.67.67,3.07.94-.5.35-.99.44-1.57.16ZM175.81,59.79c-.47-.26-1.01-.38-1.52-.57-.24-.09-.47-.19-.77-.31.61-.47,1.18-.67,1.88-.39.68.27,1.39.46,2.09.67.11.03.23.02.32.12-.64.51-1.2.93-2.01.48ZM179.7,58.39c-.55.57-1.16.67-1.88.38-.59-.24-1.22-.39-1.82-.58-.13-.04-.25-.11-.45-.2.56-.48,1.2-.65,1.77-.94.07-.04.19-.02.27.02.7.39,1.39.8,2.08,1.2.01,0,.01.04.04.12ZM180.42,57.37c-.27-.15-.55-.26-.83-.41-.54-.29-1.1-.38-1.86-.09.19-.23.24-.34.34-.4.45-.26.9-.51,1.37-.74.13-.06.35-.08.46,0,.62.43,1.21.88,1.86,1.37-.7.59-.73.6-1.34.27ZM183.24,56.03c-.25.2-.46.37-.68.54-.65-.48-1.25-.93-1.94-1.44.46-.32.82-.57,1.23-.85.59.48.93,1.12,1.38,1.75ZM184.67,54.88c-.33.28-.62.51-.98.81-.44-.57-.84-1.1-1.28-1.67.39-.36.75-.69,1.23-1.13.36.7.68,1.32,1.03,1.99ZM185.99,53.57c.03.13-.06.32-.16.42-.16.16-.37.27-.58.41-.42-.63-.81-1.21-1.22-1.84.25-.4.53-.86,1.1-1.15.37.71.7,1.4.87,2.16ZM186.72,53.23c-.36-.82-.68-1.55-1.05-2.39.33-.35.7-.75,1.17-1.25.22,1.01.43,1.88.57,2.75.07.43-.38.59-.69.89ZM188.07,51.94c-.25-.93-.46-1.76-.71-2.69.48-.32,1.02-.68,1.62-1.08.06.22.11.36.12.51.03.35-.02.72.07,1.05.3,1.07-.47,1.54-1.11,2.22ZM189.85,50.01c-.07-.21-.13-.32-.14-.44-.03-.33-.05-.66-.06-.99-.06-1.03.08-1.23,1.24-1.67-.19,1.11-.09,2.21-1.03,3.1ZM191.66,47.62c.24-.84-.11-1.82.64-2.56.08.69-.27,2.24-.64,2.56Z"/>
              </g>
              <g class="cls-3">
                <path class="cls-1" d="M140.16,50.8c.11-.37.23-.82.11-1.15-.23-.68-.7-1.23-1.46-1.41-.73-.17-1.45-.14-2.15.15-.82.34-1.09,1.12-.7,1.91.4.81,1.13,1.16,1.93,1.38.31.09.67.05.88.06.39-.22.64-.34.87-.49.19-.13.46-.26.51-.45ZM136.73,49.94c-.14-.57.03-.82.62-.94.62-.12,1.02.02,1.2.44.05.12.08.24.08.35-.27.07-.53.25-.79.35-.2.08-.36.27-.46.45-.3-.11-.57-.26-.66-.65Z"/>
              </g>
            </g>
          </g>
          <g>
            <path class="cls-4" d="M82.16,35.61c0,5.22-4.25,9.47-9.47,9.47s-9.47-4.25-9.47-9.47,4.25-9.47,9.47-9.47,9.47,4.25,9.47,9.47ZM72.21,29.29c-.95.67-2.04,1.15-3.2,1.53l.38,1.81c.89-.26,1.87-.67,2.48-1.09v8.48h-2.64v1.77h7.37v-1.77h-2.48v-10.72h-1.91Z"/>
            <path class="cls-4" d="M93.96,34.67c-.66,2.04-1.45,2.54-2.42,2.54-.58,0-1.07-.1-2.16-.75-.95-.58-1.39-.79-1.87-.79-.56,0-.95.26-1.37,1.37l-.95-.46c.52-1.89,1.41-2.56,2.36-2.56.48,0,1.07.14,2.04.71,1.09.62,1.49.81,1.95.81.62,0,1.03-.26,1.45-1.35l.97.48Z"/>
            <path class="cls-4" d="M115.92,35.61c0,5.22-4.25,9.47-9.47,9.47s-9.47-4.25-9.47-9.47,4.25-9.47,9.47-9.47,9.47,4.25,9.47,9.47ZM102.2,29.65v1.87h6.21c-2.28,3.16-3.61,6.23-4.09,10.54h2.68c.32-4.31,1.43-7.4,3.65-10.76v-1.65h-8.46Z"/>
          </g>
          <g>
            <path class="cls-4" d="M21.5,64.53h-1.48v-3.94c-.43,1.1-.74,1.62-.92,1.91-.27-.29-.47-.47-1.35-1.03.39-.51,1.43-1.82,2.23-4.06h-1.77v-1.35h1.81v-1.15c-.65.14-.9.18-1.22.22-.2-.46-.42-.82-.79-1.31,1.55-.06,3.49-.7,4.19-1.07l.82,1.12c.05.08.08.13.08.22,0,.08-.1.13-.18.13s-.18-.05-.27-.11c-.29.13-.48.2-1.15.42v1.54h1.25v1.35h-1.25v.23c.57,1.16,1.2,1.85,1.54,2.19-.7.57-.83.71-1.04.99-.15-.24-.27-.45-.5-.87v4.57ZM26.18,55.49c.64-.82,1.11-1.71,1.48-2.69l1.67.6s.08.05.08.09c0,.17-.24.15-.37.15-.18.38-.47,1.02-1.06,1.85h1.4v4.31h-1.49v2.7c0,.36.03.42.38.42.38,0,.54-.06.65-1.33.36.31.82.62,1.27.8-.09.71-.34,1.22-.47,1.43-.27.41-.51.46-.98.46h-1.25c-1.02,0-1.11-.65-1.11-1.24v-3.25h-1.9l1.22.36c.08.03.15.08.15.15,0,.15-.15.18-.29.19-.23,1.41-.69,2.93-2.69,4.12-.33-.5-.83-.93-1.17-1.19.96-.32,2.38-1.34,2.45-3.63h-.97v-4.31h1.27c-.17-.33-.71-1.34-1.24-2l1.29-.69c.56.64,1.21,1.8,1.4,2.15-.36.13-.65.24-1.15.54h1.42ZM24.64,56.82v1.63h3.29v-1.63h-3.29Z"/>
            <path class="cls-4" d="M34.22,57.56v4.06c0,.08,0,.74.74.99.55.19,2.42.2,3.12.2,1.2,0,3.54-.13,4.84-.24-.19.34-.52,1.04-.59,1.71h-5.8c-2.24,0-2.88-.62-3.24-1.26-.64.46-1.12.78-1.69,1.11-.04.27-.06.43-.2.43-.13,0-.18-.15-.22-.25l-.6-1.5c.98-.32,1.73-.87,1.95-1.02v-2.7h-1.49v-1.53h3.17ZM32.17,52.91c.73.47,1.75,1.31,2.27,1.86-.19.18-1.01.93-1.16,1.1-.64-.66-1.35-1.27-2.25-1.87l1.15-1.08ZM38,55.75c-.04-.57-.04-.83-.04-1.06h-1.98v-1.59h3.64c-.1.51-.1.93-.1,1.33,0,2.85.65,4.82,3.12,6.75-.64.51-.8.65-1.19,1.17-1.26-.87-2.71-2.83-3.13-4.57-1.03,3.01-2.47,4.19-2.78,4.43-.38-.68-.97-.98-1.31-1.1.76-.54,2.68-2.37,3.07-5.5l.69.14Z"/>
            <path class="cls-4" d="M53.06,64.8h-2.22v-10.79l-1.89,1.3v-2.24l2.03-1.45h2.08v13.18Z"/>
            <path class="cls-4" d="M58.43,65.79l-2.25,1.93v-5.56h2.25v3.63Z"/>
            <path class="cls-4" d="M64.02,64.97c-2.2,0-4.15-1.3-4.15-4.03v-5.44c0-2.81,1.95-4.05,4.15-4.05s4.15,1.24,4.15,4.03v5.46c0,2.73-1.95,4.03-4.15,4.03ZM64.02,53.37c-1.2,0-1.95.82-1.95,2.24v5.2c0,1.41.75,2.24,1.95,2.24s1.93-.82,1.93-2.24v-5.2c0-1.41-.75-2.24-1.93-2.24Z"/>
            <path class="cls-4" d="M73.85,64.97c-2.2,0-4.15-1.3-4.15-4.03v-5.44c0-2.81,1.95-4.05,4.15-4.05s4.15,1.24,4.15,4.03v5.46c0,2.73-1.95,4.03-4.15,4.03ZM73.85,53.37c-1.2,0-1.95.82-1.95,2.24v5.2c0,1.41.75,2.24,1.95,2.24s1.93-.82,1.93-2.24v-5.2c0-1.41-.75-2.24-1.93-2.24Z"/>
            <path class="cls-4" d="M83.67,64.97c-2.2,0-4.15-1.3-4.15-4.03v-5.44c0-2.81,1.95-4.05,4.15-4.05s4.15,1.24,4.15,4.03v5.46c0,2.73-1.95,4.03-4.15,4.03ZM83.67,53.37c-1.2,0-1.95.82-1.95,2.24v5.2c0,1.41.75,2.24,1.95,2.24s1.93-.82,1.93-2.24v-5.2c0-1.41-.75-2.24-1.93-2.24Z"/>
            <path class="cls-4" d="M93,59.54v4.91h-1.68v-11.14h10.54v9.35c0,1.43-.84,1.75-2.45,1.75-.2,0-.29,0-.48-.03-.09-1.03-.33-1.44-.54-1.78.37.09.76.15,1.15.15.69,0,.69-.28.69-.69v-2.52h-7.22ZM95.77,54.84h-2.78v3.19h2.78v-3.19ZM97.39,58.02h2.83v-3.19h-2.83v3.19Z"/>
          </g>
          <g>
            <path class="cls-4" d="M25.07,24.52c-2.33.68-4.39,1.02-6.19,1.02s-3.41-.35-4.69-1.05l-.18-9.98,2.97-.04c.01,1.17,0,2.45-.02,3.85,2.07-.95,3.72-2.11,4.94-3.48l1.95,2.89c-1.5.73-3.51,1.09-6.04,1.09-.33,0-.61,0-.86-.02l-.06,3.87c.57.14,1.24.21,1.99.21,1.5,0,2.63-.19,3.4-.57l.02-1.99,2.75,4.2Z"/>
            <path class="cls-4" d="M36.91,18.02c-.03,2.46-.66,4.46-1.91,6-1.17,1.45-2.84,2.44-5,2.97,1.97-2.04,3.12-4.21,3.46-6.48l-7.91.45-.1-2.97c4.57-.03,8.39-.01,11.46.04ZM34.98,15.77c-1.51.08-3.93.2-7.25.35l.04-3.11c3.79.07,6.19.08,7.21.06v2.7Z"/>
            <path class="cls-4" d="M49.21,21.89l-1.99,2.62c-1.17-.9-2.08-1.61-2.71-2.13-1.69,2.03-4.09,3.06-7.19,3.09,1.03-.65,2.04-1.48,3.05-2.5.9-.91,1.53-1.68,1.89-2.3-.74-.52-1.9-1.35-3.48-2.48l1.37-1.82,3.46,1.95c.5-.81,1.07-2.26,1.74-4.36l3.05,1.27c-.47,1.46-1.24,2.98-2.3,4.57.6.4,1.64,1.1,3.12,2.09Z"/>
            <path class="cls-4" d="M56.42,25.78c1.6-1.29,2.42-2.68,2.44-4.17.01-.63-.11-1.18-.37-1.66-.28-.52-.69-.86-1.23-1.03-.65,2.15-2.15,4.18-4.5,6.11-.61-.38-1.08-.97-1.43-1.78-.31-.72-.44-1.43-.4-2.12.1-1.38.66-2.47,1.68-3.25.96-.74,2.12-1.08,3.49-1.01,1.42.07,2.55.54,3.4,1.41.81.85,1.21,1.9,1.21,3.15s-.4,2.3-1.2,3.07c-.76.73-1.8,1.16-3.1,1.28ZM55.62,18.67c-.16-.03-.31-.05-.46-.05-.64,0-1.2.22-1.67.66-.47.44-.74.96-.8,1.57-.08.69.04,1.25.37,1.69.49-.48,1-1.1,1.53-1.88.55-.83.9-1.49,1.05-1.99Z"/>
            <path class="cls-4" d="M18.2,36.14c-.72.46-1.33.83-1.86,1.13-.55-.96-1-1.78-1.35-2.46l1.86-1.05c.64,1.08,1.09,1.88,1.35,2.38ZM22.19,35.4l-1.99,1.19c-.1-.22-.57-1.03-1.41-2.42l2.23-1.09c.55,1.11.94,1.88,1.17,2.32ZM28.14,34.15c-.35,2.17-1.14,4-2.36,5.47-1.58,1.89-3.67,2.86-6.29,2.91,1.84-1.26,3.21-2.79,4.12-4.57.78-1.54,1.15-3.13,1.11-4.79l3.42.98ZM27.6,32.35c-.39.09-.74.2-1.04.33l-.45-1.62,1.48-.23v1.52ZM29.75,30.53l-.14,1.52c-.39.09-.74.2-1.04.33l-.29-1.62,1.46-.23Z"/>
            <path class="cls-4" d="M42.68,35.61c-1.02.04-2.03.11-3.05.21.07,4.64-1.85,7.17-5.74,7.62,2.17-2.28,3.21-4.83,3.11-7.66l-3.59-.08c-.27.66-.76,1.26-1.47,1.78-.71.52-1.47.86-2.29,1.02,1.25-2.32,1.88-4.71,1.88-7.19,0-.43-.01-.87-.04-1.33l3.11.14c-.07.86-.19,1.79-.37,2.79l8.48-.06v2.75Z"/>
            <path class="cls-4" d="M57.58,38.25l-.04,2.15h-2.56l.16,3.59-2.58-.04c.07-1.38.1-2.52.1-3.42h-3.96c-.05.98-.52,1.8-1.41,2.48-.79.62-1.71.96-2.73,1.02.62-.62,1.11-1.33,1.45-2.11.25-.57.38-1.05.41-1.45-.98-.01-1.84,0-2.6.06l.04-2.29c.38.01,1.31.01,2.79,0l.02-4.28c-.65-.03-1.41-.05-2.29-.06l-.16-2.29h2.44l-.2-2.23,2.68.04c-.05,1.03-.1,1.78-.14,2.25l3.63-.04c0-1.07-.01-1.85-.04-2.34l2.48.02-.18,2.38c1.25-.06,2.08-.1,2.5-.12l-.02,2.54-2.32.02.02,4.1h2.5ZM52.56,34.32l-3.63-.02-.02,3.61h3.61l.04-3.59ZM52.05,35.63l-.8,1.76c-.52-.25-1.11-.52-1.78-.82l.8-1.62,1.78.68Z"/>
          </g>
        </g>
      </g>
    </g>
  </g>
</svg>