<?xml version="1.0" encoding="UTF-8"?>
<svg id="_レイヤー_2" data-name="レイヤー 2" xmlns="http://www.w3.org/2000/svg" xmlns:xlink="http://www.w3.org/1999/xlink" viewBox="0 0 674.03 28.06">
  <defs>
    <style>
      .cls-1 {
        filter: url(#drop-shadow-1);
      }

      .cls-2 {
        filter: url(#drop-shadow-2);
      }

      .cls-3 {
        fill: #fff;
      }

      .cls-4 {
        fill: #045898;
      }

      .cls-5 {
        fill: #40220f;
      }

      .cls-6 {
        fill: #00a0e9;
      }

      .cls-7 {
        fill: #fff100;
      }

      .cls-8 {
        fill: #e60012;
      }
    </style>
    <filter id="drop-shadow-1" x="129.23" y=".72" width="396" height="24" filterUnits="userSpaceOnUse">
      <feOffset dx=".56" dy=".56"/>
      <feGaussianBlur result="blur" stdDeviation=".56"/>
      <feFlood flood-color="#231815" flood-opacity=".7"/>
      <feComposite in2="blur" operator="in"/>
      <feComposite in="SourceGraphic"/>
    </filter>
    <filter id="drop-shadow-2" x="18.59" y="4.8" width="82.8" height="14.88" filterUnits="userSpaceOnUse">
      <feOffset dx=".56" dy=".56"/>
      <feGaussianBlur result="blur-2" stdDeviation=".56"/>
      <feFlood flood-color="#231815" flood-opacity=".7"/>
      <feComposite in2="blur-2" operator="in"/>
      <feComposite in="SourceGraphic"/>
    </filter>
  </defs>
  <g id="_テキスト1" data-name="テキスト1">
    <g>
      <rect class="cls-8" x="530.1" y="4.19" width="143.94" height="20.23" rx="10.12" ry="10.12"/>
      <g>
        <g>
          <polygon class="cls-4" points="22.54 28.05 22.54 19 4.61 21.48 22.54 28.05"/>
          <polygon class="cls-4" points="96.67 19 96.67 28.05 114.6 21.48 96.67 19"/>
        </g>
        <polygon class="cls-6" points="108.54 6.18 119.21 6.18 115.02 17.12 119.21 28.06 96.67 28.06 108.54 22.17 108.54 6.18"/>
        <polygon class="cls-6" points="10.68 6.18 0 6.18 4.19 17.12 0 28.06 22.54 28.06 10.68 22.17 10.68 6.18"/>
        <rect class="cls-6" x="10.68" width="97.86" height="22.12"/>
      </g>
      <g class="cls-1">
        <path class="cls-5" d="M131.63,20.38V5.07l-1.11-.97v-.09l4.85-.45v5.65c2.15-.54,4.34-1.15,6.39-2.06l.51-1.45.08-.02,2.09,4.44c-2.6,1.04-5.32,1.99-8.09,2.51l-.98-1.93v6.21h8.3l.81-1.26h.08l.89,4.72h-13.83Z"/>
        <path class="cls-5" d="M154.46,18.47l.04-.04,1.51-.02c2.13-1.17,4.13-3.31,4.85-5.67h-10.94l.7-4.18h.08l.81,1c4.51-.19,9.03-.32,13.54-.32-.26,5.78-2.45,9.31-7.02,12.6l-3.58-3.36ZM151.67,7.49l.72-4.18h.09l.79,1c3.34-.26,6.75-.32,10.11-.32l.7,3.51h-12.41Z"/>
        <path class="cls-5" d="M179.05,15.05c-1.75,2.69-3.96,4.81-6.56,6.6l-3.24-3.77.06-.04,1.6.17c1.85-1.36,3.49-2.9,4.79-4.81l-3.9-2.14,2.64-3.42.06.02.13,1.23c.92.41,1.83.87,2.75,1.3.81-1.8,1.38-3.72,1.83-5.65l-.79-1.1.02-.06,4.77.91c-.57,2.62-1.34,5.22-2.47,7.66,1.02.54,2.02,1.1,3.02,1.67l-1,3.49-3.72-2.06Z"/>
        <path class="cls-5" d="M198.19,17.93l.04-.08,1.39-.08c1.37-1.28,2.41-3.16,2.41-5.09,0-2.5-2.01-4.6-4.46-4.6-2.74,0-4.81,2.16-4.81,4.93,0,1.02.29,2.02.89,2.85,1.35-1.49,2.09-3.77,2.4-5.74l-.75-1.08.02-.08,4.21.65c-.58,4.03-1.93,7.96-5.53,10.16-2.99-1.14-4.52-3.71-4.52-6.9,0-4.62,3.69-7.92,8.11-7.92,4.93,0,7.9,3.3,7.9,8.12,0,3.18-1.54,5.88-4.02,7.76l-3.28-2.91Z"/>
        <path class="cls-5" d="M213.19,12.58l-2.43-7.04,3.81-.39,1.45,4.85,1.32.58.04.06-4.19,1.93ZM215.76,17.67l.04-.04,1.6.15c3.26-2.36,5.77-5.15,7.13-9.51l-.79-1.36.02-.04,4.68,1.26c-1.77,6.56-4.79,10.11-9.49,13.4l-3.19-3.85ZM218.61,11.3l-2.15-6.86,3.81-.39,1.17,4.68,1.34.56.02.09-4.19,1.93ZM223.66,6.15l-.87-2.45,2.7-.58.3,2.6-2.13.43ZM226.96,5.78l-.87-2.45,2.7-.58.3,2.6-2.13.43Z"/>
        <path class="cls-5" d="M235.01,18.17l.04-.09,1.66.06c2.62-2.14,3.98-4.66,4.62-7.99h-4.68l-1.79,3.72-3.24-2.38c1.23-2.51,2.55-5.04,4.09-7.41l-.6-1.34.02-.09,4.36,1.45-1.32,2.77c3.26-.19,6.54-.32,9.79-.32l.7,3.59h-3.51c-.68,5.09-2.7,8.34-6.64,11.48l-3.51-3.46Z"/>
        <path class="cls-5" d="M264.44,21.72v-4.2h-6c-.38,1.73-.98,3.2-1.85,4.83l-4.34-2.29.06-.06,1.53-.48c.38-.65.66-1.3.89-1.99h-2.62l.68-3.92h.11l.75.95,1.75-.06c.19-1.67.21-3.57.23-5.85h-2.87l.66-3.88h.08l.75.93,1.34-.09-.04-1.6-.96-.91v-.09l4.55-.43v2.94l5.3-.11v-1.93l-1.04-.89v-.11l4.55-.43v3.29h1.6l.68,3.29h-2.28v5.59h2.43l.68,3.29h-3.11v4.81l-3.51-.61ZM264.44,11.87l-3.11,2.36-2.21-3.44c-.04,1.36-.11,2.55-.21,3.62l5.53-.11v-2.42ZM264.44,8.64h-5.3l-.02,1.67,3.13-1.32,1.11,2.4,1.09.17v-2.92Z"/>
        <path class="cls-5" d="M279.64,14.75c-1.36,0-2.49-1.15-2.49-2.53s1.13-2.53,2.49-2.53,2.49,1.15,2.49,2.53-1.13,2.53-2.49,2.53Z"/>
        <path class="cls-5" d="M289.09,20.38V5.07l-1.11-.97v-.09l4.85-.45v5.65c2.15-.54,4.34-1.15,6.39-2.06l.51-1.45.08-.02,2.09,4.44c-2.6,1.04-5.32,1.99-8.09,2.51l-.98-1.93v6.21h8.3l.81-1.26h.08l.89,4.72h-13.84Z"/>
        <path class="cls-5" d="M310.79,18.47l.04-.04,1.51-.02c2.13-1.17,4.13-3.31,4.85-5.67h-10.94l.7-4.18h.08l.81,1c4.51-.19,9.03-.32,13.54-.32-.26,5.78-2.45,9.31-7.02,12.6l-3.58-3.36ZM308,7.49l.72-4.18h.09l.79,1c3.34-.26,6.75-.32,10.11-.32l.7,3.51h-12.41Z"/>
        <path class="cls-5" d="M334.01,15.05c-1.75,2.69-3.96,4.81-6.56,6.6l-3.24-3.77.06-.04,1.6.17c1.85-1.36,3.49-2.9,4.79-4.81l-3.9-2.14,2.64-3.42.06.02.13,1.23c.92.41,1.83.87,2.75,1.3.81-1.8,1.38-3.72,1.83-5.65l-.79-1.1.02-.06,4.77.91c-.57,2.62-1.34,5.22-2.47,7.66,1.02.54,2.02,1.1,3.02,1.67l-1,3.49-3.72-2.06Z"/>
        <path class="cls-5" d="M351.92,17.93l.04-.08,1.39-.08c1.37-1.28,2.41-3.16,2.41-5.09,0-2.5-2.01-4.6-4.46-4.6-2.74,0-4.81,2.16-4.81,4.93,0,1.02.29,2.02.89,2.85,1.35-1.49,2.09-3.77,2.4-5.74l-.75-1.08.02-.08,4.21.65c-.58,4.03-1.93,7.96-5.53,10.16-2.99-1.14-4.52-3.71-4.52-6.9,0-4.62,3.69-7.92,8.11-7.92,4.93,0,7.9,3.3,7.9,8.12,0,3.18-1.54,5.88-4.02,7.76l-3.28-2.91Z"/>
        <path class="cls-5" d="M365.75,12.58l-2.43-7.04,3.81-.39,1.45,4.85,1.32.58.04.06-4.19,1.93ZM368.33,17.67l.04-.04,1.6.15c3.26-2.36,5.77-5.15,7.13-9.51l-.79-1.36.02-.04,4.68,1.26c-1.77,6.56-4.79,10.11-9.49,13.4l-3.19-3.85ZM371.18,11.3l-2.15-6.86,3.81-.39,1.17,4.68,1.34.56.02.09-4.19,1.93ZM376.22,6.15l-.87-2.45,2.7-.58.3,2.6-2.13.43ZM379.52,5.78l-.87-2.45,2.7-.58.3,2.6-2.13.43Z"/>
        <path class="cls-5" d="M388.06,18.17l.04-.09,1.66.06c2.62-2.14,3.98-4.66,4.62-7.99h-4.68l-1.79,3.72-3.24-2.38c1.23-2.51,2.55-5.04,4.09-7.41l-.6-1.34.02-.09,4.36,1.45-1.32,2.77c3.26-.19,6.54-.32,9.79-.32l.7,3.59h-3.51c-.68,5.09-2.7,8.34-6.64,11.48l-3.51-3.46Z"/>
        <path class="cls-5" d="M417.91,21.72v-4.2h-6c-.38,1.73-.98,3.2-1.85,4.83l-4.34-2.29.06-.06,1.53-.48c.38-.65.66-1.3.89-1.99h-2.62l.68-3.92h.11l.75.95,1.75-.06c.19-1.67.21-3.57.23-5.85h-2.87l.66-3.88h.08l.75.93,1.34-.09-.04-1.6-.96-.91v-.09l4.55-.43v2.94l5.3-.11v-1.93l-1.04-.89v-.11l4.55-.43v3.29h1.6l.68,3.29h-2.28v5.59h2.43l.68,3.29h-3.11v4.81l-3.51-.61ZM417.91,11.87l-3.11,2.36-2.21-3.44c-.04,1.36-.11,2.55-.21,3.62l5.53-.11v-2.42ZM417.91,8.64h-5.3l-.02,1.67,3.13-1.32,1.11,2.4,1.09.17v-2.92Z"/>
        <path class="cls-5" d="M433.24,17.58l.04-.06,1.7.13c3.17-2.6,4.7-5.15,5.39-9.22h-10.64l.7-4.2h.08l.72.93c3.7-.15,7.41-.28,11.13-.32,0-.09-.02-.17-.02-.28,0-1.32,1.15-2.32,2.41-2.32,1.32,0,2.38,1.08,2.38,2.42s-1.06,2.45-2.38,2.45c-.13,0-.26-.02-.38-.04-.47,6.08-2.85,10.59-7.68,14.18l-3.45-3.66ZM444.76,3.77c-.49,0-.87.41-.87.89s.38.89.87.89.87-.39.87-.89-.38-.89-.87-.89Z"/>
        <path class="cls-5" d="M462.5,11.65l.06-.02,2.96,4.05c-3.73,3.12-8.81,4.85-13.54,5.63V4.87l-1.11-.95v-.09l4.85-.48v13.23c2.41-.71,4.53-1.8,6.58-3.25l.19-1.69Z"/>
        <path class="cls-5" d="M484,16.2h.09l.15,4.89c-5.04,0-10.47-.78-14.94-3.27l2.47-3.98h.08l.26,1.39c3.36,1.54,6.9,2.08,10.56,2.06h.45l.89-1.08ZM470.61,7.28l1.06-4.11h.08l.6,1.06c3.6.06,7.22.26,10.81.52l.45,3.53-13.01-1ZM471.65,12.76l1.32-4.05.08.02.53,1.1c2.75.22,5.51.45,8.24.89l.23,3.55-10.41-1.52Z"/>
        <path class="cls-5" d="M497.65,11.82l.04-.06,1.45-.5c.62-1.13,1-2.34,1.28-3.59h-12.3l.7-4.27h.09l.81,1c4.96-.28,9.96-.32,14.92-.32-.21,3.4-.81,6.67-2.58,9.61l-4.41-1.86ZM490.6,19.51l.04-.09,1.36-.45c1.08-1.78,1.53-3.98,1.53-6.06,0-.82-.06-1.65-.21-2.45l-1.21-.63-.02-.11,4.6-1.45c.36,1.6.53,3.25.53,4.87,0,2.9-.6,5.87-2.17,8.31l-4.45-1.95Z"/>
        <path class="cls-5" d="M519,21.31c-.85-1.23-1.64-2.56-2.36-3.88l-.15,1.43-11.05,1.39-.06-4.87h.08l.96,1.02,1.02-.11,2.98-11.52-.85-1.15.04-.06,4.83.82-3.11,11.5,4.26-.43c-.55-1.13-1.06-2.27-1.53-3.44l4.6-1.52.02.06-.66,1.23c.94,2.17,2.02,4.27,3.36,6.21l1.41.09.02.06-3.81,3.16Z"/>
      </g>
      <g class="cls-2">
        <path class="cls-3" d="M30.6,13.77c-1.23-.36-2.29-.88-3.15-1.56-.18.15-.35.3-.55.43l.57.52-1.48,1.36-.64-.77.75-.63c-.32.18-.67.33-1.05.5l-.74-1.41v2.13h-2.6v.19l-1.18-.2.05-4.44-.38-.33v-.05l.53-.08-.84-.71,1.23-2.05-.21-.49.02-.05,1.82.62-.23.44c.6-.06,1.3-.08,1.83-.1-.11.73-.33,1.45-.63,2.06l.61-.02v2.94l.48.17c.7-.26,1.35-.61,1.92-1.05l-2.16.2v-1.51h.05l.27.3h.09l.42-.93-.07-.17-.69.05v-1.78h.05l.35.39.53-.04.61-1.16-.21-.54v-.04s2.05.61,2.05.61l-.46.99.94-.06-.19-.42,1.51-.35.48,1.37.5.15v.04s-1.23.67-1.23.67l.67.17-.35.89.36-.02.35-.54h.05l.36,1.6-2.5.24c.68.39,1.34.63,2.03.81l.55-.26h.04s-.52,1.91-.52,1.91ZM21.83,16.78l-.33-1.19-.21,1.48-1.25-.44.38-1.67-.26-.38v-.05s1.48.19,1.48.19l-.06.38.8-.19.35,1.7-.89.17ZM22.44,8.63h-.71l-.35.68.81-.08.26-.6ZM22.02,10.52h-.32v.71h.32v-.71ZM22.02,12.41h-.32v.71h.32v-.71ZM23.05,16.55l-.5-1.63.98-.24.35,1.72-.83.15ZM23.26,10.52h-.32v.71h.32v-.71ZM23.26,12.41h-.32v.71h.32v-.71ZM24.21,16.28l-.5-1.57.98-.24.35,1.64-.83.17ZM26.97,15.73l-.87-1.06,1.56-1.36-.02-.52h.02s1.31,1.02,1.31,1.02l-2,1.92ZM27.79,9.87h.05l.28.3h.06l.46-1-.15-.35-2.33.18.84.21-.33.82.34-.02.35-.54h.05l.28,1.26.11.02v-.89ZM26.4,15.87l.04-.04.61.07c.83-.55,1.58-1.19,2.14-1.91l-.06-.52h.04s1.42.98,1.42.98c-.81,1.22-1.78,2.11-3.06,2.82l-1.12-1.41ZM28.76,8.15l-.02.61.34.1-.32-.7Z"/>
        <path class="cls-3" d="M34.48,15.11l.04-.05.77.02c1.18-.99,1.83-2.12,2.12-3.65h-2.07l-.83,1.75-1.58-1.16c.57-1.19,1.21-2.37,1.91-3.49l-.28-.62.04-.05,2.1.7-.59,1.25c1.49-.08,2.99-.14,4.48-.14l.35,1.75h-1.64c-.32,2.32-1.31,3.87-3.11,5.31l-1.7-1.64Z"/>
        <path class="cls-3" d="M42.81,11.5l.5-2.07h.05s.38.55.38.55h1.85s.14,1.72.14,1.72l-2.92-.19ZM44.27,15.99l-1.39-1.79.04-.04.73.06,1.42-1.5,1.41,1.12-2.19,2.15ZM43.26,8.34l.75-1.94h.04s.29.6.29.6l1.7.21-.11,1.7-2.67-.57ZM48.95,12.04c-.16,1.79-.55,3.38-1.44,4.97l-2.23-1.11.02-.05.68-.24c.89-1.8,1.16-3.16,1.17-7.08h-.54l.39-2.22h.05l.43.54c1.48-.12,3.75-.18,5.36-.18l.05,5.36h-3.94ZM50.96,8.53h-1.9l-.02,1.79h1.92v-1.79ZM51.76,17.03c-.87-1.44-1.54-3.03-1.98-4.36l1.83-.48c.38,1.11.98,2.42,1.49,3.3l.74.11.02.04-2.1,1.39Z"/>
        <path class="cls-3" d="M62.47,13.52h.05l.42,2.74c-.75.12-1.49.21-2.25.21-2.51,0-4.66-.99-5.71-3.41l2.37-1.05.02.04-.23.73c.71,1.24,2.25,1.56,3.56,1.56.43,0,.86-.02,1.29-.08l.48-.74ZM55.64,9.3l.4-2.26h.04l.45.56c1.48-.11,2.95-.15,4.43-.18l-.26-.72,1.49-.33.16,1.43-.57.12.29,1.38h-6.42ZM62.99,7.84l-.48-1.35,1.49-.33.16,1.43-1.17.25Z"/>
        <path class="cls-3" d="M65.69,16.54l.34-1.93h.05l.35.44c1.62-.08,4.07-.14,6.07-.17v-3.16h-6.47l.34-1.93h.05l.35.44,2.58-.08v-3.21l-.55-.49v-.05l2.52-.24v3.92l3.11-.04.05,6.48h-8.78ZM66.94,9.84l-.93-2.71,1.76-.3.6,1.97.52.32.02.04-1.97.68ZM66.03,14.05l.32-1.81h.05l.33.43c1.98-.17,4.09-.19,5.27-.19l.33,1.57h-6.29ZM71.75,8.9l1.12-1.64-.15-.61.02-.04,1.88.93-1.5,2.53-1.37-1.17Z"/>
        <path class="cls-3" d="M86.65,16.99c-2.17-.17-4.15-.52-5.95-1.19v-4.72l-.71.12.02-.73h-.75v2.23l.43-.13.73,1.6-3.69,1.06-.29-2.23h.05s.59.39.59.39l.41-.13v-2.79h-1.08l.36-2.15h.05l.45.56.22-.02v-1.82l-.53-.45v-.05l2.31-.21v2.41l.45-.02.3,1.49.02-1.11h.05l.49.42.13-.02v-1.67l-.52-.45v-.05l2.23-.2v2.04l.53-.11v-2.12l-.52-.45v-.05l2.23-.2v2.53l2.24-.38.05,5.51-2.29-.35v.75l-1.71-.27v-3.27l-.53.08v3.55c1.43.39,2.68.61,3.97.67l.68-.52h.04s-.45,2.48-.45,2.48ZM85.17,10.41l-.53.07v2.82l.53-.33v-2.56Z"/>
        <path class="cls-3" d="M95.4,16.86v-2.31h-3.3c-.21.95-.54,1.76-1.02,2.66l-2.39-1.26.04-.04.84-.26c.21-.36.36-.72.49-1.1h-1.44l.38-2.16h.06l.41.52.96-.04c.11-.92.12-1.97.13-3.22h-1.58l.36-2.13h.05l.41.51.74-.05-.02-.88-.53-.5v-.05l2.51-.24v1.62l2.92-.06v-1.06l-.57-.49v-.06l2.51-.24v1.81h.88l.38,1.81h-1.25v3.07h1.34l.38,1.81h-1.71v2.65l-1.93-.33ZM95.4,11.44l-1.71,1.3-1.22-1.89c-.02.75-.06,1.41-.12,1.99l3.05-.06v-1.33ZM95.4,9.67h-2.92v.92s1.71-.73,1.71-.73l.61,1.32.6.1v-1.61Z"/>
      </g>
      <g>
        <path class="cls-7" d="M544.52,12.92l.43.13c0,.06-.03.1-.05.14-.11,1.26-.36,2.26-.75,3.04.3.39.65.71,1.07.93-.17.17-.4.51-.51.75-.39-.24-.72-.56-1.01-.94-.3.39-.65.7-1.05.95-.08-.23-.27-.56-.42-.75-.09.27-.2.53-.33.76-.13-.16-.44-.4-.62-.49.07-.12.14-.25.2-.39l-.53.3c-.08-.28-.29-.74-.48-1.07-.03.05-.08.07-.15.06-.17.55-.46,1.18-.78,1.58-.14-.14-.4-.36-.56-.48.29-.34.55-.92.69-1.47l.81.28.58-.3c.17.28.37.64.48.92.34-.93.38-2.08.38-3.01v-3s3.18,0,3.18,0v.85s-2.46,0-2.46,0v1.23s1.76,0,1.76,0l.13-.02ZM541.47,10.85v5.06s-2.13,0-2.13,0v-5.06s2.13,0,2.13,0ZM540.74,15.16v-.73s-.7,0-.7,0v.73s.7,0,.7,0ZM540.74,13.74v-.73s-.7,0-.7,0v.73s.7,0,.7,0ZM540.75,12.31v-.72s-.7,0-.7,0v.72s.7,0,.7,0ZM542.61,14.48c-.03.86-.12,1.84-.38,2.66.38-.21.71-.51,1-.92-.26-.51-.45-1.09-.61-1.74h0ZM543.15,13.91c.11.56.29,1.08.51,1.54.2-.48.36-1.05.45-1.68h-1.49s0,.28,0,.28l.53-.14Z"/>
        <path class="cls-7" d="M548.59,14.96c-.01.08-.07.13-.17.14-.17,1.3-.43,2.29-2.14,2.83-.08-.24-.27-.62-.43-.81,1.52-.4,1.7-1.13,1.79-2.28l.95.11ZM548.47,12.6v-.48s-2.47,0-2.47,0v-.86s2.47,0,2.47,0v-.7s.99.07.99.07c0,.08-.06.12-.18.16v.48s2.55,0,2.55,0v.86s-2.55,0-2.55,0v.48s1.91,0,1.91,0v.82s-4.55-.01-4.55-.01v-.82s1.83,0,1.83,0ZM551.7,15.52h-.78s0-.85,0-.85h-4.06s0,.84,0,.84h-.75s0-1.69,0-1.69l5.6.02v1.69ZM550.02,16.72c0,.25.04.28.27.28h.65c.22,0,.26-.13.29-.94.15.15.49.29.7.35-.09,1.13-.3,1.43-.91,1.43h-.84c-.76,0-.95-.28-.94-1.12v-1.87s.96.06.96.06c0,.08-.05.12-.17.16v1.64Z"/>
        <path class="cls-7" d="M555.83,12.02l-1.07.92v-1.69s1.08-1,1.08-1h1.25s-.02,8.04-.02,8.04h-1.25s.02-6.27.02-6.27Z"/>
        <path class="cls-7" d="M559.28,17.82c-.25-.31-.42-.71-.42-1.4v-4.29c.01-.69.18-1.09.44-1.4.34-.41.77-.56,1.23-.56s.89.16,1.23.57c.25.31.42.71.42,1.4v4.29c-.01.69-.18,1.09-.44,1.4-.34.41-.77.56-1.23.56s-.89-.16-1.23-.57ZM560.51,17.03c.22,0,.39-.18.4-.61v-4.29c.01-.43-.16-.61-.38-.61s-.39.18-.4.61v4.29c-.01.43.16.61.38.61Z"/>
        <path class="cls-7" d="M565.41,16.62c0,.36-.24.65-.54.65-.3,0-.54-.29-.54-.65,0-.35.24-.64.54-.64.32,0,.54.31.54.64ZM565.42,11.97c0,.35-.24.64-.54.64-.3,0-.54-.29-.54-.64,0-.36.24-.65.54-.65.32,0,.54.31.54.65Z"/>
        <path class="cls-7" d="M567.76,17.85c-.25-.31-.42-.71-.42-1.4v-4.29c.01-.69.18-1.09.44-1.4.34-.41.77-.56,1.23-.56s.89.16,1.23.57c.25.31.42.71.42,1.4v4.29c-.01.69-.18,1.09-.44,1.4-.34.41-.77.56-1.23.56s-.89-.16-1.23-.57ZM568.99,17.06c.22,0,.39-.18.4-.61v-4.29c.01-.43-.16-.61-.38-.61s-.39.18-.4.61v4.29c-.01.43.16.61.38.61Z"/>
        <path class="cls-7" d="M572.21,17.86c-.25-.31-.42-.71-.42-1.4v-4.29c.01-.69.18-1.09.44-1.4.34-.41.77-.56,1.23-.56.46,0,.89.16,1.23.57.25.31.42.71.42,1.4v4.29c-.01.69-.18,1.09-.44,1.4-.34.41-.77.56-1.23.56-.46,0-.89-.16-1.23-.57ZM573.44,17.07c.22,0,.39-.18.4-.61v-4.29c.01-.43-.16-.61-.38-.61-.22,0-.39.18-.4.61v4.29c-.01.43.16.61.38.61Z"/>
        <path class="cls-7" d="M578.03,15.67c-.2-.14-.39-.23-.64-.23-.28,0-.45.13-.64.36l-.77-.92c.47-.56.85-.82,1.33-.82.36,0,.6.11.86.3.2.14.39.23.64.23.28,0,.45-.13.64-.36l.76.92c-.47.56-.84.82-1.33.82-.36,0-.6-.11-.86-.3Z"/>
        <path class="cls-3" d="M588.92,12.46c-.47.14-1.01.24-1.63.32,0,.44-.01.9-.01,1.29.64-.19,1.31-.31,1.8-.31,1.55,0,2.74.79,2.73,2.31,0,1.37-.78,2.37-2.4,2.36-.65,0-1.25-.25-1.76-.85.2-.25.43-.61.59-.91.35.43.75.64,1.19.65.76,0,1.17-.53,1.17-1.26,0-.76-.54-1.3-1.55-1.3-.51,0-1.16.12-1.78.32v1.87c0,.87-.57,1.63-1.73,1.63-.82,0-1.76-.47-1.75-1.62,0-.64.44-1.3,1.15-1.82.34-.24.76-.48,1.2-.67v-1.62c-.62.04-1.32.04-2.08.04l-.02-1.13c.78,0,1.48,0,2.11-.03v-1.61s1.5.04,1.5.04c0,.11-.09.2-.25.22-.03.37-.05.8-.07,1.24.53-.07,1.02-.19,1.45-.35l.15,1.17ZM586.13,15.56c-.55.33-1.27.75-1.27,1.39,0,.39.23.63.64.63.39,0,.63-.22.63-.67,0-.24,0-.79,0-1.35ZM591.46,13.38c-.51-.47-1.37-.97-2.12-1.26l.58-.98c.82.29,1.69.77,2.22,1.23l-.67,1.01Z"/>
        <path class="cls-3" d="M593.51,13.67l8.78.02v1.24s-8.79-.02-8.79-.02v-1.24Z"/>
        <path class="cls-3" d="M608.67,10.32c0,.09-.1.16-.26.18,0,.13-.03.3-.04.49.13,1.53.73,5.28,4.11,6.85-.36.26-.69.65-.87.96-2.16-1.06-3.24-3.02-3.78-4.78-.51,1.67-1.5,3.52-3.52,4.76-.2-.29-.57-.63-.95-.9,3.82-2.1,3.7-6.44,3.77-7.7l1.54.14Z"/>
        <path class="cls-3" d="M615.8,13.01v.42c.25.35.94,1.41,1.1,1.67-.18.25-.35.5-.59.81-.11-.28-.31-.7-.52-1.11v4.1s-1.04,0-1.04,0v-3.59c-.24.75-.53,1.42-.86,1.9-.1-.31-.34-.75-.5-1,.54-.74,1.04-2.06,1.29-3.19h-1.07s0-1.05,0-1.05h1.15s0-1.97,0-1.97l1.27.08c0,.08-.08.14-.25.17v1.73s.95,0,.95,0v1.05s-.96,0-.96,0ZM616.41,17.56c.56-.24,1.41-.69,2.23-1.1l.25.8c-.66.44-1.35.88-1.83,1.15,0,.08-.03.16-.1.21l-.55-1.06ZM620.11,15.05c.1.29.23.57.39.83.34-.31.71-.71.94-1.02l.95.73c-.05.06-.15.07-.27.06-.27.26-.78.65-1.15.92.41.5.93.9,1.54,1.15-.24.22-.56.63-.72.92-.7-.38-1.25-.97-1.69-1.69v.83c0,.94-.34,1.14-1.76,1.14-.04-.29-.16-.74-.3-1.01.32.02.7.02.81.02.11,0,.15-.05.15-.16v-3.04s-2.2,0-2.2,0v-.93s2.21,0,2.21,0v-.44s-1.71,0-1.71,0v-.88s1.71,0,1.71,0v-.43s-1.94,0-1.94,0v-.93s.88,0,.88,0c-.1-.26-.24-.57-.38-.81l.9-.3c.22.33.44.78.53,1.06l-.15.06h1.39s-.1-.03-.1-.03c.17-.31.39-.77.49-1.1l1.22.38c-.04.07-.12.1-.26.1-.1.19-.26.43-.41.66h1s0,.93,0,.93h-2.06s0,.43,0,.43h1.83s0,.88,0,.88h-1.83s0,.44,0,.44h2.23s0,.93,0,.93h-2.23s0,.31,0,.31ZM617.86,16.61c-.17-.33-.56-.85-.9-1.22l.78-.51c.35.35.75.83.94,1.16l-.81.56Z"/>
        <path class="cls-3" d="M626.04,18.1l3.9-4.55c.81-.94.85-1.52.85-2.34,0-.74-.37-1.11-.89-1.11-.39,0-.67.19-.8.45-.08.15-.13.38-.13.61v.83s-2.91,0-2.91,0v-.72c0-1.26.33-2.04.97-2.67.78-.78,1.81-1.1,2.89-1.1,1.09,0,2.02.27,2.76,1.01.63.63,1.04,1.54,1.04,2.83,0,1.5-.48,2.46-1.51,3.6l-2.75,3.06h4.37s0,2.62,0,2.62l-7.78-.02v-2.48Z"/>
        <path class="cls-3" d="M638.11,14.32c-.21.33-.43.64-.65.91-.08-.28-.33-.92-.47-1.2.72-.89,1.44-2.43,1.88-3.94l1.24.41c-.04.08-.12.12-.26.11-.2.59-.43,1.18-.68,1.75l.28.09c-.02.08-.1.14-.25.17l-.02,6.37h-1.08s.01-4.67.01-4.67ZM640.1,10.54l5.71.02-.02,8.33h-1.08s0-.37,0-.37h-3.61s0,.44,0,.44h-1.03s.02-8.42.02-8.42ZM641.11,17.53h3.61s.02-5.99.02-5.99h-3.61s-.02,5.99-.02,5.99ZM644.46,13.54h-1.11s0,.91,0,.91h.9s0,2.56,0,2.56h-2.63s0-2.57,0-2.57h.85s0-.91,0-.91h-1.1s0-.83,0-.83h1.1s0-.97,0-.97l1.1.07c0,.08-.08.13-.22.15v.76s1.11,0,1.11,0v.83ZM643.37,16.24v-1s-.94,0-.94,0v1s.94,0,.94,0Z"/>
        <path class="cls-3" d="M648.38,11.41c.58.04,1.48.04,2.19.04.3,0,.61,0,.9-.02,0-.41-.02-.87-.02-1.15l1.47.07c0,.1-.09.17-.25.2v.85c.97-.05,1.95-.13,2.86-.31l.11,1.1c-.89.15-1.83.22-2.98.27,0,.44,0,.88.01,1.31.85-.06,1.79-.18,2.38-.31l.09,1.05c-.62.13-1.57.22-2.46.27,0,.46.04.89.05,1.23.86.29,1.73.74,2.55,1.34l-.72,1.03c-.58-.53-1.2-.93-1.79-1.22v.27c-.02.77-.66,1.3-1.98,1.3-1.26,0-2.1-.62-2.1-1.52,0-.95,1.02-1.52,2.16-1.51.24,0,.48.01.73.06,0-.28-.02-.6-.03-.94-.25,0-.52,0-.74,0-1.29-.02-2.09-.21-2.08-.91,0-.4.29-.75.99-1.17l.8.42c-.34.15-.58.32-.58.46,0,.15.12.23,1.07.23.16,0,.33,0,.51,0l-.05-1.34c-.29,0-.62,0-.93,0-.65,0-1.61-.02-2.19-.03v-1.06ZM651.62,16.7c-.28-.08-.59-.13-.84-.13-.58,0-1.03.24-1.03.61,0,.38.46.58,1.08.58.56,0,.8-.23.8-.69v-.37Z"/>
        <path class="cls-3" d="M657.12,11.26c.29,0,.73,0,.99-.03,1.09-.07,5.17-.32,6.76-.39l.02,1.27c-.84-.03-1.3.04-2.05.57-1.04.69-2.33,1.99-2.33,3.06,0,1.08.95,1.7,3.02,1.93l-.59,1.18c-2.68-.33-3.74-1.46-3.73-3.1,0-1.15,1.07-2.64,2.49-3.63-1.17.1-3.35.26-4.22.36-.02.08-.14.14-.23.16l-.12-1.39ZM663.42,13.53c.4.33.89.88,1.15,1.28l-.56.44c-.21-.37-.77-1-1.11-1.3l.52-.42ZM664.55,12.69c.42.34.9.85,1.15,1.27l-.55.43c-.22-.35-.74-.98-1.12-1.29l.52-.41Z"/>
      </g>
    </g>
  </g>
</svg>