<svg xmlns="http://www.w3.org/2000/svg" width="266.051" height="166.179" viewBox="0 0 266.051 166.179"><g transform="translate(-827 -456.999)"><path d="M171.072,155.962l3.963,4.014L179,155.962l.348.352-3.963,4.014,3.963,4.013-.348.352-3.963-4.012-3.975,4.025-.349-.353,3.975-4.025-3.962-4.014Zm.54,5.278a.912.912,0,1,1,.9-.912.914.914,0,0,1-.9.912m2.522-4.378a.9.9,0,1,1,.9.912.913.913,0,0,1-.9-.912m1.8,6.932a.9.9,0,1,1-.9-.912.912.912,0,0,1,.9.912m2.522-4.378a.912.912,0,1,1-.9.912.913.913,0,0,1,.9-.912" transform="translate(827 457)" fill="#32190e"/><path d="M190.218,155.853h4.143v1.289h-4.684c-.107.231-.215.45-.335.657h3.986v3.21h-4.263v-2.736a6.539,6.539,0,0,1-.444.633c-.18-.2-.492-.524-.757-.767v4.014h-1.272v1.41h1.464v1.3h-3.4v.644h-1.237V155.282h4.588V156.6h-1.417v1.325h1.08a9.365,9.365,0,0,0,1.489-3.345l1.585.463c-.048.11-.144.159-.312.159Zm-4.863.742h-.7v1.325h.7Zm1.248,2.614h-1.945v1.642H186.6Zm-1.248,2.944h-.7v1.41h.7Zm2.9,3.9V161.6h2.679v4.305h-1.057v-.535h-.6v.681Zm1.622-3.308h-.6v1.483h.6Zm.384-2.882h1.8v-.925h-1.8Zm1.1,6.178V161.6h2.738v4.305h-1.081v-.535H192.4v.669Zm1.657-3.3H192.4v1.483h.625Z" transform="translate(827 457)" fill="#32190e"/><path d="M199.7,155.33v8.354h-2.438v1.082h-1.333V155.33Zm-1.345,1.3h-1.093v2.2h1.093Zm-1.093,5.752h1.093V160.11h-1.093Zm6.833-4.1h2.763v1.3h-6.942v-1.3h2.762v-1.107h-2.365v-1.265h2.365V154.6l1.742.1c-.013.109-.108.194-.325.232v.984h2.438v1.265h-2.438Zm1.838,1.435c-.012.109-.1.194-.314.218v.694h1.226v1.277h-1.226v2.675c0,1.241-.444,1.52-2.64,1.52a4.8,4.8,0,0,0-.457-1.362c.347.013.721.024,1.009.024.648,0,.685,0,.685-.218v-2.639h-4.288v-1.277h4.288v-1Zm-4.131,5.107a9.167,9.167,0,0,0-1.381-2.067l1.152-.668a8.817,8.817,0,0,1,1.466,2.006Z" transform="translate(827 457)" fill="#32190e"/><path d="M209.3,162.541a5.922,5.922,0,0,1-.7,2.955l-.745-.4a5.378,5.378,0,0,0,.649-2.7Zm3.447-1.958.66.074c0,.109-.012.255-.024.365-.132,3.027-.276,4.195-.576,4.572-.312.413-.637.5-1.813.462a3.1,3.1,0,0,0-.3-1.143,6.7,6.7,0,0,0,.757.037.337.337,0,0,0,.324-.146,2.7,2.7,0,0,0,.252-1.107l-.384.146a6.844,6.844,0,0,0-.552-1.594l.576-.194a8.934,8.934,0,0,1,.408.985h.012c.024-.365.048-.791.072-1.3H209.78v.267h-1.213v-6.968H213.2v1.18h-1.489v.705H213v1.107h-1.285v.729H213v1.1h-1.285v.754h.757Zm-3.23,4.184c.011-.158.011-.34.011-.523a13.953,13.953,0,0,0-.108-1.751l.625-.061a12.339,12.339,0,0,1,.132,2.25Zm1.032-8.549h-.769v.705h.769Zm0,1.812h-.769v.729h.769Zm-.768,2.578h.769v-.754h-.769Zm.852,3.795a10.129,10.129,0,0,0-.372-1.995l.613-.11a9.972,9.972,0,0,1,.408,1.971Zm6.449-.1h2.342v1.35h-6.209V164.3h2.462v-2.614h-1.825v-1.326h1.825V158.2H213.55V156.85h2.919a12.607,12.607,0,0,0-2.126-1.289l.853-1.046a11.3,11.3,0,0,1,2.738,1.642l-.541.693h1.8V158.2h-2.113v2.164h1.885v1.326h-1.885Z" transform="translate(827 457)" fill="#32190e"/><path d="M231.7,163.1v1.326h-4.84v1.629h-1.489v-1.629h-4.695V163.1h4.695v-.645h-3.483v-4.937h3.483v-.6h-4.407V155.6h4.407v-1.01l1.825.11c-.012.122-.107.194-.336.231v.669h4.491v1.325h-4.491v.6h3.591v4.937h-3.591v.645Zm-8.43-3.673h2.1v-.741h-2.1Zm0,1.861h2.1v-.767h-2.1Zm5.716-2.6h-2.125v.741h2.125Zm0,1.836h-2.125v.767h2.125Z" transform="translate(827 457)" fill="#32190e"/><path d="M244.3,160.754h-4.888c-.108.206-.216.4-.336.6h3.963l.288-.025.768.122a3.064,3.064,0,0,1-.06.353c-.168,2.456-.372,3.441-.7,3.806s-.7.45-1.525.45c-.156,0-.324,0-.5-.012a2.834,2.834,0,0,0-.3-1.106,6.336,6.336,0,0,1-1.008,1.24,4.734,4.734,0,0,0-1.033-.827,6.482,6.482,0,0,0,1.981-2.846h-.684a9.666,9.666,0,0,1-2.726,3.187,5.026,5.026,0,0,0-.949-.865,7.258,7.258,0,0,0,2.39-2.322h-.757a7.633,7.633,0,0,1-1.5,1.325,8.674,8.674,0,0,0-.9-.839,1.965,1.965,0,0,0,.217-.121v-.012c-.9.425-1.766.814-2.39,1.094a.262.262,0,0,1-.18.243L232.9,162.6c.409-.134.925-.329,1.489-.535v-3.54h-1.236v-1.374h1.236V154.6l1.645.1c-.011.122-.1.183-.3.219v2.238h1.1v1.374h-1.1v3l1.008-.4c.012.024.012.049.216.984a6.445,6.445,0,0,0,1.057-1.361h-1.429v-1.228H244.3Zm-.841-1.715h-5.74v-4.147h5.74ZM242.13,155.9h-3.122v.584h3.122Zm0,1.544h-3.122v.584h3.122Zm0,5.06a10.484,10.484,0,0,1-1.093,2.4,7.968,7.968,0,0,0,.829.037.376.376,0,0,0,.348-.147,5.18,5.18,0,0,0,.444-2.286Z" transform="translate(827 457)" fill="#32190e"/><path d="M253.783,158.711c-.036.134-.071.267-.1.4a3.107,3.107,0,0,1,2.51,3.077c0,1.947-1.441,3.26-4.527,3.649a5.653,5.653,0,0,0-.624-1.229c2.161-.243,3.578-.972,3.578-2.383a1.824,1.824,0,0,0-1.429-1.776,9.007,9.007,0,0,1-2.27,3.162,2.7,2.7,0,0,0,.168.414l-1.236.8a2.829,2.829,0,0,1-.168-.4,3.964,3.964,0,0,1-1.934.558A1.659,1.659,0,0,1,246,163.174c0-1.679,1.273-3,2.978-3.709-.024-.524-.024-1.059-.024-1.618-.9.024-1.873.048-2.354.037l-.072-1.423c.553.012,1.561.012,2.45.012.024-.523.036-1.131.06-1.642l1.885.146c-.024.122-.12.219-.324.244-.036.352-.06.814-.1,1.2a27.465,27.465,0,0,0,4.287-.511l.132,1.472a33.23,33.23,0,0,1-4.491.414c-.012.425-.024.839-.024,1.24a6.728,6.728,0,0,1,1.8-.158,2.92,2.92,0,0,0,.1-.547Zm-4.455,4.378a17.828,17.828,0,0,1-.276-2.226,2.488,2.488,0,0,0-1.6,2.031c0,.693.516.668.672.657a2.414,2.414,0,0,0,1.2-.462m2.426-2.883a4.719,4.719,0,0,0-1.333.171,15.5,15.5,0,0,0,.156,1.653,6.383,6.383,0,0,0,1.177-1.824" transform="translate(827 457)" fill="#32190e"/><path d="M259.146,161.836a11.911,11.911,0,0,1-.324-2.638,23,23,0,0,1,.348-3.7l1.873.255a.338.338,0,0,1-.3.22,14.652,14.652,0,0,0-.42,3.441,13.432,13.432,0,0,1,.9-1.654,6.973,6.973,0,0,0,.685.973,6.65,6.65,0,0,0-1.3,2.566,1.378,1.378,0,0,0,.036.292Zm6.9-6.652c-.012.146-.108.231-.3.292.1.961.2,2.578.2,4.123-.012,2.347-.757,4.561-4.575,6.153a9.075,9.075,0,0,0-1.081-1.215c3.29-1.29,3.987-3.26,3.987-4.914A40.382,40.382,0,0,0,264,155.1Z" transform="translate(827 457)" fill="#32190e"/><path d="M.158,99.283V91.425L8.62,85.542h7.761v30.677H8.62V93.4H8.576Z" transform="translate(827 457)" fill="#32190e"/><path d="M34.312,85.121c4.3,0,7.5,1.218,9.559,3.7,2.1,2.48,3.157,6.471,3.157,12.061s-1.053,9.581-3.157,12.06c-2.061,2.479-5.262,3.7-9.559,3.7s-7.5-1.219-9.6-3.7c-2.061-2.479-3.113-6.472-3.113-12.06S22.649,91.3,24.71,88.819c2.105-2.48,5.305-3.7,9.6-3.7m0,26.1a4.069,4.069,0,0,0,3.858-2.311c.834-1.555,1.272-4.2,1.272-8.026S39,94.408,38.17,92.853a4.072,4.072,0,0,0-3.858-2.312,4.135,4.135,0,0,0-3.9,2.312c-.834,1.555-1.228,4.2-1.228,8.027s.394,6.471,1.228,8.026a4.132,4.132,0,0,0,3.9,2.311" transform="translate(827 457)" fill="#32190e"/><path d="M58.934,100.43H51.3V93.11h7.635Zm0,14.524H51.3v-7.32h7.635Z" transform="translate(827 457)" fill="#32190e"/><path d="M76.918,85.121c4.3,0,7.5,1.218,9.559,3.7,2.1,2.48,3.157,6.471,3.157,12.061s-1.053,9.581-3.157,12.06c-2.062,2.479-5.262,3.7-9.559,3.7s-7.5-1.219-9.6-3.7c-2.061-2.479-3.113-6.472-3.113-12.06s1.052-9.581,3.113-12.061c2.1-2.48,5.305-3.7,9.6-3.7m0,26.1a4.069,4.069,0,0,0,3.858-2.311c.833-1.555,1.272-4.2,1.272-8.026s-.439-6.472-1.272-8.027a4.072,4.072,0,0,0-3.858-2.312,4.135,4.135,0,0,0-3.9,2.312c-.834,1.555-1.228,4.2-1.228,8.027s.394,6.471,1.228,8.026a4.132,4.132,0,0,0,3.9,2.311" transform="translate(827 457)" fill="#32190e"/><path d="M105.722,85.121c4.3,0,7.5,1.218,9.559,3.7,2.1,2.48,3.157,6.471,3.157,12.061s-1.053,9.581-3.157,12.06c-2.061,2.479-5.262,3.7-9.559,3.7s-7.5-1.219-9.6-3.7c-2.061-2.479-3.113-6.472-3.113-12.06S94.059,91.3,96.12,88.819c2.1-2.48,5.305-3.7,9.6-3.7m0,26.1a4.069,4.069,0,0,0,3.858-2.311c.834-1.555,1.272-4.2,1.272-8.026s-.438-6.472-1.272-8.027a4.072,4.072,0,0,0-3.858-2.312,4.135,4.135,0,0,0-3.9,2.312c-.834,1.555-1.228,4.2-1.228,8.027s.394,6.471,1.228,8.026a4.132,4.132,0,0,0,3.9,2.311" transform="translate(827 457)" fill="#32190e"/><path d="M143.532,103.459a11.19,11.19,0,0,0,2.52-2.335l3.368,2.932a9.7,9.7,0,0,1-8.153,4.29,10.391,10.391,0,0,1-6.483-2.308,6.083,6.083,0,0,0-3.6-1.521,4.4,4.4,0,0,0-2.321.652,12.186,12.186,0,0,0-2.548,2.362l-3.284-2.986a9.7,9.7,0,0,1,8.153-4.289,10.392,10.392,0,0,1,6.483,2.307,6.083,6.083,0,0,0,3.6,1.521,4.359,4.359,0,0,0,2.265-.625" transform="translate(827 457)" fill="#32190e"/><path d="M152.487,99.283V91.425l8.462-5.883h7.761v30.677h-7.761V93.4H160.9Z" transform="translate(827 457)" fill="#32190e"/><path d="M194.445,105.8q0,10.842-13.417,10.843a28.261,28.261,0,0,1-8.331-1.177V109.41a25.226,25.226,0,0,0,8.024,1.555q6.446,0,6.445-5.169c0-2.816-1.447-4.2-4.384-4.2a6.028,6.028,0,0,0-3.814,1.6H172.61l.877-17.649H193V91.3H180.2l-.307,5.715h.132a11.2,11.2,0,0,1,4.209-.84c6.533,0,10.216,3.445,10.216,9.622" transform="translate(827 457)" fill="#32190e"/><path d="M206.747,100.43h-7.635V93.11h7.635Zm0,14.524h-7.635v-7.32h7.635Z" transform="translate(827 457)" fill="#32190e"/><path d="M223.927,85.121c4.3,0,7.5,1.218,9.559,3.7,2.1,2.48,3.156,6.471,3.156,12.061s-1.052,9.581-3.156,12.06c-2.061,2.479-5.262,3.7-9.559,3.7s-7.5-1.219-9.6-3.7c-2.061-2.479-3.113-6.472-3.113-12.06s1.052-9.581,3.113-12.061c2.1-2.48,5.305-3.7,9.6-3.7m0,26.1a4.069,4.069,0,0,0,3.858-2.311c.834-1.555,1.272-4.2,1.272-8.026s-.438-6.472-1.272-8.027a4.072,4.072,0,0,0-3.858-2.312,4.135,4.135,0,0,0-3.9,2.312c-.834,1.555-1.228,4.2-1.228,8.027s.394,6.471,1.228,8.026a4.132,4.132,0,0,0,3.9,2.311" transform="translate(827 457)" fill="#32190e"/><path d="M253.3,85.121c4.3,0,7.5,1.218,9.559,3.7,2.1,2.48,3.156,6.471,3.156,12.061s-1.052,9.581-3.156,12.06c-2.062,2.479-5.262,3.7-9.559,3.7s-7.5-1.219-9.6-3.7c-2.061-2.479-3.113-6.472-3.113-12.06s1.052-9.581,3.113-12.061c2.1-2.48,5.3-3.7,9.6-3.7m0,26.1a4.069,4.069,0,0,0,3.858-2.311c.833-1.555,1.272-4.2,1.272-8.026s-.439-6.472-1.272-8.027a4.072,4.072,0,0,0-3.858-2.312,4.135,4.135,0,0,0-3.9,2.312c-.834,1.555-1.228,4.2-1.228,8.027s.394,6.471,1.228,8.026a4.132,4.132,0,0,0,3.9,2.311" transform="translate(827 457)" fill="#32190e"/><path d="M3.661,138.959c-1.074-1.094-2.308-2.233-3.661-3.371l1.692-2.277a40.628,40.628,0,0,1,3.66,3.281Zm2.846-.335.218-1.987-2.009-1.45A24.158,24.158,0,0,0,7.641,128l2.845.492c-.119.58-.2.937-.259,1.138h8.318v2.745H9.372c-.179.492-.339.849-.418,1.094h9.173l-.358,5.157h1.154v2.746H17.57c-.02.334-.08.825-.14,1.406l-.119,1.25h1.035v2.522H17.033c0,.023-.02.09-.02.112-.18,1.674-.816,2.187-2.527,2.187-.617,0-1.194,0-1.732-.022l-.139-2.277H8.238a11.112,11.112,0,0,1-.2,1.116l-2.806-.2c.378-2.188.7-4.219.935-6.094H5.552a28.843,28.843,0,0,1-2.687,6.987L.418,146.616a35.048,35.048,0,0,0,2.746-6.966l1.989.827v-1.853Zm-4-10.134a38.521,38.521,0,0,1,3.283,2.879L4.1,133.735a40.745,40.745,0,0,0-3.283-2.969Zm6.109,15.536h1.691c.08-.581.179-1.451.318-2.656H8.974c-.02.29-.1.758-.179,1.339Zm2.308-5.4c.04-.692.179-1.92.219-2.567H9.571c-.04.469-.139,1.317-.279,2.567Zm3.581,5.4.239-2.656H13.073c-.14,1.205-.219,2.075-.3,2.656Zm.458-5.4.179-2.567H13.61c-.04.647-.179,1.875-.239,2.567Z" transform="translate(827 457)" fill="#1a1311"/><path d="M31.523,143.408l1.517-1.683.852.935a6.217,6.217,0,0,0,.8-2.991,5.916,5.916,0,0,0-1.814-4.486,4.937,4.937,0,0,0-4.312-1.164,5.316,5.316,0,0,0-3.628,2.514,5.642,5.642,0,0,0-.573,4.632,1.821,1.821,0,0,0,1.388,1.288,1.991,1.991,0,0,0,1.665-.686c1.018-.976,1.555-2.866,1.5-5.276l3.109-.124c.093,3.427-.851,6.231-2.609,7.955a4.853,4.853,0,0,1-4.127,1.474,4.866,4.866,0,0,1-3.738-3.281,9.457,9.457,0,0,1,.814-7.851,8.347,8.347,0,0,1,5.719-3.947,8.006,8.006,0,0,1,6.7,1.807,9.41,9.41,0,0,1,3,7.208,8.933,8.933,0,0,1-3.22,6.958Z" transform="translate(827 457)" fill="#1a1311"/><path d="M41.607,147.665c0,.022-.02.111-.02.134l-1.552-.67a45.282,45.282,0,0,0,.577-5.692l.179.022v-.022l1.413.267a47.539,47.539,0,0,1-.577,5.983Zm4.337-2.858v-.022l-.119.022c-.08-.87-.219-1.92-.4-3.147l.06-.023v-.044l1.074-.2c.179,1.027.319,1.809.378,2.389v-2.813H41.03V128.846h8.277V131.5H47.6v1.071h1.492v1.965H47.6v1.071h1.492v1.943H47.6v1.116h1.731v2.477c0,1.586-.02,2.791-.079,3.617a47.693,47.693,0,0,0,.855-10.648v-5.157h7.959v9.979H56.391a21.275,21.275,0,0,0,2.408,7.634l-2.289,1.987a15.041,15.041,0,0,1-1.651-3.951,35.452,35.452,0,0,1-1.115-5.67h-.955a31.986,31.986,0,0,1-1.711,9.6l-2.129-1.629c-.278,1.161-.776,1.451-1.771,1.451-.537,0-1.234-.045-2.109-.134l-.1-2.255-.637.134q-.06-.737-.418-4.353l.08-.022V141.7l1.174-.245q.387,2.88.477,4.018c.517.023.816.045.915.045.2,0,.3,0,.338-.893Zm-2.009,2.211v.111l-1.373.223c-.02-.8-.08-2.656-.2-5.6l1.274-.223v.022l.079-.022c.159,2.3.259,4.13.318,5.469Zm-.08-14.444h1.194V131.5H43.855Zm0,3.036h1.194v-1.071H43.855Zm0,3.059h1.194v-1.116H43.855Zm8.974-2.59h2.428v-4.2H52.829Z" transform="translate(827 457)" fill="#1a1311"/><path d="M65.615,128.619h3.19v5.106a7.66,7.66,0,0,1,3.677-1,6.434,6.434,0,0,1,5.974,4.013,9.352,9.352,0,0,1,.63,5.083,10.557,10.557,0,0,1-3.454,6.292l-2.277-2.575c2.033-1.756,3.415-5.153,2.074-7.569-1.483-2.69-4.673-1.824-6.624-.205l.021,10.258H65.634v-6.451a32.541,32.541,0,0,0-1.807,4.171l-2.987-1.185a22.168,22.168,0,0,1,4.794-8.435l-.019-1.026a6.889,6.889,0,0,0-3.068.889l-1.869-3.83,2.072-1.116.467,1a7.36,7.36,0,0,1,2.4-.365Z" transform="translate(827 457)" fill="#1a1311"/><path d="M89.871,147.587c-1.524-.912-2.255-2.781-2.54-4.605l-2.742.365-1.707,4.833L79.915,146.9l5.547-15.912-1.524-.662L84.751,128l4.531,1.938L85.909,139.7l4.571-.547a11.16,11.16,0,0,0,.184,4.172c.3.912,1.015,1.619,1.848,1.3,1.829-.66,1.992-4.49,2.113-6.314l3.231.136c-.183,3.032-.589,6.589-2.824,8.64a4.348,4.348,0,0,1-5.161.5" transform="translate(827 457)" fill="#1a1311"/><path d="M113.254,147.313a17,17,0,0,1-5.669,1.1,11.8,11.8,0,0,1-2.723-.342,6.028,6.028,0,0,1-4.49-6.635,7.427,7.427,0,0,1,2.5-4.536,17.011,17.011,0,0,1-1.727-6.93l-.061-1.733,3.21-.137.061,1.756a13,13,0,0,0,1.219,5.129,27.718,27.718,0,0,1,4.308-1.824l-.366-1.573,2.174-.683,1.077,4.787c-1.3.524-2.357.889-3.271,1.276a17.4,17.4,0,0,0-2.7,1.254c-1.707.981-3.068,2.234-3.271,3.739a2.633,2.633,0,0,0,2.051,2.713c1.809.5,4.186.2,6.888-.776Zm-.447-13.655-.61-3.4,1.951-.433.609,3.328Zm2.438-1.14-.63-3.351,1.971-.5.61,3.443Z" transform="translate(827 457)" fill="#1a1311"/><path d="M134.042,133.775H123.356V147.98h-2.962V131.017h5.556c.291-.934.562-1.911.833-2.867l3.1.391-.736,2.476H137v13.054c0,.673-.019,1.172-.039,1.563a3.445,3.445,0,0,1-.426,1.716,1.314,1.314,0,0,1-.58.369,4.891,4.891,0,0,1-2.014.239c-.116,0-1.239-.044-3.31-.131l-.174-2.78c1.665.066,2.594.109,2.807.109.736,0,.774-.043.774-.869Zm-1.355,1.7v7.666h-5.246v1.716h-2.73V135.47Zm-2.729,2.345h-2.517v2.975h2.517Z" transform="translate(827 457)" fill="#1a1311"/><path d="M151.056,148.088l-4.569-1.716.716-2.258,1.781.694c.7-2.15,1.026-4.539-.1-6.059a3.7,3.7,0,0,0-1.491-1.195l-3.039,10.034-2.962-1.129,2.962-9.4a15.9,15.9,0,0,0-4.472.716l-.7-3.214a15.784,15.784,0,0,1,6.156-.8l1.452-5.082,2.9.955-1.375,4.844a7.747,7.747,0,0,1,3.136,2.237,7.928,7.928,0,0,1,1.142,5.43,21.6,21.6,0,0,1-1.548,5.951m3.252-8.036a7.9,7.9,0,0,0-3.31-6.733l1.49-2.932a11.428,11.428,0,0,1,4.84,9.665Z" transform="translate(827 457)" fill="#1a1311"/><path d="M168.651,142.528l-1.7,4.952-1.471-.608c-5.247-2.194-6.311-7.081-6.311-13.749v-1.737H162.3v1.737c0,6.929,1.316,9.079,3.678,10.252l.6-1.694Zm7.9-.7h-3.156v-1.716c0-2.476-.638-4.127-1.839-5.1l-.561,1.434-2.013-.934,1.877-4.735,1.568.8c1.9,1,4.124,3.389,4.124,8.536Z" transform="translate(827 457)" fill="#1a1311"/><path d="M182.152,137.641a64.549,64.549,0,0,0,.8-8.349l2.128.2c0,.982-.04,1.719-.06,2.232h.418v-3.3h2.883v3.3h1.492v2.59h3.659v-1.607h-3.381v-2.68h3.381v-2.053h3.122v2.053h3.44v2.68h-3.44v1.607h4.077v2.768H199.1v1.406h1.571v2.768H199.1v3.081c0,.692-.02,1.228-.04,1.607a3.4,3.4,0,0,1-.5,1.808,1.626,1.626,0,0,1-.657.38,6.917,6.917,0,0,1-2.326.223c-.378,0-1.173-.045-2.387-.112l-.139-2.544-.776.714c-.974-1.273-1.889-2.411-2.724-3.349l1.889-1.808H189.51v-.692l-1.193.38v7.478h-2.883v-6.675c-.935.224-1.87.4-2.824.581l-.259-2.835c1.074-.2,2.108-.424,3.083-.67V134.56H184.8c-.1,1.161-.278,2.411-.5,3.728Zm7.358-3.081h-1.193v3.46c.358-.111.875-.267,1.591-.491l.04.96h6.1v-1.406H189.51Zm6.543,6.7h-4.3c.875.982,1.73,2.054,2.606,3.215l-1.094,1c.875.067,1.472.112,1.73.112a2.113,2.113,0,0,0,.915-.112c.1-.089.139-.357.139-.826Z" transform="translate(827 457)" fill="#1a1311"/><path d="M211.968,134.9h-7.656v-2.723h7.656Zm-.537,1.093V138h-6.443v-2.411h6.423a4.213,4.213,0,0,0,1.273-1.987,13.352,13.352,0,0,0,.358-3.46v-1.228H219.7V133.8c0,.312.02.335.318.335a.416.416,0,0,0,.458-.335,16.5,16.5,0,0,0,.2-2.255l2.128.358-.06,1.629c-.02.313-.079.714-.139,1.161-.139.871-.119,1-.5,1.429a1.186,1.186,0,0,1-.418.379c-.1.022-.338.089-.7.156a4.26,4.26,0,0,1-.875.09h-1.213a2.825,2.825,0,0,1-1.531-.269c-.239-.178-.358-.558-.358-1.16v-3.684h-1.393v.045c0,2.59-.7,4.51-2.127,5.782h8.114v2.768h-.02a13.929,13.929,0,0,1-2.268,3.728,17.124,17.124,0,0,0,3.441,1.518l-.955,2.857a16.965,16.965,0,0,1-4.832-2.277,18.192,18.192,0,0,1-4.475,2.277l-.974-2.277V147.8h-4.077v.736h-2.665v-6.786h6.742v3.728a14.219,14.219,0,0,0,3.062-1.362,13.728,13.728,0,0,1-2.107-2.634l1.63-1.25h-1.929v-2.768h.875Zm.02-4.464h-6.662v-2.5h6.662Zm-.02,9.554h-6.443v-2.41h6.443Zm-2.247,2.992h-1.73v1.406h1.73Zm9.347-3.84h-3.58a12.808,12.808,0,0,0,1.989,2.076,10.017,10.017,0,0,0,1.591-2.076" transform="translate(827 457)" fill="#1a1311"/><path d="M240.809,137.061H229.832v-1.473a27.292,27.292,0,0,1-2.863,1.763l-1.134-2.835a30.974,30.974,0,0,0,7.5-6.027h3.978a30.935,30.935,0,0,0,7.5,6.027l-1.134,2.835a27.41,27.41,0,0,1-2.864-1.763Zm-13.96,4.308v-2.835h16.944v2.835h-2.466c.934,2.143,1.829,4.264,2.664,6.385l-2.744,1.026-.756-1.92c-4.693.6-8.989.96-12.926,1.072l-.179-2.835,2.764-.134c.5-.982,1.034-2.165,1.651-3.594Zm12.27-7.054a31.212,31.212,0,0,1-3.8-3.638,31.284,31.284,0,0,1-3.8,3.638Zm-.159,8.907c-.179-.469-.3-.782-.4-1l2.128-.849H235.1c-.4,1.094-.9,2.188-1.432,3.349,2.565-.179,4.475-.358,5.728-.514-.1-.2-.239-.514-.438-.982" transform="translate(827 457)" fill="#1a1311"/><path d="M260.562,148.312l-.119-2.188a15.931,15.931,0,0,1-2.745,2.589l-1.63-1.763a16.232,16.232,0,0,0,4.3-4.532h-.974a18.943,18.943,0,0,1-5.827,5.09l-1.452-1.853a16.781,16.781,0,0,0,4.4-3.237h-1.233c-.437.335-.776.6-1.034.759l.06.737a28.062,28.062,0,0,1-6.106,2.5l-.338-2.991,1.631-.38v-5.714h-1.551v-2.791h1.551v-5.759h2.943v5.759h1.81v-5.714h10.918v7.813H254.318v.647h11.733v2.277h-7.995l-.556.692h8.113v2.076c0,5.4-.457,6.005-2.645,6.094-.477.023-1.272-.044-2.406-.111m-7.08-8.751v-2.232h-1.054V141.7a14.3,14.3,0,0,0,2.8-2.143Zm8.552-8.126h-4.872v.826h4.872Zm0,2.456h-4.872v.871h4.872Zm.8,8.773a17.507,17.507,0,0,1-2.008,3.036c.517.045.934.067,1.272.067.637-.067.736-.179.736-2.879Z" transform="translate(827 457)" fill="#1a1311"/><path d="M.158,32.454V14.628L18.649,1.282H35.607V70.871H18.649V19.108h-.1Z" transform="translate(827 457)" fill="#32190e"/><path d="M73.161.328c9.39,0,16.383,2.765,20.886,8.389,4.6,5.624,6.9,14.681,6.9,27.359s-2.3,21.735-6.9,27.359c-4.5,5.624-11.5,8.389-20.886,8.389S56.778,69.059,52.18,63.435c-4.5-5.624-6.8-14.681-6.8-27.359s2.3-21.735,6.8-27.359C56.778,3.093,63.772.328,73.161.328m0,59.2a8.857,8.857,0,0,0,8.431-5.242c1.821-3.528,2.779-9.533,2.779-18.208s-.958-14.68-2.779-18.208a8.857,8.857,0,0,0-8.431-5.242,8.99,8.99,0,0,0-8.527,5.242c-1.82,3.528-2.682,9.533-2.682,18.208s.862,14.68,2.682,18.208a8.99,8.99,0,0,0,8.527,5.242" transform="translate(827 457)" fill="#32190e"/><rect width="12.433" height="16.563" transform="translate(931.942 508.982)" fill="#32190e"/><path d="M182.547,46.319q0,24.793-29.554,24.794a60.088,60.088,0,0,1-18.35-2.691V54.584c6.761,2.4,12.652,3.556,17.674,3.556q14.2,0,14.2-11.821c0-6.439-3.187-9.609-9.657-9.609-2.8,0-5.6,1.248-8.4,3.651h-14L136.382,0h42.977V13.165h-28.2l-.676,13.07h.29a23.9,23.9,0,0,1,9.272-1.922c14.39,0,22.5,7.879,22.5,22.006" transform="translate(827 457)" fill="#32190e"/><path d="M259.446,27.543a19.82,19.82,0,0,1-39.635,0,19.82,19.82,0,0,1,39.635,0" transform="translate(827 457)" fill="#dc000c"/><path d="M239.628,49.52A22.429,22.429,0,0,1,223.863,43.1a21.885,21.885,0,0,1-4.791-6.986,21.733,21.733,0,0,1,0-17.139,21.885,21.885,0,0,1,4.791-6.986,22.527,22.527,0,0,1,31.531,0,21.886,21.886,0,0,1,4.791,6.986,21.732,21.732,0,0,1,0,17.139,21.886,21.886,0,0,1-4.791,6.986,22.431,22.431,0,0,1-15.766,6.422Zm0-38.954a17.377,17.377,0,0,0-12.26,4.988,16.742,16.742,0,0,0,0,23.979,17.564,17.564,0,0,0,24.521,0,16.741,16.741,0,0,0,0-23.979A17.379,17.379,0,0,0,239.628,10.566Z" transform="translate(827 457)" fill="#32190e"/><path d="M233.959,36.5h-3.9V17.145h18.729V36.5h-3.9V35.308H233.959Zm10.925-16.411H233.959v4.558h10.925Zm0,7.409H233.959v4.961h10.925Z" transform="translate(827 457)" fill="#fff"/><path d="M219.384,70.176a8.938,8.938,0,0,0,3.41.689c2.182,0,3.432-1.377,3.538-4.035l-.043-.024a4.706,4.706,0,0,1-3.156,1.045c-3.368,0-5.21-2.066-5.21-5.935a5.839,5.839,0,0,1,1.588-4.319,5.915,5.915,0,0,1,4.363-1.614c3.813,0,5.974,2.587,5.974,7.595q0,10.218-6.927,10.206a14.172,14.172,0,0,1-3.537-.475Zm1.991-8.331c0,2.184.911,3.3,2.5,3.3,1.547,0,2.5-1.186,2.5-3.3,0-1.779-1.038-2.943-2.5-2.943-1.546,0-2.5,1.116-2.5,2.943" transform="translate(827 457)" fill="#32190e"/><path d="M236.837,62.321h-4.025v-4.51h4.025Zm0,9.873h-4.025v-4.51h4.025Z" transform="translate(827 457)" fill="#32190e"/><path d="M246.665,63.294v.047h.274c2.459,0,4.068,1.828,4.068,4.747,0,3.679-2.076,5.7-5.825,5.7a13.034,13.034,0,0,1-4.6-.831v-3.49a10.289,10.289,0,0,0,4.3,1.116,2.3,2.3,0,0,0,2.584-2.421,1.741,1.741,0,0,0-.825-1.638,6.623,6.623,0,0,0-3.029-.5h-1.06V63.317l3.919-3.8v-.046H240.48V56.221h10.315v3.252Z" transform="translate(827 457)" fill="#32190e"/><path d="M259.834,55.983a5.278,5.278,0,0,1,4.617,2.089c1.017,1.4,1.525,3.656,1.525,6.812s-.508,5.411-1.525,6.811a5.276,5.276,0,0,1-4.617,2.09,5.343,5.343,0,0,1-4.639-2.09c-1-1.4-1.5-3.655-1.5-6.811s.508-5.411,1.5-6.812a5.345,5.345,0,0,1,4.639-2.089m0,14.74a1.952,1.952,0,0,0,1.864-1.306,11.836,11.836,0,0,0,.614-4.533,11.846,11.846,0,0,0-.614-4.534,1.952,1.952,0,0,0-1.864-1.305,1.978,1.978,0,0,0-1.885,1.305,11.959,11.959,0,0,0-.594,4.534,11.949,11.949,0,0,0,.594,4.533,1.978,1.978,0,0,0,1.885,1.306" transform="translate(827 457)" fill="#32190e"/><path d="M200.664,49.689h-4.647v7.826h-2.633V43.153h7.28Zm-2.085-4.673h-2.562v.719h2.562Zm0,2.32h-2.562v.7h2.562Zm7.581,7.991c.07-.05.1-.246.1-.573V49.689h-4.806V43.153h7.44V54.591c0,.49-.018.882-.036,1.144a2.184,2.184,0,0,1-.424,1.323,1.336,1.336,0,0,1-.548.261,6.682,6.682,0,0,1-1.961.164c-.6,0-1.219-.017-1.891-.065L204,57.107h-2.209V54.412h-1.449a5.438,5.438,0,0,1-2.05,2.956l-1.855-1.111a5.558,5.558,0,0,0,1.644-1.845h-1.361v-1.52h1.608V51.96h-1.4V50.408h8.358V51.96h-1.237v.932h1.449v1.52h-1.449v.93c.654.05,1.131.066,1.431.066a1.592,1.592,0,0,0,.672-.081m-5.637-2.435h1.272V51.96h-1.272Zm3-7.157h2.739v-.719h-2.739Zm0,2.3h2.739v-.7h-2.739Z" transform="translate(827 457)" fill="#32190e"/><path d="M204.3,73.489l-.106-1.6a13.5,13.5,0,0,1-2.44,1.895l-1.448-1.291a13.284,13.284,0,0,0,3.817-3.317h-.867a14.061,14.061,0,0,1-2.368,2.091,15.792,15.792,0,0,1-2.808,1.634l-1.291-1.356a15.1,15.1,0,0,0,3.9-2.369h-1.1c-.389.245-.69.441-.918.556l.052.539a28.2,28.2,0,0,1-5.425,1.83l-.3-2.189,1.449-.279V65.45h-1.379V63.409h1.379V59.193h2.615v4.216h1.609V59.226h9.7v5.718h-9.629v.475h10.425v1.665h-7.105l-.494.507h7.209V69.11c0,3.955-.406,4.4-2.35,4.461-.424.017-1.131-.032-2.137-.082m-6.292-6.4V65.45h-.936v3.2a12.712,12.712,0,0,0,2.491-1.569Zm7.6-5.947h-4.328v.6h4.328Zm0,1.8h-4.328v.637h4.328Zm.707,6.421a12.9,12.9,0,0,1-1.783,2.222c.458.033.83.05,1.129.05.566-.05.654-.131.654-2.109Z" transform="translate(827 457)" fill="#32190e"/></g></svg>