<svg xmlns="http://www.w3.org/2000/svg" xmlns:xlink="http://www.w3.org/1999/xlink" width="641.129" height="73.053" viewBox="0 0 641.129 73.053"><defs><clipPath id="a"><rect width="641.129" height="73.053" transform="translate(0 0)" fill="none"/></clipPath></defs><g transform="translate(0 0)"><path d="M18.236,1.7,0,14.862v17.58L18.141,19.281h.095V70.328H34.959V1.7Z" fill="#32190e"/><g clip-path="url(#a)"><path d="M71.994.761c9.26,0,16.157,2.726,20.6,8.273,4.535,5.546,6.8,14.478,6.8,26.981s-2.267,21.434-6.8,26.979c-4.441,5.547-11.338,8.274-20.6,8.274S55.838,68.541,51.3,62.994C46.862,57.449,44.6,48.517,44.6,36.015S46.862,14.58,51.3,9.034C55.838,3.487,62.735.761,71.994.761m0,58.379a8.732,8.732,0,0,0,8.314-5.17c1.8-3.478,2.741-9.4,2.741-17.955S82.1,21.537,80.308,18.058a8.733,8.733,0,0,0-8.314-5.169,8.866,8.866,0,0,0-8.409,5.169c-1.795,3.479-2.645,9.4-2.645,17.957s.85,14.477,2.645,17.955a8.865,8.865,0,0,0,8.409,5.17" fill="#32190e"/><rect width="12.261" height="16.333" transform="translate(103.336 51.701)" fill="#32190e"/><path d="M179.868,46.116q0,24.45-29.146,24.451a59.249,59.249,0,0,1-18.1-2.654V54.266c6.667,2.37,12.477,3.507,17.43,3.507q14,0,14-11.657c0-6.35-3.143-9.477-9.524-9.477-2.763,0-5.525,1.232-8.287,3.6H132.435l1.906-39.8h42.383V13.42H148.913l-.667,12.889h.286a23.582,23.582,0,0,1,9.144-1.9c14.191,0,22.192,7.77,22.192,21.7" fill="#32190e"/><path d="M19.544-4.069A23.473,23.473,0,0,1,43.157,19.208,23.473,23.473,0,0,1,19.544,42.485,23.473,23.473,0,0,1-4.069,19.208,23.473,23.473,0,0,1,19.544-4.069Zm0,38.416A15.327,15.327,0,0,0,35.019,19.208,15.327,15.327,0,0,0,19.544,4.069,15.327,15.327,0,0,0,4.069,19.208,15.327,15.327,0,0,0,19.544,34.347Z" transform="translate(213.389 4.505)" fill="#260005"/><path d="M252.477,23.713a19.547,19.547,0,0,1-39.088,0,19.547,19.547,0,0,1,39.088,0" fill="#dc000c"/><path d="M227.341,32.544h-3.848V13.459h18.471V32.544h-3.849V31.371H227.341Zm10.774-16.185H227.341v4.5h10.774Zm0,7.307H227.341v4.893h10.774Z" fill="#fff"/><path d="M546.149,11.975l3.963,4.014,3.963-4.014.348.352-3.963,4.014,3.963,4.013-.348.352-3.963-4.012-3.975,4.025-.349-.353,3.975-4.025L545.8,12.327Zm.54,5.278a.912.912,0,1,1,.9-.912.914.914,0,0,1-.9.912m2.522-4.378a.9.9,0,1,1,.9.912.913.913,0,0,1-.9-.912m1.8,6.932a.9.9,0,1,1-.9-.912.912.912,0,0,1,.9.912m2.522-4.378a.912.912,0,1,1-.9.912.913.913,0,0,1,.9-.912" fill="#32190e"/><path d="M565.3,11.866h4.143v1.289h-4.684c-.108.231-.216.45-.336.657h3.987v3.21h-4.263V14.286a6.24,6.24,0,0,1-.445.632c-.18-.194-.492-.523-.756-.766v4.013h-1.273v1.411h1.465v1.3h-3.4v.645H558.5V11.294h4.587v1.314h-1.417v1.325h1.081a9.4,9.4,0,0,0,1.489-3.345l1.585.463c-.048.11-.144.158-.312.158Zm-4.864.742h-.7v1.325h.7Zm1.249,2.614h-1.945v1.642h1.945Zm-1.249,2.943h-.7v1.41h.7Zm2.906,3.9V17.618h2.678v4.305h-1.057v-.535h-.6v.681Zm1.621-3.308h-.6v1.483h.6Zm.385-2.882h1.8v-.925h-1.8Zm1.1,6.178V17.618h2.738v4.305h-1.08v-.535h-.625v.669Zm1.658-3.3h-.625v1.483h.625Z" fill="#32190e"/><path d="M574.776,11.343V19.7h-2.438v1.082h-1.333V11.343Zm-1.345,1.3h-1.093v2.2h1.093ZM572.338,18.4h1.093V16.123h-1.093Zm6.833-4.1h2.763v1.3h-6.942V14.3h2.762V13.191h-2.365V11.926h2.365V10.612l1.742.1c-.013.109-.108.194-.325.232v.984h2.438v1.265h-2.438Zm1.838,1.435c-.012.109-.1.194-.313.218v.694h1.225v1.277H580.7V20.6c0,1.241-.444,1.52-2.641,1.52a4.8,4.8,0,0,0-.457-1.362c.348.013.721.024,1.009.024.648,0,.685,0,.685-.218V17.922H575V16.645h4.288v-1Zm-4.131,5.107a9.169,9.169,0,0,0-1.381-2.067l1.152-.668a8.816,8.816,0,0,1,1.466,2.006Z" fill="#32190e"/><path d="M584.376,18.554a5.922,5.922,0,0,1-.7,2.955l-.745-.4a5.377,5.377,0,0,0,.649-2.7Zm3.447-1.958.66.074c0,.109-.012.255-.024.365-.132,3.027-.276,4.195-.576,4.572-.312.413-.637.5-1.813.462a3.1,3.1,0,0,0-.3-1.143,6.7,6.7,0,0,0,.757.037.337.337,0,0,0,.324-.146,2.7,2.7,0,0,0,.252-1.107l-.384.146a6.845,6.845,0,0,0-.552-1.594l.576-.194a8.933,8.933,0,0,1,.408.985h.012c.024-.365.048-.791.072-1.3h-2.377v.267h-1.213V11.051h4.635v1.18H586.79v.7h1.285v1.107H586.79v.729h1.285v1.095H586.79v.754h.757Zm-3.23,4.184c.011-.158.011-.34.011-.523a13.953,13.953,0,0,0-.108-1.751l.625-.061a12.335,12.335,0,0,1,.132,2.25Zm1.032-8.549h-.769v.7h.769Zm0,1.812h-.769v.729h.769Zm-.768,2.578h.769v-.754h-.769Zm.852,3.8a10.125,10.125,0,0,0-.372-2l.613-.11a9.971,9.971,0,0,1,.408,1.971Zm6.449-.1H594.5v1.35h-6.209v-1.35h2.462V17.7h-1.825V16.378h1.825V14.214h-2.126V12.863h2.919a12.606,12.606,0,0,0-2.126-1.289l.853-1.046a11.3,11.3,0,0,1,2.738,1.642l-.541.693h1.8v1.351h-2.113v2.164h1.885V17.7h-1.885Z" fill="#32190e"/><path d="M606.779,19.114V20.44h-4.84v1.629H600.45V20.44h-4.7V19.114h4.7v-.645h-3.483V13.532h3.483v-.6h-4.407V11.611h4.407V10.6l1.825.109c-.012.122-.108.195-.336.232v.669h4.491v1.325h-4.491v.6h3.591v4.937h-3.591v.645Zm-8.431-3.673h2.1V14.7h-2.1Zm0,1.861h2.1v-.767h-2.1Zm5.716-2.6h-2.125v.741h2.125Zm0,1.836h-2.125V17.3h2.125Z" fill="#32190e"/><path d="M619.381,16.767h-4.888c-.108.206-.216.4-.336.6h3.963l.288-.025.768.122a3.08,3.08,0,0,1-.06.353c-.168,2.456-.372,3.441-.7,3.806s-.7.45-1.525.45c-.156,0-.324,0-.5-.012a2.833,2.833,0,0,0-.3-1.106,6.336,6.336,0,0,1-1.008,1.24,4.733,4.733,0,0,0-1.033-.827,6.483,6.483,0,0,0,1.981-2.846h-.684A9.666,9.666,0,0,1,612.62,21.7a5.026,5.026,0,0,0-.949-.865,7.258,7.258,0,0,0,2.39-2.322H613.3a7.632,7.632,0,0,1-1.5,1.325,8.67,8.67,0,0,0-.9-.839,1.965,1.965,0,0,0,.217-.121v-.012c-.9.425-1.766.814-2.39,1.094a.262.262,0,0,1-.18.243l-.577-1.592c.409-.134.925-.329,1.489-.535v-3.54h-1.236V13.167h1.236V10.613l1.645.1c-.011.122-.1.183-.3.219v2.238h1.1v1.374h-1.1v3l1.008-.4c.012.024.012.049.216.984a6.445,6.445,0,0,0,1.057-1.361h-1.429V15.539h7.722Zm-.841-1.715H612.8V10.9h5.74Zm-1.333-3.138h-3.122V12.5h3.122Zm0,1.544h-3.122v.584h3.122Zm0,5.06a10.484,10.484,0,0,1-1.093,2.4,7.967,7.967,0,0,0,.829.037.376.376,0,0,0,.348-.147,5.181,5.181,0,0,0,.444-2.286Z" fill="#32190e"/><path d="M628.861,14.724c-.036.134-.071.267-.1.4a3.107,3.107,0,0,1,2.51,3.077c0,1.947-1.441,3.26-4.527,3.649a5.655,5.655,0,0,0-.624-1.229c2.161-.243,3.578-.972,3.578-2.383a1.824,1.824,0,0,0-1.429-1.776A9.007,9.007,0,0,1,626,19.624a2.7,2.7,0,0,0,.168.414l-1.236.8a2.831,2.831,0,0,1-.168-.4,3.964,3.964,0,0,1-1.934.558,1.659,1.659,0,0,1-1.753-1.811c0-1.679,1.273-3,2.978-3.709-.024-.524-.024-1.059-.024-1.618-.9.024-1.873.048-2.354.037l-.072-1.423c.553.012,1.561.012,2.45.012.024-.523.036-1.131.06-1.642L626,10.99c-.024.122-.12.219-.324.244-.036.352-.06.814-.1,1.2a27.467,27.467,0,0,0,4.287-.511L630,13.4a33.233,33.233,0,0,1-4.491.414c-.012.425-.024.839-.024,1.24a6.727,6.727,0,0,1,1.8-.158,2.919,2.919,0,0,0,.1-.547ZM624.406,19.1a17.825,17.825,0,0,1-.276-2.226,2.488,2.488,0,0,0-1.6,2.031c0,.693.516.668.672.657a2.414,2.414,0,0,0,1.2-.462m2.426-2.883a4.718,4.718,0,0,0-1.333.171,15.477,15.477,0,0,0,.156,1.653,6.383,6.383,0,0,0,1.177-1.824" fill="#32190e"/><path d="M634.224,17.849a11.905,11.905,0,0,1-.324-2.638,23,23,0,0,1,.348-3.7l1.873.255a.338.338,0,0,1-.3.22,14.655,14.655,0,0,0-.42,3.441,13.436,13.436,0,0,1,.9-1.654,6.971,6.971,0,0,0,.685.973,6.649,6.649,0,0,0-1.3,2.566,1.38,1.38,0,0,0,.036.292Zm6.905-6.652c-.012.146-.108.231-.3.292.1.961.2,2.578.2,4.123-.012,2.347-.757,4.561-4.575,6.153a9.071,9.071,0,0,0-1.081-1.215c3.29-1.29,3.987-3.26,3.987-4.914a40.382,40.382,0,0,0-.289-4.524Z" fill="#32190e"/><path d="M264.5,14.7V6.544L273.282.436h8.056V32.282h-8.056V8.594h-.046Z" fill="#32190e"/><path d="M299.953,0c4.461,0,7.784,1.265,9.923,3.839,2.184,2.574,3.277,6.718,3.277,12.521s-1.093,9.946-3.277,12.52c-2.139,2.573-5.462,3.839-9.923,3.839s-7.783-1.266-9.968-3.839c-2.139-2.574-3.232-6.719-3.232-12.52s1.093-9.947,3.232-12.521C292.17,1.265,295.493,0,299.953,0m0,27.091a4.224,4.224,0,0,0,4.005-2.4c.866-1.615,1.321-4.363,1.321-8.332s-.455-6.719-1.321-8.333a4.225,4.225,0,0,0-4.005-2.4,4.291,4.291,0,0,0-4.051,2.4c-.865,1.614-1.275,4.363-1.275,8.333s.41,6.717,1.275,8.332a4.29,4.29,0,0,0,4.051,2.4" fill="#32190e"/><path d="M325.513,15.892h-7.926v-7.6h7.926Zm0,15.078h-7.926v-7.6h7.926Z" fill="#32190e"/><path d="M344.183,0c4.461,0,7.783,1.265,9.923,3.839,2.184,2.574,3.277,6.718,3.277,12.521s-1.093,9.946-3.277,12.52c-2.14,2.573-5.462,3.839-9.923,3.839s-7.783-1.266-9.968-3.839c-2.139-2.574-3.232-6.719-3.232-12.52s1.093-9.947,3.232-12.521C336.4,1.265,339.723,0,344.183,0m0,27.091a4.224,4.224,0,0,0,4-2.4c.865-1.615,1.321-4.363,1.321-8.332s-.456-6.719-1.321-8.333a4.225,4.225,0,0,0-4-2.4,4.291,4.291,0,0,0-4.051,2.4c-.865,1.614-1.274,4.363-1.274,8.333s.409,6.717,1.274,8.332a4.291,4.291,0,0,0,4.051,2.4" fill="#32190e"/><path d="M374.085,0c4.461,0,7.784,1.265,9.923,3.839,2.184,2.574,3.277,6.718,3.277,12.521s-1.093,9.946-3.277,12.52c-2.139,2.573-5.462,3.839-9.923,3.839s-7.783-1.266-9.968-3.839c-2.139-2.574-3.232-6.719-3.232-12.52s1.093-9.947,3.232-12.521C366.3,1.265,369.625,0,374.085,0m0,27.091a4.224,4.224,0,0,0,4.005-2.4c.866-1.615,1.321-4.363,1.321-8.332s-.455-6.719-1.321-8.333a4.225,4.225,0,0,0-4.005-2.4,4.291,4.291,0,0,0-4.051,2.4c-.865,1.614-1.275,4.363-1.275,8.333s.41,6.717,1.275,8.332a4.29,4.29,0,0,0,4.051,2.4" fill="#32190e"/><path d="M413.336,19.037a11.619,11.619,0,0,0,2.616-2.424l3.5,3.044a10.068,10.068,0,0,1-8.464,4.453,10.789,10.789,0,0,1-6.73-2.4,6.311,6.311,0,0,0-3.732-1.579,4.568,4.568,0,0,0-2.41.676,12.662,12.662,0,0,0-2.645,2.453l-3.409-3.1a10.066,10.066,0,0,1,8.464-4.452,10.789,10.789,0,0,1,6.73,2.4,6.316,6.316,0,0,0,3.732,1.578,4.52,4.52,0,0,0,2.351-.648" fill="#32190e"/><path d="M422.632,14.7V6.544L431.417.436h8.056V32.282h-8.056V8.594h-.046Z" fill="#32190e"/><path d="M466.19,21.463q0,11.256-13.928,11.256a29.324,29.324,0,0,1-8.649-1.222V25.215a26.189,26.189,0,0,0,8.33,1.614q6.691,0,6.691-5.366c0-2.923-1.5-4.362-4.551-4.362a6.258,6.258,0,0,0-3.96,1.658h-6.6l.91-18.322h20.255V6.413H451.4l-.319,5.933h.137a11.623,11.623,0,0,1,4.37-.872c6.781,0,10.605,3.577,10.605,9.989" fill="#32190e"/><path d="M478.961,15.892h-7.926v-7.6h7.926Zm0,15.078h-7.926v-7.6h7.926Z" fill="#32190e"/><path d="M496.8,0c4.461,0,7.784,1.265,9.923,3.839C508.9,6.413,510,10.557,510,16.36s-1.093,9.946-3.277,12.52c-2.139,2.573-5.462,3.839-9.923,3.839s-7.783-1.266-9.968-3.839c-2.139-2.574-3.232-6.719-3.232-12.52s1.093-9.947,3.232-12.521C489.013,1.265,492.336,0,496.8,0m0,27.091a4.224,4.224,0,0,0,4.005-2.4c.866-1.615,1.321-4.363,1.321-8.332s-.455-6.719-1.321-8.333a4.225,4.225,0,0,0-4.005-2.4,4.291,4.291,0,0,0-4.051,2.4c-.865,1.614-1.275,4.363-1.275,8.333s.41,6.717,1.275,8.332a4.29,4.29,0,0,0,4.051,2.4" fill="#32190e"/><path d="M527.289,0c4.461,0,7.783,1.265,9.923,3.839,2.184,2.574,3.277,6.718,3.277,12.521s-1.093,9.946-3.277,12.52c-2.14,2.573-5.462,3.839-9.923,3.839s-7.783-1.266-9.968-3.839c-2.139-2.574-3.232-6.719-3.232-12.52s1.093-9.947,3.232-12.521C519.506,1.265,522.829,0,527.289,0m0,27.091a4.224,4.224,0,0,0,4.005-2.4c.865-1.615,1.321-4.363,1.321-8.332s-.456-6.719-1.321-8.333a4.225,4.225,0,0,0-4.005-2.4,4.291,4.291,0,0,0-4.051,2.4c-.865,1.614-1.274,4.363-1.274,8.333s.409,6.717,1.274,8.332a4.291,4.291,0,0,0,4.051,2.4" fill="#32190e"/><path d="M269.68,59.054c-1.522-1.548-3.268-3.161-5.183-4.772l2.394-3.224a57.336,57.336,0,0,1,5.183,4.646Zm4.028-.474.309-2.813-2.844-2.053a34.169,34.169,0,0,0,4.14-10.176l4.028.7c-.169.821-.282,1.327-.366,1.611h11.774v3.887H277.764c-.253.695-.479,1.2-.592,1.549h12.986l-.507,7.3h1.633v3.887h-1.915c-.028.473-.113,1.169-.2,1.991L289,66.227h1.465V69.8h-1.859c0,.032-.029.127-.029.158-.253,2.37-1.154,3.1-3.577,3.1-.873,0-1.69,0-2.45-.032l-.2-3.223h-6.2a15.63,15.63,0,0,1-.281,1.58l-3.972-.284c.535-3.1.986-5.973,1.324-8.627h-.873a40.817,40.817,0,0,1-3.8,9.891l-3.464-2.465a49.537,49.537,0,0,0,3.886-9.86l2.817,1.17V58.58Zm-5.662-14.347a54.6,54.6,0,0,1,4.648,4.076l-2.394,3.35a57.866,57.866,0,0,0-4.648-4.2Zm8.648,21.994h2.394c.112-.822.253-2.054.45-3.76H277.2c-.028.411-.14,1.074-.253,1.9Zm3.267-7.647c.056-.979.254-2.718.31-3.634h-2.225c-.057.663-.2,1.864-.395,3.634Zm5.07,7.647.338-3.76H283c-.2,1.706-.31,2.938-.423,3.76Zm.648-7.647.253-3.634h-2.169c-.056.916-.253,2.655-.337,3.634Z" fill="#1a1311"/><path d="M309.122,65.352l2.148-2.382,1.206,1.323a8.788,8.788,0,0,0,1.126-4.234,8.375,8.375,0,0,0-2.567-6.351,6.989,6.989,0,0,0-6.105-1.648,7.526,7.526,0,0,0-5.135,3.56,7.987,7.987,0,0,0-.812,6.556A2.576,2.576,0,0,0,300.948,64a2.816,2.816,0,0,0,2.358-.97c1.441-1.382,2.2-4.058,2.122-7.469l4.4-.176c.131,4.852-1.205,8.822-3.694,11.262A6.536,6.536,0,0,1,295,64.087a13.391,13.391,0,0,1,1.153-11.114,11.817,11.817,0,0,1,8.1-5.587,11.332,11.332,0,0,1,9.484,2.558,13.317,13.317,0,0,1,4.244,10.2A12.647,12.647,0,0,1,313.418,70Z" fill="#1a1311"/><path d="M323.4,71.378c0,.032-.029.158-.029.191l-2.2-.949a63.8,63.8,0,0,0,.817-8.058l.253.032v-.032l2,.379a67.04,67.04,0,0,1-.816,8.469Zm6.14-4.045V67.3l-.169.031c-.113-1.232-.31-2.718-.563-4.455l.084-.032v-.063l1.521-.285c.254,1.454.451,2.561.536,3.382V61.9h-8.366V44.738H334.3V48.5h-2.423v1.516h2.113V52.8h-2.113v1.517h2.113v2.75h-2.113v1.58h2.45v3.507c0,2.244-.027,3.95-.112,5.12.817-3.224,1.211-8.28,1.211-15.075V44.9h11.267V59.023h-2.366a30.137,30.137,0,0,0,3.409,10.807l-3.24,2.813a21.354,21.354,0,0,1-2.338-5.594,50.216,50.216,0,0,1-1.577-8.026h-1.352A45.323,45.323,0,0,1,336.8,72.611L333.791,70.3c-.394,1.644-1.1,2.055-2.507,2.055-.76,0-1.746-.064-2.985-.191l-.141-3.191-.9.189q-.085-1.042-.592-6.162l.113-.031v-.032l1.662-.347q.549,4.075.675,5.688c.733.032,1.155.063,1.3.063.282,0,.423,0,.479-1.264Zm-2.845,3.129v.158l-1.944.316c-.028-1.138-.112-3.76-.281-7.932l1.8-.315v.031l.112-.031c.226,3.255.366,5.845.451,7.742Zm-.113-20.447h1.69V48.5h-1.69Zm0,4.3h1.69V52.8h-1.69Zm0,4.33h1.69v-1.58h-1.69Zm12.7-3.666h3.437V49.036h-3.437Z" fill="#1a1311"/><path d="M357.384,44.417H361.9v7.229a10.835,10.835,0,0,1,5.206-1.42,9.107,9.107,0,0,1,8.456,5.681,13.245,13.245,0,0,1,.892,7.2,14.938,14.938,0,0,1-4.89,8.907l-3.221-3.646c2.876-2.486,4.831-7.294,2.934-10.715-2.1-3.808-6.616-2.582-9.377-.29l.029,14.522h-4.516V62.749a45.994,45.994,0,0,0-2.56,5.9l-4.228-1.678a31.357,31.357,0,0,1,6.788-11.941l-.029-1.452a9.751,9.751,0,0,0-4.343,1.258l-2.646-5.422,2.934-1.581.661,1.42a10.446,10.446,0,0,1,3.394-.517Z" fill="#1a1311"/><path d="M391.721,71.268c-2.157-1.291-3.192-3.938-3.6-6.52l-3.883.517-2.416,6.842-4.2-1.807,7.853-22.527-2.157-.936,1.15-3.291,6.414,2.743L386.113,60.1l6.471-.774a15.781,15.781,0,0,0,.259,5.905c.431,1.291,1.438,2.292,2.617,1.84,2.589-.936,2.819-6.358,2.991-8.94l4.574.194c-.259,4.292-.834,9.327-4,12.231a6.154,6.154,0,0,1-7.306.71" fill="#1a1311"/><path d="M424.823,70.88a24.1,24.1,0,0,1-8.025,1.55,16.7,16.7,0,0,1-3.854-.485,8.533,8.533,0,0,1-6.357-9.391,10.516,10.516,0,0,1,3.538-6.422,24.077,24.077,0,0,1-2.444-9.811l-.087-2.453,4.545-.194.086,2.486a18.361,18.361,0,0,0,1.726,7.261,39.207,39.207,0,0,1,6.1-2.583l-.517-2.226,3.077-.968,1.525,6.778c-1.841.742-3.337,1.258-4.631,1.806A24.673,24.673,0,0,0,415.677,58c-2.417,1.388-4.344,3.162-4.631,5.292a3.728,3.728,0,0,0,2.9,3.841c2.56.71,5.925.29,9.75-1.1Zm-.633-19.332-.862-4.808,2.761-.614.863,4.712Zm3.452-1.613-.892-4.744,2.79-.71.863,4.873Z" fill="#1a1311"/><path d="M454.252,51.716H439.125V71.824h-4.193V47.81H442.8c.411-1.321.8-2.705,1.178-4.057l4.385.552-1.041,3.505h11.126V66.29c0,.953-.027,1.66-.055,2.213a4.893,4.893,0,0,1-.6,2.43,1.863,1.863,0,0,1-.822.522,6.9,6.9,0,0,1-2.85.338c-.164,0-1.754-.061-4.686-.184l-.247-3.936c2.357.093,3.673.154,3.974.154,1.042,0,1.1-.061,1.1-1.23Zm-1.918,2.4V64.968h-7.427V67.4h-3.864V54.115Zm-3.864,3.32h-3.563v4.212h3.563Z" fill="#1a1311"/><path d="M478.338,71.978l-6.467-2.429,1.013-3.2,2.522.983c.986-3.044,1.452-6.425-.137-8.578a5.243,5.243,0,0,0-2.111-1.691l-4.3,14.205-4.193-1.6,4.193-13.313a22.584,22.584,0,0,0-6.331,1.014l-.986-4.551a22.345,22.345,0,0,1,8.715-1.137l2.055-7.195,4.111,1.353L474.474,52.7a10.988,10.988,0,0,1,4.44,3.168c1.562,2.122,1.863,4.981,1.616,7.686a30.563,30.563,0,0,1-2.192,8.425m4.6-11.376a11.187,11.187,0,0,0-4.686-9.532l2.11-4.151A16.183,16.183,0,0,1,487.217,60.6Z" fill="#1a1311"/><path d="M503.246,64.106l-2.412,7.011-2.083-.861c-7.427-3.106-8.934-10.024-8.934-19.464V48.333h4.44v2.459c0,9.81,1.863,12.853,5.207,14.514l.849-2.4Zm11.181-.983H509.96v-2.43c0-3.505-.9-5.841-2.6-7.224l-.793,2.029-2.85-1.322,2.658-6.7,2.22,1.138c2.685,1.414,5.837,4.8,5.837,12.083Z" fill="#1a1311"/><path d="M522.358,57.189a91.164,91.164,0,0,0,1.127-11.819l3.012.284c0,1.391-.056,2.434-.085,3.16H527V44.138h4.082v4.676H533.2V52.48h5.18V50.205h-4.786V46.412h4.786V43.505h4.42v2.907h4.87v3.793H542.8V52.48h5.771V56.4h-2.223V58.39h2.223v3.918h-2.223v4.361c0,.98-.029,1.739-.057,2.276a4.82,4.82,0,0,1-.7,2.559,2.291,2.291,0,0,1-.929.537,9.744,9.744,0,0,1-3.294.317c-.534,0-1.66-.064-3.378-.158l-.2-3.6-1.1,1.011c-1.38-1.8-2.674-3.413-3.857-4.74l2.675-2.56h-2.731v-.979l-1.689.537V72.453H527V63c-1.323.317-2.647.57-4,.823l-.366-4.014c1.52-.284,2.984-.6,4.364-.948V52.827h-.9c-.141,1.644-.394,3.414-.7,5.278Zm10.417-4.362h-1.689v4.9c.507-.158,1.239-.379,2.252-.7l.056,1.359h8.643V56.4h-9.262Zm9.262,9.481h-6.081c1.239,1.391,2.449,2.907,3.688,4.551L538.1,68.281c1.238.094,2.083.158,2.449.158a3.007,3.007,0,0,0,1.3-.158c.141-.126.2-.506.2-1.169Z" fill="#1a1311"/><path d="M564.566,53.3H553.728V49.446h10.838Zm-.759,1.548v2.845h-9.122V54.282h9.093a5.98,5.98,0,0,0,1.8-2.813,18.9,18.9,0,0,0,.507-4.9V44.833h9.431v6.92c0,.442.028.475.45.475a.589.589,0,0,0,.648-.475,23.244,23.244,0,0,0,.282-3.191l3.012.505-.085,2.307c-.028.442-.112,1.011-.2,1.644-.2,1.233-.168,1.422-.7,2.023a1.67,1.67,0,0,1-.591.537c-.141.031-.478.126-.985.22a6.014,6.014,0,0,1-1.239.127h-1.717a4.012,4.012,0,0,1-2.168-.38c-.338-.252-.507-.79-.507-1.642V48.688h-1.97v.063c0,3.666-.986,6.384-3.013,8.185h11.487v3.919h-.029a19.678,19.678,0,0,1-3.209,5.277,24.154,24.154,0,0,0,4.871,2.149L578.5,72.326a24.013,24.013,0,0,1-6.841-3.223,25.792,25.792,0,0,1-6.334,3.223l-1.38-3.223v2.465h-5.771V72.61H554.4V63h9.543v5.278a20.081,20.081,0,0,0,4.336-1.928,19.392,19.392,0,0,1-2.984-3.728l2.308-1.77h-2.73V56.936h1.238Zm.028-6.32H554.4V44.99h9.431Zm-.028,13.525h-9.122V58.643h9.122Zm-3.181,4.236h-2.449v1.99h2.449Zm13.231-5.436H568.79a18.116,18.116,0,0,0,2.815,2.938,14.185,14.185,0,0,0,2.252-2.938" fill="#1a1311"/><path d="M605.4,56.367h-15.54V54.281a38.27,38.27,0,0,1-4.054,2.5l-1.6-4.013a43.81,43.81,0,0,0,10.614-8.532h5.631a43.8,43.8,0,0,0,10.613,8.532l-1.6,4.013a38.264,38.264,0,0,1-4.054-2.5Zm-19.763,6.1V58.452h23.986v4.014h-3.491c1.323,3.034,2.59,6.036,3.773,9.038l-3.885,1.453-1.07-2.718c-6.644.854-12.725,1.36-18.3,1.518l-.254-4.014,3.913-.189c.7-1.391,1.465-3.066,2.337-5.088ZM603,52.48a44.2,44.2,0,0,1-5.377-5.151,44.131,44.131,0,0,1-5.377,5.151Zm-.225,12.609c-.253-.664-.422-1.106-.563-1.422l3.012-1.2h-7.91c-.563,1.549-1.268,3.1-2.027,4.74,3.631-.253,6.334-.506,8.108-.726-.141-.286-.338-.728-.62-1.391" fill="#1a1311"/><path d="M633.359,72.294l-.169-3.1a22.565,22.565,0,0,1-3.885,3.665L627,70.366a22.959,22.959,0,0,0,6.081-6.415H631.7a26.844,26.844,0,0,1-8.249,7.2l-2.055-2.623a23.727,23.727,0,0,0,6.222-4.582H625.87c-.619.474-1.1.854-1.464,1.075l.085,1.043a39.757,39.757,0,0,1-8.643,3.539l-.479-4.235,2.309-.537v-8.09h-2.2V52.8h2.2V44.642h4.166V52.8h2.562v-8.09h15.456V55.767H624.519v.916h16.61v3.223H629.812l-.788.98h11.485v2.939c0,7.647-.647,8.5-3.744,8.627-.676.032-1.8-.063-3.406-.158M623.337,59.906v-3.16h-1.493V62.94a20.25,20.25,0,0,0,3.97-3.034Zm12.105-11.5h-6.9v1.169h6.9Zm0,3.477h-6.9v1.232h6.9ZM636.568,64.3a24.776,24.776,0,0,1-2.843,4.3c.732.063,1.323.1,1.8.1.9-.1,1.042-.253,1.042-4.077Z" fill="#1a1311"/><path d="M269.68,59.054c-1.522-1.548-3.268-3.161-5.183-4.772l2.394-3.224a57.336,57.336,0,0,1,5.183,4.646Zm4.028-.474.309-2.813-2.844-2.053a34.169,34.169,0,0,0,4.14-10.176l4.028.7c-.169.821-.282,1.327-.366,1.611h11.774v3.887H277.764c-.253.695-.479,1.2-.592,1.549h12.986l-.507,7.3h1.633v3.887h-1.915c-.028.473-.113,1.169-.2,1.991L289,66.227h1.465V69.8h-1.859c0,.032-.029.127-.029.158-.253,2.37-1.154,3.1-3.577,3.1-.873,0-1.69,0-2.45-.032l-.2-3.223h-6.2a15.63,15.63,0,0,1-.281,1.58l-3.972-.284c.535-3.1.986-5.973,1.324-8.627h-.873a40.817,40.817,0,0,1-3.8,9.891l-3.464-2.465a49.537,49.537,0,0,0,3.886-9.86l2.817,1.17V58.58Zm-5.662-14.347a54.6,54.6,0,0,1,4.648,4.076l-2.394,3.35a57.866,57.866,0,0,0-4.648-4.2Zm8.648,21.994h2.394c.112-.822.253-2.054.45-3.76H277.2c-.028.411-.14,1.074-.253,1.9Zm3.267-7.647c.056-.979.254-2.718.31-3.634h-2.225c-.057.663-.2,1.864-.395,3.634Zm5.07,7.647.338-3.76H283c-.2,1.706-.31,2.938-.423,3.76Zm.648-7.647.253-3.634h-2.169c-.056.916-.253,2.655-.337,3.634Z" fill="#32190e"/><path d="M309.122,65.352l2.148-2.382,1.206,1.323a8.788,8.788,0,0,0,1.126-4.234,8.375,8.375,0,0,0-2.567-6.351,6.989,6.989,0,0,0-6.105-1.648,7.526,7.526,0,0,0-5.135,3.56,7.987,7.987,0,0,0-.812,6.556A2.576,2.576,0,0,0,300.948,64a2.816,2.816,0,0,0,2.358-.97c1.441-1.382,2.2-4.058,2.122-7.469l4.4-.176c.131,4.852-1.205,8.822-3.694,11.262A6.536,6.536,0,0,1,295,64.087a13.391,13.391,0,0,1,1.153-11.114,11.817,11.817,0,0,1,8.1-5.587,11.332,11.332,0,0,1,9.484,2.558,13.317,13.317,0,0,1,4.244,10.2A12.647,12.647,0,0,1,313.418,70Z" fill="#32190e"/><path d="M323.4,71.378c0,.032-.029.158-.029.191l-2.2-.949a63.8,63.8,0,0,0,.817-8.058l.253.032v-.032l2,.379a67.04,67.04,0,0,1-.816,8.469Zm6.14-4.045V67.3l-.169.031c-.113-1.232-.31-2.718-.563-4.455l.084-.032v-.063l1.521-.285c.254,1.454.451,2.561.536,3.382V61.9h-8.366V44.738H334.3V48.5h-2.423v1.516h2.113V52.8h-2.113v1.517h2.113v2.75h-2.113v1.58h2.45v3.507c0,2.244-.027,3.95-.112,5.12.817-3.224,1.211-8.28,1.211-15.075V44.9h11.267V59.023h-2.366a30.137,30.137,0,0,0,3.409,10.807l-3.24,2.813a21.354,21.354,0,0,1-2.338-5.594,50.216,50.216,0,0,1-1.577-8.026h-1.352A45.323,45.323,0,0,1,336.8,72.611L333.791,70.3c-.394,1.644-1.1,2.055-2.507,2.055-.76,0-1.746-.064-2.985-.191l-.141-3.191-.9.189q-.085-1.042-.592-6.162l.113-.031v-.032l1.662-.347q.549,4.075.675,5.688c.733.032,1.155.063,1.3.063.282,0,.423,0,.479-1.264Zm-2.845,3.129v.158l-1.944.316c-.028-1.138-.112-3.76-.281-7.932l1.8-.315v.031l.112-.031c.226,3.255.366,5.845.451,7.742Zm-.113-20.447h1.69V48.5h-1.69Zm0,4.3h1.69V52.8h-1.69Zm0,4.33h1.69v-1.58h-1.69Zm12.7-3.666h3.437V49.036h-3.437Z" fill="#32190e"/><path d="M357.384,44.417H361.9v7.229a10.835,10.835,0,0,1,5.206-1.42,9.107,9.107,0,0,1,8.456,5.681,13.245,13.245,0,0,1,.892,7.2,14.938,14.938,0,0,1-4.89,8.907l-3.221-3.646c2.876-2.486,4.831-7.294,2.934-10.715-2.1-3.808-6.616-2.582-9.377-.29l.029,14.522h-4.516V62.749a45.994,45.994,0,0,0-2.56,5.9l-4.228-1.678a31.357,31.357,0,0,1,6.788-11.941l-.029-1.452a9.751,9.751,0,0,0-4.343,1.258l-2.646-5.422,2.934-1.581.661,1.42a10.446,10.446,0,0,1,3.394-.517Z" fill="#32190e"/><path d="M391.721,71.268c-2.157-1.291-3.192-3.938-3.6-6.52l-3.883.517-2.416,6.842-4.2-1.807,7.853-22.527-2.157-.936,1.15-3.291,6.414,2.743L386.113,60.1l6.471-.774a15.781,15.781,0,0,0,.259,5.905c.431,1.291,1.438,2.292,2.617,1.84,2.589-.936,2.819-6.358,2.991-8.94l4.574.194c-.259,4.292-.834,9.327-4,12.231a6.154,6.154,0,0,1-7.306.71" fill="#32190e"/><path d="M424.823,70.88a24.1,24.1,0,0,1-8.025,1.55,16.7,16.7,0,0,1-3.854-.485,8.533,8.533,0,0,1-6.357-9.391,10.516,10.516,0,0,1,3.538-6.422,24.077,24.077,0,0,1-2.444-9.811l-.087-2.453,4.545-.194.086,2.486a18.361,18.361,0,0,0,1.726,7.261,39.207,39.207,0,0,1,6.1-2.583l-.517-2.226,3.077-.968,1.525,6.778c-1.841.742-3.337,1.258-4.631,1.806A24.673,24.673,0,0,0,415.677,58c-2.417,1.388-4.344,3.162-4.631,5.292a3.728,3.728,0,0,0,2.9,3.841c2.56.71,5.925.29,9.75-1.1Zm-.633-19.332-.862-4.808,2.761-.614.863,4.712Zm3.452-1.613-.892-4.744,2.79-.71.863,4.873Z" fill="#32190e"/><path d="M454.252,51.716H439.125V71.824h-4.193V47.81H442.8c.411-1.321.8-2.705,1.178-4.057l4.385.552-1.041,3.505h11.126V66.29c0,.953-.027,1.66-.055,2.213a4.893,4.893,0,0,1-.6,2.43,1.863,1.863,0,0,1-.822.522,6.9,6.9,0,0,1-2.85.338c-.164,0-1.754-.061-4.686-.184l-.247-3.936c2.357.093,3.673.154,3.974.154,1.042,0,1.1-.061,1.1-1.23Zm-1.918,2.4V64.968h-7.427V67.4h-3.864V54.115Zm-3.864,3.32h-3.563v4.212h3.563Z" fill="#32190e"/><path d="M478.338,71.978l-6.467-2.429,1.013-3.2,2.522.983c.986-3.044,1.452-6.425-.137-8.578a5.243,5.243,0,0,0-2.111-1.691l-4.3,14.205-4.193-1.6,4.193-13.313a22.584,22.584,0,0,0-6.331,1.014l-.986-4.551a22.345,22.345,0,0,1,8.715-1.137l2.055-7.195,4.111,1.353L474.474,52.7a10.988,10.988,0,0,1,4.44,3.168c1.562,2.122,1.863,4.981,1.616,7.686a30.563,30.563,0,0,1-2.192,8.425m4.6-11.376a11.187,11.187,0,0,0-4.686-9.532l2.11-4.151A16.183,16.183,0,0,1,487.217,60.6Z" fill="#32190e"/><path d="M503.246,64.106l-2.412,7.011-2.083-.861c-7.427-3.106-8.934-10.024-8.934-19.464V48.333h4.44v2.459c0,9.81,1.863,12.853,5.207,14.514l.849-2.4Zm11.181-.983H509.96v-2.43c0-3.505-.9-5.841-2.6-7.224l-.793,2.029-2.85-1.322,2.658-6.7,2.22,1.138c2.685,1.414,5.837,4.8,5.837,12.083Z" fill="#32190e"/><path d="M522.358,57.189a91.164,91.164,0,0,0,1.127-11.819l3.012.284c0,1.391-.056,2.434-.085,3.16H527V44.138h4.082v4.676H533.2V52.48h5.18V50.205h-4.786V46.412h4.786V43.505h4.42v2.907h4.87v3.793H542.8V52.48h5.771V56.4h-2.223V58.39h2.223v3.918h-2.223v4.361c0,.98-.029,1.739-.057,2.276a4.82,4.82,0,0,1-.7,2.559,2.291,2.291,0,0,1-.929.537,9.744,9.744,0,0,1-3.294.317c-.534,0-1.66-.064-3.378-.158l-.2-3.6-1.1,1.011c-1.38-1.8-2.674-3.413-3.857-4.74l2.675-2.56h-2.731v-.979l-1.689.537V72.453H527V63c-1.323.317-2.647.57-4,.823l-.366-4.014c1.52-.284,2.984-.6,4.364-.948V52.827h-.9c-.141,1.644-.394,3.414-.7,5.278Zm10.417-4.362h-1.689v4.9c.507-.158,1.239-.379,2.252-.7l.056,1.359h8.643V56.4h-9.262Zm9.262,9.481h-6.081c1.239,1.391,2.449,2.907,3.688,4.551L538.1,68.281c1.238.094,2.083.158,2.449.158a3.007,3.007,0,0,0,1.3-.158c.141-.126.2-.506.2-1.169Z" fill="#32190e"/><path d="M564.566,53.3H553.728V49.446h10.838Zm-.759,1.548v2.845h-9.122V54.282h9.093a5.98,5.98,0,0,0,1.8-2.813,18.9,18.9,0,0,0,.507-4.9V44.833h9.431v6.92c0,.442.028.475.45.475a.589.589,0,0,0,.648-.475,23.244,23.244,0,0,0,.282-3.191l3.012.505-.085,2.307c-.028.442-.112,1.011-.2,1.644-.2,1.233-.168,1.422-.7,2.023a1.67,1.67,0,0,1-.591.537c-.141.031-.478.126-.985.22a6.014,6.014,0,0,1-1.239.127h-1.717a4.012,4.012,0,0,1-2.168-.38c-.338-.252-.507-.79-.507-1.642V48.688h-1.97v.063c0,3.666-.986,6.384-3.013,8.185h11.487v3.919h-.029a19.678,19.678,0,0,1-3.209,5.277,24.154,24.154,0,0,0,4.871,2.149L578.5,72.326a24.013,24.013,0,0,1-6.841-3.223,25.792,25.792,0,0,1-6.334,3.223l-1.38-3.223v2.465h-5.771V72.61H554.4V63h9.543v5.278a20.081,20.081,0,0,0,4.336-1.928,19.392,19.392,0,0,1-2.984-3.728l2.308-1.77h-2.73V56.936h1.238Zm.028-6.32H554.4V44.99h9.431Zm-.028,13.525h-9.122V58.643h9.122Zm-3.181,4.236h-2.449v1.99h2.449Zm13.231-5.436H568.79a18.116,18.116,0,0,0,2.815,2.938,14.185,14.185,0,0,0,2.252-2.938" fill="#32190e"/><path d="M605.4,56.367h-15.54V54.281a38.27,38.27,0,0,1-4.054,2.5l-1.6-4.013a43.81,43.81,0,0,0,10.614-8.532h5.631a43.8,43.8,0,0,0,10.613,8.532l-1.6,4.013a38.264,38.264,0,0,1-4.054-2.5Zm-19.763,6.1V58.452h23.986v4.014h-3.491c1.323,3.034,2.59,6.036,3.773,9.038l-3.885,1.453-1.07-2.718c-6.644.854-12.725,1.36-18.3,1.518l-.254-4.014,3.913-.189c.7-1.391,1.465-3.066,2.337-5.088ZM603,52.48a44.2,44.2,0,0,1-5.377-5.151,44.131,44.131,0,0,1-5.377,5.151Zm-.225,12.609c-.253-.664-.422-1.106-.563-1.422l3.012-1.2h-7.91c-.563,1.549-1.268,3.1-2.027,4.74,3.631-.253,6.334-.506,8.108-.726-.141-.286-.338-.728-.62-1.391" fill="#32190e"/><path d="M633.359,72.294l-.169-3.1a22.565,22.565,0,0,1-3.885,3.665L627,70.366a22.959,22.959,0,0,0,6.081-6.415H631.7a26.844,26.844,0,0,1-8.249,7.2l-2.055-2.623a23.727,23.727,0,0,0,6.222-4.582H625.87c-.619.474-1.1.854-1.464,1.075l.085,1.043a39.757,39.757,0,0,1-8.643,3.539l-.479-4.235,2.309-.537v-8.09h-2.2V52.8h2.2V44.642h4.166V52.8h2.562v-8.09h15.456V55.767H624.519v.916h16.61v3.223H629.812l-.788.98h11.485v2.939c0,7.647-.647,8.5-3.744,8.627-.676.032-1.8-.063-3.406-.158M623.337,59.906v-3.16h-1.493V62.94a20.25,20.25,0,0,0,3.97-3.034Zm12.105-11.5h-6.9v1.169h6.9Zm0,3.477h-6.9v1.232h6.9ZM636.568,64.3a24.776,24.776,0,0,1-2.843,4.3c.732.063,1.323.1,1.8.1.9-.1,1.042-.253,1.042-4.077Z" fill="#32190e"/><path d="M210.679,67.71a8.829,8.829,0,0,0,3.362.68c2.152,0,3.385-1.359,3.489-3.98l-.042-.023a4.643,4.643,0,0,1-3.112,1.03c-3.321,0-5.139-2.037-5.139-5.853a5.757,5.757,0,0,1,1.567-4.259,5.829,5.829,0,0,1,4.3-1.592c3.76,0,5.891,2.551,5.891,7.49q0,10.077-6.831,10.065a14.006,14.006,0,0,1-3.488-.468Zm1.963-8.216c0,2.154.9,3.254,2.465,3.254,1.525,0,2.465-1.17,2.465-3.254,0-1.755-1.024-2.9-2.465-2.9-1.525,0-2.465,1.1-2.465,2.9" fill="#32190e"/><path d="M227.891,59.962h-3.969V55.515h3.969Zm0,9.737h-3.969V65.252h3.969Z" fill="#32190e"/><path d="M237.582,60.922v.046h.271c2.424,0,4.011,1.8,4.011,4.682,0,3.627-2.047,5.618-5.744,5.618a12.845,12.845,0,0,1-4.534-.82V67.007a10.15,10.15,0,0,0,4.241,1.1,2.263,2.263,0,0,0,2.548-2.388,1.714,1.714,0,0,0-.814-1.615,6.521,6.521,0,0,0-2.987-.492h-1.045V60.944l3.865-3.745v-.046h-5.912V53.946h10.173v3.207Z" fill="#32190e"/><path d="M250.57,53.712a5.211,5.211,0,0,1,4.554,2.059c1,1.382,1.5,3.606,1.5,6.718s-.5,5.337-1.5,6.718a5.207,5.207,0,0,1-4.554,2.061,5.272,5.272,0,0,1-4.575-2.061c-.982-1.381-1.483-3.605-1.483-6.718s.5-5.336,1.483-6.718a5.275,5.275,0,0,1,4.575-2.059m0,14.536a1.925,1.925,0,0,0,1.838-1.288,11.678,11.678,0,0,0,.606-4.471,11.679,11.679,0,0,0-.606-4.47,1.925,1.925,0,0,0-1.838-1.288,1.951,1.951,0,0,0-1.859,1.288,11.775,11.775,0,0,0-.585,4.47,11.774,11.774,0,0,0,.585,4.471,1.951,1.951,0,0,0,1.859,1.288" fill="#32190e"/><path d="M197.562,47.506h-4.583v7.717h-2.6V41.06h7.179ZM195.506,42.9h-2.527v.709h2.527Zm0,2.288h-2.527v.692h2.527Zm7.476,7.88c.07-.049.1-.242.1-.565V47.506h-4.74V41.06h7.337V52.339c0,.484-.018.87-.035,1.128a2.154,2.154,0,0,1-.418,1.305,1.334,1.334,0,0,1-.541.258,6.588,6.588,0,0,1-1.934.162c-.592,0-1.2-.017-1.865-.065l-.034-.306h-2.179V52.162h-1.428a5.368,5.368,0,0,1-2.022,2.916L193.4,53.983a5.48,5.48,0,0,0,1.62-1.821h-1.341v-1.5h1.585v-.918h-1.377v-1.53h8.243v1.53h-1.22v.918h1.429v1.5h-1.429v.918c.645.049,1.115.065,1.412.065a1.555,1.555,0,0,0,.662-.08m-5.559-2.4h1.254v-.918h-1.254Zm2.962-7.057h2.7V42.9h-2.7Zm0,2.272h2.7v-.692h-2.7Z" fill="#32190e"/><path d="M201.152,70.977l-.1-1.578a13.34,13.34,0,0,1-2.4,1.869L197.213,70a13.066,13.066,0,0,0,3.764-3.272h-.854a13.909,13.909,0,0,1-2.335,2.063,15.506,15.506,0,0,1-2.77,1.611l-1.272-1.337a14.91,14.91,0,0,0,3.851-2.337h-1.081c-.383.242-.679.436-.906.549l.052.531a27.761,27.761,0,0,1-5.349,1.805l-.3-2.159,1.429-.275V63.049h-1.36V61.036h1.36V56.879h2.579v4.157h1.585V56.911h9.567V62.55h-9.5v.468h10.281v1.643h-7.005l-.488.5h7.109v1.5c0,3.9-.4,4.335-2.317,4.4-.418.017-1.115-.032-2.108-.081m-6.2-6.316V63.049h-.923v3.159a12.64,12.64,0,0,0,2.457-1.547Zm7.493-5.865h-4.27v.6h4.27Zm0,1.773h-4.27V61.2h4.27Zm.7,6.332a12.7,12.7,0,0,1-1.76,2.191c.453.033.819.049,1.115.049.558-.049.645-.129.645-2.079Z" fill="#32190e"/></g></g></svg>