<?xml version="1.0" encoding="UTF-8"?>
<svg id="_レイヤー_2" data-name="レイヤー 2" xmlns="http://www.w3.org/2000/svg" viewBox="0 0 24.28 48">
  <defs>
    <style>
      .cls-1 {
        fill: none;
        stroke: #736357;
        stroke-linecap: round;
        stroke-miterlimit: 10;
        stroke-width: .25px;
      }

      .cls-2 {
        fill: #fff;
      }

      .cls-3 {
        fill: #bfdbd2;
      }

      .cls-4 {
        fill: #b0c9dd;
      }
    </style>
  </defs>
  <g id="_オブジェ1" data-name="オブジェ1">
    <g>
      <path class="cls-3" d="M18.82,18.51s-.02-.08-.03-.11c-.83-3.09-4.43-7.51-6.54-10.06-1.76-2.12-2.3-4.82-2.44-5.76.26-.2.39-.38.36-.54l-.15-1.26c-.03-.26-.26-.44-.49-.39L.53,2.42c-.31.07-.49.43-.37.77l.35,1.03c.05.21.38.33.92.38.37,1.59.47,3.01.47,4.07,0,1.03-.18,2.06-.51,3.04C.11,15.52-.18,20.48.1,22.06c-.1,1.92,5.32,24.5,5.32,24.5.01.05.03.1.05.15,0,.04,0,.09.02.13.31,1.38,4.77,1.54,9.95.37,5.19-1.17,9.14-3.24,8.83-4.61,0-.04-.02-.09-.04-.13,0-.05-.01-.11-.02-.16l-5.38-23.81Z"/>
      <path class="cls-3" d="M9.95.46c.14.62-1.96,1.62-4.7,2.24-2.74.62-5.07.62-5.21,0C-.1,2.08,2,1.08,4.74.46c2.74-.62,5.07-.62,5.21,0Z"/>
      <path class="cls-2" d="M.73,25.79s9.47-.86,18.78-4.24l2.15,9.52s-8.83,4.44-18.78,4.24L.73,25.79Z"/>
      <g>
        <path class="cls-4" d="M4.33,30.09l.81,3.14c.01.07,0,.14-.05.19-.07.09-.18.15-.32.19-.17.04-.31.02-.41-.07-.04-.03-.06-.07-.07-.12l-.97-4.3c-.03-.13,0-.25.07-.36.09-.12.23-.2.41-.24.38-.09.62,0,.74.28l1.24,2.95-.14-3.19c0-.13.04-.25.12-.35.1-.11.23-.18.41-.22.21-.05.38-.03.52.07.09.06.15.15.18.27l.97,4.3c.02.07,0,.14-.05.2-.06.09-.17.14-.31.18-.15.03-.28.02-.38-.04-.06-.03-.1-.08-.11-.15l-.62-3.18.09,3.11c0,.06-.02.13-.05.19-.07.11-.18.19-.33.22-.18.04-.32,0-.43-.1-.03-.03-.06-.07-.08-.11l-1.25-2.85Z"/>
        <path class="cls-4" d="M8.84,28.15l-.46.1c-.09.02-.17.01-.25-.02-.1-.04-.16-.12-.19-.23-.03-.13,0-.24.11-.33.05-.04.1-.06.18-.08l1.95-.44c.09-.02.17-.02.24.01.1.04.17.12.2.23.03.13,0,.24-.11.33-.04.04-.1.07-.18.08l-.46.1.81,3.58.46-.1c.09-.02.17-.01.25.02.1.04.17.12.19.23.03.13,0,.24-.11.33-.05.04-.1.07-.18.08l-1.95.44c-.09.02-.17.02-.24-.01-.1-.04-.17-.12-.2-.23-.03-.13,0-.24.11-.33.05-.04.11-.07.18-.09l.46-.1-.81-3.58Z"/>
        <path class="cls-4" d="M12.91,26.8l.84,3.73c.02.1.09.13.21.11l1.65-.37c.11-.02.2-.02.29.02.12.05.19.14.22.27.04.16,0,.28-.13.39-.05.04-.11.07-.2.09l-2.03.46c-.54.12-.87-.03-.96-.47l-.9-4c-.03-.12.02-.22.14-.31.08-.06.18-.11.3-.13.14-.03.27-.03.38.01.11.04.18.11.2.2Z"/>
        <path class="cls-4" d="M17.67,28.93l.31,1.36c.02.08,0,.15-.04.22-.07.1-.2.18-.37.21-.21.05-.37.02-.47-.08-.03-.04-.06-.08-.07-.13l-1-4.41c-.02-.08,0-.16.05-.23.07-.1.19-.16.35-.2.19-.04.35-.02.46.07.05.04.08.09.09.15l.43,1.9.9-2.3c.07-.18.19-.29.38-.33.09-.02.18-.02.28,0,.19.03.29.11.32.24.01.06,0,.13-.03.21l-.78,1.82,1.84,2.06c.06.07.09.13.11.2.03.15-.03.28-.18.39-.07.05-.16.09-.25.11-.22.05-.4,0-.53-.17l-1.45-1.81-.34.73Z"/>
      </g>
      <path class="cls-2" d="M2.34,14.03c1.8-.03,7.07-1.57,9.18-2.02,1.74-.38,1.03-1.14.68-1.87-.73-1.48-2.27-4.1-2.95-6.65-.19-.72-.32-.53-.79-.34-1.22.48-4.05,1.24-5.43,1.4-.48.06-.54.12-.43.83.25,1.72.19,2.74.06,6.06-.03.78-.85,2.61-.31,2.6Z"/>
      <path class="cls-3" d="M2.12,4.67s4.4-.1,6.33-1.53"/>
      <path class="cls-1" d="M1.81,4.54s4.6.28,8-1.96"/>
      <path class="cls-1" d="M1.41,2.63s3.94.33,8.01-1.89"/>
    </g>
  </g>
</svg>