<?xml version="1.0" encoding="UTF-8"?>
<svg xmlns="http://www.w3.org/2000/svg" xmlns:xlink="http://www.w3.org/1999/xlink" viewBox="0 0 60.69 53.16">
  <defs>
    <style>
      .cls-1 {
        mix-blend-mode: multiply;
        opacity: .5;
      }

      .cls-1, .cls-2 {
        fill: #3e3a39;
      }

      .cls-3 {
        fill: #e3794f;
      }

      .cls-4 {
        fill: #fbc510;
      }

      .cls-5 {
        fill: #f29d81;
      }

      .cls-6 {
        fill: url(#linear-gradient);
      }

      .cls-7 {
        isolation: isolate;
      }

      .cls-8 {
        fill: #c9caca;
      }

      .cls-9 {
        fill: #fff;
      }

      .cls-10 {
        fill: #979698;
      }

      .cls-11 {
        fill: #9a9492;
      }

      .cls-12 {
        fill: #7c736f;
      }

      .cls-13 {
        fill: #fabe00;
      }

      .cls-14 {
        clip-path: url(#clippath);
      }

      .cls-15 {
        fill: none;
        stroke: #898989;
        stroke-width: .14px;
      }
    </style>
    <linearGradient id="linear-gradient" x1="130.28" y1="684.51" x2="130.28" y2="674.8" gradientTransform="translate(375.49 -583.21) rotate(39.14)" gradientUnits="userSpaceOnUse">
      <stop offset="0" stop-color="#facfb1"/>
      <stop offset="1" stop-color="#facfb1"/>
    </linearGradient>
    <clipPath id="clippath">
      <polygon class="cls-6" points="45.87 31.09 42.98 28.73 45.81 25.26 50.56 22.38 48.7 27.62 45.87 31.09"/>
    </clipPath>
  </defs>
  <g class="cls-7">
    <g id="_レイヤー_2" data-name="レイヤー 2">
      <g id="_オブジェ2" data-name="オブジェ2">
        <g>
          <g>
            <g>
              <path class="cls-11" d="M19.08,12.47h39.55c.61,0,1.1.49,1.1,1.1v29.66c0,.61-.49,1.1-1.1,1.1H19.08c-.61,0-1.1-.49-1.1-1.1V13.57c0-.61.49-1.1,1.1-1.1Z" transform="translate(-1.19 55.09) rotate(-69.85)"/>
              <g>
                <polygon class="cls-9" points="32.4 6.13 19.53 41.2 42.74 49.71 43.68 47.13 46.26 48.08 58.18 15.59 32.4 6.13"/>
                <polyline class="cls-8" points="46.26 48.08 43.68 47.13 42.74 49.71"/>
              </g>
              <g>
                <rect class="cls-2" x="43.6" y="1.92" width="4.04" height="16.09" transform="translate(20.55 49.36) rotate(-69.85)"/>
                <rect class="cls-1" x="44.5" y="3.21" width="1.29" height="16.09" transform="translate(19.03 49.76) rotate(-69.85)"/>
                <path class="cls-2" d="M49.07,9.45c-.36.98-1.72.69-3.3.11-1.58-.58-2.8-1.24-2.44-2.22s2.18-1.94,3.76-1.36c1.58.58,2.35,2.48,1.99,3.47Z"/>
              </g>
              <line class="cls-15" x1="43.36" y1="46.43" x2="23.76" y2="39.24"/>
              <line class="cls-15" x1="44.3" y1="43.85" x2="24.71" y2="36.66"/>
              <line class="cls-15" x1="45.25" y1="41.27" x2="25.65" y2="34.08"/>
              <line class="cls-15" x1="46.19" y1="38.69" x2="26.6" y2="31.5"/>
              <line class="cls-15" x1="47.14" y1="36.12" x2="27.55" y2="28.93"/>
              <line class="cls-15" x1="48.09" y1="33.54" x2="28.49" y2="26.35"/>
              <line class="cls-15" x1="49.03" y1="30.96" x2="29.44" y2="23.77"/>
              <line class="cls-15" x1="49.98" y1="28.38" x2="30.38" y2="21.19"/>
              <line class="cls-15" x1="50.92" y1="25.8" x2="31.33" y2="18.61"/>
              <line class="cls-15" x1="51.87" y1="23.23" x2="32.28" y2="16.03"/>
              <line class="cls-15" x1="52.82" y1="20.65" x2="33.22" y2="13.46"/>
              <line class="cls-15" x1="41.21" y1="13.46" x2="34.17" y2="10.88"/>
              <path class="cls-1" d="M47.18,8.05c-.15.42-.62.63-1.04.48s-.63-.62-.48-1.04.62-.63,1.04-.48.63.62.48,1.04Z"/>
            </g>
            <g>
              <polygon class="cls-5" points="45.48 30.59 45.89 29.1 44.39 29.96 44.93 28.31 43.55 29.02 44.22 27.21 38.34 34.43 30.68 43.85 31.13 45.26 31.61 45.65 32.1 46.04 33.57 46.2 41.23 36.79 47.11 29.57 45.48 30.59"/>
              <g>
                <polygon class="cls-6" points="45.87 31.09 42.98 28.73 45.81 25.26 50.56 22.38 48.7 27.62 45.87 31.09"/>
                <g class="cls-14">
                  <path class="cls-2" d="M50.04,24.49c-.93.26-1.51-.21-1.45-1.18l1.79-2.2,1.45,1.18c-.6.73-1.19,1.46-1.79,2.2Z"/>
                </g>
              </g>
              <polyline class="cls-2" points="32.97 41.03 31.13 43.29 31.59 44.7 32.07 45.09 32.55 45.49 34.03 45.64 35.86 43.39"/>
              <g>
                <polygon class="cls-4" points="32.72 43.31 32.27 41.89 39.93 32.48 45.81 25.26 45.14 27.07 46.52 26.36 40.64 33.58 32.72 43.31"/>
                <polygon class="cls-13" points="33.69 44.09 33.2 43.7 32.72 43.31 40.64 33.58 46.52 26.36 45.98 28.01 47.48 27.14 41.6 34.36 33.69 44.09"/>
                <polygon class="cls-4" points="35.16 44.25 33.69 44.09 41.6 34.36 47.48 27.14 47.07 28.64 48.7 27.62 42.82 34.83 35.16 44.25"/>
              </g>
            </g>
          </g>
          <g>
            <g>
              <g>
                <path class="cls-12" d="M21.58,0H4.2C1.88,0,0,1.88,0,4.2v40.22c0,2.32,1.88,4.2,4.2,4.2h17.38c2.32,0,4.2-1.88,4.2-4.2V4.2c0-2.32-1.88-4.2-4.2-4.2ZM20.34,1.8c-.3.72-1,1.2-1.79,1.2H7.23c-.78,0-1.49-.47-1.79-1.2L4.74.08h16.31l-.71,1.72Z"/>
                <path class="cls-12" d="M21.05.08l-.71,1.72c-.3.72-1,1.2-1.79,1.2H7.23c-.78,0-1.49-.47-1.79-1.2L4.74.08h16.31Z"/>
              </g>
              <rect class="cls-9" x="1.18" y="1.54" width="23.43" height="45.55" rx="2.68" ry="2.68"/>
              <path class="cls-12" d="M21.05.08l-.71,1.72c-.3.72-1,1.2-1.79,1.2H7.23c-.78,0-1.49-.47-1.79-1.2L4.74.08h16.31Z"/>
            </g>
            <g>
              <g>
                <circle class="cls-3" cx="4.64" cy="9.95" r="2.08"/>
                <path class="cls-9" d="M4.24,11.58s-.02,0-.03,0c-.1,0-.19-.07-.25-.16l-.99-1.71c-.09-.15-.04-.34.12-.43.15-.09.34-.04.43.12l.76,1.32,1.49-1.76c.11-.13.31-.15.45-.04.13.11.15.31.04.45l-1.78,2.11c-.06.07-.15.11-.24.11Z"/>
                <rect class="cls-10" x="8.11" y="9.28" width="15.12" height=".65"/>
                <rect class="cls-10" x="8.11" y="10.48" width="9.32" height=".65"/>
              </g>
              <g>
                <circle class="cls-3" cx="4.64" cy="17.13" r="2.08"/>
                <path class="cls-9" d="M4.24,18.76s-.02,0-.03,0c-.1,0-.19-.07-.25-.16l-.99-1.71c-.09-.15-.04-.34.12-.43.15-.09.34-.04.43.12l.76,1.32,1.49-1.76c.11-.13.31-.15.45-.04.13.11.15.31.04.45l-1.78,2.11c-.06.07-.15.11-.24.11Z"/>
                <rect class="cls-10" x="8.11" y="16.46" width="15.12" height=".65"/>
                <rect class="cls-10" x="8.11" y="17.66" width="9.32" height=".65"/>
              </g>
              <g>
                <circle class="cls-3" cx="4.64" cy="24.31" r="2.08"/>
                <path class="cls-9" d="M4.24,25.94s-.02,0-.03,0c-.1,0-.19-.07-.25-.16l-.99-1.71c-.09-.15-.04-.34.12-.43.15-.09.34-.04.43.12l.76,1.32,1.49-1.76c.11-.13.31-.15.45-.04.13.11.15.31.04.45l-1.78,2.11c-.06.07-.15.11-.24.11Z"/>
                <rect class="cls-10" x="8.11" y="23.64" width="15.12" height=".65"/>
                <rect class="cls-10" x="8.11" y="24.84" width="9.32" height=".65"/>
              </g>
              <g>
                <circle class="cls-3" cx="4.64" cy="31.49" r="2.08"/>
                <path class="cls-9" d="M4.24,33.12s-.02,0-.03,0c-.1,0-.19-.07-.25-.16l-.99-1.71c-.09-.15-.04-.34.12-.43.15-.09.34-.04.43.12l.76,1.32,1.49-1.76c.11-.13.31-.15.45-.04.13.11.15.31.04.45l-1.78,2.11c-.06.07-.15.11-.24.11Z"/>
                <rect class="cls-10" x="8.11" y="30.82" width="15.12" height=".65"/>
                <rect class="cls-10" x="8.11" y="32.02" width="9.32" height=".65"/>
              </g>
              <g>
                <circle class="cls-3" cx="4.64" cy="38.67" r="2.08"/>
                <path class="cls-9" d="M4.24,40.3s-.02,0-.03,0c-.1,0-.19-.07-.25-.16l-.99-1.71c-.09-.15-.04-.34.12-.43.15-.09.34-.04.43.12l.76,1.32,1.49-1.76c.11-.13.31-.15.45-.04.13.11.15.31.04.45l-1.78,2.11c-.06.07-.15.11-.24.11Z"/>
                <rect class="cls-10" x="8.11" y="38" width="15.12" height=".65"/>
                <rect class="cls-10" x="8.11" y="39.2" width="9.32" height=".65"/>
              </g>
            </g>
          </g>
        </g>
      </g>
    </g>
  </g>
</svg>