<?xml version="1.0" encoding="UTF-8"?>
<svg id="_レイヤー_2" data-name="レイヤー 2" xmlns="http://www.w3.org/2000/svg" viewBox="0 0 72.46 39.45">
  <defs>
    <style>
      .cls-1 {
        fill: #efdb10;
      }

      .cls-1, .cls-2, .cls-3 {
        opacity: .8;
      }

      .cls-4 {
        fill: #fffabd;
      }

      .cls-4, .cls-5, .cls-6 {
        opacity: .9;
      }

      .cls-5 {
        fill: #faeeae;
      }

      .cls-2 {
        fill: #f5e237;
      }

      .cls-3, .cls-6 {
        fill: #fbf0b9;
      }

      .cls-7 {
        fill: #e8ce21;
      }
    </style>
  </defs>
  <g id="_オブジェ2" data-name="オブジェ2">
    <g>
      <path class="cls-7" d="M16.93,21.67s15.31,9.05,18.13,8.49c2.82-.56,21.95-7.76,22.71-8.47,0,0-1.74-13.68-4.74-15.05-3-1.38-13.19-6.73-16.01-6.05-2.82.68-15.42,4.72-16.1,6.64-.68,1.92-5.61,13.45-4,14.44Z"/>
      <path class="cls-2" d="M67.22,24.71c-1.32,0-7.74-.85-8.4-4.25-.67-3.41-2.69-12.74-4.94-13.98-2.26-1.23-13.5-5.93-15.92-6.44-2.42-.51-16.1,5.26-17.38,6.17-1.28.91-3.51,9.4-4.21,11.15-1.32,3.32-4.38,3.99-4.38,3.99,0,0-9.63-.51-11.6,1.98-2.7,3.41,9.68,2.09,11.07,10.62.66,4.08,7.1,2.89,13.21,1.52-.14.08-.23.13-.23.13,0,0,9.38-2.58,12.72-.19,3.34,2.39,11.02,6.81,12.99,1.64.89-2.34-.58-4.14,2.32-4.28,2.89-.14,8.99.85,6.93-1.51-.18-.21-.47-.43-.81-.66,18.11,1.04,15.66-5.9,8.64-5.89Z"/>
      <path class="cls-4" d="M22.19,9.06s11.6,5.59,14.18,5.92c2.57.33,13.3-4.83,14.91-5.75,0,0-11.04,8.03-15.54,7.19-4.51-.85-13.54-7.37-13.54-7.37Z"/>
      <path class="cls-6" d="M66.7,28.77s5.62.09,4.15-2.84c0,0,3.62,3.56-4.15,2.84Z"/>
      <path class="cls-6" d="M53.93,32.01s3.88.9,4-.18c0,0-2.6.56-4,.18Z"/>
      <path class="cls-6" d="M39.77,35.97s5.14,2.98,7.42,2.41c2.28-.57,2.07-1.06,2.21-2.87,0,0-1.69,4.56-9.63.46Z"/>
      <path class="cls-6" d="M6.71,23.13s-7.51-.32-4.17,1.69c3.33,2.01,7.33,3.31,8.75,5.68,1.42,2.37.05,3.04,2.23,4.51,0,0-.37-1.84-1-3.8-.63-1.96-3.68-4.98-5.38-5.41-1.7-.43-4.61-1.63-.43-2.67Z"/>
      <path class="cls-3" d="M35.43,18.78s-.77,8.31-.62,10.37c0,0,.59-2.46.62-10.37Z"/>
      <path class="cls-1" d="M11.07,21.31c.57.01.91.03.91.03,0,0,3.06-.67,4.38-3.99.3-.74.87-2.69,1.52-4.77-4.22.09-11.94,2.27-6.2,5.24,2.66,1.38.57,3.23-.62,3.49Z"/>
      <path class="cls-5" d="M12.24,17.17s-1.38-2.21,1.13-3.02c2.51-.81-1.87,1.31-1.13,3.02Z"/>
    </g>
  </g>
</svg>