<?xml version="1.0" encoding="UTF-8"?>
<svg id="_レイヤー_2" data-name="レイヤー 2" xmlns="http://www.w3.org/2000/svg" xmlns:xlink="http://www.w3.org/1999/xlink" viewBox="0 0 118.73 112.31">
  <defs>
    <style>
      .cls-1 {
        fill: none;
      }

      .cls-2 {
        fill: #d1ecfb;
      }

      .cls-3 {
        fill: #00aed9;
      }

      .cls-4 {
        fill: #c5dbf2;
      }

      .cls-5 {
        fill: #231815;
      }

      .cls-6 {
        fill: #fff;
      }

      .cls-7 {
        fill: #808ec3;
      }

      .cls-8 {
        clip-path: url(#clippath);
      }
    </style>
    <clipPath id="clippath">
      <rect class="cls-1" x="10.94" y="12.69" width="96.85" height="86.93" transform="translate(19.94 -15.42) rotate(17.75)"/>
    </clipPath>
  </defs>
  <g id="_オブジェ2" data-name="オブジェ2">
    <g class="cls-8">
      <g>
        <g>
          <path class="cls-2" d="M70.77,84.26c-15.46,2.87-28.41.61-29.48-5.16l1.94-.36c.89,4.76,13.37,6.6,27.26,4.02l.28,1.51Z"/>
          <path class="cls-2" d="M71.62,89.51c-20.56,3.82-37.77.87-39.18-6.73-.22-1.2-.03-2.46.56-3.76l1.83.41c-.48,1.04-.63,2.04-.46,2.98,1.21,6.53,18.14,9.09,36.96,5.59l.28,1.51Z"/>
        </g>
        <g>
          <path class="cls-3" d="M68.59,72.47c3.6-.26,9.33-10.83,14.9-5.93,3.94,3.47-4.36,6.05-6.2,6.85,3.11.62,9.66,3.88,3.54,5.12-3.4.71-7.58-.86-10.97-.36,2.22.34,4.84,1.83,2.28,3.49-1.64,1.26-8.09.24-10.11.35-2.47.09-18.66.79-12.91-6.07.09-.11-2.74-.25-2.89-.24-1.72.12-3.43.31-5.14.51-2.49.3-7.4.94-9.29-1.22-2.55-2.92,1.23-5.86,3.96-5.79,3.35.09,6.71,1.23,10.07,1.18-3.07-1.29-6.99-3.51-7.93-6.93-.74-2.96,1.24-6.44,4.59-6.03,3.79.43,4.41,5.62,6.04,8.62,1.82,3.69,3.99,5.15,8.47,5.16l11.59,1.29Z"/>
          <path class="cls-4" d="M48.54,65.78s7.66-9.01,16.27-10.57l1.45,6.36,5.71-1.94s2.06,7.51-2.12,14.46c-4.19,6.95-24.74,1.36-21.31-8.32Z"/>
          <path class="cls-6" d="M61.43,62.66c-.08,1.45-1.31,2.56-2.76,2.48-1.45-.08-2.56-1.31-2.48-2.76.08-1.45,1.31-2.56,2.76-2.48,1.45.08,2.56,1.31,2.48,2.76Z"/>
          <path class="cls-5" d="M60.6,62.62c-.05.99-.9,1.75-1.89,1.69s-1.75-.9-1.69-1.88c.05-.99.9-1.75,1.88-1.69s1.75.9,1.69,1.89Z"/>
          <path class="cls-7" d="M66.2,62.69c-.17,0-.34-.06-.49-.14-.28-.15-.47-.42-.55-.73l-1.45-6.36c-.14-.6.24-1.2.84-1.34.6-.14,1.2.24,1.34.84l1.18,5.15,4.54-1.54c.59-.2,1.22.12,1.42.7.2.59-.12,1.22-.7,1.42l-5.71,1.94c-.14.05-.28.06-.42.06Z"/>
          <path class="cls-3" d="M76.52,61.38c1.53-.93,2.92-2.18,3.83-3.74,1.37-2.32,1.93-5.9,5.37-3.39,2.88,2.1-.51,6.7-9.2,7.13Z"/>
          <path class="cls-3" d="M51.94,58.96c-.47-1.73-.61-3.59-.2-5.35.61-2.62,2.67-5.61-1.56-6.16-3.53-.46-4.25,5.21,1.76,11.51Z"/>
        </g>
      </g>
    </g>
  </g>
</svg>