<?xml version="1.0" encoding="UTF-8"?>
<svg xmlns="http://www.w3.org/2000/svg" xmlns:xlink="http://www.w3.org/1999/xlink" viewBox="0 0 685.83 48.97">
  <defs>
    <style>
      .cls-1 {
        filter: url(#drop-shadow-1);
      }

      .cls-2 {
        fill: #b28247;
      }

      .cls-3, .cls-4 {
        fill: #956134;
      }

      .cls-5 {
        fill: #c49d62;
      }

      .cls-4, .cls-6, .cls-7, .cls-8 {
        mix-blend-mode: multiply;
      }

      .cls-9 {
        isolation: isolate;
      }

      .cls-10 {
        fill: #f3971a;
      }

      .cls-6, .cls-11 {
        fill: #e94d4e;
      }

      .cls-12 {
        fill: #fff;
      }

      .cls-7 {
        fill: #f29014;
      }

      .cls-13 {
        fill: #88c231;
      }

      .cls-14 {
        fill: #40220f;
      }

      .cls-15 {
        fill: #040000;
      }

      .cls-16 {
        fill: #f08300;
      }

      .cls-17 {
        fill: #e95472;
      }

      .cls-18, .cls-8 {
        fill: #6fba2d;
      }
    </style>
    <filter id="drop-shadow-1" x="-1.16" y="12.36" width="312" height="22.8" filterUnits="userSpaceOnUse">
      <feOffset dx=".56" dy=".56"/>
      <feGaussianBlur result="blur" stdDeviation=".56"/>
      <feFlood flood-color="#231815" flood-opacity=".7"/>
      <feComposite in2="blur" operator="in"/>
      <feComposite in="SourceGraphic"/>
    </filter>
  </defs>
  <g class="cls-9">
    <g id="_レイヤー_2" data-name="レイヤー 2">
      <g id="_テキスト1" data-name="テキスト1">
        <g>
          <path class="cls-18" d="M660.77,15.51c6.51-2.95,12.84-6.91,18.81-11.86-.05,2.88-.18,5.8-.41,8.74,2.14,1.29,4.36,2.47,6.65,3.56-6.89,5.7-14.18,10.27-21.69,13.67-1.12-4.7-2.24-9.41-3.36-14.12Z"/>
          <g>
            <rect class="cls-10" x="349.25" y="15.66" width="2.81" height="19.13" rx="1.4" ry="1.4" transform="translate(2.17 71.65) rotate(-11.7)"/>
            <rect class="cls-10" x="362.38" y="13.1" width="2.81" height="18.97" rx="1.4" ry="1.4" transform="translate(2.98 74.25) rotate(-11.7)"/>
            <ellipse class="cls-10" cx="348.01" cy="12.46" rx="5.62" ry="6.42" transform="translate(4.71 70.85) rotate(-11.7)"/>
            <path class="cls-10" d="M364.28,2.7l-.86.18c-.39.08-.65.43-.58.78l1.24,6.01c.08.39-.14.82-.56.98-.53.2-1.09-.09-1.19-.56l-1.27-6.13c-.06-.31-.39-.5-.74-.43l-.93.19c-.34.07-.57.38-.51.68l1.26,6.09c.08.39-.14.82-.56.98-.53.2-1.09-.09-1.19-.56l-1.25-6.04c-.07-.36-.46-.58-.86-.5l-.85.18c-.39.08-.66.44-.58.79l1.73,8.33c.37,1.8,2.33,2.94,4.34,2.52l2.94-.61c2.02-.42,3.36-2.23,2.99-4.04l-1.73-8.33c-.07-.35-.46-.57-.85-.49Z"/>
          </g>
          <g>
            <g>
              <g>
                <ellipse class="cls-15" cx="532.62" cy="10.38" rx="5.62" ry="6.42" transform="translate(8.96 108.24) rotate(-11.7)"/>
                <rect class="cls-15" x="533.49" y="13.62" width="2.81" height="15.45" rx="1.33" ry="1.33" transform="translate(6.79 108.93) rotate(-11.7)"/>
              </g>
              <g>
                <ellipse class="cls-2" cx="532.62" cy="10.38" rx="5.62" ry="6.42" transform="translate(8.96 108.24) rotate(-11.7)"/>
                <rect class="cls-2" x="533.49" y="13.62" width="2.81" height="15.45" rx="1.33" ry="1.33" transform="translate(6.79 108.93) rotate(-11.7)"/>
              </g>
            </g>
            <g>
              <g>
                <rect class="cls-15" x="547.28" y="10.93" width="2.81" height="15.45" rx="1.33" ry="1.33" transform="translate(7.62 111.68) rotate(-11.7)"/>
                <path class="cls-15" d="M549.53.49l-.86.18c-.39.08-.65.43-.58.78l1.24,6.01c.08.39-.14.82-.56.98-.53.2-1.09-.09-1.19-.56l-1.27-6.13c-.06-.31-.39-.5-.74-.43l-.93.19c-.34.07-.57.38-.51.68l1.26,6.09c.08.39-.14.82-.56.98-.53.2-1.09-.09-1.19-.56l-1.25-6.04c-.07-.36-.46-.58-.86-.5l-.85.18c-.39.08-.66.44-.58.79l1.73,8.33c.37,1.8,2.33,2.94,4.34,2.52l2.94-.61c2.02-.42,3.36-2.23,2.99-4.04l-1.73-8.33c-.07-.35-.46-.57-.85-.49Z"/>
              </g>
              <g>
                <rect class="cls-2" x="547.28" y="10.93" width="2.81" height="15.45" rx="1.33" ry="1.33" transform="translate(7.62 111.68) rotate(-11.7)"/>
                <path class="cls-2" d="M549.53.49l-.86.18c-.39.08-.65.43-.58.78l1.24,6.01c.08.39-.14.82-.56.98-.53.2-1.09-.09-1.19-.56l-1.27-6.13c-.06-.31-.39-.5-.74-.43l-.93.19c-.34.07-.57.38-.51.68l1.26,6.09c.08.39-.14.82-.56.98-.53.2-1.09-.09-1.19-.56l-1.25-6.04c-.07-.36-.46-.58-.86-.5l-.85.18c-.39.08-.66.44-.58.79l1.73,8.33c.37,1.8,2.33,2.94,4.34,2.52l2.94-.61c2.02-.42,3.36-2.23,2.99-4.04l-1.73-8.33c-.07-.35-.46-.57-.85-.49Z"/>
              </g>
            </g>
          </g>
          <path class="cls-5" d="M523.63,33.11c-5.98-.5-12.01-2.07-17.95-4.72.62,2.81,1.33,5.62,2.11,8.43-1.51,2.05-3.11,4.03-4.78,5.93,6.85,3.06,11.38,6.31,20.23,5.55-.03-5.03.41-10.15.38-15.18Z"/>
          <path class="cls-5" d="M570.33,20.99c5.02-3.45,9.71-7.88,13.96-13.26.43,2.86.78,5.77,1.07,8.71,2.02,1.1,4.08,2.11,6.19,3-4.89,6.2-9.89,11.22-15.68,15.2-1.71-4.58-3.83-9.07-5.54-13.64Z"/>
          <polygon class="cls-4" points="585 22.15 575.87 34.63 572.54 26.18 585 22.15"/>
          <polygon class="cls-8" points="673.49 17.48 664.35 29.96 661.03 21.51 673.49 17.48"/>
          <path class="cls-3" d="M513.12,26.12c22.43,4.79,45.67-1.31,64.42-16.95,2.53,4.27,5.06,8.55,7.6,12.82-21.68,18.08-48.54,25.13-74.47,19.6.82-5.16,1.64-10.31,2.45-15.47Z"/>
          <g>
            <g>
              <ellipse class="cls-15" cx="617.36" cy="10.01" rx="5.62" ry="6.42" transform="translate(10.8 125.42) rotate(-11.7)"/>
              <rect class="cls-15" x="618.64" y="13.2" width="2.81" height="19.55" rx="1.4" ry="1.4" transform="translate(8.23 126.24) rotate(-11.7)"/>
            </g>
            <g>
              <ellipse class="cls-18" cx="617.36" cy="10.01" rx="5.62" ry="6.42" transform="translate(10.8 125.42) rotate(-11.7)"/>
              <rect class="cls-18" x="618.64" y="13.2" width="2.81" height="19.55" rx="1.4" ry="1.4" transform="translate(8.23 126.24) rotate(-11.7)"/>
            </g>
          </g>
          <g>
            <g>
              <rect class="cls-15" x="632.45" y="10.41" width="2.81" height="19.93" rx="1.4" ry="1.4" transform="translate(9.04 128.99) rotate(-11.7)"/>
              <path class="cls-15" d="M634.25.02l-.86.18c-.39.08-.65.43-.58.78l1.24,6.01c.08.39-.14.82-.56.98-.53.2-1.09-.09-1.19-.56l-1.27-6.13c-.06-.31-.39-.5-.74-.43l-.93.19c-.34.07-.57.38-.51.68l1.26,6.09c.08.39-.14.82-.56.98-.53.2-1.09-.09-1.19-.56l-1.25-6.04c-.07-.36-.46-.58-.86-.5l-.85.18c-.39.08-.66.44-.58.79l1.73,8.33c.37,1.8,2.33,2.94,4.34,2.52l2.94-.61c2.02-.42,3.36-2.23,2.99-4.04l-1.73-8.33c-.07-.35-.46-.57-.85-.49Z"/>
            </g>
            <g>
              <rect class="cls-18" x="632.45" y="10.41" width="2.81" height="19.93" rx="1.4" ry="1.4" transform="translate(9.04 128.99) rotate(-11.7)"/>
              <path class="cls-18" d="M634.25.02l-.86.18c-.39.08-.65.43-.58.78l1.24,6.01c.08.39-.14.82-.56.98-.53.2-1.09-.09-1.19-.56l-1.27-6.13c-.06-.31-.39-.5-.74-.43l-.93.19c-.34.07-.57.38-.51.68l1.26,6.09c.08.39-.14.82-.56.98-.53.2-1.09-.09-1.19-.56l-1.25-6.04c-.07-.36-.46-.58-.86-.5l-.85.18c-.39.08-.66.44-.58.79l1.73,8.33c.37,1.8,2.33,2.94,4.34,2.52l2.94-.61c2.02-.42,3.36-2.23,2.99-4.04l-1.73-8.33c-.07-.35-.46-.57-.85-.49Z"/>
            </g>
          </g>
          <g>
            <path class="cls-18" d="M615.64,33.04c-7.08.38-14.28-.29-21.45-2.06.92,2.71,1.93,5.41,3.03,8.1-1.65,2.27-3.4,4.48-5.24,6.63,8.27,2.04,16.57,2.81,24.73,2.37-.36-5.01-.71-10.03-1.07-15.04Z"/>
            <polygon class="cls-8" points="603.07 42.61 616.72 48.09 615.96 38.83 603.07 42.61"/>
          </g>
          <path class="cls-13" d="M600.02,27.58c23.51,2.46,50.55-6.08,68.3-23.43,3.02,3.97,6.03,7.93,9.05,11.9-20.52,20.06-51.13,30.64-78.31,27.79.34-5.18.62-11.08.96-16.26Z"/>
          <g>
            <g>
              <ellipse class="cls-15" cx="440.53" cy="12.7" rx="5.62" ry="6.42" transform="translate(6.58 89.61) rotate(-11.7)"/>
              <rect class="cls-15" x="441.81" y="15.89" width="2.81" height="19.55" rx="1.4" ry="1.4" transform="translate(4.01 90.43) rotate(-11.7)"/>
            </g>
            <g>
              <ellipse class="cls-11" cx="440.53" cy="12.7" rx="5.62" ry="6.42" transform="translate(6.58 89.61) rotate(-11.7)"/>
              <rect class="cls-11" x="441.81" y="15.89" width="2.81" height="19.55" rx="1.4" ry="1.4" transform="translate(4.01 90.43) rotate(-11.7)"/>
            </g>
          </g>
          <g>
            <g>
              <rect class="cls-15" x="455.57" y="13.13" width="2.81" height="19.93" rx="1.4" ry="1.4" transform="translate(4.81 93.17) rotate(-11.7)"/>
              <path class="cls-15" d="M457.37,2.74l-.86.18c-.39.08-.65.43-.58.78l1.24,6.01c.08.39-.14.82-.56.98-.53.2-1.09-.09-1.19-.56l-1.27-6.13c-.06-.31-.39-.5-.74-.43l-.93.19c-.34.07-.57.38-.51.68l1.26,6.09c.08.39-.14.82-.56.98-.53.2-1.09-.09-1.19-.56l-1.25-6.04c-.07-.36-.46-.58-.86-.5l-.85.18c-.39.08-.66.44-.58.79l1.73,8.33c.37,1.8,2.33,2.94,4.34,2.52l2.94-.61c2.02-.42,3.36-2.23,2.99-4.04l-1.73-8.33c-.07-.35-.46-.57-.85-.49Z"/>
            </g>
            <g>
              <rect class="cls-11" x="455.57" y="13.13" width="2.81" height="19.93" rx="1.4" ry="1.4" transform="translate(4.81 93.17) rotate(-11.7)"/>
              <path class="cls-11" d="M457.37,2.74l-.86.18c-.39.08-.65.43-.58.78l1.24,6.01c.08.39-.14.82-.56.98-.53.2-1.09-.09-1.19-.56l-1.27-6.13c-.06-.31-.39-.5-.74-.43l-.93.19c-.34.07-.57.38-.51.68l1.26,6.09c.08.39-.14.82-.56.98-.53.2-1.09-.09-1.19-.56l-1.25-6.04c-.07-.36-.46-.58-.86-.5l-.85.18c-.39.08-.66.44-.58.79l1.73,8.33c.37,1.8,2.33,2.94,4.34,2.52l2.94-.61c2.02-.42,3.36-2.23,2.99-4.04l-1.73-8.33c-.07-.35-.46-.57-.85-.49Z"/>
            </g>
          </g>
          <g>
            <path class="cls-11" d="M435.7,33.81c-7.08.38-14.28-.29-21.45-2.06.92,2.71,1.93,5.41,3.03,8.1-1.65,2.27-3.4,4.48-5.24,6.63,8.27,2.04,16.57,2.81,24.73,2.37-.36-5.01-.71-10.03-1.07-15.04Z"/>
            <polygon class="cls-6" points="423.13 43.38 436.77 48.85 436.01 39.6 423.13 43.38"/>
          </g>
          <path class="cls-11" d="M480.44,19.41c5.21-2.85,10.26-6.7,15.01-11.54,0,2.88-.06,5.79-.2,8.73,1.75,1.32,3.56,2.54,5.43,3.66-5.48,5.58-11.3,10.03-17.31,13.31-.98-4.72-1.96-9.43-2.94-14.15Z"/>
          <polygon class="cls-6" points="491.93 22.38 483.41 33.51 481.68 24.76 491.93 22.38"/>
          <path class="cls-17" d="M423.68,30.06c23.15,2.58,46.02-5.67,63.4-22.9,2.99,3.98,5.98,7.95,8.97,11.93-20.09,19.92-46.53,29.45-73.29,26.47.31-5.17.62-10.33.93-15.5Z"/>
          <path class="cls-10" d="M343.27,33.59c-6.87-.45-13.75-1.95-20.46-4.55.58,2.8,1.25,5.6,2.01,8.4-1.85,2.06-3.79,4.05-5.81,5.97,7.74,2.99,15.67,4.73,23.6,5.24.22-5.02.45-10.04.67-15.06Z"/>
          <path class="cls-10" d="M386.49,22.44c5.85-3.54,9.03-5.62,14.12-11.08.32,2.86,1.4,5.43,2.04,7.48,2.21,1.07,5.01,1.05,7.85,1.66-5.86,6.3-12.26,11.51-19,15.59-1.66-4.55-3.33-9.1-4.99-13.65Z"/>
          <polygon class="cls-7" points="400.34 23.87 391.48 36.09 388.49 27.64 400.34 23.87"/>
          <path class="cls-16" d="M332.29,26.46c21.13,5.18,43.21-.44,61.23-15.62,2.32,4.29,4.64,8.58,6.95,12.87-20.82,17.54-46.36,24.04-70.78,18.05.87-5.1,1.73-10.21,2.6-15.31Z"/>
          <g>
            <path class="cls-12" d="M609.7,33.82c.44.45.99,1.06,1.27,1.52l-.79.73c-.07-.15-.18-.32-.31-.49-.03.05-.09.09-.18.08-.23.57-.5,1.06-.82,1.48.52.51,1.19.87,2.04,1.08-.2.25-.47.73-.6,1.04-.92-.28-1.62-.73-2.16-1.36-.63.54-1.39.91-2.26,1.14-.08-.27-.3-.78-.44-1.03.83-.16,1.55-.47,2.13-.94-.26-.49-.47-1.05-.65-1.69-.22.21-.45.4-.66.56-.14-.24-.42-.64-.61-.85.52-.31,1.11-.87,1.46-1.39l-1.3-.06.05-1.09,2.13.1.04-.84,1.04.13c-.01.09-.06.14-.18.15l-.03.6,2.15.1-.05,1.09-1.23-.06ZM607.19,33.7l.86.55s-.07.07-.13.07c-.02,0-.04,0-.06,0-.25.33-.56.68-.89,1l.75-.25c.12.48.29.92.51,1.29.27-.36.49-.78.66-1.27l.93.46c-.3-.42-.69-.87-1.01-1.23l.57-.5-2.2-.11Z"/>
            <path class="cls-12" d="M612.43,34.08c.36.15.85.44,1.1.69l-.46.94c-.22-.26-.7-.58-1.07-.77l.43-.86ZM612.27,38.49c.27-.59.66-1.55.97-2.47l.66.68c-.26.82-.55,1.62-.81,2.24.04.05.05.11.05.16,0,.05,0,.1-.03.14l-.84-.75ZM612.72,31.99c.36.16.84.46,1.08.7l-.46.93c-.21-.26-.69-.6-1.05-.79l.43-.84ZM615.01,36.4c.02.86-.04,1.99-.8,2.81-.13-.22-.42-.56-.61-.72.62-.64.68-1.47.66-2.11l-.02-.68.92.04c0,.08-.05.12-.16.16v.5ZM616.92,37.95c0,.17,0,.23.06.23.08,0,.08,0,.1-.03.03-.03.03-.25.03-.91.14.15.38.31.57.39,0,.78,0,1.41-.6,1.42h-.31c-.15.01-.33-.05-.43-.2-.11-.15-.17-.33-.18-.89l-.06-2.32.75.03c-.04-.11-.1-.24-.17-.37-.92.12-1.84.21-2.47.27,0,.08-.06.12-.11.13l-.3-1.14c.18,0,.4-.01.63-.02.07-.23.15-.5.22-.76l-.87.02-.03-.99,1.34-.04-.02-.88,1.03.04c0,.09-.05.14-.17.17l.02.65,1.5-.04.03.99-.84.02c.35.45.73,1.04.91,1.48l-.61.46h.1c0,.08-.05.14-.16.16l.06,2.1ZM615.26,38.88l-.09-3.12.89.04c0,.08-.05.13-.16.16l.08,2.91-.73.02ZM615.7,33.77c-.03.06-.09.09-.18.09-.06.2-.14.43-.24.66l.89-.05c-.07-.11-.14-.21-.22-.31l.57-.42-.83.02Z"/>
            <path class="cls-12" d="M623.13,31.66l.56.2c0,.05-.01.11-.04.15-.08.67-.19,1.47-.33,2.31.55.72.75,1.23.8,1.7.17,1.55-.62,1.63-1.12,1.66-.04-.29-.18-.72-.33-1.01l.21,1.96-.82.09-.66-6.16c-.08.42-.18.82-.31,1.21l.28-.03.1.96-.76.08c-.08.16-.15.32-.23.46l.88-.09.38,3.55-.79.08-.03-.26-.73.08.04.33-.75.08-.23-2.14c-.06.06-.13.12-.2.18-.11-.23-.36-.65-.51-.85.2-.15.4-.34.58-.53l-.03-.28.28-.03c.12-.15.22-.31.33-.47l-1.15.12-.1-.96.92-.1-.06-.58-.7.07-.1-.95.7-.07-.07-.7.94-.03c0,.08-.04.14-.15.17l.05.47.49-.05.06.54c.06-.26.12-.53.16-.8l.67.21-.04-.34,1.65-.17.17-.06ZM620.69,36.45l-.04-.35-.73.08.04.34.73-.08ZM620.09,37.73l.73-.08-.04-.37-.73.08.04.38ZM620.13,33.87h.06c.08-.2.15-.41.21-.62l-.33.04.06.58ZM622.25,32.84l.41,3.79c.14,0,.26-.01.34-.02.29-.03.33-.21.29-.56-.04-.38-.24-.77-.79-1.45.08-.66.14-1.26.19-1.81l-.44.05Z"/>
            <path class="cls-12" d="M629.82,31l.21,1.07-2.15.41h0s.1-.01.1-.01c.01.08-.03.15-.14.2l.09.48,1.78-.34.48,2.51c.17.92-.04,1.21-1.13,1.41-.09-.31-.31-.76-.48-1.03.23-.02.56-.08.64-.1.09-.02.12-.05.1-.14l-.27-1.42-.92.17.66,3.48-.86.16-.66-3.48-.82.16.49,2.58-.83.16-.69-3.65,1.65-.32-.12-.66-2.17.41-.2-1.07,2.16-.41-.18-.94,1.08-.13c.01.09-.03.16-.14.21l.13.69,2.21-.42Z"/>
            <path class="cls-12" d="M632.8,33.05c.08.32-.05.63-.29.69-.24.06-.5-.15-.58-.47-.08-.32.05-.62.29-.69.24-.06.5.16.58.47Z"/>
            <path class="cls-12" d="M633.44,29.3c.41.2.95.53,1.24.81l-.42.9c-.26-.29-.8-.66-1.22-.89l.4-.83ZM635.04,31.73l.72,2.31c.52.59,1.12.4,2.07.1.65-.2,1.42-.47,1.95-.71,0,.28.02.84.08,1.17-.4.16-.95.35-1.48.52-1.37.43-1.95.57-2.69-.05-.14.33-.29.67-.43.94.03.09.02.15-.04.2l-.76-1.05c.17-.24.36-.52.53-.81l-.42-1.37-.57.18-.3-.98,1.35-.42ZM637.17,31.32l-.67.21c.21.88.34,1.96.02,2.82-.18-.19-.58-.48-.8-.55.31-.93.04-2-.22-2.82l-.51-1.64.49-.04c.59-.39,1.17-.86,1.5-1.27l.96.6c-.02.06-.09.08-.15.1-.43.44-1.08.92-1.73,1.3l.16.51,2.3-.72.31.98-.87.27.8,2.59-.79.25-.8-2.59Z"/>
            <path class="cls-12" d="M644.99,30.05l.29.73.3-.12.31.77-.3.12.34.85-.66.27-.34-.85-.99.4-.31-.77.29-.12-.29-.73-.11.04-.02-.05c.24,1.29.11,2.24-.34,2.92-.15-.12-.5-.31-.67-.36.22-.3.37-.64.44-1.05-.1-.06-.21-.12-.31-.16l.11-.63c.07.03.16.06.25.1,0-.17-.02-.36-.05-.55l-.29.12c-.01.42-.08.82-.19,1.14-.09-.06-.25-.15-.38-.22-.06.23-.34.36-.54.42-.09-.23-.29-.56-.45-.74l.96,2.4-.65.26-2.59-6.49,1.12-.45.1-.07.57.11s.02.1,0,.14c.15.62.33,1.49.44,2.1.47.44.73.81.9,1.22.03.08.06.15.08.22.03-.33,0-.7-.05-1.07l-.08.1c-.18-.18-.51-.42-.72-.53.27-.26.51-.61.66-.97l-.72.29-.34-.84.43-.17c-.17-.21-.4-.45-.61-.62l.43-.56c.27.2.58.5.75.74l-.23.31.44-.18-.48-1.19.89-.28c.02.07,0,.14-.09.2l.39.99.41-.17-.36-.07c.03-.3.03-.74.01-1.05l.89.12c0,.08-.06.11-.13.13-.01.21-.05.5-.1.75l.52-.21.34.84-.78.31c.35.14.74.21,1.11.21-.06.18-.12.49-.15.74l.21-.07c.02.07,0,.14-.09.2l.13.32.24-.09.31.76-.24.09ZM639.79,28.42l1.26,3.16c.07-.02.12-.04.17-.06.12-.05.16-.12-.01-.54-.12-.3-.35-.67-.76-1.05-.1-.46-.27-1.09-.41-1.61l-.25.1ZM642.97,29.95l.28.03-.04-.1.81-.33-.21-.52.3-.09c-.3-.08-.61-.2-.91-.38l.31.79-.71.29-.31-.79c-.1.35-.25.67-.44.96l.61-.03c0,.06-.02.11-.09.14l.03.21.28-.11.09-.06ZM644.46,31.11l.16-.06-.29-.73-.16.06.29.73Z"/>
            <path class="cls-12" d="M649.45,23.59l.49.98-1.96.98h0s.09-.04.09-.04c.03.08.01.15-.08.23l.22.44,1.62-.81,1.14,2.29c.42.83.29,1.17-.71,1.67-.17-.27-.5-.64-.74-.86.22-.08.52-.23.59-.27.08-.04.1-.08.06-.17l-.64-1.29-.84.42,1.58,3.17-.78.39-1.58-3.17-.75.37,1.17,2.35-.76.38-1.66-3.33,1.5-.75-.3-.6-1.97.99-.49-.98,1.96-.98-.42-.85,1-.42c.04.08.01.16-.08.24l.31.63,2.01-1.01Z"/>
            <path class="cls-12" d="M652.3,21.23l2.93,4.71-1.62,1,.3.49-.59.37-3.23-5.2,2.21-1.37ZM651.42,22.92l-.22.14.68,1.1.22-.14-.68-1.1ZM652.88,23.53l-.68-1.1-.24.15.68,1.1.24-.15ZM652.38,24.96l.72,1.16.22-.14-.72-1.16-.22.14ZM654.82,20.23l.58.93-.58.36,2.2,3.54c.55.89.35,1.24-.63,1.85-.2-.25-.57-.61-.82-.8.17-.08.38-.21.52-.29.25-.15.28-.17.19-.32l-2.18-3.52-.85.53-.58-.93,2.16-1.34ZM653.87,25.65l.24-.15-.72-1.16-.24.15.72,1.16Z"/>
            <path class="cls-12" d="M660.73,19.99l.9-.55c.04.07.04.14-.04.24l1.79,2.51-.71.51-.25-.36-2.42,1.73.25.36-.69.5-1.93-2.71.88-.54c.05.08.04.15-.05.24l.91,1.27.83-.59-1.26-1.77-1.33.95-1.68-2.36.88-.53c.04.07.03.15-.05.24l.91,1.27.65-.46-1.41-1.98.9-.55c.04.07.03.15-.05.24l1.27,1.78.69-.5-1.05-1.48.91-.56c.05.08.04.15-.04.25l1.54,2.16-1.42,1.01,1.26,1.76.89-.64-1.04-1.46Z"/>
            <path class="cls-12" d="M663.16,14.06l1.59-1.29.67.82-3.19,2.6.54.66c.81.99,2.01,2.61,2.37,3.9-.24-.04-.74-.06-.96-.03-.33-1.16-1.34-2.47-2.06-3.34l-1.21-1.48,1.57-1.28-.54-.66.86-.6c.05.07.05.14-.03.24l.38.46ZM664.25,14.74c.05.08.05.15-.03.24l.24.29,1.34-1.09.62.76-1.34,1.09.43.53,1.1-.9,1.91,2.34-.67.54-.17-.2-1.4,1.14.17.2-.63.52-1.91-2.34.93-.76-1.45-1.77.84-.6ZM667.08,17.59l-.51-.63-1.4,1.14.51.62,1.4-1.14Z"/>
          </g>
          <g>
            <path class="cls-12" d="M340.26,34.86c-.37.11-.78.2-1.25.25-.02.32-.03.63-.04.91.49-.14.99-.22,1.35-.22,1.24,0,2.26.66,2.23,2.06-.03,1.24-.68,2.12-2.06,2.12-.51,0-.99-.22-1.38-.7.2-.26.43-.66.59-.96.23.31.52.5.83.5.53,0,.82-.39.84-.96.01-.59-.38-.99-1.1-.99-.38,0-.86.08-1.32.22l-.04,1.54c-.02.76-.5,1.47-1.53,1.47-.65,0-1.48-.38-1.46-1.47.02-.68.54-1.53,1.93-2.17l.03-1.25c-.49.02-1.03.03-1.63.03v-1.19c.62,0,1.17,0,1.66-.02l.03-1.33,1.42.04c0,.09-.08.18-.2.2-.03.32-.05.65-.08.99.39-.07.75-.15,1.08-.29l.1,1.23ZM337.82,37.59c-.35.24-.83.56-.84,1.02,0,.29.14.44.38.44.28,0,.43-.15.44-.48,0-.19.01-.58.02-.98ZM342.18,35.57c-.42-.41-1.09-.81-1.7-1.06l.59-1.03c.66.22,1.35.62,1.78,1.02l-.67,1.07Z"/>
            <path class="cls-12" d="M350.31,33.13l.26,5.39c.05,1.05-.3,1.32-1.68,1.42-.04-.27-.16-.66-.29-.97l-.13.15c-.26-.3-.77-.72-1.23-1.08-.28.46-.69.9-1.35,1.29-.14-.27-.42-.65-.68-.84l.08,1.68-1.12.08-.32-6.67,2.63-.18c0-.35,0-.72,0-1.11h1.39c0,.1-.07.16-.21.2,0,.28-.01.56-.02.83l2.68-.19ZM345.09,36.08c.7-.41,1.05-.91,1.23-1.5l-1.3.09.07,1.4ZM348.03,36.33c-.01.08-.09.14-.21.17-.04.16-.08.32-.12.49.5.35,1.23.87,1.59,1.22l-.5.57c.23,0,.45-.02.54-.03.11-.02.15-.05.15-.18l-.2-4.2-1.76.12-.02.09c.59.32,1.39.78,1.78,1.14l-.72.96c-.3-.31-.89-.74-1.43-1.08-.28.51-.7.95-1.35,1.32-.12-.26-.42-.62-.66-.82l.11,2.34c1.22-.61,1.39-1.46,1.5-2.21l1.32.07Z"/>
            <path class="cls-12" d="M353.71,35.51c.29.17,1.09.78,1.27.93l-.5,1.05c-.15-.2-.38-.47-.61-.72l.31,2.56-1.06.15-.27-2.2c-.17.55-.37,1.07-.61,1.47-.14-.34-.46-.84-.67-1.15.35-.51.67-1.27.86-1.96l-.88.13-.13-1.1,1.11-.16-.05-.42-.81.37c-.08-.49-.32-1.25-.57-1.82l.81-.36c.21.41.38.91.5,1.34h0s-.23-1.89-.23-1.89l1.29-.11c0,.09-.05.15-.2.2l.21,1.75c.08-.5.14-1.1.15-1.56l1.18.17c-.01.07-.09.12-.21.14-.07.54-.24,1.29-.4,1.78-.22-.05-.46-.11-.68-.15l.05.4.99-.14.13,1.1-.99.14v.05ZM358.9,36.43l-.9.33.24,2-1.09.16-.21-1.77-1.72.62-.32-1.1,1.9-.68-.36-2.96-.76.74c-.19-.34-.63-.82-1.01-1.15l.73-.69c.36.3.8.71,1.03,1.04l-.21-1.74,1.33-.12c0,.09-.05.16-.21.21l.52,4.3.73-.26.31,1.08ZM355.41,33.97c.43.31.97.77,1.23,1.12l-.76.8c-.23-.35-.75-.85-1.18-1.2l.71-.72Z"/>
            <path class="cls-12" d="M362.23,35.18l.32.96c-.86.48-1.77.99-2.36,1.3,0,.09-.05.16-.11.18l-.54-1.14c.27-.12.58-.26.93-.43l-.32-1.61-.78.17-.21-1.07.78-.17-.25-1.27-.83.18-.21-1.08,2.65-.59.21,1.08-.77.17.25,1.27.72-.16.21,1.07-.72.16.27,1.35.76-.39ZM365.12,36.03l1.84-.41.21,1.05-4.82,1.06-.21-1.05,1.97-.44-.14-.71-1.49.33-.2-1.03,1.49-.33-.12-.58-1.48.33-.74-3.72,4.06-.9.74,3.72-1.58.35.11.58,1.61-.36.2,1.03-1.61.35.14.71ZM362.59,31.31l.08.42.51-.11-.08-.42-.51.11ZM362.94,33.07l.51-.11-.08-.42-.51.11.08.43ZM364.76,31.27l-.08-.42-.57.12.08.42.57-.12ZM365.03,32.6l-.08-.43-.57.13.08.43.57-.12Z"/>
            <path class="cls-12" d="M372.41,28.6l1.53,5.55-1.18.35-.11-.39-4.15,1.25-.31-1.14,4.15-1.25-.79-2.89-4.09,1.23-.31-1.14,5.27-1.59Z"/>
            <path class="cls-12" d="M374.7,29.77l6.05-2.32.42,1.17-5.73,2.19c-.02.1-.11.19-.21.25l-.53-1.29Z"/>
            <path class="cls-12" d="M387.66,24.57l-2.4,1.11c.59,1.74.63,3.12-.49,4.8-.32-.13-.88-.27-1.25-.35,1.03-1.44,1.08-2.51.61-3.93l-2.44,1.13-.48-1.09,2.49-1.15-.8-1.83,1.42-.55c.03.11,0,.2-.15.29.24.56.46,1.08.66,1.56l2.34-1.08.48,1.09Z"/>
            <path class="cls-12" d="M388.05,24.09l5.7-3.11.57,1.1-5.39,2.94c0,.1-.08.2-.17.27l-.7-1.21Z"/>
          </g>
          <g class="cls-1">
            <path class="cls-14" d="M10.31,30.17l.02-.08,1.23-.44c.48-.73.93-1.67.93-2.58,0-1.31-1.09-1.85-2.24-1.85-.67,0-1.35.16-1.98.36v.54c0,3.35-1.51,5.56-4.92,5.91l-1.01-3.81-.61.34-1.72-3.99.04-.04,1.21.36c1.17-.44,2.34-.89,3.53-1.31v-3H1.03l.67-3.83h.08l.73.95,2.26-.14v-1.67l-1.03-.89v-.08l4.52-.44v2.94l2.58-.02.65,3.18h-3.23v1.92c.77-.18,1.55-.3,2.34-.3,1.62,0,3.13.5,4.26,1.73.75.81,1.01,2.08,1.01,3.16,0,1.77-.65,3.51-1.67,4.92l-3.9-1.83ZM2.79,27.97l.85.54c.71-.26,1.07-.87,1.13-1.61l-1.98,1.07ZM14.15,21.16c-1.21-1.67-2.12-3.59-3.01-5.44l3.41-.95c.44,1.27.95,2.52,1.55,3.71l1.33.24.02.06-3.29,2.38Z"/>
            <path class="cls-14" d="M32.64,31.72v-.08l1.33-.81v-2.82l-1.88,2.44-3.01-2.34c-.75.95-1.65,1.69-2.52,2.18l-2.2-2.52v4.43l-3.25-.5.1-14.11-.91-.77v-.08l4.08-.38v.65l3.43-.14.08-1.73-.89-.87v-.08l4.28-.18-.14,2.76,6.01-.06.08,15.68-4.58-.67ZM24.38,19.7l-.02,2.02.99.02c.81-.52,1.55-1.21,2-2.04h-2.97ZM27.01,24.22l-.48.32-2.18-2.5v5.4h.99c.85-.62,1.82-1.81,2.12-2.7l-.46-.52ZM33.97,22.24l-1.82,2.38-2.88-2.34c-.48.52-1.03,1.03-1.68,1.53l3.33.14c-.2,1.19-.61,2.26-1.17,3.18l1.17-.97,2.06,1.71.99-.1v-5.54ZM33.97,19.7h-3.25c-.18.62-.44,1.21-.83,1.77l1.31-1.05,1.84,1.61.93-.08v-2.26Z"/>
            <path class="cls-14" d="M44.34,31.94v-5.1l-1.23,1.9-1.86-2.02,2.04-2.9h-1.84l.57-3.26h.08l.59.77,1.65-.12v-3.25l-.97,2.68-1.88-.87.85-2.8-.48-1.05.02-.06,2.46.5v-.89l-.89-.77v-.08l3.98-.38v2.32l1.15-.24.85,2.3-2,.87v1.55l1.55-.04.46,2.16,1.55-2.88.06.04.38,1.05,2.56.69-.54,2.84-3.96-1.45.08.38h-2.12v.22l1.43,1.05,1.03-.26.08.04-1.57,2.96-.97-.62v5.26l-3.09-.52ZM49.47,18.41l1.67-3.08.06.04.36,1.05,2.58.69-.54,2.84-4.12-1.53ZM54.5,32.1v-3.31l-4.96.85.04-3.57h.06l.83.69,4.02-.89v-10.62l-.89-.79v-.08l4.06-.36v11.23l1.27-.24,1.15,2.84-2.42.4v4.37l-3.17-.52Z"/>
            <path class="cls-14" d="M68.79,31.96l.55-3.06h.08l.69.73,3.29-.14v-1.29h-3.92l.06-.34-6.54,1.47v-3.65l.08-.02.75.68.83-.18v-3.06h-1.8l.55-3.16h.08l.67.75.5-.06v-2.66h-1.8l.55-3.17h.08l.67.75c1.23-.14,2.66-.24,4.5-.32l.63,2.74h-1.71v2.44l.97-.04.63,2.74h-1.61v2.4l1.27-.26.75,2.18.38-2.18h.1l.67.73,2.64-.12v-1.31h-.91v.42l-2.79-.5.08-8.71-.91-.79v-.08l3.63-.36v.46c2.78-.22,5.55-.28,7.77-.28l.14,9.84h-3.88v1.19l3.73-.1.61,2.58h-4.34v1.19l4.22-.08.63,2.66h-12.59ZM73.59,17.35h-1.09v1.23h1.09v-1.23ZM73.59,20.81h-1.09v1.31h1.09v-1.31ZM77.59,17.35h-1.17v1.23h1.17v-1.23ZM77.59,20.81h-1.17v1.31h1.17v-1.31Z"/>
            <path class="cls-14" d="M87.82,25.67c-1.27,0-2.32-1.07-2.32-2.36s1.05-2.36,2.32-2.36,2.32,1.07,2.32,2.36-1.05,2.36-2.32,2.36Z"/>
            <path class="cls-14" d="M107.34,31.72c-1.74-1.39-3.33-3.06-4.78-4.8-1.71,2-3.87,3.55-6.09,4.88l-2.54-3.57.06-.04,1.31.18c3.61-1.98,6.08-4.76,7.21-8.81h-6.58l.65-3.97h.08l.75.93c3.07-.22,6.16-.26,9.26-.26-.24,3.33-1.11,6.47-3.01,9.23l1.59-.95c1.07,1.39,2.26,2.72,3.55,3.89h1.51l.04.08-3.01,3.2Z"/>
            <path class="cls-14" d="M120.16,31.33v-7.76c-1.72,1.13-3.57,2.08-5.45,2.9l-2.3-3.61.06-.04,1.41.26c3.83-1.77,7.29-4.03,10.05-7.28l-.32-1.29.06-.1,3.67,2.4c-1.53,1.96-3.23,3.77-5.19,5.32l1.51-.16v10.14l-3.49-.79Z"/>
            <path class="cls-14" d="M129.63,25.19l.61-3.89h.08l.69.87c4.74-.26,9.49-.32,14.23-.32l.63,3.35h-16.25Z"/>
            <path class="cls-14" d="M150.74,23.65l-2.26-6.55,3.55-.36,1.35,4.52,1.23.54.04.06-3.91,1.79ZM153.14,28.39l.04-.04,1.49.14c3.03-2.2,5.37-4.8,6.64-8.85l-.73-1.27.02-.04,4.36,1.17c-1.65,6.11-4.46,9.41-8.84,12.48l-2.97-3.59ZM155.79,22.46l-2-6.39,3.55-.36,1.09,4.35,1.25.52.02.08-3.9,1.79Z"/>
            <path class="cls-14" d="M178.29,21.28l.32-1.41h-3.11c-.57,2.68-1.45,5.56-2.5,7.86l-4.2-1.85v-.08l1.23-.48c.73-1.37,1.47-3.71,1.96-5.44h-2.58l.65-3.83h.08l.75.95,1.59-.1.12-1.03-.93-.97v-.08h4.58l-.22,1.93,3.53-.06.32,1.49,3.43.12.93-.89.06.02.4,3.85h-6.4ZM184.41,30.21l-.54-1.35-.65-.28c-.1,2.06-1.67,3.71-3.83,3.71s-4.22-1.23-4.22-3.91,2-3.95,4.22-3.91h.51v-1.23l-1.03-.89v-.08l4.48-.44.02,3.29c.87.28,1.72.67,2.58,1.13l-1.47,3.97h-.08ZM179.91,27.69l-.55-.04c-.71-.06-1.05.32-1.05.73s.38.71.79.71.81-.42.81-.97v-.42Z"/>
            <path class="cls-14" d="M198.94,27.14h.08v4.56c-.91.14-1.86.2-2.79.2-3.57,0-7.95-.79-7.95-5.34,0-2.16,1.23-3.77,2.83-5.04-.5-2-.73-4.05-.73-6.11,0-.3.02-.6.02-.91l4.68.58v.08l-1.03.87c0,1.19.06,2.4.18,3.59,1.31-.62,2.66-1.17,4.02-1.65l1.9,4.07-.08.04-1.33-.46c-1.76.6-6.9,2.42-6.9,4.9,0,1.94,2.46,2,3.83,2,.71,0,1.43-.04,2.12-.08l1.15-1.29ZM197.47,17.41l-.81-2.28,2.52-.54.28,2.42-1.98.4ZM200.54,17.08l-.81-2.3,2.52-.54.28,2.42-1.98.42Z"/>
            <path class="cls-14" d="M206.51,31.25c2.04-2.04,7.49-7.36,7.49-10.4,0-1.15-.97-2.28-2.14-2.28-1.05,0-1.72.38-2.32,1.27l.12,1.41-.06.04-3.41-3.04c1.29-2.18,3.07-3.06,5.55-3.06,3.19,0,5.83,2.22,5.83,5.58,0,3.02-1.64,5.28-3.61,7.42h3.71v3.06h-11.16Z"/>
            <path class="cls-14" d="M234.26,26.94c0,3.55-3.23,5.34-6.36,5.34s-6.36-1.79-6.36-5.34c0-1.63.73-3,2.08-3.91-1.07-.85-1.61-2.02-1.61-3.37,0-3.31,2.97-4.94,5.89-4.94s5.89,1.63,5.89,4.94c0,1.35-.54,2.52-1.61,3.37,1.35.91,2.08,2.28,2.08,3.91ZM227.89,24.5c-1.37,0-2.95.89-2.95,2.44s1.58,2.44,2.95,2.44,2.95-.89,2.95-2.44-1.59-2.44-2.95-2.44ZM227.89,17.63c-1.13,0-2.48.73-2.48,2.04s1.35,2.02,2.48,2.02,2.48-.73,2.48-2.02-1.35-2.04-2.48-2.04Z"/>
            <path class="cls-14" d="M243.41,19.18c-.12,4.64-.58,8.79-1.88,12.17l-3.63-1.49.02-.08.93-.44c1.03-2.78,1.41-6.05,1.49-10.16h-.95l.61-3.53h.08l.75.95,5.09-.18v-1.05l-.93-.81v-.08l4.18-.38v2.24l5.77-.06.61,2.9h-12.15ZM247.04,31.76v.71l-3.17-.5.08-5.68-.77-.77v-.08l3.87-.36v.34l.44-.04v-4.82l-.91-.79v-.08l4.16-.38v1.87l4.18-.16.67,2.58h-4.86v1.59l3.71-.08.08,6.65h-7.47ZM251.34,27.69h-4.3v1.73h4.3v-1.73Z"/>
            <path class="cls-14" d="M275.32,32.44c-1.51-.69-3.13-1.39-4.86-2.46l1.47-1.51h-1.71v4.35l-3.25-.54v-2.52c-1.55,1.13-3.19,2.06-4.58,2.64l-2.26-2.66.04-.06,1.19.06c.83-.34,1.67-.79,2.48-1.27h-3.67l.54-2.78h.08l.58.67,5.61-.08v-.97h-2.34v.5l-3.17-.52.04-4.68-2.56-1.85.06-.08,1.11-.12c.79-.87,1.92-2.4,2.68-3.67l-.44-1.15.02-.08,3.94,1.23-.44.89,1.9-.06.42-.81-.44-1.13.04-.08,3.98,1.01-.4.93,4.2-.04.55,2.18h-5.43v.75h4.36l.54,1.65h-4.9v.75h4.56l.52,1.65h-5.07v.75h5.23l.59,2h-6.32v.93l6.22-.1.54,2.34h-3.17c.79.42,1.45.73,2.12,1.03l1.23-.18.06.06-1.9,3.06ZM267.55,17.77h-2.91v.87l2.91-.1v-.77ZM267.55,20.17h-2.91v.89l2.91-.1v-.79ZM267.55,22.57h-2.91v.89l2.91-.1v-.79Z"/>
            <path class="cls-14" d="M291.81,31.86v.71l-3.09-.48.08-6.89-.55-.56.02.08-1.78.16v1.19l1.37.75.79-.24.08.04-.97,2.82-1.27-.58v3.61l-3.01-.48v-4.11l-1.07,3.31-2-.91.97-3.67-.36-.89.02-.06,2.44.64v-1.13l-2.4.2v-3.14h.08l.46.5.67-.04.89-1.35-2.62-1.92,2.04-4.37-.48-1.07.04-.06,3.71,1.39-1.78,3.14.69.48.67-1.03-.28-1.05.04-.06,2.85,1.63.54-2.82h.08l.71.83,2.4-.12v-.97l-1.03-.89v-.08l4.2-.4v2.24l3.43-.1.69,2.74h-4.12v1.63l3.03-.06.67,2.74h-10.41l.67-3.37h.08l.73.95,2.04-.12v-1.77h-3.57l-2.54,3.55,1.17-.08.67-1.11h.08l.58,3.14,3.63-.36v.5c2.06-.18,4.42-.26,6.18-.26l.08,7.64h-6.26ZM294.98,27.04h-3.17v2.26h3.17v-2.26Z"/>
            <path class="cls-14" d="M305.05,32.2l-2.95-4.27,3.15-1.45,1.88,2.92,1.27.16.04.06-3.39,2.58ZM303.36,24.74l1.37-9.19-.87-1.05.02-.08,4.44.34-1.88,11.63-3.07-1.65Z"/>
          </g>
          <g>
            <path class="cls-14" d="M9.91,40.67c.22.36.42.83.49,1.14l-.63.25-.08-.3-.68.13c.41.34.88.63,1.33.81-.18.23-.37.59-.48.86-.85-.42-1.77-1.22-2.27-1.98-.44.72-1.32,1.53-2.24,2-.07-.19-.19-.45-.32-.65v1.15H1.83v-2.98c-.16-.16-.37-.31-.52-.39.63-.85.99-1.96,1.16-2.85l1.12.14c0,.09-.08.14-.21.15-.04.18-.08.38-.14.57h.73l.14-.06.7.42c-.04.06-.1.09-.19.09-.12.32-.29.72-.48,1.07h.89v1.1l.25-.02c.12-.37.25-.86.3-1.21l.14.04-.31-.89c.26,0,.56,0,.9-.02.23-.43.45-.99.58-1.41l1.25.37c-.04.08-.12.11-.26.11-.14.26-.35.6-.55.9l1.29-.04c-.16-.17-.32-.33-.47-.47l.75-.45c.52.45,1.1,1.1,1.36,1.57l-.81.5c-.07-.14-.17-.29-.28-.46-1.21.1-2.43.2-3.27.25,0,.04-.02.07-.04.08l.55.16c-.03.07-.09.1-.21.1-.08.23-.19.53-.31.8l.44-.05c-.05-.11-.1-.22-.16-.32l.52-.2c.08.12.15.25.21.4.09-.12.17-.25.24-.38l1.07.04c-.02.06-.07.11-.15.13.08.12.19.25.3.38.1-.35.21-.83.25-1.16l.86.24c-.02.07-.09.1-.21.1-.08.23-.18.54-.28.81l.49-.05c-.06-.12-.11-.24-.17-.34l.59-.23ZM2.6,44.53c-.07.85-.19,1.7-.6,2.24l-.69-.39c.36-.46.5-1.22.56-2.01l.73.15ZM2.64,41.1v.68h.42v-.68h-.42ZM2.64,42.57v.68h.42v-.68h-.42ZM3.25,40.27c.09-.2.18-.44.26-.69h-.55c-.08.23-.19.46-.29.69h.57ZM2.76,46.34c.02-.2.04-.44.04-.7,0-.38-.03-.79-.07-1.14.61-.07.63-.07.65-.07.06.4.08.87.08,1.28,0,.2,0,.39-.02.55l-.69.08ZM3.8,46.23c0-.45-.11-1.16-.27-1.71l.61-.1c.17.55.28,1.24.3,1.7l-.64.11ZM4.19,41.78v-.68h-.45v.68h.45ZM4.19,43.25v-.68h-.45v.68h.45ZM4.79,45.87c-.06-.38-.25-.95-.45-1.38l.59-.21c.22.43.42.99.49,1.37l-.63.23ZM5.04,41.52v1.22c.48-.24.94-.58,1.33-.96l-.99.21c0,.07-.06.1-.11.12l-.23-.59ZM10.05,44.65c-.02.07-.09.1-.22.11-.79,1.02-2.21,1.64-4.01,2-.1-.25-.32-.6-.53-.81,1.62-.24,2.99-.75,3.66-1.63l1.09.33ZM8.38,42.76c-.03.06-.09.09-.19.09-.42.49-1.17,1.04-1.85,1.39-.14-.18-.37-.4-.56-.55.62-.28,1.34-.78,1.71-1.25l.89.31ZM9.11,43.71s-.08.09-.19.09c-.55.64-1.52,1.22-2.54,1.58-.12-.2-.34-.46-.54-.63.92-.26,1.86-.77,2.35-1.36l.91.31Z"/>
            <path class="cls-14" d="M14.34,39.19l-.09,1.43h4.58v1.38h-1.8v1.2c0,2.23-.93,3.13-3.23,3.13h-1.59v-1.42h1.35c1.42,0,1.98-.49,1.93-1.68v-1.23h-1.74c-.51.92-1.28,1.54-2.2,1.77v-1.57c.92-.56,1.22-1.3,1.24-3.01h1.55Z"/>
            <path class="cls-14" d="M23.11,42.33c-.1,1.52-.24,2.11-.61,2.75-.52.82-1.24,1.34-2.13,1.51v-1.71c.82-.21,1.16-.92,1.22-2.54h1.52ZM23.15,40.16c-1.05-.26-1.27-.31-2.5-.53v-1.46c1.04.16,2.02.36,2.5.52v1.47ZM23.15,42.06c-.7-.2-1.72-.44-2.5-.58v-1.46c.96.18,2.03.42,2.5.56v1.48ZM22.85,44.95c.73-.63.91-1.24.93-3.13v-3.53h4.79v2.95c.02.76-.31,1.15-1.02,1.18h-.22c.28,1.38.73,2.07,1.62,2.51v1.74c-1.57-.27-2.74-1.91-3.04-4.26h-.6c-.13,1.48-.26,2.06-.63,2.75-.48.83-1.08,1.34-1.84,1.54v-1.75ZM27.01,41.03v-1.34h-1.68v1.34h1.68Z"/>
            <path class="cls-14" d="M32.47,39.99l-.18-.43h-1.7v-1.18h3.45v-.45h1.69v.45h3.33v1.18h-1.48l-.21.43h1.72v1.15h-2.42v.58h2.27v1.21h-2.27v.46h1.96v1.18h-1.96v.49h2.42v1.3h-6.81v-1.3h2.81v-.49h-1.85v-.66l-.58.33v-1.65c.37-.12.61-.54.75-1.22h1.21l-.04.36h.51v-.58h-2.71v2.04c.05,1.53-.69,2.69-1.97,3.12v-2.04c.35-.17.49-.47.49-1.07v-3.19h1.57ZM35.58,39.99l.2-.43h-1.92l.21.43h1.52ZM35.08,43.39v-.46h-.89c-.11.22-.13.25-.31.46h1.21Z"/>
            <path class="cls-14" d="M41.14,39.92c1.38-.34,2.74-1.1,3.45-1.94h1.56c.62.8,2.1,1.54,3.69,1.84v1.53c-.48-.07-.74-.12-1.2-.26v1.61c0,.58-.14.79-.62.9h1.28c-.41.51-.63.76-1.17,1.33.62.08.89.1,1.7.12v1.38c-1.56-.05-2.55-.24-3.46-.67v.43c-1.27.14-2.81.25-4.94.34v-1.45l.88-.03v-4c-.43.19-.65.26-1.18.39v-1.52ZM44.63,40.43v-.62c-.45.3-.52.35-.97.62h.97ZM47.13,41.61v-.31h-3.31v.31h3.31ZM47.13,42.74v-.32h-3.31v.32h3.31ZM45.23,44.9c-.49-.53-.57-.61-.99-1.21h-.43v1.3l1.42-.09ZM45.98,39.78c-.33-.26-.38-.3-.68-.56-.27.26-.32.3-.63.56h1.31ZM45.95,43.69c.37.37.42.42.82.75.34-.35.39-.41.62-.75h-1.44ZM46.98,40.43c-.39-.21-.44-.24-.81-.5v.5h.81Z"/>
            <path class="cls-14" d="M51.17,41.08v-1.39h1.38v-1.65h1.61v1.65h1.16v1.39h-1.16v.5l1.01.73v1.62c.99-.77,1.57-1.67,1.88-2.85h-1.45v-1.38h1.93v-1.65h1.53v1.65h.74v1.38h-.74v4.12c.02.98-.28,1.32-1.22,1.37h-1.17v-1.39h.87v-1.96c-.67,1.38-1.53,2.32-2.56,2.78v-1.98l-.81-.74v3.29h-1.61v-2.82c-.53,1-.92,1.54-1.39,1.9v-2.33c.5-.53.96-1.38,1.2-2.22h-1.19Z"/>
            <path class="cls-14" d="M64.25,37.95c-.04.34-.05.39-.09.69h1.86v-.67h1.59v.67h2.22v1.34h-2.22v.41h1.97v1.8c-.03.76-.37,1.04-1.3,1.04h-.74c-.07.68-.17,1.03-.45,1.64.54.18,1.2.24,2.77.25v1.41c-1.9-.02-2.77-.16-3.72-.59-.65.44-1.43.68-2.47.73v-1.55c.49,0,.92-.08,1.1-.2-.37-.42-.67-.93-.82-1.4h1.46c.16.29.2.35.35.51.12-.25.15-.36.2-.79h-1.87v-2.84h1.94v-.41h-1.99v-.92c-.21.64-.37.99-.72,1.64v5.88h-1.43v-4.05c-.34.33-.45.42-.74.57v-2.02c.88-.88,1.4-1.86,1.63-3.12h1.49ZM66.02,42.05v-.56h-.56v.56h.56ZM68.11,42.05v-.56h-.5v.56h.5Z"/>
            <path class="cls-14" d="M79.55,38.15v6.37c0,1.08-.07,1.34-.48,1.72-.3.22-.53.26-1.29.27h-.97v-1.43h1.14v-1.04h-1.46v2h-1.61v-2h-1.4c-.17,1.37-1.16,2.44-2.39,2.58v-1.71c.69-.42.81-.72.79-1.91v-4.86h7.67ZM74.89,40.44v-.77h-1.36v.77h1.36ZM74.89,41.84h-1.36v.88h1.36v-.88ZM77.95,39.66h-1.46v.77h1.46v-.77ZM77.95,41.84h-1.46v.88h1.46v-.88Z"/>
            <path class="cls-14" d="M86.22,44.89c.9-.03,1.32-.17,1.66-.59.34-.4.55-1.19.55-2.03,0-.73-.16-1.36-.45-1.79-.2-.29-.43-.42-.94-.5-.37,2.34-.49,2.99-.79,4-.25.86-.5,1.34-.85,1.65-.31.28-.71.45-1.07.45-.61,0-1.32-.39-1.75-.94-.44-.58-.72-1.54-.72-2.55,0-.92.22-1.8.63-2.47.72-1.19,1.94-1.77,3.69-1.77,2.57,0,3.88,1.33,3.88,3.93,0,1.49-.48,2.74-1.3,3.41-.61.5-1.36.72-2.45.72h-.08v-1.52ZM84.12,40.49c-.43.47-.69,1.26-.69,2.13,0,.94.3,1.59.74,1.59.23,0,.41-.18.52-.52.2-.62.54-2.34.73-3.8-.66.1-.98.24-1.31.6Z"/>
            <path class="cls-14" d="M91.83,44.61c.78,0,1.21-.23,1.59-.84l1.53-2.36h-2.98v-1.46h4.54v-1.68h1.69v1.68h1.82v1.46h-1.82v5.05h-1.69v-4.39l-1.65,2.52c-.73,1.21-1.48,1.62-3.02,1.69v-1.67Z"/>
            <path class="cls-14" d="M104.65,44.63c1.76-.02,2.35-.68,2.32-2.56v-3.92h1.71v3.6c0,1.79-.17,2.62-.74,3.32-.63.78-1.69,1.17-3.16,1.17h-3.08v-1.61h2.96ZM101.7,38.19h1.71v5.12h-1.71v-5.12Z"/>
            <path class="cls-14" d="M111.19,44.66h3.26c2.25,0,2.81-.54,2.85-2.67v-2.33h1.69v2.37c0,1.63-.29,2.53-1.1,3.29-.74.69-1.63.91-3.65.92h-3.04v-1.59ZM115.24,40.72c-1.94-.39-2.8-.54-4-.68v-1.56c1.36.2,2.4.38,4,.7v1.54ZM115.24,43.35c-1.65-.34-2.06-.41-4-.71v-1.61l.7.12c1.93.33,2.05.36,3.3.63v1.56ZM118.08,37.94v1.41h-.88v-1.41h.88ZM118.37,37.94h.88v1.41h-.88v-1.41Z"/>
            <path class="cls-14" d="M124.26,40.37v-2.17h1.65v2.17h3v1.58h-3.04c-.03,2.05-.33,2.88-1.34,3.72-.76.56-1.54.73-3.33.77v-1.61c1.36-.04,1.71-.1,2.2-.43.64-.47.77-.88.8-2.45h-3.26v-1.58h3.31Z"/>
            <path class="cls-14" d="M133.07,38.28v4.1c.04,2.39-.98,3.85-2.86,4.09v-1.79c.91-.27,1.21-.78,1.26-2.16v-4.25h1.6ZM134.1,38.28h1.63v6.2c1.31-.07,1.48-.3,1.5-2.14v-2.2h1.58v2.43c0,1.58-.19,2.29-.76,2.83-.6.56-1.29.76-2.52.77h-1.42v-7.9Z"/>
            <path class="cls-14" d="M140.82,39.32c1.69.56,2.47.87,4.08,1.66.72-1.85.73-1.89.97-2.68h1.87c-.47,1.24-.57,1.54-.74,1.94l-.4.98c-.08.18-.16.37-.24.56,1.21.63,1.4.72,2.02,1.07v1.96c-.73-.48-.76-.5-1.47-.91-.38-.23-.74-.44-1.09-.65-.88,1.86-1.15,2.23-1.98,2.69-.75.39-1.37.49-3.11.51v-1.7c2.51-.04,2.79-.22,3.6-2.27-.85-.49-2.18-1.06-3.52-1.52v-1.64Z"/>
            <path class="cls-14" d="M158.72,44.34v1.64h-8.34v-1.64h8.34ZM151.13,38.73h6.94v1.59h-6.94v-1.59Z"/>
            <path class="cls-14" d="M160.6,44.55h4.4v-2.59c0-.5-.12-.62-.58-.62h-3.08v-1.54h3.65c.56,0,.88.11,1.21.4.39.41.46.68.45,1.59v2.77h1.85v1.4h-7.89v-1.4Z"/>
            <path class="cls-14" d="M177.63,41.51v1.6h-7.71v-1.6h7.71Z"/>
            <path class="cls-14" d="M180.24,41.88h2.04v-1.04h-2v-1.37h2v-1.31h1.59v1.31h3.23v1.37h-3.23v1.04h3.23v.95h.87c.04.52.05.76.05,1.1,0,.74-.06,1.05-.27,1.43-.42.76-1.21,1.08-2.63,1.08-1.29,0-2.02-.17-2.39-.56-.33-.34-.44-.74-.44-1.57v-1.12h-2.04v-1.32ZM183.88,43.2v.76c0,.54.03.68.16.81s.4.2.85.2c1.09,0,1.48-.28,1.48-1.1,0-.12,0-.35-.04-.67h-2.45Z"/>
            <path class="cls-14" d="M190.11,39.09h1.54l.41.81c.4-.24.56-.38.86-.7h-1v-1.17h3.25v.66l.14.15.4-.66h1.51l-.91,1.47c.16.12.18.14.33.24l.46-.81h1.49l-.84,1.31c.42.14.5.17,1.02.3v1.53c-.41-.1-.5-.12-.78-.21v1c0,.83-.4,1.16-1.43,1.14h-5.57v-2.17c-.34.12-.42.15-.89.27v-1.46c.39-.1.44-.12.76-.24l-.73-1.49ZM191.93,45.13l-.36-.76h1.74l.29.76h1.72l.31-.76h1.7l-.4.76h1.55v1.29h-8.11v-1.29h1.54ZM196.97,41.59c-.3-.1-.35-.12-.69-.26h-3.94l-.46.26h5.09ZM196.44,43.12v-.54h-3.93v.54h3.93ZM195.06,40.33c-.26-.2-.31-.24-.67-.64-.35.34-.41.4-.71.64h1.37Z"/>
            <path class="cls-14" d="M201.71,38.19h1.47v1.99h.86v1.37h-.86v1.88c.39-.13.45-.15.86-.31v.6c.42-.32.57-.48.83-.88h-.82v-1.11h5.55v1.11h-3.19l-.12.23h3.08v.27c0,.77-.04,1.89-.07,2.14-.1.77-.51,1.05-1.5,1.05h-.38v-1.08c-.3.53-.41.68-.65,1h-1.34c.57-.8,1.07-1.6,1.45-2.34h-.26c-.42.85-.97,1.68-1.57,2.34h-1.51c.68-.57,1.54-1.64,1.89-2.34h-.1c-.68.77-.98,1.04-1.5,1.26v-.69c-.93.32-2.07.65-3.01.88v-1.57c.41-.07.48-.08.88-.18v-2.26h-.88v-1.37h.88v-1.99ZM209.15,38.13v2.09c0,1.09-.24,1.31-1.41,1.29h-3.21v-3.38h4.62ZM207.71,39.45v-.32h-1.77v.32h1.77ZM207.71,40.52v-.33h-1.77v.33h1.77ZM208.03,44.11c-.25.65-.33.85-.55,1.23h.24c.29-.03.3-.05.34-1.23h-.03Z"/>
          </g>
          <g>
            <path class="cls-12" d="M525.87,35.82l-1.88.07.08,2.97c.04,1.22-.67,1.26-2.1,1.32-.05-.3-.18-.76-.3-1.05.18,0,.38,0,.56-.01.71-.03.76-.03.75-.24l-.06-2.07c-.68.95-1.57,1.79-2.48,2.41-.19-.28-.5-.63-.79-.85.98-.58,1.93-1.46,2.63-2.41l-2.29.09-.02-1.1,2.89-.11-.04-1.49h1.3c0,.08-.05.15-.21.18l.04,1.26,1.89-.07.02,1.1Z"/>
            <path class="cls-12" d="M527.17,35.86l5.94-.64.1,1.16-5.63.6c-.04.08-.14.14-.24.17l-.17-1.3Z"/>
            <path class="cls-12" d="M534.49,33.16l4.38-.78.06-.06,1.04.53c-.03.05-.07.11-.12.15-.23,2.95-1.21,4.46-3.23,5.77-.2-.26-.58-.63-.84-.84,1.74-1.07,2.74-2.55,2.79-4.36l-3.9.69-.17-1.11ZM539.73,30.98c.42-.07.81.23.88.68.07.45-.21.87-.63.94-.42.07-.81-.23-.88-.67-.07-.46.23-.87.63-.94ZM540.32,31.71c-.04-.28-.29-.47-.55-.42-.26.05-.44.31-.4.59.04.28.29.47.55.42.28-.05.44-.33.4-.59Z"/>
            <path class="cls-12" d="M541.84,31.35c.74.04,1.66.24,2.24.46l-.33,1.18c-.57-.23-1.49-.43-2.2-.52l.28-1.11ZM542.61,36.42c2.13-1.32,3.4-3.17,3.74-5.41.37.19.79.31,1.15.42-.41,2.24-1.71,4.25-3.79,5.7,0,.09-.03.18-.09.23l-1.01-.95Z"/>
            <path class="cls-12" d="M553.58,28.58l1.52,5.14-1.09.35-.11-.37-3.84,1.24-.31-1.05,3.84-1.24-.79-2.67-3.78,1.22-.31-1.05,4.87-1.57Z"/>
            <path class="cls-12" d="M555.71,29.62l5.59-2.23.4,1.08-5.29,2.11c-.02.09-.09.18-.19.23l-.51-1.2Z"/>
            <path class="cls-12" d="M568.14,24.43l-2.22,1.06c.57,1.61.63,2.9-.39,4.48-.3-.12-.83-.25-1.16-.31.94-1.35.97-2.35.52-3.67l-2.26,1.08-.46-1.01,2.3-1.1-.77-1.7,1.32-.53c.03.1,0,.19-.14.28.23.52.44,1,.63,1.45l2.17-1.03.46,1.01Z"/>
            <path class="cls-12" d="M569.15,23.65l5.26-2.97.54,1.01-4.98,2.82c0,.09-.07.19-.16.25l-.66-1.11Z"/>
          </g>
          <g>
            <path class="cls-12" d="M435.11,36.45c-.02.07-.07.13-.14.17-.3,1.04-.55,1.71-1.04,2.62.78.48,1.95,1.29,2.69,1.88l-.9,1.04c-.63-.6-1.79-1.51-2.41-1.92-.62.89-1.42,1.84-2.26,2.54-.22-.22-.68-.59-.97-.77,1.64-1.19,2.9-3.04,3.37-4.67l-3.25.43-.14-1.09,3.91-.52.18-.08.96.36Z"/>
            <path class="cls-12" d="M440.44,37.97c-.53.51-1.39,1.23-2.04,1.72-.2-.22-.58-.57-.86-.74,1.74-1.2,3.67-3.17,4.52-4.73l1.28.6c-.03.07-.11.12-.24.14-.47.67-1.03,1.38-1.63,2.03l.29.04c0,.08-.07.16-.21.21l.76,3.83-1.21.24-.66-3.34Z"/>
            <path class="cls-12" d="M445.05,36.34l6.12-1.63.3,1.11-5.79,1.54c-.03.09-.12.17-.23.21l-.39-1.24Z"/>
            <path class="cls-12" d="M452.97,32.28c.43.39,1.05,1.15,1.32,1.64l-.93.67c-.25-.48-.86-1.25-1.29-1.66l.9-.65ZM455.12,31.16c.29.46.76,1.32.97,1.89l-1.06.53c-.21-.58-.67-1.43-.96-1.91l1.06-.51ZM458.22,30.81c0,.08-.07.17-.2.21.15,2.86-.59,4.63-2.47,6.43-.23-.17-.72-.48-1.03-.6,1.8-1.59,2.52-3.23,2.2-6.03h1.5Z"/>
            <path class="cls-12" d="M464.64,28.01l2.03,4.95-1.12.46-.14-.35-3.93,1.61-.41-1.01,3.93-1.61-1.05-2.57-3.88,1.59-.41-1.01,4.99-2.05Z"/>
            <path class="cls-12" d="M467.01,28.82l5.71-2.76.5,1.04-5.41,2.62c-.01.09-.09.19-.18.25l-.62-1.14Z"/>
            <path class="cls-12" d="M479.63,22.45l-2.24,1.27c.71,1.55.86,2.83-.1,4.51-.32-.09-.88-.17-1.24-.2.89-1.44.86-2.44.29-3.71l-2.28,1.3-.55-.96,2.33-1.32-.92-1.62,1.34-.65c.04.1,0,.19-.12.29.27.5.53.95.76,1.38l2.19-1.24.55.96Z"/>
            <path class="cls-12" d="M480.65,21.56l5.3-3.47.63.96-5.02,3.29c0,.09-.06.2-.15.27l-.76-1.05Z"/>
          </g>
        </g>
      </g>
    </g>
  </g>
</svg>