<?xml version="1.0" encoding="UTF-8"?>
<svg xmlns="http://www.w3.org/2000/svg" viewBox="0 0 162.24 34.98">
  <defs>
    <style>
      .cls-1 {
        fill: #f18d09;
      }

      .cls-2 {
        isolation: isolate;
      }

      .cls-3 {
        fill: #231815;
      }

      .cls-4 {
        fill: #fff;
      }

      .cls-5 {
        fill: #f29014;
        mix-blend-mode: multiply;
      }
    </style>
  </defs>
  <g class="cls-2">
    <g id="_レイヤー_2" data-name="レイヤー 2">
      <g id="_レイヤー_1-2" data-name="レイヤー 1">
        <g>
          <g>
            <rect class="cls-1" width="162.24" height="17.49"/>
            <rect class="cls-5" width="8.29" height="17.49"/>
          </g>
          <g>
            <path class="cls-3" d="M45.36,23.02c-.02.08-.03.09-.06.22-.24,1.08-.62,1.95-1.18,2.72-.34-.25-.46-.31-.81-.45.46-.55.71-1.04.98-1.84.12-.37.17-.59.2-.86l.86.22ZM46.07,21.13c0-.35,0-.53-.04-.72h.95c-.02.2-.03.3-.03.74v.37h1.6c.48,0,.64,0,.9-.05v.86c-.25-.03-.43-.04-.89-.04h-1.62v3.4c0,.36,0,.56.04.78h-.95c.04-.22.04-.43.04-.79v-3.39h-1.55c-.46,0-.64,0-.88.04v-.86c.27.04.42.05.9.05h1.54v-.39ZM48.47,22.81c.05.24.11.42.24.78.32.85.57,1.34,1,1.88-.37.19-.48.26-.81.49-.53-.85-.82-1.51-1.15-2.62-.06-.2-.06-.22-.11-.33l.83-.21Z"/>
            <path class="cls-3" d="M53.01,20.68q-.03.2-.07,1.57c-.05,1.37-.2,2.16-.57,2.88-.24.48-.5.84-.97,1.3-.27-.35-.38-.46-.71-.68.34-.28.51-.47.72-.81.5-.81.67-1.71.67-3.67,0-.39,0-.45-.03-.64l.95.05ZM54.86,20.59c-.03.2-.04.32-.05.67l-.04,3.98c.49-.23.77-.44,1.07-.8.32-.38.53-.76.69-1.28.24.32.34.41.66.66-.29.69-.65,1.22-1.12,1.63-.4.34-.76.55-1.49.84-.15.06-.21.08-.3.13l-.45-.48c.05-.2.06-.36.06-.74l.04-3.95v-.21c0-.17,0-.33-.03-.46h.95Z"/>
            <path class="cls-3" d="M59.19,23.6c-.46,0-.64,0-.88.03v-.85c.26.04.41.05.9.05h1.27v-1.21h-.85c-.5,0-.65,0-.89.03v-.85c.26.04.41.05.9.05h3.19c.5,0,.65,0,.91-.05v.85c-.24-.03-.38-.03-.9-.03h-1.51v1.21h1.95c.48,0,.64,0,.9-.05v.85c-.24-.03-.43-.03-.88-.03h-1.96v1.12c0,.42.04.52.19.6.13.06.35.09.72.09.25,0,.68-.02,1.04-.06.27-.03.41-.05.65-.12l.02.89s-.09,0-.12,0q-.06,0-.57.04c-.31.02-.78.04-1.11.04-1.37,0-1.69-.23-1.69-1.22v-1.38h-1.28Z"/>
            <path class="cls-3" d="M65.57,25.26c.6-.04,1.44-.24,2.07-.52.88-.38,1.53-.92,2.08-1.72.31-.45.5-.83.71-1.4.27.33.38.43.74.69-.6,1.28-1.26,2.11-2.22,2.75-.71.48-1.58.82-2.67,1.05-.28.06-.3.06-.46.12l-.26-.97ZM66.17,20.91c.83.52,1.27.84,1.81,1.35l-.6.76c-.56-.6-1.13-1.06-1.79-1.42l.58-.69Z"/>
            <path class="cls-3" d="M75.14,24.47c-.4.9-.85,1.32-1.42,1.32-.8,0-1.37-.81-1.37-1.94,0-.77.27-1.49.77-2.04.59-.64,1.42-.98,2.41-.98,1.68,0,2.77,1.02,2.77,2.6,0,1.21-.63,2.18-1.7,2.61-.34.14-.61.21-1.1.29-.12-.37-.2-.53-.43-.82.64-.08,1.06-.2,1.39-.39.61-.34.97-1,.97-1.75,0-.67-.3-1.22-.86-1.55-.22-.13-.4-.18-.71-.21-.13,1.1-.38,2.07-.73,2.86ZM74.11,21.97c-.59.42-.95,1.14-.95,1.89,0,.57.24,1.03.55,1.03.23,0,.47-.29.72-.9.27-.63.5-1.58.58-2.37-.36.04-.62.14-.9.34Z"/>
            <path class="cls-3" d="M79.53,24.68c.27.04.42.05.9.05h4.02c.47,0,.63,0,.9-.05v.94c-.25-.03-.43-.04-.88-.04h-4.05c-.46,0-.64,0-.88.04v-.94ZM80.23,21.27c.25.04.41.05.83.05h2.75c.41,0,.57,0,.83-.05v.92c-.23-.03-.4-.04-.82-.04h-2.77c-.42,0-.59,0-.82.04v-.92Z"/>
            <path class="cls-3" d="M86.85,25.26c.6-.04,1.44-.24,2.07-.52.88-.38,1.53-.92,2.08-1.72.31-.45.5-.83.71-1.4.27.33.38.43.74.69-.6,1.28-1.26,2.11-2.22,2.75-.71.48-1.58.82-2.67,1.05-.28.06-.3.06-.46.12l-.26-.97ZM87.44,20.91c.83.52,1.27.84,1.81,1.35l-.6.76c-.56-.6-1.13-1.06-1.79-1.42l.58-.69Z"/>
            <path class="cls-3" d="M93.45,24.68c.27.04.42.05.9.05h4.02c.47,0,.63,0,.9-.05v.94c-.25-.03-.43-.04-.88-.04h-4.05c-.46,0-.64,0-.88.04v-.94ZM94.16,21.27c.25.04.41.05.83.05h2.75c.41,0,.57,0,.83-.05v.92c-.23-.03-.4-.04-.82-.04h-2.77c-.42,0-.59,0-.82.04v-.92Z"/>
            <path class="cls-3" d="M105.65,21.62c-.07.1-.1.17-.18.42-.32,1.06-.82,2.01-1.44,2.7-.64.74-1.41,1.28-2.49,1.78-.2-.35-.29-.47-.59-.74.7-.29,1.09-.5,1.53-.83,1-.74,1.66-1.7,2.04-2.96l-2.11.03c-.43.68-.97,1.28-1.64,1.79-.21-.29-.31-.38-.68-.6.8-.55,1.3-1.11,1.81-2.03.22-.4.33-.67.36-.92l.96.19q-.04.06-.12.22s-.02.03-.09.2t-.09.18-.11.22c.09,0,.2-.01.34-.01l1.53-.02c.27,0,.35-.01.51-.07l.45.44Z"/>
            <path class="cls-3" d="M108.76,20.26c-.02.19-.04.38-.04.69,0,.55,0,.86-.01,1.25.22-.28.39-.55.52-.85l.5.5c-.41.57-.64.85-1.05,1.25-.02.32-.03.44-.06.71.32.51.57.78,1.06,1.16-.19.27-.26.39-.38.68-.4-.37-.58-.6-.83-1.01-.1.33-.21.61-.37.91-.22.43-.39.67-.76,1.04-.2-.32-.3-.43-.53-.62.33-.3.5-.53.71-.94.41-.81.49-1.48.49-4.1,0-.27-.01-.44-.05-.67h.8ZM107.78,21.6c-.02.94-.08,1.48-.24,2.08l-.65-.26c.19-.53.24-.97.24-1.89l.64.07ZM112.99,23.68c-.08.1-.08.11-.23.38-.45.81-1.09,1.49-1.8,1.93-.45.28-.89.47-1.64.7-.11-.32-.23-.52-.41-.74,1.21-.28,2.02-.71,2.67-1.43.33-.36.57-.8.71-1.23l.71.39ZM110.6,21.36c-.1.69-.17,1.04-.33,1.51-.17.5-.32.8-.63,1.28-.19-.28-.3-.4-.54-.58.28-.39.42-.64.57-1.06.15-.43.22-.76.29-1.36l.64.22ZM111.68,20.24c-.03.22-.04.48-.04.76v2.88c0,.22-.06.37-.16.46-.13.11-.36.15-.78.15-.04,0-.11,0-.2,0h-.22c-.02-.29-.06-.44-.13-.71.22.04.44.06.59.06.15,0,.19-.04.19-.19v-2.65c0-.27-.01-.54-.04-.76h.81ZM112.49,21.08c.27.87.5,1.33,1,1.98-.3.21-.44.33-.6.51-.2-.29-.33-.52-.55-.97-.17-.35-.27-.63-.46-1.25l.6-.27Z"/>
            <path class="cls-3" d="M116.13,20.6c0,.27.08.77.17,1.13.48-.2.89-.28,1.35-.28h.19c.15-.6.2-.85.2-1.09l.88.18c-.04.08-.06.13-.07.2-.1.38-.19.72-.22.82.41.1.66.22.94.42.56.41.86,1.01.86,1.74,0,1.03-.6,1.86-1.64,2.3-.34.15-.6.22-1.14.34-.11-.35-.17-.47-.43-.82.48-.04.76-.1,1.14-.27.48-.2.79-.45.98-.75.15-.26.24-.55.24-.86,0-.46-.16-.81-.51-1.09-.19-.15-.34-.22-.63-.3-.28.96-.76,1.95-1.28,2.61-.25.32-.55.61-.83.77-.22.13-.41.19-.65.19-.72,0-1.21-.63-1.21-1.58,0-.86.39-1.6,1.12-2.15-.04-.1-.16-.71-.24-1.11-.01-.09-.03-.13-.07-.24l.85-.16ZM115.24,24.23c0,.46.2.77.48.77.2,0,.42-.15.66-.46-.32-.71-.43-1.03-.57-1.61-.39.41-.56.81-.56,1.3ZM116.9,23.86s.02-.06.04-.09c.28-.48.47-.92.7-1.62-.48,0-.83.08-1.21.28.11.48.2.77.42,1.32.02.06.03.07.04.1h0Z"/>
            <path class="cls-3" d="M127.2,20.15l-5.31,6.58h-1.03l5.3-6.58h1.04Z"/>
            <path class="cls-3" d="M36.64,29.26c.21,0,.29,0,.41-.01,0-.46.36-.81.81-.81s.81.36.81.81-.37.81-.81.81c-.04,0-.08,0-.13-.01-.57,2.29-1.81,3.72-4.02,4.64-.18-.36-.3-.53-.62-.83,1.94-.6,3.21-1.91,3.66-3.77h-3.33c-.52,0-.65,0-.88.04v-.91c.25.04.42.05.9.05h3.21ZM37.4,29.24c0,.25.2.46.46.46s.46-.21.46-.46-.2-.46-.46-.46-.46.2-.46.46Z"/>
            <path class="cls-3" d="M41.19,28.85c-.03.19-.04.36-.04.71l-.04,4c.73-.14,1.39-.41,1.91-.77.64-.44,1.08-.92,1.43-1.6.27.36.37.46.67.71-.48.74-.93,1.21-1.56,1.63-.7.47-1.41.74-2.55.96-.19.04-.27.06-.42.12l-.45-.54c.05-.19.06-.32.06-.72l.03-3.78q0-.49-.04-.72h.99Z"/>
            <path class="cls-3" d="M46.65,32.66c1.7.22,3.02.54,4.65,1.11l-.3.88c-.73-.32-1.37-.53-2.48-.78-.86-.2-1.44-.31-2.2-.41l.33-.8ZM47.21,30.68c1.12.14,2.24.39,3.65.81l-.27.86c-.55-.22-1.05-.36-1.93-.56-.6-.14-1.05-.22-1.77-.31l.32-.81ZM47.32,28.75c1.35.16,2.23.34,3.79.76l-.28.86c-1.16-.39-2.59-.69-3.82-.81l.31-.81Z"/>
            <path class="cls-3" d="M56.07,30.41c-.02.13-.02.14-.03.57-.03,1.2-.22,1.87-.69,2.48-.42.54-.93.9-1.81,1.26-.18-.38-.27-.5-.55-.8.57-.17.88-.32,1.22-.6.71-.57.94-1.17.94-2.49,0-.21,0-.27-.04-.42h.95ZM58.91,29.53c-.1.12-.1.13-.28.49-.25.52-.65,1.04-1.08,1.41-.28.25-.51.4-.84.58-.21-.29-.31-.4-.63-.64.47-.21.73-.37,1.02-.64.29-.27.5-.55.67-.89h-3.68c-.49,0-.66,0-.95.04v-.88c.27.04.48.06.96.06h3.66c.42,0,.48,0,.68-.06l.47.53Z"/>
            <path class="cls-3" d="M62.47,28.87c-.08.15-.08.17-.18.5-.53,1.75-.94,2.91-1.39,3.99,1.1-.08,2.31-.23,2.91-.36-.08-.17-.16-.32-.33-.64-.31-.58-.43-.78-.67-1.11l.79-.31c.65.95,1.27,2.13,1.69,3.24l-.85.44q-.09-.29-.34-.87-.09.02-.25.06c-.71.15-1.87.29-3.96.5-.39.04-.5.05-.64.08l-.12-.95h.18c.14,0,.31,0,.6-.02.37-.88.65-1.67,1.02-2.82.33-1.03.46-1.53.51-1.94l1.02.2Z"/>
            <path class="cls-3" d="M66.8,30.23c.55.33.69.43,1.23.89l-.44.66c-.51-.48-.73-.65-1.25-.95l.46-.6ZM68,32.67c-.18.58-.34.97-.6,1.53-.09.19-.12.24-.23.43-.05.1-.06.1-.11.21l-.67-.59c.37-.44.64-1.01,1-2.05l.6.46ZM68.13,28.68c.22.04.42.04.78.04h3.14c.34,0,.56-.01.79-.04v.76c-.24-.02-.47-.04-.75-.04h-.78v.62h.64c.29,0,.55-.01.68-.03-.01.15-.02.42-.02.78v3.22c0,.43,0,.67.04.9h-.75v-.35h-2.88v.35h-.74c.03-.29.04-.55.04-.88v-3.29c0-.32,0-.57-.03-.72.2.01.35.02.71.02h.57v-.62h-.67c-.26,0-.51,0-.69.03l-.45.58c-.48-.48-.68-.63-1.16-.93l.49-.57c.48.3.68.46,1.06.81v-.64ZM70.22,30.67c-.04.96-.19,1.37-.68,1.89-.19-.24-.29-.33-.53-.48v.67h2.88v-.53c-.18.01-.22.01-.34.01-.39,0-.55-.02-.69-.1-.15-.08-.22-.22-.22-.43v-1.04h-.41ZM69.01,30.67v1.35c.21-.18.29-.29.38-.5.11-.25.13-.39.15-.85h-.54ZM69.01,33.87h2.88v-.49h-2.88v.49ZM70.64,30.03v-.62h-.41v.62h.41ZM71.9,30.67h-.6v.76c0,.14.05.18.25.18.05,0,.08,0,.34,0v-.93Z"/>
            <path class="cls-3" d="M75.75,34.98c-.39-.56-.57-.87-.76-1.38-.25-.64-.37-1.26-.37-1.93s.11-1.24.36-1.87c.2-.51.37-.82.77-1.38h.98c-.49.62-.69.93-.89,1.39-.25.57-.37,1.17-.37,1.86s.12,1.34.37,1.92c.2.46.39.77.89,1.39h-.98Z"/>
            <path class="cls-3" d="M80.24,29.24c0-.26-.01-.49-.05-.71h.92c-.04.24-.05.43-.05.71v4.37h1.7v-3.14c0-.27-.02-.47-.04-.67h.88c-.03.24-.04.44-.04.67v3.54c0,.31.01.57.05.86h-.84v-.5h-4.11v.5h-.83c.03-.27.04-.49.04-.84v-3.54c0-.24-.01-.48-.04-.69h.87c-.03.19-.04.38-.04.69v3.13h1.59v-4.37Z"/>
            <path class="cls-3" d="M89.76,29.73c.36.44.69.61,1.48.74-.15.15-.23.29-.36.59.23,0,.32-.01.46-.04v.76c-.15-.02-.27-.03-.45-.04v2.56c0,.53-.19.64-1.06.64-.08,0-.12,0-.47,0-.01-.28-.05-.46-.15-.73.22.03.46.05.67.05.23,0,.28-.03.28-.16v-2.36h-2.75v1.79c0,.27,0,.62.02.8h-.6v-.34h-1.17v.6h-.63c.03-.22.04-.48.04-.83v-3.47c0-.29-.01-.48-.04-.73h.65c-.01.19-.02.36-.02.72v3.02h.27v-3.94c0-.39-.01-.59-.04-.82h.71c-.03.24-.04.41-.04.8v3.96h.26v-3.01c0-.34,0-.53-.04-.73h.64c-.03.2-.03.36-.03.73v.78h.43c-.11-.22-.18-.35-.38-.57.4-.08.64-.18.9-.34.18-.12.27-.22.38-.41h-.47c-.25,0-.43,0-.65.04v-.71c.2.03.42.04.69.04h.62c.02-.18.03-.24.03-.4,0-.06-.01-.15-.02-.19h.77c-.02.06-.02.17-.04.36,0,.07-.01.12-.03.23h.74c.28,0,.55-.01.73-.04v.71c-.25-.03-.48-.04-.7-.04h-.67ZM89.69,33.49c0,.26,0,.38.01.5-.18-.01-.28-.02-.45-.02h-.81v.4h-.67c.01-.13.03-.36.03-.55v-1.21c0-.25,0-.34-.02-.53.13.01.25.02.51.02h.9c.28,0,.39,0,.52-.02-.01.14-.01.27-.01.54v.88ZM90.64,31.06c-.57-.17-1.02-.48-1.34-.92-.29.44-.67.73-1.2.92h2.54ZM88.44,33.37h.64v-.71h-.64v.71Z"/>
            <path class="cls-3" d="M93.68,34.44c.04-.27.06-.55.06-.91v-3.86h-.34c-.26,0-.46.01-.72.04v-.89c.22.04.37.04.7.04h.64c.36,0,.46,0,.71-.03-.04.41-.05.74-.05,1.16v3.54c0,.37.01.62.05.91h-1.06Z"/>
            <path class="cls-3" d="M97.57,34.44c-.54,0-.66,0-.9.04.04-.4.09-.64.18-.9.19-.51.5-.96.96-1.37.25-.22.46-.38,1.16-.85.64-.44.84-.67.84-1.03,0-.48-.37-.77-.97-.77-.41,0-.71.14-.89.41-.12.17-.17.32-.22.64l-1-.12c.1-.53.22-.82.48-1.12.35-.41.9-.62,1.61-.62,1.22,0,1.98.59,1.98,1.55,0,.46-.15.8-.5,1.12-.2.18-.27.24-1.18.86-.31.22-.66.51-.83.7-.21.22-.29.36-.4.63h1.96c.44,0,.79-.02,1.02-.06v.92c-.33-.03-.61-.04-1.06-.04h-2.25Z"/>
            <path class="cls-3" d="M103.1,31.19c0-.15,0-.26-.02-.41.15.01.3.02.49.02h1.53v-.91h-1.46c-.36.57-.71.97-1.16,1.38-.2-.3-.28-.39-.52-.62.71-.61,1.08-1.07,1.37-1.76.1-.22.15-.37.17-.51l.83.17c-.04.08-.06.1-.11.21,0,.02-.08.17-.2.44h3.28c.33,0,.5,0,.71-.04v.76c-.22-.03-.4-.04-.71-.04h-1.43v.91h1.13c.32,0,.51,0,.72-.03v.74c-.21-.02-.4-.03-.7-.03h-1.15v1.13h1.62c.32,0,.55-.01.76-.04v.8c-.22-.03-.46-.04-.76-.04h-1.62v.88c0,.36,0,.55.04.75h-.86c.03-.2.04-.39.04-.76v-.86h-2.35c-.31,0-.53.01-.76.04v-.8c.22.03.45.04.76.04h.36v-1.43ZM105.1,32.62v-1.13h-1.26v1.13h1.26Z"/>
            <path class="cls-3" d="M111.49,31.69c0,.46-.37.83-.83.83s-.83-.37-.83-.83.37-.83.83-.83.83.37.83.83Z"/>
            <path class="cls-3" d="M115.32,29.39c.19-.34.34-.69.41-.96l.89.12s-.01.04-.05.11c0,0-.01.03-.04.06,0,.01-.01.04-.02.06-.14.29-.18.39-.32.61h1.79c.34,0,.54,0,.8-.04-.02.25-.04.5-.04.87v3.72c0,.42.01.67.04.92h-.84v-.36h-3.55v.36h-.83c.03-.25.04-.53.04-.93v-3.71c0-.36-.02-.63-.04-.86.24.03.45.04.77.04h.97ZM114.4,31.53h3.55v-1.41h-3.55v1.41ZM114.4,33.75h3.55v-1.48h-3.55v1.48Z"/>
            <path class="cls-3" d="M121.19,30.27c-.1.97-.16,1.3-.41,2.05l-.68-.25c.27-.64.37-1.08.42-1.93l.67.14ZM122.21,31.02c0,1.23-.15,2-.54,2.75-.25.47-.53.85-.86,1.17-.14-.24-.34-.45-.57-.6.39-.37.62-.69.83-1.17.18-.38.25-.64.31-1.04.06-.41.1-.84.1-1.23v-1.58c0-.32-.02-.6-.05-.81h.82c-.03.17-.04.39-.04.8v1.71ZM122.83,30.15c.27.67.36.96.55,1.77l-.65.31c-.13-.78-.25-1.23-.49-1.83l.59-.24ZM124.23,28.72c-.04.23-.04.37-.04.8v4.05c0,.43.01.66.04.9h-.83c.03-.24.04-.48.04-.9v-4.03c0-.41,0-.59-.04-.81h.83ZM124.78,30.11c.3.61.42.9.7,1.7l-.62.37c-.21-.76-.36-1.18-.64-1.79l.56-.28ZM126.29,28.51c-.03.25-.04.48-.04.88v4.56c0,.47.01.7.04.95h-.82c.03-.24.04-.5.04-.95v-4.57c0-.41-.02-.63-.04-.87h.82Z"/>
            <path class="cls-3" d="M127.37,34.98c.5-.62.69-.93.89-1.39.25-.58.37-1.2.37-1.92s-.11-1.28-.36-1.86c-.2-.46-.41-.78-.9-1.39h.99c.39.55.56.86.76,1.38.25.64.36,1.2.36,1.87s-.12,1.29-.37,1.93c-.2.51-.37.82-.76,1.38h-.99Z"/>
            <path class="cls-3" d="M132.83,32.07q0-.17.02-.77c-.17.29-.34.53-.59.81-.1-.29-.18-.48-.36-.83.52-.51.93-1.17,1.24-1.93.14-.35.24-.69.27-.95l.79.24c-.06.16-.07.2-.14.4-.16.47-.26.71-.49,1.16v3.9c0,.33.01.58.04.85h-.82c.03-.25.04-.48.04-.85v-2.02ZM135.17,31.3v2.45c0,.14.04.18.19.22.17.04.38.06.88.06.79,0,1.09-.03,1.25-.13.08-.05.14-.17.17-.32.02-.13.03-.22.05-.55.31.13.43.16.76.22-.08.8-.18,1.07-.39,1.24-.27.19-.73.25-2.01.25s-1.64-.14-1.64-.7v-2.49c-.06.02-.11.04-.14.04-.2.07-.27.1-.41.16l-.06-.8c.17-.02.37-.07.61-.14v-.83c0-.33,0-.52-.04-.74h.83c-.04.2-.04.39-.04.71v.62l.72-.23v-1.14c0-.28-.01-.46-.04-.7h.81c-.03.22-.04.39-.04.68v.93l1.02-.33c.27-.08.43-.15.57-.21,0,.15,0,.2,0,.38-.01.84-.06,1.81-.12,2.26-.07.53-.25.68-.79.68-.13,0-.21,0-.38-.02-.04-.27-.08-.43-.2-.71.18.04.37.06.48.06.15,0,.18-.05.22-.38.04-.27.06-.74.06-1.3l-.86.28v1.82c0,.29,0,.46.04.7h-.81c.04-.22.04-.4.04-.72v-1.56l-.72.23Z"/>
          </g>
          <g>
            <path class="cls-4" d="M62.16,8.94v.79h2.49v3.65h-1.22v-.33h-3.53v.34h-1.22v-3.66h2.18v-.79h-2.73c-.16,1.42-.5,2.82-1.09,4.13l-1.2-.33c.29-.62.53-1.12.75-2.08.26-1.09.39-2.19.39-3.5s-.09-2.34-.12-2.78h7.9v2.7h-2.61v.82h3.23v1.04h-3.23ZM63.46,5.4h-5.27v.65h5.27v-.65ZM60.86,7.08h-2.66v.82h2.66v-.82ZM63.43,10.83h-3.53v1.12h3.53v-1.12Z"/>
            <path class="cls-4" d="M68.24,8.64c-.65-.49-1.15-.72-1.78-.98l.51-1.04c.61.25,1.14.52,1.84,1.03l-.57.99ZM68.54,12.03c-.08.17-.48,1.01-.5,1.09-.01.03.01.19.01.24,0,.09-.03.11-.08.11s-.16-.04-.32-.15l-.95-.68c.72-.93,1.28-2.15,1.62-3.15l.97.65c-.26.73-.62,1.59-.75,1.9ZM68.54,6.03c-.38-.37-.86-.76-1.45-1.11l.67-.96c.54.31,1.01.68,1.46,1.11l-.68.96ZM73.91,5.54v.87h1.95v6.92h-1.17v-.38h-3.9v.44h-1.14v-6.98h1.84c0-.44,0-.56-.01-.87h-1.83v-1.01h6.41v1.01h-2.14ZM74.69,9.83c-.11.08-.27.12-.38.12h-.78c-.41,0-.59-.21-.59-.6v-1.81h-.51c-.11,1.24-.23,1.58-.92,2.49l-.73-.46v.83h3.9v-.56ZM70.79,7.54v1.79c.46-.47.58-.91.67-1.79h-.67ZM74.69,11.32h-3.9v.61h3.9v-.61ZM72.94,5.54h-.45v.87h.45v-.87ZM74.69,7.54h-.78v1.14c0,.12.03.17.33.17.27,0,.33-.05.44-.16v-1.15Z"/>
            <path class="cls-4" d="M84.76,7.86c.55.5,1.1.99,1.58,1.56l-.85.75c-.13-.14-.3-.34-.71-.75-.58.08-1.23.13-1.7.17.15.02.29.04.29.14,0,.06-.09.11-.15.15v.55h2.31v.96h-2.31v.83h3.37v1.01h-7.64v-1.01h2.98v-.83h-2.36v-.96h2.36v-.76c-.64.04-1.55.1-1.62.1-.05,0-.36.01-.43.02-.03.01-.19.15-.25.15-.14,0-.17-.11-.18-.22l-.14-.96c.42.03.8.03,1.27.03.11-.15.33-.54.51-.94h-1.89c-.01.72-.02,1.3-.14,2.27-.18,1.41-.45,2.33-.83,3.22l-1.22-.37c.76-1.62.99-3.41.99-5.19,0-1.07-.04-2.56-.15-3.57h8.41v2.29h-7.06v.43h7.48v.91h-1.94ZM85.02,5.14h-5.8v.53h5.8v-.53ZM83.48,8.24l.33-.38h-1.4c-.17.32-.38.71-.53.92,1.31-.03,1.63-.05,2.12-.1-.17-.15-.19-.16-.53-.44Z"/>
            <path class="cls-4" d="M100.16,13.52c-2.53-.89-3.73-2.03-4.75-4.13h-1.06v2.43c1.09-.29,1.6-.46,2.08-.62v1.13c-1.76.62-3.04.95-3.64,1.1-.08.18-.12.28-.25.28-.12,0-.17-.24-.19-.3l-.3-1.09c.65-.13.82-.16,1.1-.23v-6.91h2.52v-1.09l1.26.02c.29,0,.36.04.36.14,0,.14-.18.25-.28.3v.62h2.66v4.06l.44.37s.23.19.23.3c0,.13-.14.13-.18.13-.06,0-.12,0-.21-.01-.4.38-.6.58-1.42,1.33.97.61,1.67.79,2.64.88l-.99,1.27ZM98.45,6.14h-4.09v.68h4.09v-.68ZM98.45,7.75h-4.09v.68h4.09v-.68ZM96.78,9.39c.26.56.52.87.84,1.23.54-.51.92-.92,1.2-1.23h-2.04Z"/>
            <path class="cls-4" d="M103.48,8.73c-.26-.22-.64-.53-1.55-.98l.64-.94c.4.18,1.02.51,1.58.96l-.67.96ZM103.9,12.42c-.06.14-.39.71-.39.8,0,.02.01.14.01.16s0,.06-.07.06c-.05,0-.15-.04-.28-.14l-.89-.66c.7-.96,1.2-2.05,1.62-3.17l.99.72c-.4,1.06-.86,1.95-.99,2.22ZM104.27,6.06c-.4-.33-.89-.71-1.5-1.03l.73-.95c.94.53,1.27.8,1.57,1.04l-.81.94ZM110.81,8.76c-.21-.38-.24-.44-.46-.84-1.3.17-2.62.31-3.93.43-.09.01-.55.03-.66.03-.2.02-.23.02-.28.09-.12.13-.13.14-.18.14-.08,0-.14-.18-.14-.19l-.34-1.22h.95c.54-.96,1.11-2.29,1.44-3.24l1.09.43c.22.09.33.14.33.26,0,.09-.06.12-.16.14-.15.02-.16.04-.26.25-.37.71-.74,1.42-1.13,2.12.55-.03,1.75-.09,2.66-.23-.37-.54-.54-.73-.71-.89l1-.67c.81.95,1.48,2.1,1.83,2.76l-1.04.64ZM109.69,13.22v-.37h-2.84v.41h-1.24v-4.18h5.3v4.14h-1.22ZM109.69,10.18h-2.84v1.57h2.84v-1.57Z"/>
          </g>
        </g>
      </g>
    </g>
  </g>
</svg>