<?xml version="1.0" encoding="UTF-8"?>
<svg xmlns="http://www.w3.org/2000/svg" viewBox="0 0 164.13 27.35">
  <defs>
    <style>
      .cls-1 {
        fill: #f18d09;
      }

      .cls-2 {
        isolation: isolate;
      }

      .cls-3 {
        fill: #231815;
      }

      .cls-4 {
        fill: #fff;
      }

      .cls-5 {
        fill: #f29014;
        mix-blend-mode: multiply;
      }
    </style>
  </defs>
  <g class="cls-2">
    <g id="_レイヤー_2" data-name="レイヤー 2">
      <g id="_テキスト1" data-name="テキスト1">
        <g>
          <g>
            <rect class="cls-1" width="164.13" height="17.49"/>
            <rect class="cls-5" width="8.39" height="17.49"/>
          </g>
          <g>
            <path class="cls-3" d="M39.42,23.28c.18.63.55,1.31,1.01,1.83.52.59,1.1.99,1.93,1.33-.24.28-.34.43-.51.81-.75-.38-1.23-.74-1.73-1.28-.46-.48-.8-1.04-1.06-1.7-.21.72-.58,1.32-1.14,1.88-.48.47-.98.8-1.67,1.1-.12-.27-.27-.48-.49-.74.5-.2.79-.35,1.13-.59.94-.67,1.41-1.45,1.58-2.64h-1.65c-.44,0-.64.01-.88.05v-.89c.22.04.47.05.88.05h1.72c.01-.35.02-.46.02-.83,0-.29-.02-.5-.05-.7h.93c-.04.25-.04.35-.05.82,0,.29,0,.45-.01.71h1.86c.4,0,.64-.01.88-.05v.89c-.28-.04-.49-.05-.88-.05h-1.81Z"/>
            <path class="cls-3" d="M44.82,23.95c-.24,0-.41.01-.6.04v-.5c-.34.34-.51.5-.88.78-.12-.24-.29-.45-.54-.69.87-.6,1.39-1.18,1.84-2.01.17-.31.25-.5.28-.71l.84.3c-.07.1-.11.17-.19.36-.26.55-.67,1.18-1.13,1.7.19.01.22.01.36.01h2.58c.17,0,.27,0,.43,0-.49-.55-.85-1.11-1.16-1.76-.03-.07-.1-.21-.15-.29l.78-.3c.05.18.12.33.27.61.46.84,1.06,1.47,1.94,2.03-.29.34-.35.42-.53.76-.39-.29-.56-.43-.87-.74v.24c0,1.45-.12,2.56-.29,2.93-.15.31-.41.41-1.03.41-.14,0-.25,0-.72-.03-.04-.31-.08-.48-.21-.82.34.06.64.09.85.09.26,0,.34-.03.4-.13.1-.21.22-1.13.22-1.86v-.41h-1.35c-.05.73-.21,1.24-.54,1.79-.39.64-.95,1.13-1.78,1.54-.13-.26-.25-.41-.51-.69.43-.16.72-.34,1.09-.64.49-.42.8-.96.92-1.6.02-.12.03-.2.04-.41h-.37Z"/>
            <path class="cls-3" d="M52.82,21.59c0-.36,0-.53-.04-.76h.88c-.03.22-.04.4-.04.74v.46h1.92c.31,0,.46,0,.64-.03-.02.2-.03.34-.03.62v2.14c0,.31,0,.5.04.7h-.83v-.42h-1.74v1.42c0,.42.01.62.05.87h-.9c.04-.26.05-.48.05-.87v-1.42h-1.65v.42h-.83c.03-.23.04-.41.04-.7v-2.14c0-.26,0-.38-.03-.61.2.02.35.03.63.03h1.84v-.43ZM51.17,22.76v1.52h1.65v-1.52h-1.65ZM55.35,24.28v-1.52h-1.74v1.52h1.74Z"/>
            <path class="cls-3" d="M57.48,22.6c.62.37.79.48,1.25.86l-.44.63c-.49-.44-.62-.54-1.24-.93l.43-.56ZM58.68,25.01c-.32.85-.61,1.55-.96,2.24l-.66-.58c.13-.14.24-.32.43-.71.25-.5.36-.79.56-1.39l.63.44ZM57.78,20.87c.49.3.77.51,1.2.9l-.48.61c-.41-.4-.72-.66-1.2-.97l.48-.54ZM60.59,21.98h-.83c-.27,0-.43,0-.63.03v-.67c.19.03.39.04.65.04h.8c0-.3,0-.42-.04-.57h.8c-.04.15-.04.25-.04.57h1.22c.27,0,.42,0,.56-.03-.01.18-.02.36-.02.53v.52h.04c.21,0,.34,0,.5-.04v.7c-.15-.02-.29-.03-.5-.03h-.04v.39c0,.41,0,.49.02.66-.08-.01-.25-.02-.55-.02h-1.23v.47h1.16c.32,0,.53,0,.7-.04v.67c-.18-.02-.38-.03-.69-.03h-1.17v.5h1.41c.34,0,.59-.01.78-.04v.7c-.25-.03-.46-.04-.79-.04h-1.39v.25c0,.29.01.54.04.76h-.8c.03-.21.04-.46.04-.76v-.25h-1.11c-.31,0-.57.01-.76.04v-.71c.17.02.47.04.76.04h1.11v-.5h-.95c-.29,0-.49,0-.67.04v-.68c.19.03.38.04.68.04h.94v-.47h-.85c-.25,0-.44,0-.61.03v-.64c.18.02.35.03.62.03h.84v-.44h-1.17c-.31,0-.54.01-.74.04v-.72c.22.04.47.05.76.05h1.15v-.41ZM62.35,22.39v-.41h-1.04v.41h1.04ZM61.31,23.47h1.04v-.44h-1.04v.44Z"/>
            <path class="cls-3" d="M67,21.07c-.02.06-.04.14-.06.22-.01.09-.02.13-.04.24q-.02.15-.12.67c-.03.15-.03.17-.05.26.2-.01.3-.02.44-.02.46,0,.8.13,1.04.37.24.27.33.6.33,1.24,0,1.2-.2,2.16-.54,2.55-.2.23-.41.32-.78.32-.32,0-.61-.06-1.08-.2,0-.14.01-.24.01-.31,0-.18-.01-.32-.07-.6.38.17.78.27,1.02.27.2,0,.31-.13.42-.48.11-.36.18-1,.18-1.6,0-.64-.16-.83-.71-.83-.14,0-.24,0-.41.02-.21.85-.27,1.06-.43,1.52-.24.7-.43,1.15-.84,1.97l-.11.21s-.02.05-.05.12l-.81-.45c.21-.28.49-.78.73-1.32.3-.69.4-.98.68-1.98-.36.04-1.02.16-1.25.22l-.09-.83c.26,0,1.11-.08,1.49-.14.13-.76.18-1.18.18-1.41v-.13l.91.1ZM69.32,21.97c.7.82,1.14,1.65,1.44,2.73l-.8.41c-.13-.6-.29-1.06-.56-1.59-.25-.52-.48-.84-.81-1.2l.72-.35Z"/>
            <path class="cls-3" d="M73.14,22.38c-.11.38-.22,1.04-.32,1.72q-.01.1-.04.2h.01c.41-.38,1.28-.65,2.12-.65,1.19,0,1.97.59,1.97,1.48,0,.51-.27,1.03-.72,1.35-.46.33-1.04.48-1.85.48-.6,0-.99-.05-1.79-.25,0-.43-.02-.57-.11-.9.69.24,1.29.35,1.88.35.99,0,1.67-.41,1.67-1.01,0-.47-.44-.75-1.18-.75-.62,0-1.28.19-1.74.51-.13.09-.17.13-.32.3l-.88-.03c.02-.13.02-.15.06-.42.06-.43.17-1.21.29-2.04.03-.17.04-.25.04-.41l.88.05ZM73.23,21.01c.48.27,1.82.67,2.61.78l-.29.81c-1.2-.27-1.93-.5-2.73-.88l.41-.71Z"/>
            <path class="cls-3" d="M82.73,22.84q-.03.06-.08.2c-.07.2-.08.2-.1.27.29.07.49.17.73.34.45.34.67.77.67,1.32,0,.76-.41,1.36-1.21,1.75-.41.2-.81.31-1.43.37-.08-.3-.14-.43-.37-.79.57,0,.93-.08,1.34-.28.56-.27.82-.61.82-1.09,0-.44-.29-.8-.79-.97-.38.83-.71,1.34-1.22,1.86-.63.67-1.25,1.01-1.83,1.01-.65,0-1.09-.5-1.09-1.23,0-.57.25-1.13.69-1.57.28-.27.54-.45.96-.63,0-.22.01-.5.03-.84-.08,0-.46,0-1.13-.03h-.13s-.08,0-.16,0v-.78c.32.07.73.1,1.31.1h.15q0-.14.03-.42c0-.09.01-.27.01-.4,0-.03,0-.06-.01-.11l.87.04c-.06.19-.08.37-.13.86,1.12-.06,2.12-.2,2.65-.37l.04.81c-.1,0-.12,0-.27.03-.77.13-1.91.23-2.47.25-.02.3-.03.53-.04.67.38-.08.54-.09.97-.09.08,0,.14,0,.27.01.08-.22.12-.37.14-.53l.79.22ZM79.26,24.69c-.21.27-.31.56-.31.85,0,.32.15.51.4.51.2,0,.39-.08.61-.27-.09-.46-.12-.9-.12-1.58-.31.2-.43.31-.57.48ZM80.63,25.27s.03-.04.08-.1c.33-.37.61-.82.87-1.4-.08,0-.11,0-.18,0-.31,0-.56.04-.84.13,0,.64,0,.71.05,1.21t0,.09s0,.04,0,.08h.01Z"/>
            <path class="cls-3" d="M87.01,24.59c-.44.8-.81,1.83-.8,2.25l-.81.04c0-.1-.01-.12-.05-.27-.18-.78-.25-1.49-.25-2.28s.04-1.21.26-2.65c.05-.32.05-.37.05-.51l.93.08c-.25.81-.43,2.11-.43,3.22,0,.11,0,.65,0,.69,0,.08,0,.16,0,.27.11-.32.13-.39.16-.46q.24-.57.31-.69l.62.31ZM86.84,22.58c.31.07.68.1,1.25.1.27,0,.32,0,.73-.04-.02-.64-.03-.71-.04-.92-.01-.31-.02-.35-.05-.53h.89c0,.14-.01.22-.01.26v.09c.01.23.02.57.04,1.02.46-.08.88-.18,1.04-.27l.05.83c-.11.01-.15.02-.39.07-.34.08-.38.08-.68.12,0,.15,0,.21,0,.34,0,.74-.05,1.32-.15,1.67-.15.58-.4,1.01-.8,1.36-.22.19-.41.32-.76.53-.22-.29-.38-.43-.68-.66.48-.22.8-.45,1.07-.76.36-.43.49-.93.49-1.96,0-.13,0-.24,0-.45-.24.02-.6.04-.95.04-.2,0-.46,0-.64-.02-.2-.01-.23-.01-.31-.01h-.11v-.8ZM90.07,20.78c.22.34.36.68.48,1.09l-.48.14c-.13-.45-.28-.79-.48-1.1l.48-.13ZM90.93,21.79c-.11-.38-.28-.77-.47-1.07l.45-.14c.19.29.34.62.48,1.05l-.46.16Z"/>
            <path class="cls-3" d="M96.97,20.77l-5.31,6.58h-1.03l5.3-6.58h1.04Z"/>
            <path class="cls-3" d="M98.68,21.57c-.04.26-.06.6-.06,1.06,0,.61.06,1.45.13,1.88.12.73.34,1.18.57,1.18.11,0,.2-.1.29-.3.17-.38.29-.8.37-1.27.24.28.36.38.7.64-.37,1.37-.77,1.93-1.37,1.93-.47,0-.85-.34-1.13-1.02-.29-.7-.41-1.72-.44-3.66,0-.25,0-.29-.03-.45h.96ZM102,21.89c.88,1.06,1.37,2.23,1.58,3.77l-.87.33c-.04-.66-.2-1.39-.45-2.02-.24-.64-.57-1.21-.99-1.72l.73-.35Z"/>
            <path class="cls-3" d="M104.41,21.97c.32.08.79.12,1.51.12.13-.56.18-.85.2-1.16l.94.08q-.04.13-.11.41-.12.53-.17.66c.53-.01,1.32-.07,1.79-.13.52-.06.65-.09.9-.16l.04.85c-.16,0-.22.01-.41.04-1.02.11-1.63.16-2.51.18-.15.5-.41,1.17-.55,1.42h0c.47-.29,1.08-.44,1.77-.44,1.23,0,1.97.53,1.97,1.42,0,1.04-1,1.71-2.54,1.71-.62,0-1.24-.08-1.79-.25,0-.4,0-.54-.07-.89.63.22,1.22.34,1.81.34,1.02,0,1.67-.36,1.67-.92,0-.43-.42-.67-1.18-.67-.52,0-1.06.13-1.51.34-.26.13-.39.23-.51.41l-.85-.29c.11-.17.22-.39.33-.63.23-.53.49-1.21.59-1.55-.37,0-.69-.02-1.06-.05-.1,0-.17,0-.22,0h-.05v-.82Z"/>
            <path class="cls-3" d="M112.77,24.33c-.44.37-.64.67-.64.97,0,.46.51.65,1.69.65.83,0,1.75-.13,2.2-.3l.08.96c-.13,0-.15,0-.31.03-.84.13-1.29.16-1.89.16-.76,0-1.38-.08-1.75-.23-.6-.24-.9-.62-.9-1.17s.27-1,.9-1.53l.61.46ZM111.7,21.45c.54.13,1.16.17,2.1.17.89,0,1.39-.04,1.85-.13l.03.79c-.42.18-1.28.72-1.87,1.16l-.61-.48c.44-.28.52-.33.69-.43.07-.04.09-.06.18-.11.05-.03.06-.03.15-.08-.31.04-.61.06-1.05.06-.36,0-.94-.04-1.28-.08-.08,0-.13-.01-.16-.01-.01,0-.05,0-.1,0l.06-.83ZM115.4,23c.31.33.5.6.74,1.03l-.49.26c-.23-.43-.43-.71-.74-1.04l.49-.25ZM116.48,23.85c-.21-.39-.44-.71-.71-1.02l.47-.25c.31.32.51.59.73.99l-.48.27Z"/>
            <path class="cls-3" d="M122.12,22.84q-.03.06-.08.2c-.07.2-.08.2-.1.27.29.07.49.17.73.34.45.34.67.77.67,1.32,0,.76-.41,1.36-1.21,1.75-.41.2-.81.31-1.43.37-.08-.3-.14-.43-.37-.79.57,0,.93-.08,1.34-.28.56-.27.82-.61.82-1.09,0-.44-.29-.8-.79-.97-.38.83-.71,1.34-1.22,1.86-.63.67-1.25,1.01-1.83,1.01-.65,0-1.09-.5-1.09-1.23,0-.57.25-1.13.69-1.57.28-.27.54-.45.96-.63,0-.22.01-.5.03-.84-.08,0-.46,0-1.13-.03h-.13s-.08,0-.16,0v-.78c.32.07.73.1,1.31.1h.15q0-.14.03-.42c0-.09.01-.27.01-.4,0-.03,0-.06-.01-.11l.87.04c-.06.19-.08.37-.13.86,1.12-.06,2.12-.2,2.65-.37l.04.81c-.1,0-.12,0-.27.03-.77.13-1.91.23-2.47.25-.02.3-.03.53-.04.67.38-.08.54-.09.97-.09.08,0,.14,0,.27.01.08-.22.12-.37.14-.53l.79.22ZM118.65,24.69c-.21.27-.31.56-.31.85,0,.32.15.51.4.51.2,0,.39-.08.61-.27-.09-.46-.12-.9-.12-1.58-.31.2-.43.31-.57.48ZM120.02,25.27s.03-.04.08-.1c.33-.37.61-.82.87-1.4-.08,0-.11,0-.18,0-.31,0-.56.04-.84.13,0,.64,0,.71.05,1.21t0,.09s0,.04,0,.08h.01Z"/>
            <path class="cls-3" d="M126.06,21.22c0,.27.08.77.17,1.13.48-.2.89-.28,1.35-.28h.19c.15-.6.2-.85.2-1.09l.88.18c-.04.08-.06.13-.07.2-.1.38-.19.72-.22.82.41.1.66.22.94.42.56.41.86,1.01.86,1.74,0,1.03-.6,1.86-1.64,2.3-.34.15-.6.22-1.14.34-.11-.35-.17-.47-.43-.82.48-.04.76-.1,1.14-.27.48-.2.79-.45.98-.75.15-.26.24-.55.24-.86,0-.46-.16-.81-.51-1.09-.19-.15-.34-.22-.63-.3-.28.96-.76,1.95-1.28,2.61-.25.32-.55.61-.83.77-.22.13-.41.19-.65.19-.72,0-1.21-.63-1.21-1.58,0-.86.39-1.6,1.12-2.15-.04-.1-.16-.71-.24-1.11-.01-.09-.03-.13-.07-.24l.85-.16ZM125.17,24.85c0,.46.2.77.48.77.2,0,.42-.15.66-.46-.32-.71-.43-1.03-.57-1.61-.39.41-.56.8-.56,1.29ZM126.84,24.48s.02-.06.04-.09c.28-.48.47-.92.7-1.62-.48,0-.83.08-1.21.28.11.48.2.77.42,1.32.02.06.03.07.04.1h0Z"/>
          </g>
          <g>
            <path class="cls-4" d="M40.43,8.09c-.31,2.87-1.12,4.03-3.45,5.4l-1.1-1.07c2.06-.99,2.9-1.91,3.22-4.33h-3.91v-1.25h4c.02-.79,0-1.7-.1-2.4l1.44.17c.15.02.32.05.32.16,0,.05-.26.25-.3.31-.02.03-.02.09-.02.53,0,.02-.01.67-.02,1.23h3.25v1.25h-3.34Z"/>
            <path class="cls-4" d="M51.51,9.15c-.43,2.13-1.31,3.15-3.13,4.33l-1.04-.92c1.75-.99,2.51-1.81,2.87-3.42h-3.83v-1.2h3.96c.01-.11.02-.31.02-.67,0-.38-.01-.61-.06-.86-.99.23-1.57.32-2.52.41l-.58-1.08c.8-.04,3.07-.19,5.37-1.37l.88.82s.13.14.13.22c0,.04-.02.06-.05.08h-.35c-.06,0-.08.01-.16.04-.36.16-.62.29-1.37.53.01.39.04.99.03,1.37,0,.28-.01.33-.01.52h2.88v1.2h-3.02Z"/>
            <path class="cls-4" d="M56.81,12.5v-.96h3.94l.51-3.13h-3.07v-.99h4.33l-.67,4.13h2.05v.96h-7.09Z"/>
            <path class="cls-4" d="M73.47,8.54c-.41.97-.81,1.95-1.78,3-1.1,1.18-2.28,1.68-3,1.98l-1-.93c.65-.23,1.85-.66,3.02-1.91.91-.98,1.22-1.85,1.37-2.28h-5.59v-1.19h6.11c.17,0,.4-.13.53-.2l.87.93c-.38.3-.5.54-.53.6ZM67.56,6.02v-1.22h5.12v1.22h-5.12Z"/>
            <path class="cls-4" d="M79.02,5.75c-.08.06-.08.09-.08.14,0,2.01,0,2.18-.05,2.65-.26,2.23-1.54,3.29-2.33,3.91l-1.2-.87c1.03-.6,2.3-1.52,2.3-4.2,0-1-.08-1.71-.12-2.04l1.3.09c.19.01.31.04.31.16,0,.04-.02.05-.15.16ZM81.02,12.46l-.92-.71v-6.54l1.25.15c.1.01.3.03.3.14,0,.04-.02.08-.12.16,0,.01-.13.12-.13.13v4.71c.93-.51,2.15-1.71,2.84-2.76l.73,1.09c-1.06,1.42-2.67,2.91-3.96,3.63Z"/>
            <path class="cls-4" d="M92.14,9.87l.59,3.35-1.25.25-.58-3.44-3.5.45-.16-1.17,3.46-.45-.24-1.39-2.61.34-.15-1.12,2.58-.32-.33-1.93,1.13-.06c.24-.01.32.02.32.11,0,.04-.18.24-.17.29l.26,1.42,2.35-.3.16,1.12-2.32.3.25,1.38,3.13-.41.15,1.19-3.07.4Z"/>
            <path class="cls-4" d="M103.67,10.79l-.98-.42c.18-.31.22-.38.52-.87.21-.33.23-.37.43-.72l-1.96.4.81,4.12-1.15.27-.74-4.16-1.97.41-.39-.97,2.18-.42-.36-1.93,1.02-.12c.05-.01.28-.02.28.1,0,.02,0,.04-.09.15-.02.03-.08.11-.06.16l.29,1.42,2.52-.48c.18-.03.31-.21.37-.28l.87.64c-.47.79-.84,1.41-1.58,2.71Z"/>
            <path class="cls-4" d="M109.56,7.3c-.61-.51-1.35-.97-2.21-1.36l.66-1.01c.71.31,1.58.78,2.26,1.33l-.71,1.03ZM112.71,10.23c-1.7,1.38-2.73,1.83-4.06,2.4-.05.15-.08.33-.16.33-.06,0-.16-.06-.24-.21l-.75-1.29c.86-.21,2.27-.57,4-1.86,1.65-1.23,2.68-2.65,3.16-3.3l.74,1.08c-.42.56-1.26,1.69-2.68,2.84Z"/>
            <path class="cls-4" d="M122.86,8.68c-.05,2.55-1.03,3.83-3.11,4.76l-1.01-.9c1.9-.67,2.82-1.55,2.87-3.86h-3.6v-1.12h8.09v1.12h-3.23ZM119.46,6.01v-1.17h5.27v1.17h-5.27ZM126.51,6.67c-.49-.42-.85-.64-1.13-.81l.41-.6c.47.27.75.47,1.13.81l-.41.6ZM126.82,5.3c-.18-.17-.39-.34-1.09-.73l.4-.58c.71.4.92.57,1.09.73l-.4.58Z"/>
            <path class="cls-4" d="M134.13,7.34c-.26.3-.61.71-1.46,1.41v4.67h-1.11v-3.85c-.82.56-1.41.92-2.19,1.26l-.7-.86c.54-.21,1.29-.52,2.54-1.42,1.44-1.03,2.04-1.79,2.39-2.24l.86.72s.08.06.08.11c0,.15-.32.18-.41.19Z"/>
          </g>
        </g>
      </g>
    </g>
  </g>
</svg>