<?xml version="1.0" encoding="UTF-8"?>
<svg xmlns="http://www.w3.org/2000/svg" viewBox="0 0 167.6 35.61">
  <defs>
    <style>
      .cls-1 {
        fill: #f18d09;
      }

      .cls-2 {
        isolation: isolate;
      }

      .cls-3 {
        fill: #231815;
      }

      .cls-4 {
        fill: #fff;
      }

      .cls-5 {
        fill: #f29014;
        mix-blend-mode: multiply;
      }
    </style>
  </defs>
  <g class="cls-2">
    <g id="_レイヤー_2" data-name="レイヤー 2">
      <g id="_レイヤー_1-2" data-name="レイヤー 1">
        <g>
          <g>
            <rect class="cls-1" width="167.6" height="17.49"/>
            <rect class="cls-5" width="8.56" height="17.49"/>
          </g>
          <g>
            <path class="cls-3" d="M28.06,22.69c-.06.38-.13.67-.25,1.03-.2-.15-.36-.23-.61-.31.22-.57.36-1.39.36-2.08,0-.04,0-.09-.01-.18l.69.08c-.03.13-.03.14-.04.36v.1s-.04.29-.04.29h.32v-.83c0-.21-.01-.39-.05-.57h.83c-.03.18-.04.34-.04.57v.83h.06c.25,0,.41-.01.56-.04v.74c.22.01.39.02.64.02h.8v-.68h-.59c-.29,0-.51.01-.72.04v-.76c.2.03.41.04.72.04h.59v-.22c0-.2-.01-.35-.04-.53h.81c-.03.16-.04.31-.04.52v.22h.76c.32,0,.53-.01.74-.04v.76c-.21-.02-.44-.04-.74-.04h-.76v.68h.95c.35,0,.61-.01.79-.04v.76c-.22-.03-.48-.04-.73-.04h-.04v.59h.06c.34,0,.51,0,.69-.03v.77c-.22-.03-.41-.04-.69-.04h-.06v1.67c0,.52-.22.67-1.04.67-.12,0-.38,0-.6-.02-.02-.32-.08-.53-.18-.77.4.06.63.08.82.08.22,0,.27-.04.27-.21v-1.42h-1.83c-.29,0-.46,0-.69.04v-.32c-.2.09-.32.15-.5.22v1.67c0,.31.01.57.04.81h-.83c.03-.16.05-.5.05-.81v-1.39c-.17.06-.32.12-.47.17-.37.13-.46.17-.53.2l-.18-.8c.25-.03.53-.1,1.18-.31v-1.44h-.41ZM29.21,23.88c.27-.1.37-.14.6-.25v.31c.17.01.37.02.68.02h1.74v-.59h-1.76c-.37,0-.58,0-.79.04v-.72c-.15,0-.24,0-.36,0h-.11v1.19ZM30.6,24.69c.36.33.62.64.92,1.07l-.61.46c-.28-.47-.48-.74-.89-1.15l.58-.39Z"/>
            <path class="cls-3" d="M37.7,26.01h2.02c.37,0,.69-.01.95-.04v.84c-.29-.03-.58-.05-.93-.05h-4.45c-.33,0-.65.01-.97.05v-.84c.27.03.57.04.97.04h1.6v-4.52c0-.31-.01-.52-.05-.81h.92c-.04.26-.05.49-.05.81v1.2h1.65c.31,0,.56-.01.81-.04v.83c-.25-.03-.52-.04-.81-.04h-1.65v2.58Z"/>
            <path class="cls-3" d="M43.62,23.39c-.02.08-.03.09-.06.22-.24,1.08-.62,1.95-1.18,2.72-.34-.25-.46-.31-.81-.45.46-.55.71-1.04.98-1.84.12-.37.17-.59.2-.86l.86.22ZM44.33,21.5c0-.35,0-.53-.04-.72h.95c-.02.2-.03.3-.03.74v.37h1.6c.48,0,.64,0,.9-.05v.86c-.25-.03-.43-.04-.89-.04h-1.62v3.4c0,.36,0,.56.04.78h-.95c.04-.22.04-.43.04-.79v-3.39h-1.55c-.46,0-.64,0-.88.04v-.86c.27.04.42.05.9.05h1.54v-.39ZM46.73,23.18c.05.24.11.42.24.78.32.85.57,1.34,1,1.88-.37.19-.48.26-.81.49-.53-.85-.82-1.51-1.15-2.62-.06-.2-.06-.22-.11-.33l.83-.21Z"/>
            <path class="cls-3" d="M51.13,21.05q-.03.2-.07,1.57c-.05,1.37-.2,2.16-.57,2.88-.24.48-.5.84-.97,1.3-.27-.35-.38-.46-.71-.68.34-.28.51-.47.72-.81.5-.81.67-1.71.67-3.67,0-.39,0-.45-.03-.64l.95.05ZM52.98,20.96c-.03.2-.04.32-.05.67l-.04,3.98c.49-.23.77-.44,1.07-.8.32-.38.53-.76.69-1.28.24.32.34.41.66.66-.29.69-.65,1.22-1.12,1.63-.4.34-.76.55-1.49.84-.15.06-.21.08-.3.13l-.45-.48c.05-.2.06-.36.06-.74l.04-3.95v-.21c0-.17,0-.33-.03-.46h.95Z"/>
            <path class="cls-3" d="M57.18,23.97c-.46,0-.64,0-.88.03v-.85c.26.04.41.05.9.05h1.27v-1.21h-.85c-.5,0-.65,0-.89.03v-.85c.26.04.41.05.9.05h3.19c.5,0,.65,0,.91-.05v.85c-.24-.03-.38-.03-.9-.03h-1.51v1.21h1.95c.48,0,.64,0,.9-.05v.85c-.24-.03-.43-.03-.88-.03h-1.96v1.12c0,.42.04.52.19.6.13.06.35.09.72.09.25,0,.68-.02,1.04-.06.27-.03.41-.05.65-.12l.02.89s-.09,0-.12,0q-.06,0-.57.04c-.31.02-.78.04-1.11.04-1.37,0-1.69-.23-1.69-1.22v-1.38h-1.28Z"/>
            <path class="cls-3" d="M63.41,25.64c.6-.04,1.44-.24,2.07-.52.88-.38,1.53-.92,2.08-1.72.31-.45.5-.83.71-1.4.27.33.38.43.74.69-.6,1.28-1.26,2.11-2.22,2.75-.71.48-1.58.82-2.67,1.05-.28.06-.3.06-.46.12l-.26-.97ZM64.01,21.29c.83.52,1.27.84,1.81,1.35l-.6.76c-.56-.6-1.13-1.06-1.79-1.42l.58-.69Z"/>
            <path class="cls-3" d="M71.07,23.2c-.34,0-.52,0-.72.02.02-.17.03-.34.03-.61v-.81c0-.27,0-.42-.03-.6.2.02.43.03.78.03h1.46c0-.3-.02-.46-.05-.67h.86c-.03.2-.04.36-.04.67h1.58c.36,0,.57,0,.78-.03-.02.17-.03.32-.03.6v.81c0,.29,0,.43.03.61-.2-.01-.42-.02-.72-.02h-1.64v.53h1.93c.34,0,.52,0,.71-.03-.02.2-.03.36-.03.68v1c0,.34,0,.53.04.74h-.81v-.33h-1.84v.36c0,.46,0,.67.04.92h-.86c.03-.26.05-.53.05-.92v-.35h-1.74v.33h-.8c.02-.24.04-.46.04-.74v-1c0-.27,0-.47-.03-.67.2.01.38.02.69.02h1.84v-.53h-1.51ZM70.84,24.4v.71h1.74v-.71h-1.74ZM71.13,21.92v.65h1.45v-.65h-1.45ZM73.35,22.57h1.57v-.65h-1.57v.65ZM73.35,25.1h1.84v-.71h-1.84v.71Z"/>
            <path class="cls-3" d="M83.05,20.52l-5.31,6.58h-1.03l5.3-6.58h1.04Z"/>
            <path class="cls-3" d="M84.7,24.79c-.07,1.13-.2,1.76-.46,2.28-.18-.27-.38-.47-.6-.63.34-.77.43-1.66.43-4.62,0-.47,0-.74-.04-1.02.2.03.38.03.74.03h.6c.35,0,.54,0,.67-.03-.01.16-.02.29-.02.64v1.15c.56-.27.97-.57,1.3-.97h-.24c-.37,0-.58,0-.83.04v-.76c.22.03.46.04.85.04h2.19c.41,0,.69-.01.86-.04v.76c-.24-.03-.46-.04-.83-.04h-.39c.08.77.12,1.1.21,1.48.24-.3.43-.61.53-.84l.6.45q-.06.07-.16.22c-.23.35-.46.62-.74.92.27.74.55,1.19,1.05,1.7-.19.27-.29.46-.43.83-.57-.68-.9-1.25-1.2-2.11-.27-.74-.38-1.31-.55-2.66h-.1c-.2.31-.29.41-.51.63.22.24.39.55.55.94.25.66.42,1.56.42,2.3,0,.56-.08,1-.2,1.18-.15.21-.42.29-.92.29-.13,0-.25,0-.5-.02-.01-.27-.05-.43-.15-.71.27.05.44.07.62.07.21,0,.31-.05.35-.18.05-.14.08-.42.08-.84,0-.18,0-.29-.02-.47-.45.65-.82,1.02-1.53,1.51-.09-.18-.14-.24-.27-.4v.39c0,.53-.19.67-.88.67-.04,0-.14,0-.28,0,0-.32-.04-.47-.15-.71.15.03.31.04.46.04.13,0,.17-.04.17-.18v-1.34h-.65ZM84.74,23.17q0,.71-.01.97h.62v-.97h-.61ZM85.35,21.53h-.6v.99h.6v-.99ZM86.02,24.07c.53-.29.89-.57,1.33-1.04-.08-.15-.13-.22-.22-.34-.29.23-.5.36-.86.57-.11-.18-.14-.25-.26-.41v1.21ZM86.02,25.64c.69-.43,1.2-.91,1.68-1.58-.04-.22-.07-.31-.11-.47-.34.41-.71.74-1.3,1.11-.1-.18-.15-.27-.27-.41v1.34Z"/>
            <path class="cls-3" d="M91.32,21.83c.25.04.53.06.94.06.08,0,.16,0,.32,0,.06-.34.13-.88.13-1.07,0-.03,0-.07,0-.13l.92.08q-.05.16-.13.67c-.04.2-.04.24-.07.4.52-.05.85-.1,1.2-.21l.04.81q-.06,0-.22.04c-.36.07-.92.14-1.15.15-.08.43-.25,1.18-.43,1.81-.2.73-.32,1.08-.79,2.32l-.88-.34c.48-.89,1.02-2.52,1.25-3.77-.05,0-.08,0-.09,0h-.41s-.11,0-.22,0c-.12,0-.22,0-.28,0-.04,0-.07,0-.13,0l.02-.81ZM94.79,24.54c-.28.35-.36.53-.36.77,0,.36.35.54,1.05.54.51,0,1.18-.11,1.59-.26l.06.86c-.13.01-.18.02-.34.05-.58.08-.89.11-1.3.11-.62,0-1.07-.09-1.41-.28-.3-.18-.5-.51-.5-.86,0-.37.13-.69.52-1.21l.69.28ZM96.87,23.63c-.34-.04-.53-.05-.88-.05-.69,0-1.15.05-1.85.2l-.06-.77c.99-.19,1.33-.22,2.09-.22.19,0,.25,0,.69,0v.83Z"/>
            <path class="cls-3" d="M100.02,23.89s.04-.05.13-.15c.22-.25.59-.41.9-.41s.63.16.78.4c.14.22.18.48.18,1.28,0,.5.03.64.15.75.08.06.2.1.37.1.37,0,.67-.26.88-.75.13-.31.23-.75.27-1.11.23.24.34.31.77.52-.3,1.45-.99,2.18-2.04,2.18-.54,0-.93-.21-1.1-.61-.08-.18-.12-.43-.12-.78v-.07c0-.25,0-.42,0-.49,0-.22-.01-.32-.05-.41-.05-.1-.18-.16-.32-.16-.38,0-.77.35-1.11.98-.21.4-.5,1.18-.59,1.6l-.9-.29c.1-.2.16-.37.39-.98q1.61-4.48,1.66-4.76l.95.24c-.1.19-.13.27-.34.81-.4,1.02-.71,1.79-.86,2.12h.01Z"/>
            <path class="cls-3" d="M104.89,22.19c.24-.02.35-.03.82-.14,1.6-.34,1.97-.4,2.79-.4,1.39,0,2.29.78,2.29,1.97,0,.95-.56,1.76-1.55,2.24-.64.32-1.18.44-2.47.58-.09-.38-.15-.53-.36-.9,1.12-.05,1.71-.15,2.3-.41.5-.22.92-.62,1.06-1.04.05-.14.08-.32.08-.5,0-.39-.2-.72-.53-.91-.22-.13-.52-.19-.9-.19-.73,0-1.63.16-2.76.5-.36.1-.41.12-.56.2l-.2-.99Z"/>
            <path class="cls-3" d="M116.22,21.28c-.12.08-.25.2-.86.77-.36.33-.85.72-1.67,1.34-.22.16-.27.22-.27.29,0,.1.01.12.63.58,1.09.83,1.29,1,2.21,1.83.07.07.11.1.2.18l-.72.73c-.18-.25-.43-.52-.91-.96-.5-.46-.73-.65-1.81-1.49-.46-.36-.59-.55-.59-.87,0-.21.08-.4.23-.57.09-.1.1-.1.62-.5.76-.57,1.15-.91,1.62-1.37.31-.32.39-.41.51-.58l.81.62Z"/>
            <path class="cls-3" d="M117.89,21.98c.11,0,.16,0,.22,0,.17,0,.55-.02.9-.05.01-.41.01-.53.01-.83,0-.18,0-.23,0-.39h.88q-.04.21-.08,1.16s.06-.01.11-.03l.26.3c-.08.06-.09.08-.39.42l-.02.49c.22-.22.38-.35.62-.52.76-.55,1.17-.72,1.7-.72,1.02,0,1.6.84,1.6,2.35,0,.39-.03.67-.09,1.01.11.07.15.11.46.34q.05.04.13.11s.04.03.08.06l-.33.84c-.15-.18-.31-.34-.63-.58-.09.2-.17.29-.32.42-.27.21-.67.34-1.08.34-.81,0-1.35-.43-1.35-1.08s.53-1.07,1.3-1.07c.33,0,.61.06.96.21.04-.22.06-.36.06-.6,0-1.04-.29-1.55-.89-1.55-.32,0-.66.14-1.13.48-.35.25-.69.53-1.07.91,0,2.06,0,2.45.05,2.84h-.92q.04-.26.04-1.92c0-.1,0-.15.01-.26-.07.09-.21.26-.37.43-.33.36-.38.43-.5.57l-.42-.82c.16-.1.34-.27,1.29-1.2q0-.43.02-1.01-.85.06-1.06.1l-.04-.78ZM121.87,25.24c-.33,0-.56.17-.56.41,0,.21.25.36.57.36.15,0,.32-.04.45-.11.12-.07.22-.17.28-.31.03-.05.04-.08.04-.09-.31-.19-.51-.26-.79-.26Z"/>
            <path class="cls-3" d="M126.26,23.2c-.34,0-.52,0-.72.02.02-.17.03-.34.03-.61v-.81c0-.27,0-.42-.03-.6.2.02.43.03.78.03h1.46c0-.3-.02-.46-.05-.67h.86c-.03.2-.04.36-.04.67h1.58c.36,0,.57,0,.78-.03-.02.17-.03.32-.03.6v.81c0,.29,0,.43.03.61-.2-.01-.42-.02-.72-.02h-1.64v.53h1.93c.34,0,.52,0,.71-.03-.02.2-.03.36-.03.68v1c0,.34,0,.53.04.74h-.81v-.33h-1.84v.36c0,.46,0,.67.04.92h-.86c.03-.26.05-.53.05-.92v-.35h-1.74v.33h-.8c.02-.24.04-.46.04-.74v-1c0-.27,0-.47-.03-.67.2.01.38.02.69.02h1.84v-.53h-1.51ZM126.03,24.4v.71h1.74v-.71h-1.74ZM126.32,21.92v.65h1.45v-.65h-1.45ZM128.54,22.57h1.57v-.65h-1.57v.65ZM128.54,25.1h1.84v-.71h-1.84v.71Z"/>
            <path class="cls-3" d="M138.24,20.52l-5.31,6.58h-1.03l5.3-6.58h1.04Z"/>
            <path class="cls-3" d="M54.33,34.79c-.31-.04-.63-.05-1.02-.05h-4.1c-.39,0-.73.01-1.06.05v-.91c.29.03.54.05,1.04.05h4.11c.47,0,.71-.01,1.04-.05v.91ZM48.81,29.82c.27.03.53.04.95.04h2.92c.48,0,.7,0,.97-.04v.89c-.3-.03-.52-.04-.97-.04h-2.91c-.47,0-.72.01-.97.04v-.89Z"/>
            <path class="cls-3" d="M58.15,35.28c-.11-.31-.15-.4-.27-.67-.79.29-1.26.43-2.16.67-.15.04-.17.05-.32.1l-.14-.79c.16,0,.22-.01.47-.06v-4c0-.31,0-.51-.03-.67.18.02.36.03.66.03h.4v-.27c0-.2-.02-.34-.04-.48h.84c-.03.14-.04.28-.04.48v.27h.4c.31,0,.48,0,.66-.03-.02.17-.03.34-.03.71v1.81c0,.31,0,.46.02.63-.2-.01-.33-.02-.57-.02h-1.53v1.37c.43-.11.57-.15,1.13-.34-.12-.24-.18-.35-.37-.66l.65-.26c.44.71.64,1.07.97,1.82l-.69.35ZM57.82,31.12v-.59h-1.35v.59h1.35ZM56.47,32.34h1.35v-.6h-1.35v.6ZM61.8,29.82c-.04.1-.08.2-.11.27-.15.42-.39.99-.73,1.7.29.36.4.54.52.78.14.3.21.63.21.95,0,.52-.17.85-.52,1.02-.15.08-.37.11-.67.11-.1,0-.18,0-.36-.01-.01-.36-.05-.53-.16-.76.16.03.27.03.4.03.26,0,.39-.03.44-.09.06-.07.09-.19.09-.34,0-.28-.09-.61-.24-.89-.15-.27-.28-.44-.59-.74.35-.65.55-1.13.78-1.83h-1.09v4.63c0,.37.01.68.05.9h-.85c.03-.21.04-.41.04-.71v-4.94c0-.2,0-.4-.03-.58.18.01.34.02.58.02h1.25c.28,0,.43,0,.57-.03l.41.5Z"/>
            <path class="cls-3" d="M63.76,31.7c-.34,0-.52,0-.72.02.02-.17.03-.34.03-.61v-.81c0-.27,0-.42-.03-.6.2.02.43.03.78.03h1.46c0-.3-.02-.46-.05-.67h.86c-.03.2-.04.36-.04.67h1.58c.36,0,.57,0,.78-.03-.02.17-.03.32-.03.6v.81c0,.29,0,.43.03.61-.2-.01-.42-.02-.72-.02h-1.64v.53h1.93c.34,0,.52,0,.71-.03-.02.2-.03.36-.03.68v1c0,.34,0,.53.04.74h-.81v-.33h-1.84v.36c0,.46,0,.67.04.92h-.86c.03-.26.05-.53.05-.92v-.35h-1.74v.33h-.8c.02-.24.04-.46.04-.74v-1c0-.27,0-.47-.03-.67.2.01.38.02.69.02h1.84v-.53h-1.51ZM63.53,32.9v.71h1.74v-.71h-1.74ZM63.83,30.42v.65h1.45v-.65h-1.45ZM66.05,31.07h1.57v-.65h-1.57v.65ZM66.05,33.6h1.84v-.71h-1.84v.71Z"/>
            <path class="cls-3" d="M75.75,29.02l-5.31,6.58h-1.03l5.3-6.58h1.04Z"/>
            <path class="cls-3" d="M76.42,30.33c.25.04.53.06.94.06.08,0,.16,0,.32,0,.06-.34.13-.88.13-1.07,0-.03,0-.07,0-.13l.92.08q-.05.16-.13.67c-.04.2-.04.24-.07.4.52-.05.85-.1,1.2-.21l.04.81q-.06,0-.22.04c-.36.07-.92.14-1.15.15-.08.43-.25,1.18-.43,1.81-.2.73-.32,1.08-.79,2.32l-.88-.34c.48-.89,1.02-2.52,1.25-3.77-.05,0-.08,0-.09,0h-.41s-.11,0-.22,0c-.12,0-.22,0-.28,0-.04,0-.07,0-.13,0l.02-.81ZM79.89,33.04c-.28.35-.36.53-.36.77,0,.36.35.54,1.05.54.51,0,1.18-.11,1.59-.26l.06.86c-.13.01-.18.02-.34.05-.58.08-.89.11-1.3.11-.62,0-1.07-.09-1.41-.28-.3-.18-.5-.51-.5-.86,0-.37.13-.69.52-1.21l.69.28ZM81.97,32.13c-.34-.04-.53-.05-.88-.05-.69,0-1.15.05-1.85.2l-.06-.77c.99-.19,1.33-.22,2.09-.22.19,0,.25,0,.69,0v.83Z"/>
            <path class="cls-3" d="M85.12,32.39s.04-.05.13-.15c.22-.25.59-.41.9-.41s.63.16.78.4c.14.22.18.48.18,1.28,0,.5.03.64.15.75.08.06.2.1.37.1.37,0,.67-.26.88-.75.13-.31.23-.75.27-1.11.23.24.34.31.77.52-.3,1.45-.99,2.18-2.04,2.18-.54,0-.93-.21-1.1-.61-.08-.18-.12-.43-.12-.78v-.07c0-.25,0-.42,0-.49,0-.22-.01-.32-.05-.41-.05-.1-.18-.16-.32-.16-.38,0-.77.35-1.11.98-.21.4-.5,1.18-.59,1.6l-.9-.29c.1-.2.16-.37.39-.98q1.61-4.48,1.66-4.76l.95.24c-.1.19-.13.27-.34.81-.4,1.02-.71,1.79-.86,2.12h.01Z"/>
            <path class="cls-3" d="M96.03,30.84c-.05.13-.07.22-.08.47-.02.79-.1,1.87-.17,2.33-.18,1.21-.43,1.5-1.27,1.5-.27,0-.5-.02-.87-.08-.01-.44-.04-.57-.16-.9.41.11.69.16.92.16.3,0,.41-.15.52-.76.08-.48.15-1.44.15-2.24h-1.63c-.1.88-.25,1.41-.56,2.01-.38.74-1.01,1.38-1.89,1.94-.24-.37-.34-.48-.63-.74.88-.46,1.45-1.02,1.82-1.77.19-.39.29-.73.36-1.22.01-.1.03-.17.04-.22h-1.16c-.43,0-.53.01-.76.04v-.86c.23.04.42.06.77.06h1.23c.02-.27.03-.68.03-.88v-.18c0-.09,0-.15-.02-.27l.94.02c-.01.09-.02.12-.03.22,0,.04,0,.08,0,.13q-.01.15-.03.51c0,.15,0,.22-.03.44h1.55c.31,0,.38-.01.55-.07l.4.35Z"/>
            <path class="cls-3" d="M99.32,29.55q-.03.2-.07,1.57c-.05,1.37-.2,2.16-.57,2.88-.24.48-.5.84-.97,1.3-.27-.35-.38-.46-.71-.68.34-.28.51-.47.72-.81.5-.81.67-1.71.67-3.67,0-.39,0-.45-.03-.64l.95.05ZM101.18,29.46c-.03.2-.04.32-.05.67l-.04,3.98c.49-.23.77-.44,1.07-.8.32-.38.53-.76.69-1.28.24.32.34.41.66.66-.29.69-.65,1.22-1.12,1.63-.4.34-.76.55-1.49.84-.15.06-.21.08-.3.13l-.45-.48c.05-.2.06-.36.06-.74l.04-3.95v-.21c0-.17,0-.33-.03-.46h.95Z"/>
            <path class="cls-3" d="M105.75,31.62c1.06-.2,2.61-.82,3.06-1.25l.56.79s-.26.12-.63.3c-.95.46-1.93.77-2.99.97v.92s0,.07,0,.09c0,.41.03.57.12.67.12.13.52.18,1.2.18.47,0,1.12-.04,1.62-.11.34-.04.49-.08.8-.17l.04.93c-.15,0-.18,0-.93.08-.41.04-1.29.08-1.72.08-.88,0-1.37-.09-1.64-.3-.2-.15-.3-.37-.34-.71-.01-.12-.02-.24-.02-.64v-3.25c0-.36,0-.47-.04-.64h.94c-.03.17-.04.29-.04.65v1.41ZM109.08,29.23c.28.32.47.6.7,1.06l-.5.23c-.22-.45-.4-.73-.69-1.07l.5-.22ZM110.13,30.12c-.19-.39-.41-.72-.67-1.04l.48-.22c.31.35.5.62.69,1.02l-.5.25Z"/>
            <path class="cls-3" d="M112.41,31.7c-.34,0-.52,0-.72.02.02-.17.03-.34.03-.61v-.81c0-.27,0-.42-.03-.6.2.02.43.03.78.03h1.46c0-.3-.02-.46-.05-.67h.86c-.03.2-.04.36-.04.67h1.58c.36,0,.57,0,.78-.03-.02.17-.03.32-.03.6v.81c0,.29,0,.43.03.61-.2-.01-.42-.02-.72-.02h-1.64v.53h1.93c.34,0,.52,0,.71-.03-.02.2-.03.36-.03.68v1c0,.34,0,.53.04.74h-.81v-.33h-1.84v.36c0,.46,0,.67.04.92h-.86c.03-.26.05-.53.05-.92v-.35h-1.74v.33h-.8c.02-.24.04-.46.04-.74v-1c0-.27,0-.47-.03-.67.2.01.38.02.69.02h1.84v-.53h-1.51ZM112.18,32.9v.71h1.74v-.71h-1.74ZM112.47,30.42v.65h1.45v-.65h-1.45ZM114.69,31.07h1.57v-.65h-1.57v.65ZM114.69,33.6h1.84v-.71h-1.84v.71Z"/>
          </g>
          <g>
            <path class="cls-4" d="M52.37,13.23c-.62-.6-1.37-1.31-1.9-2.79-.52-1.43-.56-2.78-.61-3.95-.43.68-.65.97-.83,1.23.41.58.78,1.11,1.19,2.31.24.71.54,1.78.54,2.83,0,1.2-.66,1.4-1.76,1.51l-.52-1.24c1.09.09,1.14-.1,1.14-.76,0-.15-.01-.34-.05-.58-.93,1.2-1.61,1.67-2.03,1.96l-.74-.83v.59c0,.64-.3.89-1.21.89h-.33l-.46-1.24c.09.01.17.02.39.02.37,0,.49-.09.49-.29v-1.9h-.79c-.11,1.77-.26,2.49-.65,3.48l-1.2-.29c.54-1.16.8-2.01.8-5.41,0-1.18-.03-2.42-.11-3.61h3.07v3.21c.75-.52,1.21-1.03,1.83-2.05h-1.55v-1.09h5.52v1.09h-1.57c0,.6.01,1.16.06,1.76.27-.25.65-.62.88-.89l.78.65c.09.08.25.2.25.27,0,.09-.1.09-.23.09-.12,0-.18.05-.21.08-.34.3-.91.81-1.26,1.11.32,1.14.71,1.79,2.01,2.98l-.94.87ZM45.67,8.61h-.73c0,.51-.01.93-.02,1.3h.75v-1.3ZM45.67,6.24h-.74c.01.49.01.57.01,1.3h.73v-1.3ZM48.35,8.53c-.4.42-.62.59-.9.75l-.65-.61v1.94c.71-.5,1.08-.82,1.77-1.71-.06-.12-.13-.22-.22-.37ZM49.1,10.02c-.32.36-.94,1.03-1.69,1.57l-.6-.75v1.96c.83-.51,1.39-.98,2.46-2.32-.04-.16-.11-.32-.16-.46Z"/>
            <path class="cls-4" d="M62.32,12.06v1.42c0,.64-.42.76-1.78.91l-.51-1.22h.81c.21,0,.28-.08.28-.33v-.78h-3.05c.6.51.88.86,1.1,1.14l-1.01.85c-.55-.72-.84-1-1.2-1.31l.71-.68h-2.6v-.99h6.04v-.51h-4.98v-3.45h2.91v-.55h-3.82v-.92h3.82v-.66l.96.04c.53.02.53.08.53.13,0,.06-.03.12-.11.18-.12.1-.12.12-.12.3h3.92v.92h-3.92v.55h3.06v3.45h-1.06v.51h2.04v.99h-2.04ZM59.05,7.93h-1.63v.53h1.63v-.53ZM59.05,9.2h-1.63v.55h1.63v-.55ZM62.09,7.93h-1.78v.53h1.78v-.53ZM62.09,9.2h-1.78v.55h1.78v-.55Z"/>
            <path class="cls-4" d="M67.82,9.2v5.08h-1.26V5.37h4.19v3.82h-2.93ZM69.58,6.34h-1.72v.54h1.72v-.54ZM69.58,7.69h-1.72v.59h1.72v-.59ZM74.18,14.31h-.52l-.75-1.43c.68.14.95.15,1.01.15.26,0,.31-.15.31-.33v-3.52h-2.91v-3.82h4.19v7.95c0,.7-.37,1.01-1.34,1.01ZM74.19,6.29h-1.72v.51h1.72v-.51ZM74.19,7.63h-1.72v.59h1.72v-.59Z"/>
            <path class="cls-4" d="M82.64,7.28l.66.13c.12.02.3.06.3.16,0,.09-.09.12-.24.19v.53h3.63v1.11h-3.63v1.09h2.95v3.86h-1.25v-.28h-3.73v.28h-1.18v-3.86h1.97v-3.21h-2.29v1.69c0,1.21-.11,1.92-.34,3.11-.18.88-.49,1.56-.75,2.14l-1.17-.44c.38-.72,1.03-1.98,1.03-4.58v-3.05h3.23v-1.13l1.41.09c.11.01.24.04.24.16,0,.07-.1.13-.15.16s-.13.08-.13.12v.6h3.94v1.12h-4.49ZM85.07,11.64h-3.73v1.34h3.73v-1.34Z"/>
            <path class="cls-4" d="M92.93,13.28c-.34,0-.61-.18-.8-.36-.75-.73-1.1-1.99-1.1-4.04,0-1.38.15-2.08.32-2.8l1.18.32c.08.02.25.08.25.2,0,.12-.13.16-.31.23-.12.59-.21,1.22-.21,2.4,0,2.1.52,2.49.73,2.49.39,0,.83-1.14,1.03-1.66l.89.8c-.59,1.27-1.13,2.41-2,2.41ZM98.39,11.36c-.31-2.24-1.02-3.51-1.58-4.37l1.11-.54c.52.73,1.48,2.09,1.77,4.58l-1.29.33Z"/>
            <path class="cls-4" d="M105.23,14.15l-.55-1.15c.6.02,1.96.09,2.96-.49.29-.16.98-.61.98-1.62,0-.91-.7-1.39-1.61-1.39-1.59,0-2.74,1.21-3.76,2.28l-.99-.87c1.55-1.36,2.84-2.64,4.16-4.26-.71.14-1.28.23-2.42.25l-.43-1.24c.23.03.62.09,1.16.09s1.25-.09,1.91-.22c.58-.11.83-.19,1.31-.37l.74.88c-.79.73-1.37,1.29-2.58,2.7.18-.05.61-.2,1.22-.2,1.39,0,2.53.93,2.53,2.47,0,2.89-3.34,3.05-4.63,3.12Z"/>
            <path class="cls-4" d="M116.59,14.05c-1.27,0-1.83-.15-2.37-.43-.78-.41-1.1-1.16-1.1-1.84,0-1.35,1.04-2.04,2.23-2.74-.3-.32-.51-.67-.63-.97-.15-.36-.21-.67-.55-2.72l1.38-.21c.01.6.02,1.75.31,2.55.15.41.38.58.62.73,1.24-.58,1.38-.65,2.7-1.27l.4,1.31c-1.7.46-3.3,1.26-3.99,1.7-.48.3-1.28.85-1.28,1.57,0,.78.85,1.15,1.98,1.15s2.24-.21,3.33-.48v1.38c-.65.1-1.69.26-3.04.26Z"/>
            <path class="cls-4" d="M128.57,13.86c-1.48,0-1.48-1.26-1.48-1.33,0-.27.22-1.52.22-1.69,0-.39-.24-.57-.56-.57-.59,0-1.13.46-1.43.81-.16.17-.73.96-1.36,2.69l-1.33-.38c2.6-5.02,2.87-5.55,3.35-6.58.37-.79.52-1.13.66-1.48l1.22.65c.06.03.26.13.26.24,0,.04-.04.09-.09.1-.03.01-.21.04-.24.07-.16.05-.92,1.35-1.58,2.89.55-.22,1-.23,1.08-.23.95,0,1.35.64,1.35,1.3,0,.25-.25,1.43-.25,1.7,0,.38.17.51.44.51.74,0,1.51-1.06,1.91-1.64l.7,1.03c-.4.61-1.25,1.91-2.87,1.91Z"/>
          </g>
        </g>
      </g>
    </g>
  </g>
</svg>