<?xml version="1.0" encoding="UTF-8"?>
<svg xmlns="http://www.w3.org/2000/svg" viewBox="0 0 163.6 27.93">
  <defs>
    <style>
      .cls-1 {
        fill: #f18d09;
      }

      .cls-2 {
        isolation: isolate;
      }

      .cls-3 {
        fill: #231815;
      }

      .cls-4 {
        fill: #fff;
      }

      .cls-5 {
        fill: #f29014;
        mix-blend-mode: multiply;
      }
    </style>
  </defs>
  <g class="cls-2">
    <g id="_レイヤー_2" data-name="レイヤー 2">
      <g id="_テキスト1" data-name="テキスト1">
        <g>
          <g>
            <rect class="cls-1" x=".18" width="163.43" height="17.49"/>
            <rect class="cls-5" x=".18" width="8.29" height="17.49"/>
          </g>
          <g>
            <path class="cls-4" d="M21.46,12.49l-.58-1.69h-3.31l-.58,1.69h-1.6l3.02-7.86h1.65l3.02,7.86h-1.61ZM19.4,6.55l-.17-.69-.18.69-1.04,3.03h2.46l-1.06-3.03Z"/>
            <path class="cls-4" d="M27.77,12.49h-3.67v-7.86h3.45c1.59,0,2.53.73,2.53,1.96,0,.5-.17.9-.45,1.21-.25.27-.45.38-1.03.47.77.14,1.02.3,1.29.58.34.36.47.84.47,1.27,0,1.14-.93,2.37-2.58,2.37ZM27.68,5.85h-2.13v1.92h1.9c.64,0,1.17-.32,1.17-1,0-.55-.38-.92-.94-.92ZM27.8,8.97h-2.25v2.29h2.08c.58,0,1.25-.34,1.25-1.18,0-.71-.51-1.11-1.08-1.11Z"/>
            <path class="cls-4" d="M31.54,12.49v-7.86h1.45v7.86h-1.45Z"/>
            <path class="cls-4" d="M38.15,5.85v6.64h-1.45v-6.64h-2.8v-1.23h7.06v1.23h-2.8Z"/>
            <path class="cls-4" d="M46.5,12.49l-.58-1.69h-3.31l-.58,1.69h-1.6l3.02-7.86h1.65l3.02,7.86h-1.61ZM44.44,6.55l-.17-.69-.18.69-1.04,3.03h2.46l-1.06-3.03Z"/>
            <path class="cls-4" d="M54.1,12.49l-3.1-5.01-.59-1.29.15,1.76v4.55h-1.4v-7.86h1.55l3.1,5.01.59,1.29-.15-1.76v-4.55h1.4v7.86h-1.55Z"/>
            <path class="cls-4" d="M57.22,6.02v-1.4h1.42v1.4h-1.42ZM57.22,12.49v-5.8h1.42v5.8h-1.42Z"/>
            <path class="cls-4" d="M65.62,12.49l-.58-1.69h-3.31l-.58,1.69h-1.6l3.02-7.86h1.65l3.02,7.86h-1.61ZM63.56,6.55l-.17-.69-.18.69-1.04,3.03h2.46l-1.06-3.03Z"/>
            <path class="cls-4" d="M70.31,8.45c-.68-.45-1.35-.8-2.14-1.04l.59-1.09c.82.26,1.53.61,2.21,1.12l-.66,1.01ZM73.6,10.28c-1.1.95-2.33,1.73-3.62,2.38-.14.08-.16.08-.18.16-.03.14-.05.19-.11.19-.1,0-.22-.23-.25-.29l-.57-1.06c2.97-1.27,5.03-3.21,6.36-5.27l.86,1.07c-.34.53-1.02,1.56-2.49,2.81ZM71.41,5.93c-.71-.54-1.69-.85-2.11-.97l.57-1.03c.59.16,1.5.44,2.18.96l-.64,1.04ZM74.69,5.65c-.32-.33-.66-.58-1.06-.81l.45-.59c.32.18.73.44,1.09.81l-.49.59ZM75.79,4.78c-.32-.33-.79-.62-1.12-.82l.45-.59c.19.11.75.42,1.14.82l-.47.59Z"/>
            <path class="cls-4" d="M83.44,10.27l-.98-.42c.18-.31.22-.38.52-.87.21-.33.23-.37.43-.72l-1.96.4.81,4.12-1.15.27-.74-4.16-1.97.41-.39-.97,2.18-.42-.36-1.93,1.02-.12c.05-.01.28-.02.28.1,0,.02,0,.04-.09.15-.02.03-.08.11-.06.16l.29,1.42,2.52-.48c.18-.03.31-.21.37-.28l.87.64c-.47.79-.84,1.41-1.58,2.71Z"/>
            <path class="cls-4" d="M87.25,9.07v-1.37h7.66v1.37h-7.66Z"/>
            <path class="cls-4" d="M99.05,8.45c-.68-.45-1.35-.8-2.14-1.04l.59-1.09c.82.26,1.53.61,2.21,1.12l-.66,1.01ZM102.35,10.28c-1.1.95-2.33,1.73-3.62,2.38-.14.08-.16.08-.18.16-.03.14-.05.19-.11.19-.1,0-.22-.23-.25-.29l-.57-1.06c2.97-1.27,5.03-3.21,6.36-5.27l.86,1.07c-.34.53-1.02,1.56-2.49,2.81ZM100.15,5.93c-.71-.54-1.69-.85-2.11-.97l.57-1.03c.59.16,1.5.44,2.18.96l-.64,1.04ZM103.44,5.65c-.32-.33-.66-.58-1.06-.81l.45-.59c.32.18.73.44,1.09.81l-.49.59ZM104.54,4.78c-.32-.33-.79-.62-1.12-.82l.45-.59c.19.11.75.42,1.14.82l-.47.59Z"/>
            <path class="cls-4" d="M106.75,9.07v-1.37h7.66v1.37h-7.66Z"/>
            <path class="cls-4" d="M122.84,6.18c-.49,1.26-1,2.62-2.17,4.03-1.11,1.36-2.3,2-2.95,2.36l-1.17-.95c1.86-.87,3.78-2.26,4.89-5.52h-5.73v-1.26h6.09c.13,0,.25-.09.36-.17l1.07.97c-.19.18-.29.31-.38.54Z"/>
            <path class="cls-4" d="M129.94,10.09l-.79-.68c.72-.57,1.29-1.28,1.62-1.88h-5.49v-1h5.55c.23,0,.41-.06.58-.22.33.38.7.74.84.83-.47.97-1.33,2.12-2.31,2.95ZM129.09,8.08c-.25,2.46-.69,3.46-2.23,4.74l-1-.56c1.67-1.18,2.14-2.19,2.14-4.56l1.04.06c.11.01.2.05.2.12,0,.09-.09.14-.16.19Z"/>
            <path class="cls-4" d="M134.36,9.07v-1.37h7.66v1.37h-7.66Z"/>
            <path class="cls-4" d="M150.6,12.24c-.13-.46-.24-.71-.45-1.21-1.03.17-6.16,1.02-6.24,1.08-.02.01-.15.14-.16.15-.02.02-.04.04-.09.04-.09,0-.12-.1-.16-.29l-.26-1.25c.26-.01.57-.03,1.2-.09.84-2.13,1.65-4.49,2.12-6.37l1.27.31c.1.02.3.1.3.21,0,.05-.02.06-.2.17-.11.05-.13.09-.23.38-.57,1.67-1.48,4.01-1.95,5.17,1.53-.17,2.66-.32,3.85-.53-.27-.44-.64-1.02-1.24-1.67l1.14-.57c1.06,1.25,1.75,2.45,2.32,3.79l-1.22.67Z"/>
          </g>
          <g>
            <path class="cls-3" d="M0,27.93v-6.7h2.12c-.44.59-.6.88-.76,1.36-.2.59-.3,1.23-.3,1.99s.1,1.4.3,1.99c.17.49.33.78.76,1.37H0Z"/>
            <path class="cls-3" d="M3.98,23.42c.65.26,1.34.61,1.86.95l-.43.79c-.46-.36-1.25-.78-1.9-1.02l.47-.72ZM3.67,26.56c.55,0,1.28-.17,2.02-.46,1.28-.45,2.33-1.6,2.84-3.09.27.29.41.41.73.62-.87,2.12-2.35,3.27-4.86,3.76-.3.06-.36.08-.49.12l-.24-.96ZM4.52,21.73c.66.25,1.36.59,1.86.9l-.45.77c-.57-.39-1.36-.8-1.87-.96l.46-.71ZM8.16,21.59c.31.33.5.6.74,1.03l-.49.26c-.23-.43-.43-.71-.74-1.04l.49-.25ZM9.25,22.43c-.21-.38-.44-.71-.71-1.02l.47-.25c.32.32.51.59.73.99l-.48.27Z"/>
            <path class="cls-3" d="M11.2,23.29c-.05-.3-.07-.37-.13-.53l.83-.13c0,.14.02.29.07.54l.11.54,2.09-.35c.2-.03.32-.06.46-.12l.49.44c-.06.09-.11.17-.18.34-.31.78-.71,1.3-1.38,1.82-.25-.27-.36-.34-.65-.5.52-.32.9-.73,1.19-1.25q-.08.02-.26.05l-1.65.27.5,2.59q.07.39.13.57l-.88.15c0-.18-.01-.34-.06-.57l-.48-2.61-.6.1c-.25.04-.41.08-.62.15l-.15-.8c.22,0,.4-.02.67-.06l.58-.1-.11-.55Z"/>
            <path class="cls-3" d="M15.92,24.06c.31.04.44.05,1.13.05h3.73c.69,0,.83,0,1.13-.05v.97c-.28-.04-.36-.04-1.14-.04h-3.72c-.79,0-.86,0-1.14.04v-.97Z"/>
            <path class="cls-3" d="M23.05,23.42c.65.26,1.34.61,1.86.95l-.43.79c-.46-.36-1.25-.78-1.9-1.02l.47-.72ZM22.74,26.56c.55,0,1.28-.17,2.02-.46,1.28-.45,2.33-1.6,2.84-3.09.27.29.41.41.73.62-.87,2.12-2.35,3.27-4.86,3.76-.3.06-.36.08-.49.12l-.24-.96ZM23.59,21.73c.66.25,1.36.59,1.86.9l-.45.77c-.57-.39-1.36-.8-1.87-.96l.46-.71ZM27.23,21.59c.31.33.5.6.74,1.03l-.49.26c-.23-.43-.43-.71-.74-1.04l.49-.25ZM28.32,22.43c-.21-.38-.44-.71-.71-1.02l.47-.25c.32.32.51.59.73.99l-.48.27Z"/>
            <path class="cls-3" d="M28.88,24.06c.31.04.44.05,1.13.05h3.73c.69,0,.83,0,1.13-.05v.97c-.28-.04-.36-.04-1.14-.04h-3.72c-.79,0-.86,0-1.14.04v-.97Z"/>
            <path class="cls-3" d="M36.87,23.88c1.06-.2,2.61-.82,3.06-1.25l.56.79s-.26.12-.63.3c-.95.46-1.93.77-2.99.97v.92s0,.07,0,.09c0,.41.03.57.12.67.12.13.52.18,1.2.18.47,0,1.12-.04,1.62-.11.34-.04.49-.08.8-.17l.04.93c-.15,0-.18,0-.93.08-.41.04-1.29.08-1.72.08-.88,0-1.37-.09-1.64-.3-.2-.15-.3-.37-.34-.71-.01-.12-.02-.24-.02-.64v-3.25c0-.36,0-.47-.04-.64h.94c-.03.17-.04.29-.04.65v1.42ZM40.2,21.48c.28.31.47.6.7,1.06l-.5.23c-.22-.45-.4-.73-.69-1.07l.5-.22ZM41.25,22.37c-.19-.39-.41-.72-.67-1.04l.48-.22c.31.35.5.62.69,1.02l-.5.25Z"/>
            <path class="cls-3" d="M41.25,24.06c.31.04.44.05,1.13.05h3.73c.69,0,.83,0,1.13-.05v.97c-.28-.04-.36-.04-1.14-.04h-3.72c-.79,0-.86,0-1.14.04v-.97Z"/>
            <path class="cls-3" d="M52.54,22.51c-.06.12-.08.17-.12.32-.35,1.34-.76,2.18-1.44,2.93-.69.77-1.44,1.28-2.61,1.79-.2-.38-.29-.51-.62-.83.62-.2,1.01-.38,1.53-.71,1.09-.71,1.78-1.7,2.12-3.05h-3.33c-.47,0-.63,0-.88.04v-.91c.27.04.42.05.9.05h3.21c.39,0,.53-.01.75-.07l.48.46Z"/>
            <path class="cls-3" d="M54.06,27.93c.43-.59.59-.88.76-1.37.21-.59.31-1.22.31-1.99s-.1-1.39-.31-1.99c-.17-.49-.33-.77-.76-1.36h2.12v6.7h-2.12Z"/>
            <path class="cls-3" d="M62.69,27.46c-.58-.71-1.39-1.5-2.15-2.08-.79.88-1.6,1.5-2.67,2.02-.2-.36-.28-.48-.57-.78.54-.21.88-.4,1.4-.77,1.06-.74,1.9-1.76,2.35-2.85l.08-.18q-.11,0-2.32.04c-.34,0-.53.02-.76.06l-.03-.9c.2.04.33.04.62.04h.17l2.46-.04c.39,0,.45-.01.62-.08l.46.48c-.09.11-.15.2-.22.38-.32.75-.67,1.36-1.09,1.93.44.29.82.59,1.29,1.02q.18.15,1.02.97l-.67.73Z"/>
            <path class="cls-3" d="M67.16,24.37c-.04.8-.19,1.39-.49,1.88-.37.62-.88,1-1.83,1.38-.18-.36-.27-.48-.57-.77.84-.26,1.37-.63,1.66-1.17.18-.32.29-.78.31-1.32h-1.71c-.48,0-.64,0-.89.04v-.83c.27.04.42.05.9.05h4.1c.48,0,.64,0,.9-.05v.83c-.25-.03-.41-.04-.89-.04h-1.5ZM64.36,21.81c.26.04.4.05.9.05h2.69c.51,0,.64,0,.9-.05v.85c-.23-.03-.4-.04-.89-.04h-2.72c-.49,0-.66,0-.89.04v-.85Z"/>
            <path class="cls-3" d="M70.23,24.06c.31.04.44.05,1.13.05h3.73c.69,0,.83,0,1.13-.05v.97c-.28-.04-.36-.04-1.14-.04h-3.72c-.79,0-.86,0-1.14.04v-.97Z"/>
            <path class="cls-3" d="M78.87,22.29c-.06-.34-.09-.46-.17-.66l.92-.15c0,.18.04.38.08.66l.11.61,1.48-.23c.34-.06.49-.09.67-.15l.15.84q-.19.01-.67.09l-1.48.23.21,1.15,1.64-.26c.29-.05.54-.11.73-.16l.15.84c-.15,0-.17,0-.32.04-.04,0-.08,0-.11.01-.05,0-.14.02-.28.04l-1.67.27.25,1.36c.08.46.09.48.17.72l-.94.17c0-.21-.04-.41-.09-.74l-.25-1.38-1.73.27c-.34.06-.46.08-.71.15l-.14-.86c.24,0,.44-.02.74-.07l1.7-.27-.21-1.15-1.3.2c-.32.06-.58.11-.77.16l-.14-.86c.25,0,.48-.04.77-.08l1.3-.2-.11-.59Z"/>
            <path class="cls-3" d="M88.57,21.28l-5.31,6.58h-1.03l5.3-6.58h1.04Z"/>
            <path class="cls-3" d="M90.56,22.16c-.03.08-.04.16-.09.54-.14.95-.31,1.73-.55,2.39-.31.86-.67,1.49-1.24,2.17-.34-.32-.45-.41-.8-.6.42-.42.71-.85,1-1.49.3-.65.55-1.52.66-2.4.04-.29.06-.53.06-.68v-.1l.96.17ZM92.54,21.99c.02.39.13,1,.29,1.61.34,1.28.8,2.18,1.56,3.03-.37.24-.49.34-.77.64-.5-.6-.86-1.23-1.19-2.06-.3-.74-.55-1.67-.67-2.55-.04-.27-.06-.4-.1-.5l.87-.17Z"/>
            <path class="cls-3" d="M94.99,26.39c.6-.04,1.44-.24,2.07-.52.88-.38,1.53-.92,2.08-1.72.31-.45.5-.83.71-1.4.27.33.38.43.74.69-.6,1.28-1.26,2.11-2.22,2.75-.71.48-1.58.82-2.67,1.05-.28.06-.3.06-.46.12l-.26-.97ZM95.59,22.04c.83.52,1.27.84,1.81,1.35l-.6.76c-.56-.59-1.13-1.06-1.79-1.42l.58-.69Z"/>
            <path class="cls-3" d="M103.03,22.16c-.02.08-.03.08-.04.14l-.02.12-.03.2-.02.17c-.29,2.01-.84,3.39-1.78,4.47-.33-.32-.46-.42-.8-.6.42-.42.71-.85,1-1.49.3-.65.55-1.52.66-2.4.04-.29.06-.53.06-.68v-.1l.96.17ZM105.02,21.99c0,.32.13,1.01.29,1.61.34,1.29.83,2.24,1.56,3.03-.36.22-.5.34-.77.64-.93-1.11-1.58-2.72-1.86-4.61-.04-.29-.06-.4-.1-.5l.87-.17ZM105.61,21.57c.26.36.41.66.58,1.13l-.53.17c-.16-.45-.31-.75-.57-1.14l.53-.15ZM106.58,22.58c-.16-.43-.34-.79-.56-1.11l.52-.15c.27.37.42.67.57,1.09l-.53.17Z"/>
            <path class="cls-3" d="M106.91,24.06c.31.04.44.05,1.13.05h3.73c.69,0,.83,0,1.13-.05v.97c-.28-.04-.36-.04-1.14-.04h-3.72c-.79,0-.86,0-1.14.04v-.97Z"/>
            <path class="cls-3" d="M118.84,23.13c-.06.11-.07.23-.08.46-.02.79-.1,1.88-.17,2.34-.18,1.21-.43,1.5-1.27,1.5-.27,0-.5-.02-.87-.08,0-.42-.04-.59-.16-.9.41.12.69.17.93.17.3,0,.41-.15.52-.76.08-.48.15-1.44.15-2.24h-1.63c-.17,1.76-.92,2.98-2.45,3.94-.23-.36-.35-.49-.63-.74,1.34-.69,2.07-1.74,2.21-3.2h-1.16c-.44,0-.54,0-.76.04v-.85c.22.04.35.05.77.05h1.22c.02-.27.04-.68.04-.88v-.18c0-.08,0-.14-.02-.27l.94.02c-.01.1-.02.11-.03.22,0,.04,0,.08,0,.13v.13s-.03.38-.03.38c0,.19,0,.2-.03.44h1.55c.23,0,.3,0,.38-.02l-.02-.06-.04-.07c-.15-.35-.32-.65-.55-.97l.51-.19c.27.36.43.64.62,1.11l-.36.14.39.34ZM119.17,22.5c-.17-.41-.37-.77-.6-1.09l.5-.2c.29.37.45.65.62,1.06l-.51.22Z"/>
            <path class="cls-3" d="M119.72,24.06c.31.04.44.05,1.13.05h3.73c.69,0,.83,0,1.13-.05v.97c-.28-.04-.36-.04-1.14-.04h-3.72c-.79,0-.86,0-1.14.04v-.97Z"/>
            <path class="cls-3" d="M131.53,21.28l-5.31,6.58h-1.03l5.3-6.58h1.04Z"/>
            <path class="cls-3" d="M133.51,22.16c-.03.08-.04.16-.09.54-.14.95-.31,1.73-.55,2.39-.31.86-.67,1.49-1.24,2.17-.34-.32-.45-.41-.8-.6.42-.42.71-.85,1-1.49.3-.65.55-1.52.66-2.4.04-.29.06-.53.06-.68v-.1l.96.17ZM135.5,21.99c.02.39.13,1,.29,1.61.34,1.28.8,2.18,1.56,3.03-.37.24-.49.34-.77.64-.5-.6-.86-1.23-1.19-2.06-.3-.74-.55-1.67-.67-2.55-.04-.27-.06-.4-.1-.5l.87-.17Z"/>
            <path class="cls-3" d="M137.95,26.39c.6-.04,1.44-.24,2.07-.52.88-.38,1.53-.92,2.08-1.72.31-.45.5-.83.71-1.4.27.33.38.43.74.69-.6,1.28-1.26,2.11-2.22,2.75-.71.48-1.58.82-2.67,1.05-.28.06-.3.06-.46.12l-.26-.97ZM138.54,22.04c.83.52,1.27.84,1.81,1.35l-.6.76c-.56-.59-1.13-1.06-1.79-1.42l.58-.69Z"/>
            <path class="cls-3" d="M145.99,22.16c-.02.08-.03.08-.04.14l-.02.12-.03.2-.02.17c-.29,2.01-.84,3.39-1.78,4.47-.33-.32-.46-.42-.8-.6.42-.42.71-.85,1-1.49.3-.65.55-1.52.66-2.4.04-.29.06-.53.06-.68v-.1l.96.17ZM147.97,21.99c0,.32.13,1.01.29,1.61.34,1.29.83,2.24,1.56,3.03-.36.22-.5.34-.77.64-.93-1.11-1.58-2.72-1.86-4.61-.04-.29-.06-.4-.1-.5l.87-.17ZM148.57,21.57c.26.36.41.66.58,1.13l-.53.17c-.16-.45-.31-.75-.57-1.14l.53-.15ZM149.54,22.58c-.16-.43-.34-.79-.56-1.11l.52-.15c.27.37.42.67.57,1.09l-.53.17Z"/>
            <path class="cls-3" d="M149.87,24.06c.31.04.44.05,1.13.05h3.73c.69,0,.83,0,1.13-.05v.97c-.28-.04-.36-.04-1.14-.04h-3.72c-.79,0-.86,0-1.14.04v-.97Z"/>
            <path class="cls-3" d="M161.96,22.88c-.06.09-.1.17-.18.42-.41,1.25-.75,1.87-1.41,2.65-.62.71-1.48,1.33-2.49,1.77-.18-.33-.31-.48-.6-.74,1.84-.7,3.02-1.95,3.58-3.78l-2.11.03c-.39.64-1.06,1.37-1.64,1.8-.21-.29-.31-.38-.68-.6.76-.5,1.32-1.13,1.81-2.03.21-.38.34-.71.36-.93l.96.2c-.05.06-.06.08-.12.21-.06.13-.12.27-.19.41-.04.06-.04.07-.05.1l-.06.1c.08,0,.2-.01.34-.01l1.53-.02c.19,0,.31,0,.36-.01-.16-.35-.29-.57-.51-.88l.52-.18c.27.37.43.64.62,1.11l-.3.11.24.27ZM162.41,22.38c-.17-.41-.37-.77-.6-1.09l.51-.17c.29.37.45.65.62,1.06l-.52.2Z"/>
          </g>
        </g>
      </g>
    </g>
  </g>
</svg>