<?xml version="1.0" encoding="UTF-8"?>
<svg xmlns="http://www.w3.org/2000/svg" viewBox="0 0 162.24 26.86">
  <defs>
    <style>
      .cls-1 {
        fill: #f18d09;
      }

      .cls-2 {
        isolation: isolate;
      }

      .cls-3 {
        fill: #231815;
      }

      .cls-4 {
        fill: #fff;
      }

      .cls-5 {
        fill: #f29014;
        mix-blend-mode: multiply;
      }
    </style>
  </defs>
  <g class="cls-2">
    <g id="_レイヤー_2" data-name="レイヤー 2">
      <g id="_レイヤー_1-2" data-name="レイヤー 1">
        <g>
          <g>
            <rect class="cls-1" width="162.24" height="17.49"/>
            <rect class="cls-5" width="8.29" height="17.49"/>
          </g>
          <g>
            <path class="cls-3" d="M3.05,22.44c-.06.38-.13.67-.25,1.03-.2-.15-.36-.23-.6-.32.21-.57.35-1.39.35-2.08,0-.04,0-.09-.01-.18l.68.08c-.03.13-.03.14-.04.36v.1s-.03.29-.03.29h.32v-.83c0-.21-.01-.39-.05-.57h.82c-.03.18-.04.34-.04.57v.83h.06c.25,0,.4-.01.55-.04v.74c.21.01.39.02.64.02h.79v-.68h-.58c-.28,0-.51.01-.71.04v-.76c.2.03.4.04.71.04h.58v-.22c0-.2-.01-.35-.04-.53h.8c-.03.16-.03.31-.03.52v.22h.75c.31,0,.52-.01.73-.04v.76c-.21-.02-.43-.04-.73-.04h-.75v.68h.94c.35,0,.6-.01.78-.03v.76c-.21-.03-.47-.04-.73-.04h-.04v.59h.06c.33,0,.51,0,.68-.04v.77c-.21-.03-.4-.04-.68-.04h-.06v1.67c0,.53-.22.67-1.03.67-.12,0-.37,0-.59-.02-.02-.32-.08-.53-.18-.77.4.06.62.08.81.08.22,0,.26-.03.26-.21v-1.41h-1.81c-.29,0-.46,0-.68.04v-.32c-.19.09-.32.15-.5.22v1.67c0,.31.01.57.04.81h-.82c.03-.16.05-.5.05-.81v-1.39c-.17.06-.32.12-.46.17-.37.13-.45.17-.53.2l-.17-.8c.25-.03.53-.1,1.16-.31v-1.44h-.41ZM4.18,23.63c.27-.1.36-.14.6-.25v.31c.17.01.37.02.67.02h1.72v-.59h-1.75c-.37,0-.58,0-.78.04v-.72c-.15,0-.24,0-.35,0h-.11v1.19ZM5.55,24.44c.35.33.62.64.91,1.07l-.6.46c-.28-.47-.48-.74-.88-1.15l.57-.39Z"/>
            <path class="cls-3" d="M13.63,26.33c-1.07.22-1.82.36-2.56.46-.18.02-.21.03-.34.05l-.12-.71h.07c.2,0,.47-.03.89-.08v-.48c-.49.27-.94.45-1.61.65-.12-.29-.18-.41-.35-.63.9-.18,1.66-.49,2.15-.86h-1.31c-.4,0-.52,0-.74.04v-.68c.21.02.37.03.77.03h2.16v-.12c0-.07,0-.18-.01-.24-.15,0-.2,0-.37-.01-.01-.17-.05-.32-.11-.47.14.02.28.04.36.04.09,0,.12-.03.12-.12v-.22h-.67v.36c0,.22,0,.39.02.55h-.71c.02-.2.03-.3.03-.55v-.36h-.6v.42c0,.22,0,.28.02.4h-.69v-.07c.02-.12.03-.23.03-.36v-.53c0-.13,0-.19-.02-.4.1,0,.3.01.46.01h.8v-.28h-.9c-.26,0-.42,0-.62.03v-.6c.14.02.22.02.46.03-.17-.12-.31-.21-.52-.31.26-.29.42-.57.55-.98l.7.14c-.06.15-.08.2-.13.32h.46c0-.2-.01-.32-.03-.46h.73c-.02.15-.03.26-.03.46h.67c.32,0,.46,0,.64-.04v.6c-.19-.01-.35-.02-.63-.02h-.67v.29h.76c.39,0,.51,0,.69-.04v.6c-.18-.02-.37-.03-.65-.03h-.79v.28h.7c.26,0,.39,0,.55-.01,0,.08,0,.16,0,.3v.55c0,.18-.03.28-.13.36h.31c-.01.15-.02.2-.02.35v.12h1.83c.39,0,.61,0,.79-.03v.68c-.23-.03-.35-.04-.76-.04h-.28l.51.32c-.25.25-.46.41-.8.6.55.26.88.37,1.44.47-.17.24-.26.4-.37.7-.91-.26-1.53-.57-2.09-1.04v.56ZM11.29,21.63v-.29h-.73c-.08.12-.11.17-.21.29h.94ZM12.29,25.94c.69-.11.87-.14,1.26-.23-.36-.33-.55-.58-.72-.97h-.15c-.12.12-.26.25-.4.36v.85ZM13.55,24.73c.13.22.27.38.53.58.26-.15.53-.37.71-.58h-1.24ZM13.59,22.87c.02-.17.03-.27.03-.48v-1.16c0-.19-.01-.38-.03-.53h.76c-.02.13-.03.27-.03.53v1.15c0,.23,0,.34.02.48h-.74ZM15.65,23.05c0,.37-.06.52-.24.63-.15.09-.37.13-.8.13-.14,0-.33,0-.51-.01-.03-.24-.09-.47-.19-.67.26.04.51.06.67.06.1,0,.23-.01.27-.02.06-.02.08-.06.08-.18v-2c0-.25-.01-.41-.03-.6h.78c-.03.2-.03.34-.03.63v2.03Z"/>
            <path class="cls-3" d="M18.95,23.15c-.02.08-.03.09-.06.22-.24,1.08-.62,1.95-1.16,2.72-.34-.25-.46-.31-.8-.45.46-.55.71-1.04.97-1.84.12-.37.17-.59.2-.86l.85.22ZM19.65,21.26c0-.35,0-.53-.04-.72h.94c-.02.2-.03.3-.03.74v.37h1.59c.48,0,.63,0,.89-.05v.86c-.24-.03-.42-.04-.88-.04h-1.6v3.4c0,.36,0,.56.03.78h-.94c.03-.22.04-.43.04-.79v-3.39h-1.54c-.45,0-.63,0-.87.04v-.86c.26.04.42.05.89.05h1.52v-.39ZM22.03,22.93c.05.24.1.42.24.78.31.85.57,1.34.98,1.88-.36.19-.48.26-.8.49-.53-.85-.81-1.51-1.14-2.62-.06-.2-.06-.22-.11-.33l.82-.21Z"/>
            <path class="cls-3" d="M25.37,22.2c.29.54.43.88.68,1.66l-.78.25c-.18-.71-.32-1.08-.63-1.69l.73-.22ZM29.35,22.25c-.04.1-.06.14-.1.36-.2.95-.51,1.72-.96,2.33-.51.71-1.09,1.16-2.11,1.69-.18-.31-.26-.41-.55-.69.48-.19.77-.34,1.18-.64.81-.6,1.27-1.31,1.57-2.43.09-.34.12-.59.12-.81l.85.2ZM26.84,21.92c.37.69.5,1,.67,1.61l-.77.25c-.13-.53-.34-1.07-.63-1.65l.73-.21Z"/>
            <path class="cls-3" d="M31.64,26.54c.03-.22.04-.41.04-.78v-4.49c0-.34-.01-.53-.04-.71h.95c-.03.21-.03.3-.03.74v1.3c.95.34,2.04.85,3.15,1.48l-.48.83c-.58-.4-1.3-.8-2.45-1.34-.16-.08-.18-.08-.24-.12.02.2.03.28.03.48v1.85c0,.36,0,.55.03.78h-.95Z"/>
            <path class="cls-3" d="M37.9,26.54c.03-.2.04-.38.04-.78v-4.49c0-.41-.01-.55-.04-.71h.95c-.02.19-.03.32-.03.74v1.3c.8.27,2.05.85,3.15,1.48l-.49.83c-.48-.35-1.47-.89-2.45-1.34-.16-.08-.18-.08-.24-.12.02.2.03.32.03.48v1.85c0,.38,0,.57.03.78h-.95ZM40.76,20.92c.3.33.49.6.73,1.03l-.48.26c-.23-.43-.42-.71-.73-1.04l.48-.25ZM41.83,21.77c-.21-.39-.44-.71-.71-1.02l.46-.25c.31.32.51.59.72.99l-.48.27Z"/>
            <path class="cls-3" d="M44.46,22.2c.29.54.43.88.68,1.66l-.78.25c-.18-.71-.32-1.08-.63-1.69l.73-.22ZM48.44,22.25c-.04.1-.06.14-.1.36-.2.95-.51,1.72-.96,2.33-.51.71-1.09,1.16-2.11,1.69-.18-.31-.26-.41-.55-.69.48-.19.77-.34,1.18-.64.81-.6,1.27-1.31,1.57-2.43.09-.34.12-.59.12-.81l.84.2ZM45.94,21.92c.37.69.5,1,.67,1.61l-.77.25c-.13-.53-.34-1.07-.63-1.65l.73-.21Z"/>
            <path class="cls-3" d="M55.45,21.75c-.07.1-.1.17-.17.42-.32,1.06-.81,2.01-1.42,2.7-.64.74-1.4,1.28-2.47,1.78-.19-.35-.28-.47-.59-.74.69-.29,1.08-.5,1.52-.83.99-.74,1.64-1.7,2.02-2.96l-2.08.04c-.42.68-.96,1.28-1.62,1.79-.21-.29-.31-.38-.67-.6.79-.55,1.29-1.11,1.79-2.03.21-.4.33-.67.35-.92l.95.19q-.04.06-.12.22s-.02.04-.09.2t-.09.18-.11.22c.09,0,.2-.01.33-.01l1.52-.02c.27,0,.35-.01.51-.07l.44.44Z"/>
            <path class="cls-3" d="M61.71,20.28l-5.25,6.58h-1.02l5.24-6.58h1.03Z"/>
            <path class="cls-3" d="M67.64,21.26q-.08.02-.58.19c-.4.13-.62.18-1.16.29q0,.95-.02,1.18h1.47c.47,0,.59,0,.84-.05v.84c-.26-.03-.39-.03-.83-.03h-1.53c-.08.65-.22,1.12-.46,1.53-.24.41-.64.8-1.13,1.11-.19.13-.33.2-.64.35-.2-.36-.31-.49-.6-.74.5-.18.76-.33,1.07-.59.42-.34.68-.74.8-1.19.03-.12.05-.24.08-.47h-1.71c-.44,0-.58,0-.83.03v-.84c.26.04.37.05.84.05h1.77c.01-.29.01-.57.01-1.06-.56.08-.78.1-1.92.16-.07-.31-.1-.42-.26-.76.21.01.33.01.43.01.93,0,2.11-.16,2.96-.41.4-.12.6-.2.84-.33l.55.71Z"/>
            <path class="cls-3" d="M70.92,20.71c-.03.2-.03.26-.03.63v1.93c0,.35,0,.44.03.62h-.95c.02-.16.03-.38.03-.63v-1.93c0-.36,0-.45-.03-.63h.94ZM74.07,20.72c-.03.18-.03.25-.03.65v.95c0,1.09-.06,1.68-.18,2.12-.2.7-.64,1.23-1.36,1.63-.37.21-.71.35-1.35.54-.12-.34-.19-.46-.49-.83.68-.13,1.08-.28,1.5-.56.65-.43.88-.86.96-1.79.03-.3.03-.61.03-1.17v-.88c0-.36,0-.5-.03-.67h.96Z"/>
            <path class="cls-3" d="M76.52,26.54c.03-.2.04-.38.04-.78v-4.49c0-.41-.01-.55-.04-.71h.95c-.02.19-.03.32-.03.74v1.3c.8.27,2.05.85,3.15,1.48l-.49.83c-.48-.35-1.47-.89-2.45-1.34-.16-.08-.18-.08-.24-.12.02.2.03.32.03.48v1.85c0,.38,0,.57.03.78h-.95ZM79.38,20.92c.3.33.49.6.73,1.03l-.48.26c-.23-.43-.42-.71-.73-1.04l.48-.25ZM80.45,21.77c-.21-.39-.44-.71-.71-1.02l.46-.25c.31.32.51.59.72.99l-.48.27Z"/>
            <path class="cls-3" d="M83.08,22.2c.29.54.43.88.68,1.66l-.78.25c-.18-.71-.32-1.08-.63-1.69l.73-.22ZM87.06,22.25c-.04.1-.06.14-.1.36-.2.95-.51,1.72-.96,2.33-.51.71-1.09,1.16-2.11,1.69-.18-.31-.26-.41-.55-.69.48-.19.77-.34,1.18-.64.81-.6,1.27-1.31,1.57-2.43.09-.34.12-.59.12-.81l.85.2ZM84.56,21.92c.37.69.5,1,.67,1.61l-.77.25c-.13-.53-.34-1.07-.63-1.65l.73-.21Z"/>
            <path class="cls-3" d="M94.07,21.75c-.07.1-.1.17-.17.42-.32,1.06-.81,2.01-1.42,2.7-.64.74-1.4,1.28-2.47,1.78-.19-.35-.28-.47-.59-.74.69-.29,1.08-.5,1.52-.83.99-.74,1.64-1.7,2.02-2.96l-2.08.04c-.42.68-.96,1.28-1.62,1.79-.21-.29-.31-.38-.67-.6.79-.55,1.29-1.11,1.79-2.03.21-.4.33-.67.35-.92l.95.19q-.04.06-.12.22s-.02.04-.09.2t-.09.18-.11.22c.09,0,.2-.01.33-.01l1.52-.02c.27,0,.35-.01.51-.07l.44.44Z"/>
            <path class="cls-3" d="M100.33,20.28l-5.25,6.58h-1.02l5.24-6.58h1.03Z"/>
            <path class="cls-3" d="M105.79,22.24c.48,0,.63,0,.9-.05v.88c-.25-.03-.43-.03-.89-.03h-1.42c-.06.97-.18,1.44-.5,1.98-.38.64-.87,1.07-1.77,1.57-.24-.4-.34-.53-.63-.76.83-.36,1.36-.8,1.67-1.38.21-.38.28-.69.34-1.41h-1.72c-.46,0-.64,0-.89.03v-.88c.27.04.42.05.9.05h1.75c0-.29,0-.42,0-.55v-.41c0-.3,0-.48-.03-.67h.96c-.03.22-.03.23-.03.67v.42q-.01.46-.01.54h1.37Z"/>
            <path class="cls-3" d="M113.27,21.26q-.08.02-.58.19c-.4.13-.62.18-1.16.29q0,.95-.02,1.18h1.47c.47,0,.59,0,.85-.05v.84c-.26-.03-.39-.03-.83-.03h-1.53c-.08.65-.22,1.12-.46,1.53-.24.41-.64.8-1.13,1.11-.19.13-.33.2-.64.35-.2-.36-.31-.49-.6-.74.5-.18.76-.33,1.07-.59.42-.34.68-.74.8-1.19.03-.12.05-.24.08-.47h-1.71c-.44,0-.57,0-.83.03v-.84c.26.04.37.05.84.05h1.77c.01-.29.01-.57.01-1.06-.56.08-.78.1-1.92.16-.07-.31-.1-.42-.26-.76.21.01.33.01.43.01.93,0,2.11-.16,2.96-.41.4-.12.6-.2.84-.33l.55.71Z"/>
            <path class="cls-3" d="M116.18,26.34c-.35,0-.45,0-.62.03v-.78c.19.03.35.05.62.05h2.66v-1.06h-2.41c-.35,0-.45,0-.62.03v-.76c.19.04.35.05.62.05h2.41v-.97h-2.59c-.34,0-.44,0-.62.03v-.78c.19.04.35.05.62.05h2.73c.25,0,.44,0,.64-.03-.01.25-.02.43-.02.74v3.21c0,.27,0,.37.03.53h-.8v-.33h-2.65Z"/>
            <path class="cls-3" d="M126.74,26.46c-.58-.71-1.37-1.5-2.13-2.08-.78.88-1.58,1.5-2.64,2.02-.19-.36-.28-.48-.56-.78.53-.21.87-.4,1.39-.77,1.05-.74,1.88-1.76,2.33-2.85l.08-.18q-.11,0-2.29.04c-.33,0-.52.02-.75.06l-.03-.9c.19.03.33.04.61.04h.17l2.44-.04c.39,0,.44-.01.62-.08l.46.48c-.09.1-.15.2-.22.38-.32.75-.66,1.36-1.08,1.93.44.29.81.59,1.28,1.02q.17.15,1.01.97l-.67.73Z"/>
            <path class="cls-3" d="M134.47,20.28l-5.25,6.58h-1.02l5.24-6.58h1.03Z"/>
            <path class="cls-3" d="M136.41,25.89c-.48,0-.64,0-.85.03v-.9c.26.04.38.05.87.05h3.15v-3.05h-3.03c-.49,0-.64,0-.89.03v-.91c.26.04.39.05.89.05h3.33q.36,0,.6-.01c-.02.19-.02.26-.02.58v3.85c0,.35,0,.55.03.72h-.93v-.43h-3.16Z"/>
            <path class="cls-3" d="M147.4,21.87c-.06.1-.08.17-.12.32-.54,2.21-1.79,3.64-3.94,4.55-.18-.36-.3-.53-.61-.83,1.92-.6,3.17-1.91,3.62-3.77h-3.3c-.51,0-.64,0-.87.04v-.91c.25.04.42.05.89.05h3.18c.25,0,.37,0,.5-.02-.12-.25-.25-.46-.43-.71l.51-.19c.27.36.43.64.62,1.11l-.28.11.24.26ZM147.81,21.38c-.17-.41-.36-.77-.6-1.09l.5-.19c.28.37.45.65.61,1.06l-.51.21Z"/>
            <path class="cls-3" d="M148.78,23.06c.31.04.44.05,1.12.05h3.69c.69,0,.82,0,1.12-.05v.97c-.28-.04-.35-.04-1.13-.04h-3.68c-.78,0-.85,0-1.13.04v-.97Z"/>
            <path class="cls-3" d="M161.55,21.67c-.09.12-.1.15-.21.47-.22.64-.6,1.46-.89,1.93-.71,1.16-1.68,1.99-3.16,2.68-.22-.38-.31-.5-.57-.72.59-.25.94-.42,1.35-.7.49-.32.78-.57,1.14-.97-.48-.42-.9-.71-1.42-1l.53-.62c.58.33.87.53,1.39.94.33-.5.56-.99.78-1.65l-2.15.02c-.43.72-.92,1.29-1.62,1.88-.23-.26-.33-.35-.69-.56.76-.57,1.32-1.21,1.74-2,.2-.37.34-.71.4-.97l.9.2q-.08.13-.21.39c-.08.19-.13.27-.17.34q.11-.01,1.8-.03c.28,0,.43-.02.61-.08l.46.47Z"/>
          </g>
          <g>
            <path class="cls-4" d="M41.42,12.29h-1.46l-1.08-5.28-.15-1.09-.15,1.09-1.08,5.28h-1.46l-2.41-7.86h1.59l1.39,5.3.17.96.11-.98,1.07-5.28h1.55l1.07,5.28.11.98.16-.96,1.4-5.3h1.59l-2.41,7.86Z"/>
            <path class="cls-4" d="M45.88,9.82c.05.29.27,1.46,1.41,1.46.26,0,.82-.06,1.06-.7h1.43c-.18.48-.68,1.85-2.56,1.85-1.57,0-2.76-1.04-2.76-3.03s1.28-3.05,2.71-3.05c.96,0,1.7.44,2.13,1.1.5.75.55,1.54.58,2.36h-4.01ZM47.18,7.52c-1.06,0-1.24,1-1.3,1.37h2.47c-.03-.91-.45-1.37-1.16-1.37Z"/>
            <path class="cls-4" d="M53.41,12.43c-.41,0-1.27-.08-1.87-.68-.33-.33-.46-.62-.53-1.36h1.42c.04.28.16.9,1.04.9.12,0,.83,0,.83-.57,0-.4-.29-.53-1.21-.85-1.18-.43-1.98-.71-1.98-1.77,0-.97.93-1.76,2.25-1.76.48,0,1.17.1,1.69.6.36.36.46.66.53,1.31h-1.42c-.03-.42-.22-.79-.83-.79-.57,0-.8.32-.8.54,0,.29.27.39.72.56,1.44.55,1.5.58,1.83.81.41.29.65.73.65,1.24,0,1.13-1.07,1.8-2.33,1.8Z"/>
            <path class="cls-4" d="M58.89,7.64v3.2c0,.26.11.38.36.38h.61v1.08h-.87c-1.13,0-1.52-.45-1.52-1.37v-3.29h-.8v-1.14h.8v-1.63h1.42v1.63h1v1.14h-1Z"/>
            <path class="cls-4" d="M68.16,12.55c-1.35,0-3.26-.37-3.38-2.62h1.45c.06,1.26,1.22,1.4,1.8,1.4.37,0,1.93-.04,1.93-1.15,0-.57-.34-.79-1.06-.95l-1.9-.42c-1.01-.23-2.11-.8-2.11-2.29,0-1.69,1.63-2.35,3.17-2.35.66,0,1.65.12,2.37.78.45.41.62.79.78,1.7h-1.46c-.05-1.19-1.31-1.25-1.71-1.25-.26,0-1.72.02-1.72,1.04,0,.45.27.81,1.11.99l2.05.45c.6.13,1.97.59,1.97,2.13,0,1.44-1.21,2.53-3.29,2.53Z"/>
            <path class="cls-4" d="M73.04,5.83v-1.4h1.42v1.4h-1.42ZM73.04,12.29v-5.8h1.42v5.8h-1.42Z"/>
            <path class="cls-4" d="M79.77,12.29v-.29l.06-.47c-.18.34-.48.9-1.45.9-1.49,0-2.42-1.13-2.42-2.97s.98-3.1,2.34-3.1c1,0,1.37.62,1.54.92l-.06-.6v-2.24h1.43v7.86h-1.43ZM78.6,7.61c-1.17,0-1.22,1.47-1.22,1.8,0,.96.43,1.72,1.2,1.72.57,0,1.2-.46,1.2-1.71,0-.5-.08-1.81-1.17-1.81Z"/>
            <path class="cls-4" d="M84.01,9.82c.05.29.27,1.46,1.41,1.46.26,0,.82-.06,1.06-.7h1.43c-.18.48-.68,1.85-2.56,1.85-1.57,0-2.76-1.04-2.76-3.03s1.28-3.05,2.71-3.05c.96,0,1.7.44,2.13,1.1.5.75.55,1.54.58,2.36h-4.01ZM85.31,7.52c-1.06,0-1.24,1-1.3,1.37h2.47c-.03-.91-.45-1.37-1.16-1.37Z"/>
            <path class="cls-4" d="M98.81,12.29l-2.97-3.68-.8.71v2.97h-1.46v-7.86h1.46v3.34l3.46-3.34h2.03l-3.7,3.31,3.8,4.56h-1.82Z"/>
            <path class="cls-4" d="M102.02,5.83v-1.4h1.42v1.4h-1.42ZM102.02,12.29v-5.8h1.42v5.8h-1.42Z"/>
            <path class="cls-4" d="M106.94,7.64v3.2c0,.26.11.38.36.38h.61v1.08h-.87c-1.13,0-1.52-.45-1.52-1.37v-3.29h-.8v-1.14h.8v-1.63h1.42v1.63h1v1.14h-1Z"/>
            <path class="cls-4" d="M111.55,12.43c-1.96,0-2.75-1.44-2.75-2.97,0-2.23,1.54-3.1,2.93-3.1.73,0,1.39.23,1.89.72.47.46.57.84.65,1.49h-1.42c-.04-.61-.48-1.08-1.12-1.08-.74,0-1.5.64-1.5,1.9,0,.75.27,1.9,1.36,1.9,1.02,0,1.18-.86,1.24-1.14h1.46c-.13.54-.54,2.29-2.73,2.29Z"/>
            <path class="cls-4" d="M119.25,12.29v-3.4c0-.54-.18-1.31-1.01-1.31-.64,0-1.18.51-1.18,1.3v3.42h-1.42v-7.86h1.42v2.45l-.07.72c.22-.4.7-1.24,1.8-1.24,1.24,0,1.88.97,1.88,2.17v3.77h-1.42Z"/>
            <path class="cls-4" d="M123.46,9.82c.05.29.27,1.46,1.41,1.46.26,0,.82-.06,1.06-.7h1.43c-.18.48-.68,1.85-2.56,1.85-1.57,0-2.76-1.04-2.76-3.03s1.28-3.05,2.71-3.05c.96,0,1.7.44,2.13,1.1.5.75.55,1.54.58,2.36h-4.01ZM124.77,7.52c-1.06,0-1.24,1-1.3,1.37h2.47c-.03-.91-.45-1.37-1.16-1.37Z"/>
            <path class="cls-4" d="M132.5,12.29v-3.66c0-.65-.27-1.08-.98-1.08-.58,0-1.27.29-1.27,1.36v3.38h-1.42v-5.8h1.42v.49l-.05.5c.23-.4.66-1.12,1.79-1.12,1.23,0,1.94.73,1.94,2.05v3.89h-1.42Z"/>
          </g>
        </g>
      </g>
    </g>
  </g>
</svg>