<?xml version="1.0" encoding="UTF-8"?>
<svg xmlns="http://www.w3.org/2000/svg" viewBox="0 0 162.24 27.45">
  <defs>
    <style>
      .cls-1 {
        fill: #f18d09;
      }

      .cls-2 {
        isolation: isolate;
      }

      .cls-3 {
        fill: #231815;
      }

      .cls-4 {
        fill: #fff;
      }

      .cls-5 {
        fill: #f29014;
        mix-blend-mode: multiply;
      }
    </style>
  </defs>
  <g class="cls-2">
    <g id="_レイヤー_2" data-name="レイヤー 2">
      <g id="_テキスト1" data-name="テキスト1">
        <g>
          <g>
            <rect class="cls-1" width="162.24" height="17.49"/>
            <rect class="cls-5" width="8.29" height="17.49"/>
          </g>
          <g>
            <path class="cls-3" d="M24.69,23.73c-.02.08-.03.09-.06.22-.24,1.08-.62,1.95-1.18,2.72-.34-.25-.46-.31-.81-.45.46-.55.71-1.04.98-1.84.12-.37.17-.59.2-.86l.86.22ZM25.4,21.84c0-.35,0-.53-.04-.72h.95c-.02.2-.03.3-.03.74v.37h1.6c.48,0,.64,0,.9-.05v.86c-.25-.03-.43-.04-.89-.04h-1.62v3.4c0,.36,0,.56.04.79h-.95c.04-.22.04-.43.04-.79v-3.39h-1.55c-.46,0-.64,0-.88.04v-.86c.27.04.42.05.9.05h1.54v-.39ZM27.8,23.52c.05.24.11.42.24.79.32.85.57,1.34,1,1.88-.37.19-.48.26-.81.49-.53-.85-.82-1.51-1.15-2.62-.06-.2-.06-.22-.11-.33l.83-.21Z"/>
            <path class="cls-3" d="M32.34,21.39q-.03.2-.07,1.57c-.05,1.37-.2,2.16-.57,2.88-.24.48-.5.84-.97,1.3-.27-.35-.38-.46-.71-.68.34-.28.51-.47.72-.8.5-.81.67-1.71.67-3.67,0-.39,0-.45-.03-.64l.95.05ZM34.19,21.3c-.03.2-.04.32-.05.67l-.04,3.99c.49-.23.77-.44,1.07-.8.32-.38.53-.76.69-1.28.24.32.34.41.66.66-.29.69-.65,1.22-1.12,1.63-.4.34-.76.55-1.49.84-.15.06-.21.08-.3.13l-.45-.48c.05-.2.06-.36.06-.74l.04-3.95v-.21c0-.17,0-.33-.03-.46h.95Z"/>
            <path class="cls-3" d="M38.52,24.31c-.46,0-.64,0-.88.04v-.85c.26.04.41.05.9.05h1.27v-1.21h-.85c-.5,0-.65,0-.89.04v-.85c.26.04.41.05.9.05h3.19c.5,0,.65,0,.91-.05v.85c-.24-.03-.38-.04-.9-.04h-1.51v1.21h1.95c.48,0,.64,0,.9-.05v.85c-.24-.03-.43-.04-.88-.04h-1.96v1.12c0,.42.04.53.19.6.13.06.35.09.72.09.25,0,.68-.02,1.04-.06.27-.03.41-.05.65-.12l.02.89s-.09,0-.12,0q-.06,0-.57.04c-.31.02-.78.04-1.11.04-1.37,0-1.69-.23-1.69-1.22v-1.38h-1.28Z"/>
            <path class="cls-3" d="M44.9,25.98c.6-.04,1.44-.24,2.07-.52.88-.38,1.53-.92,2.08-1.72.31-.45.5-.83.71-1.4.27.33.38.43.74.69-.6,1.28-1.26,2.11-2.22,2.75-.71.48-1.58.82-2.67,1.05-.28.06-.3.06-.46.12l-.26-.97ZM45.5,21.63c.83.52,1.27.84,1.81,1.35l-.6.76c-.56-.6-1.13-1.06-1.79-1.42l.58-.69Z"/>
            <path class="cls-3" d="M54.47,25.18c-.4.9-.85,1.32-1.42,1.32-.8,0-1.37-.81-1.37-1.94,0-.77.27-1.49.77-2.04.59-.64,1.42-.98,2.41-.98,1.68,0,2.77,1.02,2.77,2.6,0,1.21-.63,2.18-1.7,2.61-.34.14-.61.21-1.1.29-.12-.37-.2-.53-.43-.82.64-.08,1.06-.2,1.39-.38.61-.34.97-1,.97-1.75,0-.67-.3-1.22-.86-1.55-.22-.13-.4-.18-.71-.21-.13,1.1-.38,2.07-.73,2.86ZM53.44,22.68c-.59.42-.95,1.14-.95,1.89,0,.57.24,1.03.55,1.03.23,0,.47-.29.72-.9.27-.63.5-1.58.58-2.37-.36.04-.62.14-.9.34Z"/>
            <path class="cls-3" d="M58.86,25.39c.27.04.42.05.9.05h4.02c.47,0,.63,0,.9-.05v.94c-.25-.03-.43-.04-.88-.04h-4.05c-.46,0-.64,0-.88.04v-.94ZM59.56,21.98c.25.04.41.05.83.05h2.75c.41,0,.57,0,.83-.05v.92c-.23-.03-.4-.04-.82-.04h-2.77c-.42,0-.59,0-.82.04v-.92Z"/>
            <path class="cls-3" d="M66.18,25.98c.6-.04,1.44-.24,2.07-.52.88-.38,1.53-.92,2.08-1.72.31-.45.5-.83.71-1.4.27.33.38.43.74.69-.6,1.28-1.26,2.11-2.22,2.75-.71.48-1.58.82-2.67,1.05-.28.06-.3.06-.46.12l-.26-.97ZM66.77,21.63c.83.52,1.27.84,1.81,1.35l-.6.76c-.56-.6-1.13-1.06-1.79-1.42l.58-.69Z"/>
            <path class="cls-3" d="M72.78,25.39c.27.04.42.05.9.05h4.02c.47,0,.63,0,.9-.05v.94c-.25-.03-.43-.04-.88-.04h-4.05c-.46,0-.64,0-.88.04v-.94ZM73.49,21.98c.25.04.41.05.83.05h2.75c.41,0,.57,0,.83-.05v.92c-.23-.03-.4-.04-.82-.04h-2.77c-.42,0-.59,0-.82.04v-.92Z"/>
            <path class="cls-3" d="M84.98,22.33c-.07.11-.1.17-.18.42-.32,1.06-.82,2.01-1.44,2.7-.64.74-1.41,1.28-2.49,1.78-.2-.35-.29-.47-.59-.74.7-.29,1.09-.5,1.53-.83,1-.74,1.66-1.7,2.04-2.96l-2.11.04c-.43.68-.97,1.28-1.64,1.79-.21-.29-.31-.38-.68-.6.8-.55,1.3-1.11,1.81-2.03.22-.4.33-.67.36-.92l.96.19q-.04.06-.12.22s-.02.04-.09.2t-.09.18-.11.22c.09,0,.2-.01.34-.01l1.53-.02c.27,0,.35-.01.51-.07l.45.44Z"/>
            <path class="cls-3" d="M88.09,20.97c-.02.19-.04.38-.04.69,0,.55,0,.86-.01,1.25.22-.28.39-.55.52-.85l.5.5c-.41.57-.64.85-1.05,1.25-.02.32-.03.44-.06.71.32.51.57.79,1.06,1.16-.19.27-.26.39-.38.68-.4-.37-.58-.59-.83-1.01-.1.33-.21.61-.37.91-.22.43-.39.67-.76,1.04-.2-.31-.3-.43-.53-.62.33-.3.5-.53.71-.94.41-.81.49-1.48.49-4.1,0-.27-.01-.44-.05-.67h.8ZM87.11,22.31c-.02.94-.08,1.48-.24,2.08l-.65-.26c.19-.53.24-.97.24-1.89l.64.07ZM92.32,24.39c-.08.1-.08.11-.23.38-.45.81-1.09,1.49-1.8,1.93-.45.28-.89.47-1.64.7-.11-.32-.23-.52-.41-.74,1.21-.28,2.02-.71,2.67-1.43.33-.36.57-.8.71-1.23l.71.39ZM89.93,22.07c-.1.69-.17,1.04-.33,1.51-.17.5-.32.8-.63,1.28-.19-.28-.3-.4-.54-.58.28-.38.42-.64.57-1.06.15-.43.22-.76.29-1.36l.64.22ZM91.01,20.95c-.03.22-.04.48-.04.76v2.88c0,.22-.06.37-.16.46-.13.11-.36.15-.78.15-.04,0-.11,0-.2,0h-.22c-.02-.29-.06-.44-.13-.71.22.04.44.06.59.06.15,0,.19-.04.19-.19v-2.65c0-.27-.01-.54-.04-.76h.81ZM91.82,21.79c.27.87.5,1.33,1,1.98-.3.21-.44.33-.6.51-.2-.29-.33-.52-.55-.97-.17-.35-.27-.63-.46-1.25l.6-.27Z"/>
            <path class="cls-3" d="M95.46,21.31c0,.27.08.77.17,1.13.48-.2.89-.28,1.35-.28h.19c.15-.59.2-.85.2-1.09l.88.18c-.04.08-.06.13-.07.2-.1.38-.19.72-.22.82.41.1.66.22.94.42.56.41.86,1.01.86,1.74,0,1.03-.6,1.86-1.64,2.3-.34.15-.6.22-1.14.34-.11-.35-.17-.47-.43-.82.48-.04.76-.1,1.14-.27.48-.2.79-.45.98-.75.15-.26.24-.55.24-.86,0-.46-.16-.81-.51-1.09-.19-.15-.34-.22-.63-.3-.28.96-.76,1.95-1.28,2.61-.25.32-.55.61-.83.77-.22.13-.41.19-.65.19-.72,0-1.21-.63-1.21-1.58,0-.86.39-1.6,1.12-2.15-.04-.1-.16-.71-.24-1.11-.01-.09-.03-.13-.07-.24l.85-.16ZM94.57,24.95c0,.46.2.77.48.77.2,0,.42-.15.66-.46-.32-.71-.43-1.03-.57-1.61-.39.41-.56.8-.56,1.3ZM96.23,24.57s.02-.06.04-.09c.28-.48.47-.92.7-1.62-.48,0-.83.08-1.21.28.11.48.2.77.42,1.32.02.06.03.07.04.1h0Z"/>
            <path class="cls-3" d="M106.53,20.86l-5.31,6.58h-1.03l5.3-6.58h1.04Z"/>
            <path class="cls-3" d="M111.69,21.72c.21,0,.29,0,.41-.01,0-.46.36-.81.81-.81s.81.36.81.81-.37.81-.81.81c-.04,0-.08,0-.13-.01-.57,2.29-1.81,3.72-4.02,4.64-.18-.36-.3-.52-.62-.83,1.94-.6,3.21-1.91,3.66-3.77h-3.33c-.52,0-.65,0-.88.04v-.91c.25.04.42.05.9.05h3.21ZM112.45,21.7c0,.25.2.46.46.46s.46-.21.46-.46-.2-.46-.46-.46-.46.2-.46.46Z"/>
            <path class="cls-3" d="M116.24,21.31c-.03.19-.04.36-.04.71l-.04,4c.73-.14,1.39-.41,1.91-.77.64-.44,1.08-.92,1.43-1.6.27.36.37.46.67.71-.48.74-.93,1.21-1.56,1.63-.7.47-1.41.74-2.55.96-.19.03-.27.06-.42.12l-.45-.54c.05-.19.06-.31.06-.72l.03-3.78q0-.49-.04-.72h.99Z"/>
            <path class="cls-3" d="M121.71,25.12c1.7.22,3.02.54,4.65,1.11l-.3.88c-.73-.32-1.37-.53-2.48-.79-.86-.2-1.44-.31-2.2-.41l.33-.8ZM122.27,23.15c1.12.14,2.24.39,3.65.81l-.27.86c-.55-.22-1.05-.36-1.93-.56-.6-.14-1.05-.22-1.77-.31l.32-.81ZM122.37,21.21c1.35.16,2.23.34,3.79.76l-.28.86c-1.16-.39-2.59-.69-3.82-.81l.31-.81Z"/>
            <path class="cls-3" d="M131.12,22.87c-.02.13-.02.14-.03.57-.03,1.2-.22,1.87-.69,2.48-.42.54-.93.9-1.81,1.26-.18-.38-.27-.5-.55-.8.57-.17.88-.32,1.22-.6.71-.57.94-1.17.94-2.49,0-.21,0-.27-.04-.42h.95ZM133.96,21.99c-.1.12-.1.13-.28.49-.25.52-.65,1.04-1.08,1.41-.28.25-.51.4-.84.58-.21-.29-.31-.4-.63-.64.47-.21.73-.37,1.02-.64.29-.27.5-.55.67-.89h-3.68c-.49,0-.66,0-.95.04v-.88c.27.04.48.06.96.06h3.66c.42,0,.48,0,.68-.06l.47.53Z"/>
            <path class="cls-3" d="M137.53,21.33c-.08.15-.08.17-.18.5-.53,1.75-.94,2.91-1.39,3.99,1.1-.08,2.31-.23,2.91-.36-.08-.17-.16-.32-.33-.64-.31-.58-.43-.78-.67-1.11l.79-.31c.65.95,1.27,2.13,1.69,3.24l-.85.44q-.09-.29-.34-.87-.09.02-.25.06c-.71.15-1.87.29-3.96.5-.39.04-.5.05-.64.08l-.12-.95h.18c.14,0,.31,0,.6-.02.37-.88.65-1.67,1.02-2.82.33-1.03.46-1.53.51-1.94l1.02.2Z"/>
            <path class="cls-3" d="M141.85,22.69c.55.33.69.43,1.23.89l-.44.66c-.51-.48-.73-.65-1.25-.95l.46-.6ZM143.05,25.13c-.18.58-.34.97-.6,1.53-.09.19-.12.24-.23.43-.05.1-.06.1-.11.21l-.67-.59c.37-.44.64-1.01,1-2.05l.6.46ZM143.18,21.14c.22.04.42.04.78.04h3.14c.34,0,.56-.01.79-.04v.76c-.24-.02-.47-.04-.75-.04h-.78v.62h.64c.29,0,.55-.01.68-.03-.01.15-.02.42-.02.78v3.22c0,.43,0,.67.04.9h-.75v-.35h-2.88v.35h-.74c.03-.29.04-.55.04-.88v-3.29c0-.31,0-.57-.03-.72.2.01.35.02.71.02h.57v-.62h-.67c-.26,0-.51,0-.69.03l-.45.58c-.48-.48-.68-.63-1.16-.93l.49-.57c.48.3.68.46,1.06.81v-.64ZM145.27,23.13c-.04.96-.19,1.37-.68,1.89-.19-.24-.29-.33-.53-.48v.67h2.88v-.53c-.18.01-.22.01-.34.01-.39,0-.55-.02-.69-.1-.15-.08-.22-.22-.22-.43v-1.04h-.41ZM144.06,23.13v1.35c.21-.18.29-.29.38-.5.11-.25.13-.39.15-.85h-.54ZM144.06,26.33h2.88v-.49h-2.88v.49ZM145.69,22.49v-.62h-.41v.62h.41ZM146.95,23.13h-.6v.76c0,.14.05.17.25.17.05,0,.08,0,.34,0v-.93Z"/>
          </g>
          <g>
            <path class="cls-4" d="M62.16,8.94v.79h2.49v3.65h-1.22v-.33h-3.53v.34h-1.22v-3.66h2.18v-.79h-2.73c-.16,1.42-.5,2.82-1.09,4.13l-1.2-.33c.29-.62.53-1.12.75-2.08.26-1.09.39-2.19.39-3.5s-.09-2.34-.12-2.78h7.9v2.7h-2.61v.82h3.23v1.04h-3.23ZM63.46,5.4h-5.27v.65h5.27v-.65ZM60.86,7.08h-2.66v.82h2.66v-.82ZM63.43,10.83h-3.53v1.12h3.53v-1.12Z"/>
            <path class="cls-4" d="M68.24,8.64c-.65-.49-1.15-.72-1.78-.98l.51-1.04c.61.25,1.14.52,1.84,1.03l-.57.99ZM68.54,12.03c-.08.17-.48,1.01-.5,1.09-.01.03.01.19.01.24,0,.09-.03.11-.08.11s-.16-.04-.32-.15l-.95-.68c.72-.93,1.28-2.15,1.62-3.15l.97.65c-.26.73-.62,1.59-.75,1.9ZM68.54,6.03c-.38-.37-.86-.76-1.45-1.11l.67-.96c.54.31,1.01.68,1.46,1.11l-.68.96ZM73.91,5.54v.87h1.95v6.92h-1.17v-.38h-3.9v.44h-1.14v-6.98h1.84c0-.44,0-.56-.01-.87h-1.83v-1.01h6.41v1.01h-2.14ZM74.69,9.83c-.11.08-.27.12-.38.12h-.78c-.41,0-.59-.21-.59-.6v-1.81h-.51c-.11,1.24-.23,1.58-.92,2.49l-.73-.46v.83h3.9v-.56ZM70.79,7.54v1.79c.46-.47.58-.91.67-1.79h-.67ZM74.69,11.32h-3.9v.61h3.9v-.61ZM72.94,5.54h-.45v.87h.45v-.87ZM74.69,7.54h-.78v1.14c0,.12.03.17.33.17.27,0,.33-.05.44-.16v-1.15Z"/>
            <path class="cls-4" d="M84.76,7.86c.55.5,1.1.99,1.58,1.56l-.85.75c-.13-.14-.3-.34-.71-.75-.58.08-1.23.13-1.7.17.15.02.29.04.29.14,0,.06-.09.11-.15.15v.55h2.31v.96h-2.31v.83h3.37v1.01h-7.64v-1.01h2.98v-.83h-2.36v-.96h2.36v-.76c-.64.04-1.55.1-1.62.1-.05,0-.36.01-.43.02-.03.01-.19.15-.25.15-.14,0-.17-.11-.18-.22l-.14-.96c.42.03.8.03,1.27.03.11-.15.33-.54.51-.94h-1.89c-.01.72-.02,1.3-.14,2.27-.18,1.41-.45,2.33-.83,3.22l-1.22-.37c.76-1.62.99-3.41.99-5.19,0-1.07-.04-2.56-.15-3.57h8.41v2.29h-7.06v.43h7.48v.91h-1.94ZM85.02,5.14h-5.8v.53h5.8v-.53ZM83.48,8.24l.33-.38h-1.4c-.17.32-.38.71-.53.92,1.31-.03,1.63-.05,2.12-.1-.17-.15-.19-.16-.53-.44Z"/>
            <path class="cls-4" d="M100.16,13.52c-2.53-.89-3.73-2.03-4.75-4.13h-1.06v2.43c1.09-.29,1.6-.46,2.08-.62v1.13c-1.76.62-3.04.95-3.64,1.1-.08.18-.12.28-.25.28-.12,0-.17-.24-.19-.3l-.3-1.09c.65-.13.82-.16,1.1-.23v-6.91h2.52v-1.09l1.26.02c.29,0,.36.04.36.14,0,.14-.18.25-.28.3v.62h2.66v4.06l.44.37s.23.19.23.3c0,.13-.14.13-.18.13-.06,0-.12,0-.21-.01-.4.38-.6.58-1.42,1.33.97.61,1.67.79,2.64.88l-.99,1.27ZM98.45,6.14h-4.09v.68h4.09v-.68ZM98.45,7.74h-4.09v.68h4.09v-.68ZM96.78,9.39c.26.56.52.87.84,1.23.54-.51.92-.92,1.2-1.23h-2.04Z"/>
            <path class="cls-4" d="M103.48,8.73c-.26-.22-.64-.53-1.55-.98l.64-.94c.4.18,1.02.51,1.58.96l-.67.96ZM103.9,12.42c-.06.14-.39.71-.39.8,0,.02.01.14.01.16s0,.06-.07.06c-.05,0-.15-.04-.28-.14l-.89-.66c.7-.96,1.2-2.05,1.62-3.17l.99.72c-.4,1.06-.86,1.95-.99,2.22ZM104.27,6.06c-.4-.33-.89-.71-1.5-1.03l.73-.95c.94.53,1.27.8,1.57,1.04l-.81.94ZM110.81,8.76c-.21-.38-.24-.44-.46-.84-1.3.17-2.62.31-3.93.43-.09.01-.55.03-.66.03-.2.02-.23.02-.28.09-.12.13-.13.14-.18.14-.08,0-.14-.18-.14-.19l-.34-1.22h.95c.54-.96,1.11-2.29,1.44-3.24l1.09.43c.22.09.33.14.33.26,0,.09-.06.12-.16.14-.15.02-.16.04-.26.25-.37.71-.74,1.42-1.13,2.12.55-.03,1.75-.09,2.66-.23-.37-.54-.54-.73-.71-.89l1-.67c.81.95,1.48,2.1,1.83,2.76l-1.04.64ZM109.69,13.22v-.37h-2.84v.41h-1.24v-4.18h5.3v4.14h-1.22ZM109.69,10.18h-2.84v1.57h2.84v-1.57Z"/>
          </g>
        </g>
      </g>
    </g>
  </g>
</svg>