<?xml version="1.0" encoding="UTF-8"?>
<svg xmlns="http://www.w3.org/2000/svg" viewBox="0 0 163.43 28.03">
  <defs>
    <style>
      .cls-1 {
        fill: #f18d09;
      }

      .cls-2 {
        isolation: isolate;
      }

      .cls-3 {
        fill: #231815;
      }

      .cls-4 {
        fill: #fff;
      }

      .cls-5 {
        fill: #f29014;
        mix-blend-mode: multiply;
      }
    </style>
  </defs>
  <g class="cls-2">
    <g id="_レイヤー_2" data-name="レイヤー 2">
      <g id="_テキスト1" data-name="テキスト1">
        <g>
          <g>
            <rect class="cls-1" width="163.43" height="17.49"/>
            <rect class="cls-5" width="8.29" height="17.49"/>
          </g>
          <g>
            <path class="cls-3" d="M19.69,22.42q-.08.02-.59.19c-.4.13-.62.18-1.17.29q0,.95-.02,1.18h1.49c.47,0,.59,0,.85-.05v.84c-.26-.03-.39-.04-.84-.04h-1.55c-.08.65-.22,1.12-.47,1.53s-.65.8-1.14,1.11c-.2.13-.33.2-.65.35-.2-.36-.31-.49-.61-.74.5-.18.77-.33,1.09-.59.42-.34.69-.74.8-1.19.03-.12.05-.24.08-.47h-1.73c-.45,0-.58,0-.84.04v-.84c.26.04.38.05.85.05h1.79c.01-.29.01-.57.01-1.06-.57.08-.78.1-1.94.16-.07-.32-.11-.42-.26-.76.22.01.33.01.44.01.94,0,2.13-.16,3-.41.41-.12.61-.2.85-.33l.56.71Z"/>
            <path class="cls-3" d="M23.42,22.46c-.06-.34-.09-.46-.17-.66l.92-.15c0,.18.04.38.08.66l.11.61,1.48-.23c.34-.06.49-.09.67-.15l.15.84q-.19.01-.67.09l-1.48.23.21,1.15,1.64-.26c.29-.05.54-.11.73-.16l.15.84c-.15,0-.17,0-.32.04-.04,0-.08,0-.11.01-.05,0-.14.02-.28.04l-1.67.27.25,1.36c.08.46.09.48.17.72l-.94.17c0-.21-.04-.41-.09-.74l-.25-1.38-1.73.27c-.34.06-.46.08-.71.15l-.14-.86c.24,0,.44-.02.74-.07l1.7-.27-.21-1.15-1.3.2c-.32.06-.58.11-.77.16l-.14-.86c.25,0,.48-.04.77-.08l1.3-.2-.11-.59Z"/>
            <path class="cls-3" d="M28.29,26.56c.6-.04,1.44-.24,2.07-.52.88-.38,1.53-.92,2.08-1.72.31-.45.5-.83.71-1.4.27.33.38.43.74.69-.6,1.28-1.26,2.11-2.22,2.75-.71.48-1.58.82-2.67,1.05-.28.06-.3.06-.46.12l-.26-.97ZM28.88,22.21c.83.52,1.27.84,1.81,1.35l-.6.76c-.56-.59-1.13-1.06-1.79-1.42l.58-.69Z"/>
            <path class="cls-3" d="M36.84,24.32s-.02.09-.03.11c0,0-.01.05-.03.12-.22,1.02-.66,2.03-1.18,2.72-.33-.24-.48-.32-.81-.45.54-.58,1.09-1.83,1.18-2.7l.86.21ZM40.01,22.83c-.19-.46-.35-.75-.61-1.11l.52-.18c.27.36.44.64.62,1.11l-.48.18c.49,0,.64,0,.88-.05v.86c-.23-.03-.34-.04-.89-.04h-1.62v3.4c0,.39,0,.6.03.79h-.95c.03-.19.04-.4.04-.79v-3.39h-1.55c-.54,0-.65,0-.88.04v-.86c.25.04.38.05.9.05h1.54v-.39c0-.41-.01-.56-.04-.73h.95c-.02.19-.03.3-.03.75v.37h1.58ZM39.95,24.11c.22.91.78,2.13,1.24,2.67-.36.18-.49.27-.8.49-.51-.79-.82-1.51-1.15-2.62-.06-.19-.06-.22-.11-.33l.83-.21ZM40.95,22.55c-.17-.41-.37-.77-.6-1.09l.5-.18c.29.37.45.65.62,1.06l-.51.2Z"/>
            <path class="cls-3" d="M41.95,24.22c.31.04.44.05,1.13.05h3.73c.69,0,.83,0,1.13-.05v.97c-.28-.04-.36-.04-1.14-.04h-3.72c-.79,0-.86,0-1.14.04v-.97Z"/>
            <path class="cls-3" d="M50.92,28.02c-.39-.56-.57-.87-.76-1.38-.25-.64-.37-1.26-.37-1.93s.11-1.24.36-1.87c.2-.51.37-.82.77-1.38h.98c-.49.62-.69.93-.89,1.39-.25.57-.37,1.17-.37,1.86s.12,1.34.37,1.92c.2.46.39.77.89,1.39h-.98Z"/>
            <path class="cls-3" d="M58.19,22.2q-.08.15-.24.6c-.48,1.25-1.11,2.26-1.89,3.05-.67.67-1.36,1.15-2.42,1.68-.21-.39-.3-.52-.62-.85,1.64-.66,2.73-1.6,3.52-3.03.37-.68.63-1.33.7-1.78l.97.33Z"/>
            <path class="cls-3" d="M59.22,24.22c.31.04.44.05,1.13.05h3.73c.69,0,.83,0,1.13-.05v.97c-.28-.04-.36-.04-1.14-.04h-3.72c-.79,0-.86,0-1.14.04v-.97Z"/>
            <path class="cls-3" d="M67.52,24.03c.37.31.58.5.87.78q.38.39.43.43c.36-.31.66-.59.92-.88.3-.34.69-.86.85-1.14t.04-.06s0-.02.01-.04c-.07,0-.18.01-.32.01h-3.34c-.57,0-.64,0-.9.04v-.89c.27.04.44.05.91.05h3.89c.3,0,.41-.01.58-.06l.49.55c-.11.11-.15.16-.31.41-.66,1.07-1.4,1.93-2.26,2.65.29.34.56.67.92,1.17l-.73.59c-.39-.63-.76-1.11-1.35-1.76-.54-.6-.89-.94-1.4-1.35l.69-.5Z"/>
            <path class="cls-3" d="M74.63,21.97q-.03.2-.07,1.57c-.05,1.37-.2,2.16-.57,2.88-.24.48-.5.84-.97,1.3-.27-.35-.38-.46-.71-.68.34-.28.51-.47.72-.81.5-.81.67-1.71.67-3.67,0-.38,0-.45-.03-.64l.95.05ZM76.49,21.88c-.03.2-.04.32-.05.67l-.04,3.99c.49-.23.77-.44,1.07-.8.32-.38.53-.76.69-1.28.24.31.34.41.66.66-.29.69-.65,1.22-1.12,1.63-.4.34-.76.55-1.49.84-.15.06-.21.08-.3.13l-.45-.48c.05-.2.06-.36.06-.74l.04-3.95v-.21c0-.18,0-.33-.03-.46h.95Z"/>
            <path class="cls-3" d="M85.15,21.44l-5.31,6.58h-1.03l5.3-6.58h1.04Z"/>
            <path class="cls-3" d="M86.49,26.44c-.11.62-.25,1.07-.48,1.57l-.52-.42c.23-.4.34-.71.48-1.35l.52.2ZM88.09,24.91c.61-.17,1.09-.43,1.47-.78h0q-.17.02-1.01.15c-.14.02-.18.03-.29.06l-.13-.56c.06,0,.09,0,.12,0h.07c.2-.32.31-.57.38-.89-.12.01-.17.02-.32.04l-.11-.63c.17.02.36.03.58.03.03,0,.08,0,.13,0,.22-.3.36-.58.44-.9l.72.14c-.3.55-.3.56-.43.74.53-.03.88-.04,1.01-.06-.1-.11-.15-.16-.34-.35l.55-.29c.35.32.66.68.98,1.11l-.57.34q-.19-.29-.25-.36c-.38.05-.7.08-2.32.19l.52.15c-.12.29-.21.46-.37.69.2-.02.34-.03.46-.06-.05-.12-.08-.16-.18-.33l.44-.17c.2.33.25.43.41.82h.1l-.06-.29h.19c.16-.27.27-.52.34-.85l.58.17c-.21.43-.24.49-.35.66.24-.02.31-.03.47-.05-.05-.08-.08-.13-.21-.33l.45-.21c.27.36.43.62.64,1.03l-.51.26c-.06-.15-.08-.2-.13-.32-.48.08-.55.09-.94.13.43.34.99.61,1.6.76-.13.22-.18.31-.31.64-.79-.28-1.38-.66-1.88-1.18-.36.45-.89.79-1.67,1.08-.08-.18-.16-.34-.27-.48v.53c0,.23,0,.36.02.54-.13-.01-.24-.01-.51-.01h-1.15c-.37,0-.41,0-.56.01.02-.21.03-.41.03-.63v-1.65c-.12-.17-.23-.27-.41-.41.42-.5.66-.92.85-1.48.07-.2.11-.39.13-.53l.69.14c-.03.07-.04.1-.06.18-.03.11-.04.12-.08.22h.42c.18,0,.28,0,.37-.03l.25.32c-.05.08-.07.11-.17.32-.13.27-.22.46-.32.63h.11c.16,0,.28,0,.41-.03-.01.18-.02.34-.02.62v1.13ZM86.93,23.18c.14-.22.22-.38.3-.62h-.45c-.12.25-.2.39-.32.62h.47ZM86.47,24.33h.28v-.56h-.28v.56ZM86.47,25.48h.28v-.6h-.28v.6ZM86.96,26.38c.1.44.16.82.22,1.41l-.51.12c-.03-.55-.08-.96-.15-1.44l.45-.09ZM87.54,26.33c.16.49.23.78.31,1.25l-.46.15c-.06-.49-.13-.8-.27-1.29l.42-.1ZM87.27,24.33h.28v-.56h-.28v.56ZM87.27,25.48h.28v-.6h-.28v.6ZM88.07,26.21c.18.4.25.6.38,1.04l-.43.17c-.11-.44-.2-.76-.34-1.07l.39-.14ZM92.07,26.46c-.06.05-.08.06-.14.11-.75.55-1.16.78-1.78,1.02-.47.18-1,.33-1.46.41-.11-.25-.18-.36-.37-.57.88-.13,1.65-.39,2.32-.75.46-.25.69-.42.88-.64l.55.42ZM90.64,25.24q-.08.06-.26.17c-.53.36-.93.53-1.69.75q-.12-.26-.33-.49c.86-.2,1.55-.53,1.8-.85l.48.42ZM91.32,25.85c-.26.19-.45.32-.57.39-.56.36-1.16.6-2.01.81-.12-.26-.17-.34-.36-.54.88-.17,1.51-.41,2.06-.78.19-.13.27-.2.36-.31l.51.42Z"/>
            <path class="cls-3" d="M96.97,24.55c-.09,1.67-.72,2.59-2.23,3.26-.17-.32-.25-.43-.52-.67.55-.21.8-.35,1.09-.59.54-.46.83-1.11.88-2h-1.28c-.26.43-.54.76-.95,1.13-.24-.23-.34-.3-.62-.47.51-.43.88-.9,1.18-1.53.16-.32.25-.6.29-.85l.81.18c-.05.1-.06.11-.11.25-.12.34-.2.48-.27.61t.08,0h2.45c.27,0,.45-.01.61-.04v.76q-.17-.02-.65-.02h-.75Z"/>
            <path class="cls-3" d="M100.16,23.29c.49.27.77.47,1.26.88l-.45.66c-.44-.42-.7-.62-1.26-.96l.45-.58ZM101.37,25.67c-.18.62-.38,1.11-.69,1.7-.13.27-.2.41-.28.53l-.67-.58c.33-.33.71-1.13,1.02-2.09l.62.44ZM100.5,21.57c.53.32.74.48,1.23.92l-.49.64c-.44-.44-.7-.66-1.23-.99l.48-.57ZM104.42,24.58c.08.46.21.84.43,1.24.29.55.68.97,1.28,1.37-.26.28-.34.4-.52.72-.67-.55-1.07-1.04-1.42-1.73-.25-.5-.38-.93-.5-1.6h-.89c-.05.75-.07.91-.14,1.27-.18.9-.43,1.51-.89,2.1-.2-.26-.34-.38-.64-.56.35-.45.52-.79.67-1.3.2-.69.27-1.6.27-3.13,0-.5,0-.8-.04-1.15.22.03.43.04.8.04h2.18c.36,0,.54,0,.76-.04-.03.25-.04.45-.04.76v1.3c0,.34,0,.54.04.75-.22-.02-.38-.03-.7-.03h-.64ZM104.97,23.89v-1.35h-2.14v.37c0,.33,0,.47-.02.98h2.16Z"/>
            <path class="cls-3" d="M112.6,22.84c-.09.12-.1.15-.22.47-.22.64-.61,1.46-.9,1.93-.71,1.16-1.7,1.99-3.19,2.67-.22-.38-.31-.5-.58-.72.6-.25.95-.42,1.37-.7.5-.32.79-.58,1.15-.97-.49-.42-.91-.71-1.44-1l.53-.62c.59.33.88.53,1.41.94.33-.5.57-1,.79-1.65l-2.18.02c-.43.72-.93,1.29-1.64,1.88-.23-.26-.34-.35-.7-.56.77-.57,1.33-1.21,1.76-2,.2-.37.34-.71.41-.97l.91.2q-.08.13-.21.39c-.08.19-.13.27-.17.34q.11-.01,1.82-.03c.29,0,.43-.02.62-.08l.47.47Z"/>
            <path class="cls-3" d="M115.47,21.97q-.03.2-.07,1.57c-.05,1.37-.2,2.16-.57,2.88-.24.48-.5.84-.97,1.3-.27-.35-.38-.46-.71-.68.34-.28.51-.47.72-.81.5-.81.67-1.71.67-3.67,0-.38,0-.45-.03-.64l.95.05ZM117.33,21.88c-.03.2-.04.32-.05.67l-.04,3.99c.49-.23.77-.44,1.07-.8.32-.38.53-.76.69-1.28.24.31.34.41.66.66-.29.69-.65,1.22-1.12,1.63-.4.34-.76.55-1.49.84-.15.06-.21.08-.3.13l-.45-.48c.05-.2.06-.36.06-.74l.04-3.95v-.21c0-.18,0-.33-.03-.46h.95Z"/>
            <path class="cls-3" d="M126.07,22.84c-.09.12-.1.15-.22.47-.22.64-.61,1.46-.9,1.93-.71,1.16-1.7,1.99-3.19,2.67-.22-.38-.31-.5-.58-.72.6-.25.95-.42,1.37-.7.5-.32.79-.58,1.15-.97-.49-.42-.91-.71-1.44-1l.53-.62c.59.33.88.53,1.41.94.33-.5.57-1,.79-1.65l-2.18.02c-.43.72-.93,1.29-1.64,1.88-.23-.26-.34-.35-.7-.56.77-.57,1.33-1.21,1.76-2,.2-.37.34-.71.41-.97l.91.2q-.08.13-.21.39c-.08.19-.13.27-.17.34q.11-.01,1.82-.03c.29,0,.43-.02.62-.08l.47.47Z"/>
            <path class="cls-3" d="M128.94,21.97q-.03.2-.07,1.57c-.05,1.37-.2,2.16-.57,2.88-.24.48-.5.84-.97,1.3-.27-.35-.38-.46-.71-.68.34-.28.51-.47.72-.81.5-.81.67-1.71.67-3.67,0-.38,0-.45-.03-.64l.95.05ZM130.8,21.88c-.03.2-.04.32-.05.67l-.04,3.99c.49-.23.77-.44,1.07-.8.32-.38.53-.76.69-1.28.24.31.34.41.66.66-.29.69-.65,1.22-1.12,1.63-.4.34-.76.55-1.49.84-.15.06-.21.08-.3.13l-.45-.48c.05-.2.06-.36.06-.74l.04-3.95v-.21c0-.18,0-.33-.03-.46h.95Z"/>
            <path class="cls-3" d="M134.62,22.16c.43.76.64,1.25.95,2.23l-.91.32c-.2-.8-.53-1.65-.89-2.26l.86-.29ZM139.03,22.38c-.06.15-.08.21-.19.69-.27,1.26-.83,2.41-1.55,3.23-.55.63-1.16,1.08-2.02,1.53-.23-.37-.34-.49-.64-.76.82-.35,1.41-.76,1.95-1.34.5-.55.86-1.15,1.14-1.99.2-.61.33-1.16.35-1.58l.97.22Z"/>
            <path class="cls-3" d="M140.18,24.22c.31.04.44.05,1.13.05h3.73c.69,0,.83,0,1.13-.05v.97c-.28-.04-.36-.04-1.14-.04h-3.72c-.79,0-.86,0-1.14.04v-.97Z"/>
            <path class="cls-3" d="M151.96,27.63c-.58-.71-1.39-1.5-2.15-2.08-.79.88-1.6,1.5-2.67,2.02-.2-.36-.28-.48-.57-.78.54-.21.88-.4,1.4-.77,1.06-.74,1.9-1.76,2.35-2.85l.08-.18q-.11,0-2.32.04c-.34,0-.53.02-.76.06l-.03-.9c.2.04.33.04.62.04h.17l2.46-.04c.39,0,.45-.01.62-.08l.46.48c-.09.11-.15.2-.22.38-.32.75-.67,1.36-1.09,1.93.44.29.82.59,1.29,1.02q.18.15,1.02.97l-.67.73Z"/>
            <path class="cls-3" d="M153.44,28.02c.5-.62.69-.93.89-1.39.25-.58.37-1.21.37-1.92s-.11-1.28-.36-1.86c-.2-.46-.41-.78-.9-1.39h.99c.39.55.56.86.76,1.38.25.64.36,1.21.36,1.87s-.12,1.29-.37,1.93c-.2.51-.37.82-.76,1.38h-.99Z"/>
          </g>
          <g>
            <path class="cls-4" d="M58.17,8.01c-.53,1.79-1.09,3.52-2.22,5.73l-1.31-.4c.65-1.04,1.34-2.21,2.19-5.13-.86.11-1.23.12-1.61.13l-.09-1.12c.12.02.34.06.87.06.15,0,.83-.01,1.07-.06.16-.73.34-1.56.37-2.28l1.33.31s.27.05.27.17c0,.08-.03.11-.13.15-.14.06-.16.08-.18.18-.1.49-.18.87-.26,1.17.64-.14,1.28-.43,1.71-.64v1.2c-.37.12-.82.29-2,.52ZM60.9,13.82c-1.94,0-2.77-.54-2.77-1.64,0-.05,0-.4.13-.78l1.07.23c-.04.21-.04.38-.04.4,0,.14.02.23.13.32.3.28,1.12.29,1.37.29,1,0,1.58-.16,1.9-.24l.11,1.25c-.55.1-1.13.16-1.88.16ZM61.13,9.54c-.69,0-1.36.09-1.62.12v-1.13c.56-.04,1.1-.08,1.67-.08.75,0,1.1.03,1.42.06v1.14c-.81-.11-1.31-.12-1.48-.12Z"/>
            <path class="cls-4" d="M68.3,13.38c-.96,0-2.5-.09-3.12-.68-.17-.15-.36-.39-.36-.84,0-.96.57-1.56,1.08-2.06l.99.81c-.27.23-.63.56-.63.93,0,.21.09.29.15.34.3.26,1.36.26,1.83.26,1.85,0,2.55-.13,3.36-.29l.06,1.34c-.95.09-2.11.19-3.36.19ZM68.58,8.72l-.79-.85,1.1-.93c-1.79,0-2.52-.01-3.16-.06l-.29-1.24c.96.16,1.93.25,2.91.25.79,0,1.58-.02,2.37-.13l.51.91c-.95.65-2.06,1.56-2.65,2.06Z"/>
            <path class="cls-4" d="M78.48,10.53l-.41-1.17c.22.03.45.05.67.05,1.29,0,2.08-.68,2.08-1.42,0-.59-.66-.81-1-.81-.25,0-.55.09-.7.13.15.2.32.48.57.89l-1.16.5c-.1-.22-.2-.43-.54-.98-.53.23-.83.38-1.49.73.81,1.64,1.33,2.92,1.98,4.93l-1.21.54c-.73-2.61-1.37-3.92-1.83-4.85-.73.48-1.06.74-1.4,1.06l-.97-1.07c.15-.09.32-.18,1.82-1.04-.37-.66-.67-1.16-1.11-1.71l1.14-.5c.13-.05.43-.2.43-.01,0,.05-.09.27-.09.32,0,.04.11.21.14.27.08.11.4.7.58,1.03.58-.3.91-.45,1.36-.65-.54-.7-.8-.95-1.09-1.18l1.11-.52c.31.32.55.58,1.08,1.28.37-.11.83-.24,1.33-.24,1.02,0,2.19.54,2.19,1.9,0,2.41-2.64,2.49-3.48,2.51Z"/>
            <path class="cls-4" d="M88.97,8.88c.67,1.27,1.01,1.73,1.42,2.24l-.66.82c-.52-.28-1.58-.82-2.82-.82-.71,0-1.3.3-1.3.88,0,.92,1.4.92,1.77.92,1.02,0,1.64-.16,2.15-.29l-.11,1.27c-.3.04-.85.13-1.7.13-1.94,0-3.28-.61-3.28-2.04s1.16-1.87,2.38-1.87c.54,0,1.01.08,1.54.17-.26-.46-.36-.66-.56-1.06-1.13.28-2.06.45-3.46.47l-.38-1.09c1.53-.01,2.23-.08,3.39-.32-.16-.37-.28-.64-.39-.88-1.09.22-1.69.28-2.56.29l-.33-1.03c1.03-.01,1.58-.05,2.51-.22-.25-.67-.37-1.01-.54-1.52l1.23-.14c.09-.01.36-.04.36.09,0,.05-.03.09-.09.14-.09.09-.1.12-.1.15,0,.08.18.6.32.99.73-.26,1.14-.44,1.84-.83l.24,1.04c-.61.39-1.21.57-1.7.73.14.33.18.44.36.82.79-.31,1.23-.54,1.96-.97l.19,1.08c-.59.39-1.02.58-1.69.84Z"/>
            <path class="cls-4" d="M99.99,6.27v1.3h2.63v6.46h-1.2v-.41h-5.86v.43h-1.2v-6.48h2.52v-1.3h-3v-1.1h9.24v1.1h-3.15ZM101.42,10.42c-.15.62-.62.86-.96.86h-.94c-.58,0-.72-.52-.72-.9v-1.72h-.74c-.01.57-.03,1.2-.4,1.97-.29.62-.61.92-.97,1.22l-1.11-.73c.31-.21.67-.42.96-.93.32-.57.34-1.08.36-1.53h-1.34v3.86h5.86v-2.09ZM98.8,6.27h-.74v1.3h.74v-1.3ZM101.42,8.66h-1.43v1.31c0,.15.05.21.24.21.25,0,.29-.12.39-.71l.81.41v-1.23Z"/>
            <path class="cls-4" d="M105.44,9.79c-.45-.43-1.13-.86-1.49-1.07l.64-.89c.44.22,1.06.62,1.53,1.01l-.68.95ZM105.11,13.99c-.03.06-.03.09-.03.24,0,.04-.01.1-.05.1-.08,0-.18-.08-.26-.14l-.79-.67c.64-.87,1.17-1.8,1.59-2.79l.87.68c-.47,1.06-.82,1.67-1.34,2.58ZM105.77,6.88c-.3-.3-.79-.73-1.27-1.07l.7-.87c.4.28.94.7,1.32,1.07l-.75.87ZM108.22,6.6c-.2.28-.45.59-.9.96l-1-.59c.6-.55,1.22-1.21,1.73-2.35l1.08.37c.1.03.22.09.22.14,0,.04-.05.09-.09.1-.05.01-.17.04-.19.06-.04.03-.15.26-.17.3h4.76v1.01h-5.43ZM112.87,10.41c-.02.43-.03.61-.09,1.11h.74v.99h-.86c-.12.65-.18.92-.43,1.17-.15.15-.57.51-1.55.53l-.55-1.04c1.21.01,1.25-.16,1.36-.66h-3.13c-.06.25-.08.28-.15.52l-1.09-.11c.16-.58.29-1.14.44-2.51h-.78v-.95h.86c.04-.61.08-1.26.04-2.11h5.26c0,.65,0,1.01-.02,2.11h.69v.95h-.74ZM108.67,10.41c-.05.58-.11.92-.13,1.11h.92c.09-.41.15-.94.17-1.11h-.96ZM108.79,8.36c0,.46-.02.92-.03,1.11h.96c.03-.44.06-.78.05-1.11h-.98ZM110.73,10.41c-.03.38-.08.74-.14,1.11h1.04c.04-.4.07-.76.09-1.11h-.99ZM110.86,8.36c0,.46-.02.74-.04,1.11h.95c.02-.59.02-.8.02-1.11h-.93Z"/>
          </g>
        </g>
      </g>
    </g>
  </g>
</svg>