<?xml version="1.0" encoding="UTF-8"?>
<svg xmlns="http://www.w3.org/2000/svg" viewBox="0 0 162.24 26.86">
  <defs>
    <style>
      .cls-1 {
        fill: #f18d09;
      }

      .cls-2 {
        isolation: isolate;
      }

      .cls-3 {
        fill: #231815;
      }

      .cls-4 {
        fill: #fff;
      }

      .cls-5 {
        fill: #f29014;
        mix-blend-mode: multiply;
      }
    </style>
  </defs>
  <g class="cls-2">
    <g id="_レイヤー_2" data-name="レイヤー 2">
      <g id="_テキスト1" data-name="テキスト1">
        <g>
          <g>
            <rect class="cls-1" width="162.24" height="17.49"/>
            <rect class="cls-5" width="8.29" height="17.49"/>
          </g>
          <g>
            <path class="cls-3" d="M1.95,22.44c-.06.38-.13.67-.25,1.03-.2-.15-.36-.23-.61-.32.22-.57.36-1.39.36-2.08,0-.04,0-.09-.01-.17l.69.08c-.03.13-.03.14-.04.36v.11s-.04.29-.04.29h.32v-.83c0-.21-.01-.38-.05-.57h.83c-.03.18-.04.34-.04.57v.83h.06c.25,0,.41-.01.56-.04v.74c.22.01.39.02.64.02h.8v-.68h-.59c-.29,0-.51.01-.72.04v-.76c.2.03.41.04.72.04h.59v-.22c0-.2-.01-.35-.04-.53h.81c-.03.16-.04.31-.04.52v.22h.76c.32,0,.53-.01.74-.04v.76c-.21-.02-.44-.04-.74-.04h-.76v.68h.95c.35,0,.61-.01.79-.04v.76c-.22-.03-.48-.04-.73-.04h-.04v.59h.06c.34,0,.51,0,.69-.04v.77c-.22-.03-.41-.04-.69-.04h-.06v1.67c0,.53-.22.67-1.04.67-.12,0-.38,0-.6-.02-.02-.32-.08-.53-.18-.77.4.06.63.08.82.08.22,0,.27-.04.27-.21v-1.42h-1.83c-.29,0-.46,0-.69.04v-.32c-.2.09-.32.15-.5.22v1.67c0,.31.01.57.04.81h-.83c.03-.16.05-.5.05-.81v-1.39c-.17.06-.32.12-.47.17-.37.13-.46.17-.53.2l-.18-.8c.25-.03.53-.11,1.18-.32v-1.44h-.41ZM3.1,23.63c.27-.1.37-.14.6-.25v.31c.17.01.37.02.68.02h1.74v-.59h-1.76c-.37,0-.58,0-.79.04v-.72c-.15,0-.24,0-.36,0h-.11v1.19ZM4.48,24.44c.36.33.62.64.92,1.07l-.61.46c-.28-.47-.48-.74-.89-1.15l.58-.39Z"/>
            <path class="cls-3" d="M12.64,26.33c-1.08.22-1.84.36-2.58.46-.18.02-.21.03-.34.05l-.12-.71h.07c.2,0,.48-.03.9-.08v-.48c-.5.27-.95.45-1.62.65-.12-.29-.18-.41-.36-.63.91-.18,1.68-.49,2.17-.86h-1.32c-.41,0-.53,0-.75.04v-.68c.21.02.37.03.78.03h2.19v-.12c0-.07,0-.18-.01-.24-.15,0-.2,0-.38-.01-.01-.17-.05-.32-.11-.47.14.02.28.04.37.04s.12-.03.12-.12v-.22h-.67v.36c0,.22,0,.38.02.55h-.72c.02-.2.03-.3.03-.55v-.36h-.61v.42c0,.22,0,.28.02.4h-.7v-.07c.02-.12.03-.23.03-.36v-.52c0-.13,0-.19-.02-.4.11,0,.31.01.47.01h.81v-.28h-.91c-.26,0-.43,0-.63.04v-.6c.14.02.22.02.47.03-.17-.12-.31-.21-.53-.32.27-.29.43-.57.56-.98l.71.14c-.05.15-.08.2-.13.31h.46c0-.2-.01-.31-.04-.46h.74c-.02.15-.03.26-.03.46h.67c.32,0,.46,0,.64-.03v.6c-.2-.01-.36-.02-.64-.02h-.68v.29h.76c.39,0,.51,0,.69-.04v.6c-.18-.02-.38-.03-.66-.03h-.8v.28h.71c.26,0,.39,0,.56-.01,0,.08,0,.16,0,.3v.55c0,.18-.04.28-.13.36h.31c-.01.15-.02.2-.02.35v.12h1.85c.39,0,.62,0,.8-.03v.68c-.23-.03-.35-.04-.76-.04h-.28l.52.32c-.25.25-.46.41-.8.59.55.26.89.37,1.46.47-.18.24-.26.4-.38.7-.92-.26-1.55-.57-2.12-1.04v.56ZM10.27,21.63v-.29h-.74c-.08.12-.11.17-.21.29h.95ZM11.29,25.94c.69-.11.88-.14,1.28-.23-.37-.33-.55-.58-.73-.97h-.15c-.12.12-.26.25-.4.36v.85ZM12.56,24.73c.13.22.27.38.54.58.26-.15.53-.37.71-.58h-1.25ZM12.59,22.87c.02-.17.03-.27.03-.48v-1.16c0-.19-.01-.38-.04-.53h.76c-.02.13-.03.27-.03.53v1.15c0,.23,0,.34.02.48h-.75ZM14.68,23.05c0,.37-.06.52-.24.63-.15.09-.38.13-.81.13-.14,0-.34,0-.51-.01-.03-.24-.09-.47-.19-.67.26.04.52.06.68.06.11,0,.23-.01.27-.02.06-.02.08-.06.08-.18v-2c0-.25-.01-.41-.04-.6h.79c-.03.2-.04.34-.04.63v2.03Z"/>
            <path class="cls-3" d="M18.02,23.15c-.02.08-.03.09-.06.22-.24,1.08-.62,1.95-1.18,2.72-.34-.25-.46-.31-.81-.45.46-.55.71-1.04.98-1.84.12-.37.17-.59.2-.86l.86.22ZM18.72,21.26c0-.35,0-.53-.04-.72h.95c-.02.2-.03.3-.03.74v.37h1.6c.48,0,.64,0,.9-.05v.86c-.25-.03-.43-.03-.89-.03h-1.62v3.4c0,.36,0,.56.04.78h-.95c.04-.22.04-.43.04-.79v-3.39h-1.55c-.46,0-.64,0-.88.03v-.86c.27.04.42.05.9.05h1.54v-.39ZM21.13,22.93c.05.24.11.42.24.78.32.85.57,1.34,1,1.88-.37.19-.48.26-.81.49-.53-.85-.82-1.51-1.15-2.62-.06-.2-.06-.22-.11-.33l.83-.21Z"/>
            <path class="cls-3" d="M24.49,22.2c.29.54.43.88.69,1.66l-.79.25c-.18-.71-.32-1.08-.64-1.7l.74-.22ZM28.51,22.25c-.04.11-.06.14-.1.36-.2.95-.52,1.72-.97,2.33-.52.71-1.1,1.16-2.14,1.69-.18-.31-.27-.41-.56-.69.49-.19.78-.34,1.19-.64.82-.6,1.29-1.31,1.59-2.43.09-.34.13-.59.13-.81l.85.2ZM25.98,21.92c.37.69.5,1,.68,1.61l-.78.25c-.13-.53-.34-1.07-.64-1.65l.74-.21Z"/>
            <path class="cls-3" d="M30.83,26.55c.04-.22.04-.41.04-.79v-4.49c0-.34-.01-.53-.04-.71h.96c-.03.21-.03.3-.03.74v1.3c.96.34,2.06.85,3.18,1.48l-.49.83c-.58-.4-1.31-.8-2.48-1.34-.16-.08-.18-.08-.24-.12.02.2.03.28.03.48v1.85c0,.37,0,.55.03.78h-.96Z"/>
            <path class="cls-3" d="M37.15,26.55c.03-.2.04-.39.04-.79v-4.49c0-.41-.01-.55-.04-.71h.96c-.02.19-.03.32-.03.74v1.3c.81.27,2.07.85,3.18,1.48l-.49.83c-.49-.35-1.48-.89-2.48-1.34-.16-.08-.18-.08-.24-.12.02.2.03.31.03.48v1.85c0,.38,0,.58.03.78h-.96ZM40.03,20.92c.31.33.5.59.73,1.03l-.49.26c-.23-.43-.43-.71-.73-1.04l.49-.25ZM41.12,21.77c-.21-.38-.44-.71-.71-1.01l.47-.25c.31.32.51.59.73.99l-.48.27Z"/>
            <path class="cls-3" d="M43.77,22.2c.29.54.43.88.69,1.66l-.79.25c-.18-.71-.32-1.08-.64-1.7l.74-.22ZM47.79,22.25c-.04.11-.06.14-.1.36-.2.95-.52,1.72-.97,2.33-.52.71-1.1,1.16-2.14,1.69-.18-.31-.27-.41-.56-.69.49-.19.78-.34,1.19-.64.82-.6,1.29-1.31,1.59-2.43.09-.34.13-.59.13-.81l.85.2ZM45.26,21.92c.37.69.5,1,.68,1.61l-.78.25c-.13-.53-.34-1.07-.64-1.65l.74-.21Z"/>
            <path class="cls-3" d="M54.87,21.75c-.07.1-.1.17-.18.42-.32,1.06-.82,2.01-1.44,2.7-.64.74-1.41,1.28-2.49,1.78-.2-.35-.29-.47-.59-.74.7-.29,1.09-.5,1.53-.83,1-.74,1.66-1.7,2.04-2.96l-2.11.04c-.43.68-.97,1.28-1.64,1.79-.21-.29-.31-.38-.68-.6.8-.55,1.3-1.11,1.81-2.03.22-.4.33-.67.36-.92l.96.19q-.04.06-.12.22s-.02.04-.09.2t-.09.18-.11.22c.09,0,.2-.01.34-.01l1.53-.02c.27,0,.35-.01.51-.07l.45.44Z"/>
            <path class="cls-3" d="M61.19,20.28l-5.31,6.58h-1.03l5.3-6.58h1.04Z"/>
            <path class="cls-3" d="M67.17,21.26q-.08.02-.59.19c-.4.13-.62.18-1.17.29q0,.95-.02,1.18h1.49c.47,0,.59,0,.85-.05v.84c-.26-.03-.39-.04-.84-.04h-1.55c-.08.65-.22,1.12-.47,1.53s-.65.8-1.14,1.11c-.2.13-.33.2-.65.35-.2-.36-.31-.49-.61-.74.5-.18.77-.33,1.09-.59.42-.34.69-.74.8-1.19.03-.12.05-.24.08-.47h-1.73c-.45,0-.58,0-.84.04v-.84c.26.04.38.05.85.05h1.79c.01-.29.01-.57.01-1.06-.57.08-.78.1-1.94.16-.07-.32-.11-.42-.26-.76.22.01.33.01.44.01.94,0,2.13-.16,3-.41.41-.12.61-.2.85-.33l.56.71Z"/>
            <path class="cls-3" d="M70.48,20.71c-.03.2-.03.26-.03.63v1.93c0,.35,0,.44.03.62h-.96c.02-.16.04-.38.04-.63v-1.93c0-.36,0-.45-.03-.63h.95ZM73.66,20.72c-.03.17-.04.25-.04.65v.95c0,1.09-.05,1.68-.18,2.12-.2.7-.65,1.23-1.38,1.63-.37.21-.72.35-1.37.54-.12-.34-.2-.46-.49-.83.69-.13,1.09-.28,1.51-.56.66-.43.89-.86.97-1.79.03-.3.04-.61.04-1.17v-.88c0-.36,0-.5-.04-.67h.97Z"/>
            <path class="cls-3" d="M76.14,26.55c.03-.2.04-.39.04-.79v-4.49c0-.41-.01-.55-.04-.71h.96c-.02.19-.03.32-.03.74v1.3c.81.27,2.07.85,3.18,1.48l-.49.83c-.49-.35-1.48-.89-2.48-1.34-.16-.08-.18-.08-.24-.12.02.2.03.31.03.48v1.85c0,.38,0,.58.03.78h-.96ZM79.02,20.92c.31.33.5.59.73,1.03l-.49.26c-.23-.43-.43-.71-.73-1.04l.49-.25ZM80.11,21.77c-.21-.38-.44-.71-.71-1.01l.47-.25c.31.32.51.59.73.99l-.48.27Z"/>
            <path class="cls-3" d="M82.76,22.2c.29.54.43.88.69,1.66l-.79.25c-.18-.71-.32-1.08-.64-1.7l.74-.22ZM86.78,22.25c-.04.11-.06.14-.1.36-.2.95-.52,1.72-.97,2.33-.52.71-1.1,1.16-2.14,1.69-.18-.31-.27-.41-.56-.69.49-.19.78-.34,1.19-.64.82-.6,1.29-1.31,1.59-2.43.09-.34.13-.59.13-.81l.85.2ZM84.25,21.92c.37.69.5,1,.68,1.61l-.78.25c-.13-.53-.34-1.07-.64-1.65l.74-.21Z"/>
            <path class="cls-3" d="M93.86,21.75c-.07.1-.1.17-.18.42-.32,1.06-.82,2.01-1.44,2.7-.64.74-1.41,1.28-2.49,1.78-.2-.35-.29-.47-.59-.74.7-.29,1.09-.5,1.53-.83,1-.74,1.66-1.7,2.04-2.96l-2.11.04c-.43.68-.97,1.28-1.64,1.79-.21-.29-.31-.38-.68-.6.8-.55,1.3-1.11,1.81-2.03.22-.4.33-.67.36-.92l.96.19q-.04.06-.12.22s-.02.04-.09.2t-.09.18-.11.22c.09,0,.2-.01.34-.01l1.53-.02c.27,0,.35-.01.51-.07l.45.44Z"/>
            <path class="cls-3" d="M100.18,20.28l-5.31,6.58h-1.03l5.3-6.58h1.04Z"/>
            <path class="cls-3" d="M105.68,22.25c.49,0,.64,0,.91-.05v.88c-.25-.03-.43-.03-.9-.03h-1.44c-.06.97-.18,1.44-.5,1.97-.38.64-.88,1.07-1.79,1.57-.24-.4-.34-.53-.64-.76.84-.36,1.37-.8,1.69-1.38.21-.38.29-.69.34-1.41h-1.74c-.46,0-.64,0-.9.03v-.88c.27.04.43.05.91.05h1.77c0-.29,0-.42,0-.55v-.41c0-.3,0-.48-.03-.67h.96c-.03.22-.03.23-.04.67v.42q-.01.46-.01.54h1.39Z"/>
            <path class="cls-3" d="M113.25,21.26q-.08.02-.59.19c-.4.13-.62.18-1.17.29q0,.95-.02,1.18h1.49c.47,0,.59,0,.85-.05v.84c-.26-.03-.39-.04-.84-.04h-1.55c-.08.65-.22,1.12-.47,1.53s-.65.8-1.14,1.11c-.2.13-.33.2-.65.35-.2-.36-.31-.49-.61-.74.5-.18.77-.33,1.09-.59.42-.34.69-.74.8-1.19.03-.12.05-.24.08-.47h-1.73c-.45,0-.58,0-.84.04v-.84c.26.04.38.05.85.05h1.79c.01-.29.01-.57.01-1.06-.57.08-.78.1-1.94.16-.07-.32-.11-.42-.26-.76.22.01.33.01.44.01.94,0,2.13-.16,3-.41.41-.12.61-.2.85-.33l.56.71Z"/>
            <path class="cls-3" d="M116.18,26.34c-.35,0-.46,0-.63.03v-.78c.19.04.36.05.63.05h2.69v-1.06h-2.44c-.35,0-.46,0-.63.03v-.76c.19.04.35.05.63.05h2.44v-.97h-2.62c-.34,0-.45,0-.63.03v-.78c.2.04.35.05.63.05h2.76c.25,0,.45,0,.65-.03-.01.25-.02.43-.02.74v3.21c0,.27,0,.37.03.53h-.8v-.33h-2.68Z"/>
            <path class="cls-3" d="M126.84,26.46c-.58-.71-1.39-1.5-2.15-2.08-.79.88-1.6,1.5-2.67,2.02-.2-.36-.28-.48-.57-.78.54-.21.88-.4,1.4-.77,1.06-.74,1.9-1.76,2.35-2.85l.08-.18q-.11,0-2.32.04c-.34,0-.53.02-.76.06l-.03-.9c.2.04.33.04.62.04h.17l2.46-.04c.39,0,.45-.01.62-.08l.46.48c-.09.11-.15.2-.22.38-.32.75-.67,1.36-1.09,1.93.44.29.82.59,1.29,1.02q.18.15,1.02.97l-.67.73Z"/>
            <path class="cls-3" d="M134.65,20.28l-5.31,6.58h-1.03l5.3-6.58h1.04Z"/>
            <path class="cls-3" d="M136.6,25.89c-.48,0-.65,0-.86.03v-.9c.26.04.38.05.88.05h3.19v-3.05h-3.07c-.5,0-.64,0-.9.04v-.91c.26.04.39.05.9.05h3.37q.36,0,.61-.01c-.02.19-.02.26-.02.58v3.84c0,.35,0,.55.04.72h-.94v-.43h-3.19Z"/>
            <path class="cls-3" d="M147.71,21.87c-.06.11-.08.17-.12.32-.55,2.21-1.81,3.64-3.99,4.54-.18-.36-.3-.53-.62-.83,1.94-.6,3.21-1.91,3.66-3.77h-3.33c-.52,0-.65,0-.88.04v-.91c.25.04.42.05.9.05h3.21c.25,0,.37,0,.5-.02-.12-.25-.25-.46-.43-.71l.51-.19c.27.36.44.64.62,1.11l-.28.11.25.26ZM148.12,21.38c-.17-.41-.36-.77-.6-1.09l.5-.19c.29.37.46.65.62,1.07l-.52.21Z"/>
            <path class="cls-3" d="M149.09,23.06c.31.04.44.05,1.13.05h3.73c.69,0,.83,0,1.13-.05v.97c-.28-.04-.36-.04-1.14-.04h-3.72c-.79,0-.86,0-1.14.04v-.97Z"/>
            <path class="cls-3" d="M161.99,21.67c-.09.12-.1.15-.22.47-.22.64-.61,1.46-.9,1.93-.71,1.16-1.7,1.99-3.19,2.67-.22-.38-.31-.5-.58-.72.6-.25.95-.42,1.37-.7.5-.32.79-.58,1.15-.97-.49-.42-.91-.71-1.44-1l.53-.62c.59.33.88.53,1.41.94.33-.5.57-1,.79-1.65l-2.18.02c-.43.72-.93,1.29-1.64,1.88-.23-.26-.34-.35-.7-.56.77-.57,1.33-1.21,1.76-2,.2-.37.34-.71.41-.97l.91.2q-.08.13-.21.39c-.08.19-.13.27-.17.34q.11-.01,1.82-.03c.29,0,.43-.02.62-.08l.47.47Z"/>
          </g>
          <g>
            <path class="cls-4" d="M41.42,12.29h-1.46l-1.08-5.28-.15-1.09-.15,1.09-1.08,5.28h-1.46l-2.41-7.86h1.59l1.39,5.3.17.96.11-.98,1.07-5.28h1.55l1.07,5.28.11.98.16-.96,1.4-5.3h1.59l-2.41,7.86Z"/>
            <path class="cls-4" d="M45.88,9.82c.05.29.27,1.46,1.41,1.46.26,0,.82-.06,1.06-.7h1.43c-.18.48-.68,1.85-2.56,1.85-1.57,0-2.76-1.04-2.76-3.03s1.28-3.05,2.71-3.05c.96,0,1.7.44,2.13,1.1.5.75.55,1.54.58,2.36h-4.01ZM47.18,7.52c-1.06,0-1.24,1-1.3,1.37h2.47c-.03-.91-.45-1.37-1.16-1.37Z"/>
            <path class="cls-4" d="M53.41,12.43c-.41,0-1.27-.08-1.87-.68-.33-.33-.46-.62-.53-1.36h1.42c.04.28.16.9,1.04.9.12,0,.83,0,.83-.57,0-.4-.29-.53-1.21-.85-1.18-.43-1.98-.71-1.98-1.77,0-.97.93-1.76,2.25-1.76.48,0,1.17.1,1.69.6.36.36.46.66.53,1.31h-1.42c-.03-.42-.22-.79-.83-.79-.57,0-.8.32-.8.54,0,.29.27.39.72.56,1.44.55,1.5.58,1.83.81.41.29.65.73.65,1.24,0,1.13-1.07,1.8-2.33,1.8Z"/>
            <path class="cls-4" d="M58.89,7.64v3.2c0,.26.11.38.36.38h.61v1.08h-.87c-1.13,0-1.52-.45-1.52-1.37v-3.29h-.8v-1.14h.8v-1.63h1.42v1.63h1v1.14h-1Z"/>
            <path class="cls-4" d="M68.16,12.55c-1.35,0-3.26-.37-3.38-2.62h1.45c.06,1.26,1.22,1.4,1.8,1.4.37,0,1.93-.04,1.93-1.15,0-.57-.34-.79-1.06-.95l-1.9-.42c-1.01-.23-2.11-.8-2.11-2.29,0-1.69,1.63-2.35,3.17-2.35.66,0,1.65.12,2.37.78.45.41.62.79.78,1.7h-1.46c-.05-1.19-1.31-1.25-1.71-1.25-.26,0-1.72.02-1.72,1.04,0,.45.27.81,1.11.99l2.05.45c.6.13,1.97.59,1.97,2.13,0,1.44-1.21,2.53-3.29,2.53Z"/>
            <path class="cls-4" d="M73.04,5.83v-1.4h1.42v1.4h-1.42ZM73.04,12.29v-5.8h1.42v5.8h-1.42Z"/>
            <path class="cls-4" d="M79.77,12.29v-.29l.06-.47c-.18.34-.48.9-1.45.9-1.49,0-2.42-1.13-2.42-2.97s.98-3.1,2.34-3.1c1,0,1.37.62,1.54.92l-.06-.6v-2.24h1.43v7.86h-1.43ZM78.6,7.61c-1.17,0-1.22,1.47-1.22,1.8,0,.96.43,1.72,1.2,1.72.57,0,1.2-.46,1.2-1.71,0-.5-.08-1.81-1.17-1.81Z"/>
            <path class="cls-4" d="M84.01,9.82c.05.29.27,1.46,1.41,1.46.26,0,.82-.06,1.06-.7h1.43c-.18.48-.68,1.85-2.56,1.85-1.57,0-2.76-1.04-2.76-3.03s1.28-3.05,2.71-3.05c.96,0,1.7.44,2.13,1.1.5.75.55,1.54.58,2.36h-4.01ZM85.31,7.52c-1.06,0-1.24,1-1.3,1.37h2.47c-.03-.91-.45-1.37-1.16-1.37Z"/>
            <path class="cls-4" d="M98.81,12.29l-2.97-3.68-.8.71v2.97h-1.46v-7.86h1.46v3.34l3.46-3.34h2.03l-3.7,3.31,3.8,4.56h-1.82Z"/>
            <path class="cls-4" d="M102.02,5.83v-1.4h1.42v1.4h-1.42ZM102.02,12.29v-5.8h1.42v5.8h-1.42Z"/>
            <path class="cls-4" d="M106.94,7.64v3.2c0,.26.11.38.36.38h.61v1.08h-.87c-1.13,0-1.52-.45-1.52-1.37v-3.29h-.8v-1.14h.8v-1.63h1.42v1.63h1v1.14h-1Z"/>
            <path class="cls-4" d="M111.55,12.43c-1.96,0-2.75-1.44-2.75-2.97,0-2.23,1.54-3.1,2.93-3.1.73,0,1.39.23,1.89.72.47.46.57.84.65,1.49h-1.42c-.04-.61-.48-1.08-1.12-1.08-.74,0-1.5.64-1.5,1.9,0,.75.27,1.9,1.36,1.9,1.02,0,1.18-.86,1.24-1.14h1.46c-.13.54-.54,2.29-2.73,2.29Z"/>
            <path class="cls-4" d="M119.25,12.29v-3.4c0-.54-.18-1.31-1.01-1.31-.64,0-1.18.51-1.18,1.3v3.42h-1.42v-7.86h1.42v2.45l-.07.72c.22-.4.7-1.24,1.8-1.24,1.24,0,1.88.97,1.88,2.17v3.77h-1.42Z"/>
            <path class="cls-4" d="M123.46,9.82c.05.29.27,1.46,1.41,1.46.26,0,.82-.06,1.06-.7h1.43c-.18.48-.68,1.85-2.56,1.85-1.57,0-2.76-1.04-2.76-3.03s1.28-3.05,2.71-3.05c.96,0,1.7.44,2.13,1.1.5.75.55,1.54.58,2.36h-4.01ZM124.77,7.52c-1.06,0-1.24,1-1.3,1.37h2.47c-.03-.91-.45-1.37-1.16-1.37Z"/>
            <path class="cls-4" d="M132.5,12.29v-3.66c0-.65-.27-1.08-.98-1.08-.58,0-1.27.29-1.27,1.36v3.38h-1.42v-5.8h1.42v.49l-.05.5c.23-.4.66-1.12,1.79-1.12,1.23,0,1.94.73,1.94,2.05v3.89h-1.42Z"/>
          </g>
        </g>
      </g>
    </g>
  </g>
</svg>