<?xml version="1.0" encoding="UTF-8"?>
<svg xmlns="http://www.w3.org/2000/svg" viewBox="0 0 162.24 36.1">
  <defs>
    <style>
      .cls-1 {
        fill: #f18d09;
      }

      .cls-2 {
        isolation: isolate;
      }

      .cls-3 {
        fill: #231815;
      }

      .cls-4 {
        fill: #fff;
      }

      .cls-5 {
        fill: #f29014;
        mix-blend-mode: multiply;
      }
    </style>
  </defs>
  <g class="cls-2">
    <g id="_レイヤー_2" data-name="レイヤー 2">
      <g id="_レイヤー_1-2" data-name="レイヤー 1">
        <g>
          <g>
            <rect class="cls-1" width="162.24" height="17.49"/>
            <rect class="cls-5" width="8.29" height="17.49"/>
          </g>
          <g>
            <path class="cls-3" d="M3.47,22.1c.15,0,.23,0,.27,0q.12,0,1.15-.07c.39-.02,1.55-.08,3.5-.18.57-.03.68-.04.8-.07l.05.9q-.08,0-.15,0c-.42,0-.94.14-1.39.38-.89.46-1.42,1.16-1.42,1.87,0,.55.34.97.93,1.14.34.1.79.18,1.04.18,0,0,.07,0,.14,0l-.12.95c-.08-.02-.12-.03-.24-.04-.77-.1-1.21-.22-1.64-.46-.64-.36-1-.96-1-1.69,0-.6.24-1.18.67-1.65.27-.29.52-.47.97-.7-.57.08-.84.1-2.36.22-.47.03-.89.08-1.16.14l-.05-.91Z"/>
            <path class="cls-3" d="M11.89,21.24c-.08.24-.12.42-.25,1.35-.05.29-.08.53-.09.7h.02s.01-.04.04-.15c.07-.25.25-.59.44-.83.39-.48.82-.71,1.33-.71.48,0,.9.22,1.2.63.35.47.5,1.04.5,1.86,0,1.35-.63,2.36-1.81,2.88-.36.16-.85.3-1.37.39-.14-.4-.22-.55-.41-.83.7-.08,1.11-.18,1.53-.4.81-.41,1.18-1.08,1.18-2.14,0-1.01-.34-1.57-.94-1.57-.27,0-.51.12-.76.37-.55.57-.88,1.43-.88,2.26v.15h-.84s0-.06,0-.08v-.13c0-.2-.02-.72-.02-.86,0-.57.04-1.34.1-1.83l.11-.87c.01-.12.02-.15.02-.24l.89.05Z"/>
            <path class="cls-3" d="M19.19,22.58c.2-.05.31-.08.6-.13q0-.14,0-.39c0-.61,0-.66-.04-.84h.88q-.03.22-.04,1.12c.17-.01.27-.02.41-.02.99,0,1.64.57,1.64,1.43,0,.47-.21.92-.57,1.22-.33.27-.76.41-1.29.41-.34,0-.71-.07-1.09-.2,0-.34-.03-.47-.13-.86.42.19.76.27,1.12.27.3,0,.57-.08.79-.23.18-.13.29-.35.29-.6,0-.44-.34-.7-.93-.7-.5,0-.92.08-2.1.43.44,1.52.47,1.65.89,3.4.04.15.05.2.11.34l-.93.21c-.04-.56-.42-2.22-.85-3.73-.09.04-.11.04-.35.13-.25.08-.72.27-.9.36l-.27-.82c.2-.04.29-.06.64-.18.29-.1.34-.11.68-.22-.21-.69-.34-1.06-.48-1.3l.87-.25q.04.22.25.83c.05.18.08.27.15.5l.68-.19Z"/>
            <path class="cls-3" d="M23.85,22.19c.2.02.36.03.67.03.53,0,.91-.02,1.44-.08q-.02-.06-.08-.18c-.18-.41-.27-.62-.28-.64l.88-.12c.03.17.1.39.29.85.6-.08,1.41-.26,1.89-.42l.07.74q-.07.01-.24.05c-.47.11-1.25.27-1.46.29.11.26.15.35.27.57.6-.13.93-.2.97-.2.4-.1.48-.13.67-.2l.07.76c-.13.02-.28.05-.44.09-.29.07-.52.12-.69.15q-.17.04-.26.06c.36.6.48.75.94,1.28l-.62.44c-.5-.21-.93-.29-1.61-.29-.53,0-.94.07-1.18.2-.2.11-.3.26-.3.43s.12.33.3.41c.22.1.59.15,1,.15.73,0,1.72-.21,2.16-.46l.12.86q-.13.02-.46.1c-.6.16-1.18.24-1.79.24-.8,0-1.32-.1-1.71-.34-.34-.21-.54-.57-.54-.96s.21-.73.59-.97c.37-.23.93-.35,1.63-.35.43,0,.83.05,1.21.15-.11-.1-.24-.3-.54-.78-.74.11-1.19.14-2.71.19-.12,0-.17,0-.29.02l-.03-.76c.2.03.25.03.72.03.74,0,1.32-.04,1.98-.13-.04-.08-.07-.13-.12-.26-.07-.15-.09-.19-.15-.32-.56.06-1.06.09-1.88.1-.29,0-.33,0-.48.01l-.03-.74Z"/>
            <path class="cls-3" d="M35.56,21.99q-.08.02-.59.19c-.4.13-.62.18-1.17.29q0,.95-.02,1.18h1.49c.47,0,.59,0,.85-.05v.84c-.26-.03-.39-.04-.84-.04h-1.55c-.08.65-.22,1.12-.47,1.53s-.65.8-1.14,1.11c-.2.13-.33.2-.65.35-.2-.36-.31-.49-.61-.74.5-.18.77-.33,1.09-.59.42-.34.69-.74.8-1.19.03-.12.05-.24.08-.47h-1.73c-.45,0-.58,0-.84.04v-.84c.26.04.38.05.85.05h1.79c.01-.29.01-.57.01-1.06-.57.08-.78.1-1.94.16-.07-.31-.11-.42-.26-.76.22.01.33.01.44.01.94,0,2.13-.16,3-.41.41-.12.61-.2.85-.33l.56.71Z"/>
            <path class="cls-3" d="M39.15,22.03c-.06-.34-.09-.46-.17-.66l.92-.15c0,.18.04.39.08.66l.11.61,1.48-.23c.34-.06.49-.09.67-.15l.15.84q-.19.01-.67.09l-1.48.23.21,1.15,1.64-.26c.29-.05.54-.1.73-.16l.15.84c-.15,0-.17,0-.32.04-.04,0-.08,0-.11.01-.05,0-.14.02-.28.04l-1.67.27.25,1.36c.08.46.09.48.17.72l-.94.17c0-.21-.04-.41-.09-.74l-.25-1.38-1.73.27c-.34.06-.46.08-.71.15l-.14-.86c.24,0,.44-.02.74-.07l1.7-.27-.21-1.15-1.3.2c-.32.06-.58.1-.77.16l-.14-.86c.25,0,.48-.03.77-.08l1.3-.2-.11-.6Z"/>
            <path class="cls-3" d="M43.88,26.13c.6-.04,1.44-.24,2.07-.52.88-.38,1.53-.92,2.08-1.72.31-.45.5-.83.71-1.4.27.33.38.43.74.69-.6,1.28-1.26,2.11-2.22,2.75-.71.48-1.58.82-2.67,1.05-.28.06-.3.06-.46.12l-.26-.97ZM44.47,21.78c.83.52,1.27.84,1.81,1.35l-.6.76c-.56-.6-1.13-1.06-1.79-1.42l.58-.69Z"/>
            <path class="cls-3" d="M54.45,22.65v-.31s0-.22,0-.22c0-.46,0-.62-.04-.78h.9c-.02.16-.03.2-.03.47q0,.43,0,.85h.45c.5,0,.64,0,.91-.05v.85c-.25-.03-.44-.03-.9-.03h-.47c-.01.84-.01.89-.05,1.16-.1.9-.4,1.49-1.01,2.01-.38.32-.72.5-1.37.74-.13-.3-.22-.43-.53-.74.66-.2,1-.37,1.34-.67.47-.41.68-.88.74-1.68.01-.16.01-.33.03-.81h-1.81v1.05c0,.29,0,.41.03.59h-.91c.02-.15.03-.34.03-.6v-1.04h-.43c-.46,0-.65,0-.9.03v-.85c.27.04.41.05.91.05h.41v-.7c0-.29,0-.44-.04-.62h.92c-.03.23-.03.25-.03.6v.72h1.82Z"/>
            <path class="cls-3" d="M57.74,26.13c.6-.04,1.44-.24,2.07-.52.88-.38,1.53-.92,2.08-1.72.31-.45.5-.83.71-1.4.27.33.38.43.74.69-.6,1.28-1.26,2.11-2.22,2.75-.71.48-1.58.82-2.67,1.05-.28.06-.3.06-.46.12l-.26-.97ZM58.33,21.78c.83.52,1.27.84,1.81,1.35l-.6.76c-.56-.6-1.13-1.06-1.79-1.42l.58-.69Z"/>
            <path class="cls-3" d="M65.01,27.28c.03-.2.04-.39.04-.78v-4.49c0-.41-.01-.55-.04-.71h.96c-.02.19-.03.32-.03.74v1.3c.81.27,2.07.85,3.18,1.48l-.49.83c-.49-.35-1.48-.89-2.48-1.34-.16-.08-.18-.08-.24-.12.02.2.03.31.03.48v1.85c0,.38,0,.57.03.78h-.96ZM67.9,21.66c.31.33.5.6.73,1.03l-.49.26c-.23-.43-.43-.71-.73-1.04l.49-.25ZM68.98,22.5c-.21-.39-.44-.71-.71-1.02l.47-.25c.31.32.51.59.73.99l-.48.27Z"/>
            <path class="cls-3" d="M75.81,21.01l-5.31,6.58h-1.03l5.3-6.58h1.04Z"/>
            <path class="cls-3" d="M77.59,22.53c0,1.58-.11,2.99-.29,3.72-.13.48-.27.82-.53,1.27-.2-.29-.36-.48-.58-.66.27-.46.4-.81.5-1.39.11-.62.17-1.67.17-3,0-.7,0-.95-.04-1.23.28.02.56.04.92.04h4.03c.4,0,.67-.01.85-.04v.71c-.21-.03-.39-.04-.83-.04h-4.2v.62ZM79.72,25.7c0-.12,0-.17-.02-.26h.32c.2-.07.42-.18.59-.28h-1.93c-.38,0-.55,0-.74.03v-.64c.23.03.42.04.73.04h2.46c.36,0,.48,0,.64-.02l.31.36s-.04.02-.58.34c-.25.15-.6.33-.87.44h1.23c.37,0,.63-.01.83-.04v.69c-.24-.03-.53-.04-.83-.04h-1.37v.48c0,.58-.18.72-.95.72-.33,0-.49,0-.9-.03-.05-.26-.08-.34-.2-.65.3.04.76.08.99.08s.29-.04.29-.18v-.42h-1.35c-.31,0-.57.01-.8.04v-.69c.19.02.45.03.82.03h1.34ZM78.08,22.77c0-.26,0-.43-.03-.61.21.01.38.02.77.02h2.53c.39,0,.56,0,.77-.02-.02.16-.03.32-.03.6v.94c0,.28,0,.41.03.62-.22-.01-.4-.02-.78-.02h-2.52c-.37,0-.56,0-.78.02.02-.19.03-.34.03-.61v-.94ZM78.81,22.99h2.55v-.27h-2.55v.27ZM78.81,23.77h2.55v-.28h-2.55v.28Z"/>
            <path class="cls-3" d="M83.71,23.73c-.22.05-.34.08-.54.14l-.06-.76c.14,0,.29-.02.52-.07l.28-.06v-1.16c0-.34,0-.48-.04-.67h.83c-.03.16-.04.3-.04.62v1.04l.98-.2c.2-.04.37-.08.49-.13l.05.76c-.14.01-.31.04-.51.08l-1.01.2v1.77c0,.15.03.18.21.18.24,0,.36-.05.41-.16.05-.12.09-.5.1-1.04.21.11.46.21.69.27-.06.9-.14,1.21-.4,1.43-.19.15-.5.22-1,.22-.61,0-.76-.13-.76-.65v-1.85l-.2.04ZM86.24,22.22c-.26,0-.44,0-.58.03v-.77c.21.03.53.04.91.04h2.28c.32,0,.52,0,.72-.03-.04.38-.04.47-.08,2.05-.06,1.61-.2,2.79-.39,3.28-.15.37-.46.54-1.04.54-.17,0-.51-.01-.7-.03-.04-.32-.08-.52-.18-.78.32.05.59.08.76.08.41,0,.47-.08.59-.72.08-.46.15-1.03.18-1.71q.04-.57.06-1.98h-1.04c-.05,1.44-.15,2.12-.4,2.89-.2.61-.48,1.11-.92,1.62-.26.31-.48.49-.92.78-.2-.26-.29-.34-.62-.59.59-.31.98-.64,1.29-1.11.41-.62.64-1.34.73-2.33.04-.37.05-.59.06-1.26h-.71Z"/>
            <path class="cls-3" d="M92.07,21.24c-.08.24-.12.42-.25,1.35-.05.29-.08.53-.09.7h.02s.01-.04.04-.15c.07-.25.25-.59.44-.83.39-.48.82-.71,1.33-.71.48,0,.9.22,1.2.63.35.47.5,1.04.5,1.86,0,1.35-.63,2.36-1.81,2.88-.36.16-.85.3-1.37.39-.14-.4-.22-.55-.41-.83.7-.08,1.11-.18,1.53-.4.81-.41,1.18-1.08,1.18-2.14,0-1.01-.34-1.57-.94-1.57-.27,0-.51.12-.76.37-.55.57-.88,1.43-.88,2.26v.15h-.84s0-.06,0-.08v-.13c0-.2-.02-.72-.02-.86,0-.57.04-1.34.1-1.83l.11-.87c.01-.12.02-.15.02-.24l.89.05Z"/>
            <path class="cls-3" d="M102.04,21.99q-.08.02-.59.19c-.4.13-.62.18-1.17.29q0,.95-.02,1.18h1.49c.47,0,.59,0,.85-.05v.84c-.26-.03-.39-.04-.84-.04h-1.55c-.08.65-.22,1.12-.47,1.53s-.65.8-1.14,1.11c-.2.13-.33.2-.65.35-.2-.36-.31-.49-.61-.74.5-.18.77-.33,1.09-.59.42-.34.69-.74.8-1.19.03-.12.05-.24.08-.47h-1.73c-.45,0-.58,0-.84.04v-.84c.26.04.38.05.85.05h1.79c.01-.29.01-.57.01-1.06-.57.08-.78.1-1.94.16-.07-.31-.11-.42-.26-.76.22.01.33.01.44.01.94,0,2.13-.16,3-.41.41-.12.61-.2.85-.33l.56.71Z"/>
            <path class="cls-3" d="M105,23.02c-.05-.3-.07-.37-.13-.52l.83-.13c0,.14.02.29.07.54l.11.54,2.09-.35c.2-.03.32-.06.46-.12l.49.44c-.06.09-.11.17-.18.34-.31.78-.71,1.3-1.38,1.82-.25-.27-.36-.34-.65-.5.52-.32.9-.73,1.19-1.25q-.08.02-.26.05l-1.65.27.5,2.59q.07.39.13.57l-.88.15c0-.18-.01-.34-.06-.57l-.48-2.61-.6.1c-.25.04-.41.08-.62.15l-.15-.8c.22,0,.4-.02.67-.06l.58-.1-.11-.55Z"/>
            <path class="cls-3" d="M110.14,23.79c.31.04.44.05,1.13.05h3.73c.69,0,.83,0,1.13-.05v.97c-.28-.04-.36-.04-1.14-.04h-3.72c-.79,0-.86,0-1.14.04v-.97Z"/>
            <path class="cls-3" d="M117.75,23.1c.72.29,1.26.56,1.86.95l-.44.79c-.56-.41-1.18-.75-1.9-1.03l.47-.71ZM117.44,26.24c.53,0,1.29-.18,2.02-.46.87-.34,1.46-.79,2.02-1.54.38-.5.6-.92.81-1.55.29.3.39.39.73.62-.32.78-.62,1.26-1.05,1.77-.89,1.02-2.08,1.65-3.8,1.99-.25.05-.35.07-.49.11l-.24-.95ZM118.29,21.41c.72.28,1.28.55,1.86.9l-.45.77c-.64-.43-1.26-.76-1.87-.97l.46-.71Z"/>
            <path class="cls-3" d="M128.26,26.35c.32,0,.46,0,.64-.04v.8c-.19-.02-.35-.03-.64-.03h-3.63c-.31,0-.46,0-.64.03v-.8c.2.04.32.04.64.04h2.06c.12-.62.27-1.61.34-2.25h-1.74c-.34,0-.44,0-.62.03v-.79c.18.03.37.04.64.04h1.77c.25,0,.35-.01.52-.06l.38.34q-.08.22-.16.8c-.1.77-.18,1.27-.3,1.9h.74Z"/>
            <path class="cls-3" d="M129.84,23.79c.31.04.44.05,1.13.05h3.73c.69,0,.83,0,1.13-.05v.97c-.28-.04-.36-.04-1.14-.04h-3.72c-.79,0-.86,0-1.14.04v-.97Z"/>
            <path class="cls-3" d="M140.67,22.65v-.31s0-.22,0-.22c0-.46,0-.62-.04-.78h.9c-.02.16-.03.2-.03.47q0,.43,0,.85h.45c.5,0,.64,0,.91-.05v.85c-.25-.03-.44-.03-.9-.03h-.47c-.01.84-.01.89-.05,1.16-.1.9-.4,1.49-1.01,2.01-.38.32-.72.5-1.37.74-.13-.3-.22-.43-.53-.74.66-.2,1-.37,1.34-.67.47-.41.68-.88.74-1.68.01-.16.01-.33.03-.81h-1.81v1.05c0,.29,0,.41.03.59h-.91c.02-.15.03-.34.03-.6v-1.04h-.43c-.46,0-.65,0-.9.03v-.85c.27.04.41.05.91.05h.41v-.7c0-.29,0-.44-.04-.62h.92c-.03.23-.03.25-.03.6v.72h1.82Z"/>
            <path class="cls-3" d="M143.95,26.13c.6-.04,1.44-.24,2.07-.52.88-.38,1.53-.92,2.08-1.72.31-.45.5-.83.71-1.4.27.33.38.43.74.69-.6,1.28-1.26,2.11-2.22,2.75-.71.48-1.58.82-2.67,1.05-.28.06-.3.06-.46.12l-.26-.97ZM144.54,21.78c.83.52,1.27.84,1.81,1.35l-.6.76c-.56-.6-1.13-1.06-1.79-1.42l.58-.69Z"/>
            <path class="cls-3" d="M151.22,27.28c.03-.2.04-.39.04-.78v-4.49c0-.41-.01-.55-.04-.71h.96c-.02.19-.03.32-.03.74v1.3c.81.27,2.07.85,3.18,1.48l-.49.83c-.49-.35-1.48-.89-2.48-1.34-.16-.08-.18-.08-.24-.12.02.2.03.31.03.48v1.85c0,.38,0,.57.03.78h-.96ZM154.11,21.66c.31.33.5.6.73,1.03l-.49.26c-.23-.43-.43-.71-.73-1.04l.49-.25ZM155.2,22.5c-.21-.39-.44-.71-.71-1.02l.47-.25c.31.32.51.59.73.99l-.48.27Z"/>
            <path class="cls-3" d="M162.02,21.01l-5.31,6.58h-1.03l5.3-6.58h1.04Z"/>
            <path class="cls-3" d="M20.19,30.75c-.06.12-.08.17-.12.31-.35,1.34-.76,2.18-1.44,2.93-.69.77-1.44,1.28-2.61,1.79-.2-.38-.29-.51-.62-.83.62-.2,1.01-.38,1.53-.71,1.09-.71,1.78-1.69,2.12-3.05h-3.33c-.47,0-.63,0-.88.04v-.91c.27.04.42.05.9.05h3.21c.39,0,.53-.01.75-.07l.48.46Z"/>
            <path class="cls-3" d="M22.46,35.06v.49h-.9c.02-.17.03-.34.03-.6v-4.01c0-.27,0-.4-.03-.59.17.01.32.02.6.02h3.98c.3,0,.43,0,.59-.02-.01.18-.02.32-.02.58v4.01c0,.26,0,.45.03.61h-.9v-.48h-3.36ZM25.82,31.16h-3.36v3.1h3.36v-3.1Z"/>
            <path class="cls-3" d="M28.08,32.29c.31.04.44.05,1.13.05h3.73c.69,0,.83,0,1.13-.05v.97c-.28-.04-.36-.04-1.14-.04h-3.72c-.79,0-.86,0-1.14.04v-.97Z"/>
            <path class="cls-3" d="M39.64,35.88c-.48-.62-1.46-1.56-2.15-2.08-.7.81-1.65,1.53-2.67,2.02-.19-.36-.29-.5-.57-.78.72-.26,1.64-.86,2.3-1.51.63-.62,1.11-1.32,1.46-2.11l.04-.08.02-.05s0-.03.02-.06c-.08,0-.1,0-.15,0h-.06s-2.1.04-2.1.04c-.38,0-.55.02-.76.05l-.03-.89c.2.04.33.04.62.04h.17l2.34-.03c.39,0,.45-.01.62-.08l.52.62c-.07.08-.16.22-.22.38-.27.64-.65,1.3-1.02,1.79.78.53,1.16.86,2.32,1.98l-.67.74ZM39.37,29.72c.31.33.5.6.73,1.03l-.47.26c-.23-.43-.43-.71-.74-1.04l.47-.25ZM40.46,30.56c-.21-.39-.44-.71-.71-1.02l.44-.22c.31.32.51.59.73.99l-.46.25Z"/>
            <path class="cls-3" d="M41.62,34.63c.6-.04,1.44-.24,2.07-.52.88-.38,1.53-.92,2.08-1.72.31-.45.5-.83.71-1.4.27.33.38.43.74.69-.6,1.28-1.26,2.11-2.22,2.75-.71.48-1.58.82-2.67,1.05-.28.06-.3.06-.46.12l-.26-.97ZM42.21,30.28c.83.52,1.27.84,1.81,1.35l-.6.76c-.56-.6-1.13-1.06-1.79-1.42l.58-.69Z"/>
            <path class="cls-3" d="M49.71,29.96c-.03.19-.04.36-.04.71l-.04,4c.73-.14,1.39-.41,1.91-.77.64-.44,1.08-.92,1.43-1.6.27.36.37.46.67.71-.48.74-.93,1.21-1.56,1.63-.7.47-1.41.74-2.55.96-.19.04-.27.06-.42.12l-.45-.54c.05-.19.06-.32.06-.72l.03-3.78q0-.49-.04-.72h.99Z"/>
            <path class="cls-3" d="M55.64,32.96c-.46,0-.64,0-.88.03v-.85c.26.04.41.05.9.05h1.27v-1.21h-.85c-.5,0-.65,0-.89.03v-.85c.26.04.41.05.9.05h3.19c.5,0,.65,0,.91-.05v.85c-.24-.03-.38-.03-.9-.03h-1.51v1.21h1.95c.48,0,.64,0,.9-.05v.85c-.24-.03-.43-.03-.88-.03h-1.96v1.12c0,.42.04.52.19.6.13.06.35.09.72.09.25,0,.68-.02,1.04-.06.27-.03.41-.05.65-.12l.02.89s-.09,0-.12,0q-.06,0-.57.04c-.31.02-.78.04-1.11.04-1.37,0-1.69-.23-1.69-1.22v-1.38h-1.28Z"/>
            <path class="cls-3" d="M61.73,34.63c.6-.04,1.44-.24,2.07-.52.88-.38,1.53-.92,2.08-1.72.31-.45.5-.83.71-1.4.27.33.38.43.74.69-.6,1.28-1.26,2.11-2.22,2.75-.71.48-1.58.82-2.67,1.05-.28.06-.3.06-.46.12l-.26-.97ZM62.33,30.28c.83.52,1.27.84,1.81,1.35l-.6.76c-.56-.6-1.13-1.06-1.79-1.42l.58-.69Z"/>
            <path class="cls-3" d="M73.22,35.7c-.58-.71-1.39-1.5-2.15-2.08-.79.88-1.6,1.5-2.67,2.02-.2-.36-.28-.48-.57-.78.54-.21.88-.4,1.4-.77,1.06-.74,1.9-1.76,2.35-2.85l.08-.18q-.11,0-2.32.04c-.34,0-.53.02-.76.06l-.03-.9c.2.04.33.04.62.04h.17l2.46-.03c.39,0,.45-.01.62-.08l.46.48c-.09.1-.15.2-.22.38-.32.75-.67,1.36-1.09,1.93.44.29.82.59,1.29,1.02q.18.15,1.02.97l-.67.73Z"/>
            <path class="cls-3" d="M80.55,31.33c-.05.13-.07.22-.08.47-.02.79-.1,1.87-.17,2.33-.18,1.21-.43,1.5-1.27,1.5-.27,0-.5-.02-.87-.08-.01-.44-.04-.57-.16-.9.41.11.69.16.92.16.3,0,.41-.15.52-.76.08-.48.15-1.44.15-2.24h-1.63c-.1.88-.25,1.41-.56,2.01-.38.74-1.01,1.38-1.89,1.94-.24-.37-.34-.48-.63-.74.88-.46,1.45-1.02,1.82-1.77.19-.39.29-.73.36-1.22.01-.1.03-.17.04-.22h-1.16c-.43,0-.53.01-.76.04v-.86c.23.04.42.06.77.06h1.23c.02-.27.03-.68.03-.88v-.18c0-.09,0-.15-.02-.27l.94.02c-.01.09-.02.12-.03.22,0,.04,0,.08,0,.13q-.01.15-.03.51c0,.15,0,.22-.03.44h1.55c.31,0,.38-.01.55-.07l.4.35Z"/>
            <path class="cls-3" d="M82.76,31.44c.29.54.43.88.69,1.66l-.79.25c-.18-.71-.32-1.08-.64-1.69l.74-.22ZM86.78,31.49c-.04.1-.05.14-.1.36-.2.95-.52,1.72-.97,2.33-.52.71-1.1,1.16-2.14,1.69-.18-.31-.27-.41-.56-.69.49-.19.78-.34,1.19-.64.82-.6,1.29-1.31,1.59-2.43.09-.34.13-.59.13-.81l.85.2ZM84.25,31.15c.37.69.5,1,.68,1.61l-.78.25c-.13-.53-.34-1.07-.64-1.65l.74-.21Z"/>
            <path class="cls-3" d="M88.64,31.6c.72.29,1.26.56,1.86.95l-.44.79c-.56-.41-1.18-.75-1.9-1.03l.47-.71ZM88.32,34.74c.53,0,1.29-.18,2.02-.46.87-.34,1.46-.79,2.02-1.54.38-.5.6-.92.81-1.55.29.3.39.39.73.62-.32.78-.62,1.26-1.05,1.77-.89,1.02-2.08,1.65-3.8,1.99-.25.05-.35.07-.49.11l-.24-.95ZM89.18,29.91c.72.28,1.28.55,1.86.9l-.45.77c-.64-.43-1.26-.76-1.87-.97l.46-.71Z"/>
            <path class="cls-3" d="M99.14,34.85c.32,0,.46,0,.64-.04v.8c-.19-.02-.35-.03-.64-.03h-3.63c-.31,0-.46,0-.64.03v-.8c.2.04.32.04.64.04h2.06c.12-.62.27-1.61.34-2.25h-1.74c-.34,0-.44,0-.62.03v-.79c.18.03.37.04.64.04h1.77c.25,0,.35-.01.52-.06l.38.34q-.08.22-.16.8c-.1.77-.18,1.27-.3,1.9h.74Z"/>
            <path class="cls-3" d="M107.16,29.51l-5.31,6.58h-1.03l5.3-6.58h1.04Z"/>
            <path class="cls-3" d="M109.27,32.1c.37.31.58.5.87.78q.38.39.43.43c.36-.31.66-.59.92-.88.3-.34.69-.86.85-1.14t.04-.06s0-.02.01-.04c-.07,0-.18.01-.32.01h-3.34c-.57,0-.64,0-.9.04v-.89c.27.04.44.05.91.05h3.89c.3,0,.41-.01.58-.06l.49.55c-.11.11-.15.16-.31.41-.66,1.07-1.4,1.93-2.26,2.65.29.34.56.67.92,1.17l-.73.59c-.39-.63-.76-1.11-1.35-1.77-.54-.6-.89-.94-1.4-1.35l.69-.5Z"/>
            <path class="cls-3" d="M114.87,34.63c.6-.04,1.44-.24,2.07-.52.88-.38,1.53-.92,2.08-1.72.31-.45.5-.83.71-1.4.27.33.38.43.74.69-.6,1.28-1.26,2.11-2.22,2.75-.71.48-1.58.82-2.67,1.05-.28.06-.3.06-.46.12l-.26-.97ZM115.47,30.28c.83.52,1.27.84,1.81,1.35l-.6.76c-.56-.6-1.13-1.06-1.79-1.42l.58-.69Z"/>
            <path class="cls-3" d="M126.48,30.87v4.1c0,.46,0,.55.04.71h-.94v-.42h-3.19c-.62,0-.64,0-.86.03v-.9c.25.04.37.05.88.05h3.19v-3.05h-3.07c-.55,0-.66,0-.9.03v-.91c.24.04.36.05.9.05h3.6c-.09-.2-.28-.51-.45-.74l.51-.19c.27.36.43.64.62,1.11l-.33.13ZM127.19,30.63c-.17-.41-.36-.77-.6-1.09l.5-.2c.29.37.46.65.62,1.06l-.51.22Z"/>
            <path class="cls-3" d="M128.03,32.29c.31.04.44.05,1.13.05h3.73c.69,0,.83,0,1.13-.05v.97c-.28-.04-.36-.04-1.14-.04h-3.72c-.79,0-.86,0-1.14.04v-.97Z"/>
            <path class="cls-3" d="M139.02,31.05c.58.65,1.45,1.18,2.46,1.5-.18.25-.29.43-.42.72-.55-.23-.98-.47-1.36-.74-.5-.36-.88-.72-1.18-1.13.02.26.03.39.03.51v.44c0,.28,0,.46.04.6h-.85c.03-.14.04-.33.04-.6v-.45c0-.15,0-.25.02-.5-.31.41-.67.75-1.13,1.1-.38.28-.78.51-1.34.77-.13-.29-.24-.45-.44-.68.6-.21.98-.41,1.54-.79.31-.22.56-.43.87-.74h-1.34c-.34,0-.6.01-.84.04v-.78c.25.03.5.04.89.04h1.78v-.17c0-.28,0-.43-.04-.6h.85c-.04.18-.04.3-.04.6v.18h1.89c.35,0,.6-.01.84-.04v.78c-.25-.03-.5-.04-.84-.04h-1.42ZM135.91,36.01c.03-.22.04-.42.04-.69v-1.56c0-.27,0-.44-.04-.64.15.02.31.03.6.03h3.33c.29,0,.44,0,.6-.03-.03.2-.04.36-.04.64v1.56c0,.29.01.48.04.69h-.81v-.34h-2.92v.34h-.8ZM136.72,34.98h2.93v-1.15h-2.93v1.15Z"/>
            <path class="cls-3" d="M143.83,35.21c0,.36,0,.59.04.83h-.85c.03-.25.04-.48.04-.83v-2.02c0-.37,0-.48.01-.78-.16.27-.33.51-.56.78-.1-.33-.2-.55-.38-.81.5-.54.86-1.1,1.15-1.77.18-.41.32-.83.37-1.13l.8.23q-.14.38-.24.64c-.02.07-.15.38-.37.92v3.93ZM148.64,35.51c-.27-.03-.52-.04-.89-.04h-2.63c-.34,0-.64.01-.93.04v-.86c.27.03.56.04.9.04h2.64c.31,0,.62-.01.9-.04v.86ZM144.54,30.4c.25.03.51.04.83.04h2.11c.3,0,.58-.01.84-.04v.85c-.25-.03-.55-.04-.84-.04h-2.09c-.36,0-.57.01-.84.04v-.85Z"/>
          </g>
          <g>
            <path class="cls-4" d="M25.56,10.7l.59,3.35-1.25.25-.58-3.44-3.5.45-.16-1.17,3.46-.45-.24-1.39-2.61.34-.15-1.12,2.58-.32-.33-1.93,1.13-.06c.24-.01.32.02.32.11,0,.04-.18.24-.17.29l.26,1.42,2.35-.3.16,1.12-2.32.3.25,1.38,3.13-.41.15,1.19-3.07.4Z"/>
            <path class="cls-4" d="M30.27,10.31c-.18-.61-.46-1.19-.82-1.73l.99-.38c.37.57.65,1.13.83,1.73l-1,.38ZM35.87,8.38c-.1.05-.11.1-.22.52-.81,3.31-2.98,4.57-4.02,5.17l-.86-.77c2.09-1.03,3.55-2.51,3.96-5.56l1.06.32c.14.04.21.12.21.19,0,.06-.02.08-.14.12ZM32.25,9.78c-.18-.65-.43-1.2-.76-1.75l.96-.37c.4.64.61,1.3.73,1.75l-.93.37Z"/>
            <path class="cls-4" d="M43.04,9.98c-.43,2.13-1.31,3.15-3.13,4.33l-1.04-.92c1.75-.99,2.51-1.81,2.87-3.42h-3.83v-1.2h3.96c.01-.11.02-.31.02-.67,0-.38-.01-.61-.06-.86-.99.23-1.57.32-2.52.41l-.58-1.08c.8-.04,3.07-.19,5.37-1.37l.88.82s.13.14.13.22c0,.04-.02.06-.05.08h-.35c-.06,0-.08.01-.16.04-.36.16-.62.29-1.37.53.01.39.04.99.03,1.37,0,.28-.01.33-.01.52h2.88v1.2h-3.02Z"/>
            <path class="cls-4" d="M48.8,8.13c-.61-.51-1.35-.97-2.21-1.36l.66-1.01c.71.31,1.58.78,2.26,1.33l-.71,1.03ZM51.96,11.07c-1.7,1.38-2.73,1.83-4.06,2.4-.05.15-.08.33-.16.33-.06,0-.16-.06-.24-.21l-.75-1.29c.86-.21,2.27-.57,4-1.86,1.65-1.23,2.68-2.65,3.16-3.3l.74,1.08c-.42.56-1.26,1.69-2.68,2.84Z"/>
            <path class="cls-4" d="M60.44,13.84h-3.67v-7.86h3.45c1.59,0,2.53.73,2.53,1.96,0,.5-.17.91-.45,1.21-.25.27-.45.38-1.03.47.77.14,1.02.3,1.29.58.34.36.47.84.47,1.27,0,1.14-.93,2.37-2.58,2.37ZM60.36,7.21h-2.13v1.92h1.9c.64,0,1.17-.32,1.17-1,0-.55-.38-.92-.94-.92ZM60.47,10.32h-2.25v2.29h2.08c.58,0,1.25-.34,1.25-1.18,0-.71-.51-1.11-1.08-1.11Z"/>
            <path class="cls-4" d="M70.21,13.84l-.58-1.69h-3.31l-.58,1.69h-1.6l3.02-7.86h1.65l3.02,7.86h-1.61ZM68.16,7.91l-.17-.69-.18.69-1.04,3.03h2.46l-1.06-3.03Z"/>
            <path class="cls-4" d="M78.47,13.84l-3.1-5.01-.59-1.29.15,1.76v4.55h-1.4v-7.86h1.55l3.1,5.01.59,1.29-.15-1.76v-4.55h1.4v7.86h-1.55Z"/>
            <path class="cls-4" d="M86.02,13.84h-3.67v-7.86h3.45c1.59,0,2.53.73,2.53,1.96,0,.5-.17.91-.45,1.21-.25.27-.45.38-1.03.47.77.14,1.02.3,1.29.58.34.36.47.84.47,1.27,0,1.14-.93,2.37-2.58,2.37ZM85.94,7.21h-2.13v1.92h1.9c.64,0,1.17-.32,1.17-1,0-.55-.38-.92-.94-.92ZM86.06,10.32h-2.25v2.29h2.08c.58,0,1.25-.34,1.25-1.18,0-.71-.51-1.11-1.08-1.11Z"/>
            <path class="cls-4" d="M95.8,13.84l-.58-1.69h-3.31l-.58,1.69h-1.6l3.02-7.86h1.65l3.02,7.86h-1.61ZM93.74,7.91l-.17-.69-.18.69-1.04,3.03h2.46l-1.06-3.03Z"/>
            <path class="cls-4" d="M103.19,13.84l-3.1-5.01-.59-1.29.15,1.76v4.55h-1.4v-7.86h1.55l3.1,5.01.59,1.29-.15-1.76v-4.55h1.4v7.86h-1.55Z"/>
            <path class="cls-4" d="M114.29,13.98c-1.02,0-1.43-.71-1.57-.96l.06.4v.42h-1.42v-7.86h1.42v2.32l-.06.53c.21-.3.6-.92,1.65-.92,1.86,0,2.23,1.9,2.23,2.94,0,1.9-1.01,3.13-2.31,3.13ZM113.93,9.16c-.6,0-1.15.52-1.15,1.72,0,1.04.38,1.78,1.13,1.78s1.23-.68,1.23-1.75-.52-1.76-1.21-1.76Z"/>
            <path class="cls-4" d="M121.27,13.75c-.47,1.2-1.14,1.54-2.12,1.54-.3,0-.46-.03-.65-.09v-1.1c.21.04.36.05.46.05.52,0,.71-.26.87-.51l-2.1-5.6h1.49l1.2,3.48.21.75.18-.79,1.2-3.45h1.51l-2.24,5.7Z"/>
            <path class="cls-4" d="M135.72,10.47v3.94h-1.03v-.24h-2.88v.24h-.98v-3.94l-.55-.58v1.62c0,.87-.39.97-1.01.98l-.24-.48v2.41h-.87v-6.6h-.34v5.01h-.85v-6.1h1.2v-1.65l.89.06c.17.01.26.05.26.13s-.06.12-.14.16c-.08.04-.14.08-.14.18v1.11h1.25v2.97c.74-.26,1.24-.65,1.72-1.28h-1.35v-.95h.76c-.13-.3-.22-.41-.44-.73l.73-.42c-.21.01-.34.01-.81.02l-.44-.93c.18.01.65.02.96.02,1.8,0,2.83-.28,3.7-.52l.56.82c.07.1.09.16.09.18,0,.06-.05.09-.09.09-.04,0-.12-.03-.16-.05-.13-.05-.19-.05-.24-.05-.01,0-.52.09-.54.09-.13.03-.46.09-.92.15v1.34h1.25l-.62-.21c.13-.27.25-.55.4-1.02l.83.24c.08.02.16.06.16.13,0,.02-.01.04-.05.05-.09.04-.1.04-.13.09-.14.42-.26.61-.33.72h.99v.95h-1.81c.46.6,1.13,1,1.81,1.34l-.59.72ZM129.39,7.81h-.36v3.66c.06.03.16.03.17.03.14,0,.18-.14.18-.26v-3.44ZM133.82,8.93v1.37h-1.01v-1.39c-.74,1.02-1.27,1.34-1.7,1.56h4.23c-.53-.34-1-.72-1.52-1.54ZM132.74,11.28h-.93v.61h.93v-.61ZM132.74,12.7h-.93v.64h.93v-.64ZM132.81,6.24c-.56.05-.7.05-.99.08.27.38.41.62.56.93l-.47.23h.91v-1.23ZM134.69,11.28h-.94v.61h.94v-.61ZM134.69,12.7h-.94v.64h.94v-.64Z"/>
            <path class="cls-4" d="M138.46,8.95v-1.02h.93c-.16-.46-.19-.56-.43-1.09h-.39v-1.02h1.67v-.77l1.25.03c.13,0,.41.02.41.15,0,.11-.1.16-.15.19-.13.09-.14.1-.14.13v.26h1.5v1.02h-.45c-.15.46-.28.73-.48,1.09h1.06v1.02h-4.76ZM141.27,14.51l-.52-1.2.68.05c.29.02.34-.15.34-.3v-.23h-1.84v1.64h-1.15v-5.08h4.15v4.25c0,.74-.73.84-1.66.86ZM141.78,10.27h-1.84v.45h1.84v-.45ZM141.78,11.55h-1.84v.49h1.84v-.49ZM140.16,6.84c.21.43.23.5.45,1.09h.46c.17-.37.28-.64.43-1.09h-1.35ZM146.94,14.41h-2.52c-.52,0-.9-.3-.9-.85v-5.02h2.67v-.52h-2.67v-2.98l1.13.03c.23.01.28.04.28.1,0,.1-.06.16-.11.19-.12.11-.12.13-.12.28h2.82v.99h-2.82v.46h2.67v2.4h-2.63v.36h2.75v.73h-2.75v.33h2.75v.75h-2.75v.33h2.75v.62l.56.4c-.28,1.04-.51,1.38-1.11,1.38ZM144.74,12.76v.37c0,.2.14.27.37.27h1.38c.36,0,.43-.32.44-.37l.04-.27h-2.23Z"/>
          </g>
        </g>
      </g>
    </g>
  </g>
</svg>