<?xml version="1.0" encoding="UTF-8"?>
<svg xmlns="http://www.w3.org/2000/svg" viewBox="0 0 163.43 27.25">
  <defs>
    <style>
      .cls-1 {
        fill: #f18d09;
      }

      .cls-2 {
        isolation: isolate;
      }

      .cls-3 {
        fill: #231815;
      }

      .cls-4 {
        fill: #fff;
      }

      .cls-5 {
        fill: #f29014;
        mix-blend-mode: multiply;
      }
    </style>
  </defs>
  <g class="cls-2">
    <g id="_レイヤー_2" data-name="レイヤー 2">
      <g id="_テキスト1" data-name="テキスト1">
        <g>
          <g>
            <rect class="cls-1" width="163.43" height="17.49"/>
            <rect class="cls-5" width="8.29" height="17.49"/>
          </g>
          <g>
            <path class="cls-3" d="M60.27,24.91c-.07,1.13-.2,1.76-.46,2.28-.18-.27-.38-.47-.6-.63.34-.77.43-1.66.43-4.62,0-.47,0-.74-.04-1.02.2.03.38.04.74.04h.6c.35,0,.54,0,.67-.04-.01.16-.02.29-.02.64v1.15c.56-.27.97-.57,1.3-.97h-.24c-.37,0-.58,0-.83.04v-.76c.22.03.46.04.85.04h2.19c.41,0,.69-.01.86-.04v.76c-.24-.03-.46-.04-.83-.04h-.39c.08.77.12,1.1.21,1.48.24-.3.43-.61.53-.84l.6.45q-.06.07-.16.22c-.23.35-.46.62-.74.92.27.74.55,1.19,1.05,1.7-.19.27-.29.46-.43.83-.57-.68-.9-1.25-1.2-2.11-.27-.74-.38-1.31-.55-2.66h-.1c-.2.31-.29.41-.51.63.22.24.39.55.55.94.25.66.42,1.56.42,2.3,0,.56-.08,1-.2,1.18-.15.21-.42.29-.92.29-.13,0-.25,0-.5-.02-.01-.27-.05-.43-.15-.71.27.05.44.07.62.07.21,0,.31-.05.35-.17.05-.14.08-.42.08-.84,0-.18,0-.29-.02-.47-.45.65-.82,1.02-1.53,1.5-.09-.17-.14-.24-.27-.4v.38c0,.53-.19.67-.88.67-.04,0-.14,0-.28,0,0-.32-.04-.47-.15-.71.15.03.31.04.46.04.13,0,.17-.04.17-.18v-1.34h-.65ZM60.31,23.29q0,.71-.01.97h.62v-.97h-.61ZM60.92,21.65h-.6v.99h.6v-.99ZM61.59,24.19c.53-.29.89-.57,1.33-1.04-.08-.15-.13-.22-.22-.34-.29.23-.5.36-.86.57-.11-.18-.14-.25-.26-.41v1.21ZM61.59,25.76c.69-.43,1.2-.91,1.68-1.58-.04-.22-.07-.31-.11-.47-.34.41-.71.74-1.3,1.11-.1-.18-.15-.27-.27-.41v1.34Z"/>
            <path class="cls-3" d="M66.82,22.6c-.37,0-.64.01-.87.04v-.83c.27.04.48.05.86.05h.43v-.39c0-.26-.01-.48-.05-.74h.89c-.03.2-.04.43-.04.78v.36h1.97v-.32c0-.4,0-.59-.04-.81h.87c-.04.24-.05.43-.05.81v.32h.36c.36,0,.58-.01.86-.05v.83c-.23-.03-.48-.04-.86-.04h-.36v1.86h.54c.38,0,.6-.01.86-.04v.83c-.26-.04-.48-.05-.86-.05h-.54v1.06c0,.41.01.64.05.9h-.87c.03-.22.04-.49.04-.9v-1.06h-2.11c-.1.5-.26.88-.52,1.24-.22.3-.44.5-.88.81-.18-.3-.31-.45-.6-.66.43-.24.66-.43.88-.71.15-.2.25-.4.32-.69h-.48c-.44,0-.53,0-.85.05v-.83c.25.03.46.04.83.04h.6c.04-.34.05-.79.05-1.37v-.48h-.43ZM68.05,23.02c0,.53-.01.97-.05,1.44h2.02v-1.86h-1.97v.41ZM69.3,24.38c-.39-.55-.64-.82-1.13-1.23l.57-.46c.48.41.76.69,1.14,1.16l-.58.53Z"/>
            <path class="cls-3" d="M77.99,20.64l-5.31,6.58h-1.03l5.3-6.58h1.04Z"/>
            <path class="cls-3" d="M78.8,24.91c-.07,1.13-.2,1.76-.46,2.28-.18-.27-.38-.47-.6-.63.34-.77.43-1.66.43-4.62,0-.47,0-.74-.04-1.02.2.03.38.04.74.04h.6c.35,0,.54,0,.67-.04-.01.16-.02.29-.02.64v1.15c.56-.27.97-.57,1.3-.97h-.24c-.37,0-.58,0-.83.04v-.76c.22.03.46.04.85.04h2.19c.4,0,.69-.01.85-.04v.76c-.24-.03-.46-.04-.83-.04h-.39c.08.77.12,1.1.21,1.48.24-.3.43-.61.53-.84l.6.45q-.06.07-.16.22c-.23.35-.46.62-.74.92.27.74.55,1.19,1.05,1.7-.19.27-.29.46-.43.83-.57-.68-.9-1.25-1.2-2.11-.27-.74-.38-1.31-.55-2.66h-.1c-.2.31-.29.41-.51.63.22.24.39.55.55.94.25.66.42,1.56.42,2.3,0,.56-.08,1-.2,1.18-.15.21-.42.29-.92.29-.13,0-.25,0-.5-.02-.01-.27-.05-.43-.15-.71.27.05.44.07.62.07.21,0,.31-.05.35-.17.05-.14.08-.42.08-.84,0-.18,0-.29-.02-.47-.45.65-.82,1.02-1.53,1.5-.09-.17-.14-.24-.27-.4v.38c0,.53-.19.67-.88.67-.04,0-.14,0-.28,0,0-.32-.04-.47-.15-.71.15.03.31.04.46.04.13,0,.17-.04.17-.18v-1.34h-.65ZM78.84,23.29q0,.71-.01.97h.62v-.97h-.61ZM79.45,21.65h-.6v.99h.6v-.99ZM80.12,24.19c.53-.29.89-.57,1.33-1.04-.08-.15-.13-.22-.22-.34-.29.23-.5.36-.86.57-.11-.18-.14-.25-.26-.41v1.21ZM80.12,25.76c.69-.43,1.2-.91,1.68-1.58-.04-.22-.07-.31-.11-.47-.34.41-.71.74-1.3,1.11-.1-.18-.15-.27-.27-.41v1.34Z"/>
            <path class="cls-3" d="M85.47,21.36c.43.76.64,1.25.95,2.23l-.91.32c-.2-.8-.53-1.65-.89-2.26l.86-.29ZM89.89,21.57c-.06.15-.08.21-.19.69-.27,1.26-.83,2.41-1.55,3.23-.55.63-1.16,1.08-2.02,1.53-.23-.37-.34-.49-.64-.76.82-.35,1.41-.76,1.95-1.34.5-.55.86-1.15,1.14-1.99.2-.61.33-1.16.35-1.58l.97.22Z"/>
            <path class="cls-3" d="M90.19,23.42c.31.04.44.05,1.13.05h3.73c.69,0,.83,0,1.13-.05v.97c-.28-.04-.36-.04-1.14-.04h-3.72c-.79,0-.86,0-1.14.04v-.97Z"/>
            <path class="cls-3" d="M102.45,22.6c-.08.12-.1.14-.2.34-.41.85-.9,1.44-1.71,2.04-.27-.3-.38-.38-.7-.57.48-.27.85-.58,1.16-.99.1-.14.14-.2.27-.41-.11.02-.16.03-.27.04-.71.08-1.43.17-2.16.28v1.58q0,.48.03.6c.05.27.27.35.99.35.81,0,1.57-.1,2.15-.27l.04.95c-.19,0-.25,0-.43.03-.76.08-1.28.12-1.74.12-.57,0-.98-.04-1.25-.12-.29-.08-.52-.34-.6-.64-.06-.22-.07-.32-.07-.88v-1.6l-.66.08q-.55.07-.78.13l-.09-.87c.08,0,.13,0,.17,0,.12,0,.43-.02.62-.05l.74-.09v-.96c0-.35,0-.43-.04-.67h.97c-.04.2-.04.35-.04.65v.88l2.55-.31c.37-.04.38-.05.54-.12l.52.46Z"/>
            <path class="cls-3" d="M102.58,23.42c.31.04.44.05,1.13.05h3.73c.69,0,.83,0,1.13-.05v.97c-.28-.04-.36-.04-1.14-.04h-3.72c-.79,0-.86,0-1.14.04v-.97Z"/>
            <path class="cls-3" d="M109.43,22.79c.65.26,1.34.61,1.86.95l-.43.79c-.46-.36-1.25-.78-1.9-1.02l.47-.72ZM109.11,25.92c.55,0,1.28-.17,2.02-.46,1.28-.45,2.33-1.6,2.84-3.09.27.29.41.41.73.62-.87,2.12-2.35,3.27-4.86,3.76-.3.06-.36.08-.49.12l-.24-.96ZM109.97,21.09c.66.25,1.36.59,1.86.9l-.45.77c-.57-.39-1.36-.8-1.87-.96l.46-.71ZM113.61,20.95c.31.33.5.6.74,1.03l-.49.26c-.23-.43-.43-.71-.74-1.04l.49-.25ZM114.7,21.8c-.21-.38-.44-.71-.71-1.02l.47-.25c.32.32.51.59.73.99l-.48.27Z"/>
            <path class="cls-3" d="M119.98,20.64l-5.31,6.58h-1.03l5.3-6.58h1.04Z"/>
            <path class="cls-3" d="M120.79,24.91c-.07,1.13-.2,1.76-.46,2.28-.18-.27-.38-.47-.6-.63.34-.77.43-1.66.43-4.62,0-.47,0-.74-.04-1.02.2.03.38.04.74.04h.6c.35,0,.54,0,.67-.04-.01.16-.02.29-.02.64v1.15c.56-.27.97-.57,1.3-.97h-.24c-.37,0-.58,0-.83.04v-.76c.22.03.46.04.85.04h2.19c.41,0,.69-.01.86-.04v.76c-.24-.03-.46-.04-.83-.04h-.39c.08.77.12,1.1.21,1.48.24-.3.43-.61.53-.84l.6.45q-.06.07-.16.22c-.23.35-.46.62-.74.92.27.74.55,1.19,1.05,1.7-.19.27-.29.46-.43.83-.57-.68-.9-1.25-1.2-2.11-.27-.74-.38-1.31-.55-2.66h-.1c-.2.31-.29.41-.51.63.22.24.39.55.55.94.25.66.42,1.56.42,2.3,0,.56-.08,1-.2,1.18-.15.21-.42.29-.92.29-.13,0-.25,0-.5-.02-.01-.27-.05-.43-.15-.71.27.05.44.07.62.07.21,0,.31-.05.35-.17.05-.14.08-.42.08-.84,0-.18,0-.29-.02-.47-.45.65-.82,1.02-1.53,1.5-.09-.17-.14-.24-.27-.4v.38c0,.53-.19.67-.88.67-.04,0-.14,0-.28,0,0-.32-.04-.47-.15-.71.15.03.31.04.46.04.13,0,.17-.04.17-.18v-1.34h-.65ZM120.83,23.29q0,.71-.01.97h.62v-.97h-.61ZM121.44,21.65h-.6v.99h.6v-.99ZM122.11,24.19c.53-.29.89-.57,1.33-1.04-.08-.15-.13-.22-.22-.34-.29.23-.5.36-.86.57-.11-.18-.14-.25-.26-.41v1.21ZM122.11,25.76c.69-.43,1.2-.91,1.68-1.58-.04-.22-.07-.31-.11-.47-.34.41-.71.74-1.3,1.11-.1-.18-.15-.27-.27-.41v1.34Z"/>
            <path class="cls-3" d="M126.41,22.31c.24-.02.35-.04.82-.14,1.6-.34,1.97-.4,2.79-.4,1.39,0,2.29.78,2.29,1.97,0,.95-.56,1.76-1.55,2.24-.64.31-1.18.44-2.47.58-.09-.38-.15-.53-.36-.9,1.12-.05,1.71-.15,2.3-.41.5-.22.92-.62,1.06-1.04.05-.14.08-.32.08-.5,0-.38-.2-.72-.53-.91-.22-.13-.52-.19-.9-.19-.73,0-1.63.16-2.76.5-.36.11-.41.12-.56.2l-.2-.99Z"/>
            <path class="cls-3" d="M136.91,21.4c-.12.08-.25.2-.86.77-.36.33-.85.72-1.67,1.34-.22.16-.27.22-.27.29,0,.11.01.12.63.58,1.09.83,1.29,1,2.21,1.83.07.07.11.1.2.17l-.72.73c-.18-.25-.43-.52-.91-.96-.5-.46-.73-.65-1.81-1.49-.46-.36-.59-.55-.59-.87,0-.21.08-.4.23-.57.09-.1.1-.1.62-.5.76-.57,1.15-.91,1.62-1.37.31-.32.39-.41.51-.58l.81.62Z"/>
            <path class="cls-3" d="M137.73,22.1c.11,0,.16,0,.22,0,.17,0,.55-.02.9-.05.01-.41.01-.53.01-.83,0-.18,0-.23,0-.39h.88q-.04.21-.08,1.16s.06-.01.11-.03l.26.3c-.08.06-.09.08-.39.42l-.02.49c.22-.22.38-.35.62-.52.76-.55,1.17-.72,1.7-.72,1.02,0,1.6.84,1.6,2.35,0,.39-.03.67-.09,1.01.11.07.15.11.46.34q.05.04.13.11s.04.03.08.06l-.33.84c-.15-.18-.31-.34-.63-.58-.09.2-.17.29-.32.42-.27.21-.67.34-1.08.34-.81,0-1.35-.43-1.35-1.08s.53-1.07,1.3-1.07c.33,0,.61.06.96.21.04-.22.06-.36.06-.6,0-1.04-.29-1.55-.89-1.55-.32,0-.66.14-1.13.48-.35.25-.69.53-1.07.91,0,2.06,0,2.45.05,2.84h-.92q.04-.26.04-1.92c0-.1,0-.15.01-.26-.07.09-.21.26-.37.43-.33.36-.38.43-.5.57l-.42-.82c.16-.1.34-.27,1.29-1.2q0-.43.02-1.01-.85.06-1.06.11l-.04-.79ZM141.72,25.36c-.33,0-.56.17-.56.41,0,.21.25.36.57.36.15,0,.32-.04.45-.11.12-.07.22-.17.28-.31.03-.05.04-.08.04-.09-.31-.19-.51-.26-.79-.26Z"/>
            <path class="cls-3" d="M150.16,20.64l-5.31,6.58h-1.03l5.3-6.58h1.04Z"/>
            <path class="cls-3" d="M150.97,24.91c-.07,1.13-.2,1.76-.46,2.28-.18-.27-.38-.47-.6-.63.34-.77.43-1.66.43-4.62,0-.47,0-.74-.04-1.02.2.03.38.04.74.04h.6c.35,0,.54,0,.67-.04-.01.16-.02.29-.02.64v1.15c.56-.27.97-.57,1.3-.97h-.24c-.37,0-.58,0-.83.04v-.76c.22.03.46.04.85.04h2.19c.4,0,.69-.01.85-.04v.76c-.24-.03-.46-.04-.83-.04h-.39c.08.77.12,1.1.21,1.48.24-.3.43-.61.53-.84l.6.45q-.06.07-.16.22c-.23.35-.46.62-.74.92.27.74.55,1.19,1.05,1.7-.19.27-.29.46-.43.83-.57-.68-.9-1.25-1.2-2.11-.27-.74-.38-1.31-.55-2.66h-.1c-.2.31-.29.41-.51.63.22.24.39.55.55.94.25.66.42,1.56.42,2.3,0,.56-.08,1-.2,1.18-.15.21-.42.29-.92.29-.13,0-.25,0-.5-.02-.01-.27-.05-.43-.15-.71.27.05.44.07.62.07.21,0,.31-.05.35-.17.05-.14.08-.42.08-.84,0-.18,0-.29-.02-.47-.45.65-.82,1.02-1.53,1.5-.09-.17-.14-.24-.27-.4v.38c0,.53-.19.67-.88.67-.04,0-.14,0-.28,0,0-.32-.04-.47-.15-.71.15.03.31.04.46.04.13,0,.17-.04.17-.18v-1.34h-.65ZM151.01,23.29q0,.71-.01.97h.62v-.97h-.61ZM151.62,21.65h-.6v.99h.6v-.99ZM152.29,24.19c.53-.29.89-.57,1.33-1.04-.08-.15-.13-.22-.22-.34-.29.23-.5.36-.86.57-.11-.18-.14-.25-.26-.41v1.21ZM152.29,25.76c.69-.43,1.2-.91,1.68-1.58-.04-.22-.07-.31-.11-.47-.34.41-.71.74-1.3,1.11-.1-.18-.15-.27-.27-.41v1.34Z"/>
            <path class="cls-3" d="M157.75,23.33c-.34,0-.52,0-.72.02.02-.17.03-.34.03-.61v-.81c0-.27,0-.42-.03-.59.2.02.43.03.78.03h1.46c0-.3-.02-.46-.05-.67h.86c-.03.2-.04.36-.04.67h1.58c.36,0,.57,0,.78-.03-.02.17-.03.31-.03.59v.81c0,.29,0,.43.03.61-.2-.01-.42-.02-.72-.02h-1.64v.53h1.93c.34,0,.52,0,.71-.03-.02.2-.03.36-.03.68v1c0,.34,0,.53.04.74h-.81v-.33h-1.84v.36c0,.46,0,.67.04.92h-.86c.03-.26.05-.53.05-.92v-.35h-1.74v.33h-.8c.02-.24.04-.46.04-.74v-1c0-.27,0-.47-.03-.67.2.01.38.02.69.02h1.84v-.53h-1.51ZM157.52,24.52v.71h1.74v-.71h-1.74ZM157.81,22.04v.65h1.45v-.65h-1.45ZM160.03,22.69h1.57v-.65h-1.57v.65ZM160.03,25.22h1.84v-.71h-1.84v.71Z"/>
          </g>
          <g>
            <path class="cls-3" d="M2.46,27.23v-6.7h2.12c-.44.59-.6.88-.76,1.36-.2.59-.3,1.23-.3,1.99s.1,1.4.3,1.99c.17.49.33.78.76,1.37h-2.12Z"/>
            <path class="cls-3" d="M11.61,24.8c-.05.04-.14.12-.4.35-.18.16-.41.32-.67.48.59.31,1.17.5,1.83.62-.17.27-.25.46-.37.81-1.05-.27-1.83-.64-2.52-1.22-.5-.43-.78-.79-1.07-1.39h-.61v1.59c.61-.13.92-.22,1.41-.38v.7c-.75.25-1.49.43-2.73.67-.17.04-.19.04-.32.07l-.15-.78c.22,0,.53-.04.99-.13v-1.74h-.38c-.29,0-.48,0-.71.04v-.76c.15.03.41.04.73.04h.36v-2.21c0-.38,0-.5-.03-.69.21.03.42.04.76.04h3.14c.41,0,.6,0,.81-.04v.74c-.22-.03-.38-.04-.8-.04h-3.07v.35h2.97c.28,0,.5-.01.64-.04v.64c-.14-.02-.47-.03-.64-.03h-2.97v.34h2.97c.28,0,.51-.01.64-.04v.64c-.2-.03-.36-.04-.64-.04h-2.97v.37h3.73c.31,0,.5-.01.69-.04v.76c-.18-.03-.38-.04-.63-.04h-.66l.66.34ZM9.2,24.45c.2.36.38.55.73.81.35-.24.74-.57.94-.81h-1.67Z"/>
            <path class="cls-3" d="M17.37,22.04c.34.53.68.9,1.22,1.32.54.43,1.04.71,1.74.97-.15.22-.29.5-.38.74-.4-.18-.53-.25-.87-.46v1.73c0,.33.01.54.04.76h-.82v-.34h-2.63v.34h-.81c.03-.22.04-.46.04-.76v-1.71c-.29.17-.44.26-.83.45-.12-.3-.2-.46-.38-.71.65-.26,1.16-.55,1.66-.94.53-.42.89-.83,1.22-1.39h.81ZM16.52,21.11c-.32.44-.56.69-1.02,1.05-.33.27-.48.35-1.15.71-.15-.26-.28-.42-.49-.63.55-.27.94-.48,1.26-.74.37-.29.57-.53.76-.85l.63.46ZM18.39,24.15c-.57-.43-1.03-.9-1.41-1.44-.36.53-.85,1.02-1.39,1.44h2.8ZM15.67,26.07h2.63v-1.24h-2.63v1.24ZM18.06,20.63c.34.45.6.69,1.08,1.02.26.17.47.29,1.01.53-.18.22-.32.46-.44.7-1.05-.59-1.51-.96-2.24-1.8l.6-.46Z"/>
            <path class="cls-3" d="M22.98,23.05c0,1.31-.11,2.11-.38,2.79-.2.5-.39.85-.68,1.24-.2-.27-.37-.43-.65-.66.29-.38.44-.62.59-1.04.12-.3.2-.62.24-.97.03-.27.08-1.1.08-1.41v-1.51c0-.29-.01-.5-.05-.74h.9c-.04.18-.04.35-.04.76v1.55ZM25.21,21.06c-.03.25-.04.45-.04.81v3.59c0,.42.01.67.04.9h-.9c.03-.24.04-.48.04-.89v-3.59c0-.38-.01-.59-.04-.81h.9ZM27.44,20.74c-.04.23-.05.43-.05.83v4.54c0,.46.01.69.05.94h-.9c.03-.24.04-.5.04-.94v-4.54c0-.39,0-.59-.04-.83h.9Z"/>
            <path class="cls-3" d="M29.13,26.65c.51-.41.64-.57.87-1.02l.67.3c-.32.62-.48.83-.92,1.24l-.62-.53ZM31.28,25.13c0,.37-.18.49-.74.49-.14,0-.26,0-.62-.04-.04-.26-.06-.34-.17-.58.23.04.54.07.72.07.1,0,.12-.03.12-.13v-.26q-.78.06-.88.06c-.16.01-.22.01-.44.04l-.1-.64c.12.01.22.02.35.02s.82-.01,1.07-.03c0-.11-.01-.16-.03-.25h.13c.17-.06.3-.13.41-.2h-1.3c-.16,0-.29,0-.41.03v-.55c.15.01.22.02.44.02h1.75c.25,0,.29,0,.39-.01l.3.29c-.32.22-.58.36-1,.54v.08c.37-.03.55-.05,1.07-.12v.51c-.51.07-.68.08-1.07.12v.51ZM30.56,21.02c0-.14,0-.22-.04-.37h.78c-.02.12-.03.22-.03.36v.1h.55c.25,0,.46-.01.65-.04v.59c-.17-.01-.29-.02-.59-.02h-2.04c-.27,0-.46,0-.64.03v-.6c.2.02.4.04.67.04h.68v-.09ZM29.56,22.2c0-.13,0-.23-.02-.34.1.01.2.02.41.02h1.9c.13,0,.25,0,.37-.01-.01.16-.01.18-.01.32v.49c0,.11,0,.25.01.33-.11,0-.22-.01-.35-.01h-1.89c-.14,0-.31,0-.43.01.01-.12.02-.2.02-.34v-.47ZM30.25,22.56h1.27v-.25h-1.27v.25ZM31.2,27.07v-.25c0-.29-.04-.67-.1-1.06l.71-.07c.11.49.15.81.16,1.32l-.77.06ZM32.69,22.7c.22.2.3.28.44.41.04-.21.06-.35.08-.73h-.24c-.18,0-.31,0-.46.04v-.76c.14.02.25.03.46.03h.26v-.22c0-.1,0-.17,0-.22,0-.25-.01-.42-.04-.57h.77c-.03.15-.04.25-.04.51,0,.18,0,.26,0,.5h.41c.25,0,.41,0,.59-.04-.01.14-.03.42-.03.67,0,.22.04.99.08,1.38.03.38.13.85.18.85.05,0,.11-.46.11-1.04.21.16.31.23.49.31-.06.76-.12,1.08-.23,1.3-.1.19-.24.29-.39.29-.22,0-.43-.2-.59-.56-.21-.48-.3-1.2-.32-2.46h-.34c-.04.53-.09.88-.22,1.3.24.27.35.4.64.76l-.48.62c-.22-.34-.29-.43-.46-.65-.28.53-.55.85-1.04,1.23-.15-.23-.27-.36-.5-.54.54-.35.8-.67,1.06-1.25-.21-.24-.32-.34-.64-.62l.44-.54ZM32.87,27.07c-.1-.62-.15-.78-.34-1.26l.7-.17c.2.48.29.76.4,1.24l-.76.2ZM34.83,27.11c-.27-.53-.46-.81-.88-1.32l.59-.35c.53.59.7.81.96,1.23l-.67.45Z"/>
            <path class="cls-3" d="M43.03,23.1q-.04.11-.15.37c-.31.76-.59,1.27-.95,1.75.13.25.27.44.42.6.12.13.27.25.31.25.03,0,.06-.04.09-.13q.05-.16.13-.82c.24.24.33.31.63.47-.16.95-.41,1.36-.79,1.36-.36,0-.91-.47-1.32-1.13-.53.52-1.07.92-1.69,1.23-.22-.32-.29-.41-.53-.61.74-.3,1.35-.72,1.88-1.29-.29-.72-.45-1.56-.53-2.79h-2.17q0,.67-.01.92h1.29c.24,0,.35,0,.5-.03-.01.13-.03.32-.04.6-.07,1.26-.11,1.63-.23,1.93-.11.28-.37.38-.9.38-.2,0-.31,0-.53-.02-.04-.3-.08-.47-.18-.74.37.05.48.06.68.06.22,0,.28-.04.31-.22.06-.25.09-.7.11-1.27h-1.02c-.05.8-.11,1.28-.22,1.76-.12.56-.27.88-.57,1.37-.22-.28-.36-.41-.61-.59.25-.38.39-.71.48-1.11.14-.59.21-1.52.21-2.77,0-.54,0-.71-.04-1,.25.02.54.04.9.04h2.03c0-.06,0-.24-.02-.55,0-.26,0-.29-.04-.44h.83c-.02.15-.03.43-.03.67v.32h.92c-.2-.26-.33-.41-.62-.64l.54-.34c.32.27.44.39.71.74l-.37.25h.21c.37,0,.56,0,.74-.04v.77c-.23-.02-.5-.04-.86-.04h-1.26c.06.92.16,1.56.32,2.09.35-.57.59-1.15.67-1.64l.75.29Z"/>
            <path class="cls-3" d="M45.85,24.85c-.07,1.13-.2,1.76-.46,2.28-.18-.27-.38-.47-.6-.63.34-.77.43-1.66.43-4.62,0-.47,0-.74-.04-1.02.2.03.38.04.74.04h.6c.35,0,.54,0,.67-.04-.01.16-.02.29-.02.64v1.15c.56-.27.97-.57,1.3-.97h-.24c-.37,0-.58,0-.83.04v-.76c.22.03.46.04.85.04h2.19c.4,0,.69-.01.85-.04v.76c-.24-.03-.46-.04-.83-.04h-.39c.08.77.12,1.1.21,1.48.24-.3.43-.61.53-.84l.6.45q-.06.07-.16.22c-.23.35-.46.62-.74.92.27.74.55,1.19,1.05,1.7-.19.27-.29.46-.43.83-.57-.68-.9-1.25-1.2-2.11-.27-.74-.38-1.31-.55-2.66h-.1c-.2.31-.29.41-.51.63.22.24.39.55.55.94.25.66.42,1.56.42,2.3,0,.56-.08,1-.2,1.18-.15.21-.42.29-.92.29-.13,0-.25,0-.5-.02-.01-.27-.05-.43-.15-.71.27.05.44.07.62.07.21,0,.31-.05.35-.17.05-.14.08-.42.08-.84,0-.18,0-.29-.02-.47-.45.65-.82,1.02-1.53,1.5-.09-.17-.14-.24-.27-.4v.38c0,.53-.19.67-.88.67-.04,0-.14,0-.28,0,0-.32-.04-.47-.15-.71.15.03.31.04.46.04.13,0,.17-.04.17-.18v-1.34h-.65ZM45.89,23.24q0,.71-.01.97h.62v-.97h-.61ZM46.5,21.6h-.6v.99h.6v-.99ZM47.18,24.13c.53-.29.89-.57,1.33-1.04-.08-.15-.13-.22-.22-.34-.29.23-.5.36-.86.57-.11-.18-.14-.25-.26-.41v1.21ZM47.18,25.7c.69-.43,1.2-.91,1.68-1.58-.04-.22-.07-.31-.11-.47-.34.41-.71.74-1.3,1.11-.1-.18-.15-.27-.27-.41v1.34Z"/>
            <path class="cls-3" d="M52.63,27.23c.43-.59.59-.88.76-1.37.21-.59.31-1.22.31-1.99s-.1-1.39-.31-1.99c-.17-.49-.33-.77-.76-1.36h2.12v6.7h-2.12Z"/>
          </g>
          <g>
            <path class="cls-4" d="M56.31,9.39l.38.39s.1.1.1.15c0,.03-.01.04-.03.05-.04.02-.25.04-.29.06-.38.36-.9.75-1.29,1.03.62.45,1.15.74,2.32,1.11l-.75.94c-1.72-.74-2.34-1.21-3.09-1.99l-.08.8c-1.73.52-2.3.66-3.81.92-.38.06-.44.1-.5.21-.04.08-.07.09-.11.09-.08,0-.1-.06-.14-.22l-.29-1.06c.37-.01.95-.1,1.27-.14v-2.34h-1.61v-.98h1.88V3.98h6.42v1.01h-5.23v.56h4.71v.86h-4.71v.55h4.71v.87h-4.71v.57h6.17v.98h-1.3ZM52.47,9.39h-1.25v2.14c.75-.13,1.66-.29,2.35-.48-.38-.43-.66-.82-1.1-1.66ZM53.68,9.39c.28.45.44.67.73.99.38-.24.82-.68,1.04-.99h-1.77Z"/>
            <path class="cls-4" d="M67.62,10.32c-.36-.17-.66-.32-1.02-.54v3.29h-1.25v-.36h-3.36v.36h-1.21v-3.23c-.45.3-.71.45-1.1.62l-.87-.95c2.34-1.09,3.67-2.7,4.21-4.2l1.27.29s.15.05.15.14c0,.14-.11.16-.18.18.67,1.34,2.17,2.54,4.19,3.32l-.83,1.08ZM62.78,4.45s-.2.04-.24.06c-.71.97-1.38,1.62-2.22,2.25l-1.02-.74c.98-.76,1.66-1.5,2.29-2.38l1.14.62c.06.03.09.08.09.11s-.02.07-.04.08ZM63.59,6.9c-.78,1.12-1.4,1.72-1.81,2.12h3.67c-1.1-.88-1.5-1.45-1.86-2.12ZM65.35,10.18h-3.36v1.4h3.36v-1.4ZM66.92,6.68c-.63-.47-1.41-1.12-2.27-2.32l.93-.74c.48.61,1.15,1.36,2.29,2.1l-.95.96Z"/>
            <path class="cls-4" d="M71.64,4.3c-.13.1-.14.16-.14.22v3.88c0,1.33-.16,2.06-.39,2.94-.19.72-.52,1.25-.8,1.71l-1.29-.42c.39-.55,1.17-1.68,1.17-3.88v-4.74l1.27.02c.14,0,.26.03.26.14,0,.03,0,.06-.09.13ZM74.67,4.74c-.12.16-.14.17-.14.24v7.05h-1.28v-7.56l1.25.1c.14.01.21.04.21.13,0,.02-.01.03-.03.05ZM77.67,4.16c-.13.09-.13.15-.13.18v8.61h-1.23V3.8l1.2.09c.2.01.27.05.27.14,0,.03,0,.07-.11.13Z"/>
            <path class="cls-4" d="M85.96,12.95v-.56h-4.62v.56h-1.25v-7.97h2.02c.26-.57.33-.99.38-1.24l1.46.14c.1.01.16.05.16.12s-.06.1-.1.12c-.19.11-.23.12-.28.2-.02.03-.25.56-.3.66h3.77v7.97h-1.24ZM85.96,6.07h-4.62v.97h4.62v-.97ZM85.96,8.09h-4.62v1.07h4.62v-1.07ZM85.96,10.19h-4.62v1.15h4.62v-1.15Z"/>
            <path class="cls-4" d="M97.48,10.43c-1.49-.86-2.04-1.76-2.33-2.39-.53,1.1-1.51,1.83-2.37,2.29l-.77-.84c1.17-.54,2.26-1.53,2.4-2.68h-1.24c-.62,1.22-1.54,2.4-3.28,3.39l-.79-.82c.66-.26,1.22-.6,1.88-1.25-.15-.2-.42-.54-.81-.82-.09.11-.1.12-.19.23l-.93-.7c.93-.8,1.61-1.84,1.93-3.03l.96.16c.05.01.26.04.26.15,0,.06-.06.09-.12.11-.11.04-.12.04-.14.08-.04.11-.1.3-.14.41h1.44l.44.51c-.04.24-.08.37-.15.62h1.04c.02-.32.02-.61.02-.72,0-.59-.02-.88-.06-1.25l1.07.09c.23.02.31.04.31.14q0,.05-.13.2c-.06.06-.06.08-.06.24,0,.44-.02.87-.05,1.3h2.44v.96h-2.3c.15,1.12,1.08,2.11,2.43,2.74l-.76.88ZM91.51,11.06c-.31.74-.82,1.4-1.44,1.91l-.99-.68c.97-.7,1.35-1.38,1.57-1.9l.99.37c.06.02.19.08.19.16,0,.1-.03.11-.32.14ZM90.93,6.35c-.13.18-.17.25-.29.41.37.25.58.45.88.78.11-.15.21-.28.3-.44-.25-.28-.56-.54-.89-.74ZM91.32,5.73l-.02.04c.33.2.6.4.9.67.13-.28.19-.45.26-.71h-1.14ZM92.36,12.88c-.01-.55-.06-1.03-.27-1.79l1.01-.22c.1.26.26.7.35,1.78l-1.09.23ZM94.59,12.7c-.15-.66-.28-1.09-.51-1.65l.97-.29c.31.66.44,1.14.54,1.69l-1,.25ZM97.23,12.99c-.4-.76-.79-1.28-1.38-1.88l.83-.68c.62.53,1.12,1.17,1.52,1.86l-.97.7ZM97.04,5.57c-.26-.38-.52-.7-.87-1.01l.76-.61c.33.3.57.55.91,1.04l-.8.58Z"/>
            <path class="cls-4" d="M108.23,13.03c-.86-.38-1.46-.78-2.22-1.64-.8.8-1.42,1.21-2.44,1.68l-.93-.83v.84h-1.26v-2.92c-.56.19-.62.22-1.03.36-.11.03-.13.04-.17.12-.12.15-.13.17-.18.17-.06,0-.11-.09-.15-.3l-.24-1.3c.51-.09,1.25-.27,1.78-.41v-2.22h-.62c-.16.68-.22.82-.29,1l-1.26-.17c.37-.87.66-2.13.72-3.2l1.14.18c.06.01.28.05.28.17,0,.04-.03.06-.05.08-.02.02-.18.13-.19.14,0,.02-.09.52-.1.61h.38v-1.68l1.18.05c.26.01.3.05.3.12,0,.04-.03.08-.06.11-.02.02-.15.14-.15.17v1.23h1.26v.89c.27-.54.57-1.2.89-2.56l1.25.19c.1.01.33.05.33.18,0,.04-.03.08-.09.09-.2.08-.24.09-.27.16-.14.44-.17.55-.37.98h3.22v1.25h-.86c-.18,1.54-.45,2.53-1.23,3.82.7.75,1.34,1.12,2.37,1.48l-.94,1.15ZM102.65,6.58v1.87c.15-.04.61-.17.97-.3l-.72-.41c.34-.4.54-.66.86-1.16h-1.11ZM104.41,7.78c-.12.17-.23.34-.42.59l-.16-.1v.99c-.29.12-.82.31-1.17.44v2.37c1.44-.59,2.03-1.08,2.64-1.7-.47-.88-.71-1.55-.88-2.6ZM105.45,6.58c.1,1.43.34,2.09.61,2.69.46-.97.62-1.8.66-2.69h-1.27Z"/>
            <path class="cls-4" d="M115.37,8.64c-.05.13-.13.28-.19.39h3.92c0,1.1-.21,2.68-.59,3.27-.32.51-.85.66-1.71.67l-.43-1.06c-.31.33-.69.71-1.32,1.13l-.81-.54c1.18-.69,2.07-1.85,2.46-2.58h-.54c-.15.27-.47.85-1.05,1.41-.52.51-1.09.95-1.69,1.34l-.84-.59c1.42-.65,2.35-1.82,2.56-2.15h-.5c-.55.65-.98,1.02-1.44,1.37l-.85-.57c.3-.18.53-.34.95-.71-.73.28-1.92.68-2.23.75-.4.1-.44.11-.51.18-.12.13-.15.17-.21.17-.02,0-.06-.02-.07-.08l-.2-1.21c.35-.06.82-.18,1.2-.28v-2.51h-1.04v-1.11h1.04v-2.14l1.25.1c.06.01.14.04.14.12s-.05.12-.12.17c-.05.03-.14.09-.14.16v1.59h1.12v1.11h-1.12v2.2c.38-.11.73-.22,1.09-.34v.89c.38-.41.57-.7.79-1.15h-1.02v-.87h5.98v.87h-3.86ZM114.05,7.36v-3.39h4.37v3.39h-4.37ZM117.38,4.87h-2.28v.45h2.28v-.45ZM117.38,6.08h-2.28v.46h2.28v-.46ZM117.7,9.92c-.19.45-.44.99-1.24,1.88.31.06.54.06.58.06.28,0,.45-.06.57-.3.26-.51.31-1.08.35-1.65h-.26Z"/>
          </g>
        </g>
      </g>
    </g>
  </g>
</svg>