<?xml version="1.0" encoding="UTF-8"?>
<svg xmlns="http://www.w3.org/2000/svg" viewBox="0 0 167.62 27.99">
  <defs>
    <style>
      .cls-1 {
        fill: #f18d09;
      }

      .cls-2 {
        isolation: isolate;
      }

      .cls-3 {
        fill: #231815;
      }

      .cls-4 {
        fill: #fff;
      }

      .cls-5 {
        fill: #f29014;
        mix-blend-mode: multiply;
      }
    </style>
  </defs>
  <g class="cls-2">
    <g id="_レイヤー_2" data-name="レイヤー 2">
      <g id="_テキスト1" data-name="テキスト1">
        <g>
          <rect class="cls-1" y=".19" width="167.6" height="17.49"/>
          <rect class="cls-5" width="8.29" height="17.49"/>
          <g>
            <path class="cls-3" d="M.53,23.25c.62.37.79.48,1.25.86l-.44.63c-.49-.44-.62-.54-1.24-.93l.43-.56ZM1.73,25.65c-.32.85-.61,1.55-.96,2.24l-.66-.58c.13-.14.24-.31.43-.71.25-.5.36-.78.56-1.39l.63.44ZM.83,21.51c.49.3.77.51,1.2.9l-.48.61c-.41-.4-.72-.66-1.2-.97l.48-.54ZM3.64,22.62h-.83c-.27,0-.43,0-.63.03v-.67c.19.03.39.04.65.04h.8c0-.3,0-.42-.04-.57h.8c-.04.15-.04.25-.04.57h1.22c.27,0,.42,0,.56-.03-.01.18-.02.36-.02.53v.52h.04c.21,0,.34,0,.5-.04v.7c-.15-.02-.29-.03-.5-.03h-.04v.39c0,.41,0,.49.02.66-.08-.01-.25-.02-.55-.02h-1.23v.47h1.16c.32,0,.53,0,.7-.04v.67c-.18-.02-.38-.03-.69-.03h-1.17v.5h1.41c.34,0,.59-.01.78-.03v.7c-.25-.03-.46-.04-.79-.04h-1.39v.25c0,.29.01.54.04.76h-.8c.03-.21.04-.46.04-.76v-.25h-1.11c-.31,0-.57.01-.76.04v-.71c.17.02.47.03.76.03h1.11v-.5h-.95c-.29,0-.49,0-.67.04v-.68c.19.03.38.04.68.04h.94v-.47h-.85c-.25,0-.44,0-.61.03v-.64c.18.02.35.03.62.03h.84v-.44h-1.17c-.31,0-.54.01-.74.04v-.72c.22.04.47.05.76.05h1.15v-.41ZM5.4,23.04v-.41h-1.04v.41h1.04ZM4.36,24.11h1.04v-.44h-1.04v.44Z"/>
            <path class="cls-3" d="M8.83,27.27c0,.29.01.49.04.67h-.76c.03-.2.04-.41.04-.71v-.36h-.55c-.32,0-.44,0-.66.04v-.71c.2.03.33.04.66.04h.55v-.41h-.31c-.31,0-.47,0-.71.02.02-.24.03-.47.03-.81v-1.11c0-.34,0-.53-.03-.76.2.01.36.02.71.02h.31v-.44h-.52c-.3,0-.43,0-.66.03v-.69c.2.04.33.04.66.04h.52c0-.33,0-.47-.04-.67h.76c-.04.17-.04.31-.04.67h.3c.33,0,.45,0,.66-.04v.69c-.2-.02-.32-.03-.66-.03h-.3v.44h.38c.34,0,.47,0,.64-.02-.01.18-.02.32-.02.71v.39c.46-.16.86-.36,1.23-.62-.34-.35-.57-.7-.81-1.2-.16,0-.21,0-.31.02v-.74c.17.03.38.04.71.04h1.55c.24,0,.4,0,.52-.04l.42.44c-.05.09-.1.15-.17.27-.46.71-.55.85-.91,1.2.38.25.7.39,1.39.58-.2.25-.32.45-.39.67-.72-.28-1.09-.48-1.5-.79-.44.34-.83.56-1.39.81-.1-.22-.21-.4-.34-.53v.67c0,.34,0,.58.02.78-.17-.01-.31-.02-.65-.02h-.37v.41h.59c.3,0,.41,0,.56-.03v.7c-.2-.04-.33-.04-.59-.04h-.56v.4ZM7.76,23.78v.45h.42v-.45h-.42ZM7.76,24.74v.5h.42v-.5h-.42ZM9.25,24.23v-.45h-.44v.45h.44ZM9.25,25.23v-.5h-.44v.5h.44ZM12.53,25.41c.32,0,.44,0,.61-.04v.74c-.2-.03-.35-.04-.62-.04h-.65v.95h.78c.31,0,.51-.01.7-.04v.76c-.2-.04-.39-.04-.7-.04h-2.28c-.32,0-.5,0-.71.04v-.76c.2.03.37.04.67.04h.81v-.95h-.45c-.29,0-.46,0-.65.04v-.74c.17.03.35.04.66.04h.44v-.17c0-.33,0-.5-.04-.67h.8c-.03.17-.04.34-.04.67v.17h.66ZM10.97,22.45c.16.31.34.56.59.81.31-.31.44-.48.6-.81h-1.19Z"/>
            <path class="cls-3" d="M19.41,22.24c-.12.11-.15.13-.26.25-.53.55-1.05,1-1.65,1.44v2.99c0,.38,0,.59.04.78h-.98c.04-.2.04-.34.04-.76v-2.46c-.82.49-1.21.67-2.5,1.13-.15-.36-.22-.48-.47-.8,1.39-.38,2.56-.96,3.68-1.82.62-.48,1.1-.97,1.3-1.31l.8.56Z"/>
            <path class="cls-3" d="M24.95,22.8c-.09.12-.1.15-.22.47-.22.64-.61,1.46-.9,1.93-.71,1.16-1.7,1.99-3.19,2.67-.22-.38-.31-.5-.58-.72.6-.25.95-.42,1.37-.7.5-.32.79-.58,1.15-.97-.49-.42-.91-.71-1.44-1l.53-.62c.59.33.88.53,1.41.94.33-.5.57-1,.79-1.65l-2.18.02c-.43.72-.93,1.29-1.64,1.88-.23-.26-.34-.35-.7-.56.77-.57,1.33-1.21,1.76-2,.2-.37.34-.71.41-.97l.91.2q-.08.13-.21.39c-.08.19-.13.27-.17.34q.11-.01,1.82-.03c.29,0,.43-.02.62-.08l.47.47Z"/>
            <path class="cls-3" d="M27.15,21.84c-.03.2-.03.26-.03.63v1.93c0,.35,0,.44.03.62h-.96c.02-.16.04-.38.04-.63v-1.93c0-.36,0-.45-.03-.63h.95ZM30.33,21.85c-.03.17-.04.25-.04.65v.95c0,1.09-.05,1.68-.18,2.12-.2.7-.65,1.23-1.38,1.63-.37.21-.72.35-1.37.54-.12-.34-.2-.46-.49-.83.69-.13,1.09-.28,1.51-.56.66-.43.89-.86.97-1.79.03-.3.04-.61.04-1.17v-.88c0-.36,0-.5-.04-.67h.97Z"/>
            <path class="cls-3" d="M34.48,23.42c-.02.13-.02.14-.03.57-.03,1.2-.22,1.87-.69,2.48-.42.54-.93.9-1.81,1.26-.18-.38-.27-.5-.55-.8.57-.17.88-.32,1.22-.59.71-.57.94-1.17.94-2.49,0-.21,0-.27-.04-.42h.95ZM37.33,22.54c-.1.12-.1.13-.28.49-.25.52-.65,1.04-1.08,1.41-.28.25-.51.4-.84.58-.21-.29-.31-.4-.63-.64.47-.21.73-.37,1.02-.64.29-.27.5-.55.67-.89h-3.68c-.49,0-.66,0-.95.04v-.88c.27.04.48.06.96.06h3.66c.42,0,.48,0,.68-.06l.47.53Z"/>
            <path class="cls-3" d="M37.98,26.52c.6-.04,1.44-.24,2.07-.52.88-.38,1.53-.92,2.08-1.72.31-.45.5-.83.71-1.4.27.33.38.43.74.69-.6,1.28-1.26,2.11-2.22,2.75-.71.48-1.58.82-2.67,1.05-.28.06-.3.06-.46.12l-.26-.97ZM38.58,22.17c.83.52,1.27.84,1.81,1.35l-.6.76c-.56-.59-1.13-1.06-1.79-1.42l.58-.69Z"/>
            <path class="cls-3" d="M46.02,22.29c-.02.08-.03.08-.04.14l-.02.12-.03.2-.02.17c-.29,2.01-.84,3.39-1.78,4.47-.33-.32-.46-.42-.8-.6.42-.42.71-.85,1-1.49.3-.65.55-1.52.66-2.4.04-.29.06-.53.06-.68v-.1l.96.17ZM48.01,22.12c0,.32.13,1.01.29,1.61.34,1.29.83,2.24,1.56,3.03-.36.22-.5.34-.77.64-.93-1.11-1.58-2.72-1.86-4.61-.04-.29-.06-.4-.1-.5l.87-.17ZM48.6,21.7c.26.36.41.66.58,1.13l-.53.17c-.16-.45-.31-.75-.57-1.14l.53-.15ZM49.57,22.71c-.16-.43-.34-.79-.56-1.11l.52-.15c.27.37.42.67.57,1.09l-.53.17Z"/>
            <path class="cls-3" d="M50.79,23.55c.65.26,1.34.61,1.86.95l-.43.79c-.46-.36-1.25-.78-1.9-1.02l.47-.72ZM50.47,26.69c.55,0,1.28-.17,2.02-.46,1.28-.45,2.33-1.6,2.84-3.09.27.29.41.41.73.62-.87,2.12-2.35,3.27-4.86,3.76-.3.06-.36.08-.49.12l-.24-.96ZM51.32,21.86c.66.25,1.36.59,1.86.9l-.45.77c-.57-.39-1.36-.8-1.87-.96l.46-.71ZM54.97,21.72c.31.33.5.6.74,1.03l-.49.26c-.23-.43-.43-.71-.74-1.04l.49-.25ZM56.05,22.57c-.21-.38-.44-.71-.71-1.02l.47-.25c.32.32.51.59.73.99l-.48.27Z"/>
            <path class="cls-3" d="M58.45,21.94q-.03.2-.07,1.57c-.05,1.37-.2,2.16-.57,2.88-.24.48-.5.84-.97,1.3-.27-.35-.38-.46-.71-.68.34-.28.51-.47.72-.81.5-.81.67-1.71.67-3.67,0-.38,0-.45-.03-.64l.95.05ZM60.31,21.85c-.03.2-.04.32-.05.67l-.04,3.99c.49-.23.77-.44,1.07-.8.32-.38.53-.76.69-1.28.24.31.34.41.66.66-.29.69-.65,1.22-1.12,1.63-.4.34-.76.55-1.49.84-.15.06-.21.08-.3.13l-.45-.48c.05-.2.06-.36.06-.74l.04-3.95v-.21c0-.18,0-.33-.03-.46h.95Z"/>
            <path class="cls-3" d="M63.78,27.68c.04-.22.04-.41.04-.79v-4.49c0-.34-.01-.53-.04-.71h.96c-.03.21-.03.3-.03.74v1.3c.96.34,2.06.85,3.18,1.48l-.49.83c-.58-.4-1.31-.8-2.48-1.34-.16-.08-.18-.08-.24-.12.02.2.03.28.03.48v1.85c0,.37,0,.55.03.78h-.96Z"/>
            <path class="cls-3" d="M69.68,24c.37.31.58.5.87.78q.38.39.43.43c.36-.31.66-.59.92-.88.3-.34.69-.86.85-1.14t.04-.06s0-.02.01-.04c-.07,0-.18.01-.32.01h-3.34c-.57,0-.64,0-.9.04v-.89c.27.04.44.05.91.05h3.89c.3,0,.41-.01.58-.06l.49.55c-.11.11-.15.16-.31.41-.66,1.07-1.4,1.93-2.26,2.65.29.34.56.67.92,1.17l-.73.59c-.39-.63-.76-1.11-1.35-1.76-.54-.6-.89-.94-1.4-1.35l.69-.5Z"/>
            <path class="cls-3" d="M75.39,27.68c.04-.22.04-.41.04-.79v-4.49c0-.34-.01-.53-.04-.71h.96c-.03.21-.03.3-.03.74v1.3c.96.34,2.06.85,3.18,1.48l-.49.83c-.58-.4-1.31-.8-2.48-1.34-.16-.08-.18-.08-.24-.12.02.2.03.28.03.48v1.85c0,.37,0,.55.03.78h-.96Z"/>
            <path class="cls-3" d="M82.44,22.29c-.02.08-.03.08-.04.14l-.02.12-.03.2-.02.17c-.29,2.01-.84,3.39-1.78,4.47-.33-.32-.46-.42-.8-.6.42-.42.71-.85,1-1.49.3-.65.55-1.52.66-2.4.04-.29.06-.53.06-.68v-.1l.96.17ZM84.43,22.12c0,.32.13,1.01.29,1.61.34,1.29.83,2.24,1.56,3.03-.36.22-.5.34-.77.64-.93-1.11-1.58-2.72-1.86-4.61-.04-.29-.06-.4-.1-.5l.87-.17ZM85.03,21.7c.26.36.41.66.58,1.13l-.53.17c-.16-.45-.31-.75-.57-1.14l.53-.15ZM85.99,22.71c-.16-.43-.34-.79-.56-1.11l.52-.15c.27.37.42.67.57,1.09l-.53.17Z"/>
            <path class="cls-3" d="M91.91,22.8c-.09.12-.1.15-.22.47-.22.64-.61,1.46-.9,1.93-.71,1.16-1.7,1.99-3.19,2.67-.22-.38-.31-.5-.58-.72.6-.25.95-.42,1.37-.7.5-.32.79-.58,1.15-.97-.49-.42-.91-.71-1.44-1l.53-.62c.59.33.88.53,1.41.94.33-.5.57-1,.79-1.65l-2.18.02c-.43.72-.93,1.29-1.64,1.88-.23-.26-.34-.35-.7-.56.77-.57,1.33-1.21,1.76-2,.2-.37.34-.71.41-.97l.91.2q-.08.13-.21.39c-.08.19-.13.27-.17.34q.11-.01,1.82-.03c.29,0,.43-.02.62-.08l.47.47Z"/>
            <path class="cls-3" d="M92.42,24.19c.31.04.44.05,1.13.05h3.73c.69,0,.83,0,1.13-.05v.97c-.28-.04-.36-.04-1.14-.04h-3.72c-.79,0-.86,0-1.14.04v-.97Z"/>
            <path class="cls-3" d="M104.47,22.39q-.08.02-.59.19c-.4.13-.62.18-1.17.29q0,.95-.02,1.18h1.49c.47,0,.59,0,.85-.05v.84c-.26-.03-.39-.04-.84-.04h-1.55c-.08.65-.22,1.12-.47,1.53s-.65.8-1.14,1.11c-.2.13-.33.2-.65.35-.2-.36-.31-.49-.61-.74.5-.18.77-.33,1.09-.59.42-.34.69-.74.8-1.19.03-.12.05-.24.08-.47h-1.73c-.45,0-.58,0-.84.04v-.84c.26.04.38.05.85.05h1.79c.01-.29.01-.57.01-1.06-.57.08-.78.1-1.94.16-.07-.32-.11-.42-.26-.76.22.01.33.01.44.01.94,0,2.13-.16,3-.41.41-.12.61-.2.85-.33l.56.71Z"/>
            <path class="cls-3" d="M107.63,22.43c-.06-.34-.09-.46-.17-.66l.92-.15c0,.18.04.38.08.66l.11.61,1.48-.23c.34-.06.49-.09.67-.15l.15.84q-.19.01-.67.09l-1.48.23.21,1.15,1.64-.26c.29-.05.54-.11.73-.16l.15.84c-.15,0-.17,0-.32.04-.04,0-.08,0-.11.01-.05,0-.14.02-.28.04l-1.67.27.25,1.36c.08.46.09.48.17.72l-.94.17c0-.21-.04-.41-.09-.74l-.25-1.38-1.73.27c-.34.06-.46.08-.71.15l-.14-.86c.24,0,.44-.02.74-.07l1.7-.27-.21-1.15-1.3.2c-.32.06-.58.11-.77.16l-.14-.86c.25,0,.48-.04.77-.08l1.3-.2-.11-.59Z"/>
            <path class="cls-3" d="M111.94,26.52c.6-.04,1.44-.24,2.07-.52.88-.38,1.53-.92,2.08-1.72.31-.45.5-.83.71-1.4.27.33.38.43.74.69-.6,1.28-1.26,2.11-2.22,2.75-.71.48-1.58.82-2.67,1.05-.28.06-.3.06-.46.12l-.26-.97ZM112.54,22.17c.83.52,1.27.84,1.81,1.35l-.6.76c-.56-.59-1.13-1.06-1.79-1.42l.58-.69Z"/>
            <path class="cls-3" d="M123.69,23.22c-.05.13-.07.22-.08.47-.02.79-.1,1.87-.17,2.33-.18,1.21-.43,1.5-1.27,1.5-.27,0-.5-.02-.87-.08-.01-.44-.04-.57-.16-.9.41.11.69.16.92.16.3,0,.41-.15.52-.76.08-.48.15-1.44.15-2.24h-1.63c-.1.88-.25,1.41-.56,2.01-.38.74-1.01,1.38-1.89,1.94-.24-.37-.34-.48-.63-.74.88-.46,1.45-1.02,1.82-1.76.19-.39.29-.73.36-1.22.01-.1.03-.17.04-.22h-1.16c-.43,0-.53.01-.76.04v-.86c.23.04.42.06.77.06h1.23c.02-.27.03-.68.03-.88v-.17c0-.09,0-.15-.02-.27l.94.02c-.01.09-.02.12-.03.22,0,.04,0,.08,0,.13q-.01.15-.03.51c0,.15,0,.22-.03.44h1.55c.31,0,.38-.01.55-.07l.4.35Z"/>
            <path class="cls-3" d="M125.96,21.86c-.03.19-.04.36-.04.71l-.04,4c.73-.14,1.39-.41,1.91-.77.64-.44,1.08-.92,1.43-1.6.27.36.37.46.67.71-.48.74-.93,1.21-1.56,1.63-.7.47-1.41.74-2.55.96-.19.04-.27.06-.42.12l-.45-.54c.05-.19.06-.32.06-.72l.03-3.78q0-.49-.04-.72h.99Z"/>
            <path class="cls-3" d="M130.59,24.19c.31.04.44.05,1.13.05h3.73c.69,0,.83,0,1.13-.05v.97c-.28-.04-.36-.04-1.14-.04h-3.72c-.79,0-.86,0-1.14.04v-.97Z"/>
            <path class="cls-3" d="M138.99,27.99c-.39-.56-.57-.87-.76-1.38-.25-.64-.37-1.26-.37-1.93s.11-1.24.36-1.87c.2-.51.37-.82.77-1.38h.98c-.49.62-.69.93-.89,1.39-.25.57-.37,1.17-.37,1.86s.12,1.34.37,1.92c.2.46.39.77.89,1.39h-.98Z"/>
            <path class="cls-3" d="M142.64,22.29c-.02.08-.03.08-.04.14v.12s-.05.2-.05.2l-.02.17c-.29,2.01-.84,3.39-1.78,4.47-.33-.32-.46-.42-.8-.6.42-.42.71-.85,1-1.49.3-.65.55-1.52.66-2.4.04-.29.06-.53.06-.68v-.1l.96.17ZM144.63,22.12c0,.32.13,1.01.29,1.61.34,1.29.83,2.24,1.56,3.03-.36.22-.51.34-.77.64-.93-1.11-1.58-2.72-1.86-4.61-.04-.29-.06-.4-.1-.5l.87-.17ZM146.62,22.53c0,.45-.37.81-.81.81s-.81-.36-.81-.81.37-.81.81-.81.81.36.81.81ZM145.35,22.53c0,.25.2.46.46.46s.46-.21.46-.46-.2-.46-.46-.46-.46.2-.46.46Z"/>
            <path class="cls-3" d="M152.34,23.98c-.07.13-.11.22-.2.44-.37,1.03-.9,1.81-1.62,2.37-.5.38-.95.62-1.84.95-.15-.35-.24-.47-.54-.81.85-.22,1.41-.48,1.95-.92.52-.43.82-.86,1.13-1.64h-3.41c-.47,0-.64,0-.9.04v-.85c.27.04.42.05.91.05h3.33c.43,0,.57-.01.79-.06l.4.45ZM147.5,21.86c.23.04.38.05.82.05h2.44c.44,0,.59,0,.82-.05v.86c-.22-.03-.35-.04-.8-.04h-2.47c-.46,0-.59,0-.81.04v-.86Z"/>
            <path class="cls-3" d="M158.59,22.8c-.09.12-.1.15-.22.47-.22.64-.61,1.46-.9,1.93-.71,1.16-1.7,1.99-3.19,2.67-.22-.38-.31-.5-.58-.72.6-.25.95-.42,1.37-.7.5-.32.79-.58,1.15-.97-.49-.42-.91-.71-1.44-1l.53-.62c.59.33.88.53,1.41.94.33-.5.57-1,.79-1.65l-2.18.02c-.43.72-.93,1.29-1.64,1.88-.23-.26-.34-.35-.7-.56.77-.57,1.33-1.21,1.76-2,.2-.37.34-.71.41-.97l.91.2q-.08.13-.21.39c-.08.19-.13.27-.17.34q.11-.01,1.82-.03c.29,0,.43-.02.62-.08l.47.47Z"/>
            <path class="cls-3" d="M160.69,27.09c0,.32.01.57.04.84h-.84c.03-.25.04-.49.04-.84v-2.07c0-.34,0-.5.02-.78-.24.39-.35.54-.6.8-.11-.31-.21-.53-.39-.8.55-.55.96-1.16,1.3-1.95.17-.38.24-.62.29-.88l.8.22c-.05.11-.1.22-.17.41-.08.23-.28.67-.48,1.07v3.98ZM163.74,22.39c0-.34-.01-.62-.05-.87h.85c-.03.27-.04.52-.04.87v.62h.2c.31,0,.5-.01.68-.04v.77c-.19-.01-.41-.03-.66-.03h-.22v3.27c0,.36-.08.58-.24.69-.15.11-.34.13-.86.13-.25,0-.44,0-.74-.03-.04-.31-.09-.49-.22-.79.4.05.62.07.86.07.39,0,.45-.02.45-.17v-3.17h-1.9c-.29,0-.6.01-.83.04v-.78c.22.03.47.04.79.04h1.94v-.62ZM161.94,24.18c.48.59.75.99,1.08,1.63l-.65.46c-.34-.74-.58-1.14-1.04-1.7l.61-.39Z"/>
            <path class="cls-3" d="M165.5,27.99c.5-.62.69-.93.89-1.39.25-.58.37-1.21.37-1.92s-.11-1.28-.36-1.86c-.2-.46-.41-.78-.9-1.39h.99c.39.55.56.86.76,1.38.25.64.36,1.21.36,1.87s-.12,1.29-.37,1.93c-.2.51-.37.82-.76,1.38h-.99Z"/>
          </g>
          <g>
            <path class="cls-4" d="M30.15,13.8v-.31h-1.82v.31h-1.03v-1.85c-.14.41-.31.83-.7,1.4l-1.11-.5c.29-.33.76-.86,1.06-1.8.27-.84.26-1.22.26-3.51h4.34v2.93h-3.4c-.04.23-.05.27-.08.32h3.5v3.01h-1.01ZM31,6.7c-.18-.05-.37-.13-.61-.26v.85h-2.77v-.55c-.52.4-.83.58-1.04.71l-.8-.82c1-.42,2.03-1.29,2.42-2.19l1.17.08s.24.01.24.13c0,.02-.01.04-.02.06.54.5,1.3.87,2.01,1.14l-.6.84ZM30.07,9.29h-2.21c-.01.18-.01.2-.03.4h2.24v-.4ZM30.07,8.28h-2.19v.36h2.19v-.36ZM28.95,5.49c-.37.42-.55.59-.88.88h2.2c-.64-.34-.99-.61-1.31-.88ZM30.15,11.62h-1.82v1h1.82v-1ZM33.2,6.21c-.16.12-.17.12-.17.16v4.93h-1.08v-5.46l1.04.1c.1.01.28.04.28.17,0,.03-.03.07-.08.1ZM35.01,5s-.13.09-.13.14v7.35c0,1.03-.54,1.13-1.73,1.15l-.57-1.25c.21.01.7.02.93.02.09,0,.24,0,.24-.28v-7.59l1.1.13c.08.01.3.04.3.18,0,.04-.03.09-.13.15Z"/>
            <path class="cls-4" d="M40.53,5.18c-.17.1-.19.11-.26.26-.18.43-.29.68-.64,1.33l.15.08s.05.07.05.11c0,.09-.08.13-.12.17-.04.02-.16.11-.16.19v6.39h-1.23v-4.91c-.12.15-.23.27-.36.41l-1.08-.67c1.15-1.25,1.64-2.12,2.2-3.92l1.41.33c.08.02.11.08.11.11,0,.05-.04.1-.09.13ZM43.59,7.18v1.09h2.46v1.1h-2.46v1.08h2.8v1.2h-2.8v2.05h-1.25v-6.51h-.37c-.42.78-.77,1.23-1.17,1.71l-1.14-.6c1.09-1.13,1.56-2.01,2.07-3.75l1.29.39c.05.02.1.06.1.11,0,.03-.01.08-.06.11-.03.02-.18.09-.21.11s-.27.67-.31.78h4.03v1.15h-2.97Z"/>
            <path class="cls-4" d="M55.9,5.79c-.16.01-.18.03-.33.19-.54.61-1.14,1.17-1.78,1.68v5.74h-1.35v-4.74c-.73.48-1.46.94-2.71,1.53l-.94-.96c2.25-.88,4.62-2.65,6.25-4.58l.94.78s.18.17.18.26c0,.08-.04.09-.26.1Z"/>
            <path class="cls-4" d="M63.89,7.52c-.3.84-.52,1.46-1.24,2.59.27.23.53.45.9.82l-.8.93c-.18-.17-.39-.39-.84-.79-.83.93-1.6,1.68-3.42,2.63l-.97-1.01c1.75-.6,2.66-1.52,3.47-2.37-.45-.33-.96-.69-1.78-1.13l.66-.81c.65.28,1.09.52,1.83,1.02.65-.96.82-1.45.97-1.99h-2.76c-.71.99-1.24,1.63-1.95,2.19l-1-.74c1.52-1.03,2.55-2.88,3.02-4.22l1.18.34c.06.02.22.09.22.16,0,.06-.1.11-.25.17-.13.26-.33.68-.55,1.04h2.48c.13,0,.32-.15.48-.26l.8.83c-.19.16-.38.36-.46.6Z"/>
            <path class="cls-4" d="M67.98,5.25c-.16.12-.17.13-.17.16v4.55h-1.28v-5.08l1.28.11c.09.01.28.02.28.12,0,.05-.06.11-.11.15ZM72.45,5.18c-.14.14-.14.17-.14.47-.01.1.01.58.01.69,0,2.1-.02,2.95-.37,4-.64,1.91-2.04,2.7-3.16,3.27l-.94-1.04c2.21-.87,3.13-1.9,3.13-5.15,0-.26-.02-1.76-.08-2.62l1.38.08c.05,0,.27.01.27.14,0,.03-.01.08-.12.16Z"/>
            <path class="cls-4" d="M80.71,9.92l-1-.85c.67-.61,1.39-1.35,1.96-2.33h-6.74v-1.16h7.25c.14,0,.31-.16.38-.24l.99,1c-.53.78-1.66,2.42-2.83,3.58ZM79.76,7.29s-.15.14-.16.18c-.02.02-.06.78-.09.92-.37,3.08-2.19,4.43-2.76,4.85l-1.15-.68c2.27-1.57,2.78-3.29,2.69-5.53l1.26.06c.23.01.26.01.26.1,0,.03-.02.05-.05.1Z"/>
            <path class="cls-4" d="M87.55,7.52c-.61-.51-1.35-.97-2.21-1.36l.66-1.01c.71.31,1.58.78,2.26,1.33l-.71,1.03ZM90.71,10.45c-1.7,1.38-2.73,1.83-4.06,2.4-.05.15-.08.33-.16.33-.06,0-.16-.06-.24-.21l-.75-1.29c.86-.21,2.27-.57,4-1.86,1.65-1.23,2.68-2.65,3.16-3.3l.74,1.08c-.42.56-1.26,1.69-2.68,2.84Z"/>
            <path class="cls-4" d="M106.7,13.02c-1.11.09-2.11.13-3.09.13-3.18,0-3.52-.55-3.52-1.69v-6.58l1.2.17c.24.03.32.12.32.18,0,.02-.02.04-.1.12-.11.09-.15.12-.15.16v2.61c1.35-.25,2.79-.66,4.29-1.56l.89.88s.16.15.16.23c0,.06-.05.09-.1.09-.05,0-.14-.03-.29-.03-2.26.95-3.73,1.33-4.96,1.59v1.66c0,.62.03.96,1.83.96,1.21,0,2.4-.13,3.6-.31l-.09,1.4ZM106.93,6.7c-.57,0-1.01-.46-1.01-1.03s.45-1.03,1.01-1.03,1.02.45,1.02,1.03-.46,1.03-1.02,1.03ZM106.93,5.07c-.33,0-.58.27-.58.59s.25.59.58.59.58-.26.58-.59-.26-.59-.58-.59Z"/>
            <path class="cls-4" d="M110.2,12.55v-1.22h3.28v-4.36h-2.43v-1.22h6.3v1.22h-2.5v4.36h3.29v1.22h-7.93Z"/>
            <path class="cls-4" d="M127.49,7.52c-.3.84-.52,1.46-1.24,2.59.27.23.53.45.91.82l-.8.93c-.18-.17-.39-.39-.84-.79-.83.93-1.6,1.68-3.42,2.63l-.97-1.01c1.75-.6,2.66-1.52,3.47-2.37-.45-.33-.96-.69-1.78-1.13l.66-.81c.65.28,1.09.52,1.83,1.02.65-.96.82-1.45.97-1.99h-2.76c-.71.99-1.24,1.63-1.95,2.19l-1-.74c1.52-1.03,2.55-2.88,3.02-4.22l1.18.34c.06.02.22.09.22.16,0,.06-.1.11-.25.17-.13.26-.33.68-.55,1.04h2.48c.13,0,.32-.15.48-.26l.8.83c-.19.16-.38.36-.46.6Z"/>
            <path class="cls-4" d="M132.5,7.52c-.61-.51-1.35-.97-2.21-1.36l.66-1.01c.71.31,1.58.78,2.26,1.33l-.71,1.03ZM135.66,10.45c-1.7,1.38-2.73,1.83-4.06,2.4-.05.15-.08.33-.16.33-.06,0-.16-.06-.24-.21l-.75-1.29c.86-.21,2.27-.57,4-1.86,1.65-1.23,2.68-2.65,3.16-3.3l.74,1.08c-.42.56-1.26,1.69-2.68,2.84Z"/>
            <path class="cls-4" d="M147,8.24c-.13,3.12-.87,4.18-2.92,5.42l-.88-.84c1.9-1.04,2.58-2.08,2.61-4.58h-2.04v2.41h-1.28v-2.41h-2.02v-1.22h2.02v-2.07l1.19.13c.25.03.32.05.32.15,0,.05-.23.21-.23.27v1.52h2.04c0-.98,0-1.61-.02-2.23l1.1.15c.23.03.34.09.34.17,0,.03,0,.05-.1.12-.11.09-.12.1-.12.25v1.54h1.8v1.22h-1.81ZM148.16,4.94c.4.23.74.5,1.08.8l-.45.57c-.34-.3-.69-.57-1.09-.8l.46-.57ZM148.82,3.98c.43.24.75.47,1.09.78l-.45.57c-.33-.3-.67-.57-1.08-.8l.44-.55Z"/>
          </g>
        </g>
      </g>
    </g>
  </g>
</svg>