<?xml version="1.0" encoding="UTF-8"?>
<svg xmlns="http://www.w3.org/2000/svg" viewBox="0 0 163.43 27.07">
  <defs>
    <style>
      .cls-1 {
        fill: #f18d09;
      }

      .cls-2 {
        isolation: isolate;
      }

      .cls-3 {
        fill: #231815;
      }

      .cls-4 {
        fill: #fff;
      }

      .cls-5 {
        fill: #f29014;
        mix-blend-mode: multiply;
      }
    </style>
  </defs>
  <g class="cls-2">
    <g id="_レイヤー_2" data-name="レイヤー 2">
      <g id="_レイヤー_1-2" data-name="レイヤー 1">
        <g>
          <g>
            <rect class="cls-1" width="163.43" height="17.49"/>
            <rect class="cls-5" width="8.29" height="17.49"/>
          </g>
          <g>
            <path class="cls-3" d="M42.3,22.3c-.05.13-.07.22-.08.47-.02.79-.1,1.87-.17,2.33-.18,1.21-.43,1.5-1.27,1.5-.27,0-.5-.02-.87-.08-.01-.44-.04-.57-.16-.9.41.11.69.16.92.16.3,0,.41-.15.52-.76.08-.48.15-1.44.15-2.24h-1.63c-.1.88-.25,1.41-.56,2.01-.38.74-1.01,1.38-1.89,1.94-.24-.37-.34-.48-.63-.74.88-.46,1.45-1.02,1.82-1.77.19-.39.29-.73.36-1.22.01-.1.03-.17.04-.22h-1.16c-.43,0-.53.01-.76.04v-.86c.23.04.42.06.77.06h1.23c.02-.27.03-.68.03-.88v-.18c0-.09,0-.15-.02-.27l.94.02c-.01.09-.02.12-.03.22,0,.04,0,.08,0,.13q-.01.15-.03.51c0,.15,0,.22-.03.44h1.55c.31,0,.38-.01.55-.07l.4.35Z"/>
            <path class="cls-3" d="M45.45,21.01q-.03.2-.07,1.57c-.05,1.37-.2,2.16-.57,2.88-.24.48-.5.84-.97,1.3-.27-.35-.38-.46-.71-.68.34-.28.51-.47.72-.81.5-.81.67-1.71.67-3.67,0-.39,0-.45-.03-.64l.95.05ZM47.31,20.93c-.03.2-.04.32-.05.67l-.04,3.99c.49-.23.77-.44,1.07-.8.32-.38.53-.76.69-1.28.24.32.34.41.66.66-.29.69-.65,1.22-1.12,1.63-.4.34-.76.55-1.49.84-.15.06-.21.08-.3.13l-.45-.48c.05-.2.06-.36.06-.74l.04-3.95v-.21c0-.17,0-.33-.03-.46h.95Z"/>
            <path class="cls-3" d="M51.74,23.09c1.06-.2,2.61-.82,3.06-1.25l.56.79s-.26.12-.63.3c-.95.46-1.93.77-2.99.97v.92s0,.07,0,.09c0,.41.03.57.12.67.12.13.52.18,1.2.18.47,0,1.12-.04,1.62-.11.34-.04.49-.08.8-.17l.04.93c-.15,0-.18,0-.93.08-.41.04-1.29.08-1.72.08-.88,0-1.37-.09-1.64-.3-.2-.15-.3-.37-.34-.71-.01-.12-.02-.24-.02-.64v-3.25c0-.36,0-.47-.04-.64h.94c-.03.17-.04.29-.04.65v1.41ZM55.07,20.69c.28.31.47.6.7,1.06l-.5.23c-.22-.45-.4-.73-.69-1.07l.5-.22ZM56.12,21.58c-.19-.39-.41-.72-.67-1.04l.48-.22c.31.35.5.62.69,1.02l-.5.25Z"/>
            <path class="cls-3" d="M59.78,24.64c-.32,0-.5,0-.68.04v-.71c.16.02.27.03.54.03h.09v-.61h-.12c-.23,0-.35,0-.55.03v-.59c-.16.2-.24.29-.44.49-.03.57-.05.81-.1,1.15.23.36.5.65.83.9-.18.26-.27.4-.38.69-.29-.3-.45-.5-.62-.76-.22.71-.5,1.23-.96,1.71-.15-.25-.29-.42-.5-.6.4-.41.63-.83.8-1.46.2-.66.27-1.65.27-3.32,0-.6,0-.75-.05-1.02h.81q-.04.23-.04,1.34c0,.15,0,.24,0,.46.19-.28.28-.44.36-.62l.53.41c-.09.12-.22.29-.38.51.13.01.24.02.45.02h.12v-.22c0-.14,0-.22-.03-.33h.7c-.01.09-.02.17-.02.32v.24h1.51v-.23c0-.14,0-.21-.02-.32h.72c-.02.1-.03.19-.03.32v.23h.27c.24,0,.38,0,.58-.03v.73c-.19-.03-.34-.03-.58-.03h-.27v.61h.11c.29,0,.44,0,.64-.04v.73c-.22-.03-.42-.04-.71-.04h-.58v1.44c0,.14.04.16.41.16.18,0,.29-.04.31-.13.04-.12.06-.34.07-.74.2.13.34.19.66.28-.04.64-.11.95-.28,1.1-.13.12-.41.18-.9.18-.78,0-.97-.11-.97-.55v-1.73h-.55c-.04.43-.07.61-.17.88-.25.74-.71,1.18-1.6,1.54-.12-.29-.23-.46-.43-.64.5-.16.77-.32,1.04-.61.28-.3.42-.68.44-1.18h-.25ZM56.92,23.76c.1-.33.13-.48.17-.86.03-.33.05-.6.05-.81v-.18l.59.07c-.01.9-.08,1.46-.22,2.07l-.58-.29ZM61.47,22.1c0,.22,0,.29.02.41h-.71c.01-.1.02-.22.02-.41v-.24h-.81c-.25,0-.5.01-.68.03v-.73c.22.03.38.03.68.03h.81v-.17c0-.2,0-.32-.04-.47h.74c-.03.14-.04.27-.04.48v.17h1.02c.27,0,.47-.01.67-.04v.74c-.2-.02-.42-.03-.65-.03h-1.04v.23ZM61.89,23.99v-.61h-1.51v.61h1.51Z"/>
            <path class="cls-3" d="M70.36,20.49l-5.31,6.58h-1.03l5.3-6.58h1.04Z"/>
            <path class="cls-3" d="M69.79,24.22c.2-.1.57-.52,1.51-1.69.24-.31.38-.46.53-.55.15-.09.31-.13.48-.13.35,0,.51.11,1.04.71.83.92,1.49,1.56,2.27,2.23.4.35.51.43.67.52l-.44.96c-1.31-1.19-1.67-1.55-2.96-2.96q-.45-.49-.57-.49c-.11,0-.14.02-.43.41s-.88,1.11-1.25,1.56c-.11.13-.14.17-.24.29l-.6-.86ZM74.55,21.53c.31.33.5.6.74,1.03l-.49.26c-.23-.43-.43-.71-.74-1.04l.49-.25ZM75.63,22.38c-.21-.38-.44-.71-.71-1.02l.47-.25c.32.32.51.59.73.99l-.48.27Z"/>
            <path class="cls-3" d="M76.73,23.27c.31.04.44.05,1.13.05h3.73c.69,0,.83,0,1.13-.05v.97c-.28-.04-.36-.04-1.14-.04h-3.72c-.79,0-.86,0-1.14.04v-.97Z"/>
            <path class="cls-3" d="M84.47,26.1c-.48,0-.65,0-.86.03v-.9c.26.04.38.05.88.05h3.19v-3.05h-3.07c-.5,0-.64,0-.9.04v-.91c.26.04.39.05.9.05h3.37q.36,0,.61-.01c-.02.19-.02.26-.02.58v3.84c0,.35,0,.55.04.72h-.94v-.43h-3.19Z"/>
            <path class="cls-3" d="M90.05,25.6c.6-.03,1.44-.24,2.07-.52.88-.38,1.53-.92,2.08-1.72.31-.45.5-.83.71-1.4.27.33.38.43.74.69-.6,1.28-1.26,2.11-2.22,2.75-.71.48-1.58.82-2.67,1.05-.28.06-.3.06-.46.12l-.26-.97ZM90.65,21.25c.83.52,1.27.84,1.81,1.35l-.6.76c-.56-.6-1.13-1.06-1.79-1.42l.58-.69Z"/>
            <path class="cls-3" d="M97.57,23.17c-.34,0-.52,0-.72.02.02-.17.03-.34.03-.61v-.81c0-.27,0-.42-.03-.6.2.02.43.03.78.03h1.46c0-.3-.02-.46-.05-.67h.86c-.03.2-.04.36-.04.67h1.58c.36,0,.57,0,.78-.03-.02.17-.03.32-.03.6v.81c0,.29,0,.43.03.61-.2-.01-.42-.02-.72-.02h-1.64v.53h1.93c.34,0,.52,0,.71-.03-.02.2-.03.36-.03.68v1c0,.34,0,.53.04.74h-.81v-.33h-1.84v.36c0,.46,0,.67.04.92h-.86c.03-.26.05-.53.05-.92v-.35h-1.74v.33h-.8c.02-.24.04-.46.04-.74v-1c0-.27,0-.47-.03-.67.2.01.38.02.69.02h1.84v-.53h-1.51ZM97.34,24.36v.71h1.74v-.71h-1.74ZM97.63,21.88v.65h1.45v-.65h-1.45ZM99.85,22.53h1.57v-.65h-1.57v.65ZM99.85,25.07h1.84v-.71h-1.84v.71Z"/>
            <path class="cls-3" d="M109.97,20.49l-5.31,6.58h-1.03l5.3-6.58h1.04Z"/>
            <path class="cls-3" d="M113.2,25.07c.21.29.35.42.76.7-.1.15-.17.29-.31.67-.37-.29-.57-.49-.8-.83-.27.6-.59.97-1.23,1.42-.13-.27-.22-.4-.43-.63.6-.34.9-.69,1.13-1.32h-.45c-.2,0-.37,0-.53.04v-.68c.16.02.29.03.52.03h.61c.02-.15.03-.25.04-.43h-.49c-.22,0-.36,0-.52.03v-.67c.12.02.27.03.5.03h.53c0-.18-.01-.3-.03-.39h.74c-.01.13-.02.27-.03.39h.45c.24,0,.39,0,.51-.03v.67c-.15-.02-.33-.03-.51-.03h-.47c-.02.17-.02.28-.04.43h.54c.22,0,.34,0,.51-.03v.67c-.15-.02-.31-.03-.51-.03h-.5ZM114.31,21.16s-.03.01-.08.03c-.01,0-.03,0-.05.02-.65.22-1.46.38-2.63.5-.07-.26-.12-.4-.27-.65,1.27-.06,2.18-.23,2.66-.5l.37.6ZM111.83,23.16c-.11-.45-.22-.74-.42-1.16l.56-.16c.2.41.29.62.44,1.13l-.57.2ZM112.71,22.9c-.09-.42-.18-.71-.34-1.08l.6-.15c.15.35.24.64.33,1.05l-.58.18ZM114.42,21.74c-.29.82-.33.92-.6,1.42l-.54-.25c.24-.43.35-.75.52-1.42l.62.25ZM114.75,25.35c-.08.62-.21,1.08-.44,1.61l-.57-.36c.26-.46.38-.86.47-1.44l.54.2ZM115.25,21.01c.11-.22.17-.39.22-.61l.75.11q-.15.34-.23.5h.62c.31,0,.49,0,.66-.03-.01.16-.02.31-.02.56v1.15c0,.25,0,.41.02.57-.18-.01-.29-.01-.53-.01h-1.59v.28h1.98c.27,0,.41,0,.59-.04v.62c-.14-.02-.34-.03-.6-.03h-1.98v.29h1.98c.22,0,.39,0,.53-.01q0,.08-.05.83c-.06.87-.16,1.37-.34,1.56-.14.16-.35.22-.82.22-.11,0-.21,0-.5-.03-.01-.24-.04-.39-.13-.67l-.22.06c-.02-.36-.08-.71-.15-1.02l.48-.13c.09.34.11.42.21.99l-.29.08c.34.05.5.07.63.07.21,0,.28-.1.34-.47.03-.2.06-.56.06-.88h-1.93c-.29,0-.36,0-.53.01.01-.15.02-.34.02-.55v-2.94c0-.2,0-.36-.03-.52.16.02.34.03.63.03h.19ZM115.33,25.25c.08.56.1.85.11,1.37l-.57.12c0-.18,0-.2,0-.34,0-.41,0-.63-.05-1.04l.5-.1ZM116.56,21.88v-.31h-1.42v.31h1.42ZM115.14,22.71h1.42v-.32h-1.42v.32ZM116.5,25.13c.16.4.17.43.24.69l-.45.18c-.06-.27-.08-.34-.21-.72l.42-.15Z"/>
            <path class="cls-3" d="M118.37,22.15c.24-.02.35-.03.82-.14,1.6-.34,1.97-.4,2.79-.4,1.39,0,2.29.78,2.29,1.97,0,.95-.56,1.76-1.55,2.24-.64.31-1.18.44-2.47.58-.09-.38-.15-.53-.36-.9,1.12-.05,1.71-.15,2.3-.41.5-.22.92-.62,1.06-1.04.05-.14.08-.31.08-.5,0-.39-.2-.72-.53-.91-.22-.13-.52-.19-.9-.19-.73,0-1.63.16-2.76.5-.36.11-.41.12-.56.2l-.2-.99Z"/>
            <path class="cls-3" d="M129.56,21.24c-.12.08-.25.2-.86.77-.36.33-.85.72-1.67,1.34-.22.16-.27.22-.27.29,0,.1.01.12.63.58,1.09.83,1.29,1,2.21,1.83.07.07.11.1.2.18l-.72.73c-.18-.25-.43-.52-.91-.96-.5-.46-.73-.65-1.81-1.49-.46-.36-.59-.55-.59-.87,0-.21.08-.4.23-.57.09-.1.1-.1.62-.5.76-.57,1.15-.91,1.62-1.37.31-.31.39-.41.51-.58l.81.62Z"/>
            <path class="cls-3" d="M131.08,21.94c.11,0,.16,0,.22,0,.17,0,.55-.02.9-.05.01-.41.01-.53.01-.83,0-.18,0-.23,0-.39h.88q-.04.21-.08,1.16s.06-.01.11-.03l.26.3c-.08.06-.09.08-.39.42l-.02.49c.22-.22.38-.35.62-.52.76-.55,1.17-.72,1.7-.72,1.02,0,1.6.84,1.6,2.35,0,.39-.03.67-.09,1.01.11.07.15.11.46.34q.05.04.13.11s.04.03.08.06l-.33.84c-.15-.18-.31-.34-.63-.58-.09.2-.17.29-.32.42-.27.21-.67.34-1.08.34-.81,0-1.35-.43-1.35-1.08s.53-1.07,1.3-1.07c.33,0,.61.06.96.21.04-.22.06-.36.06-.6,0-1.04-.29-1.55-.89-1.55-.32,0-.66.14-1.13.48-.35.25-.69.53-1.07.91,0,2.06,0,2.45.05,2.84h-.92q.04-.26.04-1.92c0-.1,0-.15.01-.26-.07.09-.21.26-.37.43-.33.36-.38.43-.5.57l-.42-.82c.16-.1.34-.27,1.29-1.2q0-.43.02-1.01-.85.06-1.06.11l-.04-.78ZM135.07,25.21c-.33,0-.56.17-.56.41,0,.21.25.36.57.36.15,0,.32-.04.45-.11.12-.07.22-.18.28-.31.03-.05.04-.08.04-.09-.31-.19-.51-.26-.79-.26Z"/>
          </g>
          <g>
            <path class="cls-4" d="M16.1,11.54c-.37-.28-.6-.52-.96-.99-.21,1.02-.62,1.87-1.31,2.66l-1-.65c1.27-1.37,1.44-2.84,1.44-5.17,0-.86,0-1.47-.05-3.35l1.11.09c.13.01.27.02.27.14,0,.05-.16.18-.18.23-.02.09-.03,1.65-.03,1.81.24-.28.36-.43.53-.73l.81.61s.1.1.1.16c0,.11-.14.14-.29.17-.12.18-.45.56-1.15,1.35-.01.38-.01.45-.04,1.11.33.7.88,1.26,1.51,1.71l-.73.85ZM14,6.74c.03.76.03,1.53-.11,2.28l-.99-.08c.06-.3.16-.79.16-1.65,0-.38-.02-.7-.04-1.01l.94.12c.24.03.25.1.25.13,0,.1-.15.17-.21.21ZM21.19,13.03h-1.4c-.53,0-.71-.23-.71-.69v-2.52h-1.44l.93.18c.06.01.21.04.21.16,0,.08-.06.1-.21.17-.18,1.59-1,2.41-2.37,2.9l-.93-.92c1.99-.33,2.21-1.5,2.25-2.5h-1.31v-1.01h.62v-.87h-.59v-1.04h.59v-.85l1.09.09c.08.01.24.02.24.13,0,.08-.16.21-.16.25v.39h1.92v-.92l1.13.1c.13.01.24.03.24.13,0,.08-.19.19-.19.24v.45h1.12v1.04h-1.12v.87h.86v1.01h-1.75v1.83c0,.16.08.21.31.21h.33c.29,0,.39-.57.45-.95l.98.42c-.18,1.55-.66,1.7-1.09,1.7ZM19.58,5.69v.82h-1.17v-.82h-2.03v-.99h2.03v-.68l1.11.09c.07,0,.25.02.25.13,0,.04-.18.17-.18.22v.25h2.15v.99h-2.15ZM19.91,7.93h-1.92v.87h1.92v-.87Z"/>
            <path class="cls-4" d="M30.86,13.47l-.45-1.13-.06.06c-.99-.47-1.66-1.11-2.23-1.84-.67,1.09-1.31,1.5-2.22,1.88l-.86-.93v1.76h-1.24v-7.9h3.74c0-.87,0-1.11-.01-1.49l1.33.08c.06,0,.25.02.25.15,0,.06-.1.14-.19.22-.04.18-.04.71-.08,1.04h3.75v6.99c0,1.01-.74,1.09-1.71,1.1ZM25.03,6.52v2c.51-.13,1.07-.28,1.58-.75.45-.42.6-.85.74-1.25h-2.33ZM25.89,9.58l-.86-1.01v2.85c.47-.13,1.04-.29,1.59-.9.58-.66.69-1.33.79-1.91-.53.49-.93.72-1.52.97ZM31.32,8.56l-.82,1c-1.09-.45-1.85-1.31-2.32-1.97-.21.37-.36.58-.62.87l1.22.19c.07.01.17.03.17.14s-.15.12-.27.2c-.03.17-.08.34-.12.47.23.31.5.67,1.1,1.12.74.56,1.21.67,1.66.79v-2.82ZM31.32,6.52h-2.39c.18.37.34.71.82,1.12.58.49,1.1.64,1.57.78v-1.9ZM31.32,11.42l-.7.7c.18.02.3.02.3.02.26.02.4-.23.4-.41v-.31Z"/>
            <path class="cls-4" d="M35.89,12.52l-.73-.74v-7.12l1.28.16c.08.01.29.04.29.15,0,.04-.01.06-.11.15-.16.13-.17.14-.17.18v5.41c.43-.11,1.3-.32,2.65-1.22,1.27-.85,2.11-1.73,2.57-2.22l.66,1.19c-1.63,1.81-4.17,3.33-6.44,4.06Z"/>
            <path class="cls-4" d="M50.06,12.41c-.98-1.21-1.75-1.98-2.63-2.69-.86.96-1.66,1.78-3.68,2.77l-.95-.98c.7-.3,2.07-.87,3.44-2.33,1.16-1.24,1.58-2.33,1.83-2.94h-4.1v-1.25h4.64c.21,0,.37-.11.56-.24l.83.92c-.22.15-.45.33-.58.65-.37.86-.57,1.36-1.25,2.41,1.04.79,1.97,1.7,2.86,2.66l-.96,1.02Z"/>
            <path class="cls-4" d="M58.7,10.32c-.8-.74-1.88-1.62-3.17-2.15v4.65h-1.27V4.29l1.29.23s.26.04.26.17c0,.06-.28.24-.28.29v2.83l.51-.8c.55.24.91.38,1.83.98.85.56,1.25.92,1.68,1.29l-.85,1.03Z"/>
            <path class="cls-4" d="M68.13,8.21c-.41.97-.81,1.95-1.78,3-1.1,1.18-2.28,1.68-3,1.98l-1-.93c.65-.23,1.85-.66,3.02-1.91.91-.98,1.22-1.85,1.37-2.28h-5.59v-1.19h6.11c.17,0,.4-.13.53-.2l.87.93c-.38.3-.5.54-.53.6ZM62.23,5.69v-1.22h5.12v1.22h-5.12Z"/>
            <path class="cls-4" d="M72.31,6.97c-.61-.51-1.35-.97-2.21-1.36l.66-1.01c.71.31,1.58.78,2.26,1.33l-.71,1.03ZM75.47,9.9c-1.7,1.38-2.73,1.83-4.06,2.4-.05.15-.08.33-.16.33-.06,0-.16-.06-.24-.21l-.75-1.29c.86-.21,2.27-.57,4-1.86,1.65-1.23,2.68-2.65,3.16-3.3l.74,1.08c-.42.56-1.26,1.69-2.68,2.84Z"/>
            <path class="cls-4" d="M79.44,9.33v-1.49h9.07v1.49h-9.07Z"/>
            <path class="cls-4" d="M92.21,8.01c-.17.12-.19.13-.24.26-.38,1.15-.69,1.94-1.19,2.94l-1.22-.42c.8-1.5,1.13-2.65,1.34-3.42l1.27.33c.08.02.13.08.13.15,0,.05-.03.11-.1.15ZM96.18,13.05h-2.29c-.86,0-1.25-.38-1.25-1.18v-5.32l1.4.16c.09.01.16.03.16.13,0,.06-.04.12-.13.19-.12.11-.15.18-.15.27v4.03c0,.36.25.56.58.56h1.1c.38,0,.7-.18.95-1.19l1.14.58c-.33,1.14-.67,1.77-1.51,1.77ZM95.44,6.41c-.37-.29-1.04-.82-2.4-1.48l.62-1.04c.96.38,1.73.8,2.54,1.42l-.76,1.1ZM98.02,10.53c-.58-1.3-1.18-2.18-1.83-2.98l1.08-.61c.8.88,1.43,1.89,1.93,2.97l-1.17.62Z"/>
            <path class="cls-4" d="M100.32,5.5v-1h3.94v-.71l1.29.05c.26.01.33.05.33.14s-.06.14-.12.17c-.11.08-.13.11-.13.15v.19h3.94v1h-9.26ZM108.31,10.68v-1.29h-6.74v1.29h-1.14v-2.21h9.03v2.21h-1.14ZM101.83,8.1v-2.23h6.26v2.23h-6.26ZM105.61,10.83v1.58c0,.87-1.09.89-1.96.93l-.54-1.31c.23.05.43.09.76.09.16,0,.52,0,.52-.34v-.94h-2.46v-.99h6.08v.99h-2.4ZM106.91,6.7h-3.94v.61h3.94v-.61Z"/>
            <path class="cls-4" d="M123.6,10.06c-1.29-.61-1.9-1.12-2.42-1.85-.73.99-1.4,1.39-2.14,1.71l-.32-.36v1.04h-3.54v-3.49l-.82-.55c.94-.94,1.5-2,1.65-2.7l1.02.34c.09.03.17.07.17.15,0,.06-.04.1-.12.15-.09.07-.1.07-.14.15h1.13l.54.53c-.15.31-.39.74-.66,1.15h.76v.61h1.84c.04-.17.05-.31.06-.51-.2.02-1.26.11-1.3.12s-.19.17-.25.17c-.06,0-.12-.11-.14-.17l-.33-.96c.16,0,.48-.01.78-.02.26-.5.56-1.12.81-1.8l1.07.23c.16.03.26.04.26.12s-.26.23-.29.27c-.13.27-.37.71-.6,1.12.5-.03.93-.06,1.54-.11-.14-.18-.26-.34-.42-.52l.87-.56c.41.44.8.9,1.25,1.72l-.98.57c-.05-.14-.12-.27-.19-.41-.44.05-.99.12-1.62.17l.69.11c.16.02.21.03.21.1,0,.03-.03.05-.06.08-.02.01-.09.03-.13.04-.02.03-.03.2-.04.24h2.25v.96h-1.78c.65.66,1.12.87,2.17,1.17l-.76.97ZM115.75,11.37c-.06.86-.31,1.56-.39,1.8l-.96-.25c.36-.77.49-1.4.54-2.01l.79.19c.05.01.18.05.18.14,0,.03-.01.1-.16.13ZM116.36,5.63c-.17.27-.27.41-.5.72h.94c.1-.16.26-.44.39-.72h-.83ZM116.79,12.91l-.84.1c.05-.31.13-.71.13-1.3,0-.27-.02-.41-.04-.6h.68c.04.22.11.6.11,1.25,0,.22-.01.36-.03.56ZM116.56,7.28h-.47v.81h.47v-.81ZM116.56,8.91h-.47v.84h.47v-.84ZM117.21,12.79c.02-.5-.02-1.2-.13-1.71l.65-.02c.19.59.24,1.24.27,1.58l-.79.15ZM117.93,7.28h-.52v.81h.52v-.81ZM117.93,8.91h-.52v.84h.52v-.84ZM118.41,12.49c-.1-.56-.19-.97-.38-1.45l.64-.12c.24.5.34.79.45,1.29l-.71.28ZM118.71,7.92v1.01c.8-.4,1.09-.7,1.35-1.01h-1.35ZM123.73,11.23s-.09.02-.12.05c-1.02,1.06-1.86,1.5-3.92,2.03l-.77-.98c.62-.1,1.41-.21,2.54-.76,1.01-.5,1.27-.82,1.62-1.24l.7.61c.11.1.17.16.17.22,0,.08-.05.08-.23.08ZM121.82,9.64c-.06,0-.11.02-.15.05-.45.41-.79.72-1.83,1.12l-.71-.66c.75-.25,1.52-.66,2.01-1.22l.68.49c.1.08.17.12.17.16,0,.05-.05.05-.17.05ZM122.9,10.37s-.21.04-.3.08c-.98.8-1.3,1.07-2.55,1.43l-.59-.74c1.21-.34,2.2-.88,2.76-1.5l.59.49c.09.06.15.13.15.18,0,.01-.01.05-.05.06Z"/>
            <path class="cls-4" d="M130.74,8.74c-.01.45-.03,1.21-.41,2.15-.56,1.39-1.54,2.17-2.01,2.54l-1.13-.67c.51-.29,1.49-.85,2.1-2.18.39-.83.4-1.51.41-1.85h-1.65c-.42.66-.74,1.09-1.34,1.67l-1.03-.56c1.37-1.17,2.13-2.79,2.48-4.03l.99.38s.23.11.23.19c0,.06-.13.1-.24.15-.06.16-.36.86-.51,1.19h4.15v1.01h-2.04Z"/>
            <path class="cls-4" d="M136.03,8.38c-.46-.38-1.04-.75-1.59-.99l.58-.87c.57.24,1.15.58,1.64.96l-.62.91ZM135.82,12.74c-.06.1-.08.13-.08.16,0,.02.03.16.03.19,0,.04-.04.11-.1.11-.08,0-.18-.1-.27-.15l-.9-.71c.85-.96,1.48-2.09,1.95-3.28l.94.66c-.56,1.36-1.03,2.2-1.57,3.02ZM136.77,5.87c-.52-.51-1.02-.85-1.49-1.13l.69-.83c.53.32,1.03.7,1.48,1.14l-.68.82ZM143.17,13.19c-1.66-1.41-2.5-3.13-2.83-4.91h-.67c-.23,1.96-.59,3.59-1.72,4.97l-1.28-.47c1.35-1.56,1.83-3.04,1.83-6.25,0-.71-.01-1.41-.12-2.11h5.47v3.87h-2.35c.25,1.39,1.04,2.88,2.8,4.05l-1.13.86ZM142.57,5.45h-2.84c0,.29.01,1.65.01,1.78h2.83v-1.78Z"/>
            <path class="cls-4" d="M150.3,6.19l.66.13c.12.02.3.06.3.16,0,.09-.09.12-.24.19v.53h3.63v1.11h-3.63v1.09h2.95v3.86h-1.25v-.28h-3.73v.28h-1.18v-3.86h1.97v-3.21h-2.29v1.69c0,1.21-.11,1.92-.34,3.11-.18.88-.49,1.56-.75,2.14l-1.17-.44c.38-.72,1.03-1.98,1.03-4.58v-3.05h3.23v-1.13l1.41.09c.11.01.24.04.24.16,0,.07-.1.13-.15.16s-.13.08-.13.12v.6h3.94v1.12h-4.49ZM152.73,10.55h-3.73v1.34h3.73v-1.34Z"/>
          </g>
        </g>
      </g>
    </g>
  </g>
</svg>