<?xml version="1.0" encoding="UTF-8"?>
<svg xmlns="http://www.w3.org/2000/svg" viewBox="0 0 167.6 35.28">
  <defs>
    <style>
      .cls-1 {
        fill: #f18d09;
      }

      .cls-2 {
        isolation: isolate;
      }

      .cls-3 {
        fill: #231815;
      }

      .cls-4 {
        fill: #fff;
      }

      .cls-5 {
        fill: #f29014;
        mix-blend-mode: multiply;
      }
    </style>
  </defs>
  <g class="cls-2">
    <g id="_レイヤー_2" data-name="レイヤー 2">
      <g id="_レイヤー_1-2" data-name="レイヤー 1">
        <g>
          <rect class="cls-1" y=".19" width="167.6" height="17.49"/>
          <rect class="cls-5" width="8.29" height="17.49"/>
          <g>
            <path class="cls-3" d="M9.01,22.54c.53.37.68.48,1.07.86l-.38.63c-.42-.44-.53-.54-1.07-.93l.37-.56ZM10.04,24.94c-.27.85-.53,1.55-.83,2.24l-.57-.58c.11-.14.21-.31.37-.71.21-.5.31-.78.48-1.39l.54.44ZM9.27,20.81c.42.3.66.51,1.04.9l-.41.61c-.35-.4-.62-.66-1.03-.97l.41-.54ZM11.69,21.91h-.71c-.23,0-.37,0-.54.03v-.67c.16.03.33.04.56.04h.69c0-.3,0-.42-.04-.57h.69c-.03.15-.04.25-.04.57h1.05c.23,0,.36,0,.48-.03-.01.18-.02.36-.02.53v.52h.04c.18,0,.29,0,.43-.03v.7c-.13-.02-.25-.03-.43-.03h-.04v.39c0,.41,0,.49.02.66-.07-.01-.22-.02-.48-.02h-1.05v.47h1c.28,0,.45,0,.6-.04v.67c-.15-.02-.33-.03-.6-.03h-1.01v.5h1.21c.29,0,.51-.01.67-.04v.7c-.21-.03-.4-.04-.68-.04h-1.2v.25c0,.29.01.54.04.76h-.69c.02-.21.04-.46.04-.76v-.25h-.96c-.27,0-.49.01-.66.04v-.71c.14.02.4.04.66.04h.96v-.5h-.81c-.25,0-.42,0-.58.04v-.68c.16.03.33.04.59.04h.81v-.47h-.73c-.22,0-.38,0-.53.03v-.64c.16.02.3.03.54.03h.72v-.44h-1.01c-.27,0-.47.01-.64.03v-.72c.19.04.4.05.66.05h.99v-.41ZM13.21,22.33v-.41h-.9v.41h.9ZM12.31,23.4h.9v-.44h-.9v.44Z"/>
            <path class="cls-3" d="M16.18,26.56c0,.29.01.49.04.67h-.65c.02-.2.04-.41.04-.71v-.36h-.48c-.28,0-.38,0-.57.04v-.71c.18.03.28.03.57.03h.48v-.41h-.27c-.26,0-.4,0-.61.02.02-.24.02-.47.02-.81v-1.11c0-.34,0-.53-.02-.76.17.01.31.02.61.02h.27v-.44h-.45c-.26,0-.38,0-.57.03v-.69c.17.04.28.04.57.04h.45c0-.33,0-.47-.04-.67h.65c-.03.18-.04.31-.04.67h.26c.28,0,.39,0,.57-.04v.69c-.17-.02-.28-.03-.57-.03h-.26v.44h.33c.29,0,.4,0,.55-.02-.01.18-.02.32-.02.71v.39c.4-.16.74-.36,1.06-.62-.29-.35-.49-.7-.69-1.2-.14,0-.18,0-.27.02v-.74c.15.03.33.04.61.04h1.34c.21,0,.34,0,.45-.04l.36.44c-.05.09-.08.15-.15.27-.39.71-.48.85-.78,1.2.33.25.6.39,1.19.58-.17.25-.27.45-.34.67-.62-.28-.93-.48-1.29-.79-.38.34-.71.56-1.19.81-.08-.22-.18-.4-.29-.53v.67c0,.34,0,.58.02.78-.15-.01-.27-.02-.56-.02h-.32v.41h.51c.26,0,.36,0,.48-.03v.7c-.18-.03-.29-.04-.51-.04h-.48v.4ZM15.26,23.07v.45h.36v-.45h-.36ZM15.26,24.03v.5h.36v-.5h-.36ZM16.54,23.52v-.45h-.38v.45h.38ZM16.54,24.52v-.5h-.38v.5h.38ZM19.36,24.7c.28,0,.38,0,.52-.04v.74c-.17-.03-.3-.03-.54-.03h-.56v.95h.67c.27,0,.44-.01.6-.03v.76c-.18-.04-.34-.04-.6-.04h-1.96c-.28,0-.43,0-.62.04v-.76c.17.03.31.03.58.03h.7v-.95h-.39c-.25,0-.39,0-.56.03v-.74c.15.03.3.04.57.04h.38v-.18c0-.33,0-.5-.03-.67h.69c-.02.17-.03.34-.03.67v.18h.57ZM18.02,21.74c.14.31.29.56.51.81.27-.31.38-.48.52-.81h-1.02Z"/>
            <path class="cls-3" d="M25.31,21.53c-.1.1-.13.13-.22.25-.45.55-.9,1-1.42,1.44v2.99c0,.39,0,.59.03.78h-.85c.03-.2.04-.34.04-.76v-2.47c-.71.49-1.04.67-2.15,1.13-.12-.36-.19-.48-.4-.8,1.19-.38,2.21-.96,3.16-1.82.54-.48.95-.97,1.12-1.31l.69.56Z"/>
            <path class="cls-3" d="M30.12,22.09c-.08.12-.09.15-.19.47-.19.64-.53,1.46-.77,1.93-.62,1.16-1.46,1.99-2.75,2.68-.19-.38-.27-.5-.5-.72.51-.25.81-.42,1.18-.7.43-.32.68-.57.99-.97-.42-.42-.78-.71-1.23-1l.46-.62c.51.33.76.52,1.21.94.28-.5.49-.99.67-1.65l-1.88.02c-.37.72-.8,1.29-1.41,1.88-.2-.26-.29-.35-.6-.56.66-.57,1.14-1.21,1.51-2,.18-.37.29-.71.35-.97l.78.2q-.07.13-.18.39c-.07.19-.12.27-.14.34q.1-.01,1.57-.03c.25,0,.37-.02.53-.08l.4.47Z"/>
            <path class="cls-3" d="M32.04,21.14c-.02.2-.02.26-.02.63v1.93c0,.35,0,.44.02.62h-.83c.02-.16.03-.38.03-.63v-1.93c0-.36,0-.45-.02-.63h.82ZM34.78,21.14c-.02.18-.03.25-.03.65v.95c0,1.09-.05,1.68-.16,2.12-.18.7-.56,1.23-1.19,1.63-.32.21-.62.35-1.18.54-.11-.34-.17-.46-.42-.83.59-.13.94-.28,1.3-.56.57-.43.77-.86.83-1.79.03-.3.03-.61.03-1.17v-.88c0-.36,0-.5-.03-.67h.84Z"/>
            <path class="cls-3" d="M38.39,22.71c-.02.13-.02.14-.03.57-.02,1.2-.19,1.87-.6,2.48-.36.54-.8.9-1.55,1.26-.16-.38-.24-.5-.48-.8.49-.17.76-.32,1.05-.6.62-.57.81-1.17.81-2.49,0-.21,0-.27-.03-.42h.82ZM40.83,21.83c-.08.12-.08.13-.24.49-.21.52-.56,1.04-.93,1.41-.24.25-.44.4-.72.58-.18-.29-.27-.4-.54-.64.4-.21.63-.37.88-.64.25-.27.43-.55.57-.89h-3.16c-.42,0-.57,0-.82.04v-.88c.23.04.42.06.83.06h3.15c.36,0,.42,0,.59-.06l.4.53Z"/>
            <path class="cls-3" d="M41.43,25.81c.52-.03,1.24-.24,1.79-.52.75-.38,1.31-.92,1.79-1.72.27-.45.43-.83.62-1.4.23.33.33.43.64.69-.51,1.28-1.08,2.11-1.91,2.75-.62.48-1.36.82-2.3,1.05-.24.06-.26.06-.4.12l-.22-.97ZM41.94,21.46c.72.52,1.09.84,1.55,1.35l-.52.76c-.48-.6-.98-1.06-1.54-1.42l.5-.69Z"/>
            <path class="cls-3" d="M48.38,21.58c-.02.08-.03.08-.03.14v.12s-.04.2-.04.2l-.02.17c-.25,2.01-.72,3.39-1.53,4.47-.28-.31-.4-.42-.69-.6.36-.42.61-.85.86-1.49.26-.65.47-1.52.57-2.4.04-.29.05-.52.05-.68v-.1l.83.18ZM50.09,21.41c0,.32.12,1.01.25,1.61.29,1.3.72,2.24,1.34,3.03-.31.22-.43.34-.66.64-.8-1.11-1.36-2.72-1.6-4.61-.04-.29-.05-.4-.09-.5l.75-.17ZM50.6,20.99c.22.36.36.66.5,1.13l-.46.17c-.14-.45-.27-.75-.49-1.14l.45-.15ZM51.43,22c-.14-.43-.29-.78-.48-1.11l.45-.15c.23.37.36.67.49,1.09l-.46.17Z"/>
            <path class="cls-3" d="M52.51,22.84c.56.26,1.15.61,1.6.95l-.38.79c-.4-.36-1.08-.78-1.63-1.02l.4-.72ZM52.24,25.98c.47,0,1.1-.17,1.74-.46,1.1-.45,2.01-1.6,2.44-3.09.23.29.35.41.63.62-.75,2.12-2.02,3.27-4.18,3.76-.26.06-.31.08-.42.12l-.21-.96ZM52.97,21.15c.57.25,1.17.59,1.6.9l-.38.77c-.49-.39-1.17-.8-1.61-.96l.39-.71ZM56.11,21.01c.27.33.43.6.63,1.03l-.42.26c-.2-.43-.37-.71-.63-1.04l.42-.25ZM57.04,21.86c-.18-.39-.38-.71-.61-1.02l.4-.25c.27.32.44.59.63.99l-.42.27Z"/>
            <path class="cls-3" d="M59.14,21.23q-.03.2-.06,1.57c-.04,1.37-.18,2.16-.49,2.88-.21.48-.43.84-.83,1.3-.23-.35-.33-.46-.61-.68.3-.28.44-.47.62-.81.43-.81.57-1.71.57-3.67,0-.39,0-.45-.02-.64l.82.05ZM60.74,21.14c-.03.2-.04.32-.04.67l-.03,3.99c.42-.23.66-.44.92-.8.28-.38.45-.76.59-1.28.21.32.29.41.57.66-.25.69-.56,1.22-.96,1.63-.34.34-.66.55-1.28.84-.13.06-.18.08-.26.13l-.38-.48c.04-.2.05-.36.05-.74l.03-3.95v-.21c0-.17,0-.33-.02-.46h.82Z"/>
            <path class="cls-3" d="M63.76,26.97c.03-.22.04-.41.04-.78v-4.49c0-.34-.01-.52-.04-.71h.83c-.03.21-.03.3-.03.74v1.3c.83.34,1.77.85,2.74,1.48l-.42.83c-.5-.4-1.13-.8-2.13-1.34-.14-.08-.16-.08-.21-.12.02.2.02.28.02.48v1.85c0,.36,0,.55.03.78h-.83Z"/>
            <path class="cls-3" d="M68.87,23.29c.32.31.5.5.75.78q.33.39.38.43c.31-.31.57-.59.79-.88.26-.34.59-.86.73-1.14t.04-.06s0-.02.01-.04c-.06,0-.15.01-.28.01h-2.88c-.49,0-.55,0-.77.03v-.89c.23.04.37.05.78.05h3.35c.26,0,.35-.01.5-.06l.42.55c-.09.11-.13.16-.27.41-.57,1.07-1.21,1.93-1.95,2.65.25.34.48.67.79,1.17l-.63.59c-.34-.63-.66-1.11-1.16-1.76-.46-.6-.77-.94-1.21-1.35l.59-.5Z"/>
            <path class="cls-3" d="M73.83,26.97c.03-.22.04-.41.04-.78v-4.49c0-.34-.01-.52-.04-.71h.83c-.03.21-.03.3-.03.74v1.3c.83.34,1.77.85,2.74,1.48l-.42.83c-.5-.4-1.13-.8-2.13-1.34-.14-.08-.16-.08-.21-.12.02.2.02.28.02.48v1.85c0,.36,0,.55.03.78h-.83Z"/>
            <path class="cls-3" d="M79.93,21.58c-.02.08-.03.08-.03.14v.12s-.04.2-.04.2l-.02.17c-.25,2.01-.72,3.39-1.53,4.47-.28-.31-.4-.42-.69-.6.36-.42.61-.85.86-1.49.26-.65.47-1.52.57-2.4.04-.29.05-.52.05-.68v-.1l.83.18ZM81.64,21.41c0,.32.12,1.01.25,1.61.29,1.3.72,2.24,1.34,3.03-.31.22-.43.34-.66.64-.8-1.11-1.36-2.72-1.6-4.61-.04-.29-.05-.4-.09-.5l.75-.17ZM82.15,20.99c.22.36.36.66.5,1.13l-.46.17c-.14-.45-.27-.75-.49-1.14l.45-.15ZM82.98,22c-.14-.43-.29-.78-.48-1.11l.45-.15c.23.37.36.67.49,1.09l-.46.17Z"/>
            <path class="cls-3" d="M88.1,22.09c-.08.12-.09.15-.19.47-.19.64-.53,1.46-.77,1.93-.62,1.16-1.46,1.99-2.75,2.68-.19-.38-.27-.5-.5-.72.51-.25.81-.42,1.18-.7.43-.32.68-.57.99-.97-.42-.42-.78-.71-1.23-1l.46-.62c.51.33.76.52,1.21.94.28-.5.49-.99.67-1.65l-1.88.02c-.37.72-.8,1.29-1.41,1.88-.2-.26-.29-.35-.6-.56.66-.57,1.14-1.21,1.51-2,.18-.37.29-.71.35-.97l.78.2q-.07.13-.18.39c-.07.19-.12.27-.14.34q.1-.01,1.57-.03c.25,0,.37-.02.53-.08l.4.47Z"/>
            <path class="cls-3" d="M88.58,23.48c.27.04.38.05.98.05h3.21c.6,0,.71,0,.98-.05v.97c-.24-.04-.31-.04-.98-.04h-3.2c-.68,0-.74,0-.98.04v-.97Z"/>
            <path class="cls-3" d="M98.97,21.68q-.07.02-.51.19c-.34.13-.54.18-1.01.29q0,.95-.02,1.18h1.28c.41,0,.51,0,.73-.05v.84c-.22-.03-.34-.04-.72-.04h-1.33c-.07.65-.19,1.12-.4,1.53s-.56.8-.98,1.11c-.17.13-.28.2-.56.35-.17-.36-.27-.49-.52-.74.43-.18.66-.33.93-.59.36-.34.59-.74.69-1.19.02-.12.04-.24.07-.47h-1.49c-.38,0-.5,0-.72.04v-.84c.22.04.33.05.74.05h1.54c.01-.29.01-.57.01-1.06-.49.08-.68.1-1.67.16-.06-.31-.09-.42-.22-.76.19.01.28.01.37.01.81,0,1.84-.16,2.58-.41.35-.12.52-.2.73-.33l.48.71Z"/>
            <path class="cls-3" d="M101.72,21.72c-.05-.34-.08-.46-.14-.66l.79-.15c0,.18.03.39.07.66l.1.61,1.27-.23c.29-.06.42-.09.58-.15l.13.84q-.16.01-.58.09l-1.27.23.18,1.15,1.42-.26c.25-.05.46-.1.63-.16l.13.84c-.13,0-.15,0-.28.04-.04,0-.07,0-.1.01-.04,0-.12.02-.24.04l-1.43.27.22,1.36c.07.46.08.48.14.72l-.81.17c0-.21-.03-.41-.08-.74l-.22-1.38-1.49.27c-.29.06-.4.08-.62.15l-.12-.86c.21,0,.38-.02.64-.07l1.46-.27-.18-1.15-1.12.2c-.28.06-.5.1-.66.16l-.12-.86c.22,0,.41-.03.66-.08l1.12-.2-.09-.6Z"/>
            <path class="cls-3" d="M105.46,25.81c.52-.03,1.24-.24,1.79-.52.75-.38,1.31-.92,1.79-1.72.27-.45.43-.83.62-1.4.23.33.33.43.64.69-.51,1.28-1.08,2.11-1.91,2.75-.62.48-1.36.82-2.3,1.05-.24.06-.26.06-.4.12l-.22-.97ZM105.97,21.46c.72.52,1.09.84,1.55,1.35l-.52.76c-.48-.6-.98-1.06-1.54-1.42l.5-.69Z"/>
            <path class="cls-3" d="M115.6,22.51c-.05.13-.06.22-.07.47-.02.79-.08,1.87-.14,2.33-.16,1.21-.37,1.5-1.09,1.5-.23,0-.43-.02-.75-.08-.01-.44-.03-.57-.14-.9.36.11.6.16.79.16.26,0,.35-.15.45-.76.07-.48.13-1.44.13-2.24h-1.4c-.08.88-.21,1.41-.48,2.01-.33.74-.87,1.38-1.63,1.94-.21-.37-.29-.48-.54-.74.75-.46,1.25-1.02,1.57-1.77.16-.39.25-.73.31-1.22.01-.1.03-.17.03-.22h-1c-.37,0-.45.01-.65.04v-.86c.2.04.36.06.66.06h1.05c.02-.27.03-.68.03-.88v-.18c0-.09,0-.15-.02-.27l.81.02c-.01.09-.02.12-.02.22,0,.04,0,.08,0,.13q-.01.15-.03.51c0,.15,0,.22-.02.44h1.34c.27,0,.33-.01.48-.07l.34.35Z"/>
            <path class="cls-3" d="M117.59,21.15c-.02.19-.03.36-.04.71l-.03,4c.63-.14,1.19-.41,1.65-.77.55-.44.93-.92,1.23-1.6.24.36.31.46.57.71-.42.74-.8,1.21-1.35,1.63-.6.47-1.22.74-2.19.96-.16.04-.23.06-.36.12l-.38-.54c.04-.19.05-.32.05-.72l.03-3.78q0-.49-.03-.72h.86Z"/>
            <path class="cls-3" d="M121.59,23.48c.27.04.38.05.98.05h3.21c.6,0,.71,0,.98-.05v.97c-.24-.04-.31-.04-.98-.04h-3.2c-.68,0-.74,0-.98.04v-.97Z"/>
            <path class="cls-3" d="M128.82,27.28c-.34-.56-.49-.87-.66-1.38-.22-.64-.32-1.26-.32-1.93s.1-1.24.31-1.87c.17-.51.32-.82.66-1.38h.84c-.42.62-.6.93-.77,1.39-.21.57-.31,1.17-.31,1.86s.1,1.34.32,1.92c.17.46.34.77.76,1.39h-.84Z"/>
            <path class="cls-3" d="M131.96,21.58c-.02.08-.02.08-.03.14v.12s-.04.2-.04.2l-.02.17c-.25,2.01-.72,3.39-1.53,4.47-.28-.31-.4-.42-.69-.6.36-.42.61-.85.86-1.49.26-.65.47-1.52.57-2.4.04-.29.05-.52.05-.68v-.1l.82.18ZM133.67,21.41c0,.32.12,1.01.25,1.61.29,1.3.72,2.24,1.34,3.03-.31.22-.44.34-.66.64-.8-1.11-1.36-2.72-1.6-4.61-.04-.29-.05-.4-.08-.5l.75-.17ZM135.39,21.82c0,.45-.31.81-.7.81s-.69-.36-.69-.81.31-.81.69-.81.7.36.7.81ZM134.3,21.82c0,.25.17.46.39.46s.4-.21.4-.46-.17-.46-.4-.46-.39.2-.39.46Z"/>
            <path class="cls-3" d="M140.34,23.27c-.06.13-.1.22-.17.44-.31,1.03-.77,1.81-1.4,2.37-.43.38-.82.62-1.58.95-.13-.35-.21-.47-.47-.81.74-.22,1.21-.48,1.68-.92.45-.43.71-.86.97-1.64h-2.94c-.4,0-.55,0-.77.03v-.85c.23.04.36.05.78.05h2.87c.37,0,.49-.01.68-.06l.34.45ZM136.17,21.15c.2.04.33.05.71.05h2.1c.38,0,.51,0,.71-.05v.86c-.19-.03-.3-.04-.69-.04h-2.13c-.39,0-.51,0-.69.04v-.86Z"/>
            <path class="cls-3" d="M145.74,22.09c-.08.12-.09.15-.19.47-.19.64-.53,1.46-.77,1.93-.62,1.16-1.46,1.99-2.75,2.68-.19-.38-.27-.5-.5-.72.51-.25.81-.42,1.18-.7.43-.32.68-.57.99-.97-.42-.42-.78-.71-1.23-1l.46-.62c.51.33.76.52,1.21.94.28-.5.49-.99.67-1.65l-1.88.02c-.37.72-.8,1.29-1.41,1.88-.2-.26-.29-.35-.6-.56.66-.57,1.14-1.21,1.51-2,.18-.37.29-.71.35-.97l.78.2q-.07.13-.18.39c-.07.19-.12.27-.14.34q.1-.01,1.57-.03c.25,0,.37-.02.53-.08l.4.47Z"/>
            <path class="cls-3" d="M147.58,26.38c0,.32.01.57.03.84h-.72c.03-.25.04-.49.04-.84v-2.07c0-.34,0-.5.01-.78-.21.39-.3.54-.52.8-.09-.31-.18-.53-.34-.8.47-.55.83-1.16,1.12-1.95.14-.39.21-.62.25-.88l.69.22c-.04.1-.08.22-.14.41-.07.23-.24.67-.41,1.06v3.98ZM150.21,21.68c0-.34-.01-.62-.04-.87h.73c-.02.27-.04.52-.04.87v.62h.17c.27,0,.43-.01.59-.04v.77c-.16-.01-.36-.03-.57-.03h-.19v3.27c0,.36-.07.58-.21.69-.13.11-.29.13-.74.13-.22,0-.38,0-.64-.03-.04-.31-.08-.49-.19-.79.34.05.53.07.74.07.34,0,.39-.02.39-.17v-3.17h-1.64c-.25,0-.51.01-.71.04v-.78c.19.03.4.04.68.04h1.67v-.62ZM148.66,23.47c.41.59.64.99.93,1.63l-.56.46c-.29-.74-.5-1.14-.89-1.7l.53-.39Z"/>
            <path class="cls-3" d="M151.72,27.28c.43-.62.6-.93.77-1.39.22-.58.32-1.2.32-1.92s-.1-1.28-.31-1.86c-.18-.46-.35-.78-.77-1.39h.85c.34.55.48.86.66,1.38.21.64.31,1.2.31,1.87s-.1,1.29-.31,1.93c-.18.51-.32.82-.66,1.38h-.85Z"/>
            <path class="cls-3" d="M159.93,20.7l-4.57,6.58h-.89l4.56-6.58h.89Z"/>
            <path class="cls-3" d="M2.12,30.59c.26.23.39.35.55.52.15-.08.23-.14.38-.24-.16-.17-.33-.34-.6-.54l.43-.35c.28.2.42.33.62.53.23-.2.37-.34.62-.66h-1.35c-.48.5-.99.85-1.65,1.16-.12-.31-.19-.43-.36-.64.66-.27,1.08-.53,1.49-.9.29-.27.46-.5.55-.73l.69.15s-.05.07-.08.12c-.08.13-.09.14-.14.22h.93c.26,0,.4,0,.51-.04l.38.48q-.08.09-.16.22c-.09.13-.39.5-.57.7-.39.43-.8.77-1.3,1.07h.43c-.02.12-.02.22-.02.39,0,.45.08.81.25,1.13.36.69,1.01,1.08,2.09,1.23-.11.22-.2.48-.28.79-.63-.13-1.17-.38-1.59-.72-.39-.32-.61-.64-.79-1.16-.27.98-.98,1.57-2.27,1.88-.08-.33-.14-.46-.3-.76,1.49-.21,2.24-1.02,2.24-2.44,0-.04,0-.08,0-.2-.3.16-.45.22-.86.36l.34.11c-.21.56-.38.91-.72,1.39l-.57-.31c.33-.43.51-.75.63-1.09-.33.11-.41.13-.66.18-.09-.29-.15-.43-.31-.7.59-.09,1-.2,1.46-.39-.17-.19-.25-.27-.48-.46l.49-.34ZM5.29,32.29c-.3.55-.52.87-.87,1.25l-.53-.39c.36-.36.57-.68.8-1.19l.6.34Z"/>
            <path class="cls-3" d="M7.27,28.93c-.07.24-.1.42-.21,1.35-.04.29-.06.53-.07.7h.02s.01-.04.03-.15c.06-.25.21-.59.36-.83.32-.48.67-.71,1.09-.71.39,0,.73.22.98.63.29.47.41,1.04.41,1.86,0,1.35-.52,2.36-1.48,2.88-.29.16-.69.3-1.12.39-.12-.4-.18-.55-.34-.83.57-.08.91-.18,1.26-.4.66-.41.97-1.08.97-2.14,0-1.01-.28-1.57-.77-1.57-.22,0-.42.12-.62.37-.45.57-.72,1.43-.72,2.26v.15h-.69s0-.06,0-.08v-.13c0-.2-.02-.72-.02-.86,0-.57.03-1.34.08-1.83l.09-.87c.01-.12.02-.15.02-.24l.73.05Z"/>
            <path class="cls-3" d="M15.13,29.68q-.07.02-.48.19c-.33.13-.51.18-.96.29q0,.95-.02,1.18h1.22c.39,0,.49,0,.7-.05v.84c-.21-.03-.32-.04-.69-.04h-1.27c-.06.65-.18,1.12-.38,1.53s-.53.8-.94,1.11c-.16.13-.27.2-.53.35-.17-.36-.26-.49-.5-.74.41-.18.63-.33.89-.59.34-.34.56-.74.66-1.19.02-.12.04-.24.06-.47h-1.42c-.37,0-.48,0-.69.04v-.84c.21.04.31.05.7.05h1.47c.01-.29.01-.57.01-1.06-.46.08-.64.1-1.59.16-.06-.31-.09-.42-.21-.76.18.01.27.01.36.01.77,0,1.75-.16,2.46-.41.33-.12.5-.2.69-.33l.46.71Z"/>
            <path class="cls-3" d="M16.22,31.48c.25.04.36.05.93.05h3.06c.57,0,.68,0,.93-.05v.97c-.23-.04-.29-.04-.94-.04h-3.05c-.64,0-.71,0-.93.04v-.97Z"/>
            <path class="cls-3" d="M25.39,35.07c-.4-.62-1.19-1.56-1.76-2.08-.57.81-1.35,1.53-2.19,2.02-.15-.36-.23-.5-.46-.78.59-.26,1.34-.86,1.88-1.51.52-.62.91-1.32,1.19-2.11l.03-.08.02-.05s0-.03.02-.06c-.06,0-.08,0-.13,0h-.05s-1.72.04-1.72.04c-.31,0-.45.02-.63.05l-.02-.89c.16.04.27.04.5.04h.14l1.92-.03c.32,0,.37-.01.51-.08l.43.62c-.06.08-.13.22-.18.38-.22.64-.54,1.3-.84,1.79.64.53.95.86,1.9,1.98l-.55.74ZM25.17,28.9c.25.33.41.6.6,1.03l-.38.26c-.19-.43-.35-.71-.6-1.04l.38-.25ZM26.06,29.75c-.17-.39-.36-.71-.59-1.02l.36-.22c.26.32.42.59.6.99l-.37.25Z"/>
            <path class="cls-3" d="M27.55,29.42c.35.76.52,1.25.77,2.23l-.74.32c-.16-.8-.44-1.65-.73-2.26l.7-.29ZM31.16,29.63c-.05.15-.07.21-.16.69-.22,1.26-.68,2.41-1.27,3.23-.45.63-.95,1.09-1.65,1.53-.19-.37-.28-.49-.53-.76.67-.35,1.15-.76,1.59-1.34.41-.55.7-1.15.94-1.99.17-.61.27-1.16.29-1.58l.79.22Z"/>
            <path class="cls-3" d="M31.68,31.48c.25.04.36.05.93.05h3.06c.57,0,.68,0,.93-.05v.97c-.23-.04-.29-.04-.94-.04h-3.05c-.64,0-.71,0-.93.04v-.97Z"/>
            <path class="cls-3" d="M41.99,30.66c-.07.12-.08.14-.16.34-.33.85-.74,1.44-1.41,2.05-.22-.3-.31-.38-.57-.57.39-.27.69-.58.95-.99.08-.14.12-.2.22-.41-.09.02-.13.03-.22.04-.58.08-1.17.18-1.77.28v1.58q0,.48.02.6c.04.27.22.35.81.35.66,0,1.29-.1,1.76-.27l.04.95c-.15,0-.2,0-.35.03-.62.08-1.04.12-1.42.12-.46,0-.8-.04-1.02-.12-.23-.08-.43-.34-.49-.64-.05-.22-.06-.32-.06-.88v-1.6l-.54.08q-.45.07-.64.13l-.07-.87c.06,0,.11,0,.14,0,.1,0,.35-.02.51-.05l.61-.09v-.96c0-.35,0-.43-.03-.67h.79c-.03.2-.04.35-.04.65v.88l2.09-.31c.3-.04.31-.05.44-.12l.42.46Z"/>
            <path class="cls-3" d="M42.36,31.48c.25.04.36.05.93.05h3.06c.57,0,.68,0,.93-.05v.97c-.23-.04-.29-.04-.94-.04h-3.05c-.64,0-.71,0-.93.04v-.97Z"/>
            <path class="cls-3" d="M48.24,30.84c.53.26,1.1.61,1.53.95l-.36.79c-.38-.36-1.03-.78-1.55-1.02l.38-.72ZM47.98,33.98c.45,0,1.05-.17,1.66-.46,1.05-.45,1.91-1.6,2.32-3.09.22.29.33.41.6.62-.71,2.12-1.92,3.27-3.98,3.76-.25.06-.29.08-.4.12l-.2-.96ZM48.68,29.15c.54.25,1.11.59,1.53.9l-.37.77c-.46-.39-1.11-.8-1.53-.96l.37-.71ZM51.66,29.01c.25.33.41.6.6,1.03l-.4.26c-.19-.43-.35-.71-.6-1.04l.4-.25ZM52.55,29.86c-.17-.39-.36-.71-.59-1.02l.38-.25c.26.32.42.59.6.99l-.4.27Z"/>
            <path class="cls-3" d="M57.41,34.89c-.48-.71-1.14-1.5-1.76-2.08-.65.88-1.31,1.5-2.19,2.02-.16-.36-.23-.48-.46-.78.44-.21.72-.4,1.15-.77.87-.74,1.55-1.76,1.93-2.85l.06-.18q-.09,0-1.9.04c-.28,0-.43.02-.62.06l-.02-.9c.16.04.27.04.51.04h.14l2.02-.03c.32,0,.37-.01.51-.08l.38.48c-.08.11-.12.2-.18.38-.26.75-.54,1.36-.9,1.93.36.29.67.59,1.06,1.02q.14.15.84.97l-.55.73Z"/>
            <path class="cls-3" d="M61.12,31.8c-.03.81-.16,1.39-.4,1.88-.3.62-.72,1-1.5,1.38-.14-.36-.22-.48-.46-.77.69-.26,1.12-.63,1.36-1.17.15-.32.23-.78.25-1.32h-1.4c-.39,0-.52,0-.73.03v-.83c.22.04.34.05.74.05h3.36c.39,0,.52,0,.74-.05v.83c-.21-.03-.34-.03-.73-.03h-1.23ZM58.81,29.23c.21.04.33.05.74.05h2.2c.41,0,.53,0,.74-.05v.85c-.19-.03-.33-.04-.73-.04h-2.23c-.4,0-.54,0-.73.04v-.85Z"/>
            <path class="cls-3" d="M63.66,31.48c.25.04.36.05.93.05h3.06c.57,0,.68,0,.93-.05v.97c-.23-.04-.29-.04-.94-.04h-3.05c-.64,0-.71,0-.93.04v-.97Z"/>
            <path class="cls-3" d="M70.78,29.72c-.05-.34-.08-.46-.14-.66l.76-.15c0,.18.03.39.07.66l.09.61,1.21-.23c.28-.06.4-.09.55-.15l.12.84q-.16.01-.55.09l-1.21.23.17,1.15,1.35-.26c.24-.05.44-.1.6-.16l.12.84c-.12,0-.14,0-.26.04-.03,0-.06,0-.09.01-.04,0-.12.02-.23.04l-1.37.27.21,1.36c.07.46.08.48.14.72l-.77.17c0-.21-.03-.41-.07-.74l-.21-1.38-1.42.27c-.28.06-.38.08-.59.15l-.12-.86c.2,0,.36-.02.61-.07l1.39-.27-.17-1.15-1.07.2c-.26.06-.48.1-.63.16l-.12-.86c.21,0,.39-.03.63-.08l1.07-.2-.09-.6Z"/>
            <path class="cls-3" d="M75.29,31.38c-.28,0-.42,0-.59.02.02-.17.02-.34.02-.61v-.81c0-.27,0-.42-.02-.6.17.02.35.03.64.03h1.19c0-.3-.01-.46-.04-.67h.71c-.02.2-.03.36-.03.67h1.3c.29,0,.47,0,.64-.03-.02.17-.02.32-.02.6v.81c0,.29,0,.43.02.61-.17-.01-.35-.02-.59-.02h-1.34v.53h1.58c.28,0,.43,0,.58-.03-.02.2-.02.36-.02.68v1c0,.34,0,.53.03.74h-.66v-.33h-1.51v.36c0,.46,0,.67.03.92h-.71c.03-.26.04-.53.04-.92v-.35h-1.42v.33h-.66c.02-.24.03-.46.03-.74v-1c0-.27,0-.47-.02-.67.16.01.32.02.57.02h1.51v-.53h-1.24ZM75.1,32.57v.71h1.43v-.71h-1.43ZM75.34,30.09v.65h1.19v-.65h-1.19ZM77.16,30.75h1.29v-.65h-1.29v.65ZM77.16,33.28h1.51v-.71h-1.51v.71Z"/>
            <path class="cls-3" d="M84.68,28.7l-4.35,6.58h-.84l4.34-6.58h.85Z"/>
            <path class="cls-3" d="M88.39,30.71c-.02.13-.02.14-.02.57-.02,1.2-.18,1.87-.57,2.48-.34.54-.76.9-1.48,1.26-.15-.38-.22-.5-.45-.8.46-.17.72-.32,1-.6.59-.57.77-1.17.77-2.49,0-.21,0-.27-.03-.42h.78ZM90.72,29.83c-.08.12-.08.13-.23.49-.2.52-.53,1.04-.88,1.41-.23.25-.42.4-.69.58-.17-.29-.26-.4-.52-.64.38-.21.6-.37.84-.64.23-.27.41-.55.54-.89h-3.01c-.4,0-.54,0-.78.04v-.88c.22.04.4.06.79.06h3c.34,0,.39,0,.56-.06l.38.53Z"/>
            <path class="cls-3" d="M91.44,30.84c.53.26,1.1.61,1.53.95l-.36.79c-.38-.36-1.03-.78-1.55-1.02l.38-.72ZM91.19,33.98c.45,0,1.05-.17,1.66-.46,1.05-.45,1.91-1.6,2.32-3.09.22.29.33.41.6.62-.71,2.12-1.92,3.27-3.98,3.76-.25.06-.29.08-.4.12l-.2-.96ZM91.89,29.15c.54.25,1.11.59,1.53.9l-.37.77c-.46-.39-1.11-.8-1.53-.96l.37-.71ZM94.87,29.01c.25.33.41.6.6,1.03l-.4.26c-.19-.43-.35-.71-.6-1.04l.4-.25ZM95.76,29.86c-.17-.39-.36-.71-.59-1.02l.38-.25c.26.32.42.59.6.99l-.4.27Z"/>
            <path class="cls-3" d="M99.01,30.71c-.02.13-.02.14-.02.57-.02,1.2-.18,1.87-.57,2.48-.34.54-.76.9-1.48,1.26-.15-.38-.22-.5-.45-.8.46-.17.72-.32,1-.6.59-.57.77-1.17.77-2.49,0-.21,0-.27-.03-.42h.78ZM101.34,29.83c-.08.12-.08.13-.23.49-.2.52-.53,1.04-.88,1.41-.23.25-.42.4-.69.58-.17-.29-.26-.4-.52-.64.38-.21.6-.37.84-.64.23-.27.41-.55.54-.89h-3.01c-.4,0-.55,0-.78.04v-.88c.22.04.4.06.79.06h3c.34,0,.39,0,.56-.06l.38.53Z"/>
            <path class="cls-3" d="M101.92,33.81c.49-.03,1.18-.24,1.7-.52.72-.38,1.25-.92,1.7-1.72.25-.45.41-.83.59-1.4.22.33.32.43.61.69-.49,1.28-1.03,2.11-1.82,2.75-.58.48-1.3.82-2.19,1.05-.23.06-.25.06-.38.12l-.21-.97ZM102.4,29.46c.68.52,1.04.84,1.48,1.35l-.49.76c-.46-.6-.93-1.06-1.46-1.42l.48-.69Z"/>
            <path class="cls-3" d="M108.5,31.69s-.02.08-.02.1c0,.01,0,.06-.02.12-.18,1.03-.54,2.04-.96,2.72-.27-.24-.39-.32-.67-.46.44-.58.89-1.83.97-2.7l.71.21ZM111.11,30.19c.12,0,.18,0,.31,0-.28-.11-.46-.41-.46-.77,0-.44.3-.81.66-.81s.67.36.67.81c0,.34-.17.64-.44.76v.83c-.19-.03-.28-.04-.73-.04h-1.33v3.4c0,.38,0,.6.03.78h-.78c.02-.19.04-.4.04-.79v-3.39h-1.27c-.45,0-.53,0-.72.04v-.86c.2.04.31.05.73.05h1.26v-.39c0-.4-.01-.55-.04-.72h.78c-.02.19-.02.29-.02.74v.37h1.31ZM111.05,31.48c.18.91.64,2.12,1.02,2.67-.29.18-.4.26-.66.48-.41-.78-.67-1.51-.94-2.62-.05-.19-.05-.22-.09-.32l.68-.21ZM111.25,29.42c0,.25.17.46.37.46s.38-.21.38-.46-.17-.46-.38-.46-.37.2-.37.46Z"/>
            <path class="cls-3" d="M115.29,31.8c-.03.81-.16,1.39-.4,1.88-.3.62-.72,1-1.5,1.38-.14-.36-.22-.48-.46-.77.69-.26,1.12-.63,1.36-1.17.15-.32.23-.78.25-1.32h-1.4c-.39,0-.52,0-.73.03v-.83c.22.04.34.05.74.05h3.36c.39,0,.52,0,.74-.05v.83c-.21-.03-.34-.03-.73-.03h-1.23ZM112.99,29.23c.21.04.33.05.74.05h2.2c.41,0,.53,0,.74-.05v.85c-.19-.03-.33-.04-.73-.04h-2.23c-.4,0-.54,0-.73.04v-.85Z"/>
            <path class="cls-3" d="M118.37,34.97c.03-.22.04-.41.04-.78v-4.49c0-.34-.01-.52-.04-.71h.79c-.02.21-.02.3-.02.74v1.3c.79.34,1.69.85,2.61,1.48l-.4.83c-.48-.4-1.07-.8-2.03-1.34-.13-.08-.15-.08-.2-.12.02.2.02.28.02.48v1.85c0,.36,0,.55.02.78h-.79Z"/>
            <path class="cls-3" d="M126.38,29.93c-.05.12-.07.17-.1.32-.29,1.34-.62,2.18-1.18,2.93-.56.77-1.18,1.28-2.13,1.79-.16-.38-.24-.51-.51-.83.51-.2.83-.38,1.26-.71.89-.71,1.46-1.69,1.74-3.05h-2.73c-.38,0-.52,0-.72.04v-.91c.22.04.35.05.73.05h2.63c.32,0,.44-.01.61-.07l.39.46Z"/>
            <path class="cls-3" d="M131.51,31.27c-.06.13-.09.22-.16.44-.3,1.03-.73,1.81-1.33,2.37-.41.38-.78.62-1.5.95-.13-.35-.2-.47-.45-.81.7-.22,1.15-.48,1.59-.92.43-.43.67-.86.92-1.64h-2.79c-.38,0-.53,0-.73.03v-.85c.22.04.34.05.75.05h2.73c.36,0,.47-.01.65-.06l.33.45ZM127.55,29.15c.19.04.31.05.67.05h2c.36,0,.48,0,.67-.05v.86c-.18-.03-.29-.04-.66-.04h-2.03c-.37,0-.48,0-.66.04v-.86Z"/>
            <path class="cls-3" d="M136.69,29.53c-.1.1-.13.13-.21.25-.43.55-.86,1-1.35,1.44v2.99c0,.39,0,.59.03.78h-.8c.03-.2.03-.34.03-.76v-2.47c-.67.49-.99.67-2.05,1.13-.12-.36-.18-.48-.38-.8,1.13-.38,2.1-.96,3.01-1.82.51-.48.9-.97,1.07-1.31l.66.56Z"/>
            <path class="cls-3" d="M141.69,28.7l-4.35,6.58h-.84l4.34-6.58h.85Z"/>
            <path class="cls-3" d="M143.27,30.84c.53.26,1.1.61,1.53.95l-.36.79c-.38-.36-1.03-.78-1.55-1.02l.38-.72ZM143.02,33.98c.45,0,1.05-.17,1.66-.46,1.05-.45,1.91-1.6,2.32-3.09.22.29.33.41.6.62-.71,2.12-1.92,3.27-3.98,3.76-.25.06-.29.08-.4.12l-.2-.96ZM143.72,29.15c.54.25,1.11.59,1.53.9l-.37.77c-.46-.39-1.11-.8-1.53-.96l.37-.71ZM146.7,29.01c.25.33.41.6.6,1.03l-.4.26c-.19-.43-.35-.71-.6-1.04l.4-.25ZM147.59,29.86c-.17-.39-.36-.71-.59-1.02l.38-.25c.26.32.42.59.6.99l-.4.27Z"/>
            <path class="cls-3" d="M150.55,34.03h1.17c.27,0,.37,0,.53-.04v.78c-.17-.02-.28-.03-.53-.03h-2.96c-.26,0-.37,0-.53.03v-.78c.16.04.26.04.53.04h1.12v-2.26h-.77c-.21,0-.33,0-.53.04v-.81c.15.04.29.05.52.05h2.26c.24,0,.37-.01.53-.05v.79c-.16-.02-.24-.03-.52-.03h-.82v2.26Z"/>
            <path class="cls-3" d="M157.43,31.27c-.06.13-.09.22-.16.44-.3,1.03-.73,1.81-1.33,2.37-.41.38-.78.62-1.5.95-.13-.35-.2-.47-.45-.81.7-.22,1.15-.48,1.59-.92.43-.43.67-.86.92-1.64h-2.79c-.38,0-.53,0-.73.03v-.85c.22.04.34.05.75.05h2.73c.36,0,.47-.01.65-.06l.33.45ZM153.46,29.15c.19.04.31.05.67.05h2c.36,0,.48,0,.67-.05v.86c-.18-.03-.29-.04-.66-.04h-2.03c-.37,0-.48,0-.66.04v-.86Z"/>
            <path class="cls-3" d="M158.05,31.48c.25.04.36.05.93.05h3.06c.57,0,.68,0,.93-.05v.97c-.23-.04-.29-.04-.94-.04h-3.05c-.64,0-.71,0-.93.04v-.97Z"/>
            <path class="cls-3" d="M164.18,34.97c.03-.22.04-.41.04-.78v-4.49c0-.34-.01-.52-.04-.71h.79c-.02.21-.02.3-.02.74v1.3c.79.34,1.69.85,2.61,1.48l-.4.83c-.48-.4-1.07-.8-2.03-1.34-.13-.08-.15-.08-.2-.12.02.2.02.28.02.48v1.85c0,.36,0,.55.02.78h-.79Z"/>
          </g>
          <g>
            <path class="cls-4" d="M30.15,13.8v-.31h-1.82v.31h-1.03v-1.85c-.14.41-.31.83-.7,1.4l-1.11-.5c.29-.33.76-.86,1.06-1.8.27-.84.26-1.22.26-3.51h4.34v2.93h-3.4c-.04.23-.05.27-.08.32h3.5v3.01h-1.01ZM31,6.7c-.18-.05-.37-.13-.61-.26v.85h-2.77v-.55c-.52.4-.83.58-1.04.71l-.8-.82c1-.42,2.03-1.29,2.42-2.19l1.17.08s.24.01.24.13c0,.02-.01.04-.02.06.54.5,1.3.87,2.01,1.14l-.6.84ZM30.07,9.29h-2.21c-.01.18-.01.2-.03.4h2.24v-.4ZM30.07,8.28h-2.19v.36h2.19v-.36ZM28.95,5.49c-.37.42-.55.59-.88.88h2.2c-.64-.34-.99-.61-1.31-.88ZM30.15,11.62h-1.82v1h1.82v-1ZM33.2,6.21c-.16.12-.17.12-.17.16v4.93h-1.08v-5.46l1.04.1c.1.01.28.04.28.17,0,.03-.03.07-.08.1ZM35.01,5s-.13.09-.13.14v7.35c0,1.03-.54,1.13-1.73,1.15l-.57-1.25c.21.01.7.02.93.02.09,0,.24,0,.24-.28v-7.59l1.1.13c.08.01.3.04.3.18,0,.04-.03.09-.13.15Z"/>
            <path class="cls-4" d="M40.53,5.18c-.17.1-.19.11-.26.26-.18.43-.29.68-.64,1.33l.15.08s.05.07.05.11c0,.09-.08.13-.12.17-.04.02-.16.11-.16.19v6.39h-1.23v-4.91c-.12.15-.23.27-.36.41l-1.08-.67c1.15-1.25,1.64-2.12,2.2-3.92l1.41.33c.08.02.11.08.11.11,0,.05-.04.1-.09.13ZM43.59,7.18v1.09h2.46v1.1h-2.46v1.08h2.8v1.2h-2.8v2.05h-1.25v-6.51h-.37c-.42.78-.77,1.23-1.17,1.71l-1.14-.6c1.09-1.13,1.56-2.01,2.07-3.75l1.29.39c.05.02.1.06.1.11,0,.03-.01.08-.06.11-.03.02-.18.09-.21.11s-.27.67-.31.78h4.03v1.15h-2.97Z"/>
            <path class="cls-4" d="M55.9,5.79c-.16.01-.18.03-.33.19-.54.61-1.14,1.17-1.78,1.68v5.74h-1.35v-4.74c-.73.48-1.46.94-2.71,1.53l-.94-.96c2.25-.88,4.62-2.65,6.25-4.58l.94.78s.18.17.18.26c0,.08-.04.09-.26.1Z"/>
            <path class="cls-4" d="M63.89,7.52c-.3.84-.52,1.46-1.24,2.59.27.23.53.45.9.82l-.8.93c-.18-.17-.39-.39-.84-.79-.83.93-1.6,1.68-3.42,2.63l-.97-1.01c1.75-.6,2.66-1.52,3.47-2.37-.45-.33-.96-.69-1.78-1.13l.66-.81c.65.28,1.09.52,1.83,1.02.65-.96.82-1.45.97-1.99h-2.76c-.71.99-1.24,1.63-1.95,2.19l-1-.74c1.52-1.03,2.55-2.88,3.02-4.22l1.18.34c.06.02.22.09.22.16,0,.06-.1.11-.25.17-.13.26-.33.68-.55,1.04h2.48c.13,0,.32-.15.48-.26l.8.83c-.19.16-.38.36-.46.6Z"/>
            <path class="cls-4" d="M67.98,5.25c-.16.12-.17.13-.17.16v4.55h-1.28v-5.08l1.28.11c.09.01.28.02.28.12,0,.05-.06.11-.11.15ZM72.45,5.18c-.14.14-.14.17-.14.47-.01.1.01.58.01.69,0,2.1-.02,2.95-.37,4-.64,1.91-2.04,2.7-3.16,3.27l-.94-1.04c2.21-.87,3.13-1.9,3.13-5.15,0-.26-.02-1.76-.08-2.62l1.38.08c.05,0,.27.01.27.14,0,.03-.01.08-.12.16Z"/>
            <path class="cls-4" d="M80.71,9.92l-1-.85c.67-.61,1.39-1.35,1.96-2.33h-6.74v-1.16h7.25c.14,0,.31-.16.38-.24l.99,1c-.53.78-1.66,2.42-2.83,3.58ZM79.76,7.29s-.15.14-.16.18c-.02.02-.06.78-.09.92-.37,3.08-2.19,4.43-2.76,4.85l-1.15-.68c2.27-1.57,2.78-3.29,2.69-5.53l1.26.06c.23.01.26.01.26.1,0,.03-.02.05-.05.1Z"/>
            <path class="cls-4" d="M87.55,7.52c-.61-.51-1.35-.97-2.21-1.36l.66-1.01c.71.31,1.58.78,2.26,1.33l-.71,1.03ZM90.71,10.45c-1.7,1.38-2.73,1.83-4.06,2.4-.05.15-.08.33-.16.33-.06,0-.16-.06-.24-.21l-.75-1.29c.86-.21,2.27-.57,4-1.86,1.65-1.23,2.68-2.65,3.16-3.3l.74,1.08c-.42.56-1.26,1.69-2.68,2.84Z"/>
            <path class="cls-4" d="M106.7,13.02c-1.11.09-2.11.13-3.09.13-3.18,0-3.52-.55-3.52-1.69v-6.58l1.2.17c.24.03.32.12.32.18,0,.02-.02.04-.1.12-.11.09-.15.12-.15.16v2.61c1.35-.25,2.79-.66,4.29-1.56l.89.88s.16.15.16.23c0,.06-.05.09-.1.09-.05,0-.14-.03-.29-.03-2.26.95-3.73,1.33-4.96,1.59v1.66c0,.62.03.96,1.83.96,1.21,0,2.4-.13,3.6-.31l-.09,1.4ZM106.93,6.7c-.57,0-1.01-.46-1.01-1.03s.45-1.03,1.01-1.03,1.02.45,1.02,1.03-.46,1.03-1.02,1.03ZM106.93,5.07c-.33,0-.58.27-.58.59s.25.59.58.59.58-.26.58-.59-.26-.59-.58-.59Z"/>
            <path class="cls-4" d="M110.2,12.55v-1.22h3.28v-4.36h-2.43v-1.22h6.3v1.22h-2.5v4.36h3.29v1.22h-7.93Z"/>
            <path class="cls-4" d="M127.49,7.52c-.3.84-.52,1.46-1.24,2.59.27.23.53.45.91.82l-.8.93c-.18-.17-.39-.39-.84-.79-.83.93-1.6,1.68-3.42,2.63l-.97-1.01c1.75-.6,2.66-1.52,3.47-2.37-.45-.33-.96-.69-1.78-1.13l.66-.81c.65.28,1.09.52,1.83,1.02.65-.96.82-1.45.97-1.99h-2.76c-.71.99-1.24,1.63-1.95,2.19l-1-.74c1.52-1.03,2.55-2.88,3.02-4.22l1.18.34c.06.02.22.09.22.16,0,.06-.1.11-.25.17-.13.26-.33.68-.55,1.04h2.48c.13,0,.32-.15.48-.26l.8.83c-.19.16-.38.36-.46.6Z"/>
            <path class="cls-4" d="M132.5,7.52c-.61-.51-1.35-.97-2.21-1.36l.66-1.01c.71.31,1.58.78,2.26,1.33l-.71,1.03ZM135.66,10.45c-1.7,1.38-2.73,1.83-4.06,2.4-.05.15-.08.33-.16.33-.06,0-.16-.06-.24-.21l-.75-1.29c.86-.21,2.27-.57,4-1.86,1.65-1.23,2.68-2.65,3.16-3.3l.74,1.08c-.42.56-1.26,1.69-2.68,2.84Z"/>
            <path class="cls-4" d="M147,8.24c-.13,3.12-.87,4.18-2.92,5.42l-.88-.84c1.9-1.04,2.58-2.08,2.61-4.58h-2.04v2.41h-1.28v-2.41h-2.02v-1.22h2.02v-2.07l1.19.13c.25.03.32.05.32.15,0,.05-.23.21-.23.27v1.52h2.04c0-.98,0-1.61-.02-2.23l1.1.15c.23.03.34.09.34.17,0,.03,0,.05-.1.12-.11.09-.12.1-.12.25v1.54h1.8v1.22h-1.81ZM148.16,4.94c.4.23.74.5,1.08.8l-.45.57c-.34-.3-.69-.57-1.09-.8l.46-.57ZM148.82,3.98c.43.24.75.47,1.09.78l-.45.57c-.33-.3-.67-.57-1.08-.8l.44-.55Z"/>
          </g>
        </g>
      </g>
    </g>
  </g>
</svg>