<?xml version="1.0" encoding="UTF-8"?>
<svg xmlns="http://www.w3.org/2000/svg" viewBox="0 0 167.6 27.6">
  <defs>
    <style>
      .cls-1, .cls-2 {
        fill: #b28247;
      }

      .cls-3 {
        isolation: isolate;
      }

      .cls-4 {
        fill: #231815;
      }

      .cls-5 {
        fill: #fff;
      }

      .cls-2 {
        mix-blend-mode: multiply;
      }
    </style>
  </defs>
  <g class="cls-3">
    <g id="_レイヤー_2" data-name="レイヤー 2">
      <g id="_テキスト1" data-name="テキスト1">
        <g>
          <g>
            <rect class="cls-1" width="167.6" height="17.49"/>
            <rect class="cls-2" width="8.29" height="17.49"/>
          </g>
          <g>
            <path class="cls-4" d="M3.34,26.57v.49h-.9c.02-.17.03-.34.03-.6v-4.01c0-.27,0-.4-.03-.59.17.01.32.02.6.02h3.98c.3,0,.43,0,.59-.02-.01.18-.02.32-.02.58v4.01c0,.26,0,.45.03.61h-.9v-.48h-3.36ZM6.71,22.67h-3.36v3.1h3.36v-3.1Z"/>
            <path class="cls-4" d="M9.1,23.8c.31.04.44.05,1.13.05h3.73c.69,0,.83,0,1.13-.05v.97c-.28-.04-.36-.04-1.14-.04h-3.72c-.79,0-.86,0-1.14.04v-.97Z"/>
            <path class="cls-4" d="M20.88,27.2c-.58-.71-1.39-1.5-2.15-2.08-.79.88-1.6,1.5-2.67,2.02-.2-.36-.28-.48-.57-.78.54-.21.88-.4,1.4-.77,1.06-.74,1.9-1.76,2.35-2.85l.08-.18q-.11,0-2.32.04c-.34,0-.53.02-.76.06l-.03-.9c.2.04.33.04.62.04h.17l2.46-.04c.39,0,.45-.01.62-.08l.46.48c-.09.11-.15.2-.22.38-.32.75-.67,1.36-1.09,1.93.44.29.82.59,1.29,1.02q.18.15,1.02.97l-.67.73Z"/>
            <path class="cls-4" d="M23.38,27.29c.04-.22.04-.41.04-.79v-4.49c0-.34-.01-.53-.04-.71h.96c-.03.21-.03.3-.03.74v1.3c.96.34,2.06.85,3.18,1.48l-.49.83c-.58-.4-1.31-.8-2.48-1.34-.16-.08-.18-.08-.24-.12.02.2.03.28.03.48v1.85c0,.36,0,.55.03.78h-.96Z"/>
            <path class="cls-4" d="M30.43,24.01s-.02.08-.03.1c0,.01-.01.06-.03.12-.22,1.03-.66,2.04-1.18,2.72-.33-.24-.48-.32-.81-.46.54-.58,1.09-1.83,1.18-2.7l.86.21ZM33.62,22.51c.15,0,.22,0,.38,0-.34-.11-.57-.41-.57-.77,0-.44.37-.8.81-.8s.81.36.81.8c0,.34-.21.64-.53.76v.83c-.23-.03-.34-.04-.89-.04h-1.62v3.4c0,.38,0,.59.03.78h-.95c.03-.19.04-.4.04-.79v-3.39h-1.55c-.54,0-.65,0-.88.04v-.86c.25.04.38.05.9.05h1.54v-.39c0-.4-.01-.55-.04-.72h.95c-.02.19-.03.29-.03.74v.37h1.6ZM33.54,23.8c.22.91.78,2.12,1.24,2.67-.36.18-.49.26-.8.48-.51-.78-.82-1.51-1.15-2.62-.06-.19-.06-.22-.11-.32l.83-.21ZM33.79,21.73c0,.25.2.46.46.46s.46-.21.46-.46-.2-.46-.46-.46-.46.2-.46.46Z"/>
            <path class="cls-4" d="M35.54,23.8c.31.04.44.05,1.13.05h3.73c.69,0,.83,0,1.13-.05v.97c-.28-.04-.36-.04-1.14-.04h-3.72c-.79,0-.86,0-1.14.04v-.97Z"/>
            <path class="cls-4" d="M48.28,22.49c-.07.1-.1.17-.18.42-.32,1.06-.82,2.01-1.44,2.7-.64.74-1.41,1.28-2.49,1.78-.2-.35-.29-.47-.59-.74.7-.29,1.09-.5,1.53-.83,1-.74,1.66-1.7,2.04-2.96l-2.11.04c-.43.68-.97,1.28-1.64,1.79-.21-.29-.31-.38-.68-.6.8-.55,1.3-1.11,1.81-2.03.22-.4.33-.67.36-.92l.96.19q-.04.06-.12.22s-.02.04-.09.2t-.09.18-.11.22c.09,0,.2-.01.34-.01l1.53-.02c.27,0,.35-.01.51-.07l.45.44Z"/>
            <path class="cls-4" d="M50.86,23.63c1.06-.2,2.61-.82,3.06-1.25l.56.79c-.08.03-.09.04-.15.06l-.18.09c-1.04.53-2.12.9-3.29,1.11v.92s0,.08,0,.11c0,.39.03.55.12.64.12.12.52.18,1.2.18.47,0,1.12-.04,1.62-.11.34-.04.49-.08.8-.17l.04.93c-.15,0-.18,0-.93.08-.41.04-1.29.08-1.72.08-.88,0-1.37-.09-1.64-.3-.2-.15-.3-.37-.34-.71-.01-.12-.02-.24-.02-.64v-3.25c0-.36,0-.47-.04-.64h.94c-.03.17-.04.29-.04.65v1.42ZM55.71,21.78c0,.45-.37.81-.81.81s-.81-.36-.81-.81.37-.8.81-.8.81.36.81.8ZM54.44,21.78c0,.25.2.46.46.46s.46-.21.46-.46-.2-.46-.46-.46-.46.2-.46.46Z"/>
            <path class="cls-4" d="M61.47,22.41c-.09.12-.1.15-.22.47-.22.64-.61,1.46-.9,1.93-.71,1.16-1.7,1.99-3.19,2.67-.22-.38-.31-.5-.58-.72.6-.25.95-.42,1.37-.7.5-.32.79-.57,1.15-.97-.49-.42-.91-.71-1.44-1l.53-.62c.59.33.88.53,1.41.94.33-.5.57-1,.79-1.65l-2.18.02c-.43.72-.93,1.29-1.64,1.88-.23-.26-.34-.35-.7-.56.77-.57,1.33-1.21,1.76-2,.2-.37.34-.71.41-.97l.91.2q-.08.13-.21.39c-.08.19-.13.27-.17.34q.11-.01,1.82-.03c.29,0,.43-.02.62-.08l.47.47Z"/>
            <path class="cls-4" d="M66.7,22.66v-.32s0-.22,0-.22c0-.46,0-.62-.04-.78h.9c-.02.16-.03.2-.03.47q0,.43,0,.85h.45c.5,0,.64,0,.91-.05v.85c-.25-.03-.44-.04-.9-.04h-.47c-.01.84-.01.89-.05,1.16-.1.9-.4,1.49-1.01,2.01-.38.32-.72.5-1.37.74-.13-.3-.22-.43-.53-.74.66-.2,1-.37,1.34-.67.47-.41.68-.88.74-1.68.01-.16.01-.33.03-.81h-1.81v1.05c0,.29,0,.41.03.59h-.91c.02-.15.03-.34.03-.6v-1.04h-.43c-.46,0-.65,0-.9.04v-.85c.27.04.41.05.91.05h.41v-.7c0-.29,0-.44-.04-.62h.92c-.03.23-.03.24-.03.6v.72h1.82Z"/>
            <path class="cls-4" d="M70.12,26.13c.6-.04,1.44-.24,2.07-.52.88-.38,1.53-.92,2.08-1.72.31-.45.5-.83.71-1.4.27.33.38.43.74.69-.6,1.28-1.26,2.11-2.22,2.75-.71.48-1.58.82-2.67,1.05-.28.06-.3.06-.46.12l-.26-.97ZM70.72,21.78c.83.52,1.27.84,1.81,1.35l-.6.76c-.56-.59-1.13-1.06-1.79-1.42l.58-.69Z"/>
            <path class="cls-4" d="M77.54,27.29c.03-.2.04-.39.04-.79v-4.49c0-.41-.01-.55-.04-.71h.96c-.02.19-.03.32-.03.74v1.3c.81.27,2.07.85,3.18,1.48l-.49.83c-.49-.35-1.48-.89-2.48-1.34-.16-.08-.18-.08-.24-.12.02.2.03.32.03.48v1.85c0,.38,0,.57.03.78h-.96ZM80.43,21.66c.31.33.5.59.73,1.03l-.49.26c-.23-.43-.43-.71-.73-1.04l.49-.25ZM81.51,22.51c-.21-.38-.44-.71-.71-1.02l.47-.25c.31.32.51.59.73.99l-.48.27Z"/>
            <path class="cls-4" d="M88.47,21.02l-5.31,6.58h-1.03l5.3-6.58h1.04Z"/>
            <path class="cls-4" d="M90.88,21.39c-.04.2-.06.41-.08.95-.03.65-.07,2.07-.07,2.57,0,.67.04.92.18,1.13.16.23.5.36.94.36.76,0,1.37-.43,1.7-1.2.15-.36.25-.69.32-1.18.38.31.5.38.85.54-.28.95-.49,1.4-.83,1.79-.53.59-1.22.89-2.1.89-.48,0-.93-.11-1.23-.31-.48-.32-.69-.86-.69-1.8,0-.36.01-1.06.05-2.82,0-.21,0-.36,0-.46,0-.2,0-.29-.03-.48h.98Z"/>
            <path class="cls-4" d="M98.3,24.19c.42-.22.77-.3,1.28-.3,1.13,0,1.87.59,1.87,1.49,0,.58-.29,1.08-.82,1.42-.43.27-1.04.41-1.74.41-.58,0-1.08-.08-1.69-.26,0-.36-.03-.52-.12-.92.55.25,1.23.39,1.78.39,1.02,0,1.7-.41,1.7-1.03,0-.5-.46-.81-1.24-.81-.9,0-2.04.49-2.72,1.17l-.54-.73c.22-.12.53-.34.92-.66.8-.67,1.32-1.16,2.09-1.95t.07-.08s.03-.03.05-.06h0s-.04,0-.06,0c-.28.04-1.13.09-1.74.1-.29,0-.45.02-.57.04l-.03-.83c.22.04.42.05.95.05.68,0,1.46-.04,1.99-.08.22-.02.27-.03.39-.08l.45.64q-.14.09-1.21,1.12c-.4.39-.73.67-1.12.96h.02s.05-.02.05-.02Z"/>
            <path class="cls-4" d="M103.08,27.37c0-.07,0-.11-.04-.27-.13-.82-.19-1.49-.19-2.23,0-.63.04-1.25.13-1.85q.04-.22.19-1.01c.05-.25.08-.45.08-.52v-.03l.95.1c-.28.61-.57,2.43-.56,3.52,0,.18,0,.28,0,.28v.08c0,.08,0,.15,0,.26h0l.04-.08.08-.2c.1-.28.11-.29.19-.48.02-.03.04-.09.08-.22l.58.26c-.41.81-.69,1.68-.69,2.14,0,.06,0,.08.01.19l-.84.05ZM104.67,22.78c.32.08.69.11,1.26.11.23,0,.39,0,.65-.01,0-.14,0-.3,0-.33v-.78c0-.15,0-.22-.03-.29h.88c-.04.18-.05.5-.05,1.01v.33c.5-.06.88-.14,1.16-.24l.03.79c-.06,0-.08,0-.2.04-.28.06-.64.12-.97.15v.16c0,.33.01.53.04.92l.02.36.02.29c.47.22.73.37,1.1.64.09.06.13.08.2.13l-.33.84c-.2-.22-.37-.35-.97-.74,0,.04,0,.06,0,.1,0,.15-.02.29-.06.39-.16.41-.65.66-1.33.66-.93,0-1.49-.43-1.49-1.15s.6-1.16,1.44-1.16c.26,0,.45.03.62.1-.01-.24-.03-.74-.05-1.49-.28,0-.44.01-.62.01-.27,0-.55,0-.88-.03-.11,0-.18,0-.21-.01h-.12s-.06,0-.06,0h-.04v-.81ZM106.08,25.72c-.45,0-.73.17-.73.46,0,.26.25.43.64.43.27,0,.47-.08.57-.22.06-.08.09-.19.09-.38,0-.08,0-.19,0-.19-.22-.08-.36-.11-.57-.11ZM109.22,21.62c0,.45-.37.81-.81.81s-.81-.36-.81-.81.37-.81.81-.81.81.36.81.81ZM107.95,21.62c0,.25.2.46.46.46s.46-.21.46-.46-.2-.46-.46-.46-.46.2-.46.46Z"/>
            <path class="cls-4" d="M111.47,24.39s.04-.05.13-.15c.22-.25.59-.41.9-.41s.63.16.78.4c.14.22.18.48.18,1.28,0,.5.03.64.15.75.08.06.2.1.37.1.37,0,.67-.26.88-.75.13-.32.23-.75.27-1.11.23.24.34.31.77.53-.3,1.45-.99,2.18-2.04,2.18-.54,0-.93-.21-1.1-.61-.08-.18-.12-.43-.12-.78v-.07c0-.25,0-.42,0-.49,0-.22-.01-.32-.05-.41-.05-.1-.18-.16-.32-.16-.38,0-.77.35-1.11.98-.21.4-.5,1.18-.59,1.6l-.9-.29c.1-.2.16-.37.39-.98q1.61-4.47,1.66-4.76l.95.24c-.1.19-.13.27-.34.81-.4,1.02-.71,1.79-.86,2.12h.01Z"/>
            <path class="cls-4" d="M121.54,23.09q-.03.06-.08.2c-.07.2-.08.2-.1.27.29.07.49.17.73.34.45.34.67.77.67,1.32,0,.76-.41,1.36-1.21,1.75-.41.2-.81.31-1.43.37-.08-.3-.14-.43-.37-.79.57,0,.93-.08,1.34-.28.56-.27.82-.61.82-1.09,0-.44-.29-.8-.79-.97-.38.83-.71,1.34-1.22,1.86-.63.67-1.25,1.01-1.83,1.01-.65,0-1.09-.5-1.09-1.23,0-.58.25-1.13.69-1.57.28-.27.54-.45.96-.63,0-.22.01-.5.03-.84-.08,0-.46,0-1.13-.03h-.13s-.08,0-.16,0v-.78c.32.07.73.11,1.31.11h.15q0-.14.03-.42c0-.09.01-.27.01-.4,0-.03,0-.06-.01-.11l.87.04c-.06.19-.08.37-.13.86,1.12-.06,2.12-.2,2.65-.37l.04.81c-.1,0-.12,0-.27.03-.77.13-1.91.23-2.47.25-.02.3-.03.53-.04.67.38-.08.54-.09.97-.09.08,0,.14,0,.27.01.08-.22.12-.37.14-.53l.79.22ZM118.07,24.94c-.21.27-.31.56-.31.85,0,.32.15.51.4.51.2,0,.39-.08.61-.27-.09-.46-.12-.9-.12-1.58-.31.2-.43.31-.57.48ZM119.44,25.52s.03-.04.08-.1c.33-.37.61-.82.87-1.4-.08,0-.11,0-.18,0-.31,0-.56.04-.84.13,0,.64,0,.71.05,1.21t0,.09s0,.04,0,.08h.01Z"/>
            <path class="cls-4" d="M125.47,24.39s.04-.05.13-.15c.22-.25.59-.41.9-.41s.63.16.78.4c.14.22.18.48.18,1.28,0,.5.03.64.15.75.08.06.2.1.37.1.37,0,.67-.26.88-.75.13-.32.23-.75.27-1.11.23.24.34.31.77.53-.3,1.45-.99,2.18-2.04,2.18-.54,0-.93-.21-1.1-.61-.08-.18-.12-.43-.12-.78v-.07c0-.25,0-.42,0-.49,0-.22-.01-.32-.05-.41-.05-.1-.18-.16-.32-.16-.38,0-.77.35-1.11.98-.21.4-.5,1.18-.59,1.6l-.9-.29c.1-.2.16-.37.39-.98q1.61-4.47,1.66-4.76l.95.24c-.1.19-.13.27-.34.81-.4,1.02-.71,1.79-.86,2.12h.01Z"/>
            <path class="cls-4" d="M132.77,24.57c-.44.36-.64.66-.64.96,0,.46.51.65,1.7.65.83,0,1.75-.13,2.2-.29l.08.96c-.12,0-.16,0-.31.03-.84.12-1.29.15-1.89.15-.76,0-1.38-.08-1.75-.23-.6-.23-.9-.62-.9-1.17s.27-.99.9-1.52l.61.46ZM131.71,21.69c.54.13,1.16.18,2.1.18.89,0,1.39-.04,1.85-.13l.03.79c-.42.19-1.18.66-1.87,1.16l-.61-.48c.37-.23.71-.44,1.03-.62-.31.04-.61.06-1.05.06-.36,0-.94-.04-1.28-.08-.14-.01-.16-.02-.26-.02l.06-.83Z"/>
            <path class="cls-4" d="M140.05,21.9c-.02.08-.03.08-.04.14l-.02.12-.03.2-.02.17c-.29,2.01-.84,3.39-1.78,4.47-.33-.32-.46-.42-.8-.6.42-.42.71-.85,1-1.49.3-.65.55-1.52.66-2.4.04-.29.06-.53.06-.68v-.1l.96.17ZM142.03,21.73c0,.32.13,1.01.29,1.61.34,1.3.83,2.24,1.56,3.03-.36.22-.5.34-.77.64-.93-1.11-1.58-2.72-1.86-4.61-.04-.29-.06-.4-.1-.5l.87-.17ZM142.63,21.31c.26.36.41.66.58,1.13l-.53.17c-.16-.45-.31-.75-.57-1.14l.53-.15ZM143.6,22.32c-.16-.43-.34-.78-.56-1.11l.52-.15c.27.37.42.67.57,1.09l-.53.17Z"/>
            <path class="cls-4" d="M150.07,22.41c-.09.12-.1.15-.22.47-.22.64-.61,1.46-.9,1.93-.71,1.16-1.7,1.99-3.19,2.67-.22-.38-.31-.5-.58-.72.6-.25.95-.42,1.37-.7.5-.32.79-.57,1.15-.97-.49-.42-.91-.71-1.44-1l.53-.62c.59.33.88.53,1.41.94.33-.5.57-1,.79-1.65l-2.18.02c-.43.72-.93,1.29-1.64,1.88-.23-.26-.34-.35-.7-.56.77-.57,1.33-1.21,1.76-2,.2-.37.34-.71.41-.97l.91.2q-.08.13-.21.39c-.08.19-.13.27-.17.34q.11-.01,1.82-.03c.29,0,.43-.02.62-.08l.47.47Z"/>
            <path class="cls-4" d="M151.15,23.8c.31.04.44.05,1.13.05h3.73c.69,0,.83,0,1.13-.05v.97c-.28-.04-.36-.04-1.14-.04h-3.72c-.79,0-.86,0-1.14.04v-.97Z"/>
            <path class="cls-4" d="M161.29,24.69q0-.17.02-.77c-.17.29-.34.53-.59.81-.1-.29-.18-.48-.36-.83.52-.51.93-1.17,1.24-1.93.14-.35.24-.69.27-.95l.79.24c-.06.16-.07.2-.14.4-.16.47-.26.71-.49,1.16v3.9c0,.33.01.58.04.85h-.82c.03-.25.04-.48.04-.85v-2.02ZM163.64,23.92v2.45c0,.14.04.18.19.22.17.04.38.06.88.06.79,0,1.09-.03,1.25-.13.08-.05.14-.17.17-.32.02-.13.03-.22.05-.55.31.13.43.16.76.22-.08.8-.18,1.07-.39,1.24-.27.19-.73.25-2.01.25s-1.64-.14-1.64-.7v-2.49c-.06.02-.11.04-.14.04-.2.07-.27.1-.41.16l-.06-.8c.17-.02.37-.07.61-.14v-.83c0-.33,0-.52-.04-.74h.83c-.04.2-.04.39-.04.71v.62l.72-.23v-1.14c0-.28-.01-.46-.04-.7h.81c-.03.22-.04.39-.04.68v.93l1.02-.33c.27-.08.43-.15.57-.21,0,.15,0,.2,0,.38-.01.84-.06,1.81-.12,2.26-.07.53-.25.68-.79.68-.13,0-.21,0-.38-.02-.04-.27-.08-.43-.2-.71.18.04.37.06.48.06.15,0,.18-.05.22-.38.04-.27.06-.74.06-1.29l-.86.28v1.82c0,.29,0,.46.04.7h-.81c.04-.22.04-.4.04-.72v-1.56l-.72.23Z"/>
          </g>
          <g>
            <path class="cls-5" d="M27.4,9.19c-.37.45-1.08,1.08-2.14,1.08-.25,0-.47-.02-.7-.09-.64-.16-1.24-.41-1.64-.59-1.14-.51-1.56-.56-1.89-.56-.76,0-1.1.66-1.45,1.36l-1.06-.53c.6-.99,1.23-1.97,2.4-1.97.67,0,1.68.4,2.37.69.56.25,1.48.61,2.01.61,1,0,1.36-.87,1.56-1.39l1.03.52c-.18.39-.29.6-.51.87Z"/>
            <path class="cls-5" d="M31.4,8.04v4.65h-1.42v-4.65h-.78v-1.14h.78v-.59c0-1.03.78-1.48,1.59-1.48h.82v1.23h-.46c-.3,0-.53.14-.53.48v.36h.99v1.14h-.99Z"/>
            <path class="cls-5" d="M36.26,12.83c-2.24,0-3.01-1.57-3.01-2.99,0-1.93,1.39-3.08,3.04-3.08,1.93,0,3.03,1.38,3.03,3.06,0,1.49-.91,3.02-3.06,3.02ZM36.29,7.89c-.8,0-1.58.62-1.58,1.9,0,1.1.6,1.92,1.63,1.92,1.34,0,1.54-1.18,1.54-1.91,0-1.33-.79-1.91-1.58-1.91Z"/>
            <path class="cls-5" d="M43.53,12.83c-2.24,0-3.01-1.57-3.01-2.99,0-1.93,1.39-3.08,3.04-3.08,1.93,0,3.03,1.38,3.03,3.06,0,1.49-.91,3.02-3.06,3.02ZM43.56,7.89c-.8,0-1.58.62-1.58,1.9,0,1.1.6,1.92,1.63,1.92,1.34,0,1.54-1.18,1.54-1.91,0-1.33-.79-1.91-1.58-1.91Z"/>
            <path class="cls-5" d="M51.6,12.69v-.29l.06-.47c-.18.34-.48.9-1.45.9-1.49,0-2.42-1.13-2.42-2.97s.98-3.1,2.34-3.1c1,0,1.37.62,1.54.92l-.06-.6v-2.24h1.43v7.86h-1.43ZM50.42,8c-1.17,0-1.22,1.47-1.22,1.8,0,.96.43,1.72,1.2,1.72.57,0,1.2-.46,1.2-1.71,0-.5-.08-1.81-1.17-1.81Z"/>
            <path class="cls-5" d="M58.86,12.69l-.47-.61c-.3.25-1,.83-1.96.83-1.13,0-2.03-.79-2.03-1.91,0-1.18,1-1.81,1.54-2.15l-.09-.12c-.1-.13-.52-.68-.52-1.29,0-.89.72-1.54,1.69-1.54.89,0,1.61.55,1.61,1.5,0,.88-.62,1.33-1.16,1.7l.93,1.22c.21-.49.22-.77.23-1.02h1.14c-.06.74-.22,1.25-.67,1.95l1.08,1.42h-1.33ZM56.54,9.64c-.44.27-.93.58-.93,1.25,0,.63.42.99.95.99.58,0,1-.42,1.22-.63l-1.23-1.61ZM57,6.83c-.29,0-.58.2-.58.57,0,.33.17.56.22.63l.22.28c.25-.18.68-.49.68-.94,0-.32-.25-.54-.55-.54Z"/>
            <path class="cls-5" d="M64.76,12.69v-.29l.06-.47c-.18.34-.48.9-1.45.9-1.49,0-2.42-1.13-2.42-2.97s.98-3.1,2.34-3.1c1,0,1.37.62,1.54.92l-.06-.6v-2.24h1.43v7.86h-1.43ZM63.59,8c-1.17,0-1.22,1.47-1.22,1.8,0,.96.43,1.72,1.2,1.72.57,0,1.2-.46,1.2-1.71,0-.5-.08-1.81-1.17-1.81Z"/>
            <path class="cls-5" d="M69,10.21c.05.29.27,1.46,1.41,1.46.26,0,.82-.06,1.06-.7h1.43c-.18.48-.68,1.85-2.56,1.85-1.57,0-2.76-1.04-2.76-3.03s1.28-3.05,2.71-3.05c.96,0,1.7.44,2.13,1.1.5.75.55,1.54.58,2.36h-4.01ZM70.3,7.92c-1.06,0-1.24,1-1.3,1.37h2.47c-.03-.91-.45-1.37-1.16-1.37Z"/>
            <path class="cls-5" d="M76.53,12.83c-.41,0-1.27-.08-1.88-.68-.33-.33-.46-.62-.53-1.36h1.42c.04.28.16.9,1.04.9.12,0,.83,0,.83-.57,0-.4-.29-.53-1.21-.85-1.18-.43-1.98-.71-1.98-1.77,0-.97.93-1.76,2.25-1.76.48,0,1.17.1,1.69.6.36.36.46.66.53,1.31h-1.42c-.03-.42-.21-.79-.83-.79-.57,0-.8.32-.8.54,0,.29.27.39.72.56,1.44.55,1.5.58,1.83.81.41.29.65.73.65,1.24,0,1.13-1.07,1.8-2.33,1.8Z"/>
            <path class="cls-5" d="M80.37,6.23v-1.4h1.42v1.4h-1.42ZM80.37,12.69v-5.8h1.42v5.8h-1.42Z"/>
            <path class="cls-5" d="M88.14,8.13c.03.11.06.23.06.43,0,.93-.68,1.83-2.35,1.83-.31,0-.46-.02-.61-.04-.27.08-.38.15-.38.3,0,.27.47.32.86.36,1.49.11,2.13.17,2.56.6.23.23.37.56.37.94,0,1.03-1.13,1.58-2.94,1.58-1.36,0-2.47-.29-2.47-1.24,0-.83.69-.95.94-.99-.28-.1-.77-.27-.77-.8s.53-.88.85-1.09c-.27-.17-.8-.53-.8-1.4,0-1.23,1.13-1.86,2.46-1.86,1.04,0,1.5.38,1.71.57.43-.48.6-.57,1.18-.57v1.04c-.26,0-.39,0-.69.33ZM85.88,7.83c-.76,0-1.12.38-1.12.81,0,.68.8.7,1.06.7s1.11-.04,1.11-.75c0-.55-.5-.75-1.05-.75ZM86.26,12.12c-.13-.01-.79-.02-.93-.03-.39.14-.57.23-.57.53,0,.18.01.46,1.21.46,1.07,0,1.15-.21,1.15-.45,0-.36-.46-.46-.86-.51Z"/>
            <path class="cls-5" d="M93.69,12.69v-3.66c0-.65-.27-1.08-.98-1.08-.58,0-1.27.29-1.27,1.36v3.38h-1.42v-5.8h1.42v.49l-.05.5c.23-.4.66-1.12,1.79-1.12,1.23,0,1.94.73,1.94,2.05v3.89h-1.42Z"/>
            <path class="cls-5" d="M105.45,9.19c-.37.45-1.08,1.08-2.14,1.08-.25,0-.47-.02-.7-.09-.64-.16-1.24-.41-1.64-.59-1.14-.51-1.56-.56-1.89-.56-.76,0-1.1.66-1.45,1.36l-1.06-.53c.6-.99,1.23-1.97,2.4-1.97.67,0,1.68.4,2.37.69.56.25,1.48.61,2.01.61,1,0,1.36-.87,1.56-1.39l1.03.52c-.18.39-.29.6-.51.87Z"/>
            <path class="cls-5" d="M114.92,13.45c-2.61,0-3.76-1.96-3.76-4.12s1.07-4.27,3.87-4.27c2.24,0,3.21,1.49,3.34,2.74h-1.54c-.3-1.45-1.55-1.45-1.77-1.45-1.23,0-2.36.99-2.36,2.96,0,1.84.99,2.87,2.2,2.87.52,0,1.03-.19,1.43-.58.36-.34.43-.61.5-1.06h1.54c-.14,1.31-1.14,2.91-3.45,2.91Z"/>
            <path class="cls-5" d="M123.23,13.45c-2.33,0-3.93-1.66-3.93-4.19s1.62-4.19,3.93-4.19,3.94,1.65,3.94,4.19-1.62,4.19-3.94,4.19ZM123.23,6.38c-1.35,0-2.4,1.01-2.4,2.88s1.04,2.89,2.4,2.89,2.41-1.1,2.41-2.89-1-2.88-2.41-2.88Z"/>
            <path class="cls-5" d="M133.46,13.19l-3.1-5.01-.59-1.29.15,1.76v4.55h-1.4v-7.86h1.55l3.1,5.01.59,1.29-.15-1.76v-4.55h1.4v7.86h-1.55Z"/>
            <path class="cls-5" d="M140.27,13.19h-1.45l-2.8-7.86h1.56l1.72,5.45.25,1.09.24-1.09,1.73-5.45h1.55l-2.8,7.86Z"/>
            <path class="cls-5" d="M144.05,13.19v-7.86h5.95v1.23h-4.5v1.95h4.16v1.13h-4.16v2.33h4.68v1.23h-6.12Z"/>
            <path class="cls-5" d="M155.15,10.16v3.03h-1.45v-3.03l-2.78-4.84h1.64l1.62,3.08.26.54.25-.54,1.62-3.08h1.64l-2.78,4.84Z"/>
          </g>
        </g>
      </g>
    </g>
  </g>
</svg>