<?xml version="1.0" encoding="UTF-8"?>
<svg xmlns="http://www.w3.org/2000/svg" viewBox="0 0 167.6 27.27">
  <defs>
    <style>
      .cls-1, .cls-2 {
        fill: #b28247;
      }

      .cls-3 {
        isolation: isolate;
      }

      .cls-4 {
        fill: #231815;
      }

      .cls-5 {
        fill: #fff;
      }

      .cls-2 {
        mix-blend-mode: multiply;
      }
    </style>
  </defs>
  <g class="cls-3">
    <g id="_レイヤー_2" data-name="レイヤー 2">
      <g id="_レイヤー_1-2" data-name="レイヤー 1">
        <g>
          <g>
            <rect class="cls-1" width="167.6" height="17.49"/>
            <rect class="cls-2" width="8.29" height="17.49"/>
          </g>
          <g>
            <path class="cls-4" d="M33.61,20.92c-.08.24-.12.42-.25,1.35-.05.29-.08.53-.09.7h.02s.01-.04.04-.15c.07-.25.25-.59.43-.83.37-.48.8-.71,1.29-.71.46,0,.87.22,1.16.63.34.47.49,1.04.49,1.86,0,1.35-.61,2.36-1.76,2.88-.35.16-.82.3-1.33.39-.14-.4-.21-.55-.4-.83.68-.08,1.08-.18,1.49-.4.79-.41,1.15-1.08,1.15-2.14,0-1.01-.33-1.57-.91-1.57-.26,0-.5.12-.74.37-.53.57-.86,1.43-.86,2.26v.15h-.82s0-.06,0-.08v-.13c0-.2-.02-.72-.02-.86,0-.57.04-1.34.09-1.83l.1-.87c.01-.12.02-.15.02-.24l.86.05Z"/>
            <path class="cls-4" d="M39.87,24.05s.04-.05.13-.15c.22-.25.57-.41.88-.41s.61.16.76.4c.14.22.17.48.17,1.28,0,.5.03.64.15.75.07.06.2.1.36.1.36,0,.65-.26.85-.75.12-.31.22-.75.26-1.11.22.24.33.31.75.53-.29,1.45-.96,2.18-1.99,2.18-.52,0-.9-.21-1.07-.61-.07-.18-.12-.43-.12-.78v-.07c0-.25,0-.42,0-.49,0-.22-.01-.32-.05-.41-.05-.1-.17-.16-.31-.16-.37,0-.75.35-1.08.98-.21.4-.48,1.18-.57,1.6l-.88-.29c.1-.2.16-.37.37-.98q1.57-4.48,1.61-4.76l.92.24c-.1.19-.13.27-.33.8-.39,1.02-.69,1.79-.84,2.12h.01Z"/>
            <path class="cls-4" d="M47.19,24.24c-.43.37-.62.67-.62.97,0,.46.5.65,1.65.65.81,0,1.7-.13,2.14-.3l.08.96c-.12,0-.14,0-.3.03-.82.13-1.25.16-1.84.16-.74,0-1.34-.08-1.7-.23-.59-.24-.87-.62-.87-1.17s.26-1,.88-1.53l.59.46ZM46.16,21.37c.52.13,1.13.17,2.04.17.86,0,1.35-.04,1.8-.13l.03.79c-.41.18-1.25.72-1.82,1.16l-.59-.48c.43-.28.5-.33.67-.43.07-.04.09-.06.18-.11.05-.03.06-.03.15-.08-.3.04-.59.06-1.02.06-.35,0-.91-.04-1.25-.08-.08,0-.13-.01-.16-.01-.01,0-.05,0-.09,0l.06-.83ZM49.75,22.92c.3.33.48.59.71,1.03l-.48.26c-.22-.43-.42-.71-.71-1.04l.48-.25ZM50.8,23.77c-.2-.39-.43-.71-.69-1.02l.46-.25c.31.32.5.59.71.99l-.47.27Z"/>
            <path class="cls-4" d="M56.69,22.75q-.03.06-.08.2c-.07.2-.07.2-.09.27.28.07.48.17.71.34.44.34.65.77.65,1.32,0,.76-.4,1.36-1.17,1.75-.4.2-.79.31-1.39.37-.07-.3-.14-.43-.36-.79.55,0,.9-.08,1.3-.28.54-.27.8-.61.8-1.09,0-.44-.28-.8-.76-.97-.37.83-.69,1.34-1.18,1.86-.61.67-1.22,1.01-1.78,1.01-.63,0-1.06-.5-1.06-1.23,0-.57.24-1.13.67-1.57.27-.27.52-.45.93-.63,0-.22.01-.5.03-.84-.08,0-.44,0-1.1-.03h-.13s-.08,0-.16,0v-.79c.31.07.71.11,1.27.11h.15q0-.14.03-.42c0-.09.01-.27.01-.4,0-.03,0-.06-.01-.11l.84.04c-.05.19-.08.37-.12.86,1.09-.06,2.06-.2,2.58-.37l.03.81c-.09,0-.12,0-.27.03-.75.13-1.85.23-2.4.25-.02.3-.03.52-.03.67.37-.08.52-.09.94-.09.08,0,.14,0,.26.01.08-.22.12-.37.14-.53l.77.22ZM53.32,24.61c-.2.27-.31.56-.31.85,0,.32.15.51.39.51.19,0,.37-.08.59-.27-.09-.46-.12-.9-.12-1.58-.3.2-.42.31-.55.48ZM54.65,25.19s.03-.04.08-.1c.32-.37.59-.82.84-1.4-.08,0-.11,0-.18,0-.3,0-.54.04-.82.13,0,.64,0,.71.05,1.2t0,.09s0,.04,0,.08h.01Z"/>
            <path class="cls-4" d="M60.93,21.13c0,.27.08.77.16,1.13.46-.2.87-.28,1.31-.28h.18c.14-.6.19-.85.2-1.09l.86.17c-.04.08-.05.13-.07.2-.09.38-.18.72-.21.82.4.11.65.22.91.42.54.41.83,1.01.83,1.74,0,1.03-.58,1.86-1.59,2.3-.33.15-.58.22-1.11.34-.1-.35-.16-.47-.42-.82.47-.04.74-.11,1.11-.27.46-.2.77-.45.95-.75.15-.26.23-.55.23-.86,0-.46-.16-.81-.5-1.09-.18-.15-.33-.22-.61-.3-.27.96-.74,1.95-1.24,2.61-.25.32-.54.61-.81.77-.21.13-.4.19-.63.19-.7,0-1.17-.63-1.17-1.58,0-.86.38-1.6,1.09-2.15-.03-.11-.16-.71-.23-1.11-.01-.09-.03-.13-.07-.24l.82-.16ZM60.07,24.77c0,.46.19.77.46.77.19,0,.41-.15.64-.46-.31-.71-.42-1.03-.56-1.61-.38.41-.54.81-.54,1.3ZM61.69,24.4s.02-.06.04-.09c.27-.48.46-.92.68-1.62-.47,0-.81.08-1.17.28.11.48.2.77.41,1.32.02.06.03.07.03.11h0Z"/>
            <path class="cls-4" d="M71.84,20.69l-5.16,6.58h-1l5.15-6.58h1.01Z"/>
            <path class="cls-4" d="M74.5,20.92c-.08.24-.12.42-.25,1.35-.05.29-.08.53-.09.7h.02s.01-.04.04-.15c.07-.25.25-.59.43-.83.37-.48.8-.71,1.29-.71.46,0,.87.22,1.16.63.34.47.49,1.04.49,1.86,0,1.35-.61,2.36-1.76,2.88-.35.16-.82.3-1.33.39-.14-.4-.21-.55-.4-.83.68-.08,1.08-.18,1.49-.4.79-.41,1.15-1.08,1.15-2.14,0-1.01-.33-1.57-.91-1.57-.26,0-.5.12-.74.37-.53.57-.86,1.43-.86,2.26v.15h-.82s0-.06,0-.08v-.13c0-.2-.02-.72-.02-.86,0-.57.04-1.34.09-1.83l.1-.87c.01-.12.02-.15.02-.24l.86.05Z"/>
            <path class="cls-4" d="M80.76,24.05s.04-.05.13-.15c.22-.25.57-.41.88-.41s.61.16.76.4c.14.22.17.48.17,1.28,0,.5.03.64.15.75.07.06.2.1.36.1.36,0,.65-.26.85-.75.12-.31.22-.75.26-1.11.22.24.33.31.75.53-.29,1.45-.96,2.18-1.99,2.18-.52,0-.9-.21-1.07-.61-.07-.18-.12-.43-.12-.78v-.07c0-.25,0-.42,0-.49,0-.22-.01-.32-.05-.41-.05-.1-.17-.16-.31-.16-.37,0-.75.35-1.08.98-.2.4-.48,1.18-.57,1.6l-.88-.29c.1-.2.16-.37.38-.98q1.56-4.48,1.61-4.76l.92.24c-.1.19-.13.27-.33.8-.39,1.02-.69,1.79-.84,2.12h.01Z"/>
            <path class="cls-4" d="M88.08,24.24c-.43.37-.62.67-.62.97,0,.46.5.65,1.65.65.81,0,1.7-.13,2.14-.3l.08.96c-.12,0-.14,0-.3.03-.82.13-1.25.16-1.84.16-.74,0-1.34-.08-1.7-.23-.59-.24-.87-.62-.87-1.17s.26-1,.88-1.53l.59.46ZM87.04,21.37c.52.13,1.13.17,2.04.17.86,0,1.35-.04,1.8-.13l.03.79c-.41.18-1.25.72-1.82,1.16l-.59-.48c.43-.28.5-.33.67-.43.07-.04.09-.06.18-.11.05-.03.06-.03.15-.08-.3.04-.59.06-1.02.06-.35,0-.91-.04-1.25-.08-.08,0-.13-.01-.16-.01-.01,0-.05,0-.09,0l.06-.83ZM90.63,22.92c.3.33.48.59.71,1.03l-.48.26c-.22-.43-.42-.71-.71-1.04l.48-.25ZM91.69,23.77c-.2-.39-.43-.71-.69-1.02l.46-.25c.31.32.5.59.71.99l-.47.27Z"/>
            <path class="cls-4" d="M93.96,22.83c.63.26,1.3.61,1.81.95l-.42.79c-.45-.36-1.22-.78-1.84-1.02l.46-.72ZM93.65,25.97c.53,0,1.25-.17,1.97-.46,1.25-.45,2.27-1.6,2.76-3.09.26.29.39.41.71.62-.84,2.12-2.28,3.27-4.72,3.76-.29.06-.35.08-.48.12l-.24-.96ZM94.48,21.13c.64.25,1.32.59,1.81.9l-.44.77c-.55-.38-1.32-.8-1.82-.96l.44-.71ZM98.02,20.99c.3.33.48.6.71,1.03l-.48.26c-.22-.43-.42-.71-.71-1.04l.48-.25ZM99.07,21.84c-.2-.38-.43-.71-.69-1.02l.46-.25c.31.32.5.59.71.99l-.47.27Z"/>
            <path class="cls-4" d="M104.64,26.02c.31,0,.44,0,.63-.04v.8c-.18-.02-.34-.03-.63-.03h-3.53c-.3,0-.44,0-.63.03v-.8c.19.04.31.04.63.04h2.01c.12-.62.26-1.61.33-2.25h-1.69c-.33,0-.43,0-.61.03v-.79c.17.03.36.04.63.04h1.72c.24,0,.34-.01.5-.06l.37.34q-.08.22-.16.8c-.1.77-.18,1.27-.29,1.9h.71Z"/>
            <path class="cls-4" d="M106.59,23.47c.3.04.43.05,1.1.05h3.63c.67,0,.8,0,1.1-.05v.97c-.27-.04-.35-.04-1.11-.04h-3.61c-.76,0-.84,0-1.11.04v-.97Z"/>
            <path class="cls-4" d="M118.32,26.87c-.57-.71-1.35-1.5-2.09-2.08-.77.88-1.55,1.5-2.59,2.02-.19-.36-.27-.48-.55-.78.52-.21.85-.4,1.36-.77,1.03-.74,1.84-1.76,2.29-2.85l.08-.18q-.11,0-2.25.04c-.33,0-.51.02-.74.06l-.03-.9c.19.04.32.04.6.04h.16l2.4-.04c.38,0,.44-.01.61-.08l.45.48c-.09.11-.14.2-.22.38-.31.75-.65,1.36-1.06,1.93.43.29.8.59,1.26,1.02q.17.15.99.97l-.65.73Z"/>
            <path class="cls-4" d="M126.05,20.69l-5.16,6.58h-1l5.15-6.58h1.01Z"/>
            <path class="cls-4" d="M128.71,20.92c-.08.24-.12.42-.25,1.35-.05.29-.08.53-.09.7h.02s.01-.04.04-.15c.07-.25.25-.59.43-.83.37-.48.8-.71,1.29-.71.46,0,.87.22,1.16.63.34.47.49,1.04.49,1.86,0,1.35-.61,2.36-1.76,2.88-.35.16-.82.3-1.33.39-.14-.4-.21-.55-.4-.83.68-.08,1.08-.18,1.49-.4.79-.41,1.15-1.08,1.15-2.14,0-1.01-.33-1.57-.91-1.57-.26,0-.5.12-.74.37-.53.57-.86,1.43-.86,2.26v.15h-.82s0-.06,0-.08v-.13c0-.2-.02-.72-.02-.86,0-.57.04-1.34.09-1.83l.1-.87c.01-.12.02-.15.02-.24l.86.05Z"/>
            <path class="cls-4" d="M134.97,24.05s.04-.05.13-.15c.22-.25.57-.41.88-.41s.61.16.76.4c.14.22.17.48.17,1.28,0,.5.03.64.15.75.07.06.2.1.36.1.36,0,.65-.26.85-.75.12-.31.22-.75.26-1.11.22.24.33.31.75.53-.29,1.45-.96,2.18-1.99,2.18-.52,0-.9-.21-1.07-.61-.07-.18-.12-.43-.12-.78v-.07c0-.25,0-.42,0-.49,0-.22-.01-.32-.05-.41-.05-.1-.17-.16-.31-.16-.37,0-.75.35-1.08.98-.21.4-.48,1.18-.57,1.6l-.88-.29c.1-.2.16-.37.37-.98q1.57-4.48,1.61-4.76l.92.24c-.1.19-.13.27-.33.8-.39,1.02-.69,1.79-.84,2.12h.01Z"/>
            <path class="cls-4" d="M142.29,24.24c-.43.37-.62.67-.62.97,0,.46.5.65,1.65.65.81,0,1.7-.13,2.14-.3l.08.96c-.12,0-.14,0-.3.03-.82.13-1.25.16-1.84.16-.74,0-1.34-.08-1.7-.23-.59-.24-.87-.62-.87-1.17s.26-1,.88-1.53l.59.46ZM141.25,21.37c.52.13,1.13.17,2.04.17.86,0,1.35-.04,1.8-.13l.03.79c-.41.18-1.25.72-1.82,1.16l-.59-.48c.43-.28.5-.33.67-.43.07-.04.09-.06.18-.11.05-.03.06-.03.15-.08-.3.04-.59.06-1.02.06-.35,0-.91-.04-1.25-.08-.08,0-.13-.01-.16-.01-.01,0-.05,0-.09,0l.06-.83ZM144.85,22.92c.3.33.48.59.71,1.03l-.48.26c-.22-.43-.42-.71-.71-1.04l.48-.25ZM145.9,23.77c-.2-.39-.43-.71-.69-1.02l.46-.25c.31.32.5.59.71.99l-.47.27Z"/>
          </g>
          <g>
            <path class="cls-5" d="M56.94,13.14c-1.35,0-3.26-.37-3.38-2.62h1.45c.06,1.26,1.22,1.4,1.8,1.4.37,0,1.93-.04,1.93-1.15,0-.57-.34-.79-1.06-.95l-1.9-.42c-1.01-.23-2.11-.8-2.11-2.29,0-1.69,1.63-2.35,3.17-2.35.66,0,1.65.12,2.37.78.45.41.62.79.78,1.7h-1.46c-.05-1.19-1.31-1.25-1.71-1.25-.26,0-1.72.02-1.72,1.04,0,.45.27.81,1.11.99l2.05.45c.6.13,1.97.59,1.97,2.13,0,1.44-1.21,2.53-3.29,2.53Z"/>
            <path class="cls-5" d="M66.8,12.88l-.58-1.69h-3.31l-.58,1.69h-1.6l3.02-7.86h1.65l3.02,7.86h-1.61ZM64.74,6.95l-.17-.69-.18.69-1.04,3.03h2.46l-1.06-3.03Z"/>
            <path class="cls-5" d="M72.13,6.25v6.64h-1.45v-6.64h-2.8v-1.23h7.06v1.23h-2.8Z"/>
            <path class="cls-5" d="M79.32,13.14c-2.33,0-3.93-1.66-3.93-4.19s1.62-4.19,3.93-4.19,3.94,1.65,3.94,4.19-1.62,4.19-3.94,4.19ZM79.32,6.08c-1.35,0-2.4,1.01-2.4,2.88s1.04,2.89,2.4,2.89,2.41-1.1,2.41-2.89-1-2.88-2.41-2.88Z"/>
            <path class="cls-5" d="M90.87,6.25v2.04h3.74v1.23h-3.74v3.37h-1.46v-7.86h5.58v1.23h-4.13Z"/>
            <path class="cls-5" d="M101.09,12.88l-.58-1.69h-3.31l-.58,1.69h-1.6l3.02-7.86h1.65l3.02,7.86h-1.61ZM99.03,6.95l-.17-.69-.18.69-1.04,3.03h2.46l-1.06-3.03Z"/>
            <path class="cls-5" d="M108.46,12.88c-.16-.15-.26-.27-.26-.84v-.95c0-.56-.17-1.29-1.01-1.29h-2.01v3.08h-1.45v-7.86h3.71c1.46,0,2.42.91,2.42,2.13,0,.52-.17.99-.48,1.35-.3.34-.56.49-1.23.64.76.11,1.51.33,1.51,1.81v.8c0,.79.29.99.51,1.14h-1.69ZM107.23,6.25h-2.06v2.33h1.82c.81,0,1.3-.42,1.3-1.23,0-.71-.42-1.1-1.07-1.1Z"/>
            <path class="cls-5" d="M117.64,12.88v-6.91l-1.73,6.91h-1.57l-1.73-6.91v6.91h-1.34v-7.86h2.28l1.39,5.43.18,1.25.18-1.25,1.4-5.43h2.27v7.86h-1.34Z"/>
          </g>
        </g>
      </g>
    </g>
  </g>
</svg>