<?xml version="1.0" encoding="UTF-8"?>
<svg xmlns="http://www.w3.org/2000/svg" viewBox="0 0 167.6 27.35">
  <defs>
    <style>
      .cls-1, .cls-2 {
        fill: #b28247;
      }

      .cls-3 {
        isolation: isolate;
      }

      .cls-4 {
        fill: #231815;
      }

      .cls-5 {
        fill: #fff;
      }

      .cls-2 {
        mix-blend-mode: multiply;
      }
    </style>
  </defs>
  <g class="cls-3">
    <g id="_レイヤー_2" data-name="レイヤー 2">
      <g id="_テキスト1" data-name="テキスト1">
        <g>
          <g>
            <rect class="cls-1" width="167.6" height="17.49"/>
            <rect class="cls-2" width="8.29" height="17.49"/>
          </g>
          <g>
            <path class="cls-4" d="M2.08,21.45c.13.01.19.02.35.02.82,0,1.7-.1,1.99-.22l.44.76c-.34.21-.57.41-.86.76-.6.7-.9,1.41-.9,2.07,0,.76.48,1.27,1.2,1.27.57,0,1.06-.33,1.28-.87.18-.43.26-.89.26-1.52,0-.78-.15-1.63-.38-2.13l.84-.25c.11.38.33.84.6,1.27.36.55.9,1.12,1.27,1.32l-.43.83c-.06-.06-.06-.06-.16-.15-.29-.26-.54-.56-.77-.88-.03-.04-.14-.22-.35-.56.12.5.15.75.15,1.23,0,1.5-.95,2.57-2.28,2.57-.44,0-.88-.12-1.21-.33-.54-.36-.87-1.03-.87-1.79,0-.54.18-1.16.48-1.68.16-.29.45-.65.71-.9t.12-.11s.03-.03.08-.07q-.08.01-.2.04c-.29.06-.39.08-1.13.14-.12,0-.13,0-.21.02v-.83Z"/>
            <path class="cls-4" d="M10.78,22.38c-.11.39-.22,1.04-.32,1.72q-.01.1-.04.2h.01c.41-.38,1.28-.65,2.12-.65,1.19,0,1.97.59,1.97,1.48,0,.51-.27,1.03-.72,1.35-.46.33-1.04.48-1.85.48-.6,0-.99-.05-1.79-.25,0-.43-.02-.57-.11-.9.69.24,1.29.35,1.88.35.99,0,1.67-.41,1.67-1.01,0-.47-.44-.75-1.18-.75-.62,0-1.28.19-1.74.51-.13.09-.17.13-.32.3l-.88-.03c.02-.13.02-.15.06-.42.06-.43.17-1.21.29-2.04.03-.17.04-.25.04-.41l.88.05ZM10.87,21.01c.48.27,1.82.67,2.61.78l-.29.8c-1.2-.27-1.93-.5-2.73-.88l.41-.71Z"/>
            <path class="cls-4" d="M17.71,21.22c0,.27.08.77.17,1.13.48-.2.89-.28,1.35-.28h.19c.15-.6.2-.85.2-1.09l.88.17c-.04.08-.06.13-.07.2-.1.38-.19.72-.22.82.41.11.66.22.94.42.56.41.86,1.01.86,1.74,0,1.03-.6,1.86-1.64,2.3-.34.15-.6.22-1.14.34-.11-.35-.17-.47-.43-.82.48-.04.76-.11,1.14-.27.48-.2.79-.45.98-.75.15-.26.24-.55.24-.86,0-.46-.16-.81-.51-1.09-.19-.15-.34-.22-.63-.3-.28.96-.76,1.95-1.28,2.61-.25.32-.55.61-.83.77-.22.13-.41.19-.65.19-.72,0-1.21-.63-1.21-1.58,0-.86.39-1.6,1.12-2.15-.04-.11-.16-.71-.24-1.11-.01-.09-.03-.13-.07-.24l.85-.16ZM16.82,24.85c0,.46.2.77.48.77.2,0,.42-.15.66-.46-.32-.71-.43-1.03-.57-1.61-.39.41-.56.81-.56,1.3ZM18.49,24.48s.02-.06.04-.09c.28-.48.47-.92.7-1.62-.48,0-.83.08-1.21.28.11.48.2.77.42,1.32.02.06.03.07.04.11h0Z"/>
            <path class="cls-4" d="M28.44,22c-.06.12-.08.17-.12.32-.35,1.34-.76,2.18-1.44,2.93-.69.77-1.44,1.28-2.61,1.79-.2-.38-.29-.51-.62-.83.62-.2,1.01-.38,1.53-.71,1.09-.71,1.78-1.7,2.12-3.05h-3.33c-.47,0-.63,0-.88.04v-.91c.27.04.42.05.9.05h3.21c.39,0,.53-.01.75-.07l.48.46Z"/>
            <path class="cls-4" d="M35.36,23.34c-.07.13-.11.22-.2.44-.37,1.03-.9,1.81-1.62,2.37-.5.38-.95.62-1.84.95-.15-.35-.24-.47-.54-.81.85-.22,1.41-.48,1.95-.92.52-.43.82-.86,1.13-1.64h-3.41c-.47,0-.64,0-.9.04v-.85c.27.04.42.05.91.05h3.33c.43,0,.57-.01.79-.06l.4.45ZM30.52,21.22c.23.04.38.05.82.05h2.44c.44,0,.59,0,.82-.05v.86c-.22-.03-.35-.04-.8-.04h-2.47c-.46,0-.59,0-.81.04v-.86Z"/>
            <path class="cls-4" d="M42.34,21.6c-.12.11-.15.13-.26.25-.53.55-1.05,1-1.65,1.44v2.99c0,.38,0,.59.04.78h-.98c.04-.2.04-.34.04-.76v-2.46c-.82.49-1.21.67-2.5,1.13-.15-.36-.22-.48-.47-.8,1.39-.38,2.56-.96,3.68-1.82.62-.48,1.1-.97,1.3-1.31l.8.56Z"/>
            <path class="cls-4" d="M49.07,20.77l-5.31,6.58h-1.03l5.3-6.58h1.04Z"/>
            <path class="cls-4" d="M51.46,23.36c.37.31.58.5.87.78q.38.39.43.43c.36-.31.66-.59.92-.88.3-.34.69-.86.85-1.14t.04-.06s0-.02.01-.04c-.07,0-.18.01-.32.01h-3.34c-.57,0-.64,0-.9.04v-.89c.27.04.44.05.91.05h3.89c.3,0,.41-.01.58-.06l.49.55c-.11.11-.15.16-.31.41-.66,1.07-1.4,1.93-2.26,2.65.29.34.56.67.92,1.17l-.73.59c-.39-.63-.76-1.11-1.35-1.76-.54-.6-.89-.94-1.4-1.35l.69-.5Z"/>
            <path class="cls-4" d="M62.12,22.37c-.06.09-.1.17-.18.42-.41,1.25-.75,1.87-1.41,2.65-.62.71-1.48,1.33-2.49,1.77-.18-.33-.31-.48-.6-.74,1.84-.7,3.02-1.95,3.58-3.78l-2.11.03c-.39.64-1.06,1.37-1.64,1.8-.21-.29-.31-.38-.68-.6.76-.5,1.32-1.13,1.81-2.03.21-.38.34-.71.36-.93l.96.2c-.05.06-.06.08-.12.21-.06.13-.12.27-.19.41-.04.06-.04.07-.05.1l-.06.1c.08,0,.2-.01.34-.01l1.53-.02c.19,0,.31,0,.36-.01-.16-.35-.29-.57-.51-.88l.52-.18c.27.37.43.64.62,1.11l-.3.11.24.27ZM62.57,21.87c-.17-.41-.37-.77-.6-1.09l.51-.17c.29.37.45.65.62,1.06l-.52.2Z"/>
            <path class="cls-4" d="M65.25,26.32v.49h-.9c.02-.17.03-.34.03-.6v-4.01c0-.27,0-.4-.03-.59.17.01.32.02.6.02h3.98c.3,0,.43,0,.59-.02-.01.18-.02.32-.02.58v4.01c0,.26,0,.45.03.61h-.9v-.48h-3.36ZM68.61,22.42h-3.36v3.1h3.36v-3.1Z"/>
            <path class="cls-4" d="M72.15,23.45c-.34,0-.52,0-.72.02.02-.17.03-.34.03-.61v-.81c0-.27,0-.42-.03-.59.2.02.43.03.78.03h1.46c0-.3-.02-.46-.05-.67h.86c-.03.2-.04.36-.04.67h1.58c.36,0,.57,0,.78-.03-.02.17-.03.31-.03.59v.81c0,.29,0,.43.03.61-.2-.01-.42-.02-.72-.02h-1.64v.52h1.93c.34,0,.52,0,.71-.03-.02.2-.03.36-.03.68v1c0,.34,0,.53.04.74h-.81v-.33h-1.84v.36c0,.46,0,.67.04.92h-.86c.03-.26.05-.53.05-.92v-.35h-1.74v.33h-.8c.02-.24.04-.46.04-.74v-1c0-.27,0-.47-.03-.67.2.01.38.02.69.02h1.84v-.52h-1.51ZM71.92,24.64v.71h1.74v-.71h-1.74ZM72.21,22.16v.65h1.45v-.65h-1.45ZM74.43,22.81h1.57v-.65h-1.57v.65ZM74.43,25.35h1.84v-.71h-1.84v.71Z"/>
            <path class="cls-4" d="M84.03,22.58c-.05.13-.07.22-.08.47-.02.79-.1,1.87-.17,2.33-.18,1.21-.43,1.5-1.27,1.5-.27,0-.5-.02-.87-.08-.01-.44-.04-.57-.16-.9.41.11.69.16.92.16.3,0,.41-.15.52-.76.08-.48.15-1.44.15-2.24h-1.63c-.1.88-.25,1.41-.56,2.01-.38.74-1.01,1.38-1.89,1.94-.24-.37-.34-.48-.63-.74.88-.46,1.45-1.02,1.82-1.76.19-.39.29-.73.36-1.22.01-.1.03-.17.04-.22h-1.16c-.43,0-.53.01-.76.04v-.86c.23.04.42.06.77.06h1.23c.02-.27.03-.68.03-.88v-.17c0-.09,0-.15-.02-.27l.94.02c-.01.09-.02.12-.03.22,0,.04,0,.08,0,.13q-.01.15-.03.51c0,.15,0,.22-.03.44h1.55c.31,0,.38-.01.55-.07l.4.35Z"/>
            <path class="cls-4" d="M86.21,21.69c.36.64.59,1.18.85,2.06l-.86.27c-.2-.78-.47-1.51-.8-2.09l.81-.24ZM91.19,21.72c-.06.15-.08.2-.17.68-.5,2.25-1.61,3.66-3.71,4.68-.19-.34-.28-.46-.62-.79.78-.29,1.4-.67,1.97-1.22.57-.53.94-1.12,1.23-1.93.22-.6.34-1.18.35-1.65l.96.22ZM88.04,21.35c.34.57.6,1.2.84,1.98l-.85.27c-.2-.78-.41-1.32-.79-2.03l.8-.22Z"/>
            <path class="cls-4" d="M97.37,20.77l-5.31,6.58h-1.03l5.3-6.58h1.04Z"/>
            <path class="cls-4" d="M100.06,21.65c-.02.08-.03.08-.04.14l-.02.12-.03.2-.02.17c-.29,2.01-.84,3.39-1.78,4.47-.33-.32-.46-.42-.8-.6.42-.42.71-.85,1-1.49.3-.65.55-1.52.66-2.4.04-.29.06-.53.06-.68v-.1l.96.17ZM102.05,21.48c0,.32.13,1.01.29,1.61.34,1.29.83,2.24,1.56,3.03-.36.22-.5.34-.77.64-.93-1.11-1.58-2.72-1.86-4.61-.04-.29-.06-.4-.1-.5l.87-.17ZM102.65,21.06c.26.36.41.66.58,1.13l-.53.17c-.16-.45-.31-.75-.57-1.14l.53-.15ZM103.61,22.07c-.16-.43-.34-.79-.56-1.11l.52-.15c.27.37.42.67.57,1.09l-.53.17Z"/>
            <path class="cls-4" d="M110.23,21.6c-.12.11-.15.13-.26.25-.53.55-1.05,1-1.65,1.44v2.99c0,.38,0,.59.04.78h-.98c.04-.2.04-.34.04-.76v-2.46c-.82.49-1.21.67-2.5,1.13-.15-.36-.22-.48-.47-.8,1.39-.38,2.56-.96,3.68-1.82.62-.48,1.1-.97,1.3-1.31l.8.56Z"/>
            <path class="cls-4" d="M113.89,26.2c-.69.6-1.15.83-2.23,1.15-.22-.36-.27-.43-.51-.7.95-.19,1.49-.42,2.04-.88l.71.43ZM116.68,24.93c0,.33.01.64.04.82-.26-.02-.54-.04-.8-.04h-3.09c-.29,0-.52,0-.8.04.02-.22.04-.5.04-.83v-2.98c0-.37,0-.58-.04-.8.25.03.5.03.83.03h3.06c.34,0,.53,0,.8-.03-.02.17-.04.49-.04.82v2.98ZM112.84,22.47h3.07v-.6h-3.07v.6ZM112.84,23.75h3.07v-.61h-3.07v.61ZM112.84,25.03h3.07v-.62h-3.07v.62ZM115.42,25.77c.38.29.66.44,1.09.6.26.1.46.15.95.26-.19.21-.34.42-.5.72-1.01-.31-1.53-.58-2.21-1.16l.67-.42Z"/>
            <path class="cls-4" d="M119.45,23.05c-.28,0-.6.01-.83.04v-.74c.19.02.44.03.84.03h1.6v-.43h-.99c-.32,0-.53,0-.76.04v-.71c.2.03.41.04.77.04h.98c0-.27,0-.35-.04-.53h.84c-.03.15-.04.27-.04.53h.53c.34,0,.55-.01.75-.04v.52c.47-.39.69-.62.85-.88l.66.43c-.52.5-.75.7-1.19,1.03h.68c.38,0,.6,0,.8-.03v.74c-.24-.03-.47-.04-.8-.04h-1.68c-.22.13-.35.2-.59.32h1.49c.36,0,.58,0,.74-.03-.02.17-.03.35-.03.64v1.13c0,.27,0,.49.02.63.48.53.6.68.89,1.13l-.68.46c-.29-.57-.52-.9-.82-1.23l.5-.33c-.15,0-.34-.01-.57-.01h-2.77c-.31,0-.53,0-.69.03.02-.18.03-.38.03-.67v-.88c-.32.13-.58.23-1.06.38-.07-.2-.2-.42-.41-.67.98-.24,1.64-.47,2.58-.91h-1.59ZM118.56,26.82c.46-.38.67-.64.9-1.1l.65.32c-.28.57-.49.86-.91,1.28l-.64-.5ZM120.65,27.3v-.22c0-.32-.04-.74-.1-1.08l.69-.07c.08.42.14.86.15,1.3l-.75.06ZM120.66,24.27h2.62v-.33h-2.62v.33ZM120.66,25.15h2.62v-.33h-2.62v.33ZM122.25,22.39c.3-.19.45-.29.62-.42-.15,0-.29-.01-.5-.01h-.56v.43h.44ZM122.29,27.3c-.11-.63-.14-.74-.34-1.27l.69-.14c.19.46.27.72.4,1.24l-.76.17Z"/>
            <path class="cls-4" d="M126.06,22.44c.24-.02.35-.04.82-.14,1.6-.34,1.97-.4,2.79-.4,1.39,0,2.29.78,2.29,1.97,0,.95-.56,1.76-1.55,2.24-.64.32-1.18.44-2.47.58-.09-.38-.15-.53-.36-.9,1.12-.05,1.71-.15,2.3-.41.5-.22.92-.62,1.06-1.04.05-.14.08-.31.08-.5,0-.38-.2-.72-.53-.91-.22-.13-.52-.19-.9-.19-.73,0-1.63.16-2.76.5-.36.11-.41.12-.56.2l-.2-.99Z"/>
            <path class="cls-4" d="M135.39,24.56c-.46.85-.78,1.74-.8,2.25l-.81.04c0-.1-.02-.13-.05-.27-.17-.79-.25-1.48-.25-2.28s.04-1.21.26-2.66c.04-.29.05-.37.05-.52l.92.09c-.08.28-.12.44-.2.85-.11.59-.14.79-.18,1.38-.04.46-.05.67-.05.8,0,.02,0,.11,0,.22,0,.08,0,.2,0,.54v.13c0,.11.01.15.01.27.12-.39.29-.84.46-1.16l.62.31ZM135.22,22.54c.31.06.68.09,1.25.09.27,0,.38,0,.74-.03-.04-1.23-.05-1.3-.09-1.55h.89c-.01.1-.01.14-.01.22,0,.07,0,.13.01.45,0,.08.01.34.03.79.5-.08.81-.15,1.04-.27l.05.83c-.12.01-.16.02-.39.07-.32.07-.38.08-.68.12,0,.15,0,.21,0,.34,0,.74-.05,1.32-.15,1.67-.15.58-.41,1.01-.8,1.36-.22.19-.41.32-.76.53-.25-.32-.36-.42-.68-.66.48-.22.8-.45,1.07-.76.37-.44.49-.93.49-1.97,0-.15,0-.21,0-.44-.24.02-.6.03-.95.03-.2,0-.46,0-.64-.01-.2-.01-.23-.01-.32-.01h-.1v-.81Z"/>
            <path class="cls-4" d="M145.54,20.77l-5.31,6.58h-1.03l5.3-6.58h1.04Z"/>
            <path class="cls-4" d="M148.61,21.07c-.02.06-.04.14-.06.22-.01.09-.02.13-.04.24q-.02.15-.12.67c-.03.15-.03.17-.05.26.2-.01.3-.02.44-.02.46,0,.8.13,1.04.37.24.27.33.6.33,1.24,0,1.21-.2,2.16-.54,2.55-.2.23-.41.32-.78.32-.32,0-.61-.06-1.08-.2,0-.14.01-.24.01-.31,0-.18-.01-.32-.07-.6.38.17.78.27,1.02.27.2,0,.31-.13.42-.48.11-.36.18-1,.18-1.6,0-.64-.16-.83-.71-.83-.14,0-.24,0-.41.02-.21.85-.27,1.06-.43,1.52-.24.7-.43,1.15-.84,1.97q-.04.07-.11.21s-.02.05-.05.12l-.81-.45c.21-.28.49-.78.73-1.32.3-.69.4-.98.68-1.98-.36.04-1.02.16-1.25.22l-.09-.83c.26,0,1.11-.08,1.49-.14.13-.76.18-1.18.18-1.42v-.13l.91.1ZM150.93,21.97c.7.82,1.14,1.65,1.44,2.73l-.8.41c-.13-.6-.29-1.06-.56-1.59-.25-.52-.48-.84-.81-1.2l.72-.35Z"/>
            <path class="cls-4" d="M153.65,21.95c.2.02.36.03.67.03.53,0,.91-.02,1.44-.08q-.02-.06-.08-.18c-.18-.41-.27-.62-.28-.64l.88-.12c.03.18.1.39.29.85.6-.08,1.41-.26,1.89-.42l.07.74q-.07.01-.24.05c-.47.11-1.25.27-1.46.29.11.26.15.35.27.57.6-.13.93-.2.97-.2.4-.1.48-.13.67-.2l.07.76c-.13.02-.28.05-.44.09-.29.07-.52.12-.69.15q-.17.04-.26.06c.36.6.48.75.94,1.28l-.62.44c-.5-.21-.93-.29-1.61-.29-.53,0-.94.07-1.18.2-.2.11-.3.26-.3.43s.12.33.3.41c.22.1.59.15,1,.15.73,0,1.72-.21,2.16-.46l.12.86q-.13.02-.46.11c-.6.16-1.18.24-1.79.24-.8,0-1.32-.1-1.71-.34-.34-.21-.54-.57-.54-.96s.21-.73.59-.97c.37-.23.93-.35,1.63-.35.43,0,.83.05,1.21.15-.11-.11-.24-.3-.54-.79-.74.11-1.19.14-2.71.19-.12,0-.17,0-.29.02l-.03-.76c.2.03.25.03.72.03.74,0,1.32-.04,1.98-.13-.04-.08-.07-.13-.12-.26-.07-.15-.09-.19-.15-.32-.56.06-1.06.09-1.88.1-.29,0-.33,0-.48.01l-.03-.74Z"/>
            <path class="cls-4" d="M162.82,23.42q-.07.16-.1.29c-.18.61-.46,1.18-.81,1.7-.34.48-.7.86-1.28,1.33-.19-.28-.34-.43-.61-.62.42-.27.75-.55,1.06-.9.39-.45.6-.8.83-1.41h-.96c-.28,0-.49.01-.67.04v-.8c.16.02.41.04.71.04h.85c.33,0,.48,0,.63-.03l.35.36ZM161.17,21.13c.6.47.78.64,1.28,1.22l-.61.53c-.44-.57-.68-.81-1.25-1.26l.58-.49ZM166.32,22.36q-.07.07-.22.24c-.38.45-.94.97-1.51,1.44.29.43.53.71.89,1.06.35.33.53.47,1.14.86-.27.23-.41.39-.62.73-.54-.42-.79-.66-1.14-1.06-.24-.28-.44-.56-.67-.93s-.31-.55-.48-.98c.04.72.04.88.04,1.15v1.72c0,.51-.2.66-.95.66-.17,0-.22,0-.8-.04-.03-.29-.08-.48-.2-.79.38.05.67.08.91.08.22,0,.25-.02.25-.17v-4.69c0-.29-.01-.5-.05-.74h.88c-.04.22-.05.44-.05.74v.53c.11.45.21.72.46,1.21.61-.51.81-.71,1.14-1.17.12-.16.2-.29.27-.42l.7.57Z"/>
          </g>
          <g>
            <path class="cls-5" d="M70.8,12.52c-.34,0-.61-.18-.8-.36-.75-.73-1.1-1.99-1.1-4.04,0-1.38.15-2.08.32-2.8l1.18.32c.08.02.25.08.25.2,0,.12-.13.16-.31.23-.12.59-.21,1.22-.21,2.4,0,2.1.52,2.49.73,2.49.39,0,.83-1.14,1.03-1.66l.89.8c-.59,1.27-1.13,2.41-2,2.41ZM76.26,10.6c-.31-2.24-1.02-3.51-1.58-4.37l1.11-.54c.52.73,1.48,2.09,1.77,4.58l-1.29.33Z"/>
            <path class="cls-5" d="M84.66,12.97c-.95.48-2.58.54-3.81.56l-.36-1.23c.66.09,1.27.09,1.4.09,2.13,0,3.11-.87,3.11-1.77,0-.73-.66-1.23-1.4-1.23-.99,0-1.88.8-2.69,1.56l-.91-.71c.37-.94.67-2.13.84-2.83-.23.02-.46.02-.67.02-.1,0-.58,0-1.01-.04l-.15-1.14c.74.17,1.44.17,1.51.17.2,0,.39-.01.56-.02.12-.51.31-1.4.39-2.24l1.23.28c.08.02.23.06.23.14,0,.12-.14.12-.27.19-.05.21-.31,1.26-.37,1.49,1.27-.24,1.91-.44,2.73-.84v1.17c-.95.36-1.65.53-3,.72-.09.33-.31,1.19-.53,1.9,1.09-.71,1.84-.83,2.28-.83,1.33,0,2.39.86,2.39,2.18,0,1.03-.56,1.93-1.51,2.41Z"/>
            <path class="cls-5" d="M92.03,12.73c-2.43,0-3.47-.45-3.47-1.54,0-.97.72-1.62,1.04-1.91l.94.76c-.17.14-.6.52-.6.91,0,.3.08.6,1.91.6,1.63,0,2.58-.19,3.33-.34l.08,1.29c-.83.1-1.91.23-3.22.23ZM92.19,8.14l-.74-.78c.25-.22.68-.6,1.09-.98-.46.03-.84.05-1.66.05-.65,0-.96-.01-1.46-.04l-.32-1.19c.89.13,1.81.19,2.71.19.82,0,1.64-.05,2.46-.17l.49.87c-.84.58-1.67,1.28-2.55,2.04ZM95.94,6.71c-.28-.39-.52-.66-.89-.96l.46-.48c.31.26.56.5.89.96l-.46.49ZM96.51,5.52c-.23-.3-.44-.56-.88-.92l.46-.49c.31.24.61.51.92.88l-.5.52Z"/>
            <path class="cls-5" d="M103,9.96l-.41-1.17c.22.03.45.05.67.05,1.29,0,2.08-.68,2.08-1.42,0-.59-.66-.81-1-.81-.25,0-.55.09-.7.13.15.2.32.48.57.89l-1.16.5c-.1-.22-.2-.43-.54-.98-.53.23-.83.38-1.49.73.81,1.64,1.33,2.92,1.98,4.93l-1.21.54c-.73-2.61-1.37-3.92-1.83-4.85-.73.48-1.06.74-1.4,1.06l-.97-1.07c.15-.09.32-.18,1.82-1.04-.37-.66-.67-1.16-1.11-1.71l1.14-.5c.13-.05.43-.2.43-.01,0,.05-.09.27-.09.32,0,.04.11.21.14.27.08.11.4.7.58,1.03.58-.3.91-.45,1.36-.65-.54-.7-.8-.95-1.09-1.18l1.11-.52c.31.32.55.58,1.08,1.28.37-.11.83-.24,1.33-.24,1.02,0,2.19.54,2.19,1.9,0,2.41-2.64,2.49-3.48,2.51Z"/>
          </g>
        </g>
      </g>
    </g>
  </g>
</svg>