<?xml version="1.0" encoding="UTF-8"?>
<svg xmlns="http://www.w3.org/2000/svg" viewBox="0 0 167.6 26.73">
  <defs>
    <style>
      .cls-1, .cls-2 {
        fill: #b28247;
      }

      .cls-3 {
        isolation: isolate;
      }

      .cls-4 {
        fill: #231815;
      }

      .cls-5 {
        fill: #fff;
      }

      .cls-2 {
        mix-blend-mode: multiply;
      }
    </style>
  </defs>
  <g class="cls-3">
    <g id="_レイヤー_2" data-name="レイヤー 2">
      <g id="_レイヤー_1-2" data-name="レイヤー 1">
        <g>
          <g>
            <rect class="cls-1" width="167.6" height="17.49"/>
            <rect class="cls-2" width="8.29" height="17.49"/>
          </g>
          <g>
            <path class="cls-4" d="M30.42,21.74c-.06.1-.08.17-.12.31-.55,2.21-1.81,3.64-3.99,4.55-.18-.36-.3-.52-.62-.83,1.94-.6,3.21-1.91,3.66-3.77h-3.33c-.52,0-.65,0-.88.04v-.91c.25.04.42.05.9.05h3.21c.25,0,.37,0,.5-.02-.12-.25-.25-.46-.43-.71l.51-.19c.27.36.44.64.62,1.11l-.28.11.25.26ZM30.83,21.24c-.17-.41-.36-.77-.6-1.09l.5-.19c.29.37.46.65.62,1.06l-.52.21Z"/>
            <path class="cls-4" d="M33.97,20.59c-.03.19-.04.36-.04.71l-.04,4c.73-.14,1.39-.41,1.91-.77.64-.44,1.08-.92,1.43-1.6.27.36.37.46.67.71-.48.74-.93,1.21-1.56,1.63-.7.47-1.41.74-2.55.96-.19.04-.27.06-.42.12l-.45-.54c.05-.19.06-.32.06-.72l.03-3.78q0-.49-.04-.72h.99Z"/>
            <path class="cls-4" d="M39.03,25.26c.6-.03,1.44-.24,2.07-.52.88-.38,1.53-.92,2.08-1.72.31-.45.5-.83.71-1.4.27.33.38.43.74.69-.6,1.28-1.26,2.11-2.22,2.75-.71.48-1.58.82-2.67,1.05-.28.06-.3.06-.46.12l-.26-.97ZM39.62,20.91c.83.52,1.27.84,1.81,1.35l-.6.76c-.56-.6-1.13-1.06-1.79-1.42l.58-.69Z"/>
            <path class="cls-4" d="M46.72,26.41c.03-.2.04-.39.04-.78v-4.49c0-.41-.01-.55-.04-.71h.96c-.02.19-.03.32-.03.74v1.3c.81.27,2.07.85,3.18,1.48l-.49.83c-.49-.35-1.48-.89-2.48-1.34-.16-.08-.18-.08-.24-.12.02.2.03.31.03.48v1.85c0,.38,0,.57.03.78h-.96ZM49.61,20.79c.31.33.5.6.73,1.03l-.49.26c-.23-.43-.43-.71-.73-1.04l.49-.25ZM50.69,21.64c-.21-.39-.44-.71-.71-1.02l.47-.25c.31.32.51.59.73.99l-.48.27Z"/>
            <path class="cls-4" d="M57.94,20.14l-5.31,6.58h-1.03l5.3-6.58h1.04Z"/>
            <path class="cls-4" d="M64.29,21.96c-.05.13-.07.22-.08.47-.02.79-.1,1.87-.17,2.33-.18,1.21-.43,1.5-1.27,1.5-.27,0-.5-.02-.87-.08-.01-.44-.04-.57-.16-.9.41.11.69.16.92.16.3,0,.41-.15.52-.76.08-.48.15-1.44.15-2.24h-1.63c-.1.88-.25,1.41-.56,2.01-.38.74-1.01,1.38-1.89,1.94-.24-.37-.34-.48-.63-.74.88-.46,1.45-1.02,1.82-1.77.19-.39.29-.73.36-1.22.01-.1.03-.17.04-.22h-1.16c-.43,0-.53.01-.76.04v-.86c.23.04.42.06.77.06h1.23c.02-.27.03-.68.03-.88v-.18c0-.09,0-.15-.02-.27l.94.02c-.01.09-.02.12-.03.22,0,.04,0,.08,0,.13q-.01.15-.03.51c0,.15,0,.22-.03.44h1.55c.31,0,.38-.01.55-.07l.4.35Z"/>
            <path class="cls-4" d="M71.39,21.38c-.06.12-.08.17-.12.32-.35,1.34-.76,2.18-1.44,2.93-.69.77-1.44,1.28-2.61,1.79-.2-.38-.29-.51-.62-.83.62-.2,1.01-.38,1.53-.71,1.09-.71,1.78-1.69,2.12-3.05h-3.33c-.47,0-.63,0-.88.04v-.91c.27.04.42.05.9.05h3.21c.39,0,.53-.01.75-.07l.48.46Z"/>
            <path class="cls-4" d="M75.73,25.47h1.43c.33,0,.46,0,.65-.04v.78c-.2-.02-.34-.03-.65-.03h-3.61c-.31,0-.46,0-.65.03v-.78c.2.04.32.04.64.04h1.37v-2.26h-.94c-.26,0-.41,0-.64.04v-.81c.19.04.36.05.64.05h2.75c.29,0,.45-.01.64-.05v.79c-.19-.02-.29-.03-.64-.03h-1v2.26Z"/>
            <path class="cls-4" d="M84.92,22.71c-.07.13-.11.22-.2.44-.37,1.03-.9,1.81-1.62,2.37-.5.38-.95.62-1.84.95-.15-.35-.24-.47-.54-.81.85-.22,1.41-.48,1.95-.92.52-.43.82-.86,1.13-1.64h-3.41c-.47,0-.64,0-.9.03v-.85c.27.04.42.05.91.05h3.33c.43,0,.57-.01.79-.06l.4.45ZM80.08,20.59c.23.04.38.05.82.05h2.44c.44,0,.59,0,.82-.05v.86c-.22-.03-.35-.04-.8-.04h-2.47c-.46,0-.59,0-.81.04v-.86Z"/>
            <path class="cls-4" d="M90.01,23.24c-.04.81-.19,1.39-.49,1.88-.37.62-.88,1-1.83,1.38-.18-.36-.27-.48-.57-.77.84-.26,1.37-.63,1.66-1.17.18-.32.29-.78.31-1.32h-1.71c-.48,0-.64,0-.89.03v-.83c.27.04.42.05.9.05h4.1c.48,0,.64,0,.9-.05v.83c-.25-.03-.41-.03-.89-.03h-1.5ZM87.2,20.68c.26.04.4.05.9.05h2.69c.51,0,.64,0,.9-.05v.85c-.23-.03-.4-.04-.89-.04h-2.72c-.49,0-.66,0-.89.04v-.85Z"/>
            <path class="cls-4" d="M98.84,20.14l-5.31,6.58h-1.03l5.3-6.58h1.04Z"/>
            <path class="cls-4" d="M101.79,21.13c.19-.34.34-.69.41-.96l.89.12s-.01.03-.05.11c0,0-.01.03-.04.06,0,.01-.01.04-.02.06-.14.29-.18.39-.32.61h1.79c.34,0,.54,0,.8-.04-.02.25-.04.5-.04.87v3.72c0,.42.01.67.04.92h-.84v-.36h-3.55v.36h-.83c.03-.25.04-.52.04-.93v-3.71c0-.36-.02-.63-.04-.86.24.03.45.04.77.04h.97ZM100.87,23.27h3.55v-1.41h-3.55v1.41ZM100.87,25.49h3.55v-1.48h-3.55v1.48Z"/>
            <path class="cls-4" d="M109.4,24.13c-.1.15-.14.22-.25.46-.37-.32-.49-.43-.66-.64v1.9c0,.33.01.57.04.83h-.81c.03-.22.04-.5.04-.83v-1.68c-.25.27-.41.43-.75.7-.08-.29-.17-.5-.33-.76.34-.23.7-.56,1-.9.33-.39.57-.75.76-1.18h-.95c-.22,0-.41.01-.59.04v-.75c.16.03.27.04.53.04h.32v-.61c0-.17-.01-.37-.04-.54h.82c-.03.15-.04.34-.04.55v.6h.17c.22,0,.33,0,.39-.03l.33.36c-.04.07-.05.1-.11.22-.22.53-.42.9-.66,1.25.21.24.48.48.79.69v-1.91c0-.34,0-.49-.03-.71.18.03.34.03.71.03h.71v-.3c0-.31-.01-.5-.04-.74h.81c-.03.23-.04.43-.04.75v.29h.82c.38,0,.53,0,.71-.03-.02.19-.03.31-.03.71v2.36c0,.31,0,.55.03.77h-.75v-.36h-.79v1.13c0,.39.02.62.04.86h-.81c.04-.26.04-.47.04-.85v-1.13h-.69v.39h-.74c.03-.2.04-.41.04-.75v-.2ZM110.08,21.91v.7h.71v-.7h-.71ZM110.1,23.26v.76h.69v-.76h-.69ZM112.29,22.62v-.7h-.77v.7h.77ZM112.31,24.02v-.76h-.79v.76h.79Z"/>
            <path class="cls-4" d="M116.82,21.03c-.03.08-.04.16-.09.54-.14.95-.31,1.73-.55,2.4-.31.86-.67,1.49-1.24,2.16-.34-.32-.45-.41-.8-.6.42-.42.71-.85,1-1.49.3-.65.55-1.52.66-2.4.04-.29.06-.52.06-.68v-.1l.96.18ZM118.81,20.85c.02.39.13.99.29,1.61.34,1.28.8,2.18,1.56,3.03-.37.24-.49.34-.77.64-.5-.6-.86-1.23-1.19-2.06-.3-.74-.55-1.67-.67-2.55-.04-.27-.06-.4-.1-.5l.87-.17Z"/>
            <path class="cls-4" d="M121.98,24.67c.27.04.42.05.9.05h4.02c.47,0,.63,0,.9-.05v.94c-.25-.03-.43-.04-.88-.04h-4.05c-.46,0-.64,0-.88.04v-.94ZM122.69,21.26c.25.04.41.05.83.05h2.75c.41,0,.57,0,.83-.05v.92c-.23-.03-.4-.04-.82-.04h-2.77c-.42,0-.59,0-.82.04v-.92Z"/>
            <path class="cls-4" d="M128.97,22.92c.31.04.44.05,1.13.05h3.73c.69,0,.83,0,1.13-.05v.97c-.28-.04-.36-.04-1.14-.04h-3.72c-.79,0-.86,0-1.14.04v-.97Z"/>
            <path class="cls-4" d="M142.02,22.71c-.07.13-.11.22-.2.44-.37,1.03-.9,1.81-1.62,2.37-.5.38-.95.62-1.84.95-.15-.35-.24-.47-.54-.81.85-.22,1.41-.48,1.95-.92.52-.43.82-.86,1.13-1.64h-3.41c-.47,0-.64,0-.9.03v-.85c.27.04.42.05.91.05h3.33c.43,0,.57-.01.79-.06l.4.45ZM137.18,20.59c.23.04.38.05.82.05h2.44c.44,0,.59,0,.82-.05v.86c-.22-.03-.35-.04-.8-.04h-2.47c-.46,0-.59,0-.81.04v-.86Z"/>
            <path class="cls-4" d="M147.11,23.24c-.04.81-.19,1.39-.49,1.88-.37.62-.88,1-1.83,1.38-.18-.36-.27-.48-.57-.77.84-.26,1.37-.63,1.66-1.17.18-.32.29-.78.31-1.32h-1.71c-.48,0-.64,0-.89.03v-.83c.27.04.42.05.9.05h4.1c.48,0,.64,0,.9-.05v.83c-.25-.03-.41-.03-.89-.03h-1.5ZM144.3,20.68c.26.04.4.05.9.05h2.69c.51,0,.64,0,.9-.05v.85c-.23-.03-.4-.04-.89-.04h-2.72c-.49,0-.66,0-.89.04v-.85Z"/>
          </g>
          <g>
            <path class="cls-5" d="M46.22,13.32c-2.61,0-3.76-1.96-3.76-4.12s1.07-4.27,3.87-4.27c2.24,0,3.21,1.49,3.34,2.74h-1.54c-.3-1.45-1.55-1.45-1.77-1.45-1.23,0-2.36.99-2.36,2.96,0,1.84.99,2.87,2.2,2.87.52,0,1.03-.19,1.43-.58.36-.34.43-.61.5-1.06h1.54c-.14,1.31-1.14,2.91-3.45,2.91Z"/>
            <path class="cls-5" d="M56.22,13.07l-.58-1.69h-3.31l-.58,1.69h-1.6l3.02-7.86h1.65l3.02,7.86h-1.61ZM54.16,7.13l-.17-.69-.18.69-1.04,3.03h2.46l-1.06-3.03Z"/>
            <path class="cls-5" d="M60.32,6.43v2.04h3.74v1.23h-3.74v3.37h-1.46v-7.86h5.58v1.23h-4.13Z"/>
            <path class="cls-5" d="M65.54,13.07v-7.86h5.95v1.23h-4.5v1.95h4.16v1.13h-4.16v2.33h4.68v1.23h-6.12ZM68.06,4.51h-.88l1.22-1.75h1.33l-1.67,1.75Z"/>
            <path class="cls-5" d="M77.85,10.32c-.75,1.42-1.59,2.07-2.01,2.39l-1.11-.66c.46-.33,1.4-1.02,2.13-2.36.55-1.01.64-1.75.67-2.11h-2.07v-1.16h3.42c-.03.68-.1,2.15-1.02,3.9ZM83.48,12.72c-.75-.58-2.14-1.64-3.08-3.39v2.96c0,1.18-.6,1.36-1.99,1.37l-.47-1.23c.17.04.45.11.78.11.26,0,.49-.09.49-.37v-7.86l1.12.1c.25.02.36.03.36.16,0,.06-.03.09-.13.18-.11.09-.14.11-.14.15v.82c0,.88.24,1.57.44,2.08.69-.52,1.43-1.36,1.94-2.28l1.07.57c.22.12.31.18.31.27s-.09.1-.11.1c-.21.02-.23.02-.28.06-.7.88-1.48,1.65-2.37,2.33.67,1.07,1.61,1.99,2.96,2.83l-.88,1.04Z"/>
            <path class="cls-5" d="M89.79,13.33c-1.27,0-1.83-.15-2.37-.43-.78-.41-1.1-1.16-1.1-1.84,0-1.35,1.04-2.04,2.23-2.74-.3-.32-.51-.67-.63-.97-.15-.36-.21-.67-.55-2.72l1.38-.21c.01.6.02,1.75.31,2.55.15.41.38.58.62.73,1.24-.58,1.38-.65,2.7-1.27l.4,1.31c-1.7.46-3.3,1.26-3.99,1.7-.48.3-1.28.85-1.28,1.57,0,.78.85,1.15,1.98,1.15s2.24-.21,3.33-.48v1.38c-.65.1-1.69.26-3.04.26Z"/>
            <path class="cls-5" d="M101.03,12.38v-.38h-5.63v-1.19h5.63v-3.75h-5.61v-1.2h6.89v6.51h-1.28Z"/>
            <path class="cls-5" d="M104.89,9.65v-1.37h7.66v1.37h-7.66Z"/>
            <path class="cls-5" d="M118.81,13.01c-3.22,0-3.56-.57-3.56-1.69v-6.61l1.23.17c.06.01.32.05.32.17,0,.04-.02.08-.09.13-.14.11-.15.12-.15.16v2.6c1.28-.23,2.77-.62,4.3-1.56l.93.89c.08.08.16.13.16.24,0,.02-.01.1-.1.1-.1,0-.23-.05-.33-.04-1.49.61-2.8,1.1-4.96,1.56v1.7c0,.62.03.96,1.82.96,1.61,0,2.96-.2,3.6-.3v1.39c-1.06.09-2.11.14-3.18.14Z"/>
            <path class="cls-5" d="M123.91,9.65v-1.37h7.66v1.37h-7.66Z"/>
          </g>
        </g>
      </g>
    </g>
  </g>
</svg>