<?xml version="1.0" encoding="UTF-8"?>
<svg xmlns="http://www.w3.org/2000/svg" viewBox="0 0 167.6 27.13">
  <defs>
    <style>
      .cls-1, .cls-2 {
        fill: #b28247;
      }

      .cls-3 {
        isolation: isolate;
      }

      .cls-4 {
        fill: #231815;
      }

      .cls-5 {
        fill: #fff;
      }

      .cls-2 {
        mix-blend-mode: multiply;
      }
    </style>
  </defs>
  <g class="cls-3">
    <g id="_レイヤー_2" data-name="レイヤー 2">
      <g id="_テキスト1" data-name="テキスト1">
        <g>
          <g>
            <rect class="cls-1" width="167.6" height="17.49"/>
            <rect class="cls-2" width="8.29" height="17.49"/>
          </g>
          <g>
            <path class="cls-4" d="M66.66,23.65c.3.65.53,1.04.86,1.39.35.38.8.7,1.28.92.22.11.36.15.68.23-.23.29-.33.45-.47.78-1.35-.53-2.21-1.35-2.82-2.66-.22.64-.53,1.12-1.01,1.58-.49.46-.97.75-1.78,1.06-.15-.33-.27-.52-.46-.72.94-.3,1.49-.64,1.96-1.2.34-.41.54-.81.67-1.38h-1.36c-.31,0-.6.01-.88.04v-.77c.25.03.53.04.88.04h1.47q.04-.46.05-1.23h-1.74c-.36,0-.65.01-.9.04v-.8c.23.04.55.05.9.05h4.42c.34,0,.66-.01.91-.05v.8c-.27-.03-.54-.04-.9-.04h-1.9c-.01.74-.01.86-.05,1.23h1.71c.34,0,.63-.01.9-.04v.77c-.29-.03-.56-.04-.89-.04h-1.53Z"/>
            <path class="cls-4" d="M71.66,22.85c.2.15.39.32.57.51.13-.15.19-.23.31-.41-.17-.17-.34-.3-.6-.49l.34-.46c.23.15.37.25.57.43.11-.22.16-.36.27-.71h-.92c-.33.62-.79,1.18-1.28,1.57-.16-.23-.29-.37-.5-.54.55-.38.93-.83,1.22-1.45.14-.29.2-.48.24-.74l.77.1c-.03.06-.04.08-.06.14q-.02.06-.06.15s0,.01-.05.13h.56c.22,0,.37,0,.5-.03l.38.39q-.04.1-.08.27c-.03.07-.06.17-.12.34.17.01.34.02.57.02h.22c.02-.29.02-.44.02-.72,0-.39,0-.5-.04-.7h.81c-.03.17-.03.25-.03.62,0,.23-.01.46-.04.81h.83c.3,0,.53-.01.73-.04v.76c-.22-.03-.43-.04-.73-.04h-.77c.18.45.4.77.77,1.12.31.29.52.43.94.63-.18.24-.26.39-.39.74-.82-.48-1.39-1.09-1.69-1.81-.15.37-.36.74-.58.99-.24.27-.56.51-1.04.78-.11-.23-.23-.39-.46-.62.52-.24.8-.45,1.09-.8.21-.27.37-.61.48-1.02h-.12c-.34,0-.44,0-.68.04v-.41c-.27.73-.6,1.23-1.12,1.77-.2.21-.52.46-.83.68-.18.12-.34.2-.73.41-.11-.26-.22-.43-.46-.65.62-.27.9-.44,1.32-.78-.15-.18-.37-.4-.55-.53l.43-.43ZM70.52,26.62c.46-.48.7-.86.95-1.5l.65.31c-.3.79-.5,1.13-.96,1.7l-.64-.51ZM72.67,27.04c-.01-.71-.05-1.14-.15-1.67l.69-.08c.12.6.17.92.22,1.67l-.76.08ZM74.31,26.98c-.09-.63-.2-1.06-.41-1.6l.67-.15c.24.58.36.95.5,1.59l-.76.16ZM76.24,27.05c-.35-.74-.55-1.08-.99-1.62l.57-.36c.54.67.76.99,1.09,1.59l-.68.39ZM75.98,20.7c.25.29.48.58.64.87l-.57.36c-.21-.41-.32-.57-.62-.92l.55-.32Z"/>
            <path class="cls-4" d="M79.59,23.01c.71-.14,1.38-.36,2.12-.69.52-.23.82-.41,1.04-.6l.56.79c-.14.06-.15.07-.33.15-.63.33-1.34.62-2,.83-.51.15-.69.2-1.39.33v.9s0,.01,0,.02v.1c0,.41.03.57.13.66.12.13.52.18,1.2.18.47,0,1.11-.04,1.62-.11.34-.04.49-.08.8-.16l.04.93c-.14,0-.19,0-.69.06-.56.06-1.44.1-1.96.1-.88,0-1.36-.09-1.63-.3-.2-.15-.3-.37-.34-.71-.01-.12-.02-.24-.02-.64v-3.25c0-.36,0-.46-.04-.64h.94c-.03.18-.04.33-.04.65v1.41Z"/>
            <path class="cls-4" d="M90.61,23.09c-.07.13-.11.22-.2.44-.37,1.03-.9,1.81-1.62,2.37-.5.38-.95.62-1.84.95-.15-.35-.24-.47-.54-.81.85-.22,1.41-.48,1.95-.92.52-.43.82-.86,1.13-1.64h-3.41c-.47,0-.64,0-.9.04v-.85c.27.04.42.05.91.05h3.33c.43,0,.57-.01.79-.06l.4.45ZM85.77,20.97c.23.04.38.05.82.05h2.44c.44,0,.59,0,.82-.05v.86c-.22-.03-.35-.04-.8-.04h-2.47c-.46,0-.59,0-.81.04v-.86Z"/>
            <path class="cls-4" d="M96.77,21.19c-.08.13-.11.19-.24.5-.44,1.04-.71,1.58-.99,1.98.59.5.95.84,1.56,1.49l-.67.72c-.36-.48-.78-.91-1.42-1.48-.3.4-.66.79-1.09,1.17-.5.44-.95.76-1.67,1.16-.19-.34-.3-.46-.62-.73.78-.38,1.26-.71,1.81-1.21.34-.3.62-.6.89-.95-.56-.46-1.23-.92-1.86-1.26l.62-.62c.51.3.81.5,1.16.74q.53.38.58.41c.45-.74.9-1.75.99-2.26l.95.33Z"/>
            <path class="cls-4" d="M101.33,20.76q-.04.13-.11.47c-.04.17-.07.31-.15.62.48-.05.85-.11,1.12-.2l.02.81c-.08,0-.09,0-.22.04-.25.04-.68.09-1.11.13-.2.7-.46,1.37-.77,2.03-.16.34-.22.47-.49.96q-.09.17-.13.25l-.8-.45c.24-.32.44-.64.68-1.12.27-.56.39-.85.66-1.65-.32,0-.36,0-.44,0-.09,0-.13,0-.28,0h-.37v-.81c.25.05.52.06.95.06.08,0,.2,0,.36,0,.12-.5.2-.92.21-1.22l.9.09ZM104.5,26.43c-.25-.3-.66-.63-1.07-.87,0,.06.02.11.02.14,0,.26-.12.56-.3.74-.24.25-.66.39-1.16.39-.92,0-1.53-.46-1.53-1.18s.62-1.21,1.51-1.21c.21,0,.36.01.65.06-.02-.32-.04-.6-.04-.81,0-.27.01-.48.05-.71l.81.04c-.07.26-.08.42-.08.71s.01.56.06.96c.51.22.58.26,1.11.64.11.07.13.1.25.19q.05.06.1.1l-.38.78ZM102.02,25.15c-.46,0-.75.19-.75.48s.25.46.69.46c.48,0,.71-.2.71-.59,0-.07-.01-.24-.01-.24-.25-.08-.41-.11-.63-.11ZM104.54,23.21c-.61-.41-1.23-.71-2.02-.98l.42-.68c.83.32,1.35.56,1.98.94l-.38.72Z"/>
            <path class="cls-4" d="M105.71,24.27c.29-.2.72-.68,1.53-1.72.18-.22.3-.35.43-.44.19-.14.38-.21.56-.21.21,0,.42.09.63.27.1.08.25.25.47.5.87,1.04,2.45,2.56,2.86,2.73l-.43.99c-.07-.08-.08-.1-.2-.2-.99-.89-1.93-1.84-2.72-2.78-.43-.5-.48-.53-.61-.53-.11,0-.18.06-.42.38-.54.72-.92,1.19-1.38,1.7-.08.1-.09.1-.15.2l-.57-.88ZM110.4,21.61c.3.33.5.6.73,1.03l-.49.26c-.23-.43-.43-.71-.73-1.04l.49-.25ZM111.48,22.46c-.21-.38-.44-.71-.71-1.02l.47-.25c.32.32.51.59.73.99l-.48.27Z"/>
          </g>
          <g>
            <path class="cls-5" d="M43.87,8.84c-.12.06-.13.09-.15.12-.39.87-.88,1.52-1.42,2.1l-1.09-.73c.85-.78,1.24-1.61,1.52-2.37l1.13.55c.06.03.14.09.14.17,0,.08-.05.13-.13.16ZM47.39,7.64v4.03c0,.72-.42.98-1.44.98h-.49l-.44-1.28c.36.03.61.04.72.04.24,0,.43-.13.43-.38v-3.39h-.59c-.02.78-.08,2.07-.41,2.94-.41,1.07-1.39,1.73-2.47,2.11l-.98-1.07c2.48-.52,2.58-1.95,2.61-3.99h-3v-1.18h3.94v-.97h-3.13v-1.13h3.13v-1.07l1.31.12c.2.02.25.06.25.13,0,.05-.02.09-.05.12-.09.09-.16.16-.16.21v.49h3.1v1.13h-3.1v.97h3.91v1.18h-3.15ZM49.17,11.33c-.37-1.07-.73-1.84-1.23-2.65l1.06-.57c.52.79.93,1.63,1.3,2.49l-1.13.73Z"/>
            <path class="cls-5" d="M56.07,4.83c-.13.5-.31,1.14-1.08,2.42h5.07v5.19h-1.28v-.41h-3.98v.58h-1.27v-3.45c-.52.55-.84.8-1.17,1.03l-1.04-.83c1.63-.97,2.81-2.77,3.33-4.55h-2.93v-1.22h9.08v1.22h-4.73ZM58.79,8.38h-3.98v2.54h3.98v-2.54Z"/>
            <path class="cls-5" d="M64.67,9.33c-.75,1.42-1.59,2.07-2.01,2.39l-1.11-.66c.46-.33,1.4-1.02,2.13-2.36.55-1.01.64-1.75.67-2.11h-2.07v-1.16h3.42c-.03.68-.1,2.15-1.02,3.9ZM70.3,11.74c-.75-.58-2.14-1.64-3.08-3.39v2.96c0,1.18-.6,1.36-1.99,1.37l-.47-1.23c.17.04.45.11.78.11.26,0,.48-.09.48-.37V3.32l1.12.1c.25.02.36.03.36.16,0,.07-.03.09-.13.18-.11.09-.14.11-.14.15v.82c0,.88.24,1.57.44,2.08.69-.52,1.43-1.36,1.94-2.28l1.07.57c.22.12.31.18.31.27s-.09.1-.11.1c-.21.02-.23.02-.28.06-.7.88-1.48,1.65-2.37,2.33.67,1.07,1.61,1.99,2.96,2.83l-.88,1.04Z"/>
            <path class="cls-5" d="M73.9,12.51v-.97h3.12v-.83h-1.76v-.94h1.76v-.75h-1.46c-.13.23-.27.46-.45.73l-1.04-.5c-.14,1.73-.56,2.67-1.03,3.58l-1.13-.47c.39-.62,1.06-1.72,1.06-4.01,0-.18,0-1-.1-2.21h2.15c-.16-.39-.3-.66-.5-.96h-1.67v-.95h3.48v-.92l1.31.1c.05,0,.26.02.26.14,0,.05-.06.1-.1.12s-.13.1-.13.18v.38h3.49v.95h-1.53c-.15.4-.29.67-.47.96h2.15v.96h-5.88l.85.42c.14.08.18.12.18.16,0,.02,0,.04-.01.04-.02.03-.18.05-.22.07-.03.01-.05.04-.17.29h.95v-.81l1.1.17c.11.02.25.04.25.13,0,.04-.05.08-.09.1-.02.01-.1.06-.1.12v.29h2.59v.94h-2.59v.75h1.92v.94h-1.92v.83h3.22v.97h-7.51ZM74.11,7.1c-.01,1.11-.02,1.54-.03,1.98.57-.48,1.01-1.33,1.2-1.98h-1.16ZM75.89,5.19c.19.3.36.58.51.96h1.43c.09-.14.26-.42.46-.96h-2.4Z"/>
            <path class="cls-5" d="M84.39,7.89c-.41-.33-.99-.73-1.79-.99l.59-1.09c.68.3,1.16.56,1.79,1.09l-.59.99ZM84.25,11.95c-.12.21-.12.25-.12.52,0,.06-.01.12-.11.12-.13,0-.27-.1-.42-.21l-.86-.65c.31-.33.53-.56,1.06-1.45.59-1,.78-1.45.94-1.9l.97.74c-.43.97-.93,1.91-1.45,2.83ZM84.99,5.47c-.8-.69-1.34-.91-1.7-1.04l.68-1.03c.74.36,1.1.59,1.7,1.12l-.68.96ZM86.61,9.87v-3.49c-.19.14-.26.19-.47.33l-.95-.87c.44-.21.9-.41,1.65-1.23.58-.62.76-1,.96-1.4l1.09.26s.29.06.29.18c0,.03-.01.06-.04.09s-.18.1-.2.12c-.01.01-.16.25-.17.27h2.47l.41.4c-.5.6-.85.97-1.15,1.27h1.55v4.07h-5.42ZM87.21,10.7c-.1.47-.4,1.2-.87,2.01l-1.07-.65c.45-.56.7-.99,1.06-2.06l.89.38s.19.08.19.17c0,.09-.14.13-.2.14ZM88.01,5.09c-.28.3-.44.46-.7.71h1.57c.24-.24.42-.45.62-.71h-1.5ZM87.73,12.34c0-.28-.02-1.17-.23-1.97l1.09-.06c.24.76.32,1.54.36,1.97l-1.22.06ZM88.73,6.75h-.96v.6h.96v-.6ZM88.73,8.29h-.96v.64h.96v-.64ZM89.27,12.29c.02-.47-.08-1.26-.28-1.92l1.04-.12c.24.62.39,1.27.44,1.93l-1.21.11ZM90.84,6.75h-.99v.6h.99v-.6ZM90.84,8.29h-.99v.64h.99v-.64ZM91.51,12.63c-.24-.72-.58-1.46-1.08-2.16l1.03-.48c.44.65.83,1.42,1.13,2.14l-1.09.5Z"/>
            <path class="cls-5" d="M98.82,11.59c-.28.8-.95.82-1.36.83l-.38-1.03c.16.03.4.04.56.04.13,0,.22,0,.3-.42.12-.52.17-1.2.18-1.73h-.52c-.13,1.25-.62,2.35-1.35,3.12l-.86-.5v.68h-1.19v-5.89h-.86v-1.16h.86v-2.06l1.12.05c.12.01.28.02.28.12,0,.03-.07.08-.1.1-.08.05-.12.1-.12.15v1.64h.95v1.16h-.95v5.18c.37-.44,1.02-1.25,1.22-2.6h-.73v-.96h.79c.01-.14.02-.23.02-.36s-.01-.23-.02-.3l1.03.06c.16.01.25.02.25.11,0,.03-.04.06-.16.16-.04.04-.05.08-.08.32h1.5c-.02.47-.09,2.38-.4,3.28ZM101,12.45l-.39-1.03c.16.01.28.02.39.02.26,0,.33-.02.41-.38.1-.47.16-1.11.17-1.79h-.57c-.1,1.26-.52,2.31-1.4,3.18l-.78-.66c.86-.79,1.12-1.58,1.22-2.52h-.51v-.96h.53c.01-.37,0-.51-.01-.66h.02s-.59-1.13-.59-1.13c.47.03.53.03.6.03.52,0,.66-.22.72-1.21h-1.46c-.15.69-.6,1.51-1.73,2.32l-.87-.78c1.06-.54,1.36-1.22,1.5-1.54h-1.45v-1.04h1.64c.03-.34.03-.54.04-.9l.96.04c.1,0,.33.02.33.13,0,.04-.01.05-.14.15-.08.06-.08.08-.08.24,0,.1,0,.21-.01.34h2.52c-.03,2.65-.51,3.11-1.83,3.37l.75.09s.22.03.22.1c0,.04-.05.09-.1.14,0,.09-.01.26-.01.31h1.54c-.01,3.59-.32,4.09-1.64,4.14Z"/>
            <path class="cls-5" d="M110.99,6.96c-.42,1.54-.97,2.35-1.26,2.79.79.44,1.67.97,2.69,1.91l-.97.85c-.79-.78-1.41-1.23-2.5-1.83-1.27,1.15-2.34,1.59-4.25,1.85l-.65-1.14c1.57-.11,2.48-.32,3.71-1.3-.6-.27-.92-.4-1.4-.56-.04.14-.09.28-.28.58l-1.33-.44c.57-.99,1-1.88,1.33-2.7h-2.41v-1.13h2.87c.34-.91.58-1.58.85-2.51l1.39.33c.06.01.13.1.13.16,0,.03-.02.09-.1.13-.18.09-.19.1-.27.3-.32.91-.47,1.24-.61,1.58h4.91v1.13h-1.85ZM107.47,6.96c-.21.55-.34.86-.67,1.59.54.14.98.27,1.82.64.59-.78.84-1.49,1-2.23h-2.16Z"/>
            <path class="cls-5" d="M117.28,12.29v-1.12h2.36v-1.96h-1.71v-1.11h1.71v-1.63h-.93c-.13.36-.37.99-.7,1.45l-1.23-.41c.17-.18.32-.49.43-.7-.05-.1-.25-.42-.51-.61v6.38h-1.25v-6.87s-.03.03-.1.06c-.02.62-.05,1.34-.28,2.34l-1.13-.17c.1-.38.3-1.16.3-2.62l1.01.15c.14.02.15.03.19.06v-2.17l1.15.05c.25.01.4.04.4.15,0,.1-.08.15-.15.19-.1.06-.15.11-.15.17v1.25l.39-.24c.2.21.45.5.61.74.17-.52.26-.9.39-1.72l1.13.28c.2.05.29.08.29.19,0,.05-.04.11-.12.15-.06.04-.11.08-.15.12-.05.1-.14.52-.17.6h.56v-2.01l1.17.04c.3.01.39.04.39.14s-.07.16-.14.23-.16.14-.16.19v1.41h2.45v1.15h-2.45v1.63h1.91v1.11h-1.91v1.96h2.58v1.12h-6.21Z"/>
            <path class="cls-5" d="M124.58,8.01v-1h1.19c-.18-.57-.41-1.02-.61-1.38l.75-.32h-1.01v-.95h1.73v-1.04l1.43.08c.12.01.17.03.17.12,0,.05-.02.08-.08.11-.15.11-.16.12-.16.16v.58h1.51v.95h-1.15l.85.5c.09.05.12.1.12.14,0,.06-.05.1-.11.12-.15.04-.17.05-.22.16-.16.48-.27.68-.33.79h.98v1h-5.06ZM127.98,12.48v-.27h-1.81v.34h-1.08v-3.95h4.05v3.88h-1.16ZM126.17,5.3c.31.58.48,1.01.62,1.46l-.59.25h1.3c.3-.59.54-1.14.66-1.7h-1.99ZM127.98,9.69h-1.81v1.42h1.81v-1.42ZM131.84,11.67l-.74-1.1v2h-1.11V3.79h3.54l.41.59c-.84,1.72-.94,1.92-1.34,2.74.46.42,1.35,1.23,1.35,2.5,0,.86-.48,2-2.11,2.06ZM131.46,7.18c.19-.47.58-1.49.86-2.39h-1.23v5.62c.18.02.49.03.58.03.73,0,1.12-.5,1.12-.95,0-.9-.99-1.96-1.34-2.32Z"/>
          </g>
        </g>
      </g>
    </g>
  </g>
</svg>