<?xml version="1.0" encoding="UTF-8"?>
<svg xmlns="http://www.w3.org/2000/svg" viewBox="0 0 167.6 27.6">
  <defs>
    <style>
      .cls-1, .cls-2 {
        fill: #b28247;
      }

      .cls-3 {
        isolation: isolate;
      }

      .cls-4 {
        fill: #231815;
      }

      .cls-5 {
        fill: #fff;
      }

      .cls-2 {
        mix-blend-mode: multiply;
      }
    </style>
  </defs>
  <g class="cls-3">
    <g id="_レイヤー_2" data-name="レイヤー 2">
      <g id="_テキスト1" data-name="テキスト1">
        <g>
          <g>
            <rect class="cls-1" width="167.6" height="17.49"/>
            <rect class="cls-2" width="8.29" height="17.49"/>
          </g>
          <g>
            <path class="cls-4" d="M3.8,26c-.11.62-.25,1.07-.48,1.57l-.52-.42c.23-.4.34-.71.48-1.35l.52.2ZM5.4,24.48c.61-.17,1.09-.43,1.47-.78h0q-.17.02-1.01.15c-.14.02-.18.03-.29.06l-.13-.56c.06,0,.09,0,.12,0h.07c.2-.32.31-.57.38-.89-.12.01-.17.02-.32.04l-.11-.63c.17.02.36.03.58.03.03,0,.08,0,.13,0,.22-.3.36-.58.44-.9l.72.14c-.3.55-.3.56-.43.74.53-.03.88-.04,1.01-.06-.1-.11-.15-.16-.34-.35l.55-.29c.35.32.66.68.98,1.11l-.57.34q-.19-.29-.25-.36c-.38.05-.7.08-2.32.19l.52.15c-.12.29-.21.46-.37.69.2-.02.34-.03.46-.06-.05-.12-.08-.16-.18-.33l.44-.17c.2.33.25.43.41.82h.1l-.06-.29h.19c.16-.27.27-.52.34-.85l.58.17c-.21.43-.24.49-.35.66.24-.02.31-.03.47-.05-.05-.08-.08-.13-.21-.33l.45-.21c.27.36.43.62.64,1.03l-.51.26c-.06-.15-.08-.2-.13-.32-.48.08-.55.09-.94.13.43.34.99.61,1.6.76-.13.22-.18.31-.31.64-.79-.28-1.38-.66-1.88-1.18-.36.45-.89.79-1.67,1.08-.08-.18-.16-.34-.27-.48v.53c0,.23,0,.36.02.54-.13-.01-.24-.01-.51-.01h-1.15c-.37,0-.41,0-.56.01.02-.21.03-.41.03-.63v-1.65c-.12-.17-.23-.27-.41-.41.42-.5.66-.92.85-1.48.07-.2.11-.39.13-.53l.69.14c-.03.07-.04.1-.06.18-.03.11-.04.12-.08.22h.42c.18,0,.28,0,.37-.03l.25.32c-.05.08-.07.11-.17.32-.13.27-.22.46-.32.63h.11c.16,0,.28,0,.41-.03-.01.18-.02.34-.02.62v1.13ZM4.24,22.75c.14-.22.22-.38.3-.62h-.45c-.12.25-.2.39-.32.62h.47ZM3.78,23.9h.28v-.56h-.28v.56ZM3.78,25.05h.28v-.6h-.28v.6ZM4.27,25.95c.1.44.16.82.22,1.41l-.51.12c-.03-.55-.08-.96-.15-1.44l.45-.09ZM4.84,25.9c.16.49.23.78.31,1.25l-.46.15c-.06-.49-.13-.8-.27-1.29l.42-.1ZM4.58,23.9h.28v-.56h-.28v.56ZM4.58,25.05h.28v-.6h-.28v.6ZM5.37,25.78c.18.4.25.6.38,1.04l-.43.17c-.11-.44-.2-.76-.34-1.07l.39-.14ZM9.37,26.03c-.06.05-.08.06-.14.11-.75.55-1.16.78-1.78,1.02-.47.18-1,.33-1.46.41-.11-.25-.18-.36-.37-.57.88-.13,1.65-.39,2.32-.75.46-.25.69-.42.88-.64l.55.42ZM7.95,24.81q-.08.06-.26.17c-.53.36-.93.53-1.69.75q-.12-.26-.33-.49c.86-.2,1.55-.53,1.8-.85l.48.42ZM8.62,25.42c-.26.19-.45.32-.57.39-.56.36-1.16.6-2.01.81-.12-.26-.17-.34-.36-.54.88-.17,1.51-.41,2.06-.78.19-.13.27-.2.36-.31l.51.42Z"/>
            <path class="cls-4" d="M13.99,24.12c-.09,1.67-.72,2.59-2.23,3.26-.17-.32-.25-.43-.52-.67.55-.21.8-.35,1.09-.59.54-.46.83-1.11.88-2h-1.28c-.26.43-.54.76-.95,1.13-.24-.23-.34-.3-.62-.47.51-.43.88-.9,1.18-1.53.16-.32.25-.6.29-.85l.81.18c-.05.1-.06.11-.11.25-.12.34-.2.48-.27.61t.08,0h2.45c.27,0,.45-.01.61-.04v.76q-.17-.02-.65-.02h-.75Z"/>
            <path class="cls-4" d="M16.91,22.85c.49.27.77.47,1.26.88l-.45.66c-.44-.42-.7-.62-1.26-.96l.45-.58ZM18.12,25.23c-.18.62-.38,1.11-.69,1.7-.13.27-.2.41-.28.53l-.67-.58c.33-.33.71-1.13,1.02-2.09l.62.44ZM17.24,21.14c.53.32.74.48,1.23.92l-.49.64c-.44-.44-.7-.66-1.23-.99l.48-.57ZM21.17,24.15c.08.46.21.84.43,1.24.29.55.68.97,1.28,1.37-.26.28-.34.4-.52.72-.67-.55-1.07-1.04-1.42-1.73-.25-.5-.38-.93-.5-1.6h-.89c-.05.75-.07.91-.14,1.27-.18.9-.43,1.51-.89,2.1-.2-.26-.34-.38-.64-.56.35-.45.53-.79.67-1.3.2-.69.27-1.6.27-3.13,0-.5,0-.8-.04-1.15.22.03.43.04.8.04h2.18c.36,0,.54,0,.76-.04-.03.25-.04.45-.04.76v1.3c0,.34,0,.54.04.75-.22-.02-.38-.03-.7-.03h-.64ZM21.72,23.46v-1.35h-2.14v.37c0,.33,0,.47-.02.98h2.16Z"/>
            <path class="cls-4" d="M27.37,22.65v-.32s0-.22,0-.22c0-.46,0-.62-.04-.78h.9c-.02.16-.03.2-.03.47q0,.43,0,.85h.45c.5,0,.64,0,.91-.05v.85c-.25-.03-.44-.04-.9-.04h-.47c-.01.84-.01.89-.05,1.16-.1.9-.4,1.49-1.01,2.01-.38.32-.72.5-1.37.74-.13-.3-.22-.43-.53-.74.66-.2,1-.37,1.34-.67.47-.41.68-.88.74-1.68.01-.16.01-.33.03-.81h-1.81v1.05c0,.29,0,.41.03.59h-.91c.02-.15.03-.34.03-.6v-1.04h-.43c-.46,0-.65,0-.9.04v-.85c.27.04.41.05.91.05h.41v-.7c0-.29,0-.44-.04-.62h.92c-.03.23-.03.25-.03.6v.72h1.82Z"/>
            <path class="cls-4" d="M31.93,21.54q-.03.2-.07,1.57c-.05,1.37-.2,2.16-.57,2.88-.24.48-.5.84-.97,1.3-.27-.35-.38-.46-.71-.68.34-.28.51-.47.72-.81.5-.81.67-1.71.67-3.67,0-.38,0-.45-.03-.64l.95.05ZM33.79,21.45c-.03.2-.04.32-.05.67l-.04,3.99c.49-.23.77-.44,1.07-.8.32-.38.53-.76.69-1.28.24.31.34.41.66.66-.29.69-.65,1.22-1.12,1.63-.4.34-.76.55-1.49.84-.15.06-.21.08-.3.13l-.45-.48c.05-.2.06-.36.06-.74l.04-3.95v-.21c0-.18,0-.33-.03-.46h.95Z"/>
            <path class="cls-4" d="M37.13,23.1c.72.29,1.26.56,1.86.95l-.44.79c-.56-.41-1.18-.75-1.9-1.03l.47-.71ZM36.81,26.24c.53,0,1.29-.17,2.02-.46.87-.34,1.46-.79,2.02-1.54.38-.5.6-.92.81-1.55.29.3.39.39.73.62-.32.78-.62,1.26-1.05,1.77-.89,1.02-2.08,1.65-3.8,1.99-.25.05-.35.07-.49.11l-.24-.95ZM37.67,21.4c.72.28,1.28.55,1.86.9l-.45.77c-.64-.43-1.26-.76-1.87-.97l.46-.71Z"/>
            <path class="cls-4" d="M44.3,22.94c.29.54.43.88.69,1.66l-.79.25c-.18-.71-.32-1.08-.64-1.7l.74-.22ZM48.32,22.99c-.04.11-.06.14-.1.36-.2.95-.52,1.72-.97,2.33-.52.71-1.1,1.16-2.14,1.69-.18-.31-.27-.41-.56-.69.49-.19.78-.34,1.19-.64.82-.6,1.29-1.31,1.59-2.43.09-.34.13-.59.13-.81l.85.2ZM45.79,22.65c.37.69.5,1,.68,1.61l-.78.25c-.13-.53-.34-1.07-.64-1.65l.74-.21Z"/>
            <path class="cls-4" d="M54.79,21.99q-.08.02-.59.19c-.4.13-.62.18-1.17.29q0,.95-.02,1.18h1.49c.47,0,.59,0,.85-.05v.84c-.26-.03-.39-.04-.84-.04h-1.55c-.08.65-.22,1.12-.47,1.53s-.65.8-1.14,1.11c-.2.13-.33.2-.65.35-.2-.36-.31-.49-.61-.74.5-.18.77-.33,1.09-.59.42-.34.69-.74.8-1.19.03-.12.05-.24.08-.47h-1.73c-.45,0-.58,0-.84.04v-.84c.26.04.38.05.85.05h1.79c.01-.29.01-.57.01-1.06-.57.08-.78.1-1.94.16-.07-.32-.11-.42-.26-.76.22.01.33.01.44.01.94,0,2.13-.16,3-.41.41-.12.61-.2.85-.33l.56.71Z"/>
            <path class="cls-4" d="M57.61,23.02c-.05-.3-.07-.37-.13-.53l.83-.13c0,.14.02.29.07.54l.11.54,2.09-.35c.2-.03.32-.06.46-.12l.49.44c-.06.09-.11.17-.18.34-.31.78-.71,1.3-1.38,1.82-.25-.27-.36-.34-.65-.5.52-.32.9-.73,1.19-1.25q-.08.02-.26.05l-1.65.27.5,2.59q.07.39.13.57l-.88.15c0-.18-.01-.34-.06-.57l-.48-2.61-.6.1c-.25.04-.41.08-.62.15l-.15-.8c.22,0,.4-.02.67-.06l.58-.1-.11-.55Z"/>
            <path class="cls-4" d="M67.78,21.01l-5.31,6.58h-1.03l5.3-6.58h1.04Z"/>
            <path class="cls-4" d="M70.67,21.44c0-.14-.01-.26-.04-.4h.79c-.02.14-.04.25-.04.41v.05h1.44v-.05c0-.15,0-.26-.04-.41h.79c-.03.14-.04.25-.04.41v.05h.9c.38,0,.62-.01.83-.04v.74c-.22-.03-.45-.04-.8-.04h-.94v.07c0,.18,0,.24.02.36h-.76c.01-.17.02-.22.02-.35v-.08h-1.44c0,.2,0,.26.02.39h-.41c0,.09,0,.15,0,.27v.07h.53c.27,0,.4,0,.57-.04v.63c-.13-.01-.19-.01-.34-.02-.06.17-.15.38-.24.54h.09c.3,0,.41,0,.57-.03v.64c-.18-.02-.29-.03-.59-.03h-.63v.37h.64c.29,0,.38,0,.56-.03v.64c-.17-.02-.27-.03-.58-.03h-.36c.21.28.48.53.81.71-.15.15-.26.28-.42.53-.32-.28-.45-.42-.67-.78.01.2.02.4.02.55v.48c0,.22.01.38.04.54h-.76c.02-.16.04-.31.04-.51v-.46c0-.12,0-.38.01-.53-.29.5-.58.82-1.09,1.18-.1-.23-.2-.41-.37-.62.32-.17.53-.33.79-.59.18-.17.26-.29.39-.51h-.43c-.28,0-.43,0-.6.03v-.64c.16.02.27.03.58.03h.72v-.37h-.72c-.3,0-.41,0-.58.03v-.65c.2.03.34.04.67.04h.05c-.05-.19-.11-.33-.21-.54-.15,0-.25.01-.39.03v-.64c.19.03.34.04.63.04h.57v-.07c0-.16,0-.26-.03-.41h.4c0-.08,0-.13,0-.22v-.04h-.88c-.36,0-.59.01-.81.04v-.74c.22.03.47.04.84.04h.85v-.06ZM70.18,23.46c.1.27.1.27.19.54h.48c.1-.2.16-.35.22-.54h-.89ZM74.67,24.16c.3,0,.48-.01.66-.04v.73c-.2-.02-.34-.03-.62-.03h-.11v2.07c0,.32,0,.5.04.69h-.82c.03-.17.04-.35.04-.68v-2.08h-.71c-.03.61-.09.99-.22,1.45-.15.55-.34.88-.74,1.33-.17-.24-.32-.37-.61-.57.32-.34.47-.57.59-.9.18-.5.24-1.04.24-2.12,0-.1,0-.31,0-.57,0-.28,0-.36-.03-.51.97-.01,1.97-.21,2.35-.46l.49.64c-.88.27-1.25.34-2.05.43v.62h1.5Z"/>
            <path class="cls-4" d="M78.64,21.45c0-.17,0-.28-.04-.4h.85c-.03.12-.04.22-.04.41v.1h1.87c.44,0,.66,0,.9-.04-.02.18-.03.28-.03.5v.41c0,.25,0,.38.04.54h-.73c-.15.15-.37.18-1.11.18-.13,0-.22,0-.38,0l.62.16q-.13.22-.19.3h.76c.37,0,.54,0,.73-.04v.67c-.2-.03-.39-.04-.73-.04h-1.74v.36h1.45c.41,0,.53,0,.69-.03v.63c-.19-.01-.29-.02-.69-.02h-1.45v.36h2.08c.35,0,.53,0,.74-.04v.69c-.21-.03-.37-.04-.74-.04h-.12c.42.44.56.62.83,1.07l-.77.39c-.24-.48-.46-.82-.76-1.16l.65-.3h-4.49l.68.3c-.31.5-.48.72-.9,1.13l-.69-.48c.45-.36.58-.5.88-.95h-.15c-.37,0-.55,0-.74.04v-.69c.2.03.4.04.74.04h2v-.36h-1.38c-.39,0-.51,0-.69.02v-.63c.16.02.29.03.69.03h1.38v-.36h-1.7c-.32,0-.48,0-.72.04v-.67c.21.03.37.04.72.04h.83c-.08-.13-.11-.17-.22-.3l.69-.22c.14.19.22.31.32.52h1.04c.11-.18.16-.29.22-.46-.24-.02-.32-.04-.4-.07-.15-.06-.2-.15-.2-.33v-.57h-.43c-.12.32-.21.47-.4.63-.37.31-.8.45-1.76.57-.05-.18-.08-.24-.18-.41h-.51c.03-.18.04-.32.04-.55v-.43c0-.19,0-.31-.03-.47.27.03.46.04.85.04h1.81v-.11ZM76.74,22.17v.59c.42-.04.64-.08.85-.16.29-.11.44-.22.53-.43h-1.37ZM77.97,27.51c0-.46-.03-.72-.1-1.16l.75-.04c.09.42.13.71.15,1.16l-.81.04ZM79.63,27.5c-.07-.46-.15-.78-.29-1.14l.74-.06c.17.39.25.65.36,1.13l-.8.08ZM79.95,22.53c0,.08.1.1.47.1.47,0,.52-.03.54-.34.16.06.22.07.45.11v-.22h-1.46v.36Z"/>
            <path class="cls-4" d="M85.69,25.17c-.32,0-.5,0-.68.04v-.71c.16.02.27.03.54.03h.09v-.61h-.12c-.23,0-.35,0-.55.04v-.59c-.16.2-.24.29-.44.49-.03.57-.05.81-.1,1.15.23.36.5.65.83.9-.18.26-.27.4-.38.69-.29-.3-.45-.5-.62-.76-.22.71-.5,1.23-.96,1.71-.15-.25-.29-.42-.5-.6.4-.41.63-.83.8-1.46.2-.66.27-1.65.27-3.32,0-.6,0-.75-.05-1.02h.81q-.04.23-.04,1.34c0,.15,0,.24,0,.46.19-.28.28-.44.36-.62l.53.41c-.09.12-.22.29-.38.51.13.01.24.02.45.02h.12v-.22c0-.14,0-.22-.03-.33h.7c-.01.09-.02.17-.02.32v.24h1.51v-.23c0-.14,0-.21-.02-.32h.72c-.02.1-.03.19-.03.32v.23h.27c.24,0,.38,0,.58-.04v.73c-.19-.03-.34-.04-.58-.04h-.27v.61h.11c.29,0,.44,0,.64-.04v.73c-.22-.03-.42-.04-.71-.04h-.58v1.44c0,.14.04.16.41.16.18,0,.29-.04.31-.13.04-.12.06-.34.07-.74.2.13.34.19.66.28-.04.64-.11.95-.28,1.1-.13.12-.41.18-.9.18-.78,0-.97-.11-.97-.55v-1.73h-.55c-.04.43-.07.61-.17.88-.25.74-.71,1.18-1.6,1.54-.12-.29-.23-.46-.43-.64.5-.16.77-.32,1.04-.61.28-.3.42-.68.44-1.18h-.25ZM82.83,24.29c.1-.33.13-.48.17-.86.04-.33.05-.6.05-.81v-.18l.59.07c-.01.9-.08,1.46-.22,2.07l-.58-.29ZM87.37,22.63c0,.22,0,.29.02.41h-.71c.01-.11.02-.22.02-.41v-.24h-.81c-.25,0-.5.01-.68.04v-.73c.22.03.38.04.68.04h.81v-.18c0-.2,0-.31-.04-.47h.74c-.03.14-.04.27-.04.48v.17h1.02c.27,0,.47-.01.67-.04v.74c-.2-.02-.42-.04-.65-.04h-1.04v.23ZM87.8,24.51v-.61h-1.51v.61h1.51Z"/>
            <path class="cls-4" d="M90.31,22.19c.2.02.36.03.67.03.53,0,.91-.02,1.44-.08q-.02-.06-.08-.18c-.18-.41-.27-.62-.28-.64l.88-.12c.03.18.1.39.29.85.6-.08,1.41-.26,1.89-.42l.07.74q-.07.01-.24.05c-.47.11-1.25.27-1.46.29.11.26.15.35.27.57.6-.13.93-.2.97-.2.4-.1.48-.13.67-.2l.07.76c-.13.02-.28.05-.44.09-.29.07-.52.12-.69.15q-.17.04-.26.06c.36.6.48.75.94,1.28l-.62.44c-.5-.21-.93-.29-1.61-.29-.53,0-.94.07-1.18.2-.2.11-.3.26-.3.43s.12.33.3.41c.22.1.59.15,1,.15.73,0,1.72-.21,2.16-.46l.12.86q-.13.02-.46.11c-.6.16-1.18.24-1.79.24-.8,0-1.32-.1-1.71-.34-.34-.21-.54-.57-.54-.96s.21-.73.59-.97c.37-.23.93-.35,1.63-.35.43,0,.83.05,1.21.15-.11-.11-.24-.3-.54-.79-.74.11-1.19.14-2.71.19-.12,0-.17,0-.29.02l-.03-.76c.2.03.25.03.72.03.74,0,1.32-.04,1.98-.13-.04-.08-.07-.13-.12-.26-.07-.15-.09-.19-.15-.32-.56.06-1.06.09-1.88.1-.29,0-.33,0-.48.01l-.03-.74Z"/>
            <path class="cls-4" d="M101.53,22.98c.49,0,.64,0,.91-.05v.88c-.25-.03-.43-.03-.9-.03h-1.44c-.06.97-.18,1.44-.5,1.97-.38.64-.88,1.07-1.79,1.57-.24-.4-.34-.53-.64-.76.84-.36,1.37-.8,1.69-1.38.21-.38.29-.69.34-1.41h-1.74c-.46,0-.64,0-.9.03v-.88c.27.04.43.05.91.05h1.77c0-.29,0-.42,0-.55v-.41c0-.3,0-.48-.03-.67h.96c-.03.22-.03.23-.04.67v.42q-.01.46-.01.54h1.39Z"/>
            <path class="cls-4" d="M105.11,24s-.02.08-.03.1c0,.01-.01.06-.03.12-.22,1.03-.66,2.04-1.18,2.72-.33-.24-.48-.32-.81-.46.54-.58,1.09-1.83,1.18-2.7l.86.21ZM108.3,22.5c.15,0,.22,0,.38,0-.34-.11-.57-.41-.57-.77,0-.44.37-.8.81-.8s.81.36.81.8c0,.34-.21.64-.53.76v.83c-.23-.03-.34-.03-.89-.03h-1.62v3.4c0,.38,0,.59.03.78h-.95c.03-.19.04-.4.04-.79v-3.39h-1.55c-.54,0-.65,0-.88.03v-.86c.25.04.38.05.9.05h1.54v-.39c0-.4-.01-.55-.04-.72h.95c-.02.19-.03.29-.03.74v.37h1.6ZM108.22,23.79c.22.91.78,2.12,1.24,2.67-.36.17-.49.26-.8.48-.51-.78-.82-1.51-1.15-2.62-.06-.19-.06-.22-.11-.32l.83-.21ZM108.47,21.73c0,.25.2.46.46.46s.46-.21.46-.46-.2-.46-.46-.46-.46.2-.46.46Z"/>
            <path class="cls-4" d="M111.79,21.45c-.03.2-.03.26-.03.63v1.93c0,.35,0,.44.03.62h-.96c.02-.16.04-.38.04-.63v-1.93c0-.36,0-.45-.03-.63h.95ZM114.97,21.45c-.03.17-.04.25-.04.65v.95c0,1.09-.05,1.68-.18,2.12-.2.7-.65,1.23-1.38,1.63-.37.21-.72.35-1.37.54-.12-.34-.2-.46-.49-.83.69-.13,1.09-.28,1.51-.56.66-.43.89-.86.97-1.79.03-.3.04-.61.04-1.17v-.88c0-.36,0-.5-.04-.67h.97Z"/>
            <path class="cls-4" d="M117.61,23.62c1.06-.2,2.61-.82,3.06-1.25l.56.79c-.08.03-.09.04-.15.06l-.18.09c-1.04.53-2.12.9-3.29,1.11v.92s0,.08,0,.11c0,.39.03.55.12.64.12.12.52.18,1.2.18.47,0,1.12-.04,1.62-.11.34-.04.49-.08.8-.17l.04.93c-.15,0-.18,0-.93.08-.41.04-1.29.08-1.72.08-.88,0-1.37-.09-1.64-.3-.2-.15-.3-.37-.34-.71-.01-.12-.02-.24-.02-.64v-3.25c0-.36,0-.47-.04-.64h.94c-.03.17-.04.29-.04.65v1.42ZM122.46,21.78c0,.45-.37.81-.81.81s-.81-.36-.81-.81.37-.81.81-.81.81.36.81.81ZM121.19,21.78c0,.25.2.46.46.46s.46-.21.46-.46-.2-.46-.46-.46-.46.2-.46.46Z"/>
            <path class="cls-4" d="M123.76,22.94c.29.54.43.88.69,1.66l-.79.25c-.18-.71-.32-1.08-.64-1.7l.74-.22ZM127.78,22.99c-.04.11-.06.14-.1.36-.2.95-.52,1.72-.97,2.33-.52.71-1.1,1.16-2.14,1.69-.18-.31-.27-.41-.56-.69.49-.19.78-.34,1.19-.64.82-.6,1.29-1.31,1.59-2.43.09-.34.13-.59.13-.81l.85.2ZM125.25,22.65c.37.69.5,1,.68,1.61l-.78.25c-.13-.53-.34-1.07-.64-1.65l.74-.21Z"/>
            <path class="cls-4" d="M129.67,21.93c.36.64.59,1.18.85,2.06l-.86.27c-.2-.78-.47-1.51-.8-2.09l.81-.24ZM134.65,21.96c-.06.15-.08.2-.17.68-.5,2.25-1.61,3.66-3.71,4.68-.19-.34-.28-.46-.62-.79.78-.29,1.4-.67,1.97-1.22.57-.53.94-1.12,1.23-1.93.22-.6.34-1.18.35-1.65l.96.22ZM131.5,21.59c.34.57.6,1.2.84,1.98l-.85.27c-.2-.78-.41-1.32-.79-2.03l.8-.22Z"/>
            <path class="cls-4" d="M138.34,23.85c-.02.12-.03.18-.04.48,0,.13,0,.18-.02.25.6-.27.98-.57,1.28-1.07,0,0,0-.02.02-.04.02-.02.02-.03.04-.06h0c-.06,0-.13,0-.2,0h-2.77c-.38.01-.51.02-.74.05v-.8c.22.03.41.05.74.05h2.98c.37,0,.44-.01.6-.06l.39.48q-.08.11-.21.38c-.21.43-.51.83-.85,1.13-.22.2-.39.32-.73.52-.21-.27-.29-.36-.54-.55-.03.57-.12.98-.31,1.35-.31.64-.81,1.04-1.74,1.41-.16-.34-.24-.44-.5-.71.76-.22,1.24-.55,1.5-1.04.18-.34.27-.84.27-1.51,0-.11,0-.15-.01-.26h.86Z"/>
            <path class="cls-4" d="M143.53,25.45c0-.14,0-.25-.01-.41-.3.1-.42.14-.82.25-.11-.37-.15-.48-.34-.74,1.11-.22,1.77-.47,2.67-.99-.37-.31-.57-.51-.81-.82-.37.34-.71.57-1.24.86-.14-.28-.24-.41-.46-.62.5-.25.71-.38,1.02-.63.54-.44.93-.91,1.15-1.37l.84.15c-.15.25-.21.33-.32.48h1.47c.28,0,.44,0,.62-.04l.41.47c-.11.12-.15.17-.41.5-.22.28-.6.67-.97.99.79.42,1.46.66,2.56.89-.15.27-.22.45-.32.78-.41-.11-.56-.16-.79-.23-.01.14-.01.27-.01.46v1.42c0,.29,0,.48.04.69h-.8v-.38h-2.75v.38h-.78c.03-.22.04-.42.04-.69v-1.41ZM147.37,24.84c-.79-.29-1.11-.45-1.67-.8-.53.34-1.04.6-1.58.8h3.26ZM144.28,26.5h2.75v-1.01h-2.75v1.01ZM144.7,22.26c.34.4.58.61.97.88.36-.27.55-.47.9-.89h-1.87Z"/>
            <path class="cls-4" d="M151.55,23.6c-.14-.02-.26-.03-.45-.03h-.1c.24.5.38.71.66.99-.15.21-.25.41-.33.65-.16-.25-.26-.42-.4-.76.01.18.02.22.02.41,0,.06,0,.13,0,.22,0,.11,0,.2,0,.26v1.37c0,.39,0,.59.04.83h-.77c.03-.26.04-.49.04-.83v-1.11q0-.34.01-.52c0-.17,0-.25.02-.44-.16.55-.39,1.02-.73,1.52-.1-.3-.2-.5-.36-.73.3-.39.48-.68.69-1.15.12-.27.23-.55.29-.74h-.29c-.19,0-.34,0-.5.03v-.74c.17.03.32.04.52.04h.35v-.79c-.2.05-.33.07-.67.13-.08-.27-.14-.41-.27-.65.6-.06,1.21-.2,1.72-.41.12-.06.18-.08.26-.13l.38.62s-.2.07-.38.14c-.07.03-.12.05-.34.12v.97h.15c.16,0,.26,0,.38-.01v-.64c.17.03.38.04.65.04h1.05v-.29c-.38.02-.63.03-1.25.03-.07-.25-.15-.41-.26-.59.27,0,.47,0,.56,0,1.13,0,2.44-.15,2.9-.33l.46.6q-.05,0-.21.04c-.37.08-.9.15-1.52.2v.34h1.19c.28,0,.51-.01.7-.04v.66c-.18-.02-.38-.03-.65-.03h-1.24v.29h.9c.34,0,.49,0,.67-.02-.02.17-.02.28-.02.59v1.12c0,.34,0,.47.02.65-.18-.01-.31-.02-.6-.02h-.97v.33h.95c.36,0,.52,0,.69-.04v.66c-.23-.02-.44-.03-.69-.03h-.95v.34h1.16c.31,0,.57-.01.76-.04v.68c-.2-.03-.44-.04-.79-.04h-2.88c-.34,0-.6.01-.78.04v-.67c.16.01.44.03.76.03h1.09v-.34h-.91c-.32,0-.48,0-.69.02v-.64c.19.02.34.03.69.03h.9v-.33h-.88c-.3,0-.44,0-.6.02.01-.18.02-.34.02-.67v-1.09c0-.31,0-.44-.02-.6.18.01.33.02.65.02h.82v-.29h-1.04c-.22,0-.46,0-.6.01v.72ZM152.39,23.71v.34h.8v-.34h-.8ZM152.39,24.56v.34h.8v-.34h-.8ZM154.75,24.05v-.34h-.88v.34h.88ZM154.75,24.9v-.34h-.88v.34h.88Z"/>
            <path class="cls-4" d="M160.11,24.68q0-.17.02-.77c-.17.29-.34.53-.59.81-.1-.29-.18-.48-.36-.83.52-.51.93-1.17,1.24-1.93.14-.35.24-.69.27-.95l.79.24c-.06.16-.07.2-.14.4-.16.47-.26.71-.49,1.16v3.9c0,.33.01.58.04.85h-.82c.03-.25.04-.48.04-.85v-2.02ZM162.46,23.91v2.45c0,.14.04.18.19.22.17.04.38.06.88.06.79,0,1.09-.03,1.25-.13.08-.05.14-.17.17-.32.02-.13.03-.22.05-.55.31.13.43.16.76.22-.08.8-.18,1.07-.39,1.24-.27.19-.73.25-2.01.25s-1.64-.14-1.64-.7v-2.49c-.06.02-.11.04-.14.04-.2.07-.27.1-.41.16l-.06-.8c.17-.02.37-.07.61-.14v-.83c0-.33,0-.52-.04-.74h.83c-.04.2-.04.39-.04.71v.62l.72-.23v-1.14c0-.28-.01-.46-.04-.7h.81c-.03.22-.04.39-.04.68v.93l1.02-.33c.27-.08.43-.15.57-.21,0,.15,0,.2,0,.38-.01.84-.06,1.81-.12,2.26-.07.53-.25.68-.79.68-.13,0-.21,0-.38-.02-.04-.27-.08-.43-.2-.71.18.04.37.06.48.06.15,0,.18-.05.22-.38.04-.27.06-.74.06-1.29l-.86.28v1.82c0,.29,0,.46.04.7h-.81c.04-.22.04-.4.04-.72v-1.56l-.72.23Z"/>
          </g>
          <g>
            <path class="cls-5" d="M46.11,10.61h-2.17v2.8h-1.46v-7.86h3.62c1.71,0,2.68,1.15,2.68,2.49,0,1.58-1.22,2.58-2.68,2.58ZM45.89,6.77h-1.95v2.61h1.95c.81,0,1.37-.44,1.37-1.36s-.6-1.25-1.37-1.25Z"/>
            <path class="cls-5" d="M50.38,6.94v-1.4h1.42v1.4h-1.42ZM50.38,13.41v-5.8h1.42v5.8h-1.42Z"/>
            <path class="cls-5" d="M53.38,13.41v-1.13l2.94-3.52h-2.65v-1.14h4.49v1.14l-2.94,3.52h3.09v1.13h-4.93Z"/>
            <path class="cls-5" d="M59.6,13.41v-1.13l2.94-3.52h-2.65v-1.14h4.49v1.14l-2.94,3.52h3.09v1.13h-4.93Z"/>
            <path class="cls-5" d="M69.9,13.41c-.16-.22-.17-.59-.17-.84-.16.31-.52.98-1.87.98-1.59,0-2.03-.97-2.03-1.7,0-1.33,1.2-1.73,2.49-1.92.62-.09,1.33-.21,1.33-.74,0-.46-.5-.6-.94-.6-.13,0-.74-.01-1.11.36-.16.16-.19.29-.23.57h-1.28c.11-1.8,1.71-2.04,2.49-2.04,1.34,0,2.5.58,2.5,2.08v3.19c0,.21.04.48.32.67h-1.5ZM68.62,10.82c-.54.09-1.34.28-1.34.98,0,.41.4.73.92.73.58,0,1.44-.37,1.44-1.17v-.66l.08-.38c-.25.29-.48.39-1.1.5Z"/>
            <path class="cls-5" d="M81.34,13.41l-3.1-5.01-.59-1.29.15,1.76v4.55h-1.4v-7.86h1.55l3.1,5.01.59,1.29-.15-1.76v-4.55h1.4v7.86h-1.55Z"/>
            <path class="cls-5" d="M90.24,13.41l-.58-1.69h-3.31l-.58,1.69h-1.6l3.02-7.86h1.65l3.02,7.86h-1.61ZM88.18,7.47l-.17-.69-.18.69-1.04,3.03h2.46l-1.06-3.03Z"/>
            <path class="cls-5" d="M96.72,10.61h-2.17v2.8h-1.46v-7.86h3.62c1.71,0,2.68,1.15,2.68,2.49,0,1.58-1.22,2.58-2.68,2.58ZM96.51,6.77h-1.95v2.61h1.95c.81,0,1.37-.44,1.37-1.36s-.6-1.25-1.37-1.25Z"/>
            <path class="cls-5" d="M104.37,13.67c-2.33,0-3.93-1.66-3.93-4.19s1.62-4.19,3.93-4.19,3.94,1.65,3.94,4.19-1.62,4.19-3.94,4.19ZM104.37,6.6c-1.35,0-2.4,1.01-2.4,2.88s1.04,2.89,2.4,2.89,2.41-1.1,2.41-2.89-1-2.88-2.41-2.88Z"/>
            <path class="cls-5" d="M113.09,13.67c-2.11,0-3.28-1.23-3.28-3.36v-4.76h1.46v4.93c0,1.36.76,1.88,1.78,1.88,1.18,0,1.81-.66,1.81-1.88v-4.93h1.45v4.76c0,2.49-1.53,3.36-3.22,3.36Z"/>
            <path class="cls-5" d="M122.92,13.41c-.16-.15-.26-.27-.26-.84v-.95c0-.56-.17-1.29-1.01-1.29h-2.01v3.08h-1.45v-7.86h3.71c1.46,0,2.42.91,2.42,2.13,0,.52-.17.99-.48,1.35-.3.34-.56.49-1.23.64.76.11,1.51.33,1.51,1.81v.8c0,.79.29.99.51,1.14h-1.69ZM121.69,6.77h-2.06v2.33h1.82c.81,0,1.3-.42,1.3-1.23,0-.71-.42-1.1-1.07-1.1Z"/>
            <path class="cls-5" d="M131.61,13.41l-.58-1.69h-3.31l-.58,1.69h-1.6l3.02-7.86h1.65l3.02,7.86h-1.61ZM129.55,7.47l-.17-.69-.18.69-1.04,3.03h2.46l-1.06-3.03Z"/>
          </g>
        </g>
      </g>
    </g>
  </g>
</svg>