<?xml version="1.0" encoding="UTF-8"?>
<svg xmlns="http://www.w3.org/2000/svg" viewBox="0 0 162.6278488 43.9236229">
  <defs>
    <style>
      .cls-1 {
        isolation: isolate;
      }

      .cls-2 {
        fill: #231815;
      }

      .cls-3 {
        fill: #22ac38;
        mix-blend-mode: multiply;
      }

      .cls-4 {
        fill: #fff;
      }

      .cls-5 {
        fill: #8fc31f;
      }
    </style>
  </defs>
  <g class="cls-1">
    <g id="_レイヤー_2" data-name="レイヤー 2">
      <g id="_レイヤー_1-2" data-name="レイヤー 1">
        <g>
          <rect class="cls-5" width="162.6278488" height="17.4869291"/>
          <rect class="cls-3" width="8.2897747" height="17.4857391"/>
        </g>
        <g>
          <path class="cls-4" d="M79.4287414,14.2551659c-.7705078-1.1113281-1.2617188-2.8759766-1.2617188-4.5634766,0-1.6962891.4912109-3.4511719,1.2617188-4.5625h.6884766c-.9140625,1.2578125-1.3642578,2.9638672-1.3642578,4.5625,0,1.5898438.4570312,3.3056641,1.3710938,4.5634766h-.6953125Z"/>
          <path class="cls-4" d="M81.4287414,11.9641503c0-.5166016.0205078-1.1796875.0410156-1.8037109-.0273438.1162109-.2792969,1.2285156-.3681641,1.2285156-.0136719,0-.0273438-.0097656-.0410156-.0390625-.1425781-.2734375-.6679688-.7802734-.6679688-.7802734.4638672-.6826172.8115234-1.9404297.96875-2.671875h-.6962891v-1.2675781h.7705078v-1.0722656s-.0068359-.4677734-.0205078-.6630859c0,0,.7304688.0195312,1.0234375.078125.0820312.0195312.1162109.0585938.1162109.1074219,0,.0683594-.0683594.1464844-.1845703.1757812-.0136719.1552734-.0136719.4287109-.0136719.4287109v.9453125h.4638672v.8681641c.3212891-.8388672.4501953-1.7548828.4980469-2.1943359,0,0,.6689453.1367188.859375.2050781.0615234.0195312.0957031.0585938.0957031.1074219s-.0546875.1074219-.1572266.1269531c-.0205078.1074219-.0546875.3115234-.0947266.5556641h.2792969v-.3417969s-.0068359-.6826172-.0205078-1.0429688c0,0,.7568359.0195312.9755859.0488281.0947266.0195312.1425781.0585938.1425781.1171875s-.0615234.1269531-.1904297.1757812c-.0136719.2626953-.0136719.7011719-.0136719.7011719v.3417969h1.3369141v1.1503906h-1.3369141v.8779297h1.6298828v1.1894531l-1.4189453-.0292969c.3623047.9160156,1.0166016,2.0664062,1.6708984,2.6230469,0,0-.6269531.4873047-.8388672.7597656-.0273438.0390625-.0400391.0488281-.046875.0488281-.0410156,0-.5458984-.6337891-1.0166016-1.9404297.0205078.4980469.0341797,1.0341797.0341797,1.4042969v1.4726562h-.9208984v-1.4238281c0-.3896484.0136719-.9072266.0341797-1.3945312-.6142578,1.5019531-1.1796875,2.0380859-1.2070312,2.0380859-.0136719,0-.0273438-.0195312-.0478516-.0390625-.1572266-.1757812-.484375-.4287109-.703125-.5849609v1.4335938h-.9345703v-1.9208984ZM82.3633117,12.1584862c.6826172-.5947266,1.3369141-1.7841797,1.6777344-2.6708984l-1.0566406.0292969.1435547.2919922s-.4169922.2148438-.59375.390625c-.0205078.0195312-.0410156.0390625-.0546875.0390625-.0341797,0-.0478516-.0976562-.1845703-.8095703.0273438.828125.0683594,1.9599609.0683594,2.5058594v.2236328ZM82.8818664,8.3274315h1.4189453v-.8779297h-.5322266c-.1708984.6044922-.2519531.7705078-.2861328.7705078-.0068359,0-.0205078,0-.0341797-.0097656-.2324219-.1171875-.8525391-.2050781-.8525391-.2050781.0205078-.0390625.0341797-.0683594.0546875-.1074219h-.2666016c.0888672.3417969.2802734.8876953.4980469,1.3945312v-.9648438Z"/>
          <path class="cls-4" d="M87.3183899,14.2551659c.9130859-1.2578125,1.3769531-2.9736328,1.3769531-4.5634766,0-1.5986328-.4570312-3.3046875-1.3701172-4.5625h.6884766c.7705078,1.1113281,1.2617188,2.8662109,1.2617188,4.5625,0,1.6875-.4912109,3.4521484-1.2617188,4.5634766h-.6953125Z"/>
          <path class="cls-4" d="M99.0781555,11.31083c.0195312.0292969.0283203.0488281.0283203.0683594,0,.1259766-2.0957031,2.2617188-4.4746094,2.2617188-1.8232422,0-2.5351562-1.2089844-2.5351562-2.7978516,0-1.4335938.1748047-2.9550781.1748047-4.5146484,0-.3125,0-.6337891-.0195312-.9462891.4785156.0195312,1.5117188.1171875,1.8046875.1660156.1357422.0292969.2041016.078125.2041016.1367188,0,.078125-.1367188.1757812-.3701172.2138672-.0878906,1.6875-.3222656,3.5205078-.3222656,4.8173828,0,.4677734.0097656,1.3945312,1.1318359,1.3945312,1.2578125,0,2.8857422-1.2099609,3.8310547-2.59375,0,0,.2832031,1.3457031.546875,1.7939453Z"/>
          <path class="cls-4" d="M103.0322571,7.263955c-.0976562.6923828-.2148438,1.1503906-.3603516,1.8818359,1.0136719-.5654297,1.9306641-.7988281,2.7880859-.7988281,1.7451172,0,2.5839844.9648438,2.5839844,2.0371094,0,1.0341797-.7705078,2.1650391-2.2324219,2.6621094-.8876953.3027344-1.9208984.4189453-2.9648438.4189453-.1259766,0-.2529297-.0097656-.3798828-.0097656-.0585938-.0097656-.0683594-.0195312-.0878906-.0683594-.1171875-.4482422-.7314453-1.2666016-.8671875-1.4423828.5068359.0390625.9648438.0488281,1.3837891.0488281.9951172,0,1.7363281-.0976562,2.2626953-.2734375.8671875-.2919922,1.2871094-.8193359,1.2871094-1.2773438,0-.4189453-.3808594-.7705078-1.1318359-.7705078-.4580078,0-2.1640625.2441406-2.7978516,1.5800781-.1269531,0-1.2578125.0292969-1.3261719.0292969-.0292969,0-.0390625,0-.0390625-.0390625.0097656-1.1210938.1660156-2.1552734.2929688-3.0126953.078125-.5166016.1357422-.9072266.1455078-1.1796875,0-.0488281.0292969-.0585938.0683594-.0585938h.0292969l1.3457031.2724609ZM102.0967102,5.3332909c.2724609-.0097656.5458984-.0097656.8085938-.0097656,1.0048828,0,1.9794922.0585938,2.9550781.2636719l-.4101562,1.453125c-.0097656.0195312-.0097656.0488281-.0390625.0488281,0,0-.0097656,0-.0292969-.0097656-.8183594-.2929688-1.6962891-.4101562-2.8173828-.4101562-.3417969,0-.7021484.0097656-1.0917969.0292969l.6240234-1.3652344Z"/>
          <path class="cls-4" d="M109.1162414,13.2707909c.90625-1.6582031,1.6279297-3.0908203,2.1640625-4.3974609-.5947266.1357422-.9257812.2138672-1.5498047.2236328-.0292969-.0878906-.390625-1.4033203-.390625-1.4423828,0-.0195312.0195312-.0390625.0585938-.0390625.0195312,0,.0390625.0097656.0683594.0097656.1171875.0195312.2539062.0292969.4091797.0292969.5078125,0,1.2089844-.0878906,1.9013672-.1953125.1953125-.6142578.3808594-1.375.4785156-2.2714844,0,0,1.3837891.2529297,1.6279297.3212891.1171875.0292969.1660156.078125.1660156.1269531,0,.0683594-.1171875.1367188-.3125.1464844-.0976562.3310547-.2431641.9257812-.3896484,1.4521484.0878906-.0097656.1660156-.0097656.2529297-.0097656,1.3164062,0,1.5703125.9951172,1.5703125,2.2626953,0,.7509766-.1171875,1.5986328-.3417969,2.2714844-.3896484,1.1699219-1.2666016,1.5605469-2.0175781,1.5605469-.1855469,0-1.0048828-.0976562-1.0048828-.3417969-.0097656-.3310547-.0976562-.9453125-.1650391-1.3652344-.2636719.5947266-.5566406,1.2285156-.8779297,1.9208984l-1.6474609-.2626953ZM112.6650696,11.8079003c.3212891,0,.6337891-.1757812.7900391-.6142578.1748047-.4873047.2724609-1.2285156.2724609-1.7939453,0-.4384766,0-.8388672-.4384766-.8388672-.0292969,0-.0683594.0097656-.0976562.0097656-.0976562.0097656-.2050781.0292969-.3017578.0390625-.3417969.9169922-.7119141,1.8037109-1.1416016,2.7695312.2441406.2529297.5849609.4287109.9169922.4287109ZM116.3799133,7.2737206c1.2871094.9365234,2.0478516,2.0576172,2.0966797,3.2177734l-1.3847656.6826172c-.0195312.0097656-.0390625.0097656-.0488281.0097656s-.0195312-.0097656-.0292969-.0488281c-.0683594-1.0429688-.4482422-2.1738281-1.8623047-3.1884766-.0585938-.0488281-.0976562-.0683594-.0976562-.0976562s.0390625-.0488281.1269531-.0878906l1.1992188-.4873047Z"/>
          <path class="cls-4" d="M121.5000305,5.8899315c-.0097656-.0390625-.0195312-.078125-.0195312-.0976562,0-.0292969.0097656-.0390625.0390625-.0390625.0195312,0,.0390625,0,.0683594.0097656.2929688.0585938.5849609.0878906.8779297.0878906.6337891,0,1.2675781-.1171875,1.9013672-.2734375.1171875-.0292969.1552734-.1367188.2431641-.1367188.0195312,0,.0488281,0,.078125.0195312.1269531.078125.8583984.4775391,1.0146484.6142578.0488281.0390625.0576172.0683594.0576172.0976562,0,.0683594-.1064453.1074219-.1943359.1464844-.5849609.7705078-1.0722656,1.6279297-1.5117188,2.4570312.5751953.0585938,1.1503906.1660156,1.7255859.3310547.078125-.4384766.1074219-.9160156.1171875-1.4228516,0-.1464844.0097656-.15625.0585938-.15625.1757812,0,1.140625.2431641,1.4628906.3310547.1367188.0390625.1855469.0878906.1855469.1367188,0,.0878906-.15625.1757812-.2539062.1953125-.0585938.4970703-.1269531.9648438-.234375,1.4042969.6337891.2919922,1.2089844.6435547,1.6875,1.0527344l-.9365234,1.1894531c-.0195312.0195312-.0292969.0292969-.0488281.0292969-.0097656,0-.0292969-.0097656-.0488281-.0292969-.3505859-.3408203-.7412109-.6142578-1.1210938-.8388672-1.0234375,2.2236328-2.9638672,2.5058594-2.9931641,2.5058594-.0390625,0-.0585938-.0097656-.0976562-.0585938-.3017578-.4189453-1.3261719-1.1503906-1.3261719-1.1503906,1.6191406-.1074219,2.6035156-.7988281,3.1396484-1.8818359-.7802734-.2626953-1.4824219-.3603516-1.9599609-.3896484-.5166016,1.0429688-1.3164062,2.5742188-2.6035156,2.5742188-.7207031,0-1.2675781-.5751953-1.2675781-1.3261719,0-1.453125,1.453125-2.4082031,2.984375-2.5449219.2822266-.5361328.6533203-1.21875.9453125-1.7451172-.3701172.0683594-.8193359.2041016-1.2675781.2041016-.1074219,0-.2138672-.0097656-.3212891-.0292969l-.3808594-1.2666016ZM120.7783508,10.9885644c0,.1171875.0488281.1660156.1367188.1660156.15625,0,.4492188-.1269531,1.0048828-1.1015625-.3222656.0878906-1.1416016.4091797-1.1416016.9355469Z"/>
          <path class="cls-4" d="M130.6064758,5.8215722l6.1621094-.0292969c.0878906,0,.1464844-.078125.234375-.078125.078125,0,1.1503906.7021484,1.1503906.8476562,0,.0683594-.078125.1269531-.234375.1757812-1.4140625,5.7626953-5.4697266,6.7958984-5.4892578,6.7958984-.0390625,0-.0683594-.0195312-.0976562-.0585938-.3505859-.4775391-1.5693359-1.1894531-1.5693359-1.1894531,3.1005859-.6826172,4.7480469-2.9833984,5.2939453-5.0019531l-5.4599609.0292969.0097656-1.4912109Z"/>
          <path class="cls-4" d="M139.6435852,8.5901269h7.6445312v1.5214844h-7.6445312v-1.5214844Z"/>
          <path class="cls-4" d="M149.2324524,6.1428612l4.8847656-.0292969c.078125,0,.1269531-.0976562.2050781-.0976562.0683594,0,1.0429688.7119141,1.0429688.9072266,0,.0488281-.0478516.0976562-.1845703.1367188-.3613281.75-.8486328,1.6669922-1.4921875,2.5742188,1.0146484.7597656,2.2236328,1.7939453,3.0615234,2.8076172l-1.375,1.0429688c-.0195312.0097656-.0292969.0097656-.0380859.0097656-.0097656,0-.0195312-.0097656-.0390625-.0292969-.6826172-.9746094-1.609375-1.9111328-2.5058594-2.6806641-1.765625,2.0078125-3.5400391,2.6220703-3.5888672,2.6220703-.0292969,0-.0585938-.0097656-.0878906-.0478516-.3212891-.4199219-1.4033203-1.0537109-1.4033203-1.0537109,3.1982422-1.0527344,4.7578125-3.2177734,5.5576172-4.7773438l-4.046875.078125.0097656-1.4628906ZM155.0635071,4.8459862c.2636719.234375.7900391.7900391.9453125,1.1894531l-.8574219.3417969c-.1269531-.3808594-.5849609-.9658203-.8876953-1.2480469l.7998047-.2832031ZM156.3213196,4.553994c.234375.1845703.7900391.7597656.9355469,1.1015625l-.8378906.3603516c-.1367188-.3408203-.5849609-.90625-.8876953-1.1699219l.7900391-.2919922Z"/>
        </g>
        <g>
          <path class="cls-2" d="M11.9638977,35.0251854c-.5800781-.7148438-1.3867188-1.4990234-2.1503906-2.0800781-.7910156.8818359-1.5957031,1.4980469-2.6679688,2.0234375-.1953125-.3642578-.2792969-.4755859-.5664062-.7773438.5390625-.2099609.875-.3994141,1.4003906-.7705078,1.0566406-.7421875,1.8984375-1.7578125,2.3535156-2.8505859l.0761719-.1816406q-.1113281.0068359-2.3183594.0419922c-.3359375.0068359-.5253906.0205078-.7636719.0556641l-.0273438-.8964844c.1953125.0351562.328125.0419922.6171875.0419922h.1679688l2.4648438-.0351562c.3925781-.0068359.4472656-.0136719.6230469-.0761719l.4628906.4755859c-.0917969.1054688-.1484375.203125-.2246094.3789062-.3222656.7490234-.6660156,1.3583984-1.09375,1.9326172.4414062.2939453.8203125.5878906,1.296875,1.015625q.1757812.1542969,1.0214844.9736328l-.671875.7285156Z"/>
          <path class="cls-2" d="M18.9248352,31.4109276c-.0683594.1259766-.1113281.2236328-.1953125.4414062-.3632812,1.0292969-.8964844,1.8066406-1.625,2.3671875-.4960938.3847656-.953125.6230469-1.8339844.9521484-.1542969-.3496094-.2382812-.46875-.546875-.8125.8535156-.2167969,1.4082031-.4755859,1.9472656-.9238281.5175781-.4345703.8183594-.8613281,1.1269531-1.6396484h-3.4101562c-.46875,0-.6445312.0078125-.8964844.0351562v-.8544922c.265625.0419922.4199219.0498047.9101562.0498047h3.3339844c.4335938,0,.5742188-.0146484.7910156-.0634766l.3984375.4482422ZM14.0869446,29.2888573c.2304688.0419922.3769531.0488281.8183594.0488281h2.4453125c.4414062,0,.5878906-.0068359.8183594-.0488281v.8613281c-.2167969-.0283203-.3496094-.0351562-.8046875-.0351562h-2.4726562c-.4550781,0-.5878906.0068359-.8046875.0351562v-.8613281Z"/>
          <path class="cls-2" d="M25.9013977,29.666787c-.1191406.1054688-.1542969.1328125-.2597656.2451172-.5253906.546875-1.0507812,1.0019531-1.6523438,1.4433594v2.9902344c0,.3847656.0058594.5878906.0351562.7773438h-.9804688c.0351562-.203125.0410156-.3427734.0410156-.7558594v-2.4658203c-.8183594.4902344-1.2109375.6728516-2.5,1.1347656-.1464844-.3642578-.2246094-.4833984-.46875-.7988281,1.3867188-.3779297,2.5625-.9589844,3.6757812-1.8203125.625-.4833984,1.0996094-.9667969,1.3027344-1.3105469l.8066406.5605469Z"/>
          <path class="cls-2" d="M32.3974914,35.0251854c-.5800781-.7148438-1.3867188-1.4990234-2.1503906-2.0800781-.7910156.8818359-1.5957031,1.4980469-2.6679688,2.0234375-.1953125-.3642578-.2792969-.4755859-.5664062-.7773438.5390625-.2099609.875-.3994141,1.4003906-.7705078,1.0566406-.7421875,1.8984375-1.7578125,2.3535156-2.8505859l.0761719-.1816406q-.1113281.0068359-2.3183594.0419922c-.3359375.0068359-.5253906.0205078-.7636719.0556641l-.0273438-.8964844c.1953125.0351562.328125.0419922.6171875.0419922h.1679688l2.4648438-.0351562c.3925781-.0068359.4472656-.0136719.6230469-.0761719l.4628906.4755859c-.0917969.1054688-.1484375.203125-.2246094.3789062-.3222656.7490234-.6660156,1.3583984-1.09375,1.9326172.4414062.2939453.8203125.5878906,1.296875,1.015625q.1757812.1542969,1.0214844.9736328l-.671875.7285156Z"/>
          <path class="cls-2" d="M40.2080383,28.8406151l-5.3085938,6.5830078h-1.03125l5.3027344-6.5830078h1.0371094Z"/>
          <path class="cls-2" d="M42.1592102,34.4509667c-.4824219,0-.6503906.0068359-.8613281.0273438v-.9033203c.2597656.0419922.3867188.0488281.8769531.0488281h3.1855469v-3.0537109h-3.0683594c-.4960938,0-.6425781.0078125-.8964844.0351562v-.9101562c.2597656.0419922.3925781.0488281.9042969.0488281h3.3691406q.3632812,0,.609375-.0136719c-.0214844.1884766-.0214844.2587891-.0214844.5810547v3.8447266c0,.3505859.0078125.546875.0351562.7216797h-.9375v-.4267578h-3.1953125Z"/>
          <path class="cls-2" d="M49.1260071,34.3874901v.4902344h-.9042969c.0214844-.1679688.0273438-.3359375.0273438-.6025391v-4.0126953c0-.2666016-.0058594-.3994141-.0273438-.5888672.1679688.0146484.3144531.0214844.5957031.0214844h3.9785156c.3007812,0,.4257812-.0068359.5878906-.0214844-.0136719.1826172-.0214844.3222656-.0214844.5820312v4.0058594c0,.2587891.0078125.4482422.0292969.609375h-.9042969v-.4833984h-3.3613281ZM52.4873352,30.4861229h-3.3613281v3.1025391h3.3613281v-3.1025391Z"/>
          <path class="cls-2" d="M55.9912414,34.4509667c-.4824219,0-.6503906.0068359-.8613281.0273438v-.9033203c.2597656.0419922.3867188.0488281.8769531.0488281h3.1855469v-3.0537109h-3.0683594c-.4960938,0-.6425781.0078125-.8964844.0351562v-.9101562c.2597656.0419922.3925781.0488281.9042969.0488281h3.3691406q.3632812,0,.609375-.0136719c-.0214844.1884766-.0214844.2587891-.0214844.5810547v3.8447266c0,.3505859.0078125.546875.0351562.7216797h-.9375v-.4267578h-3.1953125Z"/>
          <path class="cls-2" d="M62.9580383,34.3874901v.4902344h-.9042969c.0214844-.1679688.0273438-.3359375.0273438-.6025391v-4.0126953c0-.2666016-.0058594-.3994141-.0273438-.5888672.1679688.0146484.3144531.0214844.5957031.0214844h3.9785156c.3007812,0,.4257812-.0068359.5878906-.0214844-.0136719.1826172-.0214844.3222656-.0214844.5820312v4.0058594c0,.2587891.0078125.4482422.0292969.609375h-.9042969v-.4833984h-3.3613281ZM66.3193664,30.4861229h-3.3613281v3.1025391h3.3613281v-3.1025391Z"/>
          <path class="cls-2" d="M74.7842102,28.8406151l-5.3085938,6.5830078h-1.0292969l5.3007812-6.5830078h1.0371094Z"/>
          <path class="cls-2" d="M77.0459289,31.4529198c1.0566406-.1962891,2.6054688-.8193359,3.0605469-1.2470703l.5605469.7919922c-.0761719.0283203-.0917969.0351562-.1464844.0625l-.1835938.0917969c-1.0351562.5322266-2.1210938.8964844-3.2910156,1.1132812v.9248047c-.0078125.0419922-.0078125.0839844-.0078125.1113281,0,.3925781.0292969.546875.1269531.6445312.1191406.1191406.5175781.1826172,1.1972656.1826172.46875,0,1.1132812-.0419922,1.625-.1123047.3359375-.0419922.4902344-.0771484.7988281-.1679688l.0410156.9316406c-.1464844,0-.1816406.0068359-.9238281.0771484-.4121094.0419922-1.2949219.0839844-1.7226562.0839844-.8828125,0-1.3652344-.0917969-1.6386719-.3017578-.1972656-.1464844-.3007812-.3710938-.34375-.7138672-.0136719-.1191406-.0214844-.2382812-.0214844-.6445312l-.0058594-3.25c0-.3574219,0-.46875-.0292969-.6445312h.9394531c-.0273438.1679688-.0351562.2949219-.0351562.6513672v1.4150391ZM81.8916321,29.604287c0,.4482422-.3632812.8125-.8105469.8125-.4414062,0-.8066406-.3642578-.8066406-.8125,0-.4414062.3652344-.8056641.8066406-.8056641.4472656,0,.8105469.3642578.8105469.8056641ZM80.6240539,29.604287c0,.2519531.203125.4619141.4570312.4619141.2578125,0,.4609375-.2099609.4609375-.4619141,0-.2529297-.203125-.4560547-.4609375-.4560547-.2539062,0-.4570312.203125-.4570312.4560547Z"/>
          <path class="cls-2" d="M82.2763977,31.6208886c.3085938.0419922.4414062.0488281,1.1347656.0488281h3.7324219c.6933594,0,.8261719-.0068359,1.1347656-.0488281v.9736328c-.2792969-.0351562-.3574219-.0351562-1.1425781-.0351562h-3.71875c-.7832031,0-.8613281,0-1.140625.0351562v-.9736328Z"/>
          <path class="cls-2" d="M94.1982727,35.0251854c-.5820312-.7148438-1.3867188-1.4990234-2.1503906-2.0800781-.7910156.8818359-1.5976562,1.4980469-2.6679688,2.0234375-.1972656-.3642578-.28125-.4755859-.5683594-.7773438.5390625-.2099609.875-.3994141,1.4003906-.7705078,1.0585938-.7421875,1.8984375-1.7578125,2.3535156-2.8505859l.078125-.1816406q-.1132812.0068359-2.3183594.0419922c-.3359375.0068359-.5253906.0205078-.7636719.0556641l-.0292969-.8964844c.1972656.0351562.3300781.0419922.6171875.0419922h.1679688l2.4648438-.0351562c.3925781-.0068359.4492188-.0136719.6230469-.0761719l.4628906.4755859c-.0898438.1054688-.1464844.203125-.2246094.3789062-.3222656.7490234-.6640625,1.3583984-1.0917969,1.9326172.4414062.2939453.8203125.5878906,1.2949219,1.015625q.1757812.1542969,1.0234375.9736328l-.671875.7285156Z"/>
          <path class="cls-2" d="M102.0068664,28.8406151l-5.3085938,6.5830078h-1.0292969l5.3007812-6.5830078h1.0371094Z"/>
          <path class="cls-2" d="M108.1728821,30.9412011c.2597656,0,.421875-.0068359.6523438-.0273438-.0214844.203125-.0273438.3496094-.0273438.5810547v.4482422c0,.2314453.0058594.3710938.0273438.5390625h-.7558594v-.9453125h-4.609375v.9453125h-.7558594c.0214844-.1816406.0273438-.3144531.0273438-.5390625v-.4482422c0-.2236328-.0058594-.3847656-.0273438-.5810547.2304688.0205078.3925781.0273438.6503906.0273438h.2167969v-1.2949219c0-.2529297-.0058594-.40625-.0351562-.5888672.2324219.0214844.40625.0283203.7363281.0283203h2.9980469c.328125,0,.4960938-.0068359.7285156-.0283203-.0214844.1679688-.0292969.3222656-.0292969.5888672v1.2949219h.203125ZM104.4404602,34.4783104c0,.34375.0136719.7080078.0351562.8828125h-.8261719c.0273438-.2167969.0410156-.4482422.0410156-.8828125v-1.8554688c0-.3857422-.0058594-.5742188-.0273438-.7705078.2304688.0205078.4335938.0273438.7558594.0273438h2.71875c.3496094,0,.5253906-.0068359.7285156-.0273438-.0214844.2304688-.0292969.4267578-.0292969.7978516v1.9189453c0,.6308594-.1894531.75-1.2460938.75-.0429688,0-.1464844,0-.3300781-.0068359-.0136719-.2734375-.0410156-.40625-.1601562-.6865234.1894531.0205078.4902344.0419922.6445312.0419922.3085938,0,.34375-.0214844.34375-.203125v-.203125h-2.6484375v.2167969ZM105.2041321,30.4861229c0-.2167969-.0078125-.3427734-.0214844-.5107422.1679688.0136719.3085938.0205078.5878906.0205078h1.4648438v-.3007812h-2.9140625v1.2460938h.8828125v-.4550781ZM107.0888977,32.7908104v-.3291016h-2.6484375v.3291016h2.6484375ZM107.0888977,33.6941308v-.3359375h-2.6484375v.3359375h2.6484375ZM107.2353821,30.9412011v-.3984375h-1.3378906v.3984375h1.3378906Z"/>
          <path class="cls-2" d="M115.7256164,28.8406151l-5.3085938,6.5830078h-1.03125l5.3027344-6.5830078h1.0371094Z"/>
          <path class="cls-2" d="M119.6338196,30.3884667c.0917969-.203125.1269531-.3085938.1953125-.5322266h-2.0371094v.5742188c0,1.6523438-.1191406,2.9345703-.3496094,3.6982422-.1484375.4970703-.3164062.875-.5253906,1.2109375-.203125-.3007812-.28125-.3984375-.5546875-.6787109.5195312-.9111328.6796875-1.9052734.6796875-4.2587891,0-.7001953-.0058594-.9941406-.0410156-1.2607422.265625.0283203.53125.0351562.8964844.0351562h3.9785156c.4121094,0,.6777344-.0136719.8535156-.0419922v.7568359c-.203125-.0283203-.4199219-.0351562-.8125-.0351562h-1.3027344c-.0703125.1962891-.1191406.3427734-.203125.5322266h1.1777344c.3417969,0,.53125-.0068359.7128906-.0283203-.0195312.1894531-.0273438.3779297-.0273438.6796875v1.3798828c0,.3144531.0078125.4902344.0273438.6787109-.2226562-.0205078-.4414062-.0273438-.6992188-.0273438h-.9804688v1.5410156c0,.5595703-.203125.6933594-1.0585938.6933594-.1894531,0-.328125-.0078125-.6308594-.0146484-.0332031-.3574219-.0546875-.4550781-.1679688-.7490234.3867188.0556641.5898438.0703125.828125.0703125.2167969,0,.265625-.0214844.265625-.1337891v-1.4072266h-.9453125c-.2519531,0-.484375.0068359-.7011719.0273438.0136719-.1953125.0214844-.3984375.0214844-.7001953v-1.3378906c0-.3222656-.0078125-.4824219-.0214844-.7001953.1894531.0214844.40625.0283203.7011719.0283203h.7207031ZM119.2842102,33.5124901c-.3847656.7910156-.7226562,1.2529297-1.21875,1.7011719-.1972656-.2167969-.3359375-.3427734-.5683594-.5175781.5390625-.4560547.890625-.9316406,1.1074219-1.4707031l.6796875.2871094ZM118.9404602,31.4109276h2.5917969v-.40625h-2.5917969v.40625ZM118.9404602,32.4402245h2.5917969v-.4267578h-2.5917969v.4267578ZM121.6299133,33.2175683c.34375.5605469.7695312,1.0224609,1.28125,1.3662109-.203125.1748047-.3769531.3710938-.5449219.6025391-.5742188-.4765625-.8066406-.7568359-1.359375-1.6396484l.6230469-.3291016Z"/>
          <path class="cls-2" d="M127.5713196,30.9831933c.6015625,1.1630859,1.4628906,2.0244141,2.7246094,2.7109375-.2675781.2871094-.3300781.3710938-.5390625.7421875-.6308594-.4414062-1.0097656-.7558594-1.3535156-1.1132812-.46875-.4902344-.7832031-.9384766-1.1328125-1.5898438.0332031.3154297.0488281.5742188.0488281.7910156v1.9609375c0,.3369141.0136719.6171875.0488281.8691406h-.9101562c.0332031-.2666016.0488281-.5322266.0488281-.8759766v-1.9472656c0-.1748047.0136719-.4902344.0351562-.7626953-.5253906,1.078125-1.2753906,1.9189453-2.4023438,2.6962891-.1679688-.3154297-.3085938-.5117188-.5195312-.7148438,1.1621094-.671875,2.1367188-1.6943359,2.6347656-2.7666016h-1.5351562c-.3144531,0-.5742188.0146484-.8398438.0498047v-.8271484c.265625.0351562.5039062.0498047.8398438.0498047h1.7871094v-.6591797c0-.2724609-.015625-.4550781-.0488281-.6513672h.9101562c-.0351562.1962891-.0488281.3789062-.0488281.6445312v.6660156h1.8828125c.3574219,0,.6171875-.0146484.8476562-.0498047v.8271484c-.2597656-.0351562-.546875-.0498047-.8476562-.0498047h-1.6308594Z"/>
          <path class="cls-2" d="M132.3994446,34.979287c-.28125-.4003906-.40625-.6201172-.546875-.9863281-.1796875-.4599609-.2636719-.9003906-.2636719-1.3808594,0-.4707031.0800781-.8857422.2539062-1.3359375.1464844-.3652344.265625-.5859375.5507812-.9863281h.7011719c-.3496094.4404297-.4960938.6660156-.6367188.9960938-.1738281.4101562-.2597656.8359375-.2597656,1.3261719,0,.5058594.0859375.9560547.265625,1.3710938.140625.3300781.28125.5507812.6347656.9960938h-.6992188Z"/>
          <path class="cls-2" d="M136.8935852,31.1658104c-.1601562.1552734-.3046875.3603516-.5214844.7207031-.5292969.8857422-.7949219,1.6513672-.9296875,2.7080078h-.7910156c.1640625-.8359375.3144531-1.3164062.6054688-1.9375.2304688-.4951172.4355469-.8359375.875-1.4560547h-1.5449219c-.296875,0-.4511719.0097656-.65625.0351562v-.6611328c.2304688.0253906.390625.0351562.6855469.0351562h1.5917969c.375,0,.5058594-.0048828.6855469-.0253906v.5810547Z"/>
          <path class="cls-2" d="M137.1865539,34.5945214v-.7314453h.7304688v.7314453h-.7304688Z"/>
          <path class="cls-2" d="M139.3740539,33.5076073c.0664062.2304688.1113281.3105469.2363281.4111328.1640625.1298828.3652344.1953125.6054688.1953125.4941406,0,.8105469-.2558594.8105469-.6513672,0-.2294922-.0996094-.4199219-.28125-.5253906-.1191406-.0703125-.3554688-.1201172-.5742188-.1201172-.2207031,0-.3652344.0048828-.5351562.0253906v-.6210938c.1601562.0205078.2695312.0253906.484375.0253906.5,0,.796875-.2304688.796875-.6152344,0-.3457031-.2363281-.5410156-.6621094-.5410156-.2441406,0-.4257812.0546875-.5449219.1552734-.0996094.0947266-.1503906.1796875-.2109375.3857422l-.7148438-.1210938c.125-.3701172.2402344-.5449219.4746094-.7148438.2558594-.1855469.5820312-.2753906.9824219-.2753906.8359375,0,1.375.4199219,1.375,1.0703125,0,.3007812-.1289062.5761719-.3457031.7363281-.109375.0849609-.21875.125-.484375.1953125.3554688.0546875.5410156.1396484.7148438.3349609.1660156.1855469.2402344.3955078.2402344.6904297,0,.2705078-.1152344.5458984-.2988281.7314453-.2753906.2646484-.6972656.4052734-1.2324219.4052734-.5859375,0-.9863281-.1503906-1.2714844-.4755859-.125-.140625-.1894531-.2705078-.2792969-.5605469l.7148438-.140625Z"/>
          <path class="cls-2" d="M143.2236633,30.6101464c-.0253906.1904297-.0351562.3652344-.0351562.6552734v1.6474609l.7519531-.7460938c.2285156-.2207031.3144531-.3203125.3945312-.4453125h.9355469q-.2851562.2548828-.5.4599609l-.7109375.6757812.8457031,1.15625q.3398438.4658203.4550781.5810547h-.890625c-.0605469-.1601562-.1191406-.2607422-.3300781-.5664062l-.5410156-.7900391-.4101562.3896484v.3261719c0,.3251953.0058594.4453125.0351562.640625h-.7050781c.0253906-.2060547.0351562-.3759766.0351562-.6513672v-2.6777344c0-.2998047-.0097656-.4648438-.0351562-.6552734h.7050781Z"/>
          <path class="cls-2" d="M146.2178039,34.7087792c.1953125.2705078.4140625.3808594.7753906.3808594.3847656,0,.6796875-.1357422.8203125-.3759766.0859375-.1494141.1210938-.3251953.1308594-.6650391-.25.3154297-.546875.4550781-.9824219.4550781-.7949219,0-1.3046875-.5449219-1.3046875-1.4013672,0-.8652344.5253906-1.4257812,1.3359375-1.4257812.4453125,0,.7402344.1347656.9550781.4404297-.0097656-.1005859-.0097656-.1103516-.0097656-.1650391v-.2304688h.671875c-.0253906.2148438-.0351562.3554688-.0351562.625v1.6767578c0,.6005859-.1308594.9863281-.421875,1.2314453-.25.2050781-.6640625.3203125-1.1796875.3203125-.5859375,0-.9160156-.1347656-1.2578125-.5205078l.5019531-.3457031ZM146.5420227,33.8083886c.125.1347656.3398438.2255859.53125.2255859.2753906,0,.5546875-.1601562.6953125-.3955078.0957031-.1552734.140625-.3408203.140625-.5712891,0-.3203125-.0996094-.5703125-.3007812-.7402344-.140625-.1152344-.3046875-.1806641-.4863281-.1806641-.5,0-.8105469.3759766-.8105469.9716797,0,.2949219.0800781.5400391.2304688.6904297Z"/>
          <path class="cls-2" d="M149.2978821,32.6423729c.1855469-.2255859.2753906-.3056641.4960938-.4453125.3046875-.1904297.5292969-.2607422.8203125-.2607422.2304688,0,.4296875.0449219.6445312.1503906q.1308594.0644531.4570312.2753906c.3789062.2451172.6445312.3496094.8847656.3496094.1054688,0,.25-.0390625.3710938-.0947266.2148438-.1103516.3457031-.2197266.5195312-.4550781l.4003906.4003906c-.2050781.2597656-.3105469.3652344-.4746094.4853516-.2558594.1904297-.5410156.2851562-.8671875.2851562-.1484375,0-.3046875-.0253906-.4394531-.0703125-.1953125-.0644531-.2949219-.1152344-.6855469-.3701172-.4414062-.2802734-.5957031-.3408203-.8613281-.3408203-.3242188,0-.5546875.1210938-.8710938.4609375l-.3945312-.3701172Z"/>
          <path class="cls-2" d="M154.3388977,34.979287c.3554688-.4453125.4941406-.6660156.6347656-.9960938.1796875-.4150391.265625-.8603516.265625-1.3710938,0-.5-.0800781-.9160156-.2558594-1.3261719-.1445312-.3300781-.2890625-.5556641-.640625-.9960938h.7050781c.28125.3955078.4003906.6152344.546875.9863281.1738281.4550781.2539062.8603516.2539062,1.3359375,0,.4853516-.0839844.9208984-.2597656,1.3808594-.1445312.3662109-.265625.5859375-.5449219.9863281h-.7050781Z"/>
          <path class="cls-2" d="M26.4560852,39.8474511c.1757812.6308594.546875,1.3105469,1.0078125,1.8349609.5195312.5888672,1.0996094.9882812,1.9335938,1.3310547-.2382812.2802734-.3359375.4277344-.5117188.8056641-.7480469-.3857422-1.2324219-.7421875-1.7285156-1.2822266-.4550781-.4824219-.7988281-1.0429688-1.0585938-1.6943359-.2089844.7216797-.5800781,1.3232422-1.140625,1.8769531-.4765625.46875-.9804688.7988281-1.6738281,1.0996094-.1191406-.2666016-.2675781-.4833984-.4902344-.7353516.5039062-.203125.7832031-.3505859,1.1347656-.5957031.9375-.6650391,1.40625-1.4492188,1.5742188-2.640625h-1.6523438c-.4414062,0-.6445312.0146484-.875.0498047v-.8896484c.2167969.0351562.46875.0488281.8828125.0488281h1.7148438c.0136719-.3505859.0214844-.4619141.0214844-.8261719,0-.2939453-.0214844-.5048828-.0488281-.7001953h.9238281c-.0351562.2451172-.0410156.3496094-.0488281.8193359,0,.2871094-.0058594.4482422-.0136719.7070312h1.8554688c.4003906,0,.6445312-.0136719.8828125-.0488281v.8896484c-.2792969-.0351562-.4902344-.0498047-.875-.0498047h-1.8144531Z"/>
          <path class="cls-2" d="M32.6982727,43.7068261c-.0859375-.2519531-.140625-.3916016-.1972656-.5322266-.3144531.1259766-.9726562.3154297-1.5546875.4550781-.3007812.0703125-.40625.0986328-.546875.1474609l-.1738281-.7636719q.203125-.0136719.4550781-.0556641v-3.1240234c0-.203125-.0078125-.2939453-.0136719-.4345703-.0839844.0566406-.140625.0986328-.2734375.1962891-.0566406-.3007812-.1269531-.5039062-.2597656-.7910156.3925781-.2519531.546875-.3710938.8613281-.6796875.2460938-.2382812.4140625-.4550781.5332031-.6933594h.7070312c.1816406.3291016.5117188.6865234.9375,1.0087891-.0058594-.2246094-.0058594-.3085938-.0195312-.4345703.1542969.0146484.3007812.0214844.5800781.0214844h.7070312v-.1191406c0-.1962891-.0136719-.3359375-.0351562-.4902344h.8203125c-.0273438.1464844-.0351562.2587891-.0351562.4902344v.1191406h.7636719c.2734375,0,.4980469-.0146484.6796875-.0351562-.0136719.1396484-.0214844.2802734-.0214844.4902344v.5253906c0,.203125,0,.3427734.0214844.4755859h-.484375v1.0371094c0,.2802734,0,.40625.0214844.5322266-.1679688-.0136719-.3144531-.0214844-.5175781-.0214844h-1.4648438v.5048828h1.6894531c.2519531,0,.40625-.0068359.5527344-.0214844-.0214844.1611328-.0214844.3222656-.0214844.5537109v1.2041016c0,.2802734.0078125.4414062.0273438.6171875h-.7480469v-.3369141h-1.4921875v.3574219h-.7636719c.0214844-.1542969.0351562-.3291016.0351562-.6025391v-3.5644531c0-.1123047,0-.1328125-.0078125-.2666016h-.3066406c.0136719-.1464844.0195312-.2724609.0195312-.4335938v-.4345703c-.1601562.2099609-.2304688.3222656-.3066406.5322266-.4492188-.3710938-.6660156-.609375-.953125-1.0224609-.34375.4619141-.6171875.7568359-1.0996094,1.1630859.125.0068359.1816406.0068359.3574219.0068359h.3769531v-.2314453c0-.1474609-.0058594-.2314453-.0273438-.3505859h.7011719c-.0214844.1123047-.0292969.203125-.0292969.3574219v.2246094h.2734375c.2734375,0,.40625-.0068359.5527344-.0283203-.0195312.1748047-.0195312.3427734-.0195312.5957031v1.3164062c0,.265625,0,.4199219.0136719.5673828-.1113281-.0136719-.2246094-.0214844-.4140625-.0214844h-1.2109375v1.0996094c.4335938-.1044922.5527344-.1396484.8339844-.2304688-.1054688-.2177734-.140625-.2871094-.2949219-.5253906l.5878906-.2451172c.3007812.4550781.5332031.8896484.8125,1.5478516l-.6289062.3427734ZM32.2978821,40.2195214v-.3642578h-.9101562v.3642578h.9101562ZM31.3877258,41.1433495h.9101562v-.3916016h-.9101562v.3916016ZM35.9053039,38.6921776h-2.0175781v.4902344h1.7226562c.1132812,0,.1679688,0,.2949219-.0068359v-.4833984ZM34.1885071,40.4148339h1.2480469v-.6298828h-1.2480469v.6298828ZM34.1885071,42.901162h1.5v-.7207031h-1.5v.7207031Z"/>
          <path class="cls-2" d="M40.3681946,41.6619042c-.3984375.9033203-.8476562,1.3164062-1.421875,1.3164062-.7988281,0-1.3730469-.8125-1.3730469-1.9394531,0-.7705078.2734375-1.4921875.7714844-2.0380859.5878906-.6445312,1.4140625-.9804688,2.4082031-.9804688,1.6816406,0,2.7734375,1.0224609,2.7734375,2.5976562,0,1.2119141-.6289062,2.1787109-1.7011719,2.6123047-.3359375.140625-.609375.2109375-1.0996094.2949219-.1191406-.3710938-.203125-.5253906-.4277344-.8193359.6445312-.0839844,1.0644531-.1962891,1.3945312-.3857422.609375-.3359375.9726562-1.0009766.9726562-1.7509766,0-.671875-.3007812-1.21875-.8613281-1.5546875-.2167969-.1259766-.3984375-.1816406-.7070312-.2099609-.1328125,1.0996094-.3789062,2.0664062-.7285156,2.8574219ZM39.3388977,39.1540917c-.5878906.4208984-.953125,1.1416016-.953125,1.8916016,0,.5742188.2460938,1.0292969.5527344,1.0292969.2324219,0,.4707031-.2939453.7226562-.8964844.265625-.6298828.4960938-1.5761719.5800781-2.3671875-.3632812.0419922-.6152344.1396484-.9023438.3427734Z"/>
          <path class="cls-2" d="M44.9951477,38.4607323c0-.2724609-.0136719-.5175781-.0351562-.7490234.2246094.0283203.4570312.0351562.7792969.0351562h3.3886719c.3300781,0,.546875-.0068359.7558594-.0351562-.0273438.2666016-.0351562.4697266-.0351562.7148438v4.5244141c0,.3642578.015625.5947266.0429688.8466797h-.8476562v-.4199219h-3.2558594v.4199219h-.8339844c.0273438-.2373047.0410156-.5175781.0410156-.8466797v-4.4902344ZM45.7881164,40.1140526h3.2558594v-1.625h-3.2558594v1.625ZM45.7881164,42.6423729h3.2558594v-1.7929688h-3.2558594v1.7929688Z"/>
          <path class="cls-2" d="M52.1865539,39.323037c-.3085938,0-.546875.0136719-.8339844.0419922v-.8544922c.2734375.0341797.5039062.0488281.8339844.0488281h1.7988281v-.4970703c0-.2734375-.0136719-.4482422-.0410156-.6513672h.875c-.0351562.1953125-.0488281.3847656-.0488281.6435547v.5048828h1.8984375c.3496094,0,.609375-.0146484.8476562-.0488281v.8544922c-.3085938-.0283203-.5195312-.0419922-.8476562-.0419922h-1.5c.3300781.5947266.6582031,1.0566406,1.0507812,1.4707031.4765625.4970703.9746094.8818359,1.5273438,1.1767578-.2167969.2587891-.3359375.4482422-.4765625.7626953-.4472656-.3076172-.75-.5527344-1.1757812-.9736328v.7988281c-.21875-.0283203-.4140625-.0419922-.7011719-.0419922h-.6230469v.4765625c0,.3291016.0136719.6230469.0488281.8681641h-.8828125c.0351562-.2587891.0488281-.5390625.0488281-.8681641v-.4765625h-.5527344c-.2871094,0-.4902344.0136719-.7011719.0419922v-.7910156c-.3984375.4199219-.6933594.671875-1.1347656.9804688-.1386719-.3154297-.2441406-.4765625-.4746094-.7353516,1.0488281-.6513672,1.8964844-1.5898438,2.4355469-2.6894531h-1.3710938ZM53.9853821,40.6599511c0-.2167969.0214844-.4970703.0566406-.7841797-.3710938.7568359-.7070312,1.2470703-1.2753906,1.8564453.1621094.0205078.3007812.0273438.6230469.0273438h.5957031v-1.0996094ZM55.4502258,41.7595604c.3222656,0,.4472656-.0068359.6152344-.0273438-.5449219-.546875-.8535156-.9736328-1.3574219-1.8564453.0410156.2871094.0625.5673828.0625.7773438v1.1064453h.6796875Z"/>
          <path class="cls-2" d="M58.7900696,39.1687401c.5527344.3291016.6855469.4267578,1.2246094.8896484l-.4414062.6582031c-.5097656-.4833984-.734375-.6513672-1.2460938-.9453125l.4628906-.6025391ZM59.9951477,41.6062401c-.1835938.5810547-.3378906.9658203-.6035156,1.5332031-.0898438.1894531-.1191406.2382812-.2304688.4345703-.0488281.0976562-.0566406.0976562-.1054688.2099609l-.6660156-.5878906c.3652344-.4414062.6445312-1.0087891,1.0019531-2.0527344l.6035156.4628906ZM60.1201477,37.6208886c.2246094.0351562.4199219.0419922.7773438.0419922h3.1386719c.3417969,0,.5585938-.0146484.7832031-.0419922v.7558594c-.2382812-.0205078-.46875-.0351562-.7480469-.0351562h-.7773438v.6240234h.6425781c.2871094,0,.546875-.0146484.6796875-.0283203-.0136719.1474609-.0214844.4199219-.0214844.7773438v3.2216797c0,.4277344.0078125.6660156.0429688.9033203h-.75v-.3496094h-2.8847656v.3496094h-.7421875c.0273438-.2871094.0410156-.5458984.0410156-.8818359v-3.2919922c0-.3154297-.0058594-.5742188-.0273438-.7216797.1953125.0146484.3496094.0214844.7070312.0214844h.5683594v-.6240234h-.6738281c-.2578125,0-.5097656.0078125-.6933594.0283203l-.4472656.5810547c-.484375-.4755859-.6796875-.6298828-1.1621094-.9306641l.4902344-.5673828c.4746094.3007812.6777344.4619141,1.0566406.8125v-.6445312ZM62.2138977,39.6101464c-.0410156.9589844-.1894531,1.3652344-.6796875,1.890625-.1875-.2382812-.2871094-.3291016-.53125-.4765625v.6660156h2.8847656v-.5322266c-.1738281.0136719-.2226562.0136719-.3417969.0136719-.3925781,0-.5546875-.0214844-.6933594-.0976562-.1542969-.0849609-.2246094-.2177734-.2246094-.4277344v-1.0361328h-.4140625ZM61.0029602,39.6101464v1.3515625c.2089844-.1826172.2949219-.2871094.3847656-.4970703.1054688-.2451172.1328125-.3925781.1542969-.8544922h-.5390625ZM61.0029602,42.8103417h2.8847656v-.4902344h-2.8847656v.4902344ZM62.6279602,38.9656151v-.6240234h-.40625v.6240234h.40625ZM63.8877258,39.6101464h-.59375v.7626953c0,.140625.0488281.1757812.2519531.1757812.0488281,0,.0761719,0,.3417969-.0078125v-.9306641Z"/>
          <path class="cls-2" d="M71.9931946,37.3406151l-5.3085938,6.5830078h-1.0292969l5.3007812-6.5830078h1.0371094Z"/>
          <path class="cls-2" d="M74.0615539,40.5066308c-.3710938,0-.609375.0068359-.8476562.0341797.0292969-.203125.0351562-.3779297.0351562-.7978516v-1.3730469c0-.3847656-.0058594-.5390625-.0351562-.7421875.2109375.0283203.4277344.0351562.8339844.0351562h3.3203125c.4121094,0,.609375-.0068359.8398438-.0351562-.0273438.1894531-.0351562.3574219-.0351562.7988281v1.3164062c0,.4414062.0078125.6025391.0351562.7978516-.2519531-.0273438-.4492188-.0341797-.8476562-.0341797h-1.3300781v.3916016h2.0175781c.390625,0,.6015625-.0136719.796875-.0419922v.7773438c-.2382812-.0273438-.46875-.0419922-.7910156-.0419922h-1.5332031c.2871094.3154297.5605469.5322266.9589844.7636719.5039062.2871094.9238281.4619141,1.5136719.609375-.1894531.2734375-.28125.4482422-.40625.7421875-1.0644531-.3642578-1.9277344-.9384766-2.5703125-1.7158203q0,.0908203.0058594.2314453c.0078125.1044922.0078125.1962891.0078125.2724609v.609375c0,.3369141.0136719.5185547.0488281.7636719h-.8554688c.0429688-.2382812.0488281-.3994141.0488281-.7558594v-.609375q.0078125-.2734375.0214844-.4833984c-.3222656.3779297-.6796875.7001953-1.1054688,1.0009766-.4003906.2802734-.7226562.4482422-1.3457031.7216797-.1328125-.3007812-.2246094-.4619141-.4199219-.7216797.4980469-.1464844.9804688-.3642578,1.3730469-.609375.40625-.2519531.6445312-.4619141.953125-.8193359h-1.4082031c-.3359375,0-.5546875.0146484-.7851562.0419922v-.7773438c.203125.0351562.3925781.0419922.7851562.0419922h1.9316406v-.3916016h-1.2109375ZM74.0049133,38.3210839v.4765625h1.2675781v-.4765625h-1.2675781ZM74.0049133,39.3992089v.4765625h1.2675781v-.4765625h-1.2675781ZM76.0303039,38.7976464h1.3925781v-.4765625h-1.3925781v.4765625ZM76.0303039,39.8757714h1.3925781v-.4765625h-1.3925781v.4765625Z"/>
          <path class="cls-2" d="M81.3076477,39.8689354c-.3203125,0-.4960938.0068359-.6582031.0351562v-.3710938h-.6425781c.0273438-.1611328.0332031-.2871094.0332031-.5185547v-.5185547c0-.1884766-.0058594-.3427734-.0273438-.5253906.2246094.0214844.4199219.0283203.7714844.0283203h1.8203125v-.1611328c0-.1748047-.0136719-.2871094-.0429688-.4414062h.8613281c-.0273438.140625-.0332031.2666016-.0332031.4414062v.1611328h1.9179688c.3574219,0,.5390625-.0068359.7773438-.0283203-.0214844.1757812-.0273438.3222656-.0273438.5117188v.5322266c0,.203125.0058594.3574219.0273438.5185547h-.6445312v.3710938c-.1738281-.0283203-.3359375-.0351562-.6640625-.0351562h-1.4082031q-.0078125.2236328-.0136719.3847656h1.3085938c.34375,0,.4550781-.0068359.6230469-.0273438v.6650391c-.1816406-.0205078-.2929688-.0283203-.6230469-.0283203h-1.3515625c-.0214844.1757812-.0273438.2314453-.0566406.3789062h2.1855469c.3496094,0,.5253906-.0078125.7226562-.0351562v.7353516c-.2539062-.0283203-.4492188-.0419922-.7578125-.0419922h-1.7851562c.2519531.3007812.3847656.4199219.6503906.5878906.3085938.1894531.7421875.3574219,1.2324219.4765625.1757812.0488281.3925781.0908203.7792969.1611328-.1621094.2451172-.2734375.4619141-.3652344.7558594-.6503906-.1533203-.9375-.2451172-1.3105469-.40625-.7480469-.3359375-1.2246094-.7138672-1.6582031-1.3300781-.2519531.4765625-.5546875.7978516-1.0234375,1.0996094-.4902344.3076172-.9316406.4755859-1.7089844.6298828-.125-.3564453-.1679688-.4335938-.3710938-.7285156.7363281-.1044922,1.0996094-.2099609,1.5195312-.4267578.40625-.2099609.6796875-.4619141.890625-.8193359h-1.5488281c-.2734375,0-.4960938.0136719-.75.0419922v-.7353516c.1894531.0273438.3574219.0351562.7089844.0351562h1.8339844c.0273438-.1337891.0429688-.2109375.0625-.3789062h-1.1835938c-.3359375,0-.4472656.0078125-.6289062.0283203v-.6650391c.1679688.0205078.2871094.0273438.6289062.0273438h1.2324219q.0078125-.1953125.0078125-.3847656h-1.3105469ZM82.6260071,39.2527245c-.0078125-.2246094-.0078125-.3154297-.0292969-.4482422h.8125c-.0195312.0839844-.0195312.1679688-.0273438.4482422h1.3945312c.265625,0,.3769531-.0068359.5527344-.0214844v-.5742188h-4.5605469v.5742188c.1269531.0146484.28125.0214844.5390625.0214844h1.3183594Z"/>
          <path class="cls-2" d="M92.4267883,38.3210839q-.0839844.0205078-.5878906.1894531c-.3984375.1259766-.6230469.1816406-1.1699219.2871094q-.0058594.9453125-.0195312,1.1835938h1.484375c.4765625,0,.5957031-.0068359.8535156-.0488281v.8398438c-.2578125-.0283203-.390625-.0351562-.8398438-.0351562h-1.546875c-.078125.6513672-.2246094,1.1210938-.4707031,1.5273438-.2441406.40625-.6503906.7978516-1.140625,1.1132812-.1972656.1259766-.3300781.203125-.6523438.3505859-.203125-.3574219-.3144531-.4902344-.609375-.7431641.5039062-.1816406.7714844-.3291016,1.0859375-.5878906.4199219-.3359375.6875-.7353516.8046875-1.1904297.0292969-.1191406.0507812-.2382812.078125-.4697266h-1.7304688c-.4472656,0-.5800781.0068359-.8398438.0351562v-.8398438c.2597656.0419922.3789062.0488281.8535156.0488281h1.7929688c.015625-.2949219.015625-.5673828.015625-1.0576172-.5683594.0839844-.7851562.1044922-1.9414062.1611328-.0703125-.3154297-.1054688-.4208984-.2578125-.7568359.2167969.0136719.328125.0136719.4335938.0136719.9375,0,2.1367188-.1601562,2.9980469-.4052734.40625-.1191406.609375-.1962891.8476562-.3300781l.5585938.7148438Z"/>
          <path class="cls-2" d="M95.2178039,43.4060448c-.3496094,0-.4550781.0068359-.6308594.0273438v-.7773438c.1894531.0351562.3574219.0498047.6308594.0498047h2.6894531v-1.0576172h-2.4375c-.3496094,0-.4550781.0068359-.6308594.0273438v-.7626953c.1894531.0341797.3496094.0488281.6308594.0488281h2.4375v-.9736328h-2.6191406c-.34375,0-.4492188.0068359-.6308594.0283203v-.7783203c.1953125.0351562.3496094.0498047.6308594.0498047h2.7597656c.2519531,0,.4472656-.0068359.6503906-.0283203-.0136719.2519531-.0214844.4267578-.0214844.7353516v3.2080078c0,.265625.0078125.3710938.0292969.5322266h-.8066406v-.3291016h-2.6816406Z"/>
          <path class="cls-2" d="M101.4892883,42.9509667c-.4824219,0-.6503906.0068359-.8613281.0273438v-.9033203c.2597656.0419922.3867188.0488281.8769531.0488281h3.1855469v-3.0537109h-3.0683594c-.4960938,0-.6425781.0078125-.8964844.0351562v-.9101562c.2597656.0419922.3925781.0488281.9042969.0488281h3.3691406q.3632812,0,.609375-.0136719c-.0214844.1884766-.0214844.2587891-.0214844.5810547v3.8447266c0,.3505859.0078125.546875.0351562.7216797h-.9375v-.4267578h-3.1953125Z"/>
          <path class="cls-2" d="M113.1045227,37.3406151l-5.3085938,6.5830078h-1.0292969l5.3007812-6.5830078h1.0371094Z"/>
          <path class="cls-2" d="M118.9482727,38.3210839q-.0839844.0205078-.5878906.1894531c-.3984375.1259766-.6230469.1816406-1.1699219.2871094q-.0058594.9453125-.0195312,1.1835938h1.484375c.4765625,0,.5957031-.0068359.8535156-.0488281v.8398438c-.2578125-.0283203-.390625-.0351562-.8398438-.0351562h-1.546875c-.078125.6513672-.2246094,1.1210938-.4707031,1.5273438-.2441406.40625-.6503906.7978516-1.140625,1.1132812-.1972656.1259766-.3300781.203125-.6523438.3505859-.203125-.3574219-.3144531-.4902344-.609375-.7431641.5039062-.1816406.7714844-.3291016,1.0859375-.5878906.4199219-.3359375.6875-.7353516.8046875-1.1904297.0292969-.1191406.0507812-.2382812.078125-.4697266h-1.7304688c-.4472656,0-.5800781.0068359-.8398438.0351562v-.8398438c.2597656.0419922.3789062.0488281.8535156.0488281h1.7929688c.015625-.2949219.015625-.5673828.015625-1.0576172-.5683594.0839844-.7851562.1044922-1.9414062.1611328-.0703125-.3154297-.1054688-.4208984-.2578125-.7568359.2167969.0136719.328125.0136719.4335938.0136719.9375,0,2.1367188-.1601562,2.9980469-.4052734.40625-.1191406.609375-.1962891.8476562-.3300781l.5585938.7148438Z"/>
          <path class="cls-2" d="M124.9228821,42.6775292c.3222656,0,.4570312-.0068359.6445312-.0419922v.7978516c-.1875-.0205078-.3496094-.0273438-.6445312-.0273438h-3.6347656c-.3066406,0-.4550781.0068359-.6445312.0273438v-.7978516c.1972656.0351562.3222656.0419922.6445312.0419922h2.0664062c.1191406-.6230469.265625-1.6113281.3359375-2.2480469h-1.7363281c-.3359375,0-.4414062.0068359-.6230469.0273438v-.7910156c.1757812.0283203.3710938.0419922.6445312.0419922h1.7714844c.2460938,0,.3496094-.0136719.5175781-.0634766l.3867188.3369141q-.0839844.2167969-.1621094.7978516c-.1054688.7705078-.1816406,1.2675781-.3007812,1.8984375h.734375Z"/>
          <path class="cls-2" d="M128.1260071,42.8874901v.4902344h-.9023438c.0195312-.1679688.0273438-.3359375.0273438-.6025391v-4.0126953c0-.2666016-.0078125-.3994141-.0273438-.5888672.1679688.0146484.3144531.0214844.59375.0214844h3.9785156c.3007812,0,.4277344-.0068359.5878906-.0214844-.0136719.1826172-.0195312.3222656-.0195312.5820312v4.0058594c0,.2587891.0058594.4482422.0273438.609375h-.9042969v-.4833984h-3.3613281ZM131.4873352,38.9861229h-3.3613281v3.1025391h3.3613281v-3.1025391Z"/>
          <path class="cls-2" d="M139.1045227,43.5251854c-.5820312-.7148438-1.3867188-1.4990234-2.1503906-2.0800781-.7910156.8818359-1.5976562,1.4980469-2.6679688,2.0234375-.1972656-.3642578-.28125-.4755859-.5683594-.7773438.5390625-.2099609.875-.3994141,1.4003906-.7705078,1.0585938-.7421875,1.8984375-1.7578125,2.3535156-2.8505859l.078125-.1816406q-.1132812.0068359-2.3183594.0419922c-.3359375.0068359-.5253906.0205078-.7636719.0556641l-.0292969-.8964844c.1972656.0351562.3300781.0419922.6171875.0419922h.1679688l2.4648438-.0351562c.3925781-.0068359.4492188-.0136719.6230469-.0761719l.4628906.4755859c-.0898438.1054688-.1464844.203125-.2246094.3789062-.3222656.7490234-.6640625,1.3583984-1.0917969,1.9326172.4414062.2939453.8203125.5878906,1.2949219,1.015625q.1757812.1542969,1.0234375.9736328l-.671875.7285156Z"/>
        </g>
        <g>
          <g>
            <path class="cls-2" d="M43.3428039,26.7507714v-6.7021484h2.1220703c-.4345703.5878906-.5947266.875-.7636719,1.3583984-.203125.5878906-.3007812,1.2255859-.3007812,1.9892578,0,.7626953.0976562,1.4003906.3007812,1.9892578.1689453.4902344.3291016.7773438.7636719,1.3652344h-2.1220703Z"/>
            <path class="cls-2" d="M48.5566711,21.0915917c.1884766-.3359375.3427734-.6933594.40625-.9589844l.8896484.1191406q-.0146484.0341797-.0498047.1113281c-.0068359.0068359-.0136719.0283203-.0341797.0634766,0,.0136719-.0146484.0351562-.0214844.0556641-.1396484.2939453-.1816406.3857422-.3154297.609375h1.7861328c.34375,0,.546875-.0068359.8056641-.0351562-.0214844.2519531-.0351562.5048828-.0351562.8691406v3.71875c0,.4199219.0136719.671875.0419922.9169922h-.8408203v-.3564453h-3.5507812v.3564453h-.8261719c.0283203-.2451172.0419922-.5253906.0419922-.9306641v-3.7128906c0-.3564453-.0136719-.6298828-.0351562-.8613281.2382812.0283203.4482422.0351562.7705078.0351562h.9667969ZM47.6387024,23.2351464h3.5507812v-1.4082031h-3.5507812v1.4082031ZM47.6387024,25.448037h3.5507812v-1.4775391h-3.5507812v1.4775391Z"/>
            <path class="cls-2" d="M55.8838196,24.0896386c-.0986328.1464844-.140625.2236328-.2451172.4550781-.3710938-.3222656-.4902344-.4345703-.6591797-.6376953v1.8984375c0,.3291016.0146484.5673828.0429688.8261719h-.8125c.0273438-.2167969.0419922-.4970703.0419922-.8261719v-1.6806641c-.2529297.2724609-.4140625.4267578-.75.7001953-.0771484-.2871094-.1679688-.5048828-.3291016-.7636719.3359375-.2314453.7001953-.5605469,1.0019531-.9033203.3291016-.3857422.5673828-.75.7626953-1.1835938h-.9521484c-.2236328,0-.4130859.0136719-.5878906.0351562v-.75c.1611328.0283203.2724609.0351562.5253906.0351562h.3212891v-.609375c0-.1679688-.0136719-.3710938-.0419922-.5390625h.8203125c-.0283203.1542969-.0429688.3427734-.0429688.5458984v.6025391h.1689453c.2167969,0,.3291016-.0068359.3847656-.0283203l.3291016.3574219c-.0351562.0703125-.0488281.0986328-.1044922.2177734-.2246094.5244141-.4208984.9033203-.6591797,1.2460938.2109375.2382812.4833984.4765625.7851562.6933594v-1.9052734c0-.3359375-.0078125-.4902344-.0283203-.7138672.1816406.0283203.3359375.0351562.7070312.0351562h.7148438v-.3017578c0-.3144531-.0146484-.5039062-.0419922-.7421875h.8125c-.0283203.2314453-.0419922.4277344-.0419922.75v.2939453h.8193359c.3779297,0,.5322266-.0068359.7138672-.0351562-.0205078.1884766-.0273438.3076172-.0273438.7138672v2.3603516c0,.3085938.0068359.5537109.0273438.7705078h-.7490234v-.3574219h-.7841797v1.1279297c0,.3857422.0136719.6162109.0419922.8613281h-.8125c.0351562-.2587891.0419922-.46875.0419922-.8544922v-1.1347656h-.6865234v.3857422h-.7421875c.0273438-.203125.0351562-.4130859.0351562-.7490234v-.1962891ZM56.5693664,21.8757714v.7011719h.7080078v-.7011719h-.7080078ZM56.5908508,23.2204979v.7568359h.6865234v-.7568359h-.6865234ZM58.7763977,22.5769433v-.7011719h-.7705078v.7011719h.7705078ZM58.7969055,23.9773339v-.7568359h-.7910156v.7568359h.7910156Z"/>
            <path class="cls-2" d="M62.0195617,22.2468651c-.2871094.6025391-.5673828,1.0234375-.9521484,1.4716797-.1826172-.2666016-.34375-.4345703-.5742188-.5957031.5253906-.5322266.9453125-1.2675781,1.1835938-2.0449219.0908203-.3017578.1259766-.4482422.1542969-.6513672l.7978516.1962891q-.0136719.0556641-.0625.1816406c-.0214844.0488281-.0214844.0556641-.0703125.2314453-.0351562.1044922-.0986328.2802734-.1894531.5253906h1.1416016v-.5322266c0-.3642578-.0136719-.5820312-.0488281-.8408203h.8964844c-.0283203.2314453-.0419922.4619141-.0419922.8330078v.5400391h1.4570312c.3564453,0,.6582031-.0146484.9453125-.0419922v.7705078c-.3007812-.0283203-.5888672-.0429688-.9248047-.0429688h-1.4775391v1.2890625h1.2119141c.3496094,0,.6298828-.0136719.8613281-.0419922v.7705078c-.2519531-.0283203-.5322266-.0419922-.8613281-.0419922h-1.2119141v1.484375h1.6806641c.3994141,0,.6933594-.0136719.9736328-.0488281v.7988281c-.3291016-.0351562-.5810547-.0488281-.9521484-.0488281h-4.2861328c-.3642578,0-.6660156.0136719-.9951172.0488281v-.7988281c.3017578.0351562.6025391.0488281.9736328.0488281h1.7998047v-1.484375h-1.078125c-.3291016,0-.609375.0136719-.8476562.0419922v-.7705078c.2236328.0283203.4550781.0419922.8408203.0419922h1.0849609v-1.2890625h-1.4287109Z"/>
            <path class="cls-2" d="M70.4638977,20.9870995c-.0283203.0839844-.0419922.1611328-.0908203.5390625-.140625.9521484-.3154297,1.7294922-.5537109,2.3955078-.3154297.8613281-.671875,1.4912109-1.2392578,2.1640625-.3369141-.3222656-.4482422-.40625-.7988281-.6025391.4199219-.4199219.7070312-.8476562,1.0019531-1.4921875.3007812-.6513672.5458984-1.5195312.6582031-2.4023438.0419922-.2871094.0625-.5253906.0625-.6787109v-.0986328l.9599609.1757812ZM72.4531555,20.8113183c.0205078.3925781.1328125.9951172.2939453,1.6113281.3359375,1.28125.7978516,2.1777344,1.5615234,3.0253906-.3710938.2382812-.4902344.3359375-.7705078.6445312-.4970703-.6025391-.8613281-1.2324219-1.1904297-2.0595703-.3007812-.7353516-.5458984-1.6738281-.6650391-2.5488281-.0419922-.2666016-.0634766-.3994141-.0986328-.5048828l.8691406-.1679688Z"/>
            <path class="cls-2" d="M78.5635071,20.573037c-.0771484.1542969-.0839844.1689453-.1816406.5048828-.5322266,1.7509766-.9384766,2.9130859-1.3867188,3.9921875,1.0996094-.0839844,2.3105469-.2314453,2.9130859-.3574219-.0771484-.1679688-.1611328-.3222656-.3291016-.6376953-.3085938-.5810547-.4345703-.7841797-.6650391-1.1132812l.7910156-.3085938c.6513672.953125,1.2675781,2.1298828,1.6953125,3.2431641l-.8476562.4414062q-.0908203-.2871094-.3359375-.8681641-.0917969.0205078-.2529297.0556641c-.7070312.1474609-1.8691406.2939453-3.9638672.4970703-.3916016.0351562-.4970703.0488281-.6367188.0839844l-.1269531-.9453125h.1826172c.1396484,0,.3085938-.0068359.6025391-.0214844.3710938-.8818359.6513672-1.6738281,1.015625-2.8222656.3291016-1.0292969.4619141-1.5263672.5107422-1.9394531l1.015625.1953125Z"/>
            <path class="cls-2" d="M82.2646789,26.7507714c.4267578-.5878906.5878906-.875.7558594-1.3652344.2099609-.5957031.3085938-1.21875.3085938-1.9892578s-.0986328-1.3945312-.3085938-1.9892578c-.1679688-.4902344-.3291016-.7705078-.7558594-1.3583984h2.1220703v6.7021484h-2.1220703Z"/>
          </g>
          <g>
            <path class="cls-2" d="M87.5976867,25.7942284c-.2802734-.4003906-.4052734-.6201172-.5458984-.9853516-.1796875-.4609375-.2646484-.9013672-.2646484-1.3818359,0-.4707031.0800781-.8857422.2548828-1.3359375.1455078-.3662109.265625-.5859375.5507812-.9863281h.7001953c-.3505859.4404297-.4951172.6660156-.6357422.9960938-.1748047.4101562-.2597656.8359375-.2597656,1.3261719,0,.5058594.0849609.9560547.265625,1.3710938.1396484.3310547.2792969.5507812.6347656.9960938h-.7001953Z"/>
            <path class="cls-2" d="M89.4502258,25.4387597c.0302734-.1953125.0400391-.3896484.0400391-.6552734v-2.7529297h-.2402344c-.1845703,0-.3300781.0097656-.515625.0302734v-.6357422c.1552734.0253906.265625.0302734.5009766.0302734h.4599609c.2558594,0,.3310547-.0048828.5107422-.0253906-.0302734.2949219-.0400391.5253906-.0400391.8261719v2.5273438c0,.265625.0097656.4501953.0400391.6552734h-.7558594Z"/>
            <path class="cls-2" d="M92.2988586,23.0862206c0-.109375-.0048828-.1845703-.0146484-.2900391.1054688.0107422.2148438.015625.3505859.015625h1.0908203v-.6513672h-1.0458984c-.2607422.40625-.5058594.6962891-.8261719.9863281-.1445312-.2148438-.2001953-.2802734-.3701172-.4453125.5107422-.4355469.7705078-.765625.9755859-1.2558594.0703125-.1601562.1054688-.265625.1201172-.3662109l.5957031.1201172c-.0292969.0605469-.0400391.0751953-.0751953.1503906-.0048828.015625-.0546875.1201172-.1445312.3154297h2.3417969c.2353516,0,.3603516-.0048828.5107422-.0253906v.5458984c-.1552734-.0195312-.2851562-.0253906-.5107422-.0253906h-1.0205078v.6513672h.8056641c.2304688,0,.3652344-.0048828.515625-.0253906v.5302734c-.1503906-.0146484-.2851562-.0195312-.5009766-.0195312h-.8203125v.8105469h1.1611328c.2294922,0,.3896484-.0097656.5449219-.0302734v.5712891c-.1552734-.0205078-.3300781-.0302734-.5449219-.0302734h-1.1611328v.625c0,.2558594.0048828.390625.0292969.5361328h-.6103516c.0205078-.1455078.0302734-.2802734.0302734-.5458984v-.6152344h-1.6816406c-.2207031,0-.3808594.0097656-.5458984.0302734v-.5712891c.1601562.0205078.3203125.0302734.5458984.0302734h.2548828v-1.0214844ZM93.7256164,24.107705v-.8105469h-.9003906v.8105469h.9003906Z"/>
            <path class="cls-2" d="M97.9912414,23.4475487c0,.3300781-.2646484.5947266-.5957031.5947266-.3300781,0-.5947266-.2646484-.5947266-.5947266,0-.3310547.2646484-.5957031.5947266-.5957031.3310547,0,.5957031.2646484.5957031.5957031Z"/>
            <path class="cls-2" d="M99.695343,25.4387597c-.3896484,0-.4697266.0048828-.6455078.0253906.0302734-.2851562.0654297-.4609375.1298828-.640625.1357422-.3652344.3603516-.6855469.6865234-.9814453.1748047-.1542969.3251953-.2695312.8251953-.6054688.4609375-.3154297.6005859-.4804688.6005859-.7353516,0-.3408203-.265625-.5507812-.6904297-.5507812-.2900391,0-.5107422.1005859-.6357422.2958984-.0849609.1191406-.1201172.2294922-.1552734.4599609l-.7158203-.0849609c.0703125-.3808594.1601562-.5859375.3457031-.8007812.25-.2900391.6455078-.4453125,1.1464844-.4453125.875,0,1.4160156.4199219,1.4160156,1.1054688,0,.3310547-.1103516.5712891-.3554688.8007812-.140625.1308594-.1904297.1708984-.8408203.6162109-.2197266.1552734-.4707031.3652344-.5957031.5-.1503906.1601562-.2099609.2607422-.2851562.4501953h1.4013672c.3154297,0,.5654297-.0146484.7304688-.0390625v.6601562c-.2353516-.0195312-.4355469-.0302734-.7558594-.0302734h-1.6064453Z"/>
            <path class="cls-2" d="M103.6592102,23.0862206c0-.109375-.0048828-.1845703-.0146484-.2900391.1054688.0107422.2148438.015625.3505859.015625h1.0908203v-.6513672h-1.0458984c-.2607422.40625-.5058594.6962891-.8261719.9863281-.1445312-.2148438-.2001953-.2802734-.3701172-.4453125.5107422-.4355469.7705078-.765625.9755859-1.2558594.0703125-.1601562.1054688-.265625.1201172-.3662109l.5957031.1201172c-.0302734.0605469-.0400391.0751953-.0751953.1503906-.0048828.015625-.0546875.1201172-.1445312.3154297h2.3417969c.2353516,0,.3603516-.0048828.5107422-.0253906v.5458984c-.1552734-.0195312-.2851562-.0253906-.5107422-.0253906h-1.0205078v.6513672h.8056641c.2304688,0,.3652344-.0048828.515625-.0253906v.5302734c-.1503906-.0146484-.2851562-.0195312-.5009766-.0195312h-.8203125v.8105469h1.1611328c.2304688,0,.390625-.0097656.5449219-.0302734v.5712891c-.1542969-.0205078-.3300781-.0302734-.5449219-.0302734h-1.1611328v.625c0,.2558594.0048828.390625.0302734.5361328h-.6113281c.0205078-.1455078.0302734-.2802734.0302734-.5458984v-.6152344h-1.6816406c-.2197266,0-.3798828.0097656-.5458984.0302734v-.5712891c.1601562.0205078.3203125.0302734.5458984.0302734h.2548828v-1.0214844ZM105.085968,24.107705v-.8105469h-.9013672v.8105469h.9013672Z"/>
            <path class="cls-2" d="M107.8935852,25.4241112c.3603516-.2900391.4609375-.4101562.6210938-.7255859l.4746094.2148438c-.2294922.4453125-.3398438.5957031-.6552734.8857422l-.4404297-.375ZM109.429718,24.3381737c0,.2646484-.1298828.3496094-.5302734.3496094-.0996094,0-.1855469-.0048828-.4404297-.0244141-.0244141-.1855469-.0400391-.2402344-.1201172-.4150391.1650391.0292969.390625.0498047.515625.0498047.0703125,0,.0898438-.0205078.0898438-.0908203v-.1845703q-.5605469.0400391-.625.0449219c-.1152344.0097656-.1601562.0097656-.3154297.0302734l-.0751953-.4560547c.0849609.0107422.1552734.015625.25.015625.0957031,0,.5859375-.0107422.765625-.0205078-.0048828-.0751953-.0097656-.1152344-.0195312-.1748047h.0898438c.125-.0449219.2148438-.0898438.2900391-.140625h-.9306641c-.1152344,0-.2050781.0048828-.2949219.0205078v-.390625c.109375.0097656.1601562.015625.3144531.015625h1.2519531c.1796875,0,.2050781,0,.2802734-.0107422l.2148438.2099609c-.2304688.1601562-.4101562.2558594-.7109375.3857422v.0556641c.265625-.0205078.3955078-.0351562.7666016-.0859375v.3652344c-.3662109.0507812-.4863281.0605469-.7666016.0859375v.3652344ZM108.9199524,21.40458c0-.0996094-.0048828-.1601562-.0253906-.2646484h.5605469c-.0146484.0849609-.0205078.1552734-.0205078.2597656v.0703125h.390625c.1806641,0,.3300781-.0097656.4658203-.0244141v.4248047c-.1201172-.0097656-.2099609-.0146484-.4208984-.0146484h-1.4560547c-.1953125,0-.3251953.0048828-.4599609.0195312v-.4296875c.1445312.0146484.2851562.0244141.4804688.0244141h.4853516v-.0654297ZM108.2041321,22.2463769c0-.0908203-.0048828-.1660156-.015625-.2402344.0703125.0097656.1455078.0146484.2910156.0146484h1.3613281c.0947266,0,.1748047-.0048828.2597656-.0097656-.0097656.1142578-.0097656.1298828-.0097656.2246094v.3505859c0,.0751953.0048828.1748047.0097656.2353516-.0800781-.0048828-.1552734-.0097656-.25-.0097656h-1.3515625c-.0996094,0-.2246094.0048828-.3105469.0097656.0107422-.0849609.015625-.1455078.015625-.2402344v-.3349609ZM108.6943664,22.5061425h.90625v-.1796875h-.90625v.1796875ZM109.3750305,25.7287987v-.1796875c0-.2099609-.0253906-.4804688-.0703125-.7607422l.5058594-.0498047c.0800781.3496094.1044922.5800781.1152344.9453125l-.5507812.0449219ZM110.4365539,22.600869c.1542969.1455078.2148438.2001953.3144531.2958984.0302734-.1503906.0400391-.25.0556641-.5205078h-.1757812c-.125,0-.2197266.0048828-.3251953.0244141v-.5400391c.1005859.0146484.1806641.0195312.3300781.0195312h.1855469v-.1552734c.0048828-.0742188.0048828-.125.0048828-.1542969,0-.1757812-.0097656-.3007812-.0302734-.4111328h.5507812c-.0195312.1103516-.0244141.1757812-.0292969.3662109,0,.1298828,0,.1845703-.0058594.3544922h.2958984c.1748047,0,.2949219-.0048828.4199219-.0244141-.0097656.0996094-.0195312.2998047-.0195312.4755859,0,.1601562.0302734.7050781.0546875.9853516.0205078.2705078.0947266.6054688.1298828.6054688.0400391,0,.0751953-.3251953.0800781-.7402344.1503906.1152344.2255859.1650391.3505859.2197266-.0449219.5458984-.0849609.7714844-.1650391.9267578-.0703125.1347656-.1699219.2050781-.2802734.2050781-.1601562,0-.3056641-.140625-.4208984-.4003906-.1494141-.3408203-.2148438-.8564453-.2246094-1.7568359h-.2451172c-.0253906.3798828-.0654297.625-.1552734.9257812.1748047.1953125.25.2851562.4550781.5458984l-.3398438.4453125c-.1601562-.2402344-.2109375-.3105469-.3300781-.4658203-.2011719.3798828-.3955078.6103516-.7412109.8759766-.1103516-.1650391-.1953125-.2558594-.3554688-.3857422.3857422-.25.5751953-.4755859.7558594-.890625-.1503906-.1699219-.2304688-.2451172-.4550781-.4404297l.3154297-.3857422ZM110.5664367,25.7287987c-.0751953-.4453125-.1103516-.5605469-.2402344-.9003906l.5-.125c.140625.3398438.2099609.5449219.2851562.8857422l-.5449219.1396484ZM111.9678039,25.7541894c-.1904297-.375-.3300781-.5800781-.6259766-.9453125l.4208984-.2509766c.3798828.4208984.5.5810547.6855469.8759766l-.4804688.3203125Z"/>
            <path class="cls-2" d="M117.4502258,22.8870019q-.0292969.0742188-.109375.2646484c-.2207031.5410156-.4208984.90625-.6757812,1.2509766.0947266.1757812.1953125.3154297.2998047.4306641.0849609.0898438.1953125.1806641.2255859.1806641.0195312,0,.0400391-.0302734.0644531-.0957031q.0351562-.1152344.0957031-.5849609c.1699219.1699219.2353516.2197266.4501953.3349609-.1152344.6757812-.2900391.9707031-.5654297.9707031-.2548828,0-.6503906-.3349609-.9414062-.8056641-.375.3701172-.765625.6552734-1.2109375.8759766-.1552734-.2304688-.2099609-.2900391-.3798828-.4355469.5253906-.2148438.9658203-.515625,1.3457031-.9208984-.2099609-.515625-.3203125-1.1162109-.375-1.9970703h-1.5517578q-.0048828.4804688-.0097656.6611328h.9208984c.1748047,0,.25-.0048828.3554688-.0205078-.0097656.0898438-.0205078.2304688-.0302734.4257812-.0498047.9003906-.0800781,1.1660156-.1650391,1.3759766-.0800781.2001953-.2607422.2753906-.6455078.2753906-.140625,0-.2207031-.0048828-.3808594-.0146484-.0244141-.2158203-.0546875-.3359375-.1298828-.53125.265625.0351562.3408203.0410156.4853516.0410156.1552734,0,.2001953-.0302734.2255859-.1552734.0400391-.1757812.0654297-.5009766.0751953-.90625h-.7304688c-.0351562.5703125-.0800781.9160156-.1552734,1.2558594-.0908203.4003906-.1904297.6259766-.4111328.9765625-.1542969-.2001953-.2548828-.2958984-.4355469-.4257812.1757812-.2705078.28125-.5048828.3457031-.7910156.1005859-.4199219.1503906-1.0859375.1503906-1.9765625,0-.3857422-.0048828-.5107422-.0302734-.7109375.1806641.015625.3857422.0253906.6455078.0253906h1.4511719c-.0048828-.0400391-.0048828-.1699219-.0146484-.390625-.0048828-.1845703-.0048828-.2050781-.0244141-.3154297h.5947266c-.0146484.1054688-.0244141.3105469-.0244141.4755859v.2304688h.6601562c-.1396484-.1855469-.2353516-.2900391-.4404297-.4609375l.3857422-.2451172c.2304688.1953125.3154297.2802734.5058594.5253906l-.2607422.1806641h.1503906c.2646484,0,.4003906-.0048828.5302734-.0302734v.5507812c-.1650391-.015625-.3554688-.0253906-.6103516-.0253906h-.9013672c.0449219.65625.1152344,1.1162109.2304688,1.4970703.25-.4052734.4199219-.8212891.4804688-1.171875l.5351562.2060547Z"/>
            <path class="cls-2" d="M117.9971008,25.7942284c.3554688-.4453125.4951172-.6650391.6347656-.9960938.1806641-.4150391.265625-.8603516.265625-1.3710938,0-.5009766-.0800781-.9160156-.2548828-1.3261719-.1455078-.3300781-.2900391-.5556641-.640625-.9960938h.7050781c.2802734.3955078.4003906.6152344.5458984.9863281.1748047.4550781.2548828.8603516.2548828,1.3359375,0,.4853516-.0849609.9208984-.2597656,1.3818359-.1455078.3652344-.265625.5849609-.5458984.9853516h-.7050781Z"/>
          </g>
        </g>
        <g>
          <path class="cls-4" d="M14.3877258,12.1599511c0-.5800781.0302734-1.2402344.0703125-1.8291016-.4892578,1.4892578-.75,1.8388672-.7695312,1.8388672-.0097656,0-.0205078-.0097656-.0400391-.0205078-.25-.2998047-1.0195312-.859375-1.0195312-.859375.6494141-.6494141,1.1992188-1.8486328,1.4892578-2.6289062h-1.0390625v-1.2988281h1.3193359v-.7998047c-.2998047.0605469-.7998047.1503906-.7998047.1503906-.0205078,0-.0302734-.0097656-.0400391-.0400391-.1298828-.2802734-.7792969-1.1298828-.7792969-1.1298828.3691406-.0097656,2.46875-.2792969,3.1582031-.6494141,0,0,.7392578.8095703.9287109,1.0400391.0302734.0390625.0507812.0693359.0507812.0996094,0,.0400391-.0400391.0595703-.0898438.0595703-.0605469,0-.1503906-.0292969-.25-.0800781-.25.0800781-.5400391.1601562-.8203125.2402344l-.0097656,1.109375h.8496094v1.2988281h-.6591797c.1494141.2900391.3691406.6904297.6191406,1.0800781.2197266-.5195312.2802734-1.2099609.2802734-1.8193359,0-.5292969-.0400391-.9892578-.0800781-1.2294922,0,0,.9990234.0302734,1.2988281.0605469.1503906.0195312.2304688.0693359.2304688.1201172,0,.0498047-.0898438.109375-.2802734.1494141,0,.2402344.0097656.5693359.0097656.9394531,0,.5595703-.0195312,1.2089844-.1494141,1.8095703-.0097656.0390625-.0400391.0498047-.0703125.0498047-.1894531-.0205078-.4599609-.0302734-1.1992188-.0302734.1699219.2695312.3701172.5292969.5595703.7597656,0,0-.7695312.359375-.9794922.5996094-.0097656.0097656-.0292969.0195312-.0400391.0195312-.0800781,0-.3193359-.7490234-.4892578-1.3984375.0498047.7490234.109375,1.8486328.109375,2.4482422v.9091797c2.6289062-1.5693359,2.6992188-3.9072266,2.6992188-6.1865234,0-.8994141-.0400391-1.8691406-.0400391-1.9990234,0,0,1.21875.0205078,1.5292969.0605469.1191406.0195312.1894531.0595703.1894531.0996094,0,.0498047-.0898438.1103516-.2792969.1601562-.0400391.7392578-.0302734,1.5185547-.0703125,2.2685547.0195312.3300781.0498047.6494141.0898438.9599609.3300781-.5302734.7197266-1.2792969,1.0498047-2.0791016,0,0,1.109375.4697266,1.3388672.6191406.0800781.0498047.1201172.1005859.1201172.140625,0,.0693359-.0996094.109375-.2695312.109375h-.0400391c-.7197266,1.2099609-1.3994141,2.1884766-1.4599609,2.1884766-.0195312,0-.0292969,0-.0498047-.0097656-.1201172-.0595703-.3398438-.1298828-.5595703-.1894531.3496094,1.5292969,1.109375,2.7578125,2.46875,3.7880859,0,0-.9892578.4892578-1.3095703.8496094-.0195312.0195312-.0292969.0292969-.0498047.0292969-.0195312,0-1.1796875-.9091797-1.8583984-3.2177734-.7597656,2.3681641-2.2294922,3.3183594-2.2392578,3.3183594-.0195312,0-.0302734-.0107422-.0498047-.0302734-.2304688-.2197266-.9101562-.5800781-1.2099609-.7294922v.8496094h-1.3691406v-1.96875Z"/>
          <path class="cls-4" d="M23.9053039,5.8025292h8.0361328v8.1455078h-1.4199219v-.6191406h-5.2070312v.6494141h-1.4091797V5.8025292ZM27.1133117,8.8015526v-1.6992188h-1.7988281v1.6992188h1.7988281ZM27.1133117,11.9997948v-1.9091797h-1.7988281v1.9091797h1.7988281ZM30.5117492,8.8015526v-1.6992188h-1.9589844v1.6992188h1.9589844ZM30.5215149,11.9997948l-.0097656-1.9091797h-1.9589844v1.9091797h1.96875Z"/>
          <path class="cls-4" d="M36.2676086,11.5300683c.0996094.0693359.859375.5097656,1.1494141.7597656.0800781.0693359.1201172.1298828.1201172.1699219,0,.0498047-.0605469.0791016-.140625.0791016-.0693359,0-.1494141-.0195312-.2197266-.0595703-.6396484.5693359-1.3486328,1.1992188-2.3388672,1.5693359-.0292969.0097656-.0595703.0195312-.0800781.0195312-.0195312,0-.0390625-.0097656-.0595703-.0400391-.2099609-.3398438-1.1396484-.9287109-1.1396484-.9287109,1.8994141-.4501953,2.5986328-1.4101562,2.7089844-1.5693359ZM34.2685852,6.6023339s-.0205078-.5097656-.0302734-.7998047c0,0,1.3193359.0400391,1.5390625.0800781.1103516.0205078.1699219.0605469.1699219.1103516,0,.0595703-.0898438.1298828-.2890625.1699219-.0107422.1396484-.0205078.4599609-.0205078.4599609v3.7773438h7.1259766v1.0898438h-3.7773438v2.71875h-1.3300781v-2.71875h-2.0185547v.4091797h-1.3691406v-5.296875ZM36.257843,5.1931542h5.40625v4.8876953h-1.3691406v-.140625h-2.7177734v.1806641h-1.3193359v-4.9277344ZM40.2949524,6.5622948v-.3994141h-2.7177734v.3994141h2.7177734ZM40.2949524,7.8122948v-.4306641h-2.7177734v.4306641h2.7177734ZM40.2949524,9.0710839v-.4394531h-2.7177734v.4394531h2.7177734ZM40.3056946,11.5300683c.1992188.1894531,1.3085938,1.0390625,2.7978516,1.3994141,0,0-.9697266.6191406-1.2294922,1.0185547-.0195312.0400391-.0400391.0507812-.0693359.0507812-.1201172,0-1.4091797-.5996094-2.5488281-1.7392578l1.0498047-.7294922Z"/>
          <path class="cls-4" d="M44.3564758,7.1921776h3.5380859v-.4501953c0-.7587891-.0205078-1.4882812-.0498047-1.7783203.2792969.0097656,1.3886719.0498047,1.5986328.0595703.2304688.0097656.3300781.0703125.3300781.1396484,0,.0703125-.1201172.1601562-.3300781.2001953,0,.2695312-.0400391,1.3095703-.0400391,1.7890625v.0400391h3.6181641v1.3789062h-3.4179688c.5400391,1.8896484,1.8691406,3.4785156,4.0078125,4.3476562,0,0-1.1894531.5898438-1.5888672.9599609-.0498047.0498047-.0800781.0595703-.1103516.0595703-.0595703,0-2.0185547-.9794922-3.1777344-3.6679688-1.1601562,2.8085938-3.21875,3.7880859-3.2587891,3.7880859-.0195312,0-.0400391-.0195312-.0800781-.0498047-.3798828-.3300781-1.6083984-.8798828-1.6083984-.8798828,2.5283203-1.0488281,3.5878906-2.8779297,3.9472656-4.5576172h-3.3779297v-1.3789062Z"/>
          <path class="cls-4" d="M55.0976867,8.2419823c-.2695312-.2802734-.9589844-.7001953-.9589844-.7001953,1.6083984-1.0488281,2.2480469-2.7382812,2.2480469-2.7382812,0,0,1.0595703.1796875,1.3095703.2597656.0996094.0302734.1699219.0800781.1699219.1298828,0,.0605469-.0898438.1103516-.2998047.1298828.1699219.2900391.5195312.7597656,1.1494141,1.2099609v-.7402344h1.5888672v-.2099609s-.0097656-.4492188-.0292969-.6796875c0,0,1.1289062.0400391,1.4990234.0898438.109375.0107422.1796875.0507812.1796875.1005859,0,.0595703-.0898438.1201172-.2802734.1601562-.0195312.0996094-.0195312.2294922-.0195312.3193359v.2197266h1.9091797v2.1386719l-.7001953-.0097656v2.4990234h-1.2392578v-.2900391h-1.3193359v.6191406h2.9082031v3.3789062h-1.2392578v-.5195312h-1.6689453v.5087891h-1.2294922v-.6591797l-.9892578.4892578c0-.0097656-.1298828-.4394531-.4199219-1.0390625-.4990234.2001953-1.4785156.5595703-2.6386719.8798828v.0595703c0,.1503906-.0390625.2304688-.0996094.2304688-.0498047,0-.0996094-.0400391-.1601562-.140625-.2099609-.359375-.5488281-1.2294922-.5488281-1.2294922.2998047-.0498047.5888672-.109375.8789062-.1699219v-4.296875ZM56.4267883,7.7214745v-.6191406c-.1591797.2099609-.3398438.4199219-.5292969.6191406h.5292969ZM57.4365539,9.0007714v-.4091797h-1.1591797v.4091797h1.1591797ZM57.4365539,10.3103417v-.4394531h-1.1591797v.4394531h1.1591797ZM56.2773742,12.2390526c.3193359-.0898438.609375-.1894531.8496094-.2695312-.0800781-.1201172-.1699219-.25-.2705078-.3798828l.5800781-.2294922v-.1103516h-1.1591797v.9892578ZM57.3965149,6.9421776c-.1601562-.2001953-.3095703-.3994141-.4394531-.5791016-.1103516.1699219-.2402344.3496094-.3798828.5390625.2001953.0097656.5693359.0205078.8193359.0400391ZM59.0752258,7.8913964h-.359375v-.6894531c-.2001953.1503906-.4101562.3203125-.5097656.4404297-.0195312.0195312-.0302734.0292969-.0400391.0292969-.0195312,0-.0302734-.0097656-.0595703-.0292969-.1699219-.140625-.3300781-.2900391-.4804688-.4501953-.0400391.0205078-.0996094.0498047-.1591797.0595703v.4697266h1.1386719v3.6982422h-.6396484c.5205078.6796875.9101562,1.3291016,1.109375,1.6894531v-5.2177734ZM62.2637024,7.4216698v-.4892578h-2.2587891v.4892578h2.2587891ZM61.6240539,9.0808495v-.6289062h-1.3193359v.6289062h1.3193359ZM61.9736633,12.5290917v-.7392578h-1.6689453v.7392578h1.6689453Z"/>
          <path class="cls-4" d="M64.945343,6.0027245h3.7275391v-.3701172s-.0097656-.4794922-.0400391-.7695312c1.5888672.0302734,1.8789062.1005859,1.8789062.2207031,0,.0693359-.1201172.1494141-.3398438.1992188-.0097656.1699219-.0292969.3701172-.0292969.5898438v.1298828h3.8173828l-.0097656,1.2792969h-9.0048828v-1.2792969ZM65.8144836,8.1814354h2.8681641v-.0595703s0-.3798828-.0292969-.7197266c0,0,1.359375.0498047,1.5888672.0800781.1201172.0097656.1894531.0595703.1894531.109375,0,.0605469-.0898438.1298828-.2890625.1699219-.0107422.140625-.0205078.3300781-.0205078.4199219h2.9882812v2.4589844c0,.2900391.0097656.8095703.0097656.9589844-.0097656,1.0898438-.8789062,1.3994141-1.8183594,1.3994141-.0898438,0-.1796875,0-.2705078-.0097656-.109375,0-.1191406-.0400391-.1191406-.0595703-.0507812-.3505859-.7294922-1.3398438-.7294922-1.3398438.3896484.0400391.71875.0800781.96875.0800781.3798828,0,.5898438-.0800781.5898438-.3701172v-1.9482422h-1.6191406v4.7470703h-1.4394531v-4.7470703h-1.4589844v3.6972656h-1.3994141l-.0097656-4.8671875Z"/>
        </g>
      </g>
    </g>
  </g>
</svg>