<?xml version="1.0" encoding="UTF-8"?>
<svg xmlns="http://www.w3.org/2000/svg" viewBox="0 0 162.63 35.57">
  <defs>
    <style>
      .cls-1 {
        isolation: isolate;
      }

      .cls-2 {
        fill: #231815;
      }

      .cls-3 {
        fill: #22ac38;
        mix-blend-mode: multiply;
      }

      .cls-4 {
        fill: #fff;
      }

      .cls-5 {
        fill: #8fc31f;
      }
    </style>
  </defs>
  <g class="cls-1">
    <g id="_レイヤー_2" data-name="レイヤー 2">
      <g id="_レイヤー_1-2" data-name="レイヤー 1">
        <g>
          <g>
            <rect class="cls-5" width="162.63" height="17.49"/>
            <rect class="cls-3" width="8.29" height="17.49"/>
          </g>
          <g>
            <path class="cls-4" d="M79.43,14.26c-.77-1.11-1.26-2.88-1.26-4.56s.49-3.45,1.26-4.56h.69c-.91,1.26-1.36,2.96-1.36,4.56s.46,3.31,1.37,4.56h-.7Z"/>
            <path class="cls-4" d="M81.43,11.96c0-.52.02-1.18.04-1.8-.03.12-.28,1.23-.37,1.23-.01,0-.03,0-.04-.04-.14-.27-.67-.78-.67-.78.46-.68.81-1.94.97-2.67h-.7v-1.27h.77v-1.07s0-.47-.02-.66c0,0,.73.02,1.02.08.08.02.12.06.12.11,0,.07-.07.15-.18.18-.01.16-.01.43-.01.43v.95h.46v.87c.32-.84.45-1.75.5-2.19,0,0,.67.14.86.21.06.02.1.06.1.11s-.05.11-.16.13c-.02.11-.05.31-.09.56h.28v-.34s0-.68-.02-1.04c0,0,.76.02.98.05.09.02.14.06.14.12s-.06.13-.19.18c-.01.26-.01.7-.01.7v.34h1.34v1.15h-1.34v.88h1.63v1.19l-1.42-.03c.36.92,1.02,2.07,1.67,2.62,0,0-.63.49-.84.76-.03.04-.04.05-.05.05-.04,0-.55-.63-1.02-1.94.02.5.03,1.03.03,1.4v1.47h-.92v-1.42c0-.39.01-.91.03-1.39-.61,1.5-1.18,2.04-1.21,2.04-.01,0-.03-.02-.05-.04-.16-.18-.48-.43-.7-.58v1.43h-.93v-1.92ZM82.36,12.16c.68-.59,1.34-1.78,1.68-2.67l-1.06.03.14.29s-.42.21-.59.39c-.02.02-.04.04-.05.04-.03,0-.05-.1-.18-.81.03.83.07,1.96.07,2.51v.22ZM82.88,8.33h1.42v-.88h-.53c-.17.6-.25.77-.29.77,0,0-.02,0-.03,0-.23-.12-.85-.21-.85-.21.02-.04.03-.07.05-.11h-.27c.09.34.28.89.5,1.39v-.96Z"/>
            <path class="cls-4" d="M87.32,14.26c.91-1.26,1.38-2.97,1.38-4.56s-.46-3.3-1.37-4.56h.69c.77,1.11,1.26,2.87,1.26,4.56s-.49,3.45-1.26,4.56h-.7Z"/>
            <path class="cls-4" d="M99.08,11.31s.03.05.03.07c0,.13-2.1,2.26-4.47,2.26-1.82,0-2.54-1.21-2.54-2.8,0-1.43.17-2.96.17-4.51,0-.31,0-.63-.02-.95.48.02,1.51.12,1.8.17.14.03.2.08.2.14,0,.08-.14.18-.37.21-.09,1.69-.32,3.52-.32,4.82,0,.47,0,1.39,1.13,1.39,1.26,0,2.89-1.21,3.83-2.59,0,0,.28,1.35.55,1.79Z"/>
            <path class="cls-4" d="M103.03,7.26c-.1.69-.21,1.15-.36,1.88,1.01-.57,1.93-.8,2.79-.8,1.75,0,2.58.96,2.58,2.04s-.77,2.17-2.23,2.66c-.89.3-1.92.42-2.96.42-.13,0-.25,0-.38,0-.06,0-.07-.02-.09-.07-.12-.45-.73-1.27-.87-1.44.51.04.96.05,1.38.05,1,0,1.74-.1,2.26-.27.87-.29,1.29-.82,1.29-1.28,0-.42-.38-.77-1.13-.77-.46,0-2.16.24-2.8,1.58-.13,0-1.26.03-1.33.03-.03,0-.04,0-.04-.04,0-1.12.17-2.16.29-3.01.08-.52.14-.91.15-1.18,0-.05.03-.06.07-.06h.03l1.35.27ZM102.1,5.33c.27,0,.55,0,.81,0,1,0,1.98.06,2.96.26l-.41,1.45s0,.05-.04.05c0,0,0,0-.03,0-.82-.29-1.7-.41-2.82-.41-.34,0-.7,0-1.09.03l.62-1.37Z"/>
            <path class="cls-4" d="M109.12,13.27c.91-1.66,1.63-3.09,2.16-4.4-.59.14-.93.21-1.55.22-.03-.09-.39-1.4-.39-1.44,0-.02.02-.04.06-.04.02,0,.04,0,.07,0,.12.02.25.03.41.03.51,0,1.21-.09,1.9-.2.2-.61.38-1.38.48-2.27,0,0,1.38.25,1.63.32.12.03.17.08.17.13,0,.07-.12.14-.31.15-.1.33-.24.93-.39,1.45.09,0,.17,0,.25,0,1.32,0,1.57,1,1.57,2.26,0,.75-.12,1.6-.34,2.27-.39,1.17-1.27,1.56-2.02,1.56-.19,0-1-.1-1-.34,0-.33-.1-.95-.17-1.37-.26.59-.56,1.23-.88,1.92l-1.65-.26ZM112.67,11.81c.32,0,.63-.18.79-.61.17-.49.27-1.23.27-1.79,0-.44,0-.84-.44-.84-.03,0-.07,0-.1,0-.1,0-.21.03-.3.04-.34.92-.71,1.8-1.14,2.77.24.25.58.43.92.43ZM116.38,7.27c1.29.94,2.05,2.06,2.1,3.22l-1.38.68s-.04,0-.05,0-.02,0-.03-.05c-.07-1.04-.45-2.17-1.86-3.19-.06-.05-.1-.07-.1-.1s.04-.05.13-.09l1.2-.49Z"/>
            <path class="cls-4" d="M121.5,5.89s-.02-.08-.02-.1c0-.03,0-.04.04-.04.02,0,.04,0,.07,0,.29.06.58.09.88.09.63,0,1.27-.12,1.9-.27.12-.03.16-.14.24-.14.02,0,.05,0,.08.02.13.08.86.48,1.01.61.05.04.06.07.06.1,0,.07-.11.11-.19.15-.58.77-1.07,1.63-1.51,2.46.58.06,1.15.17,1.73.33.08-.44.11-.92.12-1.42,0-.15,0-.16.06-.16.18,0,1.14.24,1.46.33.14.04.19.09.19.14,0,.09-.16.18-.25.2-.06.5-.13.96-.23,1.4.63.29,1.21.64,1.69,1.05l-.94,1.19s-.03.03-.05.03c0,0-.03,0-.05-.03-.35-.34-.74-.61-1.12-.84-1.02,2.22-2.96,2.51-2.99,2.51-.04,0-.06,0-.1-.06-.3-.42-1.33-1.15-1.33-1.15,1.62-.11,2.6-.8,3.14-1.88-.78-.26-1.48-.36-1.96-.39-.52,1.04-1.32,2.57-2.6,2.57-.72,0-1.27-.58-1.27-1.33,0-1.45,1.45-2.41,2.98-2.54.28-.54.65-1.22.95-1.75-.37.07-.82.2-1.27.2-.11,0-.21,0-.32-.03l-.38-1.27ZM120.78,10.99c0,.12.05.17.14.17.16,0,.45-.13,1-1.1-.32.09-1.14.41-1.14.94Z"/>
            <path class="cls-4" d="M130.61,5.82l6.16-.03c.09,0,.15-.08.23-.08.08,0,1.15.7,1.15.85,0,.07-.08.13-.23.18-1.41,5.76-5.47,6.8-5.49,6.8-.04,0-.07-.02-.1-.06-.35-.48-1.57-1.19-1.57-1.19,3.1-.68,4.75-2.98,5.29-5l-5.46.03v-1.49Z"/>
            <path class="cls-4" d="M139.64,8.59h7.64v1.52h-7.64v-1.52Z"/>
            <path class="cls-4" d="M149.23,6.14l4.88-.03c.08,0,.13-.1.21-.1.07,0,1.04.71,1.04.91,0,.05-.05.1-.18.14-.36.75-.85,1.67-1.49,2.57,1.01.76,2.22,1.79,3.06,2.81l-1.38,1.04s-.03,0-.04,0c0,0-.02,0-.04-.03-.68-.97-1.61-1.91-2.51-2.68-1.77,2.01-3.54,2.62-3.59,2.62-.03,0-.06,0-.09-.05-.32-.42-1.4-1.05-1.4-1.05,3.2-1.05,4.76-3.22,5.56-4.78l-4.05.08v-1.46ZM155.06,4.85c.26.23.79.79.95,1.19l-.86.34c-.13-.38-.58-.97-.89-1.25l.8-.28ZM156.32,4.55c.23.18.79.76.94,1.1l-.84.36c-.14-.34-.58-.91-.89-1.17l.79-.29Z"/>
          </g>
          <g>
            <path class="cls-2" d="M11.96,35.03c-.58-.71-1.39-1.5-2.15-2.08-.79.88-1.6,1.5-2.67,2.02-.2-.36-.28-.48-.57-.78.54-.21.88-.4,1.4-.77,1.06-.74,1.9-1.76,2.35-2.85l.08-.18q-.11,0-2.32.04c-.34,0-.53.02-.76.06l-.03-.9c.2.04.33.04.62.04h.17l2.46-.04c.39,0,.45-.01.62-.08l.46.48c-.09.11-.15.2-.22.38-.32.75-.67,1.36-1.09,1.93.44.29.82.59,1.3,1.02q.18.15,1.02.97l-.67.73Z"/>
            <path class="cls-2" d="M18.92,31.41c-.07.13-.11.22-.2.44-.36,1.03-.9,1.81-1.62,2.37-.5.38-.95.62-1.83.95-.15-.35-.24-.47-.55-.81.85-.22,1.41-.48,1.95-.92.52-.43.82-.86,1.13-1.64h-3.41c-.47,0-.64,0-.9.04v-.85c.27.04.42.05.91.05h3.33c.43,0,.57-.01.79-.06l.4.45ZM14.09,29.29c.23.04.38.05.82.05h2.45c.44,0,.59,0,.82-.05v.86c-.22-.03-.35-.04-.8-.04h-2.47c-.46,0-.59,0-.8.04v-.86Z"/>
            <path class="cls-2" d="M25.9,29.67c-.12.11-.15.13-.26.25-.53.55-1.05,1-1.65,1.44v2.99c0,.38,0,.59.04.78h-.98c.04-.2.04-.34.04-.76v-2.47c-.82.49-1.21.67-2.5,1.13-.15-.36-.22-.48-.47-.8,1.39-.38,2.56-.96,3.68-1.82.62-.48,1.1-.97,1.3-1.31l.81.56Z"/>
            <path class="cls-2" d="M32.4,35.03c-.58-.71-1.39-1.5-2.15-2.08-.79.88-1.6,1.5-2.67,2.02-.2-.36-.28-.48-.57-.78.54-.21.88-.4,1.4-.77,1.06-.74,1.9-1.76,2.35-2.85l.08-.18q-.11,0-2.32.04c-.34,0-.53.02-.76.06l-.03-.9c.2.04.33.04.62.04h.17l2.46-.04c.39,0,.45-.01.62-.08l.46.48c-.09.11-.15.2-.22.38-.32.75-.67,1.36-1.09,1.93.44.29.82.59,1.3,1.02q.18.15,1.02.97l-.67.73Z"/>
            <path class="cls-2" d="M40.21,28.84l-5.31,6.58h-1.03l5.3-6.58h1.04Z"/>
            <path class="cls-2" d="M42.16,34.45c-.48,0-.65,0-.86.03v-.9c.26.04.39.05.88.05h3.19v-3.05h-3.07c-.5,0-.64,0-.9.04v-.91c.26.04.39.05.9.05h3.37q.36,0,.61-.01c-.02.19-.02.26-.02.58v3.84c0,.35,0,.55.04.72h-.94v-.43h-3.2Z"/>
            <path class="cls-2" d="M49.13,34.39v.49h-.9c.02-.17.03-.34.03-.6v-4.01c0-.27,0-.4-.03-.59.17.01.31.02.6.02h3.98c.3,0,.43,0,.59-.02-.01.18-.02.32-.02.58v4.01c0,.26,0,.45.03.61h-.9v-.48h-3.36ZM52.49,30.49h-3.36v3.1h3.36v-3.1Z"/>
            <path class="cls-2" d="M55.99,34.45c-.48,0-.65,0-.86.03v-.9c.26.04.39.05.88.05h3.19v-3.05h-3.07c-.5,0-.64,0-.9.04v-.91c.26.04.39.05.9.05h3.37q.36,0,.61-.01c-.02.19-.02.26-.02.58v3.84c0,.35,0,.55.04.72h-.94v-.43h-3.2Z"/>
            <path class="cls-2" d="M62.96,34.39v.49h-.9c.02-.17.03-.34.03-.6v-4.01c0-.27,0-.4-.03-.59.17.01.31.02.6.02h3.98c.3,0,.43,0,.59-.02-.01.18-.02.32-.02.58v4.01c0,.26,0,.45.03.61h-.9v-.48h-3.36ZM66.32,30.49h-3.36v3.1h3.36v-3.1Z"/>
            <path class="cls-2" d="M74.78,28.84l-5.31,6.58h-1.03l5.3-6.58h1.04Z"/>
            <path class="cls-2" d="M77.05,31.45c1.06-.2,2.61-.82,3.06-1.25l.56.79c-.08.03-.09.04-.15.06l-.18.09c-1.04.53-2.12.9-3.29,1.11v.92s0,.08,0,.11c0,.39.03.55.13.64.12.12.52.18,1.2.18.47,0,1.11-.04,1.62-.11.34-.04.49-.08.8-.17l.04.93c-.15,0-.18,0-.92.08-.41.04-1.29.08-1.72.08-.88,0-1.37-.09-1.64-.3-.2-.15-.3-.37-.34-.71-.01-.12-.02-.24-.02-.64v-3.25c0-.36,0-.47-.04-.64h.94c-.03.17-.04.29-.04.65v1.42ZM81.89,29.6c0,.45-.36.81-.81.81s-.81-.36-.81-.81.37-.81.81-.81.81.36.81.81ZM80.62,29.6c0,.25.2.46.46.46s.46-.21.46-.46-.2-.46-.46-.46-.46.2-.46.46Z"/>
            <path class="cls-2" d="M82.28,31.62c.31.04.44.05,1.13.05h3.73c.69,0,.83,0,1.13-.05v.97c-.28-.04-.36-.04-1.14-.04h-3.72c-.78,0-.86,0-1.14.04v-.97Z"/>
            <path class="cls-2" d="M94.2,35.03c-.58-.71-1.39-1.5-2.15-2.08-.79.88-1.6,1.5-2.67,2.02-.2-.36-.28-.48-.57-.78.54-.21.88-.4,1.4-.77,1.06-.74,1.9-1.76,2.35-2.85l.08-.18q-.11,0-2.32.04c-.34,0-.53.02-.76.06l-.03-.9c.2.04.33.04.62.04h.17l2.46-.04c.39,0,.45-.01.62-.08l.46.48c-.09.11-.15.2-.22.38-.32.75-.66,1.36-1.09,1.93.44.29.82.59,1.29,1.02q.18.15,1.02.97l-.67.73Z"/>
            <path class="cls-2" d="M102.01,28.84l-5.31,6.58h-1.03l5.3-6.58h1.04Z"/>
            <path class="cls-2" d="M108.17,30.94c.26,0,.42,0,.65-.03-.02.2-.03.35-.03.58v.45c0,.23,0,.37.03.54h-.76v-.95h-4.61v.95h-.76c.02-.18.03-.31.03-.54v-.45c0-.22,0-.38-.03-.58.23.02.39.03.65.03h.22v-1.29c0-.25,0-.41-.04-.59.23.02.41.03.74.03h3c.33,0,.5,0,.73-.03-.02.17-.03.32-.03.59v1.29h.2ZM104.44,34.48c0,.34.01.71.04.88h-.83c.03-.22.04-.45.04-.88v-1.86c0-.39,0-.57-.03-.77.23.02.43.03.76.03h2.72c.35,0,.53,0,.73-.03-.02.23-.03.43-.03.8v1.92c0,.63-.19.75-1.25.75-.04,0-.15,0-.33,0-.01-.27-.04-.41-.16-.69.19.02.49.04.64.04.31,0,.34-.02.34-.2v-.2h-2.65v.22ZM105.2,30.49c0-.22,0-.34-.02-.51.17.01.31.02.59.02h1.46v-.3h-2.91v1.25h.88v-.46ZM107.09,32.79v-.33h-2.65v.33h2.65ZM107.09,33.69v-.34h-2.65v.34h2.65ZM107.24,30.94v-.4h-1.34v.4h1.34Z"/>
            <path class="cls-2" d="M115.73,28.84l-5.31,6.58h-1.03l5.3-6.58h1.04Z"/>
            <path class="cls-2" d="M119.63,30.39c.09-.2.13-.31.2-.53h-2.04v.57c0,1.65-.12,2.93-.35,3.7-.15.5-.32.88-.53,1.21-.2-.3-.28-.4-.55-.68.52-.91.68-1.91.68-4.26,0-.7,0-.99-.04-1.26.27.03.53.04.9.04h3.98c.41,0,.68-.01.85-.04v.76c-.2-.03-.42-.04-.81-.04h-1.3c-.07.2-.12.34-.2.53h1.18c.34,0,.53,0,.71-.03-.02.19-.03.38-.03.68v1.38c0,.31,0,.49.03.68-.22-.02-.44-.03-.7-.03h-.98v1.54c0,.56-.2.69-1.06.69-.19,0-.33,0-.63-.01-.03-.36-.05-.46-.17-.75.39.06.59.07.83.07.22,0,.27-.02.27-.13v-1.41h-.95c-.25,0-.48,0-.7.03.01-.2.02-.4.02-.7v-1.34c0-.32,0-.48-.02-.7.19.02.41.03.7.03h.72ZM119.28,33.51c-.38.79-.72,1.25-1.22,1.7-.2-.22-.34-.34-.57-.52.54-.46.89-.93,1.11-1.47l.68.29ZM118.94,31.41h2.59v-.41h-2.59v.41ZM118.94,32.44h2.59v-.43h-2.59v.43ZM121.63,33.22c.34.56.77,1.02,1.28,1.37-.2.17-.38.37-.54.6-.57-.48-.81-.76-1.36-1.64l.62-.33Z"/>
            <path class="cls-2" d="M127.57,30.98c.6,1.16,1.46,2.02,2.72,2.71-.27.29-.33.37-.54.74-.63-.44-1.01-.76-1.35-1.11-.47-.49-.78-.94-1.13-1.59.03.32.05.57.05.79v1.96c0,.34.01.62.05.87h-.91c.03-.27.05-.53.05-.88v-1.95c0-.17.01-.49.04-.76-.53,1.08-1.28,1.92-2.4,2.7-.17-.32-.31-.51-.52-.71,1.16-.67,2.14-1.69,2.63-2.77h-1.54c-.31,0-.57.01-.84.05v-.83c.27.04.5.05.84.05h1.79v-.66c0-.27-.02-.46-.05-.65h.91c-.04.2-.05.38-.05.64v.67h1.88c.36,0,.62-.01.85-.05v.83c-.26-.04-.55-.05-.85-.05h-1.63Z"/>
            <path class="cls-2" d="M132.4,34.98c-.28-.4-.41-.62-.55-.99-.18-.46-.26-.9-.26-1.38s.08-.89.25-1.34c.15-.37.27-.59.55-.99h.7c-.35.44-.5.67-.64,1-.17.41-.26.84-.26,1.33s.09.96.27,1.37c.14.33.28.55.63,1h-.7Z"/>
            <path class="cls-2" d="M136.89,31.17c-.16.16-.3.36-.52.72-.53.89-.79,1.65-.93,2.71h-.79c.16-.84.31-1.32.61-1.94.23-.5.44-.84.88-1.46h-1.54c-.3,0-.45,0-.66.04v-.66c.23.03.39.04.69.04h1.59c.38,0,.51,0,.69-.03v.58Z"/>
            <path class="cls-2" d="M137.19,34.59v-.73h.73v.73h-.73Z"/>
            <path class="cls-2" d="M139.37,33.51c.07.23.11.31.24.41.16.13.37.2.61.2.49,0,.81-.26.81-.65,0-.23-.1-.42-.28-.53-.12-.07-.36-.12-.57-.12s-.37,0-.54.03v-.62c.16.02.27.03.48.03.5,0,.8-.23.8-.62,0-.35-.24-.54-.66-.54-.24,0-.43.05-.54.16-.1.09-.15.18-.21.39l-.71-.12c.12-.37.24-.54.47-.71.26-.19.58-.28.98-.28.84,0,1.38.42,1.38,1.07,0,.3-.13.58-.35.74-.11.08-.22.12-.48.2.36.05.54.14.71.33.17.19.24.4.24.69,0,.27-.12.55-.3.73-.28.26-.7.41-1.23.41-.59,0-.99-.15-1.27-.48-.12-.14-.19-.27-.28-.56l.71-.14Z"/>
            <path class="cls-2" d="M143.22,30.61c-.03.19-.04.37-.04.66v1.65l.75-.75c.23-.22.31-.32.39-.45h.94q-.29.25-.5.46l-.71.68.85,1.16q.34.47.46.58h-.89c-.06-.16-.12-.26-.33-.57l-.54-.79-.41.39v.33c0,.33,0,.45.04.64h-.71c.03-.21.04-.38.04-.65v-2.68c0-.3,0-.46-.04-.66h.71Z"/>
            <path class="cls-2" d="M146.22,34.71c.2.27.41.38.78.38.38,0,.68-.14.82-.38.09-.15.12-.33.13-.67-.25.32-.55.46-.98.46-.79,0-1.3-.54-1.3-1.4s.53-1.43,1.34-1.43c.45,0,.74.13.96.44,0-.1,0-.11,0-.17v-.23h.67c-.03.21-.04.36-.04.62v1.68c0,.6-.13.99-.42,1.23-.25.21-.66.32-1.18.32-.59,0-.92-.13-1.26-.52l.5-.35ZM146.54,33.81c.12.13.34.23.53.23.28,0,.55-.16.7-.4.1-.16.14-.34.14-.57,0-.32-.1-.57-.3-.74-.14-.12-.3-.18-.49-.18-.5,0-.81.38-.81.97,0,.29.08.54.23.69Z"/>
            <path class="cls-2" d="M149.3,32.64c.19-.23.28-.31.5-.45.3-.19.53-.26.82-.26.23,0,.43.04.64.15q.13.06.46.28c.38.25.64.35.88.35.11,0,.25-.04.37-.09.21-.11.35-.22.52-.46l.4.4c-.21.26-.31.37-.47.49-.26.19-.54.29-.87.29-.15,0-.3-.03-.44-.07-.2-.06-.29-.12-.69-.37-.44-.28-.6-.34-.86-.34-.32,0-.55.12-.87.46l-.39-.37Z"/>
            <path class="cls-2" d="M154.34,34.98c.36-.45.49-.67.63-1,.18-.42.27-.86.27-1.37s-.08-.92-.26-1.33c-.14-.33-.29-.56-.64-1h.71c.28.4.4.62.55.99.17.46.25.86.25,1.34s-.08.92-.26,1.38c-.14.37-.27.59-.54.99h-.71Z"/>
          </g>
          <g>
            <g>
              <path class="cls-2" d="M43.34,26.75v-6.7h2.12c-.43.59-.59.88-.76,1.36-.2.59-.3,1.23-.3,1.99s.1,1.4.3,1.99c.17.49.33.78.76,1.37h-2.12Z"/>
              <path class="cls-2" d="M48.56,21.09c.19-.34.34-.69.41-.96l.89.12s-.01.03-.05.11c0,0-.01.03-.03.06,0,.01-.01.04-.02.06-.14.29-.18.39-.32.61h1.79c.34,0,.55,0,.81-.04-.02.25-.04.5-.04.87v3.72c0,.42.01.67.04.92h-.84v-.36h-3.55v.36h-.83c.03-.25.04-.53.04-.93v-3.71c0-.36-.01-.63-.04-.86.24.03.45.04.77.04h.97ZM47.64,23.24h3.55v-1.41h-3.55v1.41ZM47.64,25.45h3.55v-1.48h-3.55v1.48Z"/>
              <path class="cls-2" d="M55.88,24.09c-.1.15-.14.22-.25.46-.37-.32-.49-.43-.66-.64v1.9c0,.33.01.57.04.83h-.81c.03-.22.04-.5.04-.83v-1.68c-.25.27-.41.43-.75.7-.08-.29-.17-.5-.33-.76.34-.23.7-.56,1-.9.33-.39.57-.75.76-1.18h-.95c-.22,0-.41.01-.59.04v-.75c.16.03.27.04.53.04h.32v-.61c0-.17-.01-.37-.04-.54h.82c-.03.15-.04.34-.04.55v.6h.17c.22,0,.33,0,.38-.03l.33.36c-.04.07-.05.1-.1.22-.22.52-.42.9-.66,1.25.21.24.48.48.79.69v-1.91c0-.34,0-.49-.03-.71.18.03.34.04.71.04h.71v-.3c0-.31-.01-.5-.04-.74h.81c-.03.23-.04.43-.04.75v.29h.82c.38,0,.53,0,.71-.04-.02.19-.03.31-.03.71v2.36c0,.31,0,.55.03.77h-.75v-.36h-.78v1.13c0,.39.01.62.04.86h-.81c.04-.26.04-.47.04-.85v-1.13h-.69v.39h-.74c.03-.2.04-.41.04-.75v-.2ZM56.57,21.88v.7h.71v-.7h-.71ZM56.59,23.22v.76h.69v-.76h-.69ZM58.78,22.58v-.7h-.77v.7h.77ZM58.8,23.98v-.76h-.79v.76h.79Z"/>
              <path class="cls-2" d="M62.02,22.25c-.29.6-.57,1.02-.95,1.47-.18-.27-.34-.43-.57-.6.53-.53.95-1.27,1.18-2.04.09-.3.13-.45.15-.65l.8.2q-.01.06-.06.18s-.02.06-.07.23c-.04.1-.1.28-.19.53h1.14v-.53c0-.36-.01-.58-.05-.84h.9c-.03.23-.04.46-.04.83v.54h1.46c.36,0,.66-.01.95-.04v.77c-.3-.03-.59-.04-.92-.04h-1.48v1.29h1.21c.35,0,.63-.01.86-.04v.77c-.25-.03-.53-.04-.86-.04h-1.21v1.48h1.68c.4,0,.69-.01.97-.05v.8c-.33-.04-.58-.05-.95-.05h-4.29c-.36,0-.67.01-1,.05v-.8c.3.04.6.05.97.05h1.8v-1.48h-1.08c-.33,0-.61.01-.85.04v-.77c.22.03.46.04.84.04h1.08v-1.29h-1.43Z"/>
              <path class="cls-2" d="M70.46,20.99c-.03.08-.04.16-.09.54-.14.95-.32,1.73-.55,2.4-.32.86-.67,1.49-1.24,2.16-.34-.32-.45-.41-.8-.6.42-.42.71-.85,1-1.49.3-.65.55-1.52.66-2.4.04-.29.06-.53.06-.68v-.1l.96.18ZM72.45,20.81c.02.39.13,1,.29,1.61.34,1.28.8,2.18,1.56,3.03-.37.24-.49.34-.77.64-.5-.6-.86-1.23-1.19-2.06-.3-.74-.55-1.67-.67-2.55-.04-.27-.06-.4-.1-.5l.87-.17Z"/>
              <path class="cls-2" d="M78.56,20.57c-.08.15-.08.17-.18.5-.53,1.75-.94,2.91-1.39,3.99,1.1-.08,2.31-.23,2.91-.36-.08-.17-.16-.32-.33-.64-.31-.58-.43-.78-.67-1.11l.79-.31c.65.95,1.27,2.13,1.7,3.24l-.85.44q-.09-.29-.34-.87-.09.02-.25.06c-.71.15-1.87.29-3.96.5-.39.04-.5.05-.64.08l-.13-.95h.18c.14,0,.31,0,.6-.02.37-.88.65-1.67,1.02-2.82.33-1.03.46-1.53.51-1.94l1.02.2Z"/>
              <path class="cls-2" d="M82.26,26.75c.43-.59.59-.88.76-1.37.21-.6.31-1.22.31-1.99s-.1-1.39-.31-1.99c-.17-.49-.33-.77-.76-1.36h2.12v6.7h-2.12Z"/>
            </g>
            <g>
              <path class="cls-2" d="M87.6,25.79c-.28-.4-.41-.62-.55-.99-.18-.46-.26-.9-.26-1.38s.08-.89.25-1.34c.15-.37.27-.59.55-.99h.7c-.35.44-.5.67-.64,1-.17.41-.26.84-.26,1.33s.08.96.27,1.37c.14.33.28.55.63,1h-.7Z"/>
              <path class="cls-2" d="M89.45,25.44c.03-.2.04-.39.04-.66v-2.75h-.24c-.18,0-.33,0-.52.03v-.64c.16.03.27.03.5.03h.46c.26,0,.33,0,.51-.03-.03.29-.04.53-.04.83v2.53c0,.27,0,.45.04.66h-.76Z"/>
              <path class="cls-2" d="M92.3,23.09c0-.11,0-.18-.01-.29.11.01.21.02.35.02h1.09v-.65h-1.05c-.26.41-.51.7-.83.99-.14-.21-.2-.28-.37-.45.51-.44.77-.77.98-1.26.07-.16.11-.27.12-.37l.6.12c-.03.06-.04.08-.08.15,0,.02-.05.12-.14.32h2.34c.24,0,.36,0,.51-.03v.55c-.16-.02-.29-.03-.51-.03h-1.02v.65h.81c.23,0,.37,0,.52-.03v.53c-.15-.01-.29-.02-.5-.02h-.82v.81h1.16c.23,0,.39,0,.54-.03v.57c-.16-.02-.33-.03-.54-.03h-1.16v.62c0,.26,0,.39.03.54h-.61c.02-.15.03-.28.03-.55v-.62h-1.68c-.22,0-.38,0-.55.03v-.57c.16.02.32.03.55.03h.25v-1.02ZM93.73,24.11v-.81h-.9v.81h.9Z"/>
              <path class="cls-2" d="M97.99,23.45c0,.33-.26.59-.6.59s-.59-.26-.59-.59.26-.6.59-.6.6.26.6.6Z"/>
              <path class="cls-2" d="M99.7,25.44c-.39,0-.47,0-.65.03.03-.29.07-.46.13-.64.14-.37.36-.69.69-.98.17-.15.33-.27.83-.61.46-.32.6-.48.6-.74,0-.34-.27-.55-.69-.55-.29,0-.51.1-.64.3-.08.12-.12.23-.16.46l-.72-.08c.07-.38.16-.59.35-.8.25-.29.65-.45,1.15-.45.88,0,1.42.42,1.42,1.11,0,.33-.11.57-.36.8-.14.13-.19.17-.84.62-.22.16-.47.37-.6.5-.15.16-.21.26-.29.45h1.4c.32,0,.57-.01.73-.04v.66c-.24-.02-.44-.03-.76-.03h-1.61Z"/>
              <path class="cls-2" d="M103.66,23.09c0-.11,0-.18-.01-.29.11.01.21.02.35.02h1.09v-.65h-1.05c-.26.41-.51.7-.83.99-.14-.21-.2-.28-.37-.45.51-.44.77-.77.98-1.26.07-.16.11-.27.12-.37l.6.12c-.03.06-.04.08-.08.15,0,.02-.05.12-.14.32h2.34c.24,0,.36,0,.51-.03v.55c-.16-.02-.29-.03-.51-.03h-1.02v.65h.81c.23,0,.37,0,.52-.03v.53c-.15-.01-.29-.02-.5-.02h-.82v.81h1.16c.23,0,.39,0,.54-.03v.57c-.15-.02-.33-.03-.54-.03h-1.16v.62c0,.26,0,.39.03.54h-.61c.02-.15.03-.28.03-.55v-.62h-1.68c-.22,0-.38,0-.55.03v-.57c.16.02.32.03.55.03h.25v-1.02ZM105.09,24.11v-.81h-.9v.81h.9Z"/>
              <path class="cls-2" d="M107.89,25.42c.36-.29.46-.41.62-.73l.47.21c-.23.45-.34.6-.66.89l-.44-.38ZM109.43,24.34c0,.26-.13.35-.53.35-.1,0-.19,0-.44-.02-.02-.19-.04-.24-.12-.42.17.03.39.05.52.05.07,0,.09-.02.09-.09v-.18q-.56.04-.62.04c-.12,0-.16,0-.32.03l-.08-.46c.08.01.16.02.25.02s.59-.01.77-.02c0-.08,0-.12-.02-.17h.09c.12-.04.21-.09.29-.14h-.93c-.12,0-.21,0-.29.02v-.39c.11,0,.16.02.31.02h1.25c.18,0,.21,0,.28-.01l.21.21c-.23.16-.41.26-.71.39v.06c.27-.02.4-.04.77-.09v.37c-.37.05-.49.06-.77.09v.37ZM108.92,21.4c0-.1,0-.16-.03-.26h.56c-.01.08-.02.16-.02.26v.07h.39c.18,0,.33,0,.47-.02v.42c-.12,0-.21-.01-.42-.01h-1.46c-.2,0-.33,0-.46.02v-.43c.14.01.29.02.48.02h.49v-.07ZM108.2,22.25c0-.09,0-.17-.02-.24.07,0,.15.01.29.01h1.36c.09,0,.17,0,.26,0,0,.11,0,.13,0,.22v.35c0,.08,0,.17,0,.24-.08,0-.16,0-.25,0h-1.35c-.1,0-.22,0-.31,0,.01-.08.02-.15.02-.24v-.33ZM108.69,22.51h.91v-.18h-.91v.18ZM109.38,25.73v-.18c0-.21-.03-.48-.07-.76l.51-.05c.08.35.1.58.12.95l-.55.04ZM110.44,22.6c.15.15.21.2.31.3.03-.15.04-.25.06-.52h-.18c-.12,0-.22,0-.33.02v-.54c.1.01.18.02.33.02h.19v-.16c0-.07,0-.12,0-.15,0-.18,0-.3-.03-.41h.55c-.02.11-.02.18-.03.37,0,.13,0,.18,0,.35h.3c.17,0,.29,0,.42-.02,0,.1-.02.3-.02.48,0,.16.03.71.05.99.02.27.09.61.13.61.04,0,.08-.33.08-.74.15.12.23.17.35.22-.04.55-.08.77-.17.93-.07.13-.17.21-.28.21-.16,0-.31-.14-.42-.4-.15-.34-.21-.86-.22-1.76h-.25c-.03.38-.07.62-.16.93.17.2.25.29.46.55l-.34.45c-.16-.24-.21-.31-.33-.47-.2.38-.4.61-.74.88-.11-.17-.2-.26-.36-.39.39-.25.58-.48.76-.89-.15-.17-.23-.25-.46-.44l.32-.39ZM110.57,25.73c-.08-.45-.11-.56-.24-.9l.5-.12c.14.34.21.54.29.89l-.54.14ZM111.97,25.75c-.19-.38-.33-.58-.63-.95l.42-.25c.38.42.5.58.69.88l-.48.32Z"/>
              <path class="cls-2" d="M117.45,22.89q-.03.07-.11.26c-.22.54-.42.91-.68,1.25.09.18.2.32.3.43.08.09.2.18.23.18.02,0,.04-.03.06-.1q.04-.12.1-.58c.17.17.24.22.45.33-.12.68-.29.97-.57.97-.25,0-.65-.33-.94-.81-.38.37-.77.66-1.21.88-.16-.23-.21-.29-.38-.44.53-.21.97-.52,1.35-.92-.21-.52-.32-1.12-.38-2h-1.55q0,.48,0,.66h.92c.17,0,.25,0,.36-.02,0,.09-.02.23-.03.43-.05.9-.08,1.17-.17,1.38-.08.2-.26.28-.65.28-.14,0-.22,0-.38-.01-.02-.22-.05-.34-.13-.53.27.04.34.04.49.04.16,0,.2-.03.23-.16.04-.18.07-.5.08-.91h-.73c-.04.57-.08.92-.16,1.26-.09.4-.19.63-.41.98-.15-.2-.25-.3-.44-.43.18-.27.28-.5.35-.79.1-.42.15-1.09.15-1.98,0-.39,0-.51-.03-.71.18.02.39.03.65.03h1.45s0-.17-.01-.39c0-.18,0-.21-.02-.32h.59c-.01.11-.02.31-.02.48v.23h.66c-.14-.19-.24-.29-.44-.46l.39-.25c.23.2.32.28.51.53l-.26.18h.15c.26,0,.4,0,.53-.03v.55c-.17-.02-.36-.03-.61-.03h-.9c.04.66.12,1.12.23,1.5.25-.41.42-.82.48-1.17l.54.21Z"/>
              <path class="cls-2" d="M118,25.79c.36-.45.5-.67.63-1,.18-.42.27-.86.27-1.37s-.08-.92-.25-1.33c-.15-.33-.29-.56-.64-1h.71c.28.4.4.62.55.99.17.46.25.86.25,1.34s-.08.92-.26,1.38c-.15.37-.27.58-.55.99h-.71Z"/>
            </g>
          </g>
          <g>
            <path class="cls-4" d="M14.39,12.16c0-.58.03-1.24.07-1.83-.49,1.49-.75,1.84-.77,1.84,0,0-.02,0-.04-.02-.25-.3-1.02-.86-1.02-.86.65-.65,1.2-1.85,1.49-2.63h-1.04v-1.3h1.32v-.8c-.3.06-.8.15-.8.15-.02,0-.03,0-.04-.04-.13-.28-.78-1.13-.78-1.13.37,0,2.47-.28,3.16-.65,0,0,.74.81.93,1.04.03.04.05.07.05.1,0,.04-.04.06-.09.06-.06,0-.15-.03-.25-.08-.25.08-.54.16-.82.24v1.11s.84,0,.84,0v1.3h-.66c.15.29.37.69.62,1.08.22-.52.28-1.21.28-1.82,0-.53-.04-.99-.08-1.23,0,0,1,.03,1.3.06.15.02.23.07.23.12s-.09.11-.28.15c0,.24,0,.57,0,.94,0,.56-.02,1.21-.15,1.81,0,.04-.04.05-.07.05-.19-.02-.46-.03-1.2-.03.17.27.37.53.56.76,0,0-.77.36-.98.6,0,0-.03.02-.04.02-.08,0-.32-.75-.49-1.4.05.75.11,1.85.11,2.45v.91c2.63-1.57,2.7-3.91,2.7-6.19,0-.9-.04-1.87-.04-2,0,0,1.22.02,1.53.06.12.02.19.06.19.1,0,.05-.09.11-.28.16-.04.74-.03,1.52-.07,2.27.02.33.05.65.09.96.33-.53.72-1.28,1.05-2.08,0,0,1.11.47,1.34.62.08.05.12.1.12.14,0,.07-.1.11-.27.11h-.04c-.72,1.21-1.4,2.19-1.46,2.19-.02,0-.03,0-.05,0-.12-.06-.34-.13-.56-.19.35,1.53,1.11,2.76,2.47,3.79,0,0-.99.49-1.31.85-.02.02-.03.03-.05.03s-1.18-.91-1.86-3.22c-.76,2.37-2.23,3.32-2.24,3.32-.02,0-.03-.01-.05-.03-.23-.22-.91-.58-1.21-.73v.85h-1.37v-1.97Z"/>
            <path class="cls-4" d="M23.91,5.8h8.04v8.15h-1.42v-.62h-5.21v.65h-1.41V5.8ZM27.11,8.8v-1.7h-1.8v1.7h1.8ZM27.11,12v-1.91h-1.8v1.91h1.8ZM30.51,8.8v-1.7h-1.96v1.7h1.96ZM30.52,12v-1.91h-1.97v1.91h1.97Z"/>
            <path class="cls-4" d="M36.27,11.53c.1.07.86.51,1.15.76.08.07.12.13.12.17,0,.05-.06.08-.14.08-.07,0-.15-.02-.22-.06-.64.57-1.35,1.2-2.34,1.57-.03,0-.06.02-.08.02s-.04,0-.06-.04c-.21-.34-1.14-.93-1.14-.93,1.9-.45,2.6-1.41,2.71-1.57ZM34.27,6.6s-.02-.51-.03-.8c0,0,1.32.04,1.54.08.11.02.17.06.17.11,0,.06-.09.13-.29.17-.01.14-.02.46-.02.46v3.78h7.13v1.09h-3.78v2.72h-1.33v-2.72h-2.02v.41h-1.37v-5.3ZM36.26,5.19h5.41v4.89h-1.37v-.14h-2.72v.18h-1.32v-4.93ZM40.29,6.56v-.4h-2.72v.4h2.72ZM40.29,7.81v-.43h-2.72v.43h2.72ZM40.29,9.07v-.44h-2.72v.44h2.72ZM40.31,11.53c.2.19,1.31,1.04,2.8,1.4,0,0-.97.62-1.23,1.02-.02.04-.04.05-.07.05-.12,0-1.41-.6-2.55-1.74l1.05-.73Z"/>
            <path class="cls-4" d="M44.36,7.19h3.54v-.45c0-.76-.02-1.49-.05-1.78.28,0,1.39.05,1.6.06.23,0,.33.07.33.14s-.12.16-.33.2c0,.27-.04,1.31-.04,1.79v.04h3.62v1.38h-3.42c.54,1.89,1.87,3.48,4.01,4.35,0,0-1.19.59-1.59.96-.05.05-.08.06-.11.06-.06,0-2.02-.98-3.18-3.67-1.16,2.81-3.22,3.79-3.26,3.79-.02,0-.04-.02-.08-.05-.38-.33-1.61-.88-1.61-.88,2.53-1.05,3.59-2.88,3.95-4.56h-3.38v-1.38Z"/>
            <path class="cls-4" d="M55.1,8.24c-.27-.28-.96-.7-.96-.7,1.61-1.05,2.25-2.74,2.25-2.74,0,0,1.06.18,1.31.26.1.03.17.08.17.13,0,.06-.09.11-.3.13.17.29.52.76,1.15,1.21v-.74h1.59v-.21s0-.45-.03-.68c0,0,1.13.04,1.5.09.11.01.18.05.18.1,0,.06-.09.12-.28.16-.02.1-.02.23-.02.32v.22h1.91v2.14h-.7s0,2.49,0,2.49h-1.24v-.29h-1.32v.62h2.91v3.38h-1.24v-.52h-1.67v.51h-1.23v-.66l-.99.49s-.13-.44-.42-1.04c-.5.2-1.48.56-2.64.88v.06c0,.15-.04.23-.1.23-.05,0-.1-.04-.16-.14-.21-.36-.55-1.23-.55-1.23.3-.05.59-.11.88-.17v-4.3ZM56.43,7.72v-.62c-.16.21-.34.42-.53.62h.53ZM57.44,9v-.41h-1.16v.41h1.16ZM57.44,10.31v-.44h-1.16v.44h1.16ZM56.28,12.24c.32-.09.61-.19.85-.27-.08-.12-.17-.25-.27-.38l.58-.23v-.11h-1.16v.99ZM57.4,6.94c-.16-.2-.31-.4-.44-.58-.11.17-.24.35-.38.54.2,0,.57.02.82.04ZM59.08,7.89h-.36v-.69c-.2.15-.41.32-.51.44-.02.02-.03.03-.04.03-.02,0-.03,0-.06-.03-.17-.14-.33-.29-.48-.45-.04.02-.1.05-.16.06v.47h1.14v3.7h-.64c.52.68.91,1.33,1.11,1.69v-5.22ZM62.26,7.42v-.49h-2.26v.49h2.26ZM61.62,9.08v-.63h-1.32v.63h1.32ZM61.97,12.53v-.74h-1.67v.74h1.67Z"/>
            <path class="cls-4" d="M64.95,6h3.73v-.37s0-.48-.04-.77c1.59.03,1.88.1,1.88.22,0,.07-.12.15-.34.2,0,.17-.03.37-.03.59v.13h3.82v1.28h-9.01v-1.28ZM65.81,8.18h2.87v-.06s0-.38-.03-.72c0,0,1.36.05,1.59.08.12,0,.19.06.19.11,0,.06-.09.13-.29.17-.01.14-.02.33-.02.42h2.99v2.46c0,.29,0,.81,0,.96,0,1.09-.88,1.4-1.82,1.4-.09,0-.18,0-.27,0-.11,0-.12-.04-.12-.06-.05-.35-.73-1.34-.73-1.34.39.04.72.08.97.08.38,0,.59-.08.59-.37v-1.95h-1.62v4.75h-1.44v-4.75h-1.46v3.7h-1.4v-4.87Z"/>
          </g>
        </g>
      </g>
    </g>
  </g>
</svg>