<?xml version="1.0" encoding="UTF-8"?>
<svg xmlns="http://www.w3.org/2000/svg" viewBox="0 0 162.24 27.54">
  <defs>
    <style>
      .cls-1 {
        isolation: isolate;
      }

      .cls-2 {
        fill: #231815;
      }

      .cls-3 {
        fill: #22ac38;
        mix-blend-mode: multiply;
      }

      .cls-4 {
        fill: #fff;
      }

      .cls-5 {
        fill: #8fc31f;
      }
    </style>
  </defs>
  <g class="cls-1">
    <g id="_レイヤー_2" data-name="レイヤー 2">
      <g id="_テキスト1" data-name="テキスト1">
        <g>
          <g>
            <rect class="cls-5" width="162.24" height="17.49"/>
            <rect class="cls-3" width="8.29" height="17.49"/>
          </g>
          <g>
            <path class="cls-2" d="M25.3,26.35c.43-.89.97-2.63,1.05-3.35l.9.26c-.08.15-.08.19-.24.67-.25.84-.62,1.83-.9,2.42h1.26c.36,0,.65-.01.89-.04v.84c-.25-.04-.52-.05-.89-.05h-4.57c-.37,0-.68.01-.91.05v-.84c.24.03.53.04.91.04h2.49ZM24.63,21.58c0-.2-.01-.35-.05-.55h.88c-.04.17-.05.34-.05.54v.48h1.69c.38,0,.69-.01.9-.05v.84c-.23-.03-.54-.04-.9-.04h-4.07c-.35,0-.66.01-.88.04v-.84c.21.04.5.05.88.05h1.6v-.47ZM23.73,23.06c.31.84.48,1.4.8,2.72l-.79.28c-.18-.99-.43-1.91-.77-2.74l.76-.27Z"/>
            <path class="cls-2" d="M29.38,24.78c0-.42,0-.51.01-.77-.17.27-.23.35-.46.62-.08-.37-.15-.55-.31-.88.51-.56.91-1.23,1.21-2.03.11-.28.18-.55.22-.77l.78.22q-.09.21-.19.49c-.17.48-.3.77-.52,1.21v3.81c0,.32,0,.53.03.77h-.81c.03-.25.04-.48.04-.83v-1.84ZM34.28,24.85c-.15.51-.3.79-.63,1.18.56.24,1,.46,1.54.76l-.49.62c-.55-.35-.95-.57-1.58-.88-.6.44-1.27.68-2.43.88-.09-.33-.15-.48-.33-.74.93-.09,1.39-.22,1.94-.49-.53-.2-.78-.29-1.37-.46.29-.35.41-.52.64-.88h-.42c-.34,0-.52,0-.71.04v-.74c.18.03.37.04.7.04h.8c.16-.3.24-.48.34-.75h-1.07c-.29,0-.48,0-.69.04v-.76c.23.04.44.05.69.05h3.2c.29,0,.47-.01.7-.05v.76c-.21-.04-.38-.04-.7-.04h-1.31c-.14.32-.22.49-.34.75h1.74c.32,0,.5,0,.68-.04v.74c-.21-.04-.36-.04-.67-.04h-.23ZM30.95,21.27c.19.03.39.04.68.04h2.42c.33,0,.52,0,.69-.04v.73c-.2-.04-.37-.04-.69-.04h-2.42c-.29,0-.47,0-.68.04v-.74ZM32.41,24.85c-.16.27-.21.35-.37.6.4.13.56.17.89.3.28-.28.41-.48.58-.9h-1.09Z"/>
            <path class="cls-2" d="M37.92,24.01c0-.25,0-.42-.03-.55h.8c-.02.15-.03.31-.03.55v.31h.55c.29,0,.39,0,.55-.04v.74c-.16-.02-.29-.03-.55-.03h-.55v1.16c.46-.1.69-.15,1.29-.33v.72c-1.28.34-1.72.43-3.13.69q-.64.12-.73.14l-.13-.81c.16,0,.35-.01.59-.04v-1.79c0-.29,0-.46-.04-.66h.8c-.03.18-.03.34-.03.61v1.73c.27-.05.42-.08.64-.12v-2.29ZM41.54,22.63c.34,0,.54-.01.75-.04v.78c-.22-.03-.47-.04-.82-.04h-.77c.07.99.19,1.74.37,2.27.17.48.41.9.53.9.03,0,.06-.04.08-.09.04-.17.09-.55.12-.96.25.22.4.31.66.43-.15,1.07-.4,1.56-.79,1.56-.43,0-.94-.55-1.25-1.37-.25-.67-.41-1.54-.48-2.73h-3.11c-.29,0-.58.01-.81.04v-.78c.2.03.47.04.83.04h3.07q-.01-.61-.01-.76c0-.43-.01-.64-.04-.8h.85c-.03.15-.04.26-.04.43,0,.04.01.97.01,1.12h.86ZM39.32,22.16c-.18-.02-.42-.03-.65-.03h-1.41c-.27,0-.46,0-.67.03v-.75c.18.03.38.04.67.04h1.39c.3,0,.48,0,.67-.04v.75ZM41.54,22.57c-.27-.49-.42-.71-.76-1.08l.58-.29c.35.36.54.62.79,1.03l-.62.34Z"/>
            <path class="cls-2" d="M45.33,22.5c.32.2.48.31.77.53.54-.39.79-.6,1.13-.97h-1.62c-.61.55-1.18.92-1.97,1.27-.11-.22-.25-.38-.46-.58.79-.31,1.4-.68,1.9-1.14.33-.31.5-.51.62-.73l.86.15c-.18.22-.22.25-.36.42h1.22c.27,0,.46-.01.62-.04l.37.39c-.41.48-.61.69-.9.97-1.16,1.08-2.34,1.73-3.94,2.17-.09-.26-.2-.46-.39-.67.96-.22,1.69-.48,2.33-.86-.21-.18-.41-.33-.72-.52l.55-.38ZM46.66,24.65c-.51.39-.72.52-1.15.75-.47.25-.8.38-1.32.54-.15-.32-.21-.43-.41-.64,1.35-.33,2.68-1.13,3.17-1.93l.74.24c-.18.22-.22.26-.37.43h1.02c.27,0,.45,0,.62-.04l.41.42c-.09.11-.11.13-.24.32-.66.9-1.34,1.46-2.43,1.99-.84.41-1.51.61-2.72.81-.13-.34-.18-.43-.42-.71,1.25-.12,2.12-.35,2.93-.78-.27-.26-.44-.38-.78-.58l.62-.39c.35.24.5.35.8.6.41-.27.67-.5,1.15-1.03h-1.61Z"/>
            <path class="cls-2" d="M52.3,21.21c0,.34.27,1.62.46,2.19.44-.17.7-.26,1.58-.54q.37-.12.5-.18l.3.88c-.61.12-1.53.38-2.31.67-1.02.38-1.53.82-1.53,1.32s.48.73,1.6.73c.88,0,1.74-.11,2.26-.28l.08.95c-.15,0-.2.01-.57.05-.76.08-1.15.11-1.64.11-.97,0-1.58-.12-2.03-.39-.38-.23-.61-.66-.61-1.17,0-.46.22-.91.62-1.25.27-.22.5-.37.95-.6-.16-.51-.29-1.03-.47-1.9-.08-.35-.08-.36-.11-.46l.91-.14ZM54.63,21.21c.31.33.5.6.74,1.03l-.49.26c-.23-.43-.43-.71-.74-1.04l.49-.25ZM55.71,22.05c-.21-.39-.44-.71-.71-1.02l.47-.25c.32.32.51.59.73.99l-.48.27Z"/>
            <path class="cls-2" d="M58.14,22.54c-.11.38-.22,1.04-.32,1.72q-.01.1-.04.2h.01c.41-.38,1.28-.65,2.12-.65,1.19,0,1.97.59,1.97,1.49,0,.51-.27,1.03-.72,1.35-.46.33-1.04.48-1.85.48-.6,0-.99-.05-1.79-.25,0-.43-.02-.57-.11-.9.69.24,1.29.35,1.88.35.99,0,1.67-.41,1.67-1.01,0-.47-.44-.75-1.18-.75-.62,0-1.28.19-1.74.51-.13.09-.17.13-.32.3l-.88-.03c.02-.13.02-.15.06-.42.06-.43.17-1.21.29-2.04.03-.17.04-.25.04-.41l.88.05ZM58.23,21.17c.48.27,1.82.67,2.61.78l-.29.81c-1.2-.27-1.93-.5-2.73-.88l.41-.71Z"/>
            <path class="cls-2" d="M65.65,25.09c-.32,0-.5,0-.68.04v-.71c.16.02.27.03.54.03h.09v-.61h-.12c-.23,0-.35,0-.55.04v-.59c-.16.2-.24.29-.44.49-.03.57-.05.81-.1,1.15.23.36.5.65.83.9-.18.26-.27.4-.38.69-.29-.3-.45-.5-.62-.76-.22.71-.5,1.23-.96,1.71-.15-.25-.29-.42-.5-.6.4-.41.63-.83.8-1.46.2-.66.27-1.65.27-3.32,0-.6,0-.75-.05-1.02h.81q-.04.23-.04,1.34c0,.15,0,.24,0,.46.19-.28.28-.44.36-.62l.53.41c-.09.12-.22.29-.38.51.13.01.24.02.45.02h.12v-.22c0-.14,0-.22-.03-.33h.7c-.01.09-.02.17-.02.31v.24h1.51v-.23c0-.14,0-.21-.02-.32h.72c-.02.1-.03.19-.03.32v.23h.27c.24,0,.38,0,.58-.04v.73c-.19-.03-.34-.04-.58-.04h-.27v.61h.11c.29,0,.44,0,.64-.04v.73c-.22-.03-.42-.04-.71-.04h-.58v1.44c0,.14.04.16.41.16.18,0,.29-.04.31-.13.04-.12.06-.34.07-.74.2.13.34.19.66.28-.04.64-.11.95-.28,1.1-.13.12-.41.17-.9.17-.78,0-.97-.11-.97-.55v-1.73h-.55c-.04.43-.07.61-.17.88-.25.74-.71,1.18-1.6,1.54-.12-.29-.23-.46-.43-.64.5-.16.77-.32,1.04-.61.28-.3.42-.68.44-1.18h-.25ZM62.79,24.21c.1-.33.13-.48.17-.86.03-.33.05-.6.05-.81v-.18l.59.07c-.01.9-.08,1.46-.22,2.07l-.58-.29ZM67.33,22.55c0,.22,0,.29.02.41h-.71c.01-.1.02-.22.02-.41v-.24h-.81c-.25,0-.5.01-.68.04v-.73c.22.03.38.04.68.04h.81v-.17c0-.2,0-.32-.04-.47h.74c-.03.14-.04.27-.04.48v.17h1.02c.27,0,.47-.01.67-.04v.74c-.2-.02-.42-.04-.65-.04h-1.04v.23ZM67.76,24.43v-.61h-1.51v.61h1.51Z"/>
            <path class="cls-2" d="M76.22,20.93l-5.31,6.58h-1.03l5.3-6.58h1.04Z"/>
            <path class="cls-2" d="M79.38,23.71h-.46c-.27,0-.47,0-.64.03v-.53c-.09.18-.29.48-.43.67v2.88c0,.34,0,.51.04.72h-.8c.03-.23.04-.45.04-.82v-1.26c0-.31,0-.33.01-.78-.2.25-.24.29-.44.46-.08-.34-.17-.61-.27-.8.35-.25.7-.62.99-1.04.17-.25.29-.47.35-.64l.64.42h0c.25.03.28.03.52.03h.46v-.69h-.33c-.12.23-.18.34-.38.62-.15-.15-.3-.26-.57-.42.41-.54.57-.9.73-1.6l.7.18q-.13.36-.2.54h.88c.28,0,.41,0,.57-.03v.73c-.15-.02-.29-.03-.52-.03h-.19v.69h.32c.24,0,.36,0,.47-.03v.72c-.11-.02-.24-.03-.47-.03h-.32v.7h.24c.2,0,.35,0,.48-.03v.71c-.14-.02-.28-.03-.48-.03h-.25v.92c.3-.06.4-.08.77-.17v.67c-.83.2-1.67.38-2.26.48-.12.02-.3.06-.43.1l-.13-.76c.15,0,.22-.01.34-.03v-1.55c0-.21,0-.37-.03-.56h.71c-.03.17-.04.31-.04.55v1.47c.11-.02.12-.02.36-.06v-2.41ZM78.34,21.42c-.05.06-.07.09-.12.16-.46.63-.8.98-1.37,1.39-.12-.33-.2-.46-.35-.69.54-.37,1-.87,1.2-1.3l.64.44ZM81.01,22c0-.31,0-.47-.02-.62.13.02.31.03.53.03h.89c.27,0,.41,0,.55-.03-.01.17-.02.3-.02.67v3.7c0,.36-.03.51-.16.63-.12.12-.29.17-.61.17-.08,0-.15,0-.31,0,0-.36-.02-.45-.11-.72.13.01.25.02.34.02.12,0,.15-.03.15-.17v-3.57h-.53v4.66c0,.3.02.55.04.74h-.77c.03-.22.04-.44.04-.77v-4.72Z"/>
            <path class="cls-2" d="M86.71,24.39c0,.31,0,.38.01.56-.07,0-.3,0-.69-.01h-1.16c-.06,1.17-.21,1.77-.62,2.49-.21-.26-.37-.39-.62-.55.44-.74.55-1.46.55-3.35,0-.47,0-.71-.04-.97.23.01.41.02.74.02h1.13c.32,0,.49,0,.71-.02-.01.15-.02.36-.02.63v1.21ZM83.88,21.28c.2.03.39.04.76.04h1.51c.41,0,.58,0,.76-.04v.78c-.18-.03-.36-.04-.73-.04h-1.59c-.32,0-.52,0-.71.04v-.78ZM85.99,24.27v-1.04h-1.09v.5c0,.27,0,.33,0,.53h1.1ZM87.9,23.87c-.04.85-.13,1.41-.31,1.91-.15.42-.34.8-.61,1.13-.11.15-.21.27-.45.53-.19-.26-.34-.41-.58-.58.54-.5.82-.95.99-1.55.15-.53.22-1.32.22-2.59,0-.66,0-.88-.03-1.11.86,0,2.05-.27,2.61-.59l.4.71c-.12.03-.17.04-.32.09-.72.22-1.18.32-1.91.43v.88h1.59c.33,0,.48,0,.68-.04v.81c-.19-.03-.35-.04-.62-.04h-.1v2.77c0,.36,0,.54.04.76h-.83c.03-.22.04-.42.04-.76v-2.77h-.83Z"/>
            <path class="cls-2" d="M92.24,23.4c0,1.31-.11,2.11-.38,2.79-.2.5-.39.85-.68,1.24-.2-.27-.37-.43-.65-.66.29-.38.44-.62.59-1.04.12-.3.2-.62.24-.97.03-.27.08-1.1.08-1.42v-1.51c0-.29-.01-.5-.05-.74h.9c-.04.18-.04.35-.04.76v1.55ZM94.46,21.4c-.03.25-.04.45-.04.81v3.59c0,.42.01.67.04.9h-.9c.03-.24.04-.48.04-.89v-3.59c0-.39-.01-.59-.04-.81h.9ZM96.7,21.09c-.04.23-.05.43-.05.83v4.54c0,.46.01.69.05.94h-.9c.03-.24.04-.5.04-.94v-4.54c0-.39,0-.59-.04-.83h.9Z"/>
            <path class="cls-2" d="M100.88,22.48c.09-.2.12-.31.2-.53h-2.04v.57c0,1.65-.12,2.93-.35,3.7-.15.5-.31.88-.53,1.21-.2-.3-.28-.4-.55-.68.52-.91.68-1.91.68-4.26,0-.7,0-1-.04-1.26.27.03.53.03.9.03h3.98c.41,0,.68-.01.86-.04v.76c-.2-.03-.42-.04-.81-.04h-1.3c-.07.2-.12.34-.2.53h1.18c.34,0,.53,0,.71-.03-.02.19-.03.38-.03.68v1.38c0,.32,0,.49.03.68-.22-.02-.44-.03-.7-.03h-.98v1.54c0,.56-.2.69-1.06.69-.19,0-.33,0-.63-.01-.04-.36-.05-.46-.17-.75.38.06.59.07.83.07.22,0,.27-.02.27-.13v-1.41h-.95c-.25,0-.48,0-.7.03.01-.2.02-.4.02-.7v-1.34c0-.32,0-.48-.02-.7.19.02.41.03.7.03h.72ZM100.53,25.6c-.39.79-.72,1.25-1.22,1.7-.2-.22-.34-.34-.57-.52.54-.46.89-.93,1.11-1.47l.68.29ZM100.19,23.5h2.59v-.41h-2.59v.41ZM100.19,24.53h2.59v-.43h-2.59v.43ZM102.88,25.31c.34.56.77,1.02,1.28,1.37-.2.17-.38.37-.55.6-.57-.48-.8-.76-1.36-1.64l.62-.33Z"/>
            <path class="cls-2" d="M105.45,23.08c.65.26,1.34.61,1.86.95l-.43.79c-.46-.36-1.25-.79-1.9-1.02l.47-.72ZM105.14,26.21c.55,0,1.28-.17,2.02-.46,1.28-.45,2.33-1.6,2.84-3.09.27.29.41.41.73.62-.87,2.12-2.35,3.27-4.86,3.76-.3.06-.36.08-.49.12l-.24-.96ZM105.99,21.38c.66.25,1.36.59,1.86.9l-.45.77c-.57-.38-1.36-.8-1.87-.96l.46-.71ZM109.64,21.24c.31.33.5.59.74,1.03l-.49.26c-.23-.43-.43-.71-.74-1.04l.49-.25ZM110.72,22.09c-.21-.39-.44-.71-.71-1.02l.47-.25c.32.32.51.59.73.99l-.48.27Z"/>
            <path class="cls-2" d="M114.7,26.26h1.43c.33,0,.46,0,.65-.04v.78c-.2-.02-.34-.03-.65-.03h-3.61c-.31,0-.46,0-.65.03v-.78c.2.04.32.04.64.04h1.37v-2.25h-.94c-.26,0-.41,0-.64.04v-.81c.19.04.36.05.64.05h2.75c.29,0,.45-.01.64-.05v.79c-.19-.02-.29-.03-.64-.03h-1v2.25Z"/>
            <path class="cls-2" d="M123.47,23.5c-.07.13-.11.22-.2.44-.37,1.03-.9,1.81-1.62,2.37-.5.39-.95.62-1.84.95-.15-.35-.24-.47-.54-.81.85-.22,1.41-.48,1.95-.92.52-.43.82-.86,1.13-1.64h-3.41c-.47,0-.64,0-.9.04v-.85c.27.04.42.05.91.05h3.33c.43,0,.57-.01.79-.06l.4.45ZM118.63,21.38c.23.04.38.05.82.05h2.44c.44,0,.59,0,.82-.05v.86c-.22-.03-.35-.03-.8-.03h-2.47c-.46,0-.59,0-.81.03v-.86Z"/>
            <path class="cls-2" d="M124.6,23.71c.31.04.44.05,1.13.05h3.73c.69,0,.83,0,1.13-.05v.97c-.28-.03-.36-.03-1.14-.03h-3.72c-.79,0-.86,0-1.14.03v-.97Z"/>
            <path class="cls-2" d="M132.46,27.2c.04-.22.04-.41.04-.78v-4.49c0-.34-.01-.53-.04-.71h.96c-.03.21-.03.3-.03.74v1.3c.96.34,2.06.85,3.18,1.48l-.49.83c-.58-.4-1.31-.8-2.48-1.34-.16-.08-.18-.08-.24-.12.02.2.03.28.03.48v1.85c0,.36,0,.55.03.78h-.96Z"/>
            <path class="cls-2" d="M140.97,24.6q0-.17.02-.77c-.17.29-.34.53-.59.81-.1-.29-.18-.48-.36-.83.52-.51.93-1.17,1.24-1.93.14-.35.24-.69.27-.95l.79.24c-.06.16-.07.2-.14.4-.16.47-.26.71-.49,1.16v3.9c0,.33.01.58.04.85h-.82c.03-.25.04-.48.04-.85v-2.02ZM143.32,23.83v2.45c0,.14.04.18.19.22.17.04.38.06.88.06.79,0,1.09-.03,1.25-.13.08-.05.14-.17.17-.32.02-.13.03-.22.05-.55.31.13.43.16.76.22-.08.8-.18,1.07-.39,1.24-.27.19-.73.25-2.01.25s-1.64-.14-1.64-.7v-2.49c-.06.02-.11.04-.14.04-.2.07-.27.1-.41.16l-.06-.8c.17-.02.37-.07.61-.14v-.83c0-.33,0-.52-.04-.74h.83c-.04.2-.04.38-.04.71v.62l.72-.23v-1.14c0-.28-.01-.46-.04-.7h.81c-.03.22-.04.39-.04.68v.93l1.02-.33c.27-.08.43-.15.57-.21,0,.15,0,.2,0,.38-.01.84-.06,1.81-.12,2.26-.07.53-.25.68-.79.68-.13,0-.21,0-.38-.02-.04-.27-.08-.43-.2-.71.18.03.36.06.47.06.15,0,.18-.05.22-.38.04-.27.06-.74.06-1.3l-.86.28v1.82c0,.29,0,.46.04.7h-.81c.04-.22.04-.4.04-.72v-1.56l-.72.23Z"/>
          </g>
          <g>
            <path class="cls-4" d="M12.99,11.86h2.38c.18-.83.34-1.69.48-2.49h-1.95v-1.31h2.18c.1-.62.19-1.16.25-1.56h-2.8v-1.32h7.91v1.32h-3.61c-.06.4-.14.94-.25,1.56h3l-.04,3.8h1.49v1.32h-9.04v-1.32ZM19.08,11.86l.04-2.49h-1.77c-.14.8-.3,1.66-.48,2.49h2.21Z"/>
            <path class="cls-4" d="M26.45,9.97h-1.18c-.07,2.8-.82,3.57-.82,3.57,0,0-.03,0-.06-.03-.27-.19-1.37-.33-1.37-.33.97-1.11.97-2.83.97-4.47,0-.4-.03-2.01-.03-2.01h3.73v3.7h-1.24v-.43ZM23.57,4.88h4.28v1.26h-4.28v-1.26ZM26.45,8.81v-.98h-1.2s.02.39.02.91v.07h1.18ZM30.19,8.78h-.75c-.03,1.67-.25,3.54-1.69,4.75-.03.02-.05.04-.07.04-.01,0-.03,0-.05-.03-.25-.25-1.49-.61-1.49-.61,1.98-1.14,1.99-2.98,1.99-4.97,0-1.18-.06-2.76-.06-2.76l1.28.2c1.02-.3,1.87-.7,2.16-.92,0,0,.76.8.97,1.06.06.07.09.14.09.2s-.04.1-.12.1c-.07,0-.16-.03-.28-.09,0,0-1.4.52-2.72.83v.95h3.2v1.25h-1.11v4.89h-1.35v-4.89Z"/>
            <path class="cls-4" d="M35,7.52c0-.54,0-1.31-.01-1.9,0-.13,0-.63-.04-.92,0,0,1.09.02,1.57.07.15,0,.23.07.23.12,0,.06-.09.13-.27.16,0,.14-.02.38-.02.55,0,0,0,0,0,2.61,0,1.71,0,3.94-1.29,5.39-.03.03-.04.04-.06.04s-.03,0-.05-.01c-.34-.2-1.61-.46-1.61-.46,1.54-1.32,1.55-2.82,1.55-5.65ZM37.83,5.74s0-.56-.03-.83c0,0,1.39.03,1.61.06.1.01.16.06.16.11,0,.06-.08.13-.28.17,0,.12-.02.48-.02.48v6.61h-1.44v-6.6ZM40.7,5.53s0-.63-.02-.85c0,0,1.19.02,1.62.06.1,0,.16.06.16.11,0,.07-.08.15-.28.19,0,.14-.02.5-.02.5v8h-1.46V5.53Z"/>
            <path class="cls-4" d="M51.54,10.68h-.44v-.17h-.8v.59c0,.49.03.95.03,1.03v.05c0,1.1-.95,1.4-1.84,1.4-.09,0-.18,0-.27,0-.07,0-.09,0-.11-.07-.05-.22-.33-.65-.54-.96-.43.47-.8.68-.82.68-.02,0-.03-.01-.06-.03-.2-.16-.67-.37-.97-.49-.16.38-.34.64-.36.64,0,0-.03,0-.05-.02-.31-.17-1.5-.31-1.5-.31.97-1.24,1.2-3.05,1.2-4.29,0-.47-.04-3.82-.04-3.82h8.04v1.21h-2.87c-.07.19-.16.41-.24.61h2.46v3.96h-.77c.14.17,1.01,1.18,2,1.72,0,0-.95.38-1.28.68-.03.02-.04.03-.06.03-.17,0-1.37-1.3-1.76-1.93l1.05-.5ZM46.94,6.72h1.59c.09-.21.17-.42.24-.61h-2.44s.02,2.27.02,2.69c0,1.11-.11,2.46-.5,3.57.97-.6,1.45-1.43,1.56-1.65h-.47v-4ZM48.99,10.51h-.85v.21h-.59c1.02.47,1.17.54,1.17.64,0,.05-.07.09-.17.09-.04,0-.07,0-.11,0-.18.29-.41.59-.65.87.18.03.37.05.54.05.36,0,.66-.1.66-.48v-1.37ZM51.1,8.14v-.45h-2.96v.45h2.96ZM51.1,9.54v-.47h-2.96v.47h2.96Z"/>
            <path class="cls-4" d="M54.58,5.56h3.73v-.37s0-.48-.04-.77c1.59.03,1.88.1,1.88.22,0,.07-.12.15-.34.2,0,.17-.03.37-.03.59v.13h3.82v1.28h-9.01v-1.28ZM55.45,7.74h2.87v-.06s0-.38-.03-.72c0,0,1.36.05,1.59.08.12,0,.19.06.19.11,0,.06-.09.13-.29.17-.01.14-.02.33-.02.42h2.99v2.46c0,.29,0,.81,0,.96,0,1.09-.88,1.4-1.82,1.4-.09,0-.18,0-.27,0-.11,0-.12-.04-.12-.06-.05-.35-.73-1.34-.73-1.34.39.04.72.08.97.08.38,0,.59-.08.59-.37v-1.95h-1.62v4.75h-1.44v-4.75h-1.46v3.7h-1.4v-4.87Z"/>
          </g>
          <g>
            <path class="cls-4" d="M74.8,10.84c0,.52.28,1.07.86,1.07s.87-.39.87-.92v-5.86h1.78v5.91c0,1.66-1.1,2.34-2.63,2.34s-2.62-.81-2.64-2.54h1.76Z"/>
            <path class="cls-4" d="M80.82,5.13h1.79v8.08h-1.79V5.13Z"/>
            <path class="cls-4" d="M85.31,5.13h2.03l2.54,4.5c.18.32.49,1,.68,1.36,0,0-.04-1.16-.04-1.38l-.05-4.48h1.71v8.08h-1.98l-2.59-4.76c-.12-.21-.52-1.08-.69-1.42,0,0,.04,1.26.04,1.48l.04,4.7h-1.68V5.13Z"/>
            <path class="cls-4" d="M104.68,10.32c-.29,1.85-1.42,3.05-3.71,3.05-2.76,0-4.03-2.09-4.03-4.19s1.41-4.22,4-4.22c1.63,0,3.45.9,3.69,3.01h-1.83c-.2-1.07-.98-1.48-1.81-1.48-1.38,0-2.22,1.18-2.22,2.7s.8,2.6,2.2,2.6,1.77-.93,1.87-1.47h1.85Z"/>
            <path class="cls-4" d="M108.62,5.05h1.74l3.11,8.17h-1.86l-.67-1.82h-2.88l-.67,1.82h-1.87l3.11-8.17ZM110.53,9.91l-.66-1.85c-.1-.27-.27-.78-.38-1.16-.1.39-.25.84-.37,1.16l-.67,1.85h2.09Z"/>
            <path class="cls-4" d="M114.61,5.13h2.92c1.62,0,3.24.46,3.24,2.43,0,.81-.46,1.79-1.47,2.12.31.3.55.66.78,1.05.49.83.92,1.7,1.5,2.48h-1.97c-.32-.48-.69-1.17-1-1.75-.31-.58-.73-1.28-.97-1.45h-1.33v3.2h-1.7V5.13ZM117.61,8.58c.82,0,1.39-.32,1.39-1.03,0-.58-.34-.97-1.56-.97h-1.14v2h1.31Z"/>
            <path class="cls-4" d="M122.6,5.13h5.65v1.48h-3.93v1.68h3.5v1.47h-3.5v1.95h4.18v1.5h-5.9V5.13Z"/>
          </g>
        </g>
      </g>
    </g>
  </g>
</svg>