<?xml version="1.0" encoding="UTF-8"?>
<svg xmlns="http://www.w3.org/2000/svg" viewBox="0 0 162.46 27.08">
  <defs>
    <style>
      .cls-1 {
        isolation: isolate;
      }

      .cls-2 {
        fill: #231815;
      }

      .cls-3 {
        fill: #22ac38;
        mix-blend-mode: multiply;
      }

      .cls-4 {
        fill: #fff;
      }

      .cls-5 {
        fill: #8fc31f;
      }
    </style>
  </defs>
  <g class="cls-1">
    <g id="_レイヤー_2" data-name="レイヤー 2">
      <g id="_テキスト1" data-name="テキスト1">
        <g>
          <g>
            <rect class="cls-5" width="162.46" height="17.49"/>
            <rect class="cls-3" width="8.29" height="17.49"/>
          </g>
          <g>
            <path class="cls-4" d="M14.99,11.43c-.3.25-.6.48-.92.68-.03.01-.05.02-.06.02-.02,0-.03,0-.06-.03-.23-.26-1.27-.77-1.27-.77,1.05-.4,2.11-1.22,2.86-2.21h-2.49v-1.23h8.96v1.23h-5.04c-.15.23-.31.46-.49.7h4.52v3.78h-1.35s0-.43,0-.43h-3.34v.51h-1.35l.02-2.25ZM13.89,5.76s-.01-.58-.03-.93c0,0,1.03,0,1.47.06.1,0,.16.06.16.1,0,.06-.08.13-.27.17-.02.29-.02.62-.02.62v.35h1.6v-.82s0-.58-.03-.93h.18c1.46,0,1.51.08,1.51.16,0,.06-.09.13-.28.17-.02.29-.02.62-.02.62v.8h1.71v-.37s0-.58-.03-.93c0,0,1.03,0,1.47.07.1.01.16.05.16.1,0,.06-.09.13-.28.17-.02.29-.02.62-.02.62v1.8h-1.3v-.3h-4.67v.3h-1.31v-1.83ZM19.64,11.95v-.97h-3.31v.97s3.31,0,3.31,0Z"/>
            <path class="cls-4" d="M23.36,9.25h3.96v-.89h-3.45v-1.3h3.45v-.79c-.86.07-1.75.11-2.57.12-.06,0-.1,0-.11-.06-.07-.33-.88-1.29-.88-1.29.43.02.88.03,1.33.03,2.17,0,4.44-.24,5.66-.56.02.03.64.84.88,1.26.03.05.04.09.04.12,0,.05-.04.08-.09.08-.09,0-.21-.06-.32-.16-.64.1-1.51.22-2.49.32v.93h3.2v1.3h-3.2v.89h3.71v1.3h-3.71v.34c0,.49.02.86.02.93v.07c0,1.39-1.23,1.65-2.31,1.65-.16,0-.32,0-.47,0-.11,0-.12-.03-.13-.07-.08-.34-.91-1.47-.91-1.47.62.09,1.12.16,1.5.16.56,0,.85-.15.85-.61v-.99h-3.96v-1.3Z"/>
            <path class="cls-4" d="M36.28,11.02c.1.07.86.51,1.15.76.08.07.12.13.12.17,0,.05-.06.08-.14.08-.07,0-.15-.02-.22-.06-.64.57-1.35,1.2-2.34,1.57-.03,0-.06.02-.08.02s-.04,0-.06-.04c-.21-.34-1.14-.93-1.14-.93,1.9-.45,2.6-1.41,2.71-1.57ZM34.28,6.09s-.02-.51-.03-.8c0,0,1.32.04,1.54.08.11.02.17.06.17.11,0,.06-.09.13-.29.17-.01.14-.02.46-.02.46v3.78h7.13v1.09h-3.78v2.72h-1.33v-2.72h-2.02v.41h-1.37v-5.3ZM36.27,4.68h5.41v4.89h-1.37v-.14h-2.72v.18h-1.32v-4.93ZM40.31,6.05v-.4h-2.72v.4h2.72ZM40.31,7.3v-.43h-2.72v.43h2.72ZM40.31,8.56v-.44h-2.72v.44h2.72ZM40.32,11.02c.2.19,1.31,1.04,2.8,1.4,0,0-.97.62-1.23,1.02-.02.04-.04.05-.07.05-.12,0-1.41-.6-2.55-1.74l1.05-.73Z"/>
            <path class="cls-4" d="M47.98,6.96c-1.17,2.09-2.16,2.89-2.24,2.89,0,0-.02,0-.04-.02-.29-.19-1.5-.57-1.5-.57,2.05-1.42,3.15-4.21,3.29-4.76,0,0,1.33.23,1.54.31.15.05.22.11.22.16,0,.08-.14.13-.37.14,0,0-.11.26-.3.66h1.52s.14-.08.21-.08c.02,0,1.03.63,1.03.76,0,.06-.08.1-.19.16-.25.66-.6,1.57-1.11,2.52.53.99,1.64,2.61,3.57,3.39,0,0-1.21.66-1.57.98-.02.02-.03.02-.04.02-.13,0-1.64-1-2.77-3.07-1.75,2.5-3.79,3.12-3.81,3.12-.02,0-.04-.01-.06-.03-.24-.23-1.53-.91-1.53-.91,3.6-1.13,4.99-4.02,5.61-5.67h-1.46Z"/>
            <path class="cls-4" d="M57.02,11.38h-.05c-.39.96-1.19,1.85-1.3,1.85-.02,0-.04,0-.06-.02-.31-.19-1.38-.43-1.38-.43.79-.47,1.44-1.52,1.6-2.04.07,0,.85.24,1.2.36,0-.12,0-.34-.02-.55,0,0,.93.04,1.37.08l.7-.5c.07.04.15.08.23.12v-.03c-.04-.09-.07-.21-.1-.34l-.68.34c-.03-.12-.07-.24-.11-.36-.61.1-1.96.32-3.15.43v.05c0,.13-.04.25-.1.25-.04,0-.1-.06-.16-.23-.14-.39-.31-1.15-.31-1.15.35,0,.77-.02,1.2-.04l.23-.24c-.29-.27-.75-.67-1.31-1l.71-.8c.07.04.14.09.22.14.21-.3.4-.59.5-.78h-1.58v-1.13h2.37c-.22-.38-.48-.66-.48-.66l1.36-.26s.38.45.62.92h1.09c.15-.26.34-.61.46-.96,0,0,1.32.18,1.47.23.1.03.16.09.16.14,0,.07-.07.12-.23.12h-.06c-.08.15-.19.31-.3.47h2.4v1.13h-2.72c.74.22.8.26.8.34,0,.05-.05.09-.16.09-.04,0-.08-.01-.14-.02-.09.15-.5.62-.88,1.02.11.1.2.2.28.28.55-.58,1.06-1.16,1.2-1.44.04.02,1.09.61,1.09.78,0,.04-.05.07-.12.07-.05,0-.12,0-.18-.04-.07.07-.73.73-1.45,1.42.28-.02.53-.04.75-.07-.07-.12-.15-.24-.24-.35l.96-.39c.08.1.74.94.98,1.69l-1.07.54c-.06-.2-.13-.41-.21-.62-.65.11-1.78.27-2.87.37,0,.09-.03.15-.07.19.38.21.78.47,1.05.75l-.92.91c-.28-.33-.75-.76-1.2-1.07-.03.23-.04.69-.04.92,0,.31.15.42.92.42.97,0,1.19-.05,1.19-1.04,0,0,.91.71,1.34.86.05.02.06.04.06.07,0,.02-.01.04-.01.06-.16.85-.69,1.28-2.45,1.28-1.05,0-2.42-.07-2.42-1.28v-.05l.02-.8ZM59.43,7.11c.08.05.15.1.23.15.21-.3.4-.58.49-.77h-3.14c.67.2.72.26.72.34,0,.04-.06.08-.18.08-.03,0-.08,0-.13,0-.1.15-.5.61-.87,1.01.11.09.2.18.29.26.52-.57,1.02-1.14,1.17-1.44.96.55,1.09.63,1.09.74l.33-.36ZM58.76,8.3c.05.07.3.38.52.81.18,0,.38,0,.57-.02l.12-.12c-.29-.31-.78-.78-1.26-1.07l.34-.37s-.06,0-.1,0-.1,0-.16-.02c-.07.07-.77.82-1.53,1.56.3-.03.56-.05.77-.07-.08-.13-.16-.26-.25-.37l.98-.34ZM62.09,10.42c.54.36,1.47,1.37,1.74,1.83l-1.19.79c-.32-.73-1.1-1.59-1.63-1.96l1.08-.66Z"/>
            <path class="cls-4" d="M64.97,5.49h3.73v-.37s0-.48-.04-.77c1.59.03,1.88.1,1.88.22,0,.07-.12.15-.34.2,0,.17-.03.37-.03.59v.13h3.82v1.28h-9.01v-1.28ZM65.84,7.67h2.87v-.06s0-.38-.03-.72c0,0,1.36.05,1.59.08.12,0,.19.06.19.11,0,.06-.09.13-.29.17-.01.14-.02.33-.02.42h2.99v2.46c0,.29,0,.81,0,.96,0,1.09-.88,1.4-1.82,1.4-.09,0-.18,0-.27,0-.11,0-.12-.04-.12-.06-.05-.35-.73-1.34-.73-1.34.39.04.72.08.97.08.38,0,.59-.08.59-.37v-1.95h-1.62v4.75h-1.44v-4.75h-1.46v3.7h-1.4v-4.87Z"/>
          </g>
          <g>
            <path class="cls-2" d="M20.44,22.13c-.17.39-.25.54-.49.9-.18-.2-.39-.36-.58-.48.35-.47.54-.87.71-1.48.06-.25.07-.29.1-.55l.73.13c-.03.07-.08.23-.13.46-.03.12-.05.2-.09.33h.8c.29,0,.46,0,.62-.04v.74c-.18-.02-.38-.03-.63-.03h-.06c0,.48-.02.85-.04,1.1h.24c.27,0,.41,0,.59-.04v.78c-.19-.02-.34-.03-.61-.03h-.3c-.01.1-.02.13-.04.25.31.55.57.83,1.07,1.18-.24.27-.35.4-.5.64-.36-.34-.57-.6-.79-.96-.25.69-.59,1.21-1.16,1.76-.16-.25-.32-.46-.5-.64.68-.57,1.06-1.27,1.22-2.23h-.43c-.31,0-.48,0-.68.04v-.8c.2.04.35.04.69.04h.5c.02-.23.03-.6.03-1.1h-.27ZM24.08,26.03c.27-.58.41-.96.57-1.62l.73.25c-.19.57-.33.92-.56,1.37h.41c.33,0,.48,0,.71-.03v.79c-.22-.03-.38-.04-.71-.04h-2.51c-.33,0-.49,0-.71.04v-.79c.22.03.38.03.71.03h1.35ZM22.26,20.84c.21.03.36.04.71.04h2.15c.34,0,.5,0,.71-.04v.78c-.22-.02-.39-.03-.71-.03h-2.15c-.31,0-.49,0-.71.03v-.78ZM25.52,23.72c0,.29,0,.43.03.64-.21-.02-.39-.03-.67-.03h-1.79c-.27,0-.47,0-.67.03.02-.22.03-.36.03-.64v-.99c0-.29,0-.43-.03-.65.19.02.38.03.71.03h1.71c.32,0,.51,0,.71-.03-.02.21-.03.35-.03.65v.99ZM23.14,25.94c-.17-.5-.32-.84-.58-1.25l.65-.29c.29.48.43.78.61,1.25l-.68.29ZM23.17,23.64h1.61v-.84h-1.61v.84Z"/>
            <path class="cls-2" d="M32.11,22.22c.28,0,.46,0,.62-.04-.02.19-.03.39-.03.67v3.34c0,.59-.24.72-1.27.72-.12,0-.29,0-.56-.01-.04-.27-.09-.48-.22-.74.37.04.67.06.91.06.31,0,.37-.04.37-.2v-.71h-3.61c-.16.71-.38,1.16-.84,1.7-.19-.2-.38-.35-.66-.54.38-.4.53-.64.69-1.17.15-.47.24-1.3.24-2.35v-.2c-.2.15-.33.25-.6.41-.13-.31-.17-.39-.37-.69.62-.34,1.25-.87,1.64-1.36.23-.29.36-.5.41-.67l.87.15q-.05.07-.12.17s-.04.06-.14.2h1.15c.34,0,.52,0,.69-.03l.43.36c-.11.12-.11.13-.27.32-.15.2-.37.46-.53.61h1.21ZM30.04,22.22c.22-.24.31-.36.48-.59h-1.61c-.25.31-.36.41-.54.59h1.67ZM29.8,24.66v-.6h-1.32c-.01.24-.03.35-.06.6h1.37ZM28.51,22.88v.55h1.29v-.55h-1.29ZM31.93,22.88h-1.39v.55h1.39v-.55ZM31.93,24.06h-1.39v.6h1.39v-.6Z"/>
            <path class="cls-2" d="M35.4,22.65c-.27.45-.49.74-.8,1.06-.22-.23-.36-.33-.67-.49.67-.58,1.21-1.55,1.35-2.4l.81.29c-.05.11-.07.17-.13.34-.1.27-.12.34-.19.48h.99v-.64c0-.31-.01-.49-.04-.69h.88c-.04.19-.04.38-.04.69v.64h1.51c.35,0,.54,0,.74-.04v.8c-.22-.03-.41-.04-.74-.04h-1.51v1.35h1.87c.33,0,.59-.01.83-.05v.83c-.23-.04-.52-.05-.83-.05h-1.87v1.51c0,.37,0,.59.04.78h-.88c.03-.21.04-.43.04-.78v-1.51h-1.95c-.31,0-.57.01-.82.05v-.83c.24.04.5.05.82.05h1.95v-1.35h-1.36Z"/>
            <path class="cls-2" d="M42.33,23.18c-.34,0-.52,0-.72.02.02-.17.03-.34.03-.61v-.81c0-.27,0-.42-.03-.59.2.02.43.03.78.03h1.46c0-.3-.01-.46-.05-.67h.86c-.03.2-.04.36-.04.67h1.58c.36,0,.57,0,.78-.03-.02.17-.03.31-.03.59v.81c0,.29,0,.43.03.61-.2-.01-.42-.02-.72-.02h-1.64v.53h1.93c.34,0,.52,0,.71-.03-.02.2-.03.36-.03.68v1c0,.34,0,.53.04.74h-.81v-.33h-1.84v.36c0,.46,0,.67.04.92h-.86c.04-.26.05-.53.05-.92v-.35h-1.74v.33h-.81c.02-.24.04-.46.04-.74v-1c0-.27,0-.47-.03-.67.2.01.38.02.69.02h1.84v-.53h-1.51ZM42.1,24.37v.71h1.74v-.71h-1.74ZM42.39,21.89v.65h1.45v-.65h-1.45ZM44.61,22.54h1.57v-.65h-1.57v.65ZM44.61,25.08h1.84v-.71h-1.84v.71Z"/>
            <path class="cls-2" d="M51.12,24.65c-.32,0-.5,0-.68.03v-.71c.16.02.27.03.54.03h.09v-.61h-.12c-.23,0-.35,0-.55.04v-.59c-.16.2-.24.29-.44.49-.04.57-.05.81-.11,1.15.23.36.51.65.83.9-.18.26-.27.4-.39.69-.29-.3-.45-.5-.62-.76-.22.71-.5,1.23-.96,1.71-.15-.25-.29-.42-.5-.6.4-.41.63-.83.8-1.46.2-.66.27-1.65.27-3.32,0-.6,0-.75-.05-1.02h.8q-.04.23-.04,1.34c0,.15,0,.24,0,.46.19-.28.28-.44.36-.62l.53.41c-.09.12-.22.29-.39.51.13.01.24.02.45.02h.12v-.22c0-.14,0-.22-.03-.33h.7c-.01.09-.02.17-.02.32v.24h1.51v-.23c0-.14,0-.21-.02-.32h.72c-.02.1-.03.19-.03.32v.23h.27c.25,0,.39,0,.58-.03v.73c-.19-.03-.34-.04-.58-.04h-.27v.61h.11c.29,0,.44,0,.64-.04v.73c-.22-.03-.42-.04-.71-.04h-.58v1.44c0,.14.04.16.41.16.18,0,.29-.04.31-.13.04-.12.06-.34.07-.74.2.13.34.19.66.28-.04.64-.11.95-.28,1.1-.13.12-.41.18-.9.18-.78,0-.97-.11-.97-.55v-1.73h-.55c-.04.43-.07.61-.17.88-.25.74-.71,1.18-1.6,1.54-.12-.29-.23-.46-.44-.64.5-.16.77-.32,1.04-.61.28-.3.42-.68.44-1.18h-.25ZM48.26,23.77c.11-.33.13-.48.17-.86.04-.33.05-.6.05-.81v-.18l.59.07c-.02.9-.08,1.46-.22,2.07l-.58-.29ZM52.8,22.11c0,.22,0,.29.02.41h-.71c.01-.11.02-.22.02-.41v-.24h-.8c-.25,0-.5.01-.68.04v-.73c.22.03.38.04.68.04h.8v-.18c0-.2,0-.31-.04-.47h.74c-.03.14-.03.27-.03.48v.17h1.02c.27,0,.47-.01.67-.04v.74c-.2-.02-.42-.04-.65-.04h-1.04v.23ZM53.23,24v-.61h-1.51v.61h1.51Z"/>
            <path class="cls-2" d="M56.02,21.67c.2.02.36.03.67.03.53,0,.91-.02,1.44-.08q-.02-.06-.08-.18c-.17-.41-.27-.62-.28-.64l.88-.12c.03.18.1.39.29.85.6-.08,1.41-.26,1.89-.42l.07.74q-.07.01-.24.05c-.47.11-1.25.27-1.46.29.11.26.15.35.27.58.6-.13.92-.2.96-.2.4-.1.48-.13.67-.2l.07.76c-.13.02-.28.05-.44.09-.29.07-.52.12-.69.15q-.18.04-.26.06c.36.6.48.75.94,1.28l-.62.44c-.5-.21-.92-.29-1.61-.29-.53,0-.94.07-1.18.2-.2.11-.3.26-.3.43s.12.33.3.41c.22.1.6.15,1,.15.73,0,1.71-.21,2.16-.46l.13.86q-.13.02-.46.11c-.59.16-1.18.24-1.79.24-.8,0-1.32-.1-1.71-.34-.34-.21-.54-.57-.54-.96s.21-.73.59-.97c.36-.23.92-.35,1.63-.35.43,0,.83.05,1.21.15-.11-.11-.24-.3-.54-.79-.74.11-1.19.14-2.71.19-.12,0-.17,0-.29.02l-.03-.76c.2.03.25.03.72.03.73,0,1.32-.04,1.98-.13-.04-.08-.07-.13-.12-.26-.07-.15-.09-.19-.15-.32-.56.06-1.06.09-1.88.1-.29,0-.33,0-.48.01l-.04-.74Z"/>
            <path class="cls-2" d="M64.54,27.07c-.39-.56-.57-.87-.76-1.38-.25-.64-.37-1.26-.37-1.93s.11-1.24.36-1.87c.2-.51.37-.82.77-1.38h.98c-.49.62-.69.93-.89,1.39-.25.57-.37,1.17-.37,1.86s.12,1.34.37,1.92c.2.46.39.77.89,1.39h-.98Z"/>
            <path class="cls-2" d="M66.3,21.95c.11,0,.16,0,.22,0,.17,0,.55-.02.9-.05.01-.41.01-.53.01-.83,0-.18,0-.23,0-.39h.88q-.04.21-.08,1.16s.06-.01.11-.03l.26.3c-.08.06-.09.08-.39.42l-.02.49c.22-.22.38-.35.62-.52.76-.55,1.17-.72,1.7-.72,1.02,0,1.6.84,1.6,2.35,0,.39-.03.67-.09,1.01.11.07.15.11.46.34q.05.04.13.11s.04.03.08.06l-.33.84c-.15-.18-.31-.34-.63-.58-.09.2-.17.29-.32.42-.27.21-.67.34-1.09.34-.8,0-1.35-.43-1.35-1.08s.53-1.07,1.3-1.07c.33,0,.61.06.96.21.04-.22.06-.36.06-.6,0-1.04-.29-1.55-.89-1.55-.32,0-.66.14-1.13.48-.35.25-.69.53-1.07.91,0,2.06,0,2.45.05,2.84h-.92q.04-.26.04-1.92c0-.11,0-.15.01-.26-.07.09-.21.26-.37.43-.33.36-.38.43-.5.57l-.42-.82c.16-.1.34-.27,1.29-1.2q0-.43.02-1.01-.85.06-1.06.11l-.04-.79ZM70.29,25.22c-.33,0-.56.17-.56.41,0,.21.24.36.57.36.15,0,.32-.04.45-.11.12-.07.22-.18.28-.31.03-.05.04-.08.04-.09-.31-.19-.51-.26-.78-.26Z"/>
            <path class="cls-2" d="M78.16,22.04c-.07.01-.13.03-.15.03-.02,0-.08.02-.17.04-.29.07-.54.12-.86.16.11.25.16.36.27.57,1.06-.22,1.41-.3,1.63-.41l.07.76c-.11.01-.21.04-.39.08l-.48.11-.44.09-.07.02c.34.56.51.8.94,1.28l-.62.44c-.51-.21-.93-.29-1.61-.29-.53,0-.94.07-1.18.2-.2.11-.3.26-.3.43s.12.33.3.41c.22.1.6.15,1,.15.73,0,1.72-.21,2.16-.46l.12.87c-.08.01-.12.02-.19.04-.03,0-.08.02-.15.04l-.12.03c-.6.16-1.18.24-1.79.24-.8,0-1.32-.1-1.71-.34-.34-.21-.54-.57-.54-.96s.21-.73.59-.97c.37-.23.93-.35,1.63-.35.43,0,.83.05,1.21.15-.09-.08-.28-.35-.54-.78-.67.11-1.31.15-2.71.19-.12,0-.17,0-.29.02l-.03-.76c.2.03.24.03.72.03.75,0,1.3-.04,1.98-.13-.04-.08-.06-.12-.12-.26-.07-.15-.09-.19-.15-.32-.54.07-1.05.1-1.88.1-.28,0-.34,0-.48.01l-.04-.74c.2.02.37.03.67.03.53,0,.92-.02,1.44-.08l-.02-.06c-.09-.22-.14-.33-.22-.54-.06-.13-.06-.14-.11-.22l.88-.12c0,.12.1.38.29.85.46-.06,1.2-.22,1.34-.29l.1.73ZM78.36,20.64c.3.37.48.64.67,1.07l-.51.22c-.2-.44-.38-.74-.67-1.09l.51-.2ZM79.41,21.58c-.2-.43-.41-.76-.65-1.06l.49-.2c.3.36.49.64.67,1.03l-.5.23Z"/>
            <path class="cls-2" d="M85.92,26.53c-.31-.34-.79-.7-1.3-.96-.15-.08-.21-.1-.38-.17v.08c0,.44-.13.74-.39.95s-.64.3-1.16.3c-1.02,0-1.61-.4-1.61-1.09,0-.76.69-1.21,1.87-1.21.17,0,.29,0,.47.03q0-.08,0-.17v-.15q0-.1-.01-.38c-.34,0-.55.01-.7.01-.43,0-.69,0-1.27-.05-.09,0-.16,0-.27,0l.02-.76c.3.07.96.12,1.63.12.14,0,.38,0,.57-.01,0-.06,0-.3,0-.7-.22,0-.34,0-.44,0-.34,0-1.25-.04-1.72-.07-.08,0-.13,0-.15,0h-.11v-.78c.36.09,1.09.15,1.89.15.11,0,.35,0,.53-.01,0-.7,0-.71-.04-.88h.89c-.03.19-.04.28-.05.85.95-.06,1.56-.13,2.02-.27l.04.78q-.15,0-.55.06c-.62.08-.89.1-1.51.14,0,.18,0,.26.01.69q.35-.02.99-.09c.44-.06.55-.07.87-.15l.02.77c-.12,0-.29.03-.46.05-.1.01-.42.05-.95.1-.1,0-.2.01-.47.03q.02.68.03.85c.62.18,1.16.46,1.92.99.12.08.15.1.25.16l-.48.82ZM82.86,25.1c-.57,0-.91.18-.91.48,0,.26.3.42.8.42.29,0,.51-.08.61-.22.06-.09.08-.24.08-.45v-.17c-.23-.05-.37-.06-.58-.06Z"/>
            <path class="cls-2" d="M87.44,27.07c.5-.62.69-.93.89-1.39.25-.58.37-1.21.37-1.92s-.11-1.28-.36-1.86c-.2-.46-.41-.78-.9-1.39h.99c.39.55.56.86.76,1.38.25.64.36,1.2.36,1.87s-.12,1.29-.36,1.93c-.2.51-.37.82-.76,1.38h-.99Z"/>
            <path class="cls-2" d="M97.55,20.5l-5.31,6.58h-1.03l5.3-6.58h1.04Z"/>
            <path class="cls-2" d="M101.36,22.21c-.43.77-.93,1.36-1.64,1.95-.19-.27-.34-.42-.61-.6.76-.56,1.29-1.2,1.71-2.03.2-.41.3-.67.34-.96l.89.14c-.05.1-.07.14-.14.32-.06.15-.13.29-.2.47h1.21c.26,0,.4,0,.55-.04l.38.38q-.08.18-.18.48c-.21.56-.44,1.05-.74,1.54.18.34.46.73.76,1.06.26.29.6.57,1.06.88.27.18.39.25.74.4-.24.24-.38.45-.54.78-1.13-.64-1.94-1.44-2.47-2.44-.29.36-.62.73-1.06,1.12-.3.27-.68.56-1.11.84-.29.18-.44.27-.85.47-.15-.32-.31-.52-.53-.7.99-.45,1.65-.89,2.32-1.56.74-.73,1.13-1.37,1.55-2.51h-1.46Z"/>
            <path class="cls-2" d="M106.3,26.39c.41-.44.61-.79.83-1.45l.67.34c-.29.76-.43,1.02-.85,1.58l-.64-.48ZM109.8,22.36c.12.09.13.1.24.18.2-.22.36-.43.5-.66h-2.3l.29.19q-.07.08-.23.27c-.14.17-.39.46-.53.59.12.11.15.14.25.24.46-.5.65-.73.77-.96l.57.43c-.09.08-.24.25-.41.43-.41.46-.65.69-1.07,1.06.44-.02.59-.03.82-.04-.07-.15-.1-.21-.22-.39l.55-.21c.25.43.38.71.52,1.18l-.6.21c-.02-.1-.03-.14-.06-.26-.49.06-.88.09-2.09.15-.11,0-.12,0-.27.03l-.09-.7c.17.02.31.03.59.04q.27-.24.53-.5c-.34-.35-.52-.5-1-.88l.43-.48c.16.12.22.16.32.25.28-.31.36-.41.53-.66h-.66c-.32,0-.55.01-.79.04v-.74c.2.03.46.04.82.04h1c-.14-.2-.28-.36-.46-.52l.65-.23c.24.25.43.47.62.75h.99c.26-.27.39-.46.57-.76l.72.26q-.06.06-.17.22s-.09.11-.26.29h.96c.32,0,.57-.01.81-.04v.74c-.21-.03-.46-.04-.79-.04h-.97l.32.19s-.04.04-.04.06t-.08.1c-.15.19-.43.52-.6.69.13.11.18.15.28.25.43-.46.71-.82.79-.99l.59.4s-.04.05-.08.08c-.02.01-.07.08-.16.17t-.28.32c-.18.21-.53.56-.9.91.39-.02.71-.05.95-.08-.06-.12-.1-.18-.22-.36l.55-.24c.34.54.48.81.71,1.4l-.61.25c-.09-.25-.12-.34-.19-.5-.56.09-.97.13-1.86.2-.21.01-.28.02-.39.04l-.13-.71c.09.02.16.02.32.02q.35-.34.45-.43c-.32-.32-.66-.59-.98-.81l.45-.47ZM108.8,24.97c-.02.16-.03.3-.03.48v.62c0,.21.08.23.8.23.64,0,.84-.03.91-.12.06-.08.1-.29.1-.57v-.08c.24.11.44.18.71.24-.04.6-.13.83-.34.99-.18.13-.47.16-1.41.16-1.32,0-1.47-.06-1.47-.59v-.8c0-.19-.02-.38-.04-.55h.76ZM109.91,25.99c-.22-.27-.54-.6-.82-.83l.5-.38c.43.35.47.38.84.78l-.52.44ZM112.03,26.78c-.33-.74-.5-1.04-.96-1.6l.66-.29c.47.58.69.92.98,1.49l-.68.41Z"/>
            <path class="cls-2" d="M116.33,21.08c0-.2-.02-.41-.04-.52h.88c-.04.15-.05.32-.05.51v.35h1.98c.38,0,.63-.01.88-.05v.8c-.23-.04-.43-.04-.86-.04h-4.64c-.33,0-.6.01-.86.04v-.8c.27.04.53.05.88.05h1.83v-.34ZM116.33,22.8c0-.18,0-.36-.03-.51h.84c-.02.08-.03.25-.03.51v.08h1.62c.31,0,.48,0,.69-.03-.02.19-.03.35-.03.6v2.07c0,.63-.2.79-1.02.79-.16,0-.29,0-.58-.03-.04-.32-.06-.42-.19-.75.32.05.54.07.69.07.29,0,.35-.04.35-.22v-1.82h-1.53v2.6c0,.34.01.58.05.86h-.88c.04-.29.05-.53.05-.85v-2.61h-1.39v2.01c0,.39,0,.6.04.83h-.86c.03-.27.04-.5.04-.82v-2.13c0-.22,0-.4-.03-.6.22.02.42.03.72.03h1.47v-.08Z"/>
            <path class="cls-2" d="M121.57,22.66c-.06.38-.13.67-.25,1.03-.2-.15-.37-.23-.61-.32.22-.57.36-1.39.36-2.08,0-.04,0-.09-.01-.17l.69.08c-.03.13-.03.14-.04.36v.1s-.04.29-.04.29h.32v-.83c0-.21-.01-.38-.05-.57h.83c-.03.18-.04.34-.04.57v.83h.06c.25,0,.41-.01.56-.04v.74c.22.01.39.02.64.02h.8v-.68h-.59c-.29,0-.51.01-.72.04v-.76c.2.03.41.04.72.04h.59v-.22c0-.2-.01-.35-.04-.53h.81c-.03.16-.04.31-.04.52v.22h.76c.31,0,.53-.01.74-.04v.76c-.21-.02-.44-.04-.74-.04h-.76v.68h.95c.35,0,.61-.01.79-.04v.76c-.22-.03-.48-.04-.73-.04h-.04v.59h.06c.34,0,.51,0,.69-.04v.77c-.22-.03-.41-.04-.69-.04h-.06v1.67c0,.53-.22.67-1.04.67-.12,0-.38,0-.59-.02-.02-.32-.08-.53-.18-.77.4.06.63.08.82.08.22,0,.27-.04.27-.21v-1.42h-1.83c-.29,0-.46,0-.69.04v-.32c-.2.09-.32.15-.5.22v1.67c0,.31.01.57.04.81h-.83c.03-.16.05-.5.05-.81v-1.39c-.17.06-.32.12-.47.17-.37.13-.46.17-.53.2l-.18-.8c.25-.03.53-.11,1.18-.32v-1.44h-.41ZM122.72,23.85c.27-.11.36-.14.6-.25v.31c.17.01.37.02.68.02h1.74v-.59h-1.77c-.37,0-.58,0-.79.04v-.72c-.15,0-.24,0-.36,0h-.11v1.19ZM124.1,24.66c.36.33.62.64.92,1.07l-.61.46c-.28-.47-.48-.74-.89-1.15l.58-.38Z"/>
            <path class="cls-2" d="M129.9,24.88c-.11.15-.18.22-.36.43-.14-.2-.25-.33-.41-.48-.13,1.02-.32,1.62-.69,2.19-.23-.35-.33-.47-.56-.69.21-.36.31-.57.4-.92.14-.55.22-1.33.22-2.33,0-.28-.01-.54-.04-.77.27.03.48.04.8.04h.72c-.07-.26-.11-.34-.24-.6h-.6c-.37,0-.52,0-.71.03v-.76c.19.03.4.04.76.04h1.72v-.07c0-.15-.01-.28-.04-.44h.86c-.03.15-.04.27-.04.44v.07h1.71c.37,0,.59-.01.79-.04v.76c-.2-.02-.38-.03-.75-.03h-.54c-.14.31-.18.39-.29.6h.92c.38,0,.59,0,.79-.04v.71c-.22-.03-.42-.04-.79-.04h-4.33c0,.81-.01,1.1-.06,1.63.2-.2.34-.38.49-.66.16-.29.22-.45.36-.9l.71.16q-.07.17-.15.38h.78c0-.22,0-.33-.03-.45h.8c-.02.15-.03.25-.03.45h1.26c.34,0,.5,0,.67-.04v.74c-.2-.02-.36-.03-.68-.03h-1.25v.55h1.05c.33,0,.46,0,.63-.03v.69c-.2-.02-.32-.03-.63-.03h-1.05v.68h1.58c.28,0,.49-.01.66-.04v.75c-.21-.03-.42-.04-.69-.04h-3.89c-.24,0-.43,0-.67.04v-.74c.17.03.36.04.66.04h1.6v-.68h-.81c-.25,0-.45,0-.64.03v-.61ZM130.26,24.28c-.12.22-.19.35-.32.53.14.01.3.02.6.02h.82v-.55h-1.09ZM131.85,22.34c.13-.23.18-.34.27-.6h-1.57c.11.24.15.35.24.6h1.06Z"/>
            <path class="cls-2" d="M135.41,24.47c0-.25,0-.47-.03-.67.21.02.39.03.68.03h1.53c.2,0,.36,0,.53-.02-.02.15-.02.25-.02.61v1.87c0,.29,0,.48.03.63h-.76v-.25h-1.22v.36h-.78c.03-.2.04-.39.04-.76v-1.8ZM136.15,25.98h1.22v-1.48h-1.22v1.48ZM136.34,21.38c0-.25,0-.44-.03-.62.21.03.41.04.79.04h2.64c.39,0,.62,0,.8-.04-.02.17-.03.35-.03.62v1.3c0,.29,0,.46.03.65-.22-.02-.36-.03-.73-.03h-2.77c-.37,0-.52,0-.73.03.02-.2.03-.39.03-.64v-1.3ZM137.09,22.61h2.67v-1.12h-2.67v1.12ZM140.85,23.82c.29,0,.45,0,.62-.03-.02.2-.03.38-.03.67v1.81c0,.38,0,.56.04.75h-.79v-.36h-1.33v.36h-.75c.01-.2.02-.34.02-.62v-2.02c0-.32,0-.43-.01-.57.16.01.31.02.52.02h1.71ZM139.36,25.98h1.34v-1.48h-1.34v1.48Z"/>
          </g>
          <g>
            <path class="cls-4" d="M78.72,14.01c-.57-1.18-.88-3.15-.88-4.88s.31-3.7.88-4.88h.84c-.82,1.71-1.03,3.38-1.03,4.88s.21,3.17,1.03,4.88h-.84Z"/>
            <path class="cls-4" d="M80.06,8.37h3.89v1.48h-3.89v-1.48Z"/>
            <path class="cls-4" d="M85.21,10.44c-.18.35-.32.59-.34.59,0,0-.02-.02-.03-.06-.07-.32-.42-.99-.42-.99.65-.67,1.06-1.92,1.2-2.62l-.97.03v-1.17h.58v-.98c0-.14,0-.38-.01-.57,0,0,.6.04.69.08.04.02.07.06.07.11,0,.07-.04.14-.13.18,0,.16,0,.44,0,.44v.72h.14s.04-.06.07-.06c.04,0,.4.45.4.58,0,.07-.05.1-.1.14-.09.52-.25,1.21-.48,1.9.22.39.56.89.77,1.15,0,0-.32.61-.39.86-.01.05-.02.07-.03.07-.03,0-.38-.69-.4-.73v3.53s-.62,0-.62,0l.02-3.2ZM86.04,12.11h.95v-3.24h-.73v-1.25h.73v-2.06s0-.57-.01-.82c0,0,.62.03.72.06.04.02.07.06.07.12s-.04.13-.11.17c0,.17,0,.48,0,.48v2.06h.86v1.25h-.86v3.24h1v1.26h-2.59v-1.26Z"/>
            <path class="cls-4" d="M89.02,14.01c.82-1.71,1.03-3.38,1.03-4.88s-.21-3.17-1.03-4.88h.84c.57,1.18.88,3.15.88,4.88s-.31,3.7-.88,4.88h-.84Z"/>
            <path class="cls-4" d="M94.48,7.17c-.86,2.04-1.58,2.82-1.64,2.82,0,0-.01,0-.03-.02-.21-.19-1.1-.56-1.1-.56,1.5-1.38,2.3-4.1,2.4-4.64,0,0,.97.22,1.13.3.11.05.16.11.16.16,0,.08-.1.13-.27.14,0,0-.08.25-.22.64h1.11s.1-.08.15-.08c.01,0,.75.61.75.74,0,.06-.06.1-.14.16-.18.64-.44,1.53-.81,2.46.39.96,1.2,2.54,2.61,3.3,0,0-.88.64-1.15.96-.01.02-.02.02-.03.02-.1,0-1.2-.98-2.03-2.99-1.28,2.44-2.77,3.04-2.78,3.04s-.03,0-.04-.03c-.18-.22-1.12-.89-1.12-.89,2.63-1.1,3.65-3.92,4.1-5.53h-1.07Z"/>
            <path class="cls-4" d="M101.09,11.47h-.04c-.28.94-.87,1.8-.95,1.8-.01,0-.03,0-.04-.02-.23-.18-1.01-.42-1.01-.42.58-.46,1.05-1.48,1.17-1.99.05,0,.62.23.88.35,0-.12,0-.33-.01-.54,0,0,.68.04,1,.08l.51-.49c.05.04.11.08.17.12v-.03c-.03-.09-.05-.21-.07-.33l-.5.33c-.02-.12-.05-.23-.08-.35-.45.1-1.43.31-2.3.42v.05c0,.13-.03.24-.07.24-.03,0-.07-.06-.12-.22-.1-.38-.23-1.12-.23-1.12.26,0,.56-.02.88-.04l.17-.23c-.21-.26-.55-.65-.96-.97l.52-.78c.05.04.1.09.16.14.15-.29.29-.58.37-.76h-1.16v-1.1h1.73c-.16-.37-.35-.64-.35-.64l.99-.25s.28.44.45.9h.8c.11-.25.25-.59.34-.94,0,0,.96.18,1.07.22.07.03.12.09.12.14,0,.07-.05.12-.17.12h-.04c-.06.15-.14.3-.22.46h1.75v1.1h-1.99c.54.21.58.25.58.33,0,.05-.04.09-.12.09-.03,0-.06,0-.1-.02-.07.15-.37.6-.64,1,.08.1.15.19.21.27.4-.57.77-1.13.88-1.4.03.02.8.59.8.76,0,.04-.04.07-.09.07-.04,0-.09,0-.13-.04-.05.07-.53.71-1.06,1.38.2-.02.39-.04.55-.07-.05-.12-.11-.23-.17-.34l.7-.38c.06.1.54.92.72,1.65l-.78.53c-.04-.2-.1-.4-.15-.6-.47.11-1.3.26-2.1.36,0,.09-.02.15-.05.19.28.2.57.46.77.73l-.67.89c-.2-.32-.55-.74-.88-1.04-.02.22-.03.67-.03.9,0,.3.11.41.67.41.71,0,.87-.05.87-1.01,0,0,.67.69.98.84.04.02.04.04.04.07,0,.02,0,.04,0,.06-.12.83-.5,1.25-1.79,1.25-.77,0-1.77-.07-1.77-1.25v-.83ZM102.86,7.31c.06.05.11.1.17.15.15-.29.29-.57.36-.75h-2.29c.49.2.53.25.53.33,0,.04-.04.08-.13.08-.02,0-.06,0-.09,0-.07.15-.37.59-.64.99.08.09.15.17.21.25.38-.56.75-1.11.85-1.4.7.54.8.61.8.72l.24-.35ZM102.37,8.47c.04.07.22.37.38.79.13,0,.28,0,.42-.02l.09-.12c-.21-.3-.57-.76-.92-1.04l.25-.36s-.04,0-.07,0-.07,0-.12-.02c-.05.07-.56.8-1.12,1.52.22-.03.41-.05.56-.07-.06-.13-.12-.25-.18-.36l.72-.33ZM104.8,10.54c.39.35,1.07,1.34,1.27,1.78l-.87.77c-.23-.71-.8-1.55-1.19-1.91l.79-.64Z"/>
            <path class="cls-4" d="M106.91,5.73h2.73v-.36s0-.47-.03-.75c1.16.03,1.37.1,1.37.21,0,.07-.09.15-.25.2,0,.17-.02.36-.02.58v.13h2.79v1.25h-6.59v-1.25ZM107.54,7.86h2.1v-.06s0-.37-.02-.7c0,0,.99.05,1.16.08.09,0,.14.06.14.11,0,.06-.07.13-.21.17,0,.14-.01.32-.01.41h2.19v2.4c0,.28,0,.79,0,.94,0,1.06-.64,1.36-1.33,1.36-.07,0-.13,0-.2,0-.08,0-.09-.04-.09-.06-.04-.34-.53-1.31-.53-1.31.29.04.53.08.71.08.28,0,.43-.08.43-.36v-1.9h-1.18v4.63h-1.05v-4.63h-1.07v3.61h-1.02v-4.75Z"/>
            <path class="cls-4" d="M115.01,10.02c-.23-.2-.8-.43-.8-.43.64-.65,1-1.31,1.24-1.88h-.96v-1.02h.72c-.24-.14-.77-.25-.77-.25.69-.75.94-1.83.94-1.83,0,0,.69.18.83.23.04.02.08.06.08.1,0,.05-.05.1-.2.12-.02.06-.04.13-.07.21h1.64v.98h-.92c-.04.13-.08.27-.12.46h1.19v1.02h-1.48c-.08.21-.17.44-.27.67h.34c.11-.28.18-.56.18-.56,0,0,.72.09.84.12.04,0,.07.04.07.07,0,.04-.04.09-.15.11-.03.07-.07.17-.12.26h.61v.84h-.73v.39h.58v.71h-.58v.41h.58v.71h-.58v.43h.63v.49c.44-.48.56-1.1.61-1.73h-.35v-5.7h2.89v5.68h-.62c0,.69-.01,1.48-.01,1.55,0,.16.02.21.1.21.12,0,.21-.03.21-.81,0-.22-.01-.43-.01-.51,0,0,.58.71.76.82.04.03.04.06.04.12-.01,1.19-.32,1.51-1.04,1.51-.43,0-.96-.09-.96-.99v-.02c0-.28.03-1.39.04-2.01h-.18c-.07,1.02-.31,2.57-1.59,3.23-.01,0-.03,0-.04,0-.02,0-.04,0-.05-.03-.15-.19-.88-.71-.88-.71.17-.05.32-.11.45-.18h-1.3v.53h-.83v-3.31ZM115.75,6.69c.04-.15.08-.3.11-.46h-.23c-.09.17-.18.33-.26.46h.39ZM116.3,9.61v-.39h-.47v.39h.47ZM116.3,10.73v-.41h-.47v.41h.47ZM116.3,11.88v-.43h-.47v.43h.47ZM120,6.5v-.52h-1.08v.52h1.08ZM120,8v-.53h-1.08v.53h1.08ZM119.99,9.56v-.58h-1.07v.58h1.07Z"/>
            <path class="cls-4" d="M122.19,7.89h2.67v-2.38s0-.35-.02-.76h.12c.9,0,1.22.05,1.22.19,0,.06-.08.14-.24.17-.01.2-.01.55-.01.55v2.23h2.67v1.25h-1.99c0,.89-.02,2.51-.02,2.58,0,.36.12.42.38.42.53,0,.66-.11.66-1.17,0-.27,0-.59-.01-.96,0,0,.78.97,1.05,1.12.04.02.04.04.04.07,0,.02,0,.04,0,.06-.11,1.87-.66,2.15-1.78,2.15-.59,0-1.34-.1-1.35-1.24,0-.28.01-2.04.02-3.03h-.47c-.03,3.75-2.28,4.47-2.31,4.47-.02,0-.04-.02-.05-.05-.17-.31-.94-1-.94-1,2.03-.43,2.27-2.51,2.27-3.41h-1.88v-1.25ZM123.59,5.21c.29.44.74,1.16.96,1.82l-.92.68c-.19-.75-.66-1.49-.94-1.94l.89-.57ZM126.99,5.11s.78.42,1.02.61c.08.07.12.12.12.17,0,.06-.07.09-.2.09h-.06s-.53,1.21-.8,1.7c-.01.03-.03.05-.05.05,0,0-.01,0-.03-.02-.18-.17-.9-.42-.9-.42.35-.58.78-1.65.89-2.17Z"/>
            <path class="cls-4" d="M130.8,10.63c-.21.11-.45.22-.68.32,0,.04,0,.08,0,.12,0,.11-.03.18-.07.18-.03,0-.06-.04-.09-.11-.18-.38-.49-1.28-.49-1.28.46-.16.92-.34,1.33-.54v-1.7h-.25c-.04.48-.12,1.41-.21,1.41-.01,0-.03,0-.05,0-.17-.08-.61-.09-.75-.09h-.04c.32-1.04.37-2.58.37-3.46v-.23s.61.03.84.08c.04,0,.07.02.09.04v-.19c0-.19,0-.26-.02-.54,0,0,.85,0,1.1.07.09.02.12.06.12.09,0,.08-.12.17-.21.2,0,.13-.01.18-.01.29v1.17h.49v.78c.52-1.13.67-2.41.69-2.64,0,0,.75.15.99.21.04,0,.09.06.09.11,0,.06-.05.11-.2.14-.04.22-.14.68-.29,1.23h2.6c-.01,1.31.02,4.34-.23,5.66-.23,1.18-.79,1.7-1.53,1.7-.29,0-.33,0-.35-.09-.05-.31-.25-.73-.41-1.03-.12.17-.52.73-.6.73-.01,0-.03,0-.06-.04-.21-.23-1.02-.49-1.02-.49,1.59-1.33,2.23-3.61,2.44-5.34h-.2c-.63,3.08-1.74,3.98-1.74,3.98-.01,0-.03,0-.05-.03-.14-.13-.4-.25-.62-.35v2.71h-.97v-3.05ZM130.8,6.45v-.96s-.08.06-.16.09c0,.17,0,.49-.03.88h.19ZM131.77,10.55c.82-.78,1.33-2.04,1.56-3.18h-.15c-.23.64-.5,1.21-.56,1.21-.01,0-.03-.02-.05-.04-.14-.15-.62-.29-.81-.35v.63c.28-.15.48-.27.58-.34,0,0,.01.81.06,1.06,0,.05.01.08.01.1t-.64.44v.47ZM131.76,8.07c.11-.14.21-.29.29-.45h-.29v.45ZM134.26,12.33c.61,0,.91-.64.95-4.81-.15,1.28-.53,3.22-1.42,4.71.16.05.32.1.47.1Z"/>
            <path class="cls-4" d="M138.55,12.27h2.05v-.57h-1.33v-.61s-.05.08-.08.12c-.02.04-.04.06-.05.06s-.03,0-.05-.03c-.07-.06-.26-.14-.44-.21-.16,1.69-.58,2.36-.61,2.36,0,0-.02,0-.04-.02-.18-.17-1.02-.39-1.02-.39.66-.87.79-2.31.79-3.17,0-.35-.03-2.72-.03-2.72h1.32c-.07-.23-.15-.45-.21-.61h-1.13v-1.06h2.32v-.25s0-.31-.02-.58c0,0,.96.03,1.15.08.11.03.16.08.16.13,0,.07-.08.14-.23.18-.01.19-.02.38-.02.38v.08h2.33v1.06h-1.11c-.05.16-.13.38-.22.61h1.66v1.1h-5.06s.01,1.38.01,1.69c0,.14,0,.28,0,.43.32-.55.59-1.28.7-1.93.09,0,.68.17.88.22.1.03.13.07.13.11,0,.06-.09.12-.21.13-.02.08-.04.17-.07.26h.48c0-.15,0-.44-.01-.69,0,0,.72,0,.99.06.12.02.17.08.17.14s-.07.13-.22.15c0,.1,0,.25-.01.35h1.72v1.03h-1.72v.55h1.54v1.02h-1.54v.57h2.15v1.1h-5.12v-1.1ZM140.6,10.68v-.55h-.84c-.07.19-.16.37-.26.55h1.1ZM141.08,7.1c.07-.21.13-.43.18-.61h-1.39c.06.17.13.38.19.61h1.02Z"/>
            <path class="cls-4" d="M145.43,8.25h-.62v-1.23h.62v-1.62s0-.32-.02-.68h.11c.96,0,1.09.08,1.09.17,0,.06-.06.13-.19.17,0,.17-.01.41-.01.41v1.56h.53v.62c.94-.28,1.29-.71,1.43-1.19h-1.29v-1.03h1.42c0-.1,0-.2,0-.29,0-.17,0-.35-.02-.49.18.02.88.06,1.06.09.1.02.15.06.15.11,0,.07-.08.13-.23.15,0,0-.01.25-.03.44h1.62c0,.35,0,1.12-.07,1.69-.1.92-.59,1.25-1.19,1.25-.39,0-.42-.06-.44-.13-.05-.24-.22-.64-.34-.9-.48.98-1.39,1.25-1.46,1.25-.02,0-.04,0-.05-.04-.1-.18-.36-.42-.56-.58v.29h-.53v4.49c.49-.64.65-1.58.7-2.38h-.54v-1.02h.56c0-.23,0-.49-.03-.74.16,0,.76.03.94.06.09.02.13.06.13.11,0,.06-.08.14-.22.15,0,0,0,.23-.01.43h1.04c0,.18,0,.44,0,.72,0,1.88-.1,2.44-.26,2.81.57-.7.72-1.7.75-2.51h-.34v-1.02h.34c0-.24,0-.5-.03-.79,0,0,.78.05.96.08.09.02.14.06.14.11,0,.06-.07.12-.23.14,0,0,0,.26,0,.47h1.11v.66c0,1.8-.01,3.5-1.11,3.5-.2,0-.21,0-.23-.1-.03-.17-.11-.42-.2-.66-.15.42-.4.8-.48.8-.01,0-.03,0-.04-.02-.17-.19-.61-.36-.77-.43-.2.27-.45.38-.71.38-.18,0-.19,0-.21-.12-.02-.19-.1-.46-.17-.69-.2.56-.47.91-.49.91-.01,0-.03-.02-.06-.04-.12-.11-.35-.22-.55-.32v.46h-.98v-5.41ZM147.91,10.35c-.04.63-.12,1.29-.28,1.87.06.02.12.03.16.03.22,0,.37-.16.37-1.9h-.26ZM149.3,6.45c-.05.23-.12.47-.21.7.17.06.37.14.56.14.38,0,.42-.35.42-.84h-.77ZM150.27,10.35c-.02.6-.08,1.27-.23,1.88.05.02.1.02.15.02.26,0,.39-.25.39-1.9h-.31Z"/>
            <path class="cls-4" d="M154.34,8.22c-.66.73-1.18,1.1-1.23,1.1-.02,0-.04,0-.05-.04-.15-.28-.88-.95-.88-.95,2.17-1.25,3.1-3.55,3.16-3.72,0,0,.79.22,1,.33.06.03.09.07.09.11,0,.05-.04.09-.15.12.37.61,1.38,2.09,3.1,2.93,0,0-.72.77-.91,1.1-.01.02-.02.04-.04.04,0,0-.53-.31-1.2-1.03v.58h-2.89v-.56ZM152.88,9.38h5.77v1.21h-1.35c.39.44,1.08,1.27,1.49,2.11l-.9.92c-.14-.34-.29-.64-.45-.92-.87.16-2.9.51-4.13.62v.02c0,.17-.04.3-.1.3-.04,0-.07-.05-.12-.19-.09-.33-.34-1.51-.34-1.51.37,0,.83-.02,1.32-.05.15-.43.28-.9.38-1.31h-1.57v-1.21ZM156.7,7.58c-.42-.53-.74-1.02-.96-1.39-.22.41-.51.9-.88,1.39h1.84ZM156.97,10.59h-1.4c-.1.32-.24.78-.39,1.21.56-.05,1.1-.12,1.55-.18-.15-.2-.31-.39-.49-.59l.72-.44Z"/>
          </g>
        </g>
      </g>
    </g>
  </g>
</svg>