<?xml version="1.0" encoding="UTF-8"?>
<svg xmlns="http://www.w3.org/2000/svg" viewBox="0 0 162.24 27.51">
  <defs>
    <style>
      .cls-1 {
        isolation: isolate;
      }

      .cls-2 {
        fill: #231815;
      }

      .cls-3 {
        fill: #22ac38;
        mix-blend-mode: multiply;
      }

      .cls-4 {
        fill: #fff;
      }

      .cls-5 {
        fill: #8fc31f;
      }
    </style>
  </defs>
  <g class="cls-1">
    <g id="_レイヤー_2" data-name="レイヤー 2">
      <g id="_テキスト1" data-name="テキスト1">
        <g>
          <g>
            <rect class="cls-5" width="162.24" height="17.49"/>
            <rect class="cls-3" width="8.29" height="17.49"/>
          </g>
          <g>
            <path class="cls-2" d="M43.27,23.04c-.06.15-.06.15-.15.47-.25.85-.45,1.3-.89,1.99-.33.5-.63.85-1.06,1.2-.23-.27-.37-.39-.67-.59.41-.29.71-.59,1.02-1,.41-.55.65-1.04.83-1.72h-.88c-.27,0-.53.01-.7.04v-.85c.19.03.37.04.75.04h.74c.32,0,.48,0,.62-.03l.39.44ZM46.74,22.59s-.13.15-.37.41c-.4.44-.77.79-1.25,1.18.23.33.5.64.8.92.39.37.71.6,1.22.87-.24.24-.37.4-.6.76-.58-.41-.84-.64-1.2-1.04-.47-.54-.83-1.13-1.11-1.83.03.7.04.86.04,1.09v1.67c0,.32-.04.46-.18.57-.12.11-.34.16-.67.16-.26,0-.64-.02-.91-.04-.04-.33-.07-.49-.2-.81.37.06.68.08.91.08.21,0,.25-.03.25-.17v-4.63c0-.29-.01-.53-.05-.74h.89c-.04.22-.05.44-.05.74v.49c.08.45.18.71.46,1.27.67-.59,1.1-1.09,1.3-1.52l.71.56Z"/>
            <path class="cls-2" d="M53.42,24.18q-.06.11-.21.48c-.17.4-.3.67-.5.98.48.5.93.81,1.58,1.06-.18.26-.28.43-.41.76-.62-.29-1.16-.68-1.64-1.2-.5.54-.98.9-1.6,1.21-.13-.27-.24-.43-.43-.62-.15,0-.2,0-.3,0h-1.14c0,.27,0,.45.02.62h-.77c.03-.21.04-.48.04-.81v-3.28c0-.19,0-.32-.02-.43.13.01.22.02.44.02h1.44c.29,0,.39,0,.53-.02-.01.15-.02.33-.02.54v.19c.46-.36.71-.67.98-1.21-.33,0-.55.01-.76.04v-.42c-.11.16-.16.28-.25.5-.17-.11-.22-.15-.34-.25v.42c-.11-.01-.23-.02-.34-.02h-.73c-.11,0-.2,0-.34.02v-.33c-.27.27-.44.41-.79.64-.07-.28-.14-.47-.29-.71.43-.26.68-.46.96-.8.2-.23.28-.35.37-.57h.8c.12.19.16.25.32.41.24.25.33.31.63.49v-.15c.2.03.43.04.75.04h.51v-.27c0-.22,0-.36-.04-.53h.83c-.03.15-.04.29-.04.51v.28h.69c.31,0,.54-.01.76-.04v.76c-.21-.02-.47-.04-.71-.04h-2l.63.4c-.43.72-.67,1.03-1.27,1.55-.1-.19-.18-.31-.34-.48v.69c0,.19,0,.36.01.55-.17-.02-.25-.02-.5-.02h-1.17v.27h1.13c.27,0,.36,0,.51-.03v.62c-.15-.02-.29-.03-.51-.03h-1.13v.28h1.13c.23,0,.41,0,.52-.03v.45c.49-.24.94-.57,1.36-1.02-.22-.33-.38-.62-.61-1.14-.06-.14-.08-.17-.13-.27l.66-.4c.08.32.29.76.54,1.17.25-.44.43-.86.49-1.21l.7.36ZM48.76,23.78h.97v-.29h-.97v.29ZM48.76,24.6h.97v-.32h-.97v.32ZM49.7,22.21c.08,0,.12,0,.21,0-.27-.24-.39-.38-.59-.64-.19.29-.27.4-.5.65h.88ZM53.04,22.45c.38.57.64.82,1.23,1.22-.2.22-.28.35-.45.68-.64-.48-.86-.72-1.37-1.52l.58-.38Z"/>
            <path class="cls-2" d="M57.82,23.45c0-.22,0-.37-.02-.53h.37c.48-.28.67-.43,1.19-.9h-2.79c-.37,0-.6.01-.85.04v-.83c.24.03.47.04.84.04h3.17c.36,0,.47,0,.61-.04l.46.51q-.18.17-.66.62c-.34.32-.89.72-1.49,1.08v.3h1.71c.46,0,.71-.01.95-.04v.85c-.27-.03-.53-.04-.95-.04h-1.71v2.05c0,.62-.24.77-1.17.77-.14,0-.28,0-.79-.03-.06-.41-.09-.54-.22-.84.42.06.68.08,1.02.08.29,0,.34-.03.34-.18v-1.85h-1.88c-.42,0-.66.01-.95.04v-.85c.26.03.52.04.97.04h1.86v-.31Z"/>
            <path class="cls-2" d="M67.39,20.93l-5.31,6.58h-1.03l5.3-6.58h1.04Z"/>
            <path class="cls-2" d="M70.41,21.75c0-.36,0-.53-.04-.76h.88c-.03.22-.04.4-.04.74v.46h1.92c.31,0,.46,0,.64-.03-.02.2-.03.34-.03.62v2.14c0,.32,0,.5.04.7h-.83v-.42h-1.74v1.42c0,.42.01.62.05.87h-.9c.04-.26.05-.48.05-.87v-1.42h-1.65v.42h-.83c.03-.23.04-.41.04-.7v-2.14c0-.26,0-.38-.03-.61.2.02.35.03.63.03h1.84v-.43ZM68.75,22.92v1.52h1.65v-1.52h-1.65ZM72.94,24.44v-1.52h-1.74v1.52h1.74Z"/>
            <path class="cls-2" d="M80.23,21.49c.38,0,.62-.01.83-.04v.73c-.22-.02-.48-.04-.82-.04h-.89v.47h.76c.29,0,.48,0,.67-.04v.65c-.22-.02-.41-.03-.67-.03h-.14v.48h.43c.33,0,.55-.01.75-.04v.71c-.21-.03-.45-.04-.75-.04h-.43v.54h.14c.29,0,.47,0,.67-.03v.66c-.22-.03-.41-.04-.67-.04h-1.88v.46h2.01c.31,0,.57-.01.8-.04v.7c-.24-.03-.48-.04-.81-.04h-2v.27c0,.3.01.5.05.71h-.84c.04-.21.05-.43.05-.71v-.27h-1.86c-.3,0-.57.01-.8.04v-.7c.2.03.43.04.81.04h1.86v-.46h-1.78c-.29,0-.47,0-.67.04v-.66c.19.03.36.03.67.03h.13v-.54h-.43c-.3,0-.53.01-.75.04v-.71c.22.03.45.04.75.04h.43v-.48h-.13c-.25,0-.46,0-.67.03v-.65c.19.03.38.04.67.04h.68v-.47h-.79c-.34,0-.6.01-.82.04v-.73c.22.03.46.04.82.04h.79v-.1c0-.14,0-.25-.04-.39h.82c-.03.14-.03.25-.03.39v.1h1.47v-.1c0-.13,0-.25-.04-.39h.82c-.03.14-.04.24-.04.39v.1h.88ZM76.56,23.69h.92v-.48h-.92v.48ZM76.56,24.85h.92v-.54h-.92v.54ZM77.13,22.62h1.47v-.47h-1.47v.47ZM78.22,23.69h1.02v-.48h-1.02v.48ZM78.22,24.85h1.02v-.54h-1.02v.54Z"/>
            <path class="cls-2" d="M87.35,21.91q-.08.02-.59.19c-.4.13-.62.18-1.17.29q0,.95-.02,1.18h1.49c.47,0,.59,0,.85-.05v.84c-.26-.03-.39-.03-.84-.03h-1.55c-.08.65-.22,1.12-.47,1.53s-.65.8-1.14,1.11c-.2.13-.33.2-.65.35-.2-.36-.31-.49-.61-.74.5-.18.77-.33,1.09-.59.42-.34.69-.74.8-1.19.03-.12.05-.24.08-.47h-1.73c-.45,0-.58,0-.84.03v-.84c.26.04.38.05.85.05h1.79c.01-.29.01-.57.01-1.06-.57.08-.78.11-1.94.16-.07-.32-.11-.42-.26-.76.22.01.33.01.44.01.94,0,2.13-.16,3-.41.41-.12.61-.2.85-.33l.56.71Z"/>
            <path class="cls-2" d="M90.18,23.52c.37.31.58.5.87.78q.38.39.43.43c.36-.31.66-.59.92-.88.3-.34.69-.86.85-1.14t.04-.06s0-.02.01-.03c-.07,0-.18.01-.32.01h-3.34c-.57,0-.64,0-.9.04v-.89c.27.04.44.05.91.05h3.89c.3,0,.41-.01.58-.06l.49.55c-.11.11-.15.16-.31.41-.66,1.07-1.4,1.93-2.26,2.65.29.34.56.67.92,1.17l-.73.59c-.39-.63-.76-1.11-1.35-1.77-.54-.59-.89-.94-1.4-1.35l.69-.5Z"/>
            <path class="cls-2" d="M97.52,21.94c-.06-.34-.09-.46-.17-.66l.92-.15c0,.18.04.39.08.66l.11.61,1.48-.23c.34-.06.49-.09.67-.15l.15.84q-.19.01-.67.09l-1.48.23.21,1.15,1.64-.26c.29-.05.54-.1.73-.16l.15.84c-.15,0-.17,0-.32.04-.04,0-.08,0-.11.01-.05,0-.14.02-.28.04l-1.67.27.25,1.36c.08.46.09.48.17.72l-.94.17c0-.21-.04-.41-.09-.74l-.25-1.38-1.73.27c-.34.06-.46.08-.71.15l-.14-.86c.24,0,.44-.02.74-.07l1.7-.27-.21-1.15-1.3.2c-.32.06-.58.1-.77.16l-.14-.86c.25,0,.48-.04.77-.08l1.3-.2-.11-.6Z"/>
            <path class="cls-2" d="M107.64,20.93l-5.31,6.58h-1.03l5.3-6.58h1.04Z"/>
            <path class="cls-2" d="M109.3,22.77s-.02.06-.03.08c-.02.08-.02.09-.04.17-.32,1.47-.62,2.22-1.26,3.22-.29-.24-.49-.37-.74-.5.67-.92,1.14-2.14,1.23-3.19l.85.22ZM111.05,21.08c-.03.22-.04.49-.04.85v4.63c0,.34-.09.55-.29.66-.14.08-.34.12-.73.12-.27,0-.56-.01-.9-.04-.04-.32-.1-.53-.22-.82.43.06.73.09,1,.09.23,0,.3-.04.3-.17v-4.48c0-.36-.02-.63-.04-.85h.92ZM112.6,22.52c.05.37.14.74.32,1.23.26.71.59,1.32,1.04,1.93-.28.16-.52.35-.71.55-.59-.84-.95-1.6-1.25-2.66,0-.03-.08-.3-.22-.83l.8-.23Z"/>
            <path class="cls-2" d="M116.73,21.97c.11.16.15.22.24.4l-.48.14c0,.08,0,.12,0,.17v.06h.5c.28,0,.38,0,.52-.02v.55c-.08,0-.14,0-.3,0h-.04c-.09.25-.13.34-.17.43h.19c.22,0,.36,0,.45-.02v.59c-.17-.02-.25-.02-.57-.02h-2.03c-.3,0-.38,0-.57.02v-.59c.15.02.32.03.56.03h.18c-.02-.12-.07-.25-.14-.43-.19,0-.21,0-.36.01v-.57c.07,0,.09.01.17.02-.16-.2-.29-.32-.51-.48.38-.29.56-.46.77-.79.14-.22.22-.36.29-.58l.74.13c-.08.17-.11.22-.19.37h.99c.31,0,.46,0,.62-.03v.48c.24-.33.36-.59.46-.95l.74.13c-.06.15-.09.2-.18.38h1.47c.34,0,.48,0,.69-.04v.67c-.19-.03-.35-.04-.65-.04h-.6c.08.13.12.18.2.34l-.64.18c-.1-.22-.14-.32-.25-.52h-.53c-.08.13-.15.22-.25.34h.51c-.02.09-.03.2-.03.31h1.57c.2,0,.34,0,.48-.03v.52c-.12-.02-.25-.03-.48-.03h-1.56v.24h1.47c.22,0,.36,0,.5-.02-.01.13-.02.25-.02.41v.31s0,.2.02.5c-.15,0-.25-.01-.47-.01h-1.52v.22h1.55c.23,0,.39,0,.53-.02v.48c-.16-.01-.31-.02-.53-.02h-1.55v.22h1.55c.22,0,.4,0,.53-.02v.48c-.15-.01-.31-.02-.53-.02h-1.55v.23h1.47c.22,0,.37,0,.53-.02v.22c.15.04.22.06.42.07-.03.46-.11.69-.26.83-.15.15-.41.18-1.35.18s-1.21-.03-1.36-.14c-.12-.09-.16-.22-.16-.48v-2.2c0-.2,0-.34-.02-.51.12.01.25.01.57.01h1.44v-.23h-1.37c-.34,0-.41,0-.58.01,0-.08,0-.09.01-.19,0-.06,0-.2,0-.34v-.55c0-.07,0-.11,0-.2t-.11.1c-.16-.2-.28-.3-.49-.46.11-.09.14-.12.22-.2-.11-.01-.16-.01-.33-.01h-.39ZM115.56,26.89c0,.22,0,.38.03.54h-.76c.03-.15.04-.3.04-.55v-1.94c0-.23,0-.32-.02-.47.12.01.29.02.5.02h1.46c.34,0,.44,0,.58-.01-.01.13-.01.19-.01.45v1.81c0,.5-.12.6-.77.6-.11,0-.21,0-.43-.01-.01-.24-.04-.33-.13-.55.13.02.28.04.44.04s.2-.02.2-.1v-.24h-1.12v.41ZM115.6,21.97c-.22.32-.37.48-.7.77.11,0,.19,0,.34,0h.57v-.06c0-.17,0-.26-.03-.37h.48c-.09-.17-.13-.24-.2-.34h-.46ZM116.68,25.28v-.26h-1.12v.26h1.12ZM116.68,25.99v-.23h-1.12v.23h1.12ZM115.72,23.27c.06.15.1.29.12.43h.51c.08-.17.12-.27.17-.43h-.8ZM118.49,26.61c0,.17.04.17.83.17s.79,0,.85-.29h-1.68v.11Z"/>
            <path class="cls-2" d="M122.58,23.18c-.22.28-.36.43-.65.72-.14-.25-.31-.48-.5-.67.63-.57,1.06-1.13,1.34-1.76.12-.26.18-.43.21-.62l.86.13c-.08.16-.08.17-.15.34-.05.12-.08.2-.15.34h3.13c.32,0,.52-.01.73-.04-.01.15-.02.27-.03.57-.02.81-.1,1.84-.18,2.42-.08.53-.19.75-.44.85-.15.07-.4.11-.71.11-.04,0-.08,0-.18,0-.03-.29-.07-.46-.18-.77.12.01.2.02.34.02.26,0,.36-.06.41-.24.04-.15.11-.67.14-1.16.03-.36.04-.59.04-1.06h-3.45c-.15.25-.25.39-.43.63.23.01.35.02.57.02h1.65c.26,0,.41,0,.64-.04-.03.2-.03.32-.03.57v1.09c0,.27,0,.43.02.55-.16-.02-.34-.03-.64-.03h-1.84v1.15c0,.15.04.22.16.26.17.05.66.07,1.56.07.97,0,1.6-.03,1.83-.08.28-.07.34-.26.38-1.15.32.12.47.16.76.2-.07.67-.11.9-.22,1.13-.15.32-.38.47-.79.52-.41.05-1.06.07-2.21.07-1.9,0-2.21-.13-2.21-.86v-1.45c0-.23,0-.36-.03-.57.17.03.34.04.62.04h1.84v-.81h-1.52c-.35,0-.53,0-.73.04v-.53Z"/>
          </g>
          <g>
            <path class="cls-4" d="M53.72,11.3s.97.29,1.27.48c.08.05.13.11.13.15,0,.05-.06.09-.18.09-.05,0-.1,0-.17-.02-.66,1.25-1.21,1.66-1.23,1.66s-.05,0-.09-.04c-.32-.21-1.28-.47-1.28-.47.72-.45,1.35-1.34,1.54-1.84ZM52.99,8.89h1.42c0-.1,0-.35-.03-.64,0,0,.51.02.9.04-.09-.12-.14-.26-.14-.44v-.49s-.35,0-.35,0c-.22,1.09-1.34,1.49-1.45,1.49-.02,0-.04,0-.07-.04-.2-.24-.96-.68-.96-.68.68-.12,1.26-.3,1.44-.77h-1.14v-.87h1.77v-.29h-1.44v-.86h1.44v-.21c0-.1,0-.27-.03-.49,0,0,1.16.02,1.34.05.09,0,.14.05.14.1,0,.06-.08.12-.23.15-.02.18-.02.33-.02.33v.07h1.35v.86h-1.35v.29h1.54v.87h-.43c.18.15.41.32.58.37.04,0,.05.03.05.05s0,.05,0,.08c-.17.68-.72.72-1.11.72-.15,0-.36,0-.51-.05-.03,0-.06,0-.09.02,0,.12-.02.26-.02.34h1.25v.84h-1.25v.31c.57-.06,1.04-.13,1.3-.18,0,0-.03.22-.05.45.34-.36.58-.75.75-1.16-.23-.21-.47-.39-.69-.55l.72-.78s.11.08.27.21c.04-.3.07-.6.08-.89h-.71v-1.11h.73v-.5c0-.4,0-.59-.04-.9,0,0,.97.02,1.25.06.12,0,.18.06.18.11,0,.06-.08.12-.24.15,0,.21,0,.68-.02,1.08h1.49c-.04.62-.13,1.57-.13,2.42,0,.68.06,1.28.14,1.28.09,0,.18-.61.19-1.15,0,0,.37.55.81.85.04.03.04.07.04.12-.05.99-.58,1.73-1.12,1.73-.49,0-.88-.58-1.04-1.51l-.62.8c-.13-.18-.25-.33-.38-.49-.27.53-.65,1.02-1.19,1.47-.02,0-.03.03-.04.04l.89-.1c.3.45.73,1.33.86,1.89l-1.42.19c-.1-.57-.42-1.47-.71-1.94l.29-.03s-.03-.02-.05-.04c-.25-.21-1.25-.52-1.25-.52.1-.05.19-.11.29-.17-.9.13-2.29.26-3.15.34,0,.17-.06.25-.12.25-.05,0-.09-.05-.12-.12-.09-.25-.29-1.09-.29-1.09.57,0,1.27-.04,1.95-.1v-.42h-1.42v-.84ZM55.17,13.52c.03-.23.05-.51.05-.8,0-.42-.04-.85-.12-1.16l1.31-.06c.13.41.2,1.05.2,1.59,0,.14,0,.26,0,.38l-1.42.05ZM56.09,7.36c0,.11,0,.2,0,.27,0,.12.04.17.16.18.06,0,.04,0,.09-.02.1-.03.13-.24.14-.43h-.37ZM59.76,11.27c.49.32,1.38,1.07,1.67,1.62l-1.21.74c-.31-.69-1.08-1.46-1.57-1.81l1.11-.55ZM59.09,7.13c-.02.58-.07,1.17-.2,1.75.19.18.37.36.55.55-.03-.3-.04-.62-.04-.94,0-.5.02-.97.03-1.36h-.34Z"/>
            <path class="cls-4" d="M64.92,7.74s.39.15.82.33c.09-.18.17-.38.23-.58h-1.17c-.69,1.09-1.37,1.53-1.38,1.53s-.02,0-.03-.02c-.34-.34-1.13-.66-1.13-.66.86-.47,1.63-1.44,2.02-2.3h-1.4v-1.07h4.54v1.07h-1.87c-.05.12-.12.26-.18.43h1.15s.09-.07.16-.07.83.54.83.66c0,.07-.11.1-.17.13-.36,1.41-1.26,3.31-3.71,4.08-.02,0-.03,0-.05,0s-.03,0-.05-.03c-.35-.46-1.16-.88-1.16-.88,1.25-.32,2.13-.75,2.75-1.39-.48-.22-.9-.35-.9-.35l.7-.88ZM63.85,11.22s.97.33,1.27.49c.08.04.12.09.12.14,0,.06-.08.11-.23.11-.03,0-.06,0-.1,0-.26.53-.77,1.34-1.19,1.68,0,0-.03.02-.04.02s-.02,0-.03,0c-.37-.23-1.34-.52-1.34-.52.72-.47,1.34-1.38,1.54-1.89ZM65.3,13.5c.03-.23.05-.54.05-.84,0-.45-.04-.91-.12-1.23l1.31-.06c.13.43.2,1.12.2,1.69,0,.14,0,.27,0,.39l-1.42.05ZM68.26,11.33c.3.47.73,1.41.86,2l-1.42.2c-.1-.58-.42-1.57-.71-2.05l1.28-.15ZM67.68,6.23v-.14c0-.18,0-.5-.03-.89.09,0,1.1.04,1.45.07.11,0,.17.06.17.11,0,.07-.1.15-.3.21-.02.45-.02.91-.02.91v2.79h-1.27v-3.05ZM69.76,5.44s0-.4-.03-.71c0,0,1.12.04,1.49.1.12.02.18.06.18.12s-.09.13-.27.16c-.02.24-.02.51-.02.51v2.87c0,.48.02.86.02.93v.02c0,1.38-1,1.71-2.04,1.71-.12,0-.24,0-.37,0-.07,0-.08,0-.1-.08-.16-.55-.82-1.3-.82-1.3.41.06.81.12,1.14.12.48,0,.81-.13.81-.54v-3.88ZM69.89,11.16c.49.33,1.38,1.1,1.67,1.68l-1.21.76c-.31-.72-1.08-1.51-1.57-1.87l1.11-.57Z"/>
            <path class="cls-4" d="M73.42,10.05c-.31-.19-1.11-.43-1.11-.43.9-.66,1.39-1.33,1.73-1.91h-1.35v-1.03h.98c-.34-.14-1.03-.25-1.03-.25.95-.75,1.31-1.85,1.31-1.85,0,0,.97.19,1.16.24.07.02.11.06.11.1,0,.05-.07.1-.27.12-.03.06-.06.14-.1.21h2.36v.98h-1.35c-.05.13-.11.27-.18.46h1.69c.44-1.03.56-2.05.56-2.05,0,0,1.08.14,1.27.19.12.03.2.09.2.15s-.1.12-.33.14c0,0-.07.31-.2.76h1.84s.1-.06.16-.06c0,0,.91.42.91.57,0,.05-.07.09-.18.13,0,0-.39,1.53-.84,2.28-.03.04-.03.06-.06.06,0,0-.03,0-.05,0-.25-.09-.96-.16-1.22-.18v.07c.2,1.33.79,3.07,2.48,4.09,0,0-1.05.54-1.36.78-.02.02-.03.02-.04.02,0,0-.95-.64-1.58-2.34-.68,1.91-1.91,2.46-1.92,2.46s-.03,0-.05-.02c-.26-.2-1.38-.58-1.38-.58.2-.07.4-.16.58-.25h-1.58v.54h-1.15v-3.35ZM74.46,6.67c.05-.15.1-.3.15-.46h-.32c-.12.17-.24.33-.36.46h.54ZM75.24,9.64v-.4h-.68v.4h.68ZM75.24,10.77v-.42h-.68v.42h.68ZM75.24,11.92v-.44h-.68v.44h.68ZM75.4,8.39c.15-.28.25-.56.25-.56,0,0,.6.06.96.09.06-.07.12-.14.18-.21h-1.51c-.11.21-.23.45-.37.68h.5ZM77.08,11.92v.18c.25-.3,1.1-1.36,1.1-3.6,0-.28,0-.56-.02-.77-.22.45-.4.68-.43.68-.02,0-.03,0-.05,0-.19-.09-.69-.21-.99-.26-.03.07-.09.16-.15.25h.89v.85h-1.05v.4h.84v.71h-.84v.42h.84v.71h-.84v.44h.7ZM78.47,7.01c-.04.11-.09.22-.13.33.31.02.93.06,1.15.07.12,0,.17.05.17.09,0,.07-.11.15-.24.18,0,0,0,.16-.02.58,0,.08,0,.16,0,.23.47-.61.76-1.39.78-1.49h-1.72Z"/>
            <path class="cls-4" d="M83.98,9.51h-1.08v-1.22h2.3v1.9c.2-.05.4-.11.6-.18v-3.97s-.02-.47-.03-.76c0,0,.48.06.6.08.61-.26.92-.6,1.03-.73,0,0,.38.33.69.63v-.1h3.29v3.72c0,.48,0,.9,0,1.12v.07c0,1.03-.62,1.39-1.51,1.41-.07,0-.1,0-.11-.07-.03-.19-.22-.61-.39-.93v1.45h-1.29v-6.12c-.3.2-.62.4-1.02.58v3.14c.35-.15.64-.28.84-.39,0,0-.02.35-.02.68,0,.2,0,.39.03.5,0,.02,0,.04,0,.05,0,.1-1.1.59-1.98.92,0,.05,0,.1,0,.13,0,.13-.03.19-.08.19-.08,0-.19-.12-.68-1.24v.94c.44.88,1.62.96,2.55.96,1.4,0,3.33-.2,4.26-.35,0,0-.58.97-.7,1.37-.02.07-.02.08-.05.08h-.07c-.68,0-1.85.13-2.93.13-1.68,0-2.85-.06-3.64-1.14,0,0-.54.6-1.02.97,0,.04.02.08.02.12,0,.08-.03.13-.07.13s-.08-.03-.14-.09c-.22-.24-.9-1.23-.9-1.23.65-.27,1.46-.88,1.46-.88v-1.87ZM83.98,4.9s1,.76,1.57,1.62l-1.06.92c-.48-.92-1.53-1.78-1.53-1.78l1.02-.76ZM90.12,6.34h-.74v3.78c.14.02.26.04.37.04.22,0,.37-.07.37-.26v-3.56Z"/>
            <path class="cls-4" d="M93.36,6.31h3.2v-1.06c0-.15,0-.4-.03-.67,1.67,0,1.79.11,1.79.2,0,.07-.14.16-.3.19,0,.18-.02.49-.02.49v.87h3.33v4.8h-1.41v-.55h-1.92v3.11h-1.43v-3.11h-1.81v.61h-1.38v-4.87ZM96.55,9.27v-1.68h-1.81v1.68h1.81ZM99.91,9.27v-1.68h-1.92v1.68h1.92Z"/>
            <path class="cls-4" d="M103.04,5.22h2.48v-.11s0-.23-.03-.49c0,0,1.05,0,1.42.06.11,0,.16.06.16.11,0,.06-.09.14-.28.18-.02.09-.02.19-.02.25h1.31v-.11s0-.23-.03-.49c0,0,1.05,0,1.42.06.11,0,.16.06.16.11,0,.06-.09.14-.28.18-.02.09-.02.19-.02.25h2.47v1.11h-2.47v.27h-1.25v-.27h-1.31v.27h-1.25v-.27h-2.48v-1.11ZM103.24,11.23h3.54v-.35h-3.14v-1.03h1.09v-.52h-1.64v-1.05h1.64v-.44h-1.03v-1.02h7.54v1.02h-1.05v.44h1.6v1.05h-1.6v.52h1.05v1.03h-3.19v.35h3.6v1.1h-3.6v1.33h-1.27v-1.33h-3.54v-1.1ZM106.78,8.27v-.44h-.81v.44h.81ZM106.78,9.84v-.52h-.81v.52h.81ZM108.95,8.27v-.44h-.9v.44h.9ZM108.95,9.84v-.52h-.9v.52h.9Z"/>
            <path class="cls-4" d="M116.8,5.18h8.13v8.32h-1.38v-.53h-5.38v.56h-1.36s0-8.35,0-8.35ZM123.55,11.72v-5.31h-5.38v5.31h5.38ZM118.84,7.12h4v4h-1.21v-.46h-1.59v.51h-1.2v-4.05ZM121.63,9.58v-1.39h-1.59v1.39h1.59Z"/>
          </g>
          <g>
            <path class="cls-4" d="M13.58,9.35c-.36-.19-.94-.37-.94-.37.77-.63,1.21-1.3,1.51-1.93h-1.12v-1.96h1.85c.14-.49.17-.91.17-.91,0,0,1.2.17,1.37.21.08.02.13.06.13.1,0,.06-.09.12-.31.14-.04.09-.1.27-.16.46h1.26v1.88h-.53c-.04.11-.15.33-.25.52h.69v.9h-.99v.44h.75v.91h-.75v.47h.75v.91h-.75v.57h.83v.66c.26-.87.28-1.7.28-1.7l.75.02s0,1.35-.25,2.32c-.02.08-.04.13-.09.13,0,0-.03,0-.06-.02-.18-.08-.43-.09-.61-.09-.16,0-.28.01-.28.01.05-.11.1-.22.15-.34h-2.35v.42h-1.09l.04-3.75ZM14.17,7.01c.17-.36.3-.7.42-1.01h-.42v1.01ZM15.21,11.69v-.57h-.58v.57h.58ZM15.21,8.83v-.44h-.56v.02s0,.42,0,.42h.57ZM15.21,10.21v-.47h-.57v.47h.57ZM15.47,7.49c.2-.37.36-.9.36-.9l.43.05v-.64s-.48,0-.48,0c-.16.43-.37.95-.63,1.49h.32ZM18.27,12.49c.06-.24.08-.62.08-.97s-.02-.68-.05-.81l.6-.05s.11.81.11,1.38v.17c.25.03.6.12.92.12.48,0,.72-.2.8-.66l-.55.16c-.05-.65-.33-1.31-.33-1.31l.49-.09s.34.62.41,1.14c.04-.22.05-.42.05-.62s-.01-.42-.01-.67h-2.01v.11h-1.21v-5.51h.99c.11-.29.2-.6.23-.8,0,0,1.03.08,1.36.14.12.02.19.07.19.12,0,.06-.09.12-.3.14-.05.12-.11.26-.17.4h1.63v3.1s-1.17,0-1.17,0v-.08h-1.55v.3h3.43v.96h-3.43v.31h3.24c0,.68.03,1.87-.16,2.66-.25,1.07-.95,1.35-1.74,1.35-.46,0-.49,0-.52-.14-.06-.34-.49-.95-.6-1.1,0,.05,0,.09,0,.13l-.72.12ZM20.33,6.06v-.33h-1.55v.33h1.55ZM20.33,7.14v-.34h-1.55v.34h1.55ZM19.28,12.11c0-.06,0-.12,0-.18,0-.51-.16-1.21-.2-1.3l.54-.07s.29.79.3,1.41l-.65.14Z"/>
            <path class="cls-4" d="M23.9,5.12h8.04v8.15h-1.42v-.62h-5.21v.65h-1.41V5.12ZM27.11,8.12v-1.7h-1.8v1.7h1.8ZM27.11,11.32v-1.91h-1.8v1.91h1.8ZM30.51,8.12v-1.7h-1.96v1.7h1.96ZM30.52,11.32v-1.91h-1.97v1.91h1.97Z"/>
            <path class="cls-4" d="M34.05,4.62h4.46v.91h4.44v1.32h-1.46v3.26c0,.47.03,1.26.03,1.45,0,1.33-.96,1.81-2.2,1.81-.54,0-.56-.03-.59-.13-.16-.62-.9-1.42-.9-1.42.46.08.88.14,1.22.14.59,0,.96-.16.96-.6v-4.51h-1.5v4.76h-1.14v-.48h-2.16v.83h-1.16v-7.34ZM35.73,7.18v-1.42h-.52v1.42h.52ZM35.73,9.97v-1.66h-.52v1.66h.52ZM37.38,7.18v-1.42h-.53v1.42h.53ZM37.37,9.97v-1.66s-.52,0-.52,0v1.66h.52Z"/>
          </g>
        </g>
      </g>
    </g>
  </g>
</svg>