<?xml version="1.0" encoding="UTF-8"?>
<svg xmlns="http://www.w3.org/2000/svg" viewBox="0 0 162.77 27.32">
  <defs>
    <style>
      .cls-1 {
        isolation: isolate;
      }

      .cls-2 {
        fill: #231815;
      }

      .cls-3 {
        fill: #22ac38;
        mix-blend-mode: multiply;
      }

      .cls-4 {
        fill: #fff;
      }

      .cls-5 {
        fill: #8fc31f;
      }
    </style>
  </defs>
  <g class="cls-1">
    <g id="_レイヤー_2" data-name="レイヤー 2">
      <g id="_テキスト1" data-name="テキスト1">
        <g>
          <g>
            <rect class="cls-5" width="162.63" height="17.49"/>
            <rect class="cls-3" width="8.29" height="17.49"/>
          </g>
          <g>
            <path class="cls-4" d="M79.43,14.25c-.77-1.11-1.26-2.88-1.26-4.56s.49-3.45,1.26-4.56h.69c-.91,1.26-1.37,2.96-1.37,4.56s.46,3.31,1.37,4.56h-.7Z"/>
            <path class="cls-4" d="M81.43,11.96c0-.52.02-1.18.04-1.8-.03.12-.28,1.23-.37,1.23-.01,0-.03,0-.04-.04-.14-.27-.67-.78-.67-.78.46-.68.81-1.94.97-2.67h-.7v-1.27h.77v-1.07s0-.47-.02-.66c0,0,.73.02,1.02.08.08.02.12.06.12.11,0,.07-.07.15-.19.18-.01.16-.01.43-.01.43v.95h.46v.87c.32-.84.45-1.75.5-2.19,0,0,.67.14.86.21.06.02.1.06.1.11s-.05.11-.16.13c-.02.11-.05.31-.09.56h.28v-.34s0-.68-.02-1.04c0,0,.76.02.98.05.09.02.14.06.14.12s-.06.13-.19.18c-.01.26-.01.7-.01.7v.34h1.34v1.15h-1.34v.88h1.63v1.19l-1.42-.03c.36.92,1.02,2.07,1.67,2.62,0,0-.63.49-.84.76-.03.04-.04.05-.05.05-.04,0-.54-.63-1.02-1.94.02.5.03,1.03.03,1.4v1.47h-.92v-1.42c0-.39.01-.91.03-1.39-.61,1.5-1.18,2.04-1.21,2.04-.01,0-.03-.02-.05-.04-.16-.18-.48-.43-.7-.58v1.43h-.94v-1.92ZM82.36,12.16c.68-.59,1.34-1.78,1.68-2.67l-1.06.03.14.29s-.42.21-.59.39c-.02.02-.04.04-.05.04-.03,0-.05-.1-.18-.81.03.83.07,1.96.07,2.51v.22ZM82.88,8.33h1.42v-.88h-.53c-.17.6-.25.77-.29.77,0,0-.02,0-.04,0-.23-.12-.85-.21-.85-.21.02-.04.03-.07.05-.11h-.27c.09.34.28.89.5,1.39v-.96Z"/>
            <path class="cls-4" d="M87.32,14.25c.91-1.26,1.38-2.97,1.38-4.56s-.46-3.3-1.37-4.56h.69c.77,1.11,1.26,2.87,1.26,4.56s-.49,3.45-1.26,4.56h-.7Z"/>
            <path class="cls-4" d="M99.08,11.31s.03.05.03.07c0,.13-2.1,2.26-4.47,2.26-1.82,0-2.54-1.21-2.54-2.8,0-1.43.18-2.96.18-4.51,0-.31,0-.63-.02-.95.48.02,1.51.12,1.8.17.13.03.2.08.2.14,0,.08-.14.18-.37.21-.09,1.69-.32,3.52-.32,4.82,0,.47,0,1.39,1.13,1.39,1.26,0,2.89-1.21,3.83-2.59,0,0,.28,1.35.55,1.79Z"/>
            <path class="cls-4" d="M103.03,7.26c-.1.69-.21,1.15-.36,1.88,1.01-.57,1.93-.8,2.79-.8,1.75,0,2.58.96,2.58,2.04s-.77,2.17-2.23,2.66c-.89.3-1.92.42-2.96.42-.12,0-.25,0-.38,0-.06,0-.07-.02-.09-.07-.12-.45-.73-1.27-.87-1.44.51.04.96.05,1.38.05,1,0,1.74-.1,2.26-.27.87-.29,1.29-.82,1.29-1.28,0-.42-.38-.77-1.13-.77-.46,0-2.16.24-2.8,1.58-.13,0-1.26.03-1.33.03-.03,0-.04,0-.04-.04,0-1.12.17-2.16.29-3.01.08-.52.13-.91.14-1.18,0-.05.03-.06.07-.06h.03l1.35.27ZM102.1,5.33c.27,0,.55,0,.81,0,1.01,0,1.98.06,2.96.26l-.41,1.45s0,.05-.04.05c0,0,0,0-.03,0-.82-.29-1.7-.41-2.82-.41-.34,0-.7,0-1.09.03l.62-1.37Z"/>
            <path class="cls-4" d="M109.12,13.27c.91-1.66,1.63-3.09,2.16-4.4-.59.14-.93.21-1.55.22-.03-.09-.39-1.4-.39-1.44,0-.02.02-.04.06-.04.02,0,.04,0,.07,0,.12.02.25.03.41.03.51,0,1.21-.09,1.9-.2.2-.61.38-1.38.48-2.27,0,0,1.38.25,1.63.32.12.03.17.08.17.13,0,.07-.12.14-.31.15-.1.33-.24.93-.39,1.45.09,0,.17,0,.25,0,1.32,0,1.57,1,1.57,2.26,0,.75-.12,1.6-.34,2.27-.39,1.17-1.27,1.56-2.02,1.56-.19,0-1-.1-1-.34,0-.33-.1-.95-.17-1.37-.26.59-.56,1.23-.88,1.92l-1.65-.26ZM112.66,11.81c.32,0,.63-.18.79-.61.17-.49.27-1.23.27-1.79,0-.44,0-.84-.44-.84-.03,0-.07,0-.1,0-.1,0-.21.03-.3.04-.34.92-.71,1.8-1.14,2.77.24.25.58.43.92.43ZM116.38,7.27c1.29.94,2.05,2.06,2.1,3.22l-1.38.68s-.04,0-.05,0-.02,0-.03-.05c-.07-1.04-.45-2.17-1.86-3.19-.06-.05-.1-.07-.1-.1s.04-.05.13-.09l1.2-.49Z"/>
            <path class="cls-4" d="M121.5,5.89s-.02-.08-.02-.1c0-.03,0-.04.04-.04.02,0,.04,0,.07,0,.29.06.58.09.88.09.63,0,1.27-.12,1.9-.27.12-.03.15-.14.24-.14.02,0,.05,0,.08.02.13.08.86.48,1.02.61.05.04.06.07.06.1,0,.07-.11.11-.19.15-.59.77-1.07,1.63-1.51,2.46.57.06,1.15.17,1.72.33.08-.44.11-.92.12-1.42,0-.15,0-.16.06-.16.18,0,1.14.24,1.46.33.14.04.19.09.19.14,0,.09-.16.18-.25.2-.06.5-.13.96-.23,1.4.63.29,1.21.64,1.69,1.05l-.94,1.19s-.03.03-.05.03c0,0-.03,0-.05-.03-.35-.34-.74-.61-1.12-.84-1.02,2.22-2.96,2.51-2.99,2.51-.04,0-.06,0-.1-.06-.3-.42-1.33-1.15-1.33-1.15,1.62-.11,2.6-.8,3.14-1.88-.78-.26-1.48-.36-1.96-.39-.52,1.04-1.32,2.57-2.6,2.57-.72,0-1.27-.58-1.27-1.33,0-1.45,1.45-2.41,2.98-2.54.28-.54.65-1.22.95-1.75-.37.07-.82.2-1.27.2-.11,0-.21,0-.32-.03l-.38-1.27ZM120.78,10.99c0,.12.05.17.14.17.16,0,.45-.13,1.01-1.1-.32.09-1.14.41-1.14.94Z"/>
            <path class="cls-4" d="M130.61,5.82l6.16-.03c.09,0,.15-.08.23-.08.08,0,1.15.7,1.15.85,0,.07-.08.13-.23.18-1.41,5.76-5.47,6.8-5.49,6.8-.04,0-.07-.02-.1-.06-.35-.48-1.57-1.19-1.57-1.19,3.1-.68,4.75-2.98,5.29-5l-5.46.03v-1.49Z"/>
            <path class="cls-4" d="M139.64,8.59h7.64v1.52h-7.64v-1.52Z"/>
            <path class="cls-4" d="M149.23,6.14l4.88-.03c.08,0,.13-.1.21-.1.07,0,1.04.71,1.04.91,0,.05-.05.1-.19.14-.36.75-.85,1.67-1.49,2.57,1.02.76,2.22,1.79,3.06,2.81l-1.38,1.04s-.03,0-.04,0-.02,0-.04-.03c-.68-.97-1.61-1.91-2.51-2.68-1.77,2.01-3.54,2.62-3.59,2.62-.03,0-.06,0-.09-.05-.32-.42-1.4-1.05-1.4-1.05,3.2-1.05,4.76-3.22,5.56-4.78l-4.05.08v-1.46ZM155.06,4.85c.26.23.79.79.95,1.19l-.86.34c-.13-.38-.58-.97-.89-1.25l.8-.28ZM156.32,4.55c.23.18.79.76.94,1.1l-.84.36c-.14-.34-.58-.91-.89-1.17l.79-.29Z"/>
          </g>
          <g>
            <path class="cls-2" d="M.05,27.32v-6.7h1.82c-.37.59-.51.88-.66,1.36-.17.59-.26,1.23-.26,1.99s.08,1.4.26,1.99c.14.49.28.78.66,1.37H.05Z"/>
            <path class="cls-2" d="M4.16,21.66c.16-.34.29-.69.35-.96l.76.12s-.01.03-.04.11c0,0-.01.03-.03.06,0,.01-.01.04-.02.06-.12.29-.16.39-.27.61h1.53c.29,0,.47,0,.69-.04-.02.25-.03.5-.03.87v3.72c0,.42.01.67.04.92h-.72v-.36h-3.05v.36h-.71c.02-.25.04-.53.04-.93v-3.71c0-.36-.01-.63-.03-.86.2.03.38.04.66.04h.83ZM3.37,23.81h3.05v-1.41h-3.05v1.41ZM3.37,26.02h3.05v-1.48h-3.05v1.48Z"/>
            <path class="cls-2" d="M10.12,24.66c-.08.15-.12.22-.21.46-.32-.32-.42-.43-.57-.64v1.9c0,.33.01.57.04.83h-.7c.02-.22.04-.5.04-.83v-1.68c-.22.27-.35.43-.64.7-.07-.29-.14-.5-.28-.76.29-.23.6-.56.86-.9.28-.39.49-.75.66-1.18h-.82c-.19,0-.35.01-.5.04v-.75c.14.03.23.04.45.04h.28v-.61c0-.17-.01-.37-.04-.54h.7c-.02.15-.04.34-.04.55v.6h.14c.19,0,.28,0,.33-.03l.28.36c-.03.07-.04.1-.09.22-.19.52-.36.9-.56,1.25.18.24.41.48.67.69v-1.91c0-.34,0-.49-.02-.71.16.03.29.04.61.04h.61v-.3c0-.31-.01-.5-.04-.74h.7c-.02.23-.04.43-.04.75v.29h.7c.32,0,.46,0,.61-.04-.02.19-.02.31-.02.71v2.36c0,.31,0,.55.02.77h-.64v-.36h-.67v1.13c0,.39.01.62.04.86h-.7c.03-.26.04-.47.04-.85v-1.13h-.59v.39h-.64c.02-.2.03-.41.03-.75v-.2ZM10.71,22.45v.7h.61v-.7h-.61ZM10.73,23.79v.76h.59v-.76h-.59ZM12.61,23.15v-.7h-.66v.7h.66ZM12.62,24.55v-.76h-.68v.76h.68Z"/>
            <path class="cls-2" d="M15.06,22.82c-.25.6-.49,1.02-.82,1.47-.16-.27-.29-.43-.49-.6.45-.53.81-1.27,1.02-2.04.08-.3.11-.45.13-.65l.69.2q-.01.06-.05.18s-.02.06-.06.23c-.03.1-.08.28-.16.53h.98v-.53c0-.36-.01-.58-.04-.84h.77c-.02.23-.04.46-.04.83v.54h1.25c.31,0,.56-.01.81-.04v.77c-.26-.03-.5-.04-.79-.04h-1.27v1.29h1.04c.3,0,.54-.01.74-.04v.77c-.22-.03-.46-.04-.74-.04h-1.04v1.48h1.44c.34,0,.59-.01.83-.05v.8c-.28-.04-.5-.05-.82-.05h-3.68c-.31,0-.57.01-.85.05v-.8c.26.04.52.05.84.05h1.54v-1.48h-.93c-.28,0-.52.01-.73.04v-.77c.19.03.39.04.72.04h.93v-1.29h-1.23Z"/>
            <path class="cls-2" d="M21.98,21.56c-.02.08-.04.16-.08.54-.12.95-.27,1.73-.47,2.4-.27.86-.58,1.49-1.06,2.16-.29-.32-.38-.41-.69-.6.36-.42.61-.85.86-1.49.26-.65.47-1.52.56-2.4.04-.29.05-.53.05-.68v-.1l.82.18ZM23.68,21.38c.02.39.11,1,.25,1.61.29,1.28.69,2.18,1.34,3.03-.32.24-.42.34-.66.64-.43-.6-.74-1.23-1.02-2.06-.26-.74-.47-1.67-.57-2.55-.04-.27-.05-.4-.08-.5l.75-.17Z"/>
            <path class="cls-2" d="M28.6,21.14c-.07.15-.07.17-.16.5-.46,1.75-.81,2.91-1.19,3.99.94-.08,1.98-.23,2.5-.36-.07-.17-.14-.32-.28-.64-.26-.58-.37-.78-.57-1.11l.68-.31c.56.95,1.09,2.13,1.46,3.24l-.73.44q-.08-.29-.29-.87-.08.02-.22.06c-.61.15-1.61.29-3.4.5-.34.04-.43.05-.55.08l-.11-.95h.16c.12,0,.26,0,.52-.02.32-.88.56-1.67.87-2.82.28-1.03.4-1.53.44-1.94l.87.2Z"/>
            <path class="cls-2" d="M31.42,27.32c.37-.59.5-.88.65-1.37.18-.6.26-1.22.26-1.99s-.08-1.39-.26-1.99c-.14-.49-.28-.77-.65-1.36h1.82v6.7h-1.82Z"/>
          </g>
          <g>
            <path class="cls-2" d="M40.99,26.86c-.5-.71-1.19-1.5-1.85-2.08-.68.88-1.37,1.5-2.29,2.02-.17-.36-.24-.48-.49-.78.46-.21.75-.4,1.2-.77.91-.74,1.63-1.76,2.02-2.85l.07-.18q-.1,0-1.99.04c-.29,0-.45.02-.66.06l-.02-.9c.17.04.28.04.53.04h.14l2.12-.04c.34,0,.38-.01.54-.08l.4.48c-.08.11-.13.2-.19.38-.28.75-.57,1.36-.94,1.93.38.29.7.59,1.11,1.02q.15.15.88.97l-.58.73Z"/>
            <path class="cls-2" d="M46.88,23.25c-.06.13-.1.22-.17.44-.31,1.03-.77,1.81-1.39,2.37-.43.38-.82.62-1.58.95-.13-.35-.2-.47-.47-.81.73-.22,1.21-.48,1.67-.92.45-.43.7-.86.97-1.64h-2.93c-.4,0-.55,0-.77.04v-.85c.23.04.36.05.78.05h2.86c.37,0,.49-.01.68-.06l.34.45ZM42.73,21.12c.2.04.32.05.7.05h2.1c.38,0,.51,0,.7-.05v.86c-.19-.03-.3-.04-.69-.04h-2.12c-.39,0-.51,0-.69.04v-.86Z"/>
            <path class="cls-2" d="M52.79,21.5c-.1.11-.13.13-.22.25-.45.55-.9,1-1.42,1.44v2.99c0,.38,0,.59.03.78h-.84c.03-.2.04-.34.04-.76v-2.47c-.7.49-1.04.67-2.15,1.13-.13-.36-.19-.48-.4-.8,1.19-.38,2.2-.96,3.16-1.82.54-.48.94-.97,1.12-1.31l.69.56Z"/>
            <path class="cls-2" d="M58.28,26.86c-.5-.71-1.19-1.5-1.85-2.08-.68.88-1.37,1.5-2.29,2.02-.17-.36-.24-.48-.49-.78.46-.21.75-.4,1.2-.77.91-.74,1.63-1.76,2.02-2.85l.07-.18q-.1,0-1.99.04c-.29,0-.45.02-.66.06l-.02-.9c.17.04.28.04.53.04h.14l2.12-.04c.34,0,.38-.01.54-.08l.4.48c-.08.11-.13.2-.19.38-.28.75-.57,1.36-.94,1.93.38.29.7.59,1.11,1.02q.15.15.88.97l-.58.73Z"/>
            <path class="cls-2" d="M64.9,20.68l-4.56,6.58h-.88l4.55-6.58h.89Z"/>
            <path class="cls-2" d="M66.5,26.29c-.42,0-.56,0-.74.03v-.9c.22.04.33.05.75.05h2.74v-3.05h-2.63c-.43,0-.55,0-.77.04v-.91c.22.04.34.05.78.05h2.89q.31,0,.52-.01c-.02.19-.02.26-.02.58v3.84c0,.35,0,.55.03.72h-.81v-.43h-2.74Z"/>
            <path class="cls-2" d="M71.67,26.22v.49h-.78c.02-.17.02-.34.02-.6v-4.01c0-.27,0-.4-.02-.59.14.01.27.02.51.02h3.42c.26,0,.37,0,.5-.02-.01.18-.02.32-.02.58v4.01c0,.26,0,.45.02.61h-.78v-.48h-2.89ZM74.56,22.32h-2.89v3.1h2.89v-3.1Z"/>
            <path class="cls-2" d="M77,26.29c-.42,0-.56,0-.74.03v-.9c.22.04.33.05.75.05h2.74v-3.05h-2.63c-.43,0-.55,0-.77.04v-.91c.22.04.34.05.78.05h2.89q.31,0,.52-.01c-.02.19-.02.26-.02.58v3.84c0,.35,0,.55.03.72h-.81v-.43h-2.74Z"/>
            <path class="cls-2" d="M82.05,26.22v.49h-.78c.02-.17.02-.34.02-.6v-4.01c0-.27,0-.4-.02-.59.14.01.27.02.51.02h3.42c.26,0,.37,0,.5-.02-.01.18-.02.32-.02.58v4.01c0,.26,0,.45.02.61h-.78v-.48h-2.89ZM84.94,22.32h-2.89v3.1h2.89v-3.1Z"/>
            <path class="cls-2" d="M91.76,20.68l-4.56,6.58h-.88l4.55-6.58h.89Z"/>
            <path class="cls-2" d="M93.02,23.29c.91-.2,2.24-.82,2.63-1.25l.48.79c-.07.03-.08.04-.13.06l-.16.09c-.89.53-1.82.9-2.83,1.11v.92s0,.08,0,.11c0,.39.02.55.11.64.1.12.44.18,1.03.18.4,0,.96-.04,1.4-.11.29-.04.42-.08.68-.17l.04.93c-.13,0-.16,0-.79.08-.36.04-1.11.08-1.48.08-.76,0-1.17-.09-1.41-.3-.17-.15-.26-.37-.29-.71-.01-.12-.02-.24-.02-.64v-3.25c0-.36,0-.47-.03-.64h.81c-.02.17-.03.29-.03.65v1.42ZM97.18,21.44c0,.45-.31.81-.7.81s-.69-.36-.69-.81.31-.81.69-.81.7.36.7.81ZM96.09,21.44c0,.25.17.46.39.46s.4-.21.4-.46-.17-.46-.4-.46-.39.2-.39.46Z"/>
            <path class="cls-2" d="M96.71,23.46c.26.04.38.05.97.05h3.21c.59,0,.71,0,.97-.05v.97c-.24-.04-.31-.04-.98-.04h-3.19c-.67,0-.74,0-.98.04v-.97Z"/>
            <path class="cls-2" d="M106.62,26.86c-.5-.71-1.19-1.5-1.85-2.08-.68.88-1.37,1.5-2.29,2.02-.17-.36-.24-.48-.49-.78.46-.21.75-.4,1.2-.77.91-.74,1.63-1.76,2.02-2.85l.07-.18q-.1,0-1.99.04c-.29,0-.45.02-.66.06l-.02-.9c.17.04.28.04.53.04h.14l2.12-.04c.34,0,.38-.01.54-.08l.4.48c-.08.11-.13.2-.19.38-.28.75-.57,1.36-.94,1.93.38.29.7.59,1.11,1.02q.15.15.88.97l-.58.73Z"/>
            <path class="cls-2" d="M112.88,20.68l-4.56,6.58h-.88l4.55-6.58h.89Z"/>
            <path class="cls-2" d="M116.15,22.22c.08-.2.11-.31.17-.53h-1.75v.57c0,1.65-.1,2.93-.3,3.7-.13.5-.27.88-.45,1.21-.17-.3-.24-.4-.47-.68.44-.91.58-1.91.58-4.26,0-.7,0-.99-.04-1.26.23.03.46.04.77.04h3.42c.35,0,.58-.01.73-.04v.76c-.17-.03-.36-.04-.7-.04h-1.12c-.06.2-.1.34-.17.53h1.01c.29,0,.46,0,.61-.03-.02.19-.02.38-.02.68v1.38c0,.31,0,.49.02.68-.19-.02-.38-.03-.6-.03h-.84v1.54c0,.56-.17.69-.91.69-.16,0-.28,0-.54-.01-.03-.36-.05-.46-.14-.75.33.06.51.07.71.07.19,0,.23-.02.23-.13v-1.41h-.81c-.22,0-.42,0-.6.03.01-.2.02-.4.02-.7v-1.34c0-.32,0-.48-.02-.7.16.02.35.03.6.03h.62ZM115.85,25.35c-.33.79-.62,1.25-1.05,1.7-.17-.22-.29-.34-.49-.52.46-.46.76-.93.95-1.47l.58.29ZM115.56,23.25h2.22v-.41h-2.22v.41ZM115.56,24.28h2.22v-.43h-2.22v.43ZM117.86,25.05c.29.56.66,1.02,1.1,1.37-.17.17-.32.37-.47.6-.49-.48-.69-.76-1.17-1.64l.54-.33Z"/>
            <path class="cls-2" d="M122.88,22.82c.52,1.16,1.26,2.02,2.34,2.71-.23.29-.28.37-.46.74-.54-.44-.87-.76-1.16-1.11-.4-.49-.67-.94-.97-1.59.03.32.04.57.04.79v1.96c0,.34.01.62.04.87h-.78c.03-.27.04-.53.04-.88v-1.95c0-.17.01-.49.03-.76-.45,1.08-1.09,1.92-2.06,2.7-.14-.32-.26-.51-.44-.71,1-.67,1.83-1.69,2.26-2.77h-1.32c-.27,0-.49.01-.72.05v-.83c.23.04.43.05.72.05h1.53v-.66c0-.27-.01-.46-.04-.65h.78c-.03.2-.04.38-.04.64v.67h1.62c.31,0,.53-.01.73-.05v.83c-.22-.04-.47-.05-.73-.05h-1.4Z"/>
            <path class="cls-2" d="M127.52,24.35q0-.17.02-.77c-.14.29-.29.53-.51.81-.08-.29-.16-.48-.31-.83.45-.51.8-1.17,1.06-1.93.12-.35.2-.69.23-.95l.68.24c-.05.16-.06.2-.12.4-.14.47-.22.71-.42,1.16v3.9c0,.33.01.58.03.85h-.7c.02-.25.04-.48.04-.85v-2.02ZM129.54,23.58v2.45c0,.14.03.18.16.22.15.04.33.06.76.06.68,0,.94-.03,1.07-.13.07-.05.12-.17.14-.32.02-.13.02-.22.04-.55.26.13.37.16.66.22-.07.8-.15,1.07-.34,1.24-.23.19-.63.25-1.73.25s-1.41-.14-1.41-.7v-2.49c-.05.02-.1.04-.12.04-.17.07-.23.1-.35.16l-.05-.8c.14-.02.32-.07.52-.14v-.83c0-.33,0-.52-.04-.74h.71c-.03.2-.04.38-.04.71v.62l.62-.23v-1.14c0-.28-.01-.46-.04-.7h.7c-.02.22-.04.39-.04.68v.93l.88-.33c.23-.08.37-.15.49-.21,0,.15,0,.2,0,.38-.01.84-.05,1.81-.1,2.26-.06.52-.21.68-.67.68-.11,0-.18,0-.33-.02-.03-.27-.07-.43-.17-.71.16.04.31.06.41.06.13,0,.16-.05.19-.38.03-.27.05-.74.05-1.29l-.73.28v1.82c0,.29,0,.46.04.7h-.7c.03-.22.04-.4.04-.72v-1.56l-.62.23Z"/>
          </g>
          <g>
            <path class="cls-2" d="M135.38,26.74c-.24-.4-.35-.62-.47-.99-.15-.46-.23-.9-.23-1.38s.07-.89.22-1.34c.12-.37.23-.59.47-.99h.6c-.3.44-.42.67-.54,1-.15.41-.22.84-.22,1.33s.07.96.23,1.37c.12.33.24.55.54,1h-.6Z"/>
            <path class="cls-2" d="M136.97,26.39c.03-.2.03-.39.03-.66v-2.75h-.21c-.16,0-.28,0-.44.03v-.64c.13.03.23.03.43.03h.39c.22,0,.28,0,.44-.03-.03.29-.03.53-.03.83v2.53c0,.27,0,.45.03.66h-.65Z"/>
            <path class="cls-2" d="M139.42,24.04c0-.11,0-.18-.01-.29.09.01.18.02.3.02h.93v-.65h-.9c-.22.41-.43.7-.71.99-.12-.21-.17-.28-.32-.45.44-.44.66-.77.84-1.26.06-.16.09-.27.1-.37l.51.12c-.03.06-.03.08-.06.15,0,.02-.05.12-.12.32h2.01c.2,0,.31,0,.44-.03v.55c-.13-.02-.24-.03-.44-.03h-.87v.65h.69c.2,0,.31,0,.44-.03v.53c-.13-.01-.24-.02-.43-.02h-.7v.81h.99c.2,0,.33,0,.47-.03v.57c-.13-.02-.28-.03-.47-.03h-.99v.62c0,.26,0,.39.03.54h-.52c.02-.15.03-.28.03-.55v-.62h-1.44c-.19,0-.33,0-.47.03v-.57c.14.02.27.03.47.03h.22v-1.02ZM140.64,25.06v-.81h-.77v.81h.77Z"/>
            <path class="cls-2" d="M144.3,24.4c0,.33-.23.59-.51.59s-.51-.26-.51-.59.23-.6.51-.6.51.26.51.6Z"/>
            <path class="cls-2" d="M145.76,26.39c-.33,0-.4,0-.55.03.03-.29.06-.46.11-.64.12-.37.31-.69.59-.98.15-.15.28-.27.71-.61.39-.32.51-.48.51-.74,0-.34-.23-.55-.59-.55-.25,0-.44.1-.54.3-.07.12-.1.23-.13.46l-.61-.08c.06-.38.14-.59.3-.8.21-.29.55-.45.98-.45.75,0,1.21.42,1.21,1.11,0,.33-.09.57-.3.8-.12.13-.16.17-.72.62-.19.16-.4.37-.51.5-.13.16-.18.26-.24.45h1.2c.27,0,.48-.01.63-.04v.66c-.2-.02-.37-.03-.65-.03h-1.38Z"/>
            <path class="cls-2" d="M149.17,24.04c0-.11,0-.18-.01-.29.09.01.18.02.3.02h.93v-.65h-.9c-.22.41-.43.7-.71.99-.12-.21-.17-.28-.32-.45.44-.44.66-.77.84-1.26.06-.16.09-.27.1-.37l.51.12c-.03.06-.03.08-.06.15,0,.02-.05.12-.12.32h2.01c.2,0,.31,0,.44-.03v.55c-.13-.02-.24-.03-.44-.03h-.87v.65h.69c.2,0,.31,0,.44-.03v.53c-.13-.01-.24-.02-.43-.02h-.7v.81h.99c.2,0,.33,0,.47-.03v.57c-.13-.02-.28-.03-.47-.03h-.99v.62c0,.26,0,.39.03.54h-.52c.02-.15.03-.28.03-.55v-.62h-1.44c-.19,0-.33,0-.47.03v-.57c.14.02.27.03.47.03h.22v-1.02ZM150.39,25.06v-.81h-.77v.81h.77Z"/>
            <path class="cls-2" d="M152.8,26.37c.31-.29.39-.41.53-.73l.41.21c-.2.45-.29.6-.56.89l-.38-.38ZM154.12,25.29c0,.26-.11.35-.46.35-.09,0-.16,0-.38-.02-.02-.19-.03-.24-.1-.42.14.03.33.05.44.05.06,0,.08-.02.08-.09v-.18q-.48.04-.54.04c-.1,0-.14,0-.27.03l-.06-.46c.07.01.13.02.21.02s.5-.01.66-.02c0-.08,0-.12-.02-.17h.08c.11-.04.18-.09.25-.14h-.8c-.1,0-.18,0-.25.02v-.39c.09,0,.14.02.27.02h1.07c.15,0,.18,0,.24-.01l.18.21c-.2.16-.35.26-.61.39v.06c.23-.02.34-.04.66-.09v.37c-.31.05-.42.06-.66.09v.37ZM153.68,22.35c0-.1,0-.16-.02-.26h.48c-.01.08-.02.16-.02.26v.07h.33c.15,0,.28,0,.4-.02v.42c-.1,0-.18-.01-.36-.01h-1.25c-.17,0-.28,0-.39.02v-.43c.12.01.25.02.41.02h.42v-.07ZM153.07,23.2c0-.09,0-.17-.01-.24.06,0,.12.01.25.01h1.17c.08,0,.15,0,.22,0,0,.11,0,.13,0,.22v.35c0,.08,0,.17,0,.24-.07,0-.13,0-.21,0h-1.16c-.09,0-.19,0-.27,0,0-.08.01-.15.01-.24v-.33ZM153.49,23.46h.78v-.18h-.78v.18ZM154.07,26.68v-.18c0-.21-.02-.48-.06-.76l.43-.05c.07.35.09.58.1.95l-.47.04ZM154.98,23.55c.13.15.18.2.27.3.03-.15.03-.25.05-.52h-.15c-.11,0-.19,0-.28.02v-.54c.09.01.15.02.28.02h.16v-.16c0-.07,0-.12,0-.15,0-.18,0-.3-.03-.41h.47c-.02.11-.02.18-.03.37,0,.13,0,.18,0,.35h.25c.15,0,.25,0,.36-.02,0,.1-.02.3-.02.48,0,.16.03.71.05.99.02.27.08.61.11.61.03,0,.06-.33.07-.74.13.12.19.17.3.22-.04.55-.07.77-.14.93-.06.13-.15.21-.24.21-.14,0-.26-.14-.36-.4-.13-.34-.18-.86-.19-1.76h-.21c-.02.38-.06.62-.13.93.15.2.21.29.39.55l-.29.45c-.14-.24-.18-.31-.28-.47-.17.38-.34.61-.63.88-.09-.17-.17-.26-.3-.39.33-.25.49-.48.65-.89-.13-.17-.2-.25-.39-.44l.27-.39ZM155.09,26.68c-.06-.45-.09-.56-.21-.9l.43-.12c.12.34.18.54.24.89l-.47.14ZM156.29,26.7c-.16-.38-.28-.58-.54-.95l.36-.25c.33.42.43.58.59.88l-.41.32Z"/>
            <path class="cls-2" d="M161,23.84q-.03.07-.09.26c-.19.54-.36.91-.58,1.25.08.18.17.32.26.43.07.09.17.18.19.18.02,0,.03-.03.06-.1q.03-.12.08-.58c.15.17.2.22.39.33-.1.68-.25.97-.49.97-.22,0-.56-.33-.81-.81-.32.37-.66.66-1.04.88-.13-.23-.18-.29-.33-.44.45-.21.83-.52,1.15-.92-.18-.52-.27-1.12-.32-2h-1.33q0,.48,0,.66h.79c.15,0,.21,0,.3-.02,0,.09-.02.23-.03.43-.04.9-.07,1.17-.14,1.38-.07.2-.22.28-.55.28-.12,0-.19,0-.33-.01-.02-.22-.05-.34-.11-.53.23.04.29.04.42.04.13,0,.17-.03.19-.16.03-.18.06-.5.06-.91h-.63c-.03.57-.07.92-.13,1.26-.08.4-.16.63-.35.98-.13-.2-.22-.3-.37-.43.15-.27.24-.5.3-.79.09-.42.13-1.09.13-1.98,0-.39,0-.51-.03-.71.15.02.33.03.55.03h1.24s0-.17-.01-.39c0-.18,0-.21-.02-.32h.51c-.01.11-.02.31-.02.48v.23h.57c-.12-.19-.2-.29-.38-.46l.33-.25c.2.2.27.28.43.53l-.22.18h.13c.23,0,.34,0,.46-.03v.55c-.14-.02-.3-.03-.52-.03h-.77c.04.66.1,1.12.2,1.5.21-.41.36-.82.41-1.17l.46.21Z"/>
            <path class="cls-2" d="M161.48,26.74c.3-.45.42-.67.54-1,.15-.42.23-.86.23-1.37s-.07-.92-.22-1.33c-.12-.33-.25-.56-.55-1h.6c.24.4.34.62.47.99.15.46.22.86.22,1.34s-.07.92-.22,1.38c-.12.37-.23.58-.47.99h-.6Z"/>
          </g>
          <g>
            <path class="cls-4" d="M14.39,12.16c0-.58.03-1.24.07-1.83-.49,1.49-.75,1.84-.77,1.84,0,0-.02,0-.04-.02-.25-.3-1.02-.86-1.02-.86.65-.65,1.2-1.85,1.49-2.63h-1.04v-1.3h1.32v-.8c-.3.06-.8.15-.8.15-.02,0-.03,0-.04-.04-.13-.28-.78-1.13-.78-1.13.37,0,2.47-.28,3.16-.65,0,0,.74.81.93,1.04.03.04.05.07.05.1,0,.04-.04.06-.09.06-.06,0-.15-.03-.25-.08-.25.08-.54.16-.82.24v1.11s.84,0,.84,0v1.3h-.66c.15.29.37.69.62,1.08.22-.52.28-1.21.28-1.82,0-.53-.04-.99-.08-1.23,0,0,1,.03,1.3.06.15.02.23.07.23.12s-.09.11-.28.15c0,.24,0,.57,0,.94,0,.56-.02,1.21-.15,1.81,0,.04-.04.05-.07.05-.19-.02-.46-.03-1.2-.03.17.27.37.53.56.76,0,0-.77.36-.98.6,0,0-.03.02-.04.02-.08,0-.32-.75-.49-1.4.05.75.11,1.85.11,2.45v.91c2.63-1.57,2.7-3.91,2.7-6.19,0-.9-.04-1.87-.04-2,0,0,1.22.02,1.53.06.12.02.19.06.19.1,0,.05-.09.11-.28.16-.04.74-.03,1.52-.07,2.27.02.33.05.65.09.96.33-.53.72-1.28,1.05-2.08,0,0,1.11.47,1.34.62.08.05.12.1.12.14,0,.07-.1.11-.27.11h-.04c-.72,1.21-1.4,2.19-1.46,2.19-.02,0-.03,0-.05,0-.12-.06-.34-.13-.56-.19.35,1.53,1.11,2.76,2.47,3.79,0,0-.99.49-1.31.85-.02.02-.03.03-.05.03s-1.18-.91-1.86-3.22c-.76,2.37-2.23,3.32-2.24,3.32-.02,0-.03-.01-.05-.03-.23-.22-.91-.58-1.21-.73v.85h-1.37v-1.97Z"/>
            <path class="cls-4" d="M23.91,5.8h8.04v8.15h-1.42v-.62h-5.21v.65h-1.41V5.8ZM27.11,8.8v-1.7h-1.8v1.7h1.8ZM27.11,12v-1.91h-1.8v1.91h1.8ZM30.51,8.8v-1.7h-1.96v1.7h1.96ZM30.52,12v-1.91h-1.97v1.91h1.97Z"/>
            <path class="cls-4" d="M36.27,11.53c.1.07.86.51,1.15.76.08.07.12.13.12.17,0,.05-.06.08-.14.08-.07,0-.15-.02-.22-.06-.64.57-1.35,1.2-2.34,1.57-.03,0-.06.02-.08.02s-.04,0-.06-.04c-.21-.34-1.14-.93-1.14-.93,1.9-.45,2.6-1.41,2.71-1.57ZM34.27,6.6s-.02-.51-.03-.8c0,0,1.32.04,1.54.08.11.02.17.06.17.11,0,.06-.09.13-.29.17-.01.14-.02.46-.02.46v3.78h7.13v1.09h-3.78v2.72h-1.33v-2.72h-2.02v.41h-1.37v-5.3ZM36.26,5.19h5.41v4.89h-1.37v-.14h-2.72v.18h-1.32v-4.93ZM40.3,6.56v-.4h-2.72v.4h2.72ZM40.3,7.81v-.43h-2.72v.43h2.72ZM40.3,9.07v-.44h-2.72v.44h2.72ZM40.31,11.53c.2.19,1.31,1.04,2.8,1.4,0,0-.97.62-1.23,1.02-.02.04-.04.05-.07.05-.12,0-1.41-.6-2.55-1.74l1.05-.73Z"/>
            <path class="cls-4" d="M44.36,7.19h3.54v-.45c0-.76-.02-1.49-.05-1.78.28,0,1.39.05,1.6.06.23,0,.33.07.33.14s-.12.16-.33.2c0,.27-.04,1.31-.04,1.79v.04h3.62v1.38h-3.42c.54,1.89,1.87,3.48,4.01,4.35,0,0-1.19.59-1.59.96-.05.05-.08.06-.11.06-.06,0-2.02-.98-3.18-3.67-1.16,2.81-3.22,3.79-3.26,3.79-.02,0-.04-.02-.08-.05-.38-.33-1.61-.88-1.61-.88,2.53-1.05,3.59-2.88,3.95-4.56h-3.38v-1.38Z"/>
            <path class="cls-4" d="M55.1,8.24c-.27-.28-.96-.7-.96-.7,1.61-1.05,2.25-2.74,2.25-2.74,0,0,1.06.18,1.31.26.1.03.17.08.17.13,0,.06-.09.11-.3.13.17.29.52.76,1.15,1.21v-.74h1.59v-.21s0-.45-.03-.68c0,0,1.13.04,1.5.09.11.01.18.05.18.1,0,.06-.09.12-.28.16-.02.1-.02.23-.02.32v.22h1.91v2.14h-.7s0,2.49,0,2.49h-1.24v-.29h-1.32v.62h2.91v3.38h-1.24v-.52h-1.67v.51h-1.23v-.66l-.99.49s-.13-.44-.42-1.04c-.5.2-1.48.56-2.64.88v.06c0,.15-.04.23-.1.23-.05,0-.1-.04-.16-.14-.21-.36-.55-1.23-.55-1.23.3-.05.59-.11.88-.17v-4.3ZM56.43,7.72v-.62c-.16.21-.34.42-.53.62h.53ZM57.44,9v-.41h-1.16v.41h1.16ZM57.44,10.31v-.44h-1.16v.44h1.16ZM56.28,12.24c.32-.09.61-.19.85-.27-.08-.12-.17-.25-.27-.38l.58-.23v-.11h-1.16v.99ZM57.4,6.94c-.16-.2-.31-.4-.44-.58-.11.17-.24.35-.38.54.2,0,.57.02.82.04ZM59.08,7.89h-.36v-.69c-.2.15-.41.32-.51.44-.02.02-.03.03-.04.03-.02,0-.03,0-.06-.03-.17-.14-.33-.29-.48-.45-.04.02-.1.05-.16.06v.47h1.14v3.7h-.64c.52.68.91,1.33,1.11,1.69v-5.22ZM62.26,7.42v-.49h-2.26v.49h2.26ZM61.62,9.08v-.63h-1.32v.63h1.32ZM61.97,12.53v-.74h-1.67v.74h1.67Z"/>
            <path class="cls-4" d="M64.95,6h3.73v-.37s0-.48-.04-.77c1.59.03,1.88.1,1.88.22,0,.07-.12.15-.34.2,0,.17-.03.37-.03.59v.13h3.82v1.28h-9.01v-1.28ZM65.81,8.18h2.87v-.06s0-.38-.03-.72c0,0,1.36.05,1.59.08.12,0,.19.06.19.11,0,.06-.09.13-.29.17-.01.14-.02.33-.02.42h2.99v2.46c0,.29,0,.81,0,.96,0,1.09-.88,1.4-1.82,1.4-.09,0-.18,0-.27,0-.11,0-.12-.04-.12-.06-.05-.35-.73-1.34-.73-1.34.39.04.72.08.97.08.38,0,.59-.08.59-.37v-1.95h-1.62v4.75h-1.44v-4.75h-1.46v3.7h-1.4v-4.87Z"/>
          </g>
        </g>
      </g>
    </g>
  </g>
</svg>