<?xml version="1.0" encoding="UTF-8"?>
<svg xmlns="http://www.w3.org/2000/svg" viewBox="0 0 167.96 27.67">
  <defs>
    <style>
      .cls-1 {
        mix-blend-mode: multiply;
      }

      .cls-1, .cls-2 {
        fill: #ef8586;
      }

      .cls-3 {
        isolation: isolate;
      }

      .cls-4 {
        fill: #231815;
      }

      .cls-5 {
        fill: #fff;
      }
    </style>
  </defs>
  <g class="cls-3">
    <g id="_レイヤー_2" data-name="レイヤー 2">
      <g id="_テキスト1" data-name="テキスト1">
        <g>
          <g>
            <rect class="cls-2" x=".36" width="167.6" height="17.49"/>
            <rect class="cls-1" x=".36" width="8.29" height="17.49"/>
          </g>
          <g>
            <path class="cls-4" d="M0,27.67v-6.7h2.12c-.44.59-.6.88-.76,1.36-.2.59-.3,1.23-.3,1.99s.1,1.4.3,1.99c.17.49.33.78.76,1.37H0Z"/>
            <path class="cls-4" d="M2.8,22.85c.47.27.76.46,1.26.88l-.45.64c-.51-.47-.71-.62-1.26-.95l.45-.57ZM4.03,25.21c-.22.71-.42,1.23-.74,1.84l-.22.43-.67-.58c.36-.4.69-1.09,1.01-2.13l.63.44ZM3.11,21.12c.49.32.76.53,1.13.9l-.48.64c-.36-.43-.66-.69-1.13-.98l.48-.56ZM8.09,24.39c.25,0,.51-.01.74-.04v.77c-.22-.02-.49-.04-.73-.04h-1.02c.46.58,1.18,1.07,1.93,1.34-.18.26-.22.35-.35.76-.82-.38-1.49-.93-1.93-1.6.01.25.02.37.02.55v.71c0,.29.01.5.04.69h-.8c.03-.21.03-.4.03-.71v-.7c0-.16,0-.17.02-.55-.41.69-.95,1.18-1.77,1.6-.13-.32-.2-.41-.43-.67.77-.3,1.41-.79,1.83-1.42h-.76c-.27,0-.52.01-.74.04v-.78c.22.03.46.04.74.04h1.11v-.19c0-.19,0-.32-.03-.46h.78c-.02.14-.03.26-.03.46v.19h1.34ZM6.27,22.03c-.05.52-.15.86-.32,1.16-.26.44-.66.74-1.32.98-.12-.29-.17-.37-.39-.63.92-.26,1.25-.62,1.33-1.51h-.6v.73h-.73c.02-.14.03-.29.03-.46v-.51c0-.19,0-.35-.02-.48q.06,0,.19.01c.05,0,.37.01.53.01h3c.4,0,.6,0,.78-.03-.01.15-.02.29-.02.5v.37c0,.18,0,.31.03.46h-.74v-.62h-.67v1.02c0,.13.06.16.39.16.41,0,.42-.02.43-.49.25.11.34.13.65.18-.04.5-.07.66-.2.78-.13.13-.39.17-.97.17-.76,0-1-.11-1-.46v-1.36h-.38Z"/>
            <path class="cls-4" d="M13.24,22.48c.34.53.68.9,1.22,1.32.54.43,1.04.71,1.74.97-.15.22-.29.5-.38.74-.4-.18-.53-.25-.87-.46v1.73c0,.33.01.54.04.76h-.82v-.34h-2.63v.34h-.81c.03-.22.04-.46.04-.76v-1.71c-.29.17-.44.26-.83.45-.12-.3-.2-.46-.38-.71.65-.26,1.16-.55,1.66-.94.53-.42.89-.83,1.22-1.39h.81ZM12.39,21.54c-.32.44-.56.69-1.02,1.05-.33.27-.48.35-1.15.71-.15-.26-.28-.42-.49-.63.55-.27.94-.48,1.26-.74.37-.29.57-.53.76-.85l.63.46ZM14.27,24.59c-.57-.43-1.03-.9-1.41-1.44-.36.53-.85,1.02-1.39,1.44h2.8ZM11.54,26.51h2.63v-1.24h-2.63v1.24ZM13.93,21.07c.34.45.6.69,1.08,1.02.26.17.47.29,1.01.53-.18.22-.32.46-.44.7-1.05-.59-1.51-.96-2.24-1.8l.6-.46Z"/>
            <path class="cls-4" d="M19.54,25.35c-.4.9-.85,1.32-1.42,1.32-.8,0-1.37-.81-1.37-1.94,0-.77.27-1.49.77-2.04.59-.64,1.42-.98,2.41-.98,1.68,0,2.77,1.02,2.77,2.6,0,1.21-.63,2.18-1.7,2.61-.34.14-.61.21-1.1.29-.12-.37-.2-.53-.43-.82.64-.08,1.06-.2,1.39-.38.61-.34.97-1,.97-1.75,0-.67-.3-1.22-.86-1.55-.22-.13-.4-.18-.71-.21-.13,1.1-.38,2.07-.73,2.86ZM18.51,22.84c-.59.42-.95,1.14-.95,1.89,0,.57.24,1.03.55,1.03.23,0,.47-.29.72-.9.27-.63.5-1.58.58-2.37-.36.04-.62.14-.9.34Z"/>
            <path class="cls-4" d="M24.37,22.03c-.38,0-.65.01-.86.04v-.76c.21.03.49.04.86.04h4.44c.38,0,.7-.01.89-.04v.76c-.21-.02-.49-.04-.88-.04h-1.13v.45h1.02c.28,0,.46,0,.64-.02-.02.2-.03.34-.03.59v.71c0,.28,0,.41.03.59-.18-.02-.37-.03-.64-.03h-1.75v.49h1.91c.41,0,.65-.01.85-.04v.76c-.25-.03-.5-.04-.85-.04h-1.37c.57.56,1.42.98,2.38,1.18-.22.27-.32.41-.45.72-1.06-.34-1.91-.88-2.51-1.59.01.29.02.46.02.62v.39c0,.36,0,.54.04.71h-.85c.03-.2.04-.4.04-.71v-.39c0-.19,0-.36.02-.62-.53.68-1.23,1.15-2.38,1.6-.13-.29-.25-.46-.48-.7.5-.13.82-.25,1.16-.41.44-.22.84-.5,1.13-.81h-1.29c-.34,0-.59.01-.83.04v-.76c.22.04.43.04.83.04h1.84v-.49h-1.65c-.29,0-.44,0-.64.03.02-.2.03-.34.03-.59v-.71c0-.25,0-.4-.03-.59.19.01.32.02.64.02h.97v-.45h-1.13ZM24.64,23.1v.61h.85v-.61h-.85ZM26.18,22.47h.82v-.45h-.82v.45ZM26.18,23.71h.82v-.61h-.82v.61ZM27.68,23.71h.9v-.61h-.9v.61Z"/>
            <path class="cls-4" d="M29.71,27.67c.43-.59.59-.88.76-1.37.21-.59.31-1.22.31-1.99s-.1-1.39-.31-1.99c-.17-.49-.33-.77-.76-1.36h2.12v6.7h-2.12Z"/>
            <path class="cls-4" d="M34.05,24.47c-.46,0-.64,0-.88.04v-.85c.26.04.41.05.9.05h1.27v-1.21h-.85c-.5,0-.65,0-.89.04v-.85c.26.04.41.05.9.05h3.19c.5,0,.65,0,.91-.05v.85c-.24-.03-.38-.04-.9-.04h-1.51v1.21h1.95c.48,0,.64,0,.9-.05v.85c-.24-.03-.43-.04-.88-.04h-1.96v1.12c0,.42.04.53.19.59.13.06.35.09.72.09.25,0,.68-.02,1.04-.06.27-.03.41-.05.65-.12l.02.89s-.09,0-.12,0q-.06,0-.57.04c-.31.02-.78.04-1.11.04-1.37,0-1.69-.23-1.69-1.22v-1.38h-1.28Z"/>
            <path class="cls-4" d="M39.58,26.14c.6-.04,1.44-.24,2.07-.52.88-.38,1.53-.92,2.08-1.72.31-.45.5-.83.71-1.4.27.33.38.43.74.69-.6,1.28-1.26,2.11-2.22,2.75-.71.48-1.58.82-2.67,1.05-.28.06-.3.06-.46.12l-.26-.97ZM40.18,21.79c.83.52,1.27.84,1.81,1.35l-.6.76c-.56-.59-1.13-1.06-1.79-1.42l.58-.69Z"/>
            <path class="cls-4" d="M51,22.62c-.06.11-.08.17-.12.32-.55,2.21-1.81,3.64-3.99,4.54-.18-.36-.3-.53-.62-.83,1.94-.6,3.21-1.91,3.66-3.77h-3.33c-.52,0-.65,0-.88.04v-.91c.25.04.42.05.9.05h3.21c.25,0,.37,0,.5-.02-.12-.25-.25-.46-.43-.71l.51-.19c.27.36.44.64.62,1.11l-.28.11.25.26ZM51.41,22.13c-.17-.41-.36-.77-.6-1.09l.5-.19c.29.37.46.65.62,1.06l-.52.21Z"/>
            <path class="cls-4" d="M57.29,23.6c-.07.13-.11.22-.2.44-.37,1.03-.9,1.81-1.62,2.37-.5.38-.95.62-1.84.95-.15-.35-.24-.47-.54-.81.85-.22,1.41-.48,1.95-.92.52-.43.82-.86,1.13-1.64h-3.41c-.47,0-.64,0-.9.04v-.85c.27.04.42.05.91.05h3.33c.43,0,.57-.01.79-.06l.4.45ZM52.46,21.47c.23.04.38.05.82.05h2.44c.44,0,.59,0,.82-.05v.86c-.22-.03-.35-.04-.8-.04h-2.47c-.46,0-.59,0-.81.04v-.86Z"/>
            <path class="cls-4" d="M57.82,26.14c.6-.04,1.44-.24,2.07-.52.88-.38,1.53-.92,2.08-1.72.31-.45.5-.83.71-1.4.27.33.38.43.74.69-.6,1.28-1.26,2.11-2.22,2.75-.71.48-1.58.82-2.67,1.05-.28.06-.3.06-.46.12l-.26-.97ZM58.41,21.79c.83.52,1.27.84,1.81,1.35l-.6.76c-.56-.59-1.13-1.06-1.79-1.42l.58-.69Z"/>
            <path class="cls-4" d="M68.28,21.03l-5.31,6.58h-1.03l5.3-6.58h1.04Z"/>
            <path class="cls-4" d="M69.69,23.62c.37.31.58.5.87.78q.38.39.43.43c.36-.31.66-.59.92-.88.3-.34.69-.86.85-1.14t.04-.06s0-.02.01-.04c-.07,0-.18.01-.32.01h-3.34c-.57,0-.64,0-.9.04v-.89c.27.04.44.05.91.05h3.89c.3,0,.41-.01.58-.06l.49.55c-.11.11-.15.16-.31.41-.66,1.07-1.4,1.93-2.26,2.65.29.34.56.67.92,1.17l-.73.59c-.39-.63-.76-1.11-1.35-1.76-.54-.6-.89-.94-1.4-1.35l.69-.5Z"/>
            <path class="cls-4" d="M75.4,26.57v.49h-.9c.02-.17.03-.34.03-.6v-4.01c0-.27,0-.4-.03-.59.17.01.32.02.6.02h3.98c.3,0,.43,0,.59-.02-.01.18-.02.32-.02.58v4.01c0,.26,0,.45.03.61h-.9v-.48h-3.36ZM78.76,22.67h-3.36v3.1h3.36v-3.1Z"/>
            <path class="cls-4" d="M80.48,26.14c.6-.04,1.44-.24,2.07-.52.88-.38,1.53-.92,2.08-1.72.31-.45.5-.83.71-1.4.27.33.38.43.74.69-.6,1.28-1.26,2.11-2.22,2.75-.71.48-1.58.82-2.67,1.05-.28.06-.3.06-.46.12l-.26-.97ZM81.08,21.79c.83.52,1.27.84,1.81,1.35l-.6.76c-.56-.59-1.13-1.06-1.79-1.42l.58-.69Z"/>
            <path class="cls-4" d="M88.23,21.91c-.02.08-.03.08-.04.14v.12s-.05.2-.05.2l-.02.17c-.29,2.01-.84,3.39-1.78,4.47-.33-.32-.46-.42-.8-.6.42-.42.71-.85,1-1.49.3-.65.55-1.52.66-2.4.04-.29.06-.53.06-.68v-.1l.96.17ZM90.22,21.73c0,.32.13,1.01.29,1.61.34,1.3.83,2.24,1.56,3.03-.36.22-.51.34-.77.64-.93-1.11-1.58-2.72-1.86-4.61-.04-.29-.06-.4-.1-.5l.87-.17ZM92.21,22.15c0,.45-.37.81-.81.81s-.81-.36-.81-.81.37-.8.81-.8.81.36.81.8ZM90.95,22.15c0,.25.2.46.46.46s.46-.21.46-.46-.2-.46-.46-.46-.46.2-.46.46Z"/>
            <path class="cls-4" d="M97.57,21.85c-.12.11-.15.13-.26.25-.53.55-1.05,1-1.65,1.44v2.99c0,.38,0,.59.04.78h-.98c.04-.2.04-.34.04-.76v-2.46c-.82.49-1.21.67-2.5,1.13-.15-.36-.22-.48-.47-.8,1.39-.38,2.56-.96,3.68-1.82.62-.48,1.1-.97,1.3-1.31l.8.56Z"/>
            <path class="cls-4" d="M102.48,21.03l-5.31,6.58h-1.03l5.3-6.58h1.04Z"/>
            <path class="cls-4" d="M107.36,22.5c-.07.1-.1.17-.18.42-.32,1.06-.82,2.01-1.44,2.7-.64.74-1.41,1.28-2.49,1.78-.2-.35-.29-.47-.59-.74.7-.29,1.09-.5,1.53-.83,1-.74,1.66-1.7,2.04-2.96l-2.11.04c-.43.68-.97,1.28-1.64,1.79-.21-.29-.31-.38-.68-.6.8-.55,1.3-1.11,1.81-2.03.22-.4.33-.67.36-.92l.96.19q-.04.06-.12.22s-.02.04-.09.2t-.09.18-.11.22c.09,0,.2-.01.34-.01l1.53-.02c.27,0,.35-.01.51-.07l.45.44Z"/>
            <path class="cls-4" d="M108.54,22.95c.29.54.43.88.69,1.66l-.79.25c-.18-.71-.32-1.08-.64-1.7l.74-.22ZM112.56,23c-.04.11-.05.14-.1.36-.2.95-.52,1.72-.97,2.33-.52.71-1.1,1.16-2.14,1.69-.18-.31-.27-.41-.56-.69.49-.19.78-.34,1.19-.64.82-.6,1.29-1.31,1.59-2.43.09-.34.13-.59.13-.81l.85.2ZM110.03,22.66c.37.69.5,1,.68,1.61l-.78.25c-.13-.53-.34-1.07-.64-1.65l.74-.21Z"/>
            <path class="cls-4" d="M115.09,22.04c-.06-.34-.09-.46-.17-.66l.92-.15c0,.18.04.38.08.66l.11.61,1.48-.23c.34-.06.49-.09.67-.15l.15.84q-.19.01-.67.09l-1.48.23.21,1.15,1.64-.26c.29-.05.54-.11.73-.16l.15.84c-.15,0-.17,0-.32.03-.04,0-.08,0-.11.01-.05,0-.14.02-.28.04l-1.67.27.25,1.36c.08.46.09.48.17.72l-.94.17c0-.21-.04-.41-.09-.74l-.25-1.38-1.73.27c-.34.06-.46.08-.71.15l-.14-.86c.24,0,.44-.02.74-.07l1.7-.27-.21-1.15-1.3.2c-.32.06-.58.11-.77.16l-.14-.86c.25,0,.48-.04.77-.08l1.3-.2-.11-.59Z"/>
            <path class="cls-4" d="M119.75,23.81c.31.04.44.05,1.13.05h3.73c.69,0,.83,0,1.13-.05v.97c-.28-.04-.36-.04-1.14-.04h-3.72c-.79,0-.86,0-1.14.04v-.97Z"/>
            <path class="cls-4" d="M126.81,23.11c.72.29,1.26.56,1.86.95l-.44.79c-.56-.41-1.18-.75-1.9-1.03l.47-.71ZM126.49,26.25c.53,0,1.29-.17,2.02-.46.87-.34,1.46-.79,2.02-1.54.38-.5.6-.92.81-1.55.29.3.39.39.73.62-.32.78-.62,1.26-1.05,1.77-.89,1.02-2.08,1.65-3.8,1.99-.25.05-.35.07-.49.11l-.24-.95ZM127.35,21.42c.72.28,1.28.55,1.86.9l-.45.77c-.64-.43-1.26-.76-1.87-.97l.46-.71Z"/>
            <path class="cls-4" d="M136.47,26.36c.32,0,.46,0,.64-.04v.8c-.19-.02-.35-.03-.64-.03h-3.63c-.31,0-.46,0-.64.03v-.8c.2.04.32.04.64.04h2.06c.12-.62.27-1.61.34-2.25h-1.74c-.34,0-.44,0-.62.03v-.79c.18.03.37.04.64.04h1.77c.25,0,.35-.01.52-.06l.38.34q-.08.22-.16.8c-.1.77-.18,1.27-.3,1.9h.74Z"/>
            <path class="cls-4" d="M137.49,23.81c.31.04.44.05,1.13.05h3.73c.69,0,.83,0,1.13-.05v.97c-.28-.04-.36-.04-1.14-.04h-3.72c-.79,0-.86,0-1.14.04v-.97Z"/>
            <path class="cls-4" d="M149.17,21.03l-5.31,6.58h-1.03l5.3-6.58h1.04Z"/>
            <path class="cls-4" d="M151.04,26.22c0,.29-.02.46-.06.6-.06.25-.31.41-.64.41-.44,0-.97-.2-1.32-.5-.25-.22-.38-.49-.38-.79,0-.33.22-.7.6-1.04.25-.22.56-.4,1.02-.6v-1.08q-.06,0-.29.01c-.1,0-.2,0-.38,0-.11,0-.3,0-.39,0-.09,0-.15,0-.17,0-.03,0-.08,0-.15,0v-.78c.19.04.47.06.84.06.07,0,.15,0,.24,0,.17,0,.2,0,.28,0v-.46c0-.4,0-.58-.04-.81h.88c-.04.22-.04.37-.04.76v.45c.53-.06.99-.15,1.35-.27l.03.78c-.12.02-.26.04-.74.13-.23.04-.37.06-.64.09v.91c.48-.14.92-.2,1.43-.2,1.17,0,2,.71,2,1.71,0,.91-.68,1.6-1.59,1.6-.57,0-.97-.27-1.15-.78-.09-.24-.12-.47-.12-.9.36-.1.48-.15.78-.31-.01.13-.01.2-.01.31,0,.29.03.48.1.62.08.15.25.24.44.24.41,0,.71-.33.71-.78,0-.6-.49-.99-1.24-.99-.42,0-.85.08-1.34.23v1.38ZM150.24,25.09c-.53.28-.83.59-.83.84,0,.12.07.22.23.32.14.1.31.15.45.15.12,0,.15-.06.15-.29v-1.02ZM154.12,23.67c-.35-.55-.86-1.11-1.4-1.51l.66-.44c.61.47,1.02.89,1.39,1.44l-.64.52Z"/>
            <path class="cls-4" d="M156.82,24.58c-.44.36-.64.66-.64.96,0,.46.51.65,1.7.65.83,0,1.75-.13,2.2-.29l.08.96c-.12,0-.16,0-.31.03-.84.12-1.29.15-1.89.15-.76,0-1.38-.08-1.75-.23-.6-.23-.9-.62-.9-1.17s.27-.99.9-1.52l.61.46ZM155.76,21.7c.54.13,1.16.18,2.1.18.89,0,1.39-.04,1.85-.13l.03.79c-.42.19-1.18.66-1.87,1.16l-.61-.48c.37-.23.71-.44,1.03-.62-.31.04-.61.06-1.05.06-.36,0-.94-.04-1.28-.08-.14-.01-.16-.02-.26-.02l.06-.83Z"/>
            <path class="cls-4" d="M160.92,25.32c.16-.11.44-.35,1.27-1.12.02-.43.02-.43.03-1.01q-.85.06-1.06.1l-.05-.79c.11,0,.17.01.23.01.12,0,.51-.02.9-.05.01-.18.02-.27.02-.53,0-.13,0-.23,0-.29v-.07c0-.11,0-.17-.03-.31h.9c-.04.19-.04.2-.07.68q0,.13-.02.33v.13c.05-.01.06-.01.1-.04l.27.29c-.1.08-.15.14-.4.46-.02.3-.02.46-.03.48h.01s.08-.08.17-.14c.76-.55,1.33-.77,2.02-.77.5,0,1.02.22,1.37.57.35.36.54.88.54,1.44,0,.88-.42,1.62-1.12,1.98-.36.18-.77.27-1.25.27-.36,0-.69-.05-1.04-.15,0-.37-.02-.53-.13-.91.39.17.83.26,1.25.26.84,0,1.43-.59,1.43-1.45,0-.75-.46-1.22-1.2-1.22-.58,0-1.27.36-2.04,1.06v.73c0,1,.01,1.79.05,2.09h-.91c.04-.21.04-.41.04-1.12v-.62c0-.2,0-.27.01-.41h-.01c-.05.07-.1.13-.31.33-.25.25-.45.46-.54.6l-.41-.81Z"/>
          </g>
          <g>
            <path class="cls-5" d="M53.27,13.81c-2.05-.59-2.83-1.17-3.42-1.64v1.68h-1.33v-1.63c-.96.74-2.08,1.23-3.22,1.63l-.94-1.01c1.22-.25,2.12-.53,2.94-1.15h-2.74v-.99h3.95v-.44h-3.06v-3.48h7.52v3.48h-3.13v.44h3.95v.99h-2.76c1.13.71,2.08.89,3.02,1.02l-.79,1.1ZM51.43,6.18v.33h-1.29v-.33h-1.92v.33h-1.24v-.33h-2.43v-1.02h2.43v-.63l1.2.05c.2.01.26.1.26.16,0,.02-.13.15-.15.17q-.06.08-.06.25h1.92v-.65l1.23.09c.11.01.23.01.23.13,0,.03-.01.08-.09.15s-.08.1-.08.13v.15h2.4v1.02h-2.4ZM48.52,7.58h-1.78v.52h1.78v-.52ZM48.52,8.88h-1.78v.54h1.78v-.54ZM51.68,7.58h-1.83v.52h1.83v-.52ZM51.68,8.88h-1.83v.54h1.83v-.54Z"/>
            <path class="cls-5" d="M60.01,9.73v2.56c0,1.5-.47,1.56-2.53,1.56l-.61-1.3c.91.12,1.01.14,1.22.14.31,0,.61-.1.61-.6v-2.36h-3.99v-1.2h3.99v-1.58l.7.17c.54-.43.93-.79,1.1-.96h-4.79v-1.17h6.57l.65.67c-1.2,1.09-2.14,1.9-2.91,2.54v.33h3.97v1.2h-3.97Z"/>
            <path class="cls-5" d="M64.41,13.05v-1.24h3.93v-5.28h-3.24v-1.21h7.82v1.21h-3.25v5.28h3.91v1.24h-9.17Z"/>
            <path class="cls-5" d="M79.91,10.04c0,.24,0,.26-.02.5h3.19c-.01.57-.21,2.37-.74,2.87-.43.41-1.1.46-1.84.47l-.42-1.16c1.19.08,1.69.02,1.7-1.16h-2.04c-.34.92-.8,1.65-2.14,2.49l-.94-.86c1.75-.92,2.03-1.78,2.03-3.13h-1.76c-.08,1.81-.59,2.9-1.11,3.75l-1.16-.45c.22-.27.58-.75.85-1.85.26-1.03.32-2.1.32-3.18,0-.94-.05-1.7-.09-2.17h7.51v2.45h-2.57v.43h3.42v1.02h-4.18ZM74.9,5.64v-1.01h9.31v1.01h-9.31ZM82.08,7.01h-5.11v.61h5.11v-.61ZM79.44,8.59h-2.47v.43h2.47v-.43Z"/>
            <path class="cls-5" d="M92.66,6.67v6.64h-1.45v-6.64h-2.8v-1.23h7.06v1.23h-2.8Z"/>
            <path class="cls-5" d="M101.01,13.3l-.58-1.69h-3.31l-.58,1.69h-1.6l3.02-7.86h1.65l3.02,7.86h-1.61ZM98.95,7.37l-.17-.69-.18.69-1.04,3.03h2.46l-1.06-3.03Z"/>
            <path class="cls-5" d="M106.34,6.67v6.64h-1.45v-6.64h-2.8v-1.23h7.06v1.23h-2.8Z"/>
            <path class="cls-5" d="M113.42,13.56c-2.11,0-3.28-1.23-3.28-3.36v-4.76h1.46v4.93c0,1.36.76,1.88,1.78,1.88,1.18,0,1.81-.66,1.81-1.88v-4.93h1.45v4.76c0,2.49-1.53,3.36-3.22,3.36Z"/>
            <path class="cls-5" d="M121.9,10.28v3.03h-1.45v-3.03l-2.78-4.84h1.64l1.62,3.08.26.54.25-.54,1.62-3.08h1.64l-2.78,4.84Z"/>
            <path class="cls-5" d="M130.17,13.3l-.58-1.69h-3.31l-.58,1.69h-1.6l3.02-7.86h1.65l3.02,7.86h-1.61ZM128.11,7.37l-.17-.69-.18.69-1.04,3.03h2.46l-1.06-3.03Z"/>
          </g>
        </g>
      </g>
    </g>
  </g>
</svg>