<?xml version="1.0" encoding="UTF-8"?>
<svg xmlns="http://www.w3.org/2000/svg" viewBox="0 0 167.6 27.54">
  <defs>
    <style>
      .cls-1 {
        mix-blend-mode: multiply;
      }

      .cls-1, .cls-2 {
        fill: #ef8586;
      }

      .cls-3 {
        isolation: isolate;
      }

      .cls-4 {
        fill: #231815;
      }

      .cls-5 {
        fill: #fff;
      }
    </style>
  </defs>
  <g class="cls-3">
    <g id="_レイヤー_2" data-name="レイヤー 2">
      <g id="_テキスト1" data-name="テキスト1">
        <g>
          <g>
            <rect class="cls-2" width="167.6" height="17.49"/>
            <rect class="cls-1" y=".05" width="8.29" height="17.49"/>
          </g>
          <g>
            <path class="cls-4" d="M4.09,22.97c-.02.13-.02.14-.03.57-.03,1.2-.22,1.87-.69,2.48-.42.54-.93.9-1.81,1.26-.18-.38-.27-.5-.55-.8.57-.17.88-.32,1.22-.59.71-.57.94-1.17.94-2.49,0-.21,0-.27-.04-.42h.95ZM6.93,22.09c-.1.12-.1.13-.28.49-.25.52-.65,1.04-1.08,1.41-.28.25-.51.4-.84.58-.21-.29-.31-.4-.63-.64.47-.21.73-.37,1.02-.64.29-.27.5-.55.67-.89h-3.68c-.49,0-.66,0-.95.04v-.88c.27.04.48.06.96.06h3.66c.42,0,.48,0,.68-.06l.47.53Z"/>
            <path class="cls-4" d="M8.59,22.88c.29.54.43.88.69,1.66l-.79.25c-.18-.71-.32-1.08-.64-1.7l.74-.22ZM12.61,22.93c-.04.11-.06.14-.1.36-.2.95-.52,1.72-.97,2.33-.52.71-1.1,1.16-2.14,1.69-.18-.31-.27-.41-.56-.69.49-.19.78-.34,1.19-.64.82-.6,1.29-1.31,1.59-2.43.09-.34.13-.59.13-.81l.85.2ZM10.08,22.6c.37.69.5,1,.68,1.61l-.78.25c-.13-.53-.34-1.07-.64-1.65l.74-.21Z"/>
            <path class="cls-4" d="M17.99,21.82c.21,0,.29,0,.41-.01,0-.46.36-.81.81-.81s.81.36.81.8-.37.81-.81.81c-.04,0-.08,0-.13-.01-.57,2.29-1.81,3.72-4.02,4.64-.18-.36-.3-.53-.62-.83,1.94-.6,3.21-1.91,3.66-3.77h-3.33c-.52,0-.65,0-.88.04v-.91c.25.04.42.05.9.05h3.21ZM18.75,21.8c0,.25.2.46.46.46s.46-.21.46-.46-.2-.46-.46-.46-.46.2-.46.46Z"/>
            <path class="cls-4" d="M22.2,21.48q-.03.2-.07,1.57c-.05,1.37-.2,2.16-.57,2.88-.24.48-.5.84-.97,1.3-.27-.35-.38-.46-.71-.68.34-.28.51-.47.72-.81.5-.81.67-1.71.67-3.67,0-.38,0-.45-.03-.64l.95.05ZM24.06,21.4c-.03.2-.04.32-.05.67l-.04,3.99c.49-.23.77-.44,1.07-.8.32-.38.53-.76.69-1.28.24.31.34.41.66.66-.29.69-.65,1.22-1.12,1.63-.4.34-.76.55-1.49.84-.15.06-.21.08-.3.13l-.45-.48c.05-.2.06-.36.06-.74l.04-3.95v-.21c0-.18,0-.33-.03-.46h.95Z"/>
            <path class="cls-4" d="M29.15,21.84c-.02.08-.03.08-.04.14v.12s-.05.2-.05.2l-.02.17c-.29,2.01-.84,3.39-1.78,4.47-.33-.32-.46-.42-.8-.6.42-.42.71-.85,1-1.49.3-.65.55-1.52.66-2.4.04-.29.06-.53.06-.68v-.1l.96.17ZM31.14,21.67c0,.32.13,1.01.29,1.61.34,1.29.83,2.24,1.56,3.03-.36.22-.51.34-.77.64-.93-1.11-1.58-2.72-1.86-4.61-.04-.29-.06-.4-.1-.5l.87-.17ZM33.13,22.08c0,.45-.37.81-.81.81s-.81-.36-.81-.81.37-.81.81-.81.81.36.81.81ZM31.86,22.08c0,.25.2.46.46.46s.46-.21.46-.46-.2-.46-.46-.46-.46.2-.46.46Z"/>
            <path class="cls-4" d="M38.9,21.78c-.12.11-.15.13-.26.25-.53.55-1.05,1-1.65,1.44v2.99c0,.38,0,.59.04.78h-.98c.04-.2.04-.34.04-.76v-2.46c-.82.49-1.21.67-2.5,1.13-.15-.36-.22-.48-.47-.8,1.39-.38,2.56-.96,3.68-1.82.62-.48,1.1-.97,1.3-1.31l.8.56Z"/>
            <path class="cls-4" d="M45.22,20.96l-5.31,6.58h-1.03l5.3-6.58h1.04Z"/>
            <path class="cls-4" d="M47.49,21.84c-.02.08-.03.08-.04.14v.12s-.05.2-.05.2l-.02.17c-.29,2.01-.84,3.39-1.78,4.47-.33-.32-.46-.42-.8-.6.42-.42.71-.85,1-1.49.3-.65.55-1.52.66-2.4.04-.29.06-.53.06-.68v-.1l.96.17ZM49.47,21.67c0,.32.13,1.01.29,1.61.34,1.29.83,2.24,1.56,3.03-.36.22-.51.34-.77.64-.93-1.11-1.58-2.72-1.86-4.61-.04-.29-.06-.4-.1-.5l.87-.17ZM51.46,22.08c0,.45-.37.81-.81.81s-.81-.36-.81-.81.37-.81.81-.81.81.36.81.81ZM50.2,22.08c0,.25.2.46.46.46s.46-.21.46-.46-.2-.46-.46-.46-.46.2-.46.46Z"/>
            <path class="cls-4" d="M52.28,26.07c.6-.04,1.44-.24,2.07-.52.88-.38,1.53-.92,2.08-1.72.31-.45.5-.83.71-1.4.27.33.38.43.74.69-.6,1.28-1.26,2.11-2.22,2.75-.71.48-1.58.82-2.67,1.05-.28.06-.3.06-.46.12l-.26-.97ZM52.87,21.72c.83.52,1.27.84,1.81,1.35l-.6.76c-.56-.59-1.13-1.06-1.79-1.42l.58-.69Z"/>
            <path class="cls-4" d="M62.88,21.82c.21,0,.29,0,.41-.01,0-.46.36-.81.81-.81s.81.36.81.8-.37.81-.81.81c-.04,0-.08,0-.13-.01-.57,2.29-1.81,3.72-4.02,4.64-.18-.36-.3-.53-.62-.83,1.94-.6,3.21-1.91,3.66-3.77h-3.33c-.52,0-.65,0-.88.04v-.91c.25.04.42.05.9.05h3.21ZM63.65,21.8c0,.25.2.46.46.46s.46-.21.46-.46-.2-.46-.46-.46-.46.2-.46.46Z"/>
            <path class="cls-4" d="M67.33,21.97c-.06-.34-.09-.46-.17-.66l.92-.15c0,.18.04.38.08.66l.11.61,1.48-.23c.34-.06.49-.09.67-.15l.15.84q-.19.01-.67.09l-1.48.23.21,1.15,1.64-.26c.29-.05.54-.11.73-.16l.15.84c-.15,0-.17,0-.32.04-.04,0-.08,0-.11.01-.05,0-.14.02-.28.04l-1.67.27.25,1.36c.08.46.09.48.17.72l-.94.17c0-.21-.04-.41-.09-.74l-.25-1.38-1.73.27c-.34.06-.46.08-.71.15l-.14-.86c.24,0,.44-.02.74-.07l1.7-.27-.21-1.15-1.3.2c-.32.06-.58.11-.77.16l-.14-.86c.25,0,.48-.04.77-.08l1.3-.2-.11-.59Z"/>
            <path class="cls-4" d="M71.92,26.07c.6-.04,1.44-.24,2.07-.52.88-.38,1.53-.92,2.08-1.72.31-.45.5-.83.71-1.4.27.33.38.43.74.69-.6,1.28-1.26,2.11-2.22,2.75-.71.48-1.58.82-2.67,1.05-.28.06-.3.06-.46.12l-.26-.97ZM72.52,21.72c.83.52,1.27.84,1.81,1.35l-.6.76c-.56-.59-1.13-1.06-1.79-1.42l.58-.69Z"/>
            <path class="cls-4" d="M80.23,21.84c-.02.08-.03.08-.04.14v.12s-.05.2-.05.2l-.02.17c-.29,2.01-.84,3.39-1.78,4.47-.33-.32-.46-.42-.8-.6.42-.42.71-.85,1-1.49.3-.65.55-1.52.66-2.4.04-.29.06-.53.06-.68v-.1l.96.17ZM82.22,21.67c0,.32.13,1.01.29,1.61.34,1.29.83,2.24,1.56,3.03-.36.22-.51.34-.77.64-.93-1.11-1.58-2.72-1.86-4.61-.04-.29-.06-.4-.1-.5l.87-.17ZM84.21,22.08c0,.45-.37.81-.81.81s-.81-.36-.81-.81.37-.81.81-.81.81.36.81.81ZM82.94,22.08c0,.25.2.46.46.46s.46-.21.46-.46-.2-.46-.46-.46-.46.2-.46.46Z"/>
            <path class="cls-4" d="M89.98,21.78c-.12.11-.15.13-.26.25-.53.55-1.05,1-1.65,1.44v2.99c0,.38,0,.59.04.78h-.98c.04-.2.04-.34.04-.76v-2.46c-.82.49-1.21.67-2.5,1.13-.15-.36-.22-.48-.47-.8,1.39-.38,2.56-.96,3.68-1.82.62-.48,1.1-.97,1.3-1.31l.8.56Z"/>
            <path class="cls-4" d="M96.3,20.96l-5.31,6.58h-1.03l5.3-6.58h1.04Z"/>
            <path class="cls-4" d="M102.2,22.65c-.06.13-.07.18-.11.39-.12.8-.22,1.2-.44,1.69-.34.81-.9,1.43-1.73,1.93-.42.26-.78.42-1.39.63-.16-.36-.25-.48-.56-.83.66-.16,1.05-.31,1.49-.58,1.02-.63,1.55-1.52,1.68-2.81h-3.42v.9c0,.22,0,.41.02.56h-.94c.02-.17.04-.39.04-.59v-1.02c0-.29,0-.48-.03-.67.25.03.37.04.76.04h1.37v-.6c0-.22,0-.35-.04-.51h.97c-.02.12-.04.31-.04.5v.6h1.26q.52,0,.69-.06l.41.41Z"/>
            <path class="cls-4" d="M107.92,22.9q-.1.08-.24.23c-.35.38-.86.83-1.3,1.15v2.38c0,.32,0,.5.04.67h-.9c.03-.21.04-.34.04-.67v-1.88c-.63.37-1.13.59-1.98.89-.15-.32-.21-.44-.43-.73.66-.18,1.09-.34,1.66-.63.79-.41,1.4-.85,1.99-1.42.23-.23.32-.33.43-.5l.71.51Z"/>
            <path class="cls-4" d="M109.22,26.07c.6-.04,1.44-.24,2.07-.52.88-.38,1.53-.92,2.08-1.72.31-.45.5-.83.71-1.4.27.33.38.43.74.69-.6,1.28-1.26,2.11-2.22,2.75-.71.48-1.58.82-2.67,1.05-.28.06-.3.06-.46.12l-.26-.97ZM109.81,21.72c.83.52,1.27.84,1.81,1.35l-.6.76c-.56-.59-1.13-1.06-1.79-1.42l.58-.69Z"/>
            <path class="cls-4" d="M120.7,22.93c.49,0,.64,0,.91-.05v.88c-.25-.03-.43-.03-.9-.03h-1.44c-.06.97-.18,1.44-.5,1.97-.38.64-.88,1.07-1.79,1.57-.24-.4-.34-.53-.64-.76.84-.36,1.37-.8,1.69-1.38.21-.38.29-.69.34-1.41h-1.74c-.46,0-.64,0-.9.03v-.88c.27.04.43.05.91.05h1.77c0-.29,0-.42,0-.55v-.41c0-.3,0-.48-.03-.67h.96c-.03.22-.03.23-.04.67v.42q-.01.46-.01.54h1.39Z"/>
            <path class="cls-4" d="M122.49,23.74c.31.04.44.05,1.13.05h3.73c.69,0,.83,0,1.13-.05v.97c-.28-.04-.36-.04-1.14-.04h-3.72c-.79,0-.86,0-1.14.04v-.97Z"/>
            <path class="cls-4" d="M131.48,21.84c-.02.08-.03.08-.04.14v.12s-.05.2-.05.2l-.02.17c-.29,2.01-.84,3.39-1.78,4.47-.33-.32-.46-.42-.8-.6.42-.42.71-.85,1-1.49.3-.65.55-1.52.66-2.4.04-.29.06-.53.06-.68v-.1l.96.17ZM133.46,21.67c0,.32.13,1.01.29,1.61.34,1.29.83,2.24,1.56,3.03-.36.22-.51.34-.77.64-.93-1.11-1.58-2.72-1.86-4.61-.04-.29-.06-.4-.1-.5l.87-.17ZM135.45,22.08c0,.45-.37.81-.81.81s-.81-.36-.81-.81.37-.81.81-.81.81.36.81.81ZM134.19,22.08c0,.25.2.46.46.46s.46-.21.46-.46-.2-.46-.46-.46-.46.2-.46.46Z"/>
            <path class="cls-4" d="M141.23,21.78c-.12.11-.15.13-.26.25-.53.55-1.05,1-1.65,1.44v2.99c0,.38,0,.59.04.78h-.98c.04-.2.04-.34.04-.76v-2.46c-.82.49-1.21.67-2.5,1.13-.15-.36-.22-.48-.47-.8,1.39-.38,2.56-.96,3.68-1.82.62-.48,1.1-.97,1.3-1.31l.8.56Z"/>
            <path class="cls-4" d="M147.54,20.96l-5.31,6.58h-1.03l5.3-6.58h1.04Z"/>
            <path class="cls-4" d="M147.97,23.86c.32.13.52.17,1.23.27.03-.25.09-.72.12-.98-.41-.06-.53-.07-1-.17-.1-.02-.13-.03-.24-.05l.07-.77c.29.11.79.21,1.27.25.1-.59.14-.95.14-1.16,0-.02,0-.04,0-.07l.93.08c-.08.22-.1.32-.22,1.18.79-.01,1.2-.05,1.6-.15l-.03.82c-.09,0-.13.01-.28.03-.5.04-.73.06-.98.06-.07,0-.13,0-.43,0-.07.51-.09.65-.13.99.21,0,.27,0,.34,0,.5,0,1-.05,1.34-.14l-.02.81c-.07,0-.09,0-.21.02-.31.04-.72.06-1.05.06-.11,0-.17,0-.45-.01-.02.19-.04.37-.04.5,0,.34.08.56.26.72.2.17.48.26.87.26.89,0,1.4-.39,1.4-1.08,0-.41-.21-.8-.63-1.18.39-.03.54-.06.87-.18.18.2.25.31.33.44.18.31.3.71.3,1.03,0,.5-.24.98-.67,1.31-.4.31-.93.46-1.58.46-1.27,0-1.97-.61-1.97-1.74,0-.18,0-.36.04-.59-.42-.06-.69-.1-.97-.16-.15-.04-.17-.04-.27-.04l.08-.81Z"/>
            <path class="cls-4" d="M153.86,22.63c.24-.02.35-.04.82-.14,1.6-.34,1.97-.4,2.79-.4,1.39,0,2.29.78,2.29,1.97,0,.95-.56,1.76-1.55,2.24-.64.32-1.18.44-2.47.58-.09-.38-.15-.53-.36-.9,1.12-.05,1.71-.15,2.3-.41.5-.22.92-.62,1.06-1.04.05-.14.08-.31.08-.5,0-.38-.2-.72-.53-.91-.22-.13-.52-.19-.9-.19-.73,0-1.63.16-2.76.5-.36.11-.41.12-.56.2l-.2-.99Z"/>
            <path class="cls-4" d="M161.52,23.23c-.28,0-.6.01-.83.04v-.74c.19.02.44.03.84.03h1.6v-.43h-.99c-.32,0-.53,0-.76.04v-.71c.2.03.41.04.77.04h.98c0-.27,0-.35-.04-.53h.84c-.03.15-.04.27-.04.53h.53c.34,0,.55-.01.75-.04v.52c.47-.39.69-.62.85-.88l.66.43c-.52.5-.75.7-1.19,1.03h.68c.38,0,.6,0,.8-.03v.74c-.24-.03-.47-.04-.8-.04h-1.68c-.22.13-.35.2-.59.32h1.49c.36,0,.58,0,.74-.03-.02.17-.03.35-.03.64v1.13c0,.27,0,.49.02.63.48.53.6.68.89,1.13l-.68.46c-.29-.57-.52-.9-.82-1.23l.5-.33c-.15,0-.34-.01-.57-.01h-2.77c-.31,0-.53,0-.69.03.02-.18.03-.38.03-.67v-.88c-.32.13-.58.23-1.06.38-.07-.2-.2-.42-.41-.67.98-.24,1.64-.47,2.58-.91h-1.59ZM160.63,27.01c.46-.38.67-.64.9-1.1l.65.32c-.28.57-.49.86-.91,1.28l-.64-.5ZM162.72,27.49v-.22c0-.32-.04-.74-.1-1.08l.69-.07c.08.42.14.86.15,1.3l-.75.06ZM162.74,24.45h2.62v-.33h-2.62v.33ZM162.74,25.34h2.62v-.33h-2.62v.33ZM164.32,22.58c.3-.19.45-.29.62-.42-.15,0-.29-.01-.5-.01h-.56v.43h.44ZM164.36,27.49c-.11-.63-.14-.74-.34-1.27l.69-.14c.19.46.27.72.4,1.24l-.76.17Z"/>
          </g>
          <g>
            <path class="cls-5" d="M27.14,13.13l-.79-.99c.44-.05,1.22-.17,1.84-.76.39-.37.62-.89.62-1.49,0-1.03-.78-1.36-1.08-1.49-.54,1.13-.95,1.83-1.76,2.71.08.26.1.3.21.65l-1.03.56c-.08-.16-.09-.19-.15-.4-.29.18-.88.54-1.54.54s-1.19-.53-1.19-1.4c0-.73.4-2.24,2.35-3.32.02-.42.05-.69.11-1.2-.68.03-.96.03-1.54.03l-.36-1.07c.39.04,1.26.11,2.05.08.13-.76.23-1.16.4-1.82l1.12.3c.27.08.27.13.27.16,0,.1-.13.13-.25.16-.12.27-.2.58-.33,1.06,1.41-.24,2.01-.46,2.64-.72v1.15c-1.03.3-1.71.44-2.84.57-.06.4-.08.45-.13.88.46-.09.7-.1,1.17-.09.05-.22.09-.36.13-.56l1.24.27-.17.5c1.21.41,1.94,1.21,1.94,2.48,0,2.37-2.19,2.98-2.93,3.2ZM24.6,8.9c-.97.81-1.24,1.49-1.24,1.93s.21.51.4.51c.42,0,.76-.28,1-.46-.11-.76-.14-1.22-.16-1.97ZM25.67,8.29c-.02.81.02,1.21.05,1.55.42-.64.64-1.07.88-1.67-.38-.01-.58.01-.94.12Z"/>
            <path class="cls-5" d="M34.69,12.32l-.56-1.13c.4.03.61.04.79.04.89,0,3.11-.4,3.11-2.03,0-1.15-.99-1.42-1.55-1.42-.48,0-1.55.32-2.1.5-.21.06-.92.29-1.94.66l-.53-1.13c1.03-.14,1.77-.36,2.89-.68.67-.19,1.29-.29,1.73-.29,1.34,0,2.54.72,2.54,2.44,0,2.42-2.55,2.84-4.38,3.05Z"/>
            <path class="cls-5" d="M44.87,12.33c-.96,0-2.5-.09-3.12-.68-.17-.15-.36-.39-.36-.84,0-.96.57-1.56,1.08-2.06l.99.81c-.27.23-.63.56-.63.93,0,.21.09.29.15.34.3.26,1.36.26,1.83.26,1.85,0,2.55-.13,3.36-.29l.06,1.34c-.95.09-2.11.19-3.36.19ZM45.15,7.68l-.79-.85,1.1-.93c-1.79,0-2.52-.01-3.16-.06l-.29-1.24c.96.16,1.93.25,2.91.25.79,0,1.58-.02,2.37-.13l.51.91c-.95.65-2.06,1.56-2.65,2.06Z"/>
            <path class="cls-5" d="M54.28,12.8c-1.27,0-1.83-.15-2.37-.43-.78-.41-1.1-1.16-1.1-1.84,0-1.35,1.04-2.04,2.23-2.74-.3-.32-.51-.67-.63-.97-.15-.36-.21-.67-.55-2.72l1.38-.21c.01.6.02,1.75.31,2.55.15.41.38.58.62.73,1.24-.58,1.38-.65,2.7-1.27l.4,1.31c-1.7.46-3.3,1.26-3.99,1.7-.48.3-1.28.85-1.28,1.57,0,.78.85,1.15,1.98,1.15s2.24-.21,3.33-.48v1.38c-.65.1-1.69.26-3.04.26Z"/>
            <path class="cls-5" d="M65.82,10.25c-.5-.34-1.29-.9-2.47-.9-.86,0-1.58.43-1.58,1.16,0,.83.72,1.16,1.98,1.16.73,0,1.35-.12,1.66-.18l.09,1.22c-.56.11-1.13.12-1.7.12-.62,0-2.09-.05-2.84-1.02-.11-.14-.42-.55-.42-1.26,0-1.56,1.36-2.22,2.54-2.22.4,0,.97.11,1.31.18-.4-.55-.64-.95-1.01-1.67-1.39.43-2.14.57-3.02.64l-.55-1.13c.41.02.63.02.85,0,.16-.01.94-.1,2.25-.45-.28-.65-.49-1.15-.7-1.89l1.09-.16c.08-.01.38-.08.38.06,0,.05-.14.27-.14.33,0,.03.11.46.45,1.28.79-.32,1.13-.53,1.58-.86l.54,1.02c-.36.21-.7.41-1.68.79.72,1.34,1.24,2.03,2.08,2.87l-.69.92Z"/>
            <path class="cls-5" d="M71.41,12.32l-.56-1.13c.4.03.61.04.79.04.89,0,3.11-.4,3.11-2.03,0-1.15-.99-1.42-1.55-1.42-.48,0-1.55.32-2.1.5-.21.06-.92.29-1.94.66l-.53-1.13c1.03-.14,1.77-.36,2.89-.68.67-.19,1.29-.29,1.73-.29,1.34,0,2.54.72,2.54,2.44,0,2.42-2.55,2.84-4.38,3.05Z"/>
            <path class="cls-5" d="M81.71,12.8c-1.27,0-1.83-.15-2.37-.43-.78-.41-1.1-1.16-1.1-1.84,0-1.35,1.04-2.04,2.23-2.74-.3-.32-.51-.67-.63-.97-.15-.36-.21-.67-.55-2.72l1.38-.21c.01.6.02,1.75.31,2.55.15.41.38.58.62.73,1.24-.58,1.38-.65,2.7-1.27l.4,1.31c-1.7.46-3.3,1.26-3.99,1.7-.48.3-1.28.85-1.28,1.57,0,.78.85,1.15,1.98,1.15s2.24-.21,3.33-.48v1.38c-.65.1-1.69.26-3.04.26Z"/>
            <path class="cls-5" d="M94.78,10.71c-.81,1.2-1.93,1.66-2.51,1.9l-.8-1.11c.48-.14,1.28-.37,1.94-1.15.66-.78.78-1.67.78-2.14,0-.59-.17-1.31-.78-1.88-.68-.65-1.43-.69-1.83-.72-.34,2.56-.98,4.07-1.34,4.79-.32.67-.82,1.57-1.38,1.57-.39,0-2.15-.97-2.15-2.9,0-2.39,1.97-4.57,4.75-4.57,2.24,0,4.01,1.52,4.01,3.92,0,.95-.29,1.7-.69,2.29ZM88.98,6.57c-.77.73-1.08,1.73-1.08,2.39,0,.87.5,1.32.69,1.32.56,0,1.49-2.81,1.7-4.49-.31.11-.8.27-1.31.78Z"/>
            <path class="cls-5" d="M102.58,9.23l-1-.85c.67-.61,1.39-1.35,1.96-2.33h-6.74v-1.16h7.25c.14,0,.31-.16.38-.24l.99,1c-.53.78-1.66,2.42-2.83,3.58ZM101.63,6.6s-.15.14-.16.18c-.02.02-.06.78-.09.92-.37,3.08-2.19,4.43-2.76,4.85l-1.15-.68c2.27-1.57,2.78-3.29,2.69-5.53l1.26.06c.23.01.26.01.26.1,0,.03-.02.05-.05.1Z"/>
            <path class="cls-5" d="M107.81,9c-.18-.61-.46-1.19-.82-1.73l.99-.38c.37.57.65,1.13.83,1.73l-1,.38ZM113.41,7.07c-.1.05-.11.1-.22.52-.81,3.31-2.98,4.57-4.02,5.17l-.86-.77c2.09-1.03,3.55-2.51,3.96-5.56l1.06.32c.14.04.21.12.21.19,0,.06-.02.08-.14.12ZM109.79,8.47c-.18-.65-.43-1.2-.76-1.75l.96-.37c.4.64.61,1.3.73,1.75l-.93.37Z"/>
            <path class="cls-5" d="M122.85,6.39c-.41,1.09-.87,2.32-1.9,3.64-1.15,1.5-2.45,2.22-3.19,2.63l-1.17-.95c.73-.33,2.26-1.04,3.58-2.82.82-1.1,1.15-2.08,1.35-2.64h-5.74v-1.25h6.1c.13,0,.25-.09.36-.17l1.07.97c-.17.15-.33.31-.44.59ZM123.58,5.17c-.55,0-1-.46-1-1.03s.44-1.02,1-1.02,1.01.46,1.01,1.02-.45,1.03-1.01,1.03ZM123.58,3.53c-.31,0-.59.26-.59.6s.29.61.59.61.59-.25.59-.61c0-.34-.27-.6-.59-.6Z"/>
            <path class="cls-5" d="M128.01,5.27c-.08.06-.08.09-.08.14,0,2.01,0,2.18-.05,2.65-.26,2.23-1.54,3.29-2.33,3.91l-1.2-.87c1.03-.6,2.3-1.52,2.3-4.2,0-1-.08-1.71-.12-2.04l1.3.09c.19.01.31.04.31.16,0,.04-.02.05-.15.16ZM130.01,11.98l-.92-.71v-6.54l1.25.15c.1.01.3.03.3.14,0,.04-.02.08-.12.16,0,.01-.13.12-.13.13v4.71c.93-.51,2.15-1.71,2.84-2.76l.73,1.09c-1.06,1.42-2.67,2.91-3.96,3.63Z"/>
            <path class="cls-5" d="M138.41,5.9s-.23.13-.26.17c-.04.04-.22.78-.26.92-.79,2.65-1.85,4.08-2.35,4.75l-1.37-.54c1.49-1.61,2.39-3.86,2.74-5.85l1.3.29s.26.06.26.17c0,.04-.03.06-.06.09ZM142.44,11.4c-.38-1.75-1.43-4.18-2.51-5.52l1.12-.64c.96,1.25,2.13,3.52,2.74,5.54l-1.35.61ZM143.14,6.31c-.55,0-1.01-.46-1.01-1.04s.45-1.03,1.01-1.03,1.02.47,1.02,1.03-.46,1.04-1.02,1.04ZM143.14,4.66c-.34,0-.59.29-.59.6,0,.33.27.61.59.61s.6-.27.6-.61c0-.32-.26-.6-.6-.6Z"/>
            <path class="cls-5" d="M152.07,5.1c-.16.01-.18.03-.33.19-.54.61-1.14,1.17-1.78,1.68v5.74h-1.35v-4.74c-.73.48-1.46.94-2.71,1.53l-.94-.96c2.25-.88,4.62-2.65,6.25-4.58l.94.78s.18.17.18.26c0,.08-.04.09-.26.1Z"/>
          </g>
        </g>
      </g>
    </g>
  </g>
</svg>