<?xml version="1.0" encoding="UTF-8"?>
<svg xmlns="http://www.w3.org/2000/svg" viewBox="0 0 167.6 26.96">
  <defs>
    <style>
      .cls-1 {
        mix-blend-mode: multiply;
      }

      .cls-1, .cls-2 {
        fill: #ef8586;
      }

      .cls-3 {
        isolation: isolate;
      }

      .cls-4 {
        fill: #231815;
      }

      .cls-5 {
        fill: #fff;
      }
    </style>
  </defs>
  <g class="cls-3">
    <g id="_レイヤー_2" data-name="レイヤー 2">
      <g id="_テキスト1" data-name="テキスト1">
        <g>
          <g>
            <rect class="cls-2" width="167.6" height="17.49"/>
            <rect class="cls-1" width="8.29" height="17.49"/>
          </g>
          <g>
            <path class="cls-4" d="M21.25,22.38c-.02.13-.02.14-.03.57-.03,1.2-.22,1.87-.69,2.48-.42.54-.93.9-1.81,1.26-.18-.38-.27-.5-.55-.8.57-.17.88-.32,1.22-.59.71-.57.94-1.17.94-2.49,0-.21,0-.27-.04-.42h.95ZM24.09,21.5c-.1.12-.1.13-.28.49-.25.52-.65,1.04-1.08,1.41-.28.25-.51.4-.84.58-.21-.29-.31-.4-.63-.64.47-.21.73-.37,1.02-.64.29-.27.5-.55.67-.89h-3.68c-.49,0-.66,0-.95.04v-.88c.27.04.48.06.96.06h3.66c.42,0,.48,0,.68-.06l.47.53Z"/>
            <path class="cls-4" d="M30.18,21.2c-.12.11-.15.13-.26.25-.53.55-1.05,1-1.65,1.44v2.99c0,.38,0,.59.04.78h-.98c.04-.2.04-.34.04-.76v-2.46c-.82.49-1.21.67-2.5,1.13-.15-.36-.22-.48-.47-.8,1.39-.38,2.56-.96,3.68-1.82.62-.48,1.1-.97,1.3-1.31l.8.56Z"/>
            <path class="cls-4" d="M36.54,26.56c-.58-.71-1.39-1.5-2.15-2.08-.79.88-1.6,1.5-2.67,2.02-.2-.36-.28-.48-.57-.78.54-.21.88-.4,1.4-.77,1.06-.74,1.9-1.76,2.35-2.85l.08-.18q-.11,0-2.32.04c-.34,0-.53.02-.76.06l-.03-.9c.2.04.33.04.62.04h.17l2.46-.04c.39,0,.45-.01.62-.08l.46.48c-.09.11-.15.2-.22.38-.32.75-.67,1.36-1.09,1.93.44.29.82.59,1.29,1.02q.18.15,1.02.97l-.67.73Z"/>
            <path class="cls-4" d="M43.49,21.84c-.07.1-.1.17-.18.42-.32,1.06-.82,2.01-1.44,2.7-.64.74-1.41,1.28-2.49,1.78-.2-.35-.29-.47-.59-.74.7-.29,1.09-.5,1.53-.83,1-.74,1.66-1.7,2.04-2.96l-2.11.04c-.43.68-.97,1.28-1.64,1.79-.21-.29-.31-.38-.68-.6.8-.55,1.3-1.11,1.81-2.03.22-.4.33-.67.36-.92l.96.19q-.04.06-.12.22s-.02.04-.09.2t-.09.18-.11.22c.09,0,.2-.01.34-.01l1.53-.02c.27,0,.35-.01.51-.07l.45.44Z"/>
            <path class="cls-4" d="M46.26,20.81c-.03.2-.03.26-.03.63v1.93c0,.35,0,.44.03.62h-.96c.02-.16.04-.38.04-.63v-1.93c0-.36,0-.45-.03-.63h.95ZM49.44,20.82c-.03.17-.04.25-.04.65v.95c0,1.09-.05,1.68-.18,2.12-.2.7-.65,1.23-1.38,1.63-.37.21-.72.35-1.37.54-.12-.34-.2-.46-.49-.83.69-.13,1.09-.28,1.51-.56.66-.43.89-.86.97-1.79.03-.3.04-.61.04-1.17v-.88c0-.36,0-.5-.04-.67h.97Z"/>
            <path class="cls-4" d="M51.19,23.15c.31.04.44.05,1.13.05h3.73c.69,0,.83,0,1.13-.05v.97c-.28-.04-.36-.04-1.14-.04h-3.72c-.79,0-.86,0-1.14.04v-.97Z"/>
            <path class="cls-4" d="M61.13,20.84c-.08.15-.08.17-.18.5-.53,1.75-.94,2.91-1.39,3.99,1.1-.08,2.31-.23,2.91-.36-.08-.17-.16-.32-.33-.64-.31-.58-.43-.78-.67-1.11l.79-.31c.65.95,1.27,2.13,1.69,3.24l-.85.44q-.09-.29-.34-.87-.09.02-.25.06c-.71.15-1.87.29-3.96.5-.39.04-.5.05-.64.08l-.12-.95h.18c.14,0,.31,0,.6-.02.37-.88.65-1.67,1.02-2.82.33-1.03.46-1.53.51-1.94l1.02.2Z"/>
            <path class="cls-4" d="M66.83,26.95c-.39-.56-.57-.87-.76-1.38-.25-.64-.37-1.26-.37-1.93s.11-1.24.36-1.87c.2-.51.37-.82.77-1.38h.98c-.49.62-.69.93-.89,1.39-.25.57-.37,1.17-.37,1.86s.12,1.34.37,1.92c.2.46.39.77.89,1.39h-.98Z"/>
            <path class="cls-4" d="M69.85,21.09c.43.76.64,1.25.95,2.23l-.91.32c-.2-.8-.53-1.65-.89-2.26l.86-.29ZM74.26,21.31c-.06.15-.08.21-.19.69-.27,1.26-.83,2.41-1.55,3.23-.55.63-1.16,1.08-2.02,1.53-.23-.37-.34-.49-.64-.76.82-.35,1.41-.76,1.95-1.34.5-.55.86-1.15,1.14-1.99.2-.61.33-1.16.35-1.58l.97.22Z"/>
            <path class="cls-4" d="M81.14,21.61c-.06.12-.08.17-.12.32-.35,1.34-.76,2.18-1.44,2.93-.69.77-1.44,1.28-2.61,1.79-.2-.38-.29-.51-.62-.83.62-.2,1.01-.38,1.53-.71,1.09-.71,1.78-1.7,2.12-3.05h-3.33c-.47,0-.63,0-.88.04v-.91c.27.04.42.05.9.05h3.21c.39,0,.53-.01.75-.07l.48.46Z"/>
            <path class="cls-4" d="M83.14,26.64c.04-.22.04-.41.04-.79v-4.49c0-.34-.01-.53-.04-.71h.96c-.03.21-.03.3-.03.74v1.3c.96.34,2.06.85,3.18,1.48l-.49.83c-.58-.4-1.31-.8-2.48-1.34-.16-.08-.18-.08-.24-.12.02.2.03.28.03.48v1.85c0,.37,0,.55.03.78h-.96Z"/>
            <path class="cls-4" d="M94.02,21.84c-.07.1-.1.17-.18.42-.32,1.06-.82,2.01-1.44,2.7-.64.74-1.41,1.28-2.49,1.78-.2-.35-.29-.47-.59-.74.7-.29,1.09-.5,1.53-.83,1-.74,1.66-1.7,2.04-2.96l-2.11.04c-.43.68-.97,1.28-1.64,1.79-.21-.29-.31-.38-.68-.6.8-.55,1.3-1.11,1.81-2.03.22-.4.33-.67.36-.92l.96.19q-.04.06-.12.22s-.02.04-.09.2t-.09.18-.11.22c.09,0,.2-.01.34-.01l1.53-.02c.27,0,.35-.01.51-.07l.45.44Z"/>
            <path class="cls-4" d="M96.79,20.81c-.03.2-.03.26-.03.63v1.93c0,.35,0,.44.03.62h-.96c.02-.16.04-.38.04-.63v-1.93c0-.36,0-.45-.03-.63h.95ZM99.97,20.82c-.03.17-.04.25-.04.65v.95c0,1.09-.05,1.68-.18,2.12-.2.7-.65,1.23-1.38,1.63-.37.21-.72.35-1.37.54-.12-.34-.2-.46-.49-.83.69-.13,1.09-.28,1.51-.56.66-.43.89-.86.97-1.79.03-.3.04-.61.04-1.17v-.88c0-.36,0-.5-.04-.67h.97Z"/>
            <path class="cls-4" d="M101.72,23.15c.31.04.44.05,1.13.05h3.73c.69,0,.83,0,1.13-.05v.97c-.28-.04-.36-.04-1.14-.04h-3.72c-.79,0-.86,0-1.14.04v-.97Z"/>
            <path class="cls-4" d="M111.66,20.84c-.08.15-.08.17-.18.5-.53,1.75-.94,2.91-1.39,3.99,1.1-.08,2.31-.23,2.91-.36-.08-.17-.16-.32-.33-.64-.31-.58-.43-.78-.67-1.11l.79-.31c.65.95,1.27,2.13,1.69,3.24l-.85.44q-.09-.29-.34-.87-.09.02-.25.06c-.71.15-1.87.29-3.96.5-.39.04-.5.05-.64.08l-.12-.95h.18c.14,0,.31,0,.6-.02.37-.88.65-1.67,1.02-2.82.33-1.03.46-1.53.51-1.94l1.02.2Z"/>
            <path class="cls-4" d="M115.24,26.95c.5-.62.69-.93.89-1.39.25-.58.37-1.21.37-1.92s-.11-1.28-.36-1.86c-.2-.46-.41-.78-.9-1.39h.99c.39.55.56.86.76,1.38.25.64.36,1.21.36,1.87s-.12,1.29-.37,1.93c-.2.51-.37.82-.76,1.38h-.99Z"/>
            <path class="cls-4" d="M125.36,20.37l-5.31,6.58h-1.03l5.3-6.58h1.04Z"/>
            <path class="cls-4" d="M128.59,24.53c-.32,0-.5,0-.68.04v-.71c.16.02.27.03.54.03h.09v-.61h-.12c-.23,0-.35,0-.55.04v-.59c-.16.2-.24.29-.44.49-.03.57-.05.81-.1,1.15.23.36.5.65.83.9-.18.26-.27.4-.38.69-.29-.3-.45-.5-.62-.76-.22.71-.5,1.23-.96,1.71-.15-.25-.29-.42-.5-.6.4-.41.63-.83.8-1.46.2-.66.27-1.65.27-3.32,0-.6,0-.75-.05-1.02h.81q-.04.23-.04,1.34c0,.15,0,.24,0,.46.19-.28.28-.44.36-.62l.53.41c-.09.12-.22.29-.38.51.13.01.24.02.45.02h.12v-.22c0-.14,0-.22-.03-.33h.7c-.01.09-.02.17-.02.32v.24h1.51v-.23c0-.14,0-.21-.02-.32h.72c-.02.1-.03.19-.03.32v.23h.27c.24,0,.38,0,.58-.04v.73c-.19-.03-.34-.04-.58-.04h-.27v.61h.11c.29,0,.44,0,.64-.04v.73c-.22-.03-.42-.04-.71-.04h-.58v1.44c0,.14.04.16.41.16.18,0,.29-.04.31-.13.04-.12.06-.34.07-.74.2.13.34.19.66.28-.04.64-.11.95-.28,1.1-.13.12-.41.18-.9.18-.78,0-.97-.11-.97-.55v-1.73h-.55c-.04.43-.07.61-.17.88-.25.74-.71,1.18-1.6,1.54-.12-.29-.23-.46-.43-.64.5-.16.77-.32,1.04-.61.28-.3.42-.68.44-1.18h-.25ZM125.73,23.65c.1-.33.13-.48.17-.86.04-.33.05-.6.05-.81v-.18l.59.07c-.01.9-.08,1.46-.22,2.07l-.58-.29ZM130.28,21.99c0,.22,0,.29.02.41h-.71c.01-.11.02-.22.02-.41v-.24h-.81c-.25,0-.5.01-.68.04v-.73c.22.03.38.04.68.04h.81v-.18c0-.2,0-.31-.04-.47h.74c-.03.14-.04.27-.04.48v.17h1.02c.27,0,.47-.01.67-.04v.74c-.2-.02-.42-.04-.65-.04h-1.04v.23ZM130.7,23.88v-.61h-1.51v.61h1.51Z"/>
            <path class="cls-4" d="M134.88,20.83c0-.15,0-.23-.03-.36h.78c-.02.12-.02.2-.02.36v.06h1.44v-.06c0-.14,0-.23-.03-.36h.78c-.01.12-.02.2-.02.36v.06h.94c.32,0,.55-.01.79-.04v.71c-.23-.03-.46-.04-.79-.04h-.94v.13c0,.1,0,.13,0,.23h.24c.36,0,.55,0,.76-.03-.02.16-.03.37-.03.77v.81c0,.46,0,.65.03.82-.23-.02-.45-.03-.76-.03h-1.32v.34h1.95c.41,0,.63-.01.84-.04v.71c-.25-.03-.5-.04-.84-.04h-1.4c.57.45,1.31.72,2.43.9-.2.22-.28.36-.44.68-.57-.13-1.02-.29-1.44-.5-.47-.23-.72-.42-1.13-.82.02.13.03.34.03.5v.29c0,.35,0,.5.04.67h-.82c.03-.19.04-.39.04-.67v-.3c0-.12,0-.19.02-.5-.7.65-1.39,1.03-2.47,1.34-.15-.31-.23-.43-.43-.66,1.02-.21,1.7-.49,2.3-.95h-1.32c-.36,0-.59.01-.83.04v-.71c.22.04.43.04.83.04h1.9v-.34h-1.27c-.33,0-.54,0-.76.03.03-.2.04-.38.04-.74v-.95c0-.33,0-.51-.04-.7.21.02.41.03.77.03h.17c0-.08,0-.13,0-.22v-.15h-.88c-.34,0-.54,0-.77.04v-.71c.22.03.46.04.77.04h.88v-.06ZM134.69,22.45v.34h1.27v-.34h-1.27ZM134.69,23.32v.36h1.27v-.36h-1.27ZM137.04,21.89c0-.08,0-.12,0-.22v-.15h-1.44v.13c0,.11,0,.14,0,.23h1.43ZM138.04,22.79v-.34h-1.34v.34h1.34ZM138.04,23.67v-.36h-1.34v.36h1.34Z"/>
            <path class="cls-4" d="M143.1,22.9c0-.22,0-.37-.02-.53h.37c.48-.28.67-.43,1.19-.9h-2.79c-.37,0-.6.01-.85.04v-.83c.24.03.47.04.84.04h3.17c.36,0,.47,0,.61-.04l.46.51q-.18.17-.66.62c-.34.32-.89.72-1.49,1.08v.3h1.71c.46,0,.71-.01.95-.04v.85c-.27-.03-.53-.04-.95-.04h-1.71v2.04c0,.62-.24.77-1.17.77-.14,0-.28,0-.79-.03-.06-.41-.09-.54-.22-.84.42.06.68.08,1.02.08.29,0,.34-.03.34-.18v-1.85h-1.88c-.42,0-.66.01-.95.04v-.85c.26.03.52.04.97.04h1.86v-.31Z"/>
            <path class="cls-4" d="M150.57,24.04q0-.17.02-.77c-.17.29-.34.53-.59.81-.1-.29-.18-.48-.36-.83.52-.51.93-1.17,1.24-1.93.14-.35.24-.69.27-.95l.79.24c-.06.16-.07.2-.14.4-.16.47-.26.71-.49,1.16v3.9c0,.33.01.58.04.85h-.82c.03-.25.04-.48.04-.85v-2.02ZM152.91,23.27v2.45c0,.14.04.18.19.22.17.04.38.06.88.06.79,0,1.09-.03,1.25-.13.08-.05.14-.17.17-.32.02-.13.03-.22.05-.55.31.13.43.16.76.22-.08.8-.18,1.07-.39,1.24-.27.19-.73.25-2.01.25s-1.64-.14-1.64-.7v-2.49c-.06.02-.11.04-.14.04-.2.07-.27.1-.41.16l-.06-.8c.17-.02.37-.07.61-.14v-.83c0-.33,0-.52-.04-.74h.83c-.04.2-.04.39-.04.71v.62l.72-.23v-1.14c0-.28-.01-.46-.04-.7h.81c-.03.22-.04.39-.04.68v.93l1.02-.33c.27-.08.43-.15.57-.21,0,.15,0,.2,0,.38-.01.84-.06,1.81-.12,2.26-.07.53-.25.68-.79.68-.13,0-.21,0-.38-.02-.04-.27-.08-.43-.2-.71.18.04.36.06.47.06.15,0,.18-.05.22-.38.04-.27.06-.74.06-1.29l-.86.28v1.82c0,.29,0,.46.04.7h-.81c.04-.22.04-.4.04-.72v-1.56l-.72.23Z"/>
          </g>
          <g>
            <path class="cls-5" d="M56.85,13.35c-1.96,0-2.75-1.44-2.75-2.97,0-2.23,1.54-3.1,2.93-3.1.73,0,1.39.23,1.89.72.47.46.57.84.65,1.49h-1.42c-.04-.61-.48-1.08-1.12-1.08-.74,0-1.5.64-1.5,1.9,0,.75.27,1.9,1.36,1.9,1.02,0,1.18-.86,1.24-1.14h1.46c-.13.54-.54,2.29-2.73,2.29Z"/>
            <path class="cls-5" d="M65.6,13.21c-.16-.22-.17-.59-.17-.84-.16.31-.52.98-1.87.98-1.59,0-2.03-.97-2.03-1.7,0-1.33,1.2-1.73,2.49-1.92.62-.09,1.33-.21,1.33-.74,0-.46-.5-.6-.94-.6-.13,0-.74-.01-1.11.36-.16.16-.19.29-.23.57h-1.28c.11-1.8,1.71-2.04,2.49-2.04,1.34,0,2.5.58,2.5,2.08v3.19c0,.21.04.48.32.67h-1.5ZM64.32,10.63c-.54.09-1.34.28-1.34.98,0,.41.4.73.92.73.58,0,1.44-.37,1.44-1.17v-.66l.08-.38c-.25.29-.48.39-1.1.5Z"/>
            <path class="cls-5" d="M70.94,8.56v4.65h-1.42v-4.65h-.78v-1.14h.78v-.59c0-1.03.78-1.48,1.59-1.48h.82v1.23h-.46c-.3,0-.53.14-.53.48v.36h.99v1.14h-.99Z"/>
            <path class="cls-5" d="M75.08,10.73c.05.29.27,1.46,1.41,1.46.26,0,.82-.06,1.06-.7h1.43c-.18.48-.68,1.85-2.56,1.85-1.57,0-2.76-1.04-2.76-3.03s1.28-3.05,2.71-3.05c.96,0,1.7.44,2.13,1.1.5.75.55,1.54.58,2.36h-4.01ZM76.38,8.44c-1.06,0-1.24,1-1.3,1.37h2.47c-.03-.91-.45-1.37-1.16-1.37ZM75.97,6.73h-.87l1.21-1.75h1.33l-1.67,1.75Z"/>
            <path class="cls-5" d="M92.75,13.21v-6.91l-1.73,6.91h-1.57l-1.73-6.91v6.91h-1.34v-7.86h2.28l1.39,5.43.18,1.25.18-1.25,1.4-5.43h2.27v7.86h-1.34Z"/>
            <path class="cls-5" d="M96.94,6.75v-1.4h1.42v1.4h-1.42ZM96.94,13.21v-5.8h1.42v5.8h-1.42Z"/>
            <path class="cls-5" d="M101.04,13.21v-7.86h1.42v7.86h-1.42Z"/>
            <path class="cls-5" d="M111.66,13.21v-6.91l-1.73,6.91h-1.57l-1.73-6.91v6.91h-1.34v-7.86h2.28l1.39,5.43.18,1.25.18-1.25,1.4-5.43h2.27v7.86h-1.34Z"/>
            <path class="cls-5" d="M119.37,13.21v-.45l.06-.6c-.16.37-.51,1.2-1.81,1.2s-1.9-.87-1.9-2.21v-3.73h1.42v3.73c0,.79.53,1.06.99,1.06.75,0,1.23-.64,1.23-1.42v-3.36h1.42v5.8h-1.42Z"/>
          </g>
        </g>
      </g>
    </g>
  </g>
</svg>