<?xml version="1.0" encoding="UTF-8"?>
<svg xmlns="http://www.w3.org/2000/svg" viewBox="0 0 167.6 27.67">
  <defs>
    <style>
      .cls-1 {
        mix-blend-mode: multiply;
      }

      .cls-1, .cls-2 {
        fill: #ef8586;
      }

      .cls-3 {
        isolation: isolate;
      }

      .cls-4 {
        fill: #231815;
      }

      .cls-5 {
        fill: #fff;
      }
    </style>
  </defs>
  <g class="cls-3">
    <g id="_レイヤー_2" data-name="レイヤー 2">
      <g id="_レイヤー_1-2" data-name="レイヤー 1">
        <g>
          <g>
            <rect class="cls-2" width="167.6" height="17.49"/>
            <rect class="cls-1" width="8.29" height="17.49"/>
          </g>
          <g>
            <path class="cls-4" d="M1.21,27.67v-6.7h2.1c-.43.59-.59.88-.75,1.36-.2.59-.3,1.23-.3,1.99s.1,1.4.3,1.99c.17.49.32.78.75,1.37H1.21Z"/>
            <path class="cls-4" d="M3.99,22.85c.46.27.75.46,1.25.88l-.44.64c-.51-.47-.71-.62-1.25-.95l.44-.57ZM5.2,25.21c-.21.71-.42,1.23-.73,1.84l-.22.43-.66-.58c.35-.4.68-1.09,1-2.13l.62.44ZM4.28,21.12c.49.32.75.53,1.12.9l-.47.64c-.35-.43-.65-.69-1.12-.98l.48-.56ZM9.21,24.4c.25,0,.51-.01.73-.04v.77c-.21-.02-.48-.04-.73-.04h-1.01c.45.58,1.16,1.07,1.91,1.34-.18.26-.22.35-.35.76-.81-.38-1.47-.93-1.91-1.6.01.25.02.37.02.55v.71c0,.29.01.5.04.69h-.79c.03-.21.04-.4.04-.71v-.7c0-.16,0-.17.02-.55-.41.69-.94,1.18-1.75,1.6-.13-.32-.19-.41-.43-.67.76-.3,1.4-.79,1.82-1.41h-.75c-.26,0-.51.01-.73.04v-.78c.21.03.45.04.73.04h1.1v-.19c0-.19,0-.32-.03-.46h.77c-.02.14-.03.26-.03.46v.19h1.33ZM7.42,22.03c-.05.52-.15.86-.32,1.16-.26.44-.65.74-1.3.98-.12-.29-.17-.37-.39-.63.91-.26,1.23-.62,1.32-1.51h-.59v.73h-.72c.02-.14.03-.29.03-.46v-.51c0-.19,0-.35-.02-.48q.06,0,.19.01c.05,0,.37.01.53.01h2.96c.4,0,.59,0,.77-.03-.01.15-.02.29-.02.5v.37c0,.18,0,.31.03.46h-.73v-.62h-.67v1.02c0,.13.06.16.39.16.4,0,.42-.02.42-.49.25.1.34.13.64.18-.04.5-.07.66-.19.78-.13.13-.39.18-.96.18-.75,0-.99-.11-.99-.46v-1.36h-.37Z"/>
            <path class="cls-4" d="M14.32,22.48c.33.53.67.9,1.21,1.32.54.43,1.03.71,1.72.97-.15.22-.29.5-.38.74-.39-.18-.53-.25-.86-.46v1.73c0,.33.01.54.04.76h-.81v-.34h-2.6v.34h-.8c.03-.22.04-.46.04-.76v-1.71c-.29.18-.44.26-.82.45-.12-.3-.19-.46-.38-.71.64-.26,1.15-.55,1.64-.94.53-.42.88-.83,1.21-1.39h.8ZM13.47,21.55c-.32.44-.55.69-1,1.05-.33.27-.47.35-1.14.71-.15-.26-.28-.42-.48-.63.55-.27.93-.48,1.25-.74.37-.29.57-.52.76-.85l.62.46ZM15.33,24.59c-.57-.43-1.02-.9-1.39-1.44-.36.52-.85,1.02-1.38,1.44h2.77ZM12.63,26.51h2.61v-1.24h-2.61v1.24ZM15,21.07c.33.45.59.69,1.07,1.02.26.17.46.29,1,.53-.17.22-.32.46-.44.7-1.04-.59-1.5-.96-2.22-1.8l.59-.46Z"/>
            <path class="cls-4" d="M20.55,25.35c-.39.9-.84,1.32-1.41,1.32-.79,0-1.36-.81-1.36-1.94,0-.77.27-1.49.76-2.04.58-.64,1.4-.98,2.38-.98,1.66,0,2.74,1.02,2.74,2.6,0,1.21-.62,2.18-1.68,2.61-.33.14-.6.21-1.09.29-.12-.37-.2-.53-.42-.82.64-.08,1.05-.2,1.38-.39.6-.34.96-1,.96-1.75,0-.67-.3-1.22-.85-1.55-.21-.13-.39-.18-.7-.21-.13,1.1-.37,2.07-.72,2.86ZM19.53,22.84c-.58.42-.94,1.14-.94,1.89,0,.57.24,1.03.55,1.03.23,0,.46-.29.71-.9.26-.63.49-1.58.57-2.37-.36.04-.61.14-.89.34Z"/>
            <path class="cls-4" d="M25.33,22.03c-.38,0-.64.01-.85.04v-.76c.21.03.48.04.85.04h4.39c.38,0,.69-.01.88-.04v.76c-.21-.02-.49-.04-.87-.04h-1.12v.45h1c.28,0,.45,0,.64-.02-.02.2-.03.34-.03.59v.71c0,.28,0,.41.03.6-.18-.02-.37-.03-.64-.03h-1.73v.49h1.89c.41,0,.64-.01.84-.04v.76c-.24-.03-.49-.04-.84-.04h-1.35c.56.56,1.41.98,2.36,1.18-.22.27-.31.41-.44.72-1.05-.34-1.89-.88-2.48-1.59.01.29.02.46.02.62v.39c0,.36,0,.54.04.71h-.84c.03-.2.04-.4.04-.71v-.38c0-.19,0-.36.01-.62-.53.68-1.21,1.15-2.35,1.6-.12-.29-.25-.46-.48-.7.49-.13.81-.25,1.15-.41.44-.22.83-.5,1.12-.81h-1.28c-.33,0-.58.01-.82.04v-.76c.22.04.42.04.82.04h1.82v-.49h-1.63c-.29,0-.43,0-.63.03.02-.2.03-.34.03-.6v-.71c0-.25,0-.4-.03-.59.19.01.32.02.63.02h.96v-.45h-1.12ZM25.61,23.1v.61h.84v-.61h-.84ZM27.12,22.48h.81v-.45h-.81v.45ZM27.12,23.71h.81v-.61h-.81v.61ZM28.61,23.71h.89v-.61h-.89v.61Z"/>
            <path class="cls-4" d="M30.62,27.67c.42-.59.58-.88.75-1.37.21-.6.3-1.22.3-1.99s-.1-1.39-.3-1.99c-.17-.49-.33-.77-.75-1.36h2.1v6.7h-2.1Z"/>
            <path class="cls-4" d="M34.91,24.47c-.45,0-.63,0-.87.03v-.85c.26.04.41.05.89.05h1.25v-1.21h-.85c-.5,0-.64,0-.88.03v-.85c.26.04.4.05.89.05h3.16c.5,0,.64,0,.9-.05v.85c-.24-.03-.38-.03-.89-.03h-1.49v1.21h1.93c.47,0,.63,0,.89-.05v.85c-.24-.03-.42-.03-.87-.03h-1.94v1.12c0,.42.04.52.19.6.13.06.35.09.71.09.25,0,.67-.02,1.03-.06.26-.03.4-.05.64-.12l.02.89s-.09,0-.12,0q-.06,0-.56.04c-.3.02-.77.04-1.1.04-1.35,0-1.67-.23-1.67-1.22v-1.38h-1.27Z"/>
            <path class="cls-4" d="M40.39,26.14c.6-.04,1.42-.24,2.05-.52.87-.38,1.51-.92,2.06-1.72.3-.45.5-.83.71-1.4.27.33.38.43.73.69-.59,1.28-1.25,2.11-2.2,2.75-.71.48-1.56.82-2.64,1.05-.28.06-.3.06-.46.12l-.26-.97ZM40.98,21.79c.82.52,1.25.84,1.79,1.35l-.6.76c-.55-.6-1.12-1.06-1.77-1.42l.57-.69Z"/>
            <path class="cls-4" d="M51.69,22.62c-.05.1-.08.17-.12.31-.54,2.21-1.79,3.64-3.94,4.55-.18-.36-.3-.53-.61-.83,1.92-.6,3.17-1.91,3.62-3.77h-3.3c-.51,0-.64,0-.87.04v-.91c.25.04.41.05.89.05h3.18c.25,0,.37,0,.5-.02-.12-.25-.25-.46-.43-.71l.51-.19c.27.36.43.64.62,1.11l-.28.11.24.26ZM52.1,22.13c-.17-.41-.36-.77-.6-1.09l.5-.19c.28.37.45.65.61,1.06l-.51.21Z"/>
            <path class="cls-4" d="M57.92,23.6c-.07.13-.11.22-.19.44-.36,1.03-.89,1.81-1.61,2.37-.49.39-.94.62-1.81.95-.15-.35-.24-.47-.54-.81.85-.22,1.39-.48,1.93-.92.51-.43.81-.86,1.12-1.64h-3.37c-.46,0-.64,0-.89.03v-.85c.26.04.42.05.9.05h3.3c.43,0,.57-.01.78-.06l.39.45ZM53.14,21.48c.23.04.38.05.81.05h2.42c.44,0,.58,0,.81-.05v.86c-.21-.03-.35-.04-.8-.04h-2.45c-.45,0-.58,0-.8.04v-.86Z"/>
            <path class="cls-4" d="M58.45,26.14c.6-.04,1.42-.24,2.05-.52.87-.38,1.51-.92,2.06-1.72.3-.45.5-.83.71-1.4.27.33.38.43.73.69-.59,1.28-1.25,2.11-2.2,2.75-.71.48-1.56.82-2.64,1.05-.28.06-.3.06-.46.12l-.26-.97ZM59.04,21.79c.82.52,1.25.84,1.79,1.35l-.6.76c-.55-.6-1.12-1.06-1.77-1.42l.57-.69Z"/>
            <path class="cls-4" d="M68.8,21.03l-5.25,6.58h-1.02l5.24-6.58h1.03Z"/>
            <path class="cls-4" d="M70.2,23.62c.37.31.58.5.86.78q.38.39.43.43c.36-.31.65-.59.91-.88.3-.34.68-.86.84-1.14t.04-.06s0-.02.01-.04c-.07,0-.17.01-.32.01h-3.3c-.56,0-.63,0-.89.04v-.89c.27.04.43.05.9.05h3.85c.3,0,.4-.01.57-.06l.49.55c-.11.11-.15.16-.3.41-.66,1.07-1.39,1.93-2.24,2.65.29.34.55.67.91,1.17l-.73.59c-.39-.63-.76-1.11-1.34-1.77-.53-.6-.88-.94-1.38-1.35l.68-.5Z"/>
            <path class="cls-4" d="M75.85,26.57v.49h-.89c.02-.17.03-.34.03-.6v-4.01c0-.27,0-.4-.03-.59.17.01.31.02.59.02h3.93c.3,0,.42,0,.58-.02-.01.18-.02.32-.02.58v4.01c0,.26,0,.45.03.61h-.89v-.48h-3.32ZM79.17,22.67h-3.32v3.1h3.32v-3.1Z"/>
            <path class="cls-4" d="M80.89,26.14c.6-.04,1.42-.24,2.05-.52.87-.38,1.51-.92,2.06-1.72.3-.45.5-.83.71-1.4.27.33.38.43.73.69-.59,1.28-1.25,2.11-2.2,2.75-.71.48-1.56.82-2.64,1.05-.28.06-.3.06-.46.12l-.26-.97ZM81.47,21.79c.82.52,1.25.84,1.79,1.35l-.6.76c-.55-.6-1.12-1.06-1.77-1.42l.57-.69Z"/>
            <path class="cls-4" d="M88.56,21.91c-.02.08-.03.08-.04.14v.12s-.05.2-.05.2l-.02.17c-.29,2.01-.83,3.39-1.76,4.47-.33-.31-.46-.42-.79-.6.42-.42.7-.85.99-1.49.3-.65.54-1.52.65-2.4.04-.29.06-.53.06-.68v-.1l.95.18ZM90.52,21.74c0,.32.13,1.01.29,1.61.34,1.3.82,2.24,1.54,3.03-.35.22-.5.34-.76.64-.92-1.11-1.57-2.72-1.84-4.61-.04-.29-.06-.4-.1-.5l.86-.17ZM92.49,22.15c0,.45-.36.81-.8.81s-.8-.36-.8-.81.36-.81.8-.81.8.36.8.81ZM91.23,22.15c0,.25.2.46.45.46s.46-.21.46-.46-.2-.46-.46-.46-.45.2-.45.46Z"/>
            <path class="cls-4" d="M97.79,21.85c-.12.1-.15.13-.26.25-.52.55-1.04,1-1.63,1.44v2.99c0,.39,0,.59.04.78h-.97c.03-.2.04-.34.04-.76v-2.47c-.81.49-1.2.67-2.47,1.13-.15-.36-.22-.48-.46-.8,1.37-.38,2.54-.96,3.64-1.82.62-.48,1.09-.97,1.29-1.31l.8.56Z"/>
            <path class="cls-4" d="M102.65,21.03l-5.25,6.58h-1.02l5.24-6.58h1.03Z"/>
            <path class="cls-4" d="M107.49,22.5c-.07.1-.1.17-.17.42-.32,1.06-.81,2.01-1.42,2.7-.64.74-1.4,1.28-2.47,1.78-.19-.35-.28-.47-.59-.74.69-.29,1.08-.5,1.52-.83.99-.74,1.64-1.7,2.02-2.96l-2.09.03c-.42.68-.96,1.28-1.62,1.79-.21-.29-.31-.38-.67-.6.79-.55,1.29-1.11,1.79-2.03.21-.4.33-.67.35-.92l.95.19q-.04.06-.12.22s-.02.03-.09.2t-.09.18-.11.22c.09,0,.2-.01.33-.01l1.52-.02c.27,0,.35-.01.51-.07l.44.44Z"/>
            <path class="cls-4" d="M108.66,22.95c.29.54.43.88.68,1.66l-.78.25c-.18-.71-.32-1.08-.63-1.69l.73-.22ZM112.63,23c-.04.1-.05.14-.1.36-.2.95-.51,1.72-.96,2.33-.51.71-1.09,1.16-2.11,1.69-.18-.31-.26-.41-.55-.69.48-.19.77-.34,1.18-.64.81-.6,1.27-1.31,1.57-2.43.09-.34.12-.59.12-.81l.84.2ZM110.13,22.67c.37.69.5,1,.67,1.61l-.77.25c-.13-.53-.34-1.07-.63-1.65l.73-.21Z"/>
            <path class="cls-4" d="M115.14,22.04c-.06-.34-.09-.46-.17-.66l.92-.15c0,.18.03.39.08.66l.11.61,1.46-.23c.34-.06.49-.09.67-.15l.14.84q-.19.01-.66.09l-1.46.23.21,1.15,1.63-.26c.29-.05.53-.1.72-.16l.15.84c-.14,0-.17,0-.32.04-.04,0-.08,0-.11.01-.05,0-.14.02-.28.04l-1.65.27.25,1.36c.08.46.09.48.17.72l-.93.17c0-.21-.04-.41-.09-.74l-.25-1.38-1.71.27c-.33.06-.46.08-.71.15l-.14-.86c.24,0,.44-.02.73-.07l1.68-.27-.21-1.15-1.29.2c-.32.06-.57.1-.76.16l-.14-.86c.25,0,.47-.03.76-.08l1.29-.2-.1-.6Z"/>
            <path class="cls-4" d="M119.76,23.81c.3.04.44.05,1.12.05h3.69c.69,0,.82,0,1.12-.05v.97c-.28-.04-.35-.04-1.13-.04h-3.68c-.78,0-.85,0-1.13.04v-.97Z"/>
            <path class="cls-4" d="M126.74,23.11c.71.29,1.25.56,1.84.95l-.43.79c-.55-.41-1.17-.75-1.88-1.03l.46-.71ZM126.43,26.25c.53,0,1.28-.18,2-.46.86-.34,1.45-.79,2-1.54.38-.5.59-.92.8-1.55.28.3.39.39.72.62-.32.78-.61,1.26-1.04,1.77-.88,1.02-2.06,1.65-3.76,1.99-.25.05-.35.07-.49.11l-.24-.95ZM127.28,21.42c.71.28,1.26.55,1.84.9l-.44.77c-.63-.43-1.25-.76-1.85-.97l.45-.71Z"/>
            <path class="cls-4" d="M136.31,26.36c.32,0,.45,0,.64-.04v.8c-.19-.02-.35-.03-.64-.03h-3.6c-.3,0-.45,0-.64.03v-.8c.19.04.32.04.64.04h2.04c.12-.62.26-1.61.33-2.25h-1.72c-.33,0-.44,0-.62.03v-.79c.17.03.37.04.64.04h1.75c.24,0,.35-.01.51-.06l.38.34q-.08.22-.16.8c-.1.77-.18,1.27-.3,1.9h.73Z"/>
            <path class="cls-4" d="M137.32,23.81c.3.04.44.05,1.12.05h3.69c.69,0,.82,0,1.12-.05v.97c-.28-.04-.35-.04-1.13-.04h-3.68c-.78,0-.85,0-1.13.04v-.97Z"/>
            <path class="cls-4" d="M148.88,21.03l-5.25,6.58h-1.02l5.24-6.58h1.03Z"/>
            <path class="cls-4" d="M150.73,26.22c0,.29-.01.46-.05.6-.06.25-.31.41-.64.41-.44,0-.96-.2-1.31-.5-.25-.22-.38-.49-.38-.79,0-.33.21-.7.6-1.04.25-.22.55-.4,1.01-.6v-1.08q-.06,0-.29.01c-.1,0-.2,0-.37,0-.11,0-.3,0-.38,0-.09,0-.15,0-.17,0-.03,0-.08,0-.15,0v-.78c.19.04.46.06.83.06.07,0,.15,0,.24,0,.17,0,.2,0,.28,0v-.46c0-.4,0-.58-.04-.81h.87c-.04.22-.04.37-.04.76v.45c.52-.06.98-.15,1.34-.27l.03.78c-.12.02-.26.04-.73.13-.23.04-.37.06-.63.09v.91c.47-.14.91-.2,1.41-.2,1.16,0,1.98.71,1.98,1.71,0,.91-.67,1.6-1.57,1.6-.56,0-.96-.27-1.14-.78-.09-.24-.12-.47-.12-.9.35-.1.47-.15.77-.31-.01.13-.01.2-.01.31,0,.29.03.48.1.62.08.15.24.24.44.24.41,0,.7-.33.7-.78,0-.6-.49-.99-1.23-.99-.42,0-.84.08-1.33.23v1.38ZM149.95,25.09c-.52.28-.82.59-.82.84,0,.12.07.22.23.32.14.1.31.15.44.15.12,0,.15-.06.15-.29v-1.02ZM153.78,23.68c-.35-.55-.85-1.11-1.39-1.51l.65-.44c.6.47,1,.89,1.37,1.44l-.64.52Z"/>
            <path class="cls-4" d="M156.46,24.58c-.44.36-.63.66-.63.96,0,.46.51.65,1.68.65.82,0,1.73-.13,2.18-.29l.08.96c-.12,0-.16,0-.3.03-.83.12-1.28.15-1.87.15-.75,0-1.37-.08-1.73-.23-.6-.23-.89-.62-.89-1.17s.27-.99.89-1.52l.6.46ZM155.4,21.7c.54.13,1.15.17,2.08.17s1.37-.04,1.83-.13l.03.78c-.42.19-1.16.66-1.85,1.16l-.6-.48c.36-.23.7-.44,1.02-.62-.3.04-.6.06-1.04.06-.35,0-.93-.04-1.27-.08-.14-.01-.16-.02-.26-.02l.06-.83Z"/>
            <path class="cls-4" d="M160.52,25.32c.16-.11.43-.35,1.25-1.12.01-.43.01-.43.03-1.01q-.84.06-1.05.1l-.05-.79c.11,0,.17.01.23.01.12,0,.51-.02.89-.05.02-.18.02-.27.02-.52,0-.13,0-.23,0-.29v-.07c0-.11,0-.17-.03-.31h.89c-.04.19-.04.2-.07.68q0,.13-.02.33v.13s.06-.01.1-.04l.26.29c-.1.08-.14.14-.39.46-.01.3-.02.46-.03.48h.01s.08-.08.17-.14c.76-.55,1.32-.77,2-.77.5,0,1,.22,1.35.57.35.36.53.88.53,1.44,0,.88-.41,1.62-1.1,1.98-.35.17-.76.27-1.23.27-.35,0-.68-.05-1.03-.15,0-.37-.02-.53-.13-.91.39.17.82.26,1.23.26.83,0,1.41-.6,1.41-1.45,0-.75-.46-1.22-1.18-1.22-.58,0-1.25.36-2.02,1.06v.73c0,1,.02,1.79.05,2.09h-.9c.04-.21.04-.41.04-1.12v-.62c0-.2,0-.27.02-.41h-.02c-.05.07-.1.13-.3.33-.25.25-.44.46-.53.6l-.4-.81Z"/>
          </g>
          <g>
            <path class="cls-5" d="M52.91,13.81c-2.05-.59-2.83-1.17-3.42-1.64v1.68h-1.33v-1.63c-.96.74-2.08,1.23-3.22,1.63l-.94-1.01c1.22-.25,2.12-.53,2.94-1.15h-2.74v-.99h3.95v-.44h-3.06v-3.48h7.52v3.48h-3.13v.44h3.95v.99h-2.76c1.13.71,2.08.89,3.02,1.02l-.79,1.1ZM51.07,6.18v.33h-1.29v-.33h-1.92v.33h-1.24v-.33h-2.43v-1.02h2.43v-.63l1.2.05c.2.01.26.1.26.16,0,.02-.13.15-.15.17q-.06.08-.06.25h1.92v-.65l1.23.09c.11.01.23.01.23.13,0,.03-.01.08-.09.15s-.08.1-.08.13v.15h2.4v1.02h-2.4ZM48.16,7.58h-1.78v.52h1.78v-.52ZM48.16,8.88h-1.78v.54h1.78v-.54ZM51.32,7.58h-1.83v.52h1.83v-.52ZM51.32,8.88h-1.83v.54h1.83v-.54Z"/>
            <path class="cls-5" d="M59.65,9.73v2.56c0,1.5-.47,1.56-2.53,1.56l-.61-1.3c.91.12,1.01.14,1.22.14.31,0,.61-.1.61-.6v-2.36h-3.99v-1.2h3.99v-1.58l.7.17c.54-.43.93-.79,1.1-.96h-4.79v-1.17h6.57l.65.67c-1.2,1.09-2.14,1.9-2.91,2.54v.33h3.97v1.2h-3.97Z"/>
            <path class="cls-5" d="M64.04,13.05v-1.24h3.93v-5.28h-3.24v-1.21h7.82v1.21h-3.25v5.28h3.91v1.24h-9.17Z"/>
            <path class="cls-5" d="M79.55,10.04c0,.24,0,.26-.02.5h3.19c-.01.57-.21,2.37-.74,2.87-.43.41-1.1.46-1.84.47l-.42-1.16c1.19.08,1.69.02,1.7-1.16h-2.04c-.34.92-.8,1.65-2.14,2.49l-.94-.86c1.75-.92,2.03-1.78,2.03-3.13h-1.76c-.08,1.81-.59,2.9-1.11,3.75l-1.16-.45c.22-.27.58-.75.85-1.85.26-1.03.32-2.1.32-3.18,0-.94-.05-1.7-.09-2.17h7.51v2.45h-2.57v.43h3.42v1.02h-4.18ZM74.54,5.64v-1.01h9.31v1.01h-9.31ZM81.72,7.01h-5.11v.61h5.11v-.61ZM79.08,8.59h-2.47v.43h2.47v-.43Z"/>
            <path class="cls-5" d="M92.3,6.67v6.64h-1.45v-6.64h-2.8v-1.23h7.06v1.23h-2.8Z"/>
            <path class="cls-5" d="M100.65,13.3l-.58-1.69h-3.31l-.58,1.69h-1.6l3.02-7.86h1.65l3.02,7.86h-1.61ZM98.59,7.37l-.17-.69-.18.69-1.04,3.03h2.46l-1.06-3.03Z"/>
            <path class="cls-5" d="M105.98,6.67v6.64h-1.45v-6.64h-2.8v-1.23h7.06v1.23h-2.8Z"/>
            <path class="cls-5" d="M113.06,13.56c-2.11,0-3.28-1.23-3.28-3.36v-4.76h1.46v4.93c0,1.36.76,1.88,1.78,1.88,1.18,0,1.81-.66,1.81-1.88v-4.93h1.45v4.76c0,2.49-1.53,3.36-3.22,3.36Z"/>
            <path class="cls-5" d="M121.53,10.28v3.03h-1.45v-3.03l-2.78-4.84h1.64l1.62,3.08.26.54.25-.54,1.62-3.08h1.64l-2.78,4.84Z"/>
            <path class="cls-5" d="M129.81,13.3l-.58-1.69h-3.31l-.58,1.69h-1.6l3.02-7.86h1.65l3.02,7.86h-1.61ZM127.75,7.37l-.17-.69-.18.69-1.04,3.03h2.46l-1.06-3.03Z"/>
          </g>
        </g>
      </g>
    </g>
  </g>
</svg>