<?xml version="1.0" encoding="UTF-8"?>
<svg xmlns="http://www.w3.org/2000/svg" viewBox="0 0 167.6 27.54">
  <defs>
    <style>
      .cls-1 {
        mix-blend-mode: multiply;
      }

      .cls-1, .cls-2 {
        fill: #ef8586;
      }

      .cls-3 {
        isolation: isolate;
      }

      .cls-4 {
        fill: #231815;
      }

      .cls-5 {
        fill: #fff;
      }
    </style>
  </defs>
  <g class="cls-3">
    <g id="_レイヤー_2" data-name="レイヤー 2">
      <g id="_テキスト1" data-name="テキスト1">
        <g>
          <g>
            <rect class="cls-2" width="167.6" height="17.49"/>
            <rect class="cls-1" width="8.29" height="17.49"/>
          </g>
          <g>
            <path class="cls-4" d="M3.22,21.25c-.02.06-.04.14-.06.22-.01.09-.02.13-.04.24q-.02.15-.12.67c-.03.15-.03.17-.05.26.2-.01.3-.02.44-.02.46,0,.8.13,1.04.37.24.27.33.6.33,1.24,0,1.21-.2,2.16-.54,2.55-.2.23-.41.32-.78.32-.32,0-.61-.06-1.08-.2,0-.14.01-.24.01-.31,0-.18-.01-.32-.07-.6.38.17.78.27,1.02.27.2,0,.32-.13.42-.48.11-.36.18-1,.18-1.6,0-.64-.16-.83-.71-.83-.14,0-.24,0-.41.02-.21.85-.27,1.06-.43,1.52-.24.7-.43,1.15-.84,1.97q-.04.07-.11.21s-.02.05-.05.12l-.81-.45c.21-.28.49-.78.73-1.32.3-.69.4-.98.68-1.98-.36.04-1.02.16-1.25.22l-.08-.83c.26,0,1.11-.08,1.49-.14.13-.76.18-1.18.18-1.42v-.13l.91.1ZM5.54,22.15c.7.82,1.14,1.65,1.44,2.73l-.8.41c-.13-.6-.29-1.06-.56-1.59-.25-.52-.48-.84-.81-1.2l.72-.35Z"/>
            <path class="cls-4" d="M8.07,27.28c0-.08,0-.11,0-.19l-.02-.07-.04-.32c-.08-.55-.13-1.25-.13-1.91,0-.88.08-1.62.32-3,.06-.31.06-.34.06-.46l.91.09c-.23.63-.45,1.87-.53,3.15,0,.21-.01.41-.02.62v.33s0,.06,0,.06h.01s.03-.06.04-.07l.06-.18c.03-.09.16-.41.19-.47l.07-.15s.01-.03.03-.07l.57.27c-.42.81-.68,1.64-.68,2.19,0,.03,0,.07,0,.14l-.84.04ZM12.94,22.41q-.07,0-.17.01c-.11.01-.27.03-.35.04-.01.19-.01.28-.01.51v.36c.44-.04,1.03-.15,1.14-.21l.03.76c-.09,0-.11,0-.24.04-.41.06-.71.1-.92.12,0,.37.03.8.06,1.21.43.19.74.36,1.13.64.11.08.12.09.19.13l-.31.83c-.16-.19-.49-.44-.85-.65-.07-.04-.12-.08-.16-.1,0,.06,0,.08,0,.15,0,.18-.04.34-.14.5-.18.31-.68.5-1.28.5-.9,0-1.46-.43-1.46-1.13s.6-1.12,1.46-1.12c.24,0,.5.04.63.08,0-.04,0-.05-.01-.13,0-.1,0-.21-.03-.86q-.64.01-.74.01c-.19,0-.32,0-.95-.03-.06,0-.11,0-.15,0h-.12l.02-.76c.28.06.66.09,1.21.09.2,0,.44,0,.71-.01q0-.38,0-.48c0-.13,0-.22,0-.38-.24,0-.53.01-.71.01-.28,0-.38,0-.96-.03-.05,0-.1,0-.13,0h-.1l.04-.76c.27.06.68.08,1.3.08.57,0,.66,0,1.51-.08-.08-.17-.17-.3-.36-.55l.5-.18c.29.36.44.62.6,1.02l-.38.15v.23ZM11.06,25.68c-.38,0-.66.18-.66.44s.25.42.64.42c.45,0,.65-.17.65-.56,0-.06,0-.2-.02-.21-.26-.07-.38-.09-.62-.09ZM13.75,22.02c-.16-.38-.37-.75-.61-1.07l.49-.18c.24.32.44.64.62,1.04l-.5.21Z"/>
            <path class="cls-4" d="M14.99,22.15c.32.08.79.12,1.51.12.13-.56.18-.85.2-1.16l.94.08q-.04.13-.11.41-.13.53-.17.66c.53-.01,1.32-.07,1.79-.13.52-.06.65-.09.9-.16l.04.85c-.16,0-.22.01-.41.03-1.02.11-1.63.16-2.51.18-.15.5-.41,1.17-.55,1.42h0c.47-.29,1.08-.44,1.77-.44,1.23,0,1.97.53,1.97,1.42,0,1.04-1,1.71-2.54,1.71-.62,0-1.24-.08-1.79-.25,0-.4,0-.54-.07-.89.63.22,1.22.34,1.81.34,1.02,0,1.67-.36,1.67-.92,0-.43-.42-.67-1.18-.67-.52,0-1.06.13-1.51.34-.26.13-.39.23-.51.41l-.85-.29c.11-.17.22-.38.33-.63.23-.53.49-1.21.59-1.55-.37,0-.69-.02-1.06-.05-.1,0-.17,0-.22,0h-.05v-.82Z"/>
            <path class="cls-4" d="M23.07,22.55c.04.17.04.2.31,1.05.34-.11.59-.17.99-.25,0-.65-.01-.84-.04-.97h.78c-.03.17-.04.31-.04.88.22-.01.26-.01.38-.01.76,0,1.28.5,1.28,1.22,0,.42-.16.76-.48,1-.29.2-.64.32-1.02.32-.28,0-.48-.04-.92-.17-.01-.33-.04-.46-.13-.8.38.18.64.25.97.25.5,0,.8-.22.8-.6,0-.34-.24-.53-.65-.53-.29,0-.73.06-1.11.16-.16.04-.17.04-.5.15t-.11.04.2.7c.11.4.3,1.16.43,1.74.08.35.09.41.16.58l-.83.17c0-.2-.08-.57-.22-1.23-.12-.55-.35-1.48-.44-1.76-.52.17-.82.28-.99.37l-.25-.74c.13-.02.15-.03.32-.08.03,0,.18-.06.39-.12t.33-.1c-.12-.4-.28-.83-.38-1.03l.78-.22Z"/>
            <path class="cls-4" d="M31.76,21.81c.21,0,.29,0,.41-.01,0-.46.36-.81.81-.81s.81.36.81.8-.37.81-.81.81c-.04,0-.08,0-.13-.01-.57,2.29-1.81,3.72-4.02,4.64-.18-.36-.3-.53-.62-.83,1.94-.6,3.21-1.91,3.66-3.77h-3.33c-.52,0-.65,0-.88.04v-.91c.25.04.42.05.9.05h3.21ZM32.52,21.79c0,.25.2.46.46.46s.46-.21.46-.46-.2-.46-.46-.46-.46.2-.46.46Z"/>
            <path class="cls-4" d="M36.01,21.39c-.03.2-.03.26-.03.63v1.93c0,.35,0,.44.03.62h-.96c.02-.16.04-.38.04-.63v-1.93c0-.36,0-.45-.03-.63h.95ZM39.19,21.39c-.03.17-.04.25-.04.65v.95c0,1.09-.05,1.68-.18,2.12-.2.7-.65,1.23-1.38,1.63-.37.21-.72.35-1.37.54-.12-.34-.2-.46-.49-.83.69-.13,1.09-.28,1.51-.56.66-.43.89-.86.97-1.79.03-.3.04-.61.04-1.17v-.88c0-.36,0-.5-.04-.67h.97Z"/>
            <path class="cls-4" d="M40.85,26.06c.6-.04,1.44-.24,2.07-.52.88-.38,1.53-.92,2.08-1.72.31-.45.5-.83.71-1.4.27.33.38.43.74.69-.6,1.28-1.26,2.11-2.22,2.75-.71.48-1.58.82-2.67,1.05-.28.06-.3.06-.46.12l-.26-.97ZM41.44,21.72c.83.52,1.27.84,1.81,1.35l-.6.76c-.56-.59-1.13-1.06-1.79-1.42l.58-.69Z"/>
            <path class="cls-4" d="M52.29,20.95l-5.31,6.58h-1.03l5.3-6.58h1.04Z"/>
            <path class="cls-4" d="M56.07,22.96c-.02.13-.02.14-.03.57-.03,1.2-.22,1.87-.69,2.48-.42.54-.93.9-1.81,1.26-.18-.38-.27-.5-.55-.8.57-.17.88-.32,1.22-.59.71-.57.94-1.17.94-2.49,0-.21,0-.27-.04-.42h.95ZM58.91,22.08c-.1.12-.1.13-.28.49-.25.52-.65,1.04-1.08,1.41-.28.25-.51.4-.84.58-.21-.29-.31-.4-.63-.64.47-.21.73-.37,1.02-.64.29-.27.5-.55.67-.89h-3.68c-.49,0-.66,0-.95.04v-.88c.27.04.48.06.96.06h3.66c.42,0,.48,0,.68-.06l.47.53Z"/>
            <path class="cls-4" d="M60.71,22.88c.29.54.43.88.69,1.66l-.79.25c-.18-.71-.32-1.08-.64-1.7l.74-.22ZM64.73,22.93c-.04.11-.06.14-.1.36-.2.95-.52,1.72-.97,2.33-.52.71-1.1,1.16-2.14,1.69-.18-.31-.27-.41-.56-.69.49-.19.78-.34,1.19-.64.82-.6,1.29-1.31,1.59-2.43.09-.34.13-.59.13-.81l.85.2ZM62.2,22.59c.37.69.5,1,.68,1.61l-.78.25c-.13-.53-.34-1.07-.64-1.65l.74-.21Z"/>
            <path class="cls-4" d="M70.25,21.81c.21,0,.29,0,.41-.01,0-.46.36-.81.81-.81s.81.36.81.8-.37.81-.81.81c-.04,0-.08,0-.13-.01-.57,2.29-1.81,3.72-4.02,4.64-.18-.36-.3-.53-.62-.83,1.94-.6,3.21-1.91,3.66-3.77h-3.33c-.52,0-.65,0-.88.04v-.91c.25.04.42.05.9.05h3.21ZM71.01,21.79c0,.25.2.46.46.46s.46-.21.46-.46-.2-.46-.46-.46-.46.2-.46.46Z"/>
            <path class="cls-4" d="M74.61,21.48q-.03.2-.07,1.57c-.05,1.37-.2,2.16-.57,2.88-.24.48-.5.84-.97,1.3-.27-.35-.38-.46-.71-.68.34-.28.51-.47.72-.81.5-.81.67-1.71.67-3.67,0-.38,0-.45-.03-.64l.95.05ZM76.47,21.39c-.03.2-.04.32-.05.67l-.04,3.99c.49-.23.77-.44,1.07-.8.32-.38.53-.76.69-1.28.24.31.34.41.66.66-.29.69-.65,1.22-1.12,1.63-.4.34-.76.55-1.49.84-.15.06-.21.08-.3.13l-.45-.48c.05-.2.06-.36.06-.74l.04-3.95v-.21c0-.18,0-.33-.03-.46h.95Z"/>
            <path class="cls-4" d="M81.7,21.83c-.02.08-.03.08-.04.14v.12s-.05.2-.05.2l-.02.17c-.29,2.01-.84,3.39-1.78,4.47-.33-.32-.46-.42-.8-.6.42-.42.71-.85,1-1.49.3-.65.55-1.52.66-2.4.04-.29.06-.53.06-.68v-.1l.96.17ZM83.68,21.66c0,.32.13,1.01.29,1.61.34,1.29.83,2.24,1.56,3.03-.36.22-.51.34-.77.64-.93-1.11-1.58-2.72-1.86-4.61-.04-.29-.06-.4-.1-.5l.87-.17ZM85.67,22.07c0,.45-.37.81-.81.81s-.81-.36-.81-.81.37-.81.81-.81.81.36.81.81ZM84.41,22.07c0,.25.2.46.46.46s.46-.21.46-.46-.2-.46-.46-.46-.46.2-.46.46Z"/>
            <path class="cls-4" d="M91.59,21.78c-.12.11-.15.13-.26.25-.53.55-1.05,1-1.65,1.44v2.99c0,.38,0,.59.04.78h-.98c.04-.2.04-.34.04-.76v-2.46c-.82.49-1.21.67-2.5,1.13-.15-.36-.22-.48-.47-.8,1.39-.38,2.56-.96,3.68-1.82.62-.48,1.1-.97,1.3-1.31l.8.56Z"/>
            <path class="cls-4" d="M98.04,20.95l-5.31,6.58h-1.03l5.3-6.58h1.04Z"/>
            <path class="cls-4" d="M101.87,24.29s.01-.39.02-.5c-.15.3-.37.6-.71.98-.38.42-.9.87-1.38,1.22-.27.2-.5.34-1.04.64-.17-.33-.27-.46-.58-.73.83-.38,1.51-.84,2.21-1.52.36-.35.71-.78.94-1.16h-1.92c-.53,0-.61,0-.86.03v-.85c.27.05.38.05.88.05h2.42v-.56q-.01-.38-.04-.64h.92c-.02.18-.03.31-.03.6v.61h.72c.47,0,.58,0,.83-.05v.85c-.21-.02-.37-.03-.8-.03h-.72l.04,3.25c0,.34.02.61.04.81h-.95c.03-.2.04-.38.04-.67v-.13l-.02-2.09v-.1Z"/>
            <path class="cls-4" d="M106.73,21.39c-.03.2-.03.26-.03.63v1.93c0,.35,0,.44.03.62h-.96c.02-.16.04-.38.04-.63v-1.93c0-.36,0-.45-.03-.63h.95ZM109.91,21.39c-.03.17-.04.25-.04.65v.95c0,1.09-.05,1.68-.18,2.12-.2.7-.65,1.23-1.38,1.63-.37.21-.72.35-1.37.54-.12-.34-.2-.46-.49-.83.69-.13,1.09-.28,1.51-.56.66-.43.89-.86.97-1.79.03-.3.04-.61.04-1.17v-.88c0-.36,0-.5-.04-.67h.97Z"/>
            <path class="cls-4" d="M111.94,23.09c.65.26,1.34.61,1.86.95l-.43.79c-.46-.36-1.25-.78-1.9-1.02l.47-.72ZM111.62,26.23c.55,0,1.28-.17,2.02-.46,1.28-.45,2.33-1.6,2.84-3.09.27.29.41.41.73.62-.87,2.12-2.35,3.27-4.86,3.76-.3.06-.36.08-.49.12l-.24-.96ZM112.48,21.4c.66.25,1.36.59,1.86.9l-.45.77c-.57-.39-1.36-.8-1.87-.96l.46-.71ZM116.12,21.26c.31.33.5.6.74,1.03l-.49.26c-.23-.43-.43-.71-.74-1.04l.49-.25ZM117.21,22.11c-.21-.38-.44-.71-.71-1.02l.47-.25c.32.32.51.59.73.99l-.48.27Z"/>
            <path class="cls-4" d="M123.25,22.92c.49,0,.64,0,.91-.05v.88c-.25-.03-.43-.03-.9-.03h-1.44c-.06.97-.18,1.44-.5,1.97-.38.64-.88,1.07-1.79,1.57-.24-.4-.34-.53-.64-.76.84-.36,1.37-.8,1.69-1.38.21-.38.29-.69.34-1.41h-1.74c-.46,0-.64,0-.9.03v-.88c.27.04.43.05.91.05h1.77c0-.29,0-.42,0-.55v-.41c0-.3,0-.48-.03-.67h.96c-.03.22-.03.23-.04.67v.42q-.01.46-.01.54h1.39Z"/>
            <path class="cls-4" d="M126.77,21.48q-.03.2-.07,1.57c-.05,1.37-.2,2.16-.57,2.88-.24.48-.5.84-.97,1.3-.27-.35-.38-.46-.71-.68.34-.28.51-.47.72-.81.5-.81.67-1.71.67-3.67,0-.38,0-.45-.03-.64l.95.05ZM128.62,21.39c-.03.2-.04.32-.05.67l-.04,3.99c.49-.23.77-.44,1.07-.8.32-.38.53-.76.69-1.28.24.31.34.41.66.66-.29.69-.65,1.22-1.12,1.63-.4.34-.76.55-1.49.84-.15.06-.21.08-.3.13l-.45-.48c.05-.2.06-.36.06-.74l.04-3.95v-.21c0-.18,0-.33-.03-.46h.95Z"/>
            <path class="cls-4" d="M132.68,26.56c-.48,0-.65,0-.86.03v-.9c.26.04.38.05.88.05h3.19v-3.05h-3.07c-.5,0-.64,0-.9.04v-.91c.26.04.39.05.9.05h3.37q.36,0,.61-.01c-.02.19-.02.26-.02.58v3.84c0,.35,0,.55.04.72h-.94v-.43h-3.19Z"/>
            <path class="cls-4" d="M138.22,23.73c.31.04.44.05,1.13.05h3.73c.69,0,.83,0,1.13-.05v.97c-.28-.04-.36-.04-1.14-.04h-3.72c-.79,0-.86,0-1.14.04v-.97Z"/>
            <path class="cls-4" d="M146.69,23.44c.71-.14,1.38-.36,2.12-.69.52-.23.82-.41,1.04-.6l.56.79c-.14.06-.15.07-.33.15-.63.33-1.34.62-2,.83-.51.15-.69.2-1.39.33v.9s0,.01,0,.02v.1c0,.41.03.57.13.66.12.13.52.18,1.2.18.47,0,1.11-.04,1.62-.11.34-.04.49-.08.8-.16l.04.93c-.14,0-.19,0-.69.06-.56.06-1.44.1-1.96.1-.88,0-1.36-.09-1.63-.3-.2-.15-.3-.37-.34-.71-.01-.12-.02-.24-.02-.64v-3.25c0-.36,0-.46-.04-.64h.94c-.03.18-.04.33-.04.65v1.41Z"/>
            <path class="cls-4" d="M151.42,23.73c.31.04.44.05,1.13.05h3.73c.69,0,.83,0,1.13-.05v.97c-.28-.04-.36-.04-1.14-.04h-3.72c-.79,0-.86,0-1.14.04v-.97Z"/>
            <path class="cls-4" d="M161.29,24.62q0-.17.02-.77c-.17.29-.34.53-.59.81-.1-.29-.18-.48-.36-.83.52-.51.93-1.17,1.24-1.93.14-.35.24-.69.27-.95l.79.24c-.06.16-.07.2-.14.4-.16.47-.26.71-.49,1.16v3.9c0,.33.01.58.04.85h-.82c.03-.25.04-.48.04-.85v-2.02ZM163.64,23.85v2.45c0,.14.04.18.19.22.17.04.38.06.88.06.79,0,1.09-.03,1.25-.13.08-.05.14-.17.17-.32.02-.13.03-.22.05-.55.31.13.43.16.76.22-.08.8-.18,1.07-.39,1.24-.27.19-.73.25-2.01.25s-1.64-.14-1.64-.7v-2.49c-.06.02-.11.04-.14.04-.2.07-.27.1-.41.16l-.06-.8c.17-.02.37-.07.61-.14v-.83c0-.33,0-.52-.04-.74h.83c-.04.2-.04.39-.04.71v.62l.72-.23v-1.14c0-.28-.01-.46-.04-.7h.81c-.03.22-.04.39-.04.68v.93l1.02-.33c.27-.08.43-.15.57-.21,0,.15,0,.2,0,.38-.01.84-.06,1.81-.12,2.26-.07.53-.25.68-.79.68-.13,0-.21,0-.38-.02-.04-.27-.08-.43-.2-.71.18.04.37.06.48.06.15,0,.18-.05.22-.38.04-.27.06-.74.06-1.29l-.86.28v1.82c0,.29,0,.46.04.7h-.81c.04-.22.04-.4.04-.72v-1.56l-.72.23Z"/>
          </g>
          <g>
            <path class="cls-5" d="M64.84,13.08c-.7-.5-1.17-.75-1.97-1.07-.04,1.1-.3,1.53-1.68,1.53-1.49,0-2.41-.53-2.41-1.4,0-.31.11-1.56,2.53-1.48h.3s-.02-1.02-.02-1.02c-.19.01-.79.03-1.1.03-.99,0-1.49-.36-1.49-.78,0-.53.73-1.03,1.15-1.34l.61.53c-.19.14-.36.26-.36.4,0,.15.23.15.41.15.36,0,.5,0,.74-.02l-.02-1.35c-1.24.05-1.85.1-2.78.21l-.02-1.16c1.23,0,1.81-.02,2.77-.04l-.03-1.43,1.31.13c.2.02.27.05.27.13,0,.04-.02.05-.14.15-.04.03-.12.1-.14.19,0,.01-.01.22-.02.78,1.38-.06,1.75-.09,2.76-.16l-.04,1.14c-1.2,0-2.2.02-2.74.03v1.27c.94-.12,1.34-.18,2.33-.37v1.17c-.46.08-1.03.17-2.31.27.02.54.02.65.05,1.28.89.25,1.6.51,2.72,1.22l-.7,1ZM61.12,11.67c-.7,0-1.04.18-1.04.46,0,.37.69.37.82.37.7,0,.74-.19.73-.8-.12-.02-.26-.03-.51-.03Z"/>
            <path class="cls-5" d="M74.28,11.89c-1.13.57-2.4.78-3.66.82l-.55-1.41c.32.04.72.05,1.06.05,1.84,0,3.83-.75,3.83-2.47,0-1.36-1.16-1.77-1.98-1.77-.61,0-1.64.27-2.39.48-.4.11-2.17.62-2.53.72l-.58-1.36c1.02-.11,2.06-.34,2.77-.52,1.29-.32,1.96-.48,2.69-.48,1.44,0,3.31.73,3.31,3.05,0,1.57-1.01,2.39-1.96,2.88Z"/>
            <path class="cls-5" d="M85.7,11.71c-.57-.44-.87-.65-1.12-.81-.62,1.34-1.13,1.94-2.13,2.68l-1.07-.74c.95-.61,1.5-1.16,2.14-2.53-.82-.37-1.33-.5-2.15-.6-1.07,2.28-1.53,2.97-2.48,2.97-.73,0-1.22-.59-1.22-1.39s.52-1.63,1.27-2.13c.73-.5,1.34-.51,1.71-.52.31-.74.56-1.36.87-2.34-.97.25-1.36.32-1.96.33l-.49-1.09c1.66.01,2.93-.2,3.51-.58l.71.71c-.14.18-.33.43-.56.92-.01.04-.78,1.78-.93,2.11.93.1,1.42.24,2.08.5.18-.74.24-1.18.28-1.97l1.21.33c.11.03.26.09.26.18,0,.05-.01.06-.16.14-.09.05-.09.08-.12.23-.1.56-.16.88-.37,1.6.59.33.93.54,1.39.84l-.69,1.15ZM78.79,11.04c0,.28.14.29.22.29.12,0,.28-.01.45-.26.24-.33.64-1.17.71-1.33-.93.29-1.38.9-1.38,1.3Z"/>
            <path class="cls-5" d="M92.7,10.29l-.41-1.17c.22.03.45.05.67.05,1.29,0,2.08-.68,2.08-1.42,0-.59-.66-.81-1-.81-.25,0-.55.09-.7.13.15.2.32.48.57.89l-1.16.5c-.1-.22-.2-.43-.54-.98-.53.23-.83.38-1.49.73.81,1.64,1.33,2.92,1.98,4.93l-1.21.54c-.73-2.61-1.37-3.92-1.83-4.85-.73.48-1.06.74-1.4,1.06l-.97-1.07c.15-.09.32-.18,1.82-1.04-.37-.66-.67-1.16-1.11-1.71l1.14-.5c.13-.05.43-.2.43-.01,0,.05-.09.27-.09.32,0,.04.11.21.14.27.08.11.4.7.58,1.03.58-.3.91-.45,1.36-.65-.54-.7-.8-.95-1.09-1.18l1.11-.52c.31.32.55.58,1.08,1.28.37-.11.83-.24,1.33-.24,1.02,0,2.19.54,2.19,1.9,0,2.41-2.64,2.49-3.48,2.51Z"/>
            <path class="cls-5" d="M99.2,9.13c-.65-.49-1.15-.72-1.78-.98l.51-1.04c.61.25,1.14.52,1.84,1.03l-.57.99ZM99.5,12.52c-.08.17-.48,1.01-.5,1.09-.01.03.01.19.01.24,0,.09-.03.11-.08.11s-.16-.04-.32-.15l-.95-.68c.72-.93,1.28-2.15,1.62-3.15l.97.65c-.26.73-.62,1.59-.75,1.9ZM99.5,6.52c-.38-.37-.86-.76-1.45-1.11l.67-.96c.54.31,1.01.68,1.46,1.11l-.68.96ZM104.86,6.02v.87h1.95v6.92h-1.17v-.38h-3.9v.44h-1.14v-6.98h1.84c0-.44,0-.56-.01-.87h-1.83v-1.01h6.41v1.01h-2.14ZM105.64,10.32c-.11.08-.27.12-.38.12h-.78c-.41,0-.59-.21-.59-.6v-1.81h-.51c-.11,1.24-.23,1.58-.92,2.49l-.73-.46v.83h3.9v-.56ZM101.74,8.03v1.79c.46-.47.58-.91.67-1.79h-.67ZM105.64,11.81h-3.9v.61h3.9v-.61ZM103.89,6.02h-.45v.87h.45v-.87ZM105.64,8.03h-.78v1.14c0,.12.03.17.33.17.27,0,.33-.05.44-.16v-1.15Z"/>
            <path class="cls-5" d="M113.1,6.84l.66.13c.12.02.3.06.3.16,0,.09-.09.12-.24.19v.53h3.63v1.11h-3.63v1.09h2.95v3.86h-1.25v-.28h-3.73v.28h-1.18v-3.86h1.97v-3.21h-2.29v1.69c0,1.21-.11,1.92-.34,3.11-.18.88-.49,1.56-.75,2.14l-1.17-.44c.38-.72,1.03-1.98,1.03-4.58v-3.05h3.23v-1.13l1.41.09c.11.01.24.04.24.16,0,.07-.1.13-.15.16s-.13.08-.13.12v.6h3.94v1.12h-4.49ZM115.53,11.21h-3.73v1.34h3.73v-1.34Z"/>
          </g>
        </g>
      </g>
    </g>
  </g>
</svg>