<?xml version="1.0" encoding="UTF-8"?>
<svg xmlns="http://www.w3.org/2000/svg" viewBox="0 0 167.6 27.71">
  <defs>
    <style>
      .cls-1 {
        mix-blend-mode: multiply;
      }

      .cls-1, .cls-2 {
        fill: #ef8586;
      }

      .cls-3 {
        isolation: isolate;
      }

      .cls-4 {
        fill: #231815;
      }

      .cls-5 {
        fill: #fff;
      }
    </style>
  </defs>
  <g class="cls-3">
    <g id="_レイヤー_2" data-name="レイヤー 2">
      <g id="_レイヤー_1-2" data-name="レイヤー 1">
        <g>
          <g>
            <rect class="cls-2" width="167.6" height="17.49"/>
            <rect class="cls-1" width="8.29" height="17.49"/>
          </g>
          <g>
            <path class="cls-4" d="M32.74,27.71v-6.7h2.12c-.44.59-.6.88-.76,1.36-.2.59-.3,1.23-.3,1.99s.1,1.4.3,1.99c.17.49.33.78.76,1.37h-2.12Z"/>
            <path class="cls-4" d="M36.81,22.88c.47.27.76.46,1.26.88l-.45.64c-.51-.47-.71-.62-1.26-.95l.45-.57ZM38.03,25.24c-.22.71-.42,1.23-.74,1.84l-.22.43-.67-.58c.36-.4.69-1.09,1.01-2.13l.63.44ZM37.11,21.15c.49.32.76.53,1.13.9l-.48.64c-.36-.43-.66-.69-1.13-.98l.48-.56ZM42.09,24.43c.25,0,.51-.01.74-.04v.77c-.22-.02-.49-.04-.73-.04h-1.02c.46.58,1.18,1.07,1.93,1.34-.18.26-.22.35-.35.76-.82-.38-1.49-.93-1.93-1.6.01.25.02.37.02.55v.71c0,.29.01.5.04.69h-.8c.03-.21.03-.4.03-.71v-.7c0-.16,0-.17.02-.55-.41.69-.95,1.18-1.77,1.6-.13-.32-.2-.41-.43-.67.77-.3,1.41-.79,1.83-1.41h-.76c-.27,0-.52.01-.74.04v-.78c.22.03.46.04.74.04h1.11v-.19c0-.19,0-.32-.03-.46h.78c-.02.14-.03.26-.03.46v.19h1.34ZM40.28,22.06c-.05.52-.15.86-.32,1.16-.26.44-.66.74-1.32.98-.12-.29-.17-.37-.39-.63.92-.26,1.25-.62,1.33-1.51h-.6v.73h-.73c.02-.14.03-.29.03-.46v-.51c0-.19,0-.35-.02-.48q.06,0,.19.01c.05,0,.37.01.53.01h3c.4,0,.6,0,.78-.03-.01.15-.02.29-.02.5v.37c0,.18,0,.31.03.46h-.74v-.62h-.67v1.02c0,.13.06.16.39.16.41,0,.42-.02.43-.49.25.11.34.13.65.18-.04.5-.07.66-.2.78-.13.13-.39.17-.97.17-.76,0-1-.11-1-.46v-1.36h-.38Z"/>
            <path class="cls-4" d="M48.23,22.52c.34.53.68.9,1.22,1.32.54.43,1.04.71,1.74.97-.15.22-.29.5-.38.74-.4-.18-.53-.25-.87-.46v1.73c0,.33.01.54.04.76h-.82v-.34h-2.63v.34h-.81c.03-.22.04-.46.04-.76v-1.71c-.29.18-.44.26-.83.45-.12-.3-.2-.46-.38-.71.65-.26,1.16-.55,1.66-.94.53-.42.89-.83,1.22-1.39h.81ZM47.37,21.58c-.32.44-.56.69-1.02,1.05-.33.27-.48.35-1.15.71-.15-.26-.28-.42-.49-.63.55-.27.94-.48,1.26-.74.37-.29.57-.53.76-.85l.63.46ZM49.25,24.63c-.57-.43-1.03-.9-1.41-1.44-.36.53-.85,1.02-1.39,1.44h2.8ZM46.53,26.55h2.63v-1.24h-2.63v1.24ZM48.91,21.11c.34.45.6.69,1.08,1.02.26.17.47.29,1.01.53-.18.22-.32.46-.44.7-1.05-.59-1.51-.96-2.24-1.8l.6-.46Z"/>
            <path class="cls-4" d="M55.78,25.38c-.4.9-.85,1.32-1.42,1.32-.8,0-1.37-.81-1.37-1.94,0-.77.27-1.49.77-2.04.59-.64,1.42-.98,2.41-.98,1.68,0,2.77,1.02,2.77,2.6,0,1.21-.63,2.18-1.7,2.61-.34.14-.61.21-1.1.29-.12-.37-.2-.53-.43-.82.64-.08,1.06-.2,1.39-.39.61-.34.97-1,.97-1.75,0-.67-.3-1.22-.86-1.55-.22-.13-.4-.18-.71-.21-.13,1.1-.38,2.07-.73,2.86ZM54.75,22.88c-.59.42-.95,1.14-.95,1.89,0,.57.24,1.03.55,1.03.23,0,.47-.29.72-.9.27-.63.5-1.58.58-2.37-.36.04-.62.14-.9.34Z"/>
            <path class="cls-4" d="M61.73,22.06c-.38,0-.65.01-.86.03v-.76c.21.03.49.04.86.04h4.44c.38,0,.7-.01.89-.04v.76c-.21-.02-.49-.03-.88-.03h-1.13v.45h1.02c.28,0,.46,0,.64-.02-.02.2-.03.34-.03.59v.71c0,.28,0,.41.03.6-.18-.02-.37-.03-.64-.03h-1.75v.49h1.91c.41,0,.65-.01.85-.04v.76c-.25-.03-.5-.04-.85-.04h-1.37c.57.56,1.42.98,2.38,1.18-.22.27-.32.41-.45.72-1.06-.34-1.91-.88-2.51-1.59.01.29.02.46.02.62v.39c0,.36,0,.54.04.71h-.85c.03-.2.04-.4.04-.71v-.39c0-.19,0-.36.02-.62-.53.68-1.23,1.15-2.38,1.6-.13-.29-.25-.46-.48-.7.5-.13.82-.25,1.16-.41.44-.22.84-.5,1.13-.81h-1.29c-.34,0-.59.01-.83.04v-.76c.22.03.43.04.83.04h1.84v-.49h-1.65c-.29,0-.44,0-.64.03.02-.2.03-.34.03-.6v-.71c0-.25,0-.4-.03-.59.19.01.32.02.64.02h.97v-.45h-1.13ZM62.01,23.14v.61h.85v-.61h-.85ZM63.54,22.51h.82v-.45h-.82v.45ZM63.54,23.75h.82v-.61h-.82v.61ZM65.05,23.75h.9v-.61h-.9v.61Z"/>
            <path class="cls-4" d="M68.75,27.71c.43-.59.59-.88.76-1.37.21-.6.31-1.22.31-1.99s-.1-1.39-.31-1.99c-.17-.49-.33-.77-.76-1.36h2.12v6.7h-2.12Z"/>
            <path class="cls-4" d="M77.93,23.57c.18.63.55,1.31,1.01,1.83.52.59,1.1.99,1.93,1.33-.24.28-.34.43-.51.81-.75-.39-1.23-.74-1.73-1.28-.46-.48-.8-1.04-1.06-1.69-.21.72-.58,1.32-1.14,1.88-.48.47-.98.8-1.67,1.1-.12-.27-.27-.48-.49-.74.5-.2.79-.35,1.13-.6.94-.67,1.41-1.45,1.58-2.64h-1.65c-.44,0-.64.01-.88.05v-.89c.22.04.47.05.88.05h1.72c.01-.35.02-.46.02-.83,0-.29-.02-.5-.05-.7h.93c-.04.25-.04.35-.05.82,0,.29,0,.45-.01.71h1.86c.4,0,.64-.01.88-.05v.89c-.28-.04-.49-.05-.88-.05h-1.81Z"/>
            <path class="cls-4" d="M82.71,25.11c-.24.24-.36.34-.69.6-.08-.29-.18-.52-.34-.76.48-.32.78-.59,1.11-.99.27-.32.43-.59.64-1.02h-.97c-.21,0-.38,0-.56.03v-.76c.17.02.31.03.53.03h.27v-.57c0-.18-.02-.38-.04-.54h.81c-.03.15-.04.35-.04.55v.57h.21c.18,0,.27,0,.34-.02l.33.43c-.05.11-.11.22-.15.32-.15.39-.37.78-.65,1.18.18.22.44.42.74.59,0-.15,0-.21-.02-.34.19.01.38.02.71.02h2.46c.34,0,.54,0,.71-.03-.02.19-.03.39-.03.72v1.76c0,.32.01.53.04.72h-.77v-.29h-2.37v.27h-.76c.03-.2.04-.41.04-.72v-1.74c0-.11,0-.18,0-.32-.14.22-.2.34-.29.62-.26-.2-.36-.29-.54-.5v1.95c0,.34,0,.56.04.74h-.8c.03-.23.04-.49.04-.76v-1.73ZM84.15,21.32c.22.02.46.04.76.04h2.56c.34,0,.54,0,.75-.04v.74c-.2-.03-.38-.03-.67-.03h-2.72c-.29,0-.47,0-.67.03v-.74ZM84.54,22.89c0-.24,0-.37-.03-.54.2.02.39.03.68.03h1.97c.27,0,.46,0,.67-.03-.02.17-.03.29-.03.53v.63c0,.25,0,.37.03.55-.2-.02-.36-.03-.68-.03h-1.96c-.28,0-.49,0-.68.03.02-.17.03-.3.03-.53v-.64ZM84.98,25.53h.84v-.5h-.84v.5ZM84.98,26.66h.84v-.55h-.84v.55ZM85.24,23.46h1.83v-.48h-1.83v.48ZM86.51,25.53h.85v-.5h-.85v.5ZM86.51,26.66h.85v-.55h-.85v.55Z"/>
            <path class="cls-4" d="M95.75,21.06l-5.31,6.58h-1.03l5.3-6.58h1.04Z"/>
            <path class="cls-4" d="M98.68,21.34c0,.34.27,1.62.46,2.19.44-.17.7-.26,1.58-.54q.37-.12.5-.18l.3.88c-.61.12-1.53.38-2.31.67-1.02.38-1.53.82-1.53,1.32s.48.73,1.6.73c.88,0,1.74-.1,2.26-.28l.08.95c-.15,0-.2.01-.57.05-.76.08-1.15.1-1.64.1-.97,0-1.58-.12-2.03-.39-.38-.23-.61-.66-.61-1.17,0-.46.22-.91.62-1.25.27-.22.5-.37.95-.6-.16-.51-.29-1.03-.47-1.9-.08-.35-.08-.36-.11-.46l.91-.14ZM101,21.34c.31.33.5.6.74,1.03l-.49.26c-.23-.43-.43-.71-.74-1.04l.49-.25ZM102.09,22.18c-.21-.38-.44-.71-.71-1.02l.47-.25c.32.32.51.59.73.99l-.48.27Z"/>
            <path class="cls-4" d="M104.94,22.67c-.11.39-.22,1.04-.32,1.72q-.01.1-.04.2h.01c.41-.38,1.28-.65,2.12-.65,1.19,0,1.97.59,1.97,1.48,0,.51-.27,1.03-.72,1.35-.46.33-1.04.48-1.85.48-.6,0-.99-.05-1.79-.25,0-.43-.02-.57-.11-.9.69.24,1.29.35,1.88.35.99,0,1.67-.41,1.67-1.01,0-.47-.44-.75-1.18-.75-.62,0-1.28.19-1.74.51-.13.09-.17.13-.32.3l-.88-.03c.02-.13.02-.15.06-.42.06-.43.17-1.21.29-2.04.03-.17.04-.25.04-.41l.88.05ZM105.03,21.3c.48.27,1.82.67,2.61.78l-.29.81c-1.2-.27-1.93-.5-2.73-.88l.41-.71Z"/>
            <path class="cls-4" d="M112.87,25.22c-.32,0-.5,0-.68.04v-.71c.16.02.27.03.54.03h.09v-.61h-.12c-.23,0-.35,0-.55.03v-.59c-.16.2-.24.29-.44.49-.03.57-.05.81-.1,1.15.23.36.5.65.83.9-.18.26-.27.4-.38.69-.29-.3-.45-.5-.62-.76-.22.71-.5,1.23-.96,1.71-.15-.25-.29-.42-.5-.6.4-.41.63-.83.8-1.46.2-.66.27-1.65.27-3.32,0-.6,0-.75-.05-1.02h.81q-.04.23-.04,1.34c0,.15,0,.24,0,.46.19-.28.28-.44.36-.62l.53.41c-.09.12-.22.29-.38.51.13.01.24.02.45.02h.12v-.22c0-.14,0-.22-.03-.33h.7c-.01.09-.02.17-.02.32v.24h1.51v-.23c0-.14,0-.21-.02-.32h.72c-.02.1-.03.19-.03.32v.23h.27c.24,0,.38,0,.58-.03v.73c-.19-.03-.34-.03-.58-.03h-.27v.61h.11c.29,0,.44,0,.64-.04v.73c-.22-.03-.42-.04-.71-.04h-.58v1.44c0,.14.04.16.41.16.18,0,.29-.04.31-.13.04-.12.06-.34.07-.74.2.13.34.19.66.28-.04.64-.11.95-.28,1.1-.13.12-.41.18-.9.18-.78,0-.97-.11-.97-.55v-1.73h-.55c-.04.43-.07.61-.17.88-.25.74-.71,1.18-1.6,1.54-.12-.29-.23-.46-.43-.64.5-.16.77-.32,1.04-.61.28-.3.42-.68.44-1.18h-.25ZM110,24.34c.1-.33.13-.48.17-.86.03-.33.05-.6.05-.81v-.18l.59.07c-.01.9-.08,1.46-.22,2.07l-.58-.29ZM114.55,22.68c0,.22,0,.29.02.41h-.71c.01-.1.02-.22.02-.41v-.24h-.81c-.25,0-.5.01-.68.03v-.73c.22.03.38.03.68.03h.81v-.17c0-.2,0-.32-.04-.47h.74c-.03.14-.04.27-.04.48v.17h1.02c.27,0,.47-.01.67-.04v.74c-.2-.02-.42-.03-.65-.03h-1.04v.23ZM114.98,24.57v-.61h-1.51v.61h1.51Z"/>
            <path class="cls-4" d="M123.86,21.06l-5.31,6.58h-1.03l5.3-6.58h1.04Z"/>
            <path class="cls-4" d="M128.4,26.86c0,.28.01.55.04.76h-.85c.03-.25.05-.5.05-.76v-1.39h-1.13c-.34,0-.57.01-.8.04v-.71c-.19.08-.29.11-.57.2-.12-.36-.19-.5-.36-.73.62-.15,1.2-.38,1.66-.64.51-.29.87-.58,1.19-.95h.77c.7.75,1.63,1.24,2.96,1.56-.18.26-.24.4-.36.75-.27-.08-.37-.12-.53-.18v.7c-.24-.03-.47-.04-.83-.04h-1.25v1.39ZM126.55,21.57c0-.15,0-.27-.04-.41h.8c-.02.13-.03.27-.03.41v.11h1.52v-.1c0-.14-.01-.29-.04-.41h.8c-.02.13-.03.27-.03.41v.1h.86c.37,0,.61-.01.82-.04v.76c-.24-.03-.46-.04-.82-.04h-.86v.27c0,.13,0,.23.03.39h-.79c.01-.12.02-.22.02-.37v-.29h-1.52v.26c0,.18,0,.26.02.38h-.79c.02-.14.03-.26.03-.37v-.27h-.8c-.36,0-.58.01-.81.04v-.76c.22.03.45.04.81.04h.8v-.11ZM127.17,25.99c-.46.64-.92,1.05-1.62,1.48-.18-.29-.34-.46-.57-.62.46-.22.73-.4,1.01-.65.23-.21.36-.36.49-.6l.69.39ZM129.73,24.8c.34,0,.5,0,.66-.03-1.01-.39-1.72-.85-2.37-1.53-.36.39-.76.71-1.25,1.01-.3.19-.57.33-1.02.52.18.02.32.03.67.03h1.21v-.32c0-.25-.02-.41-.04-.6h.83c-.03.18-.04.33-.04.6v.31h1.34ZM129.59,25.61c.18.25.32.41.64.67.25.2.46.32.93.53-.21.21-.32.35-.52.66-.75-.42-1.19-.79-1.72-1.46l.67-.4Z"/>
            <path class="cls-4" d="M133.56,23.1v2.65c0,.35.01.6.04.84h-.88c.04-.24.05-.48.05-.83v-2.82c0-.22,0-.43-.03-.61.22.03.43.03.7.03h1.6v-.41c0-.39-.01-.6-.05-.83h.9c-.04.22-.05.43-.05.83v.41h1.77c.27,0,.46,0,.66-.03-.02.2-.03.36-.03.65v2.79c0,.34-.06.52-.22.64-.15.12-.36.16-.83.16-.19,0-.46-.01-.69-.04-.04-.31-.08-.48-.2-.78.34.06.6.09.84.09s.32-.05.32-.22v-2.51h-1.62v3.61c0,.39.01.62.05.87h-.9c.04-.25.05-.48.05-.87v-3.61h-1.48Z"/>
          </g>
          <g>
            <path class="cls-5" d="M57.04,9.31h2.49v4.32h-1.18v-.43h-1.91v.55h-1.18v-3.11c-.12.07-.12.08-.33.18l-.43-.58c-.05.03-.1.05-.15.08-.26.95-.4,1.21-.5,1.36l-.91-.29c.26-.6.4-1.07.52-1.65l.88.29-.11-.13c.67-.3,1.24-.66,1.95-1.33-.39-.36-.45-.4-.92-.68-.26.31-.38.42-.47.52l-.73-.61v.13h-1.16v.6h1.43v1.08h-1.43v2.42c.65-.15,1.04-.25,1.59-.45v1.12c-.67.22-1.77.53-3.19.86-.2.04-.23.06-.27.13-.08.13-.09.14-.13.14-.09,0-.13-.1-.17-.29l-.23-1.12c.54-.05.74-.08,1.29-.17v-.57l-.86.32c-.13-.47-.29-1.07-.62-1.83l.91-.37c.29.66.45,1.13.58,1.68v-1.88h-1.15v-1.08h1.15v-.6h-.78v-.55c-.09.1-.18.17-.29.25l-.8-.84c1.03-.6,1.81-1.3,2.18-2.3l1.02.26c.07.01.19.09.19.19,0,.03-.01.04-.03.08.41.51.98.89,1.42,1.16l-.66.73v.63c1.09-1.04,1.69-2.06,2.08-3.09l1.04.18c.21.03.27.05.27.14,0,.02,0,.05-.04.09-.03.02-.16.11-.18.13-.02.01-.19.3-.28.45h2.32l.31.31c-.93,1.92-1.92,2.96-2.53,3.57ZM52.62,5.77c-.15.21-.33.47-1.01,1.12h2.22c-.51-.42-.8-.68-1.21-1.12ZM56.39,6.37c-.27.38-.34.48-.47.67.3.15.71.41,1.07.68.17-.22.59-.73.89-1.35h-1.49ZM58.34,10.35h-1.91v1.8h1.91v-1.8Z"/>
            <path class="cls-5" d="M69.62,13.73c-2.05-.59-2.83-1.17-3.42-1.64v1.68h-1.33v-1.63c-.96.74-2.08,1.23-3.22,1.63l-.94-1.01c1.22-.25,2.12-.53,2.94-1.15h-2.74v-.99h3.95v-.44h-3.06v-3.48h7.52v3.48h-3.13v.44h3.95v.99h-2.76c1.13.71,2.08.89,3.02,1.02l-.79,1.1ZM67.77,6.11v.33h-1.29v-.33h-1.92v.33h-1.24v-.33h-2.43v-1.02h2.43v-.63l1.2.05c.2.01.26.1.26.16,0,.02-.13.15-.15.17q-.06.08-.06.25h1.92v-.65l1.23.09c.11.01.23.01.23.13,0,.03-.01.08-.09.15s-.08.1-.08.13v.15h2.4v1.02h-2.4ZM64.87,7.51h-1.78v.52h1.78v-.52ZM64.87,8.8h-1.78v.54h1.78v-.54ZM68.02,7.51h-1.83v.52h1.83v-.52ZM68.02,8.8h-1.83v.54h1.83v-.54Z"/>
            <path class="cls-5" d="M79.59,11.41c-.81,1.2-1.93,1.66-2.51,1.9l-.8-1.11c.48-.14,1.28-.37,1.94-1.15.66-.78.78-1.67.78-2.14,0-.59-.17-1.31-.78-1.88-.68-.65-1.43-.69-1.83-.72-.34,2.56-.98,4.07-1.34,4.79-.32.67-.82,1.57-1.38,1.57-.39,0-2.15-.97-2.15-2.9,0-2.39,1.97-4.57,4.75-4.57,2.24,0,4.01,1.52,4.01,3.92,0,.95-.29,1.7-.69,2.29ZM73.79,7.26c-.77.73-1.08,1.73-1.08,2.39,0,.87.5,1.32.69,1.32.56,0,1.49-2.81,1.7-4.49-.31.11-.8.27-1.31.78Z"/>
            <path class="cls-5" d="M86.23,6.73l.66.13c.12.02.3.06.3.16,0,.09-.09.12-.24.19v.53h3.63v1.11h-3.63v1.09h2.95v3.86h-1.25v-.28h-3.73v.28h-1.18v-3.86h1.97v-3.21h-2.29v1.69c0,1.21-.11,1.92-.34,3.11-.18.88-.49,1.56-.75,2.14l-1.17-.44c.38-.72,1.03-1.98,1.03-4.58v-3.05h3.23v-1.13l1.41.09c.11.01.24.04.24.16,0,.07-.1.13-.15.16s-.13.08-.13.12v.6h3.94v1.12h-4.49ZM88.65,11.09h-3.73v1.34h3.73v-1.34Z"/>
            <path class="cls-5" d="M104.82,6.77s-.12.08-.12.13v6.58h-1.34v-.6h-5.9v.71h-1.31v-7.22l1.37.06c.14.01.22.07.22.16,0,.06-.09.12-.14.15-.04.03-.13.09-.13.14v4.76h2.32v-7.12l1.4.11c.11.01.23.03.23.16,0,.08-.11.12-.15.15-.05.02-.15.08-.15.13v6.57h2.26v-5.27l1.42.1c.11.01.17.03.17.12,0,.08-.09.14-.14.17Z"/>
            <path class="cls-5" d="M112.76,10.87c-.67-.46-1.46-.72-2.28-.72-.93,0-1.66.44-1.66,1.19,0,1.01,1.01,1.08,1.7,1.08.91,0,1.39-.14,1.8-.26l.27,1.21c-.67.12-1.36.18-2.04.18-1.8,0-2.92-.89-2.92-2.24,0-1.42,1.31-2.15,2.5-2.15.15,0,.62,0,1.26.21-.47-.58-.78-1.07-1.14-1.68-.84.3-1.49.52-2.8.82l-.7-1.08c1.31-.13,2.11-.36,2.99-.66-.52-1.02-.67-1.45-.79-1.81l1.12-.24s.29-.05.29.04c0,.05-.15.28-.15.33s.16.51.52,1.26c.52-.25.94-.48,1.49-.93l.59,1c-.6.39-.97.58-1.58.86.8,1.34,1.34,2,2.17,2.67l-.64.92ZM113.38,5.61c-.31-.27-.68-.55-1.01-.73l.39-.54c.41.23.72.45,1.04.72l-.42.55ZM114.51,5.04c-.3-.28-.59-.51-.95-.73l.39-.52c.38.21.74.5,1,.72l-.44.53Z"/>
            <path class="cls-5" d="M121.05,8.53c.67,1.27,1.01,1.73,1.42,2.24l-.66.82c-.52-.28-1.58-.82-2.82-.82-.71,0-1.3.3-1.3.88,0,.92,1.4.92,1.77.92,1.02,0,1.64-.16,2.15-.29l-.11,1.27c-.3.04-.85.13-1.7.13-1.94,0-3.28-.61-3.28-2.04s1.16-1.87,2.38-1.87c.54,0,1.01.08,1.54.17-.26-.46-.36-.66-.56-1.06-1.13.28-2.06.45-3.46.47l-.38-1.09c1.53-.01,2.23-.08,3.39-.32-.16-.37-.28-.64-.39-.88-1.09.22-1.69.28-2.56.29l-.33-1.03c1.03-.01,1.58-.05,2.51-.22-.25-.67-.37-1.01-.54-1.52l1.23-.14c.09-.01.36-.04.36.09,0,.05-.03.09-.09.14-.09.09-.1.12-.1.15,0,.08.18.6.32.99.73-.26,1.14-.44,1.84-.83l.24,1.04c-.61.39-1.21.57-1.7.73.14.33.18.44.36.82.79-.31,1.23-.54,1.96-.97l.19,1.08c-.59.39-1.02.58-1.69.84Z"/>
          </g>
        </g>
      </g>
    </g>
  </g>
</svg>