<svg xmlns="http://www.w3.org/2000/svg" width="1537.58" height="176.31" viewBox="0 0 1537.58 176.31"><path d="M1495.89,215.21V42.25c-14.87,5.16-21.81,14.54-45.33,15.11h-4.52c-32.55-.79-33.33-18.45-67.37-18.45s-34.82,17.66-67.37,18.45h-4.52c-32.55-.79-33.33-18.45-67.37-18.45s-34.82,17.66-67.37,18.45h-4.52c-32.55-.79-33.33-18.45-67.37-18.45s-34.82,17.66-67.37,18.45h-4.52c-32.55-.79-33.33-18.45-67.37-18.45s-34.82,17.66-67.37,18.45H889c-32.55-.79-33.33-18.45-67.37-18.45s-34.82,17.66-67.37,18.45h-4.52c-32.55-.79-33.33-18.45-67.36-18.45s-34.82,17.66-67.37,18.45h-4.52c-32.55-.79-33.33-18.45-67.37-18.45S508.3,56.57,475.75,57.36h-4.52c-32.55-.79-33.33-18.45-67.38-18.45s-34.82,17.66-67.37,18.45h-4.52c-32.55-.79-33.33-18.45-67.37-18.45s-34.82,17.66-67.37,18.45H192.7c-32.55-.79-33.33-18.45-67.37-18.45S90.51,56.57,57.96,57.36H53.44C20.89,56.57,20.1,38.91-13.94,38.91c-12.77,0-20.85,2.48-27.7,5.63V215.22H1495.94Z" transform="translate(41.64 -38.91)" fill="#00a0e9"/></svg>