<svg xmlns="http://www.w3.org/2000/svg" width="1369" height="790.076" viewBox="0 0 1369 790.076"><g transform="translate(0 15.796)"><path d="M1284.52,188,899.77,91.31,351.88,109.26,68.2,188,0,421.56,35.62,707.1l359.85,33.84,504.3,33.34,441.75-44.78L1369,529.45V323.14Z" fill="#006934"/><path d="M207.44,332.66q-28.29,10.065-50.48,11.37-22.83,1.35-39.11-6.41l-6.3-82.09,24.42-1.76q1.02,14.46,1.71,31.69,24.885-13.245,39-31.02l17.48,22.85q-17.955,10.1-49.16,11.94c-2.68.16-5.04.24-7.09.26l1.4,31.87a68.071,68.071,0,0,0,16.51.8q18.5-1.1,27.71-6.32l-.81-16.41,24.71,33.24Z" fill="#fff"/><path d="M301.78,273.36q1.47,30.4-12.85,50.3Q275.5,342.365,249.2,350.53q22.785-26.685,25.31-55.07L209.6,303l-2.25-24.4q56.43-3.645,94.41-5.25ZM284.77,255.8q-18.6,2.07-59.49,6.41l-1.19-25.59q46.845-1.95,59.37-3.02l1.31,22.19Z" fill="#fff"/><path d="M404.96,299.22l-15.13,22.52q-15.135-10.245-23.39-16.21-19.425,26.325-57.68,28.9a143.345,143.345,0,0,0,23.87-22.06q10.44-11.91,14.48-19.9-9.54-5.895-29.83-18.73l10.37-15.62,29.41,14.4q5.52-10.335,12.2-36.7l25.7,8.97q-4.725,18.36-16.76,38.75,7.7,4.545,26.75,15.69Z" fill="#fff"/><path d="M466.17,327.74q18.87-17.16,18.07-35.49a27.648,27.648,0,0,0-3.81-13.49,16.68,16.68,0,0,0-10.61-7.88q-6.495,27-34.07,52.49-7.8-4.2-12.62-13.93a37.8,37.8,0,0,1-4.31-17.3q.225-17.16,12.22-27.61,11.355-9.855,28.21-10.03,17.535-.21,28.71,9.97,10.59,9.945,11.51,25.38c.61,10.29-2.16,19.1-8.35,25.87q-8.895,9.57-24.94,12.03Zm-10.01-58.11a17.813,17.813,0,0,0-3.85-.18,19.517,19.517,0,0,0-13.42,6.21,20.222,20.222,0,0,0-5.87,13.31q-.465,8.535,3.83,13.76a102.851,102.851,0,0,0,11.66-16.19q6.225-10.65,7.64-16.91Z" fill="#fff"/><path d="M127.4,442.11q-8.52,6.15-14.73,10.23-7.455-11.505-12.29-19.61l14.76-9.59q8.67,12.885,12.25,18.96Zm32.45-8.05-15.82,10.78q-1.455-2.655-12.75-19.26l17.8-10.09q7.56,13.275,10.78,18.57Zm48.44-13.18q-2.76,27.12-16.8,46.17-18.09,24.465-50.37,27.02,21.75-16.935,31.71-39.63a81.542,81.542,0,0,0,6.84-39.94l28.62,6.38Zm-5.38-14.53a49.653,49.653,0,0,0-8.36,3.24l-4.49-13.13,12.11-2.65Zm16.81-16-.39,12.61a49.653,49.653,0,0,0-8.36,3.24l-3.2-13.2,11.95-2.64Z" fill="#fff"/><path d="M323.55,426.18q-12.51,1.215-24.98,3.25,4.185,57.21-43.58,65.51,25.2-29.73,21.85-64.55l-29.63,1.1q-2.895,8.4-11.28,15.35a46.455,46.455,0,0,1-18.4,9.48q13.755-29.535,11.94-60.09c-.21-3.54-.53-7.17-.97-10.92l25.63-.38a222.917,222.917,0,0,1-1.7,23.18l69.76-4.6,1.34,22.67Z" fill="#fff"/><path d="M442.45,440.95l.72,17.71L422.1,459.9l3.03,29.51-21.25.93q-.21-17.085-.86-28.19l-32.64,1.93q.06,12.105-10.37,21.11a38.809,38.809,0,0,1-22.02,9.69,55.937,55.937,0,0,0,10.88-18.07,37.584,37.584,0,0,0,2.67-12.1q-12.075.555-21.36,1.74l-.79-18.83q4.665-.12,23-1.36l-1.92-35.23q-8.055.15-18.84.63l-2.4-18.74,20.1-1.19-2.69-18.24,22.05-.98q.105,12.75-.03,18.56l29.89-2.09q-.78-13.185-1.46-19.28l20.43-1.04-.29,19.7q15.39-1.71,20.53-2.18l1.07,20.91-19.13,1.29,2.15,33.76,20.58-1.21Zm-43.23-29.89-29.92,1.6,1.6,29.76,29.75-1.76-1.42-29.61Zm-3.55,11.02-5.74,14.86q-6.615-2.67-15.03-5.89l5.81-13.74,14.97,4.77Z" fill="#fff"/><path d="M233.13,562.87a111.415,111.415,0,0,1,4.03,23.77q1.95,33.165-14.11,58.32-17.745,27.48-51.39,34.9,19.365-20.5,27.81-44.81a97.486,97.486,0,0,0,5.56-42.49l-77.27,10.01-2.37-33.34q74.22-3.57,107.74-6.36Zm22.47,4.93a18.1,18.1,0,0,1-7.95-1.35q-8.7-3.915-9.25-13.17a13.438,13.438,0,0,1,1.58-7.36q4.35-8.325,12.79-8.82a16.344,16.344,0,0,1,7.53,1.17q8.895,3.915,9.45,13.16a15.4,15.4,0,0,1-3.57,11.3,14.336,14.336,0,0,1-10.59,5.06Zm4.5-16.2a4.774,4.774,0,0,0-3.32-5.05q-4.56-1.95-7.51,2.66a4.985,4.985,0,0,0-.64,2.86,5.981,5.981,0,0,0,4.18,5.81,9.8,9.8,0,0,0,2.02.08Q259.855,557.66,260.1,551.6Z" fill="#fff"/><path d="M386.74,591.12q-8.8,25.125-34.48,44.7t-59.9,27.44L282.7,547.44l36.63-1.36,2.06,72.49q43.59-13.26,65.35-27.46Z" fill="#fff"/><path d="M487.25,635.01l-9.04,31.4Q428.92,655,406.69,644q3.18-14.5,7.1-26.64,39.135,13.83,73.46,17.65Zm-4.93-103.99-4.24,30.71q-28.02-6.615-35.17-8.01-10.62-2.19-37.72-6.85l5.1-26.32q46.875,4.7,72.02,10.47Zm-14.05,49.04L466.11,605q-31.05-6.435-48.78-9.63l2.92-22.36Q442.165,575.155,468.27,580.06Z" fill="#fff"/><path d="M640.18,521.5a98.009,98.009,0,0,1-16.39,35.06q-11.85,16.23-24.78,22.64,5.2-14.43,3.94-32.3-39.165,6.345-94.05,12.81l-3.25-31.07q40.65-1.59,134.52-7.13Zm-54.27,51.21a70.2,70.2,0,0,1,1.97,12.79q1.395,23.715-11.4,42.63-13.92,20.595-39.19,26.32,21.675-29.115,19.82-60.67A88.841,88.841,0,0,0,553,572.04l32.92.68Z" fill="#fff"/><path d="M763.51,612.05q-8.01,7.935-26.55,14.88a148.074,148.074,0,0,1-43.83,9.24q-34.785,2.055-62.65-12.24,12.165-22.7,23.84-54.05a472.826,472.826,0,0,0,15.6-50.14l31.75,8.21q-4.035,17.175-14.17,40.17a295.469,295.469,0,0,1-22.53,42.07,117.038,117.038,0,0,0,27.94,1.78q19.095-1.125,34.01-8.26l-15.34-17.25,17.08-14.72a359.539,359.539,0,0,1,34.85,40.3Z" fill="#fff"/><path d="M795.75,370.95a10.866,10.866,0,0,0,2.88,10.09c2.02-.81,3.88-1.55,5.58-2.24-.39-6.53-2.16-8.14-8.46-7.86Z" fill="#fff"/><path d="M1272.08,447.84l-.17-.21s-.17.11-.18.12a3.37,3.37,0,0,0,.34.09Z" fill="#fff"/><path d="M827.18,324.02c-2.53-1.59-6.15-1.32-7.63.56a4.835,4.835,0,0,0,.94,6.95c2.79,1.9,5.43,4.6,9.59,4.49C832.36,330.36,831.38,326.65,827.18,324.02Z" fill="#fff"/><path d="M1067.6,338.99c-.42-1.86-.46-3.94-1.36-5.54a5.07,5.07,0,0,0-5.86-2.27c-2.62.61-3.6,2.86-3.57,5.12.03,2.68-.09,5.68,2.99,7.3,3.37,1.77,5.45.5,7.81-4.62Z" fill="#fff"/><path d="M883.76,293.13c.33,2.29,1.98,2.85,3.97,3.33a44.6,44.6,0,0,1,5.67,2.19c3.38-4.97,3.34-5.08-4.41-10.17a8.408,8.408,0,0,0-1.9.62c-1.47,1.02-3.71,1.46-3.33,4.02Z" fill="#fff"/><path d="M1004.46,356.77c3.26-3.43,3.37-5.12,1.04-9.24-1.48-2.62-3.29-3.4-6.14-1.63-.09,4.73-1.07,9.57,5.1,10.88Z" fill="#fff"/><path d="M915.04,394.71c-2.08-1.47-3.87-.83-5.32.86.21,2.16.41,4.18.59,6.03,2.25,1.05,4.21,1.96,6.18,2.88,1.44-4.27.89-8.11-1.45-9.76Z" fill="#fff"/><path d="M876.52,249.21c-1.23-2.07-3.48-2.68-5.85-1.26-.92.54-1.95.92-3.26,1.52.27,2.29.51,4.39.88,7.51,2.61-1.1,4.25-1.53,5.6-2.42C875.75,253.35,878.04,251.8,876.52,249.21Z" fill="#fff"/><path d="M738.74,238.73c-.72-2.3-2.17-2.9-4.29-1.77-4.13,2.21-4.07,6.33.35,9.6,4.51-3.48,4.99-4.47,3.95-7.83Z" fill="#fff"/><path d="M817.55,367.01c-.48,4.24,2.22,6.24,4.65,8.16a4.33,4.33,0,0,0,3.88.49c1.91-1.07,1.12-2.92.15-4.42-1.89-2.95-4.73-4.14-8.69-4.23Z" fill="#fff"/><path d="M1106.49,425.02c.85,1.83,1.59,3.47,2.53,5.52,2.54-.26,5.01-.5,7.98-.8-.91-3.85-2.57-5.92-5.8-6.84C1108.77,422.21,1107.25,422.9,1106.49,425.02Z" fill="#fff"/><path d="M846.05,220.04c-.92.72-1.91,1.49-3.08,2.4,1.34,4.53,4.07,6.61,7.79,7.89,1.42-4.75.37-6.94-4.71-10.29Z" fill="#fff"/><path d="M1024.7,395.96c1.01-5.39-.95-7.54-8.05-8.34C1019.31,395.72,1019.55,395.96,1024.7,395.96Z" fill="#fff"/><path d="M967.25,337.94a26.312,26.312,0,0,0,4.81-.32c.71-.18,1.8-1.4,1.68-1.85-.55-1.92-1.14-4.02-2.41-5.45-.77-.88-2.8-.65-4.68-.99.23,3.24.39,5.62.6,8.62Z" fill="#fff"/><path d="M965.37,401.83c5.66-3.67,5.48-5.19-.84-9.27Q960.95,396.84,965.37,401.83Z" fill="#fff"/><path d="M1076.73,358.26c.41,2.43.79,4.78,1.19,7.22,1.75.51,3.34.97,4.9,1.43,2.29-4.43-.35-8.42-6.1-8.65Z" fill="#fff"/><path d="M1098.65,406.05c.68-.32,1.54-1.56,1.38-2.13-.74-2.57-1.81-5.06-3.07-8.38-4.46,4.83-4.45,8.16-.88,10.27a3.158,3.158,0,0,0,2.57.24Z" fill="#fff"/><path d="M752.81,409.53q3.15-3.14,3.49-8.8c-1.69.05-3.82-.53-4.85.28-2.09,1.65-1.39,5.15,1.35,8.52Z" fill="#fff"/><path d="M880.05,337.62c-1.93,3.92-1.02,7.09,2.05,9.89C887.2,344.13,886.61,341.28,880.05,337.62Z" fill="#fff"/><path d="M860.33,440.78c-1.98-.62-3.24,0-3.77,2.02-.72,2.48.23,4.94,2.29,5.43,2.23.53,3.48-.92,4.14-2.76.75-2.08-.47-4.01-2.66-4.69Z" fill="#fff"/><path d="M862.47,386.51c.64-4.16-.48-6.49-4.17-8.67C855.54,383.13,856.39,384.9,862.47,386.51Z" fill="#fff"/><path d="M883.25,418.55c-.6.51-1.04.69-1.13.99-.62,1.92-1.15,3.85-1.81,6.11,1.31.5,2.47,1.33,3.54,1.24a4.43,4.43,0,0,0,2.62-1.89c1.6-2.2.74-3.88-3.21-6.46Z" fill="#fff"/><path d="M818.8,294.94c.89.3,2.74-2.18,4.34-3.56-3.18-2.37-5.7-3.74-10.25-1.25C815.24,292.17,816.77,294.24,818.8,294.94Z" fill="#fff"/><path d="M917.5,300.48c.86-.08,2.25-1.23,2.28-1.95a8.776,8.776,0,0,0-1.08-4.79c-.63-.97-2.36-1.22-4.57-2.25a55.043,55.043,0,0,0,.91,7.42,2.97,2.97,0,0,0,2.47,1.57Z" fill="#fff"/><path d="M775.56,393.67c-2.34,2.3.95,3.73,1.06,6.77,2.1-1.19,4.53-1.81,4.72-2.86.27-1.45-.8-3.51-1.95-4.7-.5-.53-3-.03-3.83.79Z" fill="#fff"/><path d="M816.38,221.71a5.616,5.616,0,0,0-.74-.45c-.63.57-1.16,1.16-1.84,1.72,0,.04.03.07.04.1.86-.44,1.71-.9,2.54-1.37Z" fill="#fff"/><path d="M908.77,434.11c1.06,4.34,4.56,1.66,6.97,2.63-.32-5.13-1.27-6.65-3.86-6.54A3.42,3.42,0,0,0,908.77,434.11Z" fill="#fff"/><path d="M890.2,241.8c.03-4.75-3.44-7.58-7.81-6.48C884.09,238.4,885.16,242.04,890.2,241.8Z" fill="#fff"/><path d="M904.71,457.29c1.15-1.75,2.73-3.11,2.86-4.59.2-2.23-.59-4.58-3.64-4.72-2.04,4.17-2.04,4.37.79,9.31Z" fill="#fff"/><path d="M1047.16,448.65a3.556,3.556,0,0,0,3.24-.97,3.681,3.681,0,0,0,.01-3.5c-1.17-1.38-2.96-2.24-5.29-3.87.04,2.93-.18,4.28.15,5.48.3,1.08,1.01,2.54,1.88,2.85Z" fill="#fff"/><path d="M942.3,460.61a3.56,3.56,0,0,0,3.5.15,4.865,4.865,0,0,0,1.34-3.82c-.46-2.41-2.34-3.16-4.86-2.39-1.05,2.01-1.84,4.22.02,6.07Z" fill="#fff"/><path d="M846.22,404.01q.69,2.925,1.53,6.38c3.05-1.28,5.09-2.84,4.07-5.66-.85-2.35-2.97-2.48-5.6-.72Z" fill="#fff"/><path d="M809.48,437.26c.79-.77,2.19-1.66,2.88-2.94.76-1.38-.95-4.17-2.49-4.3s-3.24.31-2.89,2.35c.27,1.6-1.01,3.93,2.5,4.89Z" fill="#fff"/><path d="M992.22,434.28c-2.22-.65-3.61,1.02-3.71,3.02-.06,1.19,1.05,2.44,1.64,3.66,1.4-.86,2.79-1.73,4.92-3.05C993.8,436.21,993.21,434.56,992.22,434.28Z" fill="#fff"/><path d="M1042.98,364.91c2.74.84,3.18-1.62,4.64-3.97-2.42-.83-4.32-1.48-6.08-2.08C1039.72,362.06,1040.29,364.09,1042.98,364.91Z" fill="#fff"/><path d="M1054.79,422.38a5.125,5.125,0,0,0,2.3,3.34,3.338,3.338,0,0,0,3.23-.91c.45-.78-.12-2.39-.67-3.41-.49-.92-1.55-1.52-2.95-2.8-.88,1.64-2.05,2.81-1.91,3.79Z" fill="#fff"/><path d="M1002.44,302.8c-1.69-.14-3.22-.26-4.94-.4,0,2.66-1.6,5.9,1.95,6.17,3.18.24,3.11-2.81,2.99-5.77Z" fill="#fff"/><path d="M1081.05,435.19c-1.79,4.94-1.47,5.82,3.36,8.25C1083.74,440.28,1084.83,437.25,1081.05,435.19Z" fill="#fff"/><path d="M1018.31,345.17a4.128,4.128,0,0,0-2.4-2.48c-1.56-.59-2.98,0-3.36,2.12-.53,1.86.93,2.58,2.36,3.09s3.69-1.16,3.41-2.73Z" fill="#fff"/><path d="M776.67,283.87c-1.61-.87-3.16-.54-3.55,1.15-.28,1.27.48,2.78.99,5.25,2-1.38,3.42-1.91,4.11-2.94,1.06-1.59-.13-2.7-1.56-3.46Z" fill="#fff"/><path d="M736.02,371.91c3.31-3.14,3.63-6.07.87-10.21A10.646,10.646,0,0,0,736.02,371.91Z" fill="#fff"/><path d="M966.76,271.09c-2.86.06-2.38,3.1-2.97,5.93,2.15-.11,3.82-.19,6.25-.3C969.24,274,969.71,271.02,966.76,271.09Z" fill="#fff"/><path d="M1031.72,315.92c1.14,2.35,2.14,4.4,3.14,6.47l1.73-.18c.12-1.71.83-3.68.22-5.06-.71-1.59-2.7-2.1-5.09-1.24Z" fill="#fff"/><path d="M811.54,247.98a4.587,4.587,0,0,0-.26-1c-.28.11-.6.25-.87.36-1.5.61-2.69,1.1-3.54,1.49l-.04.02a3.723,3.723,0,0,0,1.29,2.75c1.51-.89,3.71-1.11,3.42-3.61Z" fill="#fff"/><path d="M908.2,256.8c-.64,3.16-1.08,5.37-1.65,8.18C911.97,262.14,912.27,260.9,908.2,256.8Z" fill="#fff"/><path d="M958.47,301.13c-.9,3.7.12,5.89,3.36,6.98Q963.26,304.59,958.47,301.13Z" fill="#fff"/><path d="M855.51,331.81c-.53,3.01-2.84,5.14-.54,7.76C859.7,336.74,859.77,336.33,855.51,331.81Z" fill="#fff"/><path d="M1009.48,440.79c-.51,1.07-.3,2.48-.46,4.48,2-.8,3.5-.99,4.26-1.83a4.8,4.8,0,0,0,.76-3.41c-.07-.61-1.51-1.67-1.9-1.5a5.366,5.366,0,0,0-2.66,2.27Z" fill="#fff"/><path d="M941.89,436.81c.67-2.32,1.26-4.32,2.13-7.33-2.4.91-4.36.55-4.82,3.15C938.79,434.89,939.92,435.73,941.89,436.81Z" fill="#fff"/><path d="M804.35,403.85c-2.1,2.91-1.85,5.19.22,7.43C808.34,408,808.35,407.56,804.35,403.85Z" fill="#fff"/><path d="M939.08,259.47q-1.26,4.59-.65,7.2C942.45,264.21,942.77,262.2,939.08,259.47Z" fill="#fff"/><path d="M1042.05,404.9c-4.4,2.88-4.35,3.27.72,8.38C1042.51,410.21,1042.32,407.93,1042.05,404.9Z" fill="#fff"/><path d="M884.21,385.21c-2.22,5.5-1.83,5.92,5.02,5.26C887.35,388.5,885.9,386.99,884.21,385.21Z" fill="#fff"/><path d="M909.23,346.02c-2.92,5.62-2.81,5.99,1.6,6.96C910.35,350.91,909.93,349.07,909.23,346.02Z" fill="#fff"/><path d="M733.89,396.06c-.17-.76-1.21-1.32-2.52-2.64-.3,2.86-.5,4.72-.78,7.4,3.34-1.13,3.71-2.89,3.3-4.76Z" fill="#fff"/><path d="M940.28,310.07c2.29-.88,4.13-1.58,6.44-2.48C942.27,304.54,942.15,304.59,940.28,310.07Z" fill="#fff"/><path d="M827.25,300.14c-2.51,3.67-.58,5.28,1.37,6.87.45-.19.9-.39,1.34-.58-.83-1.91-1.65-3.81-2.72-6.29Z" fill="#fff"/><path d="M980.42,455.73c-1.03,2.09-1.89,3.85-2.75,5.6Q982.11,459.73,980.42,455.73Z" fill="#fff"/><path d="M776.17,427.7c.17-2.14.28-3.61.4-5.07-.45-.03-.9-.06-1.34-.08-.24,1.49-1.45,3.02.95,5.15Z" fill="#fff"/><path d="M1298.97,430.1c-7.13,5.25-15.22,6.74-20.3,13.3,1.22,3,3.79,3.53,7.57,2.74-3.07,4.7.13,7.24,2.08,9.99,1.22,1.7,1.37,3.04.13,4.55-3.57,4.36-7.19,8.67-10.78,13.02a7.143,7.143,0,0,0-1.53,2.32c-1.54,5.44-2.98,10.92-2.1,16.68.98,6.45.11,12.34-5.23,16.82a24.092,24.092,0,0,0-8.42,15.09c-1.63,11.82-7.85,20.41-16.24,28.12-2.73,2.5-4.98,5.6-5.45,9.57a13.487,13.487,0,0,0,14.93-8.28c2.05-5.29,5.61-9.36,9.3-13.37,6.28-6.8,13.13-13.12,17.03-21.77,1.4-3.1,2.44-6.43,4.26-9.25,6.35-9.77,10.42-20.11,9.22-32.03a7.471,7.471,0,0,1,.2-2.25c1.21-6.12-1-12.52,1.49-18.56.25-.61-.2-1.49-.16-2.24a18.533,18.533,0,0,1,.53-4.81,69.864,69.864,0,0,0,3.47-19.65Z" fill="#fff"/><path d="M1104.99,411.62c-10.31-5.03-20.51-10.3-30.95-15.03-9.29-4.22-18.87-7.77-28.26-11.77-4.52-1.92-8.82-4.36-13.36-6.24-9.26-3.85-18.86-6.97-27.89-11.3a412.631,412.631,0,0,0-45.18-18.38c-15.9-5.44-32.16-10.01-47.25-17.51-8.43-4.19-16.85-8.85-24.19-14.67a154.349,154.349,0,0,1-21.66-21.49c-6.96-8.23-15.2-14.63-23.94-20.69-11.39-7.89-23.69-7.8-36.23-4.23-7.06,2.01-13.77,5.23-21.44,3.91-1.21-.21-2.57.39-3.95.63,1.2,3.74,4.3,4.74,7.24,4.61a185.537,185.537,0,0,0,19.08-1.99c8.99-1.36,17.62-.3,24.75,5.33,6.49,5.13,12.23,11.24,18.02,17.2a248.887,248.887,0,0,0,29.16,25.71c9.28,6.96,19.69,11.87,30.03,17.01,14.07,7,29.04,11.47,43.82,16.42.41,1.74,1.97,2.36,6.84,4.27.08-.65.15-1.26.22-1.85,1.3.46,2.61.93,3.91,1.4,7.37,2.71,14.96,4.79,22.53,6.95a3.653,3.653,0,0,0,2.27,1.76,2.858,2.858,0,0,0,2.23-.45c2.92.86,5.82,1.75,8.69,2.71,15.78,5.3,31.4,11.06,47.04,16.74,11.03,4.01,21.98,8.19,32.94,12.36,8.37,3.18,16.71,6.46,25.06,9.69q.24-.54.45-1.08Z" fill="#fff"/><path d="M808.32,310.06c-27.52,1.14-50.3.17-60.68-2.7.53-11.78,1.06-23.72,1.63-36.68-4.17,3.59-7.45,6.15-7.2,11.26a115.819,115.819,0,0,1-.38,12.21c-.41,6.95-.88,13.93-1.18,20.83-.44,10.04-4.33,18.73-8.36,27.27-2.64,5.59-7.69,10.09-11.89,14.89-3.8,4.35-7.91,8.44-12.32,13.1,1.48.19,2.61.67,3.5.39,4.33-1.35,8.45-3,11.59-6.66,4.3-5,9.3-9.43,13.35-14.61,5.09-6.51,7.49-14.28,8.71-22.45.48-3.26.19-6.82,2.98-10,10.47,5.97,21.94,4.6,33.13,3.92-.82,2.36-1.74,4.16-2.04,6.06a49.381,49.381,0,0,0-.13,6.9c-2.98.09-6.03.18-9.04.26-.18,2.75.86,3.96,3.21,4.07,3.31.16,6.6.35,10.74.57-1.13,2.54-2.13,4.82-3.59,8.1-7.29-2.12-13.91-4.05-20.53-5.97-.21.45-.43.89-.64,1.34,2.23,4.24,7.68,4.41,11.1,7.92a17.746,17.746,0,0,0-2.83.36c-6.66,2.08-13.14,2.92-19.02-2.11-.37-.31-1.07-.22-1.53-.3-4.05,1.94-2.98,5.56-3.36,8.41,4.52,4.04,9.67,6.66,15.05,5.29,6.61-1.68,13.45-3.48,18.93-8.18,2.12-1.82,5.05-2.87,6.76-4.97,5.15-6.32,8.17-13.91,11.37-21.29a19.154,19.154,0,0,1,5.48-7.62c3.06-2.54,6.11-5.29,7.18-9.62Z" fill="#fff"/><path d="M704.3,346.19c11.77-5.05,19.76-13.7,21.85-26.76.5-3.11-.29-6.42-.1-9.61.72-12.24,1.61-24.46,2.39-36.7.09-1.45-.05-2.91-.09-4.29-4.35-.96-6.18,1.6-6.85,4.61a144.7,144.7,0,0,0-2.88,17.78c-.66,7.12-.63,14.31-1.05,21.46a43.292,43.292,0,0,1-1.2,7.2,8.349,8.349,0,0,1-3.68,5.39c-3.9,2.61-7.92,5.37-10.93,8.89-5.16,6.03-10.77,10.88-18.55,13.19-1.72.51-5.04,1.19-4.4,5.18,1.96,0,3.9.39,5.59-.09,6.69-1.89,13.54-3.52,19.9-6.25Z" fill="#fff"/><path d="M1112.92,379.85h0C1113.33,380.14,1113.03,380.03,1112.92,379.85Z" fill="#fff"/><path d="M820.93,182.2a17.872,17.872,0,0,1,4.89,6.16,22.3,22.3,0,0,1,2.28,9.32c0,.3.01.61,0,.92a26.166,26.166,0,0,1,3.62,1.05,19.313,19.313,0,0,1,5.5,3.07,17.146,17.146,0,0,1,4.64,5.82,19.466,19.466,0,0,1,1.78,6.49c11.58,2.23,23.18,4.44,34.59,7.38,8.55,2.2,16.65,6.1,25.02,9.05,11.76,4.13,23.3,8.76,34.64,13.99,17.61,8.13,33.48,19.1,49.9,29.19,6.43,3.94,13.05,7.55,19.61,11.27,8.2,4.65,16.56,9.04,24.61,13.94,8.37,5.09,16.38,10.78,24.7,15.96,9.65,6.01,17.89,13.58,23.81,23.17,5.27,8.53,12.28,15.38,19.44,22,5.86,5.42,11.5,10.55,12.91,18.83,0,.03.03.03.04.05l5.69-2.86c.44-.18.89-.36,1.33-.54a14.149,14.149,0,0,1-2.73-2.8,7.756,7.756,0,0,1-1.13-4.13c.39-4.32,1.07-8.63,1.79-12.92a15.6,15.6,0,0,1,1.53-3.41c5.35,5.38,7.13,10.89,4.53,17.89-1.28,3.45-1.31,7.44-1.4,11.2-.07,2.86-.24,5.96,1.67,8.53,3.93-2.01,3.75-2.05,4.54-5.25.86-3.54.42-7.48,2.92-10.97,4.86,2.95,5.17,10.13,12.14,11.59-1.04-2.63-1.78-4.7-2.66-6.7-3.85-8.64-7.64-17.29-7.71-27.02,0-.91-.08-2.21-.65-2.65-2.93-2.24-2.79-5.68-3.69-8.68-3.46-11.59-6.48-23.33-10.3-34.8-5.43-16.25-15.26-29.87-26.84-42.29a129.184,129.184,0,0,0-9.3-9.13c-6.82-5.99-13.5-12.18-20.77-17.59-10.92-8.12-22.24-15.72-33.49-23.39a192.744,192.744,0,0,0-16.73-10.64,262.057,262.057,0,0,0-33.19-14.65c-11.92-4.46-23.8-8.76-36.42-10.69-7.29-1.12-14.61-2.05-21.91-3.12-5.42-.8-10.8-2.24-16.23-2.45-12.29-.48-24.61-.73-36.9-.39a274.827,274.827,0,0,0-29.36,2.5c-7.77,1.05-15.45,2.76-23.17,4.19v.04l.6.21a20.238,20.238,0,0,1,5.87,3.28Zm290.03,155.22c2.3,3.62,4.68,7.18,6.83,10.88a3.626,3.626,0,0,1,.1,3.13c-2.74,4.47-3.36,9.53-4.37,14.49a11.435,11.435,0,0,1-.95,2.13c-4.13-1.72-4.75-5.83-6.87-8.76-2.49-3.44-1.56-6.64-.02-10.08.83-1.86.99-4.01,1.6-5.98.6-1.91,1.41-3.75,2.12-5.62.52-.07,1.05-.13,1.57-.2Zm-8.32-14.48c4.72,5.17,5.11,10.77,2.14,17.02-1.49,3.14-2.25,6.63-3.55,10.61-4.43-2.83-6.22-6.49-7.82-10.24a3.711,3.711,0,0,1,.29-2.71c2.44-5.08,5-10.11,7.6-15.33a10.027,10.027,0,0,1,1.35.65Zm-3.4-8.16c.42.69-.05,2.23-.54,3.14-2.72,5.12-5.57,10.17-9.05,16.46-2.38-3.78-4.75-6.59-5.94-9.84-.64-1.73.23-4.51,1.31-6.29,2.42-4.01,5.39-7.68,8.23-11.64,3.35,1.89,4.28,5.35,6,8.16Zm-12.88-9.55c-2.37,3.32-4.45,6.86-7.16,11.08-1.76-2.3-3.31-3.9-4.27-5.78a4.127,4.127,0,0,1,.26-3.61c3.32-4.52,6.9-8.86,10.74-13.7C1090.39,299.74,1090.32,299.68,1086.36,305.23Zm-7.78-20.73c1.47,1.36,3.04,2.8,5.11,4.71-4.4,5.32-8.55,10.32-13.1,15.83-1.42-1.17-2.36-1.8-3.12-2.59-1.04-1.06-1.96-2.25-2.87-3.32,2.26-4.68,5.77-8.37,13.99-14.64Zm-4.06-5.7c-4.92,5.22-9.64,10.23-14.79,15.68-1.56-1.45-3.12-2.91-5.27-4.9,3.13-2.56,5.83-4.74,8.51-6.96,2.73-2.26,5.43-4.55,8.69-7.28,1.31,1.58,2.09,2.53,2.86,3.47Zm-8.96-8.72c-5.41,4.94-10.49,9.58-15.9,14.53-3.22-3.35-6.15-6.42-9.48-9.9,5.3-4.39,10.29-8.54,15.83-13.15,3.25,2.9,6.26,5.59,9.55,8.53Zm-18.71-15.58c1.36,1.25,2.87,2.34,4.84,3.93-4.91,4.8-10.37,8.28-15.92,12.47-4.24-2.67-8.01-5.05-12.48-7.86a30.921,30.921,0,0,1,3.87-2.96c4.18-2.16,8.55-3.98,12.61-6.33,2.77-1.61,4.87-1.3,7.08.75Zm-13.17-9.64c1.06,1.02,2.24,1.91,3.78,3.2-1.3,1.01-2.21,1.84-3.23,2.49-3.81,2.45-7.76,4.68-11.46,7.28-2.6,1.83-4.97,2.41-7.74.52-2.16-1.46-4.44-2.74-6.66-4.1v-1.5c2.55-1.1,5.12-2.13,7.63-3.31a88.3,88.3,0,0,0,10.11-5.06c2.87-1.81,5.16-1.85,7.57.47Zm-11.54-7.51c.09.42.18.83.26,1.25-1.44.71-2.9,1.38-4.31,2.16-4.14,2.27-8.29,4.52-12.37,6.88-3.68,2.13-4.39,2.04-7.7-2.04,7.49-2.99,14.8-5.93,22.15-8.77.52-.2,1.31.33,1.98.53Zm-7.79-6.62a31.675,31.675,0,0,1-3.64,2.36c-5.05,2.11-10.45,3.62-15.13,6.36-4.67,2.72-7.73,1.41-11.45-2.59a110.007,110.007,0,0,1,23.46-7.97c1.66-.38,3.68.94,6.77,1.84Zm-14.82-9.26c-8.35,3.28-15.84,6.34-23.43,9.1a6.918,6.918,0,0,1-4.84-.44c-2.83-1.37-5.42-3.25-8.77-5.33a35.617,35.617,0,0,1,4.33-2.23c5.74-1.88,11.61-3.4,17.26-5.51,6.04-2.26,10.57-.09,15.44,4.41Zm-15.57-7.94c-2.2.69-3.92,1.27-5.66,1.77-6.35,1.85-12.74,3.57-19.04,5.57-2.7.86-4.78.32-7.44-2.11a27.674,27.674,0,0,1,3.88-1.96c6.5-2.03,13.04-3.93,19.55-5.96,3.22-1.01,5.84-.25,8.72,2.7Zm-31.71-11.21c5.31-.81,9.99.68,15.69,3.49-5.08,1.84-9.56,2.94-13.54,5.01-8.77,4.55-17.2,3.92-25.7-.43-1.91-.98-3.92-1.75-5.88-2.62.03-.43.07-.87.1-1.3,1.94-.33,3.87-.74,5.82-1.01,7.84-1.06,15.71-1.95,23.52-3.14Zm-31.51-9.12a22.431,22.431,0,0,1,7.81.4c4.23.75,8.41,1.86,12.61,2.82.03.51.05,1.02.08,1.53-1.55.37-3.08.83-4.64,1.08-7.82,1.27-15.67,2.33-23.46,3.78-5.23.98-9.44-1.57-15.1-3.16,1.75-.99,2.54-1.68,3.45-1.91,6.4-1.6,12.78-3.3,19.25-4.53Zm-75.81-8.22c12.25.36,24.51.58,36.74,1.19,5.05.25,10.06,1.31,15.07,2.1a4.818,4.818,0,0,1,1.75.96h.06l-.02-.19.17.33c-.07-.04-.14-.09-.21-.14-7.92,1.46-15.85,2.93-23.81,4.28a8.857,8.857,0,0,1-3.35-.4c-10.62-2.49-21.24-5.01-31.94-8.18,1.85.02,3.69,0,5.53.05Z" fill="#fff"/><path d="M1177.64,493.86c5.71,3.35,11.57,6.48,17.06,10.16,7.2,4.81,14.7,9.11,21.23,15.03,6.92,6.27,15.31,10.68,23.94,14.49-18.94-17.97-41.99-31.07-59.59-50.64a5.982,5.982,0,0,1,3.28.45c13.92,6.41,27.8,12.92,41.75,19.27,6.53,2.97,13.16,5.74,19.82,8.41,2.61,1.04,5.35.9,8.84-1.13-12.39-6.86-24.26-13.05-35.77-19.87-11.63-6.9-22.9-14.43-34.33-21.69,5.82,1.33,11.22,3.53,16.73,5.41,15.05,5.16,30.16,10.16,45.22,15.27,3.58,1.21,7.08,2.65,10.65,3.89,1.5.53,3.03.64,3.7-1.63a47.018,47.018,0,0,0-4.34-2.44c-11.26-4.96-22.57-9.8-33.82-14.8q-15.3-6.795-30.49-13.84a27.393,27.393,0,0,1-4.12-2.93,3.339,3.339,0,0,1,2.72-.38c8.59,2.27,17.17,4.59,25.76,6.84,9.71,2.54,19.37,5.28,29.17,7.46,5.86,1.31,11.91,1.74,17.9,2.48a9.792,9.792,0,0,0,2.72-.58c-.51-.61-.68-.99-.93-1.07q-18.135-5.73-36.28-11.42c-4.52-1.42-9.06-2.77-13.55-4.28-.98-.33-1.78-1.21-3.56-2.47,18.33,2.04,35.38,3.93,52.42,5.82a160.512,160.512,0,0,0-17.52-4.65c-5.64-1.3-11.68-1.22-16.78-4.77a16.059,16.059,0,0,1,6.66-.51c10.01,1.78,20,.84,29.98-.17,1.91-.19,3.74-1.22,5.61-1.85l.17-.11c-3.02.04-6.05.14-9.08.08a85.719,85.719,0,0,1-9.07-.53c-2.74-.35-5.77.19-9.05-1.85,2.64-1.13,4.36-1.87,6.09-2.6,10.82-4.55,21.64-9.06,32.44-13.66a35.327,35.327,0,0,0,4.42-2.67,3.668,3.668,0,0,0-3.08-.91c-10.3,1.46-20.57,3.16-30.91,4.33a102.562,102.562,0,0,1-15.78.26c-8.87-.36-17.75-.79-26.58-1.66-7.11-.69-14.5-1.09-21.14-3.39-8.53-2.95-16.88-5.68-25.94-4.65-5.13.58-9.14-2-12.64-4.67-4.46-3.4-8.13-7.89-11.86-12.16a8.7,8.7,0,0,1-1.6-5.08,92.447,92.447,0,0,1,.42-9.27c-5.7,5.34-6.99,10.68-4.06,16.53,2.76,5.52,5.73,10.93,8.73,16.61-1.66,2.06-3.9,4.05-2.13,7.31.32.6-.83,1.98-1.26,3.01-.64,1.56-1.95,3.23-1.75,4.68.61,4.56-2.11,6.89-5.13,9.28-1.16.93-2.05,2.19-3.17,3.19-5.44,4.92-10.61,9.78-19.18,8.46a64.2,64.2,0,0,0-23.69,1.13c-5.72,1.27-11.51,2.29-17.31,3.05-14.46,1.87-29.06,3.46-42.82,8.31-16.78,5.91-34.18,8.49-51.56,11.12-8.7,1.33-17.72.7-26.6.62-12.1-.11-24.2-.57-36.3-.8-3.39-.07-6.8.24-10.19.15a46.952,46.952,0,0,1-8.38-.83c-5.92-1.26-11.8-2.75-17.67-4.26-6.77-1.74-13.52-3.51-20.25-5.42-2.72-.78-5.32-1.95-7.97-2.98-16.92-6.57-33.99-12.8-50.7-19.86-11.99-5.07-23.56-11.14-35.22-16.97-9.29-4.64-18.53-9.39-27.58-14.48-4.42-2.48-8.07-6.35-12.53-8.73a79.377,79.377,0,0,1-21.19-15.87c-5.41-5.81-10.72-11.71-16.08-17.56a41.337,41.337,0,0,0-10.93-8.9c-2.21-1.18-4-3.34-5.68-5.32-4.9-5.76-9.4-11.85-14.52-17.4-4.25-4.6-8.52-9.01-11.5-14.65a197.459,197.459,0,0,0-10.26-16.96c-4.91-7.38-10.48-14.35-15.06-21.91-2.61-4.32-5.35-8.93-5.87-14.63,4.3.59,6.73,5.96,11.76,3.45-3.04-3.17-6.04-5.99-8.67-9.1-2.52-3-7.41-3.67-8.71-9.27,6.96,4.45,13.18,8.26,19.21,12.35a36.213,36.213,0,0,1,14.55,18.84c1.37,4.11,2.66,8.24,3.79,12.42.81,2.98,1.3,6.05,2.07,9.72a12.126,12.126,0,0,0,4.91-9.72c.24-5.84-1.42-11.15-3.99-16.34-1.66-3.34-2.64-7.01-4.03-10.5a59.625,59.625,0,0,0-3-6.74c-3.07-5.64-6.17-11.27-9.48-16.77-3.97-6.58-6.64-13.99-12.32-19.5a8.753,8.753,0,0,1-1.12-2.15c5.07-1.02,8.94-.33,11.3,4.36,1.02,2.03,2.16,3.98,3.22,5.99a33.579,33.579,0,0,0,12.9,13.17c-2.4-6.98-4.8-13.97-6.97-20.3,6.97-3.46,13.52-6.78,20.14-9.94,3.83-1.83,7.63-3.93,12.15-4.19,1.67,5.2,4.1,9.38,8.61,12.48,4.59,3.15,9.32,3.86,13.84,1.33a11.579,11.579,0,0,0,6.18-11.84c-.6-4.48-2.11-8.83-3.33-13.71,5.99-.42,12.09-.76,18.17-1.29l5.55-8.09a6.9,6.9,0,0,1,.45-2.2,39.745,39.745,0,0,1-6.21.94c-5.57.34-11.11,2.05-16.54,3.61-4.31,1.23-8.2,3.92-13.06,3.04-.94-.17-2.1.64-3.11,1.1-3.41,1.55-6.64,3.77-10.21,4.61a82.854,82.854,0,0,0-22.13,8.58c-3.74,2.12-7.65,3.19-11.95,1.85-10.98-3.43-19.53,1.27-27.19,8.39-1.2,1.1-1.7,3.17-2.05,4.9a24.332,24.332,0,0,0-.19,4.79c3.14,3.25,5.76,6,8.4,8.74-1.13.47-1.71.41-2.17.16-9.51-5.11-16.23-4.15-25.91,5.23-2.74,2.66-1.89,9.8,1.38,10.81,7.49,2.3,11.85,7.37,14.49,14.48.88,2.39,2.74,4.41,3.76,6.77,2,4.63,3.7,9.38,5.54,14.08a72.387,72.387,0,0,0,2.71,6.83c2.38,4.63,5.19,9.05,7.44,13.74a112.486,112.486,0,0,0,18.99,27.97c3.96,4.29,8.25,8.28,12.4,12.4,2.79,2.78,5.8,5.44,4.73,9.7,1.35.65,2.26,1.09,3.94,1.91-4.49,2.72-5.04,6.28-4.97,10.57a17.6,17.6,0,0,1-2.69,9.08,65.727,65.727,0,0,0-8.15,20.3c-1.28,5.39-.2,8.94,2.94,12.79,2.93,3.6,4.37,4.24,8.63,2.32,2.7-1.22,5.22-2.83,8.09-4.42,2.74,3.35,5.28,6.45,7.86,9.59,3.73-3.92,7.17-4.74,13-3.91A4.327,4.327,0,0,0,688.9,427c1.32-1.57,2.1-3.61,3.36-5.26a6.369,6.369,0,0,0,1.02-6.8c-.9-2.43-.86-5.2-1.31-7.82s-1.02-5.21-1.57-8.06c6.32,4.66,12.02,8.96,17.83,13.11,2.94,2.1,5.07,4.37,4.56,8.41a6.85,6.85,0,0,0,1.19,4.22,78.919,78.919,0,0,0,5.56,7.1q6.015,7.155,12.15,14.2c2.46,2.82,5,5.58,7.54,8.33a43.8,43.8,0,0,1,3.15,3.25c7.84,10.54,18.2,18.01,29.29,24.69,2.58,1.55,5.46,3.08,7.23,5.37,2.58,3.32,5.97,5.13,9.42,7.07,2.47,1.39,4.89,2.89,7.38,4.25,9.62,5.23,19.15,10.64,28.93,15.55,6.06,3.05,12.57,5.2,18.78,7.98,11.74,5.24,23.45,10.53,36.26,12.73,8.93,1.54,17.79,4.18,26.76,4.6,19.01.87,38.02,3.95,57.11.82,8.01-1.32,16.12-2.1,24.08-3.67,10.69-2.1,20.46-6.8,30.02-11.82,13.06-6.87,25.93-14.09,38.97-21,6.48-3.44,13.16-6.53,19.75-9.77-.04-.24-.08-.48-.12-.73-7.49,1.57-14.98,3.14-23.39,4.9,4.05-3.31,7.32-6.14,10.78-8.73a8.815,8.815,0,0,1,3.72-1.07c5.2-.9,10.4-1.83,15.63-2.58,4.48-.64,9.1-1.9,13.48-1.38,9.91,1.16,19.73,3.08,29.53,5.04a25.639,25.639,0,0,1,8.68,3.59c6,3.86,11.86,7.96,17.52,12.3,8.35,6.4,16.71,12.83,24.63,19.76,3.78,3.3,6.57,7.75,9.77,11.71a120.84,120.84,0,0,0,20.06,19.93c5.67,4.37,11.2,8.91,16.89,13.27a28.883,28.883,0,0,0,5.82,3.49,6.313,6.313,0,0,0,7.75-1.57c-18.55-28.49-40.99-53.68-62.7-79.53a7.11,7.11,0,0,1,3.25.99ZM675.99,220.58c1.11-3.65,3.99-5.9,6.37-5,2.09.8,3.58,4.9,2.67,7.41-.93,2.61-4.86,4.38-7.59,3.42-2-.71-2.46-2.53-1.45-5.83Zm1.61,199.84c-2.7-2.79-5.65-4.41-9.7-3.25-1.32.38-2.82.2-5.07.31,3.51-8.82,1.97-17.01.91-25.25-.7-5.41-.7-10.86,1.69-16.78,2.64,2.57,5.05,4.63,7.09,7.03,1.04,1.22,2.31,3.29,1.94,4.5-1.16,3.76,1,6.53,1.96,9.67,1.37,4.52,2.63,9.07,4.06,13.56.56,1.78,1.49,3.43,2.22,5.16.71,1.7,1.37,3.44,2.02,5.08C680.48,423.28,680.42,423.32,677.6,420.42Zm114.11,58.93c-4.55-2.11-9.24-3.99-13.64-6.38-8.66-4.69-17.06-9.83-24.04-16.92a29.727,29.727,0,0,1-5.06-6.71c-1.84-3.45-3.16-7.18-5.17-11.85,2.83,1.64,4.92,2.74,6.88,4.04,3.46,2.29,6.61,5.21,10.31,6.97,8.25,3.93,14.59,9.87,20.23,16.87,3.53,4.38,7.5,8.4,11.28,12.58-.26.47-.53.94-.79,1.41Zm-7.87-17.29c7.09,3.2,13.94,6.5,19.07,12.71,3.84,4.64,8.58,8.53,12.87,12.81a16.419,16.419,0,0,1,3.18,4.37C802.26,487.8,792,476.18,783.84,462.06Zm65.83,43.99c-5.56-1.69-10.83-3.59-15.11-8.1-5.31-5.59-11.28-10.56-16.94-15.83a10.782,10.782,0,0,1-2.94-4.12c6.35,2.1,12.78,3.98,18.99,6.41,1.93.76,3.47,2.86,4.86,4.61,4.13,5.28,8.1,10.7,12.13,16.06-.33.32-.66.65-.98.97Zm12.56,1c-2.6-4.55-5.95-8.67-8.94-13a24.372,24.372,0,0,1-1.29-2.52c2.52-1.09,3.94.49,5.33,1.43,3.25,2.19,14.48,16.55,15.93,20.13-4.89.04-8.48-1.59-11.04-6.04Zm18.36,3.8c-1.9-3.84-4.95-7.11-7.45-10.66-1.17-1.66-2.26-3.39-3.66-5.51,6.16-.32,10.79.91,14.18,5.97,3.26,4.85,7.08,9.31,10.7,13.91.57.73,1.44,1.22,1.61,2.24-6.53.48-12.12.63-15.38-5.95Zm31.93,8.42c-6.24,1.26-10.69-.83-14.13-6.03-2.81-4.24-6.24-8.07-9.35-12.11-.66-.86-1.14-1.86-2.03-3.34,5.86-.65,10.84,1.21,15.93,1.82a2.649,2.649,0,0,1,1.66,1.36c2.78,5.76,5.49,11.56,8.19,17.35.06.12-.09.34-.27.96Zm9.4-3.43c-1.1-2.19-2.46-4.24-3.59-6.42-2.25-4.39-5.52-7.55-11.85-9.05,2.27-.63,3.17-1.16,4.03-1.09,4.13.35,8.27.74,12.36,1.39a4.386,4.386,0,0,1,3.04,2.05c2.13,5.61,3.96,11.32,6.06,17.48C924.68,520.95,924.44,520.79,921.92,515.84Zm24.65,4.07c-2.55.18-4.69.34-6.92.5-2.09-6.13-4.02-11.8-6.21-18.25,4.43-.01,7.97-.03,11.97-.04,1.71,5.82,1.03,11.56,1.16,17.79Zm14.65-1.12c-3.45.29-6.38.54-10.09.86-.3-5.73-.57-11.04-.86-16.79,4.16-.58,8.04-1.12,13.25-1.85-.81,6.29-1.52,11.81-2.29,17.78Zm14.6-2.62a4.433,4.433,0,0,1-3,2.03,31.337,31.337,0,0,1-5.67.05c.11-6.08.21-11.64.32-17.65,3.45-1.5,7.35-3.23,12.44-2.57C979.11,504.38,978.12,510.43,975.82,516.17Zm6.33,1.09c1.35-7.04,2.55-13.28,3.93-20.48,3.74-.81,7.99-1.73,13.42-2.9-3.19,7.66-5.66,14.31-8.75,20.67-1.52,3.13-5.15,2.17-8.59,2.71Zm32.18-11.89c-2.89,8.42-10.1,8.04-17.41,9.54,2.63-7.27,4.96-13.72,7.58-20.96,4.6.07,9.79.16,15.61.26a29.517,29.517,0,0,1-1.49,3.9c-1.39,2.45-3.4,4.66-4.29,7.26Zm3.1,4.94a20.075,20.075,0,0,1,1.08-3.58c1.27-2.3,2.68-4.53,4.06-6.78,4.27-7.01,6.11-7.72,15.72-5.36-6.31,6.45-10.63,14.1-20.86,15.71Zm22.79-7.5c5.4-4.46,7.54-12.51,15.84-13.91C1053.47,493.78,1044.08,502.4,1040.22,502.81Z" fill="#fff"/><path d="M686.89,289.66c2.41-1.92,5.23-4.33,6-7.08,1.57-5.53.98-11.29-3.2-15.89a27.509,27.509,0,0,0-14.81-8.8c-6.92-1.49-12.26,2.39-13.29,9.4-1.05,7.17,2.19,12.76,6.42,17.89,1.66,2.02,4.17,3.33,5.51,4.35,3.53.34,5.75.7,7.99.73,1.82.04,4.18.35,5.39-.61Zm-17.31-13.95c-1.51-2.1-2.54-4.31-1.35-7.27,1.66-4.37,3.9-5.27,8.34-3.36,4.61,1.98,6.63,4.78,5.92,8.36a7.878,7.878,0,0,1-1.05,2.69c-2.09-.77-4.66-.77-6.78-1.27a8.378,8.378,0,0,0-5.08.85Z" fill="#fff"/><path d="M723.66,200.85h0L712.91,216.5a1.143,1.143,0,0,0-1.3,1.88s20.14.52,42.25,15.5,29.92,34.06,29.92,34.06a1.144,1.144,0,0,0,1.29-1.89l10.75-15.65a1.14,1.14,0,0,0,1.29-1.88l1.15-1.67a24.451,24.451,0,0,1,4.96-2.65c.41-.18.83-.37,1.28-.57.89-.41,2.16-.93,3.62-1.52a132.442,132.442,0,0,0,15.72-7.33c7.18-4.13,11.55-8.38,13.36-13.02a13.135,13.135,0,0,0-.47-10.71h0a11.493,11.493,0,0,0-3.1-3.91,13.748,13.748,0,0,0-3.89-2.16,36.512,36.512,0,0,0-7.63-1.63c-.16-.02-.32-.05-.49-.07a17.676,17.676,0,0,0,.78-5.48,16.624,16.624,0,0,0-1.7-6.95h0a12.241,12.241,0,0,0-3.35-4.23,15.022,15.022,0,0,0-4.26-2.36,41.942,41.942,0,0,0-8.55-1.82c-.8-.11-1.61-.23-2.41-.35,3.17-1.85,5.85-3.77,7.06-5.54h0l.08-11.62-3.68-2.53-3.68-2.52-3.68-2.53-10.43,4.51h0c-1.21,1.77-2.05,4.96-2.63,8.58-.41-.7-.8-1.41-1.19-2.12a41.265,41.265,0,0,0-4.76-7.32,14.977,14.977,0,0,0-3.73-3.13,12.1,12.1,0,0,0-5.14-1.61h-.01a16.641,16.641,0,0,0-7.1.91,17.593,17.593,0,0,0-4.84,2.7c-.08-.14-.16-.29-.24-.43a37.475,37.475,0,0,0-4.26-6.54,13.7,13.7,0,0,0-3.42-2.86,11.253,11.253,0,0,0-4.75-1.49h0a13.117,13.117,0,0,0-10.16,3.41c-3.68,3.35-6.08,8.95-7.35,17.14a132.4,132.4,0,0,0-1.19,17.3c-.03,1.58-.06,2.95-.12,3.93-.03.49-.05.96-.07,1.4a24.478,24.478,0,0,1-.69,5.58L725,198.98h0a1.133,1.133,0,0,0-1.57.31,1.121,1.121,0,0,0,.27,1.57h0ZM816.7,212.1c1.34.25,2.66.45,3.92.62,4.27.6,6.92,1.07,7.68,2.62a3.624,3.624,0,0,1,.19,3.12,10.969,10.969,0,0,1-3,3.83,37.07,37.07,0,0,1-6.15,4.29,127.305,127.305,0,0,1-14.57,6.77c-.87.36-1.66.68-2.38.98a45.13,45.13,0,0,0,.86-10.53,19.975,19.975,0,0,0,5.89,3.39,19.979,19.979,0,0,0-2.47-5.88,53.525,53.525,0,0,0,10.02-9.22Zm-25.88-23.51c3.94,2.04,8.3,2.67,12.22,3.22a33.567,33.567,0,0,1,6.64,1.34,4.059,4.059,0,0,1,2.57,2,7.512,7.512,0,0,1,.21,6.2,15.069,15.069,0,0,1-1.65,3.14l-.24.34a39.7,39.7,0,0,1-8.92,8.6,42.927,42.927,0,0,0-13.36-21.14l2.53-3.69ZM760.85,170.8l.33-.48a15.849,15.849,0,0,1,2.29-2.61,7.487,7.487,0,0,1,5.86-2.04,4.027,4.027,0,0,1,2.79,1.68,34.336,34.336,0,0,1,3.63,5.71c1.92,3.46,4.07,7.31,7.39,10.25L780.61,187a42.931,42.931,0,0,0-24.54-4.88,40.141,40.141,0,0,1,4.77-11.33Zm-24.49,15.59a124.4,124.4,0,0,1,1.09-16.03,37.034,37.034,0,0,1,1.79-7.28,11.175,11.175,0,0,1,2.5-4.17,3.591,3.591,0,0,1,2.98-.94c1.72.15,3.11,2.45,5.2,6.22.62,1.12,1.28,2.28,1.99,3.44a54.035,54.035,0,0,0-5.04,12.79,20.352,20.352,0,0,0-6.06-.13,20.028,20.028,0,0,0,4.98,4.11,45.294,45.294,0,0,0-9.49,4.57C736.33,188.18,736.35,187.34,736.36,186.39Z" fill="#fff"/><path d="M827.23,708.2h-9.82V682.05a78.391,78.391,0,0,1-6.09,12.7c-1.78-1.95-3.13-3.13-8.97-6.86a93.04,93.04,0,0,0,14.81-27H805.4v-8.97h12.02V644.3a76.123,76.123,0,0,1-8.13,1.44,42.023,42.023,0,0,0-5.25-8.72c10.33-.42,23.19-4.66,27.85-7.11l5.42,7.45a2.3,2.3,0,0,1,.51,1.44c0,.51-.68.85-1.19.85a3.593,3.593,0,0,1-1.78-.76,72.118,72.118,0,0,1-7.62,2.79v10.24h8.29v8.97h-8.29v1.52a54.31,54.31,0,0,0,10.24,14.56c-4.66,3.81-5.5,4.74-6.94,6.6-1.02-1.61-1.78-2.96-3.3-5.76V708.2Zm31.06-60.1a66.931,66.931,0,0,0,9.82-17.86l11.09,3.98a.731.731,0,0,1,.51.59c0,1.1-1.61,1.02-2.46,1.02a71.954,71.954,0,0,1-7.03,12.27h9.31v28.61h-9.9v17.94c0,2.37.17,2.79,2.54,2.79,2.54,0,3.56-.42,4.32-8.8a31.162,31.162,0,0,0,8.46,5.33,24.4,24.4,0,0,1-3.13,9.48c-1.78,2.71-3.39,3.05-6.52,3.05H867c-6.77,0-7.36-4.32-7.36-8.21V676.71H847.03l8.13,2.37c.51.17,1.01.51,1.01,1.01,0,1.02-1.01,1.19-1.95,1.27-1.52,9.4-4.57,19.47-17.86,27.34a34.2,34.2,0,0,0-7.79-7.87c6.35-2.12,15.83-8.89,16.25-24.12h-6.43V648.1h8.46a92.621,92.621,0,0,0-8.21-13.29l8.55-4.57c3.72,4.23,8.04,11.93,9.31,14.31a39.147,39.147,0,0,0-7.62,3.55h9.4Zm-10.24,8.89v10.83h21.84V656.99Z" fill="#fff"/><path d="M910.51,661.9v27a6.863,6.863,0,0,0,4.91,6.6c3.64,1.27,16.08,1.35,20.74,1.35,7.96,0,23.53-.85,32.16-1.61a32.1,32.1,0,0,0-3.89,11.34H925.92c-14.9,0-19.13-4.15-21.5-8.38a125.056,125.056,0,0,1-11.26,7.36c-.25,1.78-.42,2.88-1.35,2.88-.85,0-1.18-1.02-1.44-1.69l-3.98-9.99a48.81,48.81,0,0,0,12.95-6.77V672.05h-9.9V661.89h21.08Zm-13.63-30.89a101.421,101.421,0,0,1,15.07,12.36c-1.27,1.18-6.69,6.18-7.7,7.28a86.663,86.663,0,0,0-14.98-12.44l7.62-7.19Zm38.68,18.87c-.25-3.81-.25-5.5-.25-7.03H922.19V632.27H946.4a41.888,41.888,0,0,0-.68,8.8c0,18.96,4.32,32,20.74,44.86-4.23,3.39-5.33,4.32-7.87,7.79-8.38-5.76-18.03-18.79-20.82-30.39-6.86,19.98-16.42,27.85-18.45,29.46a15.986,15.986,0,0,0-8.72-7.28c5.08-3.55,17.78-15.74,20.4-36.57l4.57.93Z" fill="#fff"/><path d="M1007.77,709.98H993.04V638.25l-12.57,8.63V632.03l13.46-9.65h13.84v87.6Z" fill="#fff"/><path d="M1040.72,716.58l-14.98,12.82V692.46h14.98Z" fill="#fff"/><path d="M1064.74,669.86h-13.33V622.38h47.48v13.84h-33.13v18.53c2.67-2.67,6.73-5.08,13.46-5.08,14.6,0,23.11,11.3,23.11,31.61,0,19.17-9.14,29.83-26.66,29.83-14.22,0-25.39-8.89-26.66-22.85h14.47c1.52,6.35,5.59,10.03,11.93,10.03,7.49,0,12.19-4.95,12.19-16.5s-3.56-18.41-12.19-18.41c-5.21,0-8.51,2.79-10.66,6.47Z" fill="#fff"/><path d="M1136.89,711.12c-14.6,0-27.55-8.63-27.55-26.79V648.15c0-18.66,12.95-26.91,27.55-26.91s27.55,8.25,27.55,26.79v36.31c0,18.15-12.95,26.79-27.55,26.79Zm0-77.06c-8,0-12.95,5.46-12.95,14.85v34.53c0,9.39,4.95,14.85,12.95,14.85s12.82-5.46,12.82-14.85V648.91c0-9.39-4.95-14.85-12.82-14.85Z" fill="#fff"/><path d="M1200.23,711.12c-14.6,0-27.55-8.63-27.55-26.79V648.15c0-18.66,12.95-26.91,27.55-26.91s27.55,8.25,27.55,26.79v36.31c0,18.15-12.95,26.79-27.55,26.79Zm0-77.06c-8,0-12.95,5.46-12.95,14.85v34.53c0,9.39,4.95,14.85,12.95,14.85s12.82-5.46,12.82-14.85V648.91c0-9.39-4.95-14.85-12.82-14.85Z" fill="#fff"/><path d="M1260.34,675.02v32.59h-11.17V633.63h70v62.13c0,9.48-5.59,11.6-16.25,11.6a19.949,19.949,0,0,1-3.22-.17c-.59-6.86-2.2-9.56-3.56-11.85a33.188,33.188,0,0,0,7.62,1.01c4.57,0,4.57-1.86,4.57-4.57V675.02h-47.99Zm18.45-31.23h-18.45v21.16h18.45Zm10.75,21.16h18.79V643.79h-18.79Z" fill="#fff"/><path d="M200.28,80.48c3.98-.81,5.88-1.76,7.39-3.12a3.177,3.177,0,0,1,1.9-.95,4.476,4.476,0,0,1,2.62.52,71.641,71.641,0,0,1,11.84,6.59,5.055,5.055,0,0,1,2.59,3.21,4.53,4.53,0,0,1-1.31,3.54,18.775,18.775,0,0,0-3.99,7.46c-6.86,22.64-14.26,39.21-22.64,52.61-10.78,17.12-26.64,35.08-40.49,46.06a4.237,4.237,0,0,1-2.34,1.18,5.49,5.49,0,0,1-3.82-1.11,40.927,40.927,0,0,0-15.8-4.67c21.84-17.2,32.4-28.91,44.8-47.72,9.93-15.56,15.29-27.2,21.28-48.43l-37.09,7.22c-10.06,17.63-16.31,27.68-23.9,36.37a4.861,4.861,0,0,1-2.95,2.23,3.713,3.713,0,0,1-2.46-.54,42.2,42.2,0,0,0-15.88-4.18c17.33-19.62,26.82-35.9,33.88-52.57,3.66-9.46,5.18-14.62,5.66-22.29,9.29,1.63,15.57,3.28,19.36,5.19a3.258,3.258,0,0,1,1.97,2.36,3.135,3.135,0,0,1-1.26,2.9c-1.39,1.18-2.19,3.05-3.17,4.79-1.26,2.9-2.42,5.46-3.81,8.54l27.62-5.19Z" fill="#fff"/><path d="M259.95,73.33c-1.75-10.62-3.18-16.4-5.4-22.2,6.59-.3,14.91-.72,19.63.08,1.92.16,2.85.95,3.02,2.03a6.482,6.482,0,0,1-.23,2.41c-.9,3.15-.58,7.05.72,14.91l5.13,31.11c1.32,8.01,2.62,13.96,3.66,19.33.38,2.31-.42,3.23-2.88,3.64l-12.32,2.03c-2.16.36-3.21-.26-3.36-2.14-.89-5.39-1.9-14.4-2.99-21.02l-4.98-30.18Zm77.27,16.83c3.76,22.79,2.88,38.59-4.2,52.26-5.89,11.25-17.74,22.86-29.89,29.76a9.678,9.678,0,0,1-3.11,1.3,5.065,5.065,0,0,1-4-1.24A50.7,50.7,0,0,0,281.38,165c15.64-7.8,27.38-17.17,33.87-28.68,5.64-9.95,6.76-23.26,3.54-42.82l-4.8-29.1c-2.18-13.24-3.3-18.12-5.83-24.82,7.49-.6,15.06-.75,20.58.09a2.628,2.628,0,0,1,2.59,2.26,4.983,4.983,0,0,1-.21,2.57c-.85,3.46-.19,7.46,1.38,17.01l4.72,28.64Z" fill="#fff"/><path d="M383.96,71.07c1.57-1.05,2.67-1.07,4.18.42,6.51,5.89,12.73,12.93,17,20.61a10.807,10.807,0,0,1,1,2.21c.15.92-.39,1.49-1.49,2.46a64.021,64.021,0,0,1-9.07,6.4c-2.03,1.12-3.08.51-4.21-1.52a92.155,92.155,0,0,0-18.56-22.41c4.75-3.79,8.17-6.09,11.15-8.17Zm29.89-12.52c1.57-1.05,2.67-1.07,4.21.57a89.979,89.979,0,0,1,15.56,20.53c1.15,2.18.97,3-.85,4.41a64.947,64.947,0,0,1-9.84,6.53c-1.59.89-2.33.23-3.46-1.8-5.04-8.5-9.8-15.31-17-22.51,5.68-3.94,8.94-6.22,11.38-7.73Zm54.98.58c1.38.72,2.28,1.37,2.43,2.29s-.18,1.77-1.24,3.05c-1.98,2.38-2.55,5.64-3.33,8.62a190.112,190.112,0,0,1-16.5,44.79c-8.03,14.61-15.15,24.17-26.82,34.95a6.707,6.707,0,0,1-3.42,2.3,3.571,3.571,0,0,1-2.64-.67c-4.36-2.44-8.18-3.55-14.16-4.31,16.47-15.21,24.42-24.59,31.68-38.12,6.05-11.28,12.18-27.79,14.67-40.54a56.244,56.244,0,0,0,.85-16.91c6.8.94,14.18,2.56,18.47,4.55Z" fill="#fff"/><path d="M575.57,18.59c3.98-.81,5.88-1.76,7.4-3.12a3.177,3.177,0,0,1,1.9-.95,4.476,4.476,0,0,1,2.62.52,71.641,71.641,0,0,1,11.84,6.59,5.056,5.056,0,0,1,2.59,3.21,4.53,4.53,0,0,1-1.31,3.54,18.774,18.774,0,0,0-3.99,7.46c-6.86,22.64-14.26,39.21-22.64,52.61-10.78,17.12-26.64,35.08-40.49,46.06a4.237,4.237,0,0,1-2.34,1.18,5.49,5.49,0,0,1-3.82-1.11,40.927,40.927,0,0,0-15.8-4.67c21.84-17.2,32.4-28.91,44.8-47.72,9.93-15.56,15.29-27.2,21.28-48.43l-37.09,7.22c-10.06,17.63-16.31,27.68-23.9,36.37a4.861,4.861,0,0,1-2.95,2.23,3.713,3.713,0,0,1-2.46-.54,42.2,42.2,0,0,0-15.87-4.18c17.33-19.62,26.82-35.9,33.88-52.57,3.66-9.46,5.18-14.62,5.66-22.29,9.28,1.63,15.57,3.29,19.36,5.19a3.235,3.235,0,0,1,1.97,2.36,3.135,3.135,0,0,1-1.26,2.9c-1.39,1.18-2.19,3.05-3.16,4.79-1.26,2.9-2.42,5.46-3.81,8.54l27.62-5.19Z" fill="#fff"/><path d="M147.127,46.1l14.76,2.59c10.962,1.923,18.079,3.9,23.076,6.423a16.5,16.5,0,0,1,9.168,12.174q.057.347.1.695l3.576-.672a13.814,13.814,0,0,0,1.348-.323,16.515,16.515,0,0,1,8.186-3.791l1.108-.187,1.619-.041a18.241,18.241,0,0,1,7.69,1.771,83.9,83.9,0,0,1,13.811,7.7,17.231,17.231,0,0,1,4.026,26.436,6.881,6.881,0,0,0-1.469,2.829c-6.908,22.8-14.567,40.539-24.078,55.748-11.52,18.295-28.037,37.094-43.2,49.2a17.59,17.59,0,0,1-8.76,4.151l-1.108.187-1.721.048a19.149,19.149,0,0,1-10.32-3.191,28.452,28.452,0,0,0-10.185-2.719l-32.507-3.618,25.7-20.236c19.958-15.718,29.749-26.131,41.9-44.567a142.766,142.766,0,0,0,12.5-23.508l-8.546,1.663c-8.479,14.659-14.633,24.252-22.026,32.8a17.629,17.629,0,0,1-11.175,7.037l-1.1.186-1.611.041a17.257,17.257,0,0,1-8.547-2.306,28.741,28.741,0,0,0-9.821-2.465l-28.232-1.094,18.7-21.175c14.629-16.562,24.074-31.193,31.583-48.923,3.33-8.626,4.269-12.216,4.625-17.9Z" fill="#006934"/><path d="M319.408,25.68a76.768,76.768,0,0,1,11.349.738,15.909,15.909,0,0,1,13.787,13.256,18.5,18.5,0,0,1-.415,8.152c-.066,1.383.74,6.283,1.591,11.461l4.727,28.683c4.379,26.556,2.728,44.684-5.523,60.615-7.031,13.43-20.5,26.917-35.173,35.251a22.171,22.171,0,0,1-7.6,2.878l-1.06.171-1.782.059a18.842,18.842,0,0,1-11.129-3.828,37.385,37.385,0,0,0-10.925-5.36l-31.249-10.1L275.4,153c13.9-6.932,23.379-14.76,28.176-23.268,4.021-7.094,4.649-17.908,1.99-34.059l-4.8-29.1c-2.175-13.212-3.146-16.973-5.144-22.266l-6.3-16.674,17.767-1.423C311.276,25.882,315.486,25.68,319.408,25.68ZM266.541,37.343a62.011,62.011,0,0,1,9.409.574c7.591.893,13.375,6.143,14.492,13.238a18.786,18.786,0,0,1-.379,7.368c-.282,1.373-.193,3.529.852,9.849l5.131,31.116c.938,5.69,1.866,10.306,2.692,14.415l.9,4.547c1.643,9.955-4.074,17.784-13.837,19.411L273.459,139.9a19.721,19.721,0,0,1-3.234.276,15.45,15.45,0,0,1-15.593-13.84c-.424-2.628-.877-6.006-1.348-9.547-.5-3.776-1.03-7.753-1.58-11.1l-4.979-30.175c-1.566-9.5-2.794-14.629-4.693-19.591l-6.637-17.339,18.546-.844C258.459,37.532,262.7,37.343,266.541,37.343Z" fill="#006934"/><path d="M435.674,39.019,452.186,41.3c5.35.74,15.357,2.459,22.275,5.668,5.991,3.089,9.189,7.138,10.029,12.293.791,4.852-.6,9.48-4.146,13.757a7.683,7.683,0,0,1-.309,1.973l-.377,1.492A203.69,203.69,0,0,1,462.011,124.2c-9.12,16.6-17.108,26.987-29.545,38.476a18.565,18.565,0,0,1-10.381,5.687l-1.06.171-1.582.042a16.951,16.951,0,0,1-9.052-2.625c-2.237-1.211-4.278-1.913-8.93-2.5l-28.54-3.627L394.055,140.3c15.593-14.4,22.631-22.81,28.963-34.61q.382-.712.762-1.451a15.01,15.01,0,0,1-2.057.141,14.72,14.72,0,0,1-5.119-.9,21.058,21.058,0,0,1-3.089,3.34,77.938,77.938,0,0,1-11.1,7.874,17.353,17.353,0,0,1-8.585,2.432c-3.432,0-9.839-1.164-14.178-8.96a78.1,78.1,0,0,0-15.614-18.789L351.835,78.827l12.615-10.065c4.425-3.531,7.771-5.859,10.669-7.871l1.169-.813a17,17,0,0,1,9.628-3.161,15.539,15.539,0,0,1,5.225.908l5.129-3.558c5.086-3.529,8.17-5.657,10.526-7.115a15.974,15.974,0,0,1,21.036,2.793,85.021,85.021,0,0,1,9.386,10.706c0-1.423-.074-3.024-.232-5.014Z" fill="#006934"/><path d="M522.437-15.8,537.2-13.2c10.926,1.919,18.035,3.9,23.049,6.409A16.477,16.477,0,0,1,569.44,5.394q.057.348.1.7l3.358-.631v0a15.892,15.892,0,0,0,1.562-.367,16.516,16.516,0,0,1,8.18-3.785l1.108-.187,1.62-.041a18.241,18.241,0,0,1,7.689,1.771,83.893,83.893,0,0,1,13.811,7.7,17.9,17.9,0,0,1,8.276,12.092,17.739,17.739,0,0,1-4.25,14.345,6.881,6.881,0,0,0-1.469,2.829c-6.908,22.8-14.567,40.539-24.078,55.748-11.52,18.295-28.037,37.094-43.2,49.2a17.591,17.591,0,0,1-8.76,4.151l-1.108.187-1.72.048a19.15,19.15,0,0,1-10.32-3.191,28.451,28.451,0,0,0-10.185-2.719l-32.507-3.618,25.7-20.236c19.958-15.718,29.749-26.131,41.9-44.567A142.765,142.765,0,0,0,557.64,51.3l-8.546,1.663c-8.479,14.659-14.633,24.252-22.026,32.8A17.629,17.629,0,0,1,515.894,92.8l-1.1.186-1.611.041a17.257,17.257,0,0,1-8.548-2.306,28.722,28.722,0,0,0-9.811-2.465l-28.229-1.1,18.7-21.173c14.629-16.562,24.074-31.193,31.583-48.923,3.33-8.626,4.269-12.216,4.625-17.9Z" fill="#006934"/><path d="M200.28,80.48c3.98-.81,5.88-1.76,7.39-3.12a3.177,3.177,0,0,1,1.9-.95,4.476,4.476,0,0,1,2.62.52,71.641,71.641,0,0,1,11.84,6.59,5.055,5.055,0,0,1,2.59,3.21,4.53,4.53,0,0,1-1.31,3.54,18.775,18.775,0,0,0-3.99,7.46c-6.86,22.64-14.26,39.21-22.64,52.61-10.78,17.12-26.64,35.08-40.49,46.06a4.237,4.237,0,0,1-2.34,1.18,5.49,5.49,0,0,1-3.82-1.11,40.927,40.927,0,0,0-15.8-4.67c21.84-17.2,32.4-28.91,44.8-47.72,9.93-15.56,15.29-27.2,21.28-48.43l-37.09,7.22c-10.06,17.63-16.31,27.68-23.9,36.37a4.861,4.861,0,0,1-2.95,2.23,3.713,3.713,0,0,1-2.46-.54,42.2,42.2,0,0,0-15.88-4.18c17.33-19.62,26.82-35.9,33.88-52.57,3.66-9.46,5.18-14.62,5.66-22.29,9.29,1.63,15.57,3.28,19.36,5.19a3.258,3.258,0,0,1,1.97,2.36,3.135,3.135,0,0,1-1.26,2.9c-1.39,1.18-2.19,3.05-3.17,4.79-1.26,2.9-2.42,5.46-3.81,8.54l27.62-5.19Z" fill="#fff"/><path d="M259.95,73.33c-1.75-10.62-3.18-16.4-5.4-22.2,6.59-.3,14.91-.72,19.63.08,1.92.16,2.85.95,3.02,2.03a6.482,6.482,0,0,1-.23,2.41c-.9,3.15-.58,7.05.72,14.91l5.13,31.11c1.32,8.01,2.62,13.96,3.66,19.33.38,2.31-.42,3.23-2.88,3.64l-12.32,2.03c-2.16.36-3.21-.26-3.36-2.14-.89-5.39-1.9-14.4-2.99-21.02l-4.98-30.18Zm77.27,16.83c3.76,22.79,2.88,38.59-4.2,52.26-5.89,11.25-17.74,22.86-29.89,29.76a9.678,9.678,0,0,1-3.11,1.3,5.065,5.065,0,0,1-4-1.24A50.7,50.7,0,0,0,281.38,165c15.64-7.8,27.38-17.17,33.87-28.68,5.64-9.95,6.76-23.26,3.54-42.82l-4.8-29.1c-2.18-13.24-3.3-18.12-5.83-24.82,7.49-.6,15.06-.75,20.58.09a2.628,2.628,0,0,1,2.59,2.26,4.983,4.983,0,0,1-.21,2.57c-.85,3.46-.19,7.46,1.38,17.01l4.72,28.64Z" fill="#fff"/><path d="M383.96,71.07c1.57-1.05,2.67-1.07,4.18.42,6.51,5.89,12.73,12.93,17,20.61a10.807,10.807,0,0,1,1,2.21c.15.92-.39,1.49-1.49,2.46a64.021,64.021,0,0,1-9.07,6.4c-2.03,1.12-3.08.51-4.21-1.52a92.155,92.155,0,0,0-18.56-22.41c4.75-3.79,8.17-6.09,11.15-8.17Zm29.89-12.52c1.57-1.05,2.67-1.07,4.21.57a89.979,89.979,0,0,1,15.56,20.53c1.15,2.18.97,3-.85,4.41a64.947,64.947,0,0,1-9.84,6.53c-1.59.89-2.33.23-3.46-1.8-5.04-8.5-9.8-15.31-17-22.51,5.68-3.94,8.94-6.22,11.38-7.73Zm54.98.58c1.38.72,2.28,1.37,2.43,2.29s-.18,1.77-1.24,3.05c-1.98,2.38-2.55,5.64-3.33,8.62a190.112,190.112,0,0,1-16.5,44.79c-8.03,14.61-15.15,24.17-26.82,34.95a6.707,6.707,0,0,1-3.42,2.3,3.571,3.571,0,0,1-2.64-.67c-4.36-2.44-8.18-3.55-14.16-4.31,16.47-15.21,24.42-24.59,31.68-38.12,6.05-11.28,12.18-27.79,14.67-40.54a56.244,56.244,0,0,0,.85-16.91c6.8.94,14.18,2.56,18.47,4.55Z" fill="#fff"/><path d="M575.57,18.59c3.98-.81,5.88-1.76,7.4-3.12a3.177,3.177,0,0,1,1.9-.95,4.476,4.476,0,0,1,2.62.52,71.641,71.641,0,0,1,11.84,6.59,5.056,5.056,0,0,1,2.59,3.21,4.53,4.53,0,0,1-1.31,3.54,18.774,18.774,0,0,0-3.99,7.46c-6.86,22.64-14.26,39.21-22.64,52.61-10.78,17.12-26.64,35.08-40.49,46.06a4.237,4.237,0,0,1-2.34,1.18,5.49,5.49,0,0,1-3.82-1.11,40.927,40.927,0,0,0-15.8-4.67c21.84-17.2,32.4-28.91,44.8-47.72,9.93-15.56,15.29-27.2,21.28-48.43l-37.09,7.22c-10.06,17.63-16.31,27.68-23.9,36.37a4.861,4.861,0,0,1-2.95,2.23,3.713,3.713,0,0,1-2.46-.54,42.2,42.2,0,0,0-15.87-4.18c17.33-19.62,26.82-35.9,33.88-52.57,3.66-9.46,5.18-14.62,5.66-22.29,9.28,1.63,15.57,3.29,19.36,5.19a3.235,3.235,0,0,1,1.97,2.36,3.135,3.135,0,0,1-1.26,2.9c-1.39,1.18-2.19,3.05-3.16,4.79-1.26,2.9-2.42,5.46-3.81,8.54l27.62-5.19Z" fill="#fff"/></g></svg>