<?xml version="1.0" encoding="UTF-8"?>
<svg xmlns="http://www.w3.org/2000/svg" viewBox="0 0 1306.55 610.08">
  <defs>
    <style>
      .cls-1 {
        mix-blend-mode: multiply;
        opacity: .75;
      }

      .cls-2 {
        isolation: isolate;
      }

      .cls-3 {
        fill: #231815;
      }

      .cls-4 {
        fill: #fff;
      }

      .cls-5 {
        fill: #0b318f;
      }

      .cls-6 {
        fill: none;
        stroke: #000;
        stroke-width: 42.79px;
      }
    </style>
  </defs>
  <g class="cls-2">
    <g id="_レイヤー_2" data-name="レイヤー_2">
      <g id="_レイヤー_1-2" data-name="レイヤー_1">
        <g>
          <polygon class="cls-6" points="1243.79 373.94 1271.95 369.63 1250.33 35.37 69.62 133.2 71.45 140.02 41.78 142.48 150.24 546.4 891.38 432.92 880.55 502.09 943.62 424.92 1244.11 378.91 1243.79 373.94"/>
          <polygon class="cls-5" points="1243.79 373.94 1271.95 369.63 1250.33 35.37 69.62 133.2 71.45 140.02 41.78 142.48 150.24 546.4 891.38 432.92 880.55 502.09 943.62 424.92 1244.11 378.91 1243.79 373.94"/>
        </g>
        <g>
          <g class="cls-1">
            <g>
              <path class="cls-3" d="M285.35,252.14l3.8,27.53-59.12,8.13c-9.63,1.31-17.49,1.03-23.6-.84-6.11-1.87-10.78-5.55-14.03-11.07-3.24-5.51-5.39-13.18-6.45-23.01l-9.39-87.22,24.32-2.24,9.39,87.22c.37,3.45.96,5.96,1.79,7.52.82,1.56,2.31,2.46,4.47,2.68,2.16.22,5.4.03,9.71-.58l59.12-8.13ZM199.89,230.69l-6.91-25.35c14.52-4.19,28.47-9.25,41.83-15.18,13.36-5.93,26.36-12.8,39.01-20.62l12.41,24.52c-13.35,8.2-27.26,15.24-41.75,21.11-14.49,5.88-29.35,11.05-44.58,15.51Z"/>
              <path class="cls-3" d="M413.38,186.8l2.8,26.04-102.23,9.41-2.8-26.04,102.23-9.41ZM409.08,144.26l2.8,26.04-91.74,8.44-2.8-26.04,91.74-8.44ZM340.45,280.5l-3.8-27.53c11.19-1.45,20.57-3.56,28.13-6.31,7.56-2.76,13.66-5.93,18.3-9.53,4.63-3.6,8.15-7.41,10.56-11.43,2.4-4.02,4.02-8.03,4.85-12.01.83-3.98,1.19-7.74,1.09-11.27-.1-3.53-.29-6.55-.56-9.06l-.56-5.18,24.32-2.24.56,5.18c1.83,17.05-.12,31.78-5.85,44.19-5.73,12.41-15.08,22.41-28.03,29.99-12.95,7.58-29.29,12.65-49.01,15.21Z"/>
              <path class="cls-3" d="M467.46,269.28l-14.9-23.03c14.36-10.93,26.46-22.48,36.32-34.63,9.85-12.15,17.68-25.23,23.47-39.23,5.79-14,9.71-29.23,11.76-45.68l24.95,4.99c-3.55,28.42-11.99,53.89-25.33,76.4-13.34,22.51-32.1,42.91-56.27,61.19ZM571.71,226.73l-13.49,22.47c-16.56-12.95-33.21-25.54-49.97-37.78-16.76-12.24-33.93-23.99-51.51-35.26l11.38-23.86c17.97,11.44,35.57,23.45,52.78,36.02,17.21,12.57,34.15,25.38,50.8,38.42Z"/>
              <path class="cls-3" d="M671.03,234.59l-7.83-18.62c4.72-2.23,8.57-4.99,11.56-8.29,2.99-3.29,5.12-7.06,6.38-11.3,1.27-4.24,1.63-8.86,1.09-13.87-.62-5.74-2.17-10.61-4.65-14.63-2.48-4.01-5.89-6.99-10.23-8.91-4.34-1.93-9.6-2.6-15.8-2.03-4.77.44-9,1.69-12.7,3.74-3.7,2.05-6.78,4.75-9.26,8.08-2.48,3.33-4.24,7.21-5.27,11.62-1.03,4.42-1.27,9.22-.72,14.39.37,3.48,1.12,6.59,2.25,9.34,1.12,2.75,2.39,4.88,3.81,6.38,1.42,1.5,2.8,2.19,4.16,2.07,1.21-.11,2.32-1.09,3.35-2.94,1.02-1.85,1.94-4.36,2.75-7.54.81-3.17,1.47-6.83,2-10.96.53-4.13.84-8.52.95-13.18.11-4.66,0-9.43-.35-14.29-.35-4.86-.94-9.58-1.79-14.16l18.58-3.67c1.32,6.9,2.19,13.8,2.6,20.69.42,6.9.4,13.57-.06,20.02-.46,6.45-1.35,12.47-2.69,18.06-1.34,5.59-3.07,10.5-5.21,14.74-2.13,4.24-4.69,7.64-7.69,10.2-3,2.56-6.38,4.01-10.15,4.36-5.05.47-9.79-.67-14.22-3.4-4.43-2.73-8.15-6.98-11.18-12.74-3.03-5.76-4.99-12.84-5.9-21.25-.7-6.54-.56-12.76.42-18.65.98-5.88,2.74-11.27,5.27-16.15s5.7-9.19,9.5-12.93c3.8-3.74,8.17-6.73,13.1-8.98,4.93-2.25,10.32-3.64,16.15-4.18,9.61-.88,18.11.46,25.5,4.02,7.39,3.56,13.35,8.89,17.89,15.98,4.54,7.09,7.33,15.48,8.37,25.18.66,6.14.48,11.97-.54,17.49-1.02,5.52-2.81,10.6-5.37,15.25-2.56,4.64-5.87,8.76-9.93,12.36-4.07,3.6-8.79,6.5-14.16,8.71Z"/>
              <path class="cls-3" d="M739.02,182.34c-2.48-9.17-5.21-18.19-8.21-27.05-3-8.86-6.27-17.62-9.8-26.27l22.14-10.75c3.68,9.17,7.1,18.41,10.24,27.73,3.14,9.32,6.06,18.72,8.75,28.19l-23.12,8.15ZM839.73,131.56c1.11,13.74.92,26.06-.56,36.97-1.48,10.91-4.23,20.54-8.26,28.88-4.03,8.35-9.4,15.5-16.11,21.45-6.71,5.95-14.83,10.84-24.37,14.68-9.54,3.83-20.49,6.69-32.84,8.57l-4.35-27.48c9.79-1.54,18.35-3.62,25.7-6.25,7.34-2.63,13.56-6.05,18.64-10.27,5.08-4.21,9.08-9.36,12.01-15.44,2.93-6.08,4.85-13.25,5.78-21.52.92-8.27.94-17.8.06-28.6l24.31-.97ZM775.98,174.5c-2.48-9.17-5.21-18.19-8.21-27.05-3-8.86-6.27-17.62-9.8-26.27l22.14-10.75c3.68,9.17,7.1,18.41,10.24,27.73,3.14,9.32,6.06,18.72,8.75,28.19l-23.12,8.15ZM815.96,127.25c-2.43-5.27-4.61-9.74-6.54-13.42-1.93-3.68-3.86-7.12-5.79-10.32l11.83-8.06c2.49,4.1,4.87,8.29,7.14,12.57,2.28,4.28,4.38,8.55,6.33,12.81l-12.98,6.42ZM837.47,123.53c-2.35-5.38-4.49-9.94-6.42-13.67-1.93-3.73-3.82-7.15-5.64-10.25l11.54-8.19c2.59,4.2,4.96,8.5,7.11,12.89,2.15,4.4,4.19,8.72,6.14,12.98l-12.72,6.24Z"/>
              <path class="cls-3" d="M898.69,180.32l-19.71-17.2c4.89-7.31,8.88-14.76,11.97-22.33,3.09-7.57,5.41-15.39,6.96-23.46,1.55-8.06,2.42-16.43,2.6-25.11l24.37,3.46c-.2,10.26-1.29,20.24-3.27,29.93-1.98,9.69-4.85,19.09-8.62,28.2-3.76,9.11-8.53,17.95-14.31,26.51ZM995.49,104.86l2.8,26.04-89.53,8.24-2.8-26.04,89.53-8.24ZM917.86,227.51l-6.25-26.99c6.42-1.65,11.93-3.66,16.51-6.04,4.58-2.37,8.28-5.38,11.1-9.02,2.82-3.64,4.89-8.11,6.23-13.41,1.33-5.3,2.02-11.65,2.07-19.04.04-7.4-.47-16.06-1.54-26l24.32-2.24c1.35,12.55,1.84,23.81,1.47,33.77-.37,9.96-1.68,18.75-3.93,26.35s-5.57,14.17-9.95,19.69c-4.38,5.53-9.88,10.15-16.5,13.88-6.62,3.72-14.46,6.74-23.51,9.05Z"/>
              <path class="cls-3" d="M1155.08,89.07l2.46,22.9-126,11.6-2.46-22.9,126-11.6ZM1161.83,151.82l2.46,22.9-126,11.6-2.46-22.9,126-11.6ZM1057.12,221.19l-15.04-20.48c4.06-3.75,7.4-7.7,10.03-11.85,2.62-4.15,4.56-8.82,5.82-14,1.25-5.19,1.9-11.29,1.93-18.32.03-7.03-.46-15.3-1.48-24.82l-5.91-54.91,22.93-2.11,5.91,54.91c1.25,11.61,1.75,21.94,1.52,30.99-.23,9.05-1.29,17.15-3.18,24.3-1.88,7.14-4.67,13.66-8.36,19.54-3.69,5.88-8.42,11.47-14.17,16.75ZM1121.25,142.88l-16.19,18.13c-4.35-5.83-8.51-10.83-12.5-15.01-3.99-4.17-8.35-8.42-13.09-12.74l14.96-17.85c5.11,4.28,9.82,8.52,14.13,12.72,4.31,4.2,8.54,9.12,12.68,14.76ZM1111.56,71.05l22.93-2.11,15.29,142.13-22.93,2.11-15.29-142.13Z"/>
            </g>
            <g>
              <path class="cls-3" d="M285.35,252.14l3.8,27.53-59.12,8.13c-9.63,1.31-17.49,1.03-23.6-.84-6.11-1.87-10.78-5.55-14.03-11.07-3.24-5.51-5.39-13.18-6.45-23.01l-9.39-87.22,24.32-2.24,9.39,87.22c.37,3.45.96,5.96,1.79,7.52.82,1.56,2.31,2.46,4.47,2.68,2.16.22,5.4.03,9.71-.58l59.12-8.13ZM199.89,230.69l-6.91-25.35c14.52-4.19,28.47-9.25,41.83-15.18,13.36-5.93,26.36-12.8,39.01-20.62l12.41,24.52c-13.35,8.2-27.26,15.24-41.75,21.11-14.49,5.88-29.35,11.05-44.58,15.51Z"/>
              <path class="cls-3" d="M413.38,186.8l2.8,26.04-102.23,9.41-2.8-26.04,102.23-9.41ZM409.08,144.26l2.8,26.04-91.74,8.44-2.8-26.04,91.74-8.44ZM340.45,280.5l-3.8-27.53c11.19-1.45,20.57-3.56,28.13-6.31,7.56-2.76,13.66-5.93,18.3-9.53,4.63-3.6,8.15-7.41,10.56-11.43,2.4-4.02,4.02-8.03,4.85-12.01.83-3.98,1.19-7.74,1.09-11.27-.1-3.53-.29-6.55-.56-9.06l-.56-5.18,24.32-2.24.56,5.18c1.83,17.05-.12,31.78-5.85,44.19-5.73,12.41-15.08,22.41-28.03,29.99-12.95,7.58-29.29,12.65-49.01,15.21Z"/>
              <path class="cls-3" d="M467.46,269.28l-14.9-23.03c14.36-10.93,26.46-22.48,36.32-34.63,9.85-12.15,17.68-25.23,23.47-39.23,5.79-14,9.71-29.23,11.76-45.68l24.95,4.99c-3.55,28.42-11.99,53.89-25.33,76.4-13.34,22.51-32.1,42.91-56.27,61.19ZM571.71,226.73l-13.49,22.47c-16.56-12.95-33.21-25.54-49.97-37.78-16.76-12.24-33.93-23.99-51.51-35.26l11.38-23.86c17.97,11.44,35.57,23.45,52.78,36.02,17.21,12.57,34.15,25.38,50.8,38.42Z"/>
              <path class="cls-3" d="M671.03,234.59l-7.83-18.62c4.72-2.23,8.57-4.99,11.56-8.29,2.99-3.29,5.12-7.06,6.38-11.3,1.27-4.24,1.63-8.86,1.09-13.87-.62-5.74-2.17-10.61-4.65-14.63-2.48-4.01-5.89-6.99-10.23-8.91-4.34-1.93-9.6-2.6-15.8-2.03-4.77.44-9,1.69-12.7,3.74-3.7,2.05-6.78,4.75-9.26,8.08-2.48,3.33-4.24,7.21-5.27,11.62-1.03,4.42-1.27,9.22-.72,14.39.37,3.48,1.12,6.59,2.25,9.34,1.12,2.75,2.39,4.88,3.81,6.38,1.42,1.5,2.8,2.19,4.16,2.07,1.21-.11,2.32-1.09,3.35-2.94,1.02-1.85,1.94-4.36,2.75-7.54.81-3.17,1.47-6.83,2-10.96.53-4.13.84-8.52.95-13.18.11-4.66,0-9.43-.35-14.29-.35-4.86-.94-9.58-1.79-14.16l18.58-3.67c1.32,6.9,2.19,13.8,2.6,20.69.42,6.9.4,13.57-.06,20.02-.46,6.45-1.35,12.47-2.69,18.06-1.34,5.59-3.07,10.5-5.21,14.74-2.13,4.24-4.69,7.64-7.69,10.2-3,2.56-6.38,4.01-10.15,4.36-5.05.47-9.79-.67-14.22-3.4-4.43-2.73-8.15-6.98-11.18-12.74-3.03-5.76-4.99-12.84-5.9-21.25-.7-6.54-.56-12.76.42-18.65.98-5.88,2.74-11.27,5.27-16.15s5.7-9.19,9.5-12.93c3.8-3.74,8.17-6.73,13.1-8.98,4.93-2.25,10.32-3.64,16.15-4.18,9.61-.88,18.11.46,25.5,4.02,7.39,3.56,13.35,8.89,17.89,15.98,4.54,7.09,7.33,15.48,8.37,25.18.66,6.14.48,11.97-.54,17.49-1.02,5.52-2.81,10.6-5.37,15.25-2.56,4.64-5.87,8.76-9.93,12.36-4.07,3.6-8.79,6.5-14.16,8.71Z"/>
              <path class="cls-3" d="M739.02,182.34c-2.48-9.17-5.21-18.19-8.21-27.05-3-8.86-6.27-17.62-9.8-26.27l22.14-10.75c3.68,9.17,7.1,18.41,10.24,27.73,3.14,9.32,6.06,18.72,8.75,28.19l-23.12,8.15ZM839.73,131.56c1.11,13.74.92,26.06-.56,36.97-1.48,10.91-4.23,20.54-8.26,28.88-4.03,8.35-9.4,15.5-16.11,21.45-6.71,5.95-14.83,10.84-24.37,14.68-9.54,3.83-20.49,6.69-32.84,8.57l-4.35-27.48c9.79-1.54,18.35-3.62,25.7-6.25,7.34-2.63,13.56-6.05,18.64-10.27,5.08-4.21,9.08-9.36,12.01-15.44,2.93-6.08,4.85-13.25,5.78-21.52.92-8.27.94-17.8.06-28.6l24.31-.97ZM775.98,174.5c-2.48-9.17-5.21-18.19-8.21-27.05-3-8.86-6.27-17.62-9.8-26.27l22.14-10.75c3.68,9.17,7.1,18.41,10.24,27.73,3.14,9.32,6.06,18.72,8.75,28.19l-23.12,8.15ZM815.96,127.25c-2.43-5.27-4.61-9.74-6.54-13.42-1.93-3.68-3.86-7.12-5.79-10.32l11.83-8.06c2.49,4.1,4.87,8.29,7.14,12.57,2.28,4.28,4.38,8.55,6.33,12.81l-12.98,6.42ZM837.47,123.53c-2.35-5.38-4.49-9.94-6.42-13.67-1.93-3.73-3.82-7.15-5.64-10.25l11.54-8.19c2.59,4.2,4.96,8.5,7.11,12.89,2.15,4.4,4.19,8.72,6.14,12.98l-12.72,6.24Z"/>
              <path class="cls-3" d="M898.69,180.32l-19.71-17.2c4.89-7.31,8.88-14.76,11.97-22.33,3.09-7.57,5.41-15.39,6.96-23.46,1.55-8.06,2.42-16.43,2.6-25.11l24.37,3.46c-.2,10.26-1.29,20.24-3.27,29.93-1.98,9.69-4.85,19.09-8.62,28.2-3.76,9.11-8.53,17.95-14.31,26.51ZM995.49,104.86l2.8,26.04-89.53,8.24-2.8-26.04,89.53-8.24ZM917.86,227.51l-6.25-26.99c6.42-1.65,11.93-3.66,16.51-6.04,4.58-2.37,8.28-5.38,11.1-9.02,2.82-3.64,4.89-8.11,6.23-13.41,1.33-5.3,2.02-11.65,2.07-19.04.04-7.4-.47-16.06-1.54-26l24.32-2.24c1.35,12.55,1.84,23.81,1.47,33.77-.37,9.96-1.68,18.75-3.93,26.35s-5.57,14.17-9.95,19.69c-4.38,5.53-9.88,10.15-16.5,13.88-6.62,3.72-14.46,6.74-23.51,9.05Z"/>
              <path class="cls-3" d="M1155.08,89.07l2.46,22.9-126,11.6-2.46-22.9,126-11.6ZM1161.83,151.82l2.46,22.9-126,11.6-2.46-22.9,126-11.6ZM1057.12,221.19l-15.04-20.48c4.06-3.75,7.4-7.7,10.03-11.85,2.62-4.15,4.56-8.82,5.82-14,1.25-5.19,1.9-11.29,1.93-18.32.03-7.03-.46-15.3-1.48-24.82l-5.91-54.91,22.93-2.11,5.91,54.91c1.25,11.61,1.75,21.94,1.52,30.99-.23,9.05-1.29,17.15-3.18,24.3-1.88,7.14-4.67,13.66-8.36,19.54-3.69,5.88-8.42,11.47-14.17,16.75ZM1121.25,142.88l-16.19,18.13c-4.35-5.83-8.51-10.83-12.5-15.01-3.99-4.17-8.35-8.42-13.09-12.74l14.96-17.85c5.11,4.28,9.82,8.52,14.13,12.72,4.31,4.2,8.54,9.12,12.68,14.76ZM1111.56,71.05l22.93-2.11,15.29,142.13-22.93,2.11-15.29-142.13Z"/>
            </g>
          </g>
          <g>
            <g>
              <path class="cls-4" d="M279.8,247.27l3.8,27.53-59.12,8.13c-9.63,1.31-17.49,1.03-23.6-.84-6.11-1.87-10.78-5.55-14.03-11.07-3.24-5.51-5.39-13.18-6.45-23.01l-9.39-87.22,24.32-2.24,9.39,87.22c.37,3.45.97,5.96,1.79,7.52.82,1.57,2.31,2.46,4.47,2.68,2.16.22,5.4.03,9.7-.58l59.12-8.13ZM194.34,225.83l-6.91-25.35c14.52-4.19,28.47-9.25,41.83-15.18,13.36-5.93,26.36-12.8,39.01-20.62l12.41,24.52c-13.35,8.2-27.27,15.24-41.75,21.11-14.49,5.88-29.35,11.05-44.58,15.51Z"/>
              <path class="cls-4" d="M407.83,181.94l2.8,26.04-102.23,9.41-2.8-26.04,102.23-9.41ZM403.53,139.4l2.8,26.04-91.74,8.44-2.8-26.04,91.74-8.44ZM334.89,275.63l-3.8-27.53c11.19-1.45,20.57-3.56,28.13-6.31,7.56-2.76,13.66-5.93,18.3-9.53,4.64-3.6,8.16-7.41,10.56-11.43,2.4-4.02,4.02-8.03,4.85-12.01.83-3.98,1.19-7.74,1.09-11.27-.1-3.53-.29-6.55-.56-9.06l-.56-5.18,24.31-2.24.56,5.18c1.83,17.05-.12,31.78-5.85,44.19-5.73,12.41-15.08,22.41-28.03,29.99-12.95,7.58-29.29,12.65-49.01,15.21Z"/>
              <path class="cls-4" d="M461.91,264.42l-14.89-23.03c14.36-10.93,26.46-22.48,36.32-34.63,9.85-12.16,17.68-25.23,23.47-39.23,5.8-14,9.71-29.23,11.76-45.68l24.95,4.99c-3.55,28.42-11.99,53.89-25.33,76.4-13.34,22.51-32.1,42.91-56.27,61.19ZM566.16,221.87l-13.49,22.47c-16.56-12.95-33.21-25.54-49.97-37.78-16.76-12.24-33.93-24-51.51-35.26l11.38-23.86c17.97,11.44,35.57,23.45,52.78,36.02,17.21,12.57,34.14,25.38,50.8,38.42Z"/>
              <path class="cls-4" d="M665.48,229.72l-7.83-18.62c4.72-2.23,8.57-4.99,11.56-8.29,2.99-3.29,5.12-7.06,6.38-11.3,1.27-4.24,1.63-8.86,1.09-13.87-.62-5.74-2.17-10.61-4.65-14.63-2.48-4.01-5.89-6.99-10.23-8.91-4.34-1.93-9.61-2.61-15.8-2.04-4.77.44-9,1.69-12.69,3.74-3.7,2.05-6.79,4.75-9.26,8.07-2.48,3.33-4.24,7.21-5.27,11.63s-1.27,9.22-.71,14.39c.37,3.48,1.12,6.59,2.24,9.34,1.12,2.75,2.39,4.88,3.81,6.38,1.42,1.5,2.81,2.19,4.16,2.07,1.21-.11,2.33-1.09,3.35-2.94s1.94-4.36,2.75-7.54c.81-3.18,1.48-6.83,2-10.96.53-4.13.84-8.52.95-13.18.11-4.66,0-9.43-.35-14.29-.34-4.87-.94-9.58-1.79-14.16l18.58-3.67c1.32,6.9,2.19,13.8,2.6,20.69.42,6.9.4,13.57-.06,20.02-.46,6.45-1.35,12.47-2.69,18.06-1.34,5.59-3.07,10.5-5.21,14.74-2.13,4.23-4.69,7.64-7.69,10.19-3,2.56-6.38,4.01-10.15,4.36-5.05.46-9.79-.67-14.22-3.4-4.43-2.73-8.16-6.98-11.18-12.74-3.03-5.76-4.99-12.84-5.9-21.25-.7-6.54-.56-12.76.42-18.64.98-5.88,2.74-11.27,5.27-16.15,2.53-4.88,5.69-9.2,9.5-12.93,3.8-3.74,8.17-6.73,13.1-8.98,4.93-2.25,10.32-3.64,16.15-4.18,9.61-.88,18.11.46,25.5,4.02,7.39,3.56,13.35,8.89,17.89,15.98,4.54,7.09,7.33,15.48,8.37,25.18.66,6.14.48,11.97-.54,17.49-1.02,5.52-2.81,10.6-5.37,15.25-2.56,4.64-5.87,8.76-9.94,12.36-4.07,3.6-8.79,6.5-14.15,8.71Z"/>
              <path class="cls-4" d="M733.46,177.48c-2.48-9.17-5.21-18.19-8.21-27.05-3-8.86-6.27-17.62-9.8-26.27l22.14-10.75c3.68,9.17,7.1,18.41,10.24,27.73,3.14,9.32,6.06,18.72,8.75,28.19l-23.12,8.15ZM834.17,126.7c1.11,13.74.92,26.06-.56,36.97-1.48,10.91-4.23,20.54-8.26,28.88-4.03,8.35-9.4,15.5-16.11,21.45-6.71,5.95-14.83,10.84-24.37,14.68-9.54,3.83-20.49,6.69-32.84,8.57l-4.35-27.48c9.79-1.53,18.35-3.62,25.7-6.25,7.34-2.63,13.56-6.05,18.64-10.27,5.08-4.21,9.08-9.36,12.01-15.44,2.93-6.08,4.85-13.25,5.78-21.52.92-8.27.94-17.8.06-28.6l24.31-.97ZM770.43,169.64c-2.48-9.17-5.21-18.19-8.21-27.05-3-8.86-6.27-17.62-9.8-26.27l22.14-10.75c3.68,9.17,7.1,18.41,10.24,27.73,3.14,9.32,6.06,18.72,8.75,28.19l-23.12,8.15ZM810.41,122.39c-2.43-5.27-4.61-9.74-6.54-13.42-1.93-3.68-3.86-7.12-5.79-10.32l11.83-8.06c2.49,4.1,4.87,8.29,7.14,12.57,2.27,4.28,4.38,8.55,6.33,12.8l-12.98,6.42ZM831.91,118.67c-2.35-5.38-4.49-9.94-6.42-13.67-1.94-3.73-3.82-7.15-5.64-10.25l11.54-8.19c2.59,4.2,4.96,8.5,7.11,12.89,2.15,4.4,4.19,8.72,6.14,12.98l-12.72,6.24Z"/>
              <path class="cls-4" d="M893.14,175.45l-19.71-17.2c4.88-7.31,8.88-14.76,11.97-22.33,3.09-7.57,5.41-15.39,6.96-23.46,1.55-8.06,2.42-16.43,2.6-25.11l24.37,3.46c-.2,10.26-1.29,20.24-3.27,29.93-1.98,9.69-4.85,19.09-8.62,28.2-3.76,9.11-8.53,17.95-14.31,26.51ZM989.94,100l2.8,26.04-89.53,8.24-2.8-26.04,89.53-8.24ZM912.31,222.65l-6.25-26.99c6.43-1.65,11.93-3.66,16.51-6.04,4.58-2.37,8.28-5.38,11.1-9.02,2.82-3.64,4.89-8.11,6.23-13.41,1.33-5.3,2.02-11.65,2.07-19.04.04-7.4-.47-16.06-1.54-26l24.32-2.24c1.35,12.55,1.84,23.81,1.47,33.77-.37,9.96-1.68,18.75-3.93,26.34-2.25,7.6-5.57,14.17-9.95,19.69-4.38,5.53-9.88,10.15-16.51,13.88-6.62,3.72-14.46,6.74-23.51,9.06Z"/>
              <path class="cls-4" d="M1149.52,84.21l2.46,22.9-126,11.6-2.46-22.9,126-11.6ZM1156.28,146.96l2.46,22.9-126,11.6-2.46-22.9,126-11.6ZM1051.57,216.32l-15.04-20.48c4.06-3.75,7.4-7.7,10.03-11.85,2.62-4.15,4.56-8.82,5.82-14,1.26-5.18,1.9-11.29,1.94-18.32.03-7.03-.46-15.3-1.48-24.82l-5.91-54.91,22.93-2.11,5.91,54.91c1.25,11.61,1.76,21.94,1.52,30.99-.24,9.05-1.29,17.15-3.18,24.29s-4.67,13.66-8.36,19.54c-3.69,5.88-8.42,11.47-14.17,16.75ZM1115.69,138.02l-16.19,18.12c-4.35-5.83-8.51-10.83-12.5-15.01-3.99-4.17-8.35-8.42-13.09-12.74l14.96-17.85c5.11,4.28,9.82,8.52,14.14,12.72,4.31,4.2,8.54,9.12,12.68,14.75ZM1106.01,66.19l22.93-2.11,15.29,142.13-22.93,2.11-15.29-142.13Z"/>
            </g>
            <g>
              <path class="cls-4" d="M279.8,247.27l3.8,27.53-59.12,8.13c-9.63,1.31-17.49,1.03-23.6-.84-6.11-1.87-10.78-5.55-14.03-11.07-3.24-5.51-5.39-13.18-6.45-23.01l-9.39-87.22,24.32-2.24,9.39,87.22c.37,3.45.97,5.96,1.79,7.52.82,1.57,2.31,2.46,4.47,2.68,2.16.22,5.4.03,9.7-.58l59.12-8.13ZM194.34,225.83l-6.91-25.35c14.52-4.19,28.47-9.25,41.83-15.18,13.36-5.93,26.36-12.8,39.01-20.62l12.41,24.52c-13.35,8.2-27.27,15.24-41.75,21.11-14.49,5.88-29.35,11.05-44.58,15.51Z"/>
              <path class="cls-4" d="M407.83,181.94l2.8,26.04-102.23,9.41-2.8-26.04,102.23-9.41ZM403.53,139.4l2.8,26.04-91.74,8.44-2.8-26.04,91.74-8.44ZM334.89,275.63l-3.8-27.53c11.19-1.45,20.57-3.56,28.13-6.31,7.56-2.76,13.66-5.93,18.3-9.53,4.64-3.6,8.16-7.41,10.56-11.43,2.4-4.02,4.02-8.03,4.85-12.01.83-3.98,1.19-7.74,1.09-11.27-.1-3.53-.29-6.55-.56-9.06l-.56-5.18,24.31-2.24.56,5.18c1.83,17.05-.12,31.78-5.85,44.19-5.73,12.41-15.08,22.41-28.03,29.99-12.95,7.58-29.29,12.65-49.01,15.21Z"/>
              <path class="cls-4" d="M461.91,264.42l-14.89-23.03c14.36-10.93,26.46-22.48,36.32-34.63,9.85-12.16,17.68-25.23,23.47-39.23,5.8-14,9.71-29.23,11.76-45.68l24.95,4.99c-3.55,28.42-11.99,53.89-25.33,76.4-13.34,22.51-32.1,42.91-56.27,61.19ZM566.16,221.87l-13.49,22.47c-16.56-12.95-33.21-25.54-49.97-37.78-16.76-12.24-33.93-24-51.51-35.26l11.38-23.86c17.97,11.44,35.57,23.45,52.78,36.02,17.21,12.57,34.14,25.38,50.8,38.42Z"/>
              <path class="cls-4" d="M665.48,229.72l-7.83-18.62c4.72-2.23,8.57-4.99,11.56-8.29,2.99-3.29,5.12-7.06,6.38-11.3,1.27-4.24,1.63-8.86,1.09-13.87-.62-5.74-2.17-10.61-4.65-14.63-2.48-4.01-5.89-6.99-10.23-8.91-4.34-1.93-9.61-2.61-15.8-2.04-4.77.44-9,1.69-12.69,3.74-3.7,2.05-6.79,4.75-9.26,8.07-2.48,3.33-4.24,7.21-5.27,11.63s-1.27,9.22-.71,14.39c.37,3.48,1.12,6.59,2.24,9.34,1.12,2.75,2.39,4.88,3.81,6.38,1.42,1.5,2.81,2.19,4.16,2.07,1.21-.11,2.33-1.09,3.35-2.94s1.94-4.36,2.75-7.54c.81-3.18,1.48-6.83,2-10.96.53-4.13.84-8.52.95-13.18.11-4.66,0-9.43-.35-14.29-.34-4.87-.94-9.58-1.79-14.16l18.58-3.67c1.32,6.9,2.19,13.8,2.6,20.69.42,6.9.4,13.57-.06,20.02-.46,6.45-1.35,12.47-2.69,18.06-1.34,5.59-3.07,10.5-5.21,14.74-2.13,4.23-4.69,7.64-7.69,10.19-3,2.56-6.38,4.01-10.15,4.36-5.05.46-9.79-.67-14.22-3.4-4.43-2.73-8.16-6.98-11.18-12.74-3.03-5.76-4.99-12.84-5.9-21.25-.7-6.54-.56-12.76.42-18.64.98-5.88,2.74-11.27,5.27-16.15,2.53-4.88,5.69-9.2,9.5-12.93,3.8-3.74,8.17-6.73,13.1-8.98,4.93-2.25,10.32-3.64,16.15-4.18,9.61-.88,18.11.46,25.5,4.02,7.39,3.56,13.35,8.89,17.89,15.98,4.54,7.09,7.33,15.48,8.37,25.18.66,6.14.48,11.97-.54,17.49-1.02,5.52-2.81,10.6-5.37,15.25-2.56,4.64-5.87,8.76-9.94,12.36-4.07,3.6-8.79,6.5-14.15,8.71Z"/>
              <path class="cls-4" d="M733.46,177.48c-2.48-9.17-5.21-18.19-8.21-27.05-3-8.86-6.27-17.62-9.8-26.27l22.14-10.75c3.68,9.17,7.1,18.41,10.24,27.73,3.14,9.32,6.06,18.72,8.75,28.19l-23.12,8.15ZM834.17,126.7c1.11,13.74.92,26.06-.56,36.97-1.48,10.91-4.23,20.54-8.26,28.88-4.03,8.35-9.4,15.5-16.11,21.45-6.71,5.95-14.83,10.84-24.37,14.68-9.54,3.83-20.49,6.69-32.84,8.57l-4.35-27.48c9.79-1.53,18.35-3.62,25.7-6.25,7.34-2.63,13.56-6.05,18.64-10.27,5.08-4.21,9.08-9.36,12.01-15.44,2.93-6.08,4.85-13.25,5.78-21.52.92-8.27.94-17.8.06-28.6l24.31-.97ZM770.43,169.64c-2.48-9.17-5.21-18.19-8.21-27.05-3-8.86-6.27-17.62-9.8-26.27l22.14-10.75c3.68,9.17,7.1,18.41,10.24,27.73,3.14,9.32,6.06,18.72,8.75,28.19l-23.12,8.15ZM810.41,122.39c-2.43-5.27-4.61-9.74-6.54-13.42-1.93-3.68-3.86-7.12-5.79-10.32l11.83-8.06c2.49,4.1,4.87,8.29,7.14,12.57,2.27,4.28,4.38,8.55,6.33,12.8l-12.98,6.42ZM831.91,118.67c-2.35-5.38-4.49-9.94-6.42-13.67-1.94-3.73-3.82-7.15-5.64-10.25l11.54-8.19c2.59,4.2,4.96,8.5,7.11,12.89,2.15,4.4,4.19,8.72,6.14,12.98l-12.72,6.24Z"/>
              <path class="cls-4" d="M893.14,175.45l-19.71-17.2c4.88-7.31,8.88-14.76,11.97-22.33,3.09-7.57,5.41-15.39,6.96-23.46,1.55-8.06,2.42-16.43,2.6-25.11l24.37,3.46c-.2,10.26-1.29,20.24-3.27,29.93-1.98,9.69-4.85,19.09-8.62,28.2-3.76,9.11-8.53,17.95-14.31,26.51ZM989.94,100l2.8,26.04-89.53,8.24-2.8-26.04,89.53-8.24ZM912.31,222.65l-6.25-26.99c6.43-1.65,11.93-3.66,16.51-6.04,4.58-2.37,8.28-5.38,11.1-9.02,2.82-3.64,4.89-8.11,6.23-13.41,1.33-5.3,2.02-11.65,2.07-19.04.04-7.4-.47-16.06-1.54-26l24.32-2.24c1.35,12.55,1.84,23.81,1.47,33.77-.37,9.96-1.68,18.75-3.93,26.34-2.25,7.6-5.57,14.17-9.95,19.69-4.38,5.53-9.88,10.15-16.51,13.88-6.62,3.72-14.46,6.74-23.51,9.06Z"/>
              <path class="cls-4" d="M1149.52,84.21l2.46,22.9-126,11.6-2.46-22.9,126-11.6ZM1156.28,146.96l2.46,22.9-126,11.6-2.46-22.9,126-11.6ZM1051.57,216.32l-15.04-20.48c4.06-3.75,7.4-7.7,10.03-11.85,2.62-4.15,4.56-8.82,5.82-14,1.26-5.18,1.9-11.29,1.94-18.32.03-7.03-.46-15.3-1.48-24.82l-5.91-54.91,22.93-2.11,5.91,54.91c1.25,11.61,1.76,21.94,1.52,30.99-.24,9.05-1.29,17.15-3.18,24.29s-4.67,13.66-8.36,19.54c-3.69,5.88-8.42,11.47-14.17,16.75ZM1115.69,138.02l-16.19,18.12c-4.35-5.83-8.51-10.83-12.5-15.01-3.99-4.17-8.35-8.42-13.09-12.74l14.96-17.85c5.11,4.28,9.82,8.52,14.14,12.72,4.31,4.2,8.54,9.12,12.68,14.75ZM1106.01,66.19l22.93-2.11,15.29,142.13-22.93,2.11-15.29-142.13Z"/>
            </g>
          </g>
        </g>
        <rect class="cls-3" x="90.41" y="274.86" width="1143.87" height="137.11" transform="translate(-25.53 54.52) rotate(-4.62)"/>
        <g>
          <g>
            <path class="cls-4" d="M273.9,326.31c7.8-.63,14.44.98,19.91,4.82,5.47,3.84,9.8,9.25,12.97,16.23,3.17,6.97,5.11,14.88,5.82,23.7.81,9.96.15,19.02-1.95,27.2-2.11,8.18-5.51,15.22-10.19,21.12-4.69,5.91-10.47,10.51-17.35,13.8-6.88,3.29-14.74,5.04-23.56,5.24l-1.91-23.55c5.52-.14,10.46-.9,14.81-2.28,4.35-1.38,7.97-3.67,10.85-6.84,2.88-3.18,4.9-7.39,6.04-12.65l-.37.03c-1.74,2-3.96,3.65-6.66,4.96-2.71,1.3-5.7,2.09-8.98,2.35-5.17.42-9.93-.62-14.26-3.11-4.33-2.49-7.9-6.23-10.7-11.22-2.8-4.99-4.49-11.08-5.07-18.26-.61-7.59.26-14.43,2.62-20.51,2.36-6.08,5.93-10.96,10.71-14.66,4.78-3.69,10.54-5.81,17.27-6.36ZM275.6,348.95c-1.72.14-3.24.83-4.54,2.07-1.3,1.24-2.26,2.97-2.87,5.19-.61,2.22-.78,4.87-.53,7.95.21,2.57.75,4.95,1.63,7.15.88,2.2,2.11,3.91,3.7,5.12,1.58,1.21,3.53,1.73,5.83,1.54,1.31-.11,2.55-.44,3.7-1,1.15-.56,2.21-1.31,3.16-2.27.96-.95,1.71-2.02,2.28-3.21.24-3.12-.03-6.48-.82-10.08-.79-3.6-2.11-6.65-3.96-9.13-1.85-2.48-4.38-3.6-7.58-3.34Z"/>
            <path class="cls-4" d="M358.15,421.86l-7.65-9.34c.72-1.44,1.31-2.86,1.77-4.23s.81-2.9,1.03-4.58c.22-1.68.32-3.64.3-5.9-.03-2.25-.17-5-.43-8.25l-2.22-27.4,51.11-4.13.84,10.34-40.71,3.29,1.38,17.06c.43,5.37.55,9.98.35,13.83-.21,3.86-.77,7.3-1.69,10.32-.92,3.02-2.28,6.02-4.06,8.99ZM405.03,419.11l-9.81.79-1.7-21.05-19.97,1.62,1.7,21.05-9.81.79-2.51-31.09,39.58-3.2,2.51,31.09ZM398.59,407.07l.75,9.31-28.6,2.31-.75-9.31,28.6-2.31ZM381.91,362.7l-10.4.84-.93-11.52,10.4-.84.93,11.52ZM387.03,392.17l-10.4.84-2.16-26.73,10.4-.84,2.16,26.73ZM402.34,372.65l.81,10.04-21.09,1.71-.81-10.04,21.09-1.71Z"/>
            <path class="cls-4" d="M416.47,376.72l-2.96-12.4c.89-1.21,2.09-2.93,3.6-5.16,1.5-2.23,3.04-4.64,4.62-7.25l9.81-.79c1.97,2.32,3.93,4.49,5.88,6.51,1.95,2.02,3.73,3.71,5.35,5.07l-3.12,10.73c-2.89-2.94-5.52-5.71-7.87-8.32-2.35-2.61-4.64-5.21-6.88-7.81l4.37-.35c-1.79,2.92-3.65,5.92-5.61,9-1.95,3.08-4.35,6.67-7.19,10.77ZM441.29,381.47l.81,10.04-23.81,1.93-.81-10.04,23.81-1.93ZM444.13,418.04l-8.63.7-1.25-15.43-6.85.55,1.25,15.43-8.62.7-2-24.74,24.1-1.95,2,24.74ZM438.62,370.54l.75,9.31-20.26,1.64-.75-9.31,20.26-1.64ZM434.15,387.25l-9.22.75-1.8-22.3,9.22-.75,1.8,22.3ZM438.86,406.57l.75,9.31-15.48,1.25-.75-9.31,15.48-1.25ZM440.27,365.2l-.87-9.97,31.73-2.57.81,9.97-31.67,2.56ZM445.63,418.96l-4.04-50,29.66-2.4,3.14,38.85c.22,2.71.27,4.9.15,6.57-.12,1.67-.48,2.9-1.07,3.69-.59.79-1.46,1.23-2.6,1.33-1.18.1-2.35.15-3.49.17-1.15.02-2.1,0-2.86-.03l-.96-9.66c.44.01.81.03,1.13.06.32.02.62.02.89,0,.16-.01.31-.07.46-.19.15-.11.26-.33.33-.66.07-.33.09-.79.04-1.38l-2.3-28.43-13.83,1.12,3.26,40.32-7.92.64ZM446.97,391.35l-.69-8.57,22.33-1.81.69,8.57-22.33,1.81ZM448.13,404.19l-.69-8.57,22.21-1.8.69,8.57-22.21,1.8ZM456.07,414.92l-5.33-65.95,8.27-.67,5.33,65.95-8.27.67ZM470.47,355.4l-6.32,2c-.55-1.39-1.12-2.76-1.7-4.1-.58-1.34-1.21-2.68-1.87-4.01l5.89-2.86c.75,1.48,1.46,2.97,2.12,4.48.66,1.51,1.28,3.01,1.88,4.49Z"/>
            <path class="cls-4" d="M513.45,345.04l-1.13-13.96,40.7-3.29,1.13,13.96-40.7,3.29ZM515.43,328.11l-1.01-12.5,34.03-2.75,1.01,12.5-34.03,2.75ZM518.14,359.34l-.96-11.88,33.68-2.72.96,11.88-33.68,2.72ZM519.32,373.93l-.96-11.87,33.68-2.72.96,11.87-33.68,2.72ZM533.59,408.52l-12.28.99-2.65-32.81,35.44-2.87,2.39,29.58-24.56,1.99-.99-12.29,13.16-1.06-.4-5-11.75.95,1.66,20.52ZM596.25,337.19l1.31,16.25-43.33,3.51-1.31-16.25,43.33-3.51ZM588.41,403.98l-15.44,1.25-7.75-95.83,15.44-1.25,7.75,95.83Z"/>
            <path class="cls-4" d="M659.48,328.63l-.37.03-19.86,11.91-1.87-23.11,25.08-16.31,18.72-1.51,8.23,101.79-23.89,1.93-6.04-74.73Z"/>
            <path class="cls-4" d="M713.87,417.11l.64-45.68,23.65-1.91-6.07,49.07-18.22-1.47Z"/>
            <path class="cls-4" d="M771.8,319.54l-.37.03-19.86,11.91-1.87-23.11,25.08-16.31,18.72-1.51,8.23,101.79-23.89,1.93-6.04-74.73Z"/>
            <path class="cls-4" d="M842.12,313.85l-.37.03-19.86,11.91-1.87-23.11,25.08-16.31,18.72-1.51,8.23,101.79-23.89,1.93-6.04-74.73Z"/>
            <path class="cls-4" d="M930.94,383.65c-7.88.64-14.55-1.15-20.02-5.37-5.47-4.22-9.75-10.2-12.86-17.95-3.11-7.75-5.06-16.54-5.85-26.39-.79-9.75-.27-18.67,1.55-26.77,1.82-8.1,5.09-14.67,9.81-19.71,4.71-5.04,11.01-7.88,18.9-8.52,7.88-.64,14.55,1.15,20.02,5.37,5.46,4.22,9.73,10.18,12.79,17.88,3.06,7.7,4.99,16.43,5.77,26.18.8,9.85.3,18.84-1.47,26.98-1.78,8.14-5.03,14.74-9.74,19.78-4.72,5.04-11.01,7.88-18.9,8.52ZM929.13,361.28c2.3-.19,4.09-1.29,5.37-3.31,1.28-2.02,2.07-5.25,2.38-9.69s.15-10.41-.46-17.92c-.6-7.41-1.41-13.28-2.42-17.62-1.01-4.33-2.31-7.39-3.9-9.18-1.59-1.79-3.54-2.58-5.83-2.4-2.3.19-4.09,1.29-5.37,3.3-1.28,2.02-2.1,5.25-2.44,9.69-.34,4.44-.21,10.37.38,17.78.61,7.51,1.44,13.43,2.49,17.76,1.05,4.33,2.37,7.39,3.97,9.17,1.59,1.79,3.53,2.58,5.83,2.4Z"/>
            <path class="cls-4" d="M995.93,307.38l-5.99-17.34c5.1-2.44,10.56-5.31,16.39-8.61,5.83-3.3,11.59-6.76,17.31-10.36l16.49-1.33c6.22,2.64,12.46,5.12,18.75,7.45,6.28,2.32,12.13,4.28,17.56,5.87l-3.13,18.08c-6.71-2.95-13.45-5.99-20.2-9.11-6.76-3.12-13.53-6.65-20.32-10.57-6.07,4.96-12.19,9.53-18.36,13.7-6.17,4.17-12.33,8.25-18.48,12.24ZM1001.05,370.6l-2.63-15.09c6.94-.84,13.91-1.93,20.93-3.26,7.01-1.34,14.18-2.96,21.5-4.88l2.63,15.09c-7.32,1.92-14.49,3.55-21.5,4.89-7.01,1.33-13.99,2.42-20.92,3.26ZM1007.64,361.58l-5.23-64.68,61.75-5,3.39,41.87-52.89,4.28-.89-11.04,37.45-3.03-1.52-18.75-30.88,2.5,4.25,52.6-15.44,1.25ZM1013.5,322.63l-.81-10,43.86-3.55.81,10-43.86,3.55ZM1026.58,301.02l-1.09-13.44,15.44-1.25,1.09,13.44-15.44,1.25ZM1072.67,365.44c-4.48-1.59-8.65-3.22-12.49-4.86-3.84-1.65-7.5-3.53-10.97-5.67-3.47-2.13-6.87-4.77-10.22-7.93-3.34-3.15-6.79-7.03-10.34-11.64l17.37-1.4c4.9,4.5,10.1,8.08,15.61,10.74,5.51,2.67,11.83,4.41,18.96,5.23l-7.93,15.53ZM1067.98,352.19l-10.63-9.21c1.76-2.24,3.37-4.55,4.82-6.94,1.45-2.39,2.63-4.56,3.53-6.52l11.57,7.66c-1.37,2.7-2.82,5.31-4.35,7.85-1.53,2.54-3.18,4.92-4.94,7.16Z"/>
          </g>
          <g>
            <path class="cls-4" d="M273.9,326.31c7.8-.63,14.44.98,19.91,4.82,5.47,3.84,9.8,9.25,12.97,16.23,3.17,6.97,5.11,14.88,5.82,23.7.81,9.96.15,19.02-1.95,27.2-2.11,8.18-5.51,15.22-10.19,21.12-4.69,5.91-10.47,10.51-17.35,13.8-6.88,3.29-14.74,5.04-23.56,5.24l-1.91-23.55c5.52-.14,10.46-.9,14.81-2.28,4.35-1.38,7.97-3.67,10.85-6.84,2.88-3.18,4.9-7.39,6.04-12.65l-.37.03c-1.74,2-3.96,3.65-6.66,4.96-2.71,1.3-5.7,2.09-8.98,2.35-5.17.42-9.93-.62-14.26-3.11-4.33-2.49-7.9-6.23-10.7-11.22-2.8-4.99-4.49-11.08-5.07-18.26-.61-7.59.26-14.43,2.62-20.51,2.36-6.08,5.93-10.96,10.71-14.66,4.78-3.69,10.54-5.81,17.27-6.36ZM275.6,348.95c-1.72.14-3.24.83-4.54,2.07-1.3,1.24-2.26,2.97-2.87,5.19-.61,2.22-.78,4.87-.53,7.95.21,2.57.75,4.95,1.63,7.15.88,2.2,2.11,3.91,3.7,5.12,1.58,1.21,3.53,1.73,5.83,1.54,1.31-.11,2.55-.44,3.7-1,1.15-.56,2.21-1.31,3.16-2.27.96-.95,1.71-2.02,2.28-3.21.24-3.12-.03-6.48-.82-10.08-.79-3.6-2.11-6.65-3.96-9.13-1.85-2.48-4.38-3.6-7.58-3.34Z"/>
            <path class="cls-4" d="M358.15,421.86l-7.65-9.34c.72-1.44,1.31-2.86,1.77-4.23s.81-2.9,1.03-4.58c.22-1.68.32-3.64.3-5.9-.03-2.25-.17-5-.43-8.25l-2.22-27.4,51.11-4.13.84,10.34-40.71,3.29,1.38,17.06c.43,5.37.55,9.98.35,13.83-.21,3.86-.77,7.3-1.69,10.32-.92,3.02-2.28,6.02-4.06,8.99ZM405.03,419.11l-9.81.79-1.7-21.05-19.97,1.62,1.7,21.05-9.81.79-2.51-31.09,39.58-3.2,2.51,31.09ZM398.59,407.07l.75,9.31-28.6,2.31-.75-9.31,28.6-2.31ZM381.91,362.7l-10.4.84-.93-11.52,10.4-.84.93,11.52ZM387.03,392.17l-10.4.84-2.16-26.73,10.4-.84,2.16,26.73ZM402.34,372.65l.81,10.04-21.09,1.71-.81-10.04,21.09-1.71Z"/>
            <path class="cls-4" d="M416.47,376.72l-2.96-12.4c.89-1.21,2.09-2.93,3.6-5.16,1.5-2.23,3.04-4.64,4.62-7.25l9.81-.79c1.97,2.32,3.93,4.49,5.88,6.51,1.95,2.02,3.73,3.71,5.35,5.07l-3.12,10.73c-2.89-2.94-5.52-5.71-7.87-8.32-2.35-2.61-4.64-5.21-6.88-7.81l4.37-.35c-1.79,2.92-3.65,5.92-5.61,9-1.95,3.08-4.35,6.67-7.19,10.77ZM441.29,381.47l.81,10.04-23.81,1.93-.81-10.04,23.81-1.93ZM444.13,418.04l-8.63.7-1.25-15.43-6.85.55,1.25,15.43-8.62.7-2-24.74,24.1-1.95,2,24.74ZM438.62,370.54l.75,9.31-20.26,1.64-.75-9.31,20.26-1.64ZM434.15,387.25l-9.22.75-1.8-22.3,9.22-.75,1.8,22.3ZM438.86,406.57l.75,9.31-15.48,1.25-.75-9.31,15.48-1.25ZM440.27,365.2l-.87-9.97,31.73-2.57.81,9.97-31.67,2.56ZM445.63,418.96l-4.04-50,29.66-2.4,3.14,38.85c.22,2.71.27,4.9.15,6.57-.12,1.67-.48,2.9-1.07,3.69-.59.79-1.46,1.23-2.6,1.33-1.18.1-2.35.15-3.49.17-1.15.02-2.1,0-2.86-.03l-.96-9.66c.44.01.81.03,1.13.06.32.02.62.02.89,0,.16-.01.31-.07.46-.19.15-.11.26-.33.33-.66.07-.33.09-.79.04-1.38l-2.3-28.43-13.83,1.12,3.26,40.32-7.92.64ZM446.97,391.35l-.69-8.57,22.33-1.81.69,8.57-22.33,1.81ZM448.13,404.19l-.69-8.57,22.21-1.8.69,8.57-22.21,1.8ZM456.07,414.92l-5.33-65.95,8.27-.67,5.33,65.95-8.27.67ZM470.47,355.4l-6.32,2c-.55-1.39-1.12-2.76-1.7-4.1-.58-1.34-1.21-2.68-1.87-4.01l5.89-2.86c.75,1.48,1.46,2.97,2.12,4.48.66,1.51,1.28,3.01,1.88,4.49Z"/>
            <path class="cls-4" d="M513.45,345.04l-1.13-13.96,40.7-3.29,1.13,13.96-40.7,3.29ZM515.43,328.11l-1.01-12.5,34.03-2.75,1.01,12.5-34.03,2.75ZM518.14,359.34l-.96-11.88,33.68-2.72.96,11.88-33.68,2.72ZM519.32,373.93l-.96-11.87,33.68-2.72.96,11.87-33.68,2.72ZM533.59,408.52l-12.28.99-2.65-32.81,35.44-2.87,2.39,29.58-24.56,1.99-.99-12.29,13.16-1.06-.4-5-11.75.95,1.66,20.52ZM596.25,337.19l1.31,16.25-43.33,3.51-1.31-16.25,43.33-3.51ZM588.41,403.98l-15.44,1.25-7.75-95.83,15.44-1.25,7.75,95.83Z"/>
            <path class="cls-4" d="M659.48,328.63l-.37.03-19.86,11.91-1.87-23.11,25.08-16.31,18.72-1.51,8.23,101.79-23.89,1.93-6.04-74.73Z"/>
            <path class="cls-4" d="M713.87,417.11l.64-45.68,23.65-1.91-6.07,49.07-18.22-1.47Z"/>
            <path class="cls-4" d="M771.8,319.54l-.37.03-19.86,11.91-1.87-23.11,25.08-16.31,18.72-1.51,8.23,101.79-23.89,1.93-6.04-74.73Z"/>
            <path class="cls-4" d="M842.12,313.85l-.37.03-19.86,11.91-1.87-23.11,25.08-16.31,18.72-1.51,8.23,101.79-23.89,1.93-6.04-74.73Z"/>
            <path class="cls-4" d="M930.94,383.65c-7.88.64-14.55-1.15-20.02-5.37-5.47-4.22-9.75-10.2-12.86-17.95-3.11-7.75-5.06-16.54-5.85-26.39-.79-9.75-.27-18.67,1.55-26.77,1.82-8.1,5.09-14.67,9.81-19.71,4.71-5.04,11.01-7.88,18.9-8.52,7.88-.64,14.55,1.15,20.02,5.37,5.46,4.22,9.73,10.18,12.79,17.88,3.06,7.7,4.99,16.43,5.77,26.18.8,9.85.3,18.84-1.47,26.98-1.78,8.14-5.03,14.74-9.74,19.78-4.72,5.04-11.01,7.88-18.9,8.52ZM929.13,361.28c2.3-.19,4.09-1.29,5.37-3.31,1.28-2.02,2.07-5.25,2.38-9.69s.15-10.41-.46-17.92c-.6-7.41-1.41-13.28-2.42-17.62-1.01-4.33-2.31-7.39-3.9-9.18-1.59-1.79-3.54-2.58-5.83-2.4-2.3.19-4.09,1.29-5.37,3.3-1.28,2.02-2.1,5.25-2.44,9.69-.34,4.44-.21,10.37.38,17.78.61,7.51,1.44,13.43,2.49,17.76,1.05,4.33,2.37,7.39,3.97,9.17,1.59,1.79,3.53,2.58,5.83,2.4Z"/>
            <path class="cls-4" d="M995.93,307.38l-5.99-17.34c5.1-2.44,10.56-5.31,16.39-8.61,5.83-3.3,11.59-6.76,17.31-10.36l16.49-1.33c6.22,2.64,12.46,5.12,18.75,7.45,6.28,2.32,12.13,4.28,17.56,5.87l-3.13,18.08c-6.71-2.95-13.45-5.99-20.2-9.11-6.76-3.12-13.53-6.65-20.32-10.57-6.07,4.96-12.19,9.53-18.36,13.7-6.17,4.17-12.33,8.25-18.48,12.24ZM1001.05,370.6l-2.63-15.09c6.94-.84,13.91-1.93,20.93-3.26,7.01-1.34,14.18-2.96,21.5-4.88l2.63,15.09c-7.32,1.92-14.49,3.55-21.5,4.89-7.01,1.33-13.99,2.42-20.92,3.26ZM1007.64,361.58l-5.23-64.68,61.75-5,3.39,41.87-52.89,4.28-.89-11.04,37.45-3.03-1.52-18.75-30.88,2.5,4.25,52.6-15.44,1.25ZM1013.5,322.63l-.81-10,43.86-3.55.81,10-43.86,3.55ZM1026.58,301.02l-1.09-13.44,15.44-1.25,1.09,13.44-15.44,1.25ZM1072.67,365.44c-4.48-1.59-8.65-3.22-12.49-4.86-3.84-1.65-7.5-3.53-10.97-5.67-3.47-2.13-6.87-4.77-10.22-7.93-3.34-3.15-6.79-7.03-10.34-11.64l17.37-1.4c4.9,4.5,10.1,8.08,15.61,10.74,5.51,2.67,11.83,4.41,18.96,5.23l-7.93,15.53ZM1067.98,352.19l-10.63-9.21c1.76-2.24,3.37-4.55,4.82-6.94,1.45-2.39,2.63-4.56,3.53-6.52l11.57,7.66c-1.37,2.7-2.82,5.31-4.35,7.85-1.53,2.54-3.18,4.92-4.94,7.16Z"/>
          </g>
        </g>
      </g>
    </g>
  </g>
</svg>