<?xml version="1.0" encoding="UTF-8"?>
<svg xmlns="http://www.w3.org/2000/svg" viewBox="0 0 1306.55 610.08">
  <defs>
    <style>
      .cls-1 {
        mix-blend-mode: multiply;
        opacity: .75;
      }

      .cls-2 {
        isolation: isolate;
      }

      .cls-3 {
        fill: #231815;
      }

      .cls-4 {
        fill: #fff;
      }

      .cls-5 {
        fill: #006934;
      }

      .cls-6 {
        fill: none;
        stroke: #000;
        stroke-width: 42.79px;
      }
    </style>
  </defs>
  <g class="cls-2">
    <g id="_レイヤー_2" data-name="レイヤー_2">
      <g id="_レイヤー_1-2" data-name="レイヤー_1">
        <g>
          <polygon class="cls-6" points="1243.79 373.94 1271.95 369.63 1250.33 35.38 69.62 133.2 71.45 140.02 41.78 142.48 150.24 546.4 891.38 432.92 880.55 502.09 943.62 424.92 1244.11 378.91 1243.79 373.94"/>
          <polygon class="cls-5" points="1243.79 373.94 1271.95 369.63 1250.33 35.38 69.62 133.2 71.45 140.02 41.78 142.48 150.24 546.4 891.38 432.92 880.55 502.09 943.62 424.92 1244.11 378.91 1243.79 373.94"/>
        </g>
        <rect class="cls-3" x="90.41" y="274.86" width="1143.87" height="137.11" transform="translate(-25.53 54.52) rotate(-4.62)"/>
        <g class="cls-1">
          <g>
            <path class="cls-3" d="M173.5,238.85l2.09,19.29-37.64,4.92c-6.13.79-11.12.49-14.98-.89-3.86-1.38-6.78-4.02-8.78-7.92-2-3.89-3.27-9.28-3.83-16.17l-4.94-61.08,15.47-1.25,4.94,61.08c.2,2.42.54,4.18,1.05,5.28.5,1.1,1.44,1.75,2.81,1.93,1.37.18,3.43.09,6.17-.28l37.64-4.92ZM119.48,222.77l-4.09-17.8c9.27-2.74,18.18-6.1,26.74-10.07,8.55-3.97,16.89-8.61,25.01-13.91l7.59,17.3c-8.57,5.56-17.49,10.3-26.76,14.22-9.27,3.92-18.76,7.34-28.49,10.27Z"/>
            <path class="cls-3" d="M255.56,194.84l1.47,18.24-65.03,5.26-1.47-18.24,65.03-5.26ZM253.33,165.06l1.47,18.24-58.35,4.72-1.47-18.24,58.35-4.72ZM208.15,259.38l-2.09-19.29c7.12-.87,13.1-2.22,17.94-4.05,4.83-1.83,8.75-3.97,11.73-6.42,2.99-2.45,5.26-5.07,6.84-7.85,1.57-2.78,2.65-5.56,3.22-8.33.57-2.77.85-5.39.82-7.86-.02-2.47-.1-4.58-.25-6.34l-.29-3.62,15.47-1.25.29,3.62c.97,11.94-.44,22.2-4.23,30.8-3.79,8.6-9.84,15.46-18.15,20.6-8.31,5.13-18.75,8.46-31.3,10Z"/>
            <path class="cls-3" d="M288.94,253.17l-9.19-16.28c9.24-7.45,17.07-15.37,23.47-23.74s11.52-17.41,15.36-27.12c3.84-9.71,6.51-20.3,8-31.77l15.79,3.81c-2.58,19.82-8.24,37.5-16.98,53.06-8.74,15.56-20.88,29.57-36.45,42.03ZM355.63,224.78l-8.83,15.53c-10.36-9.26-20.79-18.28-31.29-27.05s-21.26-17.21-32.3-25.3l7.51-16.53c11.28,8.23,22.31,16.84,33.09,25.85,10.78,9.01,21.39,18.17,31.81,27.5Z"/>
            <path class="cls-3" d="M418.61,231.55l-4.75-13.11c3.02-1.5,5.5-3.38,7.44-5.64,1.93-2.26,3.33-4.87,4.19-7.81.86-2.94,1.14-6.17.86-9.68-.32-4.02-1.25-7.44-2.78-10.28-1.53-2.84-3.66-4.96-6.39-6.36-2.74-1.4-6.07-1.94-10.01-1.62-3.03.25-5.73,1.06-8.1,2.45-2.37,1.39-4.36,3.23-5.98,5.53-1.62,2.29-2.78,4.98-3.48,8.06-.71,3.08-.92,6.42-.62,10.04.2,2.43.63,4.62,1.32,6.56.68,1.94,1.46,3.44,2.35,4.51.88,1.07,1.75,1.57,2.62,1.5.77-.06,1.49-.73,2.16-2.01.67-1.28,1.28-3.02,1.83-5.23.55-2.21,1.02-4.75,1.4-7.63.38-2.88.63-5.95.76-9.2.12-3.25.1-6.59-.06-9.99-.16-3.41-.49-6.71-.97-9.92l11.84-2.33c.75,4.84,1.23,9.67,1.41,14.49.18,4.83.09,9.49-.27,13.99-.37,4.5-1.01,8.7-1.92,12.59-.92,3.89-2.08,7.3-3.48,10.23-1.4,2.93-3.07,5.27-5,7.03-1.93,1.75-4.1,2.72-6.5,2.92-3.21.26-6.21-.59-8.99-2.56-2.78-1.97-5.1-4.98-6.95-9.05-1.86-4.06-3.02-9.04-3.5-14.92-.37-4.58-.21-8.92.48-13.02.69-4.1,1.87-7.84,3.54-11.22,1.66-3.38,3.72-6.35,6.18-8.92,2.46-2.56,5.27-4.6,8.42-6.11,3.16-1.51,6.59-2.41,10.3-2.71,6.11-.5,11.49.55,16.14,3.14,4.65,2.59,8.38,6.39,11.17,11.4,2.8,5.01,4.47,10.92,5.02,17.7.35,4.3.17,8.37-.55,12.22-.71,3.85-1.91,7.37-3.59,10.58-1.68,3.21-3.83,6.05-6.45,8.51s-5.66,4.43-9.09,5.9Z"/>
            <path class="cls-3" d="M462.39,195.91c-1.46-6.44-3.1-12.78-4.9-19.01-1.8-6.23-3.77-12.39-5.92-18.48l14.19-7.23c2.23,6.45,4.29,12.96,6.18,19.51,1.89,6.56,3.63,13.16,5.23,19.81l-14.78,5.4ZM526.94,161.72c.54,9.61.28,18.22-.79,25.83-1.07,7.6-2.93,14.3-5.58,20.08-2.66,5.78-6.15,10.71-10.48,14.78-4.33,4.07-9.55,7.39-15.65,9.95-6.1,2.56-13.09,4.41-20.96,5.57l-2.44-19.26c6.23-.95,11.7-2.29,16.39-4.03,4.69-1.74,8.68-4.06,11.96-6.94,3.27-2.88,5.88-6.43,7.81-10.64,1.93-4.21,3.24-9.2,3.92-14.97.68-5.77.81-12.43.37-19.99l15.45-.37ZM485.96,190.91c-1.46-6.44-3.1-12.78-4.9-19.01-1.8-6.23-3.78-12.39-5.92-18.48l14.19-7.23c2.23,6.45,4.29,12.96,6.18,19.51,1.89,6.56,3.63,13.16,5.23,19.81l-14.78,5.4ZM511.9,158.4c-1.48-3.71-2.81-6.87-3.99-9.46-1.18-2.6-2.37-5.02-3.55-7.29l7.61-5.48c1.53,2.9,3,5.86,4.39,8.88,1.39,3.02,2.68,6.03,3.87,9.03l-8.32,4.32ZM525.6,156.08c-1.43-3.79-2.73-7-3.92-9.63-1.19-2.63-2.34-5.04-3.46-7.24l7.42-5.58c1.6,2.97,3.05,6,4.36,9.1,1.31,3.1,2.56,6.15,3.75,9.15l-8.15,4.2Z"/>
            <path class="cls-3" d="M563.81,196.55l-12.31-12.27c3.19-5.05,5.81-10.2,7.86-15.45,2.05-5.25,3.62-10.69,4.7-16.3,1.08-5.62,1.73-11.45,1.95-17.52l15.44,2.73c-.25,7.17-1.05,14.13-2.43,20.87-1.37,6.74-3.3,13.28-5.8,19.6-2.5,6.32-5.63,12.43-9.4,18.34ZM626.17,145.07l1.47,18.23-56.94,4.61-1.48-18.23,56.94-4.61ZM575.44,229.78l-3.66-18.94c4.1-1.07,7.62-2.4,10.56-4.01,2.94-1.6,5.32-3.65,7.15-6.16,1.83-2.51,3.2-5.6,4.11-9.29.91-3.68,1.42-8.11,1.54-13.28.11-5.17-.11-11.23-.68-18.19l15.47-1.25c.71,8.79.89,16.66.54,23.62-.35,6.96-1.29,13.08-2.8,18.36-1.52,5.28-3.7,9.83-6.55,13.63-2.85,3.81-6.4,6.97-10.64,9.49-4.25,2.52-9.26,4.53-15.04,6.03Z"/>
            <path class="cls-3" d="M727.69,136.08l1.3,16.04-80.15,6.48-1.3-16.04,80.15-6.48ZM731.25,180.02l1.3,16.04-80.14,6.48-1.3-16.04,80.15-6.48ZM663.94,227.15l-9.31-14.51c2.62-2.57,4.79-5.29,6.5-8.15,1.71-2.87,3-6.1,3.86-9.71.86-3.61,1.34-7.86,1.44-12.78.1-4.91-.11-10.7-.65-17.36l-3.11-38.45,14.59-1.18,3.11,38.45c.66,8.13.86,15.36.6,21.68-.26,6.32-1.02,11.97-2.3,16.94-1.28,4.97-3.12,9.48-5.54,13.55-2.41,4.07-5.48,7.91-9.19,11.52ZM705.58,173.25l-10.49,12.46c-2.69-4.13-5.28-7.68-7.76-10.65-2.48-2.97-5.2-5.99-8.16-9.07l9.71-12.28c3.2,3.06,6.14,6.08,8.83,9.07,2.69,2.99,5.31,6.48,7.88,10.48ZM700.27,122.93l14.59-1.18,8.05,99.52-14.59,1.18-8.05-99.52Z"/>
          </g>
          <g>
            <path class="cls-3" d="M173.5,238.85l2.09,19.29-37.64,4.92c-6.13.79-11.12.49-14.98-.89-3.86-1.38-6.78-4.02-8.78-7.92-2-3.89-3.27-9.28-3.83-16.17l-4.94-61.08,15.47-1.25,4.94,61.08c.2,2.42.54,4.18,1.05,5.28.5,1.1,1.44,1.75,2.81,1.93,1.37.18,3.43.09,6.17-.28l37.64-4.92ZM119.48,222.77l-4.09-17.8c9.27-2.74,18.18-6.1,26.74-10.07,8.55-3.97,16.89-8.61,25.01-13.91l7.59,17.3c-8.57,5.56-17.49,10.3-26.76,14.22-9.27,3.92-18.76,7.34-28.49,10.27Z"/>
            <path class="cls-3" d="M255.56,194.84l1.47,18.24-65.03,5.26-1.47-18.24,65.03-5.26ZM253.33,165.06l1.47,18.24-58.35,4.72-1.47-18.24,58.35-4.72ZM208.15,259.38l-2.09-19.29c7.12-.87,13.1-2.22,17.94-4.05,4.83-1.83,8.75-3.97,11.73-6.42,2.99-2.45,5.26-5.07,6.84-7.85,1.57-2.78,2.65-5.56,3.22-8.33.57-2.77.85-5.39.82-7.86-.02-2.47-.1-4.58-.25-6.34l-.29-3.62,15.47-1.25.29,3.62c.97,11.94-.44,22.2-4.23,30.8-3.79,8.6-9.84,15.46-18.15,20.6-8.31,5.13-18.75,8.46-31.3,10Z"/>
            <path class="cls-3" d="M288.94,253.17l-9.19-16.28c9.24-7.45,17.07-15.37,23.47-23.74s11.52-17.41,15.36-27.12c3.84-9.71,6.51-20.3,8-31.77l15.79,3.81c-2.58,19.82-8.24,37.5-16.98,53.06-8.74,15.56-20.88,29.57-36.45,42.03ZM355.63,224.78l-8.83,15.53c-10.36-9.26-20.79-18.28-31.29-27.05s-21.26-17.21-32.3-25.3l7.51-16.53c11.28,8.23,22.31,16.84,33.09,25.85,10.78,9.01,21.39,18.17,31.81,27.5Z"/>
            <path class="cls-3" d="M418.61,231.55l-4.75-13.11c3.02-1.5,5.5-3.38,7.44-5.64,1.93-2.26,3.33-4.87,4.19-7.81.86-2.94,1.14-6.17.86-9.68-.32-4.02-1.25-7.44-2.78-10.28-1.53-2.84-3.66-4.96-6.39-6.36-2.74-1.4-6.07-1.94-10.01-1.62-3.03.25-5.73,1.06-8.1,2.45-2.37,1.39-4.36,3.23-5.98,5.53-1.62,2.29-2.78,4.98-3.48,8.06-.71,3.08-.92,6.42-.62,10.04.2,2.43.63,4.62,1.32,6.56.68,1.94,1.46,3.44,2.35,4.51.88,1.07,1.75,1.57,2.62,1.5.77-.06,1.49-.73,2.16-2.01.67-1.28,1.28-3.02,1.83-5.23.55-2.21,1.02-4.75,1.4-7.63.38-2.88.63-5.95.76-9.2.12-3.25.1-6.59-.06-9.99-.16-3.41-.49-6.71-.97-9.92l11.84-2.33c.75,4.84,1.23,9.67,1.41,14.49.18,4.83.09,9.49-.27,13.99-.37,4.5-1.01,8.7-1.92,12.59-.92,3.89-2.08,7.3-3.48,10.23-1.4,2.93-3.07,5.27-5,7.03-1.93,1.75-4.1,2.72-6.5,2.92-3.21.26-6.21-.59-8.99-2.56-2.78-1.97-5.1-4.98-6.95-9.05-1.86-4.06-3.02-9.04-3.5-14.92-.37-4.58-.21-8.92.48-13.02.69-4.1,1.87-7.84,3.54-11.22,1.66-3.38,3.72-6.35,6.18-8.92,2.46-2.56,5.27-4.6,8.42-6.11,3.16-1.51,6.59-2.41,10.3-2.71,6.11-.5,11.49.55,16.14,3.14,4.65,2.59,8.38,6.39,11.17,11.4,2.8,5.01,4.47,10.92,5.02,17.7.35,4.3.17,8.37-.55,12.22-.71,3.85-1.91,7.37-3.59,10.58-1.68,3.21-3.83,6.05-6.45,8.51s-5.66,4.43-9.09,5.9Z"/>
            <path class="cls-3" d="M462.39,195.91c-1.46-6.44-3.1-12.78-4.9-19.01-1.8-6.23-3.77-12.39-5.92-18.48l14.19-7.23c2.23,6.45,4.29,12.96,6.18,19.51,1.89,6.56,3.63,13.16,5.23,19.81l-14.78,5.4ZM526.94,161.72c.54,9.61.28,18.22-.79,25.83-1.07,7.6-2.93,14.3-5.58,20.08-2.66,5.78-6.15,10.71-10.48,14.78-4.33,4.07-9.55,7.39-15.65,9.95-6.1,2.56-13.09,4.41-20.96,5.57l-2.44-19.26c6.23-.95,11.7-2.29,16.39-4.03,4.69-1.74,8.68-4.06,11.96-6.94,3.27-2.88,5.88-6.43,7.81-10.64,1.93-4.21,3.24-9.2,3.92-14.97.68-5.77.81-12.43.37-19.99l15.45-.37ZM485.96,190.91c-1.46-6.44-3.1-12.78-4.9-19.01-1.8-6.23-3.78-12.39-5.92-18.48l14.19-7.23c2.23,6.45,4.29,12.96,6.18,19.51,1.89,6.56,3.63,13.16,5.23,19.81l-14.78,5.4ZM511.9,158.4c-1.48-3.71-2.81-6.87-3.99-9.46-1.18-2.6-2.37-5.02-3.55-7.29l7.61-5.48c1.53,2.9,3,5.86,4.39,8.88,1.39,3.02,2.68,6.03,3.87,9.03l-8.32,4.32ZM525.6,156.08c-1.43-3.79-2.73-7-3.92-9.63-1.19-2.63-2.34-5.04-3.46-7.24l7.42-5.58c1.6,2.97,3.05,6,4.36,9.1,1.31,3.1,2.56,6.15,3.75,9.15l-8.15,4.2Z"/>
            <path class="cls-3" d="M563.81,196.55l-12.31-12.27c3.19-5.05,5.81-10.2,7.86-15.45,2.05-5.25,3.62-10.69,4.7-16.3,1.08-5.62,1.73-11.45,1.95-17.52l15.44,2.73c-.25,7.17-1.05,14.13-2.43,20.87-1.37,6.74-3.3,13.28-5.8,19.6-2.5,6.32-5.63,12.43-9.4,18.34ZM626.17,145.07l1.47,18.23-56.94,4.61-1.48-18.23,56.94-4.61ZM575.44,229.78l-3.66-18.94c4.1-1.07,7.62-2.4,10.56-4.01,2.94-1.6,5.32-3.65,7.15-6.16,1.83-2.51,3.2-5.6,4.11-9.29.91-3.68,1.42-8.11,1.54-13.28.11-5.17-.11-11.23-.68-18.19l15.47-1.25c.71,8.79.89,16.66.54,23.62-.35,6.96-1.29,13.08-2.8,18.36-1.52,5.28-3.7,9.83-6.55,13.63-2.85,3.81-6.4,6.97-10.64,9.49-4.25,2.52-9.26,4.53-15.04,6.03Z"/>
            <path class="cls-3" d="M727.69,136.08l1.3,16.04-80.15,6.48-1.3-16.04,80.15-6.48ZM731.25,180.02l1.3,16.04-80.14,6.48-1.3-16.04,80.15-6.48ZM663.94,227.15l-9.31-14.51c2.62-2.57,4.79-5.29,6.5-8.15,1.71-2.87,3-6.1,3.86-9.71.86-3.61,1.34-7.86,1.44-12.78.1-4.91-.11-10.7-.65-17.36l-3.11-38.45,14.59-1.18,3.11,38.45c.66,8.13.86,15.36.6,21.68-.26,6.32-1.02,11.97-2.3,16.94-1.28,4.97-3.12,9.48-5.54,13.55-2.41,4.07-5.48,7.91-9.19,11.52ZM705.58,173.25l-10.49,12.46c-2.69-4.13-5.28-7.68-7.76-10.65-2.48-2.97-5.2-5.99-8.16-9.07l9.71-12.28c3.2,3.06,6.14,6.08,8.83,9.07,2.69,2.99,5.31,6.48,7.88,10.48ZM700.27,122.93l14.59-1.18,8.05,99.52-14.59,1.18-8.05-99.52Z"/>
            <path class="cls-3" d="M763.18,215.03l-3.3-18.97c5.91-1.36,11.11-3.15,15.62-5.35,4.51-2.21,8.38-4.82,11.62-7.85,3.24-3.03,5.86-6.46,7.88-10.31,2.02-3.85,3.49-8.09,4.41-12.74.92-4.64,1.31-9.65,1.17-15.02l-51.15,4.14-1.47-18.23,55.19-4.46c-.01-.15-.02-.27-.03-.38s-.02-.2-.02-.27c-.12-4.34.9-8,3.05-10.97,2.15-2.97,5.01-4.61,8.58-4.9,3.81-.31,7.02.96,9.64,3.81,2.62,2.85,4.11,6.58,4.49,11.19.37,4.61-.5,8.54-2.63,11.77-2.13,3.23-5.09,5-8.9,5.31-.24.02-.46.04-.66.05-.21.02-.43,0-.67-.06.39,7.71.01,14.89-1.13,21.54-1.14,6.65-3.06,12.78-5.77,18.38-2.7,5.6-6.19,10.58-10.47,14.94-4.28,4.36-9.36,8.09-15.24,11.18s-12.62,5.5-20.2,7.22ZM816.56,132.43c1.7-.14,2.96-.9,3.79-2.3.83-1.39,1.17-3,1.02-4.84-.15-1.9-.75-3.46-1.79-4.67-1.04-1.2-2.41-1.74-4.11-1.6-1.64.13-2.89.88-3.75,2.24-.86,1.36-1.22,2.99-1.06,4.9.15,1.83.76,3.37,1.83,4.61s2.43,1.79,4.07,1.66Z"/>
            <path class="cls-3" d="M909.62,139.06l15.33,3.63c-.83,6.55-2.03,12.59-3.62,18.09-1.59,5.51-3.59,10.5-6,14.97-2.41,4.47-5.23,8.44-8.46,11.91-3.23,3.47-6.91,6.42-11.05,8.85-4.14,2.44-8.73,4.37-13.77,5.81-5.04,1.44-10.58,2.4-16.62,2.89l-5.27.43-7.29-90.18,15.47-1.25,6.09,75.25-10.55-3.57c4.86-.39,9.27-1.12,13.23-2.17,3.95-1.06,7.51-2.47,10.67-4.24,3.16-1.77,5.96-3.91,8.41-6.43,2.45-2.52,4.56-5.44,6.33-8.75,1.77-3.31,3.23-7.08,4.39-11.3,1.16-4.22,2.07-8.86,2.72-13.93Z"/>
            <path class="cls-3" d="M1024.42,173.89l-1.28,19.12c-12.42-1.87-24.38-3.08-35.9-3.62-11.51-.54-22.78-.4-33.8.41l-1.39-19.35c22.63-1.61,46.75-.46,72.37,3.43ZM1014.58,110.22l-1.09,19.33c-10.44-1.44-20.58-2.41-30.44-2.9-9.86-.49-19.54-.5-29.06-.03l-1.21-19.36c9.92-.51,20.01-.51,30.25-.01,10.24.5,20.76,1.49,31.55,2.98ZM1009.95,140.45l-.91,19.31c-8.63-1-16.96-1.69-24.98-2.07-8.02-.38-15.85-.41-23.49-.09l-1.04-19.38c7.93-.35,16.09-.32,24.46.07,8.38.39,17.03,1.11,25.96,2.16Z"/>
            <path class="cls-3" d="M1098.94,154.7l-9.91-15.34c3.38-2.71,6.38-6.06,9-10.07,2.62-4.01,4.87-9,6.75-14.97l2.74,2.21-60.46,4.89-1.47-18.24,73.64-5.96,1.44,17.8c-1.98,9.08-4.83,16.86-8.55,23.36-3.72,6.49-8.12,11.94-13.18,16.33ZM1060.96,190.39l-5.73-18.33c3.22-1,5.86-2.43,7.92-4.29,2.06-1.86,3.6-4.49,4.62-7.89,1.02-3.4,1.59-7.79,1.72-13.19.12-5.39-.14-12.08-.78-20.06l15.47-1.25c.81,10.03,1.01,18.73.61,26.1-.41,7.37-1.52,13.61-3.35,18.74-1.83,5.12-4.42,9.31-7.78,12.57-3.36,3.26-7.6,5.79-12.7,7.61Z"/>
            <path class="cls-3" d="M1206.75,144.76l6.33,16.96c-6,3.07-12.54,5.71-19.61,7.95-7.07,2.23-14.47,4.14-22.18,5.72-7.71,1.58-15.56,3.03-23.53,4.34l-2.35-18.16c9.66-1.59,18.24-3.23,25.74-4.9,7.5-1.67,14.16-3.49,19.99-5.43,5.83-1.95,11.03-4.1,15.62-6.46ZM1167.74,168.71l-14.86-6.54c2.92-11.29,5.54-23.15,7.87-35.58,2.33-12.42,4.33-25.38,6.01-38.85l15.33,3.62c-1.76,13.93-3.83,27.38-6.2,40.36-2.37,12.98-5.09,25.31-8.15,36.98ZM1225.97,167.97l-13.61,8.84c-3.56-8.26-7.21-16.42-10.96-24.49-3.75-8.06-7.8-16.04-12.15-23.95l12.77-10.54c4.57,8.33,8.81,16.7,12.74,25.12,3.92,8.42,7.67,16.76,11.22,25.02Z"/>
          </g>
        </g>
        <g>
          <path class="cls-4" d="M170.02,236.26l2.09,19.29-37.64,4.92c-6.13.79-11.12.49-14.98-.89-3.86-1.38-6.78-4.02-8.78-7.92-2-3.89-3.27-9.28-3.83-16.16l-4.94-61.08,15.47-1.25,4.94,61.08c.2,2.42.54,4.18,1.05,5.28.5,1.1,1.44,1.75,2.81,1.93,1.37.19,3.43.09,6.17-.28l37.64-4.92ZM116.01,220.18l-4.09-17.8c9.27-2.74,18.18-6.1,26.74-10.07,8.55-3.97,16.89-8.61,25.01-13.91l7.59,17.3c-8.57,5.56-17.49,10.3-26.76,14.22-9.27,3.92-18.76,7.34-28.49,10.27Z"/>
          <path class="cls-4" d="M252.09,192.25l1.47,18.24-65.03,5.26-1.47-18.24,65.03-5.26ZM249.86,162.47l1.47,18.24-58.35,4.72-1.47-18.24,58.35-4.72ZM204.68,256.79l-2.09-19.29c7.12-.87,13.1-2.22,17.94-4.05,4.83-1.83,8.75-3.97,11.73-6.42,2.99-2.45,5.26-5.07,6.84-7.85,1.57-2.78,2.65-5.56,3.22-8.33.57-2.77.85-5.39.82-7.86-.02-2.47-.11-4.58-.25-6.34l-.29-3.62,15.47-1.25.29,3.62c.97,11.94-.45,22.21-4.23,30.8-3.79,8.6-9.84,15.46-18.15,20.6-8.31,5.13-18.75,8.46-31.3,10Z"/>
          <path class="cls-4" d="M285.47,250.59l-9.19-16.29c9.24-7.45,17.07-15.37,23.47-23.73,6.4-8.37,11.52-17.41,15.37-27.12,3.84-9.71,6.51-20.3,8-31.77l15.79,3.81c-2.58,19.82-8.24,37.51-16.98,53.06-8.74,15.56-20.89,29.57-36.45,42.04ZM352.16,222.19l-8.83,15.53c-10.36-9.26-20.79-18.28-31.29-27.05-10.5-8.77-21.26-17.2-32.3-25.3l7.51-16.53c11.28,8.23,22.31,16.84,33.09,25.85,10.78,9.01,21.39,18.17,31.81,27.5Z"/>
          <path class="cls-4" d="M415.14,228.96l-4.75-13.11c3.02-1.5,5.5-3.38,7.44-5.64s3.33-4.87,4.19-7.81c.86-2.94,1.14-6.17.86-9.68-.33-4.02-1.25-7.44-2.78-10.28-1.53-2.84-3.66-4.96-6.39-6.36-2.73-1.4-6.07-1.94-10.01-1.62-3.03.25-5.73,1.06-8.1,2.45-2.37,1.39-4.36,3.23-5.98,5.52-1.62,2.3-2.78,4.98-3.48,8.06-.71,3.08-.92,6.42-.62,10.04.2,2.43.63,4.62,1.32,6.56.68,1.94,1.46,3.44,2.35,4.51.88,1.07,1.75,1.57,2.62,1.5.77-.06,1.49-.73,2.16-2.01.67-1.28,1.28-3.02,1.83-5.23.55-2.21,1.02-4.75,1.4-7.63.38-2.88.63-5.95.76-9.2.12-3.26.11-6.59-.06-9.99-.16-3.4-.49-6.71-.97-9.92l11.84-2.32c.76,4.84,1.23,9.67,1.41,14.49.18,4.83.09,9.49-.27,13.99-.36,4.5-1,8.7-1.92,12.59-.92,3.89-2.08,7.3-3.48,10.23-1.4,2.93-3.07,5.28-5,7.03-1.93,1.75-4.1,2.72-6.5,2.92-3.21.26-6.21-.6-8.99-2.56-2.78-1.97-5.1-4.98-6.95-9.05-1.86-4.06-3.02-9.04-3.5-14.92-.37-4.58-.21-8.92.48-13.02.69-4.1,1.87-7.84,3.54-11.22,1.66-3.38,3.72-6.35,6.18-8.92,2.46-2.56,5.27-4.6,8.42-6.11,3.16-1.51,6.59-2.41,10.31-2.71,6.11-.49,11.49.55,16.14,3.14,4.65,2.59,8.38,6.39,11.17,11.4,2.8,5.01,4.47,10.92,5.02,17.7.35,4.3.16,8.37-.55,12.22-.71,3.85-1.91,7.37-3.59,10.58-1.68,3.21-3.83,6.05-6.45,8.51-2.63,2.46-5.66,4.43-9.09,5.9Z"/>
          <path class="cls-4" d="M458.92,193.32c-1.46-6.44-3.1-12.78-4.9-19.01-1.8-6.23-3.77-12.39-5.92-18.48l14.19-7.23c2.23,6.45,4.29,12.96,6.18,19.51,1.89,6.56,3.63,13.16,5.23,19.81l-14.78,5.4ZM523.47,159.13c.54,9.61.28,18.22-.79,25.83-1.07,7.61-2.93,14.3-5.58,20.08-2.66,5.78-6.15,10.71-10.48,14.78-4.33,4.07-9.54,7.39-15.65,9.95-6.1,2.56-13.09,4.41-20.96,5.57l-2.44-19.26c6.23-.95,11.7-2.29,16.39-4.04,4.69-1.74,8.68-4.05,11.95-6.94,3.27-2.88,5.88-6.43,7.81-10.64,1.93-4.21,3.24-9.2,3.92-14.97.68-5.77.81-12.43.37-19.99l15.45-.37ZM482.49,188.32c-1.46-6.44-3.1-12.78-4.9-19.01-1.8-6.23-3.77-12.39-5.92-18.48l14.19-7.23c2.23,6.45,4.29,12.96,6.18,19.51,1.89,6.55,3.63,13.16,5.23,19.81l-14.78,5.4ZM508.43,155.81c-1.48-3.71-2.81-6.87-3.99-9.46-1.18-2.59-2.37-5.02-3.55-7.29l7.61-5.48c1.53,2.9,3,5.86,4.39,8.88,1.39,3.02,2.68,6.03,3.87,9.03l-8.32,4.32ZM522.13,153.49c-1.43-3.79-2.73-7-3.92-9.63-1.19-2.63-2.34-5.04-3.46-7.24l7.42-5.58c1.6,2.97,3.05,6,4.36,9.1,1.31,3.1,2.56,6.15,3.75,9.15l-8.15,4.2Z"/>
          <path class="cls-4" d="M560.34,193.96l-12.31-12.27c3.19-5.05,5.81-10.2,7.86-15.45,2.05-5.25,3.62-10.69,4.7-16.3,1.08-5.62,1.73-11.45,1.95-17.52l15.44,2.73c-.25,7.17-1.05,14.13-2.43,20.87-1.37,6.75-3.3,13.28-5.8,19.6-2.5,6.32-5.63,12.43-9.4,18.34ZM622.7,142.48l1.47,18.23-56.95,4.61-1.47-18.23,56.95-4.61ZM571.96,227.19l-3.66-18.94c4.1-1.07,7.62-2.4,10.56-4.01,2.94-1.6,5.32-3.65,7.15-6.16,1.83-2.51,3.2-5.6,4.11-9.29.91-3.68,1.42-8.11,1.54-13.28.11-5.17-.11-11.23-.68-18.19l15.47-1.25c.71,8.79.89,16.66.54,23.62-.35,6.96-1.29,13.08-2.81,18.36-1.52,5.28-3.7,9.83-6.55,13.63-2.85,3.81-6.4,6.97-10.64,9.49-4.25,2.52-9.26,4.53-15.04,6.03Z"/>
          <path class="cls-4" d="M724.22,133.49l1.3,16.04-80.15,6.48-1.3-16.04,80.15-6.48ZM727.78,177.43l1.3,16.04-80.15,6.48-1.3-16.04,80.15-6.48ZM660.47,224.56l-9.31-14.51c2.62-2.57,4.79-5.29,6.51-8.15,1.71-2.87,3-6.1,3.86-9.71.86-3.61,1.34-7.87,1.44-12.78.1-4.91-.11-10.7-.65-17.36l-3.11-38.45,14.59-1.18,3.11,38.45c.66,8.13.86,15.36.6,21.68-.26,6.32-1.02,11.97-2.3,16.94-1.28,4.97-3.12,9.48-5.54,13.55-2.41,4.07-5.48,7.91-9.2,11.52ZM702.11,170.66l-10.49,12.46c-2.69-4.13-5.28-7.68-7.76-10.65-2.48-2.97-5.2-5.99-8.16-9.07l9.71-12.28c3.2,3.06,6.14,6.08,8.83,9.07,2.69,2.99,5.31,6.48,7.88,10.47ZM696.8,120.34l14.59-1.18,8.05,99.52-14.59,1.18-8.05-99.52Z"/>
          <path class="cls-4" d="M759.71,212.44l-3.3-18.97c5.9-1.36,11.11-3.15,15.62-5.36,4.51-2.21,8.38-4.82,11.62-7.85,3.24-3.03,5.86-6.46,7.88-10.31,2.02-3.85,3.49-8.09,4.41-12.74.92-4.64,1.31-9.65,1.17-15.02l-51.15,4.14-1.47-18.23,55.19-4.46c-.01-.15-.02-.27-.03-.38,0-.11-.02-.2-.02-.27-.12-4.34.9-8,3.05-10.97,2.15-2.97,5.01-4.61,8.58-4.9,3.81-.31,7.02.96,9.64,3.81,2.62,2.85,4.12,6.58,4.49,11.19.37,4.61-.5,8.54-2.63,11.77-2.13,3.23-5.09,5-8.9,5.31-.24.02-.46.04-.66.05-.21.02-.43,0-.67-.06.39,7.71.01,14.89-1.13,21.54-1.14,6.65-3.07,12.78-5.77,18.38-2.7,5.6-6.19,10.58-10.47,14.94-4.28,4.36-9.36,8.09-15.24,11.18-5.88,3.09-12.62,5.5-20.2,7.22ZM813.09,129.84c1.7-.14,2.96-.9,3.79-2.3.83-1.39,1.17-3.01,1.02-4.84-.15-1.9-.75-3.46-1.79-4.66-1.04-1.2-2.41-1.74-4.11-1.6-1.64.13-2.89.88-3.75,2.24-.86,1.36-1.22,2.99-1.06,4.9.15,1.83.76,3.37,1.83,4.61,1.07,1.24,2.43,1.79,4.07,1.66Z"/>
          <path class="cls-4" d="M906.15,136.47l15.33,3.62c-.83,6.55-2.03,12.59-3.62,18.09-1.59,5.51-3.59,10.5-6,14.97-2.41,4.47-5.23,8.44-8.46,11.91-3.23,3.47-6.91,6.42-11.05,8.86-4.14,2.44-8.73,4.37-13.77,5.81-5.04,1.44-10.58,2.4-16.62,2.89l-5.27.43-7.29-90.18,15.47-1.25,6.09,75.25-10.55-3.57c4.86-.39,9.27-1.12,13.22-2.17,3.95-1.06,7.51-2.47,10.67-4.24,3.16-1.77,5.96-3.91,8.41-6.43,2.45-2.52,4.56-5.44,6.33-8.75,1.77-3.31,3.23-7.08,4.39-11.3,1.16-4.22,2.07-8.86,2.72-13.93Z"/>
          <path class="cls-4" d="M1020.95,171.3l-1.28,19.12c-12.42-1.87-24.38-3.08-35.9-3.62-11.51-.54-22.78-.41-33.8.41l-1.39-19.35c22.63-1.61,46.75-.47,72.37,3.43ZM1011.11,107.63l-1.09,19.33c-10.44-1.44-20.58-2.41-30.44-2.9-9.86-.49-19.54-.5-29.06-.03l-1.21-19.36c9.92-.51,20.01-.51,30.25-.01,10.24.5,20.76,1.49,31.55,2.98ZM1006.48,137.86l-.91,19.31c-8.63-1-16.96-1.69-24.98-2.07-8.02-.38-15.85-.41-23.49-.09l-1.04-19.38c7.93-.35,16.09-.32,24.46.07,8.38.39,17.03,1.11,25.96,2.16Z"/>
          <path class="cls-4" d="M1095.47,152.11l-9.91-15.34c3.38-2.71,6.38-6.06,9-10.07,2.62-4.01,4.87-9,6.75-14.97l2.74,2.21-60.46,4.89-1.47-18.24,73.64-5.96,1.44,17.8c-1.98,9.08-4.83,16.86-8.55,23.36-3.72,6.49-8.12,11.93-13.19,16.33ZM1057.49,187.8l-5.73-18.33c3.22-1,5.86-2.42,7.92-4.29,2.06-1.86,3.6-4.49,4.62-7.89s1.59-7.79,1.72-13.19c.12-5.39-.14-12.08-.78-20.06l15.47-1.25c.81,10.03,1.01,18.73.61,26.1-.41,7.37-1.52,13.61-3.35,18.73-1.83,5.12-4.42,9.31-7.78,12.57-3.36,3.26-7.6,5.79-12.7,7.61Z"/>
          <path class="cls-4" d="M1203.28,142.17l6.33,16.96c-6,3.07-12.54,5.71-19.61,7.94-7.07,2.23-14.47,4.14-22.18,5.72-7.72,1.58-15.56,3.03-23.53,4.34l-2.35-18.16c9.66-1.59,18.24-3.23,25.74-4.9,7.5-1.67,14.17-3.49,19.99-5.43,5.83-1.95,11.04-4.1,15.62-6.46ZM1164.27,166.12l-14.86-6.54c2.92-11.29,5.54-23.15,7.87-35.58s4.33-25.38,6.01-38.85l15.33,3.63c-1.76,13.93-3.83,27.38-6.2,40.36-2.37,12.98-5.09,25.31-8.15,36.98ZM1222.5,165.39l-13.61,8.84c-3.56-8.26-7.21-16.42-10.96-24.49-3.75-8.06-7.8-16.04-12.15-23.95l12.77-10.54c4.57,8.33,8.81,16.7,12.73,25.12,3.92,8.42,7.67,16.76,11.22,25.02Z"/>
        </g>
        <g>
          <g>
            <path class="cls-4" d="M327.36,357.78l4.75-14.8-.02-.31-34.73,2.81-1.98-24.48,62.44-5.05,1.56,19.24-26.05,90.12-26.23,2.12,20.27-69.66Z"/>
            <path class="cls-4" d="M407.31,412.31l-7.66-9.34c.72-1.44,1.31-2.86,1.77-4.23.46-1.38.81-2.9,1.03-4.58.22-1.68.32-3.64.3-5.9-.02-2.25-.17-5-.43-8.25l-2.22-27.4,51.11-4.13.84,10.34-40.71,3.29,1.38,17.06c.43,5.37.55,9.98.35,13.83-.2,3.86-.77,7.3-1.69,10.32-.92,3.02-2.28,6.02-4.06,8.99ZM454.18,409.56l-9.81.79-1.7-21.05-19.97,1.62,1.7,21.05-9.81.79-2.51-31.09,39.58-3.2,2.51,31.09ZM447.74,397.52l.75,9.31-28.6,2.31-.75-9.31,28.6-2.31ZM431.07,353.15l-10.4.84-.93-11.52,10.4-.84.93,11.52ZM436.19,382.62l-10.4.84-2.16-26.73,10.4-.84,2.16,26.73ZM451.49,363.1l.81,10.04-21.09,1.71-.81-10.04,21.09-1.71Z"/>
            <path class="cls-4" d="M465.62,367.16l-2.97-12.4c.89-1.21,2.09-2.93,3.6-5.16,1.5-2.23,3.04-4.64,4.62-7.25l9.81-.79c1.97,2.32,3.93,4.49,5.88,6.51,1.95,2.02,3.73,3.71,5.35,5.07l-3.12,10.73c-2.89-2.94-5.52-5.71-7.87-8.32-2.35-2.61-4.64-5.21-6.88-7.81l4.37-.35c-1.79,2.92-3.65,5.92-5.61,9-1.95,3.08-4.35,6.67-7.19,10.76ZM490.45,371.92l.81,10.04-23.81,1.93-.81-10.04,23.81-1.93ZM493.29,408.49l-8.63.7-1.25-15.43-6.85.55,1.25,15.43-8.63.7-2-24.74,24.11-1.95,2,24.74ZM487.78,360.99l.75,9.31-20.26,1.64-.75-9.31,20.26-1.64ZM483.3,377.7l-9.22.75-1.8-22.3,9.22-.75,1.8,22.3ZM488.02,397.02l.75,9.31-15.48,1.25-.75-9.31,15.48-1.25ZM489.43,355.65l-.87-9.97,31.73-2.57.81,9.97-31.67,2.56ZM494.79,409.41l-4.04-50,29.66-2.4,3.14,38.85c.22,2.71.27,4.9.14,6.57-.12,1.67-.48,2.9-1.07,3.69-.59.79-1.46,1.23-2.6,1.33-1.18.1-2.35.15-3.5.17-1.15.02-2.1,0-2.86-.03l-.96-9.66c.44.01.82.03,1.13.06.32.02.62.03.89,0,.16-.01.31-.07.46-.19.15-.11.26-.33.33-.66.07-.33.08-.79.04-1.38l-2.3-28.43-13.82,1.12,3.26,40.32-7.92.64ZM496.12,381.79l-.69-8.57,22.33-1.81.69,8.57-22.33,1.81ZM497.28,394.63l-.69-8.57,22.21-1.8.69,8.57-22.21,1.8ZM505.23,405.37l-5.33-65.95,8.27-.67,5.33,65.95-8.27.67ZM519.62,345.85l-6.32,2c-.55-1.39-1.12-2.76-1.7-4.1-.58-1.34-1.21-2.68-1.87-4.01l5.89-2.86c.75,1.48,1.46,2.97,2.12,4.48.66,1.51,1.28,3.01,1.88,4.49Z"/>
            <path class="cls-4" d="M558.42,336l-1.12-13.8,38.22-3.09,1.12,13.8-38.22,3.09ZM560.21,319.27l-1-12.36,31.96-2.58,1,12.36-31.96,2.58ZM562.88,350.15l-.95-11.74,31.63-2.56.95,11.74-31.63,2.56ZM564.04,364.56l-.95-11.74,31.63-2.56.95,11.74-31.63,2.56ZM577.59,398.81l-11.53.93-2.62-32.43,33.28-2.69,2.37,29.24-23.06,1.87-.98-12.15,12.36-1-.4-4.94-11.04.89,1.64,20.28ZM636.16,328.57l1.3,16.06-40.69,3.29-1.3-16.06,40.69-3.29ZM629.06,394.54l-14.5,1.17-7.66-94.72,14.5-1.17,7.66,94.72Z"/>
            <path class="cls-4" d="M709.17,393.23c-4.76.39-9.33.14-13.71-.72-4.38-.86-8-1.93-10.88-3.19l1.83-20.38c2.45.64,5.5,1.26,9.14,1.86,3.64.6,7.07.76,10.27.5,2.98-.24,5.43-.88,7.37-1.93,1.94-1.04,3.36-2.42,4.27-4.14.91-1.71,1.28-3.68,1.09-5.92-.34-4.19-2.48-7.08-6.43-8.68-3.95-1.6-9.5-2.11-16.64-1.53-1.79.14-3.36.34-4.73.59-1.37.25-2.9.54-4.59.86l-.12-.13-.56-54.17,45.55-3.68.78,22.13-27.57,2.23.11,11.09c.59-.14,1.25-.24,2-.3s1.56-.13,2.46-.2c9.3-.75,16.77,1.29,22.41,6.12,5.63,4.84,8.84,12,9.6,21.49.56,6.98-.35,13.23-2.75,18.76-2.4,5.53-6.04,9.99-10.94,13.39-4.89,3.39-10.88,5.38-17.95,5.95Z"/>
            <path class="cls-4" d="M786.03,286.31c7.07-.57,13.09.88,18.05,4.37,4.96,3.48,8.88,8.39,11.75,14.71,2.87,6.32,4.63,13.49,5.28,21.49.73,9.02.14,17.24-1.77,24.65-1.91,7.41-4.99,13.8-9.24,19.15-4.25,5.35-9.49,9.52-15.73,12.51-6.24,2.99-13.36,4.57-21.36,4.75l-1.73-21.35c5.01-.12,9.48-.81,13.43-2.07,3.94-1.25,7.22-3.32,9.84-6.2,2.61-2.88,4.44-6.7,5.48-11.47l-.34.03c-1.58,1.81-3.59,3.31-6.04,4.49-2.45,1.18-5.17,1.89-8.14,2.13-4.69.38-9-.56-12.92-2.82-3.93-2.26-7.16-5.65-9.7-10.17-2.54-4.52-4.07-10.04-4.6-16.55-.56-6.88.23-13.08,2.37-18.59,2.14-5.51,5.38-9.94,9.71-13.29,4.34-3.35,9.56-5.27,15.66-5.76ZM787.57,306.83c-1.56.13-2.94.75-4.12,1.88-1.18,1.13-2.05,2.69-2.6,4.7-.55,2.01-.71,4.41-.49,7.2.19,2.33.68,4.49,1.48,6.48.8,2,1.92,3.54,3.35,4.64,1.44,1.1,3.2,1.57,5.28,1.4,1.19-.1,2.31-.4,3.35-.9,1.04-.51,2-1.19,2.87-2.06.87-.86,1.56-1.83,2.07-2.91.22-2.83-.03-5.87-.74-9.14-.71-3.26-1.91-6.02-3.59-8.28-1.68-2.25-3.97-3.26-6.88-3.03Z"/>
            <path class="cls-4" d="M877.86,379.73c-7.14.58-13.2-1.16-18.17-5.2-4.97-4.04-8.88-9.77-11.73-17.17-2.85-7.4-4.65-15.8-5.41-25.2-.75-9.3-.32-17.81,1.3-25.53,1.62-7.72,4.56-13.97,8.82-18.76,4.26-4.79,9.96-7.48,17.1-8.05s13.2,1.16,18.17,5.2c4.97,4.05,8.86,9.75,11.67,17.11,2.8,7.36,4.58,15.69,5.34,24.99.76,9.4.35,17.97-1.23,25.73-1.58,7.76-4.5,14.04-8.76,18.83-4.26,4.79-9.96,7.48-17.1,8.05ZM876.13,358.38c2.08-.17,3.7-1.21,4.86-3.13,1.15-1.92,1.86-5,2.12-9.23.26-4.23.1-9.93-.48-17.1-.57-7.07-1.33-12.67-2.26-16.81-.93-4.14-2.13-7.06-3.57-8.77-1.45-1.71-3.22-2.48-5.3-2.31-2.08.17-3.7,1.21-4.86,3.13-1.16,1.92-1.88,5-2.17,9.24-.29,4.24-.16,9.89.42,16.96.58,7.16,1.35,12.81,2.33,16.95.97,4.14,2.18,7.06,3.63,8.77,1.45,1.71,3.21,2.48,5.3,2.31Z"/>
            <path class="cls-4" d="M946.28,305.97l-5.7-17.16c4.78-2.39,9.9-5.21,15.36-8.44,5.46-3.24,10.86-6.63,16.21-10.17l15.49-1.25c5.85,2.64,11.73,5.11,17.64,7.43,5.91,2.32,11.41,4.28,16.52,5.87l-2.87,17.85c-6.32-2.94-12.66-5.97-19.01-9.08-6.36-3.11-12.74-6.62-19.13-10.53-5.69,4.88-11.42,9.37-17.19,13.46-5.78,4.09-11.55,8.1-17.31,12.02ZM951.33,368.47l-2.53-14.93c6.51-.8,13.06-1.85,19.64-3.14,6.58-1.29,13.31-2.87,20.18-4.74l2.53,14.93c-6.87,1.87-13.59,3.45-20.18,4.74-6.58,1.29-13.13,2.34-19.64,3.14ZM957.49,359.58l-5.17-63.94,57.99-4.69,3.35,41.39-49.67,4.02-.88-10.92,35.17-2.85-1.5-18.53-28.99,2.35,4.21,52-14.5,1.17ZM962.84,321.11l-.8-9.88,41.18-3.33.8,9.88-41.18,3.33ZM975.04,299.81l-1.08-13.28,14.5-1.17,1.08,13.28-14.5,1.17ZM1018.59,363.65c-4.22-1.59-8.14-3.21-11.75-4.85-3.62-1.64-7.06-3.52-10.32-5.64-3.27-2.12-6.48-4.74-9.63-7.88-3.16-3.13-6.41-6.98-9.76-11.54l16.31-1.32c4.62,4.46,9.52,8.02,14.71,10.68,5.19,2.66,11.13,4.4,17.83,5.24l-7.38,15.31ZM1014.13,350.54l-10.03-9.14c1.65-2.21,3.15-4.49,4.5-6.84,1.36-2.35,2.46-4.5,3.29-6.43l10.9,7.62c-1.28,2.66-2.63,5.24-4.06,7.74-1.43,2.5-2.97,4.85-4.61,7.06Z"/>
          </g>
          <g>
            <path class="cls-4" d="M327.36,357.78l4.75-14.8-.02-.31-34.73,2.81-1.98-24.48,62.44-5.05,1.56,19.24-26.05,90.12-26.23,2.12,20.27-69.66Z"/>
            <path class="cls-4" d="M407.31,412.31l-7.66-9.34c.72-1.44,1.31-2.86,1.77-4.23.46-1.38.81-2.9,1.03-4.58.22-1.68.32-3.64.3-5.9-.02-2.25-.17-5-.43-8.25l-2.22-27.4,51.11-4.13.84,10.34-40.71,3.29,1.38,17.06c.43,5.37.55,9.98.35,13.83-.2,3.86-.77,7.3-1.69,10.32-.92,3.02-2.28,6.02-4.06,8.99ZM454.18,409.56l-9.81.79-1.7-21.05-19.97,1.62,1.7,21.05-9.81.79-2.51-31.09,39.58-3.2,2.51,31.09ZM447.74,397.52l.75,9.31-28.6,2.31-.75-9.31,28.6-2.31ZM431.07,353.15l-10.4.84-.93-11.52,10.4-.84.93,11.52ZM436.19,382.62l-10.4.84-2.16-26.73,10.4-.84,2.16,26.73ZM451.49,363.1l.81,10.04-21.09,1.71-.81-10.04,21.09-1.71Z"/>
            <path class="cls-4" d="M465.62,367.16l-2.97-12.4c.89-1.21,2.09-2.93,3.6-5.16,1.5-2.23,3.04-4.64,4.62-7.25l9.81-.79c1.97,2.32,3.93,4.49,5.88,6.51,1.95,2.02,3.73,3.71,5.35,5.07l-3.12,10.73c-2.89-2.94-5.52-5.71-7.87-8.32-2.35-2.61-4.64-5.21-6.88-7.81l4.37-.35c-1.79,2.92-3.65,5.92-5.61,9-1.95,3.08-4.35,6.67-7.19,10.76ZM490.45,371.92l.81,10.04-23.81,1.93-.81-10.04,23.81-1.93ZM493.29,408.49l-8.63.7-1.25-15.43-6.85.55,1.25,15.43-8.63.7-2-24.74,24.11-1.95,2,24.74ZM487.78,360.99l.75,9.31-20.26,1.64-.75-9.31,20.26-1.64ZM483.3,377.7l-9.22.75-1.8-22.3,9.22-.75,1.8,22.3ZM488.02,397.02l.75,9.31-15.48,1.25-.75-9.31,15.48-1.25ZM489.43,355.65l-.87-9.97,31.73-2.57.81,9.97-31.67,2.56ZM494.79,409.41l-4.04-50,29.66-2.4,3.14,38.85c.22,2.71.27,4.9.14,6.57-.12,1.67-.48,2.9-1.07,3.69-.59.79-1.46,1.23-2.6,1.33-1.18.1-2.35.15-3.5.17-1.15.02-2.1,0-2.86-.03l-.96-9.66c.44.01.82.03,1.13.06.32.02.62.03.89,0,.16-.01.31-.07.46-.19.15-.11.26-.33.33-.66.07-.33.08-.79.04-1.38l-2.3-28.43-13.82,1.12,3.26,40.32-7.92.64ZM496.12,381.79l-.69-8.57,22.33-1.81.69,8.57-22.33,1.81ZM497.28,394.63l-.69-8.57,22.21-1.8.69,8.57-22.21,1.8ZM505.23,405.37l-5.33-65.95,8.27-.67,5.33,65.95-8.27.67ZM519.62,345.85l-6.32,2c-.55-1.39-1.12-2.76-1.7-4.1-.58-1.34-1.21-2.68-1.87-4.01l5.89-2.86c.75,1.48,1.46,2.97,2.12,4.48.66,1.51,1.28,3.01,1.88,4.49Z"/>
            <path class="cls-4" d="M558.42,336l-1.12-13.8,38.22-3.09,1.12,13.8-38.22,3.09ZM560.21,319.27l-1-12.36,31.96-2.58,1,12.36-31.96,2.58ZM562.88,350.15l-.95-11.74,31.63-2.56.95,11.74-31.63,2.56ZM564.04,364.56l-.95-11.74,31.63-2.56.95,11.74-31.63,2.56ZM577.59,398.81l-11.53.93-2.62-32.43,33.28-2.69,2.37,29.24-23.06,1.87-.98-12.15,12.36-1-.4-4.94-11.04.89,1.64,20.28ZM636.16,328.57l1.3,16.06-40.69,3.29-1.3-16.06,40.69-3.29ZM629.06,394.54l-14.5,1.17-7.66-94.72,14.5-1.17,7.66,94.72Z"/>
            <path class="cls-4" d="M709.17,393.23c-4.76.39-9.33.14-13.71-.72-4.38-.86-8-1.93-10.88-3.19l1.83-20.38c2.45.64,5.5,1.26,9.14,1.86,3.64.6,7.07.76,10.27.5,2.98-.24,5.43-.88,7.37-1.93,1.94-1.04,3.36-2.42,4.27-4.14.91-1.71,1.28-3.68,1.09-5.92-.34-4.19-2.48-7.08-6.43-8.68-3.95-1.6-9.5-2.11-16.64-1.53-1.79.14-3.36.34-4.73.59-1.37.25-2.9.54-4.59.86l-.12-.13-.56-54.17,45.55-3.68.78,22.13-27.57,2.23.11,11.09c.59-.14,1.25-.24,2-.3s1.56-.13,2.46-.2c9.3-.75,16.77,1.29,22.41,6.12,5.63,4.84,8.84,12,9.6,21.49.56,6.98-.35,13.23-2.75,18.76-2.4,5.53-6.04,9.99-10.94,13.39-4.89,3.39-10.88,5.38-17.95,5.95Z"/>
            <path class="cls-4" d="M786.03,286.31c7.07-.57,13.09.88,18.05,4.37,4.96,3.48,8.88,8.39,11.75,14.71,2.87,6.32,4.63,13.49,5.28,21.49.73,9.02.14,17.24-1.77,24.65-1.91,7.41-4.99,13.8-9.24,19.15-4.25,5.35-9.49,9.52-15.73,12.51-6.24,2.99-13.36,4.57-21.36,4.75l-1.73-21.35c5.01-.12,9.48-.81,13.43-2.07,3.94-1.25,7.22-3.32,9.84-6.2,2.61-2.88,4.44-6.7,5.48-11.47l-.34.03c-1.58,1.81-3.59,3.31-6.04,4.49-2.45,1.18-5.17,1.89-8.14,2.13-4.69.38-9-.56-12.92-2.82-3.93-2.26-7.16-5.65-9.7-10.17-2.54-4.52-4.07-10.04-4.6-16.55-.56-6.88.23-13.08,2.37-18.59,2.14-5.51,5.38-9.94,9.71-13.29,4.34-3.35,9.56-5.27,15.66-5.76ZM787.57,306.83c-1.56.13-2.94.75-4.12,1.88-1.18,1.13-2.05,2.69-2.6,4.7-.55,2.01-.71,4.41-.49,7.2.19,2.33.68,4.49,1.48,6.48.8,2,1.92,3.54,3.35,4.64,1.44,1.1,3.2,1.57,5.28,1.4,1.19-.1,2.31-.4,3.35-.9,1.04-.51,2-1.19,2.87-2.06.87-.86,1.56-1.83,2.07-2.91.22-2.83-.03-5.87-.74-9.14-.71-3.26-1.91-6.02-3.59-8.28-1.68-2.25-3.97-3.26-6.88-3.03Z"/>
            <path class="cls-4" d="M877.86,379.73c-7.14.58-13.2-1.16-18.17-5.2-4.97-4.04-8.88-9.77-11.73-17.17-2.85-7.4-4.65-15.8-5.41-25.2-.75-9.3-.32-17.81,1.3-25.53,1.62-7.72,4.56-13.97,8.82-18.76,4.26-4.79,9.96-7.48,17.1-8.05s13.2,1.16,18.17,5.2c4.97,4.05,8.86,9.75,11.67,17.11,2.8,7.36,4.58,15.69,5.34,24.99.76,9.4.35,17.97-1.23,25.73-1.58,7.76-4.5,14.04-8.76,18.83-4.26,4.79-9.96,7.48-17.1,8.05ZM876.13,358.38c2.08-.17,3.7-1.21,4.86-3.13,1.15-1.92,1.86-5,2.12-9.23.26-4.23.1-9.93-.48-17.1-.57-7.07-1.33-12.67-2.26-16.81-.93-4.14-2.13-7.06-3.57-8.77-1.45-1.71-3.22-2.48-5.3-2.31-2.08.17-3.7,1.21-4.86,3.13-1.16,1.92-1.88,5-2.17,9.24-.29,4.24-.16,9.89.42,16.96.58,7.16,1.35,12.81,2.33,16.95.97,4.14,2.18,7.06,3.63,8.77,1.45,1.71,3.21,2.48,5.3,2.31Z"/>
            <path class="cls-4" d="M946.28,305.97l-5.7-17.16c4.78-2.39,9.9-5.21,15.36-8.44,5.46-3.24,10.86-6.63,16.21-10.17l15.49-1.25c5.85,2.64,11.73,5.11,17.64,7.43,5.91,2.32,11.41,4.28,16.52,5.87l-2.87,17.85c-6.32-2.94-12.66-5.97-19.01-9.08-6.36-3.11-12.74-6.62-19.13-10.53-5.69,4.88-11.42,9.37-17.19,13.46-5.78,4.09-11.55,8.1-17.31,12.02ZM951.33,368.47l-2.53-14.93c6.51-.8,13.06-1.85,19.64-3.14,6.58-1.29,13.31-2.87,20.18-4.74l2.53,14.93c-6.87,1.87-13.59,3.45-20.18,4.74-6.58,1.29-13.13,2.34-19.64,3.14ZM957.49,359.58l-5.17-63.94,57.99-4.69,3.35,41.39-49.67,4.02-.88-10.92,35.17-2.85-1.5-18.53-28.99,2.35,4.21,52-14.5,1.17ZM962.84,321.11l-.8-9.88,41.18-3.33.8,9.88-41.18,3.33ZM975.04,299.81l-1.08-13.28,14.5-1.17,1.08,13.28-14.5,1.17ZM1018.59,363.65c-4.22-1.59-8.14-3.21-11.75-4.85-3.62-1.64-7.06-3.52-10.32-5.64-3.27-2.12-6.48-4.74-9.63-7.88-3.16-3.13-6.41-6.98-9.76-11.54l16.31-1.32c4.62,4.46,9.52,8.02,14.71,10.68,5.19,2.66,11.13,4.4,17.83,5.24l-7.38,15.31ZM1014.13,350.54l-10.03-9.14c1.65-2.21,3.15-4.49,4.5-6.84,1.36-2.35,2.46-4.5,3.29-6.43l10.9,7.62c-1.28,2.66-2.63,5.24-4.06,7.74-1.43,2.5-2.97,4.85-4.61,7.06Z"/>
          </g>
        </g>
      </g>
    </g>
  </g>
</svg>