<svg xmlns="http://www.w3.org/2000/svg" width="1366.73" height="684.826" viewBox="0 0 1366.73 684.826"><g transform="translate(0 15.796)" style="isolation:isolate"><path d="M1303,61.29l-349-21-459,55-415,89-80,251,70,213,332.64,20.74H876.05L1337,634.29l29.73-152.17-3.1-254.9Z" fill="#0b318f"/><path d="M1262.97,174.37l-.25-.08s-.08.18-.08.19.33-.12.33-.12Z" fill="#fff"/><path d="M1262.97,174.37l-.25-.08s-.08.18-.08.19.33-.12.33-.12Z" fill="#fff"/><path d="M834.48,322.6c-2.93.13-5.71,2.36-5.85,4.71a4.751,4.751,0,0,0,4.63,5.1c3.31-.02,6.96.69,10.25-1.73-1.32-5.85-4.18-8.29-9.04-8.08Z" fill="#fff"/><path d="M834.48,322.6c-2.93.13-5.71,2.36-5.85,4.71a4.751,4.751,0,0,0,4.63,5.1c3.31-.02,6.96.69,10.25-1.73-1.32-5.85-4.18-8.29-9.04-8.08Z" fill="#fff"/><path d="M1037.05,200.54c-1.38-1.27-2.57-2.92-4.19-3.71a4.974,4.974,0,0,0-6,1.44c-1.78,1.95-1.32,4.32-.03,6.13,1.52,2.15,3.1,4.64,6.49,4.23C1037.03,208.18,1038,205.99,1037.05,200.54Z" fill="#fff"/><path d="M1037.05,200.54c-1.38-1.27-2.57-2.92-4.19-3.71a4.974,4.974,0,0,0-6,1.44c-1.78,1.95-1.32,4.32-.03,6.13,1.52,2.15,3.1,4.64,6.49,4.23C1037.03,208.18,1038,205.99,1037.05,200.54Z" fill="#fff"/><path d="M862.95,266.08c1.55,1.67,3.19,1.2,5.07.48a43.664,43.664,0,0,1,5.8-1.39c-.04-5.9-.14-5.97-9.23-5.75a7.761,7.761,0,0,0-1.19,1.57c-.62,1.65-2.18,3.25-.45,5.11Z" fill="#fff"/><path d="M862.95,266.08c1.55,1.67,3.19,1.2,5.07.48a43.664,43.664,0,0,1,5.8-1.39c-.04-5.9-.14-5.97-9.23-5.75a7.761,7.761,0,0,0-1.19,1.57c-.62,1.65-2.18,3.25-.45,5.11Z" fill="#fff"/><path d="M985.78,244.2c2.56,3.87,4.47,8.33,10.19,5.94.72-4.59-.13-6.02-4.32-8.05C988.99,240.8,987.09,241.19,985.78,244.2Z" fill="#fff"/><path d="M985.78,244.2c2.56,3.87,4.47,8.33,10.19,5.94.72-4.59-.13-6.02-4.32-8.05C988.99,240.8,987.09,241.19,985.78,244.2Z" fill="#fff"/><path d="M718.43,262.52a10.7,10.7,0,0,0,7.96,6.55q1.77-2.67,3.26-4.92c-3.96-5.05-6.29-5.37-11.22-1.63Z" fill="#fff"/><path d="M718.43,262.52a10.7,10.7,0,0,0,7.96,6.55q1.77-2.67,3.26-4.92c-3.96-5.05-6.29-5.37-11.22-1.63Z" fill="#fff"/><path d="M944.9,330.68c-2.5-.02-3.59,1.48-3.82,3.66,1.38,1.63,2.66,3.15,3.84,4.54,2.4-.41,4.49-.77,6.59-1.12-1.22-4.25-3.8-7.05-6.62-7.08Z" fill="#fff"/><path d="M944.9,330.68c-2.5-.02-3.59,1.48-3.82,3.66,1.38,1.63,2.66,3.15,3.84,4.54,2.4-.41,4.49-.77,6.59-1.12-1.22-4.25-3.8-7.05-6.62-7.08Z" fill="#fff"/><path d="M832.6,234.64c-2.15-.98-4.3-.22-5.43,2.25-.44.95-1.06,1.83-1.79,3.05,1.49,1.7,2.86,3.26,4.9,5.57,1.5-2.34,2.58-3.61,3.18-5.08.82-2.02,1.81-4.55-.86-5.79Z" fill="#fff"/><path d="M832.6,234.64c-2.15-.98-4.3-.22-5.43,2.25-.44.95-1.06,1.83-1.79,3.05,1.49,1.7,2.86,3.26,4.9,5.57,1.5-2.34,2.58-3.61,3.18-5.08.82-2.02,1.81-4.55-.86-5.79Z" fill="#fff"/><path d="M715.45,303.05c-1.87-1.46-3.38-1.13-4.45.97-2.1,4.1.24,7.39,5.64,7.56,1.7-5.33,1.53-6.4-1.18-8.53Z" fill="#fff"/><path d="M715.45,303.05c-1.87-1.46-3.38-1.13-4.45.97-2.1,4.1.24,7.39,5.64,7.56,1.7-5.33,1.53-6.4-1.18-8.53Z" fill="#fff"/><path d="M859,366.7a4.236,4.236,0,0,0,3.41-1.77c.94-1.93-.73-2.98-2.35-3.66-3.17-1.33-6.13-.7-9.38,1.43,1.98,3.7,5.27,3.8,8.31,3.99Z" fill="#fff"/><path d="M859,366.7a4.236,4.236,0,0,0,3.41-1.77c.94-1.93-.73-2.98-2.35-3.66-3.17-1.33-6.13-.7-9.38,1.43,1.98,3.7,5.27,3.8,8.31,3.99Z" fill="#fff"/><path d="M1116.48,248.34c1.7,1.01,3.22,1.91,5.13,3.05,1.9-1.63,3.77-3.2,6-5.1-2.89-2.6-5.38-3.35-8.51-2.29C1116.75,244.8,1115.91,246.21,1116.48,248.34Z" fill="#fff"/><path d="M1116.48,248.34c1.7,1.01,3.22,1.91,5.13,3.05,1.9-1.63,3.77-3.2,6-5.1-2.89-2.6-5.38-3.35-8.51-2.29C1116.75,244.8,1115.91,246.21,1116.48,248.34Z" fill="#fff"/><path d="M791.71,228.07c-.34,1.1-.71,2.27-1.15,3.66,3.61,2.92,6.97,3.07,10.7,2.02-1.5-4.63-3.58-5.81-9.55-5.69Z" fill="#fff"/><path d="M791.71,228.07c-.34,1.1-.71,2.27-1.15,3.66,3.61,2.92,6.97,3.07,10.7,2.02-1.5-4.63-3.58-5.81-9.55-5.69Z" fill="#fff"/><path d="M1034.19,270.51c-2.19-4.92-4.98-5.56-11.15-2.24C1029.71,273.33,1030.04,273.38,1034.19,270.51Z" fill="#fff"/><path d="M1034.19,270.51c-2.19-4.92-4.98-5.56-11.15-2.24C1029.71,273.33,1030.04,273.38,1034.19,270.51Z" fill="#fff"/><path d="M959.12,252.74c.47-.54.67-2.14.33-2.43a13.821,13.821,0,0,0-4.99-3.06c-1.11-.28-2.62,1.04-4.34,1.81,1.99,2.49,3.45,4.32,5.29,6.63a24.751,24.751,0,0,0,3.71-2.95Z" fill="#fff"/><path d="M959.12,252.74c.47-.54.67-2.14.33-2.43a13.821,13.821,0,0,0-4.99-3.06c-1.11-.28-2.62,1.04-4.34,1.81,1.99,2.49,3.45,4.32,5.29,6.63a24.751,24.751,0,0,0,3.71-2.95Z" fill="#fff"/><path d="M989.54,308.35c2.53-6.12,1.53-7.25-5.85-7.02Q983.18,306.78,989.54,308.35Z" fill="#fff"/><path d="M989.54,308.35c2.53-6.12,1.53-7.25-5.85-7.02Q983.18,306.78,989.54,308.35Z" fill="#fff"/><path d="M1055.18,211.01c1.69,1.74,3.31,3.42,5,5.17,1.7-.56,3.24-1.08,4.76-1.59-.63-4.85-4.99-6.61-9.75-3.58Z" fill="#fff"/><path d="M1055.18,211.01c1.69,1.74,3.31,3.42,5,5.17,1.7-.56,3.24-1.08,4.76-1.59-.63-4.85-4.99-6.61-9.75-3.58Z" fill="#fff"/><path d="M1099.55,237.39a2.672,2.672,0,0,0-.07-2.49c-2.04-1.67-4.29-3.07-7.15-5.06-.9,6.39.96,9.08,5.02,8.79a3.121,3.121,0,0,0,2.21-1.24Z" fill="#fff"/><path d="M1099.55,237.39a2.672,2.672,0,0,0-.07-2.49c-2.04-1.67-4.29-3.07-7.15-5.06-.9,6.39.96,9.08,5.02,8.79a3.121,3.121,0,0,0,2.21-1.24Z" fill="#fff"/><path d="M816.28,427.05c-.77,2.5,1.76,4.94,5.85,6.13q.79-4.3-2.09-9.06c-1.34.98-3.38,1.7-3.76,2.93Z" fill="#fff"/><path d="M816.28,427.05c-.77,2.5,1.76,4.94,5.85,6.13q.79-4.3-2.09-9.06c-1.34.98-3.38,1.7-3.76,2.93Z" fill="#fff"/><path d="M884.78,304.09c.63,4.24,3.13,6.3,7.17,6.84C894.18,305.35,892.12,303.38,884.78,304.09Z" fill="#fff"/><path d="M884.78,304.09c.63,4.24,3.13,6.3,7.17,6.84C894.18,305.35,892.12,303.38,884.78,304.09Z" fill="#fff"/><path d="M929.37,405.27c2.1-.82,2.3-2.68,1.81-4.54-.56-2.1-2.62-2.97-4.77-2.3-1.95.6-2.62,1.8-1.92,3.73C925.29,404.57,927.43,406.02,929.37,405.27Z" fill="#fff"/><path d="M929.37,405.27c2.1-.82,2.3-2.68,1.81-4.54-.56-2.1-2.62-2.97-4.77-2.3-1.95.6-2.62,1.8-1.92,3.73C925.29,404.57,927.43,406.02,929.37,405.27Z" fill="#fff"/><path d="M897.87,353.39c-1.8-3.71-4.01-4.97-8.21-4.68C890.38,354.52,892.06,355.48,897.87,353.39Z" fill="#fff"/><path d="M897.87,353.39c-1.8-3.71-4.01-4.97-8.21-4.68C890.38,354.52,892.06,355.48,897.87,353.39Z" fill="#fff"/><path d="M938.73,371.1c.07-2.66-1.57-3.54-6.2-3.42-.2.74-.45,1.14-.36,1.43.57,1.89,1.22,3.75,1.95,5.95,1.34-.32,2.74-.3,3.55-.97A4.314,4.314,0,0,0,938.73,371.1Z" fill="#fff"/><path d="M938.73,371.1c.07-2.66-1.57-3.54-6.2-3.42-.2.74-.45,1.14-.36,1.43.57,1.89,1.22,3.75,1.95,5.95,1.34-.32,2.74-.3,3.55-.97A4.314,4.314,0,0,0,938.73,371.1Z" fill="#fff"/><path d="M813.01,298.49c-3.9-.14-6.69.16-8.98,4.71,3.04.34,5.43,1.15,7.46.59.89-.25,1-3.29,1.52-5.3Z" fill="#fff"/><path d="M813.01,298.49c-3.9-.14-6.69.16-8.98,4.71,3.04.34,5.43,1.15,7.46.59.89-.25,1-3.29,1.52-5.3Z" fill="#fff"/><path d="M894.31,253.19c.65-.55,1.14-2.25.75-2.84a8.488,8.488,0,0,0-3.55-3.26c-1.05-.44-2.59.32-4.95.73a54.584,54.584,0,0,0,4.87,5.49,2.941,2.941,0,0,0,2.87-.11Z" fill="#fff"/><path d="M894.31,253.19c.65-.55,1.14-2.25.75-2.84a8.488,8.488,0,0,0-3.55-3.26c-1.05-.44-2.59.32-4.95.73a54.584,54.584,0,0,0,4.87,5.49,2.941,2.941,0,0,0,2.87-.11Z" fill="#fff"/><path d="M838.5,407.6c-.59-1.32-2.61-2.39-4.2-2.71-.7-.15-2.44,1.66-2.66,2.78-.6,3.16,2.85,2.48,4.63,4.88,1.04-2.13,2.65-3.99,2.22-4.94Z" fill="#fff"/><path d="M838.5,407.6c-.59-1.32-2.61-2.39-4.2-2.71-.7-.15-2.44,1.66-2.66,2.78-.6,3.16,2.85,2.48,4.63,4.88,1.04-2.13,2.65-3.99,2.22-4.94Z" fill="#fff"/><path d="M772.41,247.18c-2.64-1.31-4.96-1.77-7.17-.41a3.5,3.5,0,0,0-1.26,2.67c.01.56,1.21,1.53,1.92,1.58,2.64.15,5.21-.18,6.5-3.83Z" fill="#fff"/><path d="M772.41,247.18c-2.64-1.31-4.96-1.77-7.17-.41a3.5,3.5,0,0,0-1.26,2.67c.01.56,1.21,1.53,1.92,1.58,2.64.15,5.21-.18,6.5-3.83Z" fill="#fff"/><path d="M968.93,364.25c-3.12-3.96-4.74-4.66-6.77-3.13a3.347,3.347,0,0,0-.33,4.89c3.28,2.91,4.61-1.2,7.1-1.76Z" fill="#fff"/><path d="M968.93,364.25c-3.12-3.96-4.74-4.66-6.77-3.13a3.347,3.347,0,0,0-.33,4.89c3.28,2.91,4.61-1.2,7.1-1.76Z" fill="#fff"/><path d="M829.59,220.14c3.09,1.54,5.99,3.89,9.92.88C836.89,217.17,832.5,216.81,829.59,220.14Z" fill="#fff"/><path d="M829.59,220.14c3.09,1.54,5.99,3.89,9.92.88C836.89,217.17,832.5,216.81,829.59,220.14Z" fill="#fff"/><path d="M971.48,387c-.04-2.05.47-4.03-.25-5.3-1.08-1.92-3.03-3.37-5.58-1.78C966.33,384.43,966.44,384.59,971.48,387Z" fill="#fff"/><path d="M971.48,387c-.04-2.05.47-4.03-.25-5.3-1.08-1.92-3.03-3.37-5.58-1.78C966.33,384.43,966.44,384.59,971.48,387Z" fill="#fff"/><path d="M1078.61,299.28c.85.71,2.23,1.49,3.11,1.25a3.456,3.456,0,0,0,2.07-2.59,3.588,3.588,0,0,0-1.94-2.83c-1.72-.46-3.64-.16-6.43-.17,1.67,2.34,2.24,3.56,3.18,4.34Z" fill="#fff"/><path d="M1078.61,299.28c.85.71,2.23,1.49,3.11,1.25a3.456,3.456,0,0,0,2.07-2.59,3.588,3.588,0,0,0-1.94-2.83c-1.72-.46-3.64-.16-6.43-.17,1.67,2.34,2.24,3.56,3.18,4.34Z" fill="#fff"/><path d="M1006.6,366.87a4.79,4.79,0,0,0-1.05-3.84c-1.72-1.69-3.65-1.25-5.26.78.27,2.21.86,4.44,3.4,4.89a3.48,3.48,0,0,0,2.91-1.83Z" fill="#fff"/><path d="M1006.6,366.87a4.79,4.79,0,0,0-1.05-3.84c-1.72-1.69-3.65-1.25-5.26.78.27,2.21.86,4.44,3.4,4.89a3.48,3.48,0,0,0,2.91-1.83Z" fill="#fff"/><path d="M894.5,376.6c1.46,1.32,3.06,2.76,4.79,4.3,1.75-2.73,2.53-5.14.13-6.85-1.99-1.42-3.78-.35-4.92,2.54Z" fill="#fff"/><path d="M894.5,376.6c1.46,1.32,3.06,2.76,4.79,4.3,1.75-2.73,2.53-5.14.13-6.85-1.99-1.42-3.78-.35-4.92,2.54Z" fill="#fff"/><path d="M731.42,287.29c-3.15,3.04-3.12,3.27,1.3,7.22C735.75,290.41,735.74,290.34,731.42,287.29Z" fill="#fff"/><path d="M731.42,287.29c-3.15,3.04-3.12,3.27,1.3,7.22C735.75,290.41,735.74,290.34,731.42,287.29Z" fill="#fff"/><path d="M883.37,423.96a12.525,12.525,0,0,0,.69-3.98c-.15-1.54-3.09-2.84-4.42-2.09-1.31.75-2.44,2.06-1.02,3.51C879.73,422.54,880,425.14,883.37,423.96Z" fill="#fff"/><path d="M883.37,423.96a12.525,12.525,0,0,0,.69-3.98c-.15-1.54-3.09-2.84-4.42-2.09-1.31.75-2.44,2.06-1.02,3.51C879.73,422.54,880,425.14,883.37,423.96Z" fill="#fff"/><path d="M1028.02,324.09c.61,1,2.21,1.38,3.36,2.05.65-1.48,1.29-2.96,2.27-5.21-1.98-.67-3.37-1.67-4.33-1.34-2.15.71-2.35,2.84-1.31,4.51Z" fill="#fff"/><path d="M1028.02,324.09c.61,1,2.21,1.38,3.36,2.05.65-1.48,1.29-2.96,2.27-5.21-1.98-.67-3.37-1.67-4.33-1.34-2.15.71-2.35,2.84-1.31,4.51Z" fill="#fff"/><path d="M1033.16,229.43c-2.42.68-4.32,1.22-6.07,1.71.31,3.6,1.91,4.92,4.54,4.09,2.68-.85,1.66-3.08,1.53-5.8Z" fill="#fff"/><path d="M1033.16,229.43c-2.42.68-4.32,1.22-6.07,1.71.31,3.6,1.91,4.92,4.54,4.09,2.68-.85,1.66-3.08,1.53-5.8Z" fill="#fff"/><path d="M1072.66,270.93c.2,1.82-.09,3.41.57,4.12a5.06,5.06,0,0,0,3.72,1.42,3.291,3.291,0,0,0,2.1-2.54c-.08-.88-1.44-1.86-2.45-2.38-.91-.47-2.11-.36-3.95-.62Z" fill="#fff"/><path d="M1072.66,270.93c.2,1.82-.09,3.41.57,4.12a5.06,5.06,0,0,0,3.72,1.42,3.291,3.291,0,0,0,2.1-2.54c-.08-.88-1.44-1.86-2.45-2.38-.91-.47-2.11-.36-3.95-.62Z" fill="#fff"/><path d="M960.01,210.09c1.49,2.14,2,5.66,5.02,3.9,2.7-1.58.94-4-.81-6.33-1.44.83-2.75,1.59-4.22,2.43Z" fill="#fff"/><path d="M960.01,210.09c1.49,2.14,2,5.66,5.02,3.9,2.7-1.58.94-4-.81-6.33-1.44.83-2.75,1.59-4.22,2.43Z" fill="#fff"/><path d="M1108.91,275.54c-2.3-2.18-3.11-5.23-7.32-4.79C1102.89,275.74,1103.65,276.27,1108.91,275.54Z" fill="#fff"/><path d="M1108.91,275.54c-2.3-2.18-3.11-5.23-7.32-4.79C1102.89,275.74,1103.65,276.27,1108.91,275.54Z" fill="#fff"/><path d="M1000.68,233.04a4.01,4.01,0,0,0-3.32-.66c-1.59.4-2.42,1.66-1.53,3.6.61,1.8,2.19,1.56,3.63,1.18s2.33-3,1.23-4.11Z" fill="#fff"/><path d="M1000.68,233.04a4.01,4.01,0,0,0-3.32-.66c-1.59.4-2.42,1.66-1.53,3.6.61,1.8,2.19,1.56,3.63,1.18s2.33-3,1.23-4.11Z" fill="#fff"/><path d="M772.79,324.96c.85-2.23,1.7-3.45,1.68-4.67-.03-1.87-1.61-2.11-3.19-1.93-1.78.2-2.86,1.33-2.22,2.91C769.54,322.46,771,323.25,772.79,324.96Z" fill="#fff"/><path d="M772.79,324.96c.85-2.23,1.7-3.45,1.68-4.67-.03-1.87-1.61-2.11-3.19-1.93-1.78.2-2.86,1.33-2.22,2.91C769.54,322.46,771,323.25,772.79,324.96Z" fill="#fff"/><path d="M787.57,412.16c.91-4.38-.45-6.93-4.99-8.73A10.452,10.452,0,0,0,787.57,412.16Z" fill="#fff"/><path d="M787.57,412.16c.91-4.38-.45-6.93-4.99-8.73A10.452,10.452,0,0,0,787.57,412.16Z" fill="#fff"/><path d="M917.7,201.96c-2.28,1.64-.19,3.83.91,6.45,1.68-1.29,2.98-2.28,4.88-3.73C921.33,202.93,920.04,200.26,917.7,201.96Z" fill="#fff"/><path d="M917.7,201.96c-2.28,1.64-.19,3.83.91,6.45,1.68-1.29,2.98-2.28,4.88-3.73C921.33,202.93,920.04,200.26,917.7,201.96Z" fill="#fff"/><path d="M1002.64,204.3c-.85-1.45-1.38-3.44-2.64-4.21-1.46-.89-3.36-.19-4.8,1.84,2.23,1.26,4.19,2.36,6.15,3.47.43-.37.86-.74,1.29-1.1Z" fill="#fff"/><path d="M1002.64,204.3c-.85-1.45-1.38-3.44-2.64-4.21-1.46-.89-3.36-.19-4.8,1.84,2.23,1.26,4.19,2.36,6.15,3.47.43-.37.86-.74,1.29-1.1Z" fill="#fff"/><path d="M774.53,269.66c.87,2.01.83,4.54,4.14,5.06.72-1.56,2.38-2.97.75-4.83-1.3-1.48-3.06-2.03-4.89-.24Z" fill="#fff"/><path d="M774.53,269.66c.87,2.01.83,4.54,4.14,5.06.72-1.56,2.38-2.97.75-4.83-1.3-1.48-3.06-2.03-4.89-.24Z" fill="#fff"/><path d="M862.43,223.09c1.25,2.91,2.13,4.94,3.23,7.53C868.45,225.3,868.01,224.13,862.43,223.09Z" fill="#fff"/><path d="M862.43,223.09c1.25,2.91,2.13,4.94,3.23,7.53C868.45,225.3,868.01,224.13,862.43,223.09Z" fill="#fff"/><path d="M934.38,234.61q-.81-3.64-6.61-3.76C929.11,234.35,931.15,235.55,934.38,234.61Z" fill="#fff"/><path d="M934.38,234.61q-.81-3.64-6.61-3.76C929.11,234.35,931.15,235.55,934.38,234.61Z" fill="#fff"/><path d="M865.6,319.66c2.24-4.92,2.07-5.29-3.89-6.57C862.97,315.82,862.29,318.83,865.6,319.66Z" fill="#fff"/><path d="M865.6,319.66c2.24-4.92,2.07-5.29-3.89-6.57C862.97,315.82,862.29,318.83,865.6,319.66Z" fill="#fff"/><path d="M1047.79,311.88a5.37,5.37,0,0,0-.89,3.32c.18,1.15,1.14,2.17,2.13,3.88,1.17-1.76,2.28-2.75,2.42-3.86a4.7,4.7,0,0,0-1.29-3.18c-.39-.45-2.15-.5-2.37-.15Z" fill="#fff"/><path d="M1047.79,311.88a5.37,5.37,0,0,0-.89,3.32c.18,1.15,1.14,2.17,2.13,3.88,1.17-1.76,2.28-2.75,2.42-3.86a4.7,4.7,0,0,0-1.29-3.18c-.39-.45-2.15-.5-2.37-.15Z" fill="#fff"/><path d="M985.58,347.83c.93,2.05,2.32,2.1,4.51,1.88-.75-2.25-1.4-4.19-2.37-7.11-1.43,2.07-3.22,2.88-2.14,5.23Z" fill="#fff"/><path d="M985.58,347.83c.93,2.05,2.32,2.1,4.51,1.88-.75-2.25-1.4-4.19-2.37-7.11-1.43,2.07-3.22,2.88-2.14,5.23Z" fill="#fff"/><path d="M860.58,399.83c-.07,3.52,1.4,5.22,4.32,5.88C866.11,400.95,865.87,400.6,860.58,399.83Z" fill="#fff"/><path d="M860.58,399.83c-.07,3.52,1.4,5.22,4.32,5.88C866.11,400.95,865.87,400.6,860.58,399.83Z" fill="#fff"/><path d="M888.86,208.01q1.54,4.41,3.49,6.19C894.23,209.97,893.36,208.17,888.86,208.01Z" fill="#fff"/><path d="M888.86,208.01q1.54,4.41,3.49,6.19C894.23,209.97,893.36,208.17,888.86,208.01Z" fill="#fff"/><path d="M1058.44,274.41c-1.93-2.33-3.35-4.06-5.26-6.37C1051.24,272.82,1051.49,273.11,1058.44,274.41Z" fill="#fff"/><path d="M1058.44,274.41c-1.93-2.33-3.35-4.06-5.26-6.37C1051.24,272.82,1051.49,273.11,1058.44,274.41Z" fill="#fff"/><path d="M914.7,340.21c1.27,5.69,1.83,5.8,6.99,1.45C919.07,341.12,917.06,340.7,914.7,340.21Z" fill="#fff"/><path d="M914.7,340.21c1.27,5.69,1.83,5.8,6.99,1.45C919.07,341.12,917.06,340.7,914.7,340.21Z" fill="#fff"/><path d="M913.04,294.59c.78,6.17,1.07,6.41,5.18,4.73C916.68,297.91,915.31,296.66,913.04,294.59Z" fill="#fff"/><path d="M913.04,294.59c.78,6.17,1.07,6.41,5.18,4.73C916.68,297.91,915.31,296.66,913.04,294.59Z" fill="#fff"/><path d="M795.81,432.13c1.36,2.48,2.23,4.1,3.5,6.41,2.07-2.78,1.38-4.4.01-5.69C798.76,432.33,797.61,432.46,795.81,432.13Z" fill="#fff"/><path d="M795.81,432.13c1.36,2.48,2.23,4.1,3.5,6.41,2.07-2.78,1.38-4.4.01-5.69C798.76,432.33,797.61,432.46,795.81,432.13Z" fill="#fff"/><path d="M921.88,242.62c-5.3.02-5.37.13-3.82,5.6C919.42,246.24,920.51,244.64,921.88,242.62Z" fill="#fff"/><path d="M921.88,242.62c-5.3.02-5.37.13-3.82,5.6C919.42,246.24,920.51,244.64,921.88,242.62Z" fill="#fff"/><path d="M826.16,308.06c.26-.4.51-.81.76-1.22-1.73-1.08-3.46-2.16-5.71-3.57.02,4.37,2.48,4.59,4.94,4.79Z" fill="#fff"/><path d="M826.16,308.06c.26-.4.51-.81.76-1.22-1.73-1.08-3.46-2.16-5.71-3.57.02,4.37,2.48,4.59,4.94,4.79Z" fill="#fff"/><path d="M1031.77,343.5c.34,2.26.62,4.16.9,6.06Q1035.36,345.79,1031.77,343.5Z" fill="#fff"/><path d="M1031.77,343.5c.34,2.26.62,4.16.9,6.06Q1035.36,345.79,1031.77,343.5Z" fill="#fff"/><path d="M851.13,434.82c-1.06-1.82-1.78-3.07-2.51-4.32-.38.23-.75.45-1.13.68.64,1.34.51,3.25,3.64,3.63Z" fill="#fff"/><path d="M851.13,434.82c-1.06-1.82-1.78-3.07-2.51-4.32-.38.23-.75.45-1.13.68.64,1.34.51,3.25,3.64,3.63Z" fill="#fff"/><path d="M1274.8,145.04c-2.83,8.22-8.53,13.94-8.98,22.07,2.66,1.74,5.03.73,7.65-2.02.14,5.51,4.14,5.78,7.26,6.9,1.93.7,2.8,1.69,2.64,3.61-.45,5.52-.97,11.02-1.44,16.53a6.933,6.933,0,0,0,.06,2.73c1.79,5.26,3.68,10.49,7.61,14.65,4.39,4.66,6.98,9.91,5.17,16.51a23.668,23.668,0,0,0,1.62,16.89c5.28,10.46,5.05,20.87,2.57,31.77-.81,3.54-.9,7.31.93,10.77a13.244,13.244,0,0,0,7.44-15.02c-1.3-5.42-.69-10.69.05-15.98,1.28-9,3.29-17.93,1.62-27.09-.6-3.28-1.62-6.55-1.72-9.85-.32-11.44-2.81-22.06-10.42-31.02a7.461,7.461,0,0,1-1.09-1.93c-2.44-5.62-7.8-9.55-9.16-15.82-.14-.64-.99-1.09-1.38-1.72a18.483,18.483,0,0,1-2.26-4.18,68.635,68.635,0,0,0-8.16-17.81Z" fill="#fff"/><path d="M1274.8,145.04c-2.83,8.22-8.53,13.94-8.98,22.07,2.66,1.74,5.03.73,7.65-2.02.14,5.51,4.14,5.78,7.26,6.9,1.93.7,2.8,1.69,2.64,3.61-.45,5.52-.97,11.02-1.44,16.53a6.933,6.933,0,0,0,.06,2.73c1.79,5.26,3.68,10.49,7.61,14.65,4.39,4.66,6.98,9.91,5.17,16.51a23.668,23.668,0,0,0,1.62,16.89c5.28,10.46,5.05,20.87,2.57,31.77-.81,3.54-.9,7.31.93,10.77a13.244,13.244,0,0,0,7.44-15.02c-1.3-5.42-.69-10.69.05-15.98,1.28-9,3.29-17.93,1.62-27.09-.6-3.28-1.62-6.55-1.72-9.85-.32-11.44-2.81-22.06-10.42-31.02a7.461,7.461,0,0,1-1.09-1.93c-2.44-5.62-7.8-9.55-9.16-15.82-.14-.64-.99-1.09-1.38-1.72a18.483,18.483,0,0,1-2.26-4.18,68.635,68.635,0,0,0-8.16-17.81Z" fill="#fff"/><path d="M1107.79,238.35c-11.13,1.68-22.32,3.12-33.39,5.12-9.86,1.77-19.58,4.25-29.4,6.26-4.72.97-9.55,1.4-14.27,2.41-9.63,2.06-19.13,4.89-28.84,6.43a406.03,406.03,0,0,0-46.75,10.36c-15.88,4.48-31.57,9.86-47.94,12.22-9.15,1.32-18.55,2.25-27.73,1.65a151.287,151.287,0,0,1-29.49-5.27c-10.22-2.77-20.44-3.34-30.88-3.36-13.61-.02-23.49,6.92-31.62,16.8-4.58,5.57-8.21,11.91-15.14,15.12-1.1.51-1.86,1.74-2.84,2.71,3.06,2.35,6.12,1.43,8.42-.32a180.948,180.948,0,0,0,14.3-12.26c6.51-6.11,14.07-10.08,22.96-9.51,8.11.53,16.15,2.26,24.15,3.84a244.092,244.092,0,0,0,37.91,4.5c11.38.44,22.53-1.4,33.75-3.02,15.28-2.2,29.85-6.94,44.56-11.19,1.3,1.18,2.9.81,7.9-.36-.3-.57-.58-1.1-.86-1.62,1.31-.36,2.62-.71,3.94-1.05,7.46-1.92,14.75-4.48,22.07-6.96a3.6,3.6,0,0,0,2.81.15,2.794,2.794,0,0,0,1.55-1.61c2.83-.93,5.68-1.84,8.54-2.66,15.7-4.53,31.54-8.59,47.35-12.73,11.14-2.91,22.33-5.65,33.5-8.4,8.54-2.1,17.1-4.11,25.65-6.16-.08-.38-.16-.75-.23-1.12Z" fill="#fff"/><path d="M1107.79,238.35c-11.13,1.68-22.32,3.12-33.39,5.12-9.86,1.77-19.58,4.25-29.4,6.26-4.72.97-9.55,1.4-14.27,2.41-9.63,2.06-19.13,4.89-28.84,6.43a406.03,406.03,0,0,0-46.75,10.36c-15.88,4.48-31.57,9.86-47.94,12.22-9.15,1.32-18.55,2.25-27.73,1.65a151.287,151.287,0,0,1-29.49-5.27c-10.22-2.77-20.44-3.34-30.88-3.36-13.61-.02-23.49,6.92-31.62,16.8-4.58,5.57-8.21,11.91-15.14,15.12-1.1.51-1.86,1.74-2.84,2.71,3.06,2.35,6.12,1.43,8.42-.32a180.948,180.948,0,0,0,14.3-12.26c6.51-6.11,14.07-10.08,22.96-9.51,8.11.53,16.15,2.26,24.15,3.84a244.092,244.092,0,0,0,37.91,4.5c11.38.44,22.53-1.4,33.75-3.02,15.28-2.2,29.85-6.94,44.56-11.19,1.3,1.18,2.9.81,7.9-.36-.3-.57-.58-1.1-.86-1.62,1.31-.36,2.62-.71,3.94-1.05,7.46-1.92,14.75-4.48,22.07-6.96a3.6,3.6,0,0,0,2.81.15,2.794,2.794,0,0,0,1.55-1.61c2.83-.93,5.68-1.84,8.54-2.66,15.7-4.53,31.54-8.59,47.35-12.73,11.14-2.91,22.33-5.65,33.5-8.4,8.54-2.1,17.1-4.11,25.65-6.16-.08-.38-.16-.75-.23-1.12Z" fill="#fff"/><path d="M813.54,366.39c.63-7.97-1.16-15.8-2.7-23.54a18.871,18.871,0,0,1,.17-9.21c1.06-3.76,1.98-7.68.43-11.78-21.59,16.27-40.53,28.2-50.53,31.67-6.14-9.81-12.38-19.75-19.15-30.54-1.36,5.22-2.59,9.12.47,13.12a111.7,111.7,0,0,1,6.5,10.08c3.55,5.84,7.06,11.75,10.67,17.49,5.25,8.36,6.95,17.55,8.46,26.7.99,5.99-.58,12.45-1.29,18.66-.65,5.63-1.68,11.23-2.65,17.45,1.3-.67,2.48-.91,3.04-1.63,2.74-3.51,5.15-7.14,5.65-11.85.68-6.44,2.25-12.81,2.63-19.25.48-8.1-1.92-15.72-5.49-22.99-1.43-2.9-3.65-5.62-3.17-9.75,11.78-1.02,20.29-8.53,28.95-15.32a38.249,38.249,0,0,0,1.74,6.04,47.773,47.773,0,0,0,3.75,5.65c-2.35,1.73-4.77,3.5-7.15,5.26,1.38,2.32,2.91,2.72,4.87,1.5,2.76-1.72,5.53-3.4,9-5.53.51,2.68.97,5.08,1.63,8.55-7.07,2.35-13.49,4.49-19.92,6.63.08.48.15.96.23,1.44,4.17,2.18,8.66-.72,13.39.21a16.953,16.953,0,0,0-2.08,1.87c-4.22,5.4-8.99,9.69-16.54,8.91-.47-.05-.99.42-1.41.61-2.19,3.82.69,6.15,1.98,8.67,5.9.74,11.53-.01,15.11-4.12,4.4-5.05,8.93-10.32,10.73-17.17.7-2.65,2.48-5.14,2.69-7.79Z" fill="#fff"/><path d="M813.54,366.39c.63-7.97-1.16-15.8-2.7-23.54a18.871,18.871,0,0,1,.17-9.21c1.06-3.76,1.98-7.68.43-11.78-21.59,16.27-40.53,28.2-50.53,31.67-6.14-9.81-12.38-19.75-19.15-30.54-1.36,5.22-2.59,9.12.47,13.12a111.7,111.7,0,0,1,6.5,10.08c3.55,5.84,7.06,11.75,10.67,17.49,5.25,8.36,6.95,17.55,8.46,26.7.99,5.99-.58,12.45-1.29,18.66-.65,5.63-1.68,11.23-2.65,17.45,1.3-.67,2.48-.91,3.04-1.63,2.74-3.51,5.15-7.14,5.65-11.85.68-6.44,2.25-12.81,2.63-19.25.48-8.1-1.92-15.72-5.49-22.99-1.43-2.9-3.65-5.62-3.17-9.75,11.78-1.02,20.29-8.53,28.95-15.32a38.249,38.249,0,0,0,1.74,6.04,47.773,47.773,0,0,0,3.75,5.65c-2.35,1.73-4.77,3.5-7.15,5.26,1.38,2.32,2.91,2.72,4.87,1.5,2.76-1.72,5.53-3.4,9-5.53.51,2.68.97,5.08,1.63,8.55-7.07,2.35-13.49,4.49-19.92,6.63.08.48.15.96.23,1.44,4.17,2.18,8.66-.72,13.39.21a16.953,16.953,0,0,0-2.08,1.87c-4.22,5.4-8.99,9.69-16.54,8.91-.47-.05-.99.42-1.41.61-2.19,3.82.69,6.15,1.98,8.67,5.9.74,11.53-.01,15.11-4.12,4.4-5.05,8.93-10.32,10.73-17.17.7-2.65,2.48-5.14,2.69-7.79Z" fill="#fff"/><path d="M735,425.23c4.35-5.27,8.97-10.39,12.59-16.15,6.7-10.65,8.32-22.09,2.71-33.81-1.33-2.8-3.81-5.02-5.44-7.71-6.25-10.29-12.35-20.66-18.54-30.98-.73-1.22-1.67-2.32-2.47-3.41-4.05,1.65-4.1,4.74-2.97,7.54a142.3,142.3,0,0,0,7.6,15.97c3.44,6.12,7.48,11.91,11.12,17.92a43.544,43.544,0,0,1,3.05,6.48,8.185,8.185,0,0,1,.04,6.41c-1.69,4.28-3.4,8.76-3.86,13.28-.8,7.75-2.63,14.79-7.63,21-1.1,1.37-3.41,3.77-.67,6.64,1.58-1.1,3.37-1.86,4.47-3.19Z" fill="#fff"/><path d="M735,425.23c4.35-5.27,8.97-10.39,12.59-16.15,6.7-10.65,8.32-22.09,2.71-33.81-1.33-2.8-3.81-5.02-5.44-7.71-6.25-10.29-12.35-20.66-18.54-30.98-.73-1.22-1.67-2.32-2.47-3.41-4.05,1.65-4.1,4.74-2.97,7.54a142.3,142.3,0,0,0,7.6,15.97c3.44,6.12,7.48,11.91,11.12,17.92a43.544,43.544,0,0,1,3.05,6.48,8.185,8.185,0,0,1,.04,6.41c-1.69,4.28-3.4,8.76-3.86,13.28-.8,7.75-2.63,14.79-7.63,21-1.1,1.37-3.41,3.77-.67,6.64,1.58-1.1,3.37-1.86,4.47-3.19Z" fill="#fff"/><path d="M1212.36,264.24c6.48-.49,12.96-1.22,19.45-1.31,8.5-.13,16.96-.85,25.54.29,9.09,1.21,18.33.09,27.42-1.66-25.33-3.94-51.25-1.67-76.4-7.66a5.86,5.86,0,0,1,2.9-1.47c14.82-2.59,29.67-5.07,44.48-7.73,6.93-1.24,13.83-2.71,20.7-4.26,2.69-.61,4.82-2.26,6.51-5.84-13.84,1.38-26.88,3-39.98,3.9-13.25.91-26.55,1.12-39.83,1.64,5.44-2.17,11.03-3.41,16.54-4.97,15.04-4.23,30.03-8.62,45.05-12.9,3.57-1.02,7.2-1.81,10.77-2.8,1.5-.41,2.8-1.17,2.08-3.38a47.389,47.389,0,0,0-4.87.45c-11.86,2.27-23.7,4.67-35.57,6.91q-16.155,3.045-32.36,5.83a25.748,25.748,0,0,1-4.96-.07,3.267,3.267,0,0,1,1.98-1.82c8.21-2.96,16.43-5.87,24.63-8.85,9.27-3.37,18.6-6.54,27.73-10.25,5.47-2.21,10.6-5.24,15.85-7.98.69-.36,1.14-1.19,1.87-1.99-.75-.2-1.1-.42-1.35-.35q-17.85,5.49-35.68,11.02c-4.44,1.38-8.86,2.82-13.33,4.11-.98.28-2.11.01-4.25,0,15.95-8.58,30.77-16.57,45.59-24.55a158.481,158.481,0,0,0-16.74,6.02c-5.28,2.1-10.11,5.53-16.21,5.51a15.5,15.5,0,0,1,5.1-4.12c9.08-4.15,16.63-10.48,24.12-16.86,1.44-1.22,2.34-3.07,3.5-4.62l.08-.18c-2.42,1.72-4.81,3.49-7.29,5.13a82.417,82.417,0,0,1-7.63,4.63c-2.41,1.25-4.56,3.37-8.35,3.56,1.5-2.38,2.48-3.94,3.47-5.5,6.2-9.71,12.43-19.4,18.58-29.14a35.711,35.711,0,0,0,2.08-4.62,3.61,3.61,0,0,0-3,.99c-7.51,6.93-14.86,14.03-22.55,20.74a100.516,100.516,0,0,1-12.6,9.02c-7.37,4.66-14.78,9.26-22.4,13.49-6.13,3.41-12.32,7.21-18.98,9.06-8.54,2.37-16.8,4.83-23.55,10.72-3.82,3.33-8.5,3.49-12.82,3.28-5.5-.26-10.97-1.84-16.37-3.21a8.657,8.657,0,0,1-4.13-3.2,90.109,90.109,0,0,1-4.83-7.72c-1.63,7.49.31,12.52,5.95,15.62,5.31,2.92,10.73,5.63,16.32,8.54-.19,2.59-.89,5.44,2.35,7.09.6.31.43,2.06.66,3.14.35,1.62.23,3.69,1.2,4.76,3.04,3.34,2.14,6.75,1.03,10.36-.42,1.4-.43,2.92-.77,4.35-1.65,7.02-3.12,13.82-10.77,17.54a62.976,62.976,0,0,0-18.51,14.14c-3.91,4.22-8.02,8.27-12.28,12.12-10.64,9.58-21.55,19.01-29.95,30.6-10.25,14.14-22.87,25.93-35.44,37.75-6.29,5.92-13.92,10.46-21.14,15.34-9.83,6.67-19.87,13.05-29.77,19.61-2.78,1.84-5.36,3.99-8.15,5.81a46.548,46.548,0,0,1-7.24,4.01c-5.49,2.29-11.07,4.37-16.65,6.42-6.44,2.38-12.88,4.71-19.38,6.92-2.63.89-5.39,1.39-8.11,2.04-17.34,4.13-34.6,8.62-52.04,12.25-12.51,2.6-25.25,4.15-37.92,5.94-10.09,1.43-20.21,2.76-30.36,3.69-4.96.46-10.06-.63-14.99-.06a77.8,77.8,0,0,1-25.97-1c-7.61-1.67-15.19-3.48-22.79-5.21a40.469,40.469,0,0,0-13.8-1.09c-2.45.29-5.1-.47-7.56-1.13-7.17-1.92-14.21-4.33-21.44-5.95-6-1.35-11.91-2.53-17.46-5.42a193.475,193.475,0,0,0-17.75-7.98c-8.08-3.22-16.47-5.74-24.4-9.3-4.52-2.03-9.31-4.23-12.9-8.54,3.8-1.92,8.76,1.06,11.42-3.77-4.23-.86-8.22-1.46-12.08-2.52-3.71-1.01-8.03,1.17-12.21-2.63,8.11-.29,15.25-.68,22.41-.75a35.631,35.631,0,0,1,22.27,7.1c3.4,2.55,6.75,5.17,10,7.91,2.32,1.96,4.42,4.16,7.09,6.7a11.893,11.893,0,0,0-1.46-10.6c-3.06-4.85-7.37-8.21-12.34-10.98-3.2-1.78-6.05-4.19-9.11-6.23a58.271,58.271,0,0,0-6.18-3.77c-5.63-2.84-11.27-5.67-17.02-8.25-6.88-3.1-13.17-7.6-20.83-8.88a9.072,9.072,0,0,1-2.11-1.11c3.52-3.65,7.04-5.26,11.56-2.78,1.96,1.07,3.97,2.01,5.94,3.05a33.023,33.023,0,0,0,17.77,3.45c-5.84-4.3-11.67-8.61-16.95-12.51,3.7-6.68,7.13-13.02,10.72-19.27,2.07-3.62,3.97-7.43,7.48-10.17,4.25,3.27,8.54,5.29,13.92,5.27,5.47-.02,9.68-2.08,11.92-6.64a11.37,11.37,0,0,0-1.61-13.02c-2.99-3.28-6.63-5.96-10.34-9.22,5.49-4.39,11.2-8.72,16.64-13.37,9.02-7.71,17.53-16.06,26.86-23.36,13.89-10.86,29.83-18.42,45.6-26.1,10-4.87,20.15-9.45,30.34-13.92,12.24-5.35,24.44-10.88,36.97-15.48,8.13-2.99,16.86-4.36,25.26-6.66,11.81-3.22,23.71-5.92,35.79-8.02,18.76-3.26,37.7-3.25,56.6-4.27,7.39-.4,14.76-1.18,22.13-1.84,9.22-.82,18.42-1.94,27.66-2.47,9.6-.56,19.25-.44,28.86-.89,11.15-.53,22.03.99,32.16,5.43,9.02,3.95,18.5,5.57,27.98,6.92,7.76,1.11,15.17,2.1,20.94,8.01.16.16.62.02.06.02,1.16-2.11,2.08-3.8,3-5.49.26-.39.52-.79.78-1.18a13.935,13.935,0,0,1-3.77-.74,7.64,7.64,0,0,1-3.22-2.71c-2.09-3.71-3.95-7.57-5.76-11.44a15.2,15.2,0,0,1-.66-3.61c7.33,1.36,11.83,4.82,13.64,11.92.89,3.5,3.09,6.74,5.12,9.83,1.54,2.35,3.13,4.95,6.1,5.96,2.05-3.82,1.89-3.75.74-6.77-1.28-3.34-3.84-6.28-3.76-10.5,5.57-.33,9.83,5.3,16.27,2.59-2.3-1.54-4.06-2.81-5.89-3.93-7.94-4.83-15.82-9.7-21.31-17.52-.51-.73-1.3-1.74-2-1.78-3.61-.17-5.43-3.03-7.82-4.95-9.27-7.43-18.25-15.23-27.74-22.36-13.46-10.09-29-15.62-45.28-19.18a125.685,125.685,0,0,0-12.6-2.18c-8.85-1.04-17.71-2.31-26.59-2.62-13.35-.47-26.74-.28-40.11-.21a188.405,188.405,0,0,0-19.46.74,258.073,258.073,0,0,0-34.98,6.68c-12.11,3.05-24.11,6.21-35.38,11.69-6.51,3.16-12.95,6.5-19.44,9.71-4.82,2.38-9.97,4.22-14.48,7.08-10.19,6.47-20.29,13.15-30.03,20.28a272.61,272.61,0,0,0-22.33,18.4c-7.23,6.6-13.75,13.98-20.87,20.71-7.01,6.63-14.45,12.79-21.54,19.33-2.69,2.48-4.85,5.5-7.37,8.17-8.15,8.61-16.54,17-24.46,25.81-4.69,5.21-8.38,11.2-14.07,15.66-4.31,3.38-7.83,7.86-11.35,12.15-2.79,3.4-4.44,7.75-8.86,9.74-.85.39-1.34,1.69-1.9,2.62-1.89,3.15-3.26,6.75-5.67,9.42a80.875,80.875,0,0,0-13.08,19.28c-1.84,3.8-4.41,6.85-8.62,8.16-10.78,3.35-15.07,11.93-17.29,21.95-.35,1.56.4,3.51,1.08,5.1a23.842,23.842,0,0,0,2.52,3.97c4.35.88,8,1.63,11.66,2.37-.65,1.02-1.15,1.28-1.67,1.34-10.53,1.18-15.43,5.71-18.01,18.68-.73,3.68,3.94,8.97,7.14,7.96,7.33-2.32,13.69-.66,19.79,3.61,2.05,1.44,4.68,2.03,6.82,3.37,4.19,2.63,8.22,5.51,12.33,8.29a68.241,68.241,0,0,0,6.01,4.01c4.51,2.41,9.25,4.41,13.67,6.95a110.493,110.493,0,0,0,30.94,12c5.6,1.26,11.29,2.09,16.94,3.1,3.81.69,7.72,1.16,9.23,5.19,1.45-.22,2.43-.38,4.25-.65-2.11,4.7-.57,7.89,1.88,11.31a17.2,17.2,0,0,1,2.89,8.83,64.759,64.759,0,0,0,4.74,20.95c1.97,5.06,4.82,7.33,9.52,8.69,4.37,1.27,5.9.98,8.26-2.94,1.5-2.49,2.63-5.2,4.07-8.08,4.08,1.18,7.86,2.26,11.7,3.36.83-5.25,3.14-7.83,8.32-10.41a4.268,4.268,0,0,0,1.77-3.02c.19-2.01-.32-4.09-.22-6.12a6.228,6.228,0,0,0-2.97-6.06c-2.08-1.46-3.6-3.72-5.42-5.58s-3.73-3.64-5.77-5.63c7.7.24,14.71.53,21.72.64,3.54.06,6.53.7,8.37,4.25a6.762,6.762,0,0,0,3.31,2.75,76.745,76.745,0,0,0,8.46,2.63q8.85,2.415,17.73,4.69c3.56.91,7.15,1.72,10.74,2.53,1.44.33,2.97.39,4.36.86,12.21,4.14,24.75,4.39,37.43,3.6,2.95-.19,6.13-.55,8.84.3,3.94,1.24,7.68.82,11.55.46,2.77-.26,5.56-.39,8.33-.69,10.69-1.14,21.4-2.09,32.04-3.58,6.6-.92,13.06-2.81,19.62-4.04,12.41-2.32,24.82-4.58,36.39-9.95,8.07-3.74,16.71-6.55,24.18-11.22,15.84-9.9,32.92-18.03,46.59-31.21,5.74-5.53,11.85-10.69,17.4-16.4,7.46-7.65,12.73-16.91,17.65-26.3,6.72-12.84,13.09-25.85,19.76-38.71,3.31-6.4,6.99-12.61,10.5-18.92-.17-.17-.33-.35-.5-.52-5.18,5.44-10.35,10.9-16.16,17.01,1.42-4.94,2.49-9.04,3.83-13.07a8.636,8.636,0,0,1,2.4-2.94c3.69-3.63,7.38-7.28,11.19-10.8,3.27-3.01,6.29-6.61,10.12-8.64,8.65-4.59,17.66-8.52,26.66-12.4a25.152,25.152,0,0,1,9.02-1.94c7-.22,14.02-.18,21.02.16,10.32.51,20.66,1.04,30.92,2.22,4.9.56,9.63,2.6,14.43,4.01a118.561,118.561,0,0,0,27.33,4.91c7.02.37,14.02.95,21.05,1.3a27.953,27.953,0,0,0,6.65-.43,6.186,6.186,0,0,0,5.38-5.59c-30.89-12.66-63.06-20.49-95.03-29.26a7.129,7.129,0,0,1,3.18-1.02Zm-142.31-88.12,1.16-1.04c3.88,1.64,7.79,3.19,11.59,4.98a3.61,3.61,0,0,1,1.83,2.48c.28,5.14,2.6,9.57,4.56,14.15a11.279,11.279,0,0,1,.42,2.26c-4.29.91-7.09-2.06-10.44-3.25-3.94-1.39-4.97-4.5-5.64-8.13-.37-1.97-1.44-3.79-2.04-5.72-.58-1.88-.96-3.81-1.43-5.73Zm-13.65-8.1c6.7,1.54,10.14,5.85,11.22,12.55.55,3.37,1.88,6.61,3.05,10.56-5.16.18-8.65-1.77-12.03-3.91a3.678,3.678,0,0,1-1.28-2.35c-.86-5.47-1.6-10.95-2.41-16.63a8.058,8.058,0,0,1,1.45-.22Zm-16.69-7.94c3.76-.34,6.44,1.93,9.4,3.24.73.32,1.2,1.83,1.32,2.84.66,5.65,1.17,11.33,1.87,18.35-4.04-1.73-7.51-2.68-10.29-4.63-1.48-1.05-2.33-3.77-2.45-5.81-.28-4.59.07-9.22.16-14Zm-6.34,2.71c-.06,4.01.23,8.03.4,12.94-2.7-.88-4.85-1.3-6.67-2.28a4.022,4.022,0,0,1-1.8-3.06c.16-5.51.63-11,1.03-17.06,7.24,2.77,7.15,2.77,7.05,9.46Zm-11.09-11.44c-.59,6.75-1.15,13.1-1.75,20.1-1.8-.15-2.91-.14-3.97-.35-1.43-.28-2.84-.72-4.17-1.08-.78-5.04,0-9.98,3.13-19.63,1.95.28,4.01.57,6.75.96Zm-13.23-3.3c-1.07,6.96-2.08,13.64-3.2,20.92-2.07-.3-4.15-.6-7-1.02,1.1-3.81,2.07-7.08,2.99-10.37.95-3.35,1.85-6.71,2.96-10.73C1006.74,147.39,1007.9,147.73,1009.05,148.05Zm-12.09-2.04c-1.61,7.01-3.13,13.59-4.74,20.6-4.47-.91-8.55-1.76-13.19-2.71,1.83-6.5,3.55-12.65,5.45-19.46,4.24.53,8.17,1.02,12.47,1.56Zm-23.82-2.15c1.79.25,3.63.29,6.1.48-1.29,6.62-3.76,12.48-5.9,18.96-4.91.21-9.29.39-14.47.61a31,31,0,0,1,1.47-4.55c2.17-4.08,4.69-7.98,6.66-12.15,1.34-2.85,3.21-3.77,6.14-3.35Zm-16.02-.43c1.42.23,2.87.29,4.84.47-.48,1.54-.75,2.72-1.22,3.82-1.71,4.1-3.66,8.11-5.19,12.28-1.08,2.93-2.67,4.72-5.96,4.74-2.56.02-5.12.26-7.67.4-.28-.4-.56-.8-.84-1.21,1.45-2.31,2.95-4.58,4.32-6.93a87.841,87.841,0,0,0,5.35-9.73c1.3-3.06,3.13-4.37,6.38-3.85Zm-13.51.37c.3.29.61.57.91.87-.76,1.38-1.57,2.74-2.28,4.15-2.07,4.15-4.17,8.28-6.15,12.46-1.78,3.77-2.41,4.1-7.36,2.65,4.39-6.59,8.65-13.05,13-19.45.3-.45,1.25-.46,1.89-.68Zm-9.98-1a32.257,32.257,0,0,1-1.62,3.94c-2.9,4.53-6.42,8.76-8.67,13.58s-5.46,5.46-10.69,4.3a108.6,108.6,0,0,1,14.5-19.53c1.12-1.23,3.5-1.29,6.49-2.29Zm-17.14.78c-4.91,7.31-9.26,13.96-13.85,20.43a6.763,6.763,0,0,1-4.15,2.34,97.346,97.346,0,0,1-10.06.58,33.44,33.44,0,0,1,2.25-4.21c3.59-4.72,7.48-9.23,10.87-14.08C905.17,143.44,910.04,142.67,916.49,143.58Zm-17.02,2.29c-1.39,1.78-2.46,3.21-3.58,4.59-4.1,5.04-8.3,9.99-12.28,15.13-1.7,2.19-3.68,2.93-7.19,2.44a29.1,29.1,0,0,1,2.03-3.75c4.12-5.27,8.34-10.45,12.46-15.72,2.04-2.61,4.58-3.46,8.55-2.69ZM867.6,154.5c3.84-3.62,8.45-5.03,14.62-5.93-3.08,4.32-6.08,7.71-8.14,11.6-4.55,8.57-11.71,12.76-21,13.99-2.09.27-4.14.77-6.21,1.17-.21-.37-.43-.74-.64-1.11,1.38-1.35,2.71-2.76,4.14-4.06,5.74-5.23,11.6-10.34,17.24-15.66Zm-30.54,10.22a21.916,21.916,0,0,1,6.53-4.04c3.84-1.76,7.83-3.19,11.76-4.76.3.4.61.79.91,1.19-1.04,1.16-2.02,2.38-3.14,3.46-5.61,5.39-11.36,10.63-16.84,16.15-3.68,3.71-8.5,4-13.96,5.87.86-1.77,1.11-2.78,1.72-3.47,4.28-4.86,8.49-9.8,13.02-14.41Zm-65.82,35.66c10.1-6.54,20.12-13.21,30.35-19.54,4.22-2.62,8.86-4.55,13.35-6.72a4.773,4.773,0,0,1,1.95-.2l.04-.04-.12-.14.32.17h-.24c-5.58,5.6-11.17,11.21-16.85,16.75a8.547,8.547,0,0,1-2.93,1.54c-9.97,3.91-19.96,7.8-30.36,11.21,1.5-1.02,2.98-2.06,4.49-3.04ZM654.63,323.41c-1.14-3.57-.07-7,2.36-7.59,2.14-.52,5.62,1.96,6.29,4.49.7,2.63-1.48,6.25-4.22,7-2.01.55-3.4-.68-4.42-3.9ZM767.44,483.94c-3.74-.75-7.03-.41-9.65,2.79-.85,1.05-2.17,1.74-3.93,3.09-2.09-9.08-7.9-14.84-13.35-20.91-3.58-3.98-6.62-8.38-8-14.5,3.56.6,6.66.93,9.65,1.72,1.52.4,3.7,1.36,4.08,2.55,1.16,3.69,4.46,4.72,6.98,6.72,3.62,2.89,7.18,5.86,10.85,8.69,1.45,1.12,3.12,1.93,4.67,2.93,1.53.98,3.03,2.01,4.47,2.98-1.85,4.65-1.87,4.72-5.77,3.94ZM892.5,467.87c-4.85.83-9.69,1.93-14.58,2.46-9.61,1.04-19.27,1.58-28.86-.26a29.5,29.5,0,0,1-7.84-2.6c-3.41-1.75-6.56-4.03-10.78-6.69,3.2-.25,5.5-.53,7.81-.58,4.08-.08,8.25.52,12.22-.12,8.86-1.43,17.29-.17,25.76,2.34,5.29,1.57,10.75,2.6,16.13,3.87.05.53.1,1.05.14,1.58Zm-16-9.57c7.52-1.37,14.89-2.53,22.5-.38,5.69,1.6,11.69,2.11,17.54,3.17a16.357,16.357,0,0,1,5.01,1.75c-15.81,5.97-30.58,2.3-45.05-4.55Zm77.72-1.2c-5.43,1.74-10.75,3.14-16.73,1.89-7.41-1.56-15.01-2.24-22.52-3.33a10.489,10.489,0,0,1-4.67-1.69c6.3-1.85,12.54-3.91,18.92-5.42,1.99-.46,4.4.37,6.49,1.01,6.28,1.96,12.51,4.12,18.76,6.2-.08.44-.17.89-.25,1.34Zm10.71-6.2c-4.64-2.22-9.65-3.68-14.48-5.52a20.062,20.062,0,0,1-2.44-1.32c1.43-2.28,3.45-1.8,5.11-1.82,3.85-.04,20.93,5.29,24.11,7.37-3.93,2.76-7.74,3.45-12.29,1.28Zm16.95-7.18c-3.68-2.04-7.97-2.98-11.97-4.45-1.88-.69-3.72-1.48-6.04-2.41,4.79-3.7,9.23-5.28,14.79-3.09,5.34,2.1,10.91,3.57,16.41,5.26.87.27,1.84.18,2.55.91-5.01,4.04-9.44,7.27-15.74,3.77Zm30.5-11.01c-4.33,4.5-9.1,5.29-14.78,3.01-4.64-1.86-9.55-3.03-14.31-4.56a34.77,34.77,0,0,1-3.5-1.57c4.37-3.79,9.43-5.07,13.88-7.42a2.558,2.558,0,0,1,2.1.18c5.46,3.1,10.88,6.27,16.3,9.44.11.06.12.33.32.92Zm5.67-8.01c-2.11-1.15-4.36-2.05-6.48-3.18-4.27-2.29-8.67-3.02-14.63-.7,1.48-1.77,1.92-2.7,2.65-3.13,3.53-2.03,7.1-4.02,10.76-5.78a4.313,4.313,0,0,1,3.6-.04c4.85,3.34,9.51,6.93,14.64,10.74-5.47,4.67-5.75,4.68-10.55,2.08Zm22.18-10.47c-1.96,1.57-3.6,2.89-5.32,4.27-5.1-3.79-9.83-7.29-15.2-11.28,3.58-2.49,6.42-4.47,9.65-6.71C1033.98,404.26,1036.64,409.27,1040.23,414.23Zm11.22-9.08c-2.63,2.16-4.85,4-7.67,6.32-3.44-4.46-6.62-8.6-10.06-13.08,3.04-2.79,5.87-5.4,9.67-8.89,2.86,5.53,5.36,10.39,8.07,15.64Zm10.33-10.27a4.393,4.393,0,0,1-1.29,3.32,30.685,30.685,0,0,1-4.55,3.2c-3.3-4.97-6.33-9.52-9.59-14.43,1.95-3.13,4.14-6.71,8.62-9.02,2.9,5.58,5.48,11.02,6.82,16.93Zm5.72-2.65c-2.83-6.44-5.35-12.15-8.25-18.74,2.56-2.74,5.49-5.85,9.22-9.83,1.69,7.97,3.41,14.72,4.46,21.58.52,3.37-2.95,4.63-5.43,6.99Zm10.62-10.14c-1.93-7.34-3.65-13.85-5.57-21.16,3.75-2.51,7.99-5.33,12.75-8.5a30.488,30.488,0,0,1,.98,3.98c.25,2.75-.15,5.66.58,8.26,2.37,8.41-3.67,12.13-8.74,17.42Zm14-15.16a20.861,20.861,0,0,1-1.13-3.49c-.25-2.57-.36-5.16-.5-7.75-.46-8.05.63-9.65,9.71-13.1C1098.7,351.32,1099.48,359.91,1092.12,366.93Zm14.23-18.78c1.88-6.61-.89-14.31,5.04-20.07C1112.02,333.47,1109.25,345.67,1106.35,348.15Z" fill="#fff"/><path d="M1212.36,264.24c6.48-.49,12.96-1.22,19.45-1.31,8.5-.13,16.96-.85,25.54.29,9.09,1.21,18.33.09,27.42-1.66-25.33-3.94-51.25-1.67-76.4-7.66a5.86,5.86,0,0,1,2.9-1.47c14.82-2.59,29.67-5.07,44.48-7.73,6.93-1.24,13.83-2.71,20.7-4.26,2.69-.61,4.82-2.26,6.51-5.84-13.84,1.38-26.88,3-39.98,3.9-13.25.91-26.55,1.12-39.83,1.64,5.44-2.17,11.03-3.41,16.54-4.97,15.04-4.23,30.03-8.62,45.05-12.9,3.57-1.02,7.2-1.81,10.77-2.8,1.5-.41,2.8-1.17,2.08-3.38a47.389,47.389,0,0,0-4.87.45c-11.86,2.27-23.7,4.67-35.57,6.91q-16.155,3.045-32.36,5.83a25.748,25.748,0,0,1-4.96-.07,3.267,3.267,0,0,1,1.98-1.82c8.21-2.96,16.43-5.87,24.63-8.85,9.27-3.37,18.6-6.54,27.73-10.25,5.47-2.21,10.6-5.24,15.85-7.98.69-.36,1.14-1.19,1.87-1.99-.75-.2-1.1-.42-1.35-.35q-17.85,5.49-35.68,11.02c-4.44,1.38-8.86,2.82-13.33,4.11-.98.28-2.11.01-4.25,0,15.95-8.58,30.77-16.57,45.59-24.55a158.481,158.481,0,0,0-16.74,6.02c-5.28,2.1-10.11,5.53-16.21,5.51a15.5,15.5,0,0,1,5.1-4.12c9.08-4.15,16.63-10.48,24.12-16.86,1.44-1.22,2.34-3.07,3.5-4.62l.08-.18c-2.42,1.72-4.81,3.49-7.29,5.13a82.417,82.417,0,0,1-7.63,4.63c-2.41,1.25-4.56,3.37-8.35,3.56,1.5-2.38,2.48-3.94,3.47-5.5,6.2-9.71,12.43-19.4,18.58-29.14a35.711,35.711,0,0,0,2.08-4.62,3.61,3.61,0,0,0-3,.99c-7.51,6.93-14.86,14.03-22.55,20.74a100.516,100.516,0,0,1-12.6,9.02c-7.37,4.66-14.78,9.26-22.4,13.49-6.13,3.41-12.32,7.21-18.98,9.06-8.54,2.37-16.8,4.83-23.55,10.72-3.82,3.33-8.5,3.49-12.82,3.28-5.5-.26-10.97-1.84-16.37-3.21a8.657,8.657,0,0,1-4.13-3.2,90.109,90.109,0,0,1-4.83-7.72c-1.63,7.49.31,12.52,5.95,15.62,5.31,2.92,10.73,5.63,16.32,8.54-.19,2.59-.89,5.44,2.35,7.09.6.31.43,2.06.66,3.14.35,1.62.23,3.69,1.2,4.76,3.04,3.34,2.14,6.75,1.03,10.36-.42,1.4-.43,2.92-.77,4.35-1.65,7.02-3.12,13.82-10.77,17.54a62.976,62.976,0,0,0-18.51,14.14c-3.91,4.22-8.02,8.27-12.28,12.12-10.64,9.58-21.55,19.01-29.95,30.6-10.25,14.14-22.87,25.93-35.44,37.75-6.29,5.92-13.92,10.46-21.14,15.34-9.83,6.67-19.87,13.05-29.77,19.61-2.78,1.84-5.36,3.99-8.15,5.81a46.548,46.548,0,0,1-7.24,4.01c-5.49,2.29-11.07,4.37-16.65,6.42-6.44,2.38-12.88,4.71-19.38,6.92-2.63.89-5.39,1.39-8.11,2.04-17.34,4.13-34.6,8.62-52.04,12.25-12.51,2.6-25.25,4.15-37.92,5.94-10.09,1.43-20.21,2.76-30.36,3.69-4.96.46-10.06-.63-14.99-.06a77.8,77.8,0,0,1-25.97-1c-7.61-1.67-15.19-3.48-22.79-5.21a40.469,40.469,0,0,0-13.8-1.09c-2.45.29-5.1-.47-7.56-1.13-7.17-1.92-14.21-4.33-21.44-5.95-6-1.35-11.91-2.53-17.46-5.42a193.475,193.475,0,0,0-17.75-7.98c-8.08-3.22-16.47-5.74-24.4-9.3-4.52-2.03-9.31-4.23-12.9-8.54,3.8-1.92,8.76,1.06,11.42-3.77-4.23-.86-8.22-1.46-12.08-2.52-3.71-1.01-8.03,1.17-12.21-2.63,8.11-.29,15.25-.68,22.41-.75a35.631,35.631,0,0,1,22.27,7.1c3.4,2.55,6.75,5.17,10,7.91,2.32,1.96,4.42,4.16,7.09,6.7a11.893,11.893,0,0,0-1.46-10.6c-3.06-4.85-7.37-8.21-12.34-10.98-3.2-1.78-6.05-4.19-9.11-6.23a58.271,58.271,0,0,0-6.18-3.77c-5.63-2.84-11.27-5.67-17.02-8.25-6.88-3.1-13.17-7.6-20.83-8.88a9.072,9.072,0,0,1-2.11-1.11c3.52-3.65,7.04-5.26,11.56-2.78,1.96,1.07,3.97,2.01,5.94,3.05a33.023,33.023,0,0,0,17.77,3.45c-5.84-4.3-11.67-8.61-16.95-12.51,3.7-6.68,7.13-13.02,10.72-19.27,2.07-3.62,3.97-7.43,7.48-10.17,4.25,3.27,8.54,5.29,13.92,5.27,5.47-.02,9.68-2.08,11.92-6.64a11.37,11.37,0,0,0-1.61-13.02c-2.99-3.28-6.63-5.96-10.34-9.22,5.49-4.39,11.2-8.72,16.64-13.37,9.02-7.71,17.53-16.06,26.86-23.36,13.89-10.86,29.83-18.42,45.6-26.1,10-4.87,20.15-9.45,30.34-13.92,12.24-5.35,24.44-10.88,36.97-15.48,8.13-2.99,16.86-4.36,25.26-6.66,11.81-3.22,23.71-5.92,35.79-8.02,18.76-3.26,37.7-3.25,56.6-4.27,7.39-.4,14.76-1.18,22.13-1.84,9.22-.82,18.42-1.94,27.66-2.47,9.6-.56,19.25-.44,28.86-.89,11.15-.53,22.03.99,32.16,5.43,9.02,3.95,18.5,5.57,27.98,6.92,7.76,1.11,15.17,2.1,20.94,8.01.16.16.62.02.06.02,1.16-2.11,2.08-3.8,3-5.49.26-.39.52-.79.78-1.18a13.935,13.935,0,0,1-3.77-.74,7.64,7.64,0,0,1-3.22-2.71c-2.09-3.71-3.95-7.57-5.76-11.44a15.2,15.2,0,0,1-.66-3.61c7.33,1.36,11.83,4.82,13.64,11.92.89,3.5,3.09,6.74,5.12,9.83,1.54,2.35,3.13,4.95,6.1,5.96,2.05-3.82,1.89-3.75.74-6.77-1.28-3.34-3.84-6.28-3.76-10.5,5.57-.33,9.83,5.3,16.27,2.59-2.3-1.54-4.06-2.81-5.89-3.93-7.94-4.83-15.82-9.7-21.31-17.52-.51-.73-1.3-1.74-2-1.78-3.61-.17-5.43-3.03-7.82-4.95-9.27-7.43-18.25-15.23-27.74-22.36-13.46-10.09-29-15.62-45.28-19.18a125.685,125.685,0,0,0-12.6-2.18c-8.85-1.04-17.71-2.31-26.59-2.62-13.35-.47-26.74-.28-40.11-.21a188.405,188.405,0,0,0-19.46.74,258.073,258.073,0,0,0-34.98,6.68c-12.11,3.05-24.11,6.21-35.38,11.69-6.51,3.16-12.95,6.5-19.44,9.71-4.82,2.38-9.97,4.22-14.48,7.08-10.19,6.47-20.29,13.15-30.03,20.28a272.61,272.61,0,0,0-22.33,18.4c-7.23,6.6-13.75,13.98-20.87,20.71-7.01,6.63-14.45,12.79-21.54,19.33-2.69,2.48-4.85,5.5-7.37,8.17-8.15,8.61-16.54,17-24.46,25.81-4.69,5.21-8.38,11.2-14.07,15.66-4.31,3.38-7.83,7.86-11.35,12.15-2.79,3.4-4.44,7.75-8.86,9.74-.85.39-1.34,1.69-1.9,2.62-1.89,3.15-3.26,6.75-5.67,9.42a80.875,80.875,0,0,0-13.08,19.28c-1.84,3.8-4.41,6.85-8.62,8.16-10.78,3.35-15.07,11.93-17.29,21.95-.35,1.56.4,3.51,1.08,5.1a23.842,23.842,0,0,0,2.52,3.97c4.35.88,8,1.63,11.66,2.37-.65,1.02-1.15,1.28-1.67,1.34-10.53,1.18-15.43,5.71-18.01,18.68-.73,3.68,3.94,8.97,7.14,7.96,7.33-2.32,13.69-.66,19.79,3.61,2.05,1.44,4.68,2.03,6.82,3.37,4.19,2.63,8.22,5.51,12.33,8.29a68.241,68.241,0,0,0,6.01,4.01c4.51,2.41,9.25,4.41,13.67,6.95a110.493,110.493,0,0,0,30.94,12c5.6,1.26,11.29,2.09,16.94,3.1,3.81.69,7.72,1.16,9.23,5.19,1.45-.22,2.43-.38,4.25-.65-2.11,4.7-.57,7.89,1.88,11.31a17.2,17.2,0,0,1,2.89,8.83,64.759,64.759,0,0,0,4.74,20.95c1.97,5.06,4.82,7.33,9.52,8.69,4.37,1.27,5.9.98,8.26-2.94,1.5-2.49,2.63-5.2,4.07-8.08,4.08,1.18,7.86,2.26,11.7,3.36.83-5.25,3.14-7.83,8.32-10.41a4.268,4.268,0,0,0,1.77-3.02c.19-2.01-.32-4.09-.22-6.12a6.228,6.228,0,0,0-2.97-6.06c-2.08-1.46-3.6-3.72-5.42-5.58s-3.73-3.64-5.77-5.63c7.7.24,14.71.53,21.72.64,3.54.06,6.53.7,8.37,4.25a6.762,6.762,0,0,0,3.31,2.75,76.745,76.745,0,0,0,8.46,2.63q8.85,2.415,17.73,4.69c3.56.91,7.15,1.72,10.74,2.53,1.44.33,2.97.39,4.36.86,12.21,4.14,24.75,4.39,37.43,3.6,2.95-.19,6.13-.55,8.84.3,3.94,1.24,7.68.82,11.55.46,2.77-.26,5.56-.39,8.33-.69,10.69-1.14,21.4-2.09,32.04-3.58,6.6-.92,13.06-2.81,19.62-4.04,12.41-2.32,24.82-4.58,36.39-9.95,8.07-3.74,16.71-6.55,24.18-11.22,15.84-9.9,32.92-18.03,46.59-31.21,5.74-5.53,11.85-10.69,17.4-16.4,7.46-7.65,12.73-16.91,17.65-26.3,6.72-12.84,13.09-25.85,19.76-38.71,3.31-6.4,6.99-12.61,10.5-18.92-.17-.17-.33-.35-.5-.52-5.18,5.44-10.35,10.9-16.16,17.01,1.42-4.94,2.49-9.04,3.83-13.07a8.636,8.636,0,0,1,2.4-2.94c3.69-3.63,7.38-7.28,11.19-10.8,3.27-3.01,6.29-6.61,10.12-8.64,8.65-4.59,17.66-8.52,26.66-12.4a25.152,25.152,0,0,1,9.02-1.94c7-.22,14.02-.18,21.02.16,10.32.51,20.66,1.04,30.92,2.22,4.9.56,9.63,2.6,14.43,4.01a118.561,118.561,0,0,0,27.33,4.91c7.02.37,14.02.95,21.05,1.3a27.953,27.953,0,0,0,6.65-.43,6.186,6.186,0,0,0,5.38-5.59c-30.89-12.66-63.06-20.49-95.03-29.26a7.129,7.129,0,0,1,3.18-1.02Zm-142.31-88.12,1.16-1.04c3.88,1.64,7.79,3.19,11.59,4.98a3.61,3.61,0,0,1,1.83,2.48c.28,5.14,2.6,9.57,4.56,14.15a11.279,11.279,0,0,1,.42,2.26c-4.29.91-7.09-2.06-10.44-3.25-3.94-1.39-4.97-4.5-5.64-8.13-.37-1.97-1.44-3.79-2.04-5.72-.58-1.88-.96-3.81-1.43-5.73Zm-13.65-8.1c6.7,1.54,10.14,5.85,11.22,12.55.55,3.37,1.88,6.61,3.05,10.56-5.16.18-8.65-1.77-12.03-3.91a3.678,3.678,0,0,1-1.28-2.35c-.86-5.47-1.6-10.95-2.41-16.63a8.058,8.058,0,0,1,1.45-.22Zm-16.69-7.94c3.76-.34,6.44,1.93,9.4,3.24.73.32,1.2,1.83,1.32,2.84.66,5.65,1.17,11.33,1.87,18.35-4.04-1.73-7.51-2.68-10.29-4.63-1.48-1.05-2.33-3.77-2.45-5.81-.28-4.59.07-9.22.16-14Zm-6.34,2.71c-.06,4.01.23,8.03.4,12.94-2.7-.88-4.85-1.3-6.67-2.28a4.022,4.022,0,0,1-1.8-3.06c.16-5.51.63-11,1.03-17.06,7.24,2.77,7.15,2.77,7.05,9.46Zm-11.09-11.44c-.59,6.75-1.15,13.1-1.75,20.1-1.8-.15-2.91-.14-3.97-.35-1.43-.28-2.84-.72-4.17-1.08-.78-5.04,0-9.98,3.13-19.63,1.95.28,4.01.57,6.75.96Zm-13.23-3.3c-1.07,6.96-2.08,13.64-3.2,20.92-2.07-.3-4.15-.6-7-1.02,1.1-3.81,2.07-7.08,2.99-10.37.95-3.35,1.85-6.71,2.96-10.73C1006.74,147.39,1007.9,147.73,1009.05,148.05Zm-12.09-2.04c-1.61,7.01-3.13,13.59-4.74,20.6-4.47-.91-8.55-1.76-13.19-2.71,1.83-6.5,3.55-12.65,5.45-19.46,4.24.53,8.17,1.02,12.47,1.56Zm-23.82-2.15c1.79.25,3.63.29,6.1.48-1.29,6.62-3.76,12.48-5.9,18.96-4.91.21-9.29.39-14.47.61a31,31,0,0,1,1.47-4.55c2.17-4.08,4.69-7.98,6.66-12.15,1.34-2.85,3.21-3.77,6.14-3.35Zm-16.02-.43c1.42.23,2.87.29,4.84.47-.48,1.54-.75,2.72-1.22,3.82-1.71,4.1-3.66,8.11-5.19,12.28-1.08,2.93-2.67,4.72-5.96,4.74-2.56.02-5.12.26-7.67.4-.28-.4-.56-.8-.84-1.21,1.45-2.31,2.95-4.58,4.32-6.93a87.841,87.841,0,0,0,5.35-9.73c1.3-3.06,3.13-4.37,6.38-3.85Zm-13.51.37c.3.29.61.57.91.87-.76,1.38-1.57,2.74-2.28,4.15-2.07,4.15-4.17,8.28-6.15,12.46-1.78,3.77-2.41,4.1-7.36,2.65,4.39-6.59,8.65-13.05,13-19.45.3-.45,1.25-.46,1.89-.68Zm-9.98-1a32.257,32.257,0,0,1-1.62,3.94c-2.9,4.53-6.42,8.76-8.67,13.58s-5.46,5.46-10.69,4.3a108.6,108.6,0,0,1,14.5-19.53c1.12-1.23,3.5-1.29,6.49-2.29Zm-17.14.78c-4.91,7.31-9.26,13.96-13.85,20.43a6.763,6.763,0,0,1-4.15,2.34,97.346,97.346,0,0,1-10.06.58,33.44,33.44,0,0,1,2.25-4.21c3.59-4.72,7.48-9.23,10.87-14.08C905.17,143.44,910.04,142.67,916.49,143.58Zm-17.02,2.29c-1.39,1.78-2.46,3.21-3.58,4.59-4.1,5.04-8.3,9.99-12.28,15.13-1.7,2.19-3.68,2.93-7.19,2.44a29.1,29.1,0,0,1,2.03-3.75c4.12-5.27,8.34-10.45,12.46-15.72,2.04-2.61,4.58-3.46,8.55-2.69ZM867.6,154.5c3.84-3.62,8.45-5.03,14.62-5.93-3.08,4.32-6.08,7.71-8.14,11.6-4.55,8.57-11.71,12.76-21,13.99-2.09.27-4.14.77-6.21,1.17-.21-.37-.43-.74-.64-1.11,1.38-1.35,2.71-2.76,4.14-4.06,5.74-5.23,11.6-10.34,17.24-15.66Zm-30.54,10.22a21.916,21.916,0,0,1,6.53-4.04c3.84-1.76,7.83-3.19,11.76-4.76.3.4.61.79.91,1.19-1.04,1.16-2.02,2.38-3.14,3.46-5.61,5.39-11.36,10.63-16.84,16.15-3.68,3.71-8.5,4-13.96,5.87.86-1.77,1.11-2.78,1.72-3.47,4.28-4.86,8.49-9.8,13.02-14.41Zm-65.82,35.66c10.1-6.54,20.12-13.21,30.35-19.54,4.22-2.62,8.86-4.55,13.35-6.72a4.773,4.773,0,0,1,1.95-.2l.04-.04-.12-.14.32.17h-.24c-5.58,5.6-11.17,11.21-16.85,16.75a8.547,8.547,0,0,1-2.93,1.54c-9.97,3.91-19.96,7.8-30.36,11.21,1.5-1.02,2.98-2.06,4.49-3.04ZM654.63,323.41c-1.14-3.57-.07-7,2.36-7.59,2.14-.52,5.62,1.96,6.29,4.49.7,2.63-1.48,6.25-4.22,7-2.01.55-3.4-.68-4.42-3.9ZM767.44,483.94c-3.74-.75-7.03-.41-9.65,2.79-.85,1.05-2.17,1.74-3.93,3.09-2.09-9.08-7.9-14.84-13.35-20.91-3.58-3.98-6.62-8.38-8-14.5,3.56.6,6.66.93,9.65,1.72,1.52.4,3.7,1.36,4.08,2.55,1.16,3.69,4.46,4.72,6.98,6.72,3.62,2.89,7.18,5.86,10.85,8.69,1.45,1.12,3.12,1.93,4.67,2.93,1.53.98,3.03,2.01,4.47,2.98-1.85,4.65-1.87,4.72-5.77,3.94ZM892.5,467.87c-4.85.83-9.69,1.93-14.58,2.46-9.61,1.04-19.27,1.58-28.86-.26a29.5,29.5,0,0,1-7.84-2.6c-3.41-1.75-6.56-4.03-10.78-6.69,3.2-.25,5.5-.53,7.81-.58,4.08-.08,8.25.52,12.22-.12,8.86-1.43,17.29-.17,25.76,2.34,5.29,1.57,10.75,2.6,16.13,3.87.05.53.1,1.05.14,1.58Zm-16-9.57c7.52-1.37,14.89-2.53,22.5-.38,5.69,1.6,11.69,2.11,17.54,3.17a16.357,16.357,0,0,1,5.01,1.75c-15.81,5.97-30.58,2.3-45.05-4.55Zm77.72-1.2c-5.43,1.74-10.75,3.14-16.73,1.89-7.41-1.56-15.01-2.24-22.52-3.33a10.489,10.489,0,0,1-4.67-1.69c6.3-1.85,12.54-3.91,18.92-5.42,1.99-.46,4.4.37,6.49,1.01,6.28,1.96,12.51,4.12,18.76,6.2-.08.44-.17.89-.25,1.34Zm10.71-6.2c-4.64-2.22-9.65-3.68-14.48-5.52a20.062,20.062,0,0,1-2.44-1.32c1.43-2.28,3.45-1.8,5.11-1.82,3.85-.04,20.93,5.29,24.11,7.37-3.93,2.76-7.74,3.45-12.29,1.28Zm16.95-7.18c-3.68-2.04-7.97-2.98-11.97-4.45-1.88-.69-3.72-1.48-6.04-2.41,4.79-3.7,9.23-5.28,14.79-3.09,5.34,2.1,10.91,3.57,16.41,5.26.87.27,1.84.18,2.55.91-5.01,4.04-9.44,7.27-15.74,3.77Zm30.5-11.01c-4.33,4.5-9.1,5.29-14.78,3.01-4.64-1.86-9.55-3.03-14.31-4.56a34.77,34.77,0,0,1-3.5-1.57c4.37-3.79,9.43-5.07,13.88-7.42a2.558,2.558,0,0,1,2.1.18c5.46,3.1,10.88,6.27,16.3,9.44.11.06.12.33.32.92Zm5.67-8.01c-2.11-1.15-4.36-2.05-6.48-3.18-4.27-2.29-8.67-3.02-14.63-.7,1.48-1.77,1.92-2.7,2.65-3.13,3.53-2.03,7.1-4.02,10.76-5.78a4.313,4.313,0,0,1,3.6-.04c4.85,3.34,9.51,6.93,14.64,10.74-5.47,4.67-5.75,4.68-10.55,2.08Zm22.18-10.47c-1.96,1.57-3.6,2.89-5.32,4.27-5.1-3.79-9.83-7.29-15.2-11.28,3.58-2.49,6.42-4.47,9.65-6.71C1033.98,404.26,1036.64,409.27,1040.23,414.23Zm11.22-9.08c-2.63,2.16-4.85,4-7.67,6.32-3.44-4.46-6.62-8.6-10.06-13.08,3.04-2.79,5.87-5.4,9.67-8.89,2.86,5.53,5.36,10.39,8.07,15.64Zm10.33-10.27a4.393,4.393,0,0,1-1.29,3.32,30.685,30.685,0,0,1-4.55,3.2c-3.3-4.97-6.33-9.52-9.59-14.43,1.95-3.13,4.14-6.71,8.62-9.02,2.9,5.58,5.48,11.02,6.82,16.93Zm5.72-2.65c-2.83-6.44-5.35-12.15-8.25-18.74,2.56-2.74,5.49-5.85,9.22-9.83,1.69,7.97,3.41,14.72,4.46,21.58.52,3.37-2.95,4.63-5.43,6.99Zm10.62-10.14c-1.93-7.34-3.65-13.85-5.57-21.16,3.75-2.51,7.99-5.33,12.75-8.5a30.488,30.488,0,0,1,.98,3.98c.25,2.75-.15,5.66.58,8.26,2.37,8.41-3.67,12.13-8.74,17.42Zm14-15.16a20.861,20.861,0,0,1-1.13-3.49c-.25-2.57-.36-5.16-.5-7.75-.46-8.05.63-9.65,9.71-13.1C1098.7,351.32,1099.48,359.91,1092.12,366.93Zm14.23-18.78c1.88-6.61-.89-14.31,5.04-20.07C1112.02,333.47,1109.25,345.67,1106.35,348.15Z" fill="#fff"/><path d="M701.98,373.13c.88-2.9,1.8-6.42.9-9.07-1.82-5.34-5.51-9.66-11.45-11.05a27.04,27.04,0,0,0-16.87,1.15c-6.42,2.66-8.57,8.78-5.49,15.01,3.16,6.37,8.89,9.09,15.17,10.87,2.46.71,5.22.36,6.88.44,3.04-1.69,5.04-2.65,6.86-3.86,1.5-.99,3.58-2.05,4.01-3.5Zm-26.91-6.74c-1.09-4.46.21-6.43,4.86-7.37,4.84-.97,8.02.17,9.45,3.45a8.037,8.037,0,0,1,.66,2.76c-2.12.55-4.2,1.98-6.19,2.76a8.232,8.232,0,0,0-3.63,3.52c-2.39-.86-4.46-2.06-5.15-5.12Z" fill="#fff"/><path d="M701.98,373.13c.88-2.9,1.8-6.42.9-9.07-1.82-5.34-5.51-9.66-11.45-11.05a27.04,27.04,0,0,0-16.87,1.15c-6.42,2.66-8.57,8.78-5.49,15.01,3.16,6.37,8.89,9.09,15.17,10.87,2.46.71,5.22.36,6.88.44,3.04-1.69,5.04-2.65,6.86-3.86,1.5-.99,3.58-2.05,4.01-3.5Zm-26.91-6.74c-1.09-4.46.21-6.43,4.86-7.37,4.84-.97,8.02.17,9.45,3.45a8.037,8.037,0,0,1,.66,2.76c-2.12.55-4.2,1.98-6.19,2.76a8.232,8.232,0,0,0-3.63,3.52c-2.39-.86-4.46-2.06-5.15-5.12Z" fill="#fff"/><g style="mix-blend-mode:multiply;isolation:isolate"><path d="M1262.97,174.37l-.25-.08s-.08.18-.08.19.33-.12.33-.12Z" fill="#eaf5fc" fill-rule="evenodd"/></g><g style="mix-blend-mode:multiply;isolation:isolate"><path d="M834.48,322.6c-2.93.13-5.71,2.36-5.85,4.71a4.751,4.751,0,0,0,4.63,5.1c3.31-.02,6.96.69,10.25-1.73-1.32-5.85-4.18-8.29-9.04-8.08Z" fill="#eaf5fc" fill-rule="evenodd"/></g><g style="mix-blend-mode:multiply;isolation:isolate"><path d="M1037.05,200.54c-1.38-1.27-2.57-2.92-4.19-3.71a4.974,4.974,0,0,0-6,1.44c-1.78,1.95-1.32,4.32-.03,6.13,1.52,2.15,3.1,4.64,6.49,4.23C1037.03,208.18,1038,205.99,1037.05,200.54Z" fill="#eaf5fc" fill-rule="evenodd"/></g><g style="mix-blend-mode:multiply;isolation:isolate"><path d="M862.95,266.08c1.55,1.67,3.19,1.2,5.07.48a43.664,43.664,0,0,1,5.8-1.39c-.04-5.9-.14-5.97-9.23-5.75a7.761,7.761,0,0,0-1.19,1.57c-.62,1.65-2.18,3.25-.45,5.11Z" fill="#eaf5fc" fill-rule="evenodd"/></g><g style="mix-blend-mode:multiply;isolation:isolate"><path d="M985.78,244.2c2.56,3.87,4.47,8.33,10.19,5.94.72-4.59-.13-6.02-4.32-8.05C988.99,240.8,987.09,241.19,985.78,244.2Z" fill="#eaf5fc" fill-rule="evenodd"/></g><g style="mix-blend-mode:multiply;isolation:isolate"><path d="M718.43,262.52a10.7,10.7,0,0,0,7.96,6.55q1.77-2.67,3.26-4.92c-3.96-5.05-6.29-5.37-11.22-1.63Z" fill="#eaf5fc" fill-rule="evenodd"/></g><g style="mix-blend-mode:multiply;isolation:isolate"><path d="M944.9,330.68c-2.5-.02-3.59,1.48-3.82,3.66,1.38,1.63,2.66,3.15,3.84,4.54,2.4-.41,4.49-.77,6.59-1.12-1.22-4.25-3.8-7.05-6.62-7.08Z" fill="#eaf5fc" fill-rule="evenodd"/></g><g style="mix-blend-mode:multiply;isolation:isolate"><path d="M832.6,234.64c-2.15-.98-4.3-.22-5.43,2.25-.44.95-1.06,1.83-1.79,3.05,1.49,1.7,2.86,3.26,4.9,5.57,1.5-2.34,2.58-3.61,3.18-5.08.82-2.02,1.81-4.55-.86-5.79Z" fill="#eaf5fc" fill-rule="evenodd"/></g><g style="mix-blend-mode:multiply;isolation:isolate"><path d="M715.45,303.05c-1.87-1.46-3.38-1.13-4.45.97-2.1,4.1.24,7.39,5.64,7.56,1.7-5.33,1.53-6.4-1.18-8.53Z" fill="#eaf5fc" fill-rule="evenodd"/></g><g style="mix-blend-mode:multiply;isolation:isolate"><path d="M859,366.7a4.236,4.236,0,0,0,3.41-1.77c.94-1.93-.73-2.98-2.35-3.66-3.17-1.33-6.13-.7-9.38,1.43,1.98,3.7,5.27,3.8,8.31,3.99Z" fill="#eaf5fc" fill-rule="evenodd"/></g><g style="mix-blend-mode:multiply;isolation:isolate"><path d="M1116.48,248.34c1.7,1.01,3.22,1.91,5.13,3.05,1.9-1.63,3.77-3.2,6-5.1-2.89-2.6-5.38-3.35-8.51-2.29C1116.75,244.8,1115.91,246.21,1116.48,248.34Z" fill="#eaf5fc" fill-rule="evenodd"/></g><g style="mix-blend-mode:multiply;isolation:isolate"><path d="M791.71,228.07c-.34,1.1-.71,2.27-1.15,3.66,3.61,2.92,6.97,3.07,10.7,2.02-1.5-4.63-3.58-5.81-9.55-5.69Z" fill="#eaf5fc" fill-rule="evenodd"/></g><g style="mix-blend-mode:multiply;isolation:isolate"><path d="M1034.19,270.51c-2.19-4.92-4.98-5.56-11.15-2.24C1029.71,273.33,1030.04,273.38,1034.19,270.51Z" fill="#eaf5fc" fill-rule="evenodd"/></g><g style="mix-blend-mode:multiply;isolation:isolate"><path d="M959.12,252.74c.47-.54.67-2.14.33-2.43a13.821,13.821,0,0,0-4.99-3.06c-1.11-.28-2.62,1.04-4.34,1.81,1.99,2.49,3.45,4.32,5.29,6.63a24.751,24.751,0,0,0,3.71-2.95Z" fill="#eaf5fc" fill-rule="evenodd"/></g><g style="mix-blend-mode:multiply;isolation:isolate"><path d="M989.54,308.35c2.53-6.12,1.53-7.25-5.85-7.02Q983.18,306.78,989.54,308.35Z" fill="#eaf5fc" fill-rule="evenodd"/></g><g style="mix-blend-mode:multiply;isolation:isolate"><path d="M1055.18,211.01c1.69,1.74,3.31,3.42,5,5.17,1.7-.56,3.24-1.08,4.76-1.59-.63-4.85-4.99-6.61-9.75-3.58Z" fill="#eaf5fc" fill-rule="evenodd"/></g><g style="mix-blend-mode:multiply;isolation:isolate"><path d="M1099.55,237.39a2.672,2.672,0,0,0-.07-2.49c-2.04-1.67-4.29-3.07-7.15-5.06-.9,6.39.96,9.08,5.02,8.79a3.121,3.121,0,0,0,2.21-1.24Z" fill="#eaf5fc" fill-rule="evenodd"/></g><g style="mix-blend-mode:multiply;isolation:isolate"><path d="M816.28,427.05c-.77,2.5,1.76,4.94,5.85,6.13q.79-4.3-2.09-9.06c-1.34.98-3.38,1.7-3.76,2.93Z" fill="#eaf5fc" fill-rule="evenodd"/></g><g style="mix-blend-mode:multiply;isolation:isolate"><path d="M884.78,304.09c.63,4.24,3.13,6.3,7.17,6.84C894.18,305.35,892.12,303.38,884.78,304.09Z" fill="#eaf5fc" fill-rule="evenodd"/></g><g style="mix-blend-mode:multiply;isolation:isolate"><path d="M929.37,405.27c2.1-.82,2.3-2.68,1.81-4.54-.56-2.1-2.62-2.97-4.77-2.3-1.95.6-2.62,1.8-1.92,3.73C925.29,404.57,927.43,406.02,929.37,405.27Z" fill="#eaf5fc" fill-rule="evenodd"/></g><g style="mix-blend-mode:multiply;isolation:isolate"><path d="M897.87,353.39c-1.8-3.71-4.01-4.97-8.21-4.68C890.38,354.52,892.06,355.48,897.87,353.39Z" fill="#eaf5fc" fill-rule="evenodd"/></g><g style="mix-blend-mode:multiply;isolation:isolate"><path d="M938.73,371.1c.07-2.66-1.57-3.54-6.2-3.42-.2.74-.45,1.14-.36,1.43.57,1.89,1.22,3.75,1.95,5.95,1.34-.32,2.74-.3,3.55-.97A4.314,4.314,0,0,0,938.73,371.1Z" fill="#eaf5fc" fill-rule="evenodd"/></g><g style="mix-blend-mode:multiply;isolation:isolate"><path d="M813.01,298.49c-3.9-.14-6.69.16-8.98,4.71,3.04.34,5.43,1.15,7.46.59.89-.25,1-3.29,1.52-5.3Z" fill="#eaf5fc" fill-rule="evenodd"/></g><g style="mix-blend-mode:multiply;isolation:isolate"><path d="M894.31,253.19c.65-.55,1.14-2.25.75-2.84a8.488,8.488,0,0,0-3.55-3.26c-1.05-.44-2.59.32-4.95.73a54.584,54.584,0,0,0,4.87,5.49,2.941,2.941,0,0,0,2.87-.11Z" fill="#eaf5fc" fill-rule="evenodd"/></g><g style="mix-blend-mode:multiply;isolation:isolate"><path d="M838.5,407.6c-.59-1.32-2.61-2.39-4.2-2.71-.7-.15-2.44,1.66-2.66,2.78-.6,3.16,2.85,2.48,4.63,4.88,1.04-2.13,2.65-3.99,2.22-4.94Z" fill="#eaf5fc" fill-rule="evenodd"/></g><g style="mix-blend-mode:multiply;isolation:isolate"><path d="M772.41,247.18c-2.64-1.31-4.96-1.77-7.17-.41a3.5,3.5,0,0,0-1.26,2.67c.01.56,1.21,1.53,1.92,1.58,2.64.15,5.21-.18,6.5-3.83Z" fill="#eaf5fc" fill-rule="evenodd"/></g><g style="mix-blend-mode:multiply;isolation:isolate"><path d="M968.93,364.25c-3.12-3.96-4.74-4.66-6.77-3.13a3.347,3.347,0,0,0-.33,4.89c3.28,2.91,4.61-1.2,7.1-1.76Z" fill="#eaf5fc" fill-rule="evenodd"/></g><g style="mix-blend-mode:multiply;isolation:isolate"><path d="M829.59,220.14c3.09,1.54,5.99,3.89,9.92.88C836.89,217.17,832.5,216.81,829.59,220.14Z" fill="#eaf5fc" fill-rule="evenodd"/></g><g style="mix-blend-mode:multiply;isolation:isolate"><path d="M971.48,387c-.04-2.05.47-4.03-.25-5.3-1.08-1.92-3.03-3.37-5.58-1.78C966.33,384.43,966.44,384.59,971.48,387Z" fill="#eaf5fc" fill-rule="evenodd"/></g><g style="mix-blend-mode:multiply;isolation:isolate"><path d="M1078.61,299.28c.85.71,2.23,1.49,3.11,1.25a3.456,3.456,0,0,0,2.07-2.59,3.588,3.588,0,0,0-1.94-2.83c-1.72-.46-3.64-.16-6.43-.17,1.67,2.34,2.24,3.56,3.18,4.34Z" fill="#eaf5fc" fill-rule="evenodd"/></g><g style="mix-blend-mode:multiply;isolation:isolate"><path d="M1006.6,366.87a4.79,4.79,0,0,0-1.05-3.84c-1.72-1.69-3.65-1.25-5.26.78.27,2.21.86,4.44,3.4,4.89a3.48,3.48,0,0,0,2.91-1.83Z" fill="#eaf5fc" fill-rule="evenodd"/></g><g style="mix-blend-mode:multiply;isolation:isolate"><path d="M894.5,376.6c1.46,1.32,3.06,2.76,4.79,4.3,1.75-2.73,2.53-5.14.13-6.85-1.99-1.42-3.78-.35-4.92,2.54Z" fill="#eaf5fc" fill-rule="evenodd"/></g><g style="mix-blend-mode:multiply;isolation:isolate"><path d="M731.42,287.29c-3.15,3.04-3.12,3.27,1.3,7.22C735.75,290.41,735.74,290.34,731.42,287.29Z" fill="#eaf5fc" fill-rule="evenodd"/></g><g style="mix-blend-mode:multiply;isolation:isolate"><path d="M883.37,423.96a12.525,12.525,0,0,0,.69-3.98c-.15-1.54-3.09-2.84-4.42-2.09-1.31.75-2.44,2.06-1.02,3.51C879.73,422.54,880,425.14,883.37,423.96Z" fill="#eaf5fc" fill-rule="evenodd"/></g><g style="mix-blend-mode:multiply;isolation:isolate"><path d="M1028.02,324.09c.61,1,2.21,1.38,3.36,2.05.65-1.48,1.29-2.96,2.27-5.21-1.98-.67-3.37-1.67-4.33-1.34-2.15.71-2.35,2.84-1.31,4.51Z" fill="#eaf5fc" fill-rule="evenodd"/></g><g style="mix-blend-mode:multiply;isolation:isolate"><path d="M1033.16,229.43c-2.42.68-4.32,1.22-6.07,1.71.31,3.6,1.91,4.92,4.54,4.09,2.68-.85,1.66-3.08,1.53-5.8Z" fill="#eaf5fc" fill-rule="evenodd"/></g><g style="mix-blend-mode:multiply;isolation:isolate"><path d="M1072.66,270.93c.2,1.82-.09,3.41.57,4.12a5.06,5.06,0,0,0,3.72,1.42,3.291,3.291,0,0,0,2.1-2.54c-.08-.88-1.44-1.86-2.45-2.38-.91-.47-2.11-.36-3.95-.62Z" fill="#eaf5fc" fill-rule="evenodd"/></g><g style="mix-blend-mode:multiply;isolation:isolate"><path d="M960.01,210.09c1.49,2.14,2,5.66,5.02,3.9,2.7-1.58.94-4-.81-6.33-1.44.83-2.75,1.59-4.22,2.43Z" fill="#eaf5fc" fill-rule="evenodd"/></g><g style="mix-blend-mode:multiply;isolation:isolate"><path d="M1108.91,275.54c-2.3-2.18-3.11-5.23-7.32-4.79C1102.89,275.74,1103.65,276.27,1108.91,275.54Z" fill="#eaf5fc" fill-rule="evenodd"/></g><g style="mix-blend-mode:multiply;isolation:isolate"><path d="M1000.68,233.04a4.01,4.01,0,0,0-3.32-.66c-1.59.4-2.42,1.66-1.53,3.6.61,1.8,2.19,1.56,3.63,1.18s2.33-3,1.23-4.11Z" fill="#eaf5fc" fill-rule="evenodd"/></g><g style="mix-blend-mode:multiply;isolation:isolate"><path d="M772.79,324.96c.85-2.23,1.7-3.45,1.68-4.67-.03-1.87-1.61-2.11-3.19-1.93-1.78.2-2.86,1.33-2.22,2.91C769.54,322.46,771,323.25,772.79,324.96Z" fill="#eaf5fc" fill-rule="evenodd"/></g><g style="mix-blend-mode:multiply;isolation:isolate"><path d="M787.57,412.16c.91-4.38-.45-6.93-4.99-8.73A10.452,10.452,0,0,0,787.57,412.16Z" fill="#eaf5fc" fill-rule="evenodd"/></g><g style="mix-blend-mode:multiply;isolation:isolate"><path d="M917.7,201.96c-2.28,1.64-.19,3.83.91,6.45,1.68-1.29,2.98-2.28,4.88-3.73C921.33,202.93,920.04,200.26,917.7,201.96Z" fill="#eaf5fc" fill-rule="evenodd"/></g><g style="mix-blend-mode:multiply;isolation:isolate"><path d="M1002.64,204.3c-.85-1.45-1.38-3.44-2.64-4.21-1.46-.89-3.36-.19-4.8,1.84,2.23,1.26,4.19,2.36,6.15,3.47.43-.37.86-.74,1.29-1.1Z" fill="#eaf5fc" fill-rule="evenodd"/></g><g style="mix-blend-mode:multiply;isolation:isolate"><path d="M774.53,269.66c.87,2.01.83,4.54,4.14,5.06.72-1.56,2.38-2.97.75-4.83-1.3-1.48-3.06-2.03-4.89-.24Z" fill="#eaf5fc" fill-rule="evenodd"/></g><g style="mix-blend-mode:multiply;isolation:isolate"><path d="M862.43,223.09c1.25,2.91,2.13,4.94,3.23,7.53C868.45,225.3,868.01,224.13,862.43,223.09Z" fill="#eaf5fc" fill-rule="evenodd"/></g><g style="mix-blend-mode:multiply;isolation:isolate"><path d="M934.38,234.61q-.81-3.64-6.61-3.76C929.11,234.35,931.15,235.55,934.38,234.61Z" fill="#eaf5fc" fill-rule="evenodd"/></g><g style="mix-blend-mode:multiply;isolation:isolate"><path d="M865.6,319.66c2.24-4.92,2.07-5.29-3.89-6.57C862.97,315.82,862.29,318.83,865.6,319.66Z" fill="#eaf5fc" fill-rule="evenodd"/></g><g style="mix-blend-mode:multiply;isolation:isolate"><path d="M1047.79,311.88a5.37,5.37,0,0,0-.89,3.32c.18,1.15,1.14,2.17,2.13,3.88,1.17-1.76,2.28-2.75,2.42-3.86a4.7,4.7,0,0,0-1.29-3.18c-.39-.45-2.15-.5-2.37-.15Z" fill="#eaf5fc" fill-rule="evenodd"/></g><g style="mix-blend-mode:multiply;isolation:isolate"><path d="M985.58,347.83c.93,2.05,2.32,2.1,4.51,1.88-.75-2.25-1.4-4.19-2.37-7.11-1.43,2.07-3.22,2.88-2.14,5.23Z" fill="#eaf5fc" fill-rule="evenodd"/></g><g style="mix-blend-mode:multiply;isolation:isolate"><path d="M860.58,399.83c-.07,3.52,1.4,5.22,4.32,5.88C866.11,400.95,865.87,400.6,860.58,399.83Z" fill="#eaf5fc" fill-rule="evenodd"/></g><g style="mix-blend-mode:multiply;isolation:isolate"><path d="M888.86,208.01q1.54,4.41,3.49,6.19C894.23,209.97,893.36,208.17,888.86,208.01Z" fill="#eaf5fc" fill-rule="evenodd"/></g><g style="mix-blend-mode:multiply;isolation:isolate"><path d="M1058.44,274.41c-1.93-2.33-3.35-4.06-5.26-6.37C1051.24,272.82,1051.49,273.11,1058.44,274.41Z" fill="#eaf5fc" fill-rule="evenodd"/></g><g style="mix-blend-mode:multiply;isolation:isolate"><path d="M914.7,340.21c1.27,5.69,1.83,5.8,6.99,1.45C919.07,341.12,917.06,340.7,914.7,340.21Z" fill="#eaf5fc" fill-rule="evenodd"/></g><g style="mix-blend-mode:multiply;isolation:isolate"><path d="M913.04,294.59c.78,6.17,1.07,6.41,5.18,4.73C916.68,297.91,915.31,296.66,913.04,294.59Z" fill="#eaf5fc" fill-rule="evenodd"/></g><g style="mix-blend-mode:multiply;isolation:isolate"><path d="M795.81,432.13c1.36,2.48,2.23,4.1,3.5,6.41,2.07-2.78,1.38-4.4.01-5.69C798.76,432.33,797.61,432.46,795.81,432.13Z" fill="#eaf5fc" fill-rule="evenodd"/></g><g style="mix-blend-mode:multiply;isolation:isolate"><path d="M921.88,242.62c-5.3.02-5.37.13-3.82,5.6C919.42,246.24,920.51,244.64,921.88,242.62Z" fill="#eaf5fc" fill-rule="evenodd"/></g><g style="mix-blend-mode:multiply;isolation:isolate"><path d="M826.16,308.06c.26-.4.51-.81.76-1.22-1.73-1.08-3.46-2.16-5.71-3.57.02,4.37,2.48,4.59,4.94,4.79Z" fill="#eaf5fc" fill-rule="evenodd"/></g><g style="mix-blend-mode:multiply;isolation:isolate"><path d="M1031.77,343.5c.34,2.26.62,4.16.9,6.06Q1035.36,345.79,1031.77,343.5Z" fill="#eaf5fc" fill-rule="evenodd"/></g><g style="mix-blend-mode:multiply;isolation:isolate"><path d="M851.13,434.82c-1.06-1.82-1.78-3.07-2.51-4.32-.38.23-.75.45-1.13.68.64,1.34.51,3.25,3.64,3.63Z" fill="#eaf5fc" fill-rule="evenodd"/></g><g style="mix-blend-mode:multiply;isolation:isolate"><path d="M1274.8,145.04c-2.83,8.22-8.53,13.94-8.98,22.07,2.66,1.74,5.03.73,7.65-2.02.14,5.51,4.14,5.78,7.26,6.9,1.93.7,2.8,1.69,2.64,3.61-.45,5.52-.97,11.02-1.44,16.53a6.933,6.933,0,0,0,.06,2.73c1.79,5.26,3.68,10.49,7.61,14.65,4.39,4.66,6.98,9.91,5.17,16.51a23.668,23.668,0,0,0,1.62,16.89c5.28,10.46,5.05,20.87,2.57,31.77-.81,3.54-.9,7.31.93,10.77a13.244,13.244,0,0,0,7.44-15.02c-1.3-5.42-.69-10.69.05-15.98,1.28-9,3.29-17.93,1.62-27.09-.6-3.28-1.62-6.55-1.72-9.85-.32-11.44-2.81-22.06-10.42-31.02a7.461,7.461,0,0,1-1.09-1.93c-2.44-5.62-7.8-9.55-9.16-15.82-.14-.64-.99-1.09-1.38-1.72a18.483,18.483,0,0,1-2.26-4.18,68.635,68.635,0,0,0-8.16-17.81Z" fill="#eaf5fc" fill-rule="evenodd"/></g><g style="mix-blend-mode:multiply;isolation:isolate"><path d="M1107.79,238.35c-11.13,1.68-22.32,3.12-33.39,5.12-9.86,1.77-19.58,4.25-29.4,6.26-4.72.97-9.55,1.4-14.27,2.41-9.63,2.06-19.13,4.89-28.84,6.43a406.03,406.03,0,0,0-46.75,10.36c-15.88,4.48-31.57,9.86-47.94,12.22-9.15,1.32-18.55,2.25-27.73,1.65a151.287,151.287,0,0,1-29.49-5.27c-10.22-2.77-20.44-3.34-30.88-3.36-13.61-.02-23.49,6.92-31.62,16.8-4.58,5.57-8.21,11.91-15.14,15.12-1.1.51-1.86,1.74-2.84,2.71,3.06,2.35,6.12,1.43,8.42-.32a180.948,180.948,0,0,0,14.3-12.26c6.51-6.11,14.07-10.08,22.96-9.51,8.11.53,16.15,2.26,24.15,3.84a244.092,244.092,0,0,0,37.91,4.5c11.38.44,22.53-1.4,33.75-3.02,15.28-2.2,29.85-6.94,44.56-11.19,1.3,1.18,2.9.81,7.9-.36-.3-.57-.58-1.1-.86-1.62,1.31-.36,2.62-.71,3.94-1.05,7.46-1.92,14.75-4.48,22.07-6.96a3.6,3.6,0,0,0,2.81.15,2.794,2.794,0,0,0,1.55-1.61c2.83-.93,5.68-1.84,8.54-2.66,15.7-4.53,31.54-8.59,47.35-12.73,11.14-2.91,22.33-5.65,33.5-8.4,8.54-2.1,17.1-4.11,25.65-6.16-.08-.38-.16-.75-.23-1.12Z" fill="#eaf5fc" fill-rule="evenodd"/></g><g style="mix-blend-mode:multiply;isolation:isolate"><path d="M813.54,366.39c.63-7.97-1.16-15.8-2.7-23.54a18.871,18.871,0,0,1,.17-9.21c1.06-3.76,1.98-7.68.43-11.78-21.59,16.27-40.53,28.2-50.53,31.67-6.14-9.81-12.38-19.75-19.15-30.54-1.36,5.22-2.59,9.12.47,13.12a111.7,111.7,0,0,1,6.5,10.08c3.55,5.84,7.06,11.75,10.67,17.49,5.25,8.36,6.95,17.55,8.46,26.7.99,5.99-.58,12.45-1.29,18.66-.65,5.63-1.68,11.23-2.65,17.45,1.3-.67,2.48-.91,3.04-1.63,2.74-3.51,5.15-7.14,5.65-11.85.68-6.44,2.25-12.81,2.63-19.25.48-8.1-1.92-15.72-5.49-22.99-1.43-2.9-3.65-5.62-3.17-9.75,11.78-1.02,20.29-8.53,28.95-15.32a38.249,38.249,0,0,0,1.74,6.04,47.773,47.773,0,0,0,3.75,5.65c-2.35,1.73-4.77,3.5-7.15,5.26,1.38,2.32,2.91,2.72,4.87,1.5,2.76-1.72,5.53-3.4,9-5.53.51,2.68.97,5.08,1.63,8.55-7.07,2.35-13.49,4.49-19.92,6.63.08.48.15.96.23,1.44,4.17,2.18,8.66-.72,13.39.21a16.953,16.953,0,0,0-2.08,1.87c-4.22,5.4-8.99,9.69-16.54,8.91-.47-.05-.99.42-1.41.61-2.19,3.82.69,6.15,1.98,8.67,5.9.74,11.53-.01,15.11-4.12,4.4-5.05,8.93-10.32,10.73-17.17.7-2.65,2.48-5.14,2.69-7.79Z" fill="#eaf5fc" fill-rule="evenodd"/></g><g style="mix-blend-mode:multiply;isolation:isolate"><path d="M735,425.23c4.35-5.27,8.97-10.39,12.59-16.15,6.7-10.65,8.32-22.09,2.71-33.81-1.33-2.8-3.81-5.02-5.44-7.71-6.25-10.29-12.35-20.66-18.54-30.98-.73-1.22-1.67-2.32-2.47-3.41-4.05,1.65-4.1,4.74-2.97,7.54a142.3,142.3,0,0,0,7.6,15.97c3.44,6.12,7.48,11.91,11.12,17.92a43.544,43.544,0,0,1,3.05,6.48,8.185,8.185,0,0,1,.04,6.41c-1.69,4.28-3.4,8.76-3.86,13.28-.8,7.75-2.63,14.79-7.63,21-1.1,1.37-3.41,3.77-.67,6.64,1.58-1.1,3.37-1.86,4.47-3.19Z" fill="#eaf5fc" fill-rule="evenodd"/></g><g style="mix-blend-mode:multiply;isolation:isolate"><path d="M1212.36,264.24c6.48-.49,12.96-1.22,19.45-1.31,8.5-.13,16.96-.85,25.54.29,9.09,1.21,18.33.09,27.42-1.66-25.33-3.94-51.25-1.67-76.4-7.66a5.86,5.86,0,0,1,2.9-1.47c14.82-2.59,29.67-5.07,44.48-7.73,6.93-1.24,13.83-2.71,20.7-4.26,2.69-.61,4.82-2.26,6.51-5.84-13.84,1.38-26.88,3-39.98,3.9-13.25.91-26.55,1.12-39.83,1.64,5.44-2.17,11.03-3.41,16.54-4.97,15.04-4.23,30.03-8.62,45.05-12.9,3.57-1.02,7.2-1.81,10.77-2.8,1.5-.41,2.8-1.17,2.08-3.38a47.389,47.389,0,0,0-4.87.45c-11.86,2.27-23.7,4.67-35.57,6.91q-16.155,3.045-32.36,5.83a25.748,25.748,0,0,1-4.96-.07,3.267,3.267,0,0,1,1.98-1.82c8.21-2.96,16.43-5.87,24.63-8.85,9.27-3.37,18.6-6.54,27.73-10.25,5.47-2.21,10.6-5.24,15.85-7.98.69-.36,1.14-1.19,1.87-1.99-.75-.2-1.1-.42-1.35-.35q-17.85,5.49-35.68,11.02c-4.44,1.38-8.86,2.82-13.33,4.11-.98.28-2.11.01-4.25,0,15.95-8.58,30.77-16.57,45.59-24.55a158.481,158.481,0,0,0-16.74,6.02c-5.28,2.1-10.11,5.53-16.21,5.51a15.5,15.5,0,0,1,5.1-4.12c9.08-4.15,16.63-10.48,24.12-16.86,1.44-1.22,2.34-3.07,3.5-4.62l.08-.18c-2.42,1.72-4.81,3.49-7.29,5.13a82.417,82.417,0,0,1-7.63,4.63c-2.41,1.25-4.56,3.37-8.35,3.56,1.5-2.38,2.48-3.94,3.47-5.5,6.2-9.71,12.43-19.4,18.58-29.14a35.711,35.711,0,0,0,2.08-4.62,3.61,3.61,0,0,0-3,.99c-7.51,6.93-14.86,14.03-22.55,20.74a100.516,100.516,0,0,1-12.6,9.02c-7.37,4.66-14.78,9.26-22.4,13.49-6.13,3.41-12.32,7.21-18.98,9.06-8.54,2.37-16.8,4.83-23.55,10.72-3.82,3.33-8.5,3.49-12.82,3.28-5.5-.26-10.97-1.84-16.37-3.21a8.657,8.657,0,0,1-4.13-3.2,90.109,90.109,0,0,1-4.83-7.72c-1.63,7.49.31,12.52,5.95,15.62,5.31,2.92,10.73,5.63,16.32,8.54-.19,2.59-.89,5.44,2.35,7.09.6.31.43,2.06.66,3.14.35,1.62.23,3.69,1.2,4.76,3.04,3.34,2.14,6.75,1.03,10.36-.42,1.4-.43,2.92-.77,4.35-1.65,7.02-3.12,13.82-10.77,17.54a62.976,62.976,0,0,0-18.51,14.14c-3.91,4.22-8.02,8.27-12.28,12.12-10.64,9.58-21.55,19.01-29.95,30.6-10.25,14.14-22.87,25.93-35.44,37.75-6.29,5.92-13.92,10.46-21.14,15.34-9.83,6.67-19.87,13.05-29.77,19.61-2.78,1.84-5.36,3.99-8.15,5.81a46.548,46.548,0,0,1-7.24,4.01c-5.49,2.29-11.07,4.37-16.65,6.42-6.44,2.38-12.88,4.71-19.38,6.92-2.63.89-5.39,1.39-8.11,2.04-17.34,4.13-34.6,8.62-52.04,12.25-12.51,2.6-25.25,4.15-37.92,5.94-10.09,1.43-20.21,2.76-30.36,3.69-4.96.46-10.06-.63-14.99-.06a77.8,77.8,0,0,1-25.97-1c-7.61-1.67-15.19-3.48-22.79-5.21a40.469,40.469,0,0,0-13.8-1.09c-2.45.29-5.1-.47-7.56-1.13-7.17-1.92-14.21-4.33-21.44-5.95-6-1.35-11.91-2.53-17.46-5.42a193.475,193.475,0,0,0-17.75-7.98c-8.08-3.22-16.47-5.74-24.4-9.3-4.52-2.03-9.31-4.23-12.9-8.54,3.8-1.92,8.76,1.06,11.42-3.77-4.23-.86-8.22-1.46-12.08-2.52-3.71-1.01-8.03,1.17-12.21-2.63,8.11-.29,15.25-.68,22.41-.75a35.631,35.631,0,0,1,22.27,7.1c3.4,2.55,6.75,5.17,10,7.91,2.32,1.96,4.42,4.16,7.09,6.7a11.893,11.893,0,0,0-1.46-10.6c-3.06-4.85-7.37-8.21-12.34-10.98-3.2-1.78-6.05-4.19-9.11-6.23a58.271,58.271,0,0,0-6.18-3.77c-5.63-2.84-11.27-5.67-17.02-8.25-6.88-3.1-13.17-7.6-20.83-8.88a9.072,9.072,0,0,1-2.11-1.11c3.52-3.65,7.04-5.26,11.56-2.78,1.96,1.07,3.97,2.01,5.94,3.05a33.023,33.023,0,0,0,17.77,3.45c-5.84-4.3-11.67-8.61-16.95-12.51,3.7-6.68,7.13-13.02,10.72-19.27,2.07-3.62,3.97-7.43,7.48-10.17,4.25,3.27,8.54,5.29,13.92,5.27,5.47-.02,9.68-2.08,11.92-6.64a11.37,11.37,0,0,0-1.61-13.02c-2.99-3.28-6.63-5.96-10.34-9.22,5.49-4.39,11.2-8.72,16.64-13.37,9.02-7.71,17.53-16.06,26.86-23.36,13.89-10.86,29.83-18.42,45.6-26.1,10-4.87,20.15-9.45,30.34-13.92,12.24-5.35,24.44-10.88,36.97-15.48,8.13-2.99,16.86-4.36,25.26-6.66,11.81-3.22,23.71-5.92,35.79-8.02,18.76-3.26,37.7-3.25,56.6-4.27,7.39-.4,14.76-1.18,22.13-1.84,9.22-.82,18.42-1.94,27.66-2.47,9.6-.56,19.25-.44,28.86-.89,11.15-.53,22.03.99,32.16,5.43,9.02,3.95,18.5,5.57,27.98,6.92,7.76,1.11,15.17,2.1,20.94,8.01.16.16.62.02.06.02,1.16-2.11,2.08-3.8,3-5.49.26-.39.52-.79.78-1.18a13.935,13.935,0,0,1-3.77-.74,7.64,7.64,0,0,1-3.22-2.71c-2.09-3.71-3.95-7.57-5.76-11.44a15.2,15.2,0,0,1-.66-3.61c7.33,1.36,11.83,4.82,13.64,11.92.89,3.5,3.09,6.74,5.12,9.83,1.54,2.35,3.13,4.95,6.1,5.96,2.05-3.82,1.89-3.75.74-6.77-1.28-3.34-3.84-6.28-3.76-10.5,5.57-.33,9.83,5.3,16.27,2.59-2.3-1.54-4.06-2.81-5.89-3.93-7.94-4.83-15.82-9.7-21.31-17.52-.51-.73-1.3-1.74-2-1.78-3.61-.17-5.43-3.03-7.82-4.95-9.27-7.43-18.25-15.23-27.74-22.36-13.46-10.09-29-15.62-45.28-19.18a125.685,125.685,0,0,0-12.6-2.18c-8.85-1.04-17.71-2.31-26.59-2.62-13.35-.47-26.74-.28-40.11-.21a188.405,188.405,0,0,0-19.46.74,258.073,258.073,0,0,0-34.98,6.68c-12.11,3.05-24.11,6.21-35.38,11.69-6.51,3.16-12.95,6.5-19.44,9.71-4.82,2.38-9.97,4.22-14.48,7.08-10.19,6.47-20.29,13.15-30.03,20.28a272.61,272.61,0,0,0-22.33,18.4c-7.23,6.6-13.75,13.98-20.87,20.71-7.01,6.63-14.45,12.79-21.54,19.33-2.69,2.48-4.85,5.5-7.37,8.17-8.15,8.61-16.54,17-24.46,25.81-4.69,5.21-8.38,11.2-14.07,15.66-4.31,3.38-7.83,7.86-11.35,12.15-2.79,3.4-4.44,7.75-8.86,9.74-.85.39-1.34,1.69-1.9,2.62-1.89,3.15-3.26,6.75-5.67,9.42a80.875,80.875,0,0,0-13.08,19.28c-1.84,3.8-4.41,6.85-8.62,8.16-10.78,3.35-15.07,11.93-17.29,21.95-.35,1.56.4,3.51,1.08,5.1a23.842,23.842,0,0,0,2.52,3.97c4.35.88,8,1.63,11.66,2.37-.65,1.02-1.15,1.28-1.67,1.34-10.53,1.18-15.43,5.71-18.01,18.68-.73,3.68,3.94,8.97,7.14,7.96,7.33-2.32,13.69-.66,19.79,3.61,2.05,1.44,4.68,2.03,6.82,3.37,4.19,2.63,8.22,5.51,12.33,8.29a68.241,68.241,0,0,0,6.01,4.01c4.51,2.41,9.25,4.41,13.67,6.95a110.493,110.493,0,0,0,30.94,12c5.6,1.26,11.29,2.09,16.94,3.1,3.81.69,7.72,1.16,9.23,5.19,1.45-.22,2.43-.38,4.25-.65-2.11,4.7-.57,7.89,1.88,11.31a17.2,17.2,0,0,1,2.89,8.83,64.759,64.759,0,0,0,4.74,20.95c1.97,5.06,4.82,7.33,9.52,8.69,4.37,1.27,5.9.98,8.26-2.94,1.5-2.49,2.63-5.2,4.07-8.08,4.08,1.18,7.86,2.26,11.7,3.36.83-5.25,3.14-7.83,8.32-10.41a4.268,4.268,0,0,0,1.77-3.02c.19-2.01-.32-4.09-.22-6.12a6.228,6.228,0,0,0-2.97-6.06c-2.08-1.46-3.6-3.72-5.42-5.58s-3.73-3.64-5.77-5.63c7.7.24,14.71.53,21.72.64,3.54.06,6.53.7,8.37,4.25a6.762,6.762,0,0,0,3.31,2.75,76.745,76.745,0,0,0,8.46,2.63q8.85,2.415,17.73,4.69c3.56.91,7.15,1.72,10.74,2.53,1.44.33,2.97.39,4.36.86,12.21,4.14,24.75,4.39,37.43,3.6,2.95-.19,6.13-.55,8.84.3,3.94,1.24,7.68.82,11.55.46,2.77-.26,5.56-.39,8.33-.69,10.69-1.14,21.4-2.09,32.04-3.58,6.6-.92,13.06-2.81,19.62-4.04,12.41-2.32,24.82-4.58,36.39-9.95,8.07-3.74,16.71-6.55,24.18-11.22,15.84-9.9,32.92-18.03,46.59-31.21,5.74-5.53,11.85-10.69,17.4-16.4,7.46-7.65,12.73-16.91,17.65-26.3,6.72-12.84,13.09-25.85,19.76-38.71,3.31-6.4,6.99-12.61,10.5-18.92-.17-.17-.33-.35-.5-.52-5.18,5.44-10.35,10.9-16.16,17.01,1.42-4.94,2.49-9.04,3.83-13.07a8.636,8.636,0,0,1,2.4-2.94c3.69-3.63,7.38-7.28,11.19-10.8,3.27-3.01,6.29-6.61,10.12-8.64,8.65-4.59,17.66-8.52,26.66-12.4a25.152,25.152,0,0,1,9.02-1.94c7-.22,14.02-.18,21.02.16,10.32.51,20.66,1.04,30.92,2.22,4.9.56,9.63,2.6,14.43,4.01a118.561,118.561,0,0,0,27.33,4.91c7.02.37,14.02.95,21.05,1.3a27.953,27.953,0,0,0,6.65-.43,6.186,6.186,0,0,0,5.38-5.59c-30.89-12.66-63.06-20.49-95.03-29.26a7.129,7.129,0,0,1,3.18-1.02Zm-142.31-88.12,1.16-1.04c3.88,1.64,7.79,3.19,11.59,4.98a3.61,3.61,0,0,1,1.83,2.48c.28,5.14,2.6,9.57,4.56,14.15a11.279,11.279,0,0,1,.42,2.26c-4.29.91-7.09-2.06-10.44-3.25-3.94-1.39-4.97-4.5-5.64-8.13-.37-1.97-1.44-3.79-2.04-5.72-.58-1.88-.96-3.81-1.43-5.73Zm-13.65-8.1c6.7,1.54,10.14,5.85,11.22,12.55.55,3.37,1.88,6.61,3.05,10.56-5.16.18-8.65-1.77-12.03-3.91a3.678,3.678,0,0,1-1.28-2.35c-.86-5.47-1.6-10.95-2.41-16.63a8.058,8.058,0,0,1,1.45-.22Zm-16.69-7.94c3.76-.34,6.44,1.93,9.4,3.24.73.32,1.2,1.83,1.32,2.84.66,5.65,1.17,11.33,1.87,18.35-4.04-1.73-7.51-2.68-10.29-4.63-1.48-1.05-2.33-3.77-2.45-5.81-.28-4.59.07-9.22.16-14Zm-6.34,2.71c-.06,4.01.23,8.03.4,12.94-2.7-.88-4.85-1.3-6.67-2.28a4.022,4.022,0,0,1-1.8-3.06c.16-5.51.63-11,1.03-17.06,7.24,2.77,7.15,2.77,7.05,9.46Zm-11.09-11.44c-.59,6.75-1.15,13.1-1.75,20.1-1.8-.15-2.91-.14-3.97-.35-1.43-.28-2.84-.72-4.17-1.08-.78-5.04,0-9.98,3.13-19.63,1.95.28,4.01.57,6.75.96Zm-13.23-3.3c-1.07,6.96-2.08,13.64-3.2,20.92-2.07-.3-4.15-.6-7-1.02,1.1-3.81,2.07-7.08,2.99-10.37.95-3.35,1.85-6.71,2.96-10.73C1006.74,147.39,1007.9,147.73,1009.05,148.05Zm-12.09-2.04c-1.61,7.01-3.13,13.59-4.74,20.6-4.47-.91-8.55-1.76-13.19-2.71,1.83-6.5,3.55-12.65,5.45-19.46,4.24.53,8.17,1.02,12.47,1.56Zm-23.82-2.15c1.79.25,3.63.29,6.1.48-1.29,6.62-3.76,12.48-5.9,18.96-4.91.21-9.29.39-14.47.61a31,31,0,0,1,1.47-4.55c2.17-4.08,4.69-7.98,6.66-12.15,1.34-2.85,3.21-3.77,6.14-3.35Zm-16.02-.43c1.42.23,2.87.29,4.84.47-.48,1.54-.75,2.72-1.22,3.82-1.71,4.1-3.66,8.11-5.19,12.28-1.08,2.93-2.67,4.72-5.96,4.74-2.56.02-5.12.26-7.67.4-.28-.4-.56-.8-.84-1.21,1.45-2.31,2.95-4.58,4.32-6.93a87.841,87.841,0,0,0,5.35-9.73c1.3-3.06,3.13-4.37,6.38-3.85Zm-13.51.37c.3.29.61.57.91.87-.76,1.38-1.57,2.74-2.28,4.15-2.07,4.15-4.17,8.28-6.15,12.46-1.78,3.77-2.41,4.1-7.36,2.65,4.39-6.59,8.65-13.05,13-19.45.3-.45,1.25-.46,1.89-.68Zm-9.98-1a32.257,32.257,0,0,1-1.62,3.94c-2.9,4.53-6.42,8.76-8.67,13.58s-5.46,5.46-10.69,4.3a108.6,108.6,0,0,1,14.5-19.53c1.12-1.23,3.5-1.29,6.49-2.29Zm-17.14.78c-4.91,7.31-9.26,13.96-13.85,20.43a6.763,6.763,0,0,1-4.15,2.34,97.346,97.346,0,0,1-10.06.58,33.44,33.44,0,0,1,2.25-4.21c3.59-4.72,7.48-9.23,10.87-14.08C905.17,143.44,910.04,142.67,916.49,143.58Zm-17.02,2.29c-1.39,1.78-2.46,3.21-3.58,4.59-4.1,5.04-8.3,9.99-12.28,15.13-1.7,2.19-3.68,2.93-7.19,2.44a29.1,29.1,0,0,1,2.03-3.75c4.12-5.27,8.34-10.45,12.46-15.72,2.04-2.61,4.58-3.46,8.55-2.69ZM867.6,154.5c3.84-3.62,8.45-5.03,14.62-5.93-3.08,4.32-6.08,7.71-8.14,11.6-4.55,8.57-11.71,12.76-21,13.99-2.09.27-4.14.77-6.21,1.17-.21-.37-.43-.74-.64-1.11,1.38-1.35,2.71-2.76,4.14-4.06,5.74-5.23,11.6-10.34,17.24-15.66Zm-30.54,10.22a21.916,21.916,0,0,1,6.53-4.04c3.84-1.76,7.83-3.19,11.76-4.76.3.4.61.79.91,1.19-1.04,1.16-2.02,2.38-3.14,3.46-5.61,5.39-11.36,10.63-16.84,16.15-3.68,3.71-8.5,4-13.96,5.87.86-1.77,1.11-2.78,1.72-3.47,4.28-4.86,8.49-9.8,13.02-14.41Zm-65.82,35.66c10.1-6.54,20.12-13.21,30.35-19.54,4.22-2.62,8.86-4.55,13.35-6.72a4.773,4.773,0,0,1,1.95-.2l.04-.04-.12-.14.32.17h-.24c-5.58,5.6-11.17,11.21-16.85,16.75a8.547,8.547,0,0,1-2.93,1.54c-9.97,3.91-19.96,7.8-30.36,11.21,1.5-1.02,2.98-2.06,4.49-3.04ZM654.63,323.41c-1.14-3.57-.07-7,2.36-7.59,2.14-.52,5.62,1.96,6.29,4.49.7,2.63-1.48,6.25-4.22,7-2.01.55-3.4-.68-4.42-3.9ZM767.44,483.94c-3.74-.75-7.03-.41-9.65,2.79-.85,1.05-2.17,1.74-3.93,3.09-2.09-9.08-7.9-14.84-13.35-20.91-3.58-3.98-6.62-8.38-8-14.5,3.56.6,6.66.93,9.65,1.72,1.52.4,3.7,1.36,4.08,2.55,1.16,3.69,4.46,4.72,6.98,6.72,3.62,2.89,7.18,5.86,10.85,8.69,1.45,1.12,3.12,1.93,4.67,2.93,1.53.98,3.03,2.01,4.47,2.98-1.85,4.65-1.87,4.72-5.77,3.94ZM892.5,467.87c-4.85.83-9.69,1.93-14.58,2.46-9.61,1.04-19.27,1.58-28.86-.26a29.5,29.5,0,0,1-7.84-2.6c-3.41-1.75-6.56-4.03-10.78-6.69,3.2-.25,5.5-.53,7.81-.58,4.08-.08,8.25.52,12.22-.12,8.86-1.43,17.29-.17,25.76,2.34,5.29,1.57,10.75,2.6,16.13,3.87.05.53.1,1.05.14,1.58Zm-16-9.57c7.52-1.37,14.89-2.53,22.5-.38,5.69,1.6,11.69,2.11,17.54,3.17a16.357,16.357,0,0,1,5.01,1.75c-15.81,5.97-30.58,2.3-45.05-4.55Zm77.72-1.2c-5.43,1.74-10.75,3.14-16.73,1.89-7.41-1.56-15.01-2.24-22.52-3.33a10.489,10.489,0,0,1-4.67-1.69c6.3-1.85,12.54-3.91,18.92-5.42,1.99-.46,4.4.37,6.49,1.01,6.28,1.96,12.51,4.12,18.76,6.2-.08.44-.17.89-.25,1.34Zm10.71-6.2c-4.64-2.22-9.65-3.68-14.48-5.52a20.062,20.062,0,0,1-2.44-1.32c1.43-2.28,3.45-1.8,5.11-1.82,3.85-.04,20.93,5.29,24.11,7.37-3.93,2.76-7.74,3.45-12.29,1.28Zm16.95-7.18c-3.68-2.04-7.97-2.98-11.97-4.45-1.88-.69-3.72-1.48-6.04-2.41,4.79-3.7,9.23-5.28,14.79-3.09,5.34,2.1,10.91,3.57,16.41,5.26.87.27,1.84.18,2.55.91-5.01,4.04-9.44,7.27-15.74,3.77Zm30.5-11.01c-4.33,4.5-9.1,5.29-14.78,3.01-4.64-1.86-9.55-3.03-14.31-4.56a34.77,34.77,0,0,1-3.5-1.57c4.37-3.79,9.43-5.07,13.88-7.42a2.558,2.558,0,0,1,2.1.18c5.46,3.1,10.88,6.27,16.3,9.44.11.06.12.33.32.92Zm5.67-8.01c-2.11-1.15-4.36-2.05-6.48-3.18-4.27-2.29-8.67-3.02-14.63-.7,1.48-1.77,1.92-2.7,2.65-3.13,3.53-2.03,7.1-4.02,10.76-5.78a4.313,4.313,0,0,1,3.6-.04c4.85,3.34,9.51,6.93,14.64,10.74-5.47,4.67-5.75,4.68-10.55,2.08Zm22.18-10.47c-1.96,1.57-3.6,2.89-5.32,4.27-5.1-3.79-9.83-7.29-15.2-11.28,3.58-2.49,6.42-4.47,9.65-6.71C1033.98,404.26,1036.64,409.27,1040.23,414.23Zm11.22-9.08c-2.63,2.16-4.85,4-7.67,6.32-3.44-4.46-6.62-8.6-10.06-13.08,3.04-2.79,5.87-5.4,9.67-8.89,2.86,5.53,5.36,10.39,8.07,15.64Zm10.33-10.27a4.393,4.393,0,0,1-1.29,3.32,30.685,30.685,0,0,1-4.55,3.2c-3.3-4.97-6.33-9.52-9.59-14.43,1.95-3.13,4.14-6.71,8.62-9.02,2.9,5.58,5.48,11.02,6.82,16.93Zm5.72-2.65c-2.83-6.44-5.35-12.15-8.25-18.74,2.56-2.74,5.49-5.85,9.22-9.83,1.69,7.97,3.41,14.72,4.46,21.58.52,3.37-2.95,4.63-5.43,6.99Zm10.62-10.14c-1.93-7.34-3.65-13.85-5.57-21.16,3.75-2.51,7.99-5.33,12.75-8.5a30.488,30.488,0,0,1,.98,3.98c.25,2.75-.15,5.66.58,8.26,2.37,8.41-3.67,12.13-8.74,17.42Zm14-15.16a20.861,20.861,0,0,1-1.13-3.49c-.25-2.57-.36-5.16-.5-7.75-.46-8.05.63-9.65,9.71-13.1C1098.7,351.32,1099.48,359.91,1092.12,366.93Zm14.23-18.78c1.88-6.61-.89-14.31,5.04-20.07C1112.02,333.47,1109.25,345.67,1106.35,348.15Z" fill="#eaf5fc" fill-rule="evenodd"/></g><g style="mix-blend-mode:multiply;isolation:isolate"><path d="M701.98,373.13c.88-2.9,1.8-6.42.9-9.07-1.82-5.34-5.51-9.66-11.45-11.05a27.04,27.04,0,0,0-16.87,1.15c-6.42,2.66-8.57,8.78-5.49,15.01,3.16,6.37,8.89,9.09,15.17,10.87,2.46.71,5.22.36,6.88.44,3.04-1.69,5.04-2.65,6.86-3.86,1.5-.99,3.58-2.05,4.01-3.5Zm-26.91-6.74c-1.09-4.46.21-6.43,4.86-7.37,4.84-.97,8.02.17,9.45,3.45a8.037,8.037,0,0,1,.66,2.76c-2.12.55-4.2,1.98-6.19,2.76a8.232,8.232,0,0,0-3.63,3.52c-2.39-.86-4.46-2.06-5.15-5.12Z" fill="#eaf5fc" fill-rule="evenodd"/></g><path d="M772.64,612.98H763V587.29a75.561,75.561,0,0,1-5.99,12.47c-1.75-1.91-3.08-3.08-8.81-6.74a91.4,91.4,0,0,0,14.55-26.52H751.19v-8.81H763v-7.48a76.484,76.484,0,0,1-7.98,1.41,41.772,41.772,0,0,0-5.15-8.56c10.14-.42,22.78-4.57,27.35-6.98l5.32,7.32a2.271,2.271,0,0,1,.5,1.41c0,.5-.67.83-1.16.83a3.517,3.517,0,0,1-1.75-.75,70.442,70.442,0,0,1-7.48,2.74v10.06h8.15v8.81h-8.15V568a52.982,52.982,0,0,0,10.06,14.3c-4.57,3.74-5.4,4.66-6.82,6.49-1-1.58-1.75-2.91-3.24-5.65v29.85Zm30.52-59.03a65.4,65.4,0,0,0,9.64-17.54l10.89,3.91a.707.707,0,0,1,.5.58c0,1.08-1.58,1-2.41,1a71.865,71.865,0,0,1-6.9,12.06h9.15v28.1H814.3v17.63c0,2.33.17,2.74,2.49,2.74,2.49,0,3.49-.42,4.24-8.65a30.715,30.715,0,0,0,8.31,5.24,23.859,23.859,0,0,1-3.08,9.31c-1.75,2.66-3.33,2.99-6.4,2.99h-8.15c-6.65,0-7.23-4.24-7.23-8.06v-21.2H792.09l7.98,2.33c.5.17,1,.5,1,1,0,1-1,1.16-1.91,1.25-1.5,9.23-4.49,19.12-17.54,26.86a33.585,33.585,0,0,0-7.65-7.73c6.24-2.08,15.55-8.73,15.96-23.7h-6.32v-28.1h8.31a90.886,90.886,0,0,0-8.07-13.05l8.4-4.49c3.66,4.16,7.9,11.72,9.15,14.05a37.834,37.834,0,0,0-7.48,3.49h9.23Zm-10.06,8.73v10.64h21.45V562.68Z" fill="#fff"/><path d="M854.46,567.5v26.52a6.756,6.756,0,0,0,4.82,6.49c3.58,1.25,15.8,1.33,20.37,1.33,7.82,0,23.11-.83,31.6-1.58a31.569,31.569,0,0,0-3.83,11.14H869.59c-14.63,0-18.79-4.07-21.12-8.23a125,125,0,0,1-11.06,7.23c-.25,1.75-.42,2.83-1.33,2.83-.83,0-1.16-1-1.41-1.66l-3.91-9.81a47.625,47.625,0,0,0,12.72-6.65V577.48h-9.73V567.5h20.7Zm-13.39-30.35a99.448,99.448,0,0,1,14.8,12.14c-1.25,1.16-6.57,6.07-7.57,7.15a85.236,85.236,0,0,0-14.72-12.22l7.48-7.07Zm38,18.54c-.25-3.74-.25-5.4-.25-6.9H865.93V538.4h23.78a41.047,41.047,0,0,0-.67,8.65c0,18.62,4.24,31.43,20.37,44.07-4.16,3.33-5.24,4.24-7.73,7.65-8.23-5.65-17.71-18.46-20.45-29.85-6.73,19.62-16.13,27.35-18.13,28.93a15.724,15.724,0,0,0-8.56-7.15c4.99-3.49,17.46-15.46,20.04-35.92Z" fill="#fff"/><path d="M950.01,614.73H935.54V544.26l-12.35,8.48V538.15l13.22-9.48H950v86.06Z" fill="#fff"/><path d="M982.39,621.21l-14.72,12.6V597.52h14.72v23.7Z" fill="#fff"/><path d="M1016.83,615.85c-14.34,0-27.07-8.48-27.07-26.32V553.98c0-18.33,12.72-26.44,27.07-26.44s27.07,8.11,27.07,26.32v35.67C1043.9,607.37,1031.18,615.85,1016.83,615.85Zm0-75.71c-7.86,0-12.72,5.36-12.72,14.59v33.93c0,9.23,4.86,14.59,12.72,14.59s12.6-5.36,12.6-14.59V554.73c0-9.23-4.86-14.59-12.6-14.59Z" fill="#fff"/><path d="M1079.05,615.85c-14.34,0-27.07-8.48-27.07-26.32V553.98c0-18.33,12.72-26.44,27.07-26.44s27.07,8.11,27.07,26.32v35.67C1106.12,607.37,1093.4,615.85,1079.05,615.85Zm0-75.71c-7.86,0-12.72,5.36-12.72,14.59v33.93c0,9.23,4.86,14.59,12.72,14.59s12.6-5.36,12.6-14.59V554.73C1091.65,545.5,1086.79,540.14,1079.05,540.14Z" fill="#fff"/><path d="M1141.27,615.85c-14.34,0-27.07-8.48-27.07-26.32V553.98c0-18.33,12.72-26.44,27.07-26.44s27.07,8.11,27.07,26.32v35.67C1168.34,607.37,1155.62,615.85,1141.27,615.85Zm0-75.71c-7.86,0-12.72,5.36-12.72,14.59v33.93c0,9.23,4.86,14.59,12.72,14.59s12.6-5.36,12.6-14.59V554.73C1153.87,545.5,1149.01,540.14,1141.27,540.14Z" fill="#fff"/><path d="M1200.33,580.39V612.4h-10.98V539.73h68.76v61.03c0,9.31-5.49,11.39-15.96,11.39a19.209,19.209,0,0,1-3.16-.17c-.58-6.73-2.16-9.39-3.49-11.64a32.532,32.532,0,0,0,7.48,1c4.49,0,4.49-1.83,4.49-4.49V580.39Zm18.12-30.68h-18.12V570.5h18.12Zm10.56,20.78h18.46V549.7h-18.46Z" fill="#fff"/><path d="M212.08,400.34q-31.845,15.24-57.63,19.48-26.535,4.38-46.51-2.7L90.51,321.91l28.34-5.06q2.955,16.785,5.88,36.84,27.465-18.54,41.79-41.06l23.25,24.57Q170,351.21,133.76,357.19q-4.68.765-8.25,1.17l5.54,37.09a80.038,80.038,0,0,0,19.4-1.09q21.5-3.54,31.62-10.78l-2.96-19.09,32.97,35.83Z" fill="#fff"/><path d="M315.12,319.43q5.445,35.385-8.85,60.39-13.395,23.52-43.15,36.29,23.37-33.99,22.85-67.49L211,365.4l-5.62-28.25q65.535-11.19,109.75-17.71Zm-22.05-18.44q-21.495,4.7-68.77,14.8l-4.53-29.77q54.54-8.025,69.04-10.81L293.06,301Z" fill="#fff"/><path d="M438.94,337.02,424.01,365.2q-18.945-10.125-29.33-16.08-19.485,33.15-63.9,40.86a168.67,168.67,0,0,0,25.21-28.73q10.74-15.21,14.49-25.04-11.88-5.715-37.17-18.25l10.21-19.54,36.16,13.23q5.19-12.75,9.76-44.41l31.15,7.34q-3.27,22.035-14.84,47.36,9.555,4.38,33.19,15.06Z" fill="#fff"/><path d="M514,362.86q19.965-22.38,16.77-43.72a32.513,32.513,0,0,0-6.11-15.31,19.585,19.585,0,0,0-13.38-7.91q-4.29,32.355-33.41,65.55-9.63-3.96-16.46-14.74a44.394,44.394,0,0,1-7.16-19.7q-1.845-20.085,10.91-33.78,12.06-12.915,31.76-15.19,20.49-2.4,34.79,8.13,13.605,10.32,16.57,28.27c1.97,11.97-.19,22.6-6.59,31.27q-9.225,12.285-27.69,17.13Zm-18.83-66.72a21.35,21.35,0,0,0-4.53.26,22.952,22.952,0,0,0-14.93,8.91,23.789,23.789,0,0,0-5.23,16.28q.51,10.035,6.17,15.63a121.885,121.885,0,0,0,11.65-20.36q5.97-13.215,6.86-20.71Z" fill="#fff"/><path d="M170.63,521.3q-9.2,8.235-15.96,13.77-10.125-12.525-16.78-21.42l16.09-13.02q11.715,14.01,16.65,20.67Zm36.95-13.39L190.4,522.45q-2.025-2.925-17.28-20.95l19.58-13.98q10.47,14.6,14.88,20.39Zm55.02-21.35q.105,32.04-13.98,56.05-18.15,30.825-55.58,37.76,23.355-22.47,32.22-50.23a95.92,95.92,0,0,0,3.1-47.54l34.24,3.95Zm-8.07-16.33a58.848,58.848,0,0,0-9.38,4.81l-6.85-14.8,13.83-4.58,2.4,14.58Zm17.69-20.77,1.1,14.79a58.848,58.848,0,0,0-9.38,4.81l-5.36-15.05,13.65-4.55Z" fill="#fff"/><path d="M398.01,478.62q-14.475,2.97-28.81,6.86,11.895,66.375-42.92,81.94,25.815-37.845,17.63-78.15l-34.51,4.92q-2.355,10.17-11.3,19.33a54.573,54.573,0,0,1-20.35,13.34q12.45-36.21,6.6-71.72-1.02-6.165-2.47-12.65l29.93-3.59a264.92,264.92,0,0,1,.86,27.31l81.01-13.93,4.34,26.35Z" fill="#fff"/><path d="M538.86,481.31l3.02,20.62-24.48,4.04,7.17,34.14-24.73,3.69q-2.34-19.965-4.46-32.86l-37.93,6.25q1.56,14.145-9.54,25.95a45.574,45.574,0,0,1-24.56,14.03,65.838,65.838,0,0,0,10.5-22.46q2.19-8.8,1.64-14.47-14.04,2.13-24.76,4.66l-3.23-21.92q5.445-.705,26.72-4.41l-6.56-40.95q-9.4,1.17-21.95,3.04l-5.1-21.62,23.36-3.85-5.38-20.99,25.66-3.85q1.68,14.88,2.24,21.7l34.7-6.11q-2.52-15.315-4.07-22.36l23.76-3.73,2.08,23.07q17.79-3.885,23.73-5.07l3.82,24.32-22.21,3.85,6.66,39.21,23.92-3.94Zm-54.22-29.64-34.79,5.54,5.51,34.6,34.57-5.7-5.3-34.44Zm-2.79,13.32-4.89,18.08q-8.055-2.31-18.3-5.04l5.1-16.77L481.84,465Z" fill="#fff"/><path d="M200.28,80.48c3.98-.81,5.88-1.76,7.39-3.12a3.177,3.177,0,0,1,1.9-.95,4.476,4.476,0,0,1,2.62.52,71.641,71.641,0,0,1,11.84,6.59,5.055,5.055,0,0,1,2.59,3.21,4.53,4.53,0,0,1-1.31,3.54,18.775,18.775,0,0,0-3.99,7.46c-6.86,22.64-14.26,39.21-22.64,52.61-10.78,17.12-26.64,35.08-40.49,46.06a4.237,4.237,0,0,1-2.34,1.18,5.49,5.49,0,0,1-3.82-1.11,40.927,40.927,0,0,0-15.8-4.67c21.84-17.2,32.4-28.91,44.8-47.72,9.93-15.56,15.29-27.2,21.28-48.43l-37.09,7.22c-10.06,17.63-16.31,27.68-23.9,36.37a4.861,4.861,0,0,1-2.95,2.23,3.713,3.713,0,0,1-2.46-.54,42.2,42.2,0,0,0-15.88-4.18c17.33-19.62,26.82-35.9,33.88-52.57,3.66-9.46,5.18-14.62,5.66-22.29,9.29,1.63,15.57,3.28,19.36,5.19a3.258,3.258,0,0,1,1.97,2.36,3.135,3.135,0,0,1-1.26,2.9c-1.39,1.18-2.19,3.05-3.17,4.79-1.26,2.9-2.42,5.46-3.81,8.54l27.62-5.19Z" fill="#fff"/><path d="M259.95,73.33c-1.75-10.62-3.18-16.4-5.4-22.2,6.59-.3,14.91-.72,19.63.08,1.92.16,2.85.95,3.02,2.03a6.482,6.482,0,0,1-.23,2.41c-.9,3.15-.58,7.05.72,14.91l5.13,31.11c1.32,8.01,2.62,13.96,3.66,19.33.38,2.31-.42,3.23-2.88,3.64l-12.32,2.03c-2.16.36-3.21-.26-3.36-2.14-.89-5.39-1.9-14.4-2.99-21.02l-4.98-30.18Zm77.27,16.83c3.76,22.79,2.88,38.59-4.2,52.26-5.89,11.25-17.74,22.86-29.89,29.76a9.678,9.678,0,0,1-3.11,1.3,5.065,5.065,0,0,1-4-1.24A50.7,50.7,0,0,0,281.38,165c15.64-7.8,27.38-17.17,33.87-28.68,5.64-9.95,6.76-23.26,3.54-42.82l-4.8-29.1c-2.18-13.24-3.3-18.12-5.83-24.82,7.49-.6,15.06-.75,20.58.09a2.628,2.628,0,0,1,2.59,2.26,4.983,4.983,0,0,1-.21,2.57c-.85,3.46-.19,7.46,1.38,17.01l4.72,28.64Z" fill="#fff"/><path d="M383.96,71.07c1.57-1.05,2.67-1.07,4.18.42,6.51,5.89,12.73,12.93,17,20.61a10.807,10.807,0,0,1,1,2.21c.15.92-.39,1.49-1.49,2.46a64.021,64.021,0,0,1-9.07,6.4c-2.03,1.12-3.08.51-4.21-1.52a92.155,92.155,0,0,0-18.56-22.41c4.75-3.79,8.17-6.09,11.15-8.17Zm29.89-12.52c1.57-1.05,2.67-1.07,4.21.57a89.979,89.979,0,0,1,15.56,20.53c1.15,2.18.97,3-.85,4.41a64.947,64.947,0,0,1-9.84,6.53c-1.59.89-2.33.23-3.46-1.8-5.04-8.5-9.8-15.31-17-22.51,5.68-3.94,8.94-6.22,11.38-7.73Zm54.98.58c1.38.72,2.28,1.37,2.43,2.29s-.18,1.77-1.24,3.05c-1.98,2.38-2.55,5.64-3.33,8.62a190.112,190.112,0,0,1-16.5,44.79c-8.03,14.61-15.15,24.17-26.82,34.95a6.707,6.707,0,0,1-3.42,2.3,3.571,3.571,0,0,1-2.64-.67c-4.36-2.44-8.18-3.55-14.16-4.31,16.47-15.21,24.42-24.59,31.68-38.12,6.05-11.28,12.18-27.79,14.67-40.54a56.244,56.244,0,0,0,.85-16.91c6.8.94,14.18,2.56,18.47,4.55Z" fill="#fff"/><path d="M575.57,18.59c3.98-.81,5.88-1.76,7.4-3.12a3.177,3.177,0,0,1,1.9-.95,4.476,4.476,0,0,1,2.62.52,71.641,71.641,0,0,1,11.84,6.59,5.056,5.056,0,0,1,2.59,3.21,4.53,4.53,0,0,1-1.31,3.54,18.774,18.774,0,0,0-3.99,7.46c-6.86,22.64-14.26,39.21-22.64,52.61-10.78,17.12-26.64,35.08-40.49,46.06a4.237,4.237,0,0,1-2.34,1.18,5.49,5.49,0,0,1-3.82-1.11,40.927,40.927,0,0,0-15.8-4.67c21.84-17.2,32.4-28.91,44.8-47.72,9.93-15.56,15.29-27.2,21.28-48.43l-37.09,7.22c-10.06,17.63-16.31,27.68-23.9,36.37a4.861,4.861,0,0,1-2.95,2.23,3.713,3.713,0,0,1-2.46-.54,42.2,42.2,0,0,0-15.87-4.18c17.33-19.62,26.82-35.9,33.88-52.57,3.66-9.46,5.18-14.62,5.66-22.29,9.28,1.63,15.57,3.29,19.36,5.19a3.235,3.235,0,0,1,1.97,2.36,3.135,3.135,0,0,1-1.26,2.9c-1.39,1.18-2.19,3.05-3.16,4.79-1.26,2.9-2.42,5.46-3.81,8.54l27.62-5.19Z" fill="#fff"/><path d="M147.127,46.1l14.76,2.59c10.962,1.923,18.079,3.9,23.076,6.423a16.5,16.5,0,0,1,9.168,12.174q.057.347.1.695l3.576-.672a13.814,13.814,0,0,0,1.348-.323,16.515,16.515,0,0,1,8.186-3.791l1.108-.187,1.619-.041a18.241,18.241,0,0,1,7.69,1.771,83.9,83.9,0,0,1,13.811,7.7,17.231,17.231,0,0,1,4.026,26.436,6.881,6.881,0,0,0-1.469,2.829c-6.908,22.8-14.567,40.539-24.078,55.748-11.52,18.295-28.037,37.094-43.2,49.2a17.59,17.59,0,0,1-8.76,4.151l-1.108.187-1.721.048a19.149,19.149,0,0,1-10.32-3.191,28.452,28.452,0,0,0-10.185-2.719l-32.507-3.618,25.7-20.236c19.958-15.718,29.749-26.131,41.9-44.567a142.766,142.766,0,0,0,12.5-23.508l-8.546,1.663c-8.479,14.659-14.633,24.252-22.026,32.8a17.629,17.629,0,0,1-11.175,7.037l-1.1.186-1.611.041a17.257,17.257,0,0,1-8.547-2.306,28.741,28.741,0,0,0-9.821-2.465l-28.232-1.094,18.7-21.175c14.629-16.562,24.074-31.193,31.583-48.923,3.33-8.626,4.269-12.216,4.625-17.9Z" fill="#0b318f"/><path d="M319.408,25.68a76.768,76.768,0,0,1,11.349.738,15.909,15.909,0,0,1,13.787,13.256,18.5,18.5,0,0,1-.415,8.152c-.066,1.383.74,6.283,1.591,11.461l4.727,28.683c4.379,26.556,2.728,44.684-5.523,60.615-7.031,13.43-20.5,26.917-35.173,35.251a22.171,22.171,0,0,1-7.6,2.878l-1.06.171-1.782.059a18.842,18.842,0,0,1-11.129-3.828,37.385,37.385,0,0,0-10.925-5.36l-31.249-10.1L275.4,153c13.9-6.932,23.379-14.76,28.176-23.268,4.021-7.094,4.649-17.908,1.99-34.059l-4.8-29.1c-2.175-13.212-3.146-16.973-5.144-22.266l-6.3-16.674,17.767-1.423C311.276,25.882,315.486,25.68,319.408,25.68ZM266.541,37.343a62.011,62.011,0,0,1,9.409.574c7.591.893,13.375,6.143,14.492,13.238a18.786,18.786,0,0,1-.379,7.368c-.282,1.373-.193,3.529.852,9.849l5.131,31.116c.938,5.69,1.866,10.306,2.692,14.415l.9,4.547c1.643,9.955-4.074,17.784-13.837,19.411L273.459,139.9a19.721,19.721,0,0,1-3.234.276,15.45,15.45,0,0,1-15.593-13.84c-.424-2.628-.877-6.006-1.348-9.547-.5-3.776-1.03-7.753-1.58-11.1l-4.979-30.175c-1.566-9.5-2.794-14.629-4.693-19.591l-6.637-17.339,18.546-.844C258.459,37.532,262.7,37.343,266.541,37.343Z" fill="#0b318f"/><path d="M435.674,39.019,452.186,41.3c5.35.74,15.357,2.459,22.275,5.668,5.991,3.089,9.189,7.138,10.029,12.293.791,4.852-.6,9.48-4.146,13.757a7.683,7.683,0,0,1-.309,1.973l-.377,1.492A203.69,203.69,0,0,1,462.011,124.2c-9.12,16.6-17.108,26.987-29.545,38.476a18.565,18.565,0,0,1-10.381,5.687l-1.06.171-1.582.042a16.951,16.951,0,0,1-9.052-2.625c-2.237-1.211-4.278-1.913-8.93-2.5l-28.54-3.627L394.055,140.3c15.593-14.4,22.631-22.81,28.963-34.61q.382-.712.762-1.451a15.01,15.01,0,0,1-2.057.141,14.72,14.72,0,0,1-5.119-.9,21.058,21.058,0,0,1-3.089,3.34,77.938,77.938,0,0,1-11.1,7.874,17.353,17.353,0,0,1-8.585,2.432c-3.432,0-9.839-1.164-14.178-8.96a78.1,78.1,0,0,0-15.614-18.789L351.835,78.827l12.615-10.065c4.425-3.531,7.771-5.859,10.669-7.871l1.169-.813a17,17,0,0,1,9.628-3.161,15.539,15.539,0,0,1,5.225.908l5.129-3.558c5.086-3.529,8.17-5.657,10.526-7.115a15.974,15.974,0,0,1,21.036,2.793,85.021,85.021,0,0,1,9.386,10.706c0-1.423-.074-3.024-.232-5.014Z" fill="#0b318f"/><path d="M522.437-15.8,537.2-13.2c10.926,1.919,18.035,3.9,23.049,6.409A16.477,16.477,0,0,1,569.44,5.394q.057.348.1.7l3.358-.631v0a15.892,15.892,0,0,0,1.562-.367,16.516,16.516,0,0,1,8.18-3.785l1.108-.187,1.62-.041a18.241,18.241,0,0,1,7.689,1.771,83.893,83.893,0,0,1,13.811,7.7,17.9,17.9,0,0,1,8.276,12.092,17.739,17.739,0,0,1-4.25,14.345,6.881,6.881,0,0,0-1.469,2.829c-6.908,22.8-14.567,40.539-24.078,55.748-11.52,18.295-28.037,37.094-43.2,49.2a17.591,17.591,0,0,1-8.76,4.151l-1.108.187-1.72.048a19.15,19.15,0,0,1-10.32-3.191,28.451,28.451,0,0,0-10.185-2.719l-32.507-3.618,25.7-20.236c19.958-15.718,29.749-26.131,41.9-44.567A142.765,142.765,0,0,0,557.64,51.3l-8.546,1.663c-8.479,14.659-14.633,24.252-22.026,32.8A17.629,17.629,0,0,1,515.894,92.8l-1.1.186-1.611.041a17.257,17.257,0,0,1-8.548-2.306,28.722,28.722,0,0,0-9.811-2.465l-28.229-1.1,18.7-21.173c14.629-16.562,24.074-31.193,31.583-48.923,3.33-8.626,4.269-12.216,4.625-17.9Z" fill="#0b318f"/><path d="M200.28,80.48c3.98-.81,5.88-1.76,7.39-3.12a3.177,3.177,0,0,1,1.9-.95,4.476,4.476,0,0,1,2.62.52,71.641,71.641,0,0,1,11.84,6.59,5.055,5.055,0,0,1,2.59,3.21,4.53,4.53,0,0,1-1.31,3.54,18.775,18.775,0,0,0-3.99,7.46c-6.86,22.64-14.26,39.21-22.64,52.61-10.78,17.12-26.64,35.08-40.49,46.06a4.237,4.237,0,0,1-2.34,1.18,5.49,5.49,0,0,1-3.82-1.11,40.927,40.927,0,0,0-15.8-4.67c21.84-17.2,32.4-28.91,44.8-47.72,9.93-15.56,15.29-27.2,21.28-48.43l-37.09,7.22c-10.06,17.63-16.31,27.68-23.9,36.37a4.861,4.861,0,0,1-2.95,2.23,3.713,3.713,0,0,1-2.46-.54,42.2,42.2,0,0,0-15.88-4.18c17.33-19.62,26.82-35.9,33.88-52.57,3.66-9.46,5.18-14.62,5.66-22.29,9.29,1.63,15.57,3.28,19.36,5.19a3.258,3.258,0,0,1,1.97,2.36,3.135,3.135,0,0,1-1.26,2.9c-1.39,1.18-2.19,3.05-3.17,4.79-1.26,2.9-2.42,5.46-3.81,8.54l27.62-5.19Z" fill="#fff"/><path d="M259.95,73.33c-1.75-10.62-3.18-16.4-5.4-22.2,6.59-.3,14.91-.72,19.63.08,1.92.16,2.85.95,3.02,2.03a6.482,6.482,0,0,1-.23,2.41c-.9,3.15-.58,7.05.72,14.91l5.13,31.11c1.32,8.01,2.62,13.96,3.66,19.33.38,2.31-.42,3.23-2.88,3.64l-12.32,2.03c-2.16.36-3.21-.26-3.36-2.14-.89-5.39-1.9-14.4-2.99-21.02l-4.98-30.18Zm77.27,16.83c3.76,22.79,2.88,38.59-4.2,52.26-5.89,11.25-17.74,22.86-29.89,29.76a9.678,9.678,0,0,1-3.11,1.3,5.065,5.065,0,0,1-4-1.24A50.7,50.7,0,0,0,281.38,165c15.64-7.8,27.38-17.17,33.87-28.68,5.64-9.95,6.76-23.26,3.54-42.82l-4.8-29.1c-2.18-13.24-3.3-18.12-5.83-24.82,7.49-.6,15.06-.75,20.58.09a2.628,2.628,0,0,1,2.59,2.26,4.983,4.983,0,0,1-.21,2.57c-.85,3.46-.19,7.46,1.38,17.01l4.72,28.64Z" fill="#fff"/><path d="M383.96,71.07c1.57-1.05,2.67-1.07,4.18.42,6.51,5.89,12.73,12.93,17,20.61a10.807,10.807,0,0,1,1,2.21c.15.92-.39,1.49-1.49,2.46a64.021,64.021,0,0,1-9.07,6.4c-2.03,1.12-3.08.51-4.21-1.52a92.155,92.155,0,0,0-18.56-22.41c4.75-3.79,8.17-6.09,11.15-8.17Zm29.89-12.52c1.57-1.05,2.67-1.07,4.21.57a89.979,89.979,0,0,1,15.56,20.53c1.15,2.18.97,3-.85,4.41a64.947,64.947,0,0,1-9.84,6.53c-1.59.89-2.33.23-3.46-1.8-5.04-8.5-9.8-15.31-17-22.51,5.68-3.94,8.94-6.22,11.38-7.73Zm54.98.58c1.38.72,2.28,1.37,2.43,2.29s-.18,1.77-1.24,3.05c-1.98,2.38-2.55,5.64-3.33,8.62a190.112,190.112,0,0,1-16.5,44.79c-8.03,14.61-15.15,24.17-26.82,34.95a6.707,6.707,0,0,1-3.42,2.3,3.571,3.571,0,0,1-2.64-.67c-4.36-2.44-8.18-3.55-14.16-4.31,16.47-15.21,24.42-24.59,31.68-38.12,6.05-11.28,12.18-27.79,14.67-40.54a56.244,56.244,0,0,0,.85-16.91c6.8.94,14.18,2.56,18.47,4.55Z" fill="#fff"/><path d="M575.57,18.59c3.98-.81,5.88-1.76,7.4-3.12a3.177,3.177,0,0,1,1.9-.95,4.476,4.476,0,0,1,2.62.52,71.641,71.641,0,0,1,11.84,6.59,5.056,5.056,0,0,1,2.59,3.21,4.53,4.53,0,0,1-1.31,3.54,18.774,18.774,0,0,0-3.99,7.46c-6.86,22.64-14.26,39.21-22.64,52.61-10.78,17.12-26.64,35.08-40.49,46.06a4.237,4.237,0,0,1-2.34,1.18,5.49,5.49,0,0,1-3.82-1.11,40.927,40.927,0,0,0-15.8-4.67c21.84-17.2,32.4-28.91,44.8-47.72,9.93-15.56,15.29-27.2,21.28-48.43l-37.09,7.22c-10.06,17.63-16.31,27.68-23.9,36.37a4.861,4.861,0,0,1-2.95,2.23,3.713,3.713,0,0,1-2.46-.54,42.2,42.2,0,0,0-15.87-4.18c17.33-19.62,26.82-35.9,33.88-52.57,3.66-9.46,5.18-14.62,5.66-22.29,9.28,1.63,15.57,3.29,19.36,5.19a3.235,3.235,0,0,1,1.97,2.36,3.135,3.135,0,0,1-1.26,2.9c-1.39,1.18-2.19,3.05-3.16,4.79-1.26,2.9-2.42,5.46-3.81,8.54l27.62-5.19Z" fill="#fff"/></g></svg>