<?xml version="1.0" encoding="UTF-8"?>
<svg id="_レイヤー_2" data-name="レイヤー_2" xmlns="http://www.w3.org/2000/svg" viewBox="0 0 1362.19 197.82">
  <defs>
    <style>
      .cls-1 {
        fill: #330001;
      }

      .cls-2 {
        fill: #231815;
      }

      .cls-3 {
        fill: #fff;
      }

      .cls-4 {
        stroke: #310011;
        stroke-width: 14.17px;
      }

      .cls-4, .cls-5 {
        fill: none;
        stroke-linecap: round;
        stroke-linejoin: round;
      }

      .cls-5 {
        stroke: #330001;
        stroke-width: 29.84px;
      }

      .cls-6 {
        fill: #fff100;
      }
    </style>
  </defs>
  <g id="_新タイトル" data-name="新タイトル">
    <g>
      <g>
        <g>
          <path class="cls-5" d="M63.06,19.37h43.8v23.02l-47.33-.16c-.09,1.59-.19,3.12-.28,4.6-.09,1.48-.24,2.96-.42,4.45,5.18-.1,10.46.53,15.82,1.9,5.37,1.38,10.43,3.55,15.19,6.51,4.75,2.96,8.99,6.72,12.72,11.27,3.72,4.55,6.52,9.95,8.41,16.19,2.64,8.89,3.34,18.26,2.12,28.1-1.23,9.84-4.47,19.53-9.75,29.05l-27.69-11.91,5.65-16.19,8.34,3.65c1.13-4.23,1.7-8.49,1.7-12.78s-.52-8.28-1.55-11.99c-1.13-3.81-2.75-7.04-4.87-9.68-2.12-2.64-4.59-4.81-7.42-6.51-2.83-1.69-5.91-2.88-9.25-3.57-3.34-.69-6.71-.93-10.1-.71.28,9.84,1.22,18.79,2.83,26.83,1.04-1.8,1.98-3.52,2.83-5.16.85-1.64,1.79-3.41,2.83-5.32l18.51,10.8c-3.39,7.3-7.04,13.52-10.95,18.65-3.91,5.13-7.96,9.31-12.16,12.54-4.2,3.23-8.5,5.56-12.91,6.99-4.41,1.43-8.75,2.14-13.01,2.14-3.67,0-7.35-.53-11.02-1.59-3.67-1.06-7.09-2.65-10.24-4.76-3.16-2.12-5.91-4.81-8.27-8.1-2.36-3.28-4.1-7.14-5.23-11.59-1.6-6.35-1.74-12.96-.42-19.84,1.32-6.88,3.81-13.18,7.49-18.89,3.58-5.18,7.79-9.58,12.65-13.18,4.85-3.6,10.1-6.56,15.75-8.89.09-2.12.24-4.26.43-6.43.19-2.17.38-4.37.57-6.59H2.59v-22.86h38.03c.19-.74.36-1.45.5-2.14.14-.69.26-1.4.36-2.14l2.13-11.43,21.15,4.45-1.7,11.27ZM26.04,92.08c-1.7,2.44-2.87,5.29-3.53,8.57-.66,3.28-.61,6.3.14,9.05.56,2.33,1.62,4.16,3.18,5.48,1.55,1.33,3.27,2.28,5.16,2.86,1.88.58,3.86.79,5.93.64,2.07-.16,3.96-.56,5.65-1.19-1.6-5.61-2.92-11.46-3.96-17.54-1.04-6.08-1.7-12.25-1.98-18.5-1.98,1.27-3.89,2.81-5.72,4.6-1.84,1.8-3.46,3.81-4.87,6.03Z"/>
          <path class="cls-5" d="M186.26,143.36c-8.85,0-17.07-2.2-24.65-6.59-7.58-4.39-14.01-10.72-19.29-18.97-4.24-6.67-7.11-13.94-8.62-21.83-1.51-7.88-2.12-15.93-1.84-24.13.28-8.2,1.22-16.35,2.83-24.45,1.6-8.1,3.34-15.8,5.23-23.1l-9.89-3.02,4.38-16.99,32.64,9.84c-1.51,5.61-3.23,11.75-5.16,18.42-1.93,6.67-3.56,13.55-4.87,20.64-1.32,7.09-2.1,14.16-2.33,21.2-.24,7.04.59,13.63,2.47,19.77,1.98,6.67,5.37,12.14,10.17,16.43,4.8,4.29,10.31,6.69,16.53,7.22,6.5.53,12.69-1,18.58-4.6,5.89-3.6,10.67-8.73,14.34-15.4l19.21,14.29c-2.73,4.76-5.93,9.08-9.61,12.94-3.67,3.87-7.65,7.14-11.94,9.84-4.29,2.7-8.81,4.79-13.56,6.27-4.76,1.48-9.63,2.22-14.62,2.22ZM185.7,76.52l-4.1-23.66,13.56-2.7,3.96,23.5-13.42,2.86ZM204.63,76.52l-3.96-23.66,13.71-2.7,3.81,23.5-13.56,2.86Z"/>
          <path class="cls-5" d="M291.1,132.72l5.09-16.35,13,5.08c1.22-3.92,2.28-7.91,3.18-11.99.89-4.07,1.39-8.07,1.48-11.99.09-3.92-.26-7.62-1.06-11.11-.8-3.49-2.19-6.61-4.17-9.37-2.64-3.81-6.31-6.67-11.02-8.57-2.54,8.57-4.95,16.65-7.21,24.21-2.26,7.57-4.33,14.47-6.22,20.72-1.89,6.25-3.58,11.78-5.09,16.59-1.51,4.82-2.73,8.7-3.67,11.67l-21.9-8.26,22.04-68.58c-4.71-.1-9.77.24-15.19,1.03-5.42.79-11.23,2.14-17.45,4.05l-5.09-23.5c16.67-5.18,31.65-7.14,44.93-5.87.57-2.01,1.18-4.15,1.84-6.43.66-2.28,1.36-4.84,2.12-7.7.75-2.86,1.67-6.14,2.76-9.84,1.08-3.7,2.33-8.1,3.74-13.18l21.05,7.14-9.61,35.25c4.24,1.8,8.12,4.08,11.66,6.83,3.53,2.75,6.66,5.98,9.4,9.68,2.35,3.28,4.31,7.14,5.86,11.59s2.42,9.92,2.61,16.43c.19,6.51-.45,14.26-1.91,23.26-1.46,9-4.08,19.58-7.84,31.75l-33.34-12.54ZM348.18,92.72c0-8.47-1.2-15.77-3.6-21.91-2.4-6.14-5.09-11.22-8.05-15.24-2.97-4.02-5.72-7.04-8.27-9.05-2.54-2.01-3.96-3.07-4.24-3.17l10.31-20.16c.38.21,1.53.95,3.46,2.22,1.93,1.27,4.21,3.15,6.85,5.64,2.64,2.49,5.44,5.61,8.41,9.37,2.97,3.76,5.72,8.18,8.27,13.26,2.54,5.08,4.64,10.88,6.29,17.38,1.65,6.51,2.47,13.73,2.47,21.67h-21.9ZM340.12,24.93l-3.81-22.07,13.85-2.86,3.53,22.07-13.56,2.86ZM359.48,35.25l-3.81-23.66,13.42-3.17,3.96,23.81-13.56,3.02Z"/>
          <path class="cls-5" d="M450.61,96.69l-3.25-16.83,8.62-2.38-6.36-26.35h-55.53l-.14-24.45h49.59l-4.38-16.19,21.48-6.83,6.08,23.02h44.79l.14,24.45h-38.71l8.62,37.31-30.94,8.26ZM476.04,122.25c-2.45,2.65-4.92,5.37-7.42,8.18-2.5,2.8-5.39,5.26-8.69,7.38-2.92,1.8-6.1,3.2-9.54,4.21-3.44,1-6.81,1.51-10.1,1.51-5.75,0-11.3-1.35-16.67-4.05-5.37-2.7-9.98-6.59-13.85-11.67-2.17-2.86-3.84-5.9-5.02-9.13-1.18-3.23-2.1-6.56-2.75-10-.66-3.44-1.06-6.99-1.2-10.64-.14-3.65-.21-7.38-.21-11.19h22.18v8.81c0,3.02.3,5.9.92,8.65.61,2.75,1.65,5.29,3.11,7.62,1.46,2.33,3.6,4.18,6.43,5.56,2.17,1.17,4.43,1.77,6.78,1.83,2.35.05,4.57-.5,6.64-1.67,2.73-1.27,5.16-3.1,7.28-5.48,2.12-2.38,4.26-4.84,6.43-7.38l15.68,17.46Z"/>
          <path class="cls-5" d="M563.5,6.51h22.18v35.56c4.05-2.22,8.22-3.94,12.5-5.16,4.29-1.22,8.64-1.83,13.07-1.83s8.59.61,12.79,1.83c4.19,1.22,8.1,3.02,11.73,5.4,3.62,2.38,6.9,5.32,9.82,8.81,2.92,3.49,5.32,7.46,7.21,11.91,4.71,11.22,6.17,23.02,4.38,35.4-1.32,8.57-4.05,16.59-8.19,24.05-4.15,7.46-9.42,14.05-15.82,19.77l-15.82-17.94c3.48-3.07,6.64-6.75,9.47-11.03,2.83-4.29,4.99-8.81,6.5-13.57,1.51-4.76,2.21-9.58,2.12-14.45-.1-4.87-1.32-9.42-3.67-13.65-2.54-4.66-5.75-7.88-9.61-9.68-3.86-1.8-7.94-2.57-12.22-2.3-4.29.27-8.55,1.38-12.79,3.33-4.24,1.96-8.05,4.37-11.44,7.22l.14,71.44h-22.18v-44.93c-2.26,4.45-4.45,9.08-6.57,13.89-2.12,4.82-4.12,9.87-6,15.16l-20.77-8.26c3.96-12.07,8.78-23.07,14.48-33.02,5.7-9.95,11.99-18.52,18.86-25.72l-.14-7.14c-1.79.11-4.64.5-8.55,1.19-3.91.69-8.17,2.36-12.79,5l-13-26.67,14.41-7.78,3.25,6.99c3.01-1.06,6.08-1.77,9.18-2.14,3.11-.37,5.6-.5,7.49-.4V6.51Z"/>
          <path class="cls-5" d="M797.04,16.04l-56.94,128.12-32.5-18.42,7.49-15.4,11.45,6.83,33.62-77.16h-86.04v-23.97h122.92Z"/>
          <path class="cls-5" d="M905.97,61.92v25.72h-117.83v-25.72h117.83Z"/>
          <path class="cls-5" d="M915.58,142.25V6.03h22.18v136.22h-22.18ZM1017.31,76.36l-13.7,37.31c-6.22-2.64-12.25-5.4-18.08-8.26-5.84-2.86-11.4-6.24-16.67-10.16-5.56-4.02-10.43-8.55-14.62-13.57-4.19-5.03-8.31-10.56-12.36-16.59l18.37-15.24c2.54,3.71,5.11,7.33,7.7,10.88,2.59,3.55,5.63,6.85,9.11,9.92,3.2,2.75,6.52,5.21,9.96,7.38,3.44,2.17,6.95,4.1,10.53,5.79l4.8-14.13,14.98,6.67ZM970.54,53.82l-3.96-23.5,13.56-3.02,3.81,23.81-13.42,2.7ZM989.33,58.9l-3.81-23.5,13.71-2.86,3.53,23.5-13.42,2.86Z"/>
          <path class="cls-5" d="M1136.13,16.04l-56.94,128.12-32.5-18.42,7.49-15.4,11.44,6.83,33.63-77.16h-86.04v-23.97h122.92Z"/>
          <path class="cls-5" d="M1235.03,110.81v22.39h-94.38v-22.39h37.72v-45.41l-27.69,2.22-1.98-29.21,14.55-1.27.57,7.62,63.3-5.24,1.55,22.07-29.39,2.06v47.15h35.75Z"/>
          <path class="cls-5" d="M1352.86,139.07c-5.93-3.07-11.19-5.93-15.75-8.57-4.57-2.64-8.78-5.64-12.65-8.97-3.86-3.33-7.51-7.22-10.95-11.67-3.44-4.45-6.9-10-10.38-16.67l-34.19,47.47-25.43-22.86,10.03-13.49,8.34,7.78,50.16-70.49h-62.73v-24.13h109.07l-40.41,55.57c.66,1.8,1.91,4.37,3.74,7.7s4.47,7.04,7.91,11.11c3.44,4.08,7.82,8.28,13.14,12.62,5.32,4.34,11.8,8.36,19.43,12.07l-9.33,22.54Z"/>
        </g>
        <g>
          <path class="cls-3" d="M63.06,19.37h43.8v23.02l-47.33-.16c-.09,1.59-.19,3.12-.28,4.6-.09,1.48-.24,2.96-.42,4.45,5.18-.1,10.46.53,15.82,1.9,5.37,1.38,10.43,3.55,15.19,6.51,4.75,2.96,8.99,6.72,12.72,11.27,3.72,4.55,6.52,9.95,8.41,16.19,2.64,8.89,3.34,18.26,2.12,28.1-1.23,9.84-4.47,19.53-9.75,29.05l-27.69-11.91,5.65-16.19,8.34,3.65c1.13-4.23,1.7-8.49,1.7-12.78s-.52-8.28-1.55-11.99c-1.13-3.81-2.75-7.04-4.87-9.68-2.12-2.64-4.59-4.81-7.42-6.51-2.83-1.69-5.91-2.88-9.25-3.57-3.34-.69-6.71-.93-10.1-.71.28,9.84,1.22,18.79,2.83,26.83,1.04-1.8,1.98-3.52,2.83-5.16.85-1.64,1.79-3.41,2.83-5.32l18.51,10.8c-3.39,7.3-7.04,13.52-10.95,18.65-3.91,5.13-7.96,9.31-12.16,12.54-4.2,3.23-8.5,5.56-12.91,6.99-4.41,1.43-8.75,2.14-13.01,2.14-3.67,0-7.35-.53-11.02-1.59-3.67-1.06-7.09-2.65-10.24-4.76-3.16-2.12-5.91-4.81-8.27-8.1-2.36-3.28-4.1-7.14-5.23-11.59-1.6-6.35-1.74-12.96-.42-19.84,1.32-6.88,3.81-13.18,7.49-18.89,3.58-5.18,7.79-9.58,12.65-13.18,4.85-3.6,10.1-6.56,15.75-8.89.09-2.12.24-4.26.43-6.43.19-2.17.38-4.37.57-6.59H2.59v-22.86h38.03c.19-.74.36-1.45.5-2.14.14-.69.26-1.4.36-2.14l2.13-11.43,21.15,4.45-1.7,11.27ZM26.04,92.08c-1.7,2.44-2.87,5.29-3.53,8.57-.66,3.28-.61,6.3.14,9.05.56,2.33,1.62,4.16,3.18,5.48,1.55,1.33,3.27,2.28,5.16,2.86,1.88.58,3.86.79,5.93.64,2.07-.16,3.96-.56,5.65-1.19-1.6-5.61-2.92-11.46-3.96-17.54-1.04-6.08-1.7-12.25-1.98-18.5-1.98,1.27-3.89,2.81-5.72,4.6-1.84,1.8-3.46,3.81-4.87,6.03Z"/>
          <path class="cls-3" d="M186.26,143.36c-8.85,0-17.07-2.2-24.65-6.59-7.58-4.39-14.01-10.72-19.29-18.97-4.24-6.67-7.11-13.94-8.62-21.83-1.51-7.88-2.12-15.93-1.84-24.13.28-8.2,1.22-16.35,2.83-24.45,1.6-8.1,3.34-15.8,5.23-23.1l-9.89-3.02,4.38-16.99,32.64,9.84c-1.51,5.61-3.23,11.75-5.16,18.42-1.93,6.67-3.56,13.55-4.87,20.64-1.32,7.09-2.1,14.16-2.33,21.2-.24,7.04.59,13.63,2.47,19.77,1.98,6.67,5.37,12.14,10.17,16.43,4.8,4.29,10.31,6.69,16.53,7.22,6.5.53,12.69-1,18.58-4.6,5.89-3.6,10.67-8.73,14.34-15.4l19.21,14.29c-2.73,4.76-5.93,9.08-9.61,12.94-3.67,3.87-7.65,7.14-11.94,9.84-4.29,2.7-8.81,4.79-13.56,6.27-4.76,1.48-9.63,2.22-14.62,2.22ZM185.7,76.52l-4.1-23.66,13.56-2.7,3.96,23.5-13.42,2.86ZM204.63,76.52l-3.96-23.66,13.71-2.7,3.81,23.5-13.56,2.86Z"/>
          <path class="cls-3" d="M291.1,132.72l5.09-16.35,13,5.08c1.22-3.92,2.28-7.91,3.18-11.99.89-4.07,1.39-8.07,1.48-11.99.09-3.92-.26-7.62-1.06-11.11-.8-3.49-2.19-6.61-4.17-9.37-2.64-3.81-6.31-6.67-11.02-8.57-2.54,8.57-4.95,16.65-7.21,24.21-2.26,7.57-4.33,14.47-6.22,20.72-1.89,6.25-3.58,11.78-5.09,16.59-1.51,4.82-2.73,8.7-3.67,11.67l-21.9-8.26,22.04-68.58c-4.71-.1-9.77.24-15.19,1.03-5.42.79-11.23,2.14-17.45,4.05l-5.09-23.5c16.67-5.18,31.65-7.14,44.93-5.87.57-2.01,1.18-4.15,1.84-6.43.66-2.28,1.36-4.84,2.12-7.7.75-2.86,1.67-6.14,2.76-9.84,1.08-3.7,2.33-8.1,3.74-13.18l21.05,7.14-9.61,35.25c4.24,1.8,8.12,4.08,11.66,6.83,3.53,2.75,6.66,5.98,9.4,9.68,2.35,3.28,4.31,7.14,5.86,11.59s2.42,9.92,2.61,16.43c.19,6.51-.45,14.26-1.91,23.26-1.46,9-4.08,19.58-7.84,31.75l-33.34-12.54ZM348.18,92.72c0-8.47-1.2-15.77-3.6-21.91-2.4-6.14-5.09-11.22-8.05-15.24-2.97-4.02-5.72-7.04-8.27-9.05-2.54-2.01-3.96-3.07-4.24-3.17l10.31-20.16c.38.21,1.53.95,3.46,2.22,1.93,1.27,4.21,3.15,6.85,5.64,2.64,2.49,5.44,5.61,8.41,9.37,2.97,3.76,5.72,8.18,8.27,13.26,2.54,5.08,4.64,10.88,6.29,17.38,1.65,6.51,2.47,13.73,2.47,21.67h-21.9ZM340.12,24.93l-3.81-22.07,13.85-2.86,3.53,22.07-13.56,2.86ZM359.48,35.25l-3.81-23.66,13.42-3.17,3.96,23.81-13.56,3.02Z"/>
          <path class="cls-3" d="M450.61,96.69l-3.25-16.83,8.62-2.38-6.36-26.35h-55.53l-.14-24.45h49.59l-4.38-16.19,21.48-6.83,6.08,23.02h44.79l.14,24.45h-38.71l8.62,37.31-30.94,8.26ZM476.04,122.25c-2.45,2.65-4.92,5.37-7.42,8.18-2.5,2.8-5.39,5.26-8.69,7.38-2.92,1.8-6.1,3.2-9.54,4.21-3.44,1-6.81,1.51-10.1,1.51-5.75,0-11.3-1.35-16.67-4.05-5.37-2.7-9.98-6.59-13.85-11.67-2.17-2.86-3.84-5.9-5.02-9.13-1.18-3.23-2.1-6.56-2.75-10-.66-3.44-1.06-6.99-1.2-10.64-.14-3.65-.21-7.38-.21-11.19h22.18v8.81c0,3.02.3,5.9.92,8.65.61,2.75,1.65,5.29,3.11,7.62,1.46,2.33,3.6,4.18,6.43,5.56,2.17,1.17,4.43,1.77,6.78,1.83,2.35.05,4.57-.5,6.64-1.67,2.73-1.27,5.16-3.1,7.28-5.48,2.12-2.38,4.26-4.84,6.43-7.38l15.68,17.46Z"/>
          <path class="cls-3" d="M563.5,6.51h22.18v35.56c4.05-2.22,8.22-3.94,12.5-5.16,4.29-1.22,8.64-1.83,13.07-1.83s8.59.61,12.79,1.83c4.19,1.22,8.1,3.02,11.73,5.4,3.62,2.38,6.9,5.32,9.82,8.81,2.92,3.49,5.32,7.46,7.21,11.91,4.71,11.22,6.17,23.02,4.38,35.4-1.32,8.57-4.05,16.59-8.19,24.05-4.15,7.46-9.42,14.05-15.82,19.77l-15.82-17.94c3.48-3.07,6.64-6.75,9.47-11.03,2.83-4.29,4.99-8.81,6.5-13.57,1.51-4.76,2.21-9.58,2.12-14.45-.1-4.87-1.32-9.42-3.67-13.65-2.54-4.66-5.75-7.88-9.61-9.68-3.86-1.8-7.94-2.57-12.22-2.3-4.29.27-8.55,1.38-12.79,3.33-4.24,1.96-8.05,4.37-11.44,7.22l.14,71.44h-22.18v-44.93c-2.26,4.45-4.45,9.08-6.57,13.89-2.12,4.82-4.12,9.87-6,15.16l-20.77-8.26c3.96-12.07,8.78-23.07,14.48-33.02,5.7-9.95,11.99-18.52,18.86-25.72l-.14-7.14c-1.79.11-4.64.5-8.55,1.19-3.91.69-8.17,2.36-12.79,5l-13-26.67,14.41-7.78,3.25,6.99c3.01-1.06,6.08-1.77,9.18-2.14,3.11-.37,5.6-.5,7.49-.4V6.51Z"/>
          <path class="cls-3" d="M797.04,16.04l-56.94,128.12-32.5-18.42,7.49-15.4,11.45,6.83,33.62-77.16h-86.04v-23.97h122.92Z"/>
          <path class="cls-3" d="M905.97,61.92v25.72h-117.83v-25.72h117.83Z"/>
          <path class="cls-3" d="M915.58,142.25V6.03h22.18v136.22h-22.18ZM1017.31,76.36l-13.7,37.31c-6.22-2.64-12.25-5.4-18.08-8.26-5.84-2.86-11.4-6.24-16.67-10.16-5.56-4.02-10.43-8.55-14.62-13.57-4.19-5.03-8.31-10.56-12.36-16.59l18.37-15.24c2.54,3.71,5.11,7.33,7.7,10.88,2.59,3.55,5.63,6.85,9.11,9.92,3.2,2.75,6.52,5.21,9.96,7.38,3.44,2.17,6.95,4.1,10.53,5.79l4.8-14.13,14.98,6.67ZM970.54,53.82l-3.96-23.5,13.56-3.02,3.81,23.81-13.42,2.7ZM989.33,58.9l-3.81-23.5,13.71-2.86,3.53,23.5-13.42,2.86Z"/>
          <path class="cls-3" d="M1136.13,16.04l-56.94,128.12-32.5-18.42,7.49-15.4,11.44,6.83,33.63-77.16h-86.04v-23.97h122.92Z"/>
          <path class="cls-3" d="M1235.03,110.81v22.39h-94.38v-22.39h37.72v-45.41l-27.69,2.22-1.98-29.21,14.55-1.27.57,7.62,63.3-5.24,1.55,22.07-29.39,2.06v47.15h35.75Z"/>
          <path class="cls-3" d="M1352.86,139.07c-5.93-3.07-11.19-5.93-15.75-8.57-4.57-2.64-8.78-5.64-12.65-8.97-3.86-3.33-7.51-7.22-10.95-11.67-3.44-4.45-6.9-10-10.38-16.67l-34.19,47.47-25.43-22.86,10.03-13.49,8.34,7.78,50.16-70.49h-62.73v-24.13h109.07l-40.41,55.57c.66,1.8,1.91,4.37,3.74,7.7s4.47,7.04,7.91,11.11c3.44,4.08,7.82,8.28,13.14,12.62,5.32,4.34,11.8,8.36,19.43,12.07l-9.33,22.54Z"/>
        </g>
      </g>
      <g>
        <g>
          <path class="cls-4" d="M252.21,194.15v-28.5l-2.06-1.81v-.16l9.04-.85v10.52c4-1.01,8.09-2.14,11.89-3.83l.95-2.7.16-.04,3.88,8.26c-4.84,1.93-9.91,3.71-15.06,4.68l-1.82-3.59v11.57h15.46l1.51-2.34h.16l1.67,8.79h-25.77Z"/>
          <path class="cls-4" d="M301.76,190.6l.08-.08,2.81-.04c3.96-2.18,7.69-6.17,9.04-10.56h-20.38l1.31-7.78h.16l1.51,1.85c8.4-.36,16.81-.61,25.21-.61-.48,10.76-4.56,17.33-13.08,23.46l-6.66-6.25ZM296.56,170.17l1.35-7.78h.16l1.47,1.85c6.22-.48,12.57-.6,18.83-.6l1.31,6.53h-23.11Z"/>
          <path class="cls-4" d="M354.12,184.23c-3.25,5-7.37,8.95-12.21,12.3l-6.03-7.01.12-.08,2.97.32c3.45-2.54,6.5-5.4,8.92-8.95l-7.25-3.99,4.92-6.37.12.04.24,2.3c1.7.77,3.41,1.61,5.11,2.42,1.51-3.35,2.58-6.93,3.41-10.52l-1.47-2.06.04-.12,8.88,1.69c-1.07,4.88-2.5,9.72-4.6,14.27,1.9,1.01,3.77,2.06,5.63,3.1l-1.86,6.49-6.94-3.83Z"/>
          <path class="cls-4" d="M397,188.31l.06-.13,2.29-.13c2.26-2.1,3.97-5.2,3.97-8.37,0-4.1-3.3-7.56-7.34-7.56-4.51,0-7.91,3.55-7.91,8.11,0,1.68.48,3.33,1.46,4.68,2.22-2.46,3.43-6.2,3.94-9.43l-1.24-1.78.03-.13,6.93,1.07c-.95,6.62-3.18,13.08-9.09,16.7-4.92-1.87-7.43-6.1-7.43-11.34,0-7.59,6.07-13.02,13.34-13.02,8.1,0,12.99,5.43,12.99,13.34,0,5.23-2.54,9.66-6.61,12.76l-5.4-4.78Z"/>
          <path class="cls-4" d="M427.51,179.64l-4.52-13.1,7.1-.73,2.7,9.03,2.46,1.09.08.12-7.81,3.59ZM432.3,189.11l.08-.08,2.97.28c6.07-4.39,10.74-9.59,13.28-17.7l-1.47-2.54.04-.08,8.72,2.34c-3.29,12.21-8.92,18.83-17.68,24.95l-5.95-7.18ZM437.62,177.26l-4-12.78,7.1-.73,2.18,8.71,2.5,1.05.04.16-7.81,3.59ZM447.01,167.67l-1.62-4.55,5.03-1.09.56,4.84-3.96.81ZM453.16,166.98l-1.62-4.56,5.03-1.09.56,4.84-3.96.81Z"/>
          <path class="cls-4" d="M476.58,190.04l.08-.16,3.09.12c4.88-3.99,7.41-8.67,8.6-14.88h-8.72l-3.33,6.93-6.03-4.43c2.3-4.68,4.76-9.39,7.61-13.79l-1.11-2.5.04-.16,8.13,2.7-2.46,5.16c6.07-.36,12.17-.6,18.24-.6l1.31,6.69h-6.54c-1.27,9.47-5.03,15.52-12.37,21.37l-6.54-6.45Z"/>
          <path class="cls-4" d="M538.06,196.65v-7.82h-11.18c-.71,3.23-1.82,5.97-3.45,8.99l-8.09-4.27.12-.12,2.85-.89c.71-1.21,1.23-2.42,1.67-3.71h-4.88l1.27-7.3h.2l1.39,1.77,3.25-.12c.36-3.1.4-6.65.44-10.88h-5.35l1.23-7.22h.16l1.39,1.73,2.5-.16-.08-2.98-1.78-1.69v-.16l8.48-.81v5.48l9.87-.2v-3.59l-1.94-1.65v-.2l8.48-.81v6.13h2.97l1.27,6.13h-4.24v10.4h4.52l1.27,6.13h-5.79v8.95l-6.54-1.13ZM538.06,178.31l-5.79,4.39-4.12-6.41c-.08,2.54-.2,4.76-.4,6.73l10.31-.2v-4.51ZM538.06,172.3h-9.87l-.04,3.1,5.83-2.46,2.06,4.47,2.02.32v-5.44Z"/>
          <path class="cls-4" d="M580.78,182.76l-7.68,7.81-3.71-3.78,7.68-7.81-7.68-7.81,3.71-3.78,7.68,7.81,7.68-7.81,3.71,3.78-7.68,7.81,7.68,7.81-3.71,3.78-7.68-7.81Z"/>
          <path class="cls-4" d="M633.18,195.76v-.16l2.66-1.61v-5.64l-3.77,4.88-6.03-4.68c-1.51,1.89-3.29,3.39-5.03,4.35l-4.4-5.04v8.87l-6.5-1.01.2-28.22-1.82-1.53v-.16l8.17-.77v1.29l6.86-.28.16-3.47-1.78-1.73v-.16l8.56-.36-.28,5.52,12.01-.12.16,31.36-9.16-1.33ZM616.65,171.74l-.04,4.03,1.98.04c1.62-1.05,3.09-2.42,4-4.07h-5.95ZM621.93,180.77l-.95.64-4.36-5v10.8h1.98c1.7-1.25,3.65-3.63,4.24-5.4l-.91-1.05ZM635.84,176.82l-3.65,4.76-5.75-4.68c-.95,1.05-2.06,2.06-3.37,3.06l6.66.28c-.4,2.38-1.23,4.52-2.34,6.37l2.34-1.94,4.12,3.43,1.98-.2v-11.09ZM635.84,171.74h-6.5c-.36,1.25-.87,2.42-1.67,3.55l2.62-2.1,3.69,3.22,1.86-.16v-4.51Z"/>
          <path class="cls-4" d="M674.72,182.76l-7.68,7.81-3.71-3.78,7.68-7.81-7.68-7.81,3.71-3.78,7.68,7.81,7.68-7.81,3.71,3.78-7.68,7.81,7.68,7.81-3.71,3.78-7.68-7.81Z"/>
          <path class="cls-4" d="M730.65,195.76c-3.49-2.78-6.66-6.13-9.55-9.59-3.41,3.99-7.73,7.1-12.17,9.76l-5.07-7.14.12-.08,2.62.36c7.21-3.95,12.17-9.51,14.43-17.62h-13.16l1.31-7.94h.16l1.51,1.85c6.14-.44,12.33-.52,18.51-.52-.48,6.65-2.22,12.94-6.03,18.46l3.17-1.89c2.14,2.78,4.52,5.44,7.1,7.78h3.01l.08.16-6.03,6.41Z"/>
          <path class="cls-4" d="M762.99,195v-15.52c-3.45,2.26-7.14,4.15-10.9,5.8l-4.6-7.22.12-.08,2.81.52c7.65-3.55,14.59-8.06,20.1-14.55l-.63-2.58.12-.2,7.33,4.8c-3.05,3.91-6.46,7.54-10.39,10.64l3.01-.32v20.28l-6.98-1.57Z"/>
          <path class="cls-4" d="M789.33,182.7l1.23-7.78h.16l1.39,1.73c9.47-.52,18.99-.64,28.46-.64l1.27,6.69h-32.51Z"/>
          <path class="cls-4" d="M838.23,179.64l-4.52-13.1,7.1-.73,2.7,9.03,2.46,1.09.08.12-7.81,3.59ZM843.03,189.11l.08-.08,2.97.28c6.07-4.39,10.74-9.59,13.28-17.7l-1.47-2.54.04-.08,8.72,2.34c-3.29,12.21-8.92,18.83-17.68,24.95l-5.95-7.18ZM848.34,177.26l-4-12.78,7.1-.73,2.18,8.71,2.5,1.05.04.16-7.81,3.59Z"/>
          <path class="cls-4" d="M892.07,190.18l.11-.14,2.63-.46c2.45-3.81,3.43-7.88,3.43-10.48s-.49-3.17-3.29-3.17l-.7.11-.32,11.8-6.13-1.21.25-9.23-3.37,1-1.82-7.77.11-.04,2.1,1.28,3.15-.79.11-4.85-1.75-1.64v-.14l7.99-.54-.17,6.38,1.61-.04c6.06-.14,8.59,4.35,8.59,8.95,0,4.13-1.96,10.27-5.29,15.08l-7.22-4.1ZM904.93,168.37l-1.44-4.06,4.45-.96.49,4.28-3.5.75ZM909.24,182.48c-2.1-3.67-4.03-8.73-5.57-12.8l6.24-1.39c.81,2.82,2.14,6.99,3.33,9.59l2.31.54.04.11-6.34,3.96ZM910.33,167.76l-1.44-4.03,4.45-1,.49,4.28-3.5.75Z"/>
          <path class="cls-4" d="M931.56,182.34l1.39-8.55h.16l1.59,2.02c9.24-.48,22.08-.64,31-.64l1.39,7.18h-35.52Z"/>
          <path class="cls-4" d="M982.76,196.29l1.03-5.68h.16l1.11,1.41,10.82-.36v-1.98h-10.31l1.03-5.52h.16l1.07,1.41,8.05-.36v-1.94h-2.42v.85l-6.22-1.05.12-9.27-4.08-.77.2-5.56-1.75-1.61v-.16l5.63-.36-.79-3.06,6.3-.48,1.15,3.71,1.98-.12v-2.9l-1.82-1.57v-.16l8.17-.77v5.16l2.54-.08.63-1.89-1.15-1.49.04-.16,7.85,1.05-.59,2.42,3.09-.04.2,8.3h-4.08l.12,10.04h-8.76v1.77l9.4-.12,1.07,4.76h-10.47v1.81l12.37-.12,1.03,4.92h-32.86ZM1008.25,170.33h-18.47v1.29l3.69-.36v1.01c5-.32,10.5-.44,14.79-.48v-1.45ZM1004.8,176.62h-11.34v2.3h11.34v-2.3Z"/>
          <path class="cls-4" d="M1034.2,193.55v-25.07l-1.87-1.61v-.15l8.18-.77v23.5l2.15,1.46v.15l-8.47,2.48ZM1059.97,194.25c-6.14-.55-11.77-2.88-16.04-7.74l5.46-5.58.11.07-.22,2.41c2.58,2.37,6.17,3.65,9.83,4.12l2.19-1.83.14.04-1.47,8.5ZM1044.93,173.37l1.18-6.9h.14l1.33,1.68c3.48-.37,7.86-.55,12.17-.55l1.18,5.77h-16.01Z"/>
          <path class="cls-4" d="M1087.98,196.73l-5.91-8.55,6.3-2.9,3.77,5.85,2.54.32.08.12-6.78,5.16ZM1084.61,181.82l2.74-18.38-1.74-2.1.04-.16,8.88.69-3.77,23.26-6.14-3.31Z"/>
        </g>
        <g>
          <path class="cls-2" d="M252.21,194.15v-28.5l-2.06-1.81v-.16l9.04-.85v10.52c4-1.01,8.09-2.14,11.89-3.83l.95-2.7.16-.04,3.88,8.26c-4.84,1.93-9.91,3.71-15.06,4.68l-1.82-3.59v11.57h15.46l1.51-2.34h.16l1.67,8.79h-25.77Z"/>
          <path class="cls-2" d="M301.76,190.6l.08-.08,2.81-.04c3.96-2.18,7.69-6.17,9.04-10.56h-20.38l1.31-7.78h.16l1.51,1.85c8.4-.36,16.81-.61,25.21-.61-.48,10.76-4.56,17.33-13.08,23.46l-6.66-6.25ZM296.56,170.17l1.35-7.78h.16l1.47,1.85c6.22-.48,12.57-.6,18.83-.6l1.31,6.53h-23.11Z"/>
          <path class="cls-2" d="M354.12,184.23c-3.25,5-7.37,8.95-12.21,12.3l-6.03-7.01.12-.08,2.97.32c3.45-2.54,6.5-5.4,8.92-8.95l-7.25-3.99,4.92-6.37.12.04.24,2.3c1.7.77,3.41,1.61,5.11,2.42,1.51-3.35,2.58-6.93,3.41-10.52l-1.47-2.06.04-.12,8.88,1.69c-1.07,4.88-2.5,9.72-4.6,14.27,1.9,1.01,3.77,2.06,5.63,3.1l-1.86,6.49-6.94-3.83Z"/>
          <path class="cls-2" d="M397,188.31l.06-.13,2.29-.13c2.26-2.1,3.97-5.2,3.97-8.37,0-4.1-3.3-7.56-7.34-7.56-4.51,0-7.91,3.55-7.91,8.11,0,1.68.48,3.33,1.46,4.68,2.22-2.46,3.43-6.2,3.94-9.43l-1.24-1.78.03-.13,6.93,1.07c-.95,6.62-3.18,13.08-9.09,16.7-4.92-1.87-7.43-6.1-7.43-11.34,0-7.59,6.07-13.02,13.34-13.02,8.1,0,12.99,5.43,12.99,13.34,0,5.23-2.54,9.66-6.61,12.76l-5.4-4.78Z"/>
          <path class="cls-2" d="M427.51,179.64l-4.52-13.1,7.1-.73,2.7,9.03,2.46,1.09.08.12-7.81,3.59ZM432.3,189.11l.08-.08,2.97.28c6.07-4.39,10.74-9.59,13.28-17.7l-1.47-2.54.04-.08,8.72,2.34c-3.29,12.21-8.92,18.83-17.68,24.95l-5.95-7.18ZM437.62,177.26l-4-12.78,7.1-.73,2.18,8.71,2.5,1.05.04.16-7.81,3.59ZM447.01,167.67l-1.62-4.55,5.03-1.09.56,4.84-3.96.81ZM453.16,166.98l-1.62-4.56,5.03-1.09.56,4.84-3.96.81Z"/>
          <path class="cls-2" d="M476.58,190.04l.08-.16,3.09.12c4.88-3.99,7.41-8.67,8.6-14.88h-8.72l-3.33,6.93-6.03-4.43c2.3-4.68,4.76-9.39,7.61-13.79l-1.11-2.5.04-.16,8.13,2.7-2.46,5.16c6.07-.36,12.17-.6,18.24-.6l1.31,6.69h-6.54c-1.27,9.47-5.03,15.52-12.37,21.37l-6.54-6.45Z"/>
          <path class="cls-2" d="M538.06,196.65v-7.82h-11.18c-.71,3.23-1.82,5.97-3.45,8.99l-8.09-4.27.12-.12,2.85-.89c.71-1.21,1.23-2.42,1.67-3.71h-4.88l1.27-7.3h.2l1.39,1.77,3.25-.12c.36-3.1.4-6.65.44-10.88h-5.35l1.23-7.22h.16l1.39,1.73,2.5-.16-.08-2.98-1.78-1.69v-.16l8.48-.81v5.48l9.87-.2v-3.59l-1.94-1.65v-.2l8.48-.81v6.13h2.97l1.27,6.13h-4.24v10.4h4.52l1.27,6.13h-5.79v8.95l-6.54-1.13ZM538.06,178.31l-5.79,4.39-4.12-6.41c-.08,2.54-.2,4.76-.4,6.73l10.31-.2v-4.51ZM538.06,172.3h-9.87l-.04,3.1,5.83-2.46,2.06,4.47,2.02.32v-5.44Z"/>
          <path class="cls-1" d="M580.78,182.76l-7.68,7.81-3.71-3.78,7.68-7.81-7.68-7.81,3.71-3.78,7.68,7.81,7.68-7.81,3.71,3.78-7.68,7.81,7.68,7.81-3.71,3.78-7.68-7.81Z"/>
          <path class="cls-2" d="M633.18,195.76v-.16l2.66-1.61v-5.64l-3.77,4.88-6.03-4.68c-1.51,1.89-3.29,3.39-5.03,4.35l-4.4-5.04v8.87l-6.5-1.01.2-28.22-1.82-1.53v-.16l8.17-.77v1.29l6.86-.28.16-3.47-1.78-1.73v-.16l8.56-.36-.28,5.52,12.01-.12.16,31.36-9.16-1.33ZM616.65,171.74l-.04,4.03,1.98.04c1.62-1.05,3.09-2.42,4-4.07h-5.95ZM621.93,180.77l-.95.64-4.36-5v10.8h1.98c1.7-1.25,3.65-3.63,4.24-5.4l-.91-1.05ZM635.84,176.82l-3.65,4.76-5.75-4.68c-.95,1.05-2.06,2.06-3.37,3.06l6.66.28c-.4,2.38-1.23,4.52-2.34,6.37l2.34-1.94,4.12,3.43,1.98-.2v-11.09ZM635.84,171.74h-6.5c-.36,1.25-.87,2.42-1.67,3.55l2.62-2.1,3.69,3.22,1.86-.16v-4.51Z"/>
          <path class="cls-1" d="M674.72,182.76l-7.68,7.81-3.71-3.78,7.68-7.81-7.68-7.81,3.71-3.78,7.68,7.81,7.68-7.81,3.71,3.78-7.68,7.81,7.68,7.81-3.71,3.78-7.68-7.81Z"/>
          <path class="cls-2" d="M730.65,195.76c-3.49-2.78-6.66-6.13-9.55-9.59-3.41,3.99-7.73,7.1-12.17,9.76l-5.07-7.14.12-.08,2.62.36c7.21-3.95,12.17-9.51,14.43-17.62h-13.16l1.31-7.94h.16l1.51,1.85c6.14-.44,12.33-.52,18.51-.52-.48,6.65-2.22,12.94-6.03,18.46l3.17-1.89c2.14,2.78,4.52,5.44,7.1,7.78h3.01l.08.16-6.03,6.41Z"/>
          <path class="cls-2" d="M762.99,195v-15.52c-3.45,2.26-7.14,4.15-10.9,5.8l-4.6-7.22.12-.08,2.81.52c7.65-3.55,14.59-8.06,20.1-14.55l-.63-2.58.12-.2,7.33,4.8c-3.05,3.91-6.46,7.54-10.39,10.64l3.01-.32v20.28l-6.98-1.57Z"/>
          <path class="cls-2" d="M789.33,182.7l1.23-7.78h.16l1.39,1.73c9.47-.52,18.99-.64,28.46-.64l1.27,6.69h-32.51Z"/>
          <path class="cls-2" d="M838.23,179.64l-4.52-13.1,7.1-.73,2.7,9.03,2.46,1.09.08.12-7.81,3.59ZM843.03,189.11l.08-.08,2.97.28c6.07-4.39,10.74-9.59,13.28-17.7l-1.47-2.54.04-.08,8.72,2.34c-3.29,12.21-8.92,18.83-17.68,24.95l-5.95-7.18ZM848.34,177.26l-4-12.78,7.1-.73,2.18,8.71,2.5,1.05.04.16-7.81,3.59Z"/>
          <path class="cls-2" d="M892.07,190.18l.11-.14,2.63-.46c2.45-3.81,3.43-7.88,3.43-10.48s-.49-3.17-3.29-3.17l-.7.11-.32,11.8-6.13-1.21.25-9.23-3.37,1-1.82-7.77.11-.04,2.1,1.28,3.15-.79.11-4.85-1.75-1.64v-.14l7.99-.54-.17,6.38,1.61-.04c6.06-.14,8.59,4.35,8.59,8.95,0,4.13-1.96,10.27-5.29,15.08l-7.22-4.1ZM904.93,168.37l-1.44-4.06,4.45-.96.49,4.28-3.5.75ZM909.24,182.48c-2.1-3.67-4.03-8.73-5.57-12.8l6.24-1.39c.81,2.82,2.14,6.99,3.33,9.59l2.31.54.04.11-6.34,3.96ZM910.33,167.76l-1.44-4.03,4.45-1,.49,4.28-3.5.75Z"/>
          <path class="cls-2" d="M931.56,182.34l1.39-8.55h.16l1.59,2.02c9.24-.48,22.08-.64,31-.64l1.39,7.18h-35.52Z"/>
          <path class="cls-2" d="M982.76,196.29l1.03-5.68h.16l1.11,1.41,10.82-.36v-1.98h-10.31l1.03-5.52h.16l1.07,1.41,8.05-.36v-1.94h-2.42v.85l-6.22-1.05.12-9.27-4.08-.77.2-5.56-1.75-1.61v-.16l5.63-.36-.79-3.06,6.3-.48,1.15,3.71,1.98-.12v-2.9l-1.82-1.57v-.16l8.17-.77v5.16l2.54-.08.63-1.89-1.15-1.49.04-.16,7.85,1.05-.59,2.42,3.09-.04.2,8.3h-4.08l.12,10.04h-8.76v1.77l9.4-.12,1.07,4.76h-10.47v1.81l12.37-.12,1.03,4.92h-32.86ZM1008.25,170.33h-18.47v1.29l3.69-.36v1.01c5-.32,10.5-.44,14.79-.48v-1.45ZM1004.8,176.62h-11.34v2.3h11.34v-2.3Z"/>
          <path class="cls-2" d="M1034.2,193.55v-25.07l-1.87-1.61v-.15l8.18-.77v23.5l2.15,1.46v.15l-8.47,2.48ZM1059.97,194.25c-6.14-.55-11.77-2.88-16.04-7.74l5.46-5.58.11.07-.22,2.41c2.58,2.37,6.17,3.65,9.83,4.12l2.19-1.83.14.04-1.47,8.5ZM1044.93,173.37l1.18-6.9h.14l1.33,1.68c3.48-.37,7.86-.55,12.17-.55l1.18,5.77h-16.01Z"/>
          <path class="cls-2" d="M1087.98,196.73l-5.91-8.55,6.3-2.9,3.77,5.85,2.54.32.08.12-6.78,5.16ZM1084.61,181.82l2.74-18.38-1.74-2.1.04-.16,8.88.69-3.77,23.26-6.14-3.31Z"/>
        </g>
        <g>
          <path class="cls-6" d="M252.21,194.15v-28.5l-2.06-1.81v-.16l9.04-.85v10.52c4-1.01,8.09-2.14,11.89-3.83l.95-2.7.16-.04,3.88,8.26c-4.84,1.93-9.91,3.71-15.06,4.68l-1.82-3.59v11.57h15.46l1.51-2.34h.16l1.67,8.79h-25.77Z"/>
          <path class="cls-6" d="M301.76,190.6l.08-.08,2.81-.04c3.96-2.18,7.69-6.17,9.04-10.56h-20.38l1.31-7.78h.16l1.51,1.85c8.4-.36,16.81-.61,25.21-.61-.48,10.76-4.56,17.33-13.08,23.46l-6.66-6.25ZM296.56,170.17l1.35-7.78h.16l1.47,1.85c6.22-.48,12.57-.6,18.83-.6l1.31,6.53h-23.11Z"/>
          <path class="cls-6" d="M354.12,184.23c-3.25,5-7.37,8.95-12.21,12.3l-6.03-7.01.12-.08,2.97.32c3.45-2.54,6.5-5.4,8.92-8.95l-7.25-3.99,4.92-6.37.12.04.24,2.3c1.7.77,3.41,1.61,5.11,2.42,1.51-3.35,2.58-6.93,3.41-10.52l-1.47-2.06.04-.12,8.88,1.69c-1.07,4.88-2.5,9.72-4.6,14.27,1.9,1.01,3.77,2.06,5.63,3.1l-1.86,6.49-6.94-3.83Z"/>
          <path class="cls-6" d="M397,188.31l.06-.13,2.29-.13c2.26-2.1,3.97-5.2,3.97-8.37,0-4.1-3.3-7.56-7.34-7.56-4.51,0-7.91,3.55-7.91,8.11,0,1.68.48,3.33,1.46,4.68,2.22-2.46,3.43-6.2,3.94-9.43l-1.24-1.78.03-.13,6.93,1.07c-.95,6.62-3.18,13.08-9.09,16.7-4.92-1.87-7.43-6.1-7.43-11.34,0-7.59,6.07-13.02,13.34-13.02,8.1,0,12.99,5.43,12.99,13.34,0,5.23-2.54,9.66-6.61,12.76l-5.4-4.78Z"/>
          <path class="cls-6" d="M427.51,179.64l-4.52-13.1,7.1-.73,2.7,9.03,2.46,1.09.08.12-7.81,3.59ZM432.3,189.11l.08-.08,2.97.28c6.07-4.39,10.74-9.59,13.28-17.7l-1.47-2.54.04-.08,8.72,2.34c-3.29,12.21-8.92,18.83-17.68,24.95l-5.95-7.18ZM437.62,177.26l-4-12.78,7.1-.73,2.18,8.71,2.5,1.05.04.16-7.81,3.59ZM447.01,167.67l-1.62-4.55,5.03-1.09.56,4.84-3.96.81ZM453.16,166.98l-1.62-4.56,5.03-1.09.56,4.84-3.96.81Z"/>
          <path class="cls-6" d="M476.58,190.04l.08-.16,3.09.12c4.88-3.99,7.41-8.67,8.6-14.88h-8.72l-3.33,6.93-6.03-4.43c2.3-4.68,4.76-9.39,7.61-13.79l-1.11-2.5.04-.16,8.13,2.7-2.46,5.16c6.07-.36,12.17-.6,18.24-.6l1.31,6.69h-6.54c-1.27,9.47-5.03,15.52-12.37,21.37l-6.54-6.45Z"/>
          <path class="cls-6" d="M538.06,196.65v-7.82h-11.18c-.71,3.23-1.82,5.97-3.45,8.99l-8.09-4.27.12-.12,2.85-.89c.71-1.21,1.23-2.42,1.67-3.71h-4.88l1.27-7.3h.2l1.39,1.77,3.25-.12c.36-3.1.4-6.65.44-10.88h-5.35l1.23-7.22h.16l1.39,1.73,2.5-.16-.08-2.98-1.78-1.69v-.16l8.48-.81v5.48l9.87-.2v-3.59l-1.94-1.65v-.2l8.48-.81v6.13h2.97l1.27,6.13h-4.24v10.4h4.52l1.27,6.13h-5.79v8.95l-6.54-1.13ZM538.06,178.31l-5.79,4.39-4.12-6.41c-.08,2.54-.2,4.76-.4,6.73l10.31-.2v-4.51ZM538.06,172.3h-9.87l-.04,3.1,5.83-2.46,2.06,4.47,2.02.32v-5.44Z"/>
          <path class="cls-6" d="M580.78,182.76l-7.68,7.81-3.71-3.78,7.68-7.81-7.68-7.81,3.71-3.78,7.68,7.81,7.68-7.81,3.71,3.78-7.68,7.81,7.68,7.81-3.71,3.78-7.68-7.81Z"/>
          <path class="cls-6" d="M633.18,195.76v-.16l2.66-1.61v-5.64l-3.77,4.88-6.03-4.68c-1.51,1.89-3.29,3.39-5.03,4.35l-4.4-5.04v8.87l-6.5-1.01.2-28.22-1.82-1.53v-.16l8.17-.77v1.29l6.86-.28.16-3.47-1.78-1.73v-.16l8.56-.36-.28,5.52,12.01-.12.16,31.36-9.16-1.33ZM616.65,171.74l-.04,4.03,1.98.04c1.62-1.05,3.09-2.42,4-4.07h-5.95ZM621.93,180.77l-.95.64-4.36-5v10.8h1.98c1.7-1.25,3.65-3.63,4.24-5.4l-.91-1.05ZM635.84,176.82l-3.65,4.76-5.75-4.68c-.95,1.05-2.06,2.06-3.37,3.06l6.66.28c-.4,2.38-1.23,4.52-2.34,6.37l2.34-1.94,4.12,3.43,1.98-.2v-11.09ZM635.84,171.74h-6.5c-.36,1.25-.87,2.42-1.67,3.55l2.62-2.1,3.69,3.22,1.86-.16v-4.51Z"/>
          <path class="cls-6" d="M674.72,182.76l-7.68,7.81-3.71-3.78,7.68-7.81-7.68-7.81,3.71-3.78,7.68,7.81,7.68-7.81,3.71,3.78-7.68,7.81,7.68,7.81-3.71,3.78-7.68-7.81Z"/>
          <path class="cls-6" d="M730.65,195.76c-3.49-2.78-6.66-6.13-9.55-9.59-3.41,3.99-7.73,7.1-12.17,9.76l-5.07-7.14.12-.08,2.62.36c7.21-3.95,12.17-9.51,14.43-17.62h-13.16l1.31-7.94h.16l1.51,1.85c6.14-.44,12.33-.52,18.51-.52-.48,6.65-2.22,12.94-6.03,18.46l3.17-1.89c2.14,2.78,4.52,5.44,7.1,7.78h3.01l.08.16-6.03,6.41Z"/>
          <path class="cls-6" d="M762.99,195v-15.52c-3.45,2.26-7.14,4.15-10.9,5.8l-4.6-7.22.12-.08,2.81.52c7.65-3.55,14.59-8.06,20.1-14.55l-.63-2.58.12-.2,7.33,4.8c-3.05,3.91-6.46,7.54-10.39,10.64l3.01-.32v20.28l-6.98-1.57Z"/>
          <path class="cls-6" d="M789.33,182.7l1.23-7.78h.16l1.39,1.73c9.47-.52,18.99-.64,28.46-.64l1.27,6.69h-32.51Z"/>
          <path class="cls-6" d="M838.23,179.64l-4.52-13.1,7.1-.73,2.7,9.03,2.46,1.09.08.12-7.81,3.59ZM843.03,189.11l.08-.08,2.97.28c6.07-4.39,10.74-9.59,13.28-17.7l-1.47-2.54.04-.08,8.72,2.34c-3.29,12.21-8.92,18.83-17.68,24.95l-5.95-7.18ZM848.34,177.26l-4-12.78,7.1-.73,2.18,8.71,2.5,1.05.04.16-7.81,3.59Z"/>
          <path class="cls-6" d="M892.07,190.18l.11-.14,2.63-.46c2.45-3.81,3.43-7.88,3.43-10.48s-.49-3.17-3.29-3.17l-.7.11-.32,11.8-6.13-1.21.25-9.23-3.37,1-1.82-7.77.11-.04,2.1,1.28,3.15-.79.11-4.85-1.75-1.64v-.14l7.99-.54-.17,6.38,1.61-.04c6.06-.14,8.59,4.35,8.59,8.95,0,4.13-1.96,10.27-5.29,15.08l-7.22-4.1ZM904.93,168.37l-1.44-4.06,4.45-.96.49,4.28-3.5.75ZM909.24,182.48c-2.1-3.67-4.03-8.73-5.57-12.8l6.24-1.39c.81,2.82,2.14,6.99,3.33,9.59l2.31.54.04.11-6.34,3.96ZM910.33,167.76l-1.44-4.03,4.45-1,.49,4.28-3.5.75Z"/>
          <path class="cls-6" d="M931.56,182.34l1.39-8.55h.16l1.59,2.02c9.24-.48,22.08-.64,31-.64l1.39,7.18h-35.52Z"/>
          <path class="cls-6" d="M982.76,196.29l1.03-5.68h.16l1.11,1.41,10.82-.36v-1.98h-10.31l1.03-5.52h.16l1.07,1.41,8.05-.36v-1.94h-2.42v.85l-6.22-1.05.12-9.27-4.08-.77.2-5.56-1.75-1.61v-.16l5.63-.36-.79-3.06,6.3-.48,1.15,3.71,1.98-.12v-2.9l-1.82-1.57v-.16l8.17-.77v5.16l2.54-.08.63-1.89-1.15-1.49.04-.16,7.85,1.05-.59,2.42,3.09-.04.2,8.3h-4.08l.12,10.04h-8.76v1.77l9.4-.12,1.07,4.76h-10.47v1.81l12.37-.12,1.03,4.92h-32.86ZM1008.25,170.33h-18.47v1.29l3.69-.36v1.01c5-.32,10.5-.44,14.79-.48v-1.45ZM1004.8,176.62h-11.34v2.3h11.34v-2.3Z"/>
          <path class="cls-6" d="M1034.2,193.55v-25.07l-1.87-1.61v-.15l8.18-.77v23.5l2.15,1.46v.15l-8.47,2.48ZM1059.97,194.25c-6.14-.55-11.77-2.88-16.04-7.74l5.46-5.58.11.07-.22,2.41c2.58,2.37,6.17,3.65,9.83,4.12l2.19-1.83.14.04-1.47,8.5ZM1044.93,173.37l1.18-6.9h.14l1.33,1.68c3.48-.37,7.86-.55,12.17-.55l1.18,5.77h-16.01Z"/>
          <path class="cls-6" d="M1087.98,196.73l-5.91-8.55,6.3-2.9,3.77,5.85,2.54.32.08.12-6.78,5.16ZM1084.61,181.82l2.74-18.38-1.74-2.1.04-.16,8.88.69-3.77,23.26-6.14-3.31Z"/>
        </g>
      </g>
    </g>
  </g>
</svg>