<svg xmlns="http://www.w3.org/2000/svg" xmlns:xlink="http://www.w3.org/1999/xlink" width="1508.517" height="723.526" viewBox="0 0 1508.517 723.526"><defs><clipPath id="a"><rect width="1508.517" height="723.526" fill="none"/></clipPath></defs><g clip-path="url(#a)"><path d="M332.272,10.007a7.506,7.506,0,0,1,1.078.078l8.76,1.271a7.46,7.46,0,0,1,4.977,3.015q.169.234.319.48h3.382a7.432,7.432,0,0,1,3.138.69,7.46,7.46,0,0,1,8.636-4.8l9.748,2.142a7.458,7.458,0,0,1,2.037.773l5.56-2.067a7.46,7.46,0,0,1,9.31,3.732c3.432,7.062,6.333,13.778,8.622,19.962a7.427,7.427,0,0,1,.3,4.136,7.488,7.488,0,0,1,.161,1.549v9.6a7.456,7.456,0,0,1-.345,2.251,7.459,7.459,0,0,1,1.121,6.031l-2.544,10.4a7.455,7.455,0,0,1-.686,1.778l1.916,5.639a7.46,7.46,0,0,1-2.161,8.023c-9.288,8.1-21.6,13.183-36.587,15.112a7.462,7.462,0,0,1-7.874-4.614q-.275.07-.559.119l-5.028.874A7.438,7.438,0,0,1,342.72,97.3l-6.5,1.111a7.459,7.459,0,0,1-1.426.1l-.044.026a7.46,7.46,0,0,1-5.724.739l-7.205-1.984a7.46,7.46,0,0,1-5.222-9.135,116.911,116.911,0,0,0,3.086-15.035,7.445,7.445,0,0,1-.447-2.55V48.765l-.36-.308a7.46,7.46,0,0,1-1.911-8.816A116.2,116.2,0,0,0,325,15.849,7.462,7.462,0,0,1,332.272,10.007Z" fill="#340001"/><path d="M409.067,22.948h.124l14.553.238a7.46,7.46,0,0,1,7.338,7.459v2.122l24.244.182a7.46,7.46,0,0,1,7.4,7.46V51.6a7.46,7.46,0,0,1-7.521,7.46l-4.144-.034L440.322,92.015a7.46,7.46,0,0,1-9.858,4.619l-9.749-3.89a7.46,7.46,0,0,1-4.326-9.246L421.811,66.9a41.285,41.285,0,0,1-2.46,3.519l-.57.73a7.457,7.457,0,0,1-.584.78l-3.6,4.208a7.46,7.46,0,0,1-11.093.267l-7.488-7.938a7.46,7.46,0,0,1-.24-9.971l3.6-4.207a34.151,34.151,0,0,0,2.784-4.408,39.561,39.561,0,0,0,2.217-5.391,7.449,7.449,0,0,1-2.907-6.039l.141-8.175A7.46,7.46,0,0,1,409.067,22.948Z" fill="#340001"/><path d="M492.357,98.911a7.46,7.46,0,0,1-4.473-1.49l-4.365-3.27-.075.138a7.46,7.46,0,0,1-10.874,2.532l-8.618-6.111a7.46,7.46,0,0,1-2.281-9.57A98.908,98.908,0,0,0,466.53,70.4c1.417-3.69,2.708-7.645,3.84-11.762q-1.035-1.008-2.089-2-3.012-2.824-6.33-5.51a7.46,7.46,0,0,1-1.276-10.277l4.775-6.365-.682-.57a7.46,7.46,0,0,1-1.221-10.179l6.005-8.1A7.46,7.46,0,0,1,480.1,14.184q2.286,1.765,4.36,3.516a7.449,7.449,0,0,1,5.986-3.007h37.936a7.46,7.46,0,0,1,7.46,7.46V57.238a7.46,7.46,0,0,1-7.46,7.46h-.113a44.819,44.819,0,0,0,8.971,12.1,7.46,7.46,0,0,1,.971,9.579l-6.359,9.287a7.46,7.46,0,0,1-10.827,1.6,46.384,46.384,0,0,1-6.92-7,61.382,61.382,0,0,1-6.126-9.31q-1.257-2.225-2.389-4.582-.158.723-.327,1.434a73.637,73.637,0,0,1-2.673,8.833,83.336,83.336,0,0,1-3.571,8.156,7.46,7.46,0,0,1-6.665,4.11Z" fill="#340001"/><path d="M587.16,98.118h-2.685c-.676,0-1.936-.04-3.778-.127l-6.608-.276a7.46,7.46,0,0,1-7.166-7.075l-.133-2.608a7.46,7.46,0,0,1-6.358-3.965h-3.5a7.463,7.463,0,0,1-7.215,5.557H539.334a7.46,7.46,0,0,1-7.46-7.46V21.914a7.46,7.46,0,0,1,7.46-7.46h37.017a7.463,7.463,0,0,1,7.255,5.715h18.459a7.46,7.46,0,0,1,7.46,7.46V38.187a7.463,7.463,0,0,1-5.721,7.256V76.607l-.072,5.636a28.13,28.13,0,0,1-.9,5.841,13.27,13.27,0,0,1-2.753,5.544,8.568,8.568,0,0,1-3.333,2.485l-1.549.659a16.538,16.538,0,0,1-2.771.862,20.939,20.939,0,0,1-2.578.377C589.037,98.079,588.144,98.118,587.16,98.118Z" fill="#340001"/><path d="M659.643,94.465a7.447,7.447,0,0,1-5.482-2.4l-8.51-9.211q-.208.212-.42.42a28.837,28.837,0,0,1-10.216,6.5,24.006,24.006,0,0,1-11.891,1.193,24.81,24.81,0,0,1-12.472-5.874A28.308,28.308,0,0,1,603,73.684a34.3,34.3,0,0,1-2.2-9,43.509,43.509,0,0,1,0-9.395,46.823,46.823,0,0,1,1.974-9.26,44.7,44.7,0,0,1,3.864-8.724,37.829,37.829,0,0,1,11.592-12.38,41.713,41.713,0,0,1,15.248-6.281,41.266,41.266,0,0,1,7.062-.623A39.622,39.622,0,0,1,650.5,19.3a35.812,35.812,0,0,1,14.958,8,36.756,36.756,0,0,1,6.065,6.781,43.07,43.07,0,0,1,4.4,8.069,45.556,45.556,0,0,1,2.664,8.926,46.413,46.413,0,0,1,.8,9.463,45.317,45.317,0,0,1-3.947,17.989,37.89,37.89,0,0,1-11.2,14.343A7.436,7.436,0,0,1,659.643,94.465Zm-29-44.362a11.855,11.855,0,0,0-1.264,1.8,16.506,16.506,0,0,0-1.382,3.041,15.744,15.744,0,0,0-.72,3.144,15.46,15.46,0,0,0-.075,3.08,6.788,6.788,0,0,0,.247,1.4,10.562,10.562,0,0,0,2.154-4.353A32.653,32.653,0,0,0,630.639,50.1Z" fill="#340001"/><path d="M714.676,0h58.439a7.46,7.46,0,0,1,7.46,7.46V25.215a7.46,7.46,0,0,1-2.495,5.568l-12.7,11.327a28.169,28.169,0,0,1,8.16,6.212,30.368,30.368,0,0,1,6.225,10.792,41.038,41.038,0,0,1,2.014,13.146c0,12.2-3.635,21.809-10.8,28.564-7.045,6.637-17.023,10-29.656,10a84.076,84.076,0,0,1-28.568-4.979,7.46,7.46,0,0,1-4.932-7.019V79.776a7.46,7.46,0,0,1,10.541-6.794c7.939,3.6,15.1,5.426,21.279,5.426,2.7,0,4.644-.523,5.776-1.555.653-.6,1.4-1.612,1.4-4.205,0-1.929-.516-2.229-.971-2.494a13.764,13.764,0,0,0-4.02-1.1,59.222,59.222,0,0,0-9.389-.611h-6a7.46,7.46,0,0,1-7.46-7.46V46.211a7.46,7.46,0,0,1,2.368-5.452L730,32.675H714.676a7.46,7.46,0,0,1-7.46-7.46V7.461A7.46,7.46,0,0,1,714.676,0Zm50.979,14.92H722.136v2.834h26.5a7.46,7.46,0,0,1,7.46,7.46,8.046,8.046,0,0,1-2.368,5.711L733.9,49.451v4.083a68.812,68.812,0,0,1,10.388.806,27.306,27.306,0,0,1,8.991,2.876c5.483,3.189,8.462,8.655,8.462,15.432,0,7.865-3.412,12.625-6.275,15.234-3.967,3.614-9.291,5.446-15.825,5.446a58.053,58.053,0,0,1-16.9-2.738v2.79a69.266,69.266,0,0,0,18.58,2.525c8.7,0,15.24-2,19.425-5.941,4.115-3.877,6.115-9.668,6.115-17.7a26.23,26.23,0,0,0-1.228-8.368,15.357,15.357,0,0,0-3.135-5.538,13.286,13.286,0,0,0-4.725-3.338,16.292,16.292,0,0,0-6.492-1.216h-1.56a7.46,7.46,0,0,1-7.46-7.46,8.026,8.026,0,0,1,2.495-5.827l20.9-18.641Z" fill="#340001"/><path d="M831.006,12.39h11.3a7.46,7.46,0,0,1,7.46,7.46v7.623h17.124a7.46,7.46,0,0,1,7.46,7.46V45.649a7.46,7.46,0,0,1-7.46,7.46h-14.4c3.319,8.872,9.718,15.878,19.379,21.271a7.46,7.46,0,0,1,2.663,10.511l-6.146,9.684a7.46,7.46,0,0,1-9.75,2.616,51.022,51.022,0,0,1-8.9-5.948A63.112,63.112,0,0,1,842,83.587,69.826,69.826,0,0,1,837.043,77a68.65,68.65,0,0,1-5.207,6.717,57.641,57.641,0,0,1-17.246,13.516,7.46,7.46,0,0,1-9.662-2.662l-6.146-9.684a7.46,7.46,0,0,1,2.663-10.511c9.661-5.393,16.06-12.4,19.378-21.271h-14.4a7.46,7.46,0,0,1-7.46-7.46V34.933a7.46,7.46,0,0,1,7.46-7.46h17.124V19.85A7.46,7.46,0,0,1,831.006,12.39ZM837.454,40.6a7.507,7.507,0,0,1-.8-.795,7.513,7.513,0,0,1-.8.8q.079.086.156.175a7.466,7.466,0,0,1,.641.86,7.466,7.466,0,0,1,.641-.86Q837.375,40.684,837.454,40.6Zm-.4,13.23c-.137-.5-.269-1-.393-1.506q-.194.785-.408,1.56A7.474,7.474,0,0,1,837.05,53.828Z" fill="#340001"/><path d="M900.518,11.517h13.564a7.46,7.46,0,0,1,4.006,1.167q6.081,3.871,12.433,7.175a125.666,125.666,0,0,0,13.136,5.881,7.46,7.46,0,0,1,4.616,8.613l-2.331,10.319a7.46,7.46,0,0,1-7.588,5.81V59.66l4.5,4.569a7.46,7.46,0,0,1,.131,10.329l-.109.116A7.46,7.46,0,0,1,946.029,84.8l-5.016,9.438a7.46,7.46,0,0,1-8.323,3.754,60.652,60.652,0,0,1-14.176-5.3q-.728-.384-1.447-.79a7.432,7.432,0,0,1-3.92,1.981q-9.036,1.544-17.928,2.559-8.944,1.021-17.885,1.429a7.459,7.459,0,0,1-7.77-6.776l-.918-10.082a7.46,7.46,0,0,1,7.033-8.126V50.454a7.46,7.46,0,0,1-7.022-5.81l-2.331-10.305a7.46,7.46,0,0,1,4.618-8.616,126.226,126.226,0,0,0,13.138-5.874q6.347-3.3,12.431-7.166A7.46,7.46,0,0,1,900.518,11.517Z" fill="#340001"/><path d="M993.484,11.518a7.459,7.459,0,0,1,3.71.988l13.847,7.938a7.46,7.46,0,0,1,3.14,9.425,67.428,67.428,0,0,1-8.831,15.036,63.428,63.428,0,0,1-9.563,9.705V90.658a7.46,7.46,0,0,1-7.46,7.46H976.954a7.46,7.46,0,0,1-7.46-7.46V67.569q-2.369.6-4.757,1.022c-4.787.855-9.853,1.512-15.055,1.954a7.46,7.46,0,0,1-8.076-6.953l-.778-12.066a7.46,7.46,0,0,1,6.878-7.918A124.157,124.157,0,0,0,962.8,41.552a40.314,40.314,0,0,0,12.488-4.869,37.762,37.762,0,0,0,6.854-5.1q.617-.577,1.2-1.194a7.455,7.455,0,0,1-.263-6.927l3.673-7.7a7.46,7.46,0,0,1,6.733-4.248Z" fill="#340001"/><path d="M1073.807,95.022q-.206,0-.412-.011a7.46,7.46,0,0,1-5.5-2.9l-23.921-31.071-11.986,21.29a7.46,7.46,0,0,1-10.935,2.339l-10.739-7.939a7.46,7.46,0,0,1-2.192-9.425l3.816-7.381a7.46,7.46,0,0,1,4.28-3.655l19.02-33.734a7.46,7.46,0,0,1,12.412-.884l5.572,7.245a7.438,7.438,0,0,1,4.5-3l6.852-1.508a7.46,7.46,0,0,1,7.283,2.449l2.112-.465a7.46,7.46,0,0,1,8.961,6.048l1.977,11.749a7.46,7.46,0,0,1-5.657,8.5l-6.561,1.536,15.438,20.072a7.46,7.46,0,0,1-.539,9.722l-8.407,8.732A7.461,7.461,0,0,1,1073.807,95.022ZM1042.7,39.686l-.242.429h.018c.18-.013.337-.02.538-.019Z" fill="#340001"/><path d="M1097.684,14.375a7.459,7.459,0,0,1,3.982,1.152l24.019,15.161a7.46,7.46,0,0,1,2.658,9.709l-5.652,11.035q-.152.3-.328.576A79.933,79.933,0,0,0,1134.7,34a7.46,7.46,0,0,1,10.689-2.874l9.961,6.43a7.46,7.46,0,0,1,2.582,9.691,131.464,131.464,0,0,1-10.567,17.212,76.981,76.981,0,0,1-13.923,14.549,83.154,83.154,0,0,1-16.976,10.7,109.454,109.454,0,0,1-18.349,6.647,7.46,7.46,0,0,1-9.187-5.553l-3.745-16.432a7.46,7.46,0,0,1,5.256-8.84l7.629-2.143A7.46,7.46,0,0,1,1105.042,65a58.538,58.538,0,0,0,14.1-9.753q.539-.5,1.07-1.026a7.46,7.46,0,0,1-8.169.106l-24.09-15.32a7.46,7.46,0,0,1-2.6-9.769l5.723-10.876a7.46,7.46,0,0,1,6.6-3.986Z" fill="#340001"/><path d="M1169.316,13.58h11.091a7.46,7.46,0,0,1,7.46,7.46V36.513a7.46,7.46,0,0,1,9.924,2.216q1.843,2.686,3.721,5.256a23.615,23.615,0,0,0,3.467,3.768q.679.583,1.4,1.141a7.46,7.46,0,0,1,9.345-2.837l7.488,3.334a7.46,7.46,0,0,1,3.968,9.387l-6.853,18.654a7.46,7.46,0,0,1-9.922,4.292q-4.848-2.062-9.4-4.293a60.566,60.566,0,0,1-9.5-5.794q-1.884-1.361-3.632-2.9V89.148a7.46,7.46,0,0,1-7.46,7.46h-11.091a7.46,7.46,0,0,1-7.46-7.46V21.04A7.46,7.46,0,0,1,1169.316,13.58Z" fill="#340001"/><path d="M382.744,238.614H371.725a7.444,7.444,0,0,1-5.743-2.7h-11.12a7.444,7.444,0,0,1-5.743,2.7H338.1a7.46,7.46,0,0,1-7.46-7.46v-7.236a7.46,7.46,0,0,1-6.748-5.3l-3.462-11.51a7.462,7.462,0,0,1,1.676-7.225,7.426,7.426,0,0,1-1.357-4.291v-9.049a7.461,7.461,0,0,1,4.38-6.8v-1.727a7.435,7.435,0,0,1-2.119-5.208v-9.367a7.46,7.46,0,0,1,7.46-7.46H346a7.462,7.462,0,0,1,7-4.362l11.021.316a7.46,7.46,0,0,1,6.421,4.046h19.926a7.46,7.46,0,0,1,7.46,7.46v9.367a7.435,7.435,0,0,1-2.119,5.208v1.727a7.461,7.461,0,0,1,4.38,6.8v9.049a7.426,7.426,0,0,1-1.357,4.291,7.462,7.462,0,0,1,1.676,7.225l-3.462,11.51a7.461,7.461,0,0,1-6.749,5.3v7.236A7.46,7.46,0,0,1,382.744,238.614ZM341.6,204.085q.288.153.559.328a7.445,7.445,0,0,1,.964-1.75Q342.384,203.383,341.6,204.085Zm36.05-1.518a7.452,7.452,0,0,1,1.036,1.846q.285-.185.589-.344-.834-.747-1.615-1.518Z" fill="#340001"/><path d="M450.353,235.041a7.446,7.446,0,0,1-5.483-2.4l-8.509-9.211q-.209.212-.42.42a28.831,28.831,0,0,1-10.217,6.5,24.023,24.023,0,0,1-11.886,1.193,24.824,24.824,0,0,1-12.475-5.877,28.3,28.3,0,0,1-7.654-11.407,34.285,34.285,0,0,1-2.2-9,43.494,43.494,0,0,1,0-9.393,46.714,46.714,0,0,1,1.974-9.261,44.685,44.685,0,0,1,3.861-8.723,37.848,37.848,0,0,1,11.6-12.382,41.681,41.681,0,0,1,15.249-6.28,41.26,41.26,0,0,1,7.061-.623,39.654,39.654,0,0,1,9.959,1.277,35.809,35.809,0,0,1,14.961,8.006,36.725,36.725,0,0,1,6.064,6.779,43.035,43.035,0,0,1,4.405,8.071,45.5,45.5,0,0,1,2.664,8.927,46.374,46.374,0,0,1,.8,9.464,45.321,45.321,0,0,1-3.945,17.986,37.9,37.9,0,0,1-11.2,14.343A7.436,7.436,0,0,1,450.353,235.041Zm-29-44.361a11.85,11.85,0,0,0-1.264,1.8,16.483,16.483,0,0,0-1.38,3.037,15.752,15.752,0,0,0-.721,3.148,15.469,15.469,0,0,0-.076,3.08,6.769,6.769,0,0,0,.248,1.4,10.563,10.563,0,0,0,2.154-4.352A32.643,32.643,0,0,0,421.349,190.68Z" fill="#340001"/><path d="M514.924,138.092h41.521a7.46,7.46,0,0,1,7.46,7.46v13.716a7.46,7.46,0,0,1-7.46,7.46H536.993v61.443a7.46,7.46,0,0,1-7.46,7.46H514.924a7.46,7.46,0,0,1-7.46-7.46V145.552A7.46,7.46,0,0,1,514.924,138.092Zm10.544,14.92h-3.084v4.118A7.475,7.475,0,0,1,525.467,153.012Z" fill="#340001"/><path d="M612.338,250.273a39.329,39.329,0,0,1-23.008-7.513,43.608,43.608,0,0,1-10.26-10.418,49.848,49.848,0,0,1-8.941-28.576V150.52a7.46,7.46,0,0,1,7.46-7.46h14.9a7.46,7.46,0,0,1,7.46,7.46v18.56l22.753-8.647-.016-.049a7.46,7.46,0,0,1,4.457-9.283l10.283-3.887a7.46,7.46,0,0,1,9.776,4.81l6.921,22.787a7.46,7.46,0,0,1-4.521,9.154L599.851,202.6a21.687,21.687,0,0,0,1.437,7.591,14.012,14.012,0,0,0,3.92,5.692c2.639,2.322,5.446,2.956,9.117,2.144,4.58-1.013,10.268-4.672,16.448-10.582a7.46,7.46,0,0,1,11.35,1.235l9.131,13.609a7.46,7.46,0,0,1-1.072,9.579,105.2,105.2,0,0,1-9.572,8.022,60.007,60.007,0,0,1-11.091,6.536,44.683,44.683,0,0,1-12.687,3.565A35.633,35.633,0,0,1,612.338,250.273ZM585.13,206.208a34.049,34.049,0,0,0,1.573,8.267,35.064,35.064,0,0,0,4.589,9.308,28.727,28.727,0,0,0,6.756,6.869,24.6,24.6,0,0,0,8.253,3.915,23.306,23.306,0,0,0,8.65.624,29.772,29.772,0,0,0,8.453-2.373,45.071,45.071,0,0,0,8.324-4.915q1.774-1.314,3.5-2.728L634.436,224c-5.875,4.561-11.447,7.39-16.887,8.594a28.153,28.153,0,0,1-6.068.687,23.838,23.838,0,0,1-16.136-6.2,28.978,28.978,0,0,1-8.01-11.6A36.887,36.887,0,0,1,585.13,206.208Zm-.081-25.738v16.349a7.46,7.46,0,0,1,4.821-6.412l47.94-17.956-.661-2.176a7.437,7.437,0,0,1-2.51,1.584l-39.5,15.012a7.46,7.46,0,0,1-10.088-6.4Z" fill="#340001"/><path d="M717.817,250.321a7.459,7.459,0,0,1-3.674-.967l-13.552-7.668a7.46,7.46,0,0,1-3.082-9.657l13.285-28.364H666.589a7.46,7.46,0,0,1-7.46-7.46V179.789a7.46,7.46,0,0,1,7.46-7.46h1.244l-1.1-21.864a7.46,7.46,0,0,1,7-7.822l10.669-.649a7.46,7.46,0,0,1,7.693,5.647l44.915-3.691a7.46,7.46,0,0,1,8.058,7l.961,16.523a7.432,7.432,0,0,1-1.438,4.854h3.026a7.46,7.46,0,0,1,6.745,10.646l-29.795,63.072a7.46,7.46,0,0,1-6.745,4.274ZM713.951,232.1l.551.312,21.336-45.165H674.049v1.5h48.477a7.46,7.46,0,0,1,6.756,10.624Zm-31.668-69.466.116,2.3,48.307-3.877-.094-1.61-44.958,3.694A7.46,7.46,0,0,1,682.283,162.636Z" fill="#340001"/><path d="M779.426,253.668a7.46,7.46,0,0,1-4.964-1.892l-11.63-10.369a7.46,7.46,0,0,1-1.107-9.9l22.624-31.687q-1.169-.524-2.363-.937-5.342-1.84-11.261-3.636a7.46,7.46,0,0,1-5.067-8.971l4.132-16.309a7.46,7.46,0,0,1,9.225-5.357,134.393,134.393,0,0,1,15.319,5.261,61.98,61.98,0,0,1,8.544,4.333l9.4-13.294-.946-.854a7.46,7.46,0,0,1-1.013-9.954l6.824-9.288a7.46,7.46,0,0,1,10.923-1.2l17.78,15.552a7.46,7.46,0,0,1,1.143,9.973l-21.664,30.1a87.489,87.489,0,0,1,6.6,11.618,177.751,177.751,0,0,1,7.231,18.156,7.46,7.46,0,0,1-4.369,9.36l-14.225,5.508a7.46,7.46,0,0,1-9.753-4.544q-2.157-6.311-4.542-12.363-.164-.416-.338-.83l-20.451,28.422a7.461,7.461,0,0,1-6.056,3.1Zm-1.672-18.945.454.405L800.57,204.05a7.46,7.46,0,0,1,12.065-.064,60.064,60.064,0,0,1,7.514,13.508q1.115,2.824,2.18,5.7l.278-.107c-1.354-3.536-2.753-6.846-4.183-9.891a73.608,73.608,0,0,0-8.2-13.429,7.46,7.46,0,0,1-.133-8.9l20.833-28.946-1.326-1.159a7.436,7.436,0,0,1-1.308,3.347l-17.492,24.732a7.46,7.46,0,0,1-10.715,1.546,48.057,48.057,0,0,0-11.438-6.734q-3.111-1.284-6.321-2.4l-.467,1.842q2.555.832,5,1.674a45.489,45.489,0,0,1,12.119,6.419,7.9,7.9,0,0,1,3.282,4.212,7.578,7.578,0,0,1-1.516,7.079Z" fill="#340001"/><path d="M858.142,148.569H941.76a7.46,7.46,0,0,1,6.817,10.49l-38.733,87.156a7.46,7.46,0,0,1-10.5,3.46l-22.106-12.529a7.46,7.46,0,0,1-3.031-9.752l5.094-10.477a7.46,7.46,0,0,1,10.531-3.144l.509.3,14.94-34.28H858.142a7.46,7.46,0,0,1-7.46-7.46V156.029A7.46,7.46,0,0,1,858.142,148.569Zm72.139,14.92H865.6v1.387h51.073a7.46,7.46,0,0,1,6.839,10.44L900.639,227.8a7.46,7.46,0,0,1-3.3,3.584l2.207,1.251Z" fill="#340001"/><path d="M1028.262,243.192h-64.2a7.46,7.46,0,0,1-7.46-7.46V220.5a7.46,7.46,0,0,1,7.46-7.46h18.2V197.7l-10.782.865a7.46,7.46,0,0,1-8.04-6.932l-1.346-19.872a7.46,7.46,0,0,1,6.794-7.936l9.9-.864a7.46,7.46,0,0,1,7.546,4.59l35.929-2.973a7.46,7.46,0,0,1,8.057,6.91l1.058,15.013a7.46,7.46,0,0,1-6.92,7.966l-13.053.915v17.661h16.856a7.46,7.46,0,0,1,7.46,7.46v15.229A7.46,7.46,0,0,1,1028.262,243.192Zm-56.744-14.92H1020.8v-.309h-16.856a7.463,7.463,0,0,1-7.113-5.2,7.463,7.463,0,0,1-7.112,5.2h-18.2Zm18.871-46.086a7.46,7.46,0,0,1,6.263,4.671,7.468,7.468,0,0,1,5.342-5.631Zm-12.6.568.023.334,1.2-.1A7.462,7.462,0,0,1,977.792,182.754Zm38.176-2.684-2.868.237,2.871-.2Z" fill="#340001"/><path d="M1068.629,248.268a7.46,7.46,0,0,1-4.987-1.912l-17.3-15.553a7.46,7.46,0,0,1-1-10l6.825-9.179a7.46,7.46,0,0,1,10.5-1.491l20.818-29.257h-28.21a7.46,7.46,0,0,1-7.46-7.46V157a7.46,7.46,0,0,1,7.46-7.46h74.2a7.46,7.46,0,0,1,6.033,11.847l-24.89,34.228q.214.4.449.823a40.867,40.867,0,0,0,4.548,6.349,59.361,59.361,0,0,0,19.711,14.894,7.46,7.46,0,0,1,3.637,9.563l-6.344,15.336a7.46,7.46,0,0,1-10.324,3.773q-6.228-3.225-11.024-6a63.9,63.9,0,0,1-9.74-6.913,62.065,62.065,0,0,1-8.474-9.018q-.864-1.117-1.73-2.356l-16.64,23.1a7.461,7.461,0,0,1-6.054,3.1Zm-2.553-19.787,1.359,1.222,18.4-25.546a7.46,7.46,0,0,1,12.665.9,69.83,69.83,0,0,0,6.354,10.232,47.142,47.142,0,0,0,6.421,6.852,48.965,48.965,0,0,0,7.465,5.294q1.538.89,3.233,1.829l.614-1.483a67.17,67.17,0,0,1-8.455-5.82,75.253,75.253,0,0,1-9.924-9.555,54.711,54.711,0,0,1-6.214-8.771,48.532,48.532,0,0,1-3.021-6.282,7.46,7.46,0,0,1,.975-6.945l18.873-25.953h-52.09v1.5h35.214a7.46,7.46,0,0,1,6.078,11.785l-34.12,47.953A7.46,7.46,0,0,1,1066.075,228.481Z" fill="#340001"/><path d="M1186.656,253.993h-41.521a7.46,7.46,0,0,1-7.46-7.46V232.816a7.46,7.46,0,0,1,7.46-7.46h19.451V163.8a7.46,7.46,0,0,1,7.46-7.46h14.61a7.46,7.46,0,0,1,7.46,7.46v82.729A7.46,7.46,0,0,1,1186.656,253.993Zm-10.546-14.92h3.086v-4.122A7.478,7.478,0,0,1,1176.11,239.073Z" fill="#340001"/><path d="M185.452,304.475h61.6a7.46,7.46,0,0,1,7.46,7.46V321.7a7.458,7.458,0,0,1-3.815,6.51v25.719a7.456,7.456,0,0,1-3.6,6.387v3.058a7.459,7.459,0,0,1-.161,1.541q.552.029,1.112.056a7.46,7.46,0,0,1,6.824,9.472l-2.614,9.289a7.461,7.461,0,0,1-7.649,5.424,117.787,117.787,0,0,1-28.228-5.175c-3.755,1.1-7.767,2.053-11.963,2.839q-7.483,1.4-16.212,2.31a7.46,7.46,0,0,1-7.954-5.4l-2.614-9.289a7.46,7.46,0,0,1,1.1-6.341q.118-.165.243-.323l-1.794-3.923a7.46,7.46,0,0,1,4.623-10.242v-25.4a7.457,7.457,0,0,1-3.815-6.51v-9.763A7.46,7.46,0,0,1,185.452,304.475Z" fill="#340001"/><path d="M306.184,385.041a7.446,7.446,0,0,1-5.482-2.4l-8.509-9.211q-.208.211-.419.419a28.852,28.852,0,0,1-10.217,6.5,24.028,24.028,0,0,1-11.888,1.193,24.817,24.817,0,0,1-12.476-5.878,28.293,28.293,0,0,1-7.653-11.406,34.286,34.286,0,0,1-2.2-9,43.527,43.527,0,0,1,0-9.4,46.825,46.825,0,0,1,1.974-9.261,44.717,44.717,0,0,1,3.864-8.724,37.838,37.838,0,0,1,11.592-12.38,41.729,41.729,0,0,1,15.248-6.28,41.282,41.282,0,0,1,7.065-.623,39.586,39.586,0,0,1,9.961,1.279,35.8,35.8,0,0,1,14.957,8,36.8,36.8,0,0,1,6.065,6.782,43.052,43.052,0,0,1,4.405,8.07,45.567,45.567,0,0,1,2.664,8.924,46.45,46.45,0,0,1,.8,9.463,45.324,45.324,0,0,1-3.946,17.989,37.9,37.9,0,0,1-11.2,14.343A7.436,7.436,0,0,1,306.184,385.041Zm-29-44.362a11.831,11.831,0,0,0-1.263,1.8,16.5,16.5,0,0,0-1.383,3.044,15.725,15.725,0,0,0-.719,3.144,15.462,15.462,0,0,0-.075,3.08,6.779,6.779,0,0,0,.247,1.4,10.561,10.561,0,0,0,2.153-4.354A32.638,32.638,0,0,0,277.18,340.679Z" fill="#340001"/><path d="M370.754,288.092h41.521a7.46,7.46,0,0,1,7.46,7.46v13.717a7.46,7.46,0,0,1-7.46,7.46H392.824v61.442a7.46,7.46,0,0,1-7.46,7.46h-14.61a7.46,7.46,0,0,1-7.46-7.46V295.552A7.46,7.46,0,0,1,370.754,288.092Zm10.546,14.92h-3.086v4.122A7.478,7.478,0,0,1,381.3,303.012Z" fill="#340001"/><path d="M458.889,288.417H473.4a7.46,7.46,0,0,1,7.46,7.46v2.475h26.66a7.46,7.46,0,0,1,7.46,7.46v68.363q0,2.593-.049,4.559c-.037,1.39-.092,2.588-.159,3.6a30.512,30.512,0,0,1-.941,6.571,17.769,17.769,0,0,1-2.509,5.877,14.1,14.1,0,0,1-6.12,4.433,21.245,21.245,0,0,1-6.219,1.456c-1.5.117-3.686.185-6.552.185q-1.816,0-6.154-.168l-10.531-.376a7.46,7.46,0,0,1-7.2-6.99l-.865-13.824a7.46,7.46,0,0,1,2.049-5.616q-1.291-1.029-2.624-2.036a64.272,64.272,0,0,1-18.318,13.2,7.481,7.481,0,0,1-1.57.581v7.874a7.46,7.46,0,0,1-7.46,7.46h-14.61a7.46,7.46,0,0,1-7.46-7.46v-87.7a7.46,7.46,0,0,1,7.46-7.46h26.276v-2.475A7.46,7.46,0,0,1,458.889,288.417Zm11,24.028a7.46,7.46,0,0,1-3.842-4.9,7.469,7.469,0,0,1-5.085,5.406,7.46,7.46,0,0,1,3.713,4.744A7.463,7.463,0,0,1,469.892,312.445Zm-34.192.827h-3.088V317.4a7.46,7.46,0,0,1,3.088-4.129Zm64.361,0h-3.087a7.46,7.46,0,0,1,3.087,4.125Zm-33.075,14.036a7.456,7.456,0,0,1-2.73-4.14,33.087,33.087,0,0,1-1.923,5.441,7.46,7.46,0,0,1,4.653-1.3Zm-1.367,26.88a7.464,7.464,0,0,1-1.535-2.517q-.409,1.072-.873,2.082-.243.527-.5,1.043a7.46,7.46,0,0,1,2.908-.608ZM499.3,385.5c.03-.108.063-.228.1-.361a16.441,16.441,0,0,0,.478-3.552c.035-.558.064-1.093.087-1.635a9.188,9.188,0,0,1-2.076,3.959,8.718,8.718,0,0,1-2.6,2q1.523-.034,2.54-.112A6.083,6.083,0,0,0,499.3,385.5Z" fill="#340001"/><path d="M588.741,396.432a7.447,7.447,0,0,1-5.483-2.4l-13.553-14.672q-1.179,1.362-2.456,2.618a36.536,36.536,0,0,1-12.929,8.23,29.98,29.98,0,0,1-14.859,1.493,31.071,31.071,0,0,1-15.59-7.346A35.853,35.853,0,0,1,514.19,369.9a44.147,44.147,0,0,1-2.838-11.594,56.319,56.319,0,0,1,0-12.2,60.889,60.889,0,0,1,2.573-12.064,57.942,57.942,0,0,1,5.022-11.342,48.743,48.743,0,0,1,14.941-15.957,54.106,54.106,0,0,1,19.768-8.142,53.564,53.564,0,0,1,9.091-.8,51.238,51.238,0,0,1,12.875,1.652,46.069,46.069,0,0,1,19.237,10.294,47.405,47.405,0,0,1,7.836,8.757,55.882,55.882,0,0,1,5.716,10.471,59.307,59.307,0,0,1,3.466,11.617,60.327,60.327,0,0,1,1.044,12.329,58.955,58.955,0,0,1-5.13,23.409,48.9,48.9,0,0,1-14.445,18.508A7.436,7.436,0,0,1,588.741,396.432Zm-2.382-21.03,2.723,2.948a34.606,34.606,0,0,0,5.115-8.169A44.127,44.127,0,0,0,598,352.662a45.372,45.372,0,0,0-.782-9.272,44.355,44.355,0,0,0-2.588-8.688,40.934,40.934,0,0,0-4.183-7.671,32.736,32.736,0,0,0-5.436-6.071,31,31,0,0,0-13.149-7.065,36.688,36.688,0,0,0-15.513-.621,39.07,39.07,0,0,0-14.159,5.864,33.429,33.429,0,0,0-10.364,11.09,42.9,42.9,0,0,0-3.7,8.374,45.953,45.953,0,0,0-1.945,9.1,41.388,41.388,0,0,0,0,8.967,29.575,29.575,0,0,0,1.908,7.809,21.106,21.106,0,0,0,5.659,8.7,16.017,16.017,0,0,0,8.113,3.8,14.985,14.985,0,0,0,2.135.151,15.219,15.219,0,0,0,5.25-.95,21.351,21.351,0,0,0,7.6-4.892,35.588,35.588,0,0,0,8.526-14.32,56.125,56.125,0,0,0,2.606-13.9l-1.265.051a57.774,57.774,0,0,1-1.879,11.4c-1.682,6.034-4.4,10.844-8.095,14.3-4.462,4.348-9.6,6.284-14.855,5.5-6.155-1.19-10.68-5.215-13.062-11.39a25.9,25.9,0,0,1-1.775-7.713,39.047,39.047,0,0,1,1.956-15.5,39.834,39.834,0,0,1,3.312-7.306,33.181,33.181,0,0,1,10.12-10.937,36.793,36.793,0,0,1,13.723-5.7,37.627,37.627,0,0,1,6.878-.652,33.747,33.747,0,0,1,8.755,1.145,30.815,30.815,0,0,1,13.339,7.462,34.326,34.326,0,0,1,8.831,12.785,39.486,39.486,0,0,1,2.911,16.162,41.713,41.713,0,0,1-1.419,10.145,38.5,38.5,0,0,1-3.7,8.915A7.46,7.46,0,0,1,586.359,375.4Zm-33.625-42.764a21.483,21.483,0,0,0-1.889,1.152,18.176,18.176,0,0,0-5.619,6.087,25.01,25.01,0,0,0-2.09,4.607,24.047,24.047,0,0,0-1.1,4.823,23.765,23.765,0,0,0-.114,4.731,11.273,11.273,0,0,0,.767,3.382c.778,2.013,1.4,2.133,1.727,2.2a14.579,14.579,0,0,0,2.021-1.585,15.889,15.889,0,0,0,4.026-7.513,50.718,50.718,0,0,0,1.506-14.425A7.43,7.43,0,0,1,552.734,332.639Zm28.454,23.069q.253.011.5.039a30.543,30.543,0,0,0,.261-3.438q.007-.267.01-.531Q581.626,353.78,581.188,355.707Z" fill="#340001"/><path d="M617.86,298.569h83.618a7.46,7.46,0,0,1,6.817,10.49l-38.733,87.156a7.46,7.46,0,0,1-10.5,3.46L636.96,387.146a7.46,7.46,0,0,1-3.031-9.752l5.094-10.477a7.46,7.46,0,0,1,10.531-3.144l.509.3L665,329.8H617.86a7.46,7.46,0,0,1-7.46-7.46V306.029A7.46,7.46,0,0,1,617.86,298.569ZM690,313.489H625.32v1.387h51.073a7.46,7.46,0,0,1,6.839,10.44L660.356,377.8a7.459,7.459,0,0,1-3.3,3.584l2.207,1.251Z" fill="#340001"/><path d="M787.98,393.192h-64.2a7.46,7.46,0,0,1-7.46-7.46V370.5a7.46,7.46,0,0,1,7.46-7.46h18.2V347.7l-10.782.865a7.46,7.46,0,0,1-8.04-6.932l-1.346-19.873a7.46,7.46,0,0,1,6.8-7.936l9.9-.863a7.46,7.46,0,0,1,7.545,4.59l35.929-2.974a7.46,7.46,0,0,1,8.057,6.91L791.1,336.5a7.46,7.46,0,0,1-6.919,7.966l-13.053.916v17.661H787.98a7.46,7.46,0,0,1,7.46,7.46v15.229A7.46,7.46,0,0,1,787.98,393.192Zm-56.744-14.92H780.52v-.309H763.664a7.463,7.463,0,0,1-7.113-5.2,7.463,7.463,0,0,1-7.112,5.2h-18.2Zm18.87-46.086a7.46,7.46,0,0,1,6.264,4.671,7.468,7.468,0,0,1,5.345-5.632Zm-12.6.568.023.334,1.2-.1A7.461,7.461,0,0,1,737.51,332.754Zm38.176-2.685-2.889.239,2.892-.2Z" fill="#340001"/><path d="M828.347,398.268a7.46,7.46,0,0,1-4.987-1.912l-17.3-15.553a7.46,7.46,0,0,1-1-10l6.825-9.179a7.46,7.46,0,0,1,10.5-1.491L843.2,330.875H814.988a7.46,7.46,0,0,1-7.46-7.46V307a7.46,7.46,0,0,1,7.46-7.46h74.2a7.46,7.46,0,0,1,6.033,11.847l-24.89,34.229q.214.4.449.823a40.882,40.882,0,0,0,4.548,6.349,59.362,59.362,0,0,0,19.711,14.893,7.46,7.46,0,0,1,3.637,9.563l-6.344,15.336a7.46,7.46,0,0,1-10.324,3.773q-6.228-3.225-11.024-6a63.9,63.9,0,0,1-9.74-6.913,62.057,62.057,0,0,1-8.474-9.018q-.864-1.117-1.73-2.356l-16.64,23.1a7.46,7.46,0,0,1-6.054,3.1Zm-2.553-19.787,1.359,1.222,18.4-25.546a7.46,7.46,0,0,1,12.665.9,69.823,69.823,0,0,0,6.354,10.232,47.136,47.136,0,0,0,6.421,6.852,48.957,48.957,0,0,0,7.465,5.294q1.538.89,3.233,1.829l.614-1.483a67.173,67.173,0,0,1-8.455-5.821,75.243,75.243,0,0,1-9.924-9.555,54.716,54.716,0,0,1-6.214-8.771,48.533,48.533,0,0,1-3.021-6.282,7.46,7.46,0,0,1,.975-6.945l18.873-25.954h-52.09v1.5h35.214a7.46,7.46,0,0,1,6.078,11.785l-34.12,47.954A7.46,7.46,0,0,1,825.793,378.481Z" fill="#340001"/><path d="M915.04,296.3h64.012a7.46,7.46,0,0,1,7.46,7.46v16.633a7.463,7.463,0,0,1-.284,2.046,7.46,7.46,0,0,1,7.3,7.458v16.523a7.46,7.46,0,0,1-7.46,7.46H965.533a59.138,59.138,0,0,1-1.138,8.8,98.124,98.124,0,0,1-4.117,14.442,94.6,94.6,0,0,1-5.381,11.964q-2.746,5.041-4.637,8.174a7.46,7.46,0,0,1-10.771,2.18l-19.03-13.824a7.46,7.46,0,0,1-1.967-9.949l6.056-9.828a7.46,7.46,0,0,1,8.463-3.241q.259-.917.5-1.885a54.666,54.666,0,0,0,1.216-6.829h-26.7a7.46,7.46,0,0,1-7.46-7.46V329.9a7.46,7.46,0,0,1,7.3-7.458,7.464,7.464,0,0,1-.284-2.046V303.759A7.46,7.46,0,0,1,915.04,296.3Zm56.552,14.92H922.5v1.713h49.092Zm7.016,26.137H915.485v1.6h26.66a7.46,7.46,0,0,1,7.41,6.6,43.444,43.444,0,0,1,0,9.98,69.7,69.7,0,0,1-1.566,8.775,66.113,66.113,0,0,1-2.335,7.554q-1.281,3.354-2.241,5.382a7.46,7.46,0,0,1-3.944,3.734l2.041,1.483.281-.515a79.731,79.731,0,0,0,4.513-10.065,83.192,83.192,0,0,0,3.479-12.238,45.365,45.365,0,0,0,.779-12.659A7.46,7.46,0,0,1,958,338.959h20.6Z" fill="#340001"/><path d="M1059.691,302.889a7.459,7.459,0,0,1,3.67.965l16.627,9.395a7.46,7.46,0,0,1,3.145,9.529q-1.315,2.952-3.079,6.469a66.51,66.51,0,0,1-4.654,7.793,72.226,72.226,0,0,1-6.591,8.139,59.519,59.519,0,0,1-6.271,5.8v40.908a7.46,7.46,0,0,1-7.46,7.46h-14.226a7.46,7.46,0,0,1-7.46-7.46V365.352q-1.257.314-2.626.613-3.942.865-8.926,1.56-4.88.678-11.318,1.133a7.46,7.46,0,0,1-7.966-6.969l-.961-15.121a7.46,7.46,0,0,1,6.881-7.912,82.7,82.7,0,0,0,19.893-3.622,67.158,67.158,0,0,0,13.344-5.938,36.508,36.508,0,0,0,7.078-5.378,7.458,7.458,0,0,1-.356-7.068l4.518-9.5a7.46,7.46,0,0,1,6.737-4.257Zm-12.073,49.029v-4.633a7.46,7.46,0,0,1,3.1-6.055q.987-.711,1.911-1.435-1.474,1.013-3.128,2.026a81.81,81.81,0,0,1-16.353,7.347,86.521,86.521,0,0,1-16.211,3.608l.021.327q1.478-.168,2.825-.355,4.341-.6,7.79-1.357a59.082,59.082,0,0,0,5.76-1.527c1.683-.555,3.26-1.128,4.717-1.718a7.46,7.46,0,0,1,9.565,3.773Z" fill="#340001"/><path d="M1109.765,399.024a7.457,7.457,0,0,1-3.058-.656l-14.417-6.48a7.46,7.46,0,0,1-4.016-9.171l28.546-85.321a7.46,7.46,0,0,1,9.752-4.6l14.609,5.618a7.46,7.46,0,0,1,4.4,9.323l-1.7,5.089,7.822-1.5-1.823-11.234a7.46,7.46,0,0,1,5.811-8.492l9.13-1.943a7.46,7.46,0,0,1,8.9,6.015l.142.813,4.234-.892a7.46,7.46,0,0,1,8.922,6.234l2.307,15.985a7.46,7.46,0,0,1-5.831,8.362l-9.13,1.943a7.458,7.458,0,0,1-2.555.1,7.463,7.463,0,0,1-5.382,7.442,38.541,38.541,0,0,0,2.012,4.112,60.349,60.349,0,0,0,6.618,9.564,69.047,69.047,0,0,0,7.013,7.163q3.517,3.054,5.823,4.754a7.46,7.46,0,0,1,1.936,9.927l-8.651,14.039a7.46,7.46,0,0,1-10.745,2.115q-5.784-4.216-10.655-8.553a75.5,75.5,0,0,1-9.714-10.547,74.464,74.464,0,0,1-7.76-11.7,79.425,79.425,0,0,1-5.621-13.228c-.517-1.536-.988-3.1-1.408-4.682l-18.439,55.3a7.46,7.46,0,0,1-7.077,5.1Zm-5.2-17.976.733.329,23.873-71.592-.676-.26Zm43.578-53.843q.246,1.406.492,2.787a60.225,60.225,0,0,0,2.225,8.649,64.821,64.821,0,0,0,4.594,10.835,60.353,60.353,0,0,0,6.33,9.519,61.525,61.525,0,0,0,7.917,8.637q1.519,1.351,3.137,2.69l.841-1.365q-.67-.57-1.382-1.188a83.881,83.881,0,0,1-8.554-8.711,75.234,75.234,0,0,1-8.279-11.928,57.927,57.927,0,0,1-5.972-15.675,7.46,7.46,0,0,1,.408-4.586Z" fill="#340001"/><path d="M1235.481,399.456a7.46,7.46,0,0,1-7.46-7.46V364.422c-.651,1.913-1.339,3.728-2.058,5.427a79.14,79.14,0,0,1-4.67,9.3,96.842,96.842,0,0,1-5.728,8.6q-2.988,4.015-6.706,8.745a7.46,7.46,0,0,1-11.181.621l-11.053-11.232a7.46,7.46,0,0,1-.516-9.882q3.919-4.916,7.113-9.732a62.835,62.835,0,0,0,5.194-9.552,59.165,59.165,0,0,0,3.452-10.693q.544-2.426.942-5.11h-.871a7.46,7.46,0,0,1-7.46-7.46V321.689a7.46,7.46,0,0,1,7.426-7.46l23.74-.109a7.432,7.432,0,0,1,2.378.376v-9.223a7.46,7.46,0,0,1,7.46-7.46h15.282a7.46,7.46,0,0,1,7.46,7.46V355.45l13.859-6.316a7.46,7.46,0,0,1,10.078,4.169l5.671,15.121a7.46,7.46,0,0,1-3.857,9.392l-45.365,20.952A7.455,7.455,0,0,1,1235.481,399.456ZM1201.8,380.041l.51.518q.657-.872,1.282-1.71a81.974,81.974,0,0,0,4.845-7.273,63.848,63.848,0,0,0,3.783-7.541,75.356,75.356,0,0,0,3.1-9.038,110.425,110.425,0,0,0,2.75-12.608,57.349,57.349,0,0,0,.641-12.18l-.067-1.137-1.537.007a7.461,7.461,0,0,1,1.407,4.842,98.547,98.547,0,0,1-2.089,15.374,74.09,74.09,0,0,1-4.335,13.394,77.785,77.785,0,0,1-6.432,11.827Q1203.836,377.264,1201.8,380.041Zm41.138-67.308v67.6l28.487-13.157-.432-1.151-17.14,7.811a7.46,7.46,0,0,1-10.553-6.788V312.733Z" fill="#340001"/><path d="M1330.825,403.993H1289.3a7.46,7.46,0,0,1-7.46-7.46V382.816a7.46,7.46,0,0,1,7.46-7.46h19.451V313.8a7.46,7.46,0,0,1,7.46-7.46h14.61a7.46,7.46,0,0,1,7.46,7.46v82.729A7.46,7.46,0,0,1,1330.825,403.993Zm-10.546-14.92h3.086v-4.122A7.478,7.478,0,0,1,1320.279,389.073Z" fill="#340001"/><path d="M35.011,452.49a7.46,7.46,0,0,1,6.958,4.77,7.455,7.455,0,0,1,6.323-3.5H59.029a7.46,7.46,0,0,1,7.46,7.46v1.43q.3.062.589.148l9.395,2.778a7.46,7.46,0,0,1,5.239,8.408,147.989,147.989,0,0,1-7.459,28.267,7.46,7.46,0,0,1-2.578,3.348q.2.352.4.691a28.771,28.771,0,0,0,7.427,8.123,7.46,7.46,0,0,1,2.113,9.385l-5.651,10.875a7.46,7.46,0,0,1-11.282,2.384,46.913,46.913,0,0,1-10.34-12.107q-.268-.435-.532-.878a48.57,48.57,0,0,1-11.5,13.077,7.46,7.46,0,0,1-9.574-.407,7.438,7.438,0,0,1-5.355,2.267h-9.89a7.46,7.46,0,0,1-7.46-7.46v-2.874a7.46,7.46,0,0,1-4.264-3.787L.751,514.569a7.46,7.46,0,0,1,.509-7.409,71.055,71.055,0,0,0,5.482-9.722,7.463,7.463,0,0,1-5.117-7.085V480.271a7.427,7.427,0,0,1,1.536-4.534,7.5,7.5,0,0,1-.23-1.252l-.918-9.447a7.46,7.46,0,0,1,7.052-8.172,104.528,104.528,0,0,0,23.866-4.08A7.457,7.457,0,0,1,35.011,452.49Zm-11.133,46.6-.96-1.838q-.719,2.022-1.565,4.03A7.464,7.464,0,0,1,23.878,499.086Z" fill="#340001"/><path d="M131.018,535.041a7.446,7.446,0,0,1-5.482-2.4l-8.509-9.211q-.208.212-.42.42a28.85,28.85,0,0,1-10.216,6.5A24.026,24.026,0,0,1,94.5,531.544a24.81,24.81,0,0,1-12.477-5.879,28.292,28.292,0,0,1-7.652-11.405,34.288,34.288,0,0,1-2.2-9,43.527,43.527,0,0,1,0-9.4,46.822,46.822,0,0,1,1.974-9.261,44.685,44.685,0,0,1,3.864-8.726A37.814,37.814,0,0,1,89.6,465.5a41.711,41.711,0,0,1,15.247-6.28,41.281,41.281,0,0,1,7.065-.623,39.586,39.586,0,0,1,9.961,1.279,35.8,35.8,0,0,1,14.957,8,36.83,36.83,0,0,1,6.064,6.78,43.127,43.127,0,0,1,4.406,8.07,45.607,45.607,0,0,1,2.664,8.926,46.436,46.436,0,0,1,.8,9.463,45.325,45.325,0,0,1-3.946,17.989,37.9,37.9,0,0,1-11.2,14.343A7.436,7.436,0,0,1,131.018,535.041Zm-29-44.362a11.845,11.845,0,0,0-1.264,1.8,16.528,16.528,0,0,0-1.383,3.043,15.717,15.717,0,0,0-.719,3.143,15.463,15.463,0,0,0-.075,3.08,6.786,6.786,0,0,0,.247,1.4,10.571,10.571,0,0,0,2.154-4.354A32.636,32.636,0,0,0,102.014,490.679Z" fill="#340001"/><path d="M195.588,438.092h41.521a7.46,7.46,0,0,1,7.46,7.46v13.717a7.46,7.46,0,0,1-7.46,7.46H217.658v61.442a7.46,7.46,0,0,1-7.46,7.46h-14.61a7.46,7.46,0,0,1-7.46-7.46V445.552A7.46,7.46,0,0,1,195.588,438.092Zm10.546,14.92h-3.086v4.122A7.478,7.478,0,0,1,206.134,453.012Z" fill="#340001"/><path d="M268.729,548.268a7.46,7.46,0,0,1-4.987-1.912l-17.3-15.553a7.46,7.46,0,0,1-1-10l6.825-9.179a7.46,7.46,0,0,1,10.5-1.491l20.818-29.258H255.37a7.46,7.46,0,0,1-7.46-7.46V457a7.46,7.46,0,0,1,7.46-7.46h74.2a7.46,7.46,0,0,1,6.033,11.847l-24.89,34.228q.214.4.45.824a40.936,40.936,0,0,0,4.548,6.35,59.364,59.364,0,0,0,19.711,14.893,7.46,7.46,0,0,1,3.636,9.563l-6.344,15.336a7.46,7.46,0,0,1-10.324,3.773q-6.228-3.225-11.024-6a63.9,63.9,0,0,1-9.739-6.913,62.061,62.061,0,0,1-8.475-9.018q-.864-1.118-1.73-2.356l-16.64,23.1a7.46,7.46,0,0,1-6.054,3.1Zm-2.553-19.787,1.359,1.222,18.4-25.546a7.46,7.46,0,0,1,12.665.9,69.888,69.888,0,0,0,6.355,10.233,47.135,47.135,0,0,0,6.421,6.85,48.958,48.958,0,0,0,7.464,5.294q1.538.89,3.233,1.829l.614-1.484a67.231,67.231,0,0,1-8.455-5.82,75.317,75.317,0,0,1-9.924-9.555,54.772,54.772,0,0,1-6.214-8.772,48.707,48.707,0,0,1-3.02-6.277,7.46,7.46,0,0,1,.973-6.95l18.873-25.954H262.83v1.5h35.214a7.46,7.46,0,0,1,6.078,11.785L270,525.694A7.46,7.46,0,0,1,266.175,528.481Z" fill="#340001"/><path d="M408.478,438.955a7.459,7.459,0,0,1,3.711.988l18.838,10.8a7.46,7.46,0,0,1,3.141,9.424,89.019,89.019,0,0,1-11.657,19.859,84.283,84.283,0,0,1-13.588,13.588v50.326a7.46,7.46,0,0,1-7.46,7.46H385.988a7.46,7.46,0,0,1-7.46-7.46v-34.93a93.119,93.119,0,0,1-9.635,2.258c-6.436,1.151-13.246,2.035-20.239,2.628a7.46,7.46,0,0,1-8.075-6.954l-1.058-16.416a7.46,7.46,0,0,1,6.878-7.918,171.58,171.58,0,0,0,20.859-2.845,57.488,57.488,0,0,0,17.823-6.943,53.971,53.971,0,0,0,9.8-7.285,41.882,41.882,0,0,0,3.27-3.426,7.462,7.462,0,0,1-1.4-8.43l5-10.477a7.46,7.46,0,0,1,6.733-4.248Zm9.125,21.291-1.291-.74a7.46,7.46,0,0,1-1.047,4.239,58.338,58.338,0,0,1-10.2,12.691,68.772,68.772,0,0,1-12.455,9.266,72.263,72.263,0,0,1-22.4,8.688c-4.941,1-10.076,1.8-15.337,2.4l.095,1.467c3.874-.464,7.654-1.024,11.3-1.676a80.225,80.225,0,0,0,16.839-4.991,7.46,7.46,0,0,1,10.34,6.882v38.009H394v-46.54a7.46,7.46,0,0,1,3.033-6A71.164,71.164,0,0,0,410.786,470.8,70.114,70.114,0,0,0,417.6,460.246Z" fill="#340001"/><path d="M0-7.46H80.158A7.46,7.46,0,0,1,87.618,0V17.5a7.46,7.46,0,0,1-7.46,7.46H0A7.46,7.46,0,0,1-7.46,17.5V0A7.46,7.46,0,0,1,0-7.46ZM72.7,7.46H7.46v2.576H72.7Z" transform="translate(443.367 487.24)" fill="#340001"/><path d="M580.423,447.379a7.46,7.46,0,0,1,7.449,7.058l2.039,37.751q1.514-2.922,2.775-6.027a65.55,65.55,0,0,0,2.829-8.667,7.46,7.46,0,0,1-4.848-7.532l.865-11.988a7.46,7.46,0,0,1,8.067-6.9l21.818,1.838a7.46,7.46,0,0,1,6.834,7.434,103.374,103.374,0,0,1-15.33,54.288,94.618,94.618,0,0,1-11.48,15.068,77.454,77.454,0,0,1-12.257,10.779q-6.1,4.291-13.045,8.528a7.46,7.46,0,0,1-10.612-3.142l-7.305-15.229a7.46,7.46,0,0,1,3.414-9.911,58.7,58.7,0,0,0,12.443-8.389,68.769,68.769,0,0,0,8.677-9.1l-15.328.95a7.46,7.46,0,0,1-3.729-.74,7.442,7.442,0,0,1-2.43,1.01l-15.186,3.35a7.46,7.46,0,0,1-8.97-6.083l-6.824-41.8a7.46,7.46,0,0,1,5.815-8.5l15.282-3.24a7.46,7.46,0,0,1,7.588,2.92,7.443,7.443,0,0,1,5.464-2.854l15.57-.865Q580.216,447.379,580.423,447.379Zm-5.638,41.406L573.377,462.7l-.691.038,1.345,26.092Zm-23.61,2.623-4.357-27-.656.139,4.407,26.992Zm61.893-24.223-2.385-.2a7.46,7.46,0,0,1,1.066,4.934,81.375,81.375,0,0,1-5.239,19.856,83.754,83.754,0,0,1-22.629,31.817,76.223,76.223,0,0,1-9.191,6.882l.662,1.379q2.7-1.781,5.25-3.572a62.639,62.639,0,0,0,9.913-8.734,79.783,79.783,0,0,0,9.7-12.721,88.526,88.526,0,0,0,12.859-39.64Z" fill="#340001"/><path d="M634.919,448.569h83.618a7.46,7.46,0,0,1,6.817,10.49l-38.733,87.156a7.46,7.46,0,0,1-10.5,3.461L654.02,537.146a7.46,7.46,0,0,1-3.031-9.752l5.094-10.477a7.46,7.46,0,0,1,10.531-3.144l.509.3,14.94-34.28H634.919a7.46,7.46,0,0,1-7.46-7.46V456.029A7.46,7.46,0,0,1,634.919,448.569Zm72.139,14.92H642.379v1.387h51.073a7.46,7.46,0,0,1,6.839,10.44L677.416,527.8a7.46,7.46,0,0,1-3.3,3.584l2.207,1.251Z" fill="#340001"/><path d="M805.039,543.192h-64.2a7.46,7.46,0,0,1-7.46-7.46V520.5a7.46,7.46,0,0,1,7.46-7.46h18.2V497.7l-10.782.865a7.46,7.46,0,0,1-8.04-6.932L738.87,471.76a7.46,7.46,0,0,1,6.8-7.936l9.9-.863a7.46,7.46,0,0,1,7.545,4.59l35.929-2.974a7.46,7.46,0,0,1,8.057,6.91l1.058,15.013a7.46,7.46,0,0,1-6.919,7.966l-13.053.916v17.661h16.856a7.46,7.46,0,0,1,7.46,7.46v15.229A7.46,7.46,0,0,1,805.039,543.192ZM748.3,528.272h49.284v-.309H780.723a7.463,7.463,0,0,1-7.113-5.2,7.463,7.463,0,0,1-7.112,5.2H748.3Zm18.87-46.086a7.46,7.46,0,0,1,6.264,4.671,7.468,7.468,0,0,1,5.345-5.632Zm-12.6.568.023.334,1.2-.1A7.462,7.462,0,0,1,754.569,482.754Zm38.176-2.685-2.888.239,2.891-.2Z" fill="#340001"/><path d="M845.406,548.268a7.46,7.46,0,0,1-4.987-1.912l-17.3-15.553a7.46,7.46,0,0,1-1-10l6.825-9.179a7.46,7.46,0,0,1,10.5-1.491l20.818-29.258H832.047a7.46,7.46,0,0,1-7.46-7.46V457a7.46,7.46,0,0,1,7.46-7.46h74.2a7.46,7.46,0,0,1,6.033,11.847l-24.89,34.229q.214.4.449.823a40.883,40.883,0,0,0,4.548,6.349A59.365,59.365,0,0,0,912.1,517.681a7.46,7.46,0,0,1,3.637,9.563l-6.344,15.336a7.46,7.46,0,0,1-10.324,3.773q-6.228-3.225-11.024-6a63.9,63.9,0,0,1-9.74-6.913,62.058,62.058,0,0,1-8.474-9.018q-.864-1.117-1.73-2.356l-16.64,23.1a7.46,7.46,0,0,1-6.054,3.1Zm-2.553-19.787,1.359,1.222,18.4-25.546a7.46,7.46,0,0,1,12.665.9,69.818,69.818,0,0,0,6.354,10.232,47.143,47.143,0,0,0,6.421,6.852,48.959,48.959,0,0,0,7.465,5.294q1.538.89,3.233,1.829l.614-1.483a67.178,67.178,0,0,1-8.455-5.821,75.247,75.247,0,0,1-9.924-9.555,54.714,54.714,0,0,1-6.214-8.771,48.533,48.533,0,0,1-3.021-6.282,7.46,7.46,0,0,1,.975-6.945L891.6,464.459h-52.09v1.5h35.214A7.46,7.46,0,0,1,880.8,477.74l-34.12,47.954A7.46,7.46,0,0,1,842.852,528.481Z" fill="#340001"/><path d="M963.433,553.993H921.912a7.46,7.46,0,0,1-7.46-7.46V532.816a7.46,7.46,0,0,1,7.46-7.46h19.451V463.8a7.46,7.46,0,0,1,7.46-7.46h14.61a7.46,7.46,0,0,1,7.46,7.46v82.729A7.46,7.46,0,0,1,963.433,553.993Zm-10.546-14.92h3.086v-4.122A7.477,7.477,0,0,1,952.887,539.073Z" fill="#340001"/><path d="M1037.709,451.379a7.459,7.459,0,0,1,1.876.24l10.385,2.7a7.458,7.458,0,0,1,5.221,4.919h20.384a7.46,7.46,0,0,1,7.46,7.46v12.146a7.46,7.46,0,0,1-7.46,7.46h-1.42l1.776,10.236a7.46,7.46,0,0,1-5.786,8.569q-1.989.427-3.889.784.3,1.748.591,3.688.045.3.065.6a7.46,7.46,0,0,1,4.643,6.189l1.2,12.146a7.46,7.46,0,0,1-6.137,8.082q-2.394.419-5.2.8-2.871.387-5.82.6-2.878.211-5.643.3l-1.506.023a39.942,39.942,0,0,1-4.347-.224,26.7,26.7,0,0,1-10.3-2.946,20.565,20.565,0,0,1-8.826-9.29,22.725,22.725,0,0,1-2.5-12.047,27.414,27.414,0,0,1,2.863-10.233,35.019,35.019,0,0,1,2.562-4.281,7.46,7.46,0,0,1-4.829-8.576l.93-4.417H1018a7.46,7.46,0,0,1-7.46-7.46V466.7a7.46,7.46,0,0,1,7.46-7.46h11.992l.425-1.971a7.46,7.46,0,0,1,7.293-5.887Zm3.961,20.5q-.073-.076-.145-.154-.177.193-.366.374Q1041.409,471.981,1041.67,471.88Zm-2.9,2.012q.209-.235.437-.452-.3.143-.615.258Q1038.681,473.794,1038.769,473.893Zm12.18,23.033a7.48,7.48,0,0,1-1.659-.574,7.46,7.46,0,0,1-.612,2.228,7.451,7.451,0,0,1,1.523.343A7.483,7.483,0,0,1,1050.949,496.926Z" fill="#340001"/><path d="M0-7.46H63.3A7.46,7.46,0,0,1,70.757,0V12.543A7.46,7.46,0,0,1,63.3,20H0a7.46,7.46,0,0,1-7.46-7.46V0A7.46,7.46,0,0,1,0-7.46Z" transform="translate(1086.382 487.812)" fill="#340001"/><path d="M1183.022,451.856h11.3a10.423,10.423,0,0,0,10.619,1.057l9.466,2.143a7.46,7.46,0,0,1,5.812,7.137,7.46,7.46,0,0,1,6.924,7.441v22.307a7.46,7.46,0,0,1-7.46,7.46h-1.23v1.349a7.458,7.458,0,0,1,3.816,6.511v5.781a7.463,7.463,0,0,1,4.662,6.918v10.082a7.46,7.46,0,0,1-7.46,7.46h-61.6a7.46,7.46,0,0,1-7.46-7.46V519.96a7.463,7.463,0,0,1,4.662-6.918v-5.781a7.458,7.458,0,0,1,3.816-6.511V499.4h-1.23a7.46,7.46,0,0,1-7.46-7.46V469.634a7.461,7.461,0,0,1,6.572-7.408,7.46,7.46,0,0,1,5.865-7.1l9.819-2.145a10.3,10.3,0,0,0,10.564-1.123Z" fill="#340001"/><path d="M1271.467,535.995a24.135,24.135,0,0,1-13.113-3.9,41.753,41.753,0,0,1-7.476-6.085l-.116.074q-1.414.927-2.9,1.809c-2,1.25-4.412,2.727-7.087,4.336a7.46,7.46,0,0,1-10.475-2.969q-.852-1.651-2.131-4.518a61.627,61.627,0,0,1-2.583-7.1,82.259,82.259,0,0,1-2.143-9.081,74.956,74.956,0,0,1-1.108-11.514,101.286,101.286,0,0,1,.642-13.459,105.3,105.3,0,0,1,3.074-15.736,7.46,7.46,0,0,1,9.45-5.172l10.809,3.414a7.524,7.524,0,0,1,.723.27,7.438,7.438,0,0,1,4.027-3.82q3.682-1.462,7.3-2.8a35.154,35.154,0,0,1,9.234-2.067,28.515,28.515,0,0,1,7.109.271,31.978,31.978,0,0,1,7.247,2.162,42.383,42.383,0,0,1,7.44,4.184,65.8,65.8,0,0,1,7.7,6.356,7.46,7.46,0,0,1,1,9.665L1287.629,495.4a7.46,7.46,0,0,1-10.9,1.489l-6.5-5.4a7.455,7.455,0,0,1-2.682-6.168q-.136.039-.274.082a20.682,20.682,0,0,0-2.686.954l-3.674,1.611a7.46,7.46,0,0,1-10.052-4.353l-.958-2.728c-.57,2.739-.978,5.275-1.22,7.583a69.143,69.143,0,0,0-.427,10.046q.079,1.769.23,3.272a7.461,7.461,0,0,1,5.561,4.044l.98,1.962,2.446-2.537a7.46,7.46,0,0,1,11.181.5,13.046,13.046,0,0,0,2.655,2.581,5.586,5.586,0,0,0,.892.535,34.67,34.67,0,0,0,2.888-3,7.46,7.46,0,0,1,11.045-.7l8.477,8.256a7.46,7.46,0,0,1,.591,10.041C1288.471,531.78,1280.484,535.995,1271.467,535.995Z" fill="#340001"/><path d="M1322.9,453.2h14.128a7.46,7.46,0,0,1,5.542,2.466,98.585,98.585,0,0,0,11.392,10.772,108.343,108.343,0,0,0,13.45,9.208,7.46,7.46,0,0,1,3.176,9.214l-3.549,8.887a7.443,7.443,0,0,1,.479,2.635v10.08a7.464,7.464,0,0,1-5.087,7.075l.584,1.388q2.4,5.708,4.686,11.5a7.46,7.46,0,0,1-4.32,9.73l-9.75,3.652a7.46,7.46,0,0,1-9.56-4.258l-.564-1.435c-14.66,1.757-28.393,2.814-40.9,3.147a7.464,7.464,0,0,1-7.644-6.988l-.636-10.08a7.46,7.46,0,0,1,3.237-6.629,7.464,7.464,0,0,1-5.159-7.1v-10.08a7.442,7.442,0,0,1,.479-2.636l-3.549-8.885a7.46,7.46,0,0,1,3.174-9.214,108.727,108.727,0,0,0,13.451-9.208,98.671,98.671,0,0,0,11.393-10.773A7.46,7.46,0,0,1,1322.9,453.2Z" fill="#340001"/><path d="M1405.054,537.422a31.658,31.658,0,0,1-16.066-4.3A35.779,35.779,0,0,1,1376.8,521.2a38.6,38.6,0,0,1-5.35-13.531,61.829,61.829,0,0,1-1.046-13.725,84.123,84.123,0,0,1,1.551-13.416q.529-2.676,1.1-5.241a7.463,7.463,0,0,1-3.335-8.23l2.189-8.492a7.46,7.46,0,0,1,9.377-5.28l16.32,4.92a7.46,7.46,0,0,1,5.051,9.078q-1.148,4.272-2.62,9.347-1.346,4.656-2.269,9.61a63.8,63.8,0,0,0-1.042,9.48,22.706,22.706,0,0,0,.911,7.444,10.056,10.056,0,0,0,2.923,4.842,6.491,6.491,0,0,0,3.929,1.744,8.2,8.2,0,0,0,4.764-1.233,12.767,12.767,0,0,0,4.529-4.935,7.46,7.46,0,0,1,10.986-2.388l9.607,7.144a7.46,7.46,0,0,1,2.018,9.7,41.335,41.335,0,0,1-5.865,7.894,38.679,38.679,0,0,1-7.4,6.094,36.3,36.3,0,0,1-8.538,3.946A31.98,31.98,0,0,1,1405.054,537.422Z" fill="#340001"/><path d="M1458.953,452.252a7.456,7.456,0,0,1,1.942.257l10.6,2.858a7.46,7.46,0,0,1,5.328,8.874l-.09.393h10.622a7.46,7.46,0,0,1,7.46,7.46v10.453a36.07,36.07,0,0,1,5.229,2.251q3.01,1.6,5.068,2.94a7.46,7.46,0,0,1,2.693,9.452l-6.578,13.917,4.961,5.227a7.46,7.46,0,0,1,.162,10.1,41.764,41.764,0,0,1-6.41,5.849,30.869,30.869,0,0,1-7.937,4.24,27.68,27.68,0,0,1-8.9,1.578h-.013a25.428,25.428,0,0,1-9.587-1.841,26.246,26.246,0,0,1-11.464-9.091,7.46,7.46,0,0,1-8.825,3.831l-10.6-3.176a7.46,7.46,0,0,1-5.121-8.85l6.4-27.271h-3.02a7.46,7.46,0,0,1-7.46-7.46V472.095a7.46,7.46,0,0,1,7.46-7.46h9.277l1.543-6.623a7.46,7.46,0,0,1,7.264-5.76Zm3.182,25.026q-.184-.191-.356-.4a7.477,7.477,0,0,1-3.093,2.2q.193.2.372.418A7.476,7.476,0,0,1,1462.135,477.278Zm7.3,22.222-.3-1.209-.294,1.23Zm14.736,11.353-.469-.264a7.473,7.473,0,0,1-1.316-.939,6.311,6.311,0,0,0,.3.874c.85.606,1.171.506,1.442.354Z" fill="#340001"/><path d="M294.68,587.428h49.825a7.46,7.46,0,0,1,7.46,7.46v16.461a7.46,7.46,0,0,1-7.46,7.46H319.671v75.224a7.46,7.46,0,0,1-7.46,7.46H294.68a7.46,7.46,0,0,1-7.46-7.46V594.888A7.46,7.46,0,0,1,294.68,587.428Zm42.365,14.92H302.14v84.225h2.611V611.349a7.46,7.46,0,0,1,7.46-7.46h24.834Z" fill="#340001"/><path d="M398.366,588.465h22.145a7.46,7.46,0,0,1,4.007,1.168c6.719,4.279,13.668,8.29,20.654,11.921a210.13,210.13,0,0,0,21.941,9.824,7.46,7.46,0,0,1,4.617,8.614l-3.807,16.848a7.46,7.46,0,0,1-10.14,5.244q-1.177-.489-2.362-.969v23.167l8.7,8.837a7.46,7.46,0,0,1,.13,10.331q-2.687,2.87-5.384,5.53,2.375.756,5.068,1.512a7.46,7.46,0,0,1,4.571,10.682l-8.188,15.411a7.46,7.46,0,0,1-8.323,3.755,94.272,94.272,0,0,1-22.044-8.237q-3.028-1.6-5.962-3.446a7.461,7.461,0,0,1-5.8,4.913c-9.712,1.656-19.472,3.049-29.01,4.14-9.567,1.091-19.282,1.868-28.878,2.308a7.46,7.46,0,0,1-7.771-6.775l-1.5-16.459a7.46,7.46,0,0,1,7.429-8.137q1.681,0,4.074-.156V641.454l-1.481.595a7.46,7.46,0,0,1-10.1-5.259l-3.806-16.826a7.46,7.46,0,0,1,4.618-8.616,210.744,210.744,0,0,0,21.941-9.808c7.025-3.651,13.975-7.658,20.654-11.908A7.459,7.459,0,0,1,398.366,588.465Zm4.617,14.92h-2.461c-6.474,4.05-13.172,7.878-19.937,11.394-5.59,2.9-11.446,5.621-17.478,8.115l.466,2.06q1.69-.693,3.5-1.464a7.46,7.46,0,0,1,10.38,6.865v65.1a7.46,7.46,0,0,1-7.012,7.447l-3.848.262.142,1.558c6.926-.439,13.878-1.055,20.75-1.839,7.03-.8,14.188-1.778,21.357-2.9l-.107-1.115q-3.965.57-7.707,1.07-6.369.854-12.21,1.509a7.46,7.46,0,0,1-8.293-7.413V674.464A7.463,7.463,0,0,1,386,667.271a7.463,7.463,0,0,1-5.474-7.193v-5.184a7.455,7.455,0,0,1,3.544-6.351,7.455,7.455,0,0,1-3.544-6.35V637.4a7.463,7.463,0,0,1,5.032-7.056h-.11a7.46,7.46,0,0,1-3.569-14.011q3.954-2.154,7.795-4.378,3.709-2.143,7.2-4.477a7.46,7.46,0,0,1,1.2-.652q.193-.155.4-.3Zm15.37,0h-2.46l4.5,3.14q.2.143.4.3a7.462,7.462,0,0,1,1.208.655q3.49,2.331,7.2,4.474,3.843,2.222,7.8,4.378a7.46,7.46,0,0,1-3.567,14.012H432.4a7.463,7.463,0,0,1,5.032,7.056v4.795a7.455,7.455,0,0,1-3.544,6.35,7.455,7.455,0,0,1,3.544,6.351v5.184A7.462,7.462,0,0,1,432.746,667H440.5V630.011a7.46,7.46,0,0,1,10.479-6.822q2.172.961,4.319,1.827l.473-2.094c-6.019-2.492-11.878-5.216-17.482-8.13C431.559,611.293,424.861,607.461,418.353,603.385ZM410.4,620.1H408.48v2.778a7.463,7.463,0,0,1-5.032,7.056H415.43a7.463,7.463,0,0,1-5.032-7.056Zm6.995,47.434H403.56a7.459,7.459,0,0,1,3.706,3.227,69.812,69.812,0,0,0,11.258,14.63,5.975,5.975,0,0,0,2.148,2.07,79.781,79.781,0,0,0,16.238,11.442,77.78,77.78,0,0,0,13.032,5.4l1.162-2.186q-.693-.241-1.357-.481-4.458-1.616-7.865-3.093A7.46,7.46,0,0,1,440.039,686c2.741-2.311,5.526-4.86,8.325-7.618l-1.018-1.034a7.446,7.446,0,0,1-1.99,2.752l-5.072,4.4q-2.662,2.309-5.552,4.612a7.46,7.46,0,0,1-9,.223,66.448,66.448,0,0,1-5.976-4.819q-2.641-2.4-5.032-4.948a7.46,7.46,0,0,1,2.668-12.03ZM396.6,681.924h-1.153v3.7q1.667-.213,3.373-.441Q397.665,683.571,396.6,681.924Z" fill="#340001"/><path d="M524.082,723.526H474.257a7.46,7.46,0,0,1-7.46-7.46V699.607a7.46,7.46,0,0,1,7.46-7.46h24.834V616.793a7.46,7.46,0,0,1,7.46-7.46h17.531a7.46,7.46,0,0,1,7.46,7.46v99.273A7.46,7.46,0,0,1,524.082,723.526Zm-42.365-14.92h34.9V624.253h-2.611v75.354a7.46,7.46,0,0,1-7.46,7.46H481.717Z" fill="#340001"/><path d="M640.086,609.929a7.461,7.461,0,0,1,6.546,3.882l1.439,2.627a7.46,7.46,0,0,1,7.46,7.46v9.526a317.62,317.62,0,0,0-2.7,8.56q-.587.864-1.2,1.71l1.653.653a7.46,7.46,0,0,1,4.688,7.608c-.731,8.1-3.14,14.182-7.176,18.146v2.665a7.462,7.462,0,0,1,6.075,7.332v9.764a7.46,7.46,0,0,1-7.46,7.46H586.116a7.46,7.46,0,0,1-7.46-7.46V680.1a7.462,7.462,0,0,1,6.075-7.332v-.333l-5.954-7.309a7.46,7.46,0,0,1-1.016-7.78,34.243,34.243,0,0,0,2.668-9.125c.249-1.773.419-4.226.526-7.313q.173-5.014.173-12.086V623.9a7.46,7.46,0,0,1,7.46-7.46h21.946a7.463,7.463,0,0,1,7.017-4.922h10.173a7.429,7.429,0,0,1,3.466.852l6.657-2.094A7.454,7.454,0,0,1,640.086,609.929Z" fill="#340001"/><path d="M685.227,697.879a7.46,7.46,0,0,1-7.257-5.73L675.074,680a7.46,7.46,0,0,1,5.523-8.986,17.016,17.016,0,0,0,8.538-4.417,12.6,12.6,0,0,0,1.425-1.769q-.249.17-.515.321L673.3,674.677a7.46,7.46,0,0,1-10.376-3.178,76.511,76.511,0,0,1-5.784-15.579,55.767,55.767,0,0,1-1.328-17.227,59.344,59.344,0,0,1,1.7-10.474q1.175-4.545,2.723-9.431a7.46,7.46,0,0,1,9.729-4.734l11.021,4.128a7.46,7.46,0,0,1,4.484,9.274q-1.132,3.513-2.027,7.019a48,48,0,0,0-1.194,6.425q-.148,1.286-.189,2.581a7.46,7.46,0,0,1,7.741,4.425l3.39,7.78a7.493,7.493,0,0,1,.428,1.29,35.416,35.416,0,0,0,.779-6.945,34.974,34.974,0,0,0-.639-6.967,51.96,51.96,0,0,0-1.978-7.253,74.5,74.5,0,0,0-3.114-7.5,7.46,7.46,0,0,1,2.921-9.638l10.032-5.953a7.46,7.46,0,0,1,10.524,3.17,89.892,89.892,0,0,1,5.927,15.719,78.149,78.149,0,0,1,2.571,15.233,62.174,62.174,0,0,1-.73,14.527A54.967,54.967,0,0,1,715.9,674.6a40.839,40.839,0,0,1-5.408,8.8,37.123,37.123,0,0,1-6.858,6.505,44.75,44.75,0,0,1-7.8,4.528,65.25,65.25,0,0,1-8.492,3.14A7.456,7.456,0,0,1,685.227,697.879Z" fill="#340001"/><path d="M752.338,698.911a7.46,7.46,0,0,1-4.473-1.49l-4.364-3.27-.075.139a7.46,7.46,0,0,1-10.874,2.53l-8.618-6.112a7.46,7.46,0,0,1-2.279-9.572,98.749,98.749,0,0,0,4.858-10.736c1.415-3.687,2.706-7.642,3.84-11.76q-1.034-1.007-2.087-2-3.016-2.828-6.331-5.512a7.46,7.46,0,0,1-1.277-10.278l4.776-6.366-.683-.57a7.46,7.46,0,0,1-1.22-10.178l6.005-8.1a7.46,7.46,0,0,1,10.556-1.457q2.283,1.766,4.355,3.513a7.449,7.449,0,0,1,5.986-3.008h37.935a7.46,7.46,0,0,1,7.46,7.46v35.086a7.46,7.46,0,0,1-7.46,7.46h-.113a44.831,44.831,0,0,0,8.971,12.1,7.46,7.46,0,0,1,.971,9.578l-6.358,9.287a7.46,7.46,0,0,1-10.826,1.6,46.337,46.337,0,0,1-6.922-7,61.437,61.437,0,0,1-6.126-9.312q-1.258-2.224-2.389-4.581-.159.725-.328,1.437a73.68,73.68,0,0,1-2.672,8.829A82.768,82.768,0,0,1,759,694.8a7.46,7.46,0,0,1-6.663,4.106Z" fill="#340001"/><path d="M859.363,696.926H848.625A7.463,7.463,0,0,1,841.608,692h-23.76a7.463,7.463,0,0,1-7.017,4.922H800.093a7.46,7.46,0,0,1-7.46-7.46V638.425a7.46,7.46,0,0,1,7.46-7.46h10.738a7.445,7.445,0,0,1,5.75,2.707V620.564a7.46,7.46,0,0,1,7.46-7.46h11.3a7.46,7.46,0,0,1,7.46,7.46v13.195a7.446,7.446,0,0,1,5.821-2.794h10.738a7.46,7.46,0,0,1,7.46,7.46v51.041A7.46,7.46,0,0,1,859.363,696.926Z" fill="#340001"/><path d="M912.486,695.419a24.136,24.136,0,0,1-13.114-3.9,41.762,41.762,0,0,1-7.476-6.085l-.116.074q-1.416.928-2.909,1.81c-2,1.248-4.409,2.725-7.084,4.335a7.46,7.46,0,0,1-10.478-2.974q-.85-1.649-2.127-4.513a61.436,61.436,0,0,1-2.584-7.1,82.269,82.269,0,0,1-2.142-9.084,74.8,74.8,0,0,1-1.108-11.512,101.423,101.423,0,0,1,.643-13.459,105.141,105.141,0,0,1,3.074-15.736,7.46,7.46,0,0,1,9.45-5.172l10.808,3.414a7.518,7.518,0,0,1,.723.27,7.438,7.438,0,0,1,4.028-3.82q3.683-1.461,7.294-2.8A35.153,35.153,0,0,1,908.6,617.1a28.508,28.508,0,0,1,7.11.271,31.972,31.972,0,0,1,7.248,2.162,42.388,42.388,0,0,1,7.439,4.184,65.893,65.893,0,0,1,7.7,6.354,7.46,7.46,0,0,1,1,9.666L928.648,654.82a7.46,7.46,0,0,1-10.9,1.489l-6.5-5.4a7.455,7.455,0,0,1-2.682-6.167q-.136.039-.274.082a20.707,20.707,0,0,0-2.69.955l-3.668,1.61a7.46,7.46,0,0,1-10.054-4.351l-.958-2.729c-.57,2.74-.979,5.276-1.221,7.585a68.969,68.969,0,0,0-.426,10.042q.079,1.77.23,3.275a7.46,7.46,0,0,1,5.56,4.043l.981,1.963,2.446-2.537a7.46,7.46,0,0,1,11.18.5,13.061,13.061,0,0,0,2.656,2.582,5.6,5.6,0,0,0,.894.537,34.762,34.762,0,0,0,2.887-3,7.46,7.46,0,0,1,11.045-.7l8.477,8.256a7.46,7.46,0,0,1,.591,10.041C929.489,691.2,921.5,695.419,912.486,695.419Z" fill="#340001"/><path d="M945.194,612.391h9.961a7.455,7.455,0,0,1,6.323,3.5q.158-.007.317-.007h40.337a7.46,7.46,0,0,1,7.46,7.46v17.385q0,11.473-.215,19.411c-.145,5.332-.473,10.051-.974,14.027a61.235,61.235,0,0,1-1.89,9.853,17.646,17.646,0,0,1-4.313,7.772,14.5,14.5,0,0,1-6.878,4.251,25.879,25.879,0,0,1-6.613.726c-1.1,0-2.759-.1-4.964-.312l-7.288-.764a7.434,7.434,0,0,1-3.729-1.494q-1.03,1.068-2.116,2.1a7.46,7.46,0,0,1-9.663.533l-.628-.478a7.435,7.435,0,0,1-5.168,2.08h-9.961a7.46,7.46,0,0,1-7.46-7.46v-9.541a7.461,7.461,0,0,1-5.754-6.013L929.791,662.8a7.46,7.46,0,0,1,2.9-7.26A33.07,33.07,0,0,0,939.1,649.3h-.2a7.46,7.46,0,0,1-7.46-7.46v-10.8a7.462,7.462,0,0,1,6.287-7.368v-3.824A7.46,7.46,0,0,1,945.194,612.391Zm7.323,45.41q-.049-.059-.1-.112a7.478,7.478,0,0,1-.5-.629q-.709.984-1.466,1.929A7.436,7.436,0,0,1,952.517,657.8Zm-4.318,4.28a7.457,7.457,0,0,1,.483-1.01q-.4.442-.809.876l.057.022Q948.066,662.022,948.2,662.08Z" fill="#340001"/><path d="M1010.609,613.5h29.1a7.527,7.527,0,0,0,3.18,0h29.74a7.46,7.46,0,0,1,7.46,7.46v55.565l-.037,3.4c-.029,1.082-.071,1.978-.125,2.707a23.083,23.083,0,0,1-.814,5.288,14.2,14.2,0,0,1-2.5,5.256,11.6,11.6,0,0,1-2.885,2.458,13.316,13.316,0,0,1-2.908,1.272,17.877,17.877,0,0,1-4.87.992q-1.881.135-5.19.139-2,0-3.99-.087-1.963-.085-4.136-.252a7.439,7.439,0,0,1-3.933-1.488h-4.472a7.455,7.455,0,0,1-6.306-3.473q-1.153,1.331-2.455,2.609a27.267,27.267,0,0,0-14.339,2.849h-10.526a7.46,7.46,0,0,1-7.46-7.46V620.962A7.46,7.46,0,0,1,1010.609,613.5Z" fill="#340001"/><path d="M1088.812,612.073a7.459,7.459,0,0,1,1.493.151l10.1,2.064q.337.069.66.166h8.09a7.473,7.473,0,0,0,7.135-2.143h10.738a7.474,7.474,0,0,0,6.994,2.143h9.537a7.46,7.46,0,0,1,7.46,7.46v17.543a7.484,7.484,0,0,0,.777,5.716v9.049a7.429,7.429,0,0,1-1.767,4.821V664.7a7.528,7.528,0,0,0,0,3.173v4.914a7.439,7.439,0,0,1,2.4,5.484v9.766a7.46,7.46,0,0,1-7.46,7.46h-27.564a7.449,7.449,0,0,1-5.992,3.015H1100.4a7.5,7.5,0,0,0-4.874-.08h-10.244a7.46,7.46,0,0,1-7.46-7.46V673.365a7.461,7.461,0,0,1-4.787-5.858l-2.331-15.082a7.461,7.461,0,0,1,1-5.017,63.733,63.733,0,0,0,5.687-12.151,130.154,130.154,0,0,0,4.082-17.041,7.46,7.46,0,0,1,7.343-6.143Zm-.749,39.831v-3.437q-.73,1.53-1.516,3.007.281.049.562.12A7.488,7.488,0,0,1,1088.063,651.9Zm16.848,9.144a7.422,7.422,0,0,1-.554-1.237q-.731,1.837-1.509,3.652l1.132.646A7.413,7.413,0,0,1,1104.911,661.048Z" fill="#340001"/><path d="M1189.054,691.45h-12.292a7.46,7.46,0,0,1-7.46-7.46V672.082a6.776,6.776,0,0,0,.713-6.018l-1.766-39.69a7.46,7.46,0,0,1,7.453-7.792h14.411a7.46,7.46,0,0,1,7.453,7.791l-1.765,39.69a6.776,6.776,0,0,0,.713,6.019V683.99A7.46,7.46,0,0,1,1189.054,691.45Z" fill="#340001"/><path d="M354.462,50.57v-9.6h9.324q.916-2.221,1.272-3.334-5.087.477-10.314.714l-.565-9.6,3.6-.239q.778-2.222,1.555-4.841t1.625-5.636l9.748,2.142q-.566,1.828-1.13,3.731t-1.271,3.81q2.47-.237,4.273-.435t3.073-.358l-2.331-4.921,9.184-3.415q5.016,10.321,8.336,19.291l-7.347,3.1h7.347v9.6h-5.652a26.439,26.439,0,0,0,6.641,6.509l-2.544,10.4q-1.625-1.189-3.179-2.58t-3.037-2.977l1.978,6.827q-10.173,8.257-26.562,10.637L356.369,69.7q15.047-1.746,25.432-9.129a34.924,34.924,0,0,1-2.438-3.1q-1.236-1.745-2.508-3.811l1.554,5.557q-7.275,5.24-18.791,7.225l-.636-3.97a39.322,39.322,0,0,1-3.744,2.778l-1.977-8.017V70.574H326.7V45.331l-2.968-2.541a123.106,123.106,0,0,0,8.548-25.322l8.76,1.271q-.211,1.191-.389,2.063t-.317,1.509h10.455v9.208q-.567,1.272-1.06,2.342t-.989,2.1h4.522V54.619a29.085,29.085,0,0,0,2.507-1.827,13.748,13.748,0,0,0,2.155-2.222ZM323.8,90.1A119.863,119.863,0,0,0,327.335,72l6.64,1.35,6.076-.953q.492,3.81.811,8.176t.6,9.367l-6.5,1.111q-.355-7.939-1.06-16.828a94.142,94.142,0,0,1-2.9,17.859Zm10.525-40.483h2.826V44.934h-2.826Zm2.826,7.461h-2.826v4.842h2.826Zm.777-25.56-1.413,4.445h3.391l2.331-4.445ZM343.37,88.99q-.282-3.809-.741-7.74t-1.1-8.215L347.468,72q.705,4.049,1.166,8.017t.671,7.938Zm2.9-44.056h-2.9v4.684h2.9Zm0,12.145h-2.9v4.842h2.9Zm10.384,28.9-5.439,1.111q-.354-3.5-.918-7.065t-1.343-7.382l5.511-1.032q.705,3.018,1.165,5.755t.812,5.358q19.143-2.538,31.3-12.384l2.967,8.733Q378.41,89.784,358.064,92.4Zm18.579-35.4h-5.793q-.918,1.509-1.765,2.66t-1.625,2.182a44.9,44.9,0,0,0,9.537-4.047Zm.142-13.971L374.1,40.965h7.346q-.636-1.667-1.1-2.858t-.812-2.063Z" fill="#fff"/><path d="M455.27,51.6l-9.607-.079L433.229,89.705l-9.749-3.89,11.232-34.372-13.705-.078a41.211,41.211,0,0,1-2.578,6.389q-1.449,2.818-2.72,4.842a35.644,35.644,0,0,1-2.189,3.175,14.265,14.265,0,0,0-.989,1.31l-3.6,4.208-7.488-7.938,3.6-4.207a41.542,41.542,0,0,0,3.745-5.835,47.2,47.2,0,0,0,2.684-6.509,33.956,33.956,0,0,0,1.625-8.136l-4.168-.081.141-8.175,14.553.238V36.2a35.929,35.929,0,0,1-.212,3.968l31.86.239Z" fill="#fff"/><path d="M479.641,57.4q-3.039-3.174-6.252-6.192t-6.746-5.873l6.075-8.1q3.462,2.78,6.711,5.676t6.217,5.994Zm6.994,7.62a127.464,127.464,0,0,1-4.345,13.852,98.778,98.778,0,0,1-5.4,11.867l-8.618-6.111a105.893,105.893,0,0,0,5.227-11.55,133.978,133.978,0,0,0,4.168-12.821ZM475.544,20.088q3.391,2.619,6.287,5.2t5.44,5.12L481.2,38.743q-2.331-2.381-5.227-5t-6.429-5.557Zm25.008,37.15q-.354,5.4-.954,10.042a86.208,86.208,0,0,1-1.59,8.811,66.182,66.182,0,0,1-2.4,7.938,75.852,75.852,0,0,1-3.25,7.422l-8.9-6.668a58.64,58.64,0,0,0,3.356-8.732A78.343,78.343,0,0,0,488.9,67a106.763,106.763,0,0,0,1.165-11.31q.387-6.71.388-15.6V22.152h37.936V57.238H517.506a53.208,53.208,0,0,0,14.553,24.926L525.7,91.451a38.771,38.771,0,0,1-5.793-5.874,53.693,53.693,0,0,1-5.368-8.176A78.431,78.431,0,0,1,506.7,57.238Zm.352-10.081h16.743V32.551H500.9Z" fill="#fff"/><path d="M549.719,82.164H539.334V21.914h37.017v5.715h25.714V38.187h-5.721v38.42q0,1.827-.037,3.254t-.035,2.382a20.118,20.118,0,0,1-.636,3.889,6.557,6.557,0,0,1-1.129,2.541,1.955,1.955,0,0,1-.813.635q-.529.237-1.307.555a9.093,9.093,0,0,1-1.519.476,13.513,13.513,0,0,1-1.66.239c-.613.052-1.3.08-2.048.08h-2.685q-.919,0-3.426-.119t-6.676-.279l-.494-9.684h-6.853V76.607H549.719Zm0-37.706h4.239V32h-4.239Zm4.239,9.526h-4.239V67.161h4.239ZM567.026,32h-4.31V44.459h4.31Zm0,21.988h-4.31V67.161h4.31Zm18.3-15.8h-8.972V79.941q4.308.237,6.146.238a12.314,12.314,0,0,0,1.625-.08,1.293,1.293,0,0,0,.812-.355,1.649,1.649,0,0,0,.318-.912,17.658,17.658,0,0,0,.071-1.822Z" fill="#fff"/><path d="M648.054,74.464l5.793-6.431,3.25,3.573a22.66,22.66,0,0,0,2.189-5.279,25.1,25.1,0,0,0,.848-6.152,23.438,23.438,0,0,0-1.73-9.645,19.923,19.923,0,0,0-5.193-7.5,17.149,17.149,0,0,0-7.453-4.167,20.2,20.2,0,0,0-9.007-.278,21.473,21.473,0,0,0-8.052,3.334,18.887,18.887,0,0,0-5.793,6.272,23.825,23.825,0,0,0-1.979,4.365,23.2,23.2,0,0,0-1.165,9.209,13.717,13.717,0,0,0,.953,4.127q1.624,4.209,5.3,4.922,3.179.477,6.357-2.619a16.828,16.828,0,0,0,4.415-7.979,42.454,42.454,0,0,0,1.308-12.184l11.868-.476a51.155,51.155,0,0,1-2.3,17.662A31.452,31.452,0,0,1,640,77.956a21.242,21.242,0,0,1-7.523,4.8,16.536,16.536,0,0,1-8.231.833,17.246,17.246,0,0,1-8.653-4.088,20.85,20.85,0,0,1-5.616-8.454,27.038,27.038,0,0,1-1.767-7.184,35.871,35.871,0,0,1,0-7.779,39.162,39.162,0,0,1,1.66-7.779,37.042,37.042,0,0,1,3.215-7.264,30.231,30.231,0,0,1,9.289-9.922,34.138,34.138,0,0,1,12.539-5.16,32.313,32.313,0,0,1,13.705.556,28.288,28.288,0,0,1,11.869,6.35,29.4,29.4,0,0,1,4.909,5.477,35.435,35.435,0,0,1,3.638,6.668,37.908,37.908,0,0,1,2.226,7.463,38.755,38.755,0,0,1,.671,7.937,37.724,37.724,0,0,1-3.285,15.043A30.363,30.363,0,0,1,659.64,87Z" fill="#fff"/><path d="M749.716,46.081v.259h1.56a23.813,23.813,0,0,1,9.419,1.814,20.792,20.792,0,0,1,7.321,5.185A22.856,22.856,0,0,1,772.7,61.5a33.466,33.466,0,0,1,1.621,10.757q0,15.162-8.46,23.134t-24.54,7.971a76.28,76.28,0,0,1-26.04-4.538V79.776q13.438,6.094,24.36,6.092,6.959,0,10.8-3.5t3.84-9.72q0-6.221-4.68-8.942a20.435,20.435,0,0,0-6.54-2.008,66.146,66.146,0,0,0-10.62-.713h-6V46.211l22.2-20.737v-.259h-33.96V7.461h58.439V25.215Z" fill="#fff"/><path d="M806.422,45.649V34.933h24.584V19.85h11.3V34.933h24.584V45.649H842.944q3.392,23.022,25.291,35.245l-6.146,9.684a43.343,43.343,0,0,1-7.595-5.08,55.354,55.354,0,0,1-6.816-6.748,63.7,63.7,0,0,1-10.527-17.463,64.7,64.7,0,0,1-10.914,17.5,49.993,49.993,0,0,1-15.011,11.787l-6.146-9.684q21.9-12.223,25.29-35.245Z" fill="#fff"/><path d="M914.082,18.977q6.357,4.047,13,7.5A132.518,132.518,0,0,0,941,32.71l-2.331,10.319q-1.908-.792-3.851-1.547t-3.92-1.628V62.715l6.64,6.747a100.033,100.033,0,0,1-8.548,8.176q1.977.856,4.557,1.791t5.9,1.869l-5.016,9.438a52.039,52.039,0,0,1-23.311-12.3l.776,8.1q-8.829,1.509-17.518,2.5t-17.379,1.389l-.918-10.082q1.412,0,3.567-.158t3.5-.238V40.065q-2.051.872-3.85,1.585T875.934,43L873.6,32.693A133.086,133.086,0,0,0,887.52,26.47q6.639-3.45,13-7.493ZM902.143,35.488V29.852q-2.262,1.509-4.663,2.9t-4.874,2.738Zm17.732,8.89H894.161v2.938h25.714Zm0,10.717H894.161V58.27h25.714ZM909.632,77A47.051,47.051,0,0,1,902,67.082h-7.841V79.068q3.529-.4,7.382-.913T909.632,77M907.3,26.359l-4.1,2.858H911.4Zm5.158,9.129h9.537q-2.475-1.348-4.874-2.738t-4.663-2.9Zm7.488,36.991q1.7-1.348,3.25-2.7t3.108-2.7H913.87q1.341,1.428,2.826,2.777a35.849,35.849,0,0,0,3.249,2.62" fill="#fff"/><path d="M1007.331,26.916a59.693,59.693,0,0,1-7.842,13.375,57.433,57.433,0,0,1-11.161,10.677v39.69H976.954V57.238a64.108,64.108,0,0,1-13.528,4.01q-6.888,1.23-14.375,1.865l-.778-12.066a131.025,131.025,0,0,0,16-2.183,47.525,47.525,0,0,0,14.8-5.755,44.893,44.893,0,0,0,8.16-6.073,37.216,37.216,0,0,0,6.535-8.136l-3.957-2.222,3.673-7.7Z" fill="#fff"/><path d="M1082.213,78.83l-8.407,8.732-30.8-40.007-17.519,31.117-10.739-7.939,3.816-7.381,1.554,1.189,21.617-38.34Zm-20.911-33.9-1.977-11.749,6.852-1.508,1.837,11.749ZM1070.769,47l-2.049-11.827,6.853-1.509,1.977,11.749Z" fill="#fff"/><path d="M1091.961,32.711l5.723-10.876L1121.7,37l-5.652,11.035Zm36.806,40.482a75.408,75.408,0,0,1-15.471,9.765,101.5,101.5,0,0,1-17.095,6.191l-3.745-16.432,7.629-2.143.99,4.207a66.5,66.5,0,0,0,23.171-14.09,83.592,83.592,0,0,0,17.095-23.3l9.961,6.43a123.417,123.417,0,0,1-9.961,16.233,69.192,69.192,0,0,1-12.574,13.137" fill="#fff"/><path d="M1169.316,21.04h11.091V89.148h-11.091Zm50.863,35.166-6.853,18.654q-4.662-1.983-9.042-4.128a52.867,52.867,0,0,1-8.335-5.081,39.826,39.826,0,0,1-7.312-6.786,99.276,99.276,0,0,1-6.182-8.3l9.184-7.62q1.906,2.779,3.85,5.439a30.926,30.926,0,0,0,4.556,4.961,41.874,41.874,0,0,0,4.981,3.69,48.975,48.975,0,0,0,5.262,2.9l2.4-7.064Z" fill="#fff"/><path d="M328.208,195.591v-9.049h17.52q.494-.873.848-1.587c.235-.477.423-.9.565-1.27H332.588v-8.1H349.9c.094-.316.2-.714.318-1.189s.247-1.006.388-1.588H330.469v-9.367h21.758q.212-1.35.353-2.461t.212-1.9l11.021.316q-.072.716-.212,1.707t-.354,2.342h27.127v9.367H361.41c-.14.582-.271,1.111-.388,1.588s-.224.873-.318,1.189h27.551v8.1H373.773l1.343,2.857h17.519v9.049h-11.3a38.5,38.5,0,0,0,5.228,4.842,64.586,64.586,0,0,0,6.711,4.525l-3.462,11.51q-2.19-1.584-3.92-3.015t-3.145-2.78v20.481H371.725v-2.7H349.118v2.7H338.1V210.673q-1.414,1.352-3.145,2.78t-3.919,3.015l-3.462-11.51a48.4,48.4,0,0,0,12.009-9.367Zm43.517,11.51H349.119V210.6h22.606Zm-22.607,13.574h22.606V217.1H349.118Zm22.112-21.908-2.049-3.176H351.874a17.941,17.941,0,0,1-1.2,1.865c-.378.5-.683.942-.919,1.311Zm-7.841-15.082H357.95l-1.2,2.857h7.841Z" fill="#fff"/><path d="M438.765,215.04l5.793-6.43,3.249,3.574A22.771,22.771,0,0,0,450,206.9a25.162,25.162,0,0,0,.848-6.152,23.421,23.421,0,0,0-1.731-9.645,19.918,19.918,0,0,0-5.192-7.5,17.168,17.168,0,0,0-7.453-4.166,20.209,20.209,0,0,0-9.007-.279,21.484,21.484,0,0,0-8.053,3.334,18.9,18.9,0,0,0-5.793,6.273,23.814,23.814,0,0,0-1.978,4.364,23.226,23.226,0,0,0-1.166,9.209,13.717,13.717,0,0,0,.954,4.127q1.625,4.21,5.3,4.922,3.178.477,6.358-2.619a16.832,16.832,0,0,0,4.415-7.978,42.458,42.458,0,0,0,1.307-12.184l11.868-.477a51.129,51.129,0,0,1-2.3,17.662,31.439,31.439,0,0,1-7.665,12.741,21.238,21.238,0,0,1-7.523,4.8,16.554,16.554,0,0,1-8.23.833,17.252,17.252,0,0,1-8.654-4.09,20.85,20.85,0,0,1-5.616-8.453,27.032,27.032,0,0,1-1.766-7.183,35.871,35.871,0,0,1,0-7.779,39.059,39.059,0,0,1,1.66-7.779,37.045,37.045,0,0,1,3.214-7.265,30.245,30.245,0,0,1,9.29-9.922,34.112,34.112,0,0,1,12.539-5.159,32.331,32.331,0,0,1,13.7.555,28.281,28.281,0,0,1,11.868,6.351,29.382,29.382,0,0,1,4.91,5.477,35.4,35.4,0,0,1,3.637,6.667,37.846,37.846,0,0,1,2.226,7.463,38.71,38.71,0,0,1,.671,7.938,37.728,37.728,0,0,1-3.284,15.043,30.37,30.37,0,0,1-9.008,11.548Z" fill="#fff"/><path d="M556.445,159.268H529.533v68.9H514.924V145.552h41.521Z" fill="#fff"/><path d="M645.06,226.445a97.252,97.252,0,0,1-8.891,7.451,52.287,52.287,0,0,1-9.707,5.725,37.057,37.057,0,0,1-10.572,2.969,30.679,30.679,0,0,1-11.485-.809,32.228,32.228,0,0,1-10.717-5.076,35.994,35.994,0,0,1-8.506-8.641,42.317,42.317,0,0,1-5.575-11.285,41.864,41.864,0,0,1-2.018-13.014V150.52h14.9V179.9l39.5-15.012-2.21-6.8,10.283-3.887,6.921,22.787-54.5,20.412q0,1.3-.049,2.537c-.032.83-.048,1.639-.048,2.432a29.3,29.3,0,0,0,1.923,10.475,21.483,21.483,0,0,0,5.959,8.64q6.632,5.834,15.666,3.834t19.991-12.474Z" fill="#fff"/><path d="M704.265,235.193l18.261-38.988H666.589V179.789h81.023l-29.795,63.072Zm34.312-67.285-63.242,5.076-1.154-22.895,10.669-.649.193,6.265,52.573-4.32Z" fill="#fff"/><path d="M817.871,232.923q-2.214-6.477-4.662-12.689a52.364,52.364,0,0,0-6.584-11.827l-27.2,37.8L767.8,235.839l27.3-38.23q.095-.109-.288-.217a37.941,37.941,0,0,0-10.381-5.563q-5.479-1.887-11.533-3.724l4.132-16.309a126.312,126.312,0,0,1,14.465,4.968A55.253,55.253,0,0,1,804.7,184.54L822.2,159.808l-5.862-5.292,6.824-9.288,17.78,15.552-24.8,34.452a80.69,80.69,0,0,1,9.034,14.8,169.521,169.521,0,0,1,6.921,17.387Z" fill="#fff"/><path d="M941.76,156.029l-38.733,87.156-22.106-12.529,5.094-10.477,7.785,4.645,22.875-52.488H858.142V156.029Z" fill="#fff"/><path d="M1028.262,220.5v15.229h-64.2V220.5h25.663V189.616l-18.839,1.512-1.346-19.872,9.9-.864.384,5.183,43.058-3.563,1.058,15.013-19.991,1.4V220.5Z" fill="#fff"/><path d="M1125.72,239.728q-6.054-3.135-10.717-5.832a56.166,56.166,0,0,1-8.6-6.1,54.357,54.357,0,0,1-7.45-7.937,76.81,76.81,0,0,1-7.064-11.34l-23.259,32.291-17.3-15.553,6.825-9.179,5.671,5.293,34.12-47.953H1055.27V157h74.2l-27.488,37.8a41.386,41.386,0,0,0,2.547,5.239,47.945,47.945,0,0,0,5.381,7.56,66.821,66.821,0,0,0,22.155,16.793Z" fill="#fff"/><path d="M1145.135,232.816h26.911V163.8h14.61v82.729h-41.521Z" fill="#fff"/><path d="M185.452,321.7v-9.763h61.6V321.7H220.491c-.047.211-.141.543-.283.992a8.938,8.938,0,0,0-.282,1.073h23.312v30.164H213.5q-.706.714-1.271,1.23a12.824,12.824,0,0,0-.919.912h28.328v7.3a36.09,36.09,0,0,1-4.38,3.692q-2.474,1.787-5.439,3.533,4.026.711,8.477,1.15t9.4.674l-2.614,9.289a108.863,108.863,0,0,1-28.611-5.557,111.935,111.935,0,0,1-13.422,3.334q-7.2,1.348-15.612,2.223l-2.614-9.289q5.156-.316,9.855-.832t9.077-1.152a29.794,29.794,0,0,1-2.825-1.786q-1.272-.91-2.472-1.787l3.037-3.492h-.212q-3.392,1.986-6.676,3.492a52.6,52.6,0,0,1-6.676,2.541l-3.956-8.652a74.007,74.007,0,0,0,16.531-6.826H189.267V323.763h19.215q.141-.4.317-1.073c.117-.449.2-.781.247-.992Zm46.483,8.891H200.5v2.063h31.436Zm0,7.619H200.5v2.145h31.436ZM200.5,347.972h31.436v-2.143H200.5ZM217.1,367.5a59.065,59.065,0,0,0,9.819-4.129h-19.5q2.4,1.192,4.8,2.223T217.1,367.5" fill="#fff"/><path d="M294.6,365.04l5.793-6.429,3.25,3.573a22.687,22.687,0,0,0,2.189-5.28,25.108,25.108,0,0,0,.848-6.153,23.437,23.437,0,0,0-1.73-9.644,19.936,19.936,0,0,0-5.193-7.5,17.17,17.17,0,0,0-7.453-4.168,20.224,20.224,0,0,0-9.007-.277,21.473,21.473,0,0,0-8.052,3.334,18.871,18.871,0,0,0-5.793,6.273,23.818,23.818,0,0,0-1.979,4.364,23.207,23.207,0,0,0-1.165,9.21,13.7,13.7,0,0,0,.953,4.126q1.624,4.209,5.3,4.922,3.179.477,6.357-2.618a16.826,16.826,0,0,0,4.415-7.98,42.445,42.445,0,0,0,1.308-12.183l11.868-.477a51.161,51.161,0,0,1-2.3,17.663,31.459,31.459,0,0,1-7.665,12.74,21.256,21.256,0,0,1-7.523,4.8,16.559,16.559,0,0,1-8.231.833,17.249,17.249,0,0,1-8.653-4.09,20.839,20.839,0,0,1-5.616-8.453,27.042,27.042,0,0,1-1.767-7.183,35.878,35.878,0,0,1,0-7.78,39.16,39.16,0,0,1,1.66-7.779,37.066,37.066,0,0,1,3.215-7.264,30.241,30.241,0,0,1,9.289-9.922,34.153,34.153,0,0,1,12.539-5.159,32.3,32.3,0,0,1,13.705.556,28.275,28.275,0,0,1,11.869,6.349,29.443,29.443,0,0,1,4.909,5.478,35.408,35.408,0,0,1,3.638,6.668,37.9,37.9,0,0,1,2.226,7.462,38.773,38.773,0,0,1,.671,7.938,37.728,37.728,0,0,1-3.285,15.043,30.368,30.368,0,0,1-9.007,11.548Z" fill="#fff"/><path d="M412.275,309.269H385.364v68.9h-14.61V295.552h41.521Z" fill="#fff"/><path d="M473.4,295.877v4.373q0,2.432-.1,5.562h34.216v68.363q0,2.489-.047,4.375c-.034,1.26-.083,2.36-.145,3.293a23.757,23.757,0,0,1-.717,5.186,11.12,11.12,0,0,1-1.384,3.455,7.046,7.046,0,0,1-2.864,1.836,13.583,13.583,0,0,1-3.962.918q-2.054.16-5.97.162-1.731,0-5.864-.162T476,392.861l-.865-13.824,6.248.215q3.363.219,5.141.271c1.185.037,2.067.053,2.644.053a14.957,14.957,0,0,0,2.018-.108,1.805,1.805,0,0,0,1.153-.541,2.291,2.291,0,0,0,.481-1.294,23.049,23.049,0,0,0,.1-2.377v-6.913l-7.222,9.721q-4.525-4.426-9.484-8.531t-10.544-7.885q-6.258,9.721-20.22,16.74l-5.68-10.908v26.028h-14.61v-87.7h33.64q.094-1.512.1-4v-5.939Zm-33.639,23.652L439.842,338q8.569-3.912,12.415-7.6,3.749-3.8,5.19-10.863Zm18.934,23.76a64.366,64.366,0,0,1-6.281,4.32q-3.381,2.051-7.437,4.1l-5.216-9.612.079,23.543q8.656-3.993,12.987-9.179a27.1,27.1,0,0,0,3.607-5.832,31.318,31.318,0,0,0,2.261-7.344m7.4-.432,6.247.647-1.249,5.617q5.571,3.563,11.052,7.83t10.765,9.234l-.08-23.652-7.1,9.287q-4.316-4.535-9.108-8.748t-10.068-8.316a40.343,40.343,0,0,1-3.068,4.05,25.647,25.647,0,0,1-3.547,3.4Zm26.815-23.328-21.032.107-.385,1.729q5.382,3.781,10.717,8.207t10.62,9.721Z" fill="#fff"/><path d="M572.975,371.908l7.882-8.748,4.421,4.861a30.882,30.882,0,0,0,2.979-7.183,34.23,34.23,0,0,0,1.154-8.369,31.916,31.916,0,0,0-2.355-13.124,27.115,27.115,0,0,0-7.064-10.2,23.32,23.32,0,0,0-10.14-5.67,27.494,27.494,0,0,0-12.255-.378,29.235,29.235,0,0,0-10.957,4.537,25.712,25.712,0,0,0-7.881,8.531,32.219,32.219,0,0,0-2.691,5.941,31.586,31.586,0,0,0-1.586,12.528,18.622,18.622,0,0,0,1.3,5.615q2.209,5.727,7.208,6.7,4.324.648,8.65-3.564,4.036-3.78,6.007-10.854a57.8,57.8,0,0,0,1.778-16.578l16.148-.648a69.6,69.6,0,0,1-3.124,24.029,42.8,42.8,0,0,1-10.428,17.334,28.9,28.9,0,0,1-10.236,6.535,22.49,22.49,0,0,1-11.2,1.133,23.475,23.475,0,0,1-11.774-5.561,28.363,28.363,0,0,1-7.641-11.5,36.836,36.836,0,0,1-2.4-9.775,48.636,48.636,0,0,1,0-10.584,53.158,53.158,0,0,1,2.259-10.584,50.249,50.249,0,0,1,4.373-9.881,41.1,41.1,0,0,1,12.638-13.5,46.469,46.469,0,0,1,17.06-7.021,43.977,43.977,0,0,1,18.647.756,38.5,38.5,0,0,1,16.146,8.64,40.015,40.015,0,0,1,6.68,7.453,48.2,48.2,0,0,1,4.95,9.071,51.592,51.592,0,0,1,3.027,10.152,52.6,52.6,0,0,1,.913,10.8,51.307,51.307,0,0,1-4.468,20.465,41.314,41.314,0,0,1-12.255,15.714Z" fill="#fff"/><path d="M701.478,306.029l-38.733,87.156-22.106-12.529,5.094-10.477,7.785,4.645,22.875-52.488H617.86V306.029Z" fill="#fff"/><path d="M787.98,370.5v15.229h-64.2V370.5h25.663V339.616L730.6,341.128l-1.346-19.873,9.9-.863.384,5.183,43.058-3.564,1.058,15.013-19.991,1.4V370.5Z" fill="#fff"/><path d="M885.438,389.728q-6.054-3.135-10.717-5.832a56.165,56.165,0,0,1-8.6-6.1,54.353,54.353,0,0,1-7.45-7.937,76.8,76.8,0,0,1-7.064-11.34l-23.259,32.291-17.3-15.553,6.825-9.179,5.671,5.293,34.12-47.954H814.988V307h74.2L861.7,344.8a41.385,41.385,0,0,0,2.547,5.239,47.952,47.952,0,0,0,5.381,7.56,66.821,66.821,0,0,0,22.155,16.793Z" fill="#fff"/><path d="M908.025,346.419V329.9h78.043v16.523H958a52.582,52.582,0,0,1-.913,14.743,90.217,90.217,0,0,1-3.8,13.337,86.771,86.771,0,0,1-4.949,11.018q-2.646,4.857-4.47,7.883l-19.03-13.824,6.056-9.828,5.766,4.32q.864-1.834,2.019-4.86a58.66,58.66,0,0,0,2.066-6.7,62.2,62.2,0,0,0,1.394-7.828,35.8,35.8,0,0,0,0-8.264Zm71.027-26.027H915.04V303.759h64.012Z" fill="#fff"/><path d="M1059.691,310.349l16.627,9.395q-1.251,2.81-2.931,6.156a59.059,59.059,0,0,1-4.133,6.912,64.47,64.47,0,0,1-5.911,7.291,55.459,55.459,0,0,1-8.265,7.182v44.6h-14.226V355.06q-2.4.972-5.189,1.891a66.453,66.453,0,0,1-6.489,1.726q-3.7.811-8.361,1.459T1010,361.216l-.961-15.121a89.6,89.6,0,0,0,21.72-3.994,74.13,74.13,0,0,0,14.849-6.643,41.532,41.532,0,0,0,9.132-7.181,47.349,47.349,0,0,0,4.661-5.832l-4.229-2.592Z" fill="#fff"/><path d="M1095.348,385.084l28.546-85.321,14.609,5.618-28.738,86.183Zm79.485-3.78q-5.478-3.993-10.091-8.1a82.168,82.168,0,0,1-15.859-20.2,71.63,71.63,0,0,1-5.093-11.987,67.383,67.383,0,0,1-2.5-9.72q-.867-4.861-1.731-10.045l23.068-4.428,1.73,11.664-7.594,1.3a50.252,50.252,0,0,0,5.191,13.662A67.481,67.481,0,0,0,1169.4,354.2a76.094,76.094,0,0,0,7.785,7.938q3.8,3.3,6.3,5.13Zm-14.993-66.419-2.594-15.985,9.13-1.943,2.788,15.984Zm12.976,5.939-2.4-15.984,9.226-1.944,2.307,15.985Z" fill="#fff"/><path d="M1222.505,357a82.4,82.4,0,0,1-3.412,9.938,71.328,71.328,0,0,1-4.228,8.424,89.4,89.4,0,0,1-5.286,7.937q-2.932,3.94-6.584,8.586l-11.053-11.232q4.131-5.183,7.5-10.26a70,70,0,0,0,5.814-10.691,66.316,66.316,0,0,0,3.893-12.043,90.669,90.669,0,0,0,1.922-14.2h-9.131V321.689l23.74-.109.481,8.209a64.521,64.521,0,0,1-.721,13.769A117.273,117.273,0,0,1,1222.505,357m12.976-51.73h15.282v61.775l24.412-11.125,5.671,15.121L1235.481,392Z" fill="#fff"/><path d="M1289.3,382.816h26.911V313.8h14.61v82.729H1289.3Z" fill="#fff"/><path d="M9.085,490.353V480.271h8.406v-7.065q-1.2.162-2.931.278t-4.2.279l-.918-9.447a111.458,111.458,0,0,0,25.573-4.366l2.613,9.129a38.234,38.234,0,0,1-4.592,1.428q-2.543.636-5.651,1.27v8.494h7.348v9.844q1.2-4.527,2.259-9.168t1.837-9.567l8.83,2.7q-1.059,7.462-2.719,14.248a134.6,134.6,0,0,1-3.92,13.139l-8.408-4.445,2.049-6.668H27.734q2.26,4.285,4.662,8.93t4.946,9.8l-6.287,5.321q-.567-1.431-1.484-3.653t-2.19-5.08V531.55h-9.89V510.833q-1.131,3.094-2.366,5.793a47.055,47.055,0,0,1-2.649,5L7.46,511.308a72.415,72.415,0,0,0,9.819-20.955ZM48.292,461.22H59.029v16.67q0,3.571.212,6.867t.566,6.549q1.7-5.241,2.966-10.559t2.19-10.8l9.4,2.778a139.925,139.925,0,0,1-7.063,26.83l-6.782-3.492a44.822,44.822,0,0,0,5.157,14.05,36.015,36.015,0,0,0,9.324,10.241l-5.651,10.875a39.358,39.358,0,0,1-8.654-10.2,67.92,67.92,0,0,1-6.675-14.725Q47.8,523.534,37.766,531.234l-5.793-10.875a37.73,37.73,0,0,0,12.363-16.274,53.113,53.113,0,0,0,2.967-11.47,98.271,98.271,0,0,0,.989-14.725Z" fill="#fff"/><path d="M119.429,515.04l5.793-6.429,3.25,3.573a22.706,22.706,0,0,0,2.189-5.28,25.108,25.108,0,0,0,.848-6.153,23.442,23.442,0,0,0-1.73-9.645,19.923,19.923,0,0,0-5.193-7.5,17.17,17.17,0,0,0-7.453-4.168,20.2,20.2,0,0,0-9.007-.276,21.455,21.455,0,0,0-8.052,3.333,18.88,18.88,0,0,0-5.793,6.273A23.847,23.847,0,0,0,92.3,493.13a23.2,23.2,0,0,0-1.165,9.209,13.7,13.7,0,0,0,.953,4.127q1.625,4.209,5.3,4.923,3.179.475,6.357-2.619a16.836,16.836,0,0,0,4.415-7.98,42.448,42.448,0,0,0,1.308-12.184l11.868-.476a51.155,51.155,0,0,1-2.3,17.662,31.45,31.45,0,0,1-7.665,12.741,21.253,21.253,0,0,1-7.523,4.8,16.559,16.559,0,0,1-8.231.834,17.241,17.241,0,0,1-8.653-4.09,20.84,20.84,0,0,1-5.616-8.453,27.042,27.042,0,0,1-1.767-7.183,35.878,35.878,0,0,1,0-7.78,39.159,39.159,0,0,1,1.66-7.779,37.038,37.038,0,0,1,3.215-7.264A30.219,30.219,0,0,1,93.75,471.7a34.137,34.137,0,0,1,12.539-5.16,32.3,32.3,0,0,1,13.705.556,28.275,28.275,0,0,1,11.869,6.349,29.47,29.47,0,0,1,4.909,5.477,35.472,35.472,0,0,1,3.638,6.668,37.933,37.933,0,0,1,2.226,7.463,38.768,38.768,0,0,1,.671,7.938,37.729,37.729,0,0,1-3.285,15.043,30.368,30.368,0,0,1-9.007,11.548Z" fill="#fff"/><path d="M237.109,459.269H210.2v68.9h-14.61V445.552h41.521Z" fill="#fff"/><path d="M325.82,539.728q-6.054-3.135-10.717-5.832a56.159,56.159,0,0,1-8.6-6.1,54.36,54.36,0,0,1-7.451-7.937,76.884,76.884,0,0,1-7.064-11.34l-23.259,32.291-17.3-15.553,6.825-9.179,5.671,5.293,34.12-47.954H255.37V457h74.2l-27.488,37.8a41.561,41.561,0,0,0,2.548,5.239,48,48,0,0,0,5.38,7.56,66.822,66.822,0,0,0,22.155,16.793Z" fill="#fff"/><path d="M427.316,457.216a81.183,81.183,0,0,1-10.668,18.2,78.245,78.245,0,0,1-15.186,14.528v54H385.988V498.472a87.273,87.273,0,0,1-18.406,5.453q-9.371,1.676-19.559,2.539l-1.058-16.416a178.21,178.21,0,0,0,21.77-2.971,64.616,64.616,0,0,0,20.136-7.83,61.027,61.027,0,0,0,11.1-8.261,50.646,50.646,0,0,0,8.891-11.071l-5.383-3.023,5-10.477Z" fill="#fff"/><rect width="80.158" height="17.496" transform="translate(443.367 487.24)" fill="#fff"/><path d="M537.653,458.728l15.282-3.24,6.728,41.687-15.186,3.35Zm27.2-3.024,15.57-.865,2.211,40.934-15.666.971Zm55.938,4.645a95.914,95.914,0,0,1-14.225,50.381,86.731,86.731,0,0,1-10.573,13.879,69.782,69.782,0,0,1-11.1,9.773q-5.911,4.158-12.639,8.262l-7.305-15.229a65.858,65.858,0,0,0,14.032-9.449,76.3,76.3,0,0,0,20.617-29,73.561,73.561,0,0,0,4.757-18.035l-6.247-.434.865-11.988Z" fill="#fff"/><path d="M718.537,456.029,679.8,543.185,657.7,530.656l5.094-10.477,7.785,4.645,22.875-52.488H634.919V456.029Z" fill="#fff"/><path d="M805.039,520.5v15.229h-64.2V520.5H766.5V489.616l-18.839,1.512-1.346-19.873,9.9-.863.384,5.183,43.058-3.564,1.058,15.013-19.991,1.4V520.5Z" fill="#fff"/><path d="M902.5,539.728q-6.054-3.135-10.717-5.832a56.165,56.165,0,0,1-8.6-6.1,54.355,54.355,0,0,1-7.45-7.937,76.8,76.8,0,0,1-7.064-11.34l-23.259,32.291-17.3-15.553,6.825-9.179,5.671,5.293,34.12-47.954H832.047V457h74.2l-27.488,37.8a41.385,41.385,0,0,0,2.547,5.239,47.951,47.951,0,0,0,5.381,7.56,66.823,66.823,0,0,0,22.155,16.793Z" fill="#fff"/><path d="M921.912,532.816h26.911V463.8h14.61v82.729H921.912Z" fill="#fff"/><path d="M1044.35,478.843l-.777,3.73a17.208,17.208,0,0,1,5.122,2.938,24.21,24.21,0,0,1,3.849,4.127,47.162,47.162,0,0,1,6.076-2.223l-.636-3.73,7.842-1.746,2.754,15.875q-2.965.636-5.721,1.111a24.275,24.275,0,0,0-5.369,1.588q.634,2.461,1.094,4.883t.883,5.277l-10.6,1.746q-.283-1.983-.53-3.531t-.529-2.9a21.727,21.727,0,0,0-3.32,3.1,18.865,18.865,0,0,0-2.685,3.811,4.224,4.224,0,0,0-.353,3.414q.563,1.587,3.885,2.142a21.321,21.321,0,0,0,4.1.28q2.332-.042,4.839-.239t5.052-.595q2.542-.4,4.8-.795l1.2,12.146q-2.26.4-4.909.754t-5.369.555q-2.719.2-5.333.279a34.928,34.928,0,0,1-4.8-.16,19.581,19.581,0,0,1-7.665-2.143,13.215,13.215,0,0,1-5.616-6.033,15.275,15.275,0,0,1-1.73-8.095,19.893,19.893,0,0,1,2.084-7.463,28.04,28.04,0,0,1,4.485-6.43,43.9,43.9,0,0,1,5.4-5,11.581,11.581,0,0,0-4.521-2.342,30.791,30.791,0,0,0-6.993-.914l2.825-13.414H1018V466.7h18.014l1.695-7.858,10.385,2.7-1.059,5.159h28.54v12.146Z" fill="#fff"/><rect width="63.297" height="12.543" transform="translate(1086.382 487.812)" fill="#fff"/><path d="M1194.325,459.316v10.318h4.733q1.271-2.619,2.367-4.961t1.872-4.484l9.466,2.143q-.567,1.35-1.307,3.175t-1.872,4.127h10.1v22.307H1211v12.064h-16.671v3.256h20.487v9.207h-20.487v3.492h25.149v10.082h-61.6V519.96h25.149v-3.492h-20.487v-9.207h20.487v-3.256h-16.671V491.941h-8.69V469.634h10.173q-.99-2.062-1.872-3.849t-1.731-3.373l9.819-2.145q.988,1.749,2.12,4.049t2.472,5.318h4.38V459.316ZM1168.4,481.382h40.55v-2.539H1168.4Zm31.506,8.733h-22.464v5.477h22.464Z" fill="#fff"/><path d="M1251.263,516.945q-1.272.793-2.3,1.429t-2.3,1.469q-1.271.832-2.613,1.627-3.179,1.983-7.135,4.365-.778-1.508-1.943-4.127a54.215,54.215,0,0,1-2.26-6.232,74.864,74.864,0,0,1-1.943-8.256,67.2,67.2,0,0,1-.989-10.359,93.4,93.4,0,0,1,.6-12.461,97.39,97.39,0,0,1,2.861-14.608l10.809,3.414a98.592,98.592,0,0,0-2.79,14.487,76.077,76.077,0,0,0-.46,11.154,48.73,48.73,0,0,0,.919,8.016q.7,3.258,1.271,5.082l4.38-2.78Zm30.235-25.8-6.5-5.4,3.674-5.478a13.2,13.2,0,0,0-6.57-2.7,17,17,0,0,0-7.065.715,26.776,26.776,0,0,0-3.425,1.23q-1.733.756-3.709,1.627l-4.1-11.668q3.6-1.43,7.135-2.738a27.566,27.566,0,0,1,7.276-1.629,20.734,20.734,0,0,1,5.263.2,24.423,24.423,0,0,1,5.545,1.668,34.8,34.8,0,0,1,6.111,3.453,58.124,58.124,0,0,1,6.816,5.635Zm-18.649,19.289a20.309,20.309,0,0,0,4.238,4.049,7.528,7.528,0,0,0,9.573.08,21.86,21.86,0,0,0,4.274-4.049l8.477,8.256q-7.913,9.765-17.944,9.764a16.716,16.716,0,0,1-9.112-2.739,34.649,34.649,0,0,1-7.772-6.787Z" fill="#fff"/><path d="M1349.458,491.146h-38.995v-5.239q-2.4,1.668-4.947,3.254t-5.226,3.018l-4.027-10.082a115.654,115.654,0,0,0,14.376-9.844,105.661,105.661,0,0,0,12.257-11.59h14.128a105.573,105.573,0,0,0,12.257,11.59,115.269,115.269,0,0,0,14.375,9.844l-4.026,10.082q-2.687-1.429-5.227-3.018t-4.945-3.254Zm-49.593,15.32v-10.08h60.189v10.08H1351.3q2.47,5.717,4.838,11.352t4.627,11.351l-9.75,3.652-2.683-6.828a450.925,450.925,0,0,1-45.918,3.811l-.636-10.08,9.819-.477q1.343-2.619,2.791-5.795t3.074-6.986Zm43.588-25.084q-3.673-3.015-7.031-6.191t-6.463-6.748q-3.109,3.573-6.462,6.748t-7.03,6.191Zm.989,35.166q-.495-1.03-1.556-3.492-.493-1.272-.81-2.1c-.212-.556-.414-1.045-.6-1.468l7.56-3.018h-19.852q-1.059,2.938-2.366,5.875t-2.72,6.033q6.854-.477,11.9-.953t8.442-.873" fill="#fff"/><path d="M1405.054,529.962a24.18,24.18,0,0,1-12.328-3.293,28.28,28.28,0,0,1-9.643-9.486,31.008,31.008,0,0,1-4.309-10.914,54.087,54.087,0,0,1-.918-12.067,76.312,76.312,0,0,1,1.413-12.224q1.2-6.074,2.613-11.549l-4.944-1.51,2.189-8.492,16.32,4.92q-1.131,4.209-2.581,9.209t-2.437,10.318a70.973,70.973,0,0,0-1.164,10.6,29.991,29.991,0,0,0,1.236,9.883,17.364,17.364,0,0,0,5.086,8.216,13.9,13.9,0,0,0,8.266,3.612,15.073,15.073,0,0,0,9.289-2.3,20.2,20.2,0,0,0,7.17-7.7l9.607,7.144a33.7,33.7,0,0,1-4.8,6.469,31.069,31.069,0,0,1-5.97,4.922,28.7,28.7,0,0,1-6.781,3.135,24.418,24.418,0,0,1-7.311,1.111" fill="#fff"/><path d="M1464.816,484.24l-9.465,39.611-10.6-3.176,8.548-36.435h-12.433V472.1h15.188q.211-.873.423-1.785c.142-.61.319-1.363.531-2.264s.47-2.01.777-3.334.694-2.988,1.165-5l10.6,2.858q-.566,2.46-1.025,4.841T1467.5,472.1h19.851V484.24Zm35.958,37.23a34.121,34.121,0,0,1-5.262,4.8,23.288,23.288,0,0,1-6.005,3.215,20.125,20.125,0,0,1-6.5,1.15,17.565,17.565,0,0,1-6.747-1.311,19.219,19.219,0,0,1-9.289-8.214,27.574,27.574,0,0,1-3.639-13.932l11.162-.4a24.969,24.969,0,0,0,.389,3.493,14.655,14.655,0,0,0,.953,3.214,9.667,9.667,0,0,0,1.66,2.62,7,7,0,0,0,2.508,1.787,7.679,7.679,0,0,0,4.168.674,10.158,10.158,0,0,0,3.6-1.19,15.938,15.938,0,0,0,2.932-2.1,29.909,29.909,0,0,0,2.155-2.145Zm-6.358-13.416-7.064-3.969,1.413-3.334a15.827,15.827,0,0,0-4.592-.754,18.934,18.934,0,0,0-6.641,1.151l-2.9-11.59a24.48,24.48,0,0,1,8.442-1.547,28.3,28.3,0,0,1,7.382.992,30.376,30.376,0,0,1,6.075,2.381q2.685,1.43,4.522,2.619Z" fill="#fff"/><path d="M344.505,611.349H312.211v82.684H294.68V594.888h49.825Z" fill="#fff"/><path d="M420.511,595.925q10.38,6.61,21.221,12.248a216.611,216.611,0,0,0,22.722,10.174L460.647,635.2q-3.114-1.295-6.286-2.527t-6.4-2.657v37.325L458.8,678.351a164.081,164.081,0,0,1-13.955,13.35q3.227,1.4,7.439,2.924t9.63,3.048l-8.188,15.411A84.929,84.929,0,0,1,415.667,693l1.269,13.22q-14.42,2.458-28.6,4.082t-28.372,2.268l-1.5-16.459q2.306,0,5.824-.26t5.71-.388v-65.1q-3.346,1.424-6.286,2.588t-5.478,2.2l-3.806-16.826a217.2,217.2,0,0,0,22.721-10.158q10.839-5.634,21.221-12.235ZM401.02,622.882v-9.2q-3.693,2.464-7.613,4.731t-7.958,4.47ZM429.969,637.4H387.987v4.795h41.982Zm0,17.5H387.987v5.184h41.982Zm-16.725,35.77a76.907,76.907,0,0,1-12.456-16.2h-12.8v19.569q5.766-.648,12.053-1.49t13.2-1.879m-3.806-82.686-6.689,4.666h13.379Zm8.42,14.9h15.571q-4.039-2.2-7.959-4.47t-7.612-4.731Zm12.226,60.395q2.767-2.2,5.3-4.406t5.075-4.407h-20.3q2.188,2.332,4.613,4.536a58.986,58.986,0,0,0,5.306,4.277" fill="#fff"/><path d="M474.257,699.607h32.294V616.793h17.531v99.273H474.257Z" fill="#fff"/><path d="M627.724,618.976q0,.876.035,2.106t.107,2.816h5.3a8.552,8.552,0,0,0-.423-.951c-.189-.371-.377-.74-.565-1.111s-.378-.7-.565-.992a2.945,2.945,0,0,1-.354-.676l8.83-2.778q1.129,2.066,1.979,3.651t1.413,2.857h4.592v9.526h-8.2l6.783,4.367A68.478,68.478,0,0,1,635,650.967q2.969,5.241,4.8,5.24,1.766,0,3.108-7.938l7.63,3.016q-1.06,11.748-7.206,15.162V680.1h6.075v9.764H586.116V680.1h6.075V669.781l-7.63-9.367a41.513,41.513,0,0,0,3.25-11.113q.423-3.015.6-8.137t.177-12.344V623.9h29.034c-.047-.582-.071-1.281-.071-2.1v-2.819Zm-1.413,38.184q-1.413.873-3.214,1.785t-3.921,1.945L615.5,654.7a12.28,12.28,0,0,1-.847,2.7,3.728,3.728,0,0,1-1.272,1.549,4.922,4.922,0,0,1-1.872.715,15.077,15.077,0,0,1-2.649.2q-1.554,0-3.78-.119t-5.192-.277l-1.2-9.526a54.4,54.4,0,0,0,6.429.477,3.581,3.581,0,0,0,1.024-.119,1.106,1.106,0,0,0,.636-.635,4.348,4.348,0,0,0,.317-1.508q.07-.993.071-2.74h-8.619a59.526,59.526,0,0,1-2.825,16.67h34.262q-.99-1.11-1.907-2.342t-1.767-2.578m-4.238-9.289a70.931,70.931,0,0,1-3.533-14.447H598.76v3.017h17.591q0,10.718-.424,14.844,1.766-.873,3.249-1.707t2.9-1.707M602.364,680.1h4.944v-9.287h-4.944Zm12.927,0h4.944v-9.287h-4.944Zm17.8-9.287h-4.874V680.1h4.874Zm-2.119-29.529q1.906-1.746,3.744-3.73t3.532-4.129h-9.183q.423,2.223.883,4.207a37.5,37.5,0,0,0,1.024,3.652" fill="#fff"/><path d="M686.357,658.668l-16.742,9.525a68.734,68.734,0,0,1-5.227-14.051,48.115,48.115,0,0,1-1.131-14.924,51.545,51.545,0,0,1,1.484-9.129q1.128-4.362,2.613-9.048l11.021,4.128q-1.2,3.734-2.154,7.461a55.448,55.448,0,0,0-1.378,7.422,38.686,38.686,0,0,0-.142,7.383,27.923,27.923,0,0,0,1.555,7.264l6.711-3.811Zm-4.026,19.6a24.41,24.41,0,0,0,12.15-6.469q4.521-4.643,6.359-12.9a42.933,42.933,0,0,0,1.023-8.813,42.25,42.25,0,0,0-.776-8.453,59.414,59.414,0,0,0-2.261-8.3,81.976,81.976,0,0,0-3.426-8.256l10.032-5.953a82.053,82.053,0,0,1,5.439,14.407,70.353,70.353,0,0,1,2.331,13.773,54.456,54.456,0,0,1-.636,12.779,47.285,47.285,0,0,1-3.462,11.432,33.109,33.109,0,0,1-4.379,7.144,29.523,29.523,0,0,1-5.475,5.2,37.1,37.1,0,0,1-6.5,3.769,57.812,57.812,0,0,1-7.524,2.779Z" fill="#fff"/><path d="M739.622,657.4q-3.038-3.172-6.252-6.191t-6.746-5.873l6.075-8.1q3.462,2.779,6.711,5.676t6.217,5.994Zm6.994,7.621a127.191,127.191,0,0,1-4.344,13.852,98.628,98.628,0,0,1-5.4,11.867l-8.618-6.112a105.734,105.734,0,0,0,5.228-11.55,134.5,134.5,0,0,0,4.168-12.819Zm-11.09-44.93q3.39,2.622,6.287,5.2t5.439,5.119l-6.075,8.334q-2.332-2.379-5.228-5t-6.428-5.557Zm25.007,37.151q-.354,5.4-.954,10.041a85.584,85.584,0,0,1-1.59,8.812,66.241,66.241,0,0,1-2.4,7.938,75.277,75.277,0,0,1-3.25,7.422l-8.9-6.668a58.608,58.608,0,0,0,3.355-8.733A78.129,78.129,0,0,0,748.877,667a106.489,106.489,0,0,0,1.165-11.31q.389-6.709.389-15.6V622.152h37.935v35.086H777.487a53.217,53.217,0,0,0,14.553,24.926l-6.358,9.287a38.714,38.714,0,0,1-5.793-5.873,53.743,53.743,0,0,1-5.368-8.178,78.373,78.373,0,0,1-7.842-20.162Zm.353-10.08h16.743V632.551H760.886Z" fill="#fff"/><path d="M800.093,689.466V638.425h10.738v35.4h13.21V620.564h11.3v53.265h13.281v-35.4h10.738v51.041H848.625v-4.922H810.831v4.922Z" fill="#fff"/><path d="M892.282,676.369q-1.272.793-2.3,1.429t-2.3,1.469q-1.27.832-2.614,1.627-3.179,1.983-7.135,4.365-.777-1.507-1.942-4.127a54.024,54.024,0,0,1-2.261-6.232,74.851,74.851,0,0,1-1.942-8.256,67.062,67.062,0,0,1-.99-10.359,93.552,93.552,0,0,1,.6-12.461,97.243,97.243,0,0,1,2.861-14.608l10.808,3.414a98.84,98.84,0,0,0-2.79,14.487,75.919,75.919,0,0,0-.459,11.154,48.749,48.749,0,0,0,.918,8.016q.707,3.258,1.271,5.082l4.38-2.78Zm30.235-25.8-6.5-5.4,3.673-5.478a13.192,13.192,0,0,0-6.569-2.7,16.994,16.994,0,0,0-7.065.715,26.786,26.786,0,0,0-3.426,1.23q-1.732.756-3.708,1.627l-4.1-11.668q3.6-1.43,7.135-2.738a27.567,27.567,0,0,1,7.276-1.629,20.731,20.731,0,0,1,5.263.2,24.417,24.417,0,0,1,5.546,1.668,34.8,34.8,0,0,1,6.11,3.453,58.213,58.213,0,0,1,6.817,5.635Zm-18.65,19.289a20.314,20.314,0,0,0,4.239,4.049,7.527,7.527,0,0,0,9.573.08,21.853,21.853,0,0,0,4.273-4.049l8.477,8.256q-7.913,9.765-17.943,9.764a16.718,16.718,0,0,1-9.113-2.739,34.644,34.644,0,0,1-7.771-6.787Z" fill="#fff"/><path d="M991.183,633.822h-5.651q-.849,21.907-5.44,34.768A56.43,56.43,0,0,1,965.469,690.9l-8.76-6.668A48.44,48.44,0,0,0,970.131,665.1a69.4,69.4,0,0,0,3.285-13.255,149.013,149.013,0,0,0,1.589-18.02H962.5v8.018q-.99,2.776-2.084,5.515t-2.436,5.36a18.4,18.4,0,0,1,1.483,1.984,60.516,60.516,0,0,0,5.016-9.764l6.852,4.285q-1.414,3.335-3.108,6.51T964.48,662l1.483,2.381q.493.714.848,1.191a4.527,4.527,0,0,1,.494.793l-6.711,6.748-5.439-8.336v26.2h-9.961V668.908a38.261,38.261,0,0,1-5.864,5.238l-2.189-12.621a40.862,40.862,0,0,0,14.341-19.685H938.907v-10.8h6.287V619.851h9.961v11.192h6.64v-7.7h40.337v17.385q0,11.353-.212,19.209-.21,7.7-.918,13.3a54.855,54.855,0,0,1-1.625,8.611,10.606,10.606,0,0,1-2.543,4.764,7.311,7.311,0,0,1-3.426,2.223,18.9,18.9,0,0,1-4.7.476q-1.413,0-4.238-.277t-7.206-.756l-.212-11.191q3.32.557,5.581.834a30.886,30.886,0,0,0,3.532.277,3.146,3.146,0,0,0,2.826-1.588,10.862,10.862,0,0,0,.919-2.857,44.914,44.914,0,0,0,.706-5.319q.281-3.333.423-8.1t.142-11.192Z" fill="#fff"/><path d="M1039.714,652.714h-18.579v38.022h-10.526V620.962h29.1Zm-8.336-22.7h-10.243V633.5h10.243Zm0,11.272h-10.243V644.7h10.243ZM1059,680.5a5.321,5.321,0,0,0,2.685-.4q.423-.316.424-2.777V652.714h-19.215V620.962h29.74v55.565q0,1.828-.035,3.215t-.107,2.341a16.523,16.523,0,0,1-.564,3.85,7.414,7.414,0,0,1-1.131,2.58,3.694,3.694,0,0,1-.883.715,6.077,6.077,0,0,1-1.306.557,11.346,11.346,0,0,1-3.179.673q-1.7.121-4.663.12-1.837,0-3.673-.08t-3.886-.237l-.141-1.51h-8.831v-13.1h-5.792a24.062,24.062,0,0,1-2.826,7.582,32.286,32.286,0,0,1-5.369,6.787l-7.418-5.4a38.314,38.314,0,0,0,4.133-4.6,17.183,17.183,0,0,0,2.438-4.367h-5.44v-7.381h6.429v-4.525h-5.581v-7.541h33.414v7.541h-4.946v4.525h5.793v7.381h-5.793v4.525q1.978.162,3.392.238t2.331.079m-19.85-12.223h5.086v-4.525h-5.086Zm12.008-34.77h10.95v-3.492h-10.95Zm0,11.194h10.95v-3.414h-10.95Z" fill="#fff"/><path d="M1127.029,630.249h6.994v-8.335h9.537v17.543h-18.025l8.064,1.826q-.142.636-.389,1.9t-.389,1.986h11.516v9.049h-13.352V657.4h11.585v7.3h-11.585v3.173h11.585V675.1h-11.585v3.174h13.988v9.766h-33.556v3.015H1100.4v-20.4l-4.874-2.78v23.1h-10.244V658.826q-1.2,2.223-2.4,4.088a41.213,41.213,0,0,1-2.473,3.453l-2.331-15.082a70.875,70.875,0,0,0,6.359-13.575,136.753,136.753,0,0,0,4.38-18.177l10.1,2.064a132.482,132.482,0,0,1-3.39,16.033V661.6a143.448,143.448,0,0,0,7.628-22.148h-3.532V621.914h9.537v8.335h7.135V619.771h10.738Zm-5.581,14.924q.354-1.113.671-2.58t.671-3.136h-16.742l8.266,1.826q-.283.951-.5,1.945t-.494,1.945ZM1111.417,657.4h9.042v-3.174h-9.042Zm0,10.478h9.042V664.7h-9.042Zm0,10.4h9.042V675.1h-9.042Z" fill="#fff"/><path d="M1188.348,665.732h-10.88l-1.766-39.69h14.411Zm.706,18.258h-12.292V672.082h12.292Z" fill="#fff"/></g></svg>