<?xml version="1.0" encoding="UTF-8"?>
<svg xmlns="http://www.w3.org/2000/svg" viewBox="0 0 163.43 28.56">
  <defs>
    <style>
      .cls-1 {
        fill: #f18d09;
      }

      .cls-2 {
        isolation: isolate;
      }

      .cls-3 {
        fill: #231815;
      }

      .cls-4 {
        fill: #fff;
      }

      .cls-5 {
        fill: #f29014;
        mix-blend-mode: multiply;
      }
    </style>
  </defs>
  <g class="cls-2">
    <g id="_レイヤー_2" data-name="レイヤー_2">
      <g id="_テキスト_xFF08_B_xFF09_" data-name="テキスト_xFF08_B_xFF09_">
        <g>
          <rect class="cls-1" width="163.43" height="17.49"/>
          <rect class="cls-5" width="8.29" height="17.49"/>
          <g>
            <path class="cls-3" d="M11.51,26.22c-.07,1.13-.2,1.76-.46,2.28-.18-.27-.38-.47-.6-.63.34-.77.43-1.66.43-4.62,0-.47,0-.74-.04-1.02.2.03.38.04.74.04h.6c.35,0,.54,0,.67-.04-.01.16-.02.29-.02.64v1.15c.56-.27.97-.57,1.3-.97h-.24c-.37,0-.58,0-.83.04v-.76c.22.03.46.04.85.04h2.19c.4,0,.69-.01.85-.04v.76c-.24-.03-.46-.04-.83-.04h-.39c.08.77.12,1.1.21,1.48.24-.3.43-.61.53-.84l.6.45q-.06.07-.16.22c-.23.35-.46.62-.74.92.27.74.55,1.19,1.05,1.7-.19.27-.29.46-.43.83-.57-.68-.9-1.25-1.2-2.11-.27-.74-.38-1.31-.55-2.66h-.1c-.2.31-.29.41-.51.63.22.24.39.55.55.94.25.66.42,1.56.42,2.3,0,.56-.08,1-.2,1.18-.15.21-.42.29-.92.29-.13,0-.25,0-.5-.02-.01-.27-.05-.43-.15-.71.27.05.44.07.62.07.21,0,.31-.05.35-.17.05-.14.08-.42.08-.84,0-.18,0-.29-.02-.47-.45.65-.82,1.02-1.53,1.5-.09-.17-.14-.24-.27-.4v.38c0,.53-.19.67-.88.67-.04,0-.14,0-.28,0,0-.32-.04-.47-.15-.71.15.03.31.04.46.04.13,0,.17-.04.17-.18v-1.34h-.65ZM11.56,24.6q0,.71-.01.97h.62v-.97h-.61ZM12.17,22.96h-.6v.99h.6v-.99ZM12.84,25.5c.53-.29.89-.57,1.33-1.04-.08-.15-.13-.22-.22-.34-.29.23-.5.36-.86.57-.11-.18-.14-.25-.26-.41v1.21ZM12.84,27.07c.69-.43,1.2-.91,1.68-1.58-.04-.22-.07-.31-.11-.47-.34.41-.71.74-1.3,1.11-.1-.18-.15-.27-.27-.41v1.34Z"/>
            <path class="cls-3" d="M18.49,23.91c-.37,0-.64.01-.87.04v-.83c.27.04.48.05.86.05h.43v-.39c0-.26-.01-.48-.05-.74h.89c-.03.2-.04.43-.04.78v.36h1.97v-.32c0-.4,0-.59-.04-.81h.87c-.04.24-.05.43-.05.81v.32h.36c.36,0,.58-.01.86-.05v.83c-.23-.03-.48-.04-.86-.04h-.36v1.86h.54c.38,0,.6-.01.86-.04v.83c-.26-.04-.48-.05-.86-.05h-.54v1.06c0,.41.01.64.05.9h-.87c.03-.22.04-.49.04-.9v-1.06h-2.11c-.1.5-.26.88-.52,1.24-.22.3-.44.5-.88.81-.18-.3-.31-.45-.6-.66.43-.24.66-.43.88-.71.15-.2.25-.4.32-.69h-.48c-.44,0-.53,0-.85.05v-.83c.25.03.46.04.83.04h.6c.04-.34.05-.79.05-1.37v-.48h-.43ZM19.72,24.33c0,.53-.01.97-.05,1.44h2.02v-1.86h-1.97v.41ZM20.97,25.69c-.39-.55-.64-.82-1.13-1.23l.57-.46c.48.41.76.69,1.14,1.16l-.58.53Z"/>
            <path class="cls-3" d="M32.58,21.95l-5.31,6.58h-1.03l5.3-6.58h1.04Z"/>
            <path class="cls-3" d="M35.92,26.22c-.07,1.13-.2,1.76-.46,2.28-.18-.27-.38-.47-.6-.63.34-.77.43-1.66.43-4.62,0-.47,0-.74-.04-1.02.2.03.38.04.74.04h.6c.35,0,.54,0,.67-.04-.01.16-.02.29-.02.64v1.15c.56-.27.97-.57,1.3-.97h-.24c-.37,0-.58,0-.83.04v-.76c.22.03.46.04.85.04h2.19c.41,0,.69-.01.86-.04v.76c-.24-.03-.46-.04-.83-.04h-.39c.08.77.12,1.1.21,1.48.24-.3.43-.61.53-.84l.6.45q-.06.07-.16.22c-.23.35-.46.62-.74.92.27.74.55,1.19,1.05,1.7-.19.27-.29.46-.43.83-.57-.68-.9-1.25-1.2-2.11-.27-.74-.38-1.31-.55-2.66h-.1c-.2.31-.29.41-.51.63.22.24.39.55.55.94.25.66.42,1.56.42,2.3,0,.56-.08,1-.2,1.18-.15.21-.42.29-.92.29-.13,0-.25,0-.5-.02-.01-.27-.05-.43-.15-.71.27.05.44.07.62.07.21,0,.31-.05.35-.17.05-.14.08-.42.08-.84,0-.18,0-.29-.02-.47-.45.65-.82,1.02-1.53,1.5-.09-.17-.14-.24-.27-.4v.38c0,.53-.19.67-.88.67-.04,0-.14,0-.28,0,0-.32-.04-.47-.15-.71.15.03.31.04.46.04.13,0,.17-.04.17-.18v-1.34h-.65ZM35.96,24.6q0,.71-.01.97h.62v-.97h-.61ZM36.57,22.96h-.6v.99h.6v-.99ZM37.24,25.5c.53-.29.89-.57,1.33-1.04-.08-.15-.13-.22-.22-.34-.29.23-.5.36-.86.57-.11-.18-.14-.25-.26-.41v1.21ZM37.24,27.07c.69-.43,1.2-.91,1.68-1.58-.04-.22-.07-.31-.11-.47-.34.41-.71.74-1.3,1.11-.1-.18-.15-.27-.27-.41v1.34Z"/>
            <path class="cls-3" d="M43.12,24.64c-.34,0-.52,0-.72.02.02-.17.03-.34.03-.61v-.81c0-.27,0-.42-.03-.59.2.02.43.03.78.03h1.46c0-.3-.02-.46-.05-.67h.86c-.03.2-.04.36-.04.67h1.58c.36,0,.57,0,.78-.03-.02.17-.03.31-.03.59v.81c0,.29,0,.43.03.61-.2-.01-.42-.02-.72-.02h-1.64v.53h1.93c.34,0,.52,0,.71-.03-.02.2-.03.36-.03.68v1c0,.34,0,.53.04.74h-.81v-.33h-1.84v.36c0,.46,0,.67.04.92h-.86c.03-.26.05-.53.05-.92v-.35h-1.74v.33h-.8c.02-.24.04-.46.04-.74v-1c0-.27,0-.47-.03-.67.2.01.38.02.69.02h1.84v-.53h-1.51ZM42.89,25.83v.71h1.74v-.71h-1.74ZM43.18,23.35v.65h1.45v-.65h-1.45ZM45.4,24h1.57v-.65h-1.57v.65ZM45.4,26.53h1.84v-.71h-1.84v.71Z"/>
            <path class="cls-3" d="M57.01,21.95l-5.31,6.58h-1.03l5.3-6.58h1.04Z"/>
            <path class="cls-3" d="M60.93,27.5v.49h-.9c.02-.17.03-.34.03-.6v-4.01c0-.27,0-.4-.03-.59.17.01.32.02.6.02h3.98c.3,0,.43,0,.59-.02-.01.18-.02.32-.02.58v4.01c0,.26,0,.45.03.61h-.9v-.48h-3.36ZM64.29,23.6h-3.36v3.1h3.36v-3.1Z"/>
            <path class="cls-3" d="M66.28,24.73c.31.04.44.05,1.13.05h3.73c.69,0,.83,0,1.13-.05v.97c-.28-.04-.36-.04-1.14-.04h-3.72c-.79,0-.86,0-1.14.04v-.97Z"/>
            <path class="cls-3" d="M77.64,28.14c-.58-.71-1.39-1.5-2.15-2.08-.79.88-1.6,1.5-2.67,2.02-.2-.36-.28-.48-.57-.78.54-.21.88-.4,1.4-.77,1.06-.74,1.9-1.76,2.35-2.85l.08-.18q-.11,0-2.32.04c-.34,0-.53.02-.76.06l-.03-.9c.2.04.33.04.62.04h.17l2.46-.04c.39,0,.45-.01.62-.08l.46.48c-.09.11-.15.2-.22.38-.32.75-.67,1.36-1.09,1.93.44.29.82.59,1.29,1.02q.18.15,1.02.97l-.67.73Z"/>
            <path class="cls-3" d="M79.72,28.22c.04-.22.04-.41.04-.79v-4.49c0-.34-.01-.53-.04-.71h.96c-.03.21-.03.3-.03.74v1.3c.96.34,2.06.85,3.18,1.48l-.49.83c-.58-.4-1.31-.8-2.48-1.34-.16-.08-.18-.08-.24-.12.02.2.03.28.03.48v1.85c0,.36,0,.55.03.78h-.96Z"/>
            <path class="cls-3" d="M86.35,24.94s-.02.08-.03.1c0,.01-.01.06-.03.12-.22,1.03-.66,2.04-1.18,2.72-.33-.24-.48-.32-.81-.46.54-.58,1.09-1.83,1.18-2.7l.86.21ZM89.54,23.44c.15,0,.22,0,.38,0-.34-.11-.57-.41-.57-.77,0-.44.37-.8.81-.8s.81.36.81.8c0,.34-.21.64-.53.76v.83c-.23-.03-.34-.03-.89-.03h-1.62v3.4c0,.38,0,.6.03.78h-.95c.03-.19.04-.4.04-.79v-3.39h-1.55c-.54,0-.65,0-.88.03v-.86c.25.04.38.05.9.05h1.54v-.39c0-.4-.01-.55-.04-.72h.95c-.02.19-.03.29-.03.74v.37h1.6ZM89.46,24.73c.22.91.78,2.12,1.24,2.67-.36.17-.49.26-.8.48-.51-.78-.82-1.51-1.15-2.62-.06-.19-.06-.22-.11-.32l.83-.21ZM89.71,22.67c0,.25.2.46.46.46s.46-.21.46-.46-.2-.46-.46-.46-.46.2-.46.46Z"/>
            <path class="cls-3" d="M91.06,24.73c.31.04.44.05,1.13.05h3.73c.69,0,.83,0,1.13-.05v.97c-.28-.04-.36-.04-1.14-.04h-3.72c-.79,0-.86,0-1.14.04v-.97Z"/>
            <path class="cls-3" d="M103.4,23.42c-.07.11-.1.17-.18.42-.32,1.06-.82,2.01-1.44,2.7-.64.74-1.41,1.28-2.49,1.78-.2-.35-.29-.47-.59-.74.7-.29,1.09-.5,1.53-.83,1-.74,1.66-1.7,2.04-2.96l-2.11.04c-.43.68-.97,1.28-1.64,1.79-.21-.29-.31-.38-.68-.6.8-.55,1.3-1.11,1.81-2.03.22-.4.33-.67.36-.92l.96.19q-.04.06-.12.22s-.02.04-.09.2t-.09.18-.11.22c.09,0,.2-.01.34-.01l1.53-.02c.27,0,.35-.01.51-.07l.45.44Z"/>
            <path class="cls-3" d="M112.71,21.95l-5.31,6.58h-1.03l5.3-6.58h1.04Z"/>
            <path class="cls-3" d="M121.01,23.19c-.06.12-.08.17-.12.32-.35,1.34-.76,2.18-1.44,2.93-.69.77-1.44,1.28-2.61,1.79-.2-.38-.29-.51-.62-.83.62-.2,1.01-.38,1.53-.71,1.09-.71,1.78-1.7,2.12-3.05h-3.33c-.47,0-.63,0-.88.04v-.91c.27.04.42.05.9.05h3.21c.39,0,.53-.01.75-.07l.48.46Z"/>
            <path class="cls-3" d="M127.37,24.52c-.07.13-.11.22-.2.44-.37,1.03-.9,1.81-1.62,2.37-.5.38-.95.62-1.84.95-.15-.35-.24-.47-.54-.81.85-.22,1.41-.48,1.95-.92.52-.43.82-.86,1.13-1.64h-3.41c-.47,0-.64,0-.9.04v-.85c.27.04.42.05.91.05h3.33c.43,0,.57-.01.79-.06l.4.45ZM122.53,22.4c.23.04.38.05.82.05h2.44c.44,0,.59,0,.82-.05v.86c-.22-.03-.35-.04-.8-.04h-2.47c-.46,0-.59,0-.81.04v-.86Z"/>
            <path class="cls-3" d="M128.03,27.07c.6-.04,1.44-.24,2.07-.52.88-.38,1.53-.92,2.08-1.72.31-.45.5-.83.71-1.4.27.33.38.43.74.69-.6,1.28-1.26,2.11-2.22,2.75-.71.48-1.58.82-2.67,1.05-.28.06-.3.06-.46.12l-.26-.97ZM128.63,22.72c.83.52,1.27.84,1.81,1.35l-.6.76c-.56-.6-1.13-1.06-1.79-1.42l.58-.69Z"/>
            <path class="cls-3" d="M139.78,23.42c-.07.11-.1.17-.18.42-.32,1.06-.82,2.01-1.44,2.7-.64.74-1.41,1.28-2.49,1.78-.2-.35-.29-.47-.59-.74.7-.29,1.09-.5,1.53-.83,1-.74,1.66-1.7,2.04-2.96l-2.11.04c-.43.68-.97,1.28-1.64,1.79-.21-.29-.31-.38-.68-.6.8-.55,1.3-1.11,1.81-2.03.22-.4.33-.67.36-.92l.96.19q-.04.06-.12.22s-.02.04-.09.2t-.09.18-.11.22c.09,0,.2-.01.34-.01l1.53-.02c.27,0,.35-.01.51-.07l.45.44Z"/>
            <path class="cls-3" d="M146.23,23.19c-.06.12-.08.17-.12.32-.35,1.34-.76,2.18-1.44,2.93-.69.77-1.44,1.28-2.61,1.79-.2-.38-.29-.51-.62-.83.62-.2,1.01-.38,1.53-.71,1.09-.71,1.78-1.7,2.12-3.05h-3.33c-.47,0-.63,0-.88.04v-.91c.27.04.42.05.9.05h3.21c.39,0,.53-.01.75-.07l.48.46Z"/>
            <path class="cls-3" d="M148.65,22.48q-.03.2-.07,1.57c-.05,1.37-.2,2.16-.57,2.88-.24.48-.5.84-.97,1.3-.27-.35-.38-.46-.71-.68.34-.28.51-.47.72-.81.5-.8.67-1.71.67-3.67,0-.38,0-.45-.03-.64l.95.05ZM150.51,22.39c-.03.2-.04.32-.05.67l-.04,3.99c.49-.23.77-.44,1.07-.8.32-.38.53-.76.69-1.28.24.31.34.41.66.66-.29.69-.65,1.22-1.12,1.63-.4.34-.76.55-1.49.84-.15.06-.21.08-.3.13l-.45-.48c.05-.2.06-.36.06-.74l.04-3.95v-.21c0-.18,0-.33-.03-.46h.95Z"/>
            <path class="cls-3" d="M154.11,28.22c.04-.22.04-.41.04-.79v-4.49c0-.34-.01-.53-.04-.71h.96c-.03.21-.03.3-.03.74v1.3c.96.34,2.06.85,3.18,1.48l-.49.83c-.58-.4-1.31-.8-2.48-1.34-.16-.08-.18-.08-.24-.12.02.2.03.28.03.48v1.85c0,.36,0,.55.03.78h-.96Z"/>
          </g>
          <g>
            <path class="cls-4" d="M69.6,9.75l.38.39s.1.1.1.15c0,.03,0,.04-.03.05-.04.02-.25.04-.29.06-.38.36-.91.75-1.29,1.03.62.45,1.15.74,2.32,1.11l-.76.94c-1.72-.74-2.34-1.21-3.09-1.99l-.07.8c-1.73.52-2.3.66-3.81.92-.38.06-.44.1-.49.21-.04.08-.08.09-.11.09-.07,0-.1-.06-.14-.22l-.29-1.06c.37-.01.95-.1,1.27-.14v-2.34h-1.61v-.98h1.88v-4.43h6.42v1.01h-5.24v.56h4.71v.86h-4.71v.55h4.71v.87h-4.71v.57h6.17v.98h-1.3ZM65.75,9.75h-1.25v2.14c.76-.13,1.66-.29,2.35-.48-.38-.43-.66-.82-1.1-1.66ZM66.97,9.75c.28.45.44.67.73.99.38-.24.82-.68,1.03-.99h-1.77Z"/>
            <path class="cls-4" d="M80.91,10.68c-.36-.17-.66-.32-1.02-.54v3.29h-1.25v-.36h-3.36v.36h-1.21v-3.23c-.45.3-.71.45-1.1.62l-.87-.95c2.34-1.09,3.67-2.7,4.21-4.2l1.27.29s.15.05.15.14c0,.14-.11.16-.18.18.67,1.34,2.16,2.54,4.19,3.32l-.83,1.08ZM76.07,4.81s-.21.04-.24.06c-.71.97-1.38,1.62-2.22,2.25l-1.02-.74c.98-.76,1.66-1.5,2.29-2.38l1.14.62c.06.03.09.08.09.11s-.02.07-.04.08ZM76.88,7.27c-.78,1.12-1.4,1.72-1.81,2.12h3.67c-1.1-.88-1.5-1.45-1.86-2.12ZM78.64,10.54h-3.36v1.4h3.36v-1.4ZM80.21,7.04c-.64-.47-1.41-1.12-2.27-2.32l.93-.74c.49.61,1.15,1.36,2.29,2.1l-.95.96Z"/>
            <path class="cls-4" d="M84.92,4.66c-.13.1-.14.16-.14.22v3.88c0,1.33-.16,2.06-.39,2.94-.19.72-.52,1.25-.8,1.71l-1.29-.42c.39-.55,1.17-1.68,1.17-3.88v-4.74l1.27.02c.14,0,.26.03.26.14,0,.03,0,.06-.09.13ZM87.96,5.1c-.12.16-.14.17-.14.24v7.05h-1.28v-7.56l1.25.1c.14.01.21.04.21.13,0,.02-.01.03-.03.05ZM90.96,4.52c-.13.09-.13.15-.13.18v8.61h-1.23V4.16l1.2.09c.2.01.27.05.27.14,0,.03,0,.07-.11.13Z"/>
            <path class="cls-4" d="M99.25,13.31v-.56h-4.62v.56h-1.25v-7.97h2.01c.26-.57.33-.99.38-1.24l1.47.14c.1.01.16.05.16.12s-.06.1-.1.12c-.2.11-.23.12-.28.2-.02.03-.25.56-.3.66h3.77v7.97h-1.24ZM99.25,6.44h-4.62v.97h4.62v-.97ZM99.25,8.45h-4.62v1.07h4.62v-1.07ZM99.25,10.55h-4.62v1.15h4.62v-1.15Z"/>
            <path class="cls-4" d="M110.77,10.79c-1.49-.86-2.04-1.76-2.33-2.39-.53,1.1-1.51,1.83-2.37,2.29l-.76-.84c1.17-.54,2.26-1.53,2.4-2.68h-1.24c-.61,1.22-1.54,2.4-3.27,3.39l-.79-.82c.66-.26,1.22-.6,1.88-1.25-.15-.2-.42-.54-.81-.82-.09.11-.1.12-.19.23l-.93-.7c.93-.8,1.61-1.84,1.93-3.03l.96.16c.05.01.26.04.26.15,0,.06-.06.09-.12.11-.11.04-.12.04-.14.08-.04.11-.1.3-.14.41h1.44l.44.51c-.04.24-.08.37-.15.62h1.04c.02-.32.02-.61.02-.72,0-.59-.02-.88-.06-1.25l1.07.09c.23.02.31.04.31.14q0,.05-.13.2c-.06.06-.06.08-.06.24,0,.44-.02.87-.05,1.3h2.43v.96h-2.3c.15,1.12,1.08,2.11,2.44,2.74l-.77.88ZM104.8,11.42c-.31.74-.82,1.4-1.44,1.91l-.99-.68c.97-.7,1.35-1.38,1.57-1.9l.99.37c.06.02.19.08.19.16,0,.1-.03.11-.32.14ZM104.22,6.72c-.13.18-.17.25-.29.41.37.25.58.45.88.78.11-.15.21-.28.3-.44-.25-.28-.56-.54-.89-.74ZM104.61,6.09l-.02.04c.33.2.6.4.9.67.13-.28.2-.45.26-.71h-1.14ZM105.65,13.25c0-.55-.06-1.03-.27-1.79l1.01-.22c.1.26.26.7.34,1.78l-1.09.23ZM107.88,13.06c-.15-.66-.28-1.09-.51-1.65l.97-.29c.31.66.44,1.14.54,1.69l-1,.25ZM110.52,13.35c-.4-.76-.79-1.28-1.38-1.88l.83-.68c.61.53,1.12,1.17,1.52,1.86l-.97.7ZM110.33,5.93c-.26-.38-.52-.7-.87-1.01l.77-.61c.33.3.57.55.9,1.04l-.8.58Z"/>
            <path class="cls-4" d="M121.52,13.4c-.86-.38-1.45-.78-2.22-1.64-.8.8-1.42,1.21-2.43,1.68l-.93-.83v.84h-1.26v-2.92c-.56.19-.62.22-1.04.36-.11.03-.13.04-.17.12-.12.15-.13.17-.18.17-.06,0-.11-.09-.15-.3l-.24-1.3c.51-.09,1.25-.27,1.78-.41v-2.22h-.62c-.16.68-.21.82-.29,1l-1.26-.17c.37-.87.66-2.13.72-3.2l1.14.18c.06.01.28.05.28.17,0,.04-.03.06-.05.08-.02.02-.18.13-.19.14-.01.02-.09.52-.1.61h.38v-1.68l1.17.05c.26.01.3.05.3.12,0,.04-.03.08-.07.11-.02.02-.15.14-.15.17v1.23h1.26v.89c.27-.54.57-1.2.89-2.56l1.25.19c.1.01.33.05.33.18,0,.04-.03.08-.09.09-.19.08-.24.09-.27.16-.14.44-.17.55-.37.98h3.22v1.25h-.86c-.18,1.54-.45,2.53-1.23,3.82.7.75,1.34,1.12,2.37,1.48l-.94,1.15ZM115.94,6.94v1.87c.15-.04.62-.17.97-.3l-.72-.41c.35-.4.54-.66.86-1.16h-1.11ZM117.69,8.14c-.12.17-.23.34-.42.59l-.16-.1v.99c-.29.12-.82.31-1.17.44v2.37c1.44-.59,2.03-1.08,2.64-1.7-.47-.88-.71-1.55-.88-2.6ZM118.74,6.94c.1,1.43.35,2.09.62,2.69.46-.97.61-1.8.66-2.69h-1.27Z"/>
            <path class="cls-4" d="M128.66,9c-.05.13-.13.28-.2.39h3.92c-.01,1.1-.21,2.68-.59,3.27-.32.51-.85.66-1.71.67l-.43-1.06c-.31.33-.69.71-1.32,1.13l-.81-.54c1.17-.69,2.07-1.85,2.46-2.58h-.54c-.15.27-.47.85-1.06,1.41-.52.51-1.09.95-1.69,1.34l-.84-.59c1.42-.65,2.35-1.82,2.56-2.15h-.5c-.55.65-.98,1.02-1.44,1.37l-.85-.57c.3-.18.53-.34.95-.71-.73.28-1.92.68-2.23.75-.4.1-.44.11-.51.18-.12.13-.15.17-.21.17-.02,0-.06-.02-.08-.08l-.19-1.21c.34-.06.82-.18,1.2-.28v-2.51h-1.04v-1.11h1.04v-2.14l1.25.1c.06.01.14.04.14.12s-.05.12-.12.17c-.05.03-.14.09-.14.16v1.59h1.12v1.11h-1.12v2.2c.38-.11.73-.22,1.09-.34v.89c.38-.41.57-.7.79-1.15h-1.02v-.87h5.98v.87h-3.86ZM127.34,7.72v-3.39h4.37v3.39h-4.37ZM130.66,5.23h-2.28v.45h2.28v-.45ZM130.66,6.45h-2.28v.46h2.28v-.46ZM130.99,10.28c-.19.45-.44.99-1.24,1.88.31.06.54.06.58.06.28,0,.45-.06.57-.3.26-.51.31-1.08.34-1.65h-.26Z"/>
          </g>
        </g>
      </g>
    </g>
  </g>
</svg>