<?xml version="1.0" encoding="UTF-8"?>
<svg xmlns="http://www.w3.org/2000/svg" viewBox="0 0 162.24 37.21">
  <defs>
    <style>
      .cls-1 {
        fill: #f18d09;
      }

      .cls-2 {
        isolation: isolate;
      }

      .cls-3 {
        fill: #231815;
      }

      .cls-4 {
        fill: #fff;
      }

      .cls-5 {
        fill: #f29014;
        mix-blend-mode: multiply;
      }
    </style>
  </defs>
  <g class="cls-2">
    <g id="_レイヤー_2" data-name="レイヤー_2">
      <g id="_テキスト_xFF08_B_xFF09_" data-name="テキスト_xFF08_B_xFF09_">
        <g>
          <rect class="cls-1" width="162.24" height="17.49"/>
          <rect class="cls-5" width="8.29" height="17.49"/>
          <g>
            <path class="cls-3" d="M37.22,26.84c-.05.04-.14.12-.4.35-.18.16-.41.32-.67.48.59.31,1.17.5,1.83.62-.17.27-.25.46-.37.81-1.05-.27-1.83-.64-2.52-1.22-.5-.43-.78-.79-1.07-1.39h-.61v1.59c.61-.13.92-.22,1.41-.38v.7c-.75.25-1.49.43-2.73.67-.17.04-.19.04-.32.07l-.15-.78c.22,0,.53-.04.99-.13v-1.74h-.38c-.29,0-.48,0-.71.04v-.76c.15.03.41.04.73.04h.36v-2.21c0-.38,0-.5-.03-.69.21.03.42.04.76.04h3.14c.41,0,.6,0,.81-.04v.74c-.22-.03-.38-.04-.8-.04h-3.07v.35h2.97c.28,0,.5-.01.64-.04v.64c-.14-.02-.47-.03-.64-.03h-2.97v.34h2.97c.28,0,.51-.01.64-.04v.64c-.2-.03-.36-.04-.64-.04h-2.97v.37h3.73c.31,0,.5-.01.69-.04v.76c-.18-.03-.38-.04-.63-.04h-.66l.66.34ZM34.82,26.5c.2.36.38.55.73.81.35-.24.74-.57.94-.81h-1.67Z"/>
            <path class="cls-3" d="M42.43,24.09c.34.53.68.9,1.22,1.32.54.43,1.04.71,1.74.97-.15.22-.29.5-.38.74-.4-.18-.53-.25-.87-.46v1.73c0,.33.01.54.04.76h-.82v-.34h-2.63v.34h-.81c.03-.22.04-.46.04-.76v-1.71c-.29.17-.44.26-.83.45-.12-.3-.2-.46-.38-.71.65-.26,1.16-.55,1.66-.94.53-.42.89-.83,1.22-1.39h.81ZM41.57,23.15c-.32.44-.56.69-1.02,1.05-.33.27-.48.35-1.15.71-.15-.26-.28-.42-.49-.63.55-.27.94-.48,1.26-.74.37-.29.57-.53.76-.85l.63.46ZM43.45,26.19c-.57-.43-1.03-.9-1.41-1.44-.36.53-.85,1.02-1.39,1.44h2.8ZM40.72,28.11h2.63v-1.24h-2.63v1.24ZM43.11,22.67c.34.45.6.69,1.08,1.02.26.17.47.29,1.01.53-.18.22-.32.46-.44.7-1.05-.59-1.51-.96-2.24-1.8l.6-.46Z"/>
            <path class="cls-3" d="M47.48,25.1c0,1.31-.11,2.11-.38,2.79-.2.5-.39.85-.68,1.24-.2-.27-.37-.43-.65-.66.29-.38.44-.62.59-1.04.12-.3.2-.62.24-.97.03-.27.08-1.1.08-1.41v-1.51c0-.29-.01-.5-.05-.74h.9c-.04.18-.04.35-.04.76v1.55ZM49.7,23.1c-.03.25-.04.45-.04.81v3.59c0,.42.01.67.04.9h-.9c.03-.24.04-.48.04-.89v-3.59c0-.38-.01-.59-.04-.81h.9ZM51.94,22.78c-.04.23-.05.43-.05.83v4.54c0,.46.01.69.05.94h-.9c.03-.24.04-.5.04-.94v-4.54c0-.39,0-.59-.04-.83h.9Z"/>
            <path class="cls-3" d="M53.08,28.69c.51-.41.64-.57.87-1.02l.67.3c-.32.62-.48.83-.92,1.24l-.62-.53ZM55.23,27.17c0,.37-.18.49-.74.49-.14,0-.26,0-.62-.04-.04-.26-.06-.34-.17-.58.23.04.54.07.72.07.1,0,.12-.03.12-.13v-.26q-.78.06-.88.06c-.16.01-.22.01-.44.04l-.1-.64c.12.01.22.02.35.02s.82-.01,1.07-.03c0-.11-.01-.16-.03-.25h.13c.17-.06.3-.13.41-.2h-1.3c-.16,0-.29,0-.41.03v-.55c.15.01.22.02.44.02h1.75c.25,0,.29,0,.39-.01l.3.29c-.32.22-.58.36-1,.54v.08c.37-.03.55-.05,1.07-.12v.51c-.51.07-.68.08-1.07.12v.51ZM54.51,23.06c0-.14,0-.22-.04-.37h.78c-.02.12-.03.22-.03.36v.1h.55c.25,0,.46-.01.65-.04v.59c-.17-.01-.29-.02-.59-.02h-2.04c-.27,0-.46,0-.64.03v-.6c.2.02.4.04.67.04h.68v-.09ZM53.51,24.24c0-.13,0-.23-.02-.34.1.01.2.02.41.02h1.9c.13,0,.25,0,.37-.01-.01.16-.01.18-.01.32v.49c0,.11,0,.25.01.33-.11,0-.22-.01-.35-.01h-1.89c-.14,0-.31,0-.43.01.01-.12.02-.2.02-.34v-.47ZM54.2,24.6h1.27v-.25h-1.27v.25ZM55.15,29.12v-.25c0-.29-.04-.67-.1-1.06l.71-.07c.11.49.15.81.16,1.32l-.77.06ZM56.63,24.74c.22.2.3.28.44.41.04-.21.06-.35.08-.73h-.24c-.18,0-.31,0-.46.04v-.76c.14.02.25.03.46.03h.26v-.22c0-.1,0-.17,0-.22,0-.25-.01-.42-.04-.57h.77c-.03.15-.04.25-.04.51,0,.18,0,.26,0,.5h.41c.25,0,.41,0,.59-.04-.01.14-.03.42-.03.67,0,.22.04.99.08,1.38.03.38.13.85.18.85.05,0,.11-.46.11-1.04.21.16.32.23.49.31-.06.76-.12,1.08-.23,1.3-.1.19-.24.29-.39.29-.22,0-.43-.2-.59-.56-.21-.48-.3-1.2-.32-2.46h-.34c-.04.53-.09.88-.22,1.3.24.27.35.4.64.76l-.48.62c-.22-.34-.29-.43-.46-.65-.28.53-.55.85-1.04,1.23-.15-.23-.27-.36-.5-.54.54-.35.8-.67,1.06-1.25-.21-.24-.32-.34-.64-.62l.44-.54ZM56.82,29.12c-.1-.62-.15-.78-.34-1.26l.7-.17c.2.48.29.76.4,1.24l-.76.2ZM58.78,29.15c-.27-.53-.46-.81-.88-1.32l.59-.35c.53.59.7.81.96,1.23l-.67.45Z"/>
            <path class="cls-3" d="M66.42,25.14q-.04.11-.15.37c-.31.76-.59,1.27-.95,1.75.13.25.27.44.42.6.12.13.27.25.31.25.03,0,.06-.04.09-.13q.05-.16.13-.82c.24.24.33.31.63.47-.16.95-.41,1.36-.79,1.36-.36,0-.91-.47-1.32-1.13-.53.52-1.07.92-1.69,1.23-.22-.32-.29-.41-.53-.61.74-.3,1.35-.72,1.88-1.29-.29-.72-.45-1.56-.53-2.79h-2.17q0,.67-.01.92h1.29c.24,0,.35,0,.5-.03-.01.13-.03.32-.04.6-.07,1.26-.11,1.63-.23,1.93-.11.28-.37.38-.9.38-.2,0-.31,0-.53-.02-.04-.3-.08-.47-.18-.74.37.05.48.06.68.06.22,0,.28-.04.31-.22.06-.25.09-.7.11-1.27h-1.02c-.05.8-.11,1.28-.22,1.76-.12.56-.27.88-.57,1.37-.22-.28-.36-.41-.61-.59.25-.38.39-.71.48-1.11.14-.59.21-1.52.21-2.77,0-.54,0-.71-.04-1,.25.02.54.04.9.04h2.03c0-.06,0-.24-.02-.55,0-.26,0-.29-.04-.44h.83c-.02.15-.03.43-.03.67v.32h.92c-.2-.26-.33-.41-.62-.64l.54-.34c.32.27.44.39.71.74l-.37.25h.21c.37,0,.56,0,.74-.04v.77c-.23-.02-.5-.04-.86-.04h-1.26c.06.92.16,1.56.32,2.09.35-.57.59-1.15.67-1.64l.75.29Z"/>
            <path class="cls-3" d="M68.68,26.89c-.07,1.13-.2,1.76-.46,2.28-.18-.27-.38-.47-.6-.63.34-.77.43-1.66.43-4.62,0-.47,0-.74-.04-1.02.2.03.38.04.74.04h.6c.35,0,.54,0,.67-.04-.01.16-.02.29-.02.64v1.15c.56-.27.97-.57,1.3-.97h-.24c-.37,0-.58,0-.83.04v-.76c.22.03.46.04.85.04h2.19c.4,0,.69-.01.85-.04v.76c-.24-.03-.46-.04-.83-.04h-.39c.08.77.12,1.1.21,1.48.24-.3.43-.61.53-.84l.6.45q-.06.07-.16.22c-.23.35-.46.62-.74.92.27.74.55,1.19,1.05,1.7-.19.27-.29.46-.43.83-.57-.68-.9-1.25-1.2-2.11-.27-.74-.38-1.31-.55-2.66h-.1c-.2.31-.29.41-.51.63.22.24.39.55.55.94.25.66.42,1.56.42,2.3,0,.56-.08,1-.2,1.18-.15.21-.42.29-.92.29-.13,0-.25,0-.5-.02-.01-.27-.05-.43-.15-.71.27.05.44.07.62.07.21,0,.31-.05.35-.17.05-.14.08-.42.08-.84,0-.18,0-.29-.02-.47-.45.65-.82,1.02-1.53,1.5-.09-.17-.14-.24-.27-.4v.38c0,.53-.19.67-.88.67-.04,0-.14,0-.28,0,0-.32-.04-.47-.15-.71.15.03.31.04.46.04.13,0,.17-.04.17-.18v-1.34h-.65ZM68.72,25.28q0,.71-.01.97h.62v-.97h-.61ZM69.33,23.64h-.6v.99h.6v-.99ZM70.01,26.17c.53-.29.89-.57,1.33-1.04-.08-.15-.13-.22-.22-.34-.29.23-.5.36-.86.57-.11-.18-.14-.25-.26-.41v1.21ZM70.01,27.74c.69-.43,1.2-.91,1.68-1.58-.04-.22-.07-.31-.11-.47-.34.41-.71.74-1.3,1.11-.1-.18-.15-.27-.27-.41v1.34Z"/>
            <path class="cls-3" d="M77.95,26.95c-.4.9-.85,1.32-1.42,1.32-.8,0-1.37-.81-1.37-1.94,0-.77.27-1.49.77-2.04.59-.64,1.42-.98,2.41-.98,1.68,0,2.77,1.02,2.77,2.6,0,1.21-.63,2.18-1.7,2.61-.34.14-.61.21-1.1.29-.12-.37-.2-.53-.43-.82.64-.08,1.06-.2,1.39-.38.61-.34.97-1,.97-1.75,0-.67-.3-1.22-.86-1.55-.22-.13-.4-.18-.71-.21-.13,1.1-.38,2.07-.73,2.86ZM76.92,24.44c-.59.42-.95,1.14-.95,1.89,0,.57.24,1.03.55,1.03.23,0,.47-.29.72-.9.27-.63.5-1.58.58-2.37-.36.04-.62.14-.9.34Z"/>
            <path class="cls-3" d="M83,26.89c-.07,1.13-.2,1.76-.46,2.28-.18-.27-.38-.47-.6-.63.34-.77.43-1.66.43-4.62,0-.47,0-.74-.04-1.02.2.03.38.04.74.04h.6c.35,0,.54,0,.67-.04-.01.16-.02.29-.02.64v1.15c.56-.27.97-.57,1.3-.97h-.24c-.37,0-.58,0-.83.04v-.76c.22.03.46.04.85.04h2.19c.4,0,.69-.01.85-.04v.76c-.24-.03-.46-.04-.83-.04h-.39c.08.77.12,1.1.21,1.48.24-.3.43-.61.53-.84l.6.45q-.06.07-.16.22c-.23.35-.46.62-.74.92.27.74.55,1.19,1.05,1.7-.19.27-.29.46-.43.83-.57-.68-.9-1.25-1.2-2.11-.27-.74-.38-1.31-.55-2.66h-.1c-.2.31-.29.41-.51.63.22.24.39.55.55.94.25.66.42,1.56.42,2.3,0,.56-.08,1-.2,1.18-.15.21-.42.29-.92.29-.13,0-.25,0-.5-.02-.01-.27-.05-.43-.15-.71.27.05.44.07.62.07.21,0,.31-.05.35-.17.05-.14.08-.42.08-.84,0-.18,0-.29-.02-.47-.45.65-.82,1.02-1.53,1.5-.09-.17-.14-.24-.27-.4v.38c0,.53-.19.67-.88.67-.04,0-.14,0-.28,0,0-.32-.04-.47-.15-.71.15.03.31.04.46.04.13,0,.17-.04.17-.18v-1.34h-.65ZM83.04,25.28q0,.71-.01.97h.62v-.97h-.61ZM83.65,23.64h-.6v.99h.6v-.99ZM84.32,26.17c.53-.29.89-.57,1.33-1.04-.08-.15-.13-.22-.22-.34-.29.23-.5.36-.86.57-.11-.18-.14-.25-.26-.41v1.21ZM84.32,27.74c.69-.43,1.2-.91,1.68-1.58-.04-.22-.07-.31-.11-.47-.34.41-.71.74-1.3,1.11-.1-.18-.15-.27-.27-.41v1.34Z"/>
            <path class="cls-3" d="M90.4,24.59c-.37,0-.64.01-.87.04v-.83c.27.04.48.05.86.05h.43v-.39c0-.26-.01-.48-.05-.74h.89c-.03.2-.04.43-.04.78v.36h1.97v-.32c0-.4,0-.59-.04-.81h.87c-.04.24-.05.43-.05.81v.32h.36c.36,0,.58-.01.86-.05v.83c-.23-.03-.48-.04-.86-.04h-.36v1.86h.54c.38,0,.6-.01.86-.04v.83c-.26-.04-.48-.05-.86-.05h-.54v1.06c0,.41.01.64.05.9h-.87c.03-.22.04-.49.04-.9v-1.06h-2.11c-.1.5-.26.88-.52,1.24-.22.3-.44.5-.88.81-.18-.3-.31-.45-.6-.66.43-.24.66-.43.88-.71.15-.2.25-.4.32-.69h-.48c-.44,0-.53,0-.85.05v-.83c.25.03.46.04.83.04h.6c.04-.34.05-.79.05-1.37v-.48h-.43ZM91.62,25c0,.53-.01.97-.05,1.44h2.02v-1.86h-1.97v.41ZM92.87,26.37c-.39-.55-.64-.82-1.13-1.23l.57-.46c.48.41.76.69,1.14,1.16l-.58.53Z"/>
            <path class="cls-3" d="M105.32,22.63l-5.31,6.58h-1.03l5.3-6.58h1.04Z"/>
            <path class="cls-3" d="M111.16,27.82c0,.29-.02.46-.06.6-.06.25-.31.41-.64.41-.44,0-.97-.2-1.32-.5-.25-.22-.38-.49-.38-.79,0-.33.22-.7.6-1.04.25-.22.56-.4,1.02-.6v-1.08q-.06,0-.29.01c-.1,0-.2,0-.38,0-.11,0-.3,0-.39,0-.09,0-.15,0-.17,0-.03,0-.08,0-.15,0v-.78c.19.04.47.06.84.06.07,0,.15,0,.24,0,.17,0,.2,0,.28,0v-.46c0-.4,0-.58-.04-.81h.88c-.04.22-.04.37-.04.76v.45c.53-.06.99-.15,1.35-.27l.03.78c-.12.02-.26.04-.74.13-.23.04-.37.06-.64.09v.91c.48-.14.92-.2,1.43-.2,1.17,0,2,.71,2,1.71,0,.91-.68,1.6-1.59,1.6-.57,0-.97-.27-1.15-.78-.09-.24-.12-.47-.12-.9.36-.1.48-.15.78-.31-.01.13-.01.2-.01.31,0,.29.03.48.1.62.08.15.25.24.44.24.41,0,.71-.33.71-.78,0-.6-.49-.99-1.24-.99-.42,0-.85.08-1.34.23v1.38ZM110.36,26.69c-.53.28-.83.59-.83.84,0,.12.07.22.23.32.14.1.31.15.45.15.12,0,.15-.06.15-.29v-1.02ZM114.25,25.28c-.35-.55-.86-1.11-1.4-1.51l.66-.44c.61.47,1.02.89,1.39,1.44l-.64.52Z"/>
            <path class="cls-3" d="M115.72,28.8c0-.13-.01-.17-.04-.33-.13-.85-.18-1.39-.18-2.09,0-.9.08-1.7.29-2.74.08-.39.09-.46.1-.65l.93.1c-.17.41-.33,1.2-.44,2.09-.07.53-.1.94-.11,1.55,0,.15,0,.21-.01.39.08-.25.09-.29.36-.92l.56.25c-.38.81-.62,1.62-.62,2.12,0,.04,0,.1,0,.19l-.85.05ZM118.7,26.03c-.35.41-.5.71-.5,1.01,0,.4.38.61,1.11.61.62,0,1.23-.1,1.67-.27l.07.89c-.1,0-.12.01-.29.04-.56.09-.99.13-1.45.13-.87,0-1.43-.2-1.74-.61-.13-.18-.21-.43-.21-.69,0-.46.21-.92.64-1.44l.69.32ZM117.55,23.72c.31.08.69.11,1.29.11.78,0,1.44-.06,1.9-.19l.04.85c-.06,0-.16.02-.5.06-.45.06-.98.08-1.5.08s-.52,0-1.26-.08v-.84Z"/>
            <path class="cls-3" d="M126.22,24.18c-.07.01-.13.03-.15.03-.02,0-.08.02-.17.04-.29.07-.55.12-.86.16.1.25.16.36.27.57,1.06-.22,1.41-.3,1.63-.41l.07.76c-.11.01-.21.04-.39.08l-.48.11-.44.09-.07.02c.34.56.51.8.94,1.28l-.62.44c-.5-.21-.92-.29-1.61-.29-.53,0-.94.07-1.18.2-.2.11-.3.26-.3.43s.12.33.3.41c.22.1.59.15,1,.15.73,0,1.72-.21,2.16-.46l.12.87c-.08.01-.12.02-.19.04-.03,0-.08.02-.15.04l-.12.03c-.59.16-1.18.24-1.79.24-.8,0-1.32-.1-1.71-.34-.34-.21-.54-.57-.54-.96s.21-.73.59-.97c.37-.23.93-.35,1.63-.35.43,0,.83.05,1.21.15-.09-.08-.28-.35-.54-.79-.67.11-1.31.15-2.71.19-.13,0-.17,0-.29.02l-.03-.76c.2.03.25.03.72.03.75,0,1.3-.04,1.98-.13-.04-.08-.06-.12-.12-.26-.07-.15-.08-.19-.15-.32-.54.07-1.05.1-1.88.1-.28,0-.34,0-.47.01l-.04-.74c.2.02.36.03.67.03.53,0,.92-.02,1.44-.08l-.02-.06c-.09-.22-.14-.33-.22-.54-.06-.13-.06-.14-.11-.22l.88-.12c0,.12.1.38.29.85.46-.06,1.2-.22,1.34-.29l.11.73ZM126.41,22.78c.3.37.48.64.67,1.07l-.51.22c-.2-.44-.39-.74-.67-1.09l.51-.2ZM127.46,23.72c-.2-.43-.41-.76-.65-1.06l.49-.2c.3.36.49.64.66,1.03l-.5.23Z"/>
            <path class="cls-3" d="M129.8,22.86c-.08.24-.12.42-.25,1.35-.05.29-.08.53-.09.7h.02s.01-.04.04-.15c.07-.25.25-.59.44-.83.39-.48.82-.71,1.33-.71.48,0,.9.22,1.2.63.35.47.5,1.04.5,1.86,0,1.35-.63,2.36-1.81,2.88-.36.16-.85.3-1.37.39-.14-.4-.22-.55-.41-.83.7-.08,1.11-.18,1.53-.4.81-.41,1.18-1.08,1.18-2.14,0-1.01-.34-1.57-.94-1.57-.27,0-.51.12-.76.37-.55.57-.88,1.43-.88,2.26v.15h-.84s0-.06,0-.08v-.13c0-.2-.02-.72-.02-.86,0-.57.04-1.34.1-1.83l.11-.87c.01-.12.02-.15.02-.24l.89.05Z"/>
            <path class="cls-3" d="M29.12,34.78c-.32,0-.5,0-.68.04v-.71c.16.02.27.03.54.03h.09v-.61h-.12c-.23,0-.35,0-.55.04v-.59c-.16.2-.24.29-.44.49-.03.57-.05.81-.1,1.15.23.36.5.65.83.9-.18.26-.27.4-.38.69-.29-.3-.45-.5-.62-.76-.22.71-.5,1.23-.96,1.71-.15-.25-.29-.42-.5-.6.4-.41.63-.83.8-1.46.2-.66.27-1.65.27-3.32,0-.6,0-.75-.05-1.02h.81q-.04.23-.04,1.34c0,.15,0,.24,0,.46.19-.28.28-.44.36-.62l.53.41c-.09.12-.22.29-.38.51.13.01.24.02.45.02h.12v-.22c0-.14,0-.22-.03-.33h.7c-.01.09-.02.17-.02.32v.24h1.51v-.23c0-.14,0-.21-.02-.32h.72c-.02.1-.03.19-.03.32v.23h.27c.24,0,.38,0,.58-.04v.73c-.19-.03-.34-.04-.58-.04h-.27v.61h.11c.29,0,.44,0,.64-.04v.73c-.22-.03-.42-.04-.71-.04h-.58v1.44c0,.14.04.16.41.16.18,0,.29-.04.31-.13.04-.12.06-.34.07-.74.2.13.34.19.66.28-.04.64-.11.95-.28,1.1-.13.12-.41.18-.9.18-.78,0-.97-.11-.97-.55v-1.73h-.55c-.04.43-.07.61-.17.88-.25.74-.71,1.18-1.6,1.54-.12-.29-.23-.46-.43-.64.5-.16.77-.32,1.04-.61.28-.3.42-.68.44-1.18h-.25ZM26.26,33.91c.1-.33.13-.48.17-.86.04-.33.05-.59.05-.81v-.18l.59.07c-.01.9-.08,1.46-.22,2.07l-.58-.29ZM30.8,32.25c0,.22,0,.29.02.41h-.71c.01-.11.02-.22.02-.41v-.24h-.81c-.25,0-.5.01-.68.04v-.73c.22.03.38.04.68.04h.81v-.18c0-.2,0-.31-.04-.47h.74c-.03.14-.04.27-.04.48v.17h1.02c.27,0,.47-.01.67-.04v.74c-.2-.02-.42-.04-.65-.04h-1.04v.23ZM31.23,34.13v-.61h-1.51v.61h1.51Z"/>
            <path class="cls-3" d="M33.47,31.81c.2.02.36.03.67.03.53,0,.91-.02,1.44-.08q-.02-.06-.08-.18c-.18-.41-.27-.62-.28-.64l.88-.12c.03.18.1.39.29.85.6-.08,1.41-.26,1.89-.42l.07.74q-.07.01-.24.05c-.47.11-1.25.27-1.46.29.11.26.15.35.27.57.6-.13.93-.2.97-.2.4-.1.48-.13.67-.2l.07.76c-.13.02-.28.05-.44.09-.29.07-.52.12-.69.15q-.17.04-.26.06c.36.6.48.75.94,1.28l-.62.44c-.5-.21-.93-.29-1.61-.29-.53,0-.94.07-1.18.2-.2.11-.3.26-.3.43s.12.33.3.41c.22.1.6.15,1,.15.73,0,1.72-.21,2.16-.46l.12.86q-.13.02-.46.11c-.6.16-1.18.24-1.79.24-.8,0-1.32-.11-1.71-.34-.34-.21-.54-.57-.54-.96s.21-.73.59-.97c.37-.23.93-.35,1.63-.35.43,0,.83.05,1.21.15-.11-.11-.24-.3-.54-.79-.74.11-1.19.14-2.71.19-.12,0-.17,0-.29.02l-.03-.76c.2.03.25.03.72.03.74,0,1.32-.04,1.98-.13-.04-.08-.07-.13-.12-.26-.07-.15-.09-.19-.15-.32-.56.06-1.06.09-1.88.1-.29,0-.33,0-.48.01l-.03-.74Z"/>
            <path class="cls-3" d="M40.36,31.17c.22.03.36.04.69.04.63,0,1.54-.04,2.08-.08.34-.03.51-.06.66-.11l.46.58c-.15.11-.18.13-.41.34-.51.46-1.3,1.09-1.93,1.53.35-.05.86-.1,1.7-.17.44-.04.76-.06.92-.07.25-.03.43-.04.5-.05.11,0,.13,0,.23-.03l.05.82h-.21c-.8,0-1.43.11-1.95.34-.57.26-.95.69-.95,1.06,0,.46.5.71,1.41.71.27,0,.46-.01.66-.06l.04.89c-.08,0-.16,0-.26,0-.05,0-.16,0-.36,0h-.09c-.43,0-.94-.08-1.3-.2-.6-.19-.99-.67-.99-1.23,0-.33.13-.64.38-.91.2-.21.37-.34.75-.53-.3.06-.53.09-.86.13-.32.04-.57.07-.77.1-.28.04-.66.08-1.13.15-.14.02-.19.04-.32.07l-.08-.85s.09,0,.11,0c.14,0,.44-.02.6-.04.04,0,.12-.01.27-.04.17-.01.24-.03.4-.06.62-.37,1.62-1.18,2.15-1.72-.54.08-.79.1-1.95.15-.18,0-.3.02-.45.04l-.04-.83Z"/>
            <path class="cls-3" d="M46.18,36.93c0-.07,0-.12-.03-.27-.13-.83-.19-1.5-.19-2.23,0-.63.04-1.25.13-1.85q.04-.22.19-1.01c.05-.25.08-.45.08-.52v-.02l.95.09c-.28.61-.57,2.43-.56,3.52,0,.17,0,.27,0,.27v.08c0,.08,0,.15,0,.26h0l.04-.07.08-.2c.11-.28.11-.3.19-.48.01-.04.04-.1.08-.22l.58.25c-.41.82-.69,1.68-.69,2.15,0,.05,0,.08.01.18l-.84.06ZM47.77,32.34c.32.08.69.1,1.26.1.23,0,.39,0,.65,0,0-.16,0-.27,0-.33v-.74c0-.17,0-.22-.02-.28h.87c-.04.19-.05.48-.05.95v.33c.5-.06.88-.13,1.15-.24l.03.79c-.06,0-.08,0-.2.04-.28.06-.64.12-.97.15v.16c0,.33.01.53.04.92l.02.36v.29c.49.22.75.38,1.11.64.09.06.13.09.2.13l-.33.84c-.2-.22-.37-.35-.97-.74,0,.05,0,.06,0,.1,0,.15-.02.29-.06.39-.16.41-.65.65-1.33.65-.92,0-1.48-.43-1.48-1.15,0-.67.6-1.15,1.44-1.15.26,0,.45.03.62.09-.01-.24-.03-.74-.05-1.49-.28.01-.44.01-.62.01-.27,0-.54,0-.88-.03-.11,0-.17,0-.21-.01h-.13s-.06,0-.06,0h-.04v-.8ZM49.19,35.27c-.45,0-.73.17-.73.46,0,.27.25.43.64.43.27,0,.47-.08.57-.21.06-.08.09-.19.09-.38,0-.08,0-.19,0-.19-.22-.08-.37-.1-.57-.1ZM51.01,30.67c.21.34.37.68.48,1.09l-.47.17c-.13-.45-.28-.79-.47-1.1l.46-.16ZM51.87,31.67c-.11-.38-.29-.77-.47-1.07l.43-.16c.19.29.34.62.48,1.05l-.44.18Z"/>
            <path class="cls-3" d="M60.49,30.63l-5.31,6.58h-1.03l5.3-6.58h1.04Z"/>
            <path class="cls-3" d="M68.52,31.86c-.06.12-.08.17-.12.32-.35,1.34-.76,2.18-1.44,2.93-.69.77-1.44,1.28-2.61,1.79-.2-.38-.29-.51-.62-.83.62-.2,1.01-.38,1.53-.71,1.09-.71,1.78-1.7,2.12-3.05h-3.33c-.47,0-.63,0-.88.04v-.91c.27.04.42.05.9.05h3.21c.39,0,.53-.01.75-.07l.48.46Z"/>
            <path class="cls-3" d="M74.73,33.2c-.07.13-.11.22-.2.44-.37,1.03-.9,1.81-1.62,2.37-.5.38-.95.62-1.84.95-.15-.35-.24-.47-.54-.81.85-.22,1.41-.48,1.95-.92.52-.43.82-.86,1.13-1.64h-3.41c-.47,0-.64,0-.9.04v-.85c.27.04.42.05.91.05h3.33c.43,0,.57-.01.79-.06l.4.45ZM69.89,31.08c.23.04.38.05.82.05h2.44c.44,0,.59,0,.82-.05v.86c-.22-.03-.35-.04-.8-.04h-2.47c-.46,0-.59,0-.81.04v-.86Z"/>
            <path class="cls-3" d="M75.26,35.74c.6-.04,1.44-.24,2.07-.52.88-.38,1.53-.92,2.08-1.72.31-.45.5-.83.71-1.4.27.33.38.43.74.69-.6,1.28-1.26,2.11-2.22,2.75-.71.48-1.58.82-2.67,1.05-.28.06-.3.06-.46.12l-.26-.97ZM75.85,31.39c.83.52,1.27.84,1.81,1.35l-.6.76c-.56-.59-1.13-1.06-1.79-1.42l.58-.69Z"/>
            <path class="cls-3" d="M86.86,32.1c-.07.1-.1.17-.18.42-.32,1.06-.82,2.01-1.44,2.7-.64.74-1.41,1.28-2.49,1.78-.2-.35-.29-.47-.59-.74.7-.29,1.09-.5,1.53-.83,1-.74,1.66-1.7,2.04-2.96l-2.11.04c-.43.68-.97,1.28-1.64,1.79-.21-.29-.31-.38-.68-.6.8-.55,1.3-1.11,1.81-2.03.22-.4.33-.67.36-.92l.96.19q-.04.06-.12.22s-.02.04-.09.2t-.09.18-.11.22c.09,0,.2-.01.34-.01l1.53-.02c.27,0,.35-.01.51-.07l.45.44Z"/>
            <path class="cls-3" d="M93.17,31.86c-.06.12-.08.17-.12.32-.35,1.34-.76,2.18-1.44,2.93-.69.77-1.44,1.28-2.61,1.79-.2-.38-.29-.51-.62-.83.62-.2,1.01-.38,1.53-.71,1.09-.71,1.78-1.7,2.12-3.05h-3.33c-.47,0-.63,0-.88.04v-.91c.27.04.42.05.9.05h3.21c.39,0,.53-.01.75-.07l.48.46Z"/>
            <path class="cls-3" d="M95.45,31.16q-.03.2-.07,1.57c-.05,1.37-.2,2.16-.57,2.88-.24.48-.5.84-.97,1.3-.27-.35-.38-.46-.71-.68.34-.28.51-.47.72-.81.5-.81.67-1.71.67-3.67,0-.38,0-.45-.03-.64l.95.05ZM97.31,31.07c-.03.2-.04.32-.05.67l-.04,3.99c.49-.23.77-.44,1.07-.8.32-.38.53-.76.69-1.28.24.31.34.41.66.66-.29.69-.65,1.22-1.12,1.63-.4.34-.76.55-1.49.84-.15.06-.21.08-.3.13l-.45-.48c.05-.2.06-.36.06-.74l.04-3.95v-.21c0-.18,0-.33-.03-.46h.95Z"/>
            <path class="cls-3" d="M100.78,36.9c.04-.22.04-.41.04-.79v-4.49c0-.34-.01-.53-.04-.71h.96c-.03.21-.03.3-.03.74v1.3c.96.34,2.06.85,3.18,1.48l-.49.83c-.58-.4-1.31-.8-2.48-1.34-.16-.08-.18-.08-.24-.12.02.2.03.28.03.48v1.85c0,.36,0,.55.03.78h-.96Z"/>
            <path class="cls-3" d="M114.09,30.63l-5.31,6.58h-1.03l5.3-6.58h1.04Z"/>
            <path class="cls-3" d="M116.57,31.93c.25.04.53.06.94.06.08,0,.16,0,.32,0,.06-.34.13-.88.13-1.07,0-.03,0-.07,0-.13l.92.08q-.05.16-.13.67c-.04.2-.04.24-.07.4.52-.05.85-.1,1.2-.21l.04.81q-.06,0-.22.04c-.36.07-.92.14-1.15.15-.08.43-.25,1.18-.43,1.81-.2.73-.32,1.08-.79,2.32l-.88-.34c.48-.89,1.02-2.52,1.25-3.77-.05,0-.08,0-.09,0h-.41s-.11,0-.22,0c-.12,0-.22,0-.28,0-.04,0-.07,0-.13,0l.02-.81ZM120.04,34.65c-.28.35-.36.53-.36.77,0,.36.35.54,1.05.54.51,0,1.18-.11,1.59-.26l.06.86c-.13.01-.18.02-.34.05-.58.08-.89.11-1.3.11-.62,0-1.07-.09-1.41-.28-.3-.17-.5-.51-.5-.86,0-.37.13-.69.52-1.21l.69.28ZM122.12,33.73c-.34-.04-.53-.05-.88-.05-.69,0-1.15.05-1.85.2l-.06-.77c.99-.19,1.33-.22,2.09-.22.19,0,.25,0,.69,0v.83Z"/>
            <path class="cls-3" d="M124.75,34.18c-.44.36-.64.66-.64.96,0,.46.51.65,1.7.65.83,0,1.75-.13,2.2-.29l.08.96c-.12,0-.16,0-.31.03-.84.12-1.29.15-1.89.15-.76,0-1.38-.08-1.75-.23-.6-.23-.9-.62-.9-1.17s.27-.99.9-1.52l.61.46ZM123.69,31.3c.54.13,1.16.18,2.1.18.89,0,1.39-.04,1.85-.13l.03.79c-.42.19-1.18.66-1.87,1.16l-.61-.48c.37-.23.71-.44,1.03-.62-.31.04-.61.06-1.05.06-.36,0-.94-.04-1.28-.08-.14-.01-.16-.02-.26-.02l.06-.83Z"/>
            <path class="cls-3" d="M131.13,32.2c.2-.05.31-.08.6-.13q0-.14,0-.38c0-.61,0-.66-.04-.84h.88q-.03.22-.04,1.12c.17-.01.27-.02.41-.02.99,0,1.64.57,1.64,1.43,0,.47-.21.92-.57,1.22-.33.27-.76.41-1.29.41-.34,0-.71-.07-1.09-.2,0-.34-.03-.47-.13-.86.42.19.76.27,1.12.27.3,0,.57-.08.79-.23.18-.13.29-.35.29-.6,0-.44-.34-.7-.93-.7-.5,0-.92.08-2.1.43.44,1.52.47,1.65.89,3.4.04.15.05.2.11.34l-.93.21c-.04-.56-.42-2.22-.85-3.73-.09.04-.11.04-.35.13-.25.08-.72.27-.9.36l-.27-.82c.2-.04.29-.06.64-.18.29-.1.34-.11.68-.22-.21-.69-.34-1.06-.48-1.3l.87-.25q.04.22.25.83c.05.17.08.27.15.5l.68-.19Z"/>
            <path class="cls-3" d="M135.36,31.81c.2.02.36.03.67.03.53,0,.91-.02,1.44-.08q-.02-.06-.08-.18c-.18-.41-.27-.62-.28-.64l.88-.12c.03.18.1.39.29.85.6-.08,1.41-.26,1.89-.42l.07.74q-.07.01-.24.05c-.47.11-1.25.27-1.46.29.11.26.15.35.27.57.6-.13.93-.2.97-.2.4-.1.48-.13.67-.2l.07.76c-.13.02-.28.05-.44.09-.29.07-.52.12-.69.15q-.17.04-.26.06c.36.6.48.75.94,1.28l-.62.44c-.5-.21-.93-.29-1.61-.29-.53,0-.94.07-1.18.2-.2.11-.3.26-.3.43s.12.33.3.41c.22.1.6.15,1,.15.73,0,1.72-.21,2.16-.46l.12.86q-.13.02-.46.11c-.6.16-1.18.24-1.79.24-.8,0-1.32-.11-1.71-.34-.34-.21-.54-.57-.54-.96s.21-.73.59-.97c.37-.23.93-.35,1.63-.35.43,0,.83.05,1.21.15-.11-.11-.24-.3-.54-.79-.74.11-1.19.14-2.71.19-.12,0-.17,0-.29.02l-.03-.76c.2.03.25.03.72.03.74,0,1.32-.04,1.98-.13-.04-.08-.07-.13-.12-.26-.07-.15-.09-.19-.15-.32-.56.06-1.06.09-1.88.1-.29,0-.33,0-.48.01l-.03-.74Z"/>
          </g>
          <g>
            <path class="cls-4" d="M67.23,12.73l-2.97-3.68-.8.71v2.97h-1.46v-7.86h1.46v3.34l3.46-3.34h2.03l-3.7,3.31,3.8,4.56h-1.82Z"/>
            <path class="cls-4" d="M70.73,12.73c.14-.78.37-2.07,3.06-3.54,1.52-.83,2.11-1.2,2.11-1.96s-.81-1.3-1.84-1.3c-1.61,0-1.66,1.14-1.68,1.71h-1.37c.03-.62.08-1.24.57-1.88.68-.87,1.84-1.02,2.54-1.02,1.96,0,3.25,1.11,3.25,2.5,0,1.09-.82,1.83-2.4,2.68-1.3.7-1.75.97-2.25,1.69h4.73v1.13h-6.72Z"/>
            <path class="cls-4" d="M87.47,6.99c-.27.26-1.8,1.8-3.13,3.22.41.48.62.75.91,1.2l-1.09.87c-.81-1.49-1.86-2.54-2.71-3.23l.84-.84c.41.32.72.6,1.19,1.06.84-.84,1.45-1.48,2.19-2.26h-6.06v-1.22h6.98c.15,0,.32-.12.51-.24l.89,1.04c-.22.16-.38.29-.5.4Z"/>
            <path class="cls-4" d="M89.28,9.32v-1.37h7.66v1.37h-7.66Z"/>
            <path class="cls-4" d="M105.05,10.37c-.8-.74-1.88-1.62-3.17-2.15v4.65h-1.27V4.34l1.29.23s.26.04.26.17c0,.06-.28.24-.28.29v2.83l.51-.8c.55.24.91.38,1.83.98.85.56,1.25.92,1.68,1.29l-.85,1.03Z"/>
          </g>
        </g>
      </g>
    </g>
  </g>
</svg>