<?xml version="1.0" encoding="UTF-8"?>
<svg xmlns="http://www.w3.org/2000/svg" viewBox="0 0 163.43 27.77">
  <defs>
    <style>
      .cls-1 {
        fill: #f18d09;
      }

      .cls-2 {
        isolation: isolate;
      }

      .cls-3 {
        fill: #231815;
      }

      .cls-4 {
        fill: #fff;
      }

      .cls-5 {
        fill: #f29014;
        mix-blend-mode: multiply;
      }
    </style>
  </defs>
  <g class="cls-2">
    <g id="_レイヤー_2" data-name="レイヤー_2">
      <g id="_テキスト_xFF08_B_xFF09_" data-name="テキスト_xFF08_B_xFF09_">
        <g>
          <rect class="cls-1" width="163.43" height="17.49"/>
          <rect class="cls-5" width="8.29" height="17.49"/>
          <g>
            <path class="cls-3" d="M38.38,22.01c0-.36,0-.53-.04-.76h.88c-.03.22-.04.4-.04.74v.46h1.92c.31,0,.46,0,.64-.03-.02.2-.03.34-.03.62v2.14c0,.32,0,.5.04.7h-.83v-.42h-1.74v1.42c0,.42.01.62.05.87h-.9c.04-.26.05-.48.05-.87v-1.42h-1.65v.42h-.83c.03-.23.04-.41.04-.7v-2.14c0-.26,0-.39-.03-.61.2.02.35.03.63.03h1.84v-.43ZM36.73,23.18v1.52h1.65v-1.52h-1.65ZM40.91,24.7v-1.52h-1.74v1.52h1.74Z"/>
            <path class="cls-3" d="M43.46,23.02c.62.37.79.48,1.25.86l-.44.63c-.49-.44-.62-.54-1.24-.93l.43-.56ZM44.66,25.42c-.32.85-.61,1.55-.96,2.24l-.66-.58c.13-.14.24-.32.43-.71.25-.5.36-.78.56-1.39l.63.44ZM43.76,21.29c.49.3.77.51,1.2.9l-.48.61c-.41-.4-.72-.66-1.2-.97l.48-.54ZM46.58,22.4h-.83c-.27,0-.43,0-.63.03v-.67c.19.03.39.04.65.04h.8c0-.3,0-.42-.04-.57h.8c-.04.15-.04.25-.04.57h1.22c.27,0,.42,0,.56-.03-.01.18-.02.36-.02.53v.52h.04c.21,0,.34,0,.5-.04v.7c-.15-.02-.29-.03-.5-.03h-.04v.39c0,.41,0,.49.02.66-.08-.01-.25-.02-.55-.02h-1.23v.47h1.16c.32,0,.53,0,.7-.04v.67c-.18-.02-.38-.03-.69-.03h-1.17v.5h1.41c.34,0,.59-.01.78-.03v.7c-.25-.03-.46-.04-.79-.04h-1.39v.25c0,.29.01.54.04.76h-.8c.03-.21.04-.46.04-.76v-.25h-1.11c-.31,0-.57.01-.76.04v-.71c.17.02.47.03.76.03h1.11v-.5h-.95c-.29,0-.49,0-.67.04v-.68c.19.03.38.04.68.04h.94v-.47h-.85c-.25,0-.44,0-.61.03v-.64c.18.02.35.03.62.03h.84v-.44h-1.17c-.31,0-.54.01-.74.04v-.72c.22.04.47.05.76.05h1.15v-.41ZM48.33,22.81v-.41h-1.04v.41h1.04ZM47.29,23.89h1.04v-.44h-1.04v.44Z"/>
            <path class="cls-3" d="M53.4,21.49c-.02.06-.04.14-.06.22-.01.09-.02.13-.04.24q-.02.15-.12.67c-.03.15-.03.17-.05.26.2-.01.3-.02.44-.02.46,0,.8.13,1.04.37.24.27.33.6.33,1.24,0,1.21-.2,2.16-.54,2.55-.2.23-.41.31-.78.31-.32,0-.61-.06-1.08-.2,0-.14.01-.24.01-.31,0-.18-.01-.32-.07-.6.38.17.78.27,1.02.27.2,0,.32-.13.42-.48.11-.36.18-1,.18-1.6,0-.64-.16-.83-.71-.83-.14,0-.24,0-.41.02-.21.85-.27,1.06-.43,1.52-.24.7-.43,1.15-.84,1.97q-.04.07-.11.21s-.02.05-.05.12l-.81-.45c.21-.28.49-.78.73-1.32.3-.69.4-.98.68-1.98-.36.04-1.02.16-1.25.22l-.08-.83c.26,0,1.11-.08,1.49-.14.13-.76.18-1.18.18-1.42v-.13l.91.1ZM55.72,22.38c.7.82,1.14,1.65,1.44,2.73l-.8.41c-.13-.6-.29-1.06-.56-1.59-.25-.52-.48-.84-.81-1.2l.72-.35Z"/>
            <path class="cls-3" d="M59.96,22.8c-.11.39-.22,1.04-.32,1.72q-.01.1-.04.2h.01c.41-.38,1.28-.65,2.12-.65,1.19,0,1.97.59,1.97,1.48,0,.51-.27,1.03-.72,1.35-.46.33-1.04.48-1.85.48-.6,0-.99-.05-1.79-.25,0-.43-.02-.57-.11-.9.69.24,1.29.35,1.88.35.99,0,1.67-.41,1.67-1.01,0-.47-.44-.75-1.18-.75-.62,0-1.28.19-1.74.51-.13.09-.17.13-.32.3l-.88-.03c.02-.13.02-.15.06-.42.06-.43.17-1.21.29-2.04.03-.17.04-.25.04-.41l.88.05ZM60.05,21.43c.48.27,1.82.67,2.61.78l-.29.81c-1.2-.27-1.93-.5-2.73-.88l.41-.71Z"/>
            <path class="cls-3" d="M69.97,23.25q-.03.06-.08.2c-.07.2-.08.2-.1.27.29.07.49.17.73.34.45.34.67.77.67,1.32,0,.76-.41,1.36-1.21,1.75-.41.2-.81.31-1.43.37-.08-.3-.14-.43-.37-.79.57,0,.93-.08,1.34-.28.56-.27.82-.61.82-1.09,0-.44-.29-.8-.79-.97-.38.83-.71,1.34-1.22,1.86-.63.67-1.25,1.01-1.83,1.01-.65,0-1.09-.5-1.09-1.23,0-.58.25-1.13.69-1.57.28-.27.54-.45.96-.63,0-.22.01-.5.03-.84-.08,0-.46,0-1.13-.03h-.13s-.08,0-.16,0v-.78c.32.07.73.11,1.31.11h.15q0-.14.03-.42c0-.09.01-.27.01-.4,0-.03,0-.06-.01-.11l.87.04c-.06.19-.08.37-.13.86,1.12-.06,2.12-.2,2.65-.37l.04.81c-.1,0-.12,0-.27.03-.77.13-1.91.23-2.47.25-.02.3-.03.53-.04.67.38-.08.54-.09.97-.09.08,0,.14,0,.27.01.08-.22.12-.37.14-.53l.79.22ZM66.5,25.11c-.21.27-.31.56-.31.85,0,.32.15.51.4.51.2,0,.39-.08.61-.27-.09-.46-.12-.9-.12-1.58-.31.2-.43.31-.57.48ZM67.87,25.69s.03-.04.08-.1c.33-.37.61-.82.87-1.4-.08,0-.11,0-.18,0-.31,0-.56.04-.84.13,0,.64,0,.71.05,1.21t0,.09s0,.04,0,.08h.01Z"/>
            <path class="cls-3" d="M74.67,25.01c-.44.8-.81,1.83-.8,2.25l-.81.04c0-.1-.01-.12-.05-.27-.18-.78-.25-1.48-.25-2.28s.04-1.2.26-2.65c.05-.31.05-.37.05-.51l.93.08c-.25.81-.43,2.11-.43,3.22,0,.1,0,.65,0,.69,0,.08,0,.16,0,.27.11-.31.13-.38.16-.46q.24-.57.31-.69l.62.31ZM74.5,22.99c.31.07.68.1,1.25.1.27,0,.32,0,.73-.04-.02-.64-.03-.71-.04-.92-.01-.31-.02-.35-.05-.53h.89c0,.14-.01.22-.01.26v.09c.01.23.02.57.04,1.02.46-.08.88-.18,1.04-.27l.05.83c-.11.01-.15.02-.39.07-.34.08-.38.08-.68.12,0,.15,0,.21,0,.34,0,.74-.05,1.32-.15,1.67-.15.58-.4,1.01-.8,1.36-.22.19-.41.32-.76.53-.22-.29-.38-.43-.68-.66.48-.22.8-.45,1.07-.76.36-.43.49-.93.49-1.96,0-.13,0-.24,0-.45-.24.02-.6.04-.95.04-.2,0-.46,0-.64-.02-.2-.01-.23-.01-.31-.01h-.11v-.81ZM77.73,21.19c.22.34.36.68.48,1.09l-.48.14c-.13-.45-.28-.79-.48-1.1l.48-.13ZM78.58,22.21c-.11-.38-.28-.77-.47-1.07l.45-.14c.19.29.34.62.48,1.05l-.46.16Z"/>
            <path class="cls-3" d="M88.9,21.19l-5.31,6.58h-1.03l5.3-6.58h1.04Z"/>
            <path class="cls-3" d="M96.9,25.54c-.18.29-.41.55-.74.83-.37.31-.6.45-1.17.74-.12-.2-.2-.29-.43-.5.57-.25.71-.32,1.03-.55.22-.17.4-.34.55-.53h-.52c-.27.25-.57.45-.97.64-.11-.19-.2-.32-.34-.47v1.28c0,.27-.06.43-.21.54-.15.11-.34.15-.76.15-.12,0-.16,0-.48-.01-.02-.3-.05-.45-.16-.72.24.02.45.04.63.04.17,0,.22-.04.22-.2v-1.51c-.46.14-.71.22-.76.25l-.1-.76c.17,0,.39-.05.87-.19v-1.33h-.29c-.16,0-.32,0-.51.04v-.76c.18.03.31.04.53.04h.28v-.57c0-.34,0-.52-.04-.71h.83c-.03.2-.04.37-.04.71v.57h.22c.15,0,.27,0,.39-.03v.73c-.16-.02-.22-.02-.38-.02h-.22v1.09q.13-.05.5-.18v-.15c.17.03.33.03.65.03h3c.32,0,.49,0,.69-.04v.71c-.21-.02-.42-.04-.69-.04h-2.13c-.07.12-.1.16-.18.29h2.21c.39,0,.48,0,.62-.02-.04.33-.04.34-.05.57-.08,1.05-.13,1.46-.26,1.76-.13.31-.42.42-1.06.42-.18,0-.27,0-.46-.01-.02-.27-.06-.44-.15-.67-.36.33-.67.55-1.13.78-.17-.22-.31-.36-.47-.49.97-.43,1.63-1.03,1.95-1.74h-.45ZM94.31,25.63c.55-.23.99-.57,1.28-.97h-.29c-.15,0-.37,0-.45.02v.11c-.27.11-.31.13-.53.21v.63ZM95.83,23.75c-.27,0-.48,0-.64.02.02-.21.03-.48.03-.76v-.97c0-.25,0-.41-.03-.6.2.02.34.03.71.03h2.06c.31,0,.47,0,.67-.03-.02.2-.03.32-.03.6v.99c0,.31,0,.43.03.74-.13-.01-.31-.02-.59-.02h-2.21ZM95.92,22.37h1.96v-.31h-1.96v.31ZM95.92,23.2h1.96v-.31h-1.96v.31ZM98,25.54c-.24.6-.49.97-.96,1.42.2.03.5.06.68.06.25,0,.32-.07.39-.38.04-.22.09-.61.12-1.09h-.24Z"/>
            <path class="cls-3" d="M102.46,25.01c-.44.8-.81,1.83-.8,2.25l-.81.04c0-.1-.01-.12-.05-.27-.18-.78-.25-1.48-.25-2.28s.04-1.2.26-2.65c.05-.31.05-.37.05-.51l.93.08c-.25.81-.43,2.11-.43,3.22,0,.1,0,.65,0,.69,0,.08,0,.16,0,.27.11-.31.13-.38.16-.46q.24-.57.31-.69l.62.31ZM102.29,22.99c.31.07.68.1,1.25.1.27,0,.32,0,.73-.04-.02-.64-.03-.71-.04-.92-.01-.31-.02-.35-.05-.53h.89c0,.14-.01.22-.01.26v.09c.01.23.02.57.04,1.02.46-.08.88-.18,1.04-.27l.05.83c-.11.01-.15.02-.39.07-.34.08-.38.08-.68.12,0,.15,0,.21,0,.34,0,.74-.05,1.32-.15,1.67-.15.58-.4,1.01-.8,1.36-.22.19-.41.32-.76.53-.22-.29-.38-.43-.68-.66.48-.22.8-.45,1.07-.76.36-.43.49-.93.49-1.96,0-.13,0-.24,0-.45-.24.02-.6.04-.95.04-.2,0-.46,0-.64-.02-.2-.01-.23-.01-.31-.01h-.11v-.81ZM105.52,21.19c.22.34.36.68.48,1.09l-.48.14c-.13-.45-.28-.79-.48-1.1l.48-.13ZM106.38,22.21c-.11-.38-.28-.77-.47-1.07l.45-.14c.19.29.34.62.48,1.05l-.46.16Z"/>
            <path class="cls-3" d="M109.72,22.07c-.02.08-.03.08-.04.14v.12s-.05.2-.05.2l-.02.17c-.29,2.01-.84,3.39-1.78,4.47-.33-.32-.46-.42-.8-.6.42-.42.71-.85,1-1.49.3-.65.55-1.52.66-2.4.04-.29.06-.53.06-.68v-.1l.96.17ZM111.71,21.89c0,.32.13,1.01.29,1.61.34,1.3.83,2.24,1.56,3.03-.36.22-.51.34-.77.64-.93-1.11-1.58-2.72-1.86-4.61-.04-.29-.06-.4-.1-.5l.87-.17ZM113.7,22.31c0,.45-.37.81-.81.81s-.81-.36-.81-.81.37-.8.81-.8.81.36.81.8ZM112.43,22.31c0,.25.2.46.46.46s.46-.21.46-.46-.2-.46-.46-.46-.46.2-.46.46Z"/>
            <path class="cls-3" d="M120.22,27.37c-.58-.71-1.39-1.5-2.15-2.08-.79.88-1.6,1.5-2.67,2.02-.2-.36-.28-.48-.57-.78.54-.21.88-.4,1.4-.77,1.06-.74,1.9-1.76,2.35-2.85l.08-.18q-.11,0-2.32.04c-.34,0-.53.02-.76.06l-.03-.9c.2.04.33.04.62.04h.17l2.46-.04c.39,0,.45-.01.62-.08l.46.48c-.09.11-.15.2-.22.38-.32.75-.67,1.36-1.09,1.93.44.29.82.59,1.29,1.02q.18.15,1.02.97l-.67.73Z"/>
            <path class="cls-3" d="M127.52,22.58c-.09.12-.1.15-.22.47-.22.64-.61,1.46-.9,1.93-.71,1.16-1.7,1.99-3.19,2.67-.22-.38-.31-.5-.58-.72.6-.25.95-.42,1.37-.7.5-.32.79-.57,1.15-.97-.49-.42-.91-.71-1.44-1l.53-.62c.59.33.88.53,1.41.94.33-.5.57-1,.79-1.65l-2.18.02c-.43.72-.93,1.29-1.64,1.88-.23-.26-.34-.35-.7-.56.77-.57,1.33-1.21,1.76-2,.2-.37.34-.71.41-.97l.91.2q-.08.13-.21.39c-.08.19-.13.27-.17.34q.11-.01,1.82-.03c.29,0,.43-.02.62-.08l.47.47Z"/>
          </g>
          <g>
            <path class="cls-4" d="M42,11.96c-.46.79-1.15.83-1.62.83-.29,0-.62-.02-.93-.06l-.15-1.3c.24.08.55.17.97.17.32,0,.5-.05.65-.27.2-.29.66-1.59.66-2.68,0-.57-.12-.92-.89-.92-.19,0-.41.02-.61.05-.56,1.97-1.13,3.23-2.23,5.02l-1.23-.55c.95-1.21,1.5-2.17,2.13-4.21-.53.13-.97.26-1.53.46l-.43-1.3c.79-.07,1.78-.25,2.25-.32.13-.69.23-1.26.24-2.16l1.31.18c.09.01.3.08.3.17,0,.04-.02.08-.14.15-.19.12-.22.13-.23.24-.05.39-.13.76-.2,1.17.24-.04.56-.09.85-.09,1.47,0,1.58,1.2,1.58,1.85,0,.89-.18,2.56-.75,3.55ZM43.95,9.88l-.73-1.11c.46-.04.71-.06.71-.32,0-.33-.6-1.41-1.2-2.09l.89-.65c1.41,1.51,1.68,2.78,1.68,3.17,0,.61-.67.87-1.36,1Z"/>
            <path class="cls-4" d="M48.96,13.28l-.57-1.33c.34.04.85.12,1.35.12,2,0,2.92-1.04,2.92-2.04,0-.69-.55-1.13-1.36-1.13-.74,0-1.83.43-2.94,1.72l-.94-.5c.09-1.46.6-3.3.84-4.12l1.24.49c-.28.76-.51,1.56-.65,2.37.97-.88,2.1-1.09,2.65-1.09,1.13,0,2.39.8,2.39,2.36,0,3.04-3.6,3.1-4.93,3.13ZM51.36,6.47c-.69-.44-1.21-.72-2.49-1.17l.46-1.07c.72.23,1.75.61,2.58,1.11l-.55,1.13Z"/>
            <path class="cls-4" d="M61.03,13.46l-.79-.99c.44-.05,1.22-.17,1.84-.76.39-.37.62-.89.62-1.49,0-1.03-.78-1.36-1.08-1.49-.54,1.13-.95,1.83-1.76,2.71.08.26.1.3.21.65l-1.03.56c-.08-.16-.09-.19-.15-.4-.29.18-.88.54-1.54.54s-1.19-.53-1.19-1.4c0-.73.4-2.24,2.35-3.32.02-.42.05-.69.11-1.2-.68.03-.96.03-1.54.03l-.36-1.07c.39.04,1.26.11,2.05.08.13-.76.23-1.16.4-1.82l1.12.3c.27.08.27.13.27.16,0,.1-.13.13-.25.16-.12.27-.2.58-.33,1.06,1.41-.24,2.01-.46,2.64-.72v1.15c-1.03.3-1.71.44-2.84.57-.06.4-.08.45-.13.88.46-.09.7-.1,1.17-.09.05-.22.09-.36.13-.56l1.24.27-.17.5c1.21.41,1.94,1.21,1.94,2.48,0,2.37-2.19,2.98-2.93,3.2ZM58.49,9.24c-.97.81-1.24,1.49-1.24,1.93s.21.51.4.51c.42,0,.76-.28,1-.46-.11-.76-.14-1.22-.16-1.97ZM59.56,8.62c-.02.81.02,1.21.05,1.55.42-.64.64-1.07.88-1.67-.38-.01-.58.01-.94.12Z"/>
            <path class="cls-4" d="M67.77,12.6l-.97.18c-.28-.62-.85-1.91-.85-4.57,0-1.25.14-2.19.43-3.78l1.09.31c.11.03.31.1.31.19,0,.04-.02.05-.17.17-.21.17-.52,1.91-.52,3.58,0,.65.02,1.28.18,1.9.19-.33.32-.62.46-1l.75.53c-.36.81-.57,1.56-.72,2.49ZM72.45,7.74c.02.43,0,1.07-.04,1.57-.19,2.13-.98,3.34-1.39,3.96l-1.18-.62c1.31-1.6,1.46-2.99,1.46-4.2v-.46c-.81.11-1.28.14-2.19.15l-.25-1.24c.37.02.53.02.75.02.84,0,1.28-.06,1.61-.11-.05-1-.11-1.53-.29-2.27l1.23.03c.11,0,.28.01.28.14,0,.04-.05.12-.09.15-.05.05-.11.13-.11.19,0,.04.11,1.27.12,1.51.71-.15,1-.27,1.45-.51l.04,1.23c-.62.25-1.02.36-1.41.45ZM73.24,4.98c-.19-.34-.4-.67-.66-.95l.54-.38c.24.27.45.57.66.96l-.54.37ZM74.44,4.77c-.19-.35-.44-.74-.68-1l.54-.37c.29.33.53.73.67,1l-.53.37Z"/>
            <path class="cls-4" d="M83.03,11.16v1.42c0,.64-.42.76-1.78.91l-.51-1.22h.81c.21,0,.28-.08.28-.33v-.78h-3.05c.6.51.88.86,1.1,1.14l-1.01.85c-.55-.72-.84-1-1.2-1.31l.71-.68h-2.6v-.99h6.04v-.51h-4.98v-3.45h2.91v-.55h-3.82v-.92h3.82v-.66l.96.04c.53.02.53.08.53.13,0,.06-.03.12-.11.18-.12.1-.12.12-.12.3h3.92v.92h-3.92v.55h3.06v3.45h-1.06v.51h2.04v.99h-2.04ZM79.77,7.02h-1.63v.53h1.63v-.53ZM79.77,8.29h-1.63v.55h1.63v-.55ZM82.8,7.02h-1.78v.53h1.78v-.53ZM82.8,8.29h-1.78v.55h1.78v-.55Z"/>
            <path class="cls-4" d="M87.67,8.29v5.08h-1.26V4.47h4.19v3.82h-2.93ZM89.43,5.44h-1.72v.54h1.72v-.54ZM89.43,6.78h-1.72v.59h1.72v-.59ZM94.03,13.4h-.52l-.75-1.43c.68.14.95.15,1.01.15.26,0,.31-.15.31-.33v-3.52h-2.91v-3.82h4.19v7.95c0,.7-.37,1.01-1.34,1.01ZM94.04,5.38h-1.72v.51h1.72v-.51ZM94.04,6.72h-1.72v.59h1.72v-.59Z"/>
            <path class="cls-4" d="M101.63,6.37l.66.13c.12.02.3.06.3.16,0,.09-.09.12-.24.19v.53h3.63v1.11h-3.63v1.09h2.95v3.86h-1.25v-.28h-3.73v.28h-1.18v-3.86h1.97v-3.21h-2.29v1.69c0,1.21-.11,1.92-.34,3.11-.18.88-.49,1.56-.75,2.14l-1.17-.44c.38-.72,1.03-1.98,1.03-4.58v-3.05h3.23v-1.13l1.41.09c.11.01.24.04.24.16,0,.07-.1.13-.15.16s-.13.08-.13.12v.6h3.94v1.12h-4.49ZM104.06,10.74h-3.73v1.34h3.73v-1.34Z"/>
            <path class="cls-4" d="M114.05,10.49c.26.59.79,1.1,1.09,1.37l-.71.88c-.25-.25-.65-.69-.98-1.2-.38.99-.86,1.52-1.35,1.96l-1.17-.65c.65-.51,1.3-1.16,1.64-2.37h-1.37v-.98h1.52c.01-.12.03-.38.04-.58h-1.37v-.88h1.4v-.71l1.15.05c.15.01.25.03.25.12,0,.04-.06.08-.12.11-.09.05-.1.17-.1.43h1.4v.88h-1.45c-.02.28-.03.31-.05.58h1.69v.98h-1.51ZM111.68,7.53c-.13-.55-.39-1.12-.55-1.44l.94-.44c.17.31.45.87.59,1.43l-.98.45ZM115.35,5.12s-.21-.02-.3-.03c-.12.02-.39.07-.58.11-1.29.26-2.28.34-2.89.39l-.38-1c1.63-.01,2.78-.23,3.65-.42l.52.68c.04.05.06.12.06.18s-.04.1-.09.1ZM113.06,7.2c-.04-.32-.12-.81-.33-1.27l1.04-.33c.15.44.24.98.27,1.29l-.98.31ZM116.92,9.18v.41h3.55c-.01,1.43-.26,2.63-.34,2.91-.28.91-.75.97-1.81.97l-.55-1.13c.39.05.58.08.83.08.44,0,.65-.06.78-1.92h-3.59v-4.52c-.1.31-.24.76-.69,1.42l-1.01-.42c.31-.49.52-.91.7-1.5l1,.26v-.82h1.02c.12-.3.21-.59.27-.92l1.33.21c.16.02.24.09.24.17s-.15.13-.26.16c-.06.1-.16.31-.19.38h1.88v3.17h-3.15v.34h3.61v.75h-3.61ZM116.19,11.27c-.05,1.06-.41,1.7-.54,1.96l-.83-.28c.54-.87.62-1.79.66-2.12l.7.15c.14.03.23.06.23.15,0,.08-.09.11-.21.14ZM117.16,12.72l-.74-.05c.03-.18.08-.5.08-1.06,0-.34-.01-.54-.03-.69l.67.04c.03.16.08.44.08,1.01,0,.41-.02.59-.04.74ZM118.93,5.69h-2v.44h2v-.44ZM118.93,6.85h-2v.48h2v-.48ZM117.53,12.2c.03-.53-.09-1.09-.12-1.25h.64c.12.54.13.92.14,1.23l-.66.02ZM118.5,11.86c-.1-.52-.2-.81-.27-.98l.61-.1c.09.23.21.54.26.92l-.6.16Z"/>
            <path class="cls-4" d="M129.34,6.01c.05.15.18.52.26.92l-.52.12.7.73s.12.13.12.18-.09.1-.15.1c-.04,0-.29-.05-.34-.05-.02,0-.05,0-.08.01-.46.12-1.17.26-2.34.41-.01.3-.02.47-.04.79h4.06v1.12h-3.52c.96,1.32,1.78,1.73,3.51,2.13l-.89,1.13c-1.78-.67-2.66-1.2-3.67-2.73-.7,1.25-1.46,2-3.66,2.66l-1.07-1.08c.85-.15,1.63-.29,2.41-.75.78-.45,1.06-.95,1.29-1.37h-3.61v-1.12h3.78c.03-.29.03-.46.03-.59-.8.06-1.58.12-2.67.12l-.65-1.16c.53.03.97.05,1.69.05,2.37,0,3.74-.39,4.41-.57-.14-.56-.27-.85-.36-1.04h-.4c-.41.6-.69.97-1.03,1.31l-1.13-.54c.3-.27.47-.44.72-.75h-.98c.11.3.25.7.34,1.19l-1.24.1c-.08-.4-.18-.82-.36-1.28h-.26c-.21.31-.57.89-.97,1.31l-1.2-.55c.79-.75,1.35-1.7,1.78-2.69l1.18.31c.17.04.22.1.22.15,0,.09-.04.1-.25.18-.08.03-.09.05-.17.23h2.17v.69c.34-.55.53-.94.73-1.57l1.24.27c.06.01.19.05.19.16,0,.06-.04.1-.18.17-.08.03-.08.04-.16.23h2.79v1.09h-1.73Z"/>
          </g>
        </g>
      </g>
    </g>
  </g>
</svg>