<?xml version="1.0" encoding="UTF-8"?>
<svg xmlns="http://www.w3.org/2000/svg" viewBox="0 0 162.24 27.2">
  <defs>
    <style>
      .cls-1 {
        fill: #f18d09;
      }

      .cls-2 {
        isolation: isolate;
      }

      .cls-3 {
        fill: #231815;
      }

      .cls-4 {
        fill: #fff;
      }

      .cls-5 {
        fill: #f29014;
        mix-blend-mode: multiply;
      }
    </style>
  </defs>
  <g class="cls-2">
    <g id="_レイヤー_2" data-name="レイヤー_2">
      <g id="_テキスト_xFF08_B_xFF09_" data-name="テキスト_xFF08_B_xFF09_">
        <g>
          <rect class="cls-1" width="162.24" height="17.49"/>
          <rect class="cls-5" width="8.29" height="17.49"/>
          <g>
            <path class="cls-3" d="M26.89,22.43c-.05.13-.07.22-.08.47-.02.79-.1,1.87-.17,2.33-.18,1.21-.43,1.5-1.27,1.5-.27,0-.5-.02-.87-.08-.01-.44-.04-.57-.16-.9.41.11.69.16.92.16.3,0,.41-.15.52-.76.08-.48.15-1.44.15-2.24h-1.63c-.1.88-.25,1.41-.56,2.01-.38.74-1.01,1.38-1.89,1.94-.24-.37-.34-.48-.63-.74.88-.46,1.45-1.02,1.82-1.76.19-.39.29-.73.36-1.22.01-.1.03-.17.04-.22h-1.16c-.43,0-.53.01-.76.04v-.86c.23.04.42.06.77.06h1.23c.02-.27.03-.68.03-.88v-.17c0-.09,0-.15-.02-.27l.94.02c-.01.09-.02.12-.03.22,0,.04,0,.08,0,.13q-.01.15-.03.51c0,.15,0,.22-.03.44h1.55c.31,0,.38-.01.55-.07l.4.35Z"/>
            <path class="cls-3" d="M30.04,21.14q-.03.2-.07,1.57c-.05,1.37-.2,2.16-.57,2.88-.24.48-.5.84-.97,1.3-.27-.35-.38-.46-.71-.68.34-.28.51-.47.72-.81.5-.81.67-1.71.67-3.67,0-.38,0-.45-.03-.64l.95.05ZM31.9,21.06c-.03.2-.04.32-.05.67l-.04,3.99c.49-.23.77-.44,1.07-.8.32-.38.53-.76.69-1.28.24.31.34.41.66.66-.29.69-.65,1.22-1.12,1.63-.4.34-.76.55-1.49.84-.15.06-.21.08-.3.13l-.45-.48c.05-.2.06-.36.06-.74l.04-3.95v-.21c0-.18,0-.33-.03-.46h.95Z"/>
            <path class="cls-3" d="M36.34,23.22c1.06-.2,2.61-.82,3.06-1.25l.56.79s-.26.12-.63.3c-.95.46-1.93.77-2.99.97v.92s0,.07,0,.09c0,.41.03.57.12.67.12.13.52.18,1.2.18.47,0,1.12-.04,1.62-.11.34-.04.49-.08.8-.17l.04.93c-.15,0-.18,0-.93.08-.41.04-1.29.08-1.72.08-.88,0-1.37-.09-1.64-.3-.2-.15-.3-.37-.34-.71-.01-.12-.02-.24-.02-.64v-3.25c0-.36,0-.47-.04-.64h.94c-.03.17-.04.29-.04.65v1.42ZM39.67,20.82c.28.32.47.6.7,1.06l-.5.23c-.22-.45-.4-.73-.69-1.07l.5-.22ZM40.71,21.71c-.19-.39-.41-.72-.67-1.04l.48-.22c.31.35.5.62.69,1.01l-.5.25Z"/>
            <path class="cls-3" d="M44.38,24.77c-.32,0-.5,0-.68.04v-.71c.16.02.27.03.54.03h.09v-.61h-.12c-.23,0-.35,0-.55.04v-.59c-.16.2-.24.29-.44.49-.03.57-.05.81-.1,1.15.23.36.5.65.83.9-.18.26-.27.4-.38.69-.29-.3-.45-.5-.62-.76-.22.71-.5,1.23-.96,1.71-.15-.25-.29-.42-.5-.6.4-.41.63-.83.8-1.46.2-.66.27-1.65.27-3.32,0-.6,0-.75-.05-1.02h.81q-.04.23-.04,1.34c0,.15,0,.24,0,.46.19-.28.28-.44.36-.62l.53.41c-.09.12-.22.29-.38.51.13.01.24.02.45.02h.12v-.22c0-.14,0-.22-.03-.33h.7c-.01.09-.02.17-.02.32v.24h1.51v-.23c0-.14,0-.21-.02-.32h.72c-.02.1-.03.19-.03.32v.23h.27c.24,0,.38,0,.58-.04v.73c-.19-.03-.34-.04-.58-.04h-.27v.61h.11c.29,0,.44,0,.64-.04v.73c-.22-.03-.42-.04-.71-.04h-.58v1.44c0,.14.04.16.41.16.18,0,.29-.04.31-.13.04-.12.06-.34.07-.74.2.13.34.19.66.28-.04.64-.11.95-.28,1.1-.13.12-.41.18-.9.18-.78,0-.97-.11-.97-.55v-1.73h-.55c-.04.43-.07.61-.17.88-.25.74-.71,1.18-1.6,1.54-.12-.29-.23-.46-.43-.64.5-.16.77-.32,1.04-.61.28-.3.42-.68.44-1.18h-.25ZM41.51,23.9c.1-.33.13-.48.17-.86.04-.33.05-.59.05-.81v-.18l.59.07c-.01.9-.08,1.46-.22,2.07l-.58-.29ZM46.06,22.24c0,.22,0,.29.02.41h-.71c.01-.11.02-.22.02-.41v-.24h-.81c-.25,0-.5.01-.68.04v-.73c.22.03.38.04.68.04h.81v-.18c0-.2,0-.31-.04-.47h.74c-.03.14-.04.27-.04.48v.17h1.02c.27,0,.47-.01.67-.04v.74c-.2-.02-.42-.04-.65-.04h-1.04v.23ZM46.49,24.12v-.61h-1.51v.61h1.51Z"/>
            <path class="cls-3" d="M57.27,20.62l-5.31,6.58h-1.03l5.3-6.58h1.04Z"/>
            <path class="cls-3" d="M60.4,22.29c.24-.02.35-.04.82-.14,1.6-.34,1.97-.4,2.79-.4,1.39,0,2.29.78,2.29,1.97,0,.95-.56,1.76-1.55,2.24-.64.31-1.18.44-2.47.58-.09-.38-.15-.53-.36-.9,1.12-.05,1.71-.15,2.3-.41.5-.22.92-.62,1.06-1.04.05-.14.08-.32.08-.5,0-.38-.2-.72-.53-.91-.22-.13-.52-.19-.9-.19-.73,0-1.63.16-2.76.5-.36.11-.41.12-.56.2l-.2-.99Z"/>
            <path class="cls-3" d="M71.59,21.37c-.12.08-.25.2-.86.77-.36.33-.85.72-1.67,1.34-.22.16-.27.22-.27.29,0,.11.01.12.63.58,1.09.83,1.29,1,2.21,1.83.07.07.11.1.2.17l-.72.73c-.18-.25-.43-.52-.91-.96-.5-.46-.73-.65-1.81-1.49-.46-.36-.59-.55-.59-.87,0-.21.08-.4.23-.57.09-.1.1-.1.62-.5.76-.57,1.15-.91,1.62-1.37.31-.32.39-.41.51-.58l.81.62Z"/>
            <path class="cls-3" d="M73.12,22.07c.11,0,.16,0,.22,0,.17,0,.55-.02.9-.05.01-.41.01-.53.01-.83,0-.18,0-.23,0-.39h.88q-.04.21-.08,1.16s.06-.01.11-.03l.26.3c-.08.06-.09.08-.39.42l-.02.49c.22-.22.38-.35.62-.52.76-.55,1.17-.72,1.7-.72,1.02,0,1.6.84,1.6,2.35,0,.39-.03.67-.09,1.01.11.07.15.11.46.34q.05.04.13.11s.04.03.08.06l-.33.84c-.15-.18-.31-.34-.63-.58-.09.2-.17.29-.32.42-.27.21-.67.34-1.08.34-.81,0-1.35-.43-1.35-1.08s.53-1.07,1.3-1.07c.33,0,.61.06.96.21.04-.22.06-.36.06-.6,0-1.04-.29-1.55-.89-1.55-.32,0-.66.14-1.13.48-.35.25-.69.53-1.07.91,0,2.06,0,2.45.05,2.84h-.92q.04-.26.04-1.92c0-.1,0-.15.01-.26-.07.09-.21.26-.37.43-.33.36-.38.43-.5.57l-.42-.82c.16-.1.34-.27,1.29-1.2q0-.43.02-1.01-.85.06-1.06.11l-.04-.79ZM77.1,25.34c-.33,0-.56.17-.56.41,0,.21.25.36.57.36.15,0,.32-.04.45-.11.12-.07.22-.17.28-.31.03-.05.04-.08.04-.09-.31-.19-.51-.26-.79-.26Z"/>
            <path class="cls-3" d="M81.34,23.3c-.34,0-.52,0-.72.02.02-.17.03-.34.03-.61v-.81c0-.27,0-.42-.03-.59.2.02.43.03.78.03h1.46c0-.3-.02-.46-.05-.67h.86c-.03.2-.04.36-.04.67h1.58c.36,0,.57,0,.78-.03-.02.17-.03.31-.03.59v.81c0,.29,0,.43.03.61-.2-.01-.42-.02-.72-.02h-1.64v.53h1.93c.34,0,.52,0,.71-.03-.02.2-.03.36-.03.68v1c0,.34,0,.53.04.74h-.81v-.33h-1.84v.36c0,.46,0,.67.04.92h-.86c.03-.26.05-.53.05-.92v-.35h-1.74v.33h-.8c.02-.24.04-.46.04-.74v-1c0-.27,0-.47-.03-.67.2.01.38.02.69.02h1.84v-.53h-1.51ZM81.11,24.49v.71h1.74v-.71h-1.74ZM81.41,22.01v.65h1.45v-.65h-1.45ZM83.63,22.66h1.57v-.65h-1.57v.65ZM83.63,25.2h1.84v-.71h-1.84v.71Z"/>
            <path class="cls-3" d="M95.79,20.62l-5.31,6.58h-1.03l5.3-6.58h1.04Z"/>
            <path class="cls-3" d="M100.05,22.14c0,1.58-.11,2.99-.29,3.72-.13.48-.27.82-.53,1.27-.2-.29-.36-.48-.58-.66.27-.46.4-.81.5-1.39.11-.62.17-1.67.17-3,0-.7,0-.95-.04-1.23.28.02.56.03.92.03h4.03c.4,0,.67-.01.85-.04v.71c-.21-.03-.39-.04-.83-.04h-4.2v.62ZM102.18,25.3c0-.12,0-.17-.02-.26h.32c.2-.07.42-.17.6-.28h-1.93c-.38,0-.55,0-.74.03v-.64c.23.03.42.04.73.04h2.46c.36,0,.48,0,.64-.02l.31.36s-.04.02-.58.34c-.25.15-.6.33-.87.44h1.23c.37,0,.63-.01.83-.04v.69c-.24-.03-.53-.04-.83-.04h-1.37v.48c0,.58-.18.72-.95.72-.33,0-.49,0-.9-.03-.05-.26-.08-.34-.2-.65.3.04.76.08.99.08s.29-.04.29-.18v-.42h-1.35c-.31,0-.57.01-.8.04v-.69c.19.02.45.04.82.04h1.34ZM100.54,22.38c0-.26,0-.43-.03-.61.21.01.38.02.77.02h2.53c.39,0,.56,0,.77-.02-.02.16-.03.32-.03.6v.94c0,.28,0,.41.03.62-.22-.01-.4-.02-.78-.02h-2.52c-.37,0-.56,0-.78.02.02-.19.03-.34.03-.61v-.94ZM101.27,22.6h2.55v-.27h-2.55v.27ZM101.27,23.37h2.55v-.28h-2.55v.28Z"/>
            <path class="cls-3" d="M106.17,23.34c-.22.05-.34.08-.54.14l-.06-.76c.14,0,.29-.02.52-.07l.28-.06v-1.16c0-.34,0-.48-.04-.67h.83c-.03.16-.04.3-.04.62v1.04l.98-.2c.2-.04.37-.08.49-.13l.05.76c-.14.01-.31.04-.51.08l-1.01.2v1.77c0,.15.03.17.21.17.24,0,.36-.05.41-.16.05-.12.09-.5.1-1.04.21.11.46.21.69.27-.06.9-.14,1.21-.4,1.43-.19.15-.5.22-1,.22-.61,0-.76-.13-.76-.65v-1.85l-.2.04ZM108.7,21.83c-.26,0-.44,0-.58.03v-.77c.21.03.53.04.91.04h2.28c.32,0,.52,0,.72-.03-.04.38-.04.47-.08,2.04-.06,1.61-.2,2.79-.39,3.28-.15.37-.46.54-1.04.54-.17,0-.51-.01-.7-.03-.04-.32-.08-.52-.18-.78.32.05.59.08.76.08.41,0,.47-.08.59-.72.08-.46.15-1.03.18-1.71q.04-.57.06-1.98h-1.04c-.05,1.44-.15,2.11-.4,2.89-.2.61-.48,1.11-.92,1.62-.26.31-.48.49-.92.78-.2-.26-.29-.34-.62-.59.59-.31.98-.64,1.29-1.11.41-.62.64-1.34.73-2.33.04-.37.05-.59.06-1.26h-.71Z"/>
            <path class="cls-3" d="M112.77,24.35c.2-.1.57-.52,1.51-1.69.24-.31.38-.46.53-.55.15-.09.31-.13.48-.13.35,0,.51.11,1.04.71.83.92,1.49,1.56,2.27,2.23.4.35.51.43.67.53l-.44.96c-1.31-1.19-1.67-1.55-2.96-2.96q-.45-.49-.57-.49c-.11,0-.14.02-.43.41-.29.39-.88,1.11-1.25,1.56-.11.13-.14.17-.24.29l-.6-.86ZM117.52,21.66c.31.33.5.6.74,1.03l-.49.26c-.23-.43-.43-.71-.74-1.04l.49-.25ZM118.61,22.51c-.21-.38-.44-.71-.71-1.02l.47-.25c.32.32.51.59.73.99l-.48.27Z"/>
            <path class="cls-3" d="M119.73,23.4c.31.04.44.05,1.13.05h3.73c.69,0,.83,0,1.13-.05v.97c-.28-.04-.36-.04-1.14-.04h-3.72c-.79,0-.86,0-1.14.04v-.97Z"/>
            <path class="cls-3" d="M127.46,26.23c-.48,0-.65,0-.86.03v-.9c.26.04.38.05.88.05h3.19v-3.05h-3.07c-.5,0-.64,0-.9.04v-.91c.26.04.39.05.9.05h3.37q.36,0,.61-.01c-.02.19-.02.26-.02.58v3.84c0,.35,0,.55.04.72h-.94v-.43h-3.19Z"/>
            <path class="cls-3" d="M133.04,25.73c.6-.04,1.44-.24,2.07-.52.88-.38,1.53-.92,2.08-1.72.31-.45.5-.83.71-1.4.27.33.38.43.74.69-.6,1.28-1.26,2.11-2.22,2.75-.71.48-1.58.82-2.67,1.05-.28.06-.3.06-.46.12l-.26-.97ZM133.64,21.38c.83.52,1.27.84,1.81,1.35l-.6.76c-.56-.59-1.13-1.06-1.79-1.42l.58-.69Z"/>
            <path class="cls-3" d="M140.56,23.3c-.34,0-.52,0-.72.02.02-.17.03-.34.03-.61v-.81c0-.27,0-.42-.03-.59.2.02.43.03.78.03h1.46c0-.3-.02-.46-.05-.67h.86c-.03.2-.04.36-.04.67h1.58c.36,0,.57,0,.78-.03-.02.17-.03.31-.03.59v.81c0,.29,0,.43.03.61-.2-.01-.42-.02-.72-.02h-1.64v.53h1.93c.34,0,.52,0,.71-.03-.02.2-.03.36-.03.68v1c0,.34,0,.53.04.74h-.81v-.33h-1.84v.36c0,.46,0,.67.04.92h-.86c.03-.26.05-.53.05-.92v-.35h-1.74v.33h-.8c.02-.24.04-.46.04-.74v-1c0-.27,0-.47-.03-.67.2.01.38.02.69.02h1.84v-.53h-1.51ZM140.33,24.49v.71h1.74v-.71h-1.74ZM140.62,22.01v.65h1.45v-.65h-1.45ZM142.84,22.66h1.57v-.65h-1.57v.65ZM142.84,25.2h1.84v-.71h-1.84v.71Z"/>
          </g>
          <g>
            <path class="cls-4" d="M17.57,11.66c-.37-.28-.6-.52-.96-.99-.21,1.02-.62,1.87-1.31,2.66l-1-.65c1.27-1.37,1.44-2.84,1.44-5.17,0-.86,0-1.47-.05-3.35l1.11.09c.13.01.27.02.27.14,0,.05-.16.18-.18.23-.02.09-.03,1.65-.03,1.81.24-.28.36-.43.53-.73l.81.61s.1.1.1.16c0,.11-.14.14-.29.17-.12.18-.45.56-1.15,1.35-.01.38-.01.45-.04,1.11.33.7.88,1.26,1.51,1.71l-.73.85ZM15.47,6.86c.03.76.03,1.53-.11,2.28l-.99-.08c.06-.3.16-.79.16-1.65,0-.38-.02-.7-.04-1.01l.94.12c.24.03.25.1.25.13,0,.1-.15.17-.21.21ZM22.67,13.15h-1.4c-.53,0-.71-.23-.71-.69v-2.52h-1.44l.93.18c.06.01.21.04.21.16,0,.08-.06.1-.21.17-.18,1.59-1,2.41-2.37,2.9l-.93-.92c1.99-.33,2.21-1.5,2.25-2.5h-1.31v-1.01h.62v-.87h-.59v-1.04h.59v-.85l1.09.09c.08.01.24.02.24.13,0,.08-.16.21-.16.25v.39h1.92v-.92l1.13.1c.13.01.24.03.24.13,0,.08-.19.19-.19.24v.45h1.12v1.04h-1.12v.87h.86v1.01h-1.75v1.83c0,.16.08.21.31.21h.33c.29,0,.39-.57.45-.95l.98.42c-.18,1.55-.66,1.7-1.09,1.7ZM21.05,5.81v.82h-1.17v-.82h-2.03v-.99h2.03v-.68l1.11.09c.07,0,.25.02.25.13,0,.04-.18.17-.18.22v.25h2.15v.99h-2.15ZM21.38,8.05h-1.92v.87h1.92v-.87Z"/>
            <path class="cls-4" d="M32.33,13.59l-.45-1.13-.06.06c-.99-.47-1.66-1.11-2.23-1.84-.67,1.09-1.31,1.5-2.22,1.88l-.86-.93v1.76h-1.24v-7.9h3.74c0-.87,0-1.11-.01-1.49l1.33.08c.06,0,.25.02.25.15,0,.06-.1.14-.19.22-.04.18-.04.71-.08,1.04h3.75v6.99c0,1.01-.74,1.09-1.71,1.1ZM26.5,6.64v2c.51-.13,1.07-.28,1.58-.75.45-.42.6-.85.74-1.25h-2.33ZM27.37,9.7l-.86-1.01v2.85c.47-.13,1.04-.29,1.59-.9.58-.66.69-1.33.79-1.91-.53.49-.93.72-1.52.97ZM32.8,8.68l-.82,1c-1.09-.45-1.85-1.31-2.32-1.97-.21.37-.36.58-.62.87l1.22.19c.07.01.17.03.17.14s-.15.12-.27.2c-.03.17-.08.34-.12.47.23.31.5.67,1.1,1.12.74.56,1.21.67,1.66.79v-2.82ZM32.8,6.64h-2.39c.18.37.34.71.82,1.12.58.49,1.1.64,1.57.78v-1.9ZM32.8,11.54l-.7.7c.18.02.3.02.3.02.26.02.4-.23.4-.41v-.31Z"/>
            <path class="cls-4" d="M37.36,12.64l-.73-.74v-7.12l1.28.16c.08.01.29.04.29.15,0,.04-.01.06-.11.15-.16.13-.17.14-.17.18v5.41c.43-.11,1.3-.32,2.65-1.22,1.27-.85,2.11-1.73,2.57-2.22l.66,1.19c-1.63,1.81-4.17,3.33-6.44,4.06Z"/>
            <path class="cls-4" d="M51.53,12.54c-.98-1.21-1.75-1.98-2.63-2.69-.86.96-1.66,1.78-3.68,2.77l-.95-.98c.7-.3,2.07-.87,3.44-2.33,1.16-1.24,1.58-2.33,1.83-2.94h-4.1v-1.25h4.64c.21,0,.37-.11.56-.24l.83.92c-.22.15-.45.33-.58.65-.37.86-.57,1.36-1.25,2.41,1.04.79,1.97,1.7,2.86,2.66l-.96,1.02Z"/>
            <path class="cls-4" d="M60.17,10.45c-.8-.74-1.88-1.62-3.17-2.15v4.65h-1.27V4.41l1.29.23s.26.04.26.17c0,.06-.28.24-.28.29v2.83l.51-.8c.55.24.91.38,1.83.98.85.56,1.25.92,1.68,1.29l-.85,1.03Z"/>
            <path class="cls-4" d="M69.61,8.33c-.41.97-.81,1.95-1.78,3-1.1,1.18-2.28,1.68-3,1.98l-1-.93c.65-.23,1.85-.66,3.02-1.91.91-.98,1.22-1.85,1.37-2.28h-5.59v-1.19h6.11c.17,0,.4-.13.53-.2l.87.93c-.38.3-.5.54-.53.6ZM63.7,5.81v-1.22h5.12v1.22h-5.12Z"/>
            <path class="cls-4" d="M73.78,7.1c-.61-.51-1.35-.97-2.21-1.36l.66-1.01c.71.31,1.58.78,2.26,1.33l-.71,1.03ZM76.94,10.03c-1.7,1.38-2.73,1.83-4.06,2.4-.05.15-.08.33-.16.33-.06,0-.16-.06-.24-.21l-.75-1.29c.86-.21,2.27-.57,4-1.86,1.65-1.23,2.68-2.65,3.16-3.3l.74,1.08c-.42.56-1.26,1.69-2.68,2.84Z"/>
            <path class="cls-4" d="M80.91,9.45v-1.49h9.07v1.49h-9.07Z"/>
            <path class="cls-4" d="M93.68,8.13c-.17.12-.19.13-.24.26-.38,1.15-.69,1.94-1.19,2.94l-1.22-.42c.8-1.5,1.13-2.65,1.34-3.42l1.27.33c.08.02.13.08.13.15,0,.05-.03.11-.1.15ZM97.66,13.17h-2.29c-.86,0-1.25-.38-1.25-1.18v-5.32l1.4.16c.09.01.16.03.16.13,0,.06-.04.12-.13.19-.12.11-.15.18-.15.27v4.03c0,.36.25.56.58.56h1.1c.38,0,.7-.18.95-1.19l1.14.58c-.33,1.14-.67,1.77-1.51,1.77ZM96.92,6.54c-.37-.29-1.04-.82-2.4-1.48l.62-1.04c.96.38,1.73.8,2.54,1.42l-.76,1.1ZM99.49,10.65c-.58-1.3-1.18-2.18-1.83-2.98l1.08-.61c.8.88,1.43,1.89,1.93,2.97l-1.17.62Z"/>
            <path class="cls-4" d="M101.8,5.62v-1h3.94v-.71l1.29.05c.26.01.33.05.33.14s-.06.14-.12.17c-.11.08-.13.11-.13.15v.19h3.94v1h-9.26ZM109.79,10.8v-1.29h-6.74v1.29h-1.14v-2.21h9.03v2.21h-1.14ZM103.3,8.23v-2.23h6.26v2.23h-6.26ZM107.09,10.95v1.58c0,.87-1.09.89-1.96.93l-.54-1.31c.23.05.43.09.76.09.16,0,.52,0,.52-.34v-.94h-2.46v-.99h6.08v.99h-2.4ZM108.39,6.83h-3.94v.61h3.94v-.61Z"/>
            <path class="cls-4" d="M124.98,7.99c-.08-.18-.14-.34-.25-.57-.39.1-.76.18-1.45.29l-.03.04s.13.08.13.14c0,.04-.02.09-.06.12.64.57,1.22.88,2.5,1.25l-.69.88c-1.28-.52-1.8-.94-2.5-1.53-.69.74-1.18,1.12-1.95,1.54l-.69-.59v.92h-3.55v-3.4l-.79-.39c.69-.67,1.17-1.26,1.75-2.52l1.2.3c.05.01.16.05.16.11,0,.06-.12.12-.26.18-.04.04-.12.15-.15.21h1.15l.48.42c-.27.52-.47.84-.84,1.39h.85v2.49c1.2-.41,1.66-1,2.05-1.51-.02-.06-.02-.08-.03-.11-.25.05-.87.17-1.08.21s-.32.04-.37.1c-.08.1-.13.15-.18.15-.04,0-.09-.04-.12-.13l-.26-.67c.18-.01.32-.02.37-.03.19-.52.25-.66.42-1.24l.81.15c.23.04.25.13.25.15,0,.06-.08.11-.11.12-.13.04-.14.05-.16.08-.05.11-.16.37-.3.62.13-.01.22-.02.54-.08-.08-.16-.12-.26-.23-.45l.71-.18c.16.31.31.68.45,1.13l.21.05-.14-.62.22-.02c.25-.68.27-.75.38-1.12l.68.13c.12.02.15.02.25.06l-.3-.34c-1.06.13-2.03.25-3.07.3-.1.01-.23.01-.27.07-.06.1-.11.15-.16.15-.1,0-.13-.14-.15-.21l-.21-.83c.33-.02.79-.04,1-.05.14-.34.28-.7.46-1.25l1.08.14c.17.02.29.05.29.13s-.04.1-.12.13c-.08.03-.11.05-.16.08-.08.2-.18.47-.3.7.13-.01.78-.05.93-.07-.15-.14-.21-.18-.38-.31l.72-.55c.6.47,1.02.89,1.51,1.43l-.73.58v.02c-.02.06-.05.1-.14.13-.13.04-.15.1-.39.58.08-.01.4-.05.47-.08-.04-.08-.05-.1-.16-.27l.81-.43c.13.2.41.65.78,1.42l-.84.45ZM117.16,11.38c0,.2-.01,1.1-.28,2l-.85-.05c.23-.59.39-1.2.4-2.33l.65.1c.15.02.24.08.24.15,0,.09-.07.11-.15.13ZM117.75,5.95c-.29.42-.42.6-.61.83h.71c.18-.27.34-.52.47-.83h-.57ZM117.84,7.7h-.43v.53h.43v-.53ZM117.84,9.09h-.43v.53h.43v-.53ZM117.51,13.18c.02-.19.03-.38.03-.71,0-.61-.04-1.04-.06-1.29l.6-.04c.13.6.16,1.31.16,1.88l-.73.17ZM118.56,12.83c0-.33-.02-.85-.21-1.7l.62-.11c.14.54.24,1.11.27,1.68l-.68.13ZM119.06,7.7h-.43v.53h.43v-.53ZM119.06,9.09h-.43v.53h.43v-.53ZM119.61,12.55c-.05-.6-.2-1.2-.32-1.6l.62-.13c.24.61.34,1.11.42,1.55l-.72.18ZM125.21,11.32c-.06,0-.1.01-.17.08-1.39,1.25-2.6,1.66-3.82,2.01l-.78-.86c1.49-.28,2.65-.65,4.17-2.06l.66.51c.09.06.16.15.16.21,0,.1-.1.11-.22.11ZM123.29,9.78c-.06.01-.14.03-.21.04-.81.6-1.02.77-1.81,1.13l-.55-.59c1.12-.45,1.51-.72,2.05-1.25l.59.43c.05.03.1.08.1.13,0,.08-.13.1-.17.11ZM124.24,10.46c-.08.02-.16.04-.23.05-.79.65-1.4.99-2.5,1.47l-.56-.59c1.17-.47,1.66-.7,2.73-1.62l.61.44s.11.09.11.14c0,.09-.13.1-.16.11Z"/>
            <path class="cls-4" d="M132.21,8.86c-.01.45-.03,1.21-.41,2.15-.56,1.39-1.54,2.17-2.01,2.54l-1.13-.67c.51-.29,1.49-.85,2.1-2.18.39-.83.4-1.51.41-1.85h-1.65c-.42.66-.74,1.09-1.34,1.67l-1.03-.56c1.37-1.17,2.13-2.79,2.48-4.03l.99.38s.23.11.23.19c0,.06-.13.1-.24.15-.06.16-.36.86-.51,1.19h4.15v1.01h-2.04Z"/>
            <path class="cls-4" d="M137.5,8.51c-.46-.38-1.04-.75-1.59-.99l.58-.87c.57.24,1.15.58,1.64.96l-.62.91ZM137.3,12.86c-.06.1-.08.13-.08.16,0,.02.03.16.03.19,0,.04-.04.11-.1.11-.08,0-.18-.1-.27-.15l-.9-.71c.85-.96,1.48-2.09,1.95-3.28l.94.66c-.56,1.36-1.03,2.2-1.57,3.02ZM138.25,6c-.52-.51-1.02-.85-1.49-1.13l.69-.83c.53.32,1.03.7,1.48,1.14l-.68.82ZM144.65,13.31c-1.66-1.41-2.5-3.13-2.83-4.91h-.67c-.23,1.96-.59,3.59-1.72,4.97l-1.28-.47c1.35-1.56,1.83-3.04,1.83-6.25,0-.71-.01-1.41-.12-2.11h5.47v3.87h-2.35c.25,1.39,1.04,2.88,2.8,4.05l-1.13.86ZM144.04,5.58h-2.84c0,.29.01,1.65.01,1.78h2.83v-1.78Z"/>
            <path class="cls-4" d="M151.78,6.31l.66.13c.12.02.3.06.3.16,0,.09-.09.12-.24.19v.53h3.63v1.11h-3.63v1.09h2.95v3.86h-1.25v-.28h-3.73v.28h-1.18v-3.86h1.97v-3.21h-2.29v1.69c0,1.21-.11,1.92-.34,3.11-.18.88-.49,1.56-.75,2.14l-1.17-.44c.38-.72,1.03-1.98,1.03-4.58v-3.05h3.23v-1.13l1.41.09c.11.01.24.04.24.16,0,.07-.1.13-.15.16s-.13.08-.13.12v.6h3.94v1.12h-4.49ZM154.2,10.67h-3.73v1.34h3.73v-1.34Z"/>
          </g>
        </g>
      </g>
    </g>
  </g>
</svg>