<?xml version="1.0" encoding="UTF-8"?>
<svg xmlns="http://www.w3.org/2000/svg" viewBox="0 0 163.43 28.74">
  <defs>
    <style>
      .cls-1 {
        fill: #f18d09;
      }

      .cls-2 {
        isolation: isolate;
      }

      .cls-3 {
        fill: #231815;
      }

      .cls-4 {
        fill: #fff;
      }

      .cls-5 {
        fill: #f29014;
        mix-blend-mode: multiply;
      }
    </style>
  </defs>
  <g class="cls-2">
    <g id="_レイヤー_2" data-name="レイヤー_2">
      <g id="_テキスト_xFF08_B_xFF09_" data-name="テキスト_xFF08_B_xFF09_">
        <g>
          <rect class="cls-1" width="163.43" height="17.49"/>
          <rect class="cls-5" width="8.29" height="17.49"/>
          <g>
            <path class="cls-3" d="M8.58,26.35c-.05.04-.14.12-.4.35-.18.16-.41.32-.67.48.59.31,1.17.5,1.83.62-.17.27-.25.46-.37.81-1.05-.27-1.83-.64-2.52-1.22-.5-.43-.78-.79-1.07-1.39h-.61v1.59c.61-.13.92-.22,1.41-.38v.7c-.75.25-1.49.43-2.73.67-.17.04-.19.04-.32.07l-.15-.78c.22,0,.53-.04.99-.13v-1.74h-.38c-.29,0-.48,0-.71.04v-.76c.15.03.41.04.73.04h.36v-2.21c0-.38,0-.5-.03-.69.21.03.42.04.76.04h3.14c.41,0,.6,0,.81-.04v.74c-.22-.03-.38-.04-.8-.04h-3.07v.35h2.97c.28,0,.5-.01.64-.04v.64c-.14-.02-.47-.04-.64-.04h-2.97v.34h2.97c.28,0,.51-.01.64-.04v.64c-.2-.03-.36-.04-.64-.04h-2.97v.37h3.73c.31,0,.5-.01.69-.04v.76c-.18-.03-.38-.04-.63-.04h-.66l.66.34ZM6.17,26.01c.2.36.38.55.73.81.35-.24.74-.58.94-.81h-1.67Z"/>
            <path class="cls-3" d="M13.78,23.6c.34.52.68.9,1.22,1.32.54.43,1.04.71,1.74.97-.15.22-.29.5-.38.74-.4-.18-.53-.25-.87-.46v1.73c0,.33.01.54.04.76h-.82v-.34h-2.63v.34h-.81c.03-.22.04-.46.04-.76v-1.71c-.29.17-.44.26-.83.45-.12-.3-.2-.46-.38-.71.65-.26,1.16-.55,1.66-.94.53-.42.89-.83,1.22-1.39h.81ZM12.92,22.66c-.32.44-.56.69-1.02,1.05-.33.27-.48.35-1.15.71-.15-.26-.28-.42-.49-.63.55-.27.94-.48,1.26-.74.37-.29.57-.53.76-.85l.63.46ZM14.8,25.7c-.57-.43-1.03-.9-1.41-1.44-.36.53-.85,1.02-1.39,1.44h2.8ZM12.08,27.62h2.63v-1.24h-2.63v1.24ZM14.46,22.18c.34.45.6.69,1.08,1.02.26.17.47.29,1.01.53-.18.22-.32.46-.44.7-1.05-.59-1.51-.96-2.24-1.8l.6-.46Z"/>
            <path class="cls-3" d="M18.83,24.61c0,1.31-.11,2.11-.38,2.79-.2.5-.39.85-.68,1.24-.2-.27-.37-.43-.65-.66.29-.38.44-.62.59-1.04.12-.3.2-.62.24-.97.03-.27.08-1.1.08-1.41v-1.51c0-.29-.01-.5-.05-.74h.9c-.04.18-.04.35-.04.76v1.55ZM21.06,22.61c-.03.25-.04.45-.04.81v3.59c0,.42.01.67.04.9h-.9c.03-.24.04-.48.04-.89v-3.59c0-.38-.01-.59-.04-.81h.9ZM23.29,22.29c-.04.23-.05.43-.05.83v4.54c0,.46.01.69.05.94h-.9c.03-.24.04-.5.04-.94v-4.54c0-.39,0-.59-.04-.83h.9Z"/>
            <path class="cls-3" d="M26.64,23.06c.15-.31.25-.6.32-.92l.88.08c-.13.34-.23.57-.36.84h1.62c.41,0,.6,0,.86-.03-.03.24-.04.43-.04.86v3.92c0,.41,0,.59.04.81h-.8v-.36h-3.46v.36h-.79c.03-.17.04-.48.04-.81v-3.92c0-.42,0-.62-.04-.86.25.03.45.03.86.03h.85ZM25.72,24.57h3.46v-.79h-3.46v.79ZM25.72,26.04h3.46v-.8h-3.46v.8ZM25.72,27.56h3.46v-.85h-3.46v.85Z"/>
            <path class="cls-3" d="M32.41,24.47c.2.15.39.32.57.51.13-.15.19-.23.31-.41-.17-.17-.34-.3-.6-.49l.34-.46c.23.15.37.25.57.43.11-.22.16-.36.27-.71h-.92c-.33.62-.79,1.18-1.28,1.57-.16-.23-.29-.37-.5-.54.55-.38.93-.83,1.22-1.45.14-.29.2-.48.24-.74l.77.1c-.03.06-.04.08-.06.14q-.02.06-.06.15s0,.01-.05.13h.56c.22,0,.37,0,.5-.03l.38.38q-.04.11-.08.27c-.03.07-.06.17-.12.34.17.01.34.02.57.02h.22c.02-.29.02-.44.02-.72,0-.39,0-.5-.04-.7h.81c-.03.17-.03.25-.03.62,0,.23-.01.46-.04.81h.83c.3,0,.53-.01.74-.04v.76c-.22-.03-.43-.04-.74-.04h-.77c.18.45.4.77.77,1.12.31.29.53.43.94.63-.18.24-.26.39-.39.74-.82-.48-1.39-1.09-1.69-1.81-.15.37-.36.74-.58.99-.24.27-.56.51-1.04.78-.11-.23-.23-.39-.46-.62.52-.24.8-.45,1.09-.8.21-.27.37-.61.48-1.02h-.12c-.34,0-.44,0-.68.04v-.41c-.27.73-.6,1.23-1.12,1.77-.2.21-.52.46-.83.68-.18.12-.34.2-.73.41-.11-.26-.22-.43-.46-.65.62-.27.9-.44,1.32-.79-.15-.18-.37-.4-.55-.53l.43-.43ZM31.27,28.23c.46-.48.7-.86.95-1.5l.65.31c-.3.79-.5,1.13-.96,1.7l-.64-.51ZM33.41,28.65c-.01-.71-.05-1.14-.15-1.67l.69-.08c.12.6.17.92.22,1.67l-.76.08ZM35.06,28.6c-.09-.63-.2-1.06-.41-1.6l.67-.15c.24.58.36.95.5,1.59l-.76.16ZM36.99,28.67c-.35-.74-.55-1.08-.99-1.62l.57-.36c.54.67.76.99,1.09,1.59l-.68.39ZM36.73,22.32c.25.29.48.58.64.87l-.57.36c-.21-.41-.32-.57-.62-.92l.55-.32Z"/>
            <path class="cls-3" d="M45.03,24.08c-.16-.02-.29-.03-.58-.03-.13,1.15-.37,1.91-.84,2.65.49.52.93.83,1.62,1.16-.27.3-.4.49-.53.77-.84-.55-1.18-.83-1.58-1.28-.5.55-1.04.94-1.81,1.32-.11-.29-.22-.46-.46-.73.78-.32,1.3-.67,1.78-1.22-.34-.53-.6-1.07-.77-1.65-.14.2-.22.31-.43.56-.05-.08-.06-.11-.11-.17v.65c-.29.11-.53.19-.69.25v1.51c0,.29.01.6.05.82h-.83c.03-.22.05-.55.05-.82v-1.27c-.62.19-1.01.3-1.14.35l-.15-.84c.31-.02.54-.06,1.29-.27v-1.53h-.42c-.08.55-.12.71-.25,1.16-.22-.17-.41-.28-.66-.38.14-.37.2-.59.27-1.02.06-.39.09-.8.09-1.03,0-.09,0-.13-.02-.25l.73.07q-.01.1-.05.55c0,.07,0,.08-.02.2h.33v-.8c0-.22-.01-.41-.05-.6h.82c-.03.18-.04.34-.04.6v.8h.22c.22,0,.34,0,.46-.04v.78c-.12-.02-.22-.03-.43-.03h-.25v1.32c.22-.07.27-.08.65-.22-.15-.18-.2-.24-.35-.36.3-.32.41-.48.61-.87.34-.69.57-1.45.6-1.98l.8.15c-.03.08-.04.15-.1.34-.04.17-.08.3-.18.64h1.61c.35,0,.59-.01.74-.04v.8ZM42.41,24.05c-.03.06-.04.09-.08.17.15.67.4,1.27.77,1.83.34-.62.5-1.16.59-2h-1.28Z"/>
            <path class="cls-3" d="M48.77,26.51c-.29.26-.45.36-.86.6-.08-.15-.12-.2-.27-.37-.4.25-.74.43-1.39.74,0,0-.04.03-.09.06-.01,0-.04.01-.07.04l-.17-.82c.19-.04.44-.13.79-.28v-1.86h-.2c-.2,0-.37,0-.55.04v-.75c.16.03.32.04.55.04h.2v-.87c0-.36-.01-.57-.04-.78h.81c-.04.22-.04.41-.04.78v.86h.12c.23,0,.37,0,.5-.03v.74c-.17-.02-.3-.03-.49-.03h-.13v1.51c.19-.1.24-.13.47-.26v.48c.38-.23.63-.44.83-.71h-.15c-.29,0-.48.01-.65.04v-.7c.16.03.34.04.66.04h3.06c.34,0,.55-.01.73-.04v.7c-.2-.02-.42-.03-.72-.03h-2.14c-.06.11-.1.16-.19.29h2.23c.34,0,.48,0,.68-.02-.01.11-.02.2-.03.41-.04.88-.14,1.59-.29,1.91-.14.32-.37.41-.98.41-.19,0-.32,0-.59-.02-.03-.26-.08-.44-.19-.64-.38.33-.67.53-1.16.77-.15-.23-.27-.35-.5-.53.62-.27.91-.44,1.28-.76.29-.25.51-.53.73-.93h-.42c-.43.65-1.03,1.13-1.94,1.53-.12-.22-.22-.34-.45-.53.8-.29,1.26-.58,1.62-1h-.54ZM48.98,24.7c-.27,0-.5,0-.64.03.02-.2.03-.4.03-.68v-1.02c0-.3,0-.42-.03-.64.22.03.38.04.71.04h2.04c.35,0,.55,0,.75-.04-.02.2-.03.34-.03.69v.97c0,.31,0,.51.03.67-.15-.01-.36-.02-.64-.02h-2.21ZM49.09,23.34h1.98v-.29h-1.98v.29ZM49.09,24.14h1.98v-.29h-1.98v.29ZM51.23,26.51c-.27.6-.55.97-.98,1.37.29.04.52.06.72.06.26,0,.34-.07.4-.37.05-.25.08-.55.12-1.06h-.26Z"/>
            <path class="cls-3" d="M54.17,26.4c-.07,1.13-.2,1.76-.46,2.28-.18-.27-.38-.47-.6-.63.34-.77.43-1.66.43-4.62,0-.47,0-.74-.04-1.02.2.03.38.04.74.04h.6c.35,0,.54,0,.67-.04-.01.16-.02.29-.02.64v1.15c.56-.27.97-.57,1.3-.97h-.24c-.37,0-.58,0-.83.04v-.76c.22.03.46.04.85.04h2.19c.41,0,.69-.01.86-.04v.76c-.24-.03-.46-.04-.83-.04h-.39c.08.77.12,1.1.21,1.48.24-.3.43-.61.53-.84l.6.45q-.06.07-.16.22c-.23.35-.46.62-.74.92.27.74.55,1.19,1.05,1.7-.19.27-.29.46-.43.83-.57-.68-.9-1.25-1.2-2.11-.27-.74-.38-1.31-.55-2.66h-.1c-.2.31-.29.41-.51.63.22.24.39.55.55.94.25.66.42,1.56.42,2.3,0,.56-.08,1-.2,1.18-.15.21-.42.29-.92.29-.13,0-.25,0-.5-.02-.01-.27-.05-.43-.15-.71.27.05.44.07.62.07.21,0,.31-.05.35-.17.05-.14.08-.42.08-.84,0-.18,0-.29-.02-.47-.45.65-.82,1.02-1.53,1.51-.09-.17-.14-.24-.27-.4v.38c0,.53-.19.67-.88.67-.04,0-.14,0-.28,0,0-.32-.04-.47-.15-.71.15.03.31.04.46.04.13,0,.17-.04.17-.18v-1.34h-.65ZM54.21,24.79q0,.71-.01.97h.62v-.97h-.61ZM54.82,23.15h-.6v.99h.6v-.99ZM55.5,25.68c.53-.29.89-.57,1.33-1.04-.08-.15-.13-.22-.22-.34-.29.23-.5.36-.86.57-.11-.18-.14-.25-.26-.41v1.21ZM55.5,27.25c.69-.43,1.2-.91,1.68-1.58-.04-.22-.07-.31-.11-.47-.34.41-.71.74-1.3,1.11-.1-.18-.15-.27-.27-.41v1.34Z"/>
            <path class="cls-3" d="M63.23,23.02c-.02.08-.03.08-.04.14l-.02.12-.03.2-.02.17c-.29,2.01-.84,3.39-1.78,4.47-.33-.32-.46-.42-.8-.6.42-.42.71-.85,1-1.49.3-.65.55-1.52.66-2.4.04-.29.06-.53.06-.68v-.1l.96.17ZM65.22,22.85c0,.32.13,1.01.29,1.61.34,1.29.83,2.24,1.56,3.03-.36.22-.5.34-.77.64-.93-1.11-1.58-2.72-1.86-4.61-.04-.29-.06-.4-.1-.5l.87-.17ZM65.82,22.43c.26.36.41.66.58,1.13l-.53.17c-.16-.45-.31-.75-.57-1.14l.53-.15ZM66.78,23.44c-.16-.43-.34-.79-.56-1.11l.52-.15c.27.37.42.67.57,1.09l-.53.17Z"/>
            <path class="cls-3" d="M73.52,24.71c-.07.13-.11.22-.2.44-.37,1.03-.9,1.81-1.62,2.37-.5.38-.95.62-1.84.95-.15-.35-.24-.47-.54-.81.85-.22,1.41-.48,1.95-.92.52-.43.82-.86,1.13-1.64h-3.41c-.47,0-.64,0-.9.04v-.85c.27.04.42.05.91.05h3.33c.43,0,.57-.01.79-.06l.4.45ZM68.68,22.59c.23.04.38.05.82.05h2.44c.44,0,.59,0,.82-.05v.86c-.22-.03-.35-.04-.8-.04h-2.47c-.46,0-.59,0-.81.04v-.86Z"/>
            <path class="cls-3" d="M74.45,25.87c.2-.1.57-.52,1.51-1.69.24-.31.38-.46.53-.55.15-.09.31-.13.48-.13.35,0,.51.11,1.04.71.83.92,1.49,1.56,2.27,2.23.4.35.51.43.67.53l-.44.96c-1.31-1.19-1.67-1.55-2.96-2.96q-.45-.49-.57-.49c-.11,0-.14.02-.43.41-.29.39-.88,1.11-1.25,1.56-.11.13-.14.17-.24.29l-.6-.86ZM79.21,23.18c.31.33.5.6.74,1.03l-.49.26c-.23-.43-.43-.71-.74-1.04l.49-.25ZM80.3,24.03c-.21-.38-.44-.71-.71-1.02l.47-.25c.32.32.51.59.73.99l-.48.27Z"/>
            <path class="cls-3" d="M81.55,24.92c.31.04.44.05,1.13.05h3.73c.69,0,.83,0,1.13-.05v.97c-.28-.04-.36-.04-1.14-.04h-3.72c-.79,0-.86,0-1.14.04v-.97Z"/>
            <path class="cls-3" d="M89.43,27.75c-.48,0-.65,0-.86.03v-.9c.26.04.38.05.88.05h3.19v-3.05h-3.07c-.5,0-.64,0-.9.04v-.91c.26.04.39.05.9.05h3.37q.36,0,.61-.01c-.02.19-.02.26-.02.58v3.84c0,.35,0,.55.04.72h-.94v-.43h-3.19Z"/>
            <path class="cls-3" d="M95.15,27.25c.6-.04,1.44-.24,2.07-.52.88-.38,1.53-.92,2.08-1.72.31-.45.5-.83.71-1.4.27.33.38.43.74.69-.6,1.28-1.26,2.11-2.22,2.75-.71.48-1.58.82-2.67,1.05-.28.06-.3.06-.46.12l-.26-.97ZM95.75,22.9c.83.52,1.27.84,1.81,1.35l-.6.76c-.56-.59-1.13-1.06-1.79-1.42l.58-.69Z"/>
            <path class="cls-3" d="M102.81,24.82c-.34,0-.52,0-.72.02.02-.17.03-.34.03-.61v-.81c0-.27,0-.42-.03-.59.2.02.43.03.78.03h1.46c0-.3-.02-.46-.05-.67h.86c-.03.2-.04.36-.04.67h1.58c.36,0,.57,0,.78-.03-.02.17-.03.31-.03.59v.81c0,.29,0,.43.03.61-.2-.01-.42-.02-.72-.02h-1.64v.52h1.93c.34,0,.52,0,.71-.03-.02.2-.03.36-.03.68v1c0,.34,0,.53.04.74h-.81v-.33h-1.84v.36c0,.46,0,.67.04.92h-.86c.03-.26.05-.53.05-.92v-.35h-1.74v.33h-.8c.02-.24.04-.46.04-.74v-1c0-.27,0-.47-.03-.67.2.01.38.02.69.02h1.84v-.52h-1.51ZM102.58,26.01v.71h1.74v-.71h-1.74ZM102.87,23.53v.65h1.45v-.65h-1.45ZM105.09,24.19h1.57v-.65h-1.57v.65ZM105.09,26.72h1.84v-.71h-1.84v.71Z"/>
            <path class="cls-3" d="M111.6,26.29c-.32,0-.5,0-.68.04v-.71c.16.02.27.03.54.03h.09v-.61h-.12c-.23,0-.35,0-.55.04v-.59c-.16.2-.24.29-.44.49-.03.57-.05.81-.1,1.15.23.36.5.65.83.9-.18.26-.27.4-.38.69-.29-.3-.45-.5-.62-.76-.22.71-.5,1.23-.96,1.71-.15-.25-.29-.42-.5-.6.4-.41.63-.83.8-1.46.2-.66.27-1.65.27-3.32,0-.6,0-.75-.05-1.02h.81q-.04.23-.04,1.34c0,.15,0,.24,0,.46.19-.28.28-.44.36-.62l.53.41c-.09.12-.22.29-.38.51.13.01.24.02.45.02h.12v-.22c0-.14,0-.22-.03-.33h.7c-.01.09-.02.17-.02.32v.24h1.51v-.23c0-.14,0-.21-.02-.32h.72c-.02.1-.03.19-.03.32v.23h.27c.24,0,.38,0,.58-.04v.73c-.19-.03-.34-.04-.58-.04h-.27v.61h.11c.29,0,.44,0,.64-.04v.73c-.22-.03-.42-.04-.71-.04h-.58v1.44c0,.14.04.16.41.16.18,0,.29-.04.31-.13.04-.12.06-.34.07-.74.2.13.34.19.66.28-.04.64-.11.95-.28,1.1-.13.12-.41.18-.9.18-.78,0-.97-.11-.97-.55v-1.73h-.55c-.04.43-.07.61-.17.88-.25.74-.71,1.18-1.6,1.54-.12-.29-.23-.46-.43-.64.5-.16.77-.32,1.04-.61.28-.3.42-.68.44-1.18h-.25ZM108.74,25.42c.1-.33.13-.48.17-.86.03-.33.05-.6.05-.81v-.18l.59.07c-.01.9-.08,1.46-.22,2.07l-.58-.29ZM113.28,23.76c0,.22,0,.29.02.41h-.71c.01-.11.02-.22.02-.41v-.24h-.81c-.25,0-.5.01-.68.04v-.73c.22.03.38.04.68.04h.81v-.18c0-.2,0-.31-.04-.47h.74c-.03.14-.04.27-.04.48v.17h1.02c.27,0,.47-.01.67-.04v.74c-.2-.02-.42-.04-.65-.04h-1.04v.23ZM113.71,25.64v-.61h-1.51v.61h1.51Z"/>
            <path class="cls-3" d="M124.22,22.14l-5.31,6.58h-1.03l5.3-6.58h1.04Z"/>
            <path class="cls-3" d="M131.08,23.12q-.08.02-.59.19c-.4.13-.62.18-1.17.29q0,.95-.02,1.18h1.49c.47,0,.59,0,.85-.05v.84c-.26-.03-.39-.04-.84-.04h-1.55c-.08.65-.22,1.12-.47,1.53s-.65.8-1.14,1.11c-.2.13-.33.2-.65.35-.2-.36-.31-.49-.61-.74.5-.18.77-.33,1.09-.59.42-.34.69-.74.8-1.19.03-.12.05-.24.08-.47h-1.73c-.45,0-.58,0-.84.04v-.84c.26.04.38.05.85.05h1.79c.01-.29.01-.57.01-1.06-.57.08-.78.1-1.94.16-.07-.32-.11-.42-.26-.76.22.01.33.01.44.01.94,0,2.13-.16,3-.41.41-.12.61-.2.85-.33l.56.71Z"/>
            <path class="cls-3" d="M134.8,23.16c-.06-.34-.09-.46-.17-.66l.92-.15c0,.18.04.38.08.66l.11.61,1.48-.23c.34-.06.49-.09.67-.15l.15.84q-.19.01-.67.09l-1.48.23.21,1.15,1.64-.26c.29-.05.54-.11.73-.16l.15.84c-.15,0-.17,0-.32.04-.04,0-.08,0-.11.01-.05,0-.14.02-.28.04l-1.67.27.25,1.36c.08.46.09.48.17.72l-.94.17c0-.21-.04-.41-.09-.74l-.25-1.38-1.73.27c-.34.06-.46.08-.71.15l-.14-.86c.24,0,.44-.02.74-.07l1.7-.27-.21-1.15-1.3.2c-.32.06-.58.11-.77.16l-.14-.86c.25,0,.48-.04.77-.08l1.3-.2-.11-.59Z"/>
            <path class="cls-3" d="M139.67,27.25c.6-.04,1.44-.24,2.07-.52.88-.38,1.53-.92,2.08-1.72.31-.45.5-.83.71-1.4.27.33.38.43.74.69-.6,1.28-1.26,2.11-2.22,2.75-.71.48-1.58.82-2.67,1.05-.28.06-.3.06-.46.12l-.26-.97ZM140.27,22.9c.83.52,1.27.84,1.81,1.35l-.6.76c-.56-.59-1.13-1.06-1.79-1.42l.58-.69Z"/>
            <path class="cls-3" d="M148.23,25.02s-.02.09-.03.11c0,0-.01.05-.03.12-.22,1.02-.66,2.03-1.18,2.72-.33-.24-.48-.32-.81-.45.54-.58,1.09-1.83,1.18-2.7l.86.21ZM151.39,23.53c-.19-.46-.35-.75-.61-1.11l.52-.18c.27.36.44.64.62,1.11l-.48.18c.49,0,.64,0,.88-.05v.86c-.23-.03-.34-.04-.89-.04h-1.62v3.4c0,.39,0,.6.03.79h-.95c.03-.19.04-.4.04-.79v-3.39h-1.55c-.54,0-.65,0-.88.04v-.86c.25.04.38.05.9.05h1.54v-.39c0-.41-.01-.56-.04-.73h.95c-.02.19-.03.3-.03.75v.37h1.58ZM151.33,24.81c.22.91.78,2.13,1.24,2.67-.36.18-.49.27-.8.49-.51-.79-.82-1.51-1.15-2.62-.06-.19-.06-.22-.11-.33l.83-.21ZM152.33,23.25c-.17-.41-.37-.77-.6-1.09l.5-.18c.29.37.45.65.62,1.06l-.51.2Z"/>
            <path class="cls-3" d="M153.35,24.92c.31.04.44.05,1.13.05h3.73c.69,0,.83,0,1.13-.05v.97c-.28-.04-.36-.04-1.14-.04h-3.72c-.79,0-.86,0-1.14.04v-.97Z"/>
          </g>
          <g>
            <path class="cls-4" d="M58.53,7.28c-.53,1.79-1.09,3.52-2.22,5.73l-1.31-.4c.65-1.04,1.34-2.21,2.19-5.13-.86.11-1.23.12-1.61.13l-.09-1.12c.12.02.34.06.87.06.15,0,.83-.01,1.07-.06.16-.73.34-1.56.37-2.28l1.33.31s.27.05.27.17c0,.08-.03.11-.13.15-.14.06-.16.08-.18.18-.1.49-.18.87-.26,1.17.64-.14,1.28-.43,1.71-.64v1.2c-.37.12-.82.29-2,.52ZM61.25,13.09c-1.94,0-2.77-.54-2.77-1.64,0-.05,0-.4.13-.78l1.07.23c-.04.21-.04.38-.04.4,0,.14.02.23.13.32.3.28,1.12.29,1.37.29,1,0,1.58-.16,1.9-.24l.11,1.25c-.55.1-1.13.16-1.88.16ZM61.49,8.81c-.69,0-1.36.09-1.62.12v-1.13c.56-.04,1.1-.08,1.67-.08.75,0,1.1.03,1.42.06v1.14c-.81-.11-1.31-.12-1.48-.12Z"/>
            <path class="cls-4" d="M68.66,12.65c-.96,0-2.5-.09-3.12-.68-.17-.15-.36-.39-.36-.84,0-.96.57-1.56,1.08-2.06l.99.81c-.27.23-.63.56-.63.93,0,.21.09.29.15.34.3.26,1.36.26,1.83.26,1.85,0,2.55-.13,3.36-.29l.06,1.34c-.95.09-2.11.19-3.36.19ZM68.94,7.99l-.79-.85,1.1-.93c-1.79,0-2.52-.01-3.16-.06l-.29-1.24c.96.16,1.93.25,2.91.25.79,0,1.58-.02,2.37-.13l.51.91c-.95.65-2.06,1.56-2.65,2.06Z"/>
            <path class="cls-4" d="M78.84,9.8l-.41-1.17c.22.03.45.05.67.05,1.29,0,2.08-.68,2.08-1.42,0-.59-.66-.81-1-.81-.25,0-.55.09-.7.13.15.2.32.48.57.89l-1.16.5c-.1-.22-.2-.43-.54-.98-.53.23-.83.38-1.49.73.81,1.64,1.33,2.92,1.98,4.93l-1.21.54c-.73-2.61-1.37-3.92-1.83-4.85-.73.48-1.06.74-1.4,1.06l-.97-1.07c.15-.09.32-.18,1.82-1.04-.37-.66-.67-1.16-1.11-1.71l1.14-.5c.13-.05.43-.2.43-.01,0,.05-.09.27-.09.32,0,.04.11.21.14.27.08.11.4.7.58,1.03.58-.3.91-.45,1.36-.65-.54-.7-.8-.95-1.09-1.18l1.11-.52c.31.32.55.58,1.08,1.28.37-.11.83-.24,1.33-.24,1.02,0,2.19.54,2.19,1.9,0,2.41-2.64,2.49-3.48,2.51Z"/>
            <path class="cls-4" d="M89.33,8.16c.67,1.27,1.01,1.73,1.42,2.24l-.66.82c-.52-.28-1.58-.82-2.82-.82-.71,0-1.3.3-1.3.88,0,.92,1.4.92,1.77.92,1.02,0,1.64-.16,2.15-.29l-.11,1.27c-.3.04-.85.13-1.7.13-1.94,0-3.28-.61-3.28-2.04s1.16-1.87,2.38-1.87c.54,0,1.01.08,1.54.17-.26-.46-.36-.66-.56-1.06-1.13.28-2.06.45-3.46.47l-.38-1.09c1.53-.01,2.23-.08,3.39-.32-.16-.37-.28-.64-.39-.88-1.09.22-1.69.28-2.56.29l-.33-1.03c1.03-.01,1.58-.05,2.51-.22-.25-.67-.37-1.01-.54-1.52l1.23-.14c.09-.01.36-.04.36.09,0,.05-.03.09-.09.14-.09.09-.1.12-.1.15,0,.08.18.6.32.99.73-.26,1.14-.44,1.84-.83l.24,1.04c-.61.39-1.21.57-1.7.73.14.33.18.44.36.82.79-.31,1.23-.54,1.96-.97l.19,1.08c-.59.39-1.02.58-1.69.84Z"/>
            <path class="cls-4" d="M98.84,5.54v1.3h2.63v6.46h-1.2v-.41h-5.86v.43h-1.2v-6.48h2.52v-1.3h-3v-1.1h9.24v1.1h-3.15ZM100.27,9.7c-.15.62-.62.86-.96.86h-.94c-.58,0-.72-.52-.72-.9v-1.72h-.74c-.01.57-.03,1.2-.4,1.97-.29.62-.61.92-.97,1.22l-1.11-.73c.31-.21.67-.42.96-.93.32-.57.34-1.08.36-1.53h-1.34v3.86h5.86v-2.09ZM97.66,5.54h-.74v1.3h.74v-1.3ZM100.27,7.93h-1.43v1.31c0,.15.05.21.24.21.25,0,.29-.12.39-.71l.81.41v-1.23Z"/>
            <path class="cls-4" d="M104.29,9.06c-.45-.43-1.13-.86-1.49-1.07l.64-.89c.44.22,1.06.62,1.53,1.01l-.68.95ZM103.96,13.26c-.03.06-.03.09-.03.24,0,.04-.01.1-.05.1-.08,0-.18-.08-.26-.14l-.79-.67c.64-.87,1.17-1.8,1.59-2.79l.87.68c-.47,1.06-.82,1.67-1.34,2.58ZM104.63,6.15c-.3-.3-.79-.73-1.27-1.07l.7-.87c.4.28.94.7,1.33,1.07l-.75.87ZM107.07,5.87c-.2.28-.45.59-.9.96l-1-.59c.6-.55,1.22-1.21,1.73-2.35l1.08.37c.1.03.22.09.22.14,0,.04-.05.09-.09.1-.05.01-.17.04-.19.06-.04.03-.15.26-.17.3h4.76v1.01h-5.43ZM111.73,9.69c-.02.43-.03.61-.09,1.11h.74v.99h-.86c-.12.65-.18.92-.43,1.17-.15.15-.57.51-1.55.53l-.55-1.04c1.21.01,1.25-.16,1.36-.66h-3.13c-.06.25-.08.28-.15.52l-1.09-.11c.16-.58.29-1.14.44-2.51h-.78v-.95h.86c.04-.61.08-1.26.04-2.11h5.26c0,.65,0,1.01-.02,2.11h.69v.95h-.74ZM107.53,9.69c-.05.58-.11.92-.13,1.11h.92c.09-.41.15-.94.17-1.11h-.96ZM107.64,7.63c0,.46-.02.92-.03,1.11h.96c.03-.44.06-.78.05-1.11h-.98ZM109.58,9.69c-.03.38-.08.74-.14,1.11h1.04c.04-.4.06-.76.09-1.11h-.99ZM109.71,7.63c0,.46-.02.74-.04,1.11h.95c.02-.59.02-.8.02-1.11h-.93Z"/>
          </g>
        </g>
      </g>
    </g>
  </g>
</svg>