<?xml version="1.0" encoding="UTF-8"?>
<svg xmlns="http://www.w3.org/2000/svg" viewBox="0 0 163.43 27.77">
  <defs>
    <style>
      .cls-1 {
        fill: #f18d09;
      }

      .cls-2 {
        isolation: isolate;
      }

      .cls-3 {
        fill: #231815;
      }

      .cls-4 {
        fill: #fff;
      }

      .cls-5 {
        fill: #f29014;
        mix-blend-mode: multiply;
      }
    </style>
  </defs>
  <g class="cls-2">
    <g id="_レイヤー_2" data-name="レイヤー_2">
      <g id="_テキスト_xFF08_B_xFF09_" data-name="テキスト_xFF08_B_xFF09_">
        <g>
          <rect class="cls-1" width="163.43" height="17.49"/>
          <rect class="cls-5" width="8.29" height="17.49"/>
          <g>
            <path class="cls-3" d="M7.55,24.18s-.02.08-.03.1c0,.01-.01.06-.03.12-.22,1.03-.66,2.04-1.18,2.72-.33-.24-.48-.32-.81-.46.54-.58,1.09-1.83,1.18-2.7l.86.21ZM10.74,22.68c.15,0,.22,0,.38,0-.34-.11-.57-.41-.57-.77,0-.44.37-.8.81-.8s.81.36.81.8c0,.34-.21.64-.53.76v.83c-.23-.03-.34-.03-.89-.03h-1.62v3.4c0,.38,0,.59.03.78h-.95c.03-.19.04-.4.04-.79v-3.39h-1.55c-.54,0-.65,0-.88.03v-.86c.25.04.38.05.9.05h1.54v-.39c0-.4-.01-.55-.04-.72h.95c-.02.19-.03.29-.03.74v.37h1.6ZM10.66,23.97c.22.91.78,2.12,1.24,2.67-.36.17-.49.26-.8.48-.51-.78-.82-1.51-1.15-2.62-.06-.19-.06-.22-.11-.32l.83-.21ZM10.91,21.9c0,.25.2.46.46.46s.46-.21.46-.46-.2-.46-.46-.46-.46.2-.46.46Z"/>
            <path class="cls-3" d="M12.82,23.97c.31.04.44.05,1.13.05h3.73c.69,0,.83,0,1.13-.05v.97c-.28-.04-.36-.04-1.14-.04h-3.72c-.79,0-.86,0-1.14.04v-.97Z"/>
            <path class="cls-3" d="M25.71,22.66c-.07.1-.1.17-.18.42-.32,1.06-.82,2.01-1.44,2.7-.64.74-1.41,1.28-2.49,1.78-.2-.35-.29-.47-.59-.74.7-.29,1.09-.5,1.53-.83,1-.74,1.66-1.7,2.04-2.96l-2.11.04c-.43.68-.97,1.28-1.64,1.79-.21-.29-.31-.38-.68-.6.8-.55,1.3-1.11,1.81-2.03.22-.4.33-.67.36-.92l.96.19q-.04.06-.12.22s-.02.04-.09.2t-.09.18-.11.22c.09,0,.2-.01.34-.01l1.53-.02c.27,0,.35-.01.51-.07l.45.44Z"/>
            <path class="cls-3" d="M27.51,23.33c.65.26,1.34.61,1.86.95l-.43.79c-.46-.36-1.25-.78-1.9-1.02l.47-.72ZM27.2,26.47c.55,0,1.28-.17,2.02-.46,1.28-.45,2.33-1.6,2.84-3.09.27.29.41.41.73.62-.87,2.12-2.35,3.27-4.86,3.76-.3.06-.36.08-.49.12l-.24-.96ZM28.05,21.64c.66.25,1.36.59,1.86.9l-.45.77c-.57-.39-1.36-.8-1.87-.96l.46-.71ZM31.7,21.49c.31.33.5.6.74,1.03l-.49.26c-.23-.43-.43-.71-.74-1.04l.49-.25ZM32.78,22.34c-.21-.38-.44-.71-.71-1.02l.47-.25c.32.32.51.59.73.99l-.48.27Z"/>
            <path class="cls-3" d="M34.34,26.3c.6-.04,1.44-.24,2.07-.52.88-.38,1.53-.92,2.08-1.72.31-.45.5-.83.71-1.4.27.33.38.43.74.69-.6,1.28-1.26,2.11-2.22,2.75-.71.48-1.58.82-2.67,1.05-.28.06-.3.06-.46.12l-.26-.97ZM34.93,21.95c.83.52,1.27.84,1.81,1.35l-.6.76c-.56-.59-1.13-1.06-1.79-1.42l.58-.69Z"/>
            <path class="cls-3" d="M41.67,23.33c.65.26,1.34.61,1.86.95l-.43.79c-.46-.36-1.25-.78-1.9-1.02l.47-.72ZM41.35,26.47c.55,0,1.28-.17,2.02-.46,1.28-.45,2.33-1.6,2.84-3.09.27.29.41.41.73.62-.87,2.12-2.35,3.27-4.86,3.76-.3.06-.36.08-.49.12l-.24-.96ZM42.21,21.64c.66.25,1.36.59,1.86.9l-.45.77c-.57-.39-1.36-.8-1.87-.96l.46-.71ZM45.85,21.49c.31.33.5.6.74,1.03l-.49.26c-.23-.43-.43-.71-.74-1.04l.49-.25ZM46.94,22.34c-.21-.38-.44-.71-.71-1.02l.47-.25c.32.32.51.59.73.99l-.48.27Z"/>
            <path class="cls-3" d="M49.59,23.2c-.05-.3-.07-.37-.13-.53l.83-.13c0,.14.02.29.07.54l.11.54,2.09-.35c.2-.03.32-.06.46-.12l.49.44c-.06.09-.11.17-.18.34-.31.78-.71,1.3-1.38,1.82-.25-.27-.36-.34-.65-.5.52-.32.9-.73,1.19-1.25q-.08.02-.26.05l-1.65.27.5,2.59q.07.39.13.57l-.88.15c0-.18-.01-.34-.06-.57l-.48-2.61-.6.1c-.25.04-.41.08-.62.15l-.15-.8c.22,0,.4-.02.67-.06l.58-.1-.11-.55Z"/>
            <path class="cls-3" d="M55.03,23.97c.31.04.44.05,1.13.05h3.73c.69,0,.83,0,1.13-.05v.97c-.28-.04-.36-.04-1.14-.04h-3.72c-.79,0-.86,0-1.14.04v-.97Z"/>
            <path class="cls-3" d="M63.11,27.46c.03-.2.04-.39.04-.79v-4.49c0-.41-.01-.55-.04-.71h.96c-.02.19-.03.32-.03.74v1.3c.81.27,2.07.85,3.18,1.48l-.49.83c-.49-.35-1.48-.89-2.48-1.34-.16-.08-.18-.08-.24-.12.02.2.03.31.03.48v1.85c0,.38,0,.58.03.78h-.96ZM66,21.83c.31.33.5.59.73,1.03l-.49.26c-.23-.43-.43-.71-.73-1.04l.49-.25ZM67.08,22.68c-.21-.38-.44-.71-.71-1.01l.47-.25c.31.32.51.59.73.99l-.48.27Z"/>
            <path class="cls-3" d="M69.65,23.11c.29.54.43.88.69,1.66l-.79.25c-.18-.71-.32-1.08-.64-1.7l.74-.22ZM73.67,23.16c-.04.11-.06.14-.1.36-.2.95-.52,1.72-.97,2.33-.52.71-1.1,1.16-2.14,1.69-.18-.31-.27-.41-.56-.69.49-.19.78-.34,1.19-.64.82-.6,1.29-1.31,1.59-2.43.09-.34.13-.59.13-.81l.85.2ZM71.14,22.83c.37.69.5,1,.68,1.61l-.78.25c-.13-.53-.34-1.07-.64-1.65l.74-.21Z"/>
            <path class="cls-3" d="M80.64,22.79c-.06.09-.1.17-.18.42-.41,1.25-.75,1.87-1.41,2.65-.62.71-1.48,1.33-2.49,1.77-.18-.33-.31-.48-.6-.74,1.84-.7,3.02-1.95,3.58-3.78l-2.11.03c-.39.64-1.06,1.37-1.64,1.8-.21-.29-.31-.38-.68-.6.76-.5,1.32-1.13,1.81-2.03.21-.38.34-.71.36-.93l.96.2c-.05.06-.06.08-.12.21-.06.13-.12.27-.19.41-.04.06-.04.07-.05.1l-.06.1c.08,0,.2-.01.34-.01l1.53-.02c.19,0,.31,0,.36-.01-.16-.35-.29-.57-.51-.88l.52-.18c.27.37.43.64.62,1.11l-.3.11.24.27ZM81.1,22.29c-.17-.41-.37-.77-.6-1.09l.51-.17c.29.37.45.65.62,1.06l-.52.2Z"/>
            <path class="cls-3" d="M91.23,21.19l-5.31,6.58h-1.03l5.3-6.58h1.04Z"/>
            <path class="cls-3" d="M94.64,23.35c-.06.38-.13.67-.25,1.03-.2-.15-.36-.23-.61-.32.22-.57.36-1.39.36-2.08,0-.04,0-.09-.01-.17l.69.08c-.03.13-.03.14-.04.36v.11s-.04.29-.04.29h.32v-.83c0-.21-.01-.38-.05-.57h.83c-.03.18-.04.34-.04.57v.83h.06c.25,0,.41-.01.56-.04v.74c.22.01.39.02.64.02h.8v-.68h-.59c-.29,0-.51.01-.72.04v-.76c.2.03.41.04.72.04h.59v-.22c0-.2-.01-.35-.04-.53h.81c-.03.16-.04.31-.04.52v.22h.76c.32,0,.53-.01.74-.04v.76c-.21-.02-.44-.04-.74-.04h-.76v.68h.95c.35,0,.61-.01.79-.04v.76c-.22-.03-.48-.04-.73-.04h-.04v.59h.06c.34,0,.51,0,.69-.04v.77c-.22-.03-.41-.04-.69-.04h-.06v1.67c0,.53-.22.67-1.04.67-.12,0-.38,0-.6-.02-.02-.32-.08-.53-.18-.77.4.06.63.08.82.08.22,0,.27-.04.27-.21v-1.42h-1.83c-.29,0-.46,0-.69.04v-.32c-.2.09-.32.15-.5.22v1.67c0,.31.01.57.04.81h-.83c.03-.16.05-.5.05-.81v-1.39c-.17.06-.32.12-.47.17-.37.13-.46.17-.53.2l-.18-.8c.25-.03.53-.11,1.18-.32v-1.44h-.41ZM95.78,24.54c.27-.1.37-.14.6-.25v.31c.17.01.37.02.68.02h1.74v-.59h-1.76c-.37,0-.58,0-.79.04v-.72c-.15,0-.24,0-.36,0h-.11v1.19ZM97.17,25.35c.36.33.62.64.92,1.07l-.61.46c-.28-.47-.48-.74-.89-1.15l.58-.39Z"/>
            <path class="cls-3" d="M105.33,27.24c-1.08.22-1.84.36-2.58.46-.18.02-.21.03-.34.05l-.12-.71h.07c.2,0,.48-.03.9-.08v-.48c-.5.27-.95.45-1.62.65-.12-.29-.18-.41-.36-.63.91-.18,1.68-.49,2.17-.86h-1.32c-.41,0-.53,0-.75.04v-.68c.21.02.37.03.78.03h2.19v-.12c0-.07,0-.18-.01-.24-.15,0-.2,0-.38-.01-.01-.17-.05-.32-.11-.47.14.02.28.04.37.04s.12-.03.12-.12v-.22h-.67v.36c0,.22,0,.38.02.55h-.72c.02-.2.03-.3.03-.55v-.36h-.61v.42c0,.22,0,.28.02.4h-.7v-.07c.02-.12.03-.23.03-.36v-.52c0-.13,0-.19-.02-.4.11,0,.31.01.47.01h.81v-.28h-.91c-.26,0-.43,0-.63.04v-.6c.14.02.22.02.47.03-.17-.12-.31-.21-.53-.32.27-.29.43-.57.56-.98l.71.14c-.05.15-.08.2-.13.31h.46c0-.2-.01-.31-.04-.46h.74c-.02.15-.03.26-.03.46h.67c.32,0,.46,0,.64-.03v.6c-.2-.01-.36-.02-.64-.02h-.68v.29h.76c.39,0,.51,0,.69-.04v.6c-.18-.02-.38-.03-.66-.03h-.8v.28h.71c.26,0,.39,0,.56-.01,0,.08,0,.16,0,.3v.55c0,.18-.04.28-.13.36h.31c-.01.15-.02.2-.02.35v.12h1.85c.39,0,.62,0,.8-.03v.68c-.23-.03-.35-.04-.76-.04h-.28l.52.32c-.25.25-.46.41-.8.59.55.26.89.37,1.46.47-.18.24-.26.4-.38.7-.92-.26-1.55-.57-2.12-1.04v.56ZM102.96,22.54v-.29h-.74c-.08.12-.11.17-.21.29h.95ZM103.97,26.85c.69-.11.88-.14,1.28-.23-.37-.33-.55-.58-.73-.97h-.15c-.12.12-.26.25-.4.36v.85ZM105.25,25.64c.13.22.27.38.54.58.26-.15.53-.37.71-.58h-1.25ZM105.28,23.78c.02-.17.03-.27.03-.48v-1.16c0-.19-.01-.38-.04-.53h.76c-.02.13-.03.27-.03.53v1.15c0,.23,0,.34.02.48h-.75ZM107.37,23.96c0,.37-.06.52-.24.63-.15.09-.38.13-.81.13-.14,0-.34,0-.51-.01-.03-.24-.09-.47-.19-.67.26.04.52.06.68.06.11,0,.23-.01.27-.02.06-.02.08-.06.08-.18v-2c0-.25-.01-.41-.04-.6h.79c-.03.2-.04.34-.04.63v2.03Z"/>
            <path class="cls-3" d="M110.7,24.06c-.02.08-.03.09-.06.22-.24,1.08-.62,1.95-1.18,2.72-.34-.25-.46-.31-.81-.45.46-.55.71-1.04.98-1.84.12-.37.17-.59.2-.86l.86.22ZM111.41,22.17c0-.35,0-.53-.04-.72h.95c-.02.2-.03.3-.03.74v.37h1.6c.48,0,.64,0,.9-.05v.86c-.25-.03-.43-.03-.89-.03h-1.62v3.4c0,.36,0,.56.04.78h-.95c.04-.22.04-.43.04-.79v-3.39h-1.55c-.46,0-.64,0-.88.03v-.86c.27.04.42.05.9.05h1.54v-.39ZM113.81,23.84c.05.24.11.42.24.78.32.85.57,1.34,1,1.88-.37.19-.48.26-.81.49-.53-.85-.82-1.51-1.15-2.62-.06-.2-.06-.22-.11-.33l.83-.21Z"/>
            <path class="cls-3" d="M117.18,23.11c.29.54.43.88.69,1.66l-.79.25c-.18-.71-.32-1.08-.64-1.7l.74-.22ZM121.2,23.16c-.04.11-.06.14-.1.36-.2.95-.52,1.72-.97,2.33-.52.71-1.1,1.16-2.14,1.69-.18-.31-.27-.41-.56-.69.49-.19.78-.34,1.19-.64.82-.6,1.29-1.31,1.59-2.43.09-.34.13-.59.13-.81l.85.2ZM118.67,22.83c.37.69.5,1,.68,1.61l-.78.25c-.13-.53-.34-1.07-.64-1.65l.74-.21Z"/>
            <path class="cls-3" d="M123.51,27.46c.04-.22.04-.41.04-.79v-4.49c0-.34-.01-.53-.04-.71h.96c-.03.21-.03.3-.03.74v1.3c.96.34,2.06.85,3.18,1.48l-.49.83c-.58-.4-1.31-.8-2.48-1.34-.16-.08-.18-.08-.24-.12.02.2.03.28.03.48v1.85c0,.37,0,.55.03.78h-.96Z"/>
            <path class="cls-3" d="M129.83,27.46c.03-.2.04-.39.04-.79v-4.49c0-.41-.01-.55-.04-.71h.96c-.02.19-.03.32-.03.74v1.3c.81.27,2.07.85,3.18,1.48l-.49.83c-.49-.35-1.48-.89-2.48-1.34-.16-.08-.18-.08-.24-.12.02.2.03.31.03.48v1.85c0,.38,0,.58.03.78h-.96ZM132.72,21.83c.31.33.5.59.73,1.03l-.49.26c-.23-.43-.43-.71-.73-1.04l.49-.25ZM133.81,22.68c-.21-.38-.44-.71-.71-1.01l.47-.25c.31.32.51.59.73.99l-.48.27Z"/>
            <path class="cls-3" d="M136.37,23.11c.29.54.43.88.69,1.66l-.79.25c-.18-.71-.32-1.08-.64-1.7l.74-.22ZM140.39,23.16c-.04.11-.05.14-.1.36-.2.95-.52,1.72-.97,2.33-.52.71-1.1,1.16-2.14,1.69-.18-.31-.27-.41-.56-.69.49-.19.78-.34,1.19-.64.82-.6,1.29-1.31,1.59-2.43.09-.34.13-.59.13-.81l.85.2ZM137.86,22.83c.37.69.5,1,.68,1.61l-.78.25c-.13-.53-.34-1.07-.64-1.65l.74-.21Z"/>
            <path class="cls-3" d="M147.47,22.66c-.07.1-.1.17-.18.42-.32,1.06-.82,2.01-1.44,2.7-.64.74-1.41,1.28-2.49,1.78-.2-.35-.29-.47-.59-.74.7-.29,1.09-.5,1.53-.83,1-.74,1.66-1.7,2.04-2.96l-2.11.04c-.43.68-.97,1.28-1.64,1.79-.21-.29-.31-.38-.68-.6.8-.55,1.3-1.11,1.81-2.03.22-.4.33-.67.36-.92l.96.19q-.04.06-.12.22s-.02.04-.09.2t-.09.18-.11.22c.09,0,.2-.01.34-.01l1.53-.02c.27,0,.35-.01.51-.07l.45.44Z"/>
            <path class="cls-3" d="M152.27,24.86q0-.17.02-.77c-.17.29-.34.53-.59.81-.1-.29-.18-.48-.36-.83.52-.51.93-1.17,1.24-1.93.14-.35.24-.69.27-.95l.79.24c-.06.16-.07.2-.14.4-.16.47-.26.71-.49,1.16v3.9c0,.33.01.58.04.85h-.82c.03-.25.04-.48.04-.85v-2.02ZM154.61,24.09v2.45c0,.14.04.18.19.22.17.04.38.06.88.06.79,0,1.09-.03,1.25-.13.08-.05.14-.17.17-.32.02-.13.03-.22.05-.55.31.13.43.16.76.22-.08.8-.18,1.07-.39,1.24-.27.19-.73.25-2.01.25s-1.64-.14-1.64-.7v-2.49c-.06.02-.11.04-.14.04-.2.07-.27.1-.41.16l-.06-.8c.17-.02.37-.07.61-.14v-.83c0-.33,0-.52-.04-.74h.83c-.04.2-.04.39-.04.71v.62l.72-.23v-1.14c0-.28-.01-.46-.04-.7h.81c-.03.22-.04.39-.04.68v.93l1.02-.33c.27-.08.43-.15.57-.21,0,.15,0,.2,0,.38-.01.84-.06,1.81-.12,2.26-.07.53-.25.68-.79.68-.13,0-.21,0-.38-.02-.04-.27-.08-.43-.2-.71.18.04.37.06.48.06.15,0,.18-.05.22-.38.04-.27.06-.74.06-1.29l-.86.28v1.82c0,.29,0,.46.04.7h-.81c.04-.22.04-.4.04-.72v-1.56l-.72.23Z"/>
          </g>
          <g>
            <path class="cls-4" d="M40.2,12.87h-1.46l-1.08-5.28-.15-1.09-.15,1.09-1.08,5.28h-1.46l-2.41-7.86h1.59l1.39,5.3.17.96.11-.98,1.07-5.28h1.55l1.07,5.28.11.98.16-.96,1.4-5.3h1.59l-2.41,7.86Z"/>
            <path class="cls-4" d="M44.65,10.39c.05.29.27,1.46,1.41,1.46.26,0,.82-.06,1.06-.7h1.43c-.18.48-.68,1.85-2.56,1.85-1.57,0-2.76-1.04-2.76-3.03s1.28-3.05,2.71-3.05c.96,0,1.7.44,2.13,1.1.5.75.55,1.54.58,2.36h-4.01ZM45.96,8.1c-1.06,0-1.24,1-1.3,1.37h2.47c-.03-.91-.45-1.37-1.16-1.37Z"/>
            <path class="cls-4" d="M52.18,13.01c-.41,0-1.27-.08-1.87-.68-.33-.33-.46-.62-.53-1.36h1.42c.04.28.16.9,1.04.9.12,0,.83,0,.83-.57,0-.4-.29-.53-1.21-.85-1.18-.43-1.98-.71-1.98-1.77,0-.97.93-1.76,2.25-1.76.48,0,1.17.1,1.69.6.36.36.46.66.53,1.31h-1.42c-.03-.42-.22-.79-.83-.79-.57,0-.8.32-.8.54,0,.29.27.39.72.56,1.44.55,1.5.58,1.83.81.41.29.65.73.65,1.24,0,1.13-1.07,1.8-2.33,1.8Z"/>
            <path class="cls-4" d="M57.66,8.22v3.2c0,.26.11.38.36.38h.61v1.08h-.87c-1.13,0-1.52-.45-1.52-1.37v-3.29h-.8v-1.14h.8v-1.63h1.42v1.63h1v1.14h-1Z"/>
            <path class="cls-4" d="M66.94,13.13c-1.35,0-3.26-.37-3.38-2.62h1.45c.06,1.26,1.22,1.4,1.8,1.4.37,0,1.93-.04,1.93-1.15,0-.57-.34-.79-1.06-.95l-1.9-.42c-1.01-.23-2.11-.8-2.11-2.29,0-1.69,1.63-2.35,3.17-2.35.66,0,1.65.12,2.37.78.45.41.62.79.78,1.7h-1.46c-.05-1.19-1.31-1.25-1.71-1.25-.26,0-1.72.02-1.72,1.04,0,.45.27.81,1.11.99l2.05.45c.6.13,1.97.59,1.97,2.13,0,1.44-1.21,2.53-3.29,2.53Z"/>
            <path class="cls-4" d="M71.81,6.4v-1.4h1.42v1.4h-1.42ZM71.81,12.87v-5.8h1.42v5.8h-1.42Z"/>
            <path class="cls-4" d="M78.55,12.87v-.29l.06-.47c-.18.34-.48.9-1.45.9-1.49,0-2.42-1.13-2.42-2.97s.98-3.1,2.34-3.1c1,0,1.37.62,1.54.92l-.06-.6v-2.24h1.43v7.86h-1.43ZM77.37,8.18c-1.17,0-1.22,1.47-1.22,1.8,0,.96.43,1.72,1.2,1.72.57,0,1.2-.46,1.2-1.71,0-.5-.08-1.81-1.17-1.81Z"/>
            <path class="cls-4" d="M82.78,10.39c.05.29.27,1.46,1.41,1.46.26,0,.82-.06,1.06-.7h1.43c-.18.48-.68,1.85-2.56,1.85-1.57,0-2.76-1.04-2.76-3.03s1.28-3.05,2.71-3.05c.96,0,1.7.44,2.13,1.1.5.75.55,1.54.58,2.36h-4.01ZM84.09,8.1c-1.06,0-1.24,1-1.3,1.37h2.47c-.03-.91-.45-1.37-1.16-1.37Z"/>
            <path class="cls-4" d="M97.59,12.87l-2.97-3.68-.8.71v2.97h-1.46v-7.86h1.46v3.34l3.46-3.34h2.03l-3.7,3.31,3.8,4.56h-1.82Z"/>
            <path class="cls-4" d="M100.79,6.4v-1.4h1.42v1.4h-1.42ZM100.79,12.87v-5.8h1.42v5.8h-1.42Z"/>
            <path class="cls-4" d="M105.71,8.22v3.2c0,.26.11.38.36.38h.61v1.08h-.87c-1.13,0-1.52-.45-1.52-1.37v-3.29h-.8v-1.14h.8v-1.63h1.42v1.63h1v1.14h-1Z"/>
            <path class="cls-4" d="M110.32,13.01c-1.96,0-2.75-1.44-2.75-2.97,0-2.23,1.54-3.1,2.93-3.1.73,0,1.39.23,1.89.72.47.46.57.84.65,1.49h-1.42c-.04-.61-.48-1.08-1.12-1.08-.74,0-1.5.64-1.5,1.9,0,.75.27,1.9,1.36,1.9,1.02,0,1.18-.86,1.24-1.14h1.46c-.13.54-.54,2.29-2.73,2.29Z"/>
            <path class="cls-4" d="M118.02,12.87v-3.4c0-.54-.18-1.31-1.01-1.31-.64,0-1.18.51-1.18,1.3v3.42h-1.42v-7.86h1.42v2.45l-.07.72c.22-.4.7-1.24,1.8-1.24,1.24,0,1.88.97,1.88,2.17v3.77h-1.42Z"/>
            <path class="cls-4" d="M122.24,10.39c.05.29.27,1.46,1.41,1.46.26,0,.82-.06,1.06-.7h1.43c-.18.48-.68,1.85-2.56,1.85-1.57,0-2.76-1.04-2.76-3.03s1.28-3.05,2.71-3.05c.96,0,1.7.44,2.13,1.1.5.75.55,1.54.58,2.36h-4.01ZM123.54,8.1c-1.06,0-1.24,1-1.3,1.37h2.47c-.03-.91-.45-1.37-1.16-1.37Z"/>
            <path class="cls-4" d="M131.27,12.87v-3.66c0-.65-.27-1.08-.98-1.08-.58,0-1.27.29-1.27,1.36v3.38h-1.42v-5.8h1.42v.49l-.05.5c.23-.4.66-1.12,1.79-1.12,1.23,0,1.94.73,1.94,2.05v3.89h-1.42Z"/>
          </g>
        </g>
      </g>
    </g>
  </g>
</svg>