<?xml version="1.0" encoding="UTF-8"?>
<svg xmlns="http://www.w3.org/2000/svg" viewBox="0 0 163.43 27.77">
  <defs>
    <style>
      .cls-1 {
        fill: #f18d09;
      }

      .cls-2 {
        isolation: isolate;
      }

      .cls-3 {
        fill: #231815;
      }

      .cls-4 {
        fill: #fff;
      }

      .cls-5 {
        fill: #f29014;
        mix-blend-mode: multiply;
      }
    </style>
  </defs>
  <g class="cls-2">
    <g id="_レイヤー_2" data-name="レイヤー_2">
      <g id="_テキスト_xFF08_B_xFF09_" data-name="テキスト_xFF08_B_xFF09_">
        <g>
          <rect class="cls-1" width="163.43" height="17.49"/>
          <rect class="cls-5" width="8.29" height="17.49"/>
          <g>
            <path class="cls-3" d="M43.57,24.52s.01-.39.02-.5c-.15.3-.37.6-.71.98-.38.42-.9.87-1.38,1.22-.27.2-.5.34-1.04.64-.17-.33-.27-.46-.58-.73.83-.38,1.51-.84,2.21-1.52.36-.35.71-.78.94-1.16h-1.92c-.53,0-.61,0-.86.03v-.85c.27.05.38.05.88.05h2.42v-.56q-.01-.38-.04-.64h.92c-.02.18-.03.31-.03.6v.61h.72c.47,0,.58,0,.83-.05v.85c-.21-.02-.37-.03-.8-.03h-.72l.04,3.25c0,.34.02.61.04.81h-.95c.03-.2.04-.38.04-.67v-.13l-.02-2.09v-.1Z"/>
            <path class="cls-3" d="M48.86,21.62c-.03.2-.03.26-.03.63v1.93c0,.35,0,.44.03.62h-.96c.02-.16.04-.38.04-.63v-1.93c0-.36,0-.45-.03-.63h.95ZM52.04,21.63c-.03.17-.04.25-.04.65v.95c0,1.09-.05,1.68-.18,2.12-.2.7-.65,1.23-1.38,1.63-.37.21-.72.35-1.37.54-.12-.34-.2-.46-.49-.83.69-.13,1.09-.28,1.51-.56.66-.43.89-.86.97-1.79.03-.3.04-.61.04-1.17v-.88c0-.36,0-.5-.04-.67h.97Z"/>
            <path class="cls-3" d="M54.49,23.33c.65.26,1.34.61,1.86.95l-.43.79c-.46-.36-1.25-.78-1.9-1.02l.47-.72ZM54.17,26.47c.55,0,1.28-.17,2.02-.46,1.28-.45,2.33-1.6,2.84-3.09.27.29.41.41.73.62-.87,2.12-2.35,3.27-4.86,3.76-.3.06-.36.08-.49.12l-.24-.96ZM55.02,21.64c.66.25,1.36.59,1.86.9l-.45.77c-.57-.39-1.36-.8-1.87-.96l.46-.71ZM58.67,21.49c.31.33.5.6.74,1.03l-.49.26c-.23-.43-.43-.71-.74-1.04l.49-.25ZM59.75,22.34c-.21-.38-.44-.71-.71-1.02l.47-.25c.32.32.51.59.73.99l-.48.27Z"/>
            <path class="cls-3" d="M66.22,23.15c.49,0,.64,0,.91-.05v.88c-.25-.03-.43-.03-.9-.03h-1.44c-.06.97-.18,1.44-.5,1.97-.38.64-.88,1.07-1.79,1.57-.24-.4-.34-.53-.64-.76.84-.36,1.37-.8,1.69-1.38.21-.38.29-.69.34-1.41h-1.74c-.46,0-.64,0-.9.03v-.88c.27.04.43.05.91.05h1.77c0-.29,0-.42,0-.55v-.41c0-.3,0-.48-.03-.67h.96c-.03.22-.03.23-.04.67v.42q-.01.46-.01.54h1.39Z"/>
            <path class="cls-3" d="M70.15,21.71q-.03.2-.07,1.57c-.05,1.37-.2,2.16-.57,2.88-.24.48-.5.84-.97,1.3-.27-.35-.38-.46-.71-.68.34-.28.51-.47.72-.81.5-.81.67-1.71.67-3.67,0-.38,0-.45-.03-.64l.95.05ZM72.01,21.63c-.03.2-.04.32-.05.67l-.04,3.99c.49-.23.77-.44,1.07-.8.32-.38.53-.76.69-1.28.24.31.34.41.66.66-.29.69-.65,1.22-1.12,1.63-.4.34-.76.55-1.49.84-.15.06-.21.08-.3.13l-.45-.48c.05-.2.06-.36.06-.74l.04-3.95v-.21c0-.18,0-.33-.03-.46h.95Z"/>
            <path class="cls-3" d="M77.77,21.49c-.02.06-.04.14-.06.22-.01.09-.02.13-.04.24q-.02.15-.12.67c-.03.15-.03.17-.05.26.2-.01.3-.02.44-.02.46,0,.8.13,1.04.37.24.27.33.6.33,1.24,0,1.21-.2,2.16-.54,2.55-.2.23-.41.32-.78.32-.32,0-.61-.06-1.08-.2,0-.14.01-.24.01-.31,0-.18-.01-.32-.07-.6.38.17.78.27,1.02.27.2,0,.31-.13.42-.48.11-.36.18-1,.18-1.6,0-.64-.16-.83-.71-.83-.14,0-.24,0-.41.02-.21.85-.27,1.06-.43,1.52-.24.7-.43,1.15-.84,1.97q-.04.07-.11.21s-.02.05-.05.12l-.81-.45c.21-.28.49-.78.73-1.32.3-.69.4-.98.68-1.98-.36.04-1.02.16-1.25.22l-.09-.83c.26,0,1.11-.08,1.49-.14.13-.76.18-1.18.18-1.42v-.13l.91.1ZM80.09,22.38c.7.82,1.14,1.65,1.44,2.73l-.8.41c-.13-.6-.29-1.06-.56-1.59-.25-.52-.48-.84-.81-1.2l.72-.35Z"/>
            <path class="cls-3" d="M84.33,22.8c-.11.39-.22,1.04-.32,1.72q-.01.1-.04.2h.01c.41-.38,1.28-.65,2.12-.65,1.19,0,1.97.59,1.97,1.48,0,.51-.27,1.03-.72,1.35-.46.33-1.04.48-1.85.48-.6,0-.99-.05-1.79-.25,0-.43-.02-.57-.11-.9.69.24,1.29.35,1.88.35.99,0,1.67-.41,1.67-1.01,0-.47-.44-.75-1.18-.75-.62,0-1.28.19-1.74.51-.13.09-.17.13-.32.3l-.88-.03c.02-.13.02-.15.06-.42.06-.43.17-1.21.29-2.04.03-.17.04-.25.04-.41l.88.05ZM84.42,21.43c.48.27,1.82.67,2.61.78l-.29.8c-1.2-.27-1.93-.5-2.73-.88l.41-.71Z"/>
            <path class="cls-3" d="M93.78,25.54c-.18.29-.41.55-.74.83-.37.31-.6.45-1.17.74-.12-.2-.2-.29-.43-.5.57-.25.71-.32,1.03-.55.22-.17.4-.34.55-.52h-.52c-.27.24-.57.45-.97.64-.11-.19-.2-.32-.34-.47v1.28c0,.27-.06.43-.21.54-.15.11-.34.15-.76.15-.12,0-.16,0-.48-.01-.02-.3-.05-.45-.16-.72.24.02.45.04.63.04.17,0,.22-.04.22-.2v-1.51c-.46.14-.71.22-.76.25l-.1-.76c.17,0,.39-.05.87-.19v-1.33h-.29c-.16,0-.32,0-.51.04v-.76c.18.03.31.04.53.04h.28v-.57c0-.34,0-.52-.04-.71h.83c-.03.2-.04.37-.04.71v.57h.22c.15,0,.27,0,.39-.03v.73c-.16-.02-.22-.02-.38-.02h-.22v1.09q.13-.05.5-.18v-.15c.17.03.33.04.65.04h3c.32,0,.49,0,.69-.04v.71c-.21-.02-.42-.04-.69-.04h-2.13c-.07.12-.1.16-.18.29h2.21c.39,0,.48,0,.62-.02-.04.33-.04.34-.05.57-.08,1.05-.13,1.46-.26,1.76-.13.31-.42.42-1.06.42-.18,0-.27,0-.46-.01-.02-.27-.06-.44-.15-.67-.36.33-.67.55-1.13.78-.17-.22-.31-.36-.47-.49.97-.43,1.63-1.03,1.95-1.74h-.45ZM91.19,25.63c.55-.23.99-.57,1.28-.97h-.29c-.15,0-.37,0-.45.02v.11c-.27.11-.31.13-.53.21v.63ZM92.71,23.75c-.27,0-.48,0-.64.02.02-.21.03-.48.03-.76v-.97c0-.25,0-.41-.03-.6.2.02.34.03.71.03h2.06c.31,0,.47,0,.67-.03-.02.2-.03.32-.03.6v.99c0,.31,0,.43.03.74-.13-.01-.31-.02-.59-.02h-2.21ZM92.8,22.37h1.96v-.31h-1.96v.31ZM92.8,23.2h1.96v-.31h-1.96v.31ZM94.88,25.54c-.24.59-.49.97-.96,1.41.2.03.5.06.68.06.25,0,.32-.07.39-.38.04-.22.09-.61.12-1.09h-.24Z"/>
            <path class="cls-3" d="M99.34,25.01c-.44.8-.81,1.83-.8,2.25l-.81.04c0-.1-.01-.12-.05-.27-.18-.78-.25-1.48-.25-2.28s.04-1.2.26-2.65c.05-.31.05-.37.05-.51l.93.08c-.25.81-.43,2.11-.43,3.22,0,.1,0,.65,0,.69,0,.08,0,.16,0,.27.11-.31.13-.38.16-.46q.24-.57.31-.69l.62.31ZM99.17,22.99c.31.07.68.1,1.25.1.27,0,.32,0,.73-.03-.02-.64-.03-.71-.04-.92-.01-.31-.02-.35-.05-.53h.89c0,.14-.01.22-.01.26v.09c.01.23.02.57.04,1.02.46-.08.88-.18,1.04-.27l.05.83c-.11.01-.15.02-.39.07-.34.08-.38.08-.68.12,0,.15,0,.21,0,.34,0,.74-.05,1.32-.15,1.67-.15.58-.4,1.01-.8,1.36-.22.19-.41.32-.76.53-.22-.29-.38-.43-.68-.66.48-.22.8-.45,1.07-.76.36-.43.49-.93.49-1.96,0-.13,0-.24,0-.45-.24.02-.6.04-.95.04-.2,0-.46,0-.64-.02-.2-.01-.23-.01-.31-.01h-.11v-.81ZM102.4,21.19c.22.34.36.68.48,1.09l-.48.14c-.13-.45-.28-.79-.48-1.1l.48-.13ZM103.26,22.21c-.11-.38-.28-.77-.47-1.07l.45-.14c.19.29.34.62.48,1.05l-.46.16Z"/>
            <path class="cls-3" d="M105.52,25.63c0-.14,0-.25-.01-.41-.3.1-.42.14-.82.25-.11-.37-.15-.48-.34-.74,1.11-.22,1.77-.47,2.67-.99-.37-.31-.57-.51-.81-.82-.37.34-.71.57-1.24.86-.14-.28-.24-.41-.46-.62.5-.25.71-.38,1.02-.63.54-.44.93-.91,1.15-1.37l.84.15c-.15.25-.21.33-.32.48h1.47c.28,0,.44,0,.62-.04l.41.47c-.11.12-.15.17-.41.5-.22.28-.6.67-.97.99.79.42,1.46.66,2.56.89-.15.27-.22.45-.32.78-.41-.11-.56-.16-.79-.23-.01.14-.01.27-.01.46v1.42c0,.29,0,.48.04.69h-.8v-.38h-2.75v.38h-.78c.03-.22.04-.42.04-.69v-1.41ZM109.35,25.01c-.79-.29-1.11-.45-1.67-.8-.53.34-1.04.6-1.58.8h3.26ZM106.26,26.68h2.75v-1.01h-2.75v1.01ZM106.69,22.43c.34.4.58.61.97.88.36-.27.55-.47.9-.89h-1.87Z"/>
            <path class="cls-3" d="M114.09,23.77c-.14-.02-.26-.03-.45-.03h-.1c.24.5.38.71.66.99-.15.21-.25.41-.33.65-.16-.25-.26-.42-.4-.76.01.18.02.22.02.41,0,.06,0,.13,0,.22,0,.11,0,.2,0,.26v1.37c0,.39,0,.59.04.83h-.77c.03-.26.04-.49.04-.83v-1.11q0-.34.01-.52c0-.17,0-.25.02-.44-.16.55-.39,1.02-.73,1.52-.1-.3-.2-.5-.36-.73.3-.39.48-.68.69-1.15.12-.27.23-.55.29-.74h-.29c-.19,0-.34,0-.5.03v-.74c.17.03.32.04.52.04h.35v-.79c-.2.05-.33.07-.67.13-.08-.27-.14-.41-.27-.65.6-.06,1.21-.2,1.72-.41.12-.06.18-.08.26-.13l.38.62s-.2.07-.38.14c-.07.03-.12.05-.34.12v.97h.15c.16,0,.26,0,.38-.01v-.64c.17.03.38.04.65.04h1.05v-.29c-.38.02-.63.03-1.25.03-.07-.25-.15-.41-.26-.59.27,0,.47,0,.56,0,1.13,0,2.44-.15,2.9-.33l.46.6q-.05,0-.21.04c-.37.08-.9.15-1.52.2v.34h1.19c.28,0,.51-.01.7-.04v.66c-.18-.02-.38-.03-.65-.03h-1.24v.29h.9c.34,0,.49,0,.67-.02-.02.17-.02.28-.02.59v1.12c0,.34,0,.47.02.65-.18-.01-.31-.02-.6-.02h-.97v.33h.95c.36,0,.52,0,.69-.04v.66c-.23-.02-.44-.03-.69-.03h-.95v.34h1.16c.31,0,.57-.01.76-.04v.68c-.2-.03-.44-.04-.79-.04h-2.88c-.34,0-.6.01-.78.04v-.67c.16.01.44.03.76.03h1.09v-.34h-.91c-.32,0-.48,0-.69.02v-.64c.19.02.34.03.69.03h.9v-.33h-.88c-.3,0-.44,0-.6.02.01-.18.02-.34.02-.67v-1.09c0-.31,0-.44-.02-.6.18.01.33.02.65.02h.82v-.29h-1.04c-.22,0-.46,0-.6.01v.72ZM114.93,23.88v.34h.8v-.34h-.8ZM114.93,24.73v.34h.8v-.34h-.8ZM117.29,24.23v-.34h-.88v.34h.88ZM117.29,25.07v-.34h-.88v.34h.88Z"/>
          </g>
          <g>
            <path class="cls-4" d="M26.8,11.96c-.46.79-1.15.83-1.62.83-.29,0-.62-.02-.93-.06l-.15-1.3c.24.08.55.17.97.17.32,0,.5-.05.65-.27.2-.29.66-1.59.66-2.68,0-.57-.12-.92-.89-.92-.19,0-.41.02-.61.05-.56,1.97-1.13,3.23-2.23,5.02l-1.23-.55c.95-1.21,1.5-2.17,2.13-4.21-.53.13-.97.26-1.53.46l-.43-1.3c.79-.07,1.78-.25,2.25-.32.13-.69.23-1.26.24-2.16l1.31.18c.09.01.3.08.3.17,0,.04-.02.08-.14.15-.19.12-.22.13-.23.24-.05.39-.13.76-.2,1.17.24-.04.56-.09.85-.09,1.47,0,1.58,1.2,1.58,1.85,0,.89-.18,2.56-.75,3.55ZM28.75,9.88l-.73-1.11c.46-.04.71-.06.71-.32,0-.33-.6-1.41-1.2-2.09l.89-.65c1.41,1.51,1.68,2.78,1.68,3.17,0,.61-.67.87-1.36,1Z"/>
            <path class="cls-4" d="M33.76,13.28l-.57-1.33c.34.04.85.12,1.35.12,2,0,2.92-1.04,2.92-2.04,0-.69-.55-1.13-1.36-1.13-.74,0-1.83.43-2.94,1.72l-.94-.5c.09-1.46.6-3.3.84-4.12l1.24.49c-.28.76-.51,1.56-.65,2.37.97-.88,2.1-1.09,2.65-1.09,1.13,0,2.39.8,2.39,2.36,0,3.04-3.6,3.1-4.93,3.13ZM36.16,6.47c-.69-.44-1.21-.72-2.49-1.17l.46-1.07c.72.23,1.75.61,2.58,1.11l-.55,1.13Z"/>
            <path class="cls-4" d="M43.03,6.81v1.4c.43-.17.47-.19.94-.39v1.27c-.47.21-.53.23-.94.41v3.18c0,.78-1.16.79-1.73.8l-.48-1.25c.15.01.73.04.83.04.19,0,.25-.09.25-.31v-1.98c-.14.06-.29.13-.44.18-.37.13-.41.15-.46.23-.12.17-.13.17-.19.17-.16,0-.17-.19-.18-.43l-.04-1.14c.57-.14,1.07-.3,1.33-.39v-1.79h-1.28v-1.13h1.28v-1.6l.97.03c.34.01.37.06.37.14,0,.05-.02.09-.05.12-.13.14-.14.15-.14.24v1.08h1.14v1.13h-1.14ZM46.22,9.16c-.09.15-.18.3-.27.44h3.83c0,1.4-.14,2.37-.4,3.04-.28.74-.81.82-1.79.83l-.3-1.15c.79.03.86.02,1-.15.23-.28.29-1,.34-1.63h-.44c-.13.29-.42.94-.93,1.68-.48.73-.89,1.07-1.04,1.2l-.97-.45c.84-.68,1.48-1.37,1.98-2.42h-.47c-.32.6-.98,1.72-2.6,2.86l-.83-.66c.6-.36,1.53-.95,2.34-2.2h-.39c-.41.52-.71.82-1.25,1.29l-.86-.67c.41-.28,1.42-1.01,1.9-2h-.67v-.9h5.53v.9h-3.72ZM44.75,7.85v-3.58h4.74v3.58h-4.74ZM48.4,5.17h-2.58v.51h2.58v-.51ZM48.4,6.45h-2.58v.55h2.58v-.55Z"/>
            <path class="cls-4" d="M53.51,12.6l-.97.18c-.28-.62-.85-1.91-.85-4.57,0-1.25.14-2.19.43-3.78l1.09.31c.11.03.31.1.31.19,0,.04-.02.05-.17.17-.21.17-.52,1.91-.52,3.58,0,.65.02,1.28.18,1.9.19-.33.32-.62.46-1l.75.53c-.36.81-.57,1.56-.72,2.49ZM58.19,7.74c.02.43,0,1.07-.04,1.57-.19,2.13-.98,3.34-1.39,3.96l-1.18-.62c1.31-1.6,1.46-2.99,1.46-4.2v-.46c-.81.11-1.28.14-2.19.15l-.25-1.24c.37.02.53.02.75.02.84,0,1.28-.06,1.61-.11-.05-1-.11-1.53-.29-2.27l1.23.03c.11,0,.28.01.28.14,0,.04-.05.12-.09.15-.05.05-.11.13-.11.19,0,.04.11,1.27.12,1.51.71-.15,1-.27,1.45-.51l.04,1.23c-.62.25-1.02.36-1.41.45ZM58.97,4.98c-.19-.34-.4-.67-.66-.95l.54-.38c.24.27.45.57.66.96l-.54.37ZM60.18,4.77c-.19-.35-.44-.74-.68-1l.54-.37c.29.33.53.73.67,1l-.53.37Z"/>
            <path class="cls-4" d="M68.77,11.16v1.42c0,.64-.42.76-1.78.91l-.51-1.22h.81c.21,0,.28-.08.28-.33v-.78h-3.05c.6.51.88.86,1.1,1.14l-1.01.85c-.55-.72-.84-1-1.2-1.31l.71-.68h-2.6v-.99h6.04v-.51h-4.98v-3.45h2.91v-.55h-3.82v-.92h3.82v-.66l.96.04c.53.02.53.08.53.13,0,.06-.03.12-.11.18-.12.1-.12.12-.12.3h3.92v.92h-3.92v.55h3.06v3.45h-1.06v.51h2.04v.99h-2.04ZM65.5,7.02h-1.63v.53h1.63v-.53ZM65.5,8.29h-1.63v.55h1.63v-.55ZM68.54,7.02h-1.78v.53h1.78v-.53ZM68.54,8.29h-1.78v.55h1.78v-.55Z"/>
            <path class="cls-4" d="M73.41,8.29v5.08h-1.26V4.47h4.19v3.82h-2.93ZM75.17,5.43h-1.72v.54h1.72v-.54ZM75.17,6.78h-1.72v.59h1.72v-.59ZM79.77,13.4h-.52l-.75-1.43c.68.14.95.15,1.01.15.26,0,.31-.15.31-.33v-3.52h-2.91v-3.82h4.19v7.95c0,.7-.37,1.01-1.34,1.01ZM79.78,5.38h-1.72v.51h1.72v-.51ZM79.78,6.72h-1.72v.59h1.72v-.59Z"/>
            <path class="cls-4" d="M87.37,6.37l.66.13c.12.02.3.06.3.16,0,.09-.09.12-.24.19v.53h3.63v1.11h-3.63v1.09h2.95v3.86h-1.25v-.28h-3.73v.28h-1.18v-3.86h1.97v-3.21h-2.29v1.69c0,1.21-.11,1.92-.34,3.11-.18.88-.49,1.56-.75,2.14l-1.17-.44c.38-.72,1.03-1.98,1.03-4.58v-3.05h3.23v-1.13l1.41.09c.11.01.24.04.24.16,0,.07-.1.13-.15.16s-.13.08-.13.12v.6h3.94v1.12h-4.49ZM89.8,10.74h-3.73v1.34h3.73v-1.34Z"/>
            <path class="cls-4" d="M101.55,12.66c-.96,0-2.5-.09-3.12-.68-.17-.15-.36-.39-.36-.84,0-.96.57-1.56,1.08-2.06l.99.81c-.27.23-.63.56-.63.93,0,.21.09.29.15.34.3.26,1.36.26,1.83.26,1.85,0,2.55-.13,3.36-.29l.06,1.34c-.95.09-2.11.19-3.36.19ZM101.83,8.01l-.79-.85,1.1-.93c-1.79,0-2.52-.01-3.16-.06l-.29-1.24c.96.16,1.93.25,2.91.25.79,0,1.58-.02,2.37-.13l.51.91c-.95.65-2.06,1.56-2.65,2.06Z"/>
            <path class="cls-4" d="M108.67,9.97l.68.47c-.49.87-.7,1.51-.84,2.23l-.9.18c-.37-1.22-.42-2.4-.42-3.31,0-2.48.44-4.16.64-4.91l1.03.42s.26.1.26.21c0,.08-.05.1-.21.15-.13.05-.17.22-.24.45-.46,1.81-.49,3.79-.49,4.02,0,.38.02.53.04.71l.44-.62ZM114.78,7.18c-.44.15-.86.24-1.32.3.01,1.09.03,1.51.16,2.84.8.31,1.24.57,1.78.98l-.56.97c-.3-.28-.58-.51-1.16-.76-.02.91-.19,1.35-1.54,1.35-.31,0-2.17,0-2.17-1.5,0-1.01.84-1.37,1.8-1.37.25,0,.47.03.72.09-.1-1.46-.11-1.66-.13-2.43-.23.02-.52.04-.98.04-.32,0-.68-.01-.95-.02v-1.07c.56.08.89.08.99.08.34,0,.71-.03.94-.05.01-.53.03-1.48.04-1.97l1.15.21c.24.04.25.09.25.15,0,.02,0,.04-.02.06-.02.01-.12.07-.14.09-.06.05-.08.17-.15,1.29.34-.05.62-.11,1.29-.37v1.1ZM111.75,10.92c-.5,0-.81.19-.81.45s.27.44.91.44c.73,0,.72-.24.7-.73-.38-.14-.65-.16-.8-.16ZM115.23,6c-.18-.22-.5-.54-.83-.78l.44-.47c.31.24.6.51.84.8l-.45.45ZM115.98,5.22c-.32-.37-.64-.67-.86-.84l.44-.46c.31.24.61.53.87.85l-.45.45Z"/>
            <path class="cls-4" d="M122.69,12.47c-.91.59-1.69.69-2.14.69-.68,0-1.23-.25-1.57-.55-.51-.44-.68-.99-.68-3.58,0-.66.09-3.86.05-4.58l1.43.2c.26.03.36.11.36.17,0,.09-.13.17-.3.31-.09.28-.3,3.12-.3,4.31,0,.5,0,1.54.21,1.91.02.03.26.45.95.45.6,0,2.05-.38,3.1-2.45l1.06.87c-.44.61-1.09,1.54-2.15,2.23Z"/>
            <path class="cls-4" d="M132.28,12.74c-.83-.57-1.26-.75-1.66-.92.02.51.06,1.41-1.73,1.41-1.04,0-1.99-.38-1.99-1.24s.95-1.38,2.2-1.38c.19,0,.31.01.42.01-.08-1.44-.13-2.91-.17-4.36l1.09.14c.15.02.27.03.27.14,0,.04-.15.17-.18.2-.05.06-.06.39-.09,1.04.44.01,1.22.04,2.13-.36v1.08c-.6.21-1.03.25-2.14.25.02.86.05,1.23.13,2.05.65.18,1.32.39,2.42,1.11l-.69.82ZM128.86,11.49c-.66,0-.87.26-.87.42,0,.34.5.42.84.42.61,0,.73-.26.73-.55v-.24c-.34-.05-.59-.05-.7-.05Z"/>
            <path class="cls-4" d="M140.77,5.18c-.22.02-.21.03-.32.14-.69.69-.81.78-3.05,2.81-.06.05-.27.25-.27.47,0,.21.09.32.17.4,1.03.87,2.21,1.92,3.52,3.58l-1.09.96c-.44-.66-1.31-1.97-3.15-3.64-.56-.51-.96-.87-.96-1.31,0-.53.38-.86,1-1.42,1.52-1.36,2.2-1.97,3.16-3.15l.95.77s.23.18.23.29c0,.09-.1.1-.19.11ZM141.98,7.92c-.32-.4-.64-.74-1.03-1.08l.47-.54c.51.44.8.8,1.03,1.08l-.47.54ZM142.68,6.45c-.39-.47-.66-.76-1.03-1.08l.46-.54c.47.4.78.75,1.04,1.08l-.47.54Z"/>
          </g>
        </g>
      </g>
    </g>
  </g>
</svg>