<?xml version="1.0" encoding="UTF-8"?>
<svg xmlns="http://www.w3.org/2000/svg" viewBox="0 0 163.43 36.96">
  <defs>
    <style>
      .cls-1 {
        fill: #f18d09;
      }

      .cls-2 {
        isolation: isolate;
      }

      .cls-3 {
        fill: #231815;
      }

      .cls-4 {
        fill: #fff;
      }

      .cls-5 {
        fill: #f29014;
        mix-blend-mode: multiply;
      }
    </style>
  </defs>
  <g class="cls-2">
    <g id="_レイヤー_2" data-name="レイヤー_2">
      <g id="_テキスト_xFF08_B_xFF09_" data-name="テキスト_xFF08_B_xFF09_">
        <g>
          <rect class="cls-1" width="163.43" height="17.49"/>
          <rect class="cls-5" width="8.29" height="17.49"/>
          <g>
            <path class="cls-3" d="M39.59,26.69c-.05.04-.14.12-.4.35-.18.16-.41.32-.67.48.59.31,1.17.5,1.83.62-.17.27-.25.46-.37.81-1.05-.27-1.83-.64-2.52-1.22-.5-.43-.78-.79-1.07-1.39h-.61v1.59c.61-.13.92-.22,1.41-.38v.7c-.75.25-1.49.43-2.73.67-.17.04-.19.04-.32.07l-.15-.78c.22,0,.53-.04.99-.13v-1.74h-.38c-.29,0-.48,0-.71.04v-.76c.15.03.41.04.73.04h.36v-2.21c0-.38,0-.5-.03-.69.21.03.42.04.76.04h3.14c.41,0,.6,0,.81-.04v.74c-.22-.03-.38-.04-.8-.04h-3.07v.35h2.97c.28,0,.5-.01.64-.04v.64c-.14-.02-.47-.04-.64-.04h-2.97v.34h2.97c.28,0,.51-.01.64-.04v.64c-.2-.03-.36-.04-.64-.04h-2.97v.37h3.73c.31,0,.5-.01.69-.04v.76c-.18-.03-.38-.04-.63-.04h-.66l.66.34ZM37.18,26.35c.2.36.38.55.73.81.35-.24.74-.58.94-.81h-1.67Z"/>
            <path class="cls-3" d="M45.07,23.94c.34.52.68.9,1.22,1.32.54.43,1.04.71,1.74.97-.15.22-.29.5-.38.74-.4-.18-.53-.25-.87-.46v1.73c0,.33.01.54.04.76h-.82v-.34h-2.63v.34h-.81c.03-.22.04-.46.04-.76v-1.71c-.29.17-.44.26-.83.45-.12-.3-.2-.46-.38-.71.65-.26,1.16-.55,1.66-.94.53-.42.89-.83,1.22-1.39h.81ZM44.22,23c-.32.44-.56.69-1.02,1.05-.33.27-.48.35-1.15.71-.15-.26-.28-.42-.49-.63.55-.27.94-.48,1.26-.74.37-.29.57-.53.76-.85l.63.46ZM46.1,26.05c-.57-.43-1.03-.9-1.41-1.44-.36.53-.85,1.02-1.39,1.44h2.8ZM43.37,27.96h2.63v-1.24h-2.63v1.24ZM45.76,22.52c.34.45.6.69,1.08,1.02.26.17.47.29,1.01.53-.18.22-.32.46-.44.7-1.05-.59-1.51-.96-2.24-1.8l.6-.46Z"/>
            <path class="cls-3" d="M50.41,24.95c0,1.31-.11,2.11-.38,2.79-.2.5-.39.85-.68,1.24-.2-.27-.37-.43-.65-.66.29-.38.44-.62.59-1.04.12-.3.2-.62.24-.97.03-.27.08-1.1.08-1.41v-1.51c0-.29-.01-.5-.05-.74h.9c-.04.18-.04.35-.04.76v1.55ZM52.63,22.95c-.03.25-.04.45-.04.81v3.59c0,.42.01.67.04.9h-.9c.03-.24.04-.48.04-.89v-3.59c0-.38-.01-.59-.04-.81h.9ZM54.87,22.64c-.04.23-.05.43-.05.83v4.54c0,.46.01.69.05.94h-.9c.03-.24.04-.5.04-.94v-4.54c0-.39,0-.59-.04-.83h.9Z"/>
            <path class="cls-3" d="M58.49,23.41c.15-.31.25-.6.32-.92l.88.08c-.13.34-.23.57-.36.84h1.62c.41,0,.6,0,.86-.03-.03.24-.04.43-.04.86v3.92c0,.41,0,.59.04.81h-.8v-.36h-3.46v.36h-.79c.03-.17.04-.48.04-.81v-3.92c0-.42,0-.62-.04-.86.25.03.45.03.86.03h.85ZM57.57,24.91h3.46v-.79h-3.46v.79ZM57.57,26.38h3.46v-.8h-3.46v.8ZM57.57,27.9h3.46v-.85h-3.46v.85Z"/>
            <path class="cls-3" d="M64.55,24.81c.2.15.39.32.57.51.13-.15.19-.23.31-.41-.17-.17-.34-.3-.6-.49l.34-.46c.23.15.37.25.57.43.11-.22.16-.36.27-.71h-.92c-.33.62-.79,1.18-1.28,1.57-.16-.23-.29-.37-.5-.54.55-.38.93-.83,1.22-1.45.14-.29.2-.48.24-.74l.77.1c-.03.06-.04.08-.06.14q-.02.06-.06.15s0,.01-.05.13h.56c.22,0,.37,0,.5-.03l.38.38q-.04.11-.08.27c-.03.07-.06.17-.12.34.17.01.34.02.57.02h.22c.02-.29.02-.44.02-.72,0-.39,0-.5-.04-.7h.81c-.03.17-.03.25-.03.62,0,.23-.01.46-.04.81h.83c.3,0,.53-.01.74-.04v.76c-.22-.03-.43-.04-.74-.04h-.77c.18.45.4.77.77,1.12.31.29.53.43.94.63-.18.24-.26.39-.39.74-.82-.48-1.39-1.09-1.69-1.81-.15.37-.36.74-.58.99-.24.27-.56.51-1.04.78-.11-.23-.23-.39-.46-.62.52-.24.8-.45,1.09-.8.21-.27.37-.61.48-1.02h-.12c-.34,0-.44,0-.68.04v-.41c-.27.73-.6,1.23-1.12,1.77-.2.21-.52.46-.83.68-.18.12-.34.2-.73.41-.11-.26-.22-.43-.46-.65.62-.27.9-.44,1.32-.79-.15-.18-.37-.4-.55-.53l.43-.43ZM63.41,28.57c.46-.48.7-.86.95-1.5l.65.31c-.3.79-.5,1.13-.96,1.7l-.64-.51ZM65.55,28.99c-.01-.71-.05-1.14-.15-1.67l.69-.08c.12.6.17.92.22,1.67l-.76.08ZM67.2,28.94c-.09-.63-.2-1.06-.41-1.6l.67-.15c.24.58.36.95.5,1.59l-.76.16ZM69.13,29.01c-.35-.74-.55-1.08-.99-1.62l.57-.36c.54.67.76.99,1.09,1.59l-.68.39ZM68.87,22.66c.25.29.48.58.64.87l-.57.36c-.21-.41-.32-.57-.62-.92l.55-.32Z"/>
            <path class="cls-3" d="M77.45,24.42c-.16-.02-.29-.03-.58-.03-.13,1.15-.37,1.91-.84,2.65.49.52.93.83,1.62,1.16-.27.3-.4.49-.53.77-.84-.55-1.18-.83-1.58-1.28-.5.55-1.04.94-1.81,1.32-.11-.29-.22-.46-.46-.73.78-.32,1.3-.67,1.78-1.22-.34-.53-.6-1.07-.77-1.65-.14.2-.22.31-.43.56-.05-.08-.06-.11-.11-.17v.65c-.29.11-.53.19-.69.25v1.51c0,.29.01.6.05.82h-.83c.03-.22.05-.55.05-.82v-1.27c-.62.19-1.01.3-1.14.35l-.15-.84c.31-.02.54-.06,1.29-.27v-1.53h-.42c-.08.55-.12.71-.25,1.16-.22-.17-.41-.28-.66-.38.14-.37.2-.59.27-1.02.06-.39.09-.8.09-1.03,0-.09,0-.13-.02-.25l.73.07q-.01.1-.05.55c0,.07,0,.08-.02.2h.33v-.8c0-.22-.01-.41-.05-.6h.82c-.03.18-.04.34-.04.6v.8h.22c.22,0,.34,0,.46-.04v.78c-.12-.02-.22-.03-.43-.03h-.25v1.32c.22-.07.27-.08.65-.22-.15-.18-.2-.24-.35-.36.3-.32.41-.48.61-.87.34-.69.57-1.45.6-1.98l.8.15c-.03.08-.04.15-.1.34-.04.17-.08.3-.18.64h1.61c.35,0,.59-.01.74-.04v.8ZM74.83,24.39c-.03.06-.04.09-.08.17.15.67.4,1.27.77,1.83.34-.62.5-1.16.59-2h-1.28Z"/>
            <path class="cls-3" d="M81.47,26.85c-.29.26-.45.36-.86.6-.08-.15-.12-.2-.27-.37-.4.25-.74.43-1.39.74,0,0-.04.03-.09.06-.01,0-.04.01-.07.04l-.17-.82c.19-.04.44-.13.79-.28v-1.86h-.2c-.2,0-.37,0-.55.04v-.75c.16.03.32.04.55.04h.2v-.87c0-.36-.01-.57-.04-.78h.81c-.04.22-.04.41-.04.78v.86h.12c.23,0,.37,0,.5-.03v.74c-.17-.02-.3-.03-.49-.03h-.13v1.51c.19-.1.24-.13.47-.26v.48c.38-.23.63-.44.83-.71h-.15c-.29,0-.48.01-.65.04v-.7c.16.03.34.04.66.04h3.06c.34,0,.55-.01.73-.04v.7c-.2-.02-.42-.03-.72-.03h-2.14c-.06.11-.1.16-.19.29h2.23c.34,0,.48,0,.68-.02-.01.11-.02.2-.03.41-.04.88-.14,1.59-.29,1.91-.14.32-.37.41-.98.41-.19,0-.32,0-.59-.02-.03-.26-.08-.44-.19-.64-.38.33-.67.53-1.16.77-.15-.23-.27-.35-.5-.53.62-.27.91-.44,1.28-.76.29-.25.51-.53.73-.93h-.42c-.43.65-1.03,1.13-1.94,1.53-.12-.22-.22-.34-.45-.53.8-.29,1.26-.58,1.62-1h-.54ZM81.68,25.04c-.27,0-.5,0-.64.03.02-.2.03-.4.03-.68v-1.02c0-.3,0-.42-.03-.64.22.03.38.04.71.04h2.04c.35,0,.55,0,.75-.04-.02.2-.03.34-.03.69v.97c0,.31,0,.51.03.67-.15-.01-.36-.02-.64-.02h-2.21ZM81.79,23.68h1.98v-.29h-1.98v.29ZM81.79,24.48h1.98v-.29h-1.98v.29ZM83.92,26.85c-.27.6-.55.97-.98,1.37.29.04.52.06.72.06.26,0,.34-.07.4-.37.05-.25.08-.55.12-1.06h-.26Z"/>
            <path class="cls-3" d="M89.18,26.8c-.4.9-.85,1.32-1.42,1.32-.8,0-1.37-.81-1.37-1.94,0-.77.27-1.49.77-2.04.59-.64,1.42-.98,2.41-.98,1.68,0,2.77,1.02,2.77,2.6,0,1.21-.63,2.18-1.7,2.61-.34.14-.61.21-1.1.29-.12-.37-.2-.53-.43-.82.64-.08,1.06-.2,1.39-.38.61-.34.97-1,.97-1.75,0-.67-.3-1.22-.86-1.55-.22-.13-.4-.18-.71-.21-.13,1.1-.38,2.07-.73,2.86ZM88.15,24.29c-.59.42-.95,1.14-.95,1.89,0,.57.24,1.03.55,1.03.23,0,.47-.29.72-.9.27-.63.5-1.58.58-2.37-.36.04-.62.14-.9.34Z"/>
            <path class="cls-3" d="M94.5,26.75c-.07,1.13-.2,1.76-.46,2.28-.18-.27-.38-.47-.6-.63.34-.77.43-1.66.43-4.62,0-.47,0-.74-.04-1.02.2.03.38.04.74.04h.6c.35,0,.54,0,.67-.04-.01.16-.02.29-.02.64v1.15c.56-.27.97-.57,1.3-.97h-.24c-.37,0-.58,0-.83.04v-.76c.22.03.46.04.85.04h2.19c.4,0,.69-.01.85-.04v.76c-.24-.03-.46-.04-.83-.04h-.39c.08.77.12,1.1.21,1.48.24-.3.43-.61.53-.84l.6.45q-.06.07-.16.22c-.23.35-.46.62-.74.92.27.74.55,1.19,1.05,1.7-.19.27-.29.46-.43.83-.57-.68-.9-1.25-1.2-2.11-.27-.74-.38-1.31-.55-2.66h-.1c-.2.31-.29.41-.51.63.22.24.39.55.55.94.25.66.42,1.56.42,2.3,0,.56-.08,1-.2,1.18-.15.21-.42.29-.92.29-.13,0-.25,0-.5-.02-.01-.27-.05-.43-.15-.71.27.05.44.07.62.07.21,0,.31-.05.35-.17.05-.14.08-.42.08-.84,0-.18,0-.29-.02-.47-.45.65-.82,1.02-1.53,1.51-.09-.17-.14-.24-.27-.4v.38c0,.53-.19.67-.88.67-.04,0-.14,0-.28,0,0-.32-.04-.47-.15-.71.15.03.31.04.46.04.13,0,.17-.04.17-.18v-1.34h-.65ZM94.54,25.13q0,.71-.01.97h.62v-.97h-.61ZM95.15,23.49h-.6v.99h.6v-.99ZM95.82,26.03c.53-.29.89-.57,1.33-1.04-.08-.15-.13-.22-.22-.34-.29.23-.5.36-.86.57-.11-.18-.14-.25-.26-.41v1.21ZM95.82,27.59c.69-.43,1.2-.91,1.68-1.58-.04-.22-.07-.31-.11-.47-.34.41-.71.74-1.3,1.11-.1-.18-.15-.27-.27-.41v1.34Z"/>
            <path class="cls-3" d="M101.36,25.38c.32.13.52.17,1.23.27.03-.25.09-.72.12-.98-.41-.06-.53-.07-1-.17-.1-.02-.13-.03-.24-.05l.07-.77c.29.11.79.21,1.27.25.1-.59.14-.95.14-1.16,0-.02,0-.04,0-.07l.93.08c-.08.22-.1.32-.22,1.18.79-.01,1.2-.05,1.6-.15l-.03.82c-.09,0-.13.01-.28.03-.5.04-.73.06-.98.06-.07,0-.13,0-.43,0-.07.51-.09.65-.13.99.21,0,.27,0,.34,0,.5,0,1-.05,1.34-.14l-.02.81c-.07,0-.09,0-.21.02-.31.04-.72.06-1.05.06-.11,0-.17,0-.45-.01-.02.19-.04.37-.04.5,0,.34.08.56.26.72.2.17.48.26.87.26.89,0,1.4-.39,1.4-1.08,0-.41-.21-.8-.63-1.18.39-.03.54-.06.87-.18.18.2.25.31.33.44.18.31.3.71.3,1.03,0,.5-.24.98-.67,1.31-.4.31-.93.46-1.58.46-1.27,0-1.97-.61-1.97-1.74,0-.18,0-.36.04-.59-.42-.06-.69-.1-.97-.16-.15-.04-.17-.04-.27-.04l.08-.81Z"/>
            <path class="cls-3" d="M107.8,24.15c.24-.02.35-.04.82-.14,1.6-.34,1.97-.4,2.79-.4,1.39,0,2.29.78,2.29,1.97,0,.95-.56,1.76-1.55,2.24-.64.32-1.18.44-2.47.58-.09-.38-.15-.53-.36-.9,1.12-.05,1.71-.15,2.3-.41.5-.22.92-.62,1.06-1.04.05-.14.08-.31.08-.5,0-.38-.2-.72-.53-.91-.22-.13-.52-.19-.9-.19-.73,0-1.63.16-2.76.5-.36.11-.41.12-.56.2l-.2-.99Z"/>
            <path class="cls-3" d="M116.02,24.76c-.28,0-.6.01-.83.04v-.74c.19.02.44.03.84.03h1.6v-.43h-.99c-.32,0-.53,0-.76.04v-.71c.2.03.41.04.77.04h.98c0-.27,0-.35-.04-.53h.84c-.03.15-.04.27-.04.53h.53c.34,0,.55-.01.75-.04v.52c.47-.39.69-.62.85-.88l.66.43c-.52.5-.75.7-1.19,1.03h.68c.38,0,.6,0,.8-.03v.74c-.24-.03-.47-.04-.8-.04h-1.68c-.22.13-.35.2-.59.32h1.49c.36,0,.58,0,.74-.03-.02.17-.03.35-.03.64v1.13c0,.27,0,.49.02.63.48.53.6.68.89,1.13l-.68.46c-.29-.57-.52-.9-.82-1.23l.5-.33c-.15,0-.34-.01-.57-.01h-2.77c-.31,0-.53,0-.69.03.02-.18.03-.38.03-.67v-.88c-.32.13-.58.23-1.06.38-.07-.2-.2-.42-.41-.67.98-.24,1.64-.47,2.58-.91h-1.59ZM115.13,28.53c.46-.38.67-.64.9-1.1l.65.32c-.28.57-.49.86-.91,1.28l-.64-.5ZM117.23,29.01v-.22c0-.32-.04-.74-.1-1.08l.69-.07c.08.42.14.86.15,1.3l-.75.06ZM117.24,25.98h2.62v-.33h-2.62v.33ZM117.24,26.86h2.62v-.33h-2.62v.33ZM118.82,24.1c.3-.19.45-.29.62-.42-.15,0-.29-.01-.5-.01h-.56v.43h.44ZM118.87,29.01c-.11-.63-.14-.74-.34-1.27l.69-.14c.19.46.27.72.4,1.24l-.76.17Z"/>
            <path class="cls-3" d="M122.72,25.18c.18.03.29.04.56.04h.57c.21,0,.37,0,.53-.04-.02.23-.03.38-.03.77v1.46c.1.22.17.29.4.45.34.21.7.26,1.9.26,1.02,0,1.91-.05,2.6-.15-.12.34-.16.51-.21.83-.62.02-1.64.04-2.12.04-1.15,0-1.72-.04-2.08-.16-.37-.11-.62-.3-.89-.66-.22.22-.39.37-.72.62-.12.09-.16.13-.21.17q-.07.06-.1.08l-.34-.8c.3-.13.74-.42,1.04-.69v-1.51h-.43c-.2,0-.3,0-.47.04v-.77ZM123.39,22.65c.5.44.88.83,1.23,1.28l-.58.57c-.43-.59-.66-.83-1.21-1.32l.56-.53ZM125.64,23.51c-.24,0-.41,0-.58.04v-.76c.15.03.3.04.58.04h1c.22,0,.38,0,.51-.03-.01.16-.01.26-.01.38,0,.69.16,1.39.46,2.03.36.77.78,1.25,1.54,1.8-.2.24-.32.43-.46.74-.51-.39-.8-.67-1.12-1.09-.35-.47-.54-.9-.78-1.66-.18.74-.37,1.18-.76,1.71-.26.36-.48.58-.95.96-.19-.25-.29-.36-.55-.61.43-.31.64-.52.92-.9.37-.5.64-1.07.78-1.67.07-.29.1-.49.13-.97h-.71Z"/>
            <path class="cls-3" d="M131.2,22.99c.16.03.34.04.71.04.42,0,1.04-.03,1.3-.06.14-.01.19-.03.28-.08l.55.48c-.06.08-.1.16-.15.29-.04.08-.46,1.37-.53,1.59.55.08,1.02.21,1.55.44.05-.36.07-.64.07-1.3,0-.15,0-.23-.03-.37l.88.04c-.03.15-.04.2-.04.47-.02.62-.05,1.04-.12,1.48.22.11.53.27.75.4.19.11.22.12.32.17l-.32.92c-.2-.17-.61-.45-.97-.65-.2.52-.41.86-.76,1.23-.31.32-.66.58-1.06.79-.29-.36-.36-.43-.64-.63.53-.25.8-.43,1.09-.74.28-.3.51-.68.62-1.04-.5-.24-.91-.37-1.58-.48-.31.92-.49,1.37-.69,1.72-.26.45-.57.67-.96.67-.64,0-1.12-.57-1.12-1.33,0-.64.31-1.19.87-1.53.37-.22.74-.32,1.32-.34.18-.55.27-.82.44-1.46-.36.03-.53.04-1.21.06-.29.01-.41.02-.55.04l-.03-.82ZM131.4,26.33c-.18.19-.27.43-.27.67,0,.29.15.52.34.52.13,0,.24-.13.4-.44.14-.28.31-.71.46-1.17-.47.07-.71.18-.93.42Z"/>
            <path class="cls-3" d="M37.87,32.99c.18.63.55,1.31,1.01,1.83.52.59,1.1.99,1.93,1.33-.24.28-.34.43-.51.81-.75-.39-1.23-.74-1.73-1.28-.46-.48-.8-1.04-1.06-1.69-.21.72-.58,1.32-1.14,1.88-.48.47-.98.8-1.67,1.1-.12-.27-.27-.48-.49-.74.5-.2.79-.35,1.13-.6.94-.67,1.41-1.45,1.58-2.64h-1.65c-.44,0-.64.01-.88.05v-.89c.22.04.47.05.88.05h1.72c.01-.35.02-.46.02-.83,0-.29-.02-.5-.05-.7h.93c-.04.25-.04.35-.05.82,0,.29,0,.45-.01.71h1.86c.4,0,.64-.01.88-.05v.89c-.28-.04-.49-.05-.88-.05h-1.81Z"/>
            <path class="cls-3" d="M42.18,31.66c.2.02.36.03.67.03.53,0,.91-.02,1.44-.08q-.02-.06-.08-.18c-.18-.41-.27-.62-.28-.64l.88-.12c.03.18.1.39.29.85.6-.08,1.41-.26,1.89-.42l.07.74q-.07.01-.24.05c-.47.11-1.25.27-1.46.29.11.26.15.35.27.57.6-.13.93-.2.97-.2.4-.1.48-.13.67-.2l.07.76c-.13.02-.28.05-.44.09-.29.07-.52.12-.69.15q-.17.04-.26.06c.36.6.48.75.94,1.28l-.62.44c-.5-.21-.93-.29-1.61-.29-.53,0-.94.07-1.18.2-.2.11-.3.26-.3.43s.12.33.3.41c.22.1.59.15,1,.15.73,0,1.72-.21,2.16-.46l.12.86q-.13.02-.46.11c-.6.16-1.18.24-1.79.24-.8,0-1.32-.1-1.71-.34-.34-.21-.54-.57-.54-.96s.21-.73.59-.97c.37-.23.93-.35,1.63-.35.43,0,.83.05,1.21.15-.11-.11-.24-.3-.54-.79-.74.11-1.19.14-2.71.19-.12,0-.17,0-.29.02l-.03-.76c.2.03.25.03.72.03.74,0,1.32-.04,1.98-.13-.04-.08-.07-.13-.12-.26-.07-.15-.09-.19-.15-.32-.56.06-1.06.09-1.88.1-.29,0-.33,0-.48.01l-.03-.74Z"/>
            <path class="cls-3" d="M50.03,31.29c-.04.26-.06.6-.06,1.06,0,.61.06,1.45.13,1.88.12.73.34,1.18.57,1.18.11,0,.2-.11.29-.3.17-.38.29-.8.37-1.27.24.28.36.39.7.64-.37,1.37-.77,1.93-1.37,1.93-.47,0-.85-.34-1.13-1.02-.29-.7-.41-1.72-.44-3.66,0-.25,0-.29-.03-.45h.96ZM53.34,31.6c.88,1.06,1.37,2.23,1.58,3.77l-.87.33c-.04-.66-.2-1.39-.45-2.02-.24-.64-.57-1.2-.99-1.72l.73-.35Z"/>
            <path class="cls-3" d="M56.79,31.2c.43.76.64,1.25.95,2.23l-.91.32c-.2-.8-.53-1.65-.89-2.26l.86-.29ZM61.2,31.41c-.06.15-.08.21-.19.69-.27,1.26-.83,2.41-1.55,3.23-.55.63-1.16,1.08-2.02,1.53-.23-.37-.34-.49-.64-.76.82-.35,1.41-.76,1.95-1.34.5-.55.86-1.15,1.14-1.99.2-.61.33-1.16.35-1.58l.97.22Z"/>
            <path class="cls-3" d="M62.64,33.26c.31.04.44.05,1.13.05h3.73c.69,0,.83,0,1.13-.05v.97c-.28-.04-.36-.04-1.14-.04h-3.72c-.79,0-.86,0-1.14.04v-.97Z"/>
            <path class="cls-3" d="M76.04,32.44c-.08.12-.1.14-.2.34-.41.85-.9,1.44-1.71,2.04-.27-.3-.38-.38-.7-.57.48-.27.85-.58,1.16-.99.1-.14.14-.2.27-.41-.11.02-.16.03-.27.04-.71.08-1.43.17-2.16.28v1.58q0,.48.03.6c.05.27.27.35.99.35.81,0,1.57-.1,2.15-.27l.04.95c-.19,0-.25,0-.43.03-.76.08-1.28.12-1.74.12-.57,0-.98-.04-1.25-.12-.29-.08-.52-.34-.6-.64-.06-.22-.07-.32-.07-.88v-1.6l-.66.08q-.55.07-.78.13l-.09-.87c.08,0,.13,0,.17,0,.12,0,.43-.02.62-.05l.74-.09v-.96c0-.35,0-.43-.04-.67h.97c-.04.2-.04.35-.04.65v.88l2.55-.31c.37-.04.38-.05.54-.12l.52.46Z"/>
            <path class="cls-3" d="M77.29,33.26c.31.04.44.05,1.13.05h3.73c.69,0,.83,0,1.13-.05v.97c-.28-.04-.36-.04-1.14-.04h-3.72c-.79,0-.86,0-1.14.04v-.97Z"/>
            <path class="cls-3" d="M85.26,32.62c.65.26,1.34.61,1.86.95l-.43.79c-.46-.36-1.25-.78-1.9-1.02l.47-.72ZM84.94,35.76c.55,0,1.28-.17,2.02-.46,1.28-.45,2.33-1.6,2.84-3.09.27.29.41.41.73.62-.87,2.12-2.35,3.27-4.86,3.76-.3.06-.36.08-.49.12l-.24-.96ZM85.79,30.93c.66.25,1.36.59,1.86.9l-.45.77c-.57-.39-1.36-.8-1.87-.96l.46-.71ZM89.44,30.79c.31.33.5.6.74,1.03l-.49.26c-.23-.43-.43-.71-.74-1.04l.49-.25ZM90.52,31.64c-.21-.38-.44-.71-.71-1.02l.47-.25c.32.32.51.59.73.99l-.48.27Z"/>
            <path class="cls-3" d="M94.7,34.8c-.4.9-.85,1.32-1.42,1.32-.8,0-1.37-.81-1.37-1.94,0-.77.27-1.49.77-2.04.59-.64,1.42-.98,2.41-.98,1.68,0,2.77,1.02,2.77,2.6,0,1.21-.63,2.18-1.7,2.61-.34.14-.61.21-1.1.29-.12-.37-.2-.53-.43-.82.64-.08,1.06-.2,1.39-.38.61-.34.97-1,.97-1.75,0-.67-.3-1.22-.86-1.55-.22-.13-.4-.18-.71-.21-.13,1.1-.38,2.07-.73,2.86ZM93.67,32.29c-.59.42-.95,1.14-.95,1.89,0,.57.24,1.03.55,1.03.23,0,.47-.29.72-.9.27-.63.5-1.58.58-2.37-.36.04-.62.14-.9.34Z"/>
            <path class="cls-3" d="M100.98,33.35c-.02.08-.03.09-.06.22-.24,1.08-.62,1.95-1.18,2.72-.34-.25-.46-.31-.81-.45.46-.55.71-1.04.98-1.84.12-.37.17-.59.2-.86l.86.22ZM101.69,31.46c0-.35,0-.53-.04-.72h.95c-.02.2-.03.3-.03.74v.37h1.6c.48,0,.64,0,.9-.05v.86c-.25-.03-.43-.03-.89-.03h-1.62v3.4c0,.36,0,.56.04.78h-.95c.04-.22.04-.43.04-.79v-3.39h-1.55c-.46,0-.64,0-.88.03v-.86c.27.04.42.05.9.05h1.54v-.39ZM104.09,33.14c.05.24.11.42.24.78.32.85.57,1.34,1,1.88-.37.19-.48.26-.81.49-.53-.85-.82-1.51-1.15-2.62-.06-.2-.06-.22-.11-.33l.83-.21Z"/>
            <path class="cls-3" d="M107.6,32.41c.29.54.43.88.69,1.66l-.79.25c-.18-.71-.32-1.08-.64-1.7l.74-.22ZM111.62,32.46c-.04.11-.05.14-.1.36-.2.95-.52,1.72-.97,2.33-.52.71-1.1,1.16-2.14,1.69-.18-.31-.27-.41-.56-.69.49-.19.78-.34,1.19-.64.82-.6,1.29-1.31,1.59-2.43.09-.34.13-.59.13-.81l.85.2ZM109.09,32.12c.37.69.5,1,.68,1.61l-.78.25c-.13-.53-.34-1.07-.64-1.65l.74-.21Z"/>
            <path class="cls-3" d="M114.08,36.75c.04-.22.04-.41.04-.79v-4.49c0-.34-.01-.53-.04-.71h.96c-.03.21-.03.3-.03.74v1.3c.96.34,2.06.85,3.18,1.48l-.49.83c-.58-.4-1.31-.8-2.48-1.34-.16-.08-.18-.08-.24-.12.02.2.03.28.03.48v1.85c0,.37,0,.55.03.78h-.96Z"/>
            <path class="cls-3" d="M120.54,36.75c.03-.2.04-.39.04-.79v-4.49c0-.41-.01-.55-.04-.71h.96c-.02.19-.03.32-.03.74v1.3c.81.27,2.07.85,3.18,1.48l-.49.83c-.49-.35-1.48-.89-2.48-1.34-.16-.08-.18-.08-.24-.12.02.2.03.31.03.48v1.85c0,.38,0,.58.03.78h-.96ZM123.42,31.13c.31.33.5.59.73,1.03l-.49.26c-.23-.43-.43-.71-.73-1.04l.49-.25ZM124.51,31.97c-.21-.38-.44-.71-.71-1.01l.47-.25c.31.32.51.59.73.99l-.48.27Z"/>
            <path class="cls-3" d="M127.21,32.41c.29.54.43.88.69,1.66l-.79.25c-.18-.71-.32-1.08-.64-1.7l.74-.22ZM131.23,32.46c-.04.11-.06.14-.1.36-.2.95-.52,1.72-.97,2.33-.52.71-1.1,1.16-2.14,1.69-.18-.31-.27-.41-.56-.69.49-.19.78-.34,1.19-.64.82-.6,1.29-1.31,1.59-2.43.09-.34.13-.59.13-.81l.85.2ZM128.71,32.12c.37.69.5,1,.68,1.61l-.78.25c-.13-.53-.34-1.07-.64-1.65l.74-.21Z"/>
            <path class="cls-3" d="M138.45,31.95c-.07.1-.1.17-.18.42-.32,1.06-.82,2.01-1.44,2.7-.64.74-1.41,1.28-2.49,1.78-.2-.35-.29-.47-.59-.74.7-.29,1.09-.5,1.53-.83,1-.74,1.66-1.7,2.04-2.96l-2.11.04c-.43.68-.97,1.28-1.64,1.79-.21-.29-.31-.38-.68-.6.8-.55,1.3-1.11,1.81-2.03.22-.4.33-.67.36-.92l.96.19q-.04.06-.12.22s-.02.04-.09.2t-.09.18-.11.22c.09,0,.2-.01.34-.01l1.53-.02c.27,0,.35-.01.51-.07l.45.44Z"/>
          </g>
          <g>
            <path class="cls-4" d="M62.06,9.03v.79h2.49v3.65h-1.22v-.33h-3.53v.34h-1.22v-3.66h2.18v-.79h-2.73c-.16,1.42-.5,2.82-1.09,4.13l-1.2-.33c.29-.62.53-1.12.75-2.08.26-1.09.39-2.19.39-3.5s-.09-2.34-.12-2.78h7.9v2.7h-2.61v.82h3.23v1.04h-3.23ZM63.36,5.48h-5.27v.65h5.27v-.65ZM60.75,7.16h-2.66v.82h2.66v-.82ZM63.33,10.91h-3.53v1.12h3.53v-1.12Z"/>
            <path class="cls-4" d="M68.14,8.73c-.65-.49-1.15-.72-1.78-.98l.51-1.04c.61.25,1.14.52,1.84,1.03l-.57.99ZM68.44,12.12c-.08.17-.48,1.01-.5,1.09-.01.03.01.19.01.24,0,.09-.03.11-.08.11s-.16-.04-.32-.15l-.95-.68c.72-.93,1.28-2.15,1.62-3.15l.97.65c-.26.73-.62,1.59-.75,1.9ZM68.44,6.12c-.38-.37-.86-.76-1.45-1.11l.67-.96c.54.31,1.01.68,1.46,1.11l-.68.96ZM73.81,5.62v.87h1.95v6.92h-1.17v-.38h-3.9v.44h-1.14v-6.98h1.84c0-.44,0-.56-.01-.87h-1.83v-1.01h6.41v1.01h-2.14ZM74.58,9.92c-.11.08-.27.12-.38.12h-.78c-.41,0-.59-.21-.59-.6v-1.81h-.51c-.11,1.24-.23,1.58-.92,2.49l-.73-.46v.83h3.9v-.56ZM70.68,7.63v1.79c.46-.47.58-.91.67-1.79h-.67ZM74.58,11.41h-3.9v.61h3.9v-.61ZM72.84,5.62h-.45v.87h.45v-.87ZM74.58,7.63h-.78v1.14c0,.12.03.17.33.17.27,0,.33-.05.44-.16v-1.15Z"/>
            <path class="cls-4" d="M84.66,7.95c.55.5,1.1.99,1.58,1.56l-.85.75c-.13-.14-.3-.34-.71-.75-.58.08-1.23.13-1.7.17.15.02.29.04.29.14,0,.06-.09.11-.15.15v.55h2.31v.96h-2.31v.83h3.37v1.01h-7.64v-1.01h2.98v-.83h-2.36v-.96h2.36v-.76c-.64.04-1.55.1-1.62.1-.05,0-.36.01-.43.02-.03.01-.19.15-.25.15-.14,0-.17-.11-.18-.22l-.14-.96c.42.03.8.03,1.27.03.11-.15.33-.54.51-.94h-1.89c-.01.72-.02,1.3-.14,2.27-.18,1.41-.45,2.33-.83,3.22l-1.22-.37c.76-1.62.99-3.41.99-5.19,0-1.07-.04-2.56-.15-3.57h8.41v2.29h-7.06v.43h7.48v.91h-1.94ZM84.92,5.22h-5.8v.53h5.8v-.53ZM83.38,8.33l.33-.38h-1.4c-.17.32-.38.71-.53.92,1.31-.03,1.63-.05,2.12-.1-.17-.15-.19-.16-.53-.44Z"/>
            <path class="cls-4" d="M100.06,13.61c-2.53-.89-3.73-2.03-4.75-4.13h-1.06v2.43c1.09-.29,1.6-.46,2.08-.62v1.13c-1.76.62-3.04.95-3.64,1.1-.08.18-.12.28-.25.28-.12,0-.17-.24-.19-.3l-.3-1.09c.65-.13.82-.16,1.1-.23v-6.91h2.52v-1.09l1.26.02c.29,0,.36.04.36.14,0,.14-.18.25-.28.3v.62h2.66v4.06l.44.37s.23.19.23.3c0,.13-.14.13-.18.13-.06,0-.12,0-.21-.01-.4.38-.6.58-1.42,1.33.97.61,1.67.79,2.64.88l-.99,1.27ZM98.34,6.23h-4.09v.68h4.09v-.68ZM98.34,7.83h-4.09v.68h4.09v-.68ZM96.67,9.48c.26.56.52.87.84,1.23.54-.51.92-.92,1.2-1.23h-2.04Z"/>
            <path class="cls-4" d="M103.37,8.81c-.26-.22-.64-.53-1.55-.98l.64-.94c.4.18,1.02.51,1.58.96l-.67.96ZM103.79,12.51c-.06.14-.39.71-.39.8,0,.02.01.14.01.16s0,.06-.07.06c-.05,0-.15-.04-.28-.14l-.89-.66c.7-.96,1.2-2.05,1.62-3.17l.99.72c-.4,1.06-.86,1.95-.99,2.22ZM104.17,6.15c-.4-.33-.89-.71-1.5-1.03l.73-.95c.94.53,1.27.8,1.57,1.04l-.81.94ZM110.71,8.84c-.21-.38-.24-.44-.46-.84-1.3.17-2.62.31-3.93.43-.09.01-.55.03-.66.03-.2.02-.23.02-.28.09-.12.13-.13.14-.18.14-.08,0-.14-.18-.14-.19l-.34-1.22h.95c.54-.96,1.11-2.29,1.44-3.24l1.09.43c.22.09.33.14.33.26,0,.09-.06.12-.16.14-.15.02-.16.04-.26.25-.37.71-.74,1.42-1.13,2.12.55-.03,1.75-.09,2.66-.23-.37-.54-.54-.73-.71-.89l1-.67c.81.95,1.48,2.1,1.83,2.76l-1.04.64ZM109.59,13.3v-.37h-2.84v.41h-1.24v-4.18h5.3v4.14h-1.22ZM109.59,10.27h-2.84v1.57h2.84v-1.57Z"/>
          </g>
        </g>
      </g>
    </g>
  </g>
</svg>