<?xml version="1.0" encoding="UTF-8"?>
<svg xmlns="http://www.w3.org/2000/svg" viewBox="0 0 162.24 27.76">
  <defs>
    <style>
      .cls-1 {
        fill: #f18d09;
      }

      .cls-2 {
        isolation: isolate;
      }

      .cls-3 {
        fill: #231815;
      }

      .cls-4 {
        fill: #fff;
      }

      .cls-5 {
        fill: #f29014;
        mix-blend-mode: multiply;
      }
    </style>
  </defs>
  <g class="cls-2">
    <g id="_レイヤー_2" data-name="レイヤー_2">
      <g id="_テキスト_xFF08_B_xFF09_" data-name="テキスト_xFF08_B_xFF09_">
        <g>
          <rect class="cls-1" width="162.24" height="17.49"/>
          <rect class="cls-5" width="8.29" height="17.49"/>
          <g>
            <path class="cls-3" d="M55.65,23.87c0-.17,0-.27-.01-.52-.13.06-.23.09-.53.2-.11-.32-.18-.46-.36-.71.69-.2,1.18-.41,1.71-.72.54-.32.9-.59,1.16-.9h.85c.37.36.75.63,1.33.93.57.29,1.05.48,1.65.64-.18.27-.25.41-.34.74-.29-.11-.38-.15-.56-.22t0,.18v1.09c0,.27,0,.44.02.62-.18-.01-.39-.02-.67-.02h-3.6c-.29,0-.45,0-.67.02.02-.16.04-.37.04-.61v-.71ZM55.94,26.13c0-.29-.01-.51-.03-.71.32.01.54.02.81.02h2.85c.32,0,.54,0,.69-.03-.03.17-.03.31-.03.69v.88c0,.34,0,.58.04.78h-.76v-.26h-2.86v.25h-.76c.03-.22.04-.42.04-.75v-.86ZM56.87,22.71c-.47.28-.68.4-.95.53.14,0,.22,0,.37,0h3.56c.26,0,.32,0,.54,0-.39-.18-.69-.33-1.03-.53v.3c-.15-.02-.34-.03-.53-.03h-1.43c-.27,0-.38,0-.54.03v-.3ZM56.31,23.76v.87h.67c-.12-.27-.21-.42-.39-.68l.41-.19h-.69ZM56.65,26.21h2.86v-.25h-2.86v.25ZM56.65,26.97h2.86v-.27h-2.86v.27ZM57.09,23.76c.17.25.27.42.38.66l-.43.21h.71v-.87h-.66ZM58.96,22.47c-.43-.27-.59-.4-.91-.7-.34.34-.53.5-.81.7h1.72ZM58.36,23.76v.87h.63l-.36-.18c.19-.24.29-.41.44-.69h-.71ZM59.88,24.63v-.87h-.79l.48.22c-.13.25-.25.43-.42.65h.73Z"/>
            <path class="cls-3" d="M62.78,23.05c.62.37.79.48,1.25.86l-.44.63c-.49-.44-.62-.54-1.24-.93l.43-.56ZM63.98,25.45c-.32.85-.61,1.55-.96,2.24l-.66-.58c.13-.14.24-.32.43-.71.25-.5.36-.78.56-1.39l.63.44ZM63.08,21.32c.49.3.77.51,1.2.9l-.48.61c-.41-.4-.72-.66-1.2-.97l.48-.54ZM65.9,22.43h-.83c-.27,0-.43,0-.63.03v-.67c.19.03.39.04.65.04h.8c0-.3,0-.42-.04-.57h.8c-.04.15-.04.25-.04.57h1.22c.27,0,.42,0,.56-.03-.01.18-.02.36-.02.53v.52h.04c.21,0,.34,0,.5-.04v.7c-.15-.02-.29-.03-.5-.03h-.04v.39c0,.41,0,.49.02.66-.08-.01-.25-.02-.55-.02h-1.23v.47h1.16c.32,0,.53,0,.7-.04v.67c-.18-.02-.38-.03-.69-.03h-1.17v.5h1.41c.34,0,.59-.01.78-.03v.7c-.25-.03-.46-.04-.79-.04h-1.39v.25c0,.29.01.54.04.76h-.8c.03-.21.04-.46.04-.76v-.25h-1.11c-.31,0-.57.01-.76.04v-.71c.17.02.47.03.76.03h1.11v-.5h-.95c-.29,0-.49,0-.67.04v-.68c.19.03.38.04.68.04h.94v-.47h-.85c-.25,0-.44,0-.61.03v-.64c.18.02.35.03.62.03h.84v-.44h-1.17c-.31,0-.54.01-.74.04v-.72c.22.04.47.05.76.05h1.15v-.41ZM67.66,22.84v-.41h-1.04v.41h1.04ZM66.61,23.92h1.04v-.44h-1.04v.44Z"/>
            <path class="cls-3" d="M71.09,21.94c.43.76.64,1.25.95,2.23l-.91.32c-.2-.8-.53-1.65-.89-2.26l.86-.29ZM75.5,22.15c-.06.15-.08.21-.19.69-.27,1.26-.83,2.41-1.55,3.23-.55.63-1.16,1.08-2.02,1.53-.23-.37-.34-.49-.64-.76.82-.35,1.41-.76,1.95-1.34.5-.55.86-1.15,1.14-1.99.2-.61.33-1.16.35-1.58l.97.22Z"/>
            <path class="cls-3" d="M76.94,23.99c.31.04.44.05,1.13.05h3.73c.69,0,.83,0,1.13-.05v.97c-.28-.04-.36-.04-1.14-.04h-3.72c-.79,0-.86,0-1.14.04v-.97Z"/>
            <path class="cls-3" d="M89,27.4c-.58-.71-1.39-1.5-2.15-2.08-.79.88-1.6,1.5-2.67,2.02-.2-.36-.28-.48-.57-.78.54-.21.88-.4,1.4-.77,1.06-.74,1.9-1.76,2.35-2.85l.08-.18q-.11,0-2.32.04c-.34,0-.53.02-.76.06l-.03-.9c.2.04.33.04.62.04h.17l2.46-.04c.39,0,.45-.01.62-.08l.46.48c-.09.11-.15.2-.22.38-.32.75-.67,1.36-1.09,1.93.44.29.82.59,1.29,1.02q.18.15,1.02.97l-.67.73Z"/>
            <path class="cls-3" d="M96.74,23.03c-.05.13-.07.22-.08.47-.02.79-.1,1.87-.17,2.33-.18,1.21-.43,1.5-1.27,1.5-.27,0-.5-.02-.87-.08-.01-.44-.04-.57-.16-.9.41.11.69.16.92.16.3,0,.41-.15.52-.76.08-.48.15-1.44.15-2.24h-1.63c-.1.88-.25,1.41-.56,2.01-.38.74-1.01,1.38-1.89,1.94-.24-.37-.34-.48-.63-.74.88-.46,1.45-1.02,1.82-1.76.19-.39.29-.73.36-1.22.01-.1.03-.17.04-.22h-1.16c-.43,0-.53.01-.76.04v-.86c.23.04.42.06.77.06h1.23c.02-.27.03-.68.03-.88v-.17c0-.09,0-.15-.02-.27l.94.02c-.01.09-.02.12-.03.22,0,.04,0,.08,0,.13q-.01.15-.03.51c0,.15,0,.22-.03.44h1.55c.31,0,.38-.01.55-.07l.4.35Z"/>
            <path class="cls-3" d="M99.06,22.13c.36.64.59,1.18.85,2.06l-.86.27c-.2-.78-.47-1.51-.8-2.09l.81-.24ZM104.04,22.17c-.06.15-.08.2-.17.68-.5,2.25-1.61,3.66-3.71,4.68-.19-.34-.28-.46-.62-.79.78-.29,1.4-.67,1.97-1.22.57-.53.94-1.12,1.23-1.93.22-.6.34-1.18.35-1.65l.96.22ZM100.89,21.8c.34.57.6,1.2.84,1.98l-.85.27c-.2-.78-.41-1.32-.79-2.03l.8-.22Z"/>
          </g>
          <g>
            <path class="cls-4" d="M54.44,7.01c-.28-.04-.79-.13-1.63-.45v.62h-5.22v-.65c-.42.15-.9.32-1.7.52l-.8-1.08c1.45-.13,3.03-.51,4.67-1.96l1.03.13c.05.01.38.05.38.19,0,.04-.03.08-.05.11,1.23.98,3.1,1.29,4.01,1.44l-.68,1.12ZM46.05,9.92v-2.41h8.15v2.41h-8.15ZM52.05,13.47v-.3h-3.86v.3h-1.33v-3.12h6.51v3.12h-1.33ZM47.58,8.51l.51-.24h-.87v.94h.93c-.26-.37-.41-.55-.56-.7ZM50.19,5.06c-.53.43-1.06.8-1.99,1.21h3.99c-.71-.31-1.34-.67-1.99-1.21ZM52.05,11.01h-3.86v.41h3.86v-.41ZM52.05,12.06h-3.86v.46h3.86v-.46ZM49.56,8.28h-.99c.21.2.33.36.58.69l-.46.25h.87v-.94ZM50.68,8.28v.94h.84l-.42-.24c.25-.26.37-.4.6-.7h-1.02ZM53.03,8.28h-.96l.53.28c.06.03.15.09.15.16,0,.03-.02.12-.29.08-.09.13-.19.29-.31.42h.88v-.94Z"/>
            <path class="cls-4" d="M57.36,8.71c-.48-.43-1.25-.89-1.82-1.14l.62-1.07c.75.32,1.5.81,1.86,1.2l-.67,1.01ZM57.88,11.52c-.08.15-.51.85-.59,1.01-.08.12-.24.4-.24.48,0,.03.02.19.02.23,0,.09-.04.16-.14.16-.06,0-.16-.06-.25-.12l-1.04-.73c.78-.85,1.67-2.36,2.11-3.35l.97.79c-.32.6-.75,1.37-.84,1.53ZM58.11,6.23c-.55-.47-1.18-.86-1.68-1.11l.65-1.03c.83.42,1.44.86,1.78,1.19l-.74.96ZM64.91,7.51v1.57h-2.42v.47h2.31v1.01h-2.31v.53h2.76v1.09h-2.76v1.26h-1.29v-1.26h-2.7v-1.09h2.7v-.53h-2.32v-1.01h2.32v-.47h-2.08v-.97h2.08v-.6h-2.6v-1.01h2.6v-.46h-2.04v-.99h2.04v-.9l1.29.11c.09.01.3.04.3.18,0,.05-.05.09-.09.11-.12.08-.13.09-.22.21v.29h2.42v1.45h.36v1.01h-.36ZM63.68,6.03h-1.2v.46h1.2v-.46ZM63.68,7.51h-1.2v.6h1.2v-.6Z"/>
            <path class="cls-4" d="M74.01,12.1c-.88.85-1.75,1.09-2.24,1.23l-.74-1.03c.48-.1,1.31-.27,2.05-.96.64-.61.87-1.37.87-2,0-.94-.7-1.89-2-2.04-.32,1.09-.62,2-1.25,3.09.2.33.31.5.5.73l-.89.98c-.16-.22-.27-.38-.43-.66-.31.31-1.07,1.07-1.78,1.07-.75,0-1.36-.68-1.36-1.84,0-1.69,1.03-2.71,1.44-3.12-.3-.87-.46-1.41-.6-1.98l1.26-.51c.07.65.16,1.08.36,1.76.62-.32,1.06-.46,1.77-.58.13-.84.15-1.28.15-1.86l1.25.12c.1.01.34.03.34.16,0,.05-.04.08-.15.15-.03.02-.09.07-.09.11-.13.75-.14.83-.25,1.31.47.08,1.24.19,1.95.8.83.71,1.09,1.68,1.09,2.43,0,1.28-.76,2.2-1.24,2.65ZM68.59,8.7c-.68.92-.72,1.62-.72,1.87,0,.31.13.6.42.6.45,0,.89-.55,1.04-.74-.23-.49-.4-.86-.74-1.73ZM69.55,7.93c.15.41.31.8.53,1.26.29-.66.44-1.11.64-1.8-.39.1-.62.19-1.16.54Z"/>
            <path class="cls-4" d="M82.25,12.98c-1.48,0-1.48-1.26-1.48-1.33,0-.27.22-1.52.22-1.69,0-.39-.24-.57-.56-.57-.59,0-1.13.46-1.43.81-.16.17-.73.96-1.36,2.69l-1.33-.38c2.6-5.02,2.87-5.55,3.35-6.58.37-.79.52-1.13.66-1.48l1.22.65c.06.03.26.13.26.24,0,.04-.04.09-.09.1-.03.01-.21.04-.24.07-.16.05-.92,1.35-1.58,2.89.55-.22,1-.23,1.08-.23.95,0,1.35.64,1.35,1.3,0,.25-.25,1.43-.25,1.7,0,.38.17.51.44.51.74,0,1.51-1.06,1.91-1.64l.7,1.03c-.4.61-1.25,1.91-2.87,1.91Z"/>
            <path class="cls-4" d="M91.92,8.82c-.31-.21-.74-.51-1.85-.92l.61-1.07c.64.24,1.25.56,1.79.97l-.55,1.01ZM92.09,11.77c-.09.19-.59,1.15-.61,1.25,0,.03.01.17.01.21,0,.02-.01.13-.09.13-.03,0-.14-.04-.21-.09l-1.04-.62c.67-.92,1.24-1.97,1.72-3.21l.98.58c-.24.58-.5,1.17-.76,1.76ZM92.55,6.29c-.61-.49-1.26-.81-1.75-1l.66-1c.56.24,1.19.59,1.75,1.01l-.66.99ZM94.94,10.53l.95.8c.06.05.13.12.13.22,0,.14-.2.12-.37.11-.15.17-1.09,1.15-2.07,1.78l-1.13-.85c.4-.18.83-.38,1.39-.85.62-.53.81-.87.99-1.2h-1.69v-1.16h.78v-4.7c.44.11.7.16.91.16.37,0,.86-.08.96-.1,1.59-.26,1.95-.41,2.61-.7l.61.96c.04.06.12.19.12.27,0,.06-.08.08-.13.08-.04,0-.25-.03-.3-.03s-.71.13-.81.15c-.44.09-1.78.28-2.74.3v.82h4.22v1.13h-1.66v1.66h1.99v1.16h-4.76ZM96.49,7.7h-1.35v1.66h1.35v-1.66ZM99.08,13.44c-1.18-.7-1.97-1.54-2.48-2.17l.95-.7c.64.86,1.54,1.48,2.49,1.96l-.96.91Z"/>
            <path class="cls-4" d="M107.42,10.61c-.5-.34-1.29-.9-2.47-.9-.86,0-1.58.43-1.58,1.16,0,.83.72,1.16,1.98,1.16.73,0,1.35-.12,1.66-.18l.09,1.22c-.56.11-1.13.12-1.7.12-.62,0-2.09-.05-2.84-1.02-.11-.14-.42-.55-.42-1.26,0-1.56,1.36-2.22,2.54-2.22.4,0,.97.11,1.31.18-.4-.55-.64-.95-1.01-1.67-1.39.43-2.14.57-3.02.64l-.55-1.13c.41.02.64.02.85,0,.16-.01.94-.1,2.25-.45-.28-.65-.49-1.15-.7-1.89l1.09-.16c.08-.01.38-.08.38.06,0,.05-.14.27-.14.33,0,.03.11.46.45,1.28.79-.32,1.13-.53,1.58-.86l.54,1.02c-.36.21-.7.41-1.68.79.72,1.34,1.24,2.03,2.08,2.87l-.69.92Z"/>
            <path class="cls-4" d="M115.46,8.2c.67,1.27,1.01,1.73,1.42,2.24l-.66.82c-.52-.28-1.58-.82-2.82-.82-.71,0-1.3.3-1.3.88,0,.92,1.4.92,1.77.92,1.02,0,1.64-.16,2.15-.29l-.11,1.27c-.3.04-.85.13-1.7.13-1.94,0-3.28-.61-3.28-2.04s1.16-1.87,2.38-1.87c.54,0,1.01.08,1.54.17-.26-.46-.36-.66-.56-1.06-1.13.28-2.06.45-3.46.47l-.38-1.09c1.53-.01,2.23-.08,3.39-.32-.16-.37-.28-.64-.39-.88-1.09.22-1.69.28-2.56.29l-.33-1.03c1.03-.01,1.58-.05,2.51-.22-.25-.67-.37-1.01-.54-1.52l1.23-.14c.09-.01.36-.04.36.09,0,.05-.03.09-.09.14-.09.09-.1.12-.1.15,0,.08.18.6.32.99.73-.26,1.14-.44,1.84-.83l.24,1.04c-.61.39-1.21.57-1.7.73.14.33.18.44.36.82.79-.31,1.23-.54,1.96-.97l.19,1.08c-.59.39-1.02.58-1.69.84Z"/>
          </g>
        </g>
      </g>
    </g>
  </g>
</svg>