<?xml version="1.0" encoding="UTF-8"?>
<svg xmlns="http://www.w3.org/2000/svg" viewBox="0 0 163.43 36.93">
  <defs>
    <style>
      .cls-1 {
        fill: #f18d09;
      }

      .cls-2 {
        isolation: isolate;
      }

      .cls-3 {
        fill: #231815;
      }

      .cls-4 {
        fill: #fff;
      }

      .cls-5 {
        fill: #f29014;
        mix-blend-mode: multiply;
      }
    </style>
  </defs>
  <g class="cls-2">
    <g id="_レイヤー_2" data-name="レイヤー_2">
      <g id="_テキスト_xFF08_B_xFF09_" data-name="テキスト_xFF08_B_xFF09_">
        <g>
          <rect class="cls-1" width="163.43" height="17.49"/>
          <rect class="cls-5" width="8.29" height="17.49"/>
          <g>
            <path class="cls-3" d="M26.81,23.16c-.04.26-.06.6-.06,1.06,0,.61.06,1.45.13,1.88.12.73.34,1.18.57,1.18.11,0,.2-.11.29-.3.17-.38.29-.8.37-1.27.24.28.36.39.7.64-.37,1.37-.77,1.93-1.37,1.93-.47,0-.85-.34-1.13-1.02-.29-.7-.41-1.72-.44-3.66,0-.25,0-.29-.03-.45h.96ZM30.12,23.47c.88,1.06,1.37,2.23,1.58,3.77l-.87.33c-.04-.66-.2-1.39-.45-2.02-.24-.64-.57-1.2-.99-1.72l.73-.35Z"/>
            <path class="cls-3" d="M34.86,22.65c-.02.06-.04.14-.06.22-.01.09-.02.13-.04.24q-.02.15-.12.67c-.03.15-.03.17-.05.26.2-.01.3-.02.44-.02.46,0,.8.13,1.04.37.24.27.33.6.33,1.24,0,1.21-.2,2.16-.54,2.55-.2.23-.41.32-.78.32-.32,0-.61-.06-1.08-.2,0-.14.01-.24.01-.31,0-.18-.01-.32-.07-.6.38.17.78.27,1.02.27.2,0,.31-.13.42-.48.11-.36.18-1,.18-1.6,0-.64-.16-.83-.71-.83-.14,0-.24,0-.41.02-.21.85-.27,1.06-.43,1.52-.24.7-.43,1.15-.84,1.97q-.04.07-.11.21s-.02.05-.05.12l-.81-.45c.21-.28.49-.78.73-1.32.3-.69.4-.98.68-1.98-.36.04-1.02.16-1.25.22l-.09-.83c.26,0,1.11-.08,1.49-.14.13-.76.18-1.18.18-1.42v-.13l.91.1ZM37.18,23.55c.7.82,1.14,1.65,1.44,2.73l-.8.41c-.13-.6-.29-1.06-.56-1.59-.25-.52-.48-.84-.81-1.2l.72-.35Z"/>
            <path class="cls-3" d="M41.96,26.5c-.32,0-.5,0-.68.04v-.71c.16.02.27.03.54.03h.09v-.61h-.12c-.23,0-.35,0-.55.04v-.59c-.16.2-.24.29-.44.49-.03.57-.05.81-.1,1.15.23.36.5.65.83.9-.18.26-.27.4-.38.69-.29-.3-.45-.5-.62-.76-.22.71-.5,1.23-.96,1.71-.15-.25-.29-.42-.5-.6.4-.41.63-.83.8-1.46.2-.66.27-1.65.27-3.32,0-.6,0-.75-.05-1.02h.81q-.04.23-.04,1.34c0,.15,0,.24,0,.46.19-.28.28-.44.36-.62l.53.41c-.09.12-.22.29-.38.51.13.01.24.02.45.02h.12v-.22c0-.14,0-.22-.03-.33h.7c-.01.09-.02.17-.02.32v.24h1.51v-.23c0-.14,0-.21-.02-.32h.72c-.02.1-.03.19-.03.32v.23h.27c.24,0,.38,0,.58-.04v.73c-.19-.03-.34-.04-.58-.04h-.27v.61h.11c.29,0,.44,0,.64-.04v.73c-.22-.03-.42-.04-.71-.04h-.58v1.44c0,.14.04.16.41.16.18,0,.29-.04.31-.13.04-.12.06-.34.07-.74.2.13.34.19.66.28-.04.64-.11.95-.28,1.1-.13.12-.41.17-.9.17-.78,0-.97-.11-.97-.55v-1.73h-.55c-.04.43-.07.61-.17.88-.25.74-.71,1.18-1.6,1.54-.12-.29-.23-.46-.43-.64.5-.16.77-.32,1.04-.61.28-.3.42-.68.44-1.18h-.25ZM39.1,25.63c.1-.33.13-.48.17-.86.03-.33.05-.6.05-.81v-.18l.59.07c-.01.9-.08,1.46-.22,2.07l-.58-.29ZM43.64,23.97c0,.22,0,.29.02.41h-.71c.01-.11.02-.22.02-.41v-.24h-.81c-.25,0-.5.01-.68.04v-.73c.22.03.38.04.68.04h.81v-.18c0-.2,0-.31-.04-.47h.74c-.03.14-.04.27-.04.48v.17h1.02c.27,0,.47-.01.67-.04v.74c-.2-.02-.42-.04-.65-.04h-1.04v.23ZM44.07,25.85v-.61h-1.51v.61h1.51Z"/>
            <path class="cls-3" d="M46.59,23.53c.2.02.36.03.67.03.53,0,.91-.02,1.44-.08q-.02-.06-.08-.18c-.18-.41-.27-.62-.28-.64l.88-.12c.03.17.1.38.29.85.6-.08,1.41-.26,1.89-.42l.07.74q-.07.01-.24.05c-.47.11-1.25.27-1.46.29.11.26.15.35.27.57.6-.13.93-.2.97-.2.4-.1.48-.13.67-.2l.07.76c-.13.02-.28.05-.44.09-.29.07-.52.12-.69.15q-.17.03-.26.06c.36.6.48.75.94,1.28l-.62.44c-.5-.21-.93-.29-1.61-.29-.53,0-.94.07-1.18.2-.2.11-.3.26-.3.43s.12.33.3.41c.22.1.6.15,1,.15.73,0,1.72-.21,2.16-.46l.12.86q-.13.02-.46.11c-.6.16-1.18.24-1.79.24-.8,0-1.32-.1-1.71-.34-.34-.21-.54-.57-.54-.96s.21-.73.59-.97c.37-.23.93-.35,1.63-.35.43,0,.83.05,1.21.15-.11-.11-.24-.3-.54-.79-.74.11-1.19.14-2.71.19-.12,0-.17,0-.29.02l-.03-.76c.2.03.25.03.72.03.74,0,1.32-.04,1.98-.13-.04-.08-.07-.13-.12-.26-.07-.15-.09-.19-.15-.32-.56.06-1.06.09-1.88.1-.29,0-.33,0-.48.01l-.03-.74Z"/>
            <path class="cls-3" d="M53.77,22.89c.22.03.36.04.69.04.63,0,1.54-.04,2.08-.08.34-.03.51-.06.66-.11l.46.58c-.15.1-.18.13-.41.34-.51.46-1.3,1.09-1.93,1.53.35-.05.86-.1,1.7-.17.44-.04.76-.06.92-.07.25-.03.43-.04.5-.05.11,0,.13,0,.23-.03l.05.82h-.21c-.8,0-1.43.11-1.95.34-.57.26-.95.69-.95,1.06,0,.46.5.71,1.41.71.27,0,.46-.01.66-.06l.04.89c-.08,0-.16,0-.26,0-.05,0-.16,0-.36,0h-.09c-.43,0-.94-.08-1.3-.2-.6-.19-.99-.67-.99-1.23,0-.33.13-.64.38-.91.2-.21.37-.34.75-.53-.3.06-.53.09-.86.13-.32.04-.57.07-.77.1-.28.04-.66.08-1.13.15-.14.02-.19.04-.32.07l-.08-.85s.09,0,.11,0c.14,0,.44-.02.6-.04.04,0,.12-.01.27-.04.17-.01.24-.03.4-.06.62-.37,1.62-1.18,2.15-1.72-.54.08-.79.1-1.95.15-.18,0-.3.02-.45.04l-.04-.83Z"/>
            <path class="cls-3" d="M59.86,28.65c0-.07,0-.12-.03-.27-.13-.83-.19-1.5-.19-2.23,0-.63.04-1.25.13-1.85q.04-.22.19-1.01c.05-.25.08-.45.08-.52v-.02l.95.09c-.28.61-.57,2.43-.56,3.52,0,.17,0,.27,0,.27v.08c0,.08,0,.15,0,.26h0l.04-.07.08-.2c.11-.28.11-.3.19-.48.01-.04.04-.1.08-.22l.58.25c-.41.82-.69,1.68-.69,2.15,0,.05,0,.08.01.18l-.84.06ZM61.45,24.06c.32.08.69.1,1.26.1.23,0,.39,0,.65,0,0-.16,0-.27,0-.33v-.74c0-.17,0-.22-.02-.28h.87c-.04.19-.05.48-.05.95v.33c.5-.06.88-.13,1.15-.24l.03.79c-.06,0-.08,0-.2.04-.28.06-.64.12-.97.15v.16c0,.33.01.53.04.92l.02.36v.29c.49.22.75.38,1.11.64.09.06.13.09.2.13l-.33.84c-.2-.22-.37-.35-.97-.74,0,.05,0,.06,0,.1,0,.15-.02.29-.06.39-.16.41-.65.65-1.33.65-.92,0-1.48-.43-1.48-1.15,0-.67.6-1.15,1.44-1.15.26,0,.45.03.62.09-.01-.24-.03-.74-.05-1.49-.28.01-.44.01-.62.01-.27,0-.54,0-.88-.03-.11,0-.17,0-.21-.01h-.13s-.06,0-.06,0h-.04v-.8ZM62.87,27c-.45,0-.73.17-.73.46s.25.43.64.43c.27,0,.47-.08.57-.21.06-.08.09-.19.09-.38,0-.08,0-.19,0-.19-.22-.08-.37-.1-.57-.1ZM64.69,22.39c.21.34.37.68.48,1.09l-.47.17c-.13-.45-.28-.79-.47-1.1l.46-.16ZM65.55,23.39c-.11-.38-.29-.77-.47-1.07l.43-.16c.19.29.34.62.48,1.05l-.44.18Z"/>
            <path class="cls-3" d="M74.73,22.35l-5.31,6.58h-1.03l5.3-6.58h1.04Z"/>
            <path class="cls-3" d="M80.22,26.5c-.32,0-.5,0-.68.04v-.71c.16.02.27.03.54.03h.09v-.61h-.12c-.23,0-.35,0-.55.04v-.59c-.16.2-.24.29-.44.49-.03.57-.05.81-.1,1.15.23.36.5.65.83.9-.18.26-.27.4-.38.69-.29-.3-.45-.5-.62-.76-.22.71-.5,1.23-.96,1.71-.15-.25-.29-.42-.5-.6.4-.41.63-.83.8-1.46.2-.66.27-1.65.27-3.32,0-.6,0-.75-.05-1.02h.81q-.04.23-.04,1.34c0,.15,0,.24,0,.46.19-.28.28-.44.36-.62l.53.41c-.09.12-.22.29-.38.51.13.01.24.02.45.02h.12v-.22c0-.14,0-.22-.03-.33h.7c-.01.09-.02.17-.02.32v.24h1.51v-.23c0-.14,0-.21-.02-.32h.72c-.02.1-.03.19-.03.32v.23h.27c.24,0,.38,0,.58-.04v.73c-.19-.03-.34-.04-.58-.04h-.27v.61h.11c.29,0,.44,0,.64-.04v.73c-.22-.03-.42-.04-.71-.04h-.58v1.44c0,.14.04.16.41.16.18,0,.29-.04.31-.13.04-.12.06-.34.07-.74.2.13.34.19.66.28-.04.64-.11.95-.28,1.1-.13.12-.41.17-.9.17-.78,0-.97-.11-.97-.55v-1.73h-.55c-.04.43-.07.61-.17.88-.25.74-.71,1.18-1.6,1.54-.12-.29-.23-.46-.43-.64.5-.16.77-.32,1.04-.61.28-.3.42-.68.44-1.18h-.25ZM77.36,25.63c.1-.33.13-.48.17-.86.04-.33.05-.6.05-.81v-.18l.59.07c-.01.9-.08,1.46-.22,2.07l-.58-.29ZM81.9,23.97c0,.22,0,.29.02.41h-.71c.01-.11.02-.22.02-.41v-.24h-.81c-.25,0-.5.01-.68.04v-.73c.22.03.38.04.68.04h.81v-.18c0-.2,0-.31-.04-.47h.74c-.03.14-.04.27-.04.48v.17h1.02c.27,0,.47-.01.67-.04v.74c-.2-.02-.42-.04-.65-.04h-1.04v.23ZM82.33,25.85v-.61h-1.51v.61h1.51Z"/>
            <path class="cls-3" d="M84.85,23.53c.2.02.36.03.67.03.53,0,.91-.02,1.44-.08q-.02-.06-.08-.18c-.18-.41-.27-.62-.28-.64l.88-.12c.03.17.1.38.29.85.6-.08,1.41-.26,1.89-.42l.07.74q-.07.01-.24.05c-.47.11-1.25.27-1.46.29.11.26.15.35.27.57.6-.13.93-.2.97-.2.4-.1.48-.13.67-.2l.07.76c-.13.02-.28.05-.44.09-.29.07-.52.12-.69.15q-.17.03-.26.06c.36.6.48.75.94,1.28l-.62.44c-.5-.21-.93-.29-1.61-.29-.53,0-.94.07-1.18.2-.2.11-.3.26-.3.43s.12.33.3.41c.22.1.59.15,1,.15.73,0,1.72-.21,2.16-.46l.12.86q-.13.02-.46.11c-.6.16-1.18.24-1.79.24-.8,0-1.32-.1-1.71-.34-.34-.21-.54-.57-.54-.96s.21-.73.59-.97c.37-.23.93-.35,1.63-.35.43,0,.83.05,1.21.15-.11-.11-.24-.3-.54-.79-.74.11-1.19.14-2.71.19-.12,0-.17,0-.29.02l-.03-.76c.2.03.25.03.72.03.74,0,1.32-.04,1.98-.13-.04-.08-.07-.13-.12-.26-.07-.15-.09-.19-.15-.32-.56.06-1.06.09-1.88.1-.29,0-.33,0-.48.01l-.03-.74Z"/>
            <path class="cls-3" d="M93.09,22.55c.03.47.24,1.48.46,2.19q.46-.17,1.81-.62c.13-.04.16-.06.27-.1l.3.88c-.61.12-1.53.39-2.31.67-1.02.38-1.53.83-1.53,1.33s.48.73,1.6.73c.88,0,1.74-.1,2.26-.29l.08.96c-.15,0-.19,0-.57.05-.76.08-1.15.11-1.64.11-.97,0-1.58-.12-2.03-.39-.38-.23-.61-.67-.61-1.17,0-.47.22-.92.62-1.25.27-.23.5-.37.95-.6-.17-.57-.29-1.04-.47-1.9-.07-.34-.08-.35-.11-.46l.91-.15Z"/>
            <path class="cls-3" d="M98.72,22.58c-.08.24-.12.42-.25,1.35-.05.29-.08.53-.09.7h.02s.01-.04.04-.15c.07-.25.25-.59.44-.83.39-.48.82-.71,1.33-.71.48,0,.9.22,1.2.63.35.47.5,1.04.5,1.86,0,1.35-.63,2.36-1.81,2.88-.36.16-.85.3-1.37.39-.14-.4-.22-.55-.41-.83.7-.08,1.11-.18,1.53-.4.81-.41,1.18-1.08,1.18-2.14,0-1.01-.34-1.57-.94-1.57-.27,0-.51.12-.76.37-.55.57-.88,1.43-.88,2.26v.15h-.84s0-.06,0-.08v-.13c0-.2-.02-.72-.02-.86,0-.57.04-1.34.1-1.83l.11-.87c.01-.12.02-.15.02-.24l.89.05Z"/>
            <path class="cls-3" d="M105.41,28.93c-.39-.56-.57-.87-.76-1.38-.25-.64-.37-1.26-.37-1.93s.11-1.24.36-1.87c.2-.51.37-.82.77-1.38h.98c-.49.62-.69.93-.89,1.39-.25.58-.37,1.17-.37,1.86s.12,1.34.37,1.92c.2.46.39.77.89,1.39h-.98Z"/>
            <path class="cls-3" d="M110.2,24c.44.57,1.05.99,1.84,1.25-.18.27-.24.39-.39.74-.72-.33-1.34-.79-1.78-1.32-.12.21-.22.35-.41.54-.29.3-.53.48-1.06.78-.2-.28-.31-.42-.5-.59.53-.27.8-.44,1.05-.7.2-.21.34-.43.46-.7h-1.54v4.06c0,.46,0,.62.04.83h-.86c.04-.25.05-.49.05-.8v-4.14c0-.3,0-.46-.03-.67.23.02.41.03.8.03h1.72c.02-.2.04-.51.04-.64v-.24l.82.04c-.03.16-.04.23-.08.55-.01.15-.02.18-.04.29h1.8c.39,0,.57,0,.76-.03-.02.2-.03.38-.03.76v4.12c0,.27-.08.43-.24.54-.13.08-.37.11-.74.11-.12,0-.53-.02-.74-.04-.02-.29-.05-.46-.16-.73.38.05.67.08.9.08.17,0,.2-.03.2-.16v-3.96h-1.88ZM110.4,25.35q-.05.13-.11.37c-.03.08-.04.14-.08.24.13.18.24.28.43.45.41.34.69.5,1.35.74-.21.27-.28.38-.44.69-.55-.26-.79-.4-1.11-.66-.24-.2-.39-.34-.54-.53-.37.62-.76,1-1.46,1.37-.18-.27-.32-.43-.55-.62.39-.16.74-.39,1.03-.66.39-.36.68-1,.71-1.49l.76.1Z"/>
            <path class="cls-3" d="M114.9,25.03c-.34,0-.52,0-.72.02.02-.17.03-.34.03-.61v-.81c0-.27,0-.42-.03-.59.2.02.43.03.78.03h1.46c0-.3-.02-.46-.05-.67h.86c-.03.2-.04.36-.04.67h1.58c.36,0,.57,0,.78-.03-.02.17-.03.31-.03.59v.81c0,.29,0,.43.03.61-.2-.01-.42-.02-.72-.02h-1.64v.53h1.93c.34,0,.52,0,.71-.03-.02.2-.03.36-.03.68v1c0,.34,0,.53.04.74h-.81v-.33h-1.84v.36c0,.46,0,.67.04.92h-.86c.03-.26.05-.53.05-.92v-.35h-1.74v.33h-.8c.02-.24.04-.46.04-.74v-1c0-.27,0-.47-.03-.67.2.01.38.02.69.02h1.84v-.53h-1.51ZM114.67,26.22v.71h1.74v-.71h-1.74ZM114.97,23.75v.65h1.45v-.65h-1.45ZM117.19,24.4h1.57v-.65h-1.57v.65ZM117.19,26.93h1.84v-.71h-1.84v.71Z"/>
            <path class="cls-3" d="M122.79,25.64c0,.46-.37.83-.83.83s-.83-.37-.83-.83.37-.83.83-.83.83.37.83.83Z"/>
            <path class="cls-3" d="M128.42,25.01c.34,0,.53,0,.67-.04l.43.45c-.04.06-.06.09-.13.24-.3.62-.69,1.13-1.26,1.67.6.34,1.16.54,2.11.76-.21.31-.29.48-.4.8-.9-.26-1.64-.59-2.32-1.05-.7.49-1.29.77-2.26,1.07-.12-.3-.22-.46-.43-.71.99-.27,1.51-.48,2.08-.85-.54-.5-.84-.91-1.2-1.65h-.44c-.11,1.42-.34,2.3-.87,3.17-.19-.25-.36-.42-.6-.58.31-.46.57-1.26.67-2.07.05-.4.09-1.46.09-2.28,0-.25-.02-.5-.04-.72.23.02.44.03.78.03h1.54v-.24c0-.27,0-.43-.04-.59h.84c-.02.17-.03.31-.03.59v.23h1.38c.48,0,.63,0,.81-.04l.38.38q-.09.15-.25.48c-.13.26-.34.62-.5.87l-.71-.28c.23-.27.31-.39.46-.67h-1.56v1.02h.82ZM126.83,23.98h-1.53v.56c0,.17,0,.27,0,.46h1.53v-1.02ZM126.53,25.7c.29.53.56.85.98,1.2.48-.42.65-.63,1-1.2h-1.98Z"/>
            <path class="cls-3" d="M132.01,25.03c-.34,0-.52,0-.72.02.02-.17.03-.34.03-.61v-.81c0-.27,0-.42-.03-.59.2.02.43.03.78.03h1.46c0-.3-.02-.46-.05-.67h.86c-.03.2-.04.36-.04.67h1.58c.36,0,.57,0,.78-.03-.02.17-.03.31-.03.59v.81c0,.29,0,.43.03.61-.2-.01-.42-.02-.72-.02h-1.64v.53h1.93c.34,0,.52,0,.71-.03-.02.2-.03.36-.03.68v1c0,.34,0,.53.04.74h-.81v-.33h-1.84v.36c0,.46,0,.67.04.92h-.86c.03-.26.05-.53.05-.92v-.35h-1.74v.33h-.8c.02-.24.04-.46.04-.74v-1c0-.27,0-.47-.03-.67.2.01.38.02.69.02h1.84v-.53h-1.51ZM131.78,26.22v.71h1.74v-.71h-1.74ZM132.07,23.75v.65h1.45v-.65h-1.45ZM134.29,24.4h1.57v-.65h-1.57v.65ZM134.29,26.93h1.84v-.71h-1.84v.71Z"/>
            <path class="cls-3" d="M137.52,28.93c.5-.62.69-.93.89-1.39.25-.58.37-1.2.37-1.92s-.11-1.28-.36-1.86c-.2-.46-.41-.78-.9-1.39h.99c.39.55.56.86.76,1.38.25.64.36,1.21.36,1.87s-.12,1.29-.37,1.93c-.2.51-.37.82-.76,1.38h-.99Z"/>
            <path class="cls-3" d="M35.01,31.09c-.17.13-.2.15-1.06.96-.31.27-.94.76-1.46,1.16-.22.16-.27.22-.27.3,0,.11.01.11.63.58,1.05.79,1.37,1.06,2.21,1.82.08.08.11.11.2.17l-.72.74c-.4-.55-1.34-1.4-2.72-2.45-.46-.36-.59-.55-.59-.87,0-.21.08-.41.23-.57.09-.09.1-.11.62-.5.96-.72,1.89-1.58,2.13-1.95l.8.62ZM34.82,32.15c.3.33.5.6.74,1.03l-.49.26c-.24-.43-.44-.71-.74-1.04l.49-.25ZM35.9,33c-.21-.39-.44-.71-.71-1.02l.47-.25c.31.32.51.59.73.99l-.48.27Z"/>
            <path class="cls-3" d="M38.99,33.41c.64-.25.95-.32,1.47-.32,1.2,0,1.97.62,1.97,1.58,0,.67-.33,1.2-.95,1.55-.46.26-1.05.4-1.7.4-.59,0-1.08-.11-1.36-.32-.27-.2-.42-.49-.42-.81,0-.58.51-1,1.21-1,.49,0,.92.2,1.21.57.14.18.22.33.32.63.58-.22.83-.52.83-1.02,0-.55-.54-.9-1.39-.9-1.02,0-2.04.41-2.88,1.18l-.48-.76c.24-.12.53-.31.99-.66.65-.5,1.56-1.28,2.09-1.82.01-.01.08-.08.12-.13h0c-.27.03-.71.06-1.98.11-.15,0-.2.01-.34.04l-.04-.84c.24.03.44.04.83.04.6,0,1.45-.04,2.13-.08.25-.02.32-.04.43-.09l.44.62c-.12.06-.17.1-.37.29-.35.32-.86.78-1.1.98-.12.11-.63.48-.77.57q-.18.12-.29.18h.01ZM39.2,35.16c-.25,0-.41.13-.41.32,0,.28.31.44.83.44.13,0,.17,0,.36-.03-.12-.48-.39-.74-.78-.74Z"/>
            <path class="cls-3" d="M47.46,31.09c-.17.13-.2.15-1.06.96-.31.27-.94.76-1.46,1.16-.22.16-.27.22-.27.3,0,.11.01.11.63.58,1.05.79,1.37,1.06,2.21,1.82.08.08.11.11.2.17l-.72.74c-.4-.55-1.34-1.4-2.72-2.45-.46-.36-.59-.55-.59-.87,0-.21.08-.41.23-.57.09-.09.1-.11.62-.5.96-.72,1.89-1.58,2.13-1.95l.8.62ZM47.27,32.15c.3.33.5.6.74,1.03l-.49.26c-.24-.43-.44-.71-.74-1.04l.49-.25ZM48.36,33c-.21-.39-.44-.71-.71-1.02l.47-.25c.31.32.51.59.73.99l-.48.27Z"/>
            <path class="cls-3" d="M51.44,33.41c.64-.25.95-.32,1.47-.32,1.2,0,1.97.62,1.97,1.58,0,.67-.33,1.2-.95,1.55-.46.26-1.05.4-1.7.4-.59,0-1.08-.11-1.36-.32-.27-.2-.42-.49-.42-.81,0-.58.51-1,1.21-1,.49,0,.92.2,1.21.57.14.18.22.33.32.63.58-.22.83-.52.83-1.02,0-.55-.54-.9-1.39-.9-1.02,0-2.04.41-2.88,1.18l-.48-.76c.24-.12.53-.31.99-.66.65-.5,1.56-1.28,2.09-1.82.01-.01.08-.08.12-.13h0c-.27.03-.71.06-1.98.11-.15,0-.2.01-.34.04l-.04-.84c.24.03.44.04.83.04.6,0,1.45-.04,2.13-.08.25-.02.32-.04.43-.09l.44.62c-.12.06-.17.1-.37.29-.35.32-.86.78-1.1.98-.12.11-.63.48-.77.57q-.18.12-.29.18h.01ZM51.65,35.16c-.25,0-.41.13-.41.32,0,.28.31.44.83.44.13,0,.17,0,.36-.03-.12-.48-.39-.74-.78-.74Z"/>
            <path class="cls-3" d="M56.35,32.44c.72.29,1.26.56,1.86.95l-.44.79c-.56-.41-1.18-.75-1.9-1.03l.47-.71ZM56.03,35.58c.53,0,1.29-.17,2.02-.46.87-.34,1.46-.79,2.02-1.54.38-.5.6-.92.81-1.55.29.3.39.39.73.62-.32.78-.62,1.26-1.05,1.77-.89,1.02-2.08,1.65-3.8,1.99-.25.05-.35.07-.49.11l-.24-.95ZM56.89,30.74c.72.28,1.28.55,1.86.9l-.45.77c-.64-.43-1.26-.76-1.87-.97l.46-.71Z"/>
            <path class="cls-3" d="M63.77,32.36c-.05-.3-.07-.37-.13-.53l.83-.13c0,.14.02.29.07.54l.11.54,2.09-.35c.2-.03.32-.06.46-.12l.49.44c-.06.09-.11.17-.18.34-.31.78-.71,1.3-1.38,1.82-.25-.27-.36-.34-.65-.5.52-.32.9-.73,1.19-1.25q-.08.02-.26.05l-1.65.27.5,2.59q.07.39.13.57l-.88.15c0-.18-.01-.34-.06-.57l-.48-2.61-.6.1c-.25.04-.41.08-.62.15l-.15-.8c.22,0,.4-.02.67-.06l.58-.1-.11-.55Z"/>
            <path class="cls-3" d="M74.41,32.04c-.06.13-.07.18-.11.39-.12.81-.22,1.2-.44,1.69-.34.81-.9,1.43-1.73,1.93-.42.26-.78.42-1.39.63-.16-.36-.25-.48-.56-.83.66-.16,1.05-.31,1.49-.58,1.02-.63,1.55-1.52,1.68-2.81h-3.42v.9c0,.22,0,.41.02.56h-.94c.02-.18.04-.39.04-.59v-1.02c0-.29,0-.48-.03-.67.25.03.37.04.76.04h1.37v-.6c0-.22,0-.35-.04-.51h.97c-.02.12-.04.31-.04.5v.6h1.26q.52,0,.69-.06l.41.41Z"/>
            <path class="cls-3" d="M78.53,35.08h1.7c.49,0,.64,0,.91-.05v.88c-.25-.03-.44-.04-.9-.04h-4.2c-.46,0-.64,0-.9.04v-.88c.27.04.42.05.91.05h1.58v-2.88h-1.07c-.46,0-.64,0-.9.04v-.88c.27.04.43.05.91.05h3.12c.48,0,.64,0,.91-.05v.88c-.25-.03-.43-.04-.9-.04h-1.18v2.88Z"/>
            <path class="cls-3" d="M82.73,32.28c.29.54.43.88.69,1.66l-.79.25c-.18-.71-.32-1.08-.64-1.7l.74-.22ZM86.75,32.33c-.04.11-.05.14-.1.36-.2.95-.52,1.72-.97,2.33-.52.71-1.1,1.16-2.14,1.69-.18-.31-.27-.41-.56-.69.49-.19.78-.34,1.19-.64.82-.6,1.29-1.31,1.59-2.43.09-.34.13-.59.13-.8l.85.2ZM84.23,31.99c.37.69.5,1,.68,1.61l-.78.25c-.13-.53-.34-1.07-.64-1.65l.74-.21Z"/>
            <path class="cls-3" d="M93.91,32.31c-.08.12-.1.14-.2.34-.41.85-.9,1.44-1.71,2.04-.27-.3-.38-.38-.7-.57.48-.27.85-.58,1.16-.99.1-.14.14-.2.27-.41-.11.02-.16.03-.27.04-.71.08-1.43.17-2.16.28v1.58q0,.48.03.6c.05.27.27.35.99.35.81,0,1.57-.1,2.15-.27l.04.95c-.19,0-.25,0-.43.03-.76.08-1.28.12-1.74.12-.57,0-.98-.04-1.25-.12-.29-.08-.52-.34-.6-.64-.06-.22-.07-.32-.07-.88v-1.6l-.66.08q-.55.07-.78.13l-.09-.87c.08,0,.13,0,.17,0,.12,0,.43-.02.62-.05l.74-.09v-.96c0-.35,0-.43-.04-.67h.97c-.04.2-.04.35-.04.65v.88l2.55-.31c.37-.04.38-.05.54-.12l.52.46Z"/>
            <path class="cls-3" d="M94.8,35.46c.6-.04,1.44-.24,2.07-.52.88-.38,1.53-.92,2.08-1.72.31-.45.5-.83.71-1.4.27.33.38.43.74.69-.6,1.28-1.26,2.11-2.22,2.75-.71.48-1.58.82-2.67,1.05-.28.06-.3.06-.46.12l-.26-.97ZM95.39,31.12c.83.52,1.27.84,1.81,1.35l-.6.76c-.56-.6-1.13-1.06-1.79-1.42l.58-.69Z"/>
            <path class="cls-3" d="M109.68,30.35l-5.31,6.58h-1.03l5.3-6.58h1.04Z"/>
            <path class="cls-3" d="M113.86,32.5c-.27.45-.49.74-.8,1.06-.22-.23-.36-.33-.67-.49.66-.58,1.21-1.55,1.35-2.4l.81.29c-.05.11-.07.17-.13.34-.1.27-.12.34-.19.48h.99v-.64c0-.31-.01-.49-.04-.69h.88c-.04.19-.04.39-.04.69v.64h1.51c.35,0,.54,0,.74-.04v.8c-.22-.03-.41-.04-.74-.04h-1.51v1.35h1.87c.33,0,.6-.01.83-.05v.83c-.23-.04-.52-.05-.83-.05h-1.87v1.51c0,.37,0,.59.04.78h-.88c.03-.21.04-.43.04-.78v-1.51h-1.95c-.31,0-.57.01-.82.05v-.83c.24.03.5.05.82.05h1.95v-1.35h-1.36Z"/>
            <path class="cls-3" d="M121.35,33.03c-.34,0-.52,0-.72.02.02-.17.03-.34.03-.61v-.81c0-.27,0-.42-.03-.59.2.02.43.03.78.03h1.46c0-.3-.02-.46-.05-.67h.86c-.03.2-.04.36-.04.67h1.58c.36,0,.57,0,.78-.03-.02.17-.03.31-.03.59v.81c0,.29,0,.43.03.61-.2-.01-.42-.02-.72-.02h-1.64v.53h1.93c.34,0,.52,0,.71-.03-.02.2-.03.36-.03.68v1c0,.34,0,.53.04.74h-.81v-.33h-1.84v.36c0,.46,0,.67.04.92h-.86c.03-.26.05-.53.05-.92v-.35h-1.74v.33h-.8c.02-.24.04-.46.04-.74v-1c0-.27,0-.47-.03-.67.2.01.38.02.69.02h1.84v-.53h-1.51ZM121.12,34.22v.71h1.74v-.71h-1.74ZM121.41,31.75v.65h1.45v-.65h-1.45ZM123.63,32.4h1.57v-.65h-1.57v.65ZM123.63,34.93h1.84v-.71h-1.84v.71Z"/>
            <path class="cls-3" d="M132.07,34.02q0-.17.02-.77c-.17.29-.34.53-.59.81-.1-.29-.18-.48-.36-.83.52-.51.93-1.17,1.24-1.93.14-.35.24-.69.27-.95l.79.24c-.06.16-.07.2-.14.4-.16.47-.26.71-.49,1.16v3.9c0,.33.01.58.04.85h-.82c.03-.25.04-.48.04-.85v-2.02ZM134.42,33.25v2.45c0,.14.04.18.19.22.17.04.38.06.88.06.79,0,1.09-.03,1.25-.13.08-.05.14-.17.17-.32.02-.13.03-.22.05-.55.31.13.43.16.76.22-.08.8-.18,1.07-.39,1.24-.27.19-.73.25-2.01.25s-1.64-.14-1.64-.7v-2.49c-.06.02-.11.04-.14.04-.2.07-.27.1-.41.16l-.06-.8c.17-.02.37-.07.61-.14v-.83c0-.33,0-.52-.04-.74h.83c-.04.2-.04.39-.04.71v.62l.72-.23v-1.14c0-.28-.01-.46-.04-.7h.81c-.03.22-.04.39-.04.68v.93l1.02-.33c.27-.08.43-.15.57-.21,0,.15,0,.2,0,.38-.01.84-.06,1.81-.12,2.26-.07.53-.25.68-.79.68-.13,0-.21,0-.38-.02-.04-.27-.08-.43-.2-.71.18.04.36.06.47.06.15,0,.18-.05.22-.38.04-.27.06-.74.06-1.29l-.86.28v1.82c0,.29,0,.46.04.7h-.81c.04-.22.04-.4.04-.72v-1.56l-.72.23Z"/>
          </g>
          <g>
            <path class="cls-4" d="M52.8,8.41v-.88h1.88v-.39h-1.51v-.88h1.51v-.39h-1.65v-.55c-.21,1.05-.29,1.49-.54,1.98l-.93-.23v.33h1.11v1.05h-1.11v.1c.27.42.65.96,1.3,1.52l-.75.83c-.14-.13-.38-.36-.55-.63v3h-1.06v-2.37c-.14.29-.37.67-.54.89l-1.02-.62c.64-.81,1.14-1.73,1.37-2.73h-1.22v-1.05h1.42v-3.01l.99.07c.07.01.28.02.28.13,0,.03-.03.05-.05.07-.14.1-.15.11-.15.16v2.21c.31-.92.35-1.1.47-2.02l1.01.21v-.21h1.65v-.64l1.06.04c.05,0,.22,0,.22.11,0,.04-.12.17-.12.22v.27h1.89v.85h-1.89v.39h1.54v.88h-1.54v.39h2.02v.88h-5.05ZM49.4,7.24c-.02-.55-.09-1.27-.39-2.11l1.07-.15c.17.7.29,1.42.36,2.14l-1.04.12ZM55.76,13.31l-.48-1.14c.36.04.75.04.8.04.14,0,.34,0,.34-.17v-.22h-2.22v1.44h-1.01v-4.57h4.23v3.78c0,.73-.45.82-1.66.84ZM56.42,9.52h-2.22v.4h2.22v-.4ZM56.42,10.65h-2.22v.4h2.22v-.4Z"/>
            <path class="cls-4" d="M66.12,13.5l-.43-1.08-.06.06c-.94-.45-1.58-1.06-2.13-1.76-.64,1.04-1.25,1.43-2.12,1.8l-.82-.88v1.67h-1.18v-7.53h3.56c0-.83,0-1.06,0-1.42l1.26.07c.06,0,.24.02.24.14,0,.06-.09.13-.18.21-.04.17-.04.68-.07,1h3.57v6.67c0,.97-.71,1.04-1.63,1.05ZM60.56,6.88v1.91c.48-.12,1.02-.27,1.51-.72.43-.4.57-.81.71-1.19h-2.22ZM61.39,9.79l-.82-.96v2.72c.45-.12,1-.28,1.52-.86.55-.63.66-1.26.75-1.82-.5.46-.88.69-1.45.92ZM66.56,8.82l-.78.95c-1.04-.43-1.77-1.25-2.21-1.88-.2.35-.34.55-.6.83l1.16.18c.06.01.16.03.16.13s-.14.11-.26.2c-.03.16-.07.33-.11.45.22.3.47.64,1.05,1.07.71.53,1.15.64,1.58.75v-2.69ZM66.56,6.88h-2.28c.17.35.33.68.78,1.07.55.46,1.05.61,1.5.74v-1.81ZM66.56,11.55l-.67.67c.17.02.29.02.29.02.25.02.38-.22.38-.39v-.3Z"/>
            <path class="cls-4" d="M72.13,10c-.64,0-1.15-.51-1.15-1.15s.52-1.15,1.15-1.15,1.15.51,1.15,1.15-.51,1.15-1.15,1.15Z"/>
            <path class="cls-4" d="M84.37,8.92c-.34,1.09-1.07,1.09-1.78,1.1l-.43-1.01c-.28.35-.45.53-.67.74l-.96-.53c1.03-.85,1.64-1.62,2.13-3.05h-.34c-.23.48-.45.98-1.11,1.79-.49.63-.86.96-1.21,1.26l-.96-.54c.32-.18.49-.35.69-.52-.42.12-.54.15-.72.2v1.75h-1.07v-1.46l-1.03.28c-.05.01-.09.08-.13.15,0,.02-.03.06-.07.06-.05,0-.08-.06-.13-.27l-.25-.96c.7-.15,1.18-.27,1.61-.37v-.91h-.56c-.11.36-.2.52-.29.71l-1.05-.29c.3-.63.51-1.27.61-2.29l.99.12c.1,0,.3.04.3.13,0,.06-.12.09-.25.16-.02.1-.04.31-.07.47h.33v-1.28l.96.07c.14.01.32.03.32.12,0,.05-.04.08-.09.12-.1.07-.11.08-.11.12v.84h.88v.21c.17-.24.45-.65.77-1.47l.99.15s.35.05.35.14-.24.13-.3.17c-.04.07-.1.21-.16.3h3.19c0,1.31-.03,2.74-.36,3.77ZM78.42,11.2c-.13.03-.15.04-.2.1-.41.76-.58,1.07-1.13,1.68l-1.06-.68c.7-.68,1.11-1.44,1.33-1.86l.93.44c.05.02.24.12.24.19,0,.01,0,.07-.12.11ZM81.97,13.18h-2.39c-.37,0-.79-.25-.79-.6v-2.16l1.03.1c.27.03.27.07.27.11,0,.03-.02.05-.03.06-.09.07-.12.09-.12.15v1.05c0,.11.1.26.26.26h1.35c.13,0,.39-.17.39-.83l1.02.51c-.02.81-.6,1.33-.97,1.33ZM79.18,6.73s.07-.06.11-.11h-.29v.67c.27-.05.45-.08.72-.15l-.54-.4ZM81.01,6.17c-.26.35-.47.65-.92,1.22l-.03-.02v.47c.65-.72,1-1.19,1.26-1.67h-.31ZM81.29,11.52c-.5-.63-.8-.92-1.22-1.26l.65-.67c.67.45,1.08.85,1.4,1.18l-.82.75ZM82.24,8.92c.1,0,.27.04.54.04.3,0,.48-.29.64-.77.21-.66.23-1.34.23-2.02-.39,1.23-.81,1.94-1.41,2.75ZM84.04,12.88c-.57-1.03-.87-1.42-1.4-1.94l.9-.6c.66.61.94.99,1.48,1.9l-.99.64Z"/>
            <path class="cls-4" d="M94.44,13.2c-.9-.44-2.08-1.11-3.01-2.14v2.22h-1.28v-2.26c-.73.82-2.18,1.73-3.24,2.16l-.85-.99c1.43-.32,2.71-1.09,3.29-1.62h-3.02v-1.05h1.42c-.21-.39-.51-.82-.81-1.15l.71-.44c-.22.01-.32,0-.47,0l-.38-1.2c.42.06,1.19.19,2.4.19,1.65,0,2.72-.21,3.35-.34h-1.02v-.45h-1.55v.5h-1.2v-.5h-2.44v-1.06h2.44v-.66l1.02.07c.13.01.42.02.42.14,0,.04-.02.06-.1.12-.13.09-.13.12-.13.32h1.55v-.69l1.11.1c.18.02.31.03.31.11,0,.07-.06.13-.11.17-.07.05-.09.07-.09.11v.18h2.45v1.06h-2.45v.43c.6-.14.89-.25,1.14-.33l.46.69c.03.05.14.21.14.3,0,.07-.05.1-.1.1-.04,0-.25-.05-.3-.05,0,0-.05,0-.08.01-.37.1-.41.11-.46.13l.92.32s.21.09.21.17-.11.11-.14.11c-.13.03-.14.04-.17.09-.26.55-.5.96-.85,1.43h1.73v1.05h-3.09c.55.55,1.6,1.27,3.17,1.58l-.86,1.05ZM89.68,8.18l.48-.26c-.74.03-1.37.04-2.09.02.28.35.62.87.77,1.17l-.7.41h2.01v-.62h.06c-.14-.25-.29-.45-.53-.73ZM92.37,9.05c.37-.49.7-.98.99-1.61-1.06.27-1.66.35-2.54.44.33.33.58.72.67.88l-.33.22c.2.03.43.05.43.17,0,.04,0,.05-.08.11-.07.07-.07.09-.07.26h1.95l-1.02-.47Z"/>
            <path class="cls-4" d="M108.58,10.93c-.81,1.2-1.93,1.66-2.51,1.9l-.8-1.11c.48-.14,1.28-.37,1.94-1.15.66-.78.78-1.67.78-2.14,0-.59-.17-1.31-.78-1.88-.68-.65-1.43-.69-1.83-.72-.34,2.56-.98,4.07-1.34,4.79-.32.67-.82,1.57-1.38,1.57-.39,0-2.15-.97-2.15-2.9,0-2.39,1.97-4.57,4.75-4.57,2.24,0,4.01,1.52,4.01,3.92,0,.95-.29,1.7-.69,2.29ZM102.78,6.78c-.77.73-1.08,1.73-1.08,2.39,0,.87.5,1.32.69,1.32.56,0,1.49-2.81,1.7-4.49-.31.11-.8.27-1.31.78Z"/>
            <path class="cls-4" d="M113.93,13.13l-.55-1.15c.6.02,1.96.09,2.96-.49.29-.16.98-.61.98-1.62,0-.91-.7-1.39-1.61-1.39-1.59,0-2.74,1.21-3.76,2.28l-.99-.87c1.55-1.36,2.84-2.64,4.16-4.26-.71.14-1.28.23-2.42.25l-.43-1.24c.23.03.62.09,1.16.09s1.25-.09,1.91-.22c.58-.11.83-.19,1.31-.37l.74.88c-.79.73-1.37,1.29-2.58,2.7.18-.05.61-.2,1.22-.2,1.39,0,2.53.93,2.53,2.47,0,2.89-3.34,3.05-4.63,3.12Z"/>
          </g>
        </g>
      </g>
    </g>
  </g>
</svg>