<?xml version="1.0" encoding="UTF-8"?>
<svg xmlns="http://www.w3.org/2000/svg" viewBox="0 0 162.24 36.64">
  <defs>
    <style>
      .cls-1 {
        fill: #f18d09;
      }

      .cls-2 {
        isolation: isolate;
      }

      .cls-3 {
        fill: #231815;
      }

      .cls-4 {
        fill: #fff;
      }

      .cls-5 {
        fill: #f29014;
        mix-blend-mode: multiply;
      }
    </style>
  </defs>
  <g class="cls-2">
    <g id="_レイヤー_2" data-name="レイヤー_2">
      <g id="_テキスト_xFF08_B_xFF09_" data-name="テキスト_xFF08_B_xFF09_">
        <g>
          <rect class="cls-1" width="162.24" height="17.49"/>
          <rect class="cls-5" width="8.29" height="17.49"/>
          <g>
            <path class="cls-3" d="M8.71,22.46c0-.32-.02-.6-.04-.81h.88c-.04.22-.05.53-.05.81v.29h.29c.34,0,.66-.01.88-.05v.84c-.25-.04-.55-.05-.88-.05h-.29v3.6c0,.32.01.64.05.9h-.84v-.39h-2.42v.39h-.83c.04-.25.05-.54.05-.89v-3.61h-.29c-.33,0-.6.01-.85.05v-.84c.23.04.53.05.85.05h.29v-.3c0-.28-.02-.59-.05-.8h.88c-.03.22-.04.5-.04.8v.3h2.42v-.29ZM6.29,23.48v1.24h2.42v-1.24h-2.42ZM6.29,25.44v1.41h2.42v-1.41h-2.42Z"/>
            <path class="cls-3" d="M15.64,23.3c-.21.43-.36.67-.71,1.16-.11-.16-.16-.22-.34-.39v3.1c0,.35,0,.6.03.81h-.67v-.34h-1.71v.39h-.69c.03-.25.04-.54.04-.9v-3.28c0-.34,0-.6-.04-.84.18.02.34.03.73.03h.16v-.6h-.29c-.27,0-.5.01-.74.04v-.74c.2.03.39.04.74.04h1.83c.35,0,.55-.01.74-.04v.74c-.19-.02-.37-.03-.67-.03h-.28v.6h.11c.4,0,.56,0,.72-.03q-.02.17-.02.65c.4-.55.79-1.57.82-2.15l.79.15c-.04.13-.07.2-.11.37-.07.26-.12.41-.18.6h1.28c.38,0,.53,0,.71-.04v.75c-.24-.02-.38-.03-.71-.03h-.77v.9h.64c.38,0,.48,0,.67-.03v.72c-.22-.02-.37-.03-.67-.03h-.64v.91h.61c.38,0,.53,0,.69-.03v.74c-.23-.03-.38-.03-.69-.03h-.61v.76c0,.42,0,.6.05.83h-.85c.04-.25.04-.44.04-.83v-3.91h-.01ZM12.24,25.84h1.71v-.52h-.12c-.55,0-.62-.03-.62-.32v-1.39h-.21c0,1.07-.09,1.45-.48,2.11-.08-.22-.15-.33-.28-.51v.63ZM12.24,25.1c.11-.15.13-.22.18-.37.08-.25.1-.47.1-1.06v-.05h-.28v1.48ZM12.24,26.99h1.71v-.53h-1.71v.53ZM13,23.04h.21v-.6h-.21v.6ZM13.69,24.63c0,.1.03.12.15.12h.11v-1.13h-.27v1.01Z"/>
            <path class="cls-3" d="M23.99,22.49q-.08.02-.59.19c-.4.13-.62.18-1.17.29q0,.95-.02,1.18h1.49c.47,0,.59,0,.85-.05v.84c-.26-.03-.39-.04-.84-.04h-1.55c-.08.65-.22,1.12-.47,1.53s-.65.8-1.14,1.11c-.2.13-.33.2-.65.35-.2-.36-.31-.49-.61-.74.5-.18.77-.33,1.09-.59.42-.34.69-.74.8-1.19.03-.12.05-.24.08-.47h-1.73c-.45,0-.58,0-.84.04v-.84c.26.04.38.05.85.05h1.79c.01-.29.01-.57.01-1.06-.57.08-.78.11-1.94.16-.07-.32-.11-.42-.26-.76.22.01.33.01.44.01.94,0,2.13-.16,3-.41.41-.12.61-.2.85-.33l.56.71Z"/>
            <path class="cls-3" d="M27.58,22.52c-.06-.34-.09-.46-.17-.66l.92-.15c0,.18.04.39.08.66l.11.61,1.48-.23c.34-.06.49-.09.67-.15l.15.84q-.19.01-.67.09l-1.48.23.21,1.15,1.64-.26c.29-.05.54-.11.73-.16l.15.84c-.15,0-.17,0-.32.04-.04,0-.08,0-.11.01-.05,0-.14.02-.28.04l-1.67.27.25,1.36c.08.46.09.48.17.72l-.94.17c0-.21-.04-.41-.09-.74l-.25-1.38-1.73.27c-.34.06-.46.08-.71.15l-.14-.86c.24,0,.44-.02.74-.07l1.7-.27-.21-1.15-1.3.2c-.32.06-.58.1-.77.16l-.14-.86c.25,0,.48-.04.77-.08l1.3-.2-.11-.6Z"/>
            <path class="cls-3" d="M32.31,26.62c.6-.04,1.44-.24,2.07-.52.88-.38,1.53-.92,2.08-1.72.31-.45.5-.83.71-1.4.27.33.38.43.74.69-.6,1.28-1.26,2.11-2.22,2.75-.71.48-1.58.82-2.67,1.05-.28.06-.3.06-.46.12l-.26-.97ZM32.91,22.27c.83.52,1.27.84,1.81,1.35l-.6.76c-.56-.6-1.13-1.06-1.79-1.42l.58-.69Z"/>
            <path class="cls-3" d="M42.89,23.15v-.32s0-.22,0-.22c0-.46,0-.62-.04-.78h.9c-.02.16-.03.2-.03.47q0,.43,0,.85h.45c.5,0,.64,0,.91-.05v.85c-.25-.03-.44-.04-.9-.04h-.47c-.01.84-.01.89-.05,1.16-.1.9-.4,1.49-1.01,2.01-.38.32-.72.5-1.37.74-.13-.3-.22-.43-.53-.74.66-.2,1-.37,1.34-.67.47-.41.68-.88.74-1.68.01-.16.01-.33.03-.81h-1.81v1.05c0,.29,0,.41.03.59h-.91c.02-.15.03-.34.03-.6v-1.04h-.43c-.46,0-.65,0-.9.04v-.85c.27.04.41.05.91.05h.41v-.7c0-.29,0-.44-.04-.62h.92c-.03.23-.03.25-.03.6v.72h1.82Z"/>
            <path class="cls-3" d="M46.17,26.62c.6-.04,1.44-.24,2.07-.52.88-.38,1.53-.92,2.08-1.72.31-.45.5-.83.71-1.4.27.33.38.43.74.69-.6,1.28-1.26,2.11-2.22,2.75-.71.48-1.58.82-2.67,1.05-.28.06-.3.06-.46.12l-.26-.97ZM46.77,22.27c.83.52,1.27.84,1.81,1.35l-.6.76c-.56-.6-1.13-1.06-1.79-1.42l.58-.69Z"/>
            <path class="cls-3" d="M53.45,27.78c.03-.2.04-.38.04-.78v-4.49c0-.41-.01-.55-.04-.71h.96c-.02.19-.03.32-.03.74v1.3c.81.27,2.07.85,3.18,1.48l-.49.83c-.49-.35-1.48-.89-2.48-1.34-.16-.08-.18-.08-.24-.12.02.2.03.32.03.48v1.85c0,.38,0,.57.03.78h-.96ZM56.33,22.15c.31.33.5.6.73,1.03l-.49.26c-.23-.43-.43-.71-.73-1.04l.49-.25ZM57.42,23c-.21-.39-.44-.71-.71-1.02l.47-.25c.31.32.51.59.73.99l-.48.27Z"/>
            <path class="cls-3" d="M67.72,21.51l-5.31,6.58h-1.03l5.3-6.58h1.04Z"/>
            <path class="cls-3" d="M70.92,22.59c.15,0,.23,0,.27,0q.12,0,1.15-.07c.39-.02,1.55-.08,3.5-.17.57-.03.68-.04.8-.07l.05.9q-.08,0-.15,0c-.42,0-.94.14-1.39.38-.89.46-1.42,1.16-1.42,1.87,0,.55.34.97.93,1.14.34.11.79.18,1.04.18,0,0,.07,0,.14,0l-.12.95c-.08-.02-.12-.03-.24-.04-.77-.1-1.21-.22-1.64-.46-.64-.36-1-.96-1-1.69,0-.59.24-1.18.67-1.65.27-.29.52-.47.97-.7-.57.08-.84.1-2.36.22-.47.04-.89.08-1.16.14l-.05-.91Z"/>
            <path class="cls-3" d="M79.34,21.74c-.08.24-.12.42-.25,1.35-.05.29-.08.53-.09.7h.02s.01-.04.04-.15c.07-.25.25-.59.44-.83.39-.48.82-.71,1.33-.71.48,0,.9.22,1.2.63.35.47.5,1.04.5,1.86,0,1.35-.63,2.36-1.81,2.88-.36.16-.85.3-1.37.39-.14-.4-.22-.55-.41-.83.7-.08,1.11-.18,1.53-.4.81-.41,1.18-1.08,1.18-2.14,0-1.01-.34-1.57-.94-1.57-.27,0-.51.12-.76.37-.55.57-.88,1.43-.88,2.26v.15h-.84s0-.06,0-.08v-.13c0-.2-.02-.72-.02-.86,0-.57.04-1.34.1-1.83l.11-.87c.01-.12.02-.15.02-.24l.89.05Z"/>
            <path class="cls-3" d="M86.65,23.08c.2-.05.31-.08.6-.13q0-.14,0-.39c0-.61,0-.66-.04-.84h.88q-.03.22-.04,1.12c.17-.01.27-.02.41-.02.99,0,1.64.57,1.64,1.43,0,.47-.21.92-.57,1.22-.33.27-.76.41-1.29.41-.34,0-.71-.07-1.09-.2,0-.34-.03-.47-.13-.86.42.19.76.27,1.12.27.3,0,.57-.08.79-.23.18-.13.29-.35.29-.6,0-.44-.34-.7-.93-.7-.5,0-.92.08-2.1.43.44,1.52.47,1.65.89,3.4.04.15.05.2.11.34l-.93.21c-.04-.56-.42-2.22-.85-3.73-.09.04-.11.04-.35.13-.25.08-.72.27-.9.36l-.27-.82c.2-.04.29-.06.64-.18.29-.1.34-.11.68-.22-.21-.69-.34-1.06-.48-1.3l.87-.25q.04.22.25.83c.05.18.08.27.15.5l.68-.19Z"/>
            <path class="cls-3" d="M91.3,22.69c.2.02.36.03.67.03.53,0,.91-.02,1.44-.08q-.02-.06-.08-.18c-.18-.41-.27-.62-.28-.64l.88-.12c.03.17.1.38.29.85.6-.08,1.41-.26,1.89-.42l.07.74q-.07.01-.24.05c-.47.11-1.25.27-1.46.29.11.26.15.35.27.57.6-.13.93-.2.97-.2.4-.1.48-.13.67-.2l.07.76c-.13.02-.28.05-.44.09-.29.07-.52.12-.69.15q-.17.04-.26.06c.36.6.48.75.94,1.28l-.62.44c-.5-.21-.93-.29-1.61-.29-.53,0-.94.07-1.18.2-.2.11-.3.26-.3.43s.12.33.3.41c.22.1.6.15,1,.15.73,0,1.72-.21,2.16-.46l.12.86q-.13.02-.46.1c-.6.16-1.18.24-1.79.24-.8,0-1.32-.11-1.71-.34-.34-.21-.54-.57-.54-.96s.21-.73.59-.97c.37-.23.93-.35,1.63-.35.43,0,.83.05,1.21.15-.11-.1-.24-.3-.54-.78-.74.11-1.19.14-2.71.19-.12,0-.17,0-.29.02l-.03-.76c.2.03.25.03.72.03.74,0,1.32-.04,1.98-.13-.04-.08-.07-.13-.12-.26-.07-.15-.09-.19-.15-.31-.56.06-1.06.09-1.88.1-.29,0-.33,0-.48.01l-.03-.74Z"/>
            <path class="cls-3" d="M103.01,22.49q-.08.02-.59.19c-.4.13-.62.18-1.17.29q0,.95-.02,1.18h1.49c.47,0,.59,0,.85-.05v.84c-.26-.03-.39-.04-.84-.04h-1.55c-.08.65-.22,1.12-.47,1.53s-.65.8-1.14,1.11c-.2.13-.33.2-.65.35-.2-.36-.31-.49-.61-.74.5-.18.77-.33,1.09-.59.42-.34.69-.74.8-1.19.03-.12.05-.24.08-.47h-1.73c-.45,0-.58,0-.84.04v-.84c.26.04.38.05.85.05h1.79c.01-.29.01-.57.01-1.06-.57.08-.78.11-1.94.16-.07-.32-.11-.42-.26-.76.22.01.33.01.44.01.94,0,2.13-.16,3-.41.41-.12.61-.2.85-.33l.56.71Z"/>
            <path class="cls-3" d="M105.97,23.52c-.05-.3-.07-.37-.13-.53l.83-.13c0,.14.02.29.07.54l.11.54,2.09-.35c.2-.03.32-.06.46-.12l.49.44c-.06.09-.11.17-.18.34-.31.78-.71,1.3-1.38,1.82-.25-.27-.36-.34-.65-.5.52-.32.9-.73,1.19-1.25q-.08.02-.26.05l-1.65.27.5,2.59q.07.38.13.57l-.88.15c0-.18-.01-.34-.06-.57l-.48-2.61-.6.1c-.25.04-.41.08-.62.15l-.15-.8c.22,0,.4-.02.67-.06l.58-.1-.11-.55Z"/>
            <path class="cls-3" d="M111.13,24.29c.31.04.44.05,1.13.05h3.73c.69,0,.83,0,1.13-.05v.97c-.28-.04-.36-.04-1.14-.04h-3.72c-.79,0-.86,0-1.14.04v-.97Z"/>
            <path class="cls-3" d="M118.74,23.6c.72.29,1.26.56,1.86.95l-.44.79c-.56-.41-1.18-.75-1.9-1.03l.47-.71ZM118.43,26.73c.53,0,1.29-.18,2.02-.46.87-.34,1.46-.79,2.02-1.54.38-.5.6-.92.81-1.55.29.3.39.39.73.62-.32.78-.62,1.26-1.05,1.77-.89,1.02-2.08,1.65-3.8,1.99-.25.05-.35.07-.49.11l-.24-.95ZM119.28,21.9c.72.28,1.28.55,1.86.9l-.45.77c-.64-.43-1.26-.76-1.87-.97l.46-.71Z"/>
            <path class="cls-3" d="M129.25,26.85c.32,0,.46,0,.64-.04v.8c-.19-.02-.35-.03-.64-.03h-3.63c-.31,0-.46,0-.64.03v-.8c.2.04.32.04.64.04h2.06c.12-.62.27-1.61.34-2.25h-1.74c-.34,0-.44,0-.62.03v-.79c.18.03.37.04.64.04h1.77c.25,0,.35-.01.52-.06l.38.34q-.08.22-.16.8c-.1.77-.18,1.27-.3,1.9h.74Z"/>
            <path class="cls-3" d="M130.84,24.29c.31.04.44.05,1.13.05h3.73c.69,0,.83,0,1.13-.05v.97c-.28-.04-.36-.04-1.14-.04h-3.72c-.79,0-.86,0-1.14.04v-.97Z"/>
            <path class="cls-3" d="M141.67,23.15v-.32s0-.22,0-.22c0-.46,0-.62-.04-.78h.9c-.02.16-.03.2-.03.47q0,.43,0,.85h.45c.5,0,.64,0,.91-.05v.85c-.25-.03-.44-.04-.9-.04h-.47c-.01.84-.01.89-.05,1.16-.1.9-.4,1.49-1.01,2.01-.38.32-.72.5-1.37.74-.13-.3-.22-.43-.53-.74.66-.2,1-.37,1.34-.67.47-.41.68-.88.74-1.68.01-.16.01-.33.03-.81h-1.81v1.05c0,.29,0,.41.03.59h-.91c.02-.15.03-.34.03-.6v-1.04h-.43c-.46,0-.65,0-.9.04v-.85c.27.04.41.05.91.05h.41v-.7c0-.29,0-.44-.04-.62h.92c-.03.23-.03.25-.03.6v.72h1.82Z"/>
            <path class="cls-3" d="M144.95,26.62c.6-.04,1.44-.24,2.07-.52.88-.38,1.53-.92,2.08-1.72.31-.45.5-.83.71-1.4.27.33.38.43.74.69-.6,1.28-1.26,2.11-2.22,2.75-.71.48-1.58.82-2.67,1.05-.28.06-.3.06-.46.12l-.26-.97ZM145.55,22.27c.83.52,1.27.84,1.81,1.35l-.6.76c-.56-.6-1.13-1.06-1.79-1.42l.58-.69Z"/>
            <path class="cls-3" d="M152.23,27.78c.03-.2.04-.38.04-.78v-4.49c0-.41-.01-.55-.04-.71h.96c-.02.19-.03.32-.03.74v1.3c.81.27,2.07.85,3.18,1.48l-.49.83c-.49-.35-1.48-.89-2.48-1.34-.16-.08-.18-.08-.24-.12.02.2.03.32.03.48v1.85c0,.38,0,.57.03.78h-.96ZM155.12,22.15c.31.33.5.6.73,1.03l-.49.26c-.23-.43-.43-.71-.73-1.04l.49-.25ZM156.2,23c-.21-.39-.44-.71-.71-1.02l.47-.25c.31.32.51.59.73.99l-.48.27Z"/>
            <path class="cls-3" d="M8.34,32.6c.37.31.58.5.87.78q.38.39.43.43c.36-.31.66-.59.92-.88.3-.34.69-.86.85-1.14t.04-.06s0-.02.01-.03c-.07,0-.18.01-.32.01h-3.34c-.57,0-.64,0-.9.04v-.89c.27.04.44.05.91.05h3.89c.3,0,.41-.01.58-.06l.49.55c-.11.11-.15.16-.31.41-.66,1.07-1.4,1.93-2.26,2.66.29.34.56.67.92,1.17l-.73.59c-.39-.63-.76-1.11-1.35-1.77-.54-.59-.89-.94-1.4-1.35l.69-.5Z"/>
            <path class="cls-3" d="M13.94,35.12c.6-.04,1.44-.24,2.07-.52.88-.38,1.53-.92,2.08-1.72.31-.45.5-.83.71-1.4.27.33.38.43.74.69-.6,1.28-1.26,2.11-2.22,2.75-.71.48-1.58.82-2.67,1.05-.28.06-.3.06-.46.12l-.26-.97ZM14.54,30.77c.83.52,1.27.84,1.81,1.35l-.6.76c-.56-.6-1.13-1.06-1.79-1.42l.58-.69Z"/>
            <path class="cls-3" d="M25.55,31.37v4.1c0,.46,0,.55.04.71h-.94v-.42h-3.19c-.62,0-.64,0-.86.03v-.9c.25.04.37.05.88.05h3.19v-3.05h-3.07c-.55,0-.66,0-.9.04v-.91c.24.04.36.05.9.05h3.6c-.09-.2-.28-.51-.45-.74l.51-.19c.27.36.43.64.62,1.11l-.33.13ZM26.26,31.13c-.17-.41-.36-.77-.6-1.09l.5-.2c.29.37.46.65.62,1.06l-.51.22Z"/>
            <path class="cls-3" d="M27.11,32.79c.31.04.44.05,1.13.05h3.73c.69,0,.83,0,1.13-.05v.97c-.28-.04-.36-.04-1.14-.04h-3.72c-.79,0-.86,0-1.14.04v-.97Z"/>
            <path class="cls-3" d="M38.12,31.55c.58.65,1.45,1.18,2.46,1.5-.18.25-.29.43-.42.72-.55-.23-.98-.47-1.36-.74-.5-.36-.88-.72-1.18-1.13.02.26.03.38.03.51v.44c0,.28,0,.46.04.6h-.85c.03-.14.04-.33.04-.6v-.45c0-.15,0-.25.02-.5-.31.41-.67.75-1.13,1.1-.38.28-.78.51-1.34.77-.13-.29-.24-.45-.44-.68.6-.21.98-.41,1.54-.79.31-.22.56-.43.87-.74h-1.34c-.34,0-.6.01-.84.04v-.78c.25.03.5.04.89.04h1.78v-.17c0-.28,0-.43-.04-.6h.85c-.04.17-.04.3-.04.6v.18h1.89c.35,0,.6-.01.84-.04v.78c-.25-.03-.5-.04-.84-.04h-1.42ZM35.02,36.51c.03-.22.04-.42.04-.69v-1.56c0-.27,0-.44-.04-.64.15.02.31.03.6.03h3.33c.29,0,.44,0,.6-.03-.03.2-.04.36-.04.64v1.56c0,.29.01.48.04.69h-.81v-.34h-2.92v.34h-.8ZM35.82,35.47h2.93v-1.15h-2.93v1.15Z"/>
            <path class="cls-3" d="M42.93,35.7c0,.36,0,.59.04.83h-.85c.03-.25.04-.48.04-.83v-2.02c0-.37,0-.48.01-.78-.16.27-.33.51-.56.79-.1-.33-.2-.55-.38-.81.5-.54.86-1.1,1.15-1.77.18-.41.32-.83.37-1.13l.8.23q-.14.38-.24.64c-.02.07-.15.38-.37.92v3.93ZM47.74,36.01c-.27-.03-.52-.04-.89-.04h-2.63c-.34,0-.64.01-.93.04v-.86c.27.03.56.04.9.04h2.64c.31,0,.62-.01.9-.04v.86ZM43.64,30.89c.25.03.51.04.83.04h2.11c.3,0,.58-.01.84-.04v.85c-.25-.03-.55-.04-.84-.04h-2.09c-.36,0-.57.01-.84.04v-.85Z"/>
            <path class="cls-3" d="M57.05,30.01l-5.31,6.58h-1.03l5.3-6.58h1.04Z"/>
            <path class="cls-3" d="M62.69,36.19c-.58-.71-1.39-1.5-2.15-2.08-.79.88-1.6,1.5-2.67,2.02-.2-.36-.28-.48-.57-.78.54-.21.88-.4,1.4-.77,1.06-.74,1.9-1.76,2.35-2.85l.08-.18q-.11,0-2.32.04c-.34,0-.53.02-.76.06l-.03-.9c.2.04.33.04.62.04h.17l2.46-.04c.39,0,.45-.01.62-.08l.46.48c-.09.1-.15.2-.22.38-.32.75-.67,1.36-1.09,1.93.44.29.82.59,1.29,1.02q.18.15,1.02.97l-.67.73Z"/>
            <path class="cls-3" d="M70.01,31.82c-.05.13-.07.22-.08.47-.02.79-.1,1.87-.17,2.33-.18,1.21-.43,1.5-1.27,1.5-.27,0-.5-.02-.87-.08-.01-.44-.04-.58-.16-.9.41.11.69.16.92.16.3,0,.41-.15.52-.76.08-.48.15-1.44.15-2.24h-1.63c-.1.88-.25,1.41-.56,2.01-.38.74-1.01,1.38-1.89,1.94-.24-.37-.34-.48-.63-.74.88-.46,1.45-1.02,1.82-1.76.19-.38.29-.73.36-1.22.01-.1.03-.17.04-.22h-1.16c-.43,0-.53.01-.76.04v-.86c.23.04.42.06.77.06h1.23c.02-.27.03-.68.03-.88v-.18c0-.09,0-.15-.02-.27l.94.02c-.01.09-.02.12-.03.22,0,.04,0,.08,0,.13q-.01.15-.03.51c0,.15,0,.22-.03.44h1.55c.31,0,.38-.01.55-.07l.4.35Z"/>
            <path class="cls-3" d="M72.22,31.94c.29.54.43.88.69,1.66l-.79.25c-.18-.71-.32-1.08-.64-1.7l.74-.22ZM76.24,31.98c-.04.1-.06.14-.1.36-.2.95-.52,1.72-.97,2.33-.52.71-1.1,1.16-2.14,1.69-.18-.31-.27-.41-.56-.69.49-.19.78-.34,1.19-.64.82-.59,1.29-1.31,1.59-2.43.09-.34.13-.59.13-.81l.85.2ZM73.71,31.65c.37.69.5,1,.68,1.61l-.78.25c-.13-.53-.34-1.07-.64-1.65l.74-.21Z"/>
            <path class="cls-3" d="M78.1,32.1c.72.29,1.26.56,1.86.95l-.44.79c-.56-.41-1.18-.75-1.9-1.03l.47-.71ZM77.79,35.23c.53,0,1.29-.18,2.02-.46.87-.34,1.46-.79,2.02-1.54.38-.5.6-.92.81-1.55.29.3.39.39.73.62-.32.78-.62,1.26-1.05,1.77-.89,1.02-2.08,1.65-3.8,1.99-.25.05-.35.07-.49.11l-.24-.95ZM78.64,30.4c.72.28,1.28.55,1.86.9l-.45.77c-.64-.43-1.26-.76-1.87-.97l.46-.71Z"/>
            <path class="cls-3" d="M88.61,35.35c.32,0,.46,0,.64-.04v.8c-.19-.02-.35-.03-.64-.03h-3.63c-.31,0-.46,0-.64.03v-.8c.2.04.32.04.64.04h2.06c.12-.62.27-1.61.34-2.25h-1.74c-.34,0-.44,0-.62.03v-.79c.18.03.37.04.64.04h1.77c.25,0,.35-.01.52-.06l.38.34q-.08.22-.16.8c-.1.77-.18,1.27-.3,1.9h.74Z"/>
            <path class="cls-3" d="M92.22,36.64c-.34-.49-.47-.73-.63-1.14-.24-.58-.35-1.16-.35-1.79,0-.52.08-1.03.23-1.49.16-.5.34-.83.75-1.42l.64.41c-.35.5-.49.77-.62,1.19-.14.41-.21.85-.21,1.33s.07.91.19,1.3c.13.41.28.68.62,1.19l-.62.43Z"/>
            <path class="cls-3" d="M98.76,35.57c-.46-.56-1.09-1.17-1.69-1.63-.62.69-1.25,1.17-2.09,1.59-.15-.29-.22-.37-.45-.61.42-.17.69-.31,1.1-.6.83-.58,1.49-1.38,1.85-2.24l.06-.14q-.09,0-1.82.03c-.26,0-.41.02-.6.04l-.02-.7c.15.03.26.03.48.03h.13l1.93-.03c.31,0,.35-.01.49-.06l.36.37c-.07.08-.12.16-.18.3-.25.59-.52,1.07-.86,1.52.35.23.64.46,1.02.8q.14.12.8.76l-.53.57Z"/>
            <path class="cls-3" d="M100.44,35.64c.03-.18.03-.32.03-.62v-3.52c0-.27,0-.41-.03-.56h.75c-.02.16-.02.24-.02.58v1.02c.75.26,1.62.67,2.49,1.16l-.38.65c-.46-.31-1.03-.63-1.94-1.05-.13-.06-.14-.07-.19-.09.02.15.02.22.02.37v1.45c0,.29,0,.43.02.61h-.75Z"/>
            <path class="cls-3" d="M105.37,35.07v.38h-.71c.02-.13.02-.26.02-.47v-3.15c0-.21,0-.31-.02-.46.13.01.25.02.47.02h3.12c.24,0,.33,0,.46-.02-.01.14-.02.25-.02.46v3.14c0,.2,0,.35.02.48h-.71v-.38h-2.64ZM108,32.01h-2.64v2.43h2.64v-2.43Z"/>
            <path class="cls-3" d="M109.37,33.65c.16-.08.45-.41,1.18-1.33.19-.24.3-.36.41-.43.12-.07.24-.1.37-.1.27,0,.4.09.82.56.65.72,1.16,1.22,1.78,1.75.31.28.4.34.52.41l-.35.75c-1.03-.93-1.31-1.21-2.32-2.32q-.35-.38-.44-.38c-.09,0-.11.02-.34.32-.22.3-.69.87-.98,1.22-.09.1-.11.13-.19.22l-.47-.67ZM113.1,31.54c.24.26.39.47.58.81l-.38.2c-.18-.34-.34-.55-.58-.82l.38-.19ZM113.96,32.21c-.17-.3-.35-.56-.56-.8l.37-.19c.25.25.4.46.57.77l-.38.21Z"/>
            <path class="cls-3" d="M116.02,31.06c-.02.15-.02.2-.02.5v1.52c0,.27,0,.35.02.48h-.75c.02-.13.03-.3.03-.49v-1.51c0-.28,0-.35-.02-.49h.75ZM118.52,31.07c-.02.14-.03.2-.03.51v.74c0,.86-.04,1.32-.14,1.67-.16.55-.51.96-1.08,1.28-.29.17-.57.28-1.07.42-.1-.27-.15-.36-.38-.65.54-.1.86-.22,1.19-.44.52-.34.7-.68.76-1.4.02-.24.03-.48.03-.92v-.69c0-.28,0-.4-.03-.52h.76Z"/>
            <path class="cls-3" d="M119.61,32.9c.24.03.35.04.89.04h2.93c.54,0,.65,0,.89-.04v.76c-.22-.03-.28-.03-.89-.03h-2.92c-.62,0-.68,0-.89.03v-.76Z"/>
            <path class="cls-3" d="M126.96,33.3c0,.36-.29.65-.65.65s-.65-.29-.65-.65.29-.65.65-.65.65.29.65.65Z"/>
            <path class="cls-3" d="M129.35,31.07c-.02.15-.03.29-.03.56l-.03,3.14c.57-.11,1.09-.32,1.5-.6.5-.35.85-.73,1.12-1.26.21.29.29.36.52.56-.38.58-.73.95-1.22,1.28-.55.37-1.11.58-2,.75-.15.03-.21.05-.33.09l-.35-.42c.04-.15.05-.25.05-.57l.02-2.97q0-.38-.03-.57h.78Z"/>
            <path class="cls-3" d="M133.82,33.43c-.36,0-.5,0-.69.03v-.66c.2.03.32.04.7.04h.99v-.95h-.67c-.39,0-.51,0-.7.03v-.67c.2.03.32.04.71.04h2.5c.4,0,.51,0,.71-.04v.67c-.19-.02-.3-.03-.7-.03h-1.18v.95h1.53c.37,0,.5,0,.7-.04v.66c-.19-.02-.33-.03-.69-.03h-1.54v.88c0,.33.03.41.15.47.11.05.28.07.57.07.2,0,.53-.02.82-.04.21-.02.32-.04.51-.09l.02.7s-.07,0-.09,0t-.45.03c-.24.02-.61.03-.87.03-1.07,0-1.32-.18-1.32-.96v-1.08h-1Z"/>
            <path class="cls-3" d="M138.42,34.73c.47-.03,1.12-.19,1.62-.41.69-.3,1.2-.72,1.63-1.35.24-.35.4-.65.56-1.1.21.26.3.34.58.54-.47,1-.99,1.65-1.74,2.15-.56.37-1.24.64-2.09.82-.22.04-.24.05-.36.09l-.2-.76ZM138.89,31.32c.65.41.99.66,1.42,1.06l-.47.6c-.44-.47-.89-.83-1.4-1.12l.46-.54Z"/>
            <path class="cls-3" d="M143.64,36.21c.35-.51.49-.78.62-1.19.13-.4.19-.83.19-1.3s-.06-.91-.2-1.33c-.13-.42-.28-.69-.62-1.19l.63-.41c.41.59.59.92.76,1.42.15.47.23.97.23,1.49,0,.64-.11,1.21-.34,1.79-.17.41-.31.65-.64,1.14l-.62-.43Z"/>
            <path class="cls-3" d="M151.61,33.68q0-.17.02-.77c-.17.29-.34.53-.59.81-.1-.29-.18-.48-.36-.83.52-.51.93-1.17,1.24-1.93.14-.35.24-.69.27-.95l.79.24c-.06.16-.07.2-.14.4-.16.47-.26.71-.49,1.16v3.9c0,.33.01.58.04.85h-.82c.03-.25.04-.48.04-.85v-2.02ZM153.96,32.91v2.45c0,.14.04.18.19.22.17.04.38.06.88.06.79,0,1.09-.03,1.25-.13.08-.05.14-.17.17-.32.02-.13.03-.22.05-.55.31.13.43.16.76.22-.08.8-.18,1.07-.39,1.24-.27.19-.73.25-2.01.25s-1.64-.14-1.64-.7v-2.49c-.06.02-.11.03-.14.04-.2.07-.27.1-.41.16l-.06-.8c.17-.02.37-.07.61-.14v-.83c0-.33,0-.52-.04-.74h.83c-.04.2-.04.38-.04.71v.62l.72-.23v-1.14c0-.28-.01-.46-.04-.7h.81c-.03.22-.04.39-.04.68v.93l1.02-.33c.27-.08.43-.15.57-.21,0,.15,0,.2,0,.38-.01.84-.06,1.81-.12,2.26-.07.53-.25.68-.79.68-.13,0-.21,0-.38-.02-.04-.27-.08-.43-.2-.71.18.03.36.06.47.06.15,0,.18-.05.22-.38.04-.27.06-.74.06-1.3l-.86.28v1.82c0,.29,0,.46.04.7h-.81c.04-.22.04-.4.04-.72v-1.56l-.72.23Z"/>
          </g>
          <g>
            <path class="cls-4" d="M25.41,9.63l.59,3.35-1.25.25-.58-3.44-3.5.45-.16-1.17,3.46-.45-.24-1.39-2.61.34-.15-1.12,2.58-.32-.33-1.93,1.13-.06c.24-.01.32.02.32.11,0,.04-.18.24-.17.29l.26,1.42,2.35-.3.16,1.12-2.32.3.25,1.38,3.13-.41.15,1.19-3.07.4Z"/>
            <path class="cls-4" d="M30.12,9.24c-.18-.61-.46-1.19-.82-1.73l.99-.38c.37.57.65,1.13.83,1.73l-1,.38ZM35.72,7.31c-.1.05-.11.1-.22.52-.81,3.31-2.98,4.57-4.02,5.17l-.86-.77c2.09-1.03,3.55-2.51,3.96-5.56l1.06.32c.14.04.21.12.21.19,0,.06-.02.08-.14.12ZM32.1,8.71c-.18-.65-.43-1.2-.76-1.75l.96-.37c.4.64.61,1.3.73,1.75l-.93.37Z"/>
            <path class="cls-4" d="M42.89,8.9c-.43,2.13-1.31,3.15-3.13,4.33l-1.04-.92c1.75-.99,2.51-1.81,2.87-3.42h-3.83v-1.2h3.96c.01-.11.02-.31.02-.67,0-.38-.01-.61-.06-.86-.99.23-1.57.32-2.52.41l-.58-1.08c.8-.04,3.07-.19,5.37-1.37l.88.82s.13.14.13.22c0,.04-.02.06-.05.08h-.35c-.06,0-.08.01-.16.04-.36.16-.62.29-1.37.53.01.39.04.99.03,1.37,0,.28-.01.33-.01.52h2.88v1.2h-3.02Z"/>
            <path class="cls-4" d="M48.65,7.06c-.61-.51-1.35-.97-2.21-1.36l.66-1.01c.71.31,1.58.78,2.26,1.33l-.71,1.03ZM51.81,9.99c-1.7,1.38-2.73,1.83-4.06,2.4-.05.15-.08.33-.16.33-.06,0-.16-.06-.24-.21l-.75-1.29c.86-.21,2.27-.57,4-1.86,1.65-1.23,2.68-2.65,3.16-3.3l.74,1.08c-.42.56-1.26,1.69-2.68,2.84Z"/>
            <path class="cls-4" d="M60.29,12.77h-3.67v-7.86h3.45c1.59,0,2.53.73,2.53,1.96,0,.5-.17.91-.45,1.21-.25.27-.45.38-1.03.47.77.14,1.02.3,1.29.58.34.36.47.84.47,1.27,0,1.14-.93,2.37-2.58,2.37ZM60.2,6.14h-2.13v1.92h1.9c.64,0,1.17-.32,1.17-1,0-.55-.38-.92-.94-.92ZM60.32,9.25h-2.25v2.29h2.08c.58,0,1.25-.34,1.25-1.18,0-.71-.51-1.11-1.08-1.11Z"/>
            <path class="cls-4" d="M70.06,12.77l-.58-1.69h-3.31l-.58,1.69h-1.6l3.02-7.86h1.65l3.02,7.86h-1.61ZM68,6.84l-.17-.69-.18.69-1.04,3.03h2.46l-1.06-3.03Z"/>
            <path class="cls-4" d="M78.32,12.77l-3.1-5.01-.59-1.29.15,1.76v4.55h-1.4v-7.86h1.55l3.1,5.01.59,1.29-.15-1.76v-4.55h1.4v7.86h-1.55Z"/>
            <path class="cls-4" d="M85.87,12.77h-3.67v-7.86h3.45c1.59,0,2.53.73,2.53,1.96,0,.5-.17.91-.45,1.21-.25.27-.45.38-1.03.47.77.14,1.02.3,1.29.58.34.36.47.84.47,1.27,0,1.14-.93,2.37-2.58,2.37ZM85.78,6.14h-2.13v1.92h1.9c.64,0,1.17-.32,1.17-1,0-.55-.38-.92-.94-.92ZM85.9,9.25h-2.25v2.29h2.08c.58,0,1.25-.34,1.25-1.18,0-.71-.51-1.11-1.08-1.11Z"/>
            <path class="cls-4" d="M95.64,12.77l-.58-1.69h-3.31l-.58,1.69h-1.6l3.02-7.86h1.65l3.02,7.86h-1.61ZM93.59,6.84l-.17-.69-.18.69-1.04,3.03h2.46l-1.06-3.03Z"/>
            <path class="cls-4" d="M103.04,12.77l-3.1-5.01-.59-1.29.15,1.76v4.55h-1.4v-7.86h1.55l3.1,5.01.59,1.29-.15-1.76v-4.55h1.4v7.86h-1.55Z"/>
            <path class="cls-4" d="M114.14,12.91c-1.02,0-1.43-.71-1.57-.96l.06.4v.42h-1.42v-7.86h1.42v2.32l-.06.53c.21-.3.6-.92,1.65-.92,1.86,0,2.23,1.9,2.23,2.94,0,1.9-1.01,3.13-2.31,3.13ZM113.78,8.08c-.6,0-1.15.52-1.15,1.72,0,1.04.38,1.78,1.13,1.78s1.23-.68,1.23-1.75-.52-1.76-1.21-1.76Z"/>
            <path class="cls-4" d="M121.12,12.67c-.47,1.2-1.14,1.54-2.12,1.54-.3,0-.46-.03-.65-.09v-1.1c.21.04.36.05.46.05.52,0,.71-.26.87-.51l-2.1-5.6h1.49l1.2,3.48.21.75.18-.79,1.2-3.45h1.51l-2.24,5.7Z"/>
            <path class="cls-4" d="M135.57,9.4v3.94h-1.03v-.24h-2.88v.24h-.98v-3.94l-.55-.58v1.62c0,.87-.39.97-1.01.98l-.24-.48v2.41h-.87v-6.6h-.34v5.01h-.85v-6.1h1.2v-1.65l.89.06c.17.01.26.05.26.13s-.06.12-.14.16c-.08.04-.14.08-.14.18v1.11h1.25v2.97c.74-.26,1.24-.65,1.72-1.28h-1.35v-.95h.76c-.13-.3-.22-.41-.44-.73l.73-.42c-.21.01-.34.01-.81.02l-.44-.93c.18.01.65.02.96.02,1.8,0,2.83-.28,3.7-.52l.56.82c.07.1.09.16.09.18,0,.06-.05.09-.09.09-.04,0-.12-.03-.16-.05-.13-.05-.19-.05-.24-.05-.01,0-.52.09-.54.09-.13.03-.46.09-.92.15v1.34h1.25l-.62-.21c.13-.27.25-.55.4-1.02l.83.24c.08.02.16.06.16.13,0,.02-.01.04-.05.05-.09.04-.1.04-.13.09-.14.42-.26.61-.33.72h.99v.95h-1.81c.46.6,1.13,1,1.81,1.34l-.59.72ZM129.23,6.74h-.36v3.66c.06.03.16.03.17.03.14,0,.18-.14.18-.26v-3.44ZM133.67,7.86v1.37h-1.01v-1.39c-.74,1.02-1.27,1.34-1.7,1.56h4.23c-.53-.34-1-.72-1.52-1.54ZM132.58,10.21h-.93v.61h.93v-.61ZM132.58,11.63h-.93v.64h.93v-.64ZM132.66,5.17c-.56.05-.7.05-.99.08.27.38.41.62.56.93l-.47.23h.91v-1.23ZM134.53,10.21h-.94v.61h.94v-.61ZM134.53,11.63h-.94v.64h.94v-.64Z"/>
            <path class="cls-4" d="M138.31,7.88v-1.02h.93c-.16-.46-.19-.56-.43-1.09h-.39v-1.02h1.67v-.77l1.25.03c.13,0,.41.02.41.15,0,.11-.1.16-.15.19-.13.09-.14.1-.14.13v.26h1.5v1.02h-.45c-.15.46-.28.73-.48,1.09h1.06v1.02h-4.76ZM141.12,13.44l-.52-1.2.68.05c.29.02.34-.15.34-.3v-.23h-1.84v1.64h-1.15v-5.08h4.15v4.25c0,.74-.73.84-1.66.86ZM141.62,9.19h-1.84v.45h1.84v-.45ZM141.62,10.48h-1.84v.49h1.84v-.49ZM140.01,5.77c.21.43.23.5.45,1.09h.46c.17-.37.28-.64.43-1.09h-1.35ZM146.78,13.33h-2.52c-.52,0-.9-.3-.9-.85v-5.02h2.67v-.52h-2.67v-2.98l1.13.03c.23.01.28.04.28.1,0,.1-.06.16-.11.19-.12.11-.12.13-.12.28h2.82v.99h-2.82v.46h2.67v2.4h-2.63v.36h2.75v.73h-2.75v.33h2.75v.75h-2.75v.33h2.75v.62l.56.4c-.28,1.04-.51,1.38-1.11,1.38ZM144.59,11.68v.37c0,.2.14.27.37.27h1.38c.36,0,.43-.32.44-.37l.04-.27h-2.23Z"/>
          </g>
        </g>
      </g>
    </g>
  </g>
</svg>