<?xml version="1.0" encoding="UTF-8"?>
<svg xmlns="http://www.w3.org/2000/svg" viewBox="0 0 1306.55 610.08">
  <defs>
    <style>
      .cls-1 {
        fill: #f15a24;
      }

      .cls-2 {
        mix-blend-mode: multiply;
        opacity: .75;
      }

      .cls-3 {
        isolation: isolate;
      }

      .cls-4 {
        fill: #231815;
      }

      .cls-5 {
        fill: #fff;
      }

      .cls-6 {
        fill: none;
        stroke: #000;
        stroke-width: 42.79px;
      }
    </style>
  </defs>
  <g class="cls-3">
    <g id="_レイヤー_2" data-name="レイヤー_2">
      <g id="_レイヤー_1-2" data-name="レイヤー_1">
        <g>
          <polygon class="cls-6" points="1243.79 373.94 1271.95 369.63 1250.33 35.38 69.62 133.2 71.45 140.02 41.78 142.48 150.24 546.4 891.38 432.92 880.55 502.09 943.62 424.92 1244.11 378.91 1243.79 373.94"/>
          <polygon class="cls-1" points="1243.79 373.94 1271.95 369.63 1250.33 35.38 69.62 133.2 71.45 140.02 41.78 142.48 150.24 546.4 891.38 432.92 880.55 502.09 943.62 424.92 1244.11 378.91 1243.79 373.94"/>
        </g>
        <rect class="cls-4" x="90.41" y="274.86" width="1143.87" height="137.11" transform="translate(-25.53 54.52) rotate(-4.62)"/>
        <g>
          <g class="cls-2">
            <g>
              <path class="cls-4" d="M353.45,180.97l-2.2-27.21c4.37-.04,9.49-.25,15.36-.62,5.87-.37,11.89-.86,18.08-1.46,6.18-.6,12.04-1.28,17.6-2.04,5.55-.76,10.18-1.6,13.91-2.52l2.08,27.22c-2.59.62-5.88,1.25-9.87,1.88-3.99.63-8.38,1.22-13.16,1.76-4.78.54-9.67,1.04-14.67,1.5-5,.46-9.84.8-14.52,1.02-4.68.22-8.88.39-12.59.48ZM424.79,268.8c-1.48.12-3.1.17-4.88.16-1.78-.01-3.84-.28-6.19-.81l.96-26.38c1.26.31,2.41.53,3.46.65,1.04.12,2.01.15,2.92.07,2.54-.21,4.66-1,6.37-2.37,1.7-1.38,2.98-3.2,3.83-5.49.85-2.29,1.15-4.91.91-7.89-.44-5.43-1.95-9.33-4.54-11.7-2.59-2.37-6.05-3.38-10.39-3.03-6.07.49-11.75,1.6-17.06,3.31-5.31,1.72-9.94,3.88-13.9,6.46-3.96,2.59-7.01,5.44-9.15,8.55-2.14,3.11-3.08,6.36-2.8,9.74.17,2.15.82,3.75,1.93,4.79,1.12,1.05,2.25,1.52,3.4,1.43,1.64-.13,2.76-.82,3.36-2.05.6-1.23.8-3.08.6-5.54l-8.28-102.37,22.38-1.81,8.08,99.91c.89,10.97-.77,19.81-4.97,26.55-4.2,6.74-10.56,10.45-19.09,11.14-5.08.41-9.72-.51-13.9-2.74-4.18-2.24-7.59-5.63-10.23-10.16-2.64-4.53-4.21-9.97-4.72-16.33-.6-7.38.49-14.35,3.26-20.92,2.77-6.57,6.92-12.42,12.44-17.56,5.52-5.14,12.12-9.33,19.78-12.58,7.66-3.25,16.04-5.24,25.14-5.98,7.3-.59,13.91.6,19.84,3.58,5.93,2.98,10.78,7.56,14.54,13.75,3.76,6.19,6.01,13.85,6.75,22.97.61,7.58-.27,14.51-2.65,20.79-2.38,6.28-5.93,11.36-10.65,15.25-4.72,3.89-10.23,6.09-16.55,6.6ZM447.51,191.61c-2.07-3.13-4.72-6.63-7.97-10.5-3.24-3.86-6.56-7.67-9.96-11.42-3.4-3.75-6.4-6.96-9.01-9.64l11.38-16.86c2.81,2.04,5.71,4.52,8.71,7.42,3,2.9,5.9,5.92,8.72,9.04,2.81,3.13,5.38,6.09,7.71,8.89,2.33,2.8,4.23,5.07,5.69,6.81l-15.27,16.24Z"/>
              <path class="cls-4" d="M478.91,267.67l-10.34-127.89,109.44-8.85,8.44,104.37c.35,4.3.38,7.96.08,10.98-.29,3.01-1.18,5.51-2.67,7.49-1.49,1.98-3.84,3.51-7.05,4.59-3.21,1.08-7.61,1.85-13.18,2.3-2.62.21-5.66.38-9.12.51-3.46.12-7.37.26-11.73.41l-2.16-22.1c3.45-.18,6.98-.38,10.59-.62,3.61-.24,6.4-.44,8.37-.6.82-.07,1.51-.22,2.07-.48.56-.25.95-.72,1.18-1.41.23-.69.3-1.65.2-2.88l-6.28-77.62-63.21,5.11,8.48,104.83-23.12,1.87ZM505.19,206.91l-11.31-20.44c5.33-3.42,9.38-7.15,12.15-11.19,2.77-4.04,4.63-8.6,5.58-13.68.95-5.08,1.31-10.88,1.07-17.41-.24-6.53-.71-14.1-1.4-22.71l21.64-1.75c.53,6.56.94,13.13,1.22,19.7.29,6.58.14,13.01-.42,19.3-.56,6.29-1.85,12.32-3.86,18.1-2.01,5.79-5,11.21-8.96,16.27-3.96,5.07-9.2,9.67-15.72,13.8ZM508.36,246.1l-11.31-20.44c3.45-2.24,6.42-4.57,8.9-6.99,2.48-2.42,4.56-5.01,6.24-7.78,1.67-2.76,2.94-5.75,3.79-8.97.85-3.21,1.37-6.74,1.56-10.57l20.25.99c-.41,5.19-1.15,10.28-2.23,15.27-1.08,4.99-2.72,9.76-4.91,14.32-2.19,4.56-5.1,8.87-8.73,12.93-3.63,4.06-8.16,7.8-13.57,11.23ZM550.75,202.45c-5.36-5.03-10.71-9.94-16.04-14.72-5.34-4.77-10.73-9.16-16.16-13.16l9.6-19.03c5.79,4.28,11.54,8.71,17.23,13.3,5.69,4.59,11.27,9.51,16.73,14.74l-11.35,18.86ZM553.92,241.64c-5.36-5.03-10.71-9.94-16.04-14.72-5.34-4.78-10.73-9.16-16.16-13.16l9.6-19.03c5.79,4.28,11.54,8.71,17.23,13.3,5.69,4.59,11.27,9.51,16.73,14.74l-11.35,18.86Z"/>
              <path class="cls-4" d="M608.83,244.16l-2.11-26.13,68-5.5-4.92-60.87-67.75,5.48-2.11-26.13,91.12-7.37,9.15,113.13-91.36,7.39Z"/>
              <path class="cls-4" d="M823.7,155.46l1.82,22.44-101.82,8.24-1.82-22.44,101.82-8.24Z"/>
              <path class="cls-4" d="M947.84,120.2l2.06,25.51-108.21,8.75-2.06-25.51,108.21-8.75ZM867.68,230.96l-4.87-26.53c6.99-1.29,12.58-3.42,16.75-6.38,4.17-2.97,7.08-6.84,8.71-11.61,1.64-4.77,2.18-10.59,1.62-17.46l-5.71-70.55,21.64-1.75,5.71,70.55c.94,11.58-.09,21.77-3.1,30.58-3,8.8-7.93,16.01-14.77,21.62-6.85,5.61-15.51,9.46-25.99,11.54Z"/>
              <path class="cls-4" d="M1069.64,135.56l1.82,22.44-101.82,8.24-1.82-22.44,101.82-8.24Z"/>
            </g>
          </g>
          <g>
            <path class="cls-5" d="M348.59,177.34l-2.2-27.21c4.37-.04,9.49-.25,15.36-.62,5.87-.37,11.89-.86,18.08-1.46,6.18-.6,12.04-1.28,17.6-2.04,5.55-.76,10.18-1.6,13.91-2.52l2.08,27.22c-2.59.62-5.88,1.25-9.87,1.88-3.99.63-8.38,1.22-13.16,1.76-4.78.54-9.68,1.04-14.67,1.5-5,.46-9.84.8-14.52,1.02-4.68.22-8.88.38-12.59.48ZM419.94,265.18c-1.48.12-3.1.17-4.88.16-1.78-.01-3.84-.28-6.19-.81l.96-26.38c1.26.31,2.41.53,3.46.65,1.04.12,2.01.15,2.91.07,2.54-.21,4.66-1,6.37-2.37,1.7-1.38,2.98-3.21,3.83-5.49.85-2.29,1.15-4.91.91-7.89-.44-5.43-1.95-9.33-4.54-11.7-2.59-2.37-6.05-3.38-10.39-3.03-6.07.49-11.75,1.59-17.06,3.31-5.31,1.72-9.94,3.87-13.9,6.46-3.96,2.59-7.01,5.44-9.15,8.55-2.14,3.11-3.08,6.36-2.8,9.74.17,2.15.82,3.75,1.94,4.79,1.12,1.05,2.25,1.52,3.4,1.43,1.64-.13,2.76-.82,3.36-2.05.6-1.23.8-3.08.6-5.54l-8.28-102.37,22.38-1.81,8.08,99.91c.89,10.97-.77,19.82-4.97,26.55-4.2,6.74-10.56,10.45-19.09,11.14-5.08.41-9.72-.5-13.9-2.74-4.18-2.24-7.59-5.63-10.23-10.16-2.64-4.53-4.21-9.97-4.72-16.33-.6-7.38.49-14.35,3.26-20.92,2.77-6.57,6.92-12.42,12.44-17.56,5.53-5.14,12.12-9.34,19.78-12.58,7.66-3.25,16.04-5.24,25.14-5.98,7.29-.59,13.91.6,19.84,3.58,5.93,2.98,10.78,7.56,14.54,13.75,3.76,6.19,6.01,13.85,6.75,22.97.61,7.58-.27,14.51-2.65,20.79-2.38,6.28-5.93,11.36-10.65,15.25-4.72,3.89-10.24,6.09-16.55,6.6ZM442.65,187.99c-2.07-3.13-4.72-6.63-7.97-10.5-3.24-3.86-6.56-7.67-9.96-11.42-3.4-3.75-6.4-6.96-9.01-9.64l11.38-16.86c2.81,2.04,5.71,4.52,8.71,7.42,3,2.9,5.9,5.92,8.71,9.04,2.81,3.12,5.38,6.09,7.71,8.89,2.33,2.8,4.23,5.07,5.69,6.81l-15.27,16.24Z"/>
            <path class="cls-5" d="M474.06,264.05l-10.35-127.89,109.44-8.85,8.44,104.37c.35,4.3.38,7.96.08,10.98-.29,3.01-1.18,5.51-2.67,7.49-1.49,1.98-3.84,3.51-7.05,4.59-3.21,1.08-7.61,1.85-13.18,2.3-2.62.21-5.66.38-9.12.51-3.46.12-7.37.26-11.73.41l-2.16-22.11c3.45-.17,6.98-.38,10.59-.62,3.61-.24,6.4-.44,8.37-.6.82-.07,1.51-.22,2.07-.48.56-.25.95-.72,1.18-1.41.23-.69.3-1.65.2-2.88l-6.28-77.62-63.21,5.11,8.48,104.83-23.12,1.87ZM500.33,203.29l-11.31-20.44c5.33-3.42,9.38-7.15,12.15-11.19,2.77-4.04,4.63-8.6,5.58-13.68.95-5.08,1.3-10.88,1.07-17.42-.24-6.53-.71-14.1-1.4-22.71l21.64-1.75c.53,6.56.94,13.13,1.22,19.71.29,6.58.14,13.01-.42,19.3-.56,6.29-1.85,12.32-3.86,18.1-2.01,5.79-4.99,11.21-8.96,16.27-3.96,5.07-9.2,9.67-15.72,13.8ZM503.5,242.48l-11.31-20.44c3.45-2.24,6.42-4.57,8.9-6.99,2.49-2.42,4.56-5.01,6.24-7.78,1.67-2.77,2.94-5.75,3.79-8.97.85-3.21,1.37-6.74,1.56-10.57l20.26.99c-.41,5.19-1.15,10.28-2.23,15.26-1.08,4.99-2.72,9.76-4.91,14.32-2.19,4.56-5.1,8.87-8.73,12.93-3.63,4.06-8.16,7.8-13.57,11.23ZM545.89,198.83c-5.36-5.03-10.71-9.94-16.04-14.71-5.34-4.78-10.73-9.16-16.17-13.16l9.6-19.03c5.79,4.28,11.54,8.71,17.23,13.31,5.69,4.59,11.27,9.51,16.73,14.74l-11.35,18.87ZM549.06,238.02c-5.36-5.03-10.71-9.94-16.04-14.71-5.34-4.78-10.73-9.16-16.17-13.16l9.6-19.03c5.79,4.28,11.54,8.71,17.23,13.3,5.69,4.6,11.27,9.51,16.73,14.74l-11.35,18.87Z"/>
            <path class="cls-5" d="M603.97,240.54l-2.11-26.13,68-5.5-4.92-60.87-67.75,5.48-2.11-26.13,91.12-7.37,9.15,113.13-91.36,7.39Z"/>
            <path class="cls-5" d="M818.84,151.84l1.82,22.44-101.82,8.24-1.82-22.44,101.82-8.24Z"/>
            <path class="cls-5" d="M942.98,116.58l2.06,25.52-108.21,8.75-2.06-25.52,108.21-8.75ZM862.82,227.34l-4.87-26.53c6.99-1.29,12.58-3.42,16.75-6.38,4.17-2.97,7.08-6.84,8.71-11.61s2.18-10.59,1.62-17.46l-5.71-70.55,21.64-1.75,5.71,70.55c.94,11.58-.1,21.77-3.1,30.58-3,8.8-7.93,16.01-14.78,21.62s-15.51,9.46-25.99,11.54Z"/>
            <path class="cls-5" d="M1064.78,131.94l1.82,22.44-101.82,8.24-1.82-22.44,101.82-8.24Z"/>
          </g>
        </g>
        <g>
          <g>
            <path class="cls-5" d="M511.75,329.64l-.38.03-20.53,12.9-2.04-25.2,25.92-17.67,19.39-1.57,8.98,111-24.75,2-6.59-81.49Z"/>
            <path class="cls-5" d="M607.02,405.72c-5.95.48-11.62.06-16.99-1.27-5.37-1.33-9.71-2.88-13.02-4.65l3.18-22.57c2.72.85,6.17,1.72,10.36,2.61,4.18.89,8.36,1.17,12.52.83,3.15-.25,5.71-.92,7.67-1.99,1.97-1.07,3.37-2.49,4.21-4.27.84-1.78,1.17-3.84.98-6.18-.15-1.81-.6-3.4-1.35-4.79-.75-1.38-1.81-2.5-3.16-3.36-1.35-.85-2.97-1.47-4.84-1.85-1.87-.38-3.96-.48-6.25-.3l-8.8.71-.95-22.88,7.27-.59c1.62-.13,3.2-.39,4.75-.79,1.55-.39,2.96-.96,4.23-1.71,1.27-.74,2.24-1.73,2.91-2.96.67-1.23.93-2.75.79-4.56-.19-2.34-1.22-4.45-3.08-6.33-1.87-1.88-5.22-2.63-10.07-2.24-3.23.26-6.46.92-9.66,1.99-3.21,1.06-6,2.28-8.37,3.65l-5.86-21.68c3.25-2.19,7.34-4.18,12.29-5.97,4.95-1.79,10.06-2.9,15.33-3.33,6.12-.5,11.66.18,16.6,2.03,4.94,1.85,8.94,4.76,12.01,8.74,3.06,3.98,4.84,9,5.33,15.06.49,6.06-.49,11.41-2.94,16.05-2.45,4.64-6.52,8.26-12.22,10.86l.03.32c3.98.54,7.56,1.9,10.74,4.11,3.17,2.21,5.76,5.07,7.76,8.6,2,3.53,3.2,7.74,3.59,12.63.54,6.7-.63,12.65-3.5,17.86-2.87,5.21-7.05,9.4-12.53,12.57-5.48,3.17-11.79,5.05-18.94,5.63Z"/>
            <path class="cls-5" d="M685.36,391.33l-7.65-9.34c.72-1.44,1.31-2.86,1.77-4.23.46-1.38.81-2.9,1.03-4.58.22-1.68.32-3.64.29-5.9-.02-2.25-.17-5-.43-8.25l-2.22-27.4,51.11-4.13.84,10.34-40.71,3.29,1.38,17.06c.43,5.37.55,9.98.35,13.84-.2,3.86-.77,7.3-1.69,10.32-.93,3.02-2.28,6.02-4.06,8.99ZM732.24,388.57l-9.81.79-1.7-21.05-19.97,1.62,1.7,21.05-9.81.79-2.52-31.09,39.58-3.2,2.52,31.09ZM725.79,376.53l.75,9.31-28.6,2.31-.75-9.31,28.6-2.31ZM709.12,332.17l-10.4.84-.93-11.52,10.4-.84.93,11.52ZM714.24,361.63l-10.4.84-2.16-26.73,10.4-.84,2.16,26.73ZM729.55,342.11l.81,10.04-21.09,1.71-.81-10.04,21.09-1.71Z"/>
            <path class="cls-5" d="M743.47,343.66l-2.96-12.4c.89-1.21,2.09-2.93,3.6-5.16,1.5-2.23,3.04-4.64,4.62-7.25l9.81-.79c1.97,2.32,3.93,4.49,5.88,6.51,1.95,2.02,3.73,3.71,5.35,5.07l-3.11,10.73c-2.9-2.94-5.52-5.71-7.87-8.32-2.35-2.61-4.64-5.21-6.88-7.81l4.37-.35c-1.79,2.92-3.66,5.92-5.61,9-1.95,3.08-4.35,6.67-7.19,10.76ZM768.3,348.42l.81,10.04-23.81,1.93-.81-10.04,23.81-1.93ZM771.14,384.98l-8.63.7-1.25-15.44-6.85.55,1.25,15.44-8.62.7-2-24.74,24.11-1.95,2,24.74ZM765.63,337.48l.75,9.31-20.26,1.64-.75-9.31,20.26-1.64ZM761.15,354.2l-9.22.75-1.8-22.3,9.22-.75,1.8,22.3ZM765.87,373.51l.75,9.31-15.48,1.25-.75-9.31,15.48-1.25ZM767.28,332.14l-.87-9.96,31.73-2.57.81,9.97-31.67,2.56ZM772.64,385.9l-4.04-50,29.66-2.4,3.14,38.85c.22,2.71.27,4.9.14,6.57-.12,1.67-.48,2.9-1.07,3.69-.59.79-1.46,1.23-2.6,1.32-1.18.1-2.35.15-3.5.17-1.15.02-2.1,0-2.86-.03l-.96-9.66c.44.01.82.03,1.13.06.32.02.62.02.89,0,.16-.01.31-.07.46-.19.15-.11.26-.33.33-.66.07-.33.08-.79.04-1.38l-2.3-28.43-13.83,1.12,3.26,40.32-7.92.64ZM773.97,358.29l-.69-8.57,22.33-1.81.69,8.57-22.33,1.81ZM775.13,371.13l-.69-8.57,22.21-1.8.69,8.57-22.21,1.8ZM783.07,381.86l-5.33-65.95,8.27-.67,5.33,65.95-8.27.67ZM797.47,322.34l-6.32,2c-.55-1.39-1.12-2.76-1.7-4.1-.58-1.34-1.21-2.68-1.87-4.01l5.89-2.86c.75,1.47,1.46,2.96,2.12,4.47.66,1.51,1.28,3.01,1.88,4.49Z"/>
            <path class="cls-5" d="M814.15,347.01l-2.19-27.1,10.16-.82,2.19,27.1-10.16.82ZM814.54,381.17l-2.37-29.32,10.75-.87,2.37,29.32-10.75.87ZM821.6,346.41l-.87-10.78,31.9-2.58.87,10.78-31.9,2.58ZM824.06,376.84l-.87-10.78,31.9-2.58.87,10.78-31.9,2.58ZM833.74,366.39l-4.37-54.06,10.99-.89,4.37,54.06-10.99.89ZM850.78,344.05l-2.19-27.1,10.16-.82,2.19,27.1-10.16.82ZM855.3,377.88l-2.37-29.32,10.75-.87,2.37,29.32-10.75.87Z"/>
            <path class="cls-5" d="M884.35,375.23l-7.65-9.34c.72-1.44,1.31-2.86,1.77-4.23.46-1.38.8-2.9,1.03-4.58.22-1.68.32-3.64.3-5.9-.02-2.25-.17-5-.43-8.25l-2.22-27.4,51.11-4.13.84,10.34-40.71,3.29,1.38,17.06c.43,5.37.55,9.98.35,13.84-.21,3.86-.77,7.3-1.69,10.32s-2.28,6.02-4.06,8.99ZM931.23,372.48l-9.81.79-1.7-21.05-19.97,1.62,1.7,21.05-9.81.79-2.52-31.09,39.58-3.2,2.52,31.09ZM924.78,360.44l.75,9.31-28.6,2.31-.75-9.31,28.6-2.31ZM908.11,316.07l-10.4.84-.93-11.52,10.4-.84.93,11.52ZM913.23,345.54l-10.4.84-2.16-26.73,10.4-.84,2.16,26.73ZM928.54,326.01l.81,10.04-21.09,1.71-.81-10.04,21.09-1.71Z"/>
          </g>
          <g>
            <path class="cls-5" d="M511.75,329.64l-.38.03-20.53,12.9-2.04-25.2,25.92-17.67,19.39-1.57,8.98,111-24.75,2-6.59-81.49Z"/>
            <path class="cls-5" d="M607.02,405.72c-5.95.48-11.62.06-16.99-1.27-5.37-1.33-9.71-2.88-13.02-4.65l3.18-22.57c2.72.85,6.17,1.72,10.36,2.61,4.18.89,8.36,1.17,12.52.83,3.15-.25,5.71-.92,7.67-1.99,1.97-1.07,3.37-2.49,4.21-4.27.84-1.78,1.17-3.84.98-6.18-.15-1.81-.6-3.4-1.35-4.79-.75-1.38-1.81-2.5-3.16-3.36-1.35-.85-2.97-1.47-4.84-1.85-1.87-.38-3.96-.48-6.25-.3l-8.8.71-.95-22.88,7.27-.59c1.62-.13,3.2-.39,4.75-.79,1.55-.39,2.96-.96,4.23-1.71,1.27-.74,2.24-1.73,2.91-2.96.67-1.23.93-2.75.79-4.56-.19-2.34-1.22-4.45-3.08-6.33-1.87-1.88-5.22-2.63-10.07-2.24-3.23.26-6.46.92-9.66,1.99-3.21,1.06-6,2.28-8.37,3.65l-5.86-21.68c3.25-2.19,7.34-4.18,12.29-5.97,4.95-1.79,10.06-2.9,15.33-3.33,6.12-.5,11.66.18,16.6,2.03,4.94,1.85,8.94,4.76,12.01,8.74,3.06,3.98,4.84,9,5.33,15.06.49,6.06-.49,11.41-2.94,16.05-2.45,4.64-6.52,8.26-12.22,10.86l.03.32c3.98.54,7.56,1.9,10.74,4.11,3.17,2.21,5.76,5.07,7.76,8.6,2,3.53,3.2,7.74,3.59,12.63.54,6.7-.63,12.65-3.5,17.86-2.87,5.21-7.05,9.4-12.53,12.57-5.48,3.17-11.79,5.05-18.94,5.63Z"/>
            <path class="cls-5" d="M685.36,391.33l-7.65-9.34c.72-1.44,1.31-2.86,1.77-4.23.46-1.38.81-2.9,1.03-4.58.22-1.68.32-3.64.29-5.9-.02-2.25-.17-5-.43-8.25l-2.22-27.4,51.11-4.13.84,10.34-40.71,3.29,1.38,17.06c.43,5.37.55,9.98.35,13.84-.2,3.86-.77,7.3-1.69,10.32-.93,3.02-2.28,6.02-4.06,8.99ZM732.24,388.57l-9.81.79-1.7-21.05-19.97,1.62,1.7,21.05-9.81.79-2.52-31.09,39.58-3.2,2.52,31.09ZM725.79,376.53l.75,9.31-28.6,2.31-.75-9.31,28.6-2.31ZM709.12,332.17l-10.4.84-.93-11.52,10.4-.84.93,11.52ZM714.24,361.63l-10.4.84-2.16-26.73,10.4-.84,2.16,26.73ZM729.55,342.11l.81,10.04-21.09,1.71-.81-10.04,21.09-1.71Z"/>
            <path class="cls-5" d="M743.47,343.66l-2.96-12.4c.89-1.21,2.09-2.93,3.6-5.16,1.5-2.23,3.04-4.64,4.62-7.25l9.81-.79c1.97,2.32,3.93,4.49,5.88,6.51,1.95,2.02,3.73,3.71,5.35,5.07l-3.11,10.73c-2.9-2.94-5.52-5.71-7.87-8.32-2.35-2.61-4.64-5.21-6.88-7.81l4.37-.35c-1.79,2.92-3.66,5.92-5.61,9-1.95,3.08-4.35,6.67-7.19,10.76ZM768.3,348.42l.81,10.04-23.81,1.93-.81-10.04,23.81-1.93ZM771.14,384.98l-8.63.7-1.25-15.44-6.85.55,1.25,15.44-8.62.7-2-24.74,24.11-1.95,2,24.74ZM765.63,337.48l.75,9.31-20.26,1.64-.75-9.31,20.26-1.64ZM761.15,354.2l-9.22.75-1.8-22.3,9.22-.75,1.8,22.3ZM765.87,373.51l.75,9.31-15.48,1.25-.75-9.31,15.48-1.25ZM767.28,332.14l-.87-9.96,31.73-2.57.81,9.97-31.67,2.56ZM772.64,385.9l-4.04-50,29.66-2.4,3.14,38.85c.22,2.71.27,4.9.14,6.57-.12,1.67-.48,2.9-1.07,3.69-.59.79-1.46,1.23-2.6,1.32-1.18.1-2.35.15-3.5.17-1.15.02-2.1,0-2.86-.03l-.96-9.66c.44.01.82.03,1.13.06.32.02.62.02.89,0,.16-.01.31-.07.46-.19.15-.11.26-.33.33-.66.07-.33.08-.79.04-1.38l-2.3-28.43-13.83,1.12,3.26,40.32-7.92.64ZM773.97,358.29l-.69-8.57,22.33-1.81.69,8.57-22.33,1.81ZM775.13,371.13l-.69-8.57,22.21-1.8.69,8.57-22.21,1.8ZM783.07,381.86l-5.33-65.95,8.27-.67,5.33,65.95-8.27.67ZM797.47,322.34l-6.32,2c-.55-1.39-1.12-2.76-1.7-4.1-.58-1.34-1.21-2.68-1.87-4.01l5.89-2.86c.75,1.47,1.46,2.96,2.12,4.47.66,1.51,1.28,3.01,1.88,4.49Z"/>
            <path class="cls-5" d="M814.15,347.01l-2.19-27.1,10.16-.82,2.19,27.1-10.16.82ZM814.54,381.17l-2.37-29.32,10.75-.87,2.37,29.32-10.75.87ZM821.6,346.41l-.87-10.78,31.9-2.58.87,10.78-31.9,2.58ZM824.06,376.84l-.87-10.78,31.9-2.58.87,10.78-31.9,2.58ZM833.74,366.39l-4.37-54.06,10.99-.89,4.37,54.06-10.99.89ZM850.78,344.05l-2.19-27.1,10.16-.82,2.19,27.1-10.16.82ZM855.3,377.88l-2.37-29.32,10.75-.87,2.37,29.32-10.75.87Z"/>
            <path class="cls-5" d="M884.35,375.23l-7.65-9.34c.72-1.44,1.31-2.86,1.77-4.23.46-1.38.8-2.9,1.03-4.58.22-1.68.32-3.64.3-5.9-.02-2.25-.17-5-.43-8.25l-2.22-27.4,51.11-4.13.84,10.34-40.71,3.29,1.38,17.06c.43,5.37.55,9.98.35,13.84-.21,3.86-.77,7.3-1.69,10.32s-2.28,6.02-4.06,8.99ZM931.23,372.48l-9.81.79-1.7-21.05-19.97,1.62,1.7,21.05-9.81.79-2.52-31.09,39.58-3.2,2.52,31.09ZM924.78,360.44l.75,9.31-28.6,2.31-.75-9.31,28.6-2.31ZM908.11,316.07l-10.4.84-.93-11.52,10.4-.84.93,11.52ZM913.23,345.54l-10.4.84-2.16-26.73,10.4-.84,2.16,26.73ZM928.54,326.01l.81,10.04-21.09,1.71-.81-10.04,21.09-1.71Z"/>
          </g>
        </g>
      </g>
    </g>
  </g>
</svg>