<svg xmlns="http://www.w3.org/2000/svg" xmlns:xlink="http://www.w3.org/1999/xlink" width="1288.73" height="573.738" viewBox="0 0 1288.73 573.738"><defs><clipPath id="a"><rect width="830.373" height="435.73" transform="translate(128.235 35.9)" fill="none"/></clipPath></defs><g transform="translate(-2718 -7030.002)"><path d="M495,0,80,89,0,340,70,553,402.639,573.74l430.091-54,281-99,144-115,31-176-13-53-309-72Z" transform="translate(2718 7030)" fill="#f08d08"/><g transform="translate(2718 7030)" opacity="0.75" style="mix-blend-mode:multiply;isolation:isolate"><g clip-path="url(#a)"><path d="M269.371,246.819l-19.482,36.775q-24.72-13.206-38.276-20.988-25.428,43.263-83.378,53.32a220.127,220.127,0,0,0,32.892-37.482q14.012-19.839,18.907-32.673-15.505-7.458-48.509-23.809l13.33-25.491,47.178,17.267q6.772-16.644,12.735-57.954l40.652,9.576q-4.275,28.763-19.364,61.8,12.459,5.711,43.315,19.656"/><path d="M437.683,209.547l4.355,43.113q-96.723,16.455-145.729,23.03l-7.7-36.051q56.571-10.833,149.072-30.092M395.732,129.8l4.932,37.508q-69.906,15.036-90.14,16.868-6.537-27.474-9-34.834,61.409-13.379,94.208-19.542"/><path d="M591.226,207.271l3.807,30.681Q527.656,248.563,466.775,260.6l-4.581-29.3q35.965-8.187,60.966-14.561-.364-26.487-1.038-35.145-18.816,4.359-44.3,10.812l-5.629-34.137q8.573-1.161,45.637-7.275,35.637-5.624,39.745-6.554.218,37.786-1.659,65.9Z"/><path d="M755.906,118.5l2.264,30.434L601.63,174.75l-5.8-30.6Q700.147,128.2,755.906,118.5"/><path d="M830.943,157.224q-19.324,36.249-29.71,53.74-17.068-22.979-24.945-70.776a510.271,510.271,0,0,1-5.864-62.9l31.042-1.613q-4.124,32.745,2.153,70.776a172.563,172.563,0,0,0,5.323,23.168q7.923-3.562,22-12.4m127.665,14.765-15.2,26.3q-17.85-15.59-28.444-20.606a26.547,26.547,0,0,1-7.25,10.713A31.724,31.724,0,0,1,891,196.411a30.1,30.1,0,0,1-5.446.4q-14.219.342-23.509-7.4a25.148,25.148,0,0,1-9.68-17.688q-1.646-13,5.928-21.767,6.96-7.909,18.909-9.88a40.385,40.385,0,0,1,12.513-.059,284.552,284.552,0,0,0-8.311-33.7q-29.381,4.094-37.344,4.406l-7.416-34.344q19.5-3.216,36.21-6.721l-9.3-27.52,33.284-6.24q3.218,19.506,4.292,32.1l31.538-6.2,6.981,27.151q-14.919,3.717-30.323,9.008,8.025,34.994,8.082,49.011,21.479,7.227,41.193,25.015m-63.453-3.563q.042-2.761-4.074-4.963a18.079,18.079,0,0,0-8.386-2.249,12.214,12.214,0,0,0-6.545,2.079,5.252,5.252,0,0,0-2.447,5.665,7.543,7.543,0,0,0,4.276,5.43,10.732,10.732,0,0,0,8.267.767q8.9-2.219,8.909-6.729"/><path d="M654.306,320.848l-15.955,64.246a240.718,240.718,0,0,0-10.639-26.549q-35.719,3.636-83.925,16.594l-7.088-35.4q86-16.182,117.607-18.892m13.419,134.54q-27.643,10.072-49.1,13.607a200.051,200.051,0,0,1-56.92,1.121q-1.062-21.613-.865-40.182,16.153,8.359,47.611,3.17,30.476-5.028,47.441-17.592Z"/><path d="M800.074,303.825l3.565,29.217q-24.469,5.039-54.419,11.729l.508,34.981a49.068,49.068,0,0,1,26.545-9.136q15.4-.783,25.947,7.743T815.913,401.4q4.8,21.5-9.408,37.117-12.741,13.875-34.441,17.452-19.751,3.255-34.526-4.326,50.311-10.8,43.62-39.253a18.28,18.28,0,0,0-9.363-12.732,25.865,25.865,0,0,0-16.245-2.831q-17.071,2.815-33.381,14.772-.027-32.053-1.6-59.847-8.292,1.368-29.707,5.148l-5.549-33.648q12.477-1.8,31.535-4.7L712.4,282.467l40.471-3.668-.995,34.978Z"/><path d="M952.851,377.063q3.7,22.439-11.4,37.2-12.536,12.088-33.748,15.583-24.629,4.062-36.636-4.977,26.213-5.077,38.627-17.893,11.106-11.6,7.436-24.77-5.049-18.451-26.992-14.835-15.646,2.336-34.969,17.289l-14.751-92.494,34.054-4.612q4.375,52.38,5.944,63.388,11.31-8.874,27.157-9.989,16.049-1.389,28.263,7.363,13.836,9.492,17.014,28.751M939.514,265.8,928.09,293.737q-23.424-9.912-42.184-15.838l10.773-27.324q23.1,7.968,42.835,15.228"/></g></g><path d="M262.371,239.819l-19.482,36.775q-24.72-13.206-38.276-20.988-25.428,43.263-83.378,53.32a220.127,220.127,0,0,0,32.892-37.482q14.012-19.839,18.907-32.673-15.505-7.458-48.509-23.809l13.33-25.491,47.178,17.267q6.772-16.644,12.735-57.954l40.652,9.576q-4.275,28.763-19.364,61.8,12.459,5.711,43.315,19.656" transform="translate(2718 7030)" fill="#fff"/><path d="M430.683,202.547l4.355,43.113q-96.723,16.455-145.729,23.03l-7.7-36.051q56.571-10.833,149.072-30.092m-41.951-79.742,4.932,37.508q-69.906,15.036-90.14,16.868-6.537-27.474-9-34.834,61.409-13.379,94.208-19.542" transform="translate(2718 7030)" fill="#fff"/><path d="M584.226,200.271l3.807,30.681Q520.656,241.563,459.775,253.6l-4.581-29.3q35.965-8.187,60.966-14.561-.364-26.487-1.038-35.145-18.816,4.359-44.3,10.812l-5.629-34.137q8.573-1.161,45.637-7.275,35.637-5.624,39.745-6.554.218,37.786-1.659,65.9Z" transform="translate(2718 7030)" fill="#fff"/><path d="M748.906,111.5l2.264,30.434L594.63,167.75l-5.8-30.6Q693.147,121.2,748.906,111.5" transform="translate(2718 7030)" fill="#fff"/><path d="M823.943,150.224q-19.324,36.249-29.71,53.74-17.068-22.979-24.945-70.776a510.271,510.271,0,0,1-5.864-62.9l31.042-1.613q-4.124,32.745,2.153,70.776a172.563,172.563,0,0,0,5.323,23.168q7.923-3.562,22-12.4m127.665,14.765-15.2,26.3q-17.85-15.59-28.444-20.606a26.547,26.547,0,0,1-7.25,10.713A31.724,31.724,0,0,1,884,189.411a30.1,30.1,0,0,1-5.446.4q-14.219.342-23.509-7.4a25.148,25.148,0,0,1-9.68-17.688q-1.646-13,5.928-21.767,6.96-7.909,18.909-9.88a40.385,40.385,0,0,1,12.513-.059,284.552,284.552,0,0,0-8.311-33.7q-29.381,4.094-37.344,4.406l-7.416-34.344q19.5-3.216,36.21-6.721l-9.3-27.52,33.284-6.24q3.218,19.506,4.292,32.1l31.538-6.2,6.981,27.151q-14.919,3.717-30.323,9.008,8.025,34.994,8.082,49.011,21.479,7.227,41.193,25.015m-63.453-3.563q.042-2.761-4.074-4.963a18.079,18.079,0,0,0-8.386-2.249,12.214,12.214,0,0,0-6.545,2.079,5.252,5.252,0,0,0-2.447,5.665,7.543,7.543,0,0,0,4.276,5.43,10.732,10.732,0,0,0,8.267.767q8.9-2.219,8.909-6.729" transform="translate(2718 7030)" fill="#fff"/><path d="M647.306,313.848l-15.955,64.246a240.718,240.718,0,0,0-10.639-26.549q-35.719,3.636-83.925,16.594l-7.088-35.4q86-16.182,117.607-18.892m13.419,134.54q-27.643,10.072-49.1,13.607a200.051,200.051,0,0,1-56.92,1.121q-1.062-21.613-.865-40.182,16.153,8.359,47.611,3.17,30.476-5.028,47.441-17.592Z" transform="translate(2718 7030)" fill="#fff"/><path d="M793.074,296.825l3.565,29.217q-24.469,5.039-54.419,11.729l.508,34.981a49.068,49.068,0,0,1,26.545-9.136q15.4-.783,25.947,7.743T808.913,394.4q4.8,21.5-9.408,37.117-12.741,13.875-34.441,17.452-19.751,3.255-34.526-4.326,50.311-10.8,43.62-39.253a18.28,18.28,0,0,0-9.363-12.732,25.865,25.865,0,0,0-16.245-2.831q-17.071,2.815-33.381,14.772-.027-32.053-1.6-59.847-8.292,1.368-29.707,5.148l-5.549-33.648q12.477-1.8,31.535-4.7L705.4,275.467l40.471-3.668-.995,34.978Z" transform="translate(2718 7030)" fill="#fff"/><path d="M945.851,370.063q3.7,22.439-11.4,37.2-12.536,12.088-33.748,15.583-24.629,4.062-36.636-4.977,26.213-5.077,38.627-17.893,11.106-11.6,7.436-24.77-5.049-18.451-26.992-14.835-15.646,2.336-34.969,17.289l-14.751-92.494,34.054-4.612q4.375,52.38,5.944,63.388,11.31-8.874,27.157-9.989,16.049-1.389,28.263,7.363,13.836,9.492,17.014,28.751M932.514,258.8,921.09,286.737q-23.424-9.912-42.184-15.838l10.773-27.324q23.1,7.968,42.835,15.228" transform="translate(2718 7030)" fill="#fff"/></g></svg>