<?xml version="1.0" encoding="UTF-8"?>
<svg xmlns="http://www.w3.org/2000/svg" viewBox="0 0 816 136.65">
  <defs>
    <style>
      .cls-1 {
        isolation: isolate;
      }

      .cls-2 {
        fill: #231815;
      }

      .cls-3 {
        fill: #fff;
      }

      .cls-4 {
        mix-blend-mode: multiply;
      }

      .cls-4, .cls-5 {
        fill: #b28146;
      }
    </style>
  </defs>
  <g class="cls-1">
    <g id="_レイヤー_2" data-name="レイヤー_2">
      <g id="_レイヤー_1-2" data-name="レイヤー_1">
        <g>
          <rect class="cls-5" width="816" height="85.14"/>
          <rect class="cls-4" x="0" width="40.36" height="85.13"/>
          <g>
            <path class="cls-2" d="M190.75,105.57c.14,2.28,1.16,7.19,2.25,10.67q2.22-.82,8.83-3c.61-.2.78-.27,1.29-.51l1.47,4.29c-2.97.58-7.43,1.88-11.25,3.27-4.98,1.84-7.46,4.02-7.46,6.48s2.32,3.54,7.81,3.54c4.26,0,8.45-.51,11.01-1.4l.38,4.67c-.75,0-.92.03-2.76.24-3.68.38-5.59.51-7.98.51-4.74,0-7.7-.58-9.89-1.88-1.88-1.12-2.97-3.24-2.97-5.69,0-2.28,1.09-4.47,3.03-6.1,1.33-1.12,2.42-1.81,4.64-2.93-.85-2.76-1.43-5.04-2.28-9.24-.34-1.64-.38-1.7-.55-2.22l4.43-.72Z"/>
            <path class="cls-2" d="M218.23,120.02c2.04-1.06,3.75-1.47,6.24-1.47,5.52,0,9.1,2.86,9.1,7.26,0,2.83-1.43,5.28-3.99,6.92-2.08,1.3-5.08,2.01-8.49,2.01-2.83,0-5.25-.38-8.22-1.26-.03-1.74-.14-2.52-.61-4.5,2.66,1.19,6,1.91,8.66,1.91,4.94,0,8.25-2.01,8.25-5.01,0-2.45-2.25-3.92-6.03-3.92-4.4,0-9.92,2.39-13.23,5.69l-2.62-3.55c1.09-.58,2.56-1.64,4.47-3.2,3.92-3.27,6.44-5.62,10.16-9.48q.14-.17.34-.38c.1-.07.14-.14.27-.27l-.03-.03c-.14,0-.17,0-.27.03-1.36.2-5.52.44-8.45.51-1.4.03-2.18.1-2.79.2l-.14-4.06c1.06.17,2.05.24,4.64.24,3.31,0,7.09-.17,9.68-.41,1.09-.1,1.33-.14,1.87-.38l2.18,3.1q-.68.44-5.9,5.45c-1.94,1.87-3.55,3.24-5.45,4.67l.1.03.27-.14Z"/>
            <path class="cls-2" d="M247.46,105.57c.14,2.28,1.16,7.19,2.25,10.67q2.22-.82,8.83-3c.61-.2.78-.27,1.3-.51l1.47,4.29c-2.97.58-7.43,1.88-11.25,3.27-4.98,1.84-7.47,4.02-7.47,6.48s2.32,3.54,7.81,3.54c4.26,0,8.45-.51,11.01-1.4l.38,4.67c-.75,0-.92.03-2.76.24-3.68.38-5.59.51-7.98.51-4.74,0-7.7-.58-9.89-1.88-1.88-1.12-2.97-3.24-2.97-5.69,0-2.28,1.09-4.47,3.03-6.1,1.33-1.12,2.42-1.81,4.64-2.93-.85-2.76-1.43-5.04-2.28-9.24-.34-1.64-.38-1.7-.54-2.22l4.43-.72Z"/>
            <path class="cls-2" d="M274.94,120.02c2.05-1.06,3.75-1.47,6.24-1.47,5.52,0,9.1,2.86,9.1,7.26,0,2.83-1.43,5.28-3.99,6.92-2.08,1.3-5.08,2.01-8.49,2.01-2.83,0-5.25-.38-8.21-1.26-.03-1.74-.14-2.52-.61-4.5,2.66,1.19,6,1.91,8.66,1.91,4.94,0,8.25-2.01,8.25-5.01,0-2.45-2.25-3.92-6.03-3.92-4.4,0-9.92,2.39-13.23,5.69l-2.62-3.55c1.09-.58,2.56-1.64,4.47-3.2,3.92-3.27,6.44-5.62,10.16-9.48q.14-.17.34-.38c.1-.07.14-.14.27-.27l-.03-.03c-.14,0-.17,0-.27.03-1.36.2-5.52.44-8.45.51-1.4.03-2.18.1-2.79.2l-.14-4.06c1.06.17,2.05.24,4.64.24,3.31,0,7.09-.17,9.68-.41,1.09-.1,1.33-.14,1.88-.38l2.18,3.1q-.68.44-5.9,5.45c-1.94,1.87-3.54,3.24-5.45,4.67l.1.03.27-.14Z"/>
            <path class="cls-2" d="M318.84,109.38q-.41.1-2.86.92c-1.94.61-3.03.89-5.69,1.4q-.03,4.6-.1,5.76h7.23c2.32,0,2.9-.03,4.16-.24v4.09c-1.26-.14-1.91-.17-4.09-.17h-7.53c-.38,3.17-1.09,5.45-2.28,7.43-1.19,1.98-3.17,3.89-5.56,5.42-.95.61-1.6.99-3.17,1.7-.99-1.74-1.53-2.39-2.97-3.61,2.45-.89,3.75-1.6,5.28-2.86,2.04-1.64,3.34-3.58,3.92-5.79.14-.58.24-1.16.38-2.28h-8.42c-2.18,0-2.83.03-4.09.17v-4.09c1.26.2,1.84.24,4.16.24h8.73c.07-1.43.07-2.76.07-5.15-2.76.41-3.82.51-9.44.78-.34-1.53-.51-2.05-1.26-3.68,1.06.07,1.6.07,2.11.07,4.57,0,10.4-.78,14.59-1.98,1.98-.58,2.97-.95,4.12-1.6l2.73,3.48Z"/>
            <path class="cls-2" d="M324.83,118.14c1.5.2,2.15.24,5.52.24h18.17c3.38,0,4.02-.03,5.52-.24v4.74c-1.36-.17-1.74-.17-5.56-.17h-18.1c-3.82,0-4.19,0-5.56.17v-4.74Z"/>
            <path class="cls-2" d="M377.86,135.6c-2.35-3-7.09-7.6-10.46-10.12-3.41,3.95-8.01,7.43-12.99,9.85-.92-1.74-1.4-2.42-2.76-3.78,3.51-1.26,7.98-4.19,11.18-7.36,3.07-3,5.42-6.44,7.09-10.26l.17-.38.1-.24c0-.07.03-.14.1-.31-.38.03-.48.03-.75.03l-.31.03-10.23.17c-1.84.03-2.69.1-3.72.24l-.14-4.33c.95.17,1.6.2,3,.2h.82l11.39-.17c1.91-.03,2.18-.07,3.03-.38l2.52,3.03c-.34.38-.78,1.09-1.09,1.84-1.3,3.1-3.17,6.34-4.98,8.69,3.78,2.59,5.66,4.19,11.28,9.65l-3.27,3.58ZM376.56,105.6c1.5,1.6,2.42,2.9,3.58,5.01l-2.28,1.26c-1.12-2.08-2.08-3.44-3.58-5.08l2.28-1.19ZM381.85,109.72c-1.02-1.87-2.15-3.48-3.48-4.94l2.15-1.09c1.53,1.57,2.49,2.86,3.54,4.81l-2.22,1.23Z"/>
            <path class="cls-2" d="M395.95,108.91c-.14.41-.2.78-.44,2.62-.68,4.64-1.53,8.42-2.69,11.66-1.53,4.19-3.27,7.26-6.03,10.53-1.64-1.57-2.18-1.98-3.89-2.93,2.04-2.04,3.44-4.12,4.87-7.26,1.47-3.17,2.66-7.4,3.2-11.69.2-1.4.31-2.56.31-3.31v-.48l4.67.85ZM405.63,108.05c.1,1.91.65,4.84,1.43,7.84,1.64,6.24,3.89,10.6,7.6,14.73-1.81,1.16-2.39,1.64-3.75,3.14-2.42-2.93-4.19-6-5.8-10.02-1.47-3.58-2.66-8.15-3.24-12.41-.2-1.29-.31-1.94-.48-2.45l4.23-.82Z"/>
            <path class="cls-2" d="M417.1,129.49c2.93-.17,6.99-1.16,10.09-2.52,4.26-1.84,7.43-4.47,10.12-8.35,1.5-2.18,2.45-4.06,3.48-6.82,1.33,1.6,1.88,2.11,3.61,3.34-2.9,6.24-6.14,10.26-10.81,13.36-3.48,2.32-7.7,3.99-12.99,5.11-1.36.27-1.47.31-2.25.58l-1.26-4.7ZM420,108.33c4.06,2.52,6.17,4.09,8.79,6.58l-2.93,3.72c-2.73-2.9-5.52-5.15-8.69-6.92l2.83-3.37Z"/>
            <path class="cls-2" d="M455.41,108.91c-.1.38-.14.41-.17.68l-.07.58-.17.99-.1.82c-1.43,9.78-4.09,16.5-8.66,21.75-1.6-1.53-2.25-2.05-3.89-2.93,2.05-2.04,3.44-4.12,4.88-7.26,1.47-3.17,2.66-7.4,3.2-11.69.2-1.4.31-2.56.31-3.31v-.48l4.67.85ZM465.09,108.05c.03,1.57.65,4.91,1.43,7.84,1.67,6.31,4.06,10.91,7.6,14.73-1.74,1.09-2.45,1.67-3.75,3.14-4.53-5.42-7.7-13.26-9.03-22.43-.2-1.4-.31-1.94-.48-2.45l4.23-.82ZM467.99,106.01c1.26,1.77,2.01,3.2,2.83,5.49l-2.59.82c-.78-2.18-1.5-3.65-2.79-5.56l2.56-.75ZM472.69,110.95c-.78-2.11-1.64-3.82-2.73-5.39l2.52-.72c1.3,1.81,2.05,3.24,2.8,5.28l-2.59.82Z"/>
            <path class="cls-2" d="M473.8,118.14c1.5.2,2.15.24,5.52.24h18.17c3.37,0,4.02-.03,5.52-.24v4.74c-1.36-.17-1.74-.17-5.56-.17h-18.1c-3.82,0-4.19,0-5.56.17v-4.74Z"/>
            <path class="cls-2" d="M532.3,112.42c-.31.44-.48.85-.85,2.05-2.01,6.07-3.65,9.1-6.85,12.89-3.03,3.48-7.23,6.48-12.14,8.62-.89-1.6-1.5-2.35-2.9-3.58,8.93-3.41,14.69-9.51,17.42-18.37l-10.26.14c-1.91,3.14-5.15,6.68-7.98,8.76-1.02-1.4-1.53-1.84-3.31-2.93,3.68-2.45,6.41-5.52,8.83-9.89,1.02-1.84,1.64-3.44,1.74-4.53l4.67.95c-.24.31-.27.38-.58,1.02-.27.61-.58,1.3-.92,1.98-.17.31-.17.34-.24.48l-.27.51c.41-.03.95-.07,1.64-.07l7.47-.1c.92,0,1.5-.03,1.77-.07-.78-1.7-1.4-2.79-2.49-4.26l2.52-.85c1.33,1.77,2.11,3.14,3.03,5.39l-1.47.55,1.16,1.33ZM534.52,109.96c-.82-2.01-1.81-3.75-2.93-5.28l2.45-.85c1.4,1.81,2.18,3.17,3,5.18l-2.52.95Z"/>
            <path class="cls-2" d="M558.83,104.61l-25.84,32.04h-5.01l25.8-32.04h5.04Z"/>
            <path class="cls-2" d="M580.83,114.67q-.14.27-.41.99c-.34.95-.38.99-.48,1.3,1.4.34,2.39.82,3.55,1.67,2.18,1.64,3.24,3.75,3.24,6.44,0,3.72-2.01,6.61-5.86,8.52-2.01.99-3.95,1.5-6.95,1.81-.38-1.47-.68-2.08-1.81-3.85,2.76-.03,4.5-.41,6.51-1.36,2.73-1.3,3.99-2.97,3.99-5.32,0-2.15-1.4-3.89-3.82-4.7-1.88,4.06-3.48,6.51-5.93,9.07-3.07,3.24-6.1,4.91-8.93,4.91-3.17,0-5.32-2.42-5.32-5.97,0-2.8,1.19-5.49,3.38-7.64,1.36-1.33,2.62-2.18,4.67-3.07,0-1.09.07-2.45.14-4.09-.38,0-2.22-.03-5.52-.14h-.65c-.1,0-.41,0-.78.03v-3.82c1.53.34,3.55.51,6.37.51h.75q.03-.68.14-2.05c.03-.44.07-1.3.07-1.94,0-.14,0-.27-.07-.55l4.23.2c-.27.92-.41,1.81-.61,4.19,5.45-.31,10.29-.99,12.92-1.81l.17,3.92c-.48.03-.61.03-1.33.14-3.75.61-9.27,1.12-12,1.19-.1,1.47-.14,2.56-.17,3.27,1.84-.38,2.62-.44,4.7-.44.41,0,.68,0,1.29.07.38-1.09.58-1.81.68-2.59l3.85,1.09ZM563.96,123.7c-1.02,1.33-1.53,2.73-1.53,4.16,0,1.53.75,2.49,1.94,2.49.95,0,1.88-.41,2.97-1.3-.44-2.22-.61-4.4-.61-7.7-1.5.99-2.08,1.5-2.76,2.35ZM570.64,126.53q.14-.2.38-.48c1.6-1.81,2.97-3.99,4.23-6.82-.38-.03-.54-.03-.89-.03-1.5,0-2.73.17-4.09.61.03,3.14.03,3.48.24,5.86q.03.2.03.44c0,.17,0,.2.03.38l.07.03Z"/>
            <path class="cls-2" d="M599.13,123.22c-2.15,3.89-3.92,8.9-3.89,10.94l-3.95.2c-.03-.48-.07-.58-.24-1.3-.85-3.82-1.23-7.23-1.23-11.08s.2-5.86,1.26-12.92c.24-1.53.24-1.81.24-2.49l4.5.41c-1.23,3.95-2.08,10.26-2.08,15.68,0,.51.03,3.17.03,3.37.03.41.03.78.03,1.3.51-1.53.61-1.87.78-2.25q1.16-2.76,1.5-3.38l3.03,1.5ZM598.28,113.41c1.53.34,3.31.48,6.1.48,1.3,0,1.57,0,3.58-.17-.1-3.1-.14-3.44-.17-4.5-.07-1.5-.1-1.7-.27-2.56l4.33-.03c-.03.72-.07,1.09-.07,1.3v.44c.07,1.12.1,2.79.2,4.98,2.25-.38,4.29-.89,5.08-1.33l.24,4.06c-.55.07-.75.1-1.91.34-1.64.38-1.88.41-3.31.58.03.72.03,1.02.03,1.64,0,3.61-.24,6.44-.72,8.15-.75,2.83-1.98,4.91-3.89,6.61-1.06.92-1.98,1.57-3.72,2.59-1.09-1.4-1.84-2.11-3.31-3.2,2.32-1.06,3.92-2.18,5.22-3.72,1.77-2.11,2.39-4.53,2.39-9.54,0-.61,0-1.16-.03-2.18-1.16.1-2.93.17-4.64.17-.95,0-2.22-.03-3.1-.1-.99-.07-1.12-.07-1.53-.07h-.51v-3.92ZM614.03,104.64c1.06,1.67,1.77,3.31,2.35,5.32l-2.35.68c-.61-2.18-1.36-3.85-2.32-5.35l2.32-.65ZM618.19,109.59c-.55-1.84-1.36-3.75-2.28-5.22l2.18-.68c.92,1.43,1.67,3.03,2.32,5.11l-2.22.78Z"/>
            <path class="cls-2" d="M625.22,111.7c-1.36,1.33-2.49,2.28-4.02,3.34-.34-1.5-.68-2.42-1.33-3.44,1.87-1.19,2.9-2.01,4.09-3.24,1.16-1.23,1.7-2.01,2.42-3.48h3.89c1.36,2.22,2.42,3.17,5.15,4.67-.92,1.19-1.26,1.81-1.77,3.1-.78-.58-.92-.68-1.5-1.16v2.01c-.55-.07-.99-.1-1.67-.1h-3.65c-.58,0-1.06.03-1.6.1v-1.81ZM633.43,133.65c-.55-.07-1.64-.1-2.15-.1h-5.35v.2c0,.82.07,1.98.14,2.66h-3.78c.14-1.09.2-2.28.2-3.85v-15.65c0-1.3-.03-1.6-.1-2.32.58.07,1.09.1,2.08.1h6.75c1.47,0,2.05-.03,2.66-.1-.07.92-.1,1.74-.1,2.8v4.67c0,1.09.03,2.01.1,3.03-.61-.03-1.26-.07-2.45-.07h-5.49v1.4h5.18c1.33,0,1.87-.03,2.62-.1v2.9c-.75-.07-1.5-.1-2.62-.1h-5.18v1.5h5.28c1.4,0,1.91-.03,2.66-.1v2.76c1.29-1.26,2.28-2.8,2.79-4.5.41-1.26.61-2.56.78-4.77h-.31c-1.3,0-1.91.03-2.56.14v-3.78c.82.14,1.33.17,2.45.17h.55v-5.25c-1.4,0-1.91.03-2.69.14v-3.68c.78.1,1.43.14,2.83.14h5.76c1.5-2.79,2.28-4.67,3-7.16l3.58,1.19c-1.02,2.42-1.91,4.3-2.9,5.97h.92c1.26,0,2.11-.07,3.03-.17v3.75c-.85-.14-1.64-.17-2.8-.17h-.17v5.25h.72c1.23,0,2.05-.07,2.83-.2v3.89c-.89-.14-1.81-.2-2.86-.2h-.68v8.93c0,1.57.03,2.32.17,3.41h-3.92c.14-.95.2-1.88.2-3.44v-8.9h-3.78c-.17,2.93-.55,4.91-1.23,6.92-.85,2.39-1.81,3.92-3.51,5.62-.92-1.12-1.6-1.64-3.17-2.49l.51-.41ZM625.93,118.59h4.57v-1.36h-4.57v1.36ZM625.93,122.47h4.57v-1.43h-4.57v1.43ZM630.47,110.92c.38,0,.55,0,.92-.03-1.06-.92-1.53-1.43-2.9-3.17-1.09,1.57-1.53,2.15-2.49,3.17.41.03.58.03.82.03h3.65ZM638.24,111.74c-.55-1.98-1.12-3.27-2.59-5.62l3.24-1.26c1.23,1.98,2.01,3.58,2.69,5.56l-3.34,1.33ZM641,119.06c0,.61,0,.89-.03,1.47h3.65v-5.25h-3.61v3.78Z"/>
          </g>
          <g>
            <path class="cls-3" d="M300.23,40.5c-2.1-1.42-5.82-2.89-8.29-3.52l2.1-5.56c3.93,1.21,6.98,2.57,8.71,3.83l-2.52,5.25ZM304.33,53.3c-.63,1.31-4.51,9.44-4.62,9.97-.05.16,0,1.1,0,1.31,0,.42-.21.58-.47.58-.47,0-1.26-.42-1.68-.68l-4.72-2.78c3.46-4.93,7.5-13.22,8.87-16.89l4.93,3.41c-.58,1.42-1.26,2.94-2.31,5.09ZM303.59,28.53c-2.47-1.89-4.72-2.99-7.13-3.99l2.78-5.25c3.15,1.21,5.4,2.73,7.55,4.46l-3.2,4.77ZM306.21,40.34v-4.46h12.91v-2.26h-9.65v-4.46h9.65v-1.94h-10.44v-4.51h10.44v-3.1l5.72.16c1.26.05,1.84.37,1.84.89,0,.21-.05.37-.37.58-.73.47-.84.52-.84.73v.73h12.12v4.51h-12.12v1.94h9.7v4.46h-9.7v2.26h12.9v4.46h-32.16ZM327.46,65.62l-2.78-5.82c1.36.16,2.47.21,3.41.21,1.99,0,2.15-.52,2.2-1.99h-15.74v6.92h-5.82v-23.08h27.38v19.25c0,3.93-1.73,4.41-8.66,4.51ZM330.29,46.16h-15.74v2.05h15.74v-2.05ZM330.29,52.04h-15.74v2.15h15.74v-2.15Z"/>
            <path class="cls-3" d="M354.48,60.9c-.84.16-5.04.84-6.03,1-.73.1-2.41.42-2.73.79-.52.52-.68.68-1,.68-.26,0-.63-.1-.68-.42l-1.26-5.77c4.56-.37,5.77-.52,9.34-.94v-5.19h-7.66v-4.51h7.66v-3.83h-7.66v-21.09h20.25v21.09h-7.92v3.83h7.92v4.51h-7.92v4.56c4.67-.68,6.87-1.1,8.5-1.47v4.62c-3.62.79-7.19,1.47-10.81,2.15ZM352.12,26.12h-2.94v3.67h2.94v-3.67ZM352.12,34.36h-2.94v3.78h2.94v-3.78ZM359.99,26.12h-3.2v3.67h3.2v-3.67ZM359.99,34.36h-3.2v3.78h3.2v-3.78ZM383.85,51.83l-4.46-1.99v9.92c0,3.78-1.47,4.88-8.08,5.19l-2.73-5.3h3.1c1.36,0,1.99-.37,1.99-1.68v-15.27h-7.03v-4.98h11.23c-1.47-1.15-3.62-2.83-8.71-5.14l2.36-4.09c1.89.63,2.78,1.05,4.25,1.73,1.31-1.15,2.36-2.1,3.83-3.93h-11.96v-4.83h19.25l1.94,2.31c-1.73,1.94-4.62,5.09-8.87,8.76,1.99,1.31,2.94,2.15,3.78,2.94l-1.52,2.26h5.61l2.15,2.47c-1.31,2.94-3.25,7.03-6.14,11.65ZM379.39,42.7v6.5c2.1-2.78,2.83-4.14,3.93-6.5h-3.93Z"/>
            <path class="cls-3" d="M436.49,64.84c-9.97-2.89-13.8-5.72-16.68-7.97v8.18h-6.45v-7.92c-4.67,3.62-10.12,5.98-15.69,7.92l-4.56-4.93c5.93-1.21,10.33-2.57,14.32-5.61h-13.32v-4.83h19.25v-2.15h-14.9v-16.94h36.62v16.94h-15.27v2.15h19.25v4.83h-13.43c5.51,3.46,10.12,4.35,14.69,4.98l-3.83,5.35ZM427.52,27.7v1.63h-6.3v-1.63h-9.34v1.63h-6.03v-1.63h-11.86v-4.98h11.86v-3.1l5.82.26c1,.05,1.26.47,1.26.79,0,.1-.63.73-.73.84q-.31.37-.31,1.21h9.34v-3.15l5.98.42c.52.05,1.1.05,1.1.63,0,.16-.05.37-.42.73s-.37.47-.37.63v.73h11.7v4.98h-11.7ZM413.35,34.51h-8.66v2.52h8.66v-2.52ZM413.35,40.81h-8.66v2.62h8.66v-2.62ZM428.72,34.51h-8.92v2.52h8.92v-2.52ZM428.72,40.81h-8.92v2.62h8.92v-2.62Z"/>
            <path class="cls-3" d="M468.06,44.95v12.49c0,7.29-2.31,7.61-12.33,7.61l-2.99-6.35c4.41.58,4.93.68,5.93.68,1.52,0,2.99-.47,2.99-2.94v-11.49h-19.41v-5.82h19.41v-7.71l3.41.84c2.62-2.1,4.51-3.83,5.35-4.67h-23.34v-5.72h32l3.15,3.25c-5.82,5.3-10.44,9.23-14.16,12.38v1.63h19.36v5.82h-19.36Z"/>
            <path class="cls-3" d="M514.02,30.74l3.2.63c.58.1,1.47.31,1.47.79,0,.42-.42.58-1.15.94v2.57h17.68v5.4h-17.68v5.3h14.37v18.78h-6.08v-1.36h-18.15v1.36h-5.77v-18.78h9.6v-15.63h-11.17v8.24c0,5.88-.52,9.34-1.68,15.16-.89,4.3-2.36,7.61-3.67,10.44l-5.72-2.15c1.84-3.51,5.04-9.65,5.04-22.3v-14.85h15.74v-5.51l6.87.42c.52.05,1.15.21,1.15.79,0,.31-.47.63-.73.79-.26.16-.63.37-.63.58v2.94h19.2v5.46h-21.88ZM525.83,51.98h-18.15v6.51h18.15v-6.51Z"/>
          </g>
        </g>
      </g>
    </g>
  </g>
</svg>