<?xml version="1.0" encoding="UTF-8"?>
<svg xmlns="http://www.w3.org/2000/svg" viewBox="0 0 167.6 28.63">
  <defs>
    <style>
      .cls-1, .cls-2 {
        fill: #b28247;
      }

      .cls-3 {
        isolation: isolate;
      }

      .cls-4 {
        fill: #231815;
      }

      .cls-5 {
        fill: #fff;
      }

      .cls-2 {
        mix-blend-mode: multiply;
      }
    </style>
  </defs>
  <g class="cls-3">
    <g id="_レイヤー_2" data-name="レイヤー_2">
      <g id="_テキスト_xFF08_B_xFF09_" data-name="テキスト_xFF08_B_xFF09_">
        <g>
          <rect class="cls-1" width="167.6" height="17.49"/>
          <rect class="cls-2" x="0" width="8.29" height="17.49"/>
          <g>
            <path class="cls-4" d="M27.98,24.55c.18.63.55,1.31,1.01,1.83.52.59,1.1.99,1.93,1.33-.24.28-.34.43-.51.81-.75-.39-1.23-.74-1.73-1.28-.46-.48-.8-1.04-1.06-1.69-.21.72-.58,1.32-1.14,1.88-.48.47-.98.8-1.67,1.1-.12-.27-.27-.48-.49-.74.5-.2.79-.35,1.13-.6.94-.67,1.41-1.45,1.58-2.64h-1.65c-.44,0-.64.01-.88.05v-.89c.22.04.47.05.88.05h1.72c.01-.35.02-.46.02-.83,0-.29-.02-.5-.05-.7h.93c-.04.25-.04.35-.05.82,0,.29,0,.45-.01.71h1.86c.4,0,.64-.01.88-.05v.89c-.28-.04-.49-.05-.88-.05h-1.81Z"/>
            <path class="cls-4" d="M37.07,26.13c-.15-.02-.26-.03-.5-.03h-.34c-.01.15-.02.21-.04.35h1.16c.39,0,.5,0,.69-.03v.69c-.2-.03-.38-.04-.69-.04h-.87c.5.47,1.06.7,2.01.84-.14.2-.25.42-.34.65-.72-.17-1.08-.31-1.44-.54-.31-.2-.58-.45-.8-.72-.38.65-1.01,1.02-2.14,1.25-.08-.25-.15-.39-.34-.67.5-.06.73-.11,1.03-.22.39-.14.65-.33.83-.6h-.59c-.3,0-.46,0-.67.04v-.69c.17.02.27.03.62.03h.84c.02-.15.03-.2.04-.35h-.21c-.22,0-.34,0-.49.03v-.59c-.31.34-.59.59-1.04.91-.15-.25-.21-.32-.46-.57.44-.26.73-.48,1-.76-.37,0-.57,0-.78.04v-.43l-.41.59c-.44-.41-.69-.6-1.16-.89l.43-.55c.44.25.74.46,1.13.76v-.2c.19.04.36.04.77.04h.48c.07-.12.12-.22.18-.35h-.41c-.28,0-.49,0-.67.04v-.66c.19.03.38.04.67.04h.66c.04-.13.06-.2.09-.34h-.8c-.39,0-.55,0-.74.04v-.29l-.43.57c-.29-.29-.64-.57-1.09-.86l.47-.54c.46.29.75.52,1.05.8v-.38c.22.03.43.04.74.04h.92c.03-.23.04-.34.04-.43v-.08l.8.04c-.02.06-.05.22-.11.48h1.38c.33,0,.56-.01.76-.04v.71c-.19-.03-.39-.04-.74-.04h-1.54c-.03.15-.05.2-.09.34h1.55c.29,0,.48,0,.64-.04v.66c-.19-.03-.36-.04-.63-.04h-.62c.06.13.1.2.19.35h.71c.38,0,.55,0,.74-.04v.72c-.21-.04-.37-.04-.69-.04h-.25c.34.32.66.53,1.13.74-.16.2-.23.33-.37.64-.59-.35-.88-.57-1.22-.93v.57ZM33.53,26.3c-.23.74-.38,1.13-.64,1.66-.07.15-.08.16-.2.39q-.06.1-.08.15l-.64-.57c.11-.11.22-.28.35-.53.24-.45.4-.86.59-1.56l.61.46ZM36.56,25.51c.21,0,.32,0,.44-.01-.12-.15-.18-.22-.3-.38h-1.56c-.11.15-.18.23-.29.38.11,0,.25.01.46.01h1.25ZM36.32,24.48c-.06-.13-.08-.18-.15-.35h-.47c-.06.15-.09.21-.15.35h.78Z"/>
            <path class="cls-4" d="M40.07,23.94c.49.3.76.51,1.13.88l-.5.57c-.38-.42-.61-.61-1.12-.93l.48-.53ZM41.22,26.38c-.2.64-.33,1-.6,1.61l-.27.57-.66-.55s.08-.1.13-.19c.27-.44.54-1.11.78-1.93l.62.48ZM40.4,22.17c.43.3.72.55,1.07.91l-.54.56c-.39-.45-.66-.69-1.06-.96l.53-.51ZM45.05,22.73c.53,0,.74,0,1.01-.04v.75c-.19-.02-.41-.03-.92-.03h-2.63c-.12.19-.2.33-.32.5h2.71c.34,0,.54,0,.73-.02-.01.1-.02.18-.04.39,0,.05-.01.39-.04,1.03.34,0,.44,0,.62-.04v.74c-.22-.03-.38-.04-.59-.04h-.07c-.03.36-.04.59-.07.86.28,0,.38,0,.53-.04v.74c-.17-.02-.29-.03-.53-.03h-.08c-.15.87-.31,1.03-1.04,1.03-.11,0-.2,0-.63-.04,0-.3-.04-.46-.15-.72.27.05.5.07.71.07.26,0,.29-.03.37-.34h-2.37c-.05.22-.06.29-.12.55l-.79-.08c.2-.57.34-1.21.46-2.01h-.11c-.22,0-.35,0-.55.04v-.74c.2.03.35.04.65.04h.08c.06-.53.08-.81.08-1.09-.14.17-.21.25-.43.46-.14-.22-.3-.39-.53-.57.45-.4.66-.65.9-1.06.2-.35.35-.72.39-.99l.8.14q-.15.36-.24.55h2.18ZM43.19,26.84c.05-.32.06-.41.11-.86h-.79c-.04.3-.05.37-.14.86h.81ZM43.36,25.31q.01-.22.04-.76h-.76c-.02.35-.03.43-.06.76h.78ZM44.74,26.84c.04-.32.05-.57.08-.86h-.84c-.03.27-.06.55-.11.86h.87ZM44.85,25.31q.01-.43.02-.76h-.79q-.04.56-.05.76h.82Z"/>
            <path class="cls-4" d="M50.71,24.3h1.49c.37,0,.48,0,.66-.02-.02.22-.03.36-.03.65v1.17c0,.32,0,.44.03.67-.19-.01-.31-.02-.68-.02h-1.48v.36h2.07c.3,0,.51-.01.74-.04v.74c-.25-.03-.49-.04-.79-.04h-2.02c0,.39,0,.57.04.83h-.82c.04-.28.05-.44.05-.83h-1.88c-.3,0-.54.01-.78.04v-.74c.22.03.43.04.73.04h1.93v-.36h-1.36c-.36,0-.48,0-.67.02.02-.24.03-.39.03-.67v-1.17c0-.25,0-.42-.03-.65.18.01.29.02.67.02h1.37v-.35h-1.51c-.27,0-.43,0-.62.03v-.17h-.51c.02-.15.03-.27.03-.5v-.52c0-.21,0-.35-.03-.51.25.02.44.03.74.03h4.64c.34,0,.54,0,.75-.03-.02.14-.03.24-.03.49v.53c0,.22,0,.36.03.51h-.56v.17c-.18-.02-.35-.03-.61-.03h-1.6v.35ZM49.98,22.96h-1.87v.34c.12,0,.2,0,.36,0h1.51v-.35ZM49.98,24.87h-1.27v.38h1.27v-.38ZM49.98,25.78h-1.27v.39h1.27v-.39ZM52.31,23.31c.17,0,.24,0,.38,0v-.34h-1.97v.35h1.6ZM52.1,25.25v-.38h-1.39v.38h1.39ZM52.1,26.17v-.39h-1.39v.39h1.39Z"/>
            <path class="cls-4" d="M60.55,23.86c-.05.13-.07.22-.08.47-.02.79-.1,1.87-.17,2.33-.18,1.21-.43,1.5-1.27,1.5-.27,0-.5-.02-.87-.08-.01-.44-.04-.57-.16-.9.41.11.69.16.92.16.3,0,.41-.15.52-.76.08-.48.15-1.44.15-2.24h-1.63c-.1.88-.25,1.41-.56,2.01-.38.74-1.01,1.38-1.89,1.94-.24-.37-.34-.48-.63-.74.88-.46,1.45-1.02,1.82-1.76.19-.39.29-.73.36-1.22.01-.1.03-.17.04-.22h-1.16c-.43,0-.53.01-.76.04v-.86c.23.04.42.06.77.06h1.23c.02-.27.03-.68.03-.88v-.17c0-.09,0-.15-.02-.27l.94.02c-.01.09-.02.12-.03.22,0,.04,0,.08,0,.13q-.01.15-.03.51c0,.15,0,.22-.03.44h1.55c.31,0,.38-.01.55-.07l.4.35Z"/>
            <path class="cls-4" d="M63.68,22.49c-.03.19-.04.36-.04.71l-.04,4c.73-.14,1.39-.41,1.91-.77.64-.44,1.08-.92,1.43-1.6.27.36.37.46.67.71-.48.74-.93,1.21-1.56,1.63-.7.47-1.41.74-2.55.96-.19.04-.27.06-.42.12l-.45-.54c.05-.19.06-.32.06-.72l.03-3.78q0-.49-.04-.72h.99Z"/>
            <path class="cls-4" d="M69.16,24.83c.31.04.44.05,1.13.05h3.73c.69,0,.83,0,1.13-.05v.97c-.28-.04-.36-.04-1.14-.04h-3.72c-.79,0-.86,0-1.14.04v-.97Z"/>
            <path class="cls-4" d="M78.72,22.93c-.02.08-.03.08-.04.14v.12s-.05.2-.05.2l-.02.17c-.29,2.01-.84,3.39-1.78,4.47-.33-.32-.46-.42-.8-.6.42-.42.71-.85,1-1.49.3-.65.55-1.52.66-2.4.04-.29.06-.53.06-.68v-.1l.96.17ZM80.71,22.75c0,.32.13,1.01.29,1.61.34,1.3.83,2.24,1.56,3.03-.36.22-.51.34-.77.64-.93-1.11-1.58-2.72-1.86-4.61-.04-.29-.06-.4-.1-.5l.87-.17ZM82.7,23.17c0,.45-.37.81-.81.81s-.81-.36-.81-.81.37-.8.81-.8.81.36.81.8ZM81.43,23.17c0,.25.2.46.46.46s.46-.21.46-.46-.2-.46-.46-.46-.46.2-.46.46Z"/>
            <path class="cls-4" d="M84.07,27.16c.6-.04,1.44-.24,2.07-.52.88-.38,1.53-.92,2.08-1.72.31-.45.5-.83.71-1.4.27.33.38.43.74.69-.6,1.28-1.26,2.11-2.22,2.75-.71.48-1.58.82-2.67,1.05-.28.06-.3.06-.46.12l-.26-.97ZM84.67,22.81c.83.52,1.27.84,1.81,1.35l-.6.76c-.56-.59-1.13-1.06-1.79-1.42l.58-.69Z"/>
            <path class="cls-4" d="M95.93,22.05l-5.31,6.58h-1.03l5.3-6.58h1.04Z"/>
            <path class="cls-4" d="M100.11,24.55c.18.63.55,1.31,1.01,1.83.52.59,1.1.99,1.93,1.33-.24.28-.34.43-.51.81-.75-.39-1.23-.74-1.73-1.28-.46-.48-.8-1.04-1.06-1.69-.21.72-.58,1.32-1.14,1.88-.48.47-.98.8-1.67,1.1-.12-.27-.27-.48-.49-.74.5-.2.79-.35,1.13-.6.94-.67,1.41-1.45,1.58-2.64h-1.65c-.44,0-.64.01-.88.05v-.89c.22.04.47.05.88.05h1.72c.01-.35.02-.46.02-.83,0-.29-.02-.5-.05-.7h.93c-.04.25-.04.35-.05.82,0,.29,0,.45-.01.71h1.86c.4,0,.64-.01.88-.05v.89c-.28-.04-.49-.05-.88-.05h-1.81Z"/>
            <path class="cls-4" d="M109.19,26.13c-.15-.02-.26-.03-.5-.03h-.34c-.01.15-.02.21-.04.35h1.16c.39,0,.5,0,.69-.03v.69c-.2-.03-.38-.04-.69-.04h-.87c.5.47,1.06.7,2.01.84-.14.2-.25.42-.34.65-.72-.17-1.08-.31-1.44-.54-.31-.2-.58-.45-.8-.72-.38.65-1.01,1.02-2.14,1.25-.08-.25-.15-.39-.34-.67.5-.06.73-.11,1.03-.22.39-.14.65-.33.83-.6h-.59c-.3,0-.46,0-.67.04v-.69c.17.02.27.03.62.03h.84c.02-.15.03-.2.04-.35h-.21c-.22,0-.34,0-.49.03v-.59c-.31.34-.59.59-1.04.91-.15-.25-.21-.32-.46-.57.44-.26.73-.48,1-.76-.37,0-.57,0-.78.04v-.43l-.41.59c-.44-.41-.69-.6-1.16-.89l.43-.55c.44.25.74.46,1.13.76v-.2c.19.04.36.04.77.04h.48c.07-.12.12-.22.18-.35h-.41c-.28,0-.49,0-.67.04v-.66c.19.03.38.04.67.04h.66c.04-.13.06-.2.09-.34h-.8c-.39,0-.55,0-.74.04v-.29l-.43.57c-.29-.29-.64-.57-1.09-.86l.47-.54c.46.29.75.52,1.05.8v-.38c.22.03.43.04.74.04h.92c.03-.23.04-.34.04-.43v-.08l.8.04c-.02.06-.05.22-.11.48h1.38c.33,0,.56-.01.76-.04v.71c-.19-.03-.39-.04-.74-.04h-1.54c-.03.15-.05.2-.09.34h1.55c.29,0,.48,0,.64-.04v.66c-.19-.03-.36-.04-.63-.04h-.62c.06.13.1.2.19.35h.71c.38,0,.55,0,.74-.04v.72c-.21-.04-.37-.04-.69-.04h-.25c.34.32.66.53,1.13.74-.16.2-.23.33-.37.64-.59-.35-.88-.57-1.22-.93v.57ZM105.66,26.3c-.23.74-.38,1.13-.64,1.66-.07.15-.08.16-.2.39q-.06.1-.08.15l-.64-.57c.11-.11.22-.28.35-.53.24-.45.4-.86.59-1.56l.61.46ZM108.68,25.51c.21,0,.32,0,.44-.01-.12-.15-.18-.22-.3-.38h-1.56c-.11.15-.18.23-.29.38.11,0,.25.01.46.01h1.25ZM108.44,24.48c-.06-.13-.08-.18-.15-.35h-.47c-.06.15-.09.21-.15.35h.78Z"/>
            <path class="cls-4" d="M112.19,23.94c.49.3.76.51,1.13.88l-.5.57c-.38-.42-.61-.61-1.12-.93l.48-.53ZM113.34,26.38c-.2.64-.33,1-.6,1.61l-.27.57-.66-.55s.08-.1.13-.19c.27-.44.54-1.11.78-1.93l.62.48ZM112.52,22.17c.43.3.72.55,1.07.91l-.54.56c-.39-.45-.66-.69-1.06-.96l.53-.51ZM117.17,22.73c.53,0,.74,0,1.01-.04v.75c-.19-.02-.41-.03-.92-.03h-2.63c-.12.19-.2.33-.32.5h2.71c.34,0,.54,0,.73-.02-.01.1-.02.18-.04.39,0,.05-.01.39-.04,1.03.34,0,.44,0,.62-.04v.74c-.22-.03-.38-.04-.59-.04h-.07c-.03.36-.04.59-.07.86.28,0,.38,0,.53-.04v.74c-.17-.02-.29-.03-.53-.03h-.08c-.15.87-.31,1.03-1.04,1.03-.11,0-.2,0-.63-.04,0-.3-.04-.46-.15-.72.27.05.5.07.71.07.26,0,.29-.03.37-.34h-2.37c-.05.22-.06.29-.12.55l-.79-.08c.2-.57.34-1.21.46-2.01h-.11c-.22,0-.35,0-.55.04v-.74c.2.03.35.04.65.04h.08c.06-.53.08-.81.08-1.09-.14.17-.21.25-.43.46-.14-.22-.3-.39-.53-.57.45-.4.66-.65.9-1.06.2-.35.35-.72.39-.99l.8.14q-.15.36-.24.55h2.18ZM115.31,26.84c.05-.32.06-.41.11-.86h-.79c-.04.3-.05.37-.14.86h.81ZM115.49,25.31q.01-.22.04-.76h-.76c-.02.35-.03.43-.06.76h.78ZM116.86,26.84c.04-.32.05-.57.08-.86h-.84c-.03.27-.06.55-.11.86h.87ZM116.97,25.31q.01-.43.02-.76h-.79q-.04.56-.05.76h.82Z"/>
            <path class="cls-4" d="M122.83,24.3h1.49c.37,0,.48,0,.66-.02-.02.22-.03.36-.03.65v1.17c0,.32,0,.44.03.67-.19-.01-.31-.02-.68-.02h-1.48v.36h2.07c.3,0,.51-.01.74-.04v.74c-.25-.03-.49-.04-.79-.04h-2.02c0,.39,0,.57.04.83h-.82c.04-.28.05-.44.05-.83h-1.88c-.3,0-.54.01-.78.04v-.74c.22.03.43.04.73.04h1.93v-.36h-1.36c-.36,0-.48,0-.67.02.02-.24.03-.39.03-.67v-1.17c0-.25,0-.42-.03-.65.18.01.29.02.67.02h1.37v-.35h-1.51c-.27,0-.43,0-.62.03v-.17h-.51c.02-.15.03-.27.03-.5v-.52c0-.21,0-.35-.03-.51.25.02.44.03.74.03h4.64c.34,0,.54,0,.75-.03-.02.14-.03.24-.03.49v.53c0,.22,0,.36.03.51h-.56v.17c-.18-.02-.35-.03-.61-.03h-1.6v.35ZM122.1,22.96h-1.87v.34c.12,0,.2,0,.36,0h1.51v-.35ZM122.1,24.87h-1.27v.38h1.27v-.38ZM122.1,25.78h-1.27v.39h1.27v-.39ZM124.43,23.31c.17,0,.24,0,.38,0v-.34h-1.97v.35h1.6ZM124.22,25.25v-.38h-1.39v.38h1.39ZM124.22,26.17v-.39h-1.39v.39h1.39Z"/>
            <path class="cls-4" d="M128.12,27.66c-.48,0-.65,0-.86.03v-.9c.26.04.38.05.88.05h3.19v-3.05h-3.07c-.5,0-.64,0-.9.04v-.91c.26.04.39.05.9.05h3.37q.36,0,.61-.01c-.02.19-.02.26-.02.58v3.84c0,.35,0,.55.04.72h-.94v-.43h-3.19Z"/>
            <path class="cls-4" d="M135.25,27.59v.49h-.9c.02-.17.03-.34.03-.6v-4.01c0-.27,0-.4-.03-.59.17.01.32.02.6.02h3.98c.3,0,.43,0,.59-.02-.01.18-.02.32-.02.58v4.01c0,.26,0,.45.03.61h-.9v-.48h-3.36ZM138.61,23.69h-3.36v3.1h3.36v-3.1Z"/>
            <path class="cls-4" d="M142.21,23.97c.29.54.43.88.69,1.66l-.79.25c-.18-.71-.32-1.08-.64-1.7l.74-.22ZM146.23,24.02c-.04.11-.06.14-.1.36-.2.95-.52,1.72-.97,2.33-.52.71-1.1,1.16-2.14,1.69-.18-.31-.27-.41-.56-.69.49-.19.78-.34,1.19-.64.82-.6,1.29-1.31,1.59-2.43.09-.34.13-.59.13-.81l.85.2ZM143.7,23.68c.37.69.5,1,.68,1.61l-.78.25c-.13-.53-.34-1.07-.64-1.65l.74-.21Z"/>
            <path class="cls-4" d="M152.19,24.31q0,.07-.01.18c-.09,1.19-.35,1.93-.9,2.59-.45.53-.95.88-1.82,1.28-.18-.36-.28-.5-.58-.77.6-.21,1.01-.44,1.42-.81.64-.57.93-1.29,1-2.48h-1.68c-.41.65-.66.96-1.16,1.42-.27-.29-.38-.37-.71-.55.64-.53,1.11-1.13,1.48-1.93.21-.43.29-.69.35-1l.91.22q-.05.11-.27.6c-.06.13-.13.28-.21.46q.2,0,3.06,0c.5,0,.59,0,.88-.04v.86q-.18-.02-.43-.02c-.09,0-.25,0-.46,0h-.86Z"/>
          </g>
          <g>
            <path class="cls-5" d="M49.23,13.47c-2.17-1.33-2.93-2.31-3.68-4-1,2.1-2.01,3.16-3.89,4.07l-1.06-.95c2.49-1,3.48-2.43,4.03-4.7h-3.74v-1.16h3.87c.04-.47.04-1.02.04-1.18,0-.62-.02-1.09-.04-1.43l1.43.08c.08,0,.18.01.18.13,0,.09-.11.18-.21.27-.02.23-.02.09-.02.62,0,.1-.02,1.01-.04,1.52h4.05v1.16h-3.94c.66,2.07,1.5,3.26,4.13,4.54l-1.11,1.03Z"/>
            <path class="cls-5" d="M52.8,8.32c-.45-.37-.92-.64-1.48-.89l.61-1.02c.59.27,1.12.64,1.46.92l-.6,1ZM53.26,11.38c-.09.23-.55,1.3-.57,1.42-.01.03,0,.23,0,.27,0,.05-.01.13-.11.13-.06,0-.17-.05-.27-.13l-.91-.72c.45-.68,1.08-2.06,1.42-3.1l.95.72c-.15.47-.4,1.11-.52,1.41ZM53.47,6.08c-.47-.5-1.03-.87-1.42-1.11l.74-.89c.53.29.99.65,1.42,1.1l-.74.9ZM60.37,10.2c-.68-.42-1.01-.69-1.4-1.04v.55h-1.01c.01.15.01.31-.01.58h2.1v.89h-1.27c.52.55,1.01.88,2.26,1.17l-.81,1.02c-.8-.27-1.63-.59-2.62-1.86-.48.82-1.06,1.36-2.81,1.86l-.87-1.06c1.26-.11,1.98-.31,2.56-1.14h-1.55v-.89h1.81c.04-.29.04-.47.04-.58h-.87v-.65c-.49.55-.8.84-1.35,1.22l-.97-.79c.65-.34,1.03-.62,1.51-1.13h-1.2v-.93h1.85c.11-.18.18-.37.26-.55h-1.34v-.86h1.62c.04-.11.05-.16.11-.42h-2.1v-.91h2.25c.01-.09.03-.36.05-.56l1.09.02c.17,0,.23.04.23.11s-.04.1-.11.14c-.06.04-.06.08-.09.29h3.05v.91h-3.2c-.01.05-.1.4-.11.42h2.79v.86h-1.63c.05.14.11.29.26.55h1.97v.93h-1.23c.54.5.94.76,1.57,1.06l-.85.79ZM58.26,8.36h-1.83c-.12.17-.18.27-.31.44h2.49c-.13-.15-.24-.29-.34-.44ZM57.49,6.89h-.27c-.05.13-.12.29-.27.55h.76c-.09-.19-.14-.31-.23-.55Z"/>
            <path class="cls-5" d="M63.45,9.06c-.45-.43-1.13-.86-1.49-1.07l.64-.89c.44.22,1.06.62,1.53,1.01l-.68.95ZM63.11,13.26c-.03.06-.03.09-.03.24,0,.04-.01.1-.05.1-.08,0-.18-.08-.26-.14l-.79-.67c.64-.87,1.17-1.8,1.59-2.79l.87.68c-.47,1.06-.82,1.67-1.34,2.58ZM63.78,6.15c-.3-.3-.79-.73-1.27-1.07l.7-.87c.4.28.94.7,1.33,1.07l-.75.87ZM66.23,5.87c-.2.28-.45.59-.9.96l-1-.59c.6-.55,1.22-1.21,1.73-2.35l1.08.37c.1.03.22.09.22.14,0,.04-.05.09-.09.1-.05.01-.17.04-.19.06-.04.03-.15.26-.17.3h4.76v1.01h-5.43ZM70.88,9.69c-.02.43-.03.61-.09,1.11h.74v.99h-.86c-.12.65-.18.92-.43,1.17-.15.15-.57.51-1.55.53l-.55-1.04c1.21.01,1.25-.16,1.36-.66h-3.13c-.06.25-.08.28-.15.52l-1.09-.11c.16-.58.29-1.14.44-2.51h-.78v-.95h.86c.04-.61.08-1.26.04-2.11h5.26c0,.65,0,1.01-.02,2.11h.69v.95h-.74ZM66.68,9.69c-.05.58-.11.92-.13,1.11h.92c.09-.41.15-.94.17-1.11h-.96ZM66.8,7.63c0,.46-.02.92-.03,1.11h.96c.03-.44.06-.78.05-1.11h-.98ZM68.74,9.69c-.03.38-.08.74-.14,1.11h1.04c.04-.4.06-.76.09-1.11h-.99ZM68.87,7.63c0,.46-.02.74-.04,1.11h.95c.02-.59.02-.8.02-1.11h-.93Z"/>
            <path class="cls-5" d="M78.06,12.26v1.14h-1.2v-1.14h-3.98v-.94h3.98v-.55h-2.84v-3.46h2.84v-.53h-2.29v-.84h2.29v-.58h-2.84v1.28h-1.07v-2.21h9.09v2.23h-1.1v-1.3h-2.89v.58h2.35v.84h-2.35v.53h2.82v3.46h-2.82v.55h4.08v.94h-4.08ZM76.86,8.12h-1.65v.54h1.65v-.54ZM76.86,9.41h-1.65v.55h1.65v-.55ZM79.65,8.12h-1.59v.54h1.59v-.54ZM79.65,9.41h-1.59v.55h1.59v-.55Z"/>
            <path class="cls-5" d="M90.82,12.36c-.42.56-.97.7-2.19.71l-.61-1.39c.7.1.93.12,1.1.12.38,0,.53-.09.68-.3.42-.56.7-2.28.74-3.88h-2.21c-.12.55-.37,1.7-1.03,2.89-.91,1.59-1.98,2.27-2.57,2.65l-1.09-.86c.59-.33,1.65-.94,2.49-2.33.58-.97.78-1.85.87-2.35h-2.95v-1.19h3.12c.03-.45.09-1.04.05-2.13l1.27.11c.29.02.3.08.3.14,0,.05-.01.06-.12.16-.1.1-.1.11-.1.26,0,.45-.01.71-.08,1.46h3.38c-.06,3.44-.65,5.35-1.07,5.93Z"/>
            <path class="cls-5" d="M95.24,12.69l-.73-.74v-7.12l1.28.16c.08.01.29.04.29.15,0,.04-.01.06-.11.15-.16.13-.17.14-.17.18v5.41c.43-.11,1.3-.32,2.65-1.22,1.27-.85,2.11-1.73,2.57-2.22l.66,1.19c-1.63,1.81-4.17,3.33-6.44,4.06Z"/>
            <path class="cls-5" d="M103.58,9.44v-1.37h7.66v1.37h-7.66Z"/>
            <path class="cls-5" d="M116.46,6.22s-.23.13-.26.17c-.04.04-.22.78-.26.92-.79,2.65-1.85,4.08-2.35,4.75l-1.37-.54c1.49-1.61,2.39-3.86,2.74-5.85l1.3.29s.26.06.26.17c0,.04-.03.07-.06.09ZM120.49,11.72c-.38-1.75-1.43-4.18-2.51-5.52l1.12-.64c.96,1.25,2.13,3.52,2.74,5.54l-1.35.61ZM121.19,6.63c-.55,0-1.01-.46-1.01-1.04s.45-1.03,1.01-1.03,1.02.47,1.02,1.03-.46,1.04-1.02,1.04ZM121.19,4.98c-.34,0-.59.29-.59.6,0,.33.27.61.59.61s.6-.27.6-.61c0-.32-.26-.6-.6-.6Z"/>
            <path class="cls-5" d="M125.88,7.14c-.61-.51-1.35-.97-2.21-1.36l.66-1.01c.71.31,1.58.78,2.26,1.33l-.71,1.03ZM129.03,10.07c-1.7,1.38-2.73,1.83-4.06,2.4-.05.15-.08.33-.16.33-.06,0-.16-.06-.24-.21l-.75-1.29c.86-.21,2.27-.57,4-1.86,1.65-1.23,2.68-2.65,3.16-3.3l.74,1.08c-.42.56-1.26,1.69-2.68,2.84Z"/>
          </g>
        </g>
      </g>
    </g>
  </g>
</svg>