<?xml version="1.0" encoding="UTF-8"?>
<svg xmlns="http://www.w3.org/2000/svg" viewBox="0 0 167.6 27.18">
  <defs>
    <style>
      .cls-1, .cls-2 {
        fill: #b28247;
      }

      .cls-3 {
        isolation: isolate;
      }

      .cls-4 {
        fill: #231815;
      }

      .cls-5 {
        fill: #fff;
      }

      .cls-2 {
        mix-blend-mode: multiply;
      }
    </style>
  </defs>
  <g class="cls-3">
    <g id="_レイヤー_2" data-name="レイヤー_2">
      <g id="_テキスト_xFF08_B_xFF09_" data-name="テキスト_xFF08_B_xFF09_">
        <g>
          <rect class="cls-1" width="167.6" height="17.49"/>
          <rect class="cls-2" x="0" width="8.29" height="17.49"/>
          <g>
            <path class="cls-4" d="M1.59,20.83c-.08.24-.12.42-.25,1.35-.05.29-.08.53-.09.7h.02s.01-.04.04-.15c.07-.25.25-.59.43-.83.37-.48.8-.71,1.29-.71.46,0,.87.22,1.16.63.34.47.49,1.04.49,1.86,0,1.35-.61,2.36-1.76,2.88-.35.16-.82.3-1.33.39-.14-.4-.21-.55-.4-.83.68-.08,1.08-.18,1.49-.4.79-.41,1.15-1.08,1.15-2.14,0-1.01-.33-1.57-.91-1.57-.26,0-.5.12-.74.37-.53.57-.86,1.43-.86,2.26v.15h-.82s0-.06,0-.08v-.13c0-.2-.02-.72-.02-.86,0-.57.04-1.34.09-1.83l.1-.87c.01-.12.02-.15.02-.24l.86.05Z"/>
            <path class="cls-4" d="M7.31,23.97s.04-.05.13-.15c.22-.25.57-.41.88-.41s.61.16.76.4c.14.22.17.48.17,1.28,0,.5.03.64.15.75.07.06.2.1.36.1.36,0,.65-.26.85-.75.12-.31.22-.75.26-1.11.22.24.33.31.75.53-.29,1.45-.96,2.18-1.99,2.18-.52,0-.9-.21-1.07-.61-.07-.18-.12-.43-.12-.78v-.07c0-.25,0-.42,0-.49,0-.22-.01-.32-.05-.41-.05-.1-.17-.16-.31-.16-.37,0-.75.35-1.08.98-.2.4-.48,1.18-.57,1.6l-.88-.29c.1-.2.16-.37.38-.98q1.56-4.48,1.61-4.76l.92.24c-.1.19-.13.27-.33.8-.39,1.02-.69,1.79-.84,2.12h.01Z"/>
            <path class="cls-4" d="M14.08,24.16c-.43.37-.62.67-.62.97,0,.46.5.65,1.65.65.81,0,1.7-.13,2.14-.3l.08.96c-.12,0-.14,0-.3.03-.82.13-1.25.16-1.84.16-.74,0-1.34-.08-1.7-.23-.59-.24-.87-.62-.87-1.17s.26-1,.88-1.53l.59.46ZM13.05,21.28c.52.13,1.13.17,2.04.17.86,0,1.35-.04,1.8-.13l.03.79c-.41.18-1.25.72-1.82,1.16l-.59-.48c.43-.28.5-.33.67-.43.07-.04.09-.06.18-.11.05-.03.06-.03.15-.08-.3.04-.59.06-1.02.06-.35,0-.91-.04-1.25-.08-.08,0-.13-.01-.16-.01-.01,0-.05,0-.09,0l.06-.83ZM16.64,22.83c.3.33.48.59.71,1.03l-.48.26c-.22-.43-.42-.71-.71-1.04l.48-.25ZM17.69,23.68c-.2-.39-.43-.71-.69-1.02l.46-.25c.31.32.5.59.71.99l-.47.27Z"/>
            <path class="cls-4" d="M19.42,22.74c.63.26,1.3.61,1.81.95l-.42.79c-.45-.36-1.22-.78-1.84-1.02l.46-.72ZM19.11,25.88c.53,0,1.25-.17,1.97-.46,1.25-.45,2.27-1.6,2.76-3.09.26.29.39.41.71.62-.84,2.12-2.28,3.27-4.72,3.76-.29.06-.35.08-.48.12l-.24-.96ZM19.94,21.05c.64.25,1.32.59,1.81.9l-.44.77c-.55-.38-1.32-.8-1.82-.96l.44-.71ZM23.48,20.91c.3.33.48.6.71,1.03l-.48.26c-.22-.43-.42-.71-.71-1.04l.48-.25ZM24.54,21.75c-.2-.38-.43-.71-.69-1.02l.46-.25c.31.32.5.59.71.99l-.47.27Z"/>
            <path class="cls-4" d="M29.56,25.94c.31,0,.44,0,.63-.04v.8c-.18-.02-.34-.03-.63-.03h-3.53c-.3,0-.44,0-.63.03v-.8c.19.04.31.04.63.04h2.01c.12-.62.26-1.61.33-2.25h-1.69c-.33,0-.43,0-.61.03v-.79c.17.03.36.04.63.04h1.72c.24,0,.34-.01.5-.06l.38.34q-.08.22-.16.8c-.1.77-.18,1.27-.29,1.9h.71Z"/>
            <path class="cls-4" d="M30.98,23.38c.3.04.43.05,1.1.05h3.63c.67,0,.8,0,1.1-.05v.97c-.27-.04-.35-.04-1.11-.04h-3.61c-.76,0-.84,0-1.11.04v-.97Z"/>
            <path class="cls-4" d="M42.17,26.78c-.57-.71-1.35-1.5-2.09-2.08-.77.88-1.55,1.5-2.59,2.02-.19-.36-.27-.48-.55-.78.52-.21.85-.4,1.36-.77,1.03-.74,1.84-1.76,2.29-2.85l.08-.18q-.11,0-2.25.04c-.33,0-.51.02-.74.06l-.03-.9c.19.04.32.04.6.04h.16l2.4-.04c.38,0,.44-.01.61-.08l.45.48c-.09.11-.14.2-.22.38-.31.75-.65,1.36-1.06,1.93.43.29.8.59,1.26,1.02q.17.15.99.97l-.65.73Z"/>
            <path class="cls-4" d="M49.35,20.6l-5.16,6.58h-1l5.15-6.58h1.01Z"/>
            <path class="cls-4" d="M54.17,23.65h.82c.25,0,.35,0,.45-.02v.49c-.11-.01-.22-.02-.45-.02h-.82v.24h.97c.2,0,.4,0,.54-.03v.55c-.16-.03-.31-.03-.54-.03h-2.8c-.2,0-.33,0-.48.02.02-.18.02-.27.02-.5v-.99c-.1.11-.13.14-.25.27-.12-.15-.22-.26-.36-.38t.01.08c.06.41.09.94.09,1.55,0,.98-.08,1.56-.26,1.89-.13.22-.31.32-.62.32-.22,0-.38-.01-.73-.07-.01-.29-.04-.46-.12-.73.32.08.5.12.65.12.21,0,.31-.13.35-.47.04-.36.05-.64.05-1.15,0-.02,0-.22,0-.46-.25.43-.5.72-.88,1.07-.12-.26-.22-.41-.4-.6.35-.28.53-.46.82-.82.18-.23.31-.43.39-.59-.03-.27-.09-.56-.15-.78-.17.17-.33.3-.6.49-.12-.25-.23-.41-.42-.6.34-.22.53-.37.74-.57-.17-.32-.35-.59-.52-.74l.59-.42q.06.08.21.3c.06.08.11.16.22.35.18-.22.37-.54.47-.79l.57.44h0c.16.03.32.04.49.04h.23v-.05c0-.17,0-.25-.03-.36h.73c-.02.11-.02.17-.02.36v.05h.95v-.05c0-.2,0-.26-.03-.36h.74c-.02.11-.03.18-.03.36v.05h.39c.26,0,.46-.01.66-.04v.64c-.18-.02-.42-.04-.67-.04h-.38c0,.17,0,.24.03.34h-.44c-.04.08-.09.16-.15.26h.9c.26,0,.43,0,.56-.03v.53c-.15-.02-.28-.03-.55-.03h-.91v.22h.8c.25,0,.34,0,.44-.02v.49c-.12-.01-.21-.02-.44-.02h-.8v.23ZM51.56,21.29c-.26.4-.37.53-.59.78.12.33.22.69.28,1.04.19-.16.39-.38.55-.62.18-.26.33-.55.37-.71l.25.08s0-.07,0-.18h-.22c-.22,0-.44.01-.65.04v-.42ZM55.39,25.42c-.48.43-.71.62-1.11.84.52.12.91.17,1.6.2-.12.2-.16.29-.25.56l-.03.12c-.9-.14-1.57-.31-2.08-.51-.6.25-1.19.4-1.97.51-.08-.26-.12-.34-.29-.61.63-.04.93-.09,1.52-.25-.26-.14-.37-.21-.63-.39l.53-.27h-.41c-.2,0-.44.01-.63.04v-.62c.2.03.37.04.65.04h2.21c.24,0,.39,0,.52-.03l.37.38ZM53.55,22.97v-.22h-1.02v.22h1.02ZM52.53,23.65h1.02v-.23h-1.02v.23ZM52.53,24.09v.24h1.02v-.24h-1.02ZM53.5,22.27c.08-.13.15-.27.22-.47l.33.08c0-.08,0-.1,0-.21h-.95c0,.18,0,.25.02.33h-.37s-.02.04-.14.27h.88ZM52.81,25.61c.29.2.48.32.7.41.35-.15.51-.23.75-.41h-1.45Z"/>
            <path class="cls-4" d="M58.29,23.25c.2-.22.34-.35.83-.73.59-.46,1.02-.66,1.44-.66.57,0,.95.37.95.93,0,.23-.05.53-.17,1.07-.23,1.06-.29,1.35-.29,1.58s.1.35.28.35c.15,0,.33-.14.48-.36.16-.25.31-.55.4-.8.15.37.23.52.46.84-.2.36-.3.5-.48.69-.3.34-.63.5-1.01.5-.22,0-.44-.07-.58-.18-.25-.2-.35-.46-.35-.88s.03-.6.28-1.76c.1-.45.14-.72.14-.88s-.1-.26-.28-.26c-.22,0-.51.13-.84.38-.5.38-.98.82-1.24,1.14-.01.32-.01.51-.01.71q0,.06,0,.83c0,.88,0,.9.03,1.16h-.88q.04-.29.05-1.11t.01-.94h-.01c-.06.11-.14.2-.48.6-.15.17-.24.29-.31.4l-.39-.83c.16-.11.27-.22.44-.4q.64-.65.77-.8c0-.34,0-.41.02-.69,0-.16,0-.18,0-.36-.72.05-.86.06-1.04.1l-.04-.79c.12.01.18.01.28.01.13,0,.5-.02.82-.04q0-.11.01-.27c0-.2,0-.41,0-.57,0-.18,0-.23-.02-.39h.86c-.02.1-.02.11-.03.27,0,.04,0,.13-.02.27,0,.14-.01.2-.03.62,0,0,.03-.01.08-.03l.25.29c-.07.06-.1.08-.2.21t-.1.13s-.04.06-.08.11v.41s-.02.04-.03.13h0Z"/>
            <path class="cls-4" d="M63.29,21.9c.25.04.52.06.91.06.08,0,.16,0,.31,0,.06-.34.13-.88.13-1.07,0-.03,0-.07,0-.13l.9.08q-.05.16-.13.67c-.03.2-.04.24-.07.4.5-.05.82-.1,1.16-.21l.03.81q-.05,0-.22.04c-.35.07-.89.14-1.12.15-.07.43-.25,1.18-.42,1.81-.2.73-.31,1.08-.76,2.32l-.86-.34c.47-.89.99-2.52,1.22-3.77-.05,0-.08,0-.09,0h-.39s-.1,0-.22,0c-.12,0-.22,0-.27,0-.03,0-.07,0-.13,0v-.81ZM66.66,24.62c-.27.35-.35.52-.35.77,0,.36.34.54,1.02.54.5,0,1.15-.11,1.54-.26l.06.86c-.12.01-.18.02-.33.05-.57.08-.86.11-1.27.11-.61,0-1.04-.09-1.37-.28-.29-.18-.48-.51-.48-.86,0-.37.13-.69.5-1.21l.67.28ZM68.69,23.7c-.33-.04-.52-.05-.86-.05-.67,0-1.12.05-1.8.2l-.06-.77c.97-.19,1.29-.22,2.03-.22.18,0,.25,0,.67,0v.83Z"/>
            <path class="cls-4" d="M69.58,21.69c.15,0,.22,0,.26,0q.12,0,1.12-.07c.38-.02,1.51-.08,3.4-.17.56-.03.66-.04.78-.07l.05.9q-.08,0-.14,0c-.41,0-.91.14-1.35.38-.86.46-1.38,1.16-1.38,1.87,0,.55.33.97.91,1.14.33.11.77.18,1.01.18,0,0,.07,0,.14,0l-.12.95c-.08-.02-.12-.03-.23-.04-.75-.1-1.18-.22-1.59-.46-.63-.36-.97-.96-.97-1.69,0-.6.23-1.18.65-1.65.26-.29.5-.47.95-.7-.55.08-.82.11-2.29.22-.46.04-.86.08-1.13.14l-.05-.91Z"/>
            <path class="cls-4" d="M77.63,20.83c-.08.24-.12.42-.25,1.35-.05.29-.08.53-.09.7h.02s.01-.04.04-.15c.07-.25.25-.59.43-.83.37-.48.8-.71,1.29-.71.46,0,.87.22,1.16.63.34.47.49,1.04.49,1.86,0,1.35-.61,2.36-1.76,2.88-.35.16-.82.3-1.33.39-.14-.4-.21-.55-.4-.83.68-.08,1.08-.18,1.49-.4.79-.41,1.15-1.08,1.15-2.14,0-1.01-.33-1.57-.91-1.57-.26,0-.5.12-.74.37-.53.57-.86,1.43-.86,2.26v.15h-.82s0-.06,0-.08v-.13c0-.2-.02-.72-.02-.86,0-.57.04-1.34.09-1.83l.1-.87c.01-.12.02-.15.02-.24l.86.05Z"/>
            <path class="cls-4" d="M83.35,23.97s.04-.05.13-.15c.22-.25.57-.41.88-.41s.61.16.76.4c.14.22.17.48.17,1.28,0,.5.03.64.15.75.07.06.2.1.36.1.36,0,.65-.26.85-.75.12-.31.22-.75.26-1.11.22.24.33.31.75.53-.29,1.45-.96,2.18-1.99,2.18-.52,0-.9-.21-1.07-.61-.07-.18-.12-.43-.12-.78v-.07c0-.25,0-.42,0-.49,0-.22-.01-.32-.05-.41-.05-.1-.17-.16-.31-.16-.37,0-.75.35-1.08.98-.21.4-.48,1.18-.57,1.6l-.88-.29c.1-.2.16-.37.37-.98q1.57-4.48,1.61-4.76l.92.24c-.1.19-.13.27-.33.8-.39,1.02-.69,1.79-.84,2.12h.01Z"/>
            <path class="cls-4" d="M90.12,24.16c-.43.37-.62.67-.62.97,0,.46.5.65,1.65.65.81,0,1.7-.13,2.14-.3l.08.96c-.12,0-.14,0-.3.03-.82.13-1.25.16-1.84.16-.74,0-1.34-.08-1.7-.23-.58-.24-.87-.62-.87-1.17s.27-1,.88-1.53l.59.46ZM89.09,21.28c.52.13,1.13.17,2.04.17.86,0,1.35-.04,1.8-.13l.03.79c-.41.18-1.25.72-1.82,1.16l-.59-.48c.43-.28.5-.33.67-.43.07-.04.09-.06.18-.11.05-.03.06-.03.15-.08-.3.04-.59.06-1.02.06-.35,0-.91-.04-1.25-.08-.08,0-.13-.01-.16-.01-.01,0-.05,0-.09,0l.06-.83ZM92.68,22.83c.3.33.48.59.71,1.03l-.48.26c-.22-.43-.42-.71-.71-1.04l.48-.25ZM93.74,23.68c-.2-.39-.43-.71-.69-1.02l.46-.25c.31.32.5.59.71.99l-.47.27Z"/>
            <path class="cls-4" d="M100.38,20.6l-5.16,6.58h-1l5.15-6.58h1.01Z"/>
            <path class="cls-4" d="M105.19,23.65h.82c.25,0,.35,0,.45-.02v.49c-.11-.01-.22-.02-.45-.02h-.82v.24h.97c.2,0,.4,0,.54-.03v.55c-.16-.03-.31-.03-.54-.03h-2.8c-.2,0-.33,0-.48.02.02-.18.02-.27.02-.5v-.99c-.1.11-.13.14-.25.27-.12-.15-.22-.26-.36-.38t.01.08c.06.41.09.94.09,1.55,0,.98-.08,1.56-.26,1.89-.13.22-.31.32-.62.32-.22,0-.38-.01-.73-.07-.01-.29-.04-.46-.12-.73.32.08.5.12.65.12.21,0,.31-.13.35-.47.04-.36.05-.64.05-1.15,0-.02,0-.22,0-.46-.25.43-.5.72-.88,1.07-.12-.26-.22-.41-.4-.6.35-.28.53-.46.82-.82.18-.23.31-.43.39-.59-.03-.27-.09-.56-.15-.78-.17.17-.33.3-.6.49-.12-.25-.23-.41-.42-.6.34-.22.53-.37.74-.57-.17-.32-.35-.59-.52-.74l.59-.42q.06.08.21.3c.06.08.11.16.22.35.18-.22.37-.54.47-.79l.57.44h0c.16.03.32.04.49.04h.23v-.05c0-.17,0-.25-.03-.36h.73c-.02.11-.02.17-.02.36v.05h.95v-.05c0-.2,0-.26-.03-.36h.74c-.02.11-.03.18-.03.36v.05h.39c.26,0,.46-.01.66-.04v.64c-.18-.02-.42-.04-.67-.04h-.38c0,.17,0,.24.03.34h-.44c-.04.08-.09.16-.15.26h.9c.26,0,.43,0,.56-.03v.53c-.15-.02-.28-.03-.55-.03h-.91v.22h.8c.25,0,.34,0,.44-.02v.49c-.12-.01-.21-.02-.44-.02h-.8v.23ZM102.59,21.29c-.26.4-.37.53-.59.78.12.33.22.69.28,1.04.19-.16.39-.38.55-.62.18-.26.33-.55.37-.71l.25.08s0-.07,0-.18h-.22c-.22,0-.44.01-.65.04v-.42ZM106.41,25.42c-.48.43-.71.62-1.11.84.52.12.91.17,1.6.2-.12.2-.16.29-.25.56l-.03.12c-.9-.14-1.57-.31-2.08-.51-.6.25-1.19.4-1.97.51-.08-.26-.12-.34-.29-.61.63-.04.93-.09,1.52-.25-.26-.14-.37-.21-.63-.39l.53-.27h-.41c-.2,0-.44.01-.63.04v-.62c.2.03.37.04.65.04h2.21c.24,0,.39,0,.52-.03l.37.38ZM104.57,22.97v-.22h-1.02v.22h1.02ZM103.55,23.65h1.02v-.23h-1.02v.23ZM103.55,24.09v.24h1.02v-.24h-1.02ZM104.53,22.27c.08-.13.15-.27.22-.47l.33.08c0-.08,0-.1,0-.21h-.95c0,.18,0,.25.02.33h-.37s-.02.04-.14.27h.88ZM103.83,25.61c.29.2.48.32.7.41.35-.15.51-.23.75-.41h-1.45Z"/>
            <path class="cls-4" d="M109.32,23.25c.2-.22.34-.35.83-.73.59-.46,1.02-.66,1.44-.66.57,0,.95.37.95.93,0,.23-.05.53-.17,1.07-.23,1.06-.29,1.35-.29,1.58s.1.35.28.35c.15,0,.33-.14.48-.36.16-.25.31-.55.4-.8.15.37.23.52.46.84-.21.36-.3.5-.48.69-.3.34-.63.5-1.01.5-.22,0-.44-.07-.58-.18-.25-.2-.35-.46-.35-.88s.03-.6.28-1.76c.1-.45.14-.72.14-.88s-.1-.26-.28-.26c-.22,0-.51.13-.84.38-.5.38-.98.82-1.24,1.14-.01.32-.01.51-.01.71q0,.06,0,.83c0,.88,0,.9.03,1.16h-.88q.04-.29.05-1.11t.01-.94h-.01c-.06.11-.14.2-.48.6-.15.17-.25.29-.31.4l-.39-.83c.16-.11.27-.22.44-.4q.64-.65.77-.8c0-.34,0-.41.02-.69,0-.16,0-.18,0-.36-.72.05-.86.06-1.04.1l-.04-.79c.12.01.18.01.28.01.13,0,.5-.02.82-.04q0-.11.01-.27c0-.2,0-.41,0-.57,0-.18,0-.23-.02-.39h.86c-.02.1-.02.11-.03.27,0,.04,0,.13-.02.27,0,.14-.01.2-.03.62,0,0,.03-.01.08-.03l.25.29c-.07.06-.1.08-.2.21t-.1.13s-.04.06-.08.11v.41s-.02.04-.03.13h0Z"/>
            <path class="cls-4" d="M114.31,21.9c.25.04.52.06.91.06.08,0,.16,0,.31,0,.06-.34.13-.88.13-1.07,0-.03,0-.07,0-.13l.9.08q-.05.16-.13.67c-.03.2-.04.24-.07.4.5-.05.82-.1,1.16-.21l.03.81q-.05,0-.22.04c-.35.07-.89.14-1.12.15-.07.43-.25,1.18-.42,1.81-.2.73-.31,1.08-.76,2.32l-.86-.34c.47-.89.99-2.52,1.22-3.77-.05,0-.08,0-.09,0h-.39s-.1,0-.22,0c-.12,0-.22,0-.27,0-.03,0-.07,0-.13,0v-.81ZM117.69,24.62c-.27.35-.35.52-.35.77,0,.36.34.54,1.02.54.5,0,1.15-.11,1.54-.26l.06.86c-.12.01-.18.02-.33.05-.57.08-.86.11-1.27.11-.61,0-1.04-.09-1.37-.28-.29-.18-.48-.51-.48-.86,0-.37.13-.69.5-1.21l.67.28ZM119.71,23.7c-.33-.04-.52-.05-.86-.05-.67,0-1.12.05-1.8.2l-.06-.77c.97-.19,1.29-.22,2.03-.22.18,0,.25,0,.67,0v.83Z"/>
            <path class="cls-4" d="M120.2,21.69c.15,0,.22,0,.26,0q.12,0,1.12-.07c.38-.02,1.51-.08,3.4-.17.56-.03.66-.04.78-.07l.05.9q-.08,0-.14,0c-.41,0-.91.14-1.35.38-.86.46-1.38,1.16-1.38,1.87,0,.55.33.97.91,1.14.33.11.77.18,1.01.18,0,0,.07,0,.14,0l-.12.95c-.08-.02-.12-.03-.23-.04-.75-.1-1.18-.22-1.59-.46-.63-.36-.97-.96-.97-1.69,0-.6.23-1.18.65-1.65.26-.29.5-.47.95-.7-.55.08-.82.11-2.29.22-.46.04-.86.08-1.13.14l-.05-.91Z"/>
            <path class="cls-4" d="M128.72,22.01c-.62.08-1.15.14-1.89.2-.08-.29-.12-.41-.26-.71,1.95-.06,3.88-.42,4.74-.89l.5.68q-.1.03-.33.09s-.07.02-.15.05c-.67.21-1.2.34-1.86.46v.81l1.82-.18c.46-.04.59-.06.78-.11l.05.76c-.07,0-.1,0-.16,0-.14,0-.39.01-.61.04l-1.87.19v.8l2.2-.19c.42-.04.56-.06.78-.11l.05.78c-.09,0-.14,0-.19,0-.14,0-.36.01-.59.04l-2.25.2v1.07c0,.27.12.3,1.05.3s1.16-.03,1.25-.21c.05-.12.08-.35.08-.73v-.16c.24.11.46.18.71.22-.03.84-.14,1.21-.39,1.38-.22.13-.75.2-1.77.2-.84,0-1.18-.05-1.43-.19-.18-.11-.25-.29-.25-.64v-1.18l-1.48.13c-.37.04-.51.05-.78.1l-.05-.79c.09.01.12.01.17.01.09,0,.42-.02.61-.04l1.53-.14v-.79l-1.18.12c-.46.04-.58.06-.78.11l-.05-.77c.08,0,.12,0,.16,0,.16,0,.39-.01.62-.04l1.23-.12v-.77Z"/>
            <path class="cls-4" d="M136.7,26.11c.26-.48.42-.9.56-1.43l.77.24c-.18.47-.37.88-.54,1.19h1.03c.33,0,.59-.01.85-.04v.81c-.25-.03-.51-.04-.85-.04h-4.43c-.33,0-.59.01-.87.04v-.81c.27.03.53.04.87.04h2.62ZM139.18,21.69c-.25-.03-.52-.04-.86-.04h-4.12c-.33,0-.59.01-.85.04v-.78c.25.04.52.05.86.05h4.1c.36,0,.63-.01.88-.05v.78ZM134.01,22.9c0-.28,0-.45-.03-.67.22.03.42.04.76.04h3.04c.35,0,.56,0,.78-.04-.03.2-.03.37-.03.65v1.09c0,.29,0,.48.03.67-.22-.03-.42-.04-.71-.04h-3.15c-.31,0-.49,0-.72.04.03-.21.03-.39.03-.69v-1.04ZM135.28,24.68c.2.36.33.65.47,1.11l-.7.29c-.11-.38-.25-.74-.46-1.16l.69-.23ZM134.74,23.92h3.06v-.99h-3.06v.99Z"/>
            <path class="cls-4" d="M141.8,27.18c-.38-.56-.55-.87-.74-1.38-.24-.64-.36-1.26-.36-1.93s.11-1.24.35-1.87c.2-.51.36-.82.75-1.38h.95c-.48.62-.67.93-.86,1.39-.24.58-.35,1.17-.35,1.86s.12,1.34.36,1.92c.19.46.38.77.86,1.39h-.95Z"/>
            <path class="cls-4" d="M148.43,21.43c-.46.41-.5.45-.79.67-.42.29-.7.48-1.06.71.15.1.16.1.32.22l-.2.21h1.22c.39,0,.61-.01.76-.03l.43.47s-.16.2-.44.6c-.32.43-.58.71-1.08,1.16-.22-.25-.35-.37-.6-.53.5-.38.68-.56.99-.95h-1.58v2.41c0,.57-.22.73-1.06.73-.22,0-.56,0-.78-.02-.04-.31-.09-.5-.2-.78.41.06.65.07.99.07.22,0,.27-.04.27-.19v-2.22h-1.8c-.38,0-.62.01-.86.04v-.79c.22.03.45.04.89.04h2.1c-.58-.43-.92-.66-1.5-.99l.5-.48c.45.25.6.35,1,.61.35-.19.49-.28,1.08-.72h-2.65c-.44,0-.59,0-.82.03v-.78c.24.04.44.04.84.04h3.03c.3,0,.42,0,.58-.03l.42.51Z"/>
            <path class="cls-4" d="M152.19,23.37h-1c-.3,0-.49,0-.69.04v-.74c.18.03.38.03.69.03h2.61c.32,0,.52,0,.7-.03v.74c-.19-.03-.39-.04-.7-.04h-.89v.9h1.29c.31,0,.48,0,.67-.04v.75c-.2-.03-.37-.04-.67-.04h-1.29v1.21c.33.05.71.07,1.11.07s.86-.02,1.55-.08c-.11.29-.16.48-.19.8-.56.01-.91.02-1.45.02-1.59,0-2.48-.36-3.04-1.21-.22.48-.48.87-.93,1.37-.18-.26-.27-.35-.58-.57.56-.52.95-1.19,1.17-1.98.08-.29.13-.6.14-.76l.75.15c-.03.12-.03.13-.09.41-.03.14-.08.3-.18.63.27.5.55.76,1.04.97v-2.6ZM152.08,21.13c0-.18-.01-.29-.04-.45h.84c-.03.15-.03.26-.03.44v.27h1.84c.27,0,.5,0,.76-.03-.02.16-.03.32-.03.52v.55c0,.2,0,.36.03.55h-.74v-.88h-4.4v.88h-.75c.03-.17.03-.31.03-.55v-.54c0-.18-.01-.36-.03-.52.25.02.48.03.75.03h1.78v-.26Z"/>
            <path class="cls-4" d="M155.94,27.18c.48-.62.67-.93.86-1.39.25-.58.36-1.2.36-1.92s-.11-1.28-.35-1.86c-.2-.46-.39-.78-.87-1.39h.96c.38.55.54.86.74,1.38.24.64.35,1.21.35,1.87s-.12,1.29-.35,1.93c-.2.51-.36.82-.74,1.38h-.96Z"/>
            <path class="cls-4" d="M161.6,24.27q0-.17.02-.77c-.16.29-.33.53-.57.81-.1-.29-.18-.48-.35-.83.5-.51.9-1.17,1.2-1.93.14-.35.23-.69.27-.95l.77.24c-.05.16-.07.2-.14.4-.16.47-.25.71-.48,1.16v3.9c0,.33.01.58.03.85h-.8c.03-.25.04-.48.04-.85v-2.02ZM163.88,23.5v2.45c0,.14.03.18.18.22.17.04.37.06.86.06.77,0,1.06-.03,1.21-.13.07-.05.14-.17.16-.32.02-.13.03-.22.05-.55.3.13.42.16.74.22-.08.8-.17,1.07-.38,1.24-.26.19-.71.25-1.95.25s-1.59-.14-1.59-.7v-2.49c-.06.02-.11.04-.14.04-.2.07-.27.1-.39.16l-.06-.8c.16-.02.36-.07.59-.14v-.83c0-.33,0-.52-.04-.74h.8c-.03.2-.04.38-.04.71v.62l.7-.23v-1.14c0-.28-.01-.46-.04-.7h.79c-.03.22-.04.39-.04.68v.93l.99-.33c.27-.08.42-.15.55-.21,0,.15,0,.2,0,.38-.01.84-.06,1.81-.12,2.26-.07.52-.24.68-.76.68-.13,0-.2,0-.37-.02-.03-.27-.08-.43-.19-.71.18.04.35.06.46.06.15,0,.18-.05.22-.38.03-.27.05-.74.05-1.29l-.83.28v1.82c0,.29,0,.46.04.7h-.79c.03-.22.04-.4.04-.72v-1.56l-.7.23Z"/>
          </g>
          <g>
            <path class="cls-5" d="M34.73,10.05c-.17-.15-.42-.38-.62-.67v4.12h-1.1v-3.75c-.25.55-.5,1-.98,1.63l-.88-.65c.73-.83,1.4-2.29,1.72-3.72h-1.33v-1.01h1.46v-1.8l.98.08c.09.01.31.02.31.13,0,.05-.04.1-.09.13-.04.03-.11.09-.11.12v1.35h1.18v1.01h-1.18v.59c.23.52.63,1.07,1.29,1.62l-.67.83ZM40.49,12.83c-1.03-.89-1.43-1.37-1.82-1.95v2.62h-1.09v-2.77c-.44.63-1.28,1.64-2.22,2.41l-.88-.78c.96-.73,2.17-1.97,2.68-3.23h-1.55v-1.04h1.97v-1.11h-.96c-.24.5-.37.67-.44.79l-.93-.47c.65-.89.91-1.78,1.03-2.54l.92.22c.23.05.23.11.23.14,0,.06-.02.09-.11.12-.02.01-.12.05-.12.08-.09.31-.13.47-.19.67h.57v-1.75l1.08.08c.09.01.29.02.29.14,0,.05-.04.1-.09.12-.17.14-.19.15-.19.2v1.21h2.03v1.01h-2.03v1.11h2.17v1.04h-1.97c.27.75.99,1.88,2.42,2.84l-.8.85Z"/>
            <path class="cls-5" d="M47.31,12.52c-.94.18-3.12.59-3.13.59-.11.02-.64.1-.75.12-.25.04-.4.08-.52.2-.14.16-.15.18-.23.18-.04,0-.13-.02-.14-.12l-.21-1.33c.59-.08.97-.13,1.89-.25v-2.22h-1.68v-1.16h4.37v1.16h-1.38v2.04c.7-.09.93-.12,1.83-.25l-.05,1.02ZM50.52,13.43c-1.16,0-2.19-1.75-2.58-2.66-.67-1.51-.81-2.62-.92-3.48h-4.68v-1.16h4.57c-.07-.86-.1-1.24-.1-1.85l.97.12c.3.03.48.06.48.22,0,.05-.03.09-.12.13-.12.06-.13.11-.13.15.03.65.03.81.04,1.24h3.42v1.16h-3.34c.12.7.37,2.21,1.23,3.64.41.69.76.98,1.01.98s.45-.75.52-1l.87.82c-.09.32-.5,1.7-1.25,1.7ZM50.24,6.11c-.54-.51-1.13-.88-1.45-1.09l.6-.81c.54.26,1.02.56,1.55.97l-.7.93Z"/>
            <path class="cls-5" d="M61.37,8.18c-.55-.18-.92-.39-1.24-.57v.92h-5.19v-.88c-.55.33-.87.5-1.35.7l-.82-.95c1.83-.72,2.95-1.72,3.93-3.29l1.54.27c.09.01.16.06.16.14,0,.07-.04.12-.1.14.53.6,1.14,1.12,1.82,1.54.38.23,1.24.7,2.09.95l-.85,1.03ZM60.66,13.56c-.11-.16-.24-.4-.71-.96-1.48.18-3.9.45-4.21.48-.23.02-1.37.12-1.63.16-.05.01-.09.03-.11.08-.07.13-.1.16-.13.16s-.09-.04-.1-.1l-.34-1.41c.68,0,.98-.01,1.52-.03.27-.43.5-.81.98-1.73h-2.45v-1.04h7.92v1.04h-2.27c.93.73,1.88,1.72,2.51,2.54l-.98.81ZM57.46,5.34c-.78.95-1.35,1.48-2.23,2.11h4.63c-.92-.6-1.55-1.1-2.4-2.11ZM58.24,11l.78-.79h-1.62c-.51.89-.82,1.37-1.01,1.66.9-.04,1.8-.1,2.69-.21-.15-.14-.41-.38-.84-.67Z"/>
            <path class="cls-5" d="M67.1,10.83c-.32-.24-.72-.54-1.17-1.03v3.66h-1.13v-3.02c-.37.32-.59.51-.95.73l-.81-.83c1.19-.73,2.18-1.76,2.85-2.98h-2.41v-1.16h1.29v-1.92l1.25.14c.06.01.12.04.12.1,0,.04-.04.09-.08.11-.15.15-.17.17-.17.21v1.36h1.16l.48.49c-.16.41-.4.97-1.18,2.04.51.58.87.87,1.39,1.21l-.65.91ZM66.57,13.26v-1.16h2.54v-3.6h-1.63v-1.16h1.63v-3.08l1.33.13c.05,0,.12.04.12.1,0,.03-.02.08-.05.11-.09.09-.15.14-.15.18v2.56h1.97v1.16h-1.97v3.6h2.24v1.16h-6.02Z"/>
            <path class="cls-5" d="M78.84,13.22c-1.35,0-3.26-.37-3.38-2.62h1.45c.06,1.26,1.22,1.4,1.8,1.4.37,0,1.93-.04,1.93-1.15,0-.57-.34-.79-1.06-.95l-1.9-.42c-1.01-.23-2.11-.8-2.11-2.29,0-1.69,1.63-2.35,3.17-2.35.66,0,1.65.12,2.37.78.45.41.62.79.78,1.7h-1.46c-.05-1.19-1.31-1.25-1.71-1.25-.26,0-1.72.02-1.72,1.04,0,.45.27.81,1.11.99l2.05.45c.6.13,1.97.59,1.97,2.13,0,1.44-1.21,2.53-3.29,2.53Z"/>
            <path class="cls-5" d="M88.7,12.96l-.58-1.69h-3.31l-.58,1.69h-1.6l3.02-7.86h1.65l3.02,7.86h-1.61ZM86.64,7.03l-.17-.69-.18.69-1.04,3.03h2.46l-1.06-3.03Z"/>
            <path class="cls-5" d="M94.04,6.33v6.64h-1.45v-6.64h-2.8v-1.23h7.06v1.23h-2.8Z"/>
            <path class="cls-5" d="M101.22,13.22c-2.33,0-3.93-1.66-3.93-4.19s1.62-4.19,3.93-4.19,3.94,1.65,3.94,4.19-1.62,4.19-3.94,4.19ZM101.22,6.15c-1.35,0-2.4,1.01-2.4,2.88s1.04,2.89,2.4,2.89,2.41-1.1,2.41-2.89-1-2.88-2.41-2.88Z"/>
            <path class="cls-5" d="M112.77,6.33v2.04h3.74v1.23h-3.74v3.37h-1.46v-7.86h5.58v1.23h-4.13Z"/>
            <path class="cls-5" d="M122.99,12.96l-.58-1.69h-3.31l-.58,1.69h-1.6l3.02-7.86h1.65l3.02,7.86h-1.61ZM120.94,7.03l-.17-.69-.18.69-1.04,3.03h2.46l-1.06-3.03Z"/>
            <path class="cls-5" d="M130.36,12.96c-.16-.15-.26-.27-.26-.84v-.95c0-.56-.17-1.29-1.01-1.29h-2.01v3.08h-1.45v-7.86h3.71c1.46,0,2.42.91,2.42,2.13,0,.52-.17.99-.48,1.35-.3.34-.56.49-1.23.64.76.11,1.51.33,1.51,1.81v.8c0,.79.29.99.51,1.14h-1.69ZM129.14,6.33h-2.06v2.33h1.82c.81,0,1.3-.42,1.3-1.23,0-.71-.42-1.1-1.07-1.1Z"/>
            <path class="cls-5" d="M139.54,12.96v-6.91l-1.73,6.91h-1.57l-1.73-6.91v6.91h-1.34v-7.86h2.28l1.39,5.43.18,1.25.18-1.25,1.4-5.43h2.27v7.86h-1.34Z"/>
          </g>
        </g>
      </g>
    </g>
  </g>
</svg>