<?xml version="1.0" encoding="UTF-8"?>
<svg xmlns="http://www.w3.org/2000/svg" viewBox="0 0 167.6 27.97">
  <defs>
    <style>
      .cls-1, .cls-2 {
        fill: #b28247;
      }

      .cls-3 {
        isolation: isolate;
      }

      .cls-4 {
        fill: #231815;
      }

      .cls-5 {
        fill: #fff;
      }

      .cls-2 {
        mix-blend-mode: multiply;
      }
    </style>
  </defs>
  <g class="cls-3">
    <g id="_レイヤー_2" data-name="レイヤー_2">
      <g id="_テキスト_xFF08_B_xFF09_" data-name="テキスト_xFF08_B_xFF09_">
        <g>
          <rect class="cls-1" width="167.6" height="17.49"/>
          <rect class="cls-2" x="0" y="0" width="8.29" height="17.49"/>
          <g>
            <path class="cls-4" d="M36.69,27.65c.03-.2.04-.39.04-.79v-4.49c0-.41-.01-.55-.04-.71h.96c-.02.19-.03.32-.03.74v1.3c.81.27,2.07.85,3.18,1.48l-.49.83c-.49-.35-1.48-.89-2.48-1.34-.16-.08-.18-.08-.24-.12.02.2.03.31.03.48v1.85c0,.38,0,.58.03.78h-.96ZM39.57,22.03c.31.33.5.59.73,1.03l-.49.26c-.23-.43-.43-.71-.73-1.04l.49-.25ZM40.66,22.88c-.21-.38-.44-.71-.71-1.01l.47-.25c.31.32.51.59.73.99l-.48.27Z"/>
            <path class="cls-4" d="M44.16,21.82c-.03.2-.03.26-.03.63v1.93c0,.35,0,.44.03.62h-.96c.02-.16.04-.38.04-.63v-1.93c0-.36,0-.45-.03-.63h.95ZM47.34,21.83c-.03.17-.04.25-.04.65v.95c0,1.09-.05,1.68-.18,2.12-.2.7-.65,1.23-1.38,1.63-.37.21-.72.35-1.37.54-.12-.34-.2-.46-.49-.83.69-.13,1.09-.28,1.51-.56.66-.43.89-.86.97-1.79.03-.3.04-.61.04-1.17v-.88c0-.36,0-.5-.04-.67h.97Z"/>
            <path class="cls-4" d="M50.32,23.31c.29.54.43.88.69,1.66l-.79.25c-.18-.71-.32-1.08-.64-1.7l.74-.22ZM54.34,23.36c-.04.11-.05.14-.1.36-.2.95-.52,1.72-.97,2.33-.52.71-1.1,1.16-2.14,1.69-.18-.31-.27-.41-.56-.69.49-.19.78-.34,1.19-.64.82-.6,1.29-1.31,1.59-2.43.09-.34.13-.59.13-.81l.85.2ZM51.81,23.02c.37.69.5,1,.68,1.61l-.78.25c-.13-.53-.34-1.07-.64-1.65l.74-.21Z"/>
            <path class="cls-4" d="M60.28,22.25c.21,0,.29,0,.41-.01,0-.46.36-.81.81-.81s.81.36.81.8-.37.81-.81.81c-.04,0-.08,0-.13-.01-.57,2.29-1.81,3.72-4.02,4.64-.18-.36-.3-.53-.62-.83,1.94-.6,3.21-1.91,3.66-3.77h-3.33c-.52,0-.65,0-.88.04v-.91c.25.04.42.05.9.05h3.21ZM61.04,22.22c0,.25.2.46.46.46s.46-.21.46-.46-.2-.46-.46-.46-.46.2-.46.46Z"/>
            <path class="cls-4" d="M64.57,26.99c-.48,0-.65,0-.86.03v-.9c.26.04.38.05.88.05h3.19v-3.05h-3.07c-.5,0-.64,0-.9.04v-.91c.26.04.39.05.9.05h3.37q.36,0,.61-.01c-.02.19-.02.26-.02.58v3.84c0,.35,0,.55.04.72h-.94v-.43h-3.19Z"/>
            <path class="cls-4" d="M70.54,24.16c.31.04.44.05,1.13.05h3.73c.69,0,.83,0,1.13-.05v.97c-.28-.04-.36-.04-1.14-.04h-3.72c-.79,0-.86,0-1.14.04v-.97Z"/>
            <path class="cls-4" d="M79.44,23.87c.71-.14,1.38-.36,2.12-.69.52-.23.82-.41,1.04-.6l.56.79c-.14.06-.15.07-.33.15-.63.33-1.34.62-2,.83-.51.15-.69.2-1.39.33v.9s0,.01,0,.02v.1c0,.41.03.57.13.66.12.13.52.18,1.2.18.47,0,1.11-.04,1.62-.11.34-.04.49-.08.8-.16l.04.93c-.14,0-.19,0-.69.06-.56.06-1.44.1-1.96.1-.88,0-1.36-.09-1.63-.3-.2-.15-.3-.37-.34-.71-.01-.12-.02-.24-.02-.64v-3.25c0-.36,0-.46-.04-.64h.94c-.03.18-.04.33-.04.65v1.41Z"/>
            <path class="cls-4" d="M84.61,24.16c.31.04.44.05,1.13.05h3.73c.69,0,.83,0,1.13-.05v.97c-.28-.04-.36-.04-1.14-.04h-3.72c-.79,0-.86,0-1.14.04v-.97Z"/>
            <path class="cls-4" d="M97.27,21.38l-5.31,6.58h-1.03l5.3-6.58h1.04Z"/>
            <path class="cls-4" d="M103.62,23.2c-.05.13-.07.22-.08.47-.02.79-.1,1.87-.17,2.33-.18,1.21-.43,1.5-1.27,1.5-.27,0-.5-.02-.87-.08-.01-.44-.04-.57-.16-.9.41.11.69.16.92.16.3,0,.41-.15.52-.76.08-.48.15-1.44.15-2.24h-1.63c-.1.88-.25,1.41-.56,2.01-.38.74-1.01,1.38-1.89,1.94-.24-.37-.34-.48-.63-.74.88-.46,1.45-1.02,1.82-1.76.19-.39.29-.73.36-1.22.01-.1.03-.17.04-.22h-1.16c-.43,0-.53.01-.76.04v-.86c.23.04.42.06.77.06h1.23c.02-.27.03-.68.03-.88v-.17c0-.09,0-.15-.02-.27l.94.02c-.01.09-.02.12-.03.22,0,.04,0,.08,0,.13q-.01.15-.03.51c0,.15,0,.22-.03.44h1.55c.31,0,.38-.01.55-.07l.4.35Z"/>
            <path class="cls-4" d="M110.72,22.62c-.06.12-.08.17-.12.32-.35,1.34-.76,2.18-1.44,2.93-.69.77-1.44,1.28-2.61,1.79-.2-.38-.29-.51-.62-.83.62-.2,1.01-.38,1.53-.71,1.09-.71,1.78-1.7,2.12-3.05h-3.33c-.47,0-.63,0-.88.04v-.91c.27.04.42.05.9.05h3.21c.39,0,.53-.01.75-.07l.48.46Z"/>
            <path class="cls-4" d="M115.06,26.71h1.43c.33,0,.46,0,.65-.04v.78c-.2-.02-.34-.03-.65-.03h-3.61c-.31,0-.46,0-.65.03v-.78c.2.03.32.04.64.04h1.37v-2.26h-.94c-.26,0-.41,0-.64.04v-.81c.19.04.36.05.64.05h2.75c.29,0,.45-.01.64-.05v.79c-.19-.02-.29-.03-.64-.03h-1v2.26Z"/>
            <path class="cls-4" d="M124.25,23.95c-.07.13-.11.22-.2.44-.37,1.03-.9,1.81-1.62,2.37-.5.38-.95.62-1.84.95-.15-.35-.24-.47-.54-.81.85-.22,1.41-.48,1.95-.92.52-.43.82-.86,1.13-1.64h-3.41c-.47,0-.64,0-.9.04v-.85c.27.04.42.05.91.05h3.33c.43,0,.57-.01.79-.06l.4.45ZM119.41,21.83c.23.04.38.05.82.05h2.44c.44,0,.59,0,.82-.05v.86c-.22-.03-.35-.04-.8-.04h-2.47c-.46,0-.59,0-.81.04v-.86Z"/>
            <path class="cls-4" d="M129.34,24.48c-.04.8-.19,1.39-.49,1.88-.37.62-.88,1-1.83,1.38-.18-.36-.27-.48-.57-.77.84-.26,1.37-.63,1.66-1.17.18-.32.29-.78.31-1.32h-1.71c-.48,0-.64,0-.89.04v-.83c.27.04.42.05.9.05h4.1c.48,0,.64,0,.9-.05v.83c-.25-.03-.41-.04-.89-.04h-1.5ZM126.53,21.92c.26.04.4.05.9.05h2.69c.51,0,.64,0,.9-.05v.85c-.23-.03-.4-.04-.89-.04h-2.72c-.49,0-.66,0-.89.04v-.85Z"/>
          </g>
          <g>
            <path class="cls-5" d="M43.21,13.86c-2.61,0-3.76-1.96-3.76-4.12s1.07-4.27,3.87-4.27c2.24,0,3.21,1.49,3.34,2.74h-1.54c-.3-1.45-1.55-1.45-1.77-1.45-1.23,0-2.36.99-2.36,2.96,0,1.84.99,2.87,2.2,2.87.52,0,1.03-.19,1.43-.58.36-.34.43-.61.5-1.06h1.54c-.14,1.31-1.14,2.91-3.45,2.91Z"/>
            <path class="cls-5" d="M53.21,13.6l-.58-1.69h-3.31l-.58,1.69h-1.6l3.02-7.86h1.65l3.02,7.86h-1.61ZM51.15,7.66l-.17-.69-.18.69-1.04,3.03h2.46l-1.06-3.03Z"/>
            <path class="cls-5" d="M57.32,6.96v2.04h3.74v1.23h-3.74v3.37h-1.46v-7.86h5.58v1.23h-4.13Z"/>
            <path class="cls-5" d="M62.54,13.6v-7.86h5.95v1.23h-4.5v1.95h4.16v1.13h-4.16v2.33h4.68v1.23h-6.12ZM65.05,5.04h-.88l1.22-1.75h1.33l-1.67,1.75Z"/>
            <path class="cls-5" d="M72.68,10.85c-.75,1.42-1.59,2.07-2.01,2.39l-1.11-.66c.46-.33,1.4-1.02,2.13-2.36.55-1.01.64-1.75.67-2.11h-2.07v-1.16h3.42c-.03.68-.1,2.15-1.02,3.9ZM78.32,13.25c-.75-.58-2.14-1.64-3.08-3.39v2.96c0,1.18-.6,1.36-1.99,1.37l-.47-1.23c.17.04.45.11.78.11.26,0,.49-.09.49-.37v-7.86l1.12.1c.25.02.36.03.36.16,0,.06-.03.09-.13.18-.11.09-.14.11-.14.15v.82c0,.88.24,1.57.44,2.08.69-.52,1.43-1.36,1.94-2.28l1.07.57c.22.12.31.18.31.27s-.09.1-.11.1c-.21.02-.23.02-.28.06-.7.88-1.48,1.65-2.37,2.33.67,1.07,1.61,1.99,2.96,2.83l-.88,1.04Z"/>
            <path class="cls-5" d="M84.62,13.87c-1.27,0-1.83-.15-2.37-.43-.78-.41-1.1-1.16-1.1-1.84,0-1.35,1.04-2.04,2.23-2.74-.3-.32-.51-.67-.63-.97-.15-.36-.21-.67-.55-2.72l1.38-.21c.01.6.02,1.75.31,2.55.15.41.38.58.62.73,1.24-.58,1.38-.65,2.7-1.27l.4,1.31c-1.7.46-3.3,1.26-3.99,1.7-.48.3-1.28.85-1.28,1.57,0,.78.85,1.15,1.98,1.15s2.24-.21,3.33-.48v1.38c-.65.1-1.69.26-3.04.26Z"/>
            <path class="cls-5" d="M95.87,12.91v-.38h-5.63v-1.19h5.63v-3.75h-5.61v-1.2h6.89v6.51h-1.28Z"/>
            <path class="cls-5" d="M99.72,10.18v-1.37h7.66v1.37h-7.66Z"/>
            <path class="cls-5" d="M113.64,13.54c-3.22,0-3.56-.57-3.56-1.69v-6.61l1.23.17c.06.01.32.05.32.17,0,.04-.02.08-.09.13-.14.11-.15.12-.15.16v2.6c1.28-.23,2.77-.62,4.3-1.56l.93.89c.08.08.16.13.16.24,0,.02-.01.1-.1.1-.1,0-.23-.05-.33-.04-1.49.61-2.8,1.1-4.96,1.56v1.7c0,.62.03.96,1.82.96,1.61,0,2.96-.2,3.6-.3v1.39c-1.06.09-2.11.14-3.18.14Z"/>
            <path class="cls-5" d="M118.74,10.18v-1.37h7.66v1.37h-7.66Z"/>
          </g>
        </g>
      </g>
    </g>
  </g>
</svg>