<?xml version="1.0" encoding="UTF-8"?>
<svg xmlns="http://www.w3.org/2000/svg" viewBox="0 0 167.6 27.22">
  <defs>
    <style>
      .cls-1, .cls-2 {
        fill: #b28247;
      }

      .cls-3 {
        isolation: isolate;
      }

      .cls-4 {
        fill: #231815;
      }

      .cls-5 {
        fill: #fff;
      }

      .cls-2 {
        mix-blend-mode: multiply;
      }
    </style>
  </defs>
  <g class="cls-3">
    <g id="_レイヤー_2" data-name="レイヤー_2">
      <g id="_テキスト_xFF08_B_xFF09_" data-name="テキスト_xFF08_B_xFF09_">
        <g>
          <rect class="cls-1" width="167.6" height="17.49"/>
          <rect class="cls-2" x="0" width="8.29" height="17.49"/>
          <g>
            <path class="cls-4" d="M20.09,21.87c-.06.12-.08.17-.12.32-.35,1.34-.76,2.18-1.44,2.93-.69.77-1.44,1.28-2.61,1.79-.2-.38-.29-.51-.62-.83.62-.2,1.01-.38,1.53-.71,1.09-.71,1.78-1.7,2.12-3.05h-3.33c-.47,0-.63,0-.88.04v-.91c.27.04.42.05.9.05h3.21c.39,0,.53-.01.75-.07l.48.46Z"/>
            <path class="cls-4" d="M20.92,23.42c.31.04.44.05,1.13.05h3.73c.69,0,.83,0,1.13-.05v.97c-.28-.04-.36-.04-1.14-.04h-3.72c-.79,0-.86,0-1.14.04v-.97Z"/>
            <path class="cls-4" d="M28.58,26.91c.03-.2.04-.39.04-.79v-4.49c0-.41-.01-.55-.04-.71h.96c-.02.19-.03.32-.03.74v1.3c.81.27,2.07.85,3.18,1.48l-.49.83c-.49-.35-1.48-.89-2.48-1.34-.16-.08-.18-.08-.24-.12.02.2.03.32.03.48v1.85c0,.38,0,.57.03.78h-.96ZM31.47,21.29c.31.33.5.59.73,1.03l-.49.26c-.23-.43-.43-.71-.73-1.04l.49-.25ZM32.55,22.13c-.21-.38-.44-.71-.71-1.02l.47-.25c.31.32.51.59.73.99l-.48.27Z"/>
            <path class="cls-4" d="M39.59,21.87c-.06.12-.08.17-.12.32-.35,1.34-.76,2.18-1.44,2.93-.69.77-1.44,1.28-2.61,1.79-.2-.38-.29-.51-.62-.83.62-.2,1.01-.38,1.53-.71,1.09-.71,1.78-1.7,2.12-3.05h-3.33c-.47,0-.63,0-.88.04v-.91c.27.04.42.05.9.05h3.21c.39,0,.53-.01.75-.07l.48.46Z"/>
            <path class="cls-4" d="M43.38,25.97h1.43c.33,0,.46,0,.65-.04v.78c-.2-.02-.34-.03-.65-.03h-3.61c-.31,0-.46,0-.65.03v-.78c.2.03.32.04.64.04h1.37v-2.26h-.94c-.26,0-.41,0-.64.04v-.8c.19.03.36.05.64.05h2.75c.29,0,.45-.01.64-.05v.79c-.19-.02-.29-.03-.64-.03h-1v2.26Z"/>
            <path class="cls-4" d="M51.97,26.83c-.58-.71-1.39-1.5-2.15-2.08-.79.88-1.6,1.5-2.67,2.02-.2-.36-.28-.48-.57-.78.54-.21.88-.4,1.4-.77,1.06-.74,1.9-1.76,2.35-2.85l.08-.18q-.11,0-2.32.04c-.34,0-.53.02-.76.06l-.03-.9c.2.04.33.04.62.04h.17l2.46-.04c.39,0,.45-.01.62-.08l.46.48c-.09.11-.15.2-.22.38-.32.75-.67,1.36-1.09,1.93.44.29.82.59,1.29,1.02q.18.15,1.02.97l-.67.73Z"/>
            <path class="cls-4" d="M53.52,21.54c0-.22,0-.34-.02-.64.13.01.26.02.51.02h1.03c.28,0,.43-.01.51-.04l.4.49c-.05.09-.07.15-.22.53-.15.38-.31.75-.54,1.2.29.39.4.6.5.9.07.22.11.48.11.69,0,.41-.12.68-.38.8-.19.1-.38.13-.89.13-.01-.34-.04-.5-.15-.74.1.01.22.03.31.03.27,0,.37-.08.37-.31s-.06-.48-.15-.72c-.11-.23-.21-.39-.49-.71.31-.6.38-.78.65-1.58h-.81v4.76c0,.29.01.55.04.81h-.81c.03-.21.04-.48.04-.81v-4.81ZM56.72,24.09v2.01q.79-.17,1.16-.3l.02.71c-.73.22-1.2.33-2.23.56-.15.03-.28.07-.36.1l-.14-.79c.14,0,.39-.04.83-.12v-4.57c0-.32,0-.48-.03-.75.14.03.31.04.67.04h2c.34,0,.47,0,.65-.04-.01.17-.02.33-.02.78v1.63c0,.4,0,.53.03.76q-.13-.01-.2-.01l.57.48s-.14.1-.2.15c-.22.19-.64.52-.95.73.34.42.74.73,1.29.99-.18.21-.29.39-.44.71-.68-.43-1.11-.83-1.46-1.36-.34-.5-.52-.95-.69-1.72h-.51ZM56.72,22.22h1.84v-.57h-1.84v.57ZM56.72,23.46h1.84v-.62h-1.84v.62ZM57.9,24.09c.09.36.15.53.27.79.42-.29.78-.62.91-.78-.09,0-.25,0-.34,0h-.84Z"/>
            <path class="cls-4" d="M63.27,23.42h-1.03c-.31,0-.51,0-.71.04v-.74c.18.03.39.04.71.04h2.68c.33,0,.53,0,.72-.04v.74c-.2-.03-.4-.04-.72-.04h-.92v.9h1.32c.32,0,.5,0,.69-.04v.75c-.21-.03-.38-.04-.69-.04h-1.32v1.21c.34.05.73.07,1.14.07s.88-.02,1.6-.08c-.11.29-.16.48-.2.8-.57.01-.94.02-1.49.02-1.64,0-2.56-.36-3.13-1.21-.22.48-.49.87-.96,1.37-.18-.26-.28-.35-.6-.57.57-.52.98-1.19,1.2-1.98.08-.29.13-.6.14-.76l.78.15c-.04.12-.04.13-.1.41-.04.14-.08.3-.18.63.28.5.57.76,1.06.97v-2.6ZM63.15,21.17c0-.18-.01-.29-.04-.45h.86c-.03.15-.04.26-.04.44v.27h1.89c.28,0,.52,0,.78-.03-.02.16-.03.32-.03.52v.55c0,.2,0,.36.03.55h-.76v-.88h-4.52v.88h-.78c.03-.17.04-.31.04-.55v-.54c0-.18-.01-.36-.03-.52.25.02.49.03.77.03h1.83v-.26Z"/>
            <path class="cls-4" d="M67.89,24.9c1.7.22,3.02.54,4.65,1.11l-.3.88c-.73-.32-1.37-.53-2.48-.78-.86-.2-1.44-.31-2.2-.41l.33-.8ZM68.45,22.92c1.12.14,2.24.39,3.65.81l-.27.86c-.55-.22-1.05-.36-1.93-.56-.6-.14-1.05-.22-1.77-.31l.32-.81ZM68.55,20.99c1.35.16,2.23.34,3.79.76l-.28.86c-1.16-.38-2.59-.69-3.82-.81l.31-.81Z"/>
            <path class="cls-4" d="M74.55,22.57c.29.54.43.88.69,1.66l-.79.25c-.18-.71-.32-1.08-.64-1.7l.74-.22ZM78.57,22.62c-.04.11-.05.14-.1.36-.2.95-.52,1.72-.97,2.33-.52.71-1.1,1.16-2.14,1.69-.18-.31-.27-.41-.56-.69.49-.19.78-.34,1.19-.64.82-.6,1.29-1.31,1.59-2.43.09-.34.13-.59.13-.81l.85.2ZM76.04,22.28c.37.69.5,1,.68,1.61l-.78.25c-.13-.53-.34-1.07-.64-1.65l.74-.21Z"/>
            <path class="cls-4" d="M85.22,22.11c-.07.1-.1.17-.18.42-.32,1.06-.82,2.01-1.44,2.7-.64.74-1.41,1.28-2.49,1.78-.2-.35-.29-.47-.59-.74.7-.29,1.09-.5,1.53-.83,1-.74,1.66-1.7,2.04-2.96l-2.11.04c-.43.68-.97,1.28-1.64,1.79-.21-.29-.31-.38-.68-.6.8-.55,1.3-1.11,1.81-2.03.22-.4.33-.67.36-.92l.96.19q-.04.06-.12.22s-.02.04-.09.2t-.09.18-.11.22c.09,0,.2-.01.34-.01l1.53-.02c.27,0,.35-.01.51-.07l.45.44Z"/>
            <path class="cls-4" d="M91.31,26.83c-.58-.71-1.39-1.5-2.15-2.08-.79.88-1.6,1.5-2.67,2.02-.2-.36-.28-.48-.57-.78.54-.21.88-.4,1.4-.77,1.06-.74,1.9-1.76,2.35-2.85l.08-.18q-.11,0-2.32.04c-.34,0-.53.02-.76.06l-.03-.9c.2.04.33.04.62.04h.17l2.46-.04c.39,0,.45-.01.62-.08l.46.48c-.09.11-.15.2-.22.38-.32.75-.67,1.36-1.09,1.93.44.29.82.59,1.29,1.02q.18.15,1.02.97l-.67.73Z"/>
            <path class="cls-4" d="M94.03,23.25c1.06-.2,2.61-.82,3.06-1.25l.56.79c-.08.03-.09.04-.15.06l-.18.09c-1.04.53-2.12.9-3.29,1.11v.92s0,.08,0,.11c0,.39.03.55.12.64.12.12.52.18,1.2.18.47,0,1.12-.04,1.62-.11.34-.04.49-.08.8-.17l.04.93c-.15,0-.18,0-.93.08-.41.04-1.29.08-1.72.08-.88,0-1.37-.09-1.64-.3-.2-.15-.3-.37-.34-.71-.01-.12-.02-.24-.02-.64v-3.25c0-.36,0-.47-.04-.64h.94c-.03.17-.04.29-.04.65v1.42ZM98.87,21.4c0,.45-.37.81-.81.81s-.81-.36-.81-.81.37-.8.81-.8.81.36.81.8ZM97.61,21.4c0,.25.2.46.46.46s.46-.21.46-.46-.2-.46-.46-.46-.46.2-.46.46Z"/>
            <path class="cls-4" d="M103.24,22.33v-.58c0-.37,0-.53-.03-.69h.9c-.02.17-.02.22-.02.46,0,.26,0,.53,0,.81h.44c.53,0,.67,0,.92-.05v.85c-.24-.03-.34-.04-.9-.04h-.46c-.01,1.26-.08,1.71-.34,2.26-.39.76-1.07,1.29-2.08,1.63-.12-.28-.24-.45-.53-.74.99-.28,1.58-.72,1.88-1.4.17-.42.21-.76.22-1.75h-1.81v1.04c0,.31,0,.42.03.59h-.91c.02-.15.02-.22.03-.6v-1.03h-.43c-.56,0-.66,0-.9.04v-.85c.25.04.38.05.91.05h.41v-.7c0-.36,0-.45-.04-.62h.92c-.03.23-.03.26-.03.59v.73h1.82ZM104.58,20.65c.21.34.36.68.48,1.09l-.48.14c-.13-.45-.28-.79-.48-1.1l.48-.13ZM105.44,21.65c-.11-.36-.27-.71-.48-1.06l.45-.14c.19.29.34.62.48,1.05l-.45.15Z"/>
            <path class="cls-4" d="M114.63,20.64l-5.31,6.58h-1.03l5.3-6.58h1.04Z"/>
            <path class="cls-4" d="M119.9,21.52c-.02.08-.03.08-.04.14v.12s-.05.2-.05.2l-.02.17c-.29,2.01-.84,3.39-1.78,4.47-.33-.32-.46-.42-.8-.6.42-.42.71-.85,1-1.49.3-.65.55-1.52.66-2.4.04-.29.06-.53.06-.68v-.1l.96.17ZM121.88,21.35c0,.32.13,1.01.29,1.61.34,1.3.83,2.24,1.56,3.03-.36.22-.51.34-.77.64-.93-1.11-1.58-2.72-1.86-4.61-.04-.29-.06-.4-.1-.5l.87-.17ZM123.88,21.76c0,.45-.37.81-.81.81s-.81-.36-.81-.81.37-.8.81-.8.81.36.81.8ZM122.61,21.76c0,.25.2.46.46.46s.46-.21.46-.46-.2-.46-.46-.46-.46.2-.46.46Z"/>
            <path class="cls-4" d="M124.51,25.17c.27.04.42.05.9.05h4.02c.47,0,.63,0,.9-.05v.94c-.25-.03-.43-.04-.88-.04h-4.05c-.46,0-.64,0-.88.04v-.94ZM125.22,21.75c.25.04.41.05.83.05h2.75c.41,0,.57,0,.83-.05v.92c-.23-.03-.4-.04-.82-.04h-2.77c-.42,0-.59,0-.82.04v-.92Z"/>
            <path class="cls-4" d="M130.94,23.42c.31.04.44.05,1.13.05h3.73c.69,0,.83,0,1.13-.05v.97c-.28-.04-.36-.04-1.14-.04h-3.72c-.79,0-.86,0-1.14.04v-.97Z"/>
            <path class="cls-4" d="M137.55,25.17c.27.04.42.05.9.05h4.02c.47,0,.63,0,.9-.05v.94c-.25-.03-.43-.04-.88-.04h-4.05c-.46,0-.64,0-.88.04v-.94ZM138.26,21.75c.25.04.41.05.83.05h2.75c.41,0,.57,0,.83-.05v.92c-.23-.03-.4-.04-.82-.04h-2.77c-.42,0-.59,0-.82.04v-.92Z"/>
            <path class="cls-4" d="M147.05,24.31q0-.17.02-.77c-.17.29-.34.53-.59.81-.1-.29-.18-.48-.36-.83.52-.51.93-1.17,1.24-1.93.14-.35.24-.69.27-.95l.79.24c-.06.16-.07.2-.14.4-.16.47-.26.71-.49,1.16v3.9c0,.33.01.58.04.85h-.82c.03-.25.04-.48.04-.85v-2.02ZM149.39,23.54v2.45c0,.14.04.18.19.22.17.04.38.06.88.06.79,0,1.09-.03,1.25-.13.08-.05.14-.17.17-.32.02-.13.03-.22.05-.55.31.13.43.16.76.22-.08.8-.18,1.07-.39,1.24-.27.19-.73.25-2.01.25s-1.64-.14-1.64-.7v-2.49c-.06.02-.11.04-.14.04-.2.07-.27.1-.41.16l-.06-.8c.17-.02.37-.07.61-.14v-.83c0-.33,0-.52-.04-.74h.83c-.04.2-.04.39-.04.71v.62l.72-.23v-1.14c0-.28-.01-.46-.04-.7h.81c-.03.22-.04.39-.04.68v.93l1.02-.33c.27-.08.43-.15.57-.21,0,.15,0,.2,0,.38-.01.84-.06,1.81-.12,2.26-.07.53-.25.68-.79.68-.13,0-.21,0-.38-.02-.04-.27-.08-.43-.2-.71.18.04.37.06.48.06.15,0,.18-.05.22-.38.04-.27.06-.74.06-1.29l-.86.28v1.82c0,.29,0,.46.04.7h-.81c.04-.22.04-.4.04-.72v-1.56l-.72.23Z"/>
          </g>
          <g>
            <path class="cls-5" d="M43.03,9.99h-2.17v2.8h-1.46v-7.86h3.62c1.71,0,2.68,1.15,2.68,2.49,0,1.58-1.22,2.58-2.68,2.58ZM42.81,6.16h-1.95v2.61h1.95c.81,0,1.37-.44,1.37-1.36s-.6-1.25-1.37-1.25Z"/>
            <path class="cls-5" d="M47.08,6.33v-1.4h1.42v1.4h-1.42ZM47.08,12.79v-5.8h1.42v5.8h-1.42Z"/>
            <path class="cls-5" d="M49.87,12.79v-1.13l2.94-3.52h-2.65v-1.14h4.49v1.14l-2.94,3.52h3.09v1.13h-4.93Z"/>
            <path class="cls-5" d="M55.87,12.79v-1.13l2.94-3.52h-2.65v-1.14h4.49v1.14l-2.94,3.52h3.09v1.13h-4.93Z"/>
            <path class="cls-5" d="M65.96,12.79c-.16-.22-.17-.59-.17-.84-.16.31-.52.98-1.87.98-1.59,0-2.03-.97-2.03-1.7,0-1.33,1.2-1.73,2.49-1.92.62-.09,1.33-.21,1.33-.74,0-.46-.5-.6-.94-.6-.13,0-.74-.01-1.11.36-.16.16-.19.29-.23.57h-1.28c.11-1.8,1.71-2.04,2.49-2.04,1.34,0,2.5.58,2.5,2.08v3.19c0,.21.04.48.32.67h-1.5ZM64.68,10.21c-.54.09-1.34.28-1.34.98,0,.41.4.73.92.73.58,0,1.44-.37,1.44-1.17v-.66l.08-.38c-.25.29-.48.39-1.1.5Z"/>
            <path class="cls-5" d="M76.97,12.79l-3.1-5.01-.59-1.29.15,1.76v4.55h-1.4v-7.86h1.55l3.1,5.01.59,1.29-.15-1.76v-4.55h1.4v7.86h-1.55Z"/>
            <path class="cls-5" d="M85.65,12.79l-.58-1.69h-3.31l-.58,1.69h-1.6l3.02-7.86h1.65l3.02,7.86h-1.61ZM83.59,6.86l-.17-.69-.18.69-1.04,3.03h2.46l-1.06-3.03Z"/>
            <path class="cls-5" d="M91.92,9.99h-2.17v2.8h-1.46v-7.86h3.62c1.71,0,2.68,1.15,2.68,2.49,0,1.58-1.22,2.58-2.68,2.58ZM91.7,6.16h-1.95v2.61h1.95c.81,0,1.37-.44,1.37-1.36s-.6-1.25-1.37-1.25Z"/>
            <path class="cls-5" d="M99.35,13.05c-2.33,0-3.93-1.66-3.93-4.19s1.62-4.19,3.93-4.19,3.94,1.65,3.94,4.19-1.62,4.19-3.94,4.19ZM99.35,5.99c-1.35,0-2.4,1.01-2.4,2.88s1.04,2.89,2.4,2.89,2.41-1.1,2.41-2.89-1-2.88-2.41-2.88Z"/>
            <path class="cls-5" d="M107.85,13.05c-2.11,0-3.28-1.23-3.28-3.36v-4.76h1.46v4.93c0,1.36.76,1.88,1.78,1.88,1.18,0,1.81-.66,1.81-1.88v-4.93h1.45v4.76c0,2.49-1.53,3.36-3.22,3.36Z"/>
            <path class="cls-5" d="M117.47,12.79c-.16-.15-.26-.27-.26-.84v-.95c0-.56-.17-1.29-1.01-1.29h-2.01v3.08h-1.45v-7.86h3.71c1.46,0,2.42.91,2.42,2.13,0,.52-.17.99-.48,1.35-.3.34-.56.49-1.23.64.76.11,1.51.33,1.51,1.81v.8c0,.79.29.99.51,1.14h-1.69ZM116.24,6.16h-2.06v2.33h1.82c.81,0,1.3-.42,1.3-1.23,0-.71-.42-1.1-1.07-1.1Z"/>
            <path class="cls-5" d="M125.95,12.79l-.58-1.69h-3.31l-.58,1.69h-1.6l3.02-7.86h1.65l3.02,7.86h-1.61ZM123.89,6.86l-.17-.69-.18.69-1.04,3.03h2.46l-1.06-3.03Z"/>
          </g>
        </g>
      </g>
    </g>
  </g>
</svg>