<?xml version="1.0" encoding="UTF-8"?>
<svg xmlns="http://www.w3.org/2000/svg" viewBox="0 0 167.6 28.72">
  <defs>
    <style>
      .cls-1, .cls-2 {
        fill: #b28247;
      }

      .cls-3 {
        isolation: isolate;
      }

      .cls-4 {
        fill: #231815;
      }

      .cls-5 {
        fill: #fff;
      }

      .cls-2 {
        mix-blend-mode: multiply;
      }
    </style>
  </defs>
  <g class="cls-3">
    <g id="_レイヤー_2" data-name="レイヤー_2">
      <g id="_テキスト_xFF08_B_xFF09_" data-name="テキスト_xFF08_B_xFF09_">
        <g>
          <rect class="cls-1" width="167.6" height="17.49"/>
          <rect class="cls-2" y="0" width="8.29" height="17.49"/>
          <g>
            <path class="cls-4" d="M14.65,24.03c.49.3.76.51,1.13.88l-.5.57c-.38-.42-.61-.61-1.12-.93l.48-.53ZM15.81,26.48c-.2.64-.33,1-.6,1.61l-.27.57-.66-.55s.08-.1.13-.19c.27-.44.54-1.11.78-1.93l.62.48ZM14.99,22.27c.43.3.72.55,1.07.91l-.54.56c-.39-.45-.66-.69-1.06-.96l.53-.51ZM19.63,22.83c.53,0,.74,0,1.01-.04v.75c-.19-.02-.41-.03-.92-.03h-2.63c-.12.19-.2.33-.32.5h2.71c.34,0,.54,0,.73-.02-.01.1-.02.18-.04.39,0,.05-.01.39-.04,1.03.34,0,.44,0,.62-.04v.74c-.22-.03-.38-.04-.59-.04h-.07c-.03.36-.04.59-.07.86.28,0,.38,0,.53-.03v.74c-.17-.02-.29-.03-.53-.03h-.08c-.15.87-.31,1.03-1.04,1.03-.11,0-.2,0-.63-.04,0-.3-.04-.46-.15-.72.27.05.5.07.71.07.26,0,.29-.03.37-.34h-2.37c-.05.22-.06.29-.12.55l-.79-.08c.2-.57.34-1.21.46-2.01h-.11c-.22,0-.35,0-.55.04v-.74c.2.03.35.04.65.04h.08c.06-.53.08-.81.08-1.09-.14.17-.21.25-.43.46-.14-.22-.3-.39-.53-.57.45-.4.66-.65.9-1.06.2-.35.35-.72.39-.99l.8.14q-.15.36-.24.55h2.18ZM17.78,26.94c.05-.32.06-.41.11-.86h-.79c-.04.3-.05.37-.14.86h.81ZM17.95,25.4q.01-.22.04-.76h-.76c-.02.35-.03.43-.06.76h.78ZM19.32,26.94c.04-.31.05-.57.08-.86h-.84c-.03.27-.06.55-.11.86h.87ZM19.44,25.4q.01-.43.02-.76h-.79q-.04.56-.05.76h.82Z"/>
            <path class="cls-4" d="M22.82,27.14c-.12.67-.24,1.06-.46,1.58l-.62-.42c.24-.41.37-.76.49-1.38l.59.22ZM24.31,23.89c.19,0,.33,0,.5-.03-.02.16-.03.36-.03.62v1.72c0,.38,0,.48.02.62-.2-.01-.33-.01-.6-.01h-1.4c-.15,0-.37,0-.63.01.02-.21.03-.42.03-.62v-1.62c-.16-.2-.23-.27-.42-.41.35-.37.55-.69.83-1.27.12-.26.18-.43.24-.71l.72.12c-.02.06-.04.08-.06.17-.04.09-.08.2-.11.27h.55c.21,0,.29,0,.38-.04l.26.34q-.06.09-.21.38c-.06.14-.15.29-.24.46h.17ZM22.82,25.03h.39v-.55h-.39v.55ZM22.82,26.21h.39v-.6h-.39v.6ZM23.38,27.04c.1.58.15.9.17,1.46l-.62.13v-.28c0-.32-.04-.77-.11-1.2l.55-.12ZM23.42,23.89c.11-.2.21-.38.28-.55h-.57c-.12.26-.18.36-.29.55h.58ZM24.07,26.99c.15.46.22.73.31,1.3l-.57.15c-.06-.5-.13-.9-.26-1.32l.52-.13ZM23.78,25.03h.37v-.55h-.37v.55ZM23.78,26.21h.37v-.6h-.37v.6ZM24.76,26.92c.13.31.28.76.38,1.13l-.52.19c-.09-.46-.2-.83-.35-1.18l.49-.15ZM26.17,25.68h-.44c-.29,0-.41,0-.59.04v-.75c.18.03.32.04.6.04h.43v-.66h-.5c-.29,0-.51.01-.69.04v-.76c.16.03.29.04.6.04h.11c-.17-.51-.3-.8-.52-1.13l.64-.3c.26.43.33.57.55,1.13l-.67.3h.88c.27-.5.46-.94.61-1.47l.73.27c-.22.54-.37.84-.6,1.21h.24c.32,0,.46,0,.63-.04v.76c-.18-.02-.4-.04-.7-.04h-.55v.66h.47c.29,0,.44,0,.61-.04v.75c-.18-.03-.32-.04-.61-.04h-.47v.74h.65c.28,0,.48,0,.7-.04v.77c-.2-.03-.41-.04-.68-.04h-.67v.78c0,.32.01.58.04.81h-.84c.04-.22.05-.48.05-.82v-.78h-.55c-.34,0-.53.01-.69.04v-.77c.22.03.41.04.66.04h.57v-.74Z"/>
            <path class="cls-4" d="M35.14,22.97c-.12.11-.15.13-.26.25-.53.55-1.05,1-1.65,1.44v2.99c0,.38,0,.59.04.78h-.98c.04-.2.04-.34.04-.76v-2.46c-.82.49-1.21.67-2.5,1.13-.15-.36-.22-.48-.47-.8,1.39-.38,2.56-.96,3.68-1.82.62-.48,1.1-.97,1.3-1.31l.8.56Z"/>
            <path class="cls-4" d="M42.05,23.95c-.05.13-.07.22-.08.47-.02.79-.1,1.87-.17,2.33-.18,1.21-.43,1.5-1.27,1.5-.27,0-.5-.02-.87-.08-.01-.44-.04-.57-.16-.9.41.11.69.16.92.16.3,0,.41-.15.52-.76.08-.48.15-1.44.15-2.24h-1.63c-.1.88-.25,1.41-.56,2.01-.38.74-1.01,1.38-1.89,1.94-.24-.37-.34-.48-.63-.74.88-.46,1.45-1.02,1.82-1.76.19-.39.29-.73.36-1.22.01-.1.03-.17.04-.22h-1.16c-.43,0-.53.01-.76.04v-.86c.23.04.42.06.77.06h1.23c.02-.27.03-.68.03-.88v-.17c0-.09,0-.15-.02-.27l.94.02c-.01.09-.02.12-.03.22,0,.04,0,.08,0,.13q-.01.15-.03.51c0,.15,0,.22-.03.44h1.55c.31,0,.38-.01.55-.07l.4.35Z"/>
            <path class="cls-4" d="M45.93,27.33c0,.29-.02.46-.06.6-.06.25-.31.41-.64.41-.44,0-.97-.2-1.32-.5-.25-.22-.38-.49-.38-.79,0-.33.22-.7.6-1.04.25-.22.56-.4,1.02-.6v-1.08q-.06,0-.29.01c-.1,0-.2,0-.38,0-.11,0-.3,0-.39,0-.09,0-.15,0-.17,0-.03,0-.08,0-.15,0v-.78c.19.04.47.06.84.06.07,0,.15,0,.24,0,.17,0,.2,0,.28,0v-.46c0-.4,0-.58-.04-.8h.88c-.04.22-.04.37-.04.76v.45c.53-.06.99-.15,1.35-.27l.03.78c-.12.02-.26.04-.74.13-.23.04-.37.06-.64.09v.91c.48-.14.92-.2,1.43-.2,1.17,0,2,.71,2,1.71,0,.91-.68,1.6-1.59,1.6-.57,0-.97-.27-1.15-.78-.09-.24-.12-.47-.12-.9.36-.1.48-.15.78-.31-.01.13-.01.2-.01.31,0,.29.03.48.1.62.08.15.25.24.44.24.41,0,.71-.33.71-.78,0-.6-.49-.99-1.24-.99-.42,0-.85.08-1.34.23v1.38ZM45.14,26.2c-.53.28-.83.59-.83.84,0,.12.07.22.23.32.14.1.31.15.45.15.12,0,.15-.06.15-.29v-1.02ZM49.02,24.79c-.35-.55-.86-1.11-1.4-1.51l.66-.44c.61.47,1.02.89,1.39,1.44l-.64.52Z"/>
            <path class="cls-4" d="M53.35,28.05c-.33-.36-.46-.5-.69-.71-.37.54-.75.91-1.32,1.3-.14-.22-.29-.43-.5-.65.56-.34.91-.66,1.25-1.14-.36-.29-.55-.43-1.07-.75.25-.59.43-1.16.61-1.89h-.17c-.18,0-.35.01-.5.04v-.76c.18.04.35.04.62.04h.2c.09-.55.15-1,.15-1.26v-.08l.83.06c-.03.11-.04.15-.08.45s-.08.5-.14.83h.61c.25,0,.41,0,.59-.03q0,.14-.03.43c-.05,1.02-.27,1.95-.64,2.73.32.27.45.37.79.71l-.48.68ZM52.37,24.2q-.02.11-.08.32c-.08.33-.2.76-.39,1.28.28.19.39.27.55.38.27-.59.39-1.04.5-1.98h-.6ZM55.88,27.85c0,.62-.18.76-.96.76-.2,0-.42,0-.73-.03-.04-.32-.07-.48-.19-.79.34.05.6.08.79.08.24,0,.3-.02.3-.13v-1.88h-.71c-.27,0-.5.01-.71.04v-.8c.17.03.32.04.69.04h.73v-.24c0-.27-.01-.41-.04-.67h.28c.38-.34.56-.54.83-.95h-1.55c-.28,0-.55.01-.76.04v-.8c.18.03.44.04.78.04h1.62c.31,0,.47,0,.61-.04l.38.49c-.06.06-.08.08-.14.17-.58.8-.76,1.02-1.22,1.46v.5h.85c.3,0,.48-.01.69-.04v.81c-.22-.03-.41-.04-.69-.04h-.85v2Z"/>
            <path class="cls-4" d="M59.35,22.65c.16.03.34.04.71.04.42,0,1.04-.03,1.3-.06.14-.01.19-.03.28-.08l.55.48c-.06.08-.1.16-.15.29-.04.08-.46,1.37-.53,1.59.55.08,1.02.21,1.55.44.05-.36.07-.64.07-1.3,0-.15,0-.23-.03-.37l.88.04c-.03.15-.04.2-.04.47-.02.62-.06,1.04-.13,1.48.22.11.53.27.75.4.19.11.22.12.32.17l-.32.92c-.2-.17-.61-.45-.97-.65-.2.52-.41.86-.76,1.23-.31.32-.66.58-1.06.79-.29-.36-.36-.43-.64-.63.53-.25.8-.43,1.09-.74.28-.3.51-.68.62-1.04-.5-.24-.91-.37-1.58-.48-.31.92-.49,1.37-.69,1.72-.26.45-.57.67-.96.67-.64,0-1.12-.57-1.12-1.33,0-.64.31-1.19.87-1.53.37-.22.74-.32,1.32-.34.18-.55.27-.82.44-1.46-.36.03-.53.04-1.21.06-.29.01-.41.02-.55.04l-.03-.82ZM59.56,25.99c-.18.19-.27.43-.27.67,0,.29.15.52.34.52.13,0,.24-.13.4-.44.14-.28.31-.71.46-1.17-.47.07-.71.18-.93.42Z"/>
            <path class="cls-4" d="M68.6,26.29c-.32,0-.5,0-.68.04v-.71c.16.02.27.03.54.03h.09v-.61h-.12c-.23,0-.35,0-.55.04v-.59c-.16.2-.24.29-.44.49-.03.57-.05.81-.1,1.15.23.36.5.65.83.9-.18.26-.27.4-.38.69-.29-.3-.45-.5-.62-.76-.22.71-.5,1.23-.96,1.71-.15-.25-.29-.42-.5-.6.4-.41.63-.83.8-1.46.2-.66.27-1.65.27-3.32,0-.6,0-.75-.05-1.02h.81q-.04.23-.04,1.34c0,.15,0,.24,0,.46.19-.28.28-.44.36-.62l.53.41c-.09.12-.22.29-.38.51.13.01.24.02.45.02h.12v-.22c0-.14,0-.22-.03-.33h.7c-.01.09-.02.17-.02.32v.24h1.51v-.23c0-.14,0-.21-.02-.32h.72c-.02.1-.03.19-.03.32v.23h.27c.24,0,.38,0,.58-.04v.73c-.19-.03-.34-.04-.58-.04h-.27v.61h.11c.29,0,.44,0,.64-.04v.73c-.22-.03-.42-.04-.71-.04h-.58v1.44c0,.14.04.16.41.16.18,0,.29-.04.31-.13.04-.12.06-.34.07-.74.2.13.34.19.66.28-.04.64-.11.95-.28,1.1-.13.12-.41.18-.9.18-.78,0-.97-.11-.97-.55v-1.73h-.55c-.04.43-.07.61-.17.88-.25.74-.71,1.18-1.6,1.54-.12-.29-.23-.46-.43-.64.5-.16.77-.32,1.04-.61.28-.3.42-.68.44-1.18h-.25ZM65.74,25.42c.1-.33.13-.48.17-.86.03-.33.05-.6.05-.81v-.18l.59.07c-.01.9-.08,1.46-.22,2.07l-.58-.29ZM70.29,23.76c0,.22,0,.29.02.41h-.71c.01-.11.02-.22.02-.41v-.24h-.81c-.25,0-.5.01-.68.04v-.73c.22.03.38.04.68.04h.81v-.18c0-.2,0-.31-.04-.47h.74c-.03.14-.04.27-.04.48v.17h1.02c.27,0,.47-.01.67-.04v.74c-.2-.02-.42-.04-.65-.04h-1.04v.23ZM70.71,25.64v-.61h-1.51v.61h1.51Z"/>
            <path class="cls-4" d="M73.8,23.32c.2.02.36.03.67.03.53,0,.91-.02,1.44-.08q-.02-.06-.08-.18c-.18-.41-.27-.62-.28-.64l.88-.12c.03.18.1.39.29.85.6-.08,1.41-.26,1.89-.42l.07.74q-.07.01-.24.05c-.47.11-1.25.27-1.46.29.11.26.15.35.27.57.6-.13.93-.2.97-.2.4-.1.48-.13.67-.2l.07.76c-.13.02-.28.05-.44.09-.29.07-.52.12-.69.15q-.17.04-.26.06c.36.6.48.75.94,1.28l-.62.44c-.5-.21-.93-.29-1.61-.29-.53,0-.94.07-1.18.2-.2.11-.3.26-.3.43s.12.33.3.41c.22.1.59.15,1,.15.73,0,1.72-.21,2.16-.46l.12.86q-.13.02-.46.11c-.6.16-1.18.24-1.79.24-.8,0-1.32-.1-1.71-.34-.34-.21-.54-.57-.54-.96s.21-.73.59-.97c.37-.23.93-.35,1.63-.35.43,0,.83.05,1.21.15-.11-.11-.24-.3-.54-.79-.74.11-1.19.14-2.71.19-.12,0-.17,0-.29.02l-.03-.76c.2.03.25.03.72.03.74,0,1.32-.04,1.98-.13-.04-.08-.07-.13-.12-.26-.07-.15-.09-.19-.15-.32-.56.06-1.06.09-1.88.1-.29,0-.33,0-.48.01l-.03-.74Z"/>
            <path class="cls-4" d="M86.39,22.14l-5.31,6.58h-1.03l5.3-6.58h1.04Z"/>
            <path class="cls-4" d="M87.47,24.03c.49.3.76.51,1.13.88l-.5.57c-.38-.42-.61-.61-1.12-.93l.48-.53ZM88.62,26.48c-.2.64-.33,1-.6,1.61l-.27.57-.66-.55s.08-.1.13-.19c.27-.44.54-1.11.78-1.93l.62.48ZM87.8,22.27c.43.3.72.55,1.07.91l-.54.56c-.39-.45-.66-.69-1.06-.96l.53-.51ZM92.45,22.83c.53,0,.74,0,1.01-.04v.75c-.19-.02-.41-.03-.92-.03h-2.63c-.12.19-.2.33-.32.5h2.71c.34,0,.54,0,.73-.02-.01.1-.02.18-.04.39,0,.05-.01.39-.04,1.03.34,0,.44,0,.62-.04v.74c-.22-.03-.38-.04-.59-.04h-.07c-.03.36-.04.59-.07.86.28,0,.38,0,.53-.03v.74c-.17-.02-.29-.03-.53-.03h-.08c-.15.87-.31,1.03-1.04,1.03-.11,0-.2,0-.63-.04,0-.3-.04-.46-.15-.72.27.05.5.07.71.07.26,0,.29-.03.37-.34h-2.37c-.05.22-.06.29-.12.55l-.79-.08c.2-.57.34-1.21.46-2.01h-.11c-.22,0-.35,0-.55.04v-.74c.2.03.35.04.65.04h.08c.06-.53.08-.81.08-1.09-.14.17-.21.25-.43.46-.14-.22-.3-.39-.53-.57.45-.4.66-.65.9-1.06.2-.35.35-.72.39-.99l.8.14q-.15.36-.24.55h2.18ZM90.59,26.94c.05-.32.06-.41.11-.86h-.79c-.04.3-.05.37-.14.86h.81ZM90.77,25.4q.01-.22.04-.76h-.76c-.02.35-.03.43-.06.76h.78ZM92.14,26.94c.04-.31.05-.57.08-.86h-.84c-.03.27-.06.55-.11.86h.87ZM92.25,25.4q.01-.43.02-.76h-.79q-.04.56-.05.76h.82Z"/>
            <path class="cls-4" d="M95.64,27.14c-.12.67-.24,1.06-.46,1.58l-.62-.42c.24-.41.37-.76.49-1.38l.59.22ZM97.12,23.89c.19,0,.33,0,.5-.03-.02.16-.03.36-.03.62v1.72c0,.38,0,.48.02.62-.2-.01-.33-.01-.6-.01h-1.4c-.15,0-.37,0-.63.01.02-.21.03-.42.03-.62v-1.62c-.16-.2-.23-.27-.42-.41.35-.37.55-.69.83-1.27.12-.26.18-.43.24-.71l.72.12c-.02.06-.04.08-.06.17-.04.09-.08.2-.11.27h.55c.21,0,.29,0,.38-.04l.26.34q-.06.09-.21.38c-.06.14-.15.29-.24.46h.17ZM95.64,25.03h.39v-.55h-.39v.55ZM95.64,26.21h.39v-.6h-.39v.6ZM96.19,27.04c.1.58.15.9.17,1.46l-.62.13v-.28c0-.32-.04-.77-.11-1.2l.55-.12ZM96.23,23.89c.11-.2.21-.38.28-.55h-.57c-.12.26-.18.36-.29.55h.58ZM96.88,26.99c.15.46.22.73.31,1.3l-.57.15c-.06-.5-.13-.9-.26-1.32l.52-.13ZM96.6,25.03h.37v-.55h-.37v.55ZM96.6,26.21h.37v-.6h-.37v.6ZM97.57,26.92c.13.31.28.76.38,1.13l-.52.19c-.09-.46-.2-.83-.35-1.18l.49-.15ZM98.98,25.68h-.44c-.29,0-.41,0-.59.04v-.75c.18.03.32.04.6.04h.43v-.66h-.5c-.29,0-.51.01-.69.04v-.76c.16.03.29.04.6.04h.11c-.17-.51-.3-.8-.52-1.13l.64-.3c.26.43.33.57.55,1.13l-.67.3h.88c.27-.5.46-.94.61-1.47l.73.27c-.22.54-.37.84-.6,1.21h.24c.32,0,.46,0,.63-.04v.76c-.18-.02-.4-.04-.7-.04h-.55v.66h.47c.29,0,.44,0,.61-.04v.75c-.18-.03-.32-.04-.61-.04h-.47v.74h.65c.28,0,.48,0,.7-.04v.77c-.2-.03-.41-.04-.68-.04h-.67v.78c0,.32.01.58.04.81h-.84c.04-.22.05-.48.05-.82v-.78h-.55c-.34,0-.53.01-.69.04v-.77c.22.03.41.04.66.04h.57v-.74Z"/>
            <path class="cls-4" d="M107.95,22.97c-.12.11-.15.13-.26.25-.53.55-1.05,1-1.65,1.44v2.99c0,.38,0,.59.04.78h-.98c.04-.2.04-.34.04-.76v-2.46c-.82.49-1.21.67-2.5,1.13-.15-.36-.22-.48-.47-.8,1.39-.38,2.56-.96,3.68-1.82.62-.48,1.1-.97,1.3-1.31l.8.56Z"/>
            <path class="cls-4" d="M114.87,23.95c-.05.13-.07.22-.08.47-.02.79-.1,1.87-.17,2.33-.18,1.21-.43,1.5-1.27,1.5-.27,0-.5-.02-.87-.08-.01-.44-.04-.57-.16-.9.41.11.69.16.92.16.3,0,.41-.15.52-.76.08-.48.15-1.44.15-2.24h-1.63c-.1.88-.25,1.41-.56,2.01-.38.74-1.01,1.38-1.89,1.94-.24-.37-.34-.48-.63-.74.88-.46,1.45-1.02,1.82-1.76.19-.39.29-.73.36-1.22.01-.1.03-.17.04-.22h-1.16c-.43,0-.53.01-.76.04v-.86c.23.04.42.06.77.06h1.23c.02-.27.03-.68.03-.88v-.17c0-.09,0-.15-.02-.27l.94.02c-.01.09-.02.12-.03.22,0,.04,0,.08,0,.13q-.01.15-.03.51c0,.15,0,.22-.03.44h1.55c.31,0,.38-.01.55-.07l.4.35Z"/>
            <path class="cls-4" d="M119.12,26.29c-.32,0-.5,0-.68.04v-.71c.16.02.27.03.54.03h.09v-.61h-.12c-.23,0-.35,0-.55.04v-.59c-.16.2-.24.29-.44.49-.03.57-.05.81-.1,1.15.23.36.5.65.83.9-.18.26-.27.4-.38.69-.29-.3-.45-.5-.62-.76-.22.71-.5,1.23-.96,1.71-.15-.25-.29-.42-.5-.6.4-.41.63-.83.8-1.46.2-.66.27-1.65.27-3.32,0-.6,0-.75-.05-1.02h.81q-.04.23-.04,1.34c0,.15,0,.24,0,.46.19-.28.28-.44.36-.62l.53.41c-.09.12-.22.29-.38.51.13.01.24.02.45.02h.12v-.22c0-.14,0-.22-.03-.33h.7c-.01.09-.02.17-.02.32v.24h1.51v-.23c0-.14,0-.21-.02-.32h.72c-.02.1-.03.19-.03.32v.23h.27c.24,0,.38,0,.58-.04v.73c-.19-.03-.34-.04-.58-.04h-.27v.61h.11c.29,0,.44,0,.64-.04v.73c-.22-.03-.42-.04-.71-.04h-.58v1.44c0,.14.04.16.41.16.18,0,.29-.04.31-.13.04-.12.06-.34.07-.74.2.13.34.19.66.28-.04.64-.11.95-.28,1.1-.13.12-.41.18-.9.18-.78,0-.97-.11-.97-.55v-1.73h-.55c-.04.43-.07.61-.17.88-.25.74-.71,1.18-1.6,1.54-.12-.29-.23-.46-.43-.64.5-.16.77-.32,1.04-.61.28-.3.42-.68.44-1.18h-.25ZM116.26,25.42c.1-.33.13-.48.17-.86.03-.33.05-.6.05-.81v-.18l.59.07c-.01.9-.08,1.46-.22,2.07l-.58-.29ZM120.8,23.76c0,.22,0,.29.02.41h-.71c.01-.11.02-.22.02-.41v-.24h-.81c-.25,0-.5.01-.68.04v-.73c.22.03.38.04.68.04h.81v-.18c0-.2,0-.31-.04-.47h.74c-.03.14-.04.27-.04.48v.17h1.02c.27,0,.47-.01.67-.04v.74c-.2-.02-.42-.04-.65-.04h-1.04v.23ZM121.23,25.64v-.61h-1.51v.61h1.51Z"/>
            <path class="cls-4" d="M124.32,23.32c.2.02.36.03.67.03.53,0,.91-.02,1.44-.08q-.02-.06-.08-.18c-.18-.41-.27-.62-.28-.64l.88-.12c.03.18.1.39.29.85.6-.08,1.41-.26,1.89-.42l.07.74q-.07.01-.24.05c-.47.11-1.25.27-1.46.29.11.26.15.35.27.57.6-.13.93-.2.97-.2.4-.1.48-.13.67-.2l.07.76c-.13.02-.28.05-.44.09-.29.07-.52.12-.69.15q-.17.04-.26.06c.36.6.48.75.94,1.28l-.62.44c-.5-.21-.93-.29-1.61-.29-.53,0-.94.07-1.18.2-.2.11-.3.26-.3.43s.12.33.3.41c.22.1.59.15,1,.15.73,0,1.72-.21,2.16-.46l.12.86q-.13.02-.46.11c-.6.16-1.18.24-1.79.24-.8,0-1.32-.1-1.71-.34-.34-.21-.54-.57-.54-.96s.21-.73.59-.97c.37-.23.93-.35,1.63-.35.43,0,.83.05,1.21.15-.11-.11-.24-.3-.54-.79-.74.11-1.19.14-2.71.19-.12,0-.17,0-.29.02l-.03-.76c.2.03.25.03.72.03.74,0,1.32-.04,1.98-.13-.04-.08-.07-.13-.12-.26-.07-.15-.09-.19-.15-.32-.56.06-1.06.09-1.88.1-.29,0-.33,0-.48.01l-.03-.74Z"/>
            <path class="cls-4" d="M132.05,22.68c.22.03.36.04.69.04.63,0,1.54-.04,2.08-.08.34-.03.51-.06.66-.11l.46.58c-.15.1-.18.13-.41.34-.51.46-1.3,1.09-1.93,1.53.35-.05.86-.1,1.7-.17.44-.04.76-.06.92-.07.25-.03.43-.04.5-.05.11,0,.13,0,.23-.03l.05.82h-.21c-.8,0-1.43.11-1.95.34-.57.26-.95.69-.95,1.06,0,.46.5.71,1.41.71.27,0,.46-.01.66-.06l.04.89c-.08,0-.16,0-.26,0-.05,0-.16,0-.36,0h-.09c-.43,0-.94-.08-1.3-.2-.6-.19-.99-.67-.99-1.23,0-.33.13-.64.38-.91.2-.21.37-.34.75-.53-.3.06-.53.09-.86.13-.32.04-.57.07-.77.1-.28.04-.66.08-1.13.15-.14.02-.19.04-.32.07l-.08-.85s.09,0,.11,0c.14,0,.44-.02.6-.04.04,0,.12-.01.27-.04.17-.01.24-.03.4-.06.62-.37,1.62-1.18,2.15-1.72-.54.08-.79.1-1.95.15-.18,0-.3.02-.45.04l-.04-.83Z"/>
            <path class="cls-4" d="M138.7,28.44c0-.07,0-.12-.03-.27-.13-.83-.19-1.5-.19-2.23,0-.63.04-1.25.13-1.85q.04-.22.19-1.01c.05-.25.08-.45.08-.52v-.02l.95.09c-.28.61-.57,2.43-.56,3.52,0,.17,0,.27,0,.27v.08c0,.08,0,.15,0,.26h0l.04-.07.08-.2c.11-.28.11-.3.19-.48.01-.04.04-.1.08-.22l.58.25c-.41.82-.69,1.68-.69,2.15,0,.05,0,.08.01.18l-.84.06ZM140.29,23.85c.32.08.69.1,1.26.1.23,0,.39,0,.65,0,0-.16,0-.27,0-.33v-.74c0-.17,0-.22-.02-.28h.87c-.04.19-.05.48-.05.95v.33c.5-.06.88-.13,1.15-.24l.03.79c-.06,0-.08,0-.2.04-.28.06-.64.12-.97.15v.16c0,.33.01.53.04.92l.02.36v.29c.49.22.75.38,1.11.64.09.06.13.09.2.13l-.33.84c-.2-.22-.37-.35-.97-.74,0,.05,0,.06,0,.1,0,.15-.02.29-.06.39-.16.41-.65.65-1.33.65-.92,0-1.48-.43-1.48-1.15,0-.67.6-1.15,1.44-1.15.26,0,.45.03.62.09-.01-.24-.03-.74-.05-1.49-.28.01-.44.01-.62.01-.27,0-.54,0-.88-.03-.11,0-.17,0-.21-.01h-.13s-.06,0-.06,0h-.04v-.8ZM141.71,26.78c-.45,0-.73.17-.73.46,0,.27.25.43.64.43.27,0,.47-.08.57-.21.06-.08.09-.19.09-.38,0-.08,0-.19,0-.19-.22-.08-.37-.1-.57-.1ZM143.53,22.18c.21.34.37.68.48,1.09l-.47.17c-.13-.45-.28-.79-.47-1.1l.46-.16ZM144.39,23.18c-.11-.38-.29-.77-.47-1.07l.43-.16c.19.29.34.62.48,1.05l-.44.18Z"/>
            <path class="cls-4" d="M149.06,25.81q0-.17.02-.77c-.17.29-.34.53-.59.81-.1-.29-.18-.48-.36-.83.52-.51.93-1.17,1.24-1.93.14-.35.24-.69.27-.95l.79.24c-.06.16-.07.2-.14.4-.16.47-.26.71-.49,1.16v3.9c0,.33.01.58.04.85h-.82c.03-.25.04-.48.04-.85v-2.02ZM151.4,25.04v2.45c0,.14.04.18.19.22.17.04.38.06.88.06.79,0,1.09-.03,1.25-.13.08-.05.14-.17.17-.32.02-.13.03-.22.05-.55.31.13.43.16.76.22-.08.8-.18,1.07-.39,1.24-.27.19-.73.25-2.01.25s-1.64-.14-1.64-.7v-2.49c-.06.02-.11.04-.14.04-.2.07-.27.1-.41.16l-.06-.8c.17-.02.37-.07.61-.14v-.83c0-.33,0-.52-.04-.74h.83c-.04.2-.04.39-.04.71v.62l.72-.23v-1.14c0-.28-.01-.46-.04-.7h.81c-.03.22-.04.39-.04.68v.93l1.02-.33c.27-.08.43-.15.57-.21,0,.15,0,.2,0,.38-.01.84-.06,1.81-.12,2.26-.07.53-.25.68-.79.68-.13,0-.21,0-.38-.02-.04-.27-.08-.43-.2-.71.18.04.37.06.48.06.15,0,.18-.05.22-.38.04-.27.06-.74.06-1.29l-.86.28v1.82c0,.29,0,.46.04.7h-.81c.04-.22.04-.4.04-.72v-1.56l-.72.23Z"/>
          </g>
          <g>
            <path class="cls-5" d="M69.74,8.82c-.26-.2-.91-.72-1.58-1.09l.65-.95c.58.29,1.14.66,1.66,1.08l-.72.96ZM69.9,12.68c-.19.4-.2.43-.2.49,0,.02.02.13.02.15,0,.09-.05.1-.08.1-.04,0-.14-.04-.24-.1l-1.07-.6c.71-1.04,1.17-2.17,1.48-3.13l1.02.7c-.39,1.12-.82,2.14-.94,2.4ZM70.28,5.96c-.36-.28-.88-.65-1.51-.96l.65-.95c.31.15.95.47,1.53.92l-.67.99ZM75.08,7.79v1.28h2.07v4.22h-1.21v-.41h-3.18v.44h-1.2v-4.25h2.23v-1.28h-2.56v-1.01h2.56v-1.06c-1.06.14-1.48.15-1.81.15l-.44-1.03c1.59.05,3.88-.27,4.91-.72l.75.79s.14.14.14.23c0,.07-.06.08-.12.08s-.28-.03-.29-.03c-.06,0-.42.1-.5.12-.15.02-.73.14-1.37.25v1.24h2.67v1.01h-2.67ZM75.94,10.12h-3.18v1.71h3.18v-1.71Z"/>
            <path class="cls-5" d="M88.83,12.93c-.83-.52-1.55-1.15-2.24-2.2v2.7h-1.28v-2.78c-.46.69-1.11,1.52-2.54,2.46l-.96-.79c.32-.18.99-.56,1.73-1.34.51-.53.93-1.13,1.27-1.78h-1.65v1.86h-1.85v1.13h-1.08v-6.99h2.93v2.94h2.14v-1.34h-1.85v-1.04h1.85v-1.66l1.28.08c.08,0,.24.01.24.13,0,.08-.1.16-.12.18-.05.04-.12.12-.12.17v1.1h2.28v1.04h-2.28v1.34h2.7v1.06h-2.37c.66,1.23,1.69,2.18,2.87,2.9l-.96.82ZM82.06,6.27h-.75v3.76h.75v-3.76Z"/>
            <path class="cls-5" d="M99.31,7.91c.55.5,1.1.99,1.58,1.56l-.85.75c-.13-.14-.3-.34-.71-.75-.58.08-1.23.13-1.7.17.15.02.29.04.29.14,0,.06-.09.11-.15.15v.55h2.31v.96h-2.31v.83h3.37v1.01h-7.64v-1.01h2.98v-.83h-2.36v-.96h2.36v-.76c-.64.04-1.55.1-1.62.1-.05,0-.36.01-.43.02-.03.01-.19.15-.25.15-.14,0-.17-.11-.18-.22l-.14-.96c.42.03.8.03,1.27.03.11-.15.33-.54.51-.94h-1.89c-.01.72-.02,1.3-.14,2.27-.18,1.41-.45,2.33-.83,3.22l-1.22-.37c.76-1.62.99-3.41.99-5.19,0-1.07-.04-2.56-.15-3.57h8.41v2.29h-7.06v.43h7.48v.91h-1.94ZM99.57,5.18h-5.8v.53h5.8v-.53ZM98.03,8.29l.33-.38h-1.4c-.17.32-.38.71-.53.92,1.31-.03,1.63-.05,2.12-.1-.17-.15-.19-.16-.53-.44Z"/>
          </g>
        </g>
      </g>
    </g>
  </g>
</svg>