<?xml version="1.0" encoding="UTF-8"?>
<svg xmlns="http://www.w3.org/2000/svg" viewBox="0 0 167.6 27.68">
  <defs>
    <style>
      .cls-1, .cls-2 {
        fill: #b28247;
      }

      .cls-3 {
        isolation: isolate;
      }

      .cls-4 {
        fill: #231815;
      }

      .cls-5 {
        fill: #fff;
      }

      .cls-2 {
        mix-blend-mode: multiply;
      }
    </style>
  </defs>
  <g class="cls-3">
    <g id="_レイヤー_2" data-name="レイヤー_2">
      <g id="_テキスト_xFF08_B_xFF09_" data-name="テキスト_xFF08_B_xFF09_">
        <g>
          <rect class="cls-1" width="167.6" height="17.49"/>
          <rect class="cls-2" x="0" y="0" width="8.29" height="17.49"/>
          <g>
            <path class="cls-4" d="M10.1,21.78c.13.01.19.02.35.02.82,0,1.7-.1,1.99-.22l.44.76c-.34.21-.57.41-.86.76-.6.7-.9,1.41-.9,2.07,0,.76.48,1.27,1.2,1.27.57,0,1.06-.33,1.28-.87.18-.43.26-.89.26-1.52,0-.78-.15-1.63-.38-2.13l.84-.25c.11.38.33.84.6,1.27.36.55.9,1.12,1.27,1.32l-.43.83c-.06-.06-.06-.06-.16-.15-.29-.26-.54-.56-.77-.88-.03-.04-.14-.22-.35-.56.12.5.15.75.15,1.23,0,1.5-.95,2.57-2.28,2.57-.44,0-.88-.12-1.21-.33-.54-.36-.87-1.03-.87-1.79,0-.54.18-1.16.48-1.68.16-.29.45-.65.71-.9t.12-.11s.03-.03.08-.07q-.08.01-.2.04c-.29.06-.39.08-1.13.14-.12,0-.13,0-.21.02v-.83Z"/>
            <path class="cls-4" d="M18.94,22.71c-.11.39-.22,1.04-.32,1.72q-.01.1-.04.2h.01c.41-.38,1.28-.65,2.12-.65,1.19,0,1.97.59,1.97,1.48,0,.51-.27,1.03-.72,1.35-.46.33-1.04.48-1.85.48-.6,0-.99-.05-1.79-.25,0-.43-.02-.57-.11-.9.69.24,1.29.35,1.88.35.99,0,1.67-.41,1.67-1.01,0-.47-.44-.75-1.18-.75-.62,0-1.28.19-1.74.51-.13.09-.17.13-.32.3l-.88-.03c.02-.13.02-.15.06-.42.06-.43.17-1.21.29-2.04.03-.17.04-.25.04-.41l.88.05ZM19.03,21.34c.48.27,1.82.67,2.61.78l-.29.8c-1.2-.27-1.93-.5-2.73-.88l.41-.71Z"/>
            <path class="cls-4" d="M26.01,21.55c0,.27.08.77.17,1.13.48-.2.89-.28,1.35-.28h.19c.15-.6.2-.85.2-1.09l.88.17c-.04.08-.06.13-.07.2-.1.38-.19.72-.22.82.41.11.66.22.94.42.56.41.86,1.01.86,1.74,0,1.03-.6,1.86-1.64,2.3-.34.15-.6.22-1.14.34-.11-.35-.17-.47-.43-.82.48-.04.76-.11,1.14-.27.48-.2.79-.45.98-.75.15-.26.24-.55.24-.86,0-.46-.16-.81-.51-1.09-.19-.15-.34-.22-.63-.3-.28.96-.76,1.95-1.28,2.61-.25.32-.55.61-.83.77-.22.13-.41.19-.65.19-.72,0-1.21-.63-1.21-1.58,0-.86.39-1.6,1.12-2.15-.04-.11-.16-.71-.24-1.11-.01-.09-.03-.13-.07-.24l.85-.16ZM25.12,25.18c0,.46.2.77.48.77.2,0,.42-.15.66-.46-.32-.71-.43-1.03-.57-1.61-.39.41-.56.81-.56,1.3ZM26.79,24.81s.02-.06.04-.09c.28-.48.47-.92.7-1.62-.48,0-.83.08-1.21.28.11.48.2.77.42,1.32.02.06.03.07.04.11h0Z"/>
            <path class="cls-4" d="M34.2,21.4c-.02.06-.04.14-.06.22-.01.09-.02.13-.04.24q-.02.15-.12.67c-.03.15-.03.17-.05.26.2-.01.3-.02.44-.02.46,0,.8.13,1.04.37.24.27.33.6.33,1.24,0,1.21-.2,2.16-.54,2.55-.2.23-.41.32-.78.32-.32,0-.61-.06-1.08-.2,0-.14.01-.24.01-.31,0-.18-.01-.32-.07-.6.38.17.78.27,1.02.27.2,0,.32-.13.42-.48.11-.36.18-1,.18-1.6,0-.64-.16-.83-.71-.83-.14,0-.24,0-.41.02-.21.85-.27,1.06-.43,1.52-.24.7-.43,1.15-.84,1.97q-.04.07-.11.21s-.02.05-.05.12l-.81-.45c.21-.28.49-.78.73-1.32.3-.69.4-.98.68-1.98-.36.04-1.02.16-1.25.22l-.08-.83c.26,0,1.11-.08,1.49-.14.13-.76.18-1.18.18-1.42v-.13l.91.1ZM36.52,22.3c.7.82,1.14,1.65,1.44,2.73l-.8.41c-.13-.6-.29-1.06-.56-1.59-.25-.52-.48-.84-.81-1.2l.72-.35Z"/>
            <path class="cls-4" d="M38.91,22.77c.24-.02.35-.04.82-.14,1.6-.34,1.97-.4,2.79-.4,1.39,0,2.29.78,2.29,1.97,0,.95-.56,1.76-1.55,2.24-.64.32-1.18.44-2.47.58-.09-.38-.15-.53-.36-.9,1.12-.05,1.71-.15,2.3-.41.5-.22.92-.62,1.06-1.04.05-.14.08-.31.08-.5,0-.38-.2-.72-.53-.91-.22-.13-.52-.19-.9-.19-.73,0-1.63.16-2.76.5-.36.11-.41.12-.56.2l-.2-.99Z"/>
            <path class="cls-4" d="M50.2,22.74v-.32s0-.22,0-.22c0-.46,0-.62-.04-.78h.9c-.02.16-.03.2-.03.47q0,.43,0,.85h.45c.5,0,.64,0,.91-.05v.85c-.25-.03-.44-.04-.9-.04h-.47c-.01.84-.01.89-.05,1.16-.1.9-.4,1.49-1.01,2.01-.38.32-.72.5-1.37.74-.13-.3-.22-.43-.53-.74.66-.2,1-.37,1.34-.67.47-.41.68-.88.74-1.68.01-.16.01-.33.03-.81h-1.81v1.05c0,.29,0,.41.03.59h-.91c.02-.15.03-.34.03-.6v-1.04h-.43c-.46,0-.65,0-.9.04v-.85c.27.04.41.05.91.05h.41v-.7c0-.29,0-.44-.04-.62h.92c-.03.23-.03.25-.03.6v.72h1.82Z"/>
            <path class="cls-4" d="M53.91,26.21c.6-.04,1.44-.24,2.07-.52.88-.38,1.53-.92,2.08-1.72.31-.45.5-.83.71-1.4.27.33.38.43.74.69-.6,1.28-1.26,2.11-2.22,2.75-.71.48-1.58.82-2.67,1.05-.28.06-.3.06-.46.12l-.26-.97ZM54.5,21.86c.83.52,1.27.84,1.81,1.35l-.6.76c-.56-.59-1.13-1.06-1.79-1.42l.58-.69Z"/>
            <path class="cls-4" d="M61.6,27.37c.03-.2.04-.39.04-.79v-4.49c0-.41-.01-.55-.04-.71h.96c-.02.19-.03.32-.03.74v1.3c.81.27,2.07.85,3.18,1.48l-.49.83c-.49-.35-1.48-.89-2.48-1.34-.16-.08-.18-.08-.24-.12.02.2.03.31.03.48v1.85c0,.38,0,.58.03.78h-.96ZM64.49,21.75c.31.33.5.59.73,1.03l-.49.26c-.23-.43-.43-.71-.73-1.04l.49-.25ZM65.58,22.59c-.21-.38-.44-.71-.71-1.01l.47-.25c.31.32.51.59.73.99l-.48.27Z"/>
            <path class="cls-4" d="M72.82,21.1l-5.31,6.58h-1.03l5.3-6.58h1.04Z"/>
            <path class="cls-4" d="M75.57,21.98c-.02.08-.03.08-.04.14l-.02.12-.03.2-.02.17c-.29,2.01-.84,3.39-1.78,4.47-.33-.32-.46-.42-.8-.6.42-.42.71-.85,1-1.49.3-.65.55-1.52.66-2.4.04-.29.06-.53.06-.68v-.1l.96.17ZM77.56,21.81c0,.32.13,1.01.29,1.61.34,1.29.83,2.24,1.56,3.03-.36.22-.5.34-.77.64-.93-1.11-1.58-2.72-1.86-4.61-.04-.29-.06-.4-.1-.5l.87-.17ZM78.16,21.39c.26.36.41.66.58,1.13l-.53.17c-.16-.45-.31-.75-.57-1.14l.53-.15ZM79.12,22.4c-.16-.43-.34-.79-.56-1.11l.52-.15c.27.37.42.67.57,1.09l-.53.17Z"/>
            <path class="cls-4" d="M85.88,21.93c-.12.11-.15.13-.26.25-.53.55-1.05,1-1.65,1.44v2.99c0,.38,0,.59.04.78h-.98c.04-.2.04-.34.04-.76v-2.46c-.82.49-1.21.67-2.5,1.13-.15-.36-.22-.48-.47-.8,1.39-.38,2.56-.96,3.68-1.82.62-.48,1.1-.97,1.3-1.31l.8.56Z"/>
            <path class="cls-4" d="M89.69,26.53c-.69.6-1.15.83-2.23,1.15-.22-.36-.27-.43-.51-.7.95-.19,1.49-.42,2.04-.88l.71.43ZM92.47,25.26c0,.33.01.64.04.82-.26-.02-.54-.04-.8-.04h-3.09c-.29,0-.52,0-.8.04.02-.22.04-.5.04-.83v-2.98c0-.37,0-.58-.04-.8.25.03.5.03.83.03h3.06c.34,0,.53,0,.8-.03-.02.17-.04.49-.04.82v2.98ZM88.63,22.8h3.07v-.6h-3.07v.6ZM88.63,24.08h3.07v-.61h-3.07v.61ZM88.63,25.36h3.07v-.62h-3.07v.62ZM91.21,26.1c.38.29.66.44,1.09.6.26.1.46.15.95.26-.19.21-.34.42-.5.72-1.01-.31-1.53-.58-2.21-1.16l.67-.42Z"/>
            <path class="cls-4" d="M96.44,22.26c-.19,0-.4.01-.67.04v-.84c.2.03.35.04.66.04h1.12c.29,0,.47,0,.64-.04-.02.2-.02.27-.02.44,0,1,.25,1.92.75,2.77.29.49.64.91,1.12,1.34.36.33.56.48,1.04.76-.27.26-.4.44-.6.79-.7-.49-1.22-1-1.7-1.65-.26-.34-.41-.61-.62-1.04-.18-.38-.25-.56-.36-.99-.25.9-.53,1.49-1,2.12-.45.58-.97,1.07-1.74,1.58-.15-.31-.31-.52-.57-.74.59-.34.94-.61,1.41-1.1.55-.57.97-1.32,1.2-2.07.14-.48.2-.85.23-1.42h-.88Z"/>
            <path class="cls-4" d="M103.54,21.33c-.08.24-.12.42-.25,1.35-.05.29-.08.53-.09.7h.02s.01-.04.04-.15c.07-.25.25-.59.44-.83.39-.48.82-.71,1.33-.71.48,0,.9.22,1.2.63.35.47.5,1.04.5,1.86,0,1.35-.63,2.36-1.81,2.88-.36.16-.85.3-1.37.39-.14-.4-.22-.55-.41-.83.7-.08,1.11-.18,1.53-.4.81-.41,1.18-1.08,1.18-2.14,0-1.01-.34-1.57-.94-1.57-.27,0-.51.12-.76.37-.55.57-.88,1.43-.88,2.26v.15h-.84s0-.06,0-.08v-.13c0-.2-.02-.72-.02-.86,0-.57.04-1.34.1-1.83l.11-.87c.01-.12.02-.15.02-.24l.89.05Z"/>
            <path class="cls-4" d="M110.86,26.29c0,.29-.02.46-.06.6-.06.25-.31.41-.64.41-.44,0-.97-.2-1.32-.5-.25-.22-.38-.49-.38-.79,0-.33.22-.7.6-1.04.25-.22.56-.4,1.02-.6v-1.08q-.06,0-.29.01c-.1,0-.2,0-.38,0-.11,0-.3,0-.39,0-.09,0-.15,0-.17,0-.03,0-.08,0-.15,0v-.78c.19.04.47.06.84.06.07,0,.15,0,.24,0,.17,0,.2,0,.28,0v-.46c0-.4,0-.58-.04-.8h.88c-.04.22-.04.37-.04.76v.45c.53-.06.99-.15,1.35-.27l.03.78c-.12.02-.26.04-.74.13-.23.04-.37.06-.64.09v.91c.48-.14.92-.2,1.43-.2,1.17,0,2,.71,2,1.71,0,.91-.68,1.6-1.59,1.6-.57,0-.97-.27-1.15-.78-.09-.24-.12-.47-.12-.9.36-.1.48-.15.78-.31-.01.13-.01.2-.01.31,0,.29.03.48.1.62.08.15.25.24.44.24.41,0,.71-.33.71-.78,0-.6-.49-.99-1.24-.99-.42,0-.85.08-1.34.23v1.38ZM110.07,25.16c-.53.28-.83.59-.83.84,0,.12.07.22.23.32.14.1.31.15.45.15.12,0,.15-.06.15-.29v-1.02ZM113.95,23.75c-.35-.55-.86-1.11-1.4-1.51l.66-.44c.61.47,1.02.89,1.39,1.44l-.64.52Z"/>
            <path class="cls-4" d="M115.9,22.17c.15,0,.23,0,.27,0q.12,0,1.15-.07c.51-.03,1.71-.09,3.58-.18.57-.03.61-.03.72-.06l.05.89q-.08,0-.15,0c-.42,0-.94.14-1.39.38-.89.46-1.42,1.16-1.42,1.87,0,.55.34.97.93,1.14.34.11.79.18,1.04.18,0,0,.07,0,.14,0l-.12.95c-.09-.02-.11-.02-.24-.04-.77-.1-1.21-.22-1.64-.46-.64-.36-1-.96-1-1.69,0-.59.24-1.18.67-1.65.27-.29.52-.48.97-.71-.57.08-1,.13-2.36.22-.62.05-.95.09-1.16.14l-.05-.92ZM120.73,23.51c.31.33.5.59.74,1.03l-.49.26c-.23-.43-.43-.71-.74-1.04l.49-.25ZM121.81,24.36c-.21-.39-.44-.71-.71-1.02l.47-.25c.32.32.51.59.73.99l-.48.27Z"/>
            <path class="cls-4" d="M124.74,24.47s.04-.05.13-.15c.22-.25.59-.41.9-.41s.63.16.78.4c.14.22.18.48.18,1.28,0,.5.03.64.15.75.08.06.2.1.37.1.37,0,.67-.26.88-.75.13-.32.23-.75.27-1.11.23.24.34.31.77.53-.3,1.45-.99,2.18-2.04,2.18-.54,0-.93-.21-1.1-.61-.08-.18-.12-.43-.12-.78v-.07c0-.25,0-.42,0-.49,0-.22-.01-.32-.05-.41-.05-.1-.18-.16-.32-.16-.38,0-.77.35-1.11.98-.21.4-.5,1.18-.59,1.6l-.9-.29c.1-.2.16-.37.39-.98q1.61-4.48,1.66-4.76l.95.24c-.1.19-.13.27-.34.81-.4,1.02-.71,1.79-.86,2.12h.01Z"/>
            <path class="cls-4" d="M136.12,21.1l-5.31,6.58h-1.03l5.3-6.58h1.04Z"/>
            <path class="cls-4" d="M139.34,21.4c-.02.06-.04.14-.06.22-.01.09-.02.13-.04.24q-.02.15-.12.67c-.03.15-.03.17-.05.26.2-.01.3-.02.44-.02.46,0,.8.13,1.04.37.24.27.33.6.33,1.24,0,1.21-.2,2.16-.54,2.55-.2.23-.41.32-.78.32-.32,0-.61-.06-1.08-.2,0-.14.01-.24.01-.31,0-.18-.01-.32-.07-.6.38.17.78.27,1.02.27.2,0,.32-.13.42-.48.11-.36.18-1,.18-1.6,0-.64-.16-.83-.71-.83-.14,0-.24,0-.41.02-.21.85-.27,1.06-.43,1.52-.24.7-.43,1.15-.84,1.97q-.04.07-.11.21s-.02.05-.05.12l-.81-.45c.21-.28.49-.78.73-1.32.3-.69.4-.98.68-1.98-.36.04-1.02.16-1.25.22l-.08-.83c.26,0,1.11-.08,1.49-.14.13-.76.18-1.18.18-1.42v-.13l.91.1ZM141.66,22.3c.7.82,1.14,1.65,1.44,2.73l-.8.41c-.13-.6-.29-1.06-.56-1.59-.25-.52-.48-.84-.81-1.2l.72-.35Z"/>
            <path class="cls-4" d="M144.52,22.28c.2.02.36.03.67.03.53,0,.91-.02,1.44-.08q-.02-.06-.08-.18c-.18-.41-.27-.62-.28-.64l.88-.12c.03.18.1.39.29.85.6-.08,1.41-.26,1.89-.42l.07.74q-.07.01-.24.05c-.47.11-1.25.27-1.46.29.11.26.15.35.27.57.6-.13.93-.2.97-.2.4-.1.48-.13.67-.2l.07.76c-.13.02-.28.05-.44.09-.29.07-.52.12-.69.15q-.17.04-.26.06c.36.6.48.75.94,1.28l-.62.44c-.5-.21-.93-.29-1.61-.29-.53,0-.94.07-1.18.2-.2.11-.3.26-.3.43s.12.33.3.41c.22.1.6.15,1,.15.73,0,1.72-.21,2.16-.46l.12.86q-.13.02-.46.11c-.6.16-1.18.24-1.79.24-.8,0-1.32-.1-1.71-.34-.34-.21-.54-.57-.54-.96s.21-.73.59-.97c.37-.23.93-.35,1.63-.35.43,0,.83.05,1.21.15-.11-.11-.24-.3-.54-.79-.74.11-1.19.14-2.71.19-.12,0-.17,0-.29.02l-.03-.76c.2.03.25.03.72.03.74,0,1.32-.04,1.98-.13-.04-.08-.07-.13-.12-.26-.07-.15-.09-.19-.15-.32-.56.06-1.06.09-1.88.1-.29,0-.33,0-.48.01l-.03-.74Z"/>
            <path class="cls-4" d="M153.82,23.76q-.07.16-.1.29c-.18.61-.46,1.18-.81,1.7-.34.48-.7.86-1.28,1.33-.19-.28-.34-.43-.61-.62.42-.27.75-.55,1.06-.9.39-.45.6-.8.83-1.41h-.96c-.28,0-.49.01-.67.04v-.8c.16.02.41.04.71.04h.85c.33,0,.48,0,.63-.03l.35.36ZM152.18,21.47c.6.47.78.64,1.28,1.22l-.61.53c-.44-.57-.68-.81-1.25-1.26l.58-.49ZM157.32,22.69q-.07.07-.22.24c-.38.45-.94.97-1.51,1.44.29.43.53.71.89,1.06.35.33.53.47,1.14.86-.27.23-.41.39-.62.73-.54-.42-.79-.66-1.14-1.06-.24-.28-.44-.56-.67-.93s-.31-.55-.48-.98c.04.72.04.88.04,1.15v1.72c0,.51-.2.66-.95.66-.17,0-.22,0-.8-.04-.03-.29-.08-.48-.2-.79.38.05.67.08.91.08.22,0,.25-.02.25-.17v-4.69c0-.29-.01-.5-.05-.74h.88c-.04.22-.05.44-.05.74v.53c.11.45.21.72.46,1.21.61-.51.81-.71,1.14-1.17.12-.16.2-.29.27-.42l.7.57Z"/>
          </g>
          <g>
            <path class="cls-5" d="M66.91,12.44c-.34,0-.61-.18-.8-.36-.75-.73-1.1-1.99-1.1-4.04,0-1.38.15-2.08.32-2.8l1.18.32c.08.02.25.08.25.2,0,.12-.13.16-.31.23-.12.59-.21,1.22-.21,2.4,0,2.1.52,2.49.73,2.49.39,0,.83-1.14,1.03-1.66l.89.8c-.59,1.27-1.13,2.41-2,2.41ZM72.37,10.52c-.31-2.24-1.02-3.51-1.58-4.37l1.11-.54c.52.73,1.48,2.09,1.77,4.58l-1.29.33Z"/>
            <path class="cls-5" d="M80.77,12.89c-.95.48-2.58.54-3.81.56l-.36-1.23c.66.09,1.27.09,1.4.09,2.13,0,3.11-.87,3.11-1.77,0-.73-.66-1.23-1.4-1.23-.99,0-1.88.8-2.69,1.56l-.91-.71c.37-.94.67-2.13.84-2.83-.23.02-.46.02-.67.02-.1,0-.58,0-1.01-.04l-.15-1.14c.74.17,1.44.17,1.51.17.2,0,.39-.01.56-.02.12-.51.31-1.4.39-2.24l1.23.28c.08.02.23.06.23.14,0,.12-.14.12-.27.19-.05.21-.31,1.26-.37,1.49,1.27-.24,1.91-.44,2.73-.84v1.17c-.95.36-1.65.53-3,.72-.09.33-.31,1.19-.53,1.9,1.09-.71,1.84-.83,2.28-.83,1.33,0,2.39.86,2.39,2.18,0,1.03-.56,1.93-1.51,2.41Z"/>
            <path class="cls-5" d="M88.14,12.65c-2.43,0-3.47-.45-3.47-1.54,0-.97.72-1.62,1.04-1.91l.94.76c-.17.14-.6.52-.6.91,0,.3.08.6,1.91.6,1.63,0,2.58-.19,3.33-.34l.08,1.29c-.83.1-1.91.23-3.22.23ZM88.3,8.07l-.74-.78c.25-.22.68-.6,1.09-.98-.46.03-.84.05-1.66.05-.65,0-.96-.01-1.46-.04l-.32-1.19c.89.13,1.81.19,2.71.19.82,0,1.64-.05,2.46-.17l.48.87c-.84.58-1.67,1.28-2.55,2.04ZM92.05,6.63c-.28-.39-.52-.66-.89-.96l.46-.48c.31.26.56.5.89.96l-.46.49ZM92.62,5.44c-.23-.3-.44-.56-.88-.92l.46-.49c.31.24.61.51.92.88l-.5.52Z"/>
            <path class="cls-5" d="M99.11,9.89l-.41-1.17c.22.03.45.05.67.05,1.29,0,2.08-.68,2.08-1.42,0-.59-.66-.81-1-.81-.25,0-.55.09-.7.13.15.2.32.48.57.89l-1.16.5c-.1-.22-.2-.43-.54-.98-.53.23-.83.38-1.49.73.81,1.64,1.33,2.92,1.98,4.93l-1.21.54c-.73-2.61-1.37-3.92-1.83-4.85-.73.48-1.06.74-1.4,1.06l-.97-1.07c.15-.09.32-.18,1.82-1.04-.37-.66-.67-1.16-1.11-1.71l1.14-.5c.13-.05.43-.2.43-.01,0,.05-.09.27-.09.32,0,.04.11.21.14.27.08.11.4.7.58,1.03.58-.3.91-.45,1.36-.65-.54-.7-.8-.95-1.09-1.18l1.11-.52c.31.32.55.58,1.08,1.28.37-.11.83-.24,1.33-.24,1.02,0,2.19.54,2.19,1.9,0,2.41-2.64,2.49-3.48,2.51Z"/>
          </g>
        </g>
      </g>
    </g>
  </g>
</svg>