<?xml version="1.0" encoding="UTF-8"?>
<svg xmlns="http://www.w3.org/2000/svg" viewBox="0 0 167.6 27.99">
  <defs>
    <style>
      .cls-1, .cls-2 {
        fill: #b28247;
      }

      .cls-3 {
        isolation: isolate;
      }

      .cls-4 {
        fill: #231815;
      }

      .cls-5 {
        fill: #fff;
      }

      .cls-2 {
        mix-blend-mode: multiply;
      }
    </style>
  </defs>
  <g class="cls-3">
    <g id="_レイヤー_2" data-name="レイヤー_2">
      <g id="_テキスト_xFF08_B_xFF09_" data-name="テキスト_xFF08_B_xFF09_">
        <g>
          <rect class="cls-1" width="167.6" height="17.49"/>
          <rect class="cls-2" x="0" width="8.29" height="17.49"/>
          <g>
            <path class="cls-4" d="M38.52,27.59c-.58-.71-1.39-1.5-2.15-2.08-.79.88-1.6,1.5-2.67,2.02-.2-.36-.28-.48-.57-.78.54-.21.88-.4,1.4-.77,1.06-.74,1.9-1.76,2.35-2.85l.08-.18q-.11,0-2.32.04c-.34,0-.53.02-.76.06l-.03-.9c.2.04.33.04.62.04h.17l2.46-.04c.39,0,.45-.01.62-.08l.46.48c-.09.11-.15.2-.22.38-.32.75-.67,1.36-1.09,1.93.44.29.82.59,1.29,1.02q.18.15,1.02.97l-.67.73Z"/>
            <path class="cls-4" d="M43.16,21.87c-.08.15-.08.17-.18.5-.53,1.75-.94,2.91-1.39,3.99,1.1-.08,2.31-.23,2.91-.36-.08-.17-.16-.32-.33-.64-.31-.58-.43-.78-.67-1.11l.79-.31c.65.95,1.27,2.13,1.69,3.24l-.85.44q-.09-.29-.34-.87-.09.02-.25.06c-.71.15-1.87.29-3.96.5-.39.04-.5.05-.64.08l-.12-.95h.18c.14,0,.31,0,.6-.02.37-.88.65-1.67,1.02-2.82.33-1.03.46-1.53.51-1.94l1.02.2Z"/>
            <path class="cls-4" d="M46.28,24.18c.31.04.44.05,1.13.05h3.73c.69,0,.83,0,1.13-.05v.97c-.28-.04-.36-.04-1.14-.04h-3.72c-.79,0-.86,0-1.14.04v-.97Z"/>
            <path class="cls-4" d="M53.54,23.54c.65.26,1.34.61,1.86.95l-.43.79c-.46-.36-1.25-.78-1.9-1.02l.47-.72ZM53.23,26.68c.55,0,1.28-.17,2.02-.46,1.28-.45,2.33-1.6,2.84-3.09.27.29.41.41.73.62-.87,2.12-2.35,3.27-4.86,3.76-.3.06-.36.08-.49.12l-.24-.96ZM54.08,21.85c.66.25,1.36.59,1.86.9l-.45.77c-.57-.39-1.36-.8-1.87-.96l.46-.71ZM57.73,21.71c.31.33.5.6.74,1.03l-.49.26c-.23-.43-.43-.71-.74-1.04l.49-.25ZM58.81,22.56c-.21-.38-.44-.71-.71-1.02l.47-.25c.32.32.51.59.73.99l-.48.27Z"/>
            <path class="cls-4" d="M59.52,24.18c.31.04.44.05,1.13.05h3.73c.69,0,.83,0,1.13-.05v.97c-.28-.04-.36-.04-1.14-.04h-3.72c-.79,0-.86,0-1.14.04v-.97Z"/>
            <path class="cls-4" d="M74.47,21.4l-5.31,6.58h-1.03l5.3-6.58h1.04Z"/>
            <path class="cls-4" d="M78.85,23.41c-.1,0-.23-.01-.34-.01h-.1c.18.5.35.76.7,1.13-.15.17-.29.38-.38.58-.18-.29-.22-.39-.39-.75.02.3.04.62.04,1v1.74c0,.36.01.64.04.86h-.81c.03-.22.04-.5.04-.86v-1.35s.01-.36.04-.98c-.24.74-.38,1.07-.58,1.36-.13-.29-.25-.5-.41-.69.38-.51.69-1.23.88-2.04h-.2c-.22,0-.35,0-.47.04v-.74c.12.02.24.03.47.03h.26v-.54c0-.37,0-.53-.03-.73h.8c-.03.18-.04.39-.04.72v.55h.13c.18,0,.27,0,.41-.03v.41c.15.02.4.03.62.03h.34v-.47h-.18c-.28,0-.48,0-.66.03v-.68c.19.02.41.04.65.04h.18v-.11c0-.22,0-.32-.04-.46h.76c-.02.15-.03.25-.03.46v.11h.9v-.1c0-.21,0-.31-.03-.47h.76c-.03.13-.04.24-.04.47v.1h.29c.26,0,.48-.01.68-.04v.67c-.15-.01-.38-.02-.67-.02h-.3v.47h.41c.32,0,.55-.01.72-.03v.69c-.17-.02-.41-.04-.69-.04h-1.28v.36h1.09c.25,0,.4,0,.55-.02-.01.15-.02.31-.02.53v1.48c0,.27,0,.45.02.6-.16-.01-.32-.02-.54-.02h-.62c.21.16.29.21.51.32.33.15.59.24,1.02.32-.21.33-.22.36-.36.68-.9-.32-1.06-.41-1.67-.92l.38-.39h-1.41l.41.42c-.27.26-.41.36-.71.52-.3.16-.5.24-.96.36-.11-.23-.2-.39-.4-.63.52-.09.85-.2,1.2-.41.12-.08.18-.12.34-.26h-.49c-.21,0-.38,0-.54.02.01-.18.02-.27.02-.52v-1.56c0-.19,0-.35-.02-.53.15.01.31.02.55.02h.99v-.36h-1.11c-.28,0-.52,0-.69.03v-.37ZM79.83,24.7v.41h.82v-.41h-.82ZM79.83,25.65v.43h.82v-.43h-.82ZM81.46,22.67h-.9v.47h.9v-.47ZM82.23,25.11v-.41h-.92v.41h.92ZM82.23,26.08v-.43h-.92v.43h.92Z"/>
            <path class="cls-4" d="M86.79,26.55c-.25,0-.39,0-.55.02.01-.19.02-.41.02-.66v-.12c-.66.9-1.24,1.44-2.15,2-.12-.27-.25-.49-.44-.72.54-.29.92-.57,1.32-.99.3-.3.46-.52.64-.84l.62.5v-2.25c0-.24,0-.42-.03-.64.15.01.26.02.59.02h.59c.1-.2.16-.34.22-.5h-.84c-.34,0-.54,0-.73.03v-.38q-.36.37-.57.56c-.4.35-.9.69-1.38.94-.11-.25-.26-.53-.39-.71.57-.27.9-.48,1.27-.79.22-.2.38-.38.5-.56l.58.45v-.25c.24.03.49.04.8.04h2.51c.33,0,.58-.01.83-.04v.75c-.17-.02-.36-.03-.76-.03h-1.02c-.05.15-.13.32-.22.5h.99c.37,0,.53,0,.69-.02-.02.19-.03.38-.03.67v2.34c0,.33,0,.52.03.72-.2-.01-.39-.02-.62-.02h-.44c.45.36.72.49,1.5.73-.16.22-.28.43-.38.68-.76-.27-1.13-.49-1.75-1.03l.54-.38h-1.57l.45.38c-.57.49-.96.73-1.77,1.04-.11-.23-.24-.42-.42-.64.78-.24,1.12-.4,1.6-.78h-.21ZM86.19,23.77q-.1.1-.34.35c-.54.57-1.12,1.01-1.79,1.37-.09-.24-.2-.45-.37-.74.53-.25.86-.46,1.25-.78.28-.24.46-.42.64-.69l.62.5ZM86.98,23.87h2.12v-.38h-2.12v.38ZM86.98,24.85h2.12v-.4h-2.12v.4ZM86.98,25.88h2.12v-.43h-2.12v.43Z"/>
            <path class="cls-4" d="M93.45,21.94c.22,0,.38,0,.57-.02q-.01.1-.03.34c-.03.59-.09,1.03-.17,1.19-.12.24-.31.32-.79.32-.15,0-.27,0-.49-.01-.03-.24-.05-.34-.14-.59.31.02.44.03.58.03.23,0,.27-.07.3-.64h-.72c-.21.68-.59,1.11-1.39,1.58-.16-.22-.29-.36-.5-.53.65-.34.98-.63,1.16-1.05h-.41c-.22,0-.45,0-.57.03v-.67c.17.02.34.03.64.03h.48c.01-.13.01-.15.01-.24,0-.1,0-.2-.01-.25h.76s0,.08,0,.1q-.01.08-.02.2s0,.06-.02.2h.76ZM92.29,26.82c-.29,0-.6,0-.74.02.02-.21.03-.35.03-.7v-1.44c0-.33,0-.5-.03-.72.15,0,.41.01.71.01h3.4c.39,0,.49,0,.7-.02-.01.2-.02.38-.02.77v1.35c0,.27,0,.59.03.75-.14-.01-.43-.02-.74-.02h-.47c.69.29,1.1.38,2.02.48-.18.24-.31.44-.43.67-1.01-.17-1.49-.35-2.28-.8l.46-.35h-2.05l.51.35c-.69.43-1.13.59-2.22.81-.13-.28-.2-.37-.43-.64.83-.09,1.37-.23,1.93-.51h-.38ZM92.3,24.78h3.31v-.26h-3.31v.26ZM92.3,25.51h3.31v-.25h-3.31v.25ZM92.3,26.27h3.31v-.27h-3.31v.27ZM94.89,23.68c-.22,0-.4,0-.59.02.02-.17.03-.32.03-.53v-.86c0-.22,0-.37-.03-.57.18.02.34.03.62.03h1.38c.27,0,.44,0,.62-.03-.02.2-.03.35-.03.59v.8c0,.23,0,.39.03.57-.18-.01-.38-.02-.6-.02h-1.43ZM95.04,23.09h1.12v-.68h-1.12v.68Z"/>
            <path class="cls-4" d="M98.01,23.29c.49.3.76.51,1.13.88l-.5.57c-.38-.42-.61-.61-1.12-.93l.48-.53ZM99.17,25.74c-.2.64-.33,1-.6,1.61l-.27.57-.66-.55s.08-.1.13-.19c.27-.44.54-1.11.78-1.93l.62.48ZM98.35,21.53c.43.3.72.55,1.07.91l-.54.56c-.39-.45-.66-.69-1.06-.96l.53-.51ZM102.99,22.09c.53,0,.74,0,1.01-.04v.75c-.19-.02-.41-.03-.92-.03h-2.63c-.12.19-.2.33-.32.5h2.71c.34,0,.54,0,.73-.02-.01.1-.02.18-.04.39,0,.05-.01.39-.04,1.03.34,0,.44,0,.62-.04v.74c-.22-.03-.38-.04-.59-.04h-.07c-.03.36-.04.59-.07.86.28,0,.38,0,.53-.04v.74c-.17-.02-.29-.03-.53-.03h-.08c-.15.87-.31,1.03-1.04,1.03-.11,0-.2,0-.63-.04,0-.3-.04-.46-.15-.72.27.05.5.07.71.07.26,0,.29-.03.37-.34h-2.37c-.05.22-.06.29-.12.55l-.79-.08c.2-.57.34-1.21.46-2.01h-.11c-.22,0-.35,0-.55.04v-.74c.2.03.35.04.65.04h.08c.06-.53.08-.81.08-1.09-.14.17-.21.25-.43.46-.14-.22-.3-.39-.53-.57.45-.4.66-.65.9-1.06.2-.35.35-.72.39-.99l.8.14q-.15.36-.24.55h2.18ZM101.13,26.2c.05-.32.06-.41.11-.86h-.79c-.04.3-.05.37-.14.86h.81ZM101.31,24.66q.01-.22.04-.76h-.76c-.02.35-.03.43-.06.76h.78ZM102.68,26.2c.04-.32.05-.58.08-.86h-.84c-.03.27-.06.55-.11.86h.87ZM102.79,24.66q.01-.43.02-.76h-.79q-.04.56-.05.76h.82Z"/>
            <path class="cls-4" d="M107.95,23.66h1.49c.37,0,.48,0,.66-.02-.02.22-.03.36-.03.65v1.17c0,.32,0,.44.03.67-.19-.01-.31-.02-.68-.02h-1.48v.36h2.07c.3,0,.51-.01.74-.04v.74c-.25-.03-.49-.04-.79-.04h-2.02c0,.39,0,.57.04.83h-.82c.04-.28.05-.44.05-.83h-1.88c-.3,0-.54.01-.78.04v-.74c.22.03.43.04.73.04h1.93v-.36h-1.36c-.36,0-.48,0-.67.02.02-.24.03-.39.03-.67v-1.17c0-.25,0-.42-.03-.65.18.01.29.02.67.02h1.37v-.35h-1.51c-.27,0-.43,0-.62.03v-.17h-.51c.02-.15.03-.27.03-.5v-.52c0-.21,0-.35-.03-.51.25.02.44.03.74.03h4.64c.34,0,.54,0,.75-.03-.02.14-.03.24-.03.49v.53c0,.22,0,.36.03.51h-.56v.17c-.18-.02-.35-.03-.61-.03h-1.6v.35ZM107.23,22.32h-1.87v.34c.12,0,.2,0,.36,0h1.51v-.35ZM107.23,24.22h-1.27v.38h1.27v-.38ZM107.23,25.13h-1.27v.39h1.27v-.39ZM109.55,22.67c.17,0,.24,0,.38,0v-.34h-1.97v.35h1.6ZM109.34,24.6v-.38h-1.39v.38h1.39ZM109.34,25.53v-.39h-1.39v.39h1.39Z"/>
            <path class="cls-4" d="M117.1,23.21c-.05.13-.07.22-.08.47-.02.79-.1,1.87-.17,2.33-.18,1.21-.43,1.5-1.27,1.5-.27,0-.5-.02-.87-.08-.01-.44-.04-.57-.16-.9.41.11.69.16.92.16.3,0,.41-.15.52-.76.08-.48.15-1.44.15-2.24h-1.63c-.1.88-.25,1.41-.56,2.01-.38.74-1.01,1.38-1.89,1.94-.24-.37-.34-.48-.63-.74.88-.46,1.45-1.02,1.82-1.76.19-.39.29-.73.36-1.22.01-.1.03-.17.04-.22h-1.16c-.43,0-.53.01-.76.04v-.86c.23.04.42.06.77.06h1.23c.02-.27.03-.68.03-.88v-.17c0-.09,0-.15-.02-.27l.94.02c-.01.09-.02.12-.03.22,0,.04,0,.08,0,.13q-.01.15-.03.51c0,.15,0,.22-.03.44h1.55c.31,0,.38-.01.55-.07l.4.35Z"/>
            <path class="cls-4" d="M119.42,21.83c-.03.2-.03.26-.03.63v1.93c0,.35,0,.44.03.62h-.96c.02-.16.04-.38.04-.63v-1.93c0-.36,0-.45-.03-.63h.95ZM122.6,21.84c-.03.17-.04.25-.04.65v.95c0,1.09-.05,1.68-.18,2.12-.2.7-.65,1.23-1.38,1.63-.37.21-.72.35-1.37.54-.12-.34-.2-.46-.49-.83.69-.13,1.09-.28,1.51-.56.66-.43.89-.86.97-1.79.03-.3.04-.61.04-1.17v-.88c0-.36,0-.5-.04-.67h.97Z"/>
            <path class="cls-4" d="M123.94,24.18c.31.04.44.05,1.13.05h3.73c.69,0,.83,0,1.13-.05v.97c-.28-.04-.36-.04-1.14-.04h-3.72c-.79,0-.86,0-1.14.04v-.97Z"/>
            <path class="cls-4" d="M132.8,22.28c-.02.08-.03.08-.04.14v.12s-.05.2-.05.2l-.02.17c-.29,2.01-.84,3.39-1.78,4.47-.33-.32-.46-.42-.8-.6.42-.42.71-.85,1-1.49.3-.65.55-1.52.66-2.4.04-.29.06-.53.06-.68v-.1l.96.17ZM134.78,22.11c0,.32.13,1.01.29,1.61.34,1.3.83,2.24,1.56,3.03-.36.22-.51.34-.77.64-.93-1.11-1.58-2.72-1.86-4.61-.04-.29-.06-.4-.1-.5l.87-.17ZM136.78,22.52c0,.45-.37.81-.81.81s-.81-.36-.81-.81.37-.8.81-.8.81.36.81.8ZM135.51,22.52c0,.25.2.46.46.46s.46-.21.46-.46-.2-.46-.46-.46-.46.2-.46.46Z"/>
            <path class="cls-4" d="M137.45,26.51c.6-.04,1.44-.24,2.07-.52.88-.38,1.53-.92,2.08-1.72.31-.45.5-.83.71-1.4.27.33.38.43.74.69-.6,1.28-1.26,2.11-2.22,2.75-.71.48-1.58.82-2.67,1.05-.28.06-.3.06-.46.12l-.26-.97ZM138.04,22.16c.83.52,1.27.84,1.81,1.35l-.6.76c-.56-.59-1.13-1.06-1.79-1.42l.58-.69Z"/>
          </g>
          <g>
            <path class="cls-5" d="M62.39,12.32c-.42.56-.97.7-2.19.71l-.61-1.39c.7.1.93.12,1.1.12.38,0,.53-.09.68-.3.42-.56.7-2.28.74-3.88h-2.21c-.12.55-.37,1.7-1.03,2.89-.91,1.59-1.98,2.27-2.57,2.65l-1.09-.86c.59-.33,1.65-.94,2.49-2.33.58-.97.78-1.85.87-2.35h-2.95v-1.19h3.12c.03-.45.09-1.04.05-2.13l1.27.11c.29.02.3.08.3.14,0,.05-.01.06-.12.16-.1.1-.1.11-.1.26,0,.45-.01.71-.08,1.46h3.38c-.06,3.44-.65,5.35-1.07,5.93Z"/>
            <path class="cls-5" d="M72.64,6.5c-.49,1.26-1,2.62-2.17,4.03-1.11,1.36-2.3,2-2.95,2.36l-1.17-.95c1.86-.87,3.78-2.26,4.89-5.52h-5.73v-1.26h6.09c.13,0,.25-.09.36-.17l1.07.97c-.19.18-.29.31-.38.54Z"/>
            <path class="cls-5" d="M74.84,12.61v-1h2.65v-3.6h-1.99v-1h5.06v1h-1.99v3.6h2.65v1h-6.38Z"/>
            <path class="cls-5" d="M88.06,8.48c-.05,2.55-1.03,3.83-3.11,4.76l-1.01-.9c1.9-.67,2.82-1.55,2.87-3.86h-3.6v-1.12h8.09v1.12h-3.23ZM84.66,5.81v-1.17h5.27v1.17h-5.27ZM91.71,6.47c-.49-.42-.85-.64-1.13-.81l.41-.6c.47.27.75.47,1.13.81l-.41.6ZM92.03,5.1c-.18-.17-.39-.34-1.09-.73l.4-.58c.71.4.92.57,1.09.73l-.4.58Z"/>
            <path class="cls-5" d="M95.76,4.84c-.16.12-.17.13-.17.16v4.55h-1.28v-5.08l1.28.11c.09.01.28.02.28.12,0,.05-.06.11-.11.15ZM100.23,4.76c-.14.14-.14.17-.14.47-.01.1.01.58.01.69,0,2.1-.02,2.95-.37,4-.64,1.91-2.04,2.7-3.16,3.27l-.94-1.04c2.21-.87,3.13-1.9,3.13-5.15,0-.26-.02-1.76-.08-2.62l1.38.08c.05,0,.27.01.27.14,0,.03-.01.08-.12.16Z"/>
            <path class="cls-5" d="M102.83,9.4v-1.37h7.66v1.37h-7.66Z"/>
            <path class="cls-5" d="M117.56,7.89c-.31,2.87-1.12,4.03-3.45,5.4l-1.1-1.07c2.06-.99,2.9-1.91,3.22-4.33h-3.91v-1.25h4c.02-.79,0-1.7-.1-2.4l1.44.17c.15.02.32.05.32.16,0,.05-.26.25-.3.31-.02.03-.02.09-.02.53,0,.02-.01.67-.02,1.23h3.25v1.25h-3.34Z"/>
          </g>
        </g>
      </g>
    </g>
  </g>
</svg>