<?xml version="1.0" encoding="UTF-8"?>
<svg xmlns="http://www.w3.org/2000/svg" viewBox="0 0 1306.55 610.08">
  <defs>
    <style>
      .cls-1 {
        mix-blend-mode: multiply;
        opacity: .75;
      }

      .cls-2 {
        fill: #b28247;
      }

      .cls-3 {
        isolation: isolate;
      }

      .cls-4 {
        fill: #231815;
      }

      .cls-5 {
        fill: #fff;
      }

      .cls-6 {
        fill: none;
        stroke: #000;
        stroke-width: 42.79px;
      }
    </style>
  </defs>
  <g class="cls-3">
    <g id="_レイヤー_2" data-name="レイヤー_2">
      <g id="_レイヤー_1-2" data-name="レイヤー_1">
        <g>
          <polygon class="cls-6" points="1243.79 373.94 1271.95 369.63 1250.33 35.38 69.62 133.2 71.45 140.02 41.78 142.48 150.24 546.4 891.38 432.92 880.55 502.09 943.62 424.92 1244.11 378.91 1243.79 373.94"/>
          <polygon class="cls-2" points="1243.79 373.94 1271.95 369.63 1250.33 35.38 69.62 133.2 71.45 140.02 41.78 142.48 150.24 546.4 891.38 432.92 880.55 502.09 943.62 424.92 1244.11 378.91 1243.79 373.94"/>
        </g>
        <rect class="cls-4" x="90.41" y="274.86" width="1143.87" height="137.11" transform="translate(-25.53 54.52) rotate(-4.62)"/>
        <g>
          <g class="cls-1">
            <g>
              <path class="cls-4" d="M208.05,202.94l-1.94-23.98,102.06-8.26,1.94,23.98-102.06,8.26ZM220.58,273.72l-12.49-22.82c10.75-8.81,21.16-18.68,31.21-29.6,10.05-10.92,19.9-23.01,29.55-36.27l16.1,15.41c-10.17,14.03-20.62,27.4-31.35,40.13s-21.74,23.78-33.03,33.15ZM271.92,282.56l-10.52-130.04,23.12-1.87,10.52,130.04-23.12,1.87Z"/>
              <path class="cls-4" d="M431.8,193.35l1.82,22.44-101.82,8.24-1.82-22.44,101.82-8.24Z"/>
              <path class="cls-4" d="M469.11,270.48l-4.62-26.55c8.26-1.91,15.55-4.4,21.86-7.49,6.31-3.09,11.73-6.75,16.25-10.98,4.52-4.23,8.2-9.04,11.02-14.43,2.82-5.38,4.88-11.33,6.17-17.83,1.29-6.5,1.83-13.5,1.64-21.02l-71.57,5.79-2.06-25.52,77.22-6.25c-.02-.2-.03-.38-.04-.54-.01-.15-.02-.28-.03-.38-.16-6.07,1.26-11.19,4.26-15.35,3.01-4.16,7.01-6.45,12.01-6.85,5.33-.43,9.82,1.35,13.49,5.33,3.66,3.98,5.76,9.2,6.28,15.66s-.7,11.95-3.68,16.47c-2.98,4.52-7.13,7-12.46,7.43-.33.03-.64.05-.92.08-.29.02-.6,0-.93-.08.54,10.79.01,20.83-1.58,30.14-1.6,9.31-4.29,17.88-8.07,25.72-3.78,7.84-8.66,14.81-14.65,20.91-5.98,6.11-13.09,11.32-21.32,15.65-8.23,4.33-17.66,7.69-28.27,10.1ZM543.8,154.9c2.38-.19,4.15-1.26,5.31-3.21,1.16-1.95,1.64-4.21,1.43-6.77-.21-2.66-1.05-4.84-2.51-6.53-1.46-1.69-3.37-2.43-5.75-2.24-2.3.19-4.05,1.23-5.25,3.13-1.21,1.9-1.7,4.19-1.49,6.85.21,2.56,1.06,4.71,2.56,6.45,1.5,1.73,3.4,2.51,5.7,2.32Z"/>
              <path class="cls-4" d="M624.34,153.02l-8.4,23.11c-6.5-3.91-12.99-7.54-19.45-10.88-6.46-3.34-12.94-6.46-19.45-9.33l6.49-23.89c6.84,2.95,13.66,6.19,20.47,9.72,6.8,3.53,13.58,7.28,20.34,11.27ZM588.56,255.4l-2.19-27.05c9.38-1.27,17.78-3.4,25.17-6.37,7.39-2.97,13.84-6.84,19.36-11.62,5.51-4.78,10.12-10.51,13.83-17.21,3.71-6.69,6.57-14.4,8.59-23.13,2.02-8.72,3.25-18.52,3.69-29.38l21.84.71c-.37,13.75-1.9,26.28-4.57,37.58-2.68,11.3-6.49,21.36-11.42,30.17-4.94,8.81-10.99,16.39-18.15,22.74-7.16,6.36-15.41,11.51-24.74,15.46-9.33,3.95-19.8,6.65-31.4,8.11Z"/>
              <path class="cls-4" d="M708.8,242.27l-2.11-26.13,68-5.5-4.92-60.87-67.75,5.48-2.11-26.13,91.12-7.37,9.15,113.13-91.36,7.39Z"/>
              <path class="cls-4" d="M923.67,153.56l1.82,22.44-101.82,8.24-1.82-22.44,101.82-8.24Z"/>
              <path class="cls-4" d="M1047.81,118.3l2.06,25.51-108.21,8.75-2.06-25.51,108.21-8.75ZM967.65,229.07l-4.87-26.53c6.99-1.29,12.57-3.42,16.75-6.38,4.17-2.97,7.08-6.84,8.71-11.61,1.63-4.77,2.18-10.59,1.62-17.46l-5.71-70.55,21.64-1.75,5.71,70.55c.94,11.58-.1,21.77-3.1,30.58-3,8.8-7.93,16.01-14.77,21.62-6.85,5.61-15.51,9.46-25.99,11.54Z"/>
              <path class="cls-4" d="M1169.6,133.67l1.82,22.44-101.82,8.24-1.82-22.44,101.82-8.24Z"/>
            </g>
          </g>
          <g>
            <path class="cls-5" d="M205.19,199.32l-1.94-23.98,102.06-8.26,1.94,23.98-102.06,8.26ZM217.73,270.1l-12.49-22.82c10.76-8.81,21.16-18.68,31.21-29.6,10.05-10.92,19.9-23.01,29.56-36.27l16.1,15.41c-10.17,14.03-20.62,27.41-31.35,40.13-10.73,12.73-21.74,23.78-33.03,33.15ZM269.07,278.94l-10.52-130.04,23.12-1.87,10.52,130.04-23.12,1.87Z"/>
            <path class="cls-5" d="M428.94,189.73l1.82,22.44-101.82,8.24-1.82-22.44,101.82-8.24Z"/>
            <path class="cls-5" d="M466.25,266.86l-4.62-26.55c8.26-1.91,15.55-4.4,21.86-7.49,6.31-3.09,11.73-6.75,16.25-10.99,4.52-4.23,8.2-9.04,11.02-14.43,2.82-5.38,4.88-11.33,6.17-17.83,1.29-6.5,1.83-13.5,1.64-21.02l-71.57,5.79-2.06-25.51,77.22-6.25c-.02-.21-.03-.38-.04-.54-.01-.15-.02-.28-.03-.38-.16-6.07,1.26-11.19,4.27-15.35,3-4.16,7.01-6.45,12.01-6.85,5.33-.43,9.83,1.35,13.49,5.33,3.66,3.99,5.76,9.21,6.28,15.66.52,6.46-.71,11.95-3.68,16.47-2.97,4.52-7.13,7-12.46,7.43-.33.03-.64.05-.92.07-.29.02-.6,0-.93-.08.54,10.79.01,20.83-1.58,30.14-1.6,9.31-4.29,17.88-8.07,25.72-3.78,7.84-8.66,14.81-14.65,20.91-5.98,6.11-13.09,11.32-21.32,15.65-8.23,4.33-17.66,7.69-28.27,10.1ZM540.94,151.28c2.38-.19,4.15-1.26,5.31-3.21s1.64-4.21,1.43-6.77c-.22-2.66-1.05-4.84-2.51-6.53-1.46-1.69-3.37-2.43-5.75-2.24-2.3.19-4.05,1.23-5.25,3.13-1.21,1.9-1.7,4.19-1.49,6.85.21,2.56,1.06,4.71,2.56,6.45,1.5,1.73,3.4,2.51,5.7,2.32Z"/>
            <path class="cls-5" d="M621.49,149.4l-8.4,23.11c-6.5-3.91-12.99-7.54-19.45-10.88-6.46-3.35-12.94-6.46-19.45-9.33l6.48-23.89c6.84,2.96,13.66,6.19,20.47,9.72,6.8,3.53,13.59,7.28,20.34,11.27ZM585.7,251.78l-2.19-27.05c9.38-1.27,17.77-3.4,25.17-6.37,7.39-2.97,13.84-6.84,19.36-11.62,5.51-4.78,10.12-10.51,13.83-17.21,3.71-6.69,6.57-14.4,8.59-23.13,2.02-8.72,3.25-18.52,3.69-29.38l21.84.71c-.37,13.75-1.9,26.28-4.57,37.58-2.67,11.3-6.48,21.36-11.42,30.17-4.94,8.81-10.99,16.39-18.15,22.74-7.16,6.36-15.41,11.51-24.74,15.46-9.33,3.95-19.8,6.65-31.4,8.11Z"/>
            <path class="cls-5" d="M705.94,238.65l-2.11-26.13,68-5.5-4.92-60.87-67.76,5.48-2.11-26.13,91.12-7.37,9.15,113.13-91.36,7.39Z"/>
            <path class="cls-5" d="M920.81,149.94l1.82,22.44-101.82,8.24-1.82-22.44,101.82-8.24Z"/>
            <path class="cls-5" d="M1044.95,114.68l2.06,25.52-108.21,8.75-2.06-25.52,108.21-8.75ZM964.79,225.44l-4.87-26.53c6.99-1.29,12.58-3.42,16.75-6.38,4.17-2.97,7.08-6.84,8.71-11.61,1.63-4.77,2.18-10.59,1.62-17.46l-5.71-70.55,21.64-1.75,5.71,70.55c.94,11.58-.09,21.77-3.1,30.58-3,8.8-7.93,16.01-14.78,21.62-6.85,5.61-15.51,9.46-25.99,11.54Z"/>
            <path class="cls-5" d="M1166.75,130.05l1.82,22.44-101.82,8.24-1.82-22.44,101.82-8.24Z"/>
          </g>
        </g>
        <g>
          <g>
            <path class="cls-5" d="M511.75,329.64l-.38.03-20.53,12.9-2.04-25.2,25.92-17.67,19.39-1.57,8.98,111-24.75,2-6.59-81.49Z"/>
            <path class="cls-5" d="M577.91,387.21c5.28-6.74,10.09-12.78,14.46-18.11,4.36-5.33,8.12-10.26,11.26-14.79,3.14-4.53,5.5-8.76,7.06-12.69,1.57-3.92,2.19-7.8,1.89-11.63-.25-3.08-.97-5.62-2.16-7.61-1.19-1.99-2.76-3.41-4.71-4.27-1.95-.86-4.21-1.19-6.76-.98-3.23.26-6.42,1.08-9.56,2.46-3.14,1.38-6.17,3.15-9.07,5.31l-8.39-21.15c3.46-2.74,7.76-5.36,12.91-7.87,5.15-2.5,10.79-4,16.91-4.5,6.72-.54,12.66.4,17.82,2.81,5.16,2.42,9.32,6.23,12.48,11.43,3.16,5.2,5.05,11.63,5.67,19.29.53,6.49-.19,12.48-2.14,17.99-1.95,5.51-4.62,10.65-8,15.42-3.38,4.77-6.98,9.21-10.8,13.31-3.82,4.11-7.3,7.9-10.45,11.36l-4.43-3.98,41.08-3.32,1.02,25.28-64.56,5.22-1.54-18.98Z"/>
            <path class="cls-5" d="M688.3,391.09l-7.65-9.34c.72-1.44,1.3-2.86,1.77-4.23.46-1.38.8-2.9,1.03-4.58.22-1.68.32-3.64.29-5.9-.02-2.25-.17-5-.43-8.25l-2.22-27.4,51.11-4.13.84,10.34-40.71,3.29,1.38,17.06c.43,5.37.55,9.98.35,13.84-.2,3.86-.77,7.3-1.69,10.32-.92,3.02-2.28,6.02-4.06,8.99ZM735.17,388.34l-9.81.79-1.7-21.05-19.97,1.62,1.7,21.05-9.81.79-2.52-31.09,39.58-3.2,2.52,31.09ZM728.73,376.3l.75,9.31-28.6,2.31-.75-9.31,28.6-2.31ZM712.05,331.93l-10.4.84-.93-11.52,10.4-.84.93,11.52ZM717.17,361.4l-10.4.84-2.16-26.73,10.4-.84,2.16,26.73ZM732.48,341.87l.81,10.04-21.09,1.71-.81-10.04,21.09-1.71Z"/>
            <path class="cls-5" d="M746.41,343.42l-2.97-12.4c.89-1.21,2.09-2.93,3.6-5.16,1.5-2.23,3.04-4.64,4.62-7.25l9.81-.79c1.97,2.32,3.93,4.49,5.88,6.51,1.95,2.02,3.73,3.71,5.35,5.07l-3.12,10.73c-2.89-2.94-5.52-5.71-7.87-8.32-2.35-2.61-4.64-5.21-6.88-7.81l4.37-.35c-1.79,2.92-3.65,5.92-5.61,9-1.95,3.08-4.35,6.67-7.19,10.76ZM771.23,348.18l.81,10.04-23.81,1.93-.81-10.04,23.81-1.93ZM774.07,384.75l-8.63.7-1.25-15.44-6.85.55,1.25,15.44-8.63.7-2-24.74,24.11-1.95,2,24.74ZM768.56,337.24l.75,9.31-20.26,1.64-.75-9.31,20.26-1.64ZM764.09,353.96l-9.22.75-1.8-22.3,9.22-.75,1.8,22.3ZM768.8,373.28l.75,9.31-15.48,1.25-.75-9.31,15.48-1.25ZM770.21,331.91l-.87-9.96,31.73-2.57.81,9.97-31.67,2.56ZM775.57,385.66l-4.04-50,29.66-2.4,3.14,38.85c.22,2.71.27,4.9.14,6.57-.12,1.67-.48,2.9-1.07,3.69-.59.79-1.46,1.23-2.6,1.32-1.18.1-2.35.15-3.5.17-1.15.02-2.1,0-2.86-.03l-.96-9.66c.44.01.82.03,1.13.06.32.02.62.02.89,0,.16-.01.31-.07.46-.19.15-.11.26-.33.33-.66.07-.33.08-.79.04-1.38l-2.3-28.43-13.82,1.12,3.26,40.32-7.92.64ZM776.91,358.05l-.69-8.57,22.33-1.81.69,8.57-22.33,1.81ZM778.06,370.89l-.69-8.57,22.21-1.8.69,8.57-22.21,1.8ZM786.01,381.62l-5.33-65.95,8.27-.67,5.33,65.95-8.27.67ZM800.4,322.11l-6.32,2c-.55-1.39-1.12-2.76-1.7-4.1-.58-1.34-1.21-2.68-1.87-4.01l5.89-2.86c.75,1.47,1.46,2.96,2.12,4.47.66,1.51,1.28,3.01,1.88,4.49Z"/>
            <path class="cls-5" d="M817.09,346.77l-2.19-27.1,10.16-.82,2.19,27.1-10.16.82ZM817.47,380.94l-2.37-29.32,10.75-.87,2.37,29.32-10.75.87ZM824.53,346.17l-.87-10.78,31.9-2.58.87,10.78-31.9,2.58ZM826.99,376.6l-.87-10.78,31.9-2.58.87,10.78-31.9,2.58ZM836.67,366.15l-4.37-54.06,10.99-.89,4.37,54.06-10.99.89ZM853.72,343.81l-2.19-27.1,10.16-.82,2.19,27.1-10.16.82ZM858.24,377.64l-2.37-29.32,10.75-.87,2.37,29.32-10.75.87Z"/>
            <path class="cls-5" d="M887.28,374.99l-7.65-9.34c.72-1.44,1.31-2.86,1.77-4.23.46-1.38.8-2.9,1.03-4.58.22-1.68.32-3.64.3-5.9-.02-2.25-.17-5-.43-8.25l-2.22-27.4,51.11-4.13.84,10.34-40.71,3.29,1.38,17.06c.43,5.37.55,9.98.35,13.84-.21,3.86-.77,7.3-1.69,10.32s-2.28,6.02-4.06,8.99ZM934.16,372.24l-9.81.79-1.7-21.05-19.97,1.62,1.7,21.05-9.81.79-2.52-31.09,39.58-3.2,2.52,31.09ZM927.71,360.2l.75,9.31-28.6,2.31-.75-9.3,28.6-2.31ZM911.04,315.83l-10.4.84-.93-11.52,10.4-.84.93,11.52ZM916.16,345.3l-10.4.84-2.16-26.73,10.4-.84,2.16,26.73ZM931.47,325.77l.81,10.04-21.09,1.71-.81-10.04,21.09-1.71Z"/>
          </g>
          <g>
            <path class="cls-5" d="M511.75,329.64l-.38.03-20.53,12.9-2.04-25.2,25.92-17.67,19.39-1.57,8.98,111-24.75,2-6.59-81.49Z"/>
            <path class="cls-5" d="M577.91,387.21c5.28-6.74,10.09-12.78,14.46-18.11,4.36-5.33,8.12-10.26,11.26-14.79,3.14-4.53,5.5-8.76,7.06-12.69,1.57-3.92,2.19-7.8,1.89-11.63-.25-3.08-.97-5.62-2.16-7.61-1.19-1.99-2.76-3.41-4.71-4.27-1.95-.86-4.21-1.19-6.76-.98-3.23.26-6.42,1.08-9.56,2.46-3.14,1.38-6.17,3.15-9.07,5.31l-8.39-21.15c3.46-2.74,7.76-5.36,12.91-7.87,5.15-2.5,10.79-4,16.91-4.5,6.72-.54,12.66.4,17.82,2.81,5.16,2.42,9.32,6.23,12.48,11.43,3.16,5.2,5.05,11.63,5.67,19.29.53,6.49-.19,12.48-2.14,17.99-1.95,5.51-4.62,10.65-8,15.42-3.38,4.77-6.98,9.21-10.8,13.31-3.82,4.11-7.3,7.9-10.45,11.36l-4.43-3.98,41.08-3.32,1.02,25.28-64.56,5.22-1.54-18.98Z"/>
            <path class="cls-5" d="M688.3,391.09l-7.65-9.34c.72-1.44,1.3-2.86,1.77-4.23.46-1.38.8-2.9,1.03-4.58.22-1.68.32-3.64.29-5.9-.02-2.25-.17-5-.43-8.25l-2.22-27.4,51.11-4.13.84,10.34-40.71,3.29,1.38,17.06c.43,5.37.55,9.98.35,13.84-.2,3.86-.77,7.3-1.69,10.32-.92,3.02-2.28,6.02-4.06,8.99ZM735.17,388.34l-9.81.79-1.7-21.05-19.97,1.62,1.7,21.05-9.81.79-2.52-31.09,39.58-3.2,2.52,31.09ZM728.73,376.3l.75,9.31-28.6,2.31-.75-9.31,28.6-2.31ZM712.05,331.93l-10.4.84-.93-11.52,10.4-.84.93,11.52ZM717.17,361.4l-10.4.84-2.16-26.73,10.4-.84,2.16,26.73ZM732.48,341.87l.81,10.04-21.09,1.71-.81-10.04,21.09-1.71Z"/>
            <path class="cls-5" d="M746.41,343.42l-2.97-12.4c.89-1.21,2.09-2.93,3.6-5.16,1.5-2.23,3.04-4.64,4.62-7.25l9.81-.79c1.97,2.32,3.93,4.49,5.88,6.51,1.95,2.02,3.73,3.71,5.35,5.07l-3.12,10.73c-2.89-2.94-5.52-5.71-7.87-8.32-2.35-2.61-4.64-5.21-6.88-7.81l4.37-.35c-1.79,2.92-3.65,5.92-5.61,9-1.95,3.08-4.35,6.67-7.19,10.76ZM771.23,348.18l.81,10.04-23.81,1.93-.81-10.04,23.81-1.93ZM774.07,384.75l-8.63.7-1.25-15.44-6.85.55,1.25,15.44-8.63.7-2-24.74,24.11-1.95,2,24.74ZM768.56,337.24l.75,9.31-20.26,1.64-.75-9.31,20.26-1.64ZM764.09,353.96l-9.22.75-1.8-22.3,9.22-.75,1.8,22.3ZM768.8,373.28l.75,9.31-15.48,1.25-.75-9.31,15.48-1.25ZM770.21,331.91l-.87-9.96,31.73-2.57.81,9.97-31.67,2.56ZM775.57,385.66l-4.04-50,29.66-2.4,3.14,38.85c.22,2.71.27,4.9.14,6.57-.12,1.67-.48,2.9-1.07,3.69-.59.79-1.46,1.23-2.6,1.32-1.18.1-2.35.15-3.5.17-1.15.02-2.1,0-2.86-.03l-.96-9.66c.44.01.82.03,1.13.06.32.02.62.02.89,0,.16-.01.31-.07.46-.19.15-.11.26-.33.33-.66.07-.33.08-.79.04-1.38l-2.3-28.43-13.82,1.12,3.26,40.32-7.92.64ZM776.91,358.05l-.69-8.57,22.33-1.81.69,8.57-22.33,1.81ZM778.06,370.89l-.69-8.57,22.21-1.8.69,8.57-22.21,1.8ZM786.01,381.62l-5.33-65.95,8.27-.67,5.33,65.95-8.27.67ZM800.4,322.11l-6.32,2c-.55-1.39-1.12-2.76-1.7-4.1-.58-1.34-1.21-2.68-1.87-4.01l5.89-2.86c.75,1.47,1.46,2.96,2.12,4.47.66,1.51,1.28,3.01,1.88,4.49Z"/>
            <path class="cls-5" d="M817.09,346.77l-2.19-27.1,10.16-.82,2.19,27.1-10.16.82ZM817.47,380.94l-2.37-29.32,10.75-.87,2.37,29.32-10.75.87ZM824.53,346.17l-.87-10.78,31.9-2.58.87,10.78-31.9,2.58ZM826.99,376.6l-.87-10.78,31.9-2.58.87,10.78-31.9,2.58ZM836.67,366.15l-4.37-54.06,10.99-.89,4.37,54.06-10.99.89ZM853.72,343.81l-2.19-27.1,10.16-.82,2.19,27.1-10.16.82ZM858.24,377.64l-2.37-29.32,10.75-.87,2.37,29.32-10.75.87Z"/>
            <path class="cls-5" d="M887.28,374.99l-7.65-9.34c.72-1.44,1.31-2.86,1.77-4.23.46-1.38.8-2.9,1.03-4.58.22-1.68.32-3.64.3-5.9-.02-2.25-.17-5-.43-8.25l-2.22-27.4,51.11-4.13.84,10.34-40.71,3.29,1.38,17.06c.43,5.37.55,9.98.35,13.84-.21,3.86-.77,7.3-1.69,10.32s-2.28,6.02-4.06,8.99ZM934.16,372.24l-9.81.79-1.7-21.05-19.97,1.62,1.7,21.05-9.81.79-2.52-31.09,39.58-3.2,2.52,31.09ZM927.71,360.2l.75,9.31-28.6,2.31-.75-9.3,28.6-2.31ZM911.04,315.83l-10.4.84-.93-11.52,10.4-.84.93,11.52ZM916.16,345.3l-10.4.84-2.16-26.73,10.4-.84,2.16,26.73ZM931.47,325.77l.81,10.04-21.09,1.71-.81-10.04,21.09-1.71Z"/>
          </g>
        </g>
      </g>
    </g>
  </g>
</svg>