<?xml version="1.0" encoding="UTF-8"?>
<svg xmlns="http://www.w3.org/2000/svg" viewBox="0 0 167.6 28.8">
  <defs>
    <style>
      .cls-1, .cls-2 {
        fill: #b28247;
      }

      .cls-3 {
        isolation: isolate;
      }

      .cls-4 {
        fill: #231815;
      }

      .cls-5 {
        fill: #fff;
      }

      .cls-2 {
        mix-blend-mode: multiply;
      }
    </style>
  </defs>
  <g class="cls-3">
    <g id="_レイヤー_2" data-name="レイヤー_2">
      <g id="_テキスト_xFF08_B_xFF09_" data-name="テキスト_xFF08_B_xFF09_">
        <g>
          <rect class="cls-1" width="167.6" height="17.49"/>
          <rect class="cls-2" y="0" width="8.29" height="17.49"/>
          <g>
            <path class="cls-4" d="M13.12,25.66c-.14.45-.23.67-.42,1-.2.35-.34.55-.65.88-.24-.25-.36-.33-.64-.49.24-.25.35-.37.48-.57.24-.35.36-.6.48-1.08l.75.26ZM12.37,25.15c-.32,0-.59.01-.82.04v-.8c.2.03.46.04.82.04h1.87v-.71h-1.38c-.32,0-.55.01-.78.04v-.79c.2.03.43.04.78.04h1.38v-.13c0-.3,0-.45-.04-.62h.88c-.04.11-.05.32-.05.62v.13h1.49c.35,0,.58-.01.78-.04v.79c-.24-.03-.45-.04-.78-.04h-1.49v.71h2c.36,0,.62-.01.82-.04v.8c-.22-.03-.49-.04-.82-.04h-1.18v2.84c0,.25-.05.41-.2.53-.14.12-.31.16-.68.16-.18,0-.46,0-.76-.02-.02-.25-.06-.46-.17-.77.28.04.51.06.71.06.27,0,.32-.03.32-.2v-2.6h-.69c-.03.97-.11,1.48-.31,1.95-.18.41-.43.76-.76,1.06-.27.25-.49.39-.96.63-.2-.32-.34-.48-.54-.66.83-.35,1.24-.7,1.51-1.28.2-.41.27-.83.29-1.7h-1.25ZM16.92,25.43c.14.47.24.71.41,1.05.18.35.31.54.61.91-.27.15-.44.27-.72.49-.53-.83-.74-1.29-1.03-2.19l.73-.26Z"/>
            <path class="cls-4" d="M20.03,23.37q-.62,0-.7.01s-.06,0-.13.02c-.03,0-.06,0-.11.01v-.82c.22.04.5.05.94.05h4.28c.43,0,.66-.01.92-.05v.82c-.28-.04-.53-.05-.92-.05h-2.45c-.18.62-.33.99-.64,1.51h2.8c.29,0,.49,0,.72-.04-.02.21-.03.53-.03.72v2.26c0,.27.01.57.04.81h-.83v-.4h-2.84v.39h-.83c.03-.25.05-.52.05-.81v-1.27c0-.18,0-.33.02-.43-.29.38-.62.7-1.07,1.06-.11-.28-.27-.53-.48-.76.7-.45,1.19-.94,1.64-1.65.29-.46.41-.73.63-1.41h-1.01ZM21.08,27.54h2.86v-1.96h-2.86v1.96Z"/>
            <path class="cls-4" d="M27.88,24.68c0,1.31-.11,2.11-.38,2.79-.2.5-.39.85-.68,1.24-.2-.27-.37-.43-.65-.66.29-.38.44-.62.59-1.04.12-.3.2-.62.24-.97.03-.27.08-1.1.08-1.41v-1.51c0-.29-.01-.5-.05-.74h.9c-.04.18-.04.35-.04.76v1.55ZM30.11,22.69c-.03.25-.04.45-.04.81v3.59c0,.42.01.67.04.9h-.9c.03-.24.04-.48.04-.89v-3.59c0-.38-.01-.59-.04-.81h.9ZM32.35,22.37c-.04.23-.05.43-.05.83v4.54c0,.46.01.69.05.94h-.9c.03-.24.04-.5.04-.94v-4.54c0-.39,0-.59-.04-.83h.9Z"/>
            <path class="cls-4" d="M36.68,26.54c-.4.9-.85,1.32-1.42,1.32-.8,0-1.37-.81-1.37-1.94,0-.77.27-1.49.77-2.04.59-.64,1.42-.98,2.41-.98,1.68,0,2.77,1.02,2.77,2.6,0,1.21-.63,2.18-1.7,2.61-.34.14-.61.21-1.1.29-.12-.37-.2-.53-.43-.82.64-.08,1.06-.2,1.39-.38.61-.34.97-1,.97-1.75,0-.67-.3-1.22-.86-1.55-.22-.13-.4-.18-.71-.21-.13,1.1-.38,2.07-.73,2.86ZM35.65,24.03c-.59.42-.95,1.14-.95,1.89,0,.57.24,1.03.55,1.03.23,0,.47-.29.72-.9.27-.63.5-1.58.58-2.37-.36.04-.62.14-.9.34Z"/>
            <path class="cls-4" d="M43.26,24.87c-.28,0-.48,0-.69.04v-.34c-.4.24-.68.39-1.14.57-.17-.37-.22-.46-.41-.72,1.3-.46,2.35-1.21,2.86-2.05h.87c.28.41.58.71,1.08,1.08.57.43,1.1.7,1.86.95-.17.26-.27.48-.38.77-.55-.23-.78-.34-1.22-.62v.36c-.2-.03-.39-.04-.69-.04h-.71v.68h1.77c.36,0,.58-.01.76-.04v.78c-.2-.03-.44-.04-.77-.04h-1.76v1.57h1.9c.36,0,.6-.01.83-.04v.81c-.26-.04-.55-.05-.84-.05h-4.43c-.32,0-.57.01-.87.05v-.81c.25.03.51.04.87.04h1.76v-1.57h-1.66c-.3,0-.55.01-.76.04v-.78c.19.03.41.04.76.04h1.65v-.68h-.64ZM42.76,26.3c.24.42.37.69.56,1.16l-.7.28c-.15-.44-.33-.81-.55-1.16l.69-.28ZM43.24,24.21h2.17q.06,0,.17,0c-.55-.39-.9-.71-1.26-1.18-.36.48-.64.76-1.22,1.18h.15ZM46.58,26.59q-.09.16-.35.67s-.05.09-.29.5l-.66-.25c.22-.35.38-.72.55-1.21l.74.28Z"/>
            <path class="cls-4" d="M51.56,26.54c-.4.9-.85,1.32-1.42,1.32-.8,0-1.37-.81-1.37-1.94,0-.77.27-1.49.77-2.04.59-.64,1.42-.98,2.41-.98,1.68,0,2.77,1.02,2.77,2.6,0,1.21-.63,2.18-1.7,2.61-.34.14-.61.21-1.1.29-.12-.37-.2-.53-.43-.82.64-.08,1.06-.2,1.39-.38.61-.34.97-1,.97-1.75,0-.67-.3-1.22-.86-1.55-.22-.13-.4-.18-.71-.21-.13,1.1-.38,2.07-.73,2.86ZM50.53,24.03c-.59.42-.95,1.14-.95,1.89,0,.57.24,1.03.55,1.03.23,0,.47-.29.72-.9.27-.63.5-1.58.58-2.37-.36.04-.62.14-.9.34Z"/>
            <path class="cls-4" d="M56.83,27.2c-.11.64-.22,1.04-.46,1.6l-.55-.41c.27-.48.39-.78.5-1.34l.51.15ZM58.48,23.95c.2,0,.34,0,.49-.03-.02.21-.03.38-.03.65v1.72c0,.36,0,.48.02.62-.19,0-.34-.01-.59-.01h-1.48c-.29,0-.39,0-.6.01.01-.19.02-.37.02-.58v-1.7c-.13-.2-.27-.34-.46-.49.41-.36.69-.74.95-1.23.13-.25.23-.51.28-.71l.74.15q-.06.11-.11.21s-.04.07-.08.15h.55c.15,0,.27,0,.38-.02l.3.32q-.16.26-.29.49c-.05.08-.23.36-.28.43h.18ZM57.43,27.12c.09.5.14.94.17,1.46l-.59.12v-.29c0-.35-.03-.78-.1-1.19l.53-.11ZM56.92,25.1h.43v-.56h-.43v.56ZM56.92,26.29h.43v-.61h-.43v.61ZM57.6,23.95c.13-.19.22-.33.36-.61h-.63c-.13.23-.22.37-.38.61h.66ZM58.11,27.09c.14.44.22.77.31,1.3l-.54.15c-.06-.55-.11-.83-.25-1.33l.48-.11ZM57.91,25.1h.43v-.56h-.43v.56ZM57.91,26.29h.43v-.61h-.43v.61ZM58.78,27.03c.16.41.25.69.36,1.15l-.49.16c-.09-.49-.19-.81-.34-1.19l.47-.12ZM61.59,25.31c.21,0,.39,0,.56-.04-.03.24-.04.41-.04.71v1.89c0,.34.01.58.04.83h-.78v-.36h-1.4v.36h-.78c.04-.25.04-.43.04-.8v-2.04c0-.24,0-.4-.04-.58.16.02.32.03.57.03h.35v-2.19c0-.4,0-.57-.04-.79h.85c-.04.23-.04.39-.04.79v.36h.83c.3,0,.45,0,.64-.04v.81c-.18-.03-.34-.04-.64-.04h-.83v1.09h.7ZM59.98,27.62h1.4v-1.6h-1.4v1.6Z"/>
            <path class="cls-4" d="M64.28,23.16c0-.34-.01-.57-.04-.78h.81c-.04.23-.04.41-.04.78v.97h.08c.23,0,.31,0,.46-.02v.73c-.19-.02-.29-.03-.44-.03h-.09v1.83c.2-.08.27-.11.53-.23v.73c-.63.29-.89.4-1.6.69-.14.06-.22.09-.32.14l-.15-.81c.17-.02.41-.09.81-.23v-2.11h-.24c-.18,0-.32,0-.48.03v-.75c.17.03.3.04.49.04h.23v-.98ZM69.66,27.83c.12,0,.24,0,.35-.03v.78c-.22-.02-.47-.04-.78-.04h-3.34c-.32,0-.54.01-.76.04v-.77c.12.01.24.02.43.02h.18v-1.09c0-.34,0-.47-.03-.69.2.02.27.02.67.02h2.55c.4,0,.48,0,.67-.02-.01.21-.02.36-.02.69v1.1h.08ZM66.02,24.39v-.14c-.08.08-.11.1-.2.19-.14-.23-.3-.41-.5-.57.38-.31.63-.6.83-.98.12-.22.22-.49.26-.68l.79.22q-.04.08-.23.47h2.09c.35,0,.58-.01.79-.04v.75c-.22-.02-.46-.04-.78-.04h-2.5c-.11.15-.15.22-.3.39.12,0,.17,0,.27,0h2.28c.27,0,.39,0,.56-.02-.01.13-.02.27-.02.44v.9c0,.2,0,.32.02.45-.18-.02-.27-.02-.53-.02h-2.3c-.26,0-.38,0-.55.02.01-.13.02-.27.02-.43v-.91ZM66.41,27.83h.44v-1.13h-.44v1.13ZM66.72,25.1h1.93v-.53h-1.93v.53ZM67.44,27.83h.43v-1.13h-.43v1.13ZM68.46,27.83h.44v-1.13h-.44v1.13Z"/>
            <path class="cls-4" d="M74.03,26.37c-.32,0-.5,0-.68.04v-.71c.16.02.27.03.54.03h.09v-.61h-.12c-.23,0-.35,0-.55.04v-.59c-.16.2-.24.29-.44.49-.03.57-.05.81-.1,1.15.23.36.5.65.83.9-.18.26-.27.4-.38.69-.29-.3-.45-.5-.62-.76-.22.71-.5,1.23-.96,1.71-.15-.25-.29-.42-.5-.6.4-.41.63-.83.8-1.46.2-.66.27-1.65.27-3.32,0-.6,0-.75-.05-1.02h.81q-.04.23-.04,1.34c0,.15,0,.24,0,.46.19-.28.28-.44.36-.62l.53.41c-.09.12-.22.29-.38.51.13.01.24.02.45.02h.12v-.22c0-.14,0-.22-.03-.33h.7c-.01.09-.02.17-.02.32v.24h1.51v-.23c0-.14,0-.21-.02-.32h.72c-.02.1-.03.19-.03.32v.23h.27c.24,0,.38,0,.58-.04v.73c-.19-.03-.34-.04-.58-.04h-.27v.61h.11c.29,0,.44,0,.64-.04v.73c-.22-.03-.42-.04-.71-.04h-.58v1.44c0,.14.04.16.41.16.18,0,.29-.04.31-.13.04-.12.06-.34.07-.74.2.13.34.19.66.28-.04.64-.11.95-.28,1.1-.13.12-.41.18-.9.18-.78,0-.97-.11-.97-.55v-1.73h-.55c-.04.43-.07.61-.17.88-.25.74-.71,1.18-1.6,1.54-.12-.29-.23-.46-.43-.64.5-.16.77-.32,1.04-.61.28-.3.42-.68.44-1.18h-.25ZM71.16,25.5c.1-.33.13-.48.17-.86.04-.33.05-.6.05-.81v-.18l.59.07c-.01.9-.08,1.46-.22,2.07l-.58-.29ZM75.71,23.84c0,.22,0,.29.02.41h-.71c.01-.11.02-.22.02-.41v-.24h-.81c-.25,0-.5.01-.68.04v-.73c.22.03.38.04.68.04h.81v-.18c0-.2,0-.31-.04-.47h.74c-.03.14-.04.27-.04.48v.17h1.02c.27,0,.47-.01.67-.04v.74c-.2-.02-.42-.04-.65-.04h-1.04v.23ZM76.13,25.72v-.61h-1.51v.61h1.51Z"/>
            <path class="cls-4" d="M79.22,23.4c.2.02.36.03.67.03.53,0,.91-.02,1.44-.08q-.02-.06-.08-.18c-.18-.41-.27-.62-.28-.64l.88-.12c.03.18.1.39.29.85.6-.08,1.41-.26,1.89-.42l.07.74q-.07.01-.24.05c-.47.11-1.25.27-1.46.29.11.26.15.35.27.57.6-.13.93-.2.97-.2.4-.1.48-.13.67-.2l.07.76c-.13.02-.28.05-.44.09-.29.07-.52.12-.69.15q-.17.04-.26.06c.36.6.48.75.94,1.28l-.62.44c-.5-.21-.93-.29-1.61-.29-.53,0-.94.07-1.18.2-.2.11-.3.26-.3.43s.12.33.3.41c.22.1.6.15,1,.15.73,0,1.72-.21,2.16-.46l.12.86q-.13.02-.46.11c-.6.16-1.18.24-1.79.24-.8,0-1.32-.1-1.71-.34-.34-.21-.54-.57-.54-.96s.21-.73.59-.97c.37-.23.93-.35,1.63-.35.43,0,.83.05,1.21.15-.11-.11-.24-.3-.54-.79-.74.11-1.19.14-2.71.19-.12,0-.17,0-.29.02l-.03-.76c.2.03.25.03.72.03.74,0,1.32-.04,1.98-.13-.04-.08-.07-.13-.12-.26-.07-.15-.09-.19-.15-.32-.56.06-1.06.09-1.88.1-.29,0-.33,0-.48.01l-.03-.74Z"/>
            <path class="cls-4" d="M91.81,22.22l-5.31,6.58h-1.03l5.3-6.58h1.04Z"/>
            <path class="cls-4" d="M92.2,27.57c.15,0,.18,0,.42-.02.43-.56.62-.83,1-1.44-.56-.76-.76-.99-1.38-1.56l.43-.65c.14.14.18.17.27.28.46-.76.69-1.25.83-1.8l.8.25c-.05.09-.12.22-.18.34-.28.6-.59,1.16-.97,1.76.3.35.36.42.58.72.44-.76.72-1.32.8-1.6l.78.32c-.06.1-.14.22-.22.38-.43.84-1.11,1.92-1.83,2.89.61-.08.93-.13,1.32-.22-.12-.35-.18-.48-.34-.88l.67-.21c.34.74.44,1.04.77,2.17l-.74.23c-.07-.34-.09-.43-.15-.65-.67.16-.89.2-2.28.41-.13.01-.32.05-.42.08l-.18-.83ZM96.03,23.55c-.38,0-.6.01-.79.04v-.8c.2.03.44.04.79.04h1.74c.25,0,.53-.01.7-.04-.02.17-.02.22-.04.79-.03,1.97-.13,3.44-.31,4.24-.07.33-.22.53-.45.63-.14.06-.34.09-.64.09-.22,0-.44,0-.72-.02-.03-.35-.06-.51-.17-.78.31.05.61.08.81.08.22,0,.29-.02.34-.11.13-.19.22-.75.29-1.74.04-.55.07-1.32.08-2.44h-1.63Z"/>
            <path class="cls-4" d="M102.63,26.54c-.4.9-.85,1.32-1.42,1.32-.8,0-1.37-.81-1.37-1.94,0-.77.27-1.49.77-2.04.59-.64,1.42-.98,2.41-.98,1.68,0,2.77,1.02,2.77,2.6,0,1.21-.63,2.18-1.7,2.61-.34.14-.61.21-1.1.29-.12-.37-.2-.53-.43-.82.64-.08,1.06-.2,1.39-.38.61-.34.97-1,.97-1.75,0-.67-.3-1.22-.86-1.55-.22-.13-.4-.18-.71-.21-.13,1.1-.38,2.07-.73,2.86ZM101.6,24.03c-.59.42-.95,1.14-.95,1.89,0,.57.24,1.03.55,1.03.23,0,.47-.29.72-.9.27-.63.5-1.58.58-2.37-.36.04-.62.14-.9.34Z"/>
            <path class="cls-4" d="M112.92,23.04c-.12.11-.15.13-.26.25-.53.55-1.05,1-1.65,1.44v2.99c0,.38,0,.59.04.78h-.98c.04-.2.04-.34.04-.76v-2.46c-.82.49-1.21.67-2.5,1.13-.15-.36-.22-.48-.47-.8,1.39-.38,2.56-.96,3.68-1.82.62-.48,1.1-.97,1.3-1.31l.8.56Z"/>
            <path class="cls-4" d="M115.23,28.49c.04-.22.04-.41.04-.79v-4.49c0-.34-.01-.53-.04-.71h.96c-.03.21-.03.3-.03.74v1.3c.96.34,2.06.85,3.18,1.48l-.49.83c-.58-.4-1.31-.8-2.48-1.34-.16-.08-.18-.08-.24-.12.02.2.03.28.03.48v1.85c0,.37,0,.55.03.78h-.96Z"/>
            <path class="cls-4" d="M126.59,23.91c-.06.13-.07.18-.11.39-.12.8-.22,1.2-.44,1.69-.34.81-.9,1.43-1.73,1.93-.42.26-.78.42-1.39.63-.16-.36-.25-.48-.56-.83.66-.16,1.05-.31,1.49-.58,1.02-.63,1.55-1.52,1.68-2.81h-3.42v.9c0,.22,0,.41.02.56h-.94c.02-.17.04-.39.04-.59v-1.02c0-.29,0-.48-.03-.67.25.03.37.04.76.04h1.37v-.6c0-.22,0-.35-.04-.51h.97c-.02.12-.04.31-.04.5v.6h1.26q.52,0,.69-.06l.41.41Z"/>
            <path class="cls-4" d="M133.15,28.4c-.58-.71-1.39-1.5-2.15-2.08-.79.88-1.6,1.5-2.67,2.02-.2-.36-.28-.48-.57-.78.54-.21.88-.4,1.4-.77,1.06-.74,1.9-1.76,2.35-2.85l.08-.18q-.11,0-2.32.04c-.34,0-.53.02-.76.06l-.03-.9c.2.04.33.04.62.04h.17l2.46-.04c.39,0,.45-.01.62-.08l.46.48c-.09.11-.15.2-.22.38-.32.75-.67,1.36-1.09,1.93.44.29.82.59,1.29,1.02q.18.15,1.02.97l-.67.73Z"/>
            <path class="cls-4" d="M138.46,25.31c-.04.8-.19,1.39-.49,1.88-.37.62-.88,1-1.83,1.38-.18-.36-.27-.48-.57-.77.84-.26,1.37-.63,1.66-1.17.18-.32.29-.78.31-1.32h-1.71c-.48,0-.64,0-.89.04v-.83c.27.04.42.05.9.05h4.1c.48,0,.64,0,.9-.05v.83c-.25-.03-.41-.04-.89-.04h-1.5ZM135.65,22.75c.26.04.4.05.9.05h2.69c.51,0,.64,0,.9-.05v.85c-.23-.03-.4-.04-.89-.04h-2.72c-.49,0-.66,0-.89.04v-.85Z"/>
            <path class="cls-4" d="M142.38,25c.31.04.44.05,1.13.05h3.73c.69,0,.83,0,1.13-.05v.97c-.28-.04-.36-.04-1.14-.04h-3.72c-.79,0-.86,0-1.14.04v-.97Z"/>
            <path class="cls-4" d="M151.88,23.23c-.06-.34-.09-.46-.17-.66l.92-.15c0,.18.04.38.08.66l.11.61,1.48-.23c.34-.06.49-.09.67-.15l.15.84q-.19.01-.67.09l-1.48.23.21,1.15,1.64-.26c.29-.05.54-.11.73-.16l.15.84c-.15,0-.17,0-.32.04-.04,0-.08,0-.11.01-.05,0-.14.02-.28.04l-1.67.27.25,1.36c.08.46.09.48.17.72l-.94.17c0-.21-.04-.41-.09-.74l-.25-1.38-1.73.27c-.34.06-.46.08-.71.15l-.14-.86c.24,0,.44-.02.74-.07l1.7-.27-.21-1.15-1.3.2c-.32.06-.58.11-.77.16l-.14-.86c.25,0,.48-.04.77-.08l1.3-.2-.11-.59Z"/>
          </g>
          <g>
            <path class="cls-5" d="M17.61,8.29c-.05-.15-.09-.28-.17-.46-.26.08-.52.15-.98.24l-.02.03s.09.06.09.11c0,.03-.01.07-.04.1.43.46.82.72,1.69,1.01l-.47.71c-.87-.42-1.22-.76-1.69-1.24-.47.6-.8.91-1.32,1.25l-.47-.48v.74h-2.4v-2.76l-.53-.31c.47-.54.79-1.02,1.18-2.04l.81.24s.11.04.11.09c0,.05-.08.1-.17.15-.03.03-.08.12-.1.17h.78l.33.34c-.18.42-.32.68-.57,1.13h.58v2.02c.81-.33,1.12-.81,1.38-1.22-.01-.05-.01-.06-.02-.09-.17.04-.59.14-.73.17s-.22.03-.25.08c-.05.08-.09.12-.12.12-.03,0-.06-.04-.08-.1l-.17-.54c.12,0,.22-.02.25-.03.13-.42.17-.53.28-1l.55.12c.15.04.17.11.17.12,0,.05-.05.09-.07.1-.09.04-.09.04-.11.06-.04.09-.11.3-.2.51.09,0,.15-.02.36-.06-.05-.13-.08-.21-.15-.37l.48-.15c.11.25.21.55.31.92l.14.04-.09-.51.15-.02c.17-.55.18-.61.25-.91l.46.1c.08.02.1.02.17.05l-.2-.28c-.71.1-1.37.2-2.08.24-.07,0-.15,0-.18.05-.04.08-.07.12-.11.12-.07,0-.09-.11-.1-.17l-.15-.67c.23-.02.53-.04.68-.04.09-.28.19-.57.31-1.01l.73.11c.12.02.2.04.2.1s-.03.08-.08.1c-.05.03-.07.04-.11.06-.05.17-.12.38-.2.57.09,0,.52-.04.62-.05-.1-.11-.14-.15-.25-.25l.49-.45c.41.38.69.72,1.02,1.16l-.49.47v.02c-.01.05-.04.08-.09.11-.09.03-.1.08-.26.47.05,0,.27-.04.32-.06-.03-.06-.04-.08-.11-.22l.55-.35c.09.17.28.52.52,1.15l-.57.37ZM12.33,11.04c0,.17,0,.89-.19,1.62l-.58-.04c.15-.48.26-.97.27-1.89l.44.08c.1.02.16.06.16.12,0,.07-.04.09-.1.1ZM12.73,6.64c-.2.34-.28.49-.42.67h.48c.12-.22.23-.42.32-.67h-.39ZM12.79,8.06h-.29v.43h.29v-.43ZM12.79,9.18h-.29v.43h.29v-.43ZM12.56,12.5c.01-.16.02-.31.02-.58,0-.5-.03-.85-.04-1.05l.41-.03c.09.49.11,1.06.11,1.52l-.5.14ZM13.27,12.21c0-.27-.01-.69-.15-1.38l.42-.09c.09.44.16.9.18,1.36l-.46.1ZM13.61,8.06h-.29v.43h.29v-.43ZM13.61,9.18h-.29v.43h.29v-.43ZM13.98,11.99c-.04-.49-.14-.97-.22-1.3l.42-.1c.16.5.23.9.28,1.26l-.49.15ZM17.76,10.99s-.07,0-.12.06c-.94,1.01-1.75,1.34-2.58,1.63l-.52-.7c1-.23,1.79-.52,2.82-1.67l.44.41c.06.05.11.12.11.17,0,.08-.07.09-.15.09ZM16.47,9.74s-.09.03-.14.03c-.55.49-.69.62-1.22.92l-.37-.48c.76-.37,1.02-.58,1.38-1.01l.4.35s.07.06.07.1c0,.06-.09.08-.12.09ZM17.11,10.29c-.05.02-.11.03-.15.04-.53.52-.95.8-1.69,1.19l-.38-.48c.79-.38,1.12-.57,1.84-1.31l.42.36s.07.07.07.11c0,.07-.09.08-.11.09Z"/>
            <path class="cls-5" d="M22.34,9c0,.37-.02.98-.28,1.75-.38,1.13-1.04,1.75-1.36,2.06l-.76-.54c.34-.24,1-.69,1.42-1.76.26-.67.27-1.22.28-1.5h-1.11c-.28.53-.5.88-.9,1.35l-.7-.45c.92-.95,1.44-2.26,1.67-3.26l.67.31s.15.09.15.16c0,.05-.09.08-.16.12-.04.13-.24.7-.34.96h2.8v.82h-1.38Z"/>
            <path class="cls-5" d="M25.77,8.71c-.31-.31-.71-.61-1.08-.8l.39-.71c.39.19.78.47,1.11.78l-.42.73ZM25.63,12.24c-.04.08-.05.1-.05.13,0,.02.02.13.02.16,0,.03-.03.09-.07.09-.05,0-.12-.08-.18-.12l-.61-.58c.58-.78,1-1.69,1.32-2.65l.63.53c-.38,1.1-.7,1.78-1.06,2.44ZM26.27,6.68c-.35-.41-.69-.69-1-.92l.47-.67c.36.26.7.57,1,.92l-.46.66ZM30.59,12.61c-1.12-1.14-1.69-2.54-1.91-3.98h-.45c-.15,1.59-.4,2.91-1.17,4.02l-.87-.38c.91-1.26,1.24-2.46,1.24-5.06,0-.58,0-1.14-.08-1.71h3.7v3.13h-1.59c.17,1.12.71,2.33,1.89,3.28l-.76.7ZM30.18,6.34h-1.92c0,.24,0,1.33,0,1.44h1.91v-1.44Z"/>
            <path class="cls-5" d="M34.32,11.44v-.45h-1.67v.93h-.68v-6.59h3.04v6.11h-.68ZM33.12,6.16h-.48v1.5h.48v-1.5ZM33.12,8.54h-.48v1.58h.48v-1.58ZM34.32,6.16h-.52v1.5h.52v-1.5ZM34.32,8.54h-.52v1.58h.52v-1.58ZM37.34,6.84v4.82c0,.82-.36.93-1.39.94l-.37-1.01c.33.08.57.09.63.09.2,0,.29-.09.29-.29v-4.55h-1.27v-.89h2.95v.89h-.84Z"/>
            <path class="cls-5" d="M44.23,12.78c-.62-.24-1.21-.54-1.94-1.39l-.09.52c-.6.24-1.57.57-1.65.59s-.49.13-.5.13c-.03,0-.13.15-.16.15-.05,0-.07-.1-.07-.17l-.12-.79c.17-.02.28-.04.64-.11v-1.39h-.61c-.13,1.21-.32,1.74-.54,2.24l-.74-.29c.25-.57.58-1.36.58-3.31,0-.19,0-.4-.02-.95h5.68v.57h-4.92c0,.17.01.31.01.56,0,.28,0,.45-.01.62h4.93v.56h-.75l.23.23s.1.1.1.16c0,.06-.04.06-.12.06q-.07,0-.15.1c-.15.2-.33.38-.51.55.43.27.74.41,1.19.52l-.46.82ZM39.27,7.72v-2.16h1.35v-.49l.65.04c.05,0,.14,0,.14.1,0,.03-.09.13-.09.17v.18h.74v-.48l.67.05c.07,0,.14.02.14.08,0,.04-.11.17-.11.2v.15h1.43v2.16h-4.91ZM40.62,6.04h-.7v.33h.7v-.33ZM40.62,6.83h-.7v.35h.7v-.35ZM40.04,9.5v-.57h4.16v.57h-4.16ZM41.65,10.34h-.55v1.21c.31-.09.7-.19,1.05-.34-.2-.28-.34-.51-.5-.87ZM42.04,6.04h-.74v.33h.74v-.33ZM42.04,6.83h-.74v.35h.74v-.35ZM42.45,10.34c.15.26.28.43.5.66.17-.17.31-.42.39-.66h-.89ZM43.48,6.04h-.73v.33h.73v-.33ZM43.48,6.83h-.73v.35h.73v-.35Z"/>
            <path class="cls-5" d="M48.03,9.75c-.22-.17-.4-.45-.49-.59v3.46h-.79v-2.64c-.22.48-.44.84-.78,1.27l-.79-.53c.17-.18.57-.61.94-1.42.28-.61.42-1.16.52-1.85h-1.15v-.97h1.25v-1.41l.75.06c.12,0,.2.03.2.11,0,.03,0,.04-.04.07-.1.1-.12.11-.12.15v1.02h.95v.97h-.95c.2.58.63,1.22,1.01,1.61l-.52.7ZM51.39,11.32c-.41-.45-.85-1.15-1.06-1.55v2.86h-.8v-2.85c-.33.76-.87,1.47-1.17,1.78l-.72-.58c.46-.48.87-1.03,1.18-1.65.42-.86.54-1.54.6-1.89h-.73v-.97h.84v-1.4l.76.06c.12,0,.2.03.2.11,0,.04-.04.07-.07.1-.07.05-.08.08-.08.11v1.01h1.4v.97h-1.32c.4,1.61,1.07,2.55,1.64,3.16l-.66.72Z"/>
            <path class="cls-5" d="M54.32,9.97c-.51,1.15-1.08,1.68-1.36,1.94l-.75-.53c.31-.27.95-.83,1.44-1.91.37-.82.43-1.41.45-1.71h-1.4v-.94h2.31c-.02.55-.07,1.75-.69,3.16ZM58.12,11.92c-.51-.47-1.45-1.33-2.08-2.75v2.4c0,.96-.41,1.1-1.35,1.11l-.32-1c.12.03.31.09.52.09.17,0,.33-.07.33-.3v-6.37l.76.08c.17.02.24.03.24.13,0,.05-.02.07-.09.15-.07.07-.09.09-.09.12v.66c0,.71.16,1.27.3,1.68.47-.42.97-1.1,1.31-1.85l.72.46c.15.1.21.15.21.22s-.06.08-.07.08c-.14.02-.15.02-.19.05-.47.72-1,1.33-1.6,1.89.45.86,1.08,1.61,2,2.29l-.6.85Z"/>
            <path class="cls-5" d="M60.39,12.54v-.79h2.11v-.67h-1.19v-.76h1.19v-.61h-.98c-.09.18-.18.38-.31.59l-.71-.4c-.09,1.41-.38,2.17-.7,2.9l-.76-.38c.26-.51.71-1.4.71-3.25,0-.15,0-.81-.07-1.79h1.46c-.11-.31-.2-.53-.33-.78h-1.13v-.77h2.35v-.74l.89.08s.17.02.17.11c0,.04-.04.08-.07.1-.02.02-.09.08-.09.15v.31h2.36v.77h-1.03c-.1.32-.2.54-.32.78h1.46v.78h-3.97l.58.34c.09.06.12.1.12.13,0,.02,0,.04,0,.04-.01.03-.12.04-.15.05-.02,0-.04.04-.12.24h.64v-.65l.74.14c.07.02.17.04.17.1,0,.04-.04.06-.06.08-.01,0-.07.05-.07.1v.24h1.75v.76h-1.75v.61h1.3v.76h-1.3v.67h2.18v.79h-5.07ZM60.53,8.16c0,.9-.01,1.25-.02,1.61.39-.39.68-1.07.81-1.61h-.79ZM61.73,6.61c.13.24.24.47.34.78h.97c.06-.11.17-.34.31-.78h-1.62Z"/>
            <path class="cls-5" d="M66.2,7.18v-.76h2.37v.76h-2.37ZM71.97,12.28c-.33-.29-.7-.66-1.11-1.36v1.71h-.79v-1.96c-.29.59-.64,1.12-1.22,1.66l-.44-.42v.54h-.71v-.24h-.63v.38h-.73v-2.7h2.07v1.63c.25-.2.7-.58,1.19-1.5h-1.01v-.85h1.48v-.49h-1.27v-3.4h3.41v3.4h-1.35v.49h1.59v.85h-1.29c.35.66.87,1.18,1.41,1.61l-.6.65ZM66.52,9.46v-.71h1.74v.71h-1.74ZM66.55,8.33v-.71h1.7v.71h-1.7ZM66.56,6.07v-.8h1.7v.8h-1.7ZM67.71,10.65h-.63v.76h.63v-.76ZM70.08,6.06h-.55v.56h.55v-.56ZM70.08,7.33h-.55v.69h.55v-.69ZM71.45,6.06h-.59v.56h.59v-.56ZM71.45,7.33h-.59v.69h.59v-.69Z"/>
          </g>
          <g>
            <path class="cls-5" d="M77.24,4.74v9.07h-1.1V3.63h3.81v1.11h-2.71Z"/>
            <path class="cls-5" d="M88.28,13.09h-1.85c-.48,0-.93-.33-.93-.87v-3.91h-1.92l.88.25c.26.08.41.14.41.28,0,.19-.25.25-.4.28-.28,2.58-1.88,3.86-3.46,4.22l-.86-1.12c.43-.04,1.46-.14,2.26-1.12.64-.78.83-1.79.78-2.79h-2.54v-1.22h9.04v1.22h-2.95v3.18c0,.28.13.43.39.43h.84c.61,0,.68-.89.7-1.14l1.26.52c-.33,1.36-.63,1.8-1.65,1.8ZM81.64,5.51v-1.2h7.01v1.2h-7.01Z"/>
            <path class="cls-5" d="M92.37,5.81c-.41.71-.69,1.12-1.06,1.55l-1.11-.6c.78-.86,1.26-1.8,1.59-2.85l1.31.34s.15.04.15.12c0,.03-.01.05-.02.08-.02.01-.13.06-.15.08-.05.03-.06.06-.19.32h5.88v.97h-6.41ZM94.94,13.37c-.47-.62-.77-.96-1.16-1.38-.9.84-1.57,1.22-2.42,1.57l-.79-.96c.57-.19,1.58-.56,2.36-1.38-.6-.46-.97-.65-1.33-.82l.61-.98c.42.21.83.42,1.46.89.26-.4.42-.68.64-1.16l1.02.45c.05.02.17.09.17.17,0,.05-.05.08-.09.09-.05.02-.14.05-.16.09-.35.6-.39.69-.69,1.11.28.25.69.64,1.39,1.45l-1.02.85ZM98.73,13.55c-.33,0-.93-.36-1.33-1.15-.56-1.12-.54-2.39-.52-3.42h-5.72v-1.06h7.02c-.09.58-.13,1.16-.13,1.76,0,1.09.23,2.28.62,2.28.18,0,.28-.59.29-.76l.84.61c-.18.8-.49,1.73-1.09,1.73ZM92.47,7.35v-.97h5.24v.97h-5.24Z"/>
            <path class="cls-5" d="M107.73,7.85c.55.5,1.1.99,1.58,1.56l-.85.75c-.13-.14-.3-.34-.71-.75-.58.08-1.23.13-1.7.17.15.02.29.04.29.14,0,.06-.09.11-.15.15v.55h2.31v.96h-2.31v.83h3.37v1.01h-7.64v-1.01h2.98v-.83h-2.36v-.96h2.36v-.76c-.64.04-1.55.1-1.62.1-.05,0-.36.01-.43.02-.03.01-.19.15-.25.15-.14,0-.17-.11-.18-.22l-.14-.96c.42.03.8.03,1.27.03.11-.15.33-.54.51-.94h-1.89c-.01.72-.02,1.3-.14,2.27-.18,1.41-.45,2.33-.83,3.22l-1.22-.37c.76-1.62.99-3.42.99-5.19,0-1.07-.04-2.56-.15-3.57h8.41v2.29h-7.06v.43h7.48v.91h-1.94ZM107.99,5.12h-5.8v.53h5.8v-.53ZM106.45,8.23l.33-.38h-1.4c-.17.32-.38.71-.53.92,1.31-.03,1.63-.05,2.12-.1-.17-.15-.19-.16-.53-.44Z"/>
            <path class="cls-5" d="M118.56,8.71c-.14-.24-.3-.51-.67-1.01-2.5.38-5.15.51-6.4.56-.4.02-.45.04-.55.12-.17.13-.12.13-.17.13-.01,0-.1-.01-.12-.11l-.32-1.35c.68-.01,1.17-.01,1.59-.02.61-.96,1.13-1.99,1.57-3.05l1.51.46c.08.02.14.11.14.18,0,.13-.18.15-.41.23-.23.23-.33.47-.54.78-.17.25-.59.93-.94,1.37,1.31-.03,2.62-.08,3.93-.17-.43-.49-.74-.79-1.08-1.06l.91-.75c.54.46,1.45,1.24,2.6,2.96l-1.06.73ZM116.99,13.4v-.44h-4.21v.44h-1.28v-4.28h6.78v4.28h-1.28ZM116.99,10.28h-4.21v1.57h4.21v-1.57Z"/>
            <path class="cls-5" d="M128.04,12.84l-.58-1.69h-3.31l-.58,1.69h-1.6l3.02-7.86h1.65l3.02,7.86h-1.61ZM125.98,6.9l-.17-.69-.18.69-1.04,3.03h2.46l-1.06-3.03Z"/>
            <path class="cls-5" d="M135.05,12.4c-.6.58-1.39.7-1.99.7-1.66,0-2.49-.96-2.49-2.38v-.84h1.45v.84c0,.97.73,1.08,1.12,1.08.7,0,1.1-.29,1.1-1.34v-5.48h1.46v5.58c0,.62-.14,1.35-.65,1.84Z"/>
            <path class="cls-5" d="M137.63,12.84v-7.86h1.45v7.86h-1.45Z"/>
            <path class="cls-5" d="M144.66,9.81v3.03h-1.45v-3.03l-2.78-4.84h1.64l1.62,3.08.26.54.25-.54,1.62-3.08h1.64l-2.78,4.84Z"/>
            <path class="cls-5" d="M153.36,12.84l-.58-1.69h-3.31l-.58,1.69h-1.6l3.02-7.86h1.65l3.02,7.86h-1.61ZM151.3,6.9l-.17-.69-.18.69-1.04,3.03h2.46l-1.06-3.03Z"/>
            <path class="cls-5" d="M156.1,13.86v-1.11h2.71V3.68h1.1v10.18h-3.81Z"/>
          </g>
        </g>
      </g>
    </g>
  </g>
</svg>