<?xml version="1.0" encoding="UTF-8"?>
<svg xmlns="http://www.w3.org/2000/svg" viewBox="0 0 816 178.11">
  <defs>
    <style>
      .cls-1 {
        isolation: isolate;
      }

      .cls-2 {
        fill: #231815;
      }

      .cls-3 {
        fill: #fff;
      }

      .cls-4 {
        mix-blend-mode: multiply;
      }

      .cls-4, .cls-5 {
        fill: #b28146;
      }
    </style>
  </defs>
  <g class="cls-1">
    <g id="_レイヤー_2" data-name="レイヤー_2">
      <g id="_レイヤー_1-2" data-name="レイヤー_1">
        <g>
          <rect class="cls-5" width="816" height="85.14"/>
          <rect class="cls-4" x="0" width="40.36" height="85.13"/>
          <g>
            <path class="cls-3" d="M278.12,34.41c-1.31,1.26-8.76,8.76-15.27,15.69,1.99,2.36,3.04,3.67,4.41,5.82l-5.3,4.25c-3.93-7.24-9.08-12.38-13.22-15.74l4.09-4.09c1.99,1.57,3.52,2.94,5.77,5.14,4.09-4.09,7.08-7.19,10.65-11.02h-29.53v-5.93h33.99c.73,0,1.57-.58,2.47-1.15l4.35,5.09c-1.05.79-1.84,1.42-2.41,1.94Z"/>
            <path class="cls-3" d="M297.99,27.01c-.37.31-.37.42-.37.68,0,9.81,0,10.6-.26,12.9-1.26,10.86-7.5,16-11.33,19.04l-5.82-4.25c5.04-2.94,11.23-7.4,11.23-20.46,0-4.88-.37-8.34-.58-9.92l6.35.42c.94.05,1.52.21,1.52.79,0,.21-.1.26-.73.79ZM307.69,59.69l-4.46-3.46v-31.84l6.08.73c.47.05,1.47.16,1.47.68,0,.21-.1.37-.58.79,0,.05-.63.58-.63.63v22.92c4.51-2.47,10.49-8.34,13.85-13.43l3.57,5.3c-5.14,6.92-13.01,14.16-19.31,17.68Z"/>
            <path class="cls-3" d="M361.21,61.48v-2.31h-27.44v-5.4h27.44v-8.92h-26.44v-5.35h26.44v-8.92h-27.02v-5.4h33v36.3h-5.98Z"/>
            <path class="cls-3" d="M387.13,42.75c-2.47-1.68-5.72-3.72-10.18-5.09l2.99-5.25c3.93,1.21,7.29,2.94,10.44,5.4l-3.25,4.93ZM402.97,52.09c-7.19,6.03-13.22,9.02-17.99,11.33-.21.1-.31.26-.42.58-.21.73-.31.94-.52.94-.52,0-1.1-1-1.31-1.42l-2.78-5.04c13.22-5.46,22.51-12.33,31.32-25.13l4.14,5.04c-1.99,2.89-5.51,7.87-12.43,13.69ZM392.8,30.79c-3.09-2.31-6.45-3.93-10.18-5.09l2.99-5.25c3.99,1.21,7.29,2.94,10.18,5.09l-2.99,5.25Z"/>
            <path class="cls-3" d="M461.33,59.38c-6.09-4.62-12.22-11.86-14.69-16.79v22.45h-6.45v-22.71c-1.68,3.15-7.55,12.38-15.06,17.57l-4.98-3.78c9.23-6.14,14.9-14.79,17.21-20.41h-16.42v-5.72h19.25v-10.39l5.3.37c1.99.16,1.99.42,1.99.79,0,.21-.21.42-.42.68-.26.31-.42.52-.42.68v7.87h19.41v5.72h-17.05c2.62,5.77,7.71,13.06,17.1,18.89l-4.77,4.77Z"/>
            <path class="cls-3" d="M489.12,49.25c-2.52-2.2-2.89-2.57-3.72-3.67v19.41h-5.82v-16.79c-.84,1.73-1.73,3.57-4.25,6.71l-4.93-2.73c4.62-5.98,6.66-10.49,8.39-17.78h-7.55v-5.51h8.34v-9.02l6.35.47c.31,0,.63.16.63.58,0,.31-.26.52-.52.73-.21.1-.63.42-.63.79v6.45h6.35v5.51h-6.35v2.31c1.84,3.41,3.72,5.61,6.92,7.97l-3.2,4.56ZM496.67,51.41c-.58-4.25-2.31-7.82-3.62-10.23l5.09-2.41c1.68,3.51,3.04,7.13,3.67,10.91l-5.14,1.73ZM510.68,34.25v25.02c0,4.04-2.26,5.3-9.02,5.35l-2.83-5.77c.94.05,2.47.16,4.25.16,1.26,0,1.78-.42,1.78-1.84v-22.92h-10.33v-5.51h10.33v-9.08l5.98.42c.52.05.79.26.79.52,0,.31-.21.52-.42.68-.37.26-.52.42-.52.63v6.82h5.67v5.51h-5.67Z"/>
            <path class="cls-3" d="M556.6,28.43c-.63,2.26-1.21,3.67-1.94,5.25h10.12v27.54c0,2.83-1.63,4.09-4.98,4.09h-3.15l-2.26-5.19v1.05h-15.11v1.1h-5.4v-12.12c-.58.37-.79.47-1.26.73l-3.62-2.83v17h-5.82v-31.37h10.39c-.63-1.84-1.42-3.62-2.26-5.25h-9.81v-4.62h19.2v-3.99l6.19.47c.42.05,1.1.1,1.1.58,0,.31-.31.52-.94.94v1.99h19.25v4.62h-9.7ZM529,38.87v8.5c1.84-1.05,5.04-3.15,6.92-8.5h-6.92ZM559.27,38.87h-10.39v2.99c0,.63.26.79,1.15.79h2.83c.79,0,1.26-.31,1.42-2.47l4.25,1.68c-.26,2.2-.68,5.72-4.35,5.72h-6.03c-3.04,0-4.04-1.21-4.04-3.46v-5.25h-7.92l4.09,2.2c.21.1.89.47.89.89,0,.26-.21.52-.42.58-.84.31-.94.31-1.31,1-1.84,3.57-3.41,4.88-4.93,6.14h19.88v10.18c1.42.1,1.78.16,2.83.16,1.57,0,2.05-.1,2.05-1.89v-19.25ZM538.03,28.43c.79,1.52,1.47,2.99,2.31,5.25h7.34c1-1.78,1.68-3.2,2.47-5.25h-12.12ZM548.89,53.82h-9.6v3.25h9.6v-3.25Z"/>
            <path class="cls-3" d="M594.82,30.74l3.2.63c.58.1,1.47.31,1.47.79,0,.42-.42.58-1.15.94v2.57h17.68v5.4h-17.68v5.3h14.37v18.78h-6.08v-1.36h-18.15v1.36h-5.77v-18.78h9.6v-15.63h-11.17v8.24c0,5.88-.52,9.34-1.68,15.16-.89,4.3-2.36,7.61-3.67,10.44l-5.72-2.15c1.84-3.51,5.04-9.65,5.04-22.3v-14.85h15.74v-5.51l6.87.42c.52.05,1.15.21,1.15.79,0,.31-.47.63-.73.79-.26.16-.63.37-.63.58v2.94h19.2v5.46h-21.88ZM606.62,51.98h-18.15v6.51h18.15v-6.51Z"/>
          </g>
          <g>
            <path class="cls-2" d="M66.13,121.12c-.1.41-.14.44-.27,1.06-1.19,5.25-3.03,9.51-5.73,13.23-1.67-1.19-2.25-1.5-3.95-2.18,2.25-2.69,3.48-5.04,4.77-8.97.61-1.81.85-2.86.99-4.19l4.19,1.06ZM69.58,111.92c0-1.7-.03-2.56-.2-3.51h4.6c-.1.99-.14,1.47-.14,3.61v1.81h7.81c2.35,0,3.1-.03,4.4-.24v4.19c-1.19-.14-2.08-.17-4.33-.17h-7.87v16.53c0,1.74.03,2.73.17,3.82h-4.64c.17-1.09.2-2.08.2-3.85v-16.5h-7.57c-2.22,0-3.1.03-4.29.17v-4.19c1.3.2,2.05.24,4.36.24h7.5v-1.91ZM81.27,120.07c.24,1.16.51,2.05,1.19,3.82,1.53,4.12,2.79,6.51,4.84,9.17-1.77.92-2.35,1.26-3.92,2.39-2.59-4.12-3.99-7.33-5.59-12.75-.27-.95-.31-1.06-.55-1.6l4.02-1.02Z"/>
            <path class="cls-2" d="M114.13,113.93c-.44.58-.51.72-1.06,2.28-1.09,3.1-2.97,7.09-4.36,9.37-3.48,5.66-8.28,9.68-15.54,13.02-1.09-1.84-1.53-2.42-2.83-3.51,2.9-1.19,4.6-2.05,6.65-3.41,2.42-1.57,3.85-2.79,5.59-4.74-2.39-2.04-4.43-3.48-6.99-4.87l2.59-3.03c2.86,1.6,4.29,2.56,6.85,4.57,1.6-2.45,2.76-4.84,3.82-8.04l-10.6.1c-2.11,3.51-4.53,6.27-7.98,9.17-1.12-1.26-1.64-1.7-3.41-2.73,3.75-2.8,6.48-5.9,8.56-9.71.99-1.81,1.67-3.48,1.98-4.74l4.43.99q-.38.61-1.02,1.91c-.41.92-.65,1.33-.82,1.64q.55-.07,8.86-.14c1.4-.03,2.11-.1,3-.41l2.28,2.28Z"/>
            <path class="cls-2" d="M133.66,122.21c-.17,3.92-.92,6.75-2.39,9.17-1.81,3-4.29,4.87-8.9,6.72-.85-1.74-1.3-2.32-2.76-3.75,4.09-1.26,6.65-3.07,8.08-5.69.89-1.57,1.4-3.78,1.5-6.44h-8.32c-2.32,0-3.1.03-4.33.17v-4.06c1.3.2,2.05.24,4.4.24h19.94c2.32,0,3.1-.03,4.4-.24v4.06c-1.23-.14-2.01-.17-4.33-.17h-7.29ZM119.99,109.74c1.26.2,1.94.24,4.4.24h13.09c2.45,0,3.14-.03,4.4-.24v4.16c-1.12-.14-1.94-.17-4.33-.17h-13.23c-2.39,0-3.2.03-4.33.17v-4.16Z"/>
            <path class="cls-2" d="M152.82,120.2c-1.67,0-2.52.03-3.51.1.1-.82.14-1.67.14-2.97v-3.95c0-1.3-.03-2.05-.14-2.9.99.1,2.08.14,3.78.14h7.09c0-1.47-.07-2.22-.24-3.24h4.19c-.14.99-.2,1.77-.2,3.24h7.7c1.74,0,2.79-.03,3.78-.14-.1.82-.14,1.53-.14,2.9v3.95c0,1.43.03,2.11.14,2.97-.99-.07-2.05-.1-3.51-.1h-7.98v2.56h9.41c1.67,0,2.52-.03,3.44-.14-.1.95-.14,1.77-.14,3.31v4.87c0,1.64.03,2.56.17,3.58h-3.92v-1.6h-8.97v1.74c0,2.22.03,3.24.2,4.47h-4.19c.17-1.26.24-2.56.24-4.5v-1.7h-8.45v1.6h-3.92c.1-1.16.17-2.25.17-3.61v-4.87c0-1.33-.03-2.28-.14-3.24.95.07,1.87.1,3.37.1h8.97v-2.56h-7.36ZM151.69,126v3.44h8.49v-3.44h-8.49ZM153.12,113.93v3.17h7.06v-3.17h-7.06ZM163.93,117.1h7.64v-3.17h-7.64v3.17ZM163.93,129.44h8.97v-3.44h-8.97v3.44Z"/>
            <path class="cls-2" d="M186.68,108.95c-.2.99-.27,1.98-.41,4.6-.14,3.17-.34,10.09-.34,12.51,0,3.24.2,4.47.89,5.49.78,1.12,2.42,1.77,4.57,1.77,3.68,0,6.65-2.08,8.25-5.83.75-1.77,1.19-3.37,1.57-5.73,1.84,1.5,2.45,1.88,4.12,2.62-1.36,4.6-2.39,6.82-4.06,8.69-2.56,2.9-5.93,4.33-10.23,4.33-2.35,0-4.53-.55-5.97-1.5-2.35-1.57-3.34-4.19-3.34-8.76,0-1.77.07-5.18.27-13.74.03-1.02.03-1.74.03-2.22,0-.95-.03-1.43-.14-2.32l4.77.07Z"/>
            <path class="cls-2" d="M221.19,127.36c-1.57,0-2.42.03-3.31.17v-3.48c.78.1,1.3.14,2.62.14h.44v-2.97h-.58c-1.12,0-1.7.03-2.66.17v-2.86c-.78.99-1.16,1.4-2.15,2.39-.17,2.76-.27,3.95-.51,5.59,1.12,1.74,2.45,3.17,4.02,4.4-.89,1.26-1.29,1.94-1.88,3.34-1.4-1.47-2.18-2.42-3.03-3.72-1.06,3.48-2.45,5.97-4.67,8.32-.72-1.23-1.4-2.05-2.45-2.93,1.94-2.01,3.07-4.02,3.92-7.09.95-3.2,1.33-8.01,1.33-16.16,0-2.93-.03-3.65-.24-4.94h3.92q-.17,1.12-.21,6.54c0,.72,0,1.16-.03,2.22.92-1.36,1.36-2.15,1.74-3.03l2.59,1.98c-.44.58-1.06,1.43-1.88,2.49.65.07,1.16.1,2.18.1h.58v-1.09c0-.68-.03-1.06-.14-1.6h3.41c-.07.44-.1.82-.1,1.53v1.16h7.33v-1.12c0-.68-.03-1.02-.1-1.57h3.51c-.1.48-.14.92-.14,1.57v1.12h1.33c1.19,0,1.87-.03,2.83-.17v3.54c-.92-.14-1.64-.17-2.83-.17h-1.33v2.97h.55c1.4,0,2.15-.03,3.1-.17v3.54c-1.06-.14-2.04-.2-3.48-.2h-2.83v6.99c0,.68.2.78,1.98.78.89,0,1.4-.2,1.53-.61.2-.58.31-1.67.34-3.61.99.65,1.67.92,3.2,1.36-.17,3.14-.55,4.64-1.36,5.35-.65.58-2.01.85-4.4.85-3.78,0-4.74-.55-4.74-2.69v-8.42h-2.69c-.17,2.11-.34,2.97-.82,4.3-1.23,3.58-3.48,5.76-7.77,7.5-.58-1.4-1.12-2.22-2.11-3.1,2.42-.78,3.75-1.57,5.04-2.97,1.36-1.47,2.04-3.31,2.15-5.73h-1.23ZM207.24,123.1c.51-1.6.65-2.35.82-4.19.17-1.6.24-2.9.24-3.92v-.89l2.86.34c-.07,4.36-.38,7.09-1.09,10.09l-2.83-1.43ZM229.37,115.02c0,1.06.03,1.43.1,2.01h-3.48c.07-.51.1-1.06.1-1.98v-1.16h-3.92c-1.23,0-2.42.07-3.31.17v-3.54c1.06.14,1.84.17,3.31.17h3.92v-.85c0-.95-.03-1.53-.17-2.28h3.61c-.14.68-.17,1.33-.17,2.32v.82h4.98c1.33,0,2.28-.07,3.27-.2v3.58c-.95-.1-2.04-.17-3.17-.17h-5.08v1.12ZM231.45,124.19v-2.97h-7.33v2.97h7.33Z"/>
            <path class="cls-2" d="M241.93,112.87c.99.1,1.77.14,3.27.14,2.59,0,4.43-.1,7.02-.38q-.1-.27-.38-.89c-.85-1.98-1.33-3.03-1.36-3.1l4.26-.58c.14.85.48,1.88,1.4,4.12,2.9-.38,6.85-1.26,9.2-2.05l.34,3.61q-.34.07-1.16.24c-2.28.55-6.07,1.3-7.12,1.43.55,1.26.75,1.7,1.33,2.79,2.93-.61,4.5-.95,4.7-.99,1.94-.48,2.35-.61,3.24-.99l.34,3.72c-.65.1-1.36.24-2.15.44-1.4.34-2.52.58-3.34.75q-.85.17-1.26.27c1.77,2.93,2.32,3.65,4.57,6.24l-3,2.15c-2.45-1.02-4.5-1.4-7.84-1.4-2.59,0-4.57.34-5.73.95-.95.55-1.47,1.26-1.47,2.08s.58,1.6,1.47,1.98c1.09.48,2.9.75,4.87.75,3.55,0,8.35-1.02,10.5-2.22l.61,4.19q-.65.1-2.22.51c-2.9.78-5.73,1.16-8.73,1.16-3.92,0-6.41-.51-8.32-1.67-1.64-1.02-2.62-2.76-2.62-4.67s1.02-3.54,2.86-4.74c1.77-1.12,4.5-1.7,7.94-1.7,2.08,0,4.06.24,5.9.72-.55-.51-1.19-1.47-2.62-3.82-3.61.55-5.79.68-13.19.92-.58.03-.82.03-1.4.1l-.14-3.72c.99.14,1.19.14,3.51.14,3.58,0,6.41-.2,9.65-.65-.2-.41-.34-.61-.61-1.26-.34-.72-.44-.92-.72-1.53-2.73.31-5.18.44-9.14.48-1.43,0-1.6.03-2.32.07l-.17-3.61Z"/>
            <path class="cls-2" d="M281.36,139.16c-1.91-2.73-2.76-4.23-3.72-6.72-1.23-3.14-1.81-6.14-1.81-9.41s.54-6.03,1.74-9.1c.99-2.49,1.81-3.99,3.75-6.72h4.77c-2.39,3-3.37,4.53-4.33,6.78-1.19,2.79-1.77,5.69-1.77,9.03s.58,6.51,1.81,9.34c.95,2.25,1.91,3.75,4.33,6.78h-4.77Z"/>
            <path class="cls-2" d="M292.03,129.13c.44,1.57.75,2.11,1.6,2.8,1.12.89,2.49,1.33,4.12,1.33,3.38,0,5.52-1.74,5.52-4.43,0-1.57-.68-2.86-1.91-3.58-.82-.48-2.42-.82-3.92-.82s-2.49.03-3.65.17v-4.23c1.09.14,1.84.17,3.31.17,3.41,0,5.42-1.57,5.42-4.19,0-2.35-1.6-3.68-4.5-3.68-1.67,0-2.9.38-3.72,1.06-.68.65-1.02,1.23-1.43,2.62l-4.87-.82c.85-2.52,1.64-3.72,3.24-4.87,1.74-1.26,3.95-1.88,6.68-1.88,5.69,0,9.37,2.86,9.37,7.29,0,2.05-.89,3.92-2.35,5.01-.75.58-1.5.85-3.31,1.33,2.42.38,3.68.95,4.88,2.28,1.12,1.26,1.64,2.69,1.64,4.7,0,1.84-.78,3.72-2.05,4.98-1.88,1.81-4.74,2.76-8.39,2.76-3.99,0-6.72-1.02-8.66-3.24-.85-.95-1.3-1.84-1.91-3.82l4.88-.95Z"/>
            <path class="cls-2" d="M314.66,116.79c-1.5,0-2.66.07-4.06.2v-4.16c1.33.17,2.45.24,4.06.24h8.76v-2.42c0-1.33-.07-2.18-.2-3.17h4.26c-.17.95-.24,1.88-.24,3.14v2.45h9.24c1.7,0,2.97-.07,4.12-.24v4.16c-1.5-.14-2.52-.2-4.12-.2h-7.29c1.6,2.9,3.2,5.15,5.11,7.16,2.32,2.42,4.74,4.29,7.43,5.73-1.06,1.26-1.64,2.18-2.32,3.72-2.18-1.5-3.65-2.69-5.73-4.74v3.89c-1.06-.14-2.01-.2-3.41-.2h-3.03v2.32c0,1.6.07,3.03.24,4.23h-4.29c.17-1.26.24-2.62.24-4.23v-2.32h-2.69c-1.4,0-2.39.07-3.41.2v-3.85c-1.94,2.05-3.38,3.27-5.52,4.77-.68-1.53-1.19-2.32-2.32-3.58,5.11-3.17,9.24-7.74,11.86-13.09h-6.68ZM323.42,123.3c0-1.06.1-2.42.27-3.82-1.81,3.68-3.44,6.07-6.2,9.03.78.1,1.47.14,3.03.14h2.9v-5.35ZM330.54,128.66c1.57,0,2.18-.03,3-.14-2.66-2.66-4.16-4.74-6.61-9.03.2,1.4.31,2.76.31,3.78v5.39h3.31Z"/>
            <path class="cls-2" d="M350.53,112.77c-.92,0-1.94.07-3.27.17v-4.09c.99.14,1.7.17,3.2.17h5.42c1.4,0,2.32-.03,3.1-.17-.1.99-.1,1.3-.1,2.15,0,4.84,1.23,9.34,3.65,13.5,1.43,2.39,3.1,4.43,5.45,6.54,1.74,1.6,2.73,2.32,5.04,3.68-1.29,1.26-1.94,2.15-2.9,3.85-3.41-2.39-5.96-4.88-8.28-8.01-1.26-1.67-2.01-2.97-3-5.05-.89-1.87-1.19-2.73-1.74-4.84-1.23,4.36-2.59,7.26-4.87,10.29-2.18,2.83-4.74,5.22-8.45,7.7-.72-1.5-1.5-2.52-2.8-3.58,2.9-1.67,4.57-2.97,6.85-5.35,2.66-2.76,4.74-6.41,5.83-10.09.68-2.35.99-4.12,1.12-6.89h-4.26Z"/>
            <path class="cls-2" d="M373.5,139.16c2.42-3.03,3.37-4.53,4.33-6.78,1.23-2.83,1.81-5.86,1.81-9.34s-.55-6.24-1.74-9.03c-.99-2.25-1.98-3.78-4.36-6.78h4.81c1.91,2.69,2.73,4.19,3.72,6.72,1.19,3.1,1.74,5.86,1.74,9.1s-.58,6.27-1.77,9.41c-.99,2.49-1.81,3.99-3.72,6.72h-4.81Z"/>
            <path class="cls-2" d="M420.68,107.15l-25.84,32.04h-5.01l25.8-32.04h5.05Z"/>
            <path class="cls-2" d="M446.72,115.98c-.27.61-.34,1.09-.38,2.28-.1,3.85-.48,9.1-.82,11.35-.89,5.9-2.08,7.29-6.17,7.29-1.29,0-2.45-.1-4.23-.38-.07-2.15-.17-2.8-.78-4.36,2.01.55,3.38.78,4.5.78,1.47,0,1.98-.75,2.52-3.72.41-2.35.75-6.99.75-10.91l-7.94.03c-.48,4.26-1.19,6.82-2.73,9.75-1.88,3.61-4.91,6.72-9.2,9.44-1.16-1.81-1.64-2.35-3.07-3.61,4.26-2.25,7.06-4.94,8.86-8.59.92-1.87,1.43-3.54,1.74-5.93.07-.48.14-.82.17-1.06l-5.66.03c-2.08,0-2.56.03-3.68.17l-.03-4.19c1.16.2,2.08.27,3.78.27l5.97-.03c.1-1.3.17-3.27.17-4.26v-.85c0-.44,0-.72-.1-1.33l4.57.1c-.07.44-.1.58-.14,1.06,0,.2-.03.41-.03.65q-.07.72-.14,2.49c-.03.75-.03,1.06-.14,2.15l7.57-.03c1.53,0,1.84-.03,2.69-.31l1.94,1.7Z"/>
            <path class="cls-2" d="M457.14,109.33c-.14.92-.17,1.77-.21,3.44l-.17,19.46c3.54-.68,6.75-1.98,9.31-3.75,3.14-2.15,5.25-4.5,6.95-7.81,1.33,1.77,1.77,2.25,3.24,3.48-2.35,3.61-4.53,5.9-7.6,7.94-3.41,2.28-6.89,3.61-12.41,4.67-.92.17-1.33.31-2.04.58l-2.18-2.62c.24-.92.31-1.53.31-3.51l.14-18.41q0-2.39-.17-3.51l4.84.03Z"/>
            <path class="cls-2" d="M479.27,120.68c1.5.2,2.15.24,5.52.24h18.17c3.38,0,4.02-.03,5.52-.24v4.74c-1.36-.17-1.74-.17-5.56-.17h-18.1c-3.82,0-4.19,0-5.56.17v-4.74Z"/>
            <path class="cls-2" d="M521.13,111.44c-.1.38-.14.41-.17.68l-.07.58-.17.99-.1.82c-1.43,9.78-4.09,16.5-8.66,21.75-1.6-1.53-2.25-2.04-3.89-2.93,2.05-2.04,3.44-4.12,4.88-7.26,1.47-3.17,2.66-7.4,3.2-11.69.2-1.4.31-2.56.31-3.31v-.48l4.67.85ZM530.81,110.59c.03,1.57.65,4.91,1.43,7.84,1.67,6.31,4.06,10.91,7.6,14.73-1.74,1.09-2.45,1.67-3.75,3.14-4.53-5.42-7.7-13.26-9.03-22.43-.2-1.4-.31-1.94-.48-2.45l4.23-.82ZM540.49,112.6c0,2.18-1.77,3.95-3.95,3.95s-3.92-1.77-3.92-3.95,1.77-3.92,3.92-3.92,3.95,1.77,3.95,3.92ZM534.32,112.6c0,1.23.99,2.25,2.22,2.25s2.25-1.02,2.25-2.25-.99-2.22-2.25-2.22-2.22.99-2.22,2.22Z"/>
            <path class="cls-2" d="M542.66,132.03c2.93-.17,6.99-1.16,10.09-2.52,4.26-1.84,7.43-4.47,10.12-8.35,1.5-2.18,2.45-4.06,3.48-6.82,1.33,1.6,1.88,2.11,3.61,3.34-2.9,6.24-6.14,10.26-10.81,13.36-3.48,2.32-7.7,3.99-12.99,5.11-1.36.27-1.47.31-2.25.58l-1.26-4.7ZM545.56,110.86c4.06,2.52,6.17,4.09,8.79,6.58l-2.93,3.72c-2.73-2.9-5.52-5.15-8.69-6.92l2.83-3.37Z"/>
            <path class="cls-2" d="M582.58,139.16c-1.91-2.73-2.76-4.23-3.72-6.72-1.23-3.14-1.81-6.14-1.81-9.41s.54-6.03,1.74-9.1c.99-2.49,1.81-3.99,3.75-6.72h4.77c-2.39,3-3.37,4.53-4.33,6.78-1.19,2.79-1.77,5.69-1.77,9.03s.58,6.51,1.81,9.34c.95,2.25,1.91,3.75,4.33,6.78h-4.77Z"/>
            <path class="cls-2" d="M615.6,111.92q-.41.1-2.86.92c-1.94.61-3.03.89-5.69,1.4q-.03,4.6-.1,5.76h7.23c2.32,0,2.9-.03,4.16-.24v4.09c-1.26-.14-1.91-.17-4.09-.17h-7.53c-.38,3.17-1.09,5.45-2.28,7.43-1.19,1.98-3.17,3.89-5.56,5.42-.95.61-1.6.99-3.17,1.7-.99-1.74-1.53-2.39-2.97-3.61,2.45-.89,3.75-1.6,5.28-2.86,2.05-1.64,3.34-3.58,3.92-5.79.14-.58.24-1.16.38-2.28h-8.42c-2.18,0-2.83.03-4.09.17v-4.09c1.26.2,1.84.24,4.16.24h8.73c.07-1.43.07-2.76.07-5.15-2.76.41-3.82.51-9.44.78-.34-1.53-.51-2.05-1.26-3.68,1.06.07,1.6.07,2.11.07,4.57,0,10.4-.78,14.59-1.98,1.98-.58,2.97-.95,4.12-1.6l2.73,3.48Z"/>
            <path class="cls-2" d="M621.59,120.68c1.5.2,2.15.24,5.52.24h18.17c3.37,0,4.02-.03,5.52-.24v4.74c-1.36-.17-1.74-.17-5.56-.17h-18.1c-3.82,0-4.19,0-5.56.17v-4.74Z"/>
            <path class="cls-2" d="M674.62,138.13c-2.35-3-7.09-7.6-10.46-10.12-3.41,3.95-8.01,7.43-12.99,9.85-.92-1.74-1.4-2.42-2.76-3.78,3.51-1.26,7.98-4.19,11.18-7.36,3.07-3,5.42-6.44,7.09-10.26l.17-.38.1-.24c0-.07.03-.14.1-.31-.38.03-.48.03-.75.03l-.31.03-10.23.17c-1.84.03-2.69.1-3.72.24l-.14-4.33c.95.17,1.6.2,3,.2h.82l11.39-.17c1.91-.03,2.18-.07,3.03-.38l2.52,3.03c-.34.38-.78,1.09-1.09,1.84-1.29,3.1-3.17,6.34-4.98,8.69,3.78,2.59,5.66,4.19,11.28,9.65l-3.27,3.58ZM673.32,108.14c1.5,1.6,2.42,2.9,3.58,5.01l-2.28,1.26c-1.12-2.08-2.08-3.44-3.58-5.08l2.28-1.19ZM678.61,112.26c-1.02-1.87-2.15-3.48-3.48-4.94l2.15-1.09c1.53,1.57,2.49,2.86,3.55,4.81l-2.22,1.23Z"/>
            <path class="cls-2" d="M689.5,112.77c-.92,0-1.94.07-3.27.17v-4.09c.99.14,1.7.17,3.2.17h5.42c1.4,0,2.32-.03,3.1-.17-.1.99-.1,1.3-.1,2.15,0,4.84,1.23,9.34,3.65,13.5,1.43,2.39,3.1,4.43,5.45,6.54,1.74,1.6,2.73,2.32,5.04,3.68-1.29,1.26-1.94,2.15-2.9,3.85-3.41-2.39-5.96-4.88-8.28-8.01-1.26-1.67-2.01-2.97-3-5.05-.89-1.87-1.19-2.73-1.74-4.84-1.23,4.36-2.59,7.26-4.87,10.29-2.18,2.83-4.74,5.22-8.45,7.7-.72-1.5-1.5-2.52-2.8-3.58,2.9-1.67,4.57-2.97,6.85-5.35,2.66-2.76,4.74-6.41,5.83-10.09.68-2.35.99-4.12,1.12-6.89h-4.26Z"/>
            <path class="cls-2" d="M712.47,139.16c2.42-3.03,3.38-4.53,4.33-6.78,1.23-2.83,1.81-5.86,1.81-9.34s-.55-6.24-1.74-9.03c-.99-2.25-1.98-3.78-4.36-6.78h4.81c1.91,2.69,2.73,4.19,3.72,6.72,1.19,3.1,1.74,5.86,1.74,9.1s-.58,6.27-1.77,9.41c-.99,2.49-1.81,3.99-3.72,6.72h-4.81Z"/>
            <path class="cls-2" d="M759.64,107.15l-25.84,32.04h-5.01l25.8-32.04h5.05Z"/>
            <path class="cls-2" d="M283.65,154.93c-.27.61-.34,1.09-.38,2.28-.1,3.85-.48,9.1-.82,11.35-.89,5.9-2.08,7.29-6.17,7.29-1.29,0-2.45-.1-4.23-.38-.07-2.15-.17-2.8-.78-4.36,2.01.55,3.38.78,4.5.78,1.47,0,1.98-.75,2.52-3.72.41-2.35.75-6.99.75-10.91l-7.94.03c-.48,4.26-1.19,6.82-2.73,9.75-1.88,3.61-4.91,6.72-9.2,9.44-1.16-1.81-1.64-2.35-3.07-3.61,4.26-2.25,7.06-4.94,8.86-8.59.92-1.87,1.43-3.54,1.74-5.93.07-.48.14-.82.17-1.06l-5.66.03c-2.08,0-2.56.03-3.68.17l-.03-4.19c1.16.2,2.08.27,3.78.27l5.97-.03c.1-1.3.17-3.27.17-4.26v-.85c0-.44,0-.72-.1-1.33l4.57.1c-.07.44-.1.58-.14,1.06,0,.2-.03.41-.03.65q-.07.72-.14,2.49c-.03.75-.03,1.06-.14,2.15l7.57-.03c1.53,0,1.84-.03,2.69-.31l1.94,1.7Z"/>
            <path class="cls-2" d="M294.07,148.28c-.14.92-.17,1.77-.21,3.44l-.17,19.46c3.54-.68,6.75-1.98,9.31-3.75,3.14-2.15,5.25-4.5,6.95-7.81,1.33,1.77,1.77,2.25,3.24,3.48-2.35,3.61-4.53,5.9-7.6,7.94-3.41,2.28-6.89,3.61-12.41,4.67-.92.17-1.33.31-2.04.58l-2.18-2.62c.24-.92.31-1.53.31-3.51l.14-18.41q0-2.39-.17-3.51l4.84.03Z"/>
            <path class="cls-2" d="M316.21,159.63c1.5.2,2.15.24,5.52.24h18.17c3.38,0,4.02-.03,5.52-.24v4.74c-1.36-.17-1.74-.17-5.56-.17h-18.1c-3.82,0-4.19,0-5.56.17v-4.74Z"/>
            <path class="cls-2" d="M358.06,150.39c-.1.38-.14.41-.17.68l-.07.58-.17.99-.1.82c-1.43,9.78-4.09,16.5-8.66,21.75-1.6-1.53-2.25-2.05-3.89-2.93,2.05-2.04,3.44-4.12,4.88-7.26,1.47-3.17,2.66-7.4,3.2-11.69.2-1.4.31-2.56.31-3.31v-.48l4.67.85ZM367.75,149.54c.03,1.57.65,4.91,1.43,7.84,1.67,6.31,4.06,10.91,7.6,14.73-1.74,1.09-2.45,1.67-3.75,3.14-4.53-5.42-7.7-13.26-9.03-22.43-.2-1.4-.31-1.94-.48-2.45l4.23-.82ZM377.43,151.55c0,2.18-1.77,3.95-3.95,3.95s-3.92-1.77-3.92-3.95,1.77-3.92,3.92-3.92,3.95,1.77,3.95,3.92ZM371.26,151.55c0,1.23.99,2.25,2.22,2.25s2.25-1.02,2.25-2.25-.99-2.22-2.25-2.22-2.22.99-2.22,2.22Z"/>
            <path class="cls-2" d="M379.6,170.98c2.93-.17,6.99-1.16,10.09-2.52,4.26-1.84,7.43-4.47,10.12-8.35,1.5-2.18,2.45-4.06,3.48-6.82,1.33,1.6,1.88,2.11,3.61,3.34-2.9,6.24-6.14,10.26-10.81,13.36-3.48,2.32-7.7,3.99-12.99,5.11-1.36.27-1.47.31-2.25.58l-1.26-4.7ZM382.5,149.81c4.06,2.52,6.17,4.09,8.79,6.58l-2.93,3.72c-2.73-2.9-5.52-5.15-8.69-6.92l2.83-3.37Z"/>
            <path class="cls-2" d="M419.51,178.11c-1.91-2.73-2.76-4.23-3.72-6.72-1.23-3.14-1.81-6.14-1.81-9.41s.54-6.03,1.74-9.1c.99-2.49,1.81-3.99,3.75-6.72h4.77c-2.39,3-3.37,4.53-4.33,6.78-1.19,2.79-1.77,5.69-1.77,9.03s.58,6.51,1.81,9.34c.95,2.25,1.91,3.75,4.33,6.78h-4.77Z"/>
            <path class="cls-2" d="M436.01,147.22c-.41,1.16-.58,2.05-1.23,6.58-.24,1.43-.38,2.59-.44,3.41h.1q.07-.2.2-.75c.34-1.19,1.23-2.86,2.15-4.06,1.88-2.32,3.99-3.48,6.48-3.48,2.32,0,4.36,1.09,5.83,3.07,1.7,2.28,2.45,5.04,2.45,9.07,0,6.58-3.07,11.49-8.79,14.01-1.74.78-4.12,1.47-6.68,1.91-.68-1.94-1.06-2.69-2.01-4.02,3.41-.38,5.39-.89,7.47-1.94,3.95-2.01,5.76-5.25,5.76-10.43,0-4.91-1.64-7.64-4.57-7.64-1.29,0-2.49.58-3.68,1.81-2.66,2.76-4.3,6.95-4.3,11.01v.72l-4.09.07c.03-.2.03-.38.03-.44v-.65c-.03-.99-.1-3.51-.1-4.19,0-2.76.2-6.54.48-8.9l.51-4.23c.07-.58.1-.72.1-1.16l4.33.24Z"/>
            <path class="cls-2" d="M462.38,162.49q.2-.24.65-.75c1.09-1.19,2.86-2.01,4.4-2.01s3.07.78,3.82,1.94c.68,1.09.85,2.32.85,6.24,0,2.45.14,3.14.75,3.65.38.31.99.48,1.81.48,1.81,0,3.27-1.26,4.26-3.65.61-1.53,1.12-3.65,1.3-5.42,1.12,1.16,1.64,1.5,3.75,2.56-1.47,7.06-4.81,10.6-9.95,10.6-2.62,0-4.5-1.02-5.35-2.97-.38-.89-.58-2.11-.58-3.78v-.34c.03-1.23.03-2.05.03-2.39,0-1.06-.07-1.57-.27-2.01-.24-.48-.85-.78-1.53-.78-1.84,0-3.75,1.7-5.42,4.77-1.02,1.94-2.42,5.73-2.86,7.81l-4.4-1.43c.48-.99.78-1.81,1.87-4.77q7.84-21.78,8.08-23.18l4.6,1.16c-.48.92-.65,1.3-1.67,3.92-1.94,4.98-3.44,8.69-4.19,10.29l.07.07Z"/>
            <path class="cls-2" d="M494.38,163.41c-2.15,1.81-3.1,3.24-3.1,4.7,0,2.22,2.49,3.17,8.25,3.17,4.06,0,8.52-.61,10.7-1.47l.38,4.67c-.61.03-.72.03-1.5.14-4.09.61-6.27.78-9.2.78-3.72,0-6.72-.38-8.52-1.12-2.93-1.16-4.36-3.03-4.36-5.69s1.33-4.88,4.4-7.43l2.97,2.25ZM489.2,149.4c2.62.61,5.66.85,10.23.85,4.33,0,6.75-.17,9-.65l.14,3.85c-2.05.89-6.24,3.51-9.1,5.62l-2.97-2.35c2.15-1.36,2.52-1.6,3.38-2.08.34-.2.44-.27.89-.55.27-.14.31-.14.75-.41-1.5.2-2.97.27-5.11.27-1.74,0-4.57-.17-6.24-.41-.41-.03-.65-.07-.78-.07-.07,0-.24-.03-.48-.03l.31-4.06ZM507.19,156.97c1.5,1.6,2.42,2.9,3.58,5.01l-2.39,1.26c-1.12-2.08-2.08-3.44-3.58-5.08l2.39-1.19ZM512.48,161.1c-1.02-1.88-2.15-3.48-3.48-4.94l2.28-1.19c1.53,1.57,2.49,2.86,3.55,4.81l-2.35,1.33Z"/>
            <path class="cls-2" d="M523.41,151.72c-.92,0-1.94.07-3.27.17v-4.09c.99.14,1.7.17,3.2.17h5.42c1.4,0,2.32-.03,3.1-.17-.1.99-.1,1.3-.1,2.15,0,4.84,1.23,9.34,3.65,13.5,1.43,2.39,3.1,4.43,5.45,6.54,1.74,1.6,2.73,2.32,5.04,3.68-1.3,1.26-1.94,2.15-2.9,3.85-3.41-2.39-5.97-4.87-8.28-8.01-1.26-1.67-2.01-2.97-3-5.05-.89-1.87-1.19-2.73-1.74-4.84-1.23,4.36-2.59,7.26-4.87,10.29-2.18,2.83-4.74,5.22-8.45,7.7-.72-1.5-1.5-2.52-2.79-3.58,2.9-1.67,4.57-2.97,6.85-5.35,2.66-2.76,4.74-6.41,5.83-10.09.68-2.35.99-4.12,1.12-6.89h-4.26Z"/>
            <path class="cls-2" d="M546.38,178.11c2.42-3.03,3.38-4.53,4.33-6.78,1.23-2.83,1.81-5.86,1.81-9.34s-.54-6.24-1.74-9.03c-.99-2.25-1.98-3.78-4.36-6.78h4.81c1.91,2.69,2.73,4.19,3.72,6.72,1.19,3.1,1.74,5.86,1.74,9.1s-.58,6.27-1.77,9.41c-.99,2.49-1.81,3.99-3.72,6.72h-4.81Z"/>
          </g>
        </g>
      </g>
    </g>
  </g>
</svg>