<?xml version="1.0" encoding="UTF-8"?>
<svg xmlns="http://www.w3.org/2000/svg" viewBox="0 0 167.6 28.07">
  <defs>
    <style>
      .cls-1, .cls-2 {
        fill: #b28247;
      }

      .cls-3 {
        isolation: isolate;
      }

      .cls-4 {
        fill: #231815;
      }

      .cls-5 {
        fill: #fff;
      }

      .cls-2 {
        mix-blend-mode: multiply;
      }
    </style>
  </defs>
  <g class="cls-3">
    <g id="_レイヤー_2" data-name="レイヤー_2">
      <g id="_テキスト_xFF08_B_xFF09_" data-name="テキスト_xFF08_B_xFF09_">
        <g>
          <rect class="cls-1" width="167.6" height="17.49"/>
          <rect class="cls-2" x="0" width="8.29" height="17.49"/>
          <g>
            <path class="cls-4" d="M11.48,22.31c-.12.11-.15.13-.26.25-.53.55-1.05,1-1.65,1.44v2.99c0,.38,0,.59.04.78h-.98c.04-.2.04-.34.04-.76v-2.46c-.82.49-1.21.67-2.5,1.13-.15-.36-.22-.48-.47-.8,1.39-.38,2.56-.96,3.68-1.82.62-.48,1.1-.97,1.3-1.31l.8.56Z"/>
            <path class="cls-4" d="M17.69,23.3c-.05.13-.07.22-.08.47-.02.79-.1,1.87-.17,2.33-.18,1.21-.43,1.5-1.27,1.5-.27,0-.5-.02-.87-.08-.01-.44-.04-.57-.16-.9.41.11.69.16.92.16.3,0,.41-.15.52-.76.08-.48.15-1.44.15-2.24h-1.63c-.1.88-.25,1.41-.56,2.01-.38.74-1.01,1.38-1.89,1.94-.24-.37-.34-.48-.63-.74.88-.46,1.45-1.02,1.82-1.76.19-.39.29-.73.36-1.22.01-.1.03-.17.04-.22h-1.16c-.43,0-.53.01-.76.04v-.86c.23.04.42.06.77.06h1.23c.02-.27.03-.68.03-.88v-.17c0-.09,0-.15-.02-.27l.94.02c-.01.09-.02.12-.03.22,0,.04,0,.08,0,.13q-.01.15-.03.51c0,.15,0,.22-.03.44h1.55c.31,0,.38-.01.55-.07l.4.35Z"/>
            <path class="cls-4" d="M21.24,25.64c-.32,0-.5,0-.68.04v-.71c.16.02.27.03.54.03h.09v-.61h-.12c-.23,0-.35,0-.55.04v-.59c-.16.2-.24.29-.44.49-.03.57-.05.81-.1,1.15.23.36.5.65.83.9-.18.26-.27.4-.38.69-.29-.3-.45-.5-.62-.76-.22.71-.5,1.23-.96,1.71-.15-.25-.29-.42-.5-.6.4-.41.63-.83.8-1.46.2-.66.27-1.65.27-3.32,0-.6,0-.75-.05-1.02h.81q-.04.23-.04,1.34c0,.15,0,.24,0,.46.19-.28.28-.44.36-.62l.53.41c-.09.12-.22.29-.38.51.13.01.24.02.45.02h.12v-.22c0-.14,0-.22-.03-.33h.7c-.01.09-.02.17-.02.32v.24h1.51v-.23c0-.14,0-.21-.02-.32h.72c-.02.1-.03.19-.03.32v.23h.27c.24,0,.38,0,.58-.04v.73c-.19-.03-.34-.04-.58-.04h-.27v.61h.11c.29,0,.44,0,.64-.04v.73c-.22-.03-.42-.04-.71-.04h-.58v1.44c0,.14.04.16.41.16.18,0,.29-.04.31-.13.04-.12.06-.34.07-.74.2.13.34.19.66.28-.04.64-.11.95-.28,1.1-.13.12-.41.18-.9.18-.78,0-.97-.11-.97-.55v-1.73h-.55c-.04.43-.07.61-.17.88-.25.74-.71,1.18-1.6,1.54-.12-.29-.23-.46-.43-.64.5-.16.77-.32,1.04-.61.28-.3.42-.68.44-1.18h-.25ZM18.38,24.76c.1-.33.13-.48.17-.86.03-.33.05-.59.05-.81v-.18l.59.07c-.01.9-.08,1.46-.22,2.07l-.58-.29ZM22.93,23.1c0,.22,0,.29.02.41h-.71c.01-.11.02-.22.02-.41v-.24h-.81c-.25,0-.5.01-.68.04v-.73c.22.03.38.04.68.04h.81v-.18c0-.2,0-.31-.04-.47h.74c-.03.14-.04.27-.04.48v.17h1.02c.27,0,.47-.01.67-.04v.74c-.2-.02-.42-.04-.65-.04h-1.04v.23ZM23.35,24.99v-.61h-1.51v.61h1.51Z"/>
            <path class="cls-4" d="M25.74,22.66c.2.02.36.03.67.03.53,0,.91-.02,1.44-.08q-.02-.06-.08-.18c-.18-.41-.27-.62-.28-.64l.88-.12c.03.18.1.39.29.85.6-.08,1.41-.26,1.89-.42l.07.74q-.07.01-.24.05c-.47.11-1.25.27-1.46.29.11.26.15.35.27.57.6-.13.93-.2.97-.2.4-.1.48-.13.67-.2l.07.76c-.13.02-.28.05-.44.09-.29.07-.52.12-.69.15q-.17.04-.26.06c.36.6.48.75.94,1.28l-.62.44c-.5-.21-.93-.29-1.61-.29-.53,0-.94.07-1.18.2-.2.11-.3.26-.3.43s.12.33.3.41c.22.1.6.15,1,.15.73,0,1.72-.21,2.16-.46l.12.86q-.13.02-.46.11c-.6.16-1.18.24-1.79.24-.8,0-1.32-.11-1.71-.34-.34-.21-.54-.57-.54-.96s.21-.73.59-.97c.37-.23.93-.35,1.63-.35.43,0,.83.05,1.21.15-.11-.11-.24-.3-.54-.79-.74.11-1.19.14-2.71.19-.12,0-.17,0-.29.02l-.03-.76c.2.03.25.03.72.03.74,0,1.32-.04,1.98-.13-.04-.08-.07-.13-.12-.26-.07-.15-.09-.19-.15-.32-.56.06-1.06.09-1.88.1-.29,0-.33,0-.48.01l-.03-.74Z"/>
            <path class="cls-4" d="M32.77,22.02c.22.03.36.04.69.04.63,0,1.54-.04,2.08-.08.34-.03.51-.06.66-.11l.46.58c-.15.11-.18.13-.41.34-.51.46-1.3,1.09-1.93,1.53.35-.05.86-.1,1.7-.17.44-.04.76-.06.92-.07.25-.03.43-.04.5-.05.11,0,.13,0,.23-.03l.05.82h-.21c-.8,0-1.43.11-1.95.34-.57.26-.95.69-.95,1.06,0,.46.5.71,1.41.71.27,0,.46-.01.66-.06l.04.89c-.08,0-.16,0-.26,0-.05,0-.16,0-.36,0h-.09c-.43,0-.94-.08-1.3-.2-.6-.19-.99-.67-.99-1.23,0-.33.13-.64.38-.91.2-.21.37-.34.75-.53-.3.06-.53.09-.86.13-.32.04-.57.07-.77.1-.28.04-.66.08-1.13.15-.14.02-.19.04-.32.07l-.08-.85s.09,0,.11,0c.14,0,.44-.02.6-.04.04,0,.12-.01.27-.04.17-.01.24-.03.4-.06.62-.37,1.62-1.18,2.15-1.72-.54.08-.79.1-1.95.15-.18,0-.3.02-.45.04l-.04-.83Z"/>
            <path class="cls-4" d="M38.73,27.78c0-.07,0-.12-.03-.27-.13-.83-.19-1.5-.19-2.23,0-.63.04-1.25.13-1.85q.04-.22.19-1.01c.05-.25.08-.45.08-.52v-.02l.95.09c-.28.61-.57,2.43-.56,3.52,0,.17,0,.27,0,.27v.08c0,.08,0,.15,0,.26h0l.04-.07.08-.2c.11-.28.11-.3.19-.48.01-.04.04-.1.08-.22l.58.25c-.41.82-.69,1.68-.69,2.15,0,.05,0,.08.01.18l-.84.06ZM40.32,23.19c.32.08.69.1,1.26.1.23,0,.39,0,.65,0,0-.16,0-.27,0-.33v-.74c0-.17,0-.22-.02-.28h.87c-.04.19-.05.48-.05.95v.33c.5-.06.88-.13,1.15-.24l.03.79c-.06,0-.08,0-.2.04-.28.06-.64.12-.97.15v.16c0,.33.01.53.04.92l.02.36v.29c.49.22.75.38,1.11.64.09.06.13.09.2.13l-.33.84c-.2-.22-.37-.35-.97-.74,0,.05,0,.06,0,.1,0,.15-.02.29-.06.39-.16.41-.65.65-1.33.65-.92,0-1.48-.43-1.48-1.15,0-.67.6-1.15,1.44-1.15.26,0,.45.03.62.09-.01-.24-.03-.74-.05-1.49-.28.01-.44.01-.62.01-.27,0-.54,0-.88-.03-.11,0-.17,0-.21-.01h-.13s-.06,0-.06,0h-.04v-.8ZM41.73,26.13c-.45,0-.73.17-.73.46,0,.27.25.43.64.43.27,0,.47-.08.57-.21.06-.08.09-.19.09-.38,0-.08,0-.19,0-.19-.22-.08-.37-.1-.57-.1ZM43.55,21.52c.21.34.37.68.48,1.09l-.47.17c-.13-.45-.28-.79-.47-1.1l.46-.16ZM44.42,22.53c-.11-.38-.29-.77-.47-1.07l.43-.16c.19.29.34.62.48,1.05l-.44.18Z"/>
            <path class="cls-4" d="M50.96,21.48l-5.31,6.58h-1.03l5.3-6.58h1.04Z"/>
            <path class="cls-4" d="M52.99,21.68c.03.47.24,1.48.46,2.19q.46-.17,1.81-.62c.13-.04.16-.06.27-.1l.3.88c-.61.12-1.53.39-2.31.67-1.02.38-1.53.83-1.53,1.33s.48.73,1.6.73c.88,0,1.74-.1,2.26-.29l.08.96c-.15,0-.19,0-.57.05-.76.08-1.15.11-1.64.11-.97,0-1.58-.12-2.03-.39-.38-.23-.61-.67-.61-1.17,0-.47.22-.92.62-1.25.27-.23.5-.37.95-.6-.17-.57-.29-1.04-.47-1.9-.07-.34-.08-.35-.11-.46l.91-.15Z"/>
            <path class="cls-4" d="M57.14,23.95q.18,0,.81-.12c1-.17,1.61-.24,2.2-.24s1,.09,1.32.29c.44.26.68.73.68,1.28,0,.8-.48,1.53-1.33,2.01-.57.33-1.06.48-2.21.66-.07-.37-.15-.55-.36-.88.81-.04,1.57-.23,2.11-.53.55-.31.86-.75.86-1.23,0-.53-.37-.79-1.1-.79-.79,0-2.19.25-2.77.48l-.2-.93ZM58.23,21.72c.78.26,1.81.41,2.92.41h.2l-.12.86c-1.28-.06-2.24-.18-3.27-.44l.27-.83Z"/>
            <path class="cls-4" d="M64.49,24.9c-.03.1-.04.11-.08.31-.15.57-.41,1.3-.63,1.78-.03.06-.12.22-.27.47-.29-.24-.42-.32-.75-.46.22-.32.35-.57.56-1.11.18-.45.28-.81.36-1.24l.81.26ZM67.3,23.2c-.19.04-.36.11-.59.25-.45.28-.69.58-.69.84,0,.08.03.19.06.25.07.14.1.17.52.62.25.28.39.46.48.67.09.21.14.42.14.62,0,.36-.17.73-.45.96-.25.21-.56.31-.95.31-.5,0-.97-.18-1.47-.55.11-.31.13-.43.2-.85.39.36.83.58,1.2.58.32,0,.55-.2.55-.48,0-.12-.04-.25-.11-.39-.08-.17-.16-.27-.44-.58-.41-.46-.53-.71-.53-1.06,0-.32.13-.63.38-.92.14-.16.22-.22.5-.41q-.08,0-.23-.03c-.42-.04-.79-.14-1.41-.37-.12-.04-.14-.05-.24-.08l.31-.78c.2.12.49.22.93.34.51.14,1.31.26,1.71.26.02,0,.07,0,.14,0l-.02.83ZM68.08,24.5c.35.53.5.8.69,1.23.22.48.33.76.45,1.19l-.83.39c-.07-.39-.21-.81-.45-1.37-.23-.54-.42-.88-.62-1.13l.76-.32Z"/>
            <path class="cls-4" d="M75.12,22.31c-.12.11-.15.13-.26.25-.53.55-1.05,1-1.65,1.44v2.99c0,.38,0,.59.04.78h-.98c.04-.2.04-.34.04-.76v-2.46c-.82.49-1.21.67-2.5,1.13-.15-.36-.22-.48-.47-.8,1.39-.38,2.56-.96,3.68-1.82.62-.48,1.1-.97,1.3-1.31l.8.56Z"/>
            <path class="cls-4" d="M81.33,23.3c-.05.13-.07.22-.08.47-.02.79-.1,1.87-.17,2.33-.18,1.21-.43,1.5-1.27,1.5-.27,0-.5-.02-.87-.08-.01-.44-.04-.57-.16-.9.41.11.69.16.92.16.3,0,.41-.15.52-.76.08-.48.15-1.44.15-2.24h-1.63c-.1.88-.25,1.41-.56,2.01-.38.74-1.01,1.38-1.89,1.94-.24-.37-.34-.48-.63-.74.88-.46,1.45-1.02,1.82-1.76.19-.39.29-.73.36-1.22.01-.1.03-.17.04-.22h-1.16c-.43,0-.53.01-.76.04v-.86c.23.04.42.06.77.06h1.23c.02-.27.03-.68.03-.88v-.17c0-.09,0-.15-.02-.27l.94.02c-.01.09-.02.12-.03.22,0,.04,0,.08,0,.13q-.01.15-.03.51c0,.15,0,.22-.03.44h1.55c.31,0,.38-.01.55-.07l.4.35Z"/>
            <path class="cls-4" d="M87.18,22.16c-.08.13-.11.19-.24.5-.44,1.04-.71,1.58-.99,1.98.59.5.95.84,1.56,1.49l-.67.72c-.36-.48-.78-.91-1.42-1.48-.3.4-.66.79-1.09,1.17-.5.44-.95.76-1.67,1.16-.19-.34-.3-.46-.62-.73.78-.38,1.26-.71,1.81-1.21.34-.3.62-.6.89-.95-.56-.46-1.23-.92-1.86-1.26l.62-.62c.51.3.81.5,1.16.74q.53.38.58.41c.45-.74.9-1.75.99-2.26l.95.33Z"/>
            <path class="cls-4" d="M88.54,26.6c.6-.04,1.44-.24,2.07-.52.88-.38,1.53-.92,2.08-1.72.31-.45.5-.83.71-1.4.27.33.38.43.74.69-.6,1.28-1.26,2.11-2.22,2.75-.71.48-1.58.82-2.67,1.05-.28.06-.3.06-.46.12l-.26-.97ZM89.13,22.25c.83.52,1.27.84,1.81,1.35l-.6.76c-.56-.59-1.13-1.06-1.79-1.42l.58-.69Z"/>
            <path class="cls-4" d="M100.16,22.47q-.08.02-.59.19c-.4.13-.62.18-1.17.29q0,.95-.02,1.18h1.49c.47,0,.59,0,.85-.05v.84c-.26-.03-.39-.04-.84-.04h-1.55c-.08.65-.22,1.12-.47,1.53s-.65.8-1.14,1.11c-.2.13-.33.2-.65.35-.2-.36-.31-.49-.61-.74.5-.18.77-.33,1.09-.59.42-.34.69-.74.8-1.19.03-.12.05-.24.08-.47h-1.73c-.45,0-.58,0-.84.04v-.84c.26.04.38.05.85.05h1.79c.01-.29.01-.57.01-1.06-.57.08-.78.1-1.94.16-.07-.32-.11-.42-.26-.76.22.01.33.01.44.01.94,0,2.13-.16,3-.41.41-.12.61-.2.85-.33l.56.71Z"/>
            <path class="cls-4" d="M106.57,21.48l-5.31,6.58h-1.03l5.3-6.58h1.04Z"/>
            <path class="cls-4" d="M106.97,23.35c.51.29.75.46,1.26.88l-.44.64c-.48-.45-.72-.64-1.26-.96l.43-.57ZM108.2,25.78c-.29.9-.47,1.32-.84,2.02-.05.09-.07.12-.11.21l-.69-.58c.06-.06.15-.18.24-.31.29-.46.51-.98.76-1.79l.64.45ZM107.27,21.62c.52.32.66.42,1.2.9l-.47.61c-.5-.5-.62-.59-1.2-.97l.48-.54ZM112.05,22.78c.3,0,.52-.01.73-.04-.03.25-.04.47-.04.79v3.53c0,.34,0,.55.04.9h-.78v-.37h-2.75v.36h-.79c.03-.21.04-.54.04-.83v-3.63c0-.32,0-.53-.03-.74.18.02.37.03.69.03h1.04v-.53c0-.31-.01-.53-.05-.71h.85c-.04.22-.05.4-.05.74v.5h1.08ZM109.26,23.49v1.27h.96v-1.27h-.96ZM109.26,25.46v1.42h.96v-1.42h-.96ZM110.97,24.76h1.04v-1.27h-1.04v1.27ZM110.97,26.88h1.04v-1.42h-1.04v1.42Z"/>
            <path class="cls-4" d="M117.67,25.83c-.18.29-.41.55-.74.83-.37.31-.6.45-1.17.74-.12-.2-.2-.29-.43-.5.57-.25.71-.32,1.03-.55.22-.17.4-.34.55-.53h-.52c-.27.25-.57.45-.97.64-.11-.19-.2-.32-.34-.47v1.28c0,.27-.06.43-.21.54-.15.11-.34.15-.76.15-.12,0-.16,0-.48-.01-.02-.3-.05-.45-.16-.72.24.02.45.04.63.04.17,0,.22-.04.22-.2v-1.51c-.46.14-.71.22-.76.25l-.1-.76c.17,0,.39-.05.87-.19v-1.33h-.29c-.16,0-.32,0-.51.04v-.76c.18.03.31.04.53.04h.28v-.57c0-.34,0-.52-.04-.71h.83c-.03.2-.04.37-.04.71v.57h.22c.15,0,.27,0,.39-.03v.73c-.16-.02-.22-.02-.38-.02h-.22v1.09q.13-.05.5-.18v-.15c.17.03.33.03.65.03h3c.32,0,.49,0,.69-.04v.71c-.21-.02-.42-.04-.69-.04h-2.13c-.07.12-.1.16-.18.29h2.21c.39,0,.48,0,.62-.02-.04.33-.04.34-.05.57-.08,1.05-.13,1.46-.26,1.76-.13.31-.42.42-1.06.42-.18,0-.27,0-.46-.01-.02-.27-.06-.44-.15-.67-.36.33-.67.55-1.13.78-.17-.22-.31-.36-.47-.49.97-.43,1.63-1.03,1.95-1.74h-.45ZM115.07,25.93c.55-.23.99-.57,1.28-.97h-.29c-.15,0-.37,0-.45.02v.11c-.27.11-.31.13-.53.21v.63ZM116.59,24.05c-.27,0-.48,0-.64.02.02-.21.03-.48.03-.76v-.97c0-.25,0-.41-.03-.6.2.02.34.03.71.03h2.06c.31,0,.47,0,.67-.03-.02.2-.03.32-.03.6v.99c0,.31,0,.43.03.74-.13-.01-.31-.02-.59-.02h-2.21ZM116.69,22.67h1.96v-.31h-1.96v.31ZM116.69,23.49h1.96v-.31h-1.96v.31ZM118.76,25.83c-.24.6-.49.97-.96,1.42.2.03.5.06.68.06.25,0,.32-.07.39-.38.04-.22.09-.61.12-1.09h-.24Z"/>
            <path class="cls-4" d="M126.39,21.48l-5.31,6.58h-1.03l5.3-6.58h1.04Z"/>
            <path class="cls-4" d="M128.82,26.67c0,.29-.02.46-.06.6-.06.25-.31.41-.64.41-.44,0-.97-.2-1.32-.5-.25-.22-.38-.49-.38-.79,0-.33.22-.7.6-1.04.25-.22.56-.4,1.02-.6v-1.08q-.06,0-.29.01c-.1,0-.2,0-.38,0-.11,0-.3,0-.39,0-.09,0-.15,0-.17,0-.03,0-.08,0-.15,0v-.78c.19.04.47.06.84.06.07,0,.15,0,.24,0,.17,0,.2,0,.28,0v-.46c0-.4,0-.58-.04-.81h.88c-.04.22-.04.37-.04.76v.45c.53-.06.99-.15,1.35-.27l.03.78c-.12.02-.26.04-.74.13-.23.04-.37.06-.64.09v.91c.48-.14.92-.2,1.43-.2,1.17,0,2,.71,2,1.71,0,.91-.68,1.6-1.59,1.6-.57,0-.97-.27-1.15-.78-.09-.24-.12-.47-.12-.9.36-.1.48-.15.78-.31-.01.13-.01.2-.01.31,0,.29.03.48.1.62.08.15.25.24.44.24.41,0,.71-.33.71-.78,0-.6-.49-.99-1.24-.99-.42,0-.85.08-1.34.23v1.38ZM128.03,25.55c-.53.28-.83.59-.83.84,0,.12.07.22.23.32.14.1.31.15.45.15.12,0,.15-.06.15-.29v-1.02ZM131.91,24.13c-.35-.55-.86-1.11-1.4-1.51l.66-.44c.61.47,1.02.89,1.39,1.44l-.64.52Z"/>
            <path class="cls-4" d="M135.74,21.79c-.02.06-.04.14-.06.22-.01.09-.02.13-.04.24q-.02.15-.12.67c-.03.15-.03.17-.05.26.2-.01.3-.02.44-.02.46,0,.8.13,1.04.37.24.27.33.6.33,1.24,0,1.21-.2,2.16-.54,2.55-.2.23-.41.31-.78.31-.32,0-.61-.06-1.08-.2,0-.14.01-.24.01-.31,0-.18-.01-.32-.07-.6.38.17.78.27,1.02.27.2,0,.32-.13.42-.48.11-.36.18-1,.18-1.6,0-.64-.16-.83-.71-.83-.14,0-.24,0-.41.02-.21.85-.27,1.06-.43,1.52-.24.7-.43,1.15-.84,1.97q-.04.07-.11.21s-.02.05-.05.12l-.81-.45c.21-.28.49-.78.73-1.32.3-.69.4-.98.68-1.98-.36.04-1.02.16-1.25.22l-.08-.83c.26,0,1.11-.08,1.49-.14.13-.76.18-1.18.18-1.42v-.13l.91.1ZM138.06,22.68c.7.82,1.14,1.65,1.44,2.73l-.8.41c-.13-.6-.29-1.06-.56-1.59-.25-.52-.48-.84-.81-1.2l.72-.35Z"/>
            <path class="cls-4" d="M141.6,23.1c-.11.39-.22,1.04-.32,1.72q-.01.1-.04.2h.01c.41-.38,1.28-.65,2.12-.65,1.19,0,1.97.59,1.97,1.48,0,.51-.27,1.03-.72,1.35-.46.33-1.04.48-1.85.48-.6,0-.99-.05-1.79-.25,0-.43-.02-.57-.11-.9.69.24,1.29.35,1.88.35.99,0,1.67-.41,1.67-1.01,0-.47-.44-.75-1.18-.75-.62,0-1.28.19-1.74.51-.13.09-.17.13-.32.3l-.88-.03c.02-.13.02-.15.06-.42.06-.43.17-1.21.29-2.04.03-.17.04-.25.04-.41l.88.05ZM141.69,21.72c.48.27,1.82.67,2.61.78l-.29.81c-1.2-.27-1.93-.5-2.73-.88l.41-.71Z"/>
            <path class="cls-4" d="M148.52,21.68c.03.47.24,1.48.46,2.19q.46-.17,1.81-.62c.13-.04.16-.06.27-.1l.3.88c-.61.12-1.53.39-2.31.67-1.02.38-1.53.83-1.53,1.33s.48.73,1.6.73c.88,0,1.74-.1,2.26-.29l.08.96c-.15,0-.19,0-.57.05-.76.08-1.15.11-1.64.11-.97,0-1.58-.12-2.03-.39-.38-.23-.61-.67-.61-1.17,0-.47.22-.92.62-1.25.27-.23.5-.37.95-.6-.17-.57-.29-1.04-.47-1.9-.07-.34-.08-.35-.11-.46l.91-.15Z"/>
            <path class="cls-4" d="M152.66,23.95q.18,0,.81-.12c1-.17,1.61-.24,2.2-.24s1,.09,1.32.29c.44.26.68.73.68,1.28,0,.8-.48,1.53-1.33,2.01-.57.33-1.06.48-2.21.66-.07-.37-.15-.55-.36-.88.81-.04,1.57-.23,2.11-.53.55-.31.86-.75.86-1.23,0-.53-.37-.79-1.1-.79-.79,0-2.19.25-2.77.48l-.2-.93ZM153.76,21.72c.78.26,1.81.41,2.92.41h.2l-.12.86c-1.28-.06-2.24-.18-3.27-.44l.27-.83Z"/>
            <path class="cls-4" d="M160.01,24.9c-.03.1-.04.11-.08.31-.15.57-.41,1.3-.63,1.78-.03.06-.12.22-.27.47-.29-.24-.42-.32-.75-.46.22-.32.35-.57.56-1.11.18-.45.28-.81.36-1.24l.81.26ZM162.82,23.2c-.19.04-.36.11-.59.25-.45.28-.69.58-.69.84,0,.08.03.19.06.25.07.14.1.17.52.62.25.28.39.46.48.67.09.21.14.42.14.62,0,.36-.17.73-.45.96-.25.21-.56.31-.95.31-.5,0-.97-.18-1.47-.55.11-.31.13-.43.2-.85.39.36.83.58,1.2.58.32,0,.55-.2.55-.48,0-.12-.04-.25-.11-.39-.08-.17-.16-.27-.44-.58-.41-.46-.53-.71-.53-1.06,0-.32.13-.63.38-.92.14-.16.22-.22.5-.41q-.08,0-.23-.03c-.42-.04-.79-.14-1.41-.37-.12-.04-.14-.05-.24-.08l.31-.78c.2.12.49.22.93.34.51.14,1.31.26,1.71.26.02,0,.07,0,.14,0l-.02.83ZM163.6,24.5c.35.53.5.8.69,1.23.22.48.33.76.45,1.19l-.83.39c-.07-.39-.21-.81-.45-1.37-.23-.54-.42-.88-.62-1.13l.76-.32Z"/>
          </g>
          <g>
            <path class="cls-5" d="M62.43,8.49c.26.3.51.58,1.1,1.07l-.74.83c-.18-.15-.3-.25-.58-.53v3.48h-1.2v-3.28c-.14.14-.27.27-.77.64l-.98-.79c1.39-.96,2.36-2,2.84-3.02h-2.24v-1.04h1.22v-1.79l1.1.05c.24.01.36.04.36.13,0,.08-.08.14-.12.18-.15.14-.17.16-.17.21v1.21h1.02l.44.43c-.39.85-.58,1.16-1.28,2.21ZM63.4,5.38v-.98h5.68v.98h-5.68ZM67.87,13.32v-.32h-3.26v.32h-1.07v-4.25h5.4v4.25h-1.07ZM64.11,8.52v-2.65h4.41v2.65h-4.41ZM65.65,9.9h-1.04v.67h1.04v-.67ZM65.65,11.41h-1.04v.74h1.04v-.74ZM67.46,6.76h-2.29v.88h2.29v-.88ZM67.87,9.9h-1.08v.67h1.08v-.67ZM67.87,11.41h-1.08v.74h1.08v-.74Z"/>
            <path class="cls-5" d="M75.39,8.24v3.68h3.15v1.2h-7.71v-1.2h3.16v-3.68h-3.9v-1.26h3.9v-2.94l1.22.12c.08.01.41.04.41.24,0,.06-.03.12-.11.16-.06.03-.11.06-.11.1v2.33h3.93v1.26h-3.93Z"/>
            <path class="cls-5" d="M80.26,13.11v-1.14h2.91c-.26-.6-.58-1.08-.92-1.44l1.06-.69c.28.34.79,1.03,1.07,1.72l-.66.41h1.45c.46-.68.8-1.29,1.13-2.18h-4.92v-3.63h6.82v3.63h-1.57l.86.49c.05.03.19.11.19.23,0,.11-.15.15-.32.19-.15.34-.47.94-.7,1.27h2.67v1.14h-9.07ZM80.47,5.46v-1.06h8.65v1.06h-8.65ZM87.04,7.27h-4.43v1.42h4.43v-1.42Z"/>
            <path class="cls-5" d="M94.32,5.74l.61.44c.1.08.24.18.21.28h2.51v-.59l.97.05c.17.01.33.02.33.13,0,.03-.02.07-.07.1-.09.06-.09.09-.09.31h1.31v.84h-1.31v.87c0,.38-.41.74-1.42.76l-.44-.98c.11.01.31.03.4.03.21,0,.31-.05.31-.29v-.4h-1.77c.25.11.67.34.93.58l-.41.75c.1,0,.38.02.38.16,0,.05-.03.08-.08.13-.06.08-.08.11-.1.15h2.91v3.23c0,.93-.93,1.02-1.58,1.02l-.32-.91-.34.4c-.41-.19-.74-.39-1.22-.78-.34.36-.7.68-1.25,1.02l-.86-.67c.68-.29,1.4-.72,1.91-1.62l.75.29s.15.06.15.16c0,.07-.04.09-.17.16.44.39,1.02.55,1.38.61l-.15.17c.12.05.23.06.26.06.21,0,.33-.1.33-.48v-1.78h-1.44c.14.16.5.55,1.3.76l-.64.71c-.61-.26-1.15-.67-1.62-1.15-.27.39-.64.81-1.27,1.14l-.69-.71c.39-.16.79-.39,1.02-.75h-1.18v3.36h-1.11v-4.28h2.68c.02-.09.07-.25.1-.51l.79.06c-.21-.17-.56-.45-.98-.64l.38-.7h-.73v-.78c-.09,0-.15.01-.19.08-.04.04-.22.26-.26.3.08.02.17.04.17.13,0,.1-.15.14-.2.16v1.65h-1.06v-.96c-.25.2-.29.24-.39.3l-.59-.54c0,.97.01,1.71-.1,2.7-.17,1.67-.5,2.41-.72,2.95l-1.24-.4c.46-.94.98-2,.98-4.69,0-.41-.02-1.95-.17-3.47h3.64v-.7l1.28.05c.12,0,.33.02.33.15,0,.04-.03.09-.11.15-.1.09-.11.11-.11.14v.21h3.89v.99h-5.84ZM92.44,5.74c.03.44.03.87.04,1.5.51-.32.97-.61,1.63-1.5h-1.67Z"/>
            <path class="cls-5" d="M106.02,6.31l.66.13c.12.02.3.06.3.16,0,.09-.09.12-.24.19v.53h3.63v1.11h-3.63v1.09h2.95v3.86h-1.25v-.28h-3.73v.28h-1.18v-3.86h1.97v-3.21h-2.29v1.69c0,1.21-.11,1.92-.34,3.11-.18.88-.49,1.56-.75,2.14l-1.17-.44c.38-.72,1.03-1.98,1.03-4.58v-3.05h3.23v-1.13l1.41.09c.11.01.24.04.24.16,0,.07-.1.13-.15.16s-.13.08-.13.12v.6h3.94v1.12h-4.49ZM108.44,10.68h-3.73v1.34h3.73v-1.34Z"/>
          </g>
        </g>
      </g>
    </g>
  </g>
</svg>