<svg xmlns="http://www.w3.org/2000/svg" width="1288.73" height="573.738" viewBox="0 0 1288.73 573.738"><g transform="translate(-4761 -7917.002)"><path d="M1275.73,928.74l-309-72L495,852,80,941,0,1192l70,213,332.639,20.738,430.091-54,281-99,144-115,31-176Z" transform="translate(4761 7065)" fill="#b28247"/><path d="M324.043,1118.2q4.57,39.108,7.133,54.625-50.639,9.993-87.842,16.126-39.49,6.513-56.185,7.623-5.1-43.7-6.131-61.354l29.6-3.942a346.664,346.664,0,0,1,5.336,36.633q7.57-1.012,13.278-1.955,7.531-1.242,12.25-2.489l-9.368-59.649q-15.634,3.284-29.1,5.5-19.173,3.164-34.007,4.2l-6.061-58.084,24.8-4.558,8.686,35.612q20.009-3.766,29.6-6.757L216,1027.464l34.237-5.646,8.123,53.524q24.042-4.9,28.725-6.378l-5.009-28.951,25.411-3.721q8.307,31.924,10.758,46.759.754,4.569.977,7.341-36.981,7.5-57.331,10.626l8.584,50.634q18.144-3.7,32.983-6.142l-5.208-23.056Z" transform="translate(4761 7065)"/><path d="M481.952,995.567l3.824,31.724-120.627,17.781a130.523,130.523,0,0,1,2.86,40.089q-2.131,22.629-13,37.78-7.053,9.841-21.331,19.93A190.216,190.216,0,0,0,339.857,1068q-1.055-7.794-4.223-21.343-3.437-15.138-4.451-21.3l64.445-11.565-6.531-28.23,35.227-5.34,1.706,24.571Zm-1.061,63.244,3.572,24.5q-15.713,2.828-39.372,5.789l2.631,17.385,33.473-3.175q6.18,33.216,5.416,57.017-34.161,6.1-55.389,9.6-21,3.462-29.292,4.36l-11.614-57.637q22.371-5.094,30.476-7.135l-11.8-57.37,31.536-4.966,2.818,19.932Zm-28.153,72.4-26.631,4.861,2.184,13.239a110.145,110.145,0,0,0,26.779-2.54Z" transform="translate(4761 7065)"/><path d="M647.034,968.346l3.824,31.723L530.231,1017.85a130.528,130.528,0,0,1,2.86,40.09q-2.132,22.629-13,37.779-7.054,9.842-21.332,19.93a190.2,190.2,0,0,0,6.176-74.872q-1.055-7.792-4.222-21.343-3.437-15.137-4.452-21.3l64.446-11.565-6.532-28.229,35.227-5.341,1.706,24.571Zm-1.06,63.243,3.571,24.5q-15.712,2.826-39.372,5.789l2.631,17.384,33.473-3.175q6.182,33.216,5.416,57.017-34.16,6.1-55.389,9.6-21,3.462-29.291,4.36L555.4,1089.43q22.371-5.1,30.476-7.135l-11.805-57.371,31.536-4.966,2.819,19.932Zm-28.154,72.4-26.63,4.86,2.183,13.239a110.09,110.09,0,0,0,26.779-2.54Z" transform="translate(4761 7065)"/><path d="M751.9,979.89q-4.718,1.251-9.74,2.075-30.588,5.044-43.873-8.709-19.512,23.853-48.576,28.174a249.675,249.675,0,0,0,17.153-22.523q10.754-15.841,13.315-24.469l29.977-4.474q4.469,8.643,18.184,18.572T751.9,979.89m-8.486,46.65,3.157,21.987-75.628,13.409-3.164-17.767L697,1037.945l-1.848-8.37q-8.18,1.584-12.973,2.374a56.769,56.769,0,0,1-6.43.825l-3.765-21.418,20.429-4.072-3.4-14.914,21.227-3.5,1.533,14.986,20.277-3.577,2.023,17.954-19.746,3.959,1.163,9.89Zm.971,76.976q-13.887,2.528-24.156,4.218-20.775,3.424-26.666,3.224l-4.949-41.385,47.211-8.02Zm-20.476-13.27-2.571-8.486-12.439,1.348.365,9.318a92,92,0,0,0,14.645-2.18M841.383,939.58l3.649,23.547q-26.746,5.586-36.676,7.923l.818,10.65,37.965-5.791q3.237,18.227,5.8,33.744,9.786,59.348,10.088,82.506a327.465,327.465,0,0,1-32.45-16.219l13.163-2.64a56.691,56.691,0,0,0-1.694-10.271l-19.173,3.162,5.123,28.227-19.7,2.781q-3.72-28.226-4.776-31.8l-17.5,3.354,6.573,25.645L770.37,1099,753.326,992.786l34.847-6.216-2.258-13.7L752.1,978.217,748.1,955.43l32.488-6.3-4.3-21.8,26.628-3.454,2.244,22.138Zm-47.8,65.559-14.989,2.941,2.527,12.478q2.055-.339,14.266-3.056Zm4.394,32.334-15.6,2.1,1.425,11.488q2.509-.413,15.674-3.054ZM825.8,1000.06l-13.088,3.1,1.73,11.907,12.7-1.157q.079-2.355-1.346-13.846m11.971-82.392a105.017,105.017,0,0,1-5.2,18.208L816.6,934.289q1.087-13.306,1.21-18.253Zm-2.88,126.143-1.882-11.412-12.251,2.488,1.96,10.463a92.772,92.772,0,0,0,12.173-1.539" transform="translate(4761 7065)"/><path d="M912.03,1023.354q-18.09,33.931-27.813,50.3-15.977-21.508-23.351-66.251a478.119,478.119,0,0,1-5.489-58.881l29.059-1.51q-3.858,30.651,2.015,66.255a161.8,161.8,0,0,0,4.983,21.685,184.655,184.655,0,0,0,20.6-11.6m119.505,13.821-14.227,24.619q-16.71-14.592-26.626-19.29a24.848,24.848,0,0,1-6.787,10.029,29.7,29.7,0,0,1-15.644,7.5,28.077,28.077,0,0,1-5.1.372q-13.311.321-22.008-6.922a23.546,23.546,0,0,1-9.062-16.559q-1.539-12.17,5.55-20.375,6.516-7.4,17.7-9.248a37.808,37.808,0,0,1,11.714-.056,266.48,266.48,0,0,0-7.78-31.541q-27.5,3.831-34.957,4.124l-6.943-32.15q18.258-3.009,33.9-6.292l-8.7-25.762,31.158-5.842q3.012,18.264,4.018,30.052l29.521-5.806,6.535,25.417q-13.965,3.477-28.386,8.431,7.514,32.76,7.566,45.878,20.108,6.768,38.56,23.418m-59.4-3.335q.042-2.585-3.813-4.646a16.925,16.925,0,0,0-7.85-2.1,11.407,11.407,0,0,0-6.126,1.947,4.913,4.913,0,0,0-2.291,5.3,7.063,7.063,0,0,0,4,5.083,10.049,10.049,0,0,0,7.737.717q8.331-2.078,8.34-6.3" transform="translate(4761 7065)"/><path d="M746.681,1176.523l-14.936,60.139a225.362,225.362,0,0,0-9.959-24.851q-33.438,3.4-78.561,15.533l-6.636-33.137q80.5-15.147,110.092-17.684m12.561,125.942q-25.876,9.428-45.963,12.736a187.227,187.227,0,0,1-53.283,1.05q-1-20.234-.81-37.614,15.122,7.827,44.567,2.968,28.53-4.7,44.411-16.468Z" transform="translate(4761 7065)"/><path d="M883.133,1160.588l3.338,27.35q-22.908,4.716-50.942,10.979l.475,32.744a45.97,45.97,0,0,1,24.849-8.552q14.413-.734,24.289,7.25t12.817,21.567q4.49,20.13-8.806,34.745-11.926,12.988-32.241,16.336-18.489,3.048-32.319-4.05,47.1-10.107,40.832-36.743a17.108,17.108,0,0,0-8.765-11.919,24.2,24.2,0,0,0-15.208-2.65q-15.978,2.634-31.246,13.828-.024-30.006-1.5-56.024-7.761,1.281-27.808,4.822l-5.2-31.5q11.679-1.687,29.521-4.4l-4.164-33.779,37.886-3.433-.932,32.741Z" transform="translate(4761 7065)"/><path d="M1026.148,1229.146q3.464,21-10.671,34.819-11.734,11.315-31.59,14.587-23.057,3.8-34.3-4.66,24.537-4.75,36.158-16.749,10.4-10.858,6.962-23.186-4.728-17.273-25.267-13.887-14.646,2.184-32.735,16.183L920.9,1149.671l31.877-4.319q4.1,49.033,5.565,59.337,10.587-8.305,25.421-9.349,15.021-1.3,26.458,6.891,12.949,8.888,15.926,26.915M1013.663,1125l-10.693,26.147q-21.928-9.276-39.49-14.824l10.085-25.578q21.627,7.458,40.1,14.255" transform="translate(4761 7065)"/><rect width="868.602" height="407.88" transform="translate(4923.938 7974.79)" fill="none"/><path d="M317.49,1111.648q4.57,39.108,7.133,54.625-50.638,9.993-87.842,16.126-39.491,6.513-56.185,7.623-5.1-43.7-6.131-61.354l29.6-3.942a346.668,346.668,0,0,1,5.336,36.633q7.57-1.013,13.278-1.955,7.532-1.242,12.25-2.489l-9.368-59.649q-15.635,3.283-29.1,5.5-19.173,3.164-34.007,4.2l-6.061-58.084,24.8-4.558,8.686,35.612q20.009-3.766,29.6-6.757l-10.025-52.271,34.237-5.646,8.123,53.524q24.042-4.9,28.725-6.378l-5.009-28.951,25.411-3.721q8.309,31.924,10.758,46.759.754,4.569.977,7.341-36.981,7.5-57.331,10.626l8.584,50.634q18.144-3.7,32.983-6.142L291.7,1115.9Z" transform="translate(4761 7065)" fill="#fff"/><path d="M475.4,989.013l3.824,31.725L358.6,1038.519a130.524,130.524,0,0,1,2.86,40.089q-2.131,22.629-13,37.78-7.053,9.842-21.331,19.93a190.216,190.216,0,0,0,6.176-74.872q-1.054-7.794-4.223-21.343-3.436-15.138-4.451-21.3l64.445-11.565L382.544,979l35.227-5.34,1.706,24.571Zm-1.061,63.245,3.572,24.5q-15.713,2.828-39.372,5.789l2.631,17.385,33.473-3.175q6.18,33.216,5.416,57.017-34.161,6.1-55.389,9.6-21,3.462-29.292,4.36L383.763,1110.1q22.371-5.094,30.476-7.135l-11.805-57.37,31.536-4.966,2.818,19.932Zm-28.153,72.4-26.631,4.861,2.184,13.239a110.144,110.144,0,0,0,26.779-2.54Z" transform="translate(4761 7065)" fill="#fff"/><path d="M640.481,961.792l3.824,31.724L523.678,1011.3a130.53,130.53,0,0,1,2.86,40.09q-2.132,22.629-13,37.779-7.055,9.842-21.332,19.93a190.2,190.2,0,0,0,6.176-74.872q-1.054-7.792-4.223-21.343-3.435-15.137-4.451-21.3l64.446-11.565-6.532-28.229,35.227-5.341,1.706,24.571Zm-1.06,63.244,3.571,24.5q-15.712,2.826-39.372,5.789l2.631,17.384,33.473-3.175q6.181,33.216,5.416,57.017-34.16,6.1-55.389,9.6-21,3.462-29.291,4.36l-11.615-57.636q22.371-5.1,30.476-7.135l-11.8-57.371,31.536-4.966,2.819,19.932Zm-28.154,72.4-26.63,4.86,2.183,13.239a110.09,110.09,0,0,0,26.779-2.54Z" transform="translate(4761 7065)" fill="#fff"/><path d="M745.351,973.338q-4.718,1.251-9.741,2.075-30.586,5.044-43.873-8.709-19.512,23.852-48.576,28.173a249.347,249.347,0,0,0,17.154-22.523q10.754-15.841,13.315-24.469l29.977-4.473q4.469,8.643,18.184,18.572t23.56,11.354m-8.486,46.65,3.156,21.986-75.628,13.41-3.164-17.767,29.219-6.224-1.849-8.37q-8.18,1.582-12.973,2.373a56.84,56.84,0,0,1-6.429.826l-3.765-21.418,20.428-4.073-3.4-14.913,21.228-3.5,1.532,14.985,20.278-3.576,2.022,17.954-19.745,3.959,1.163,9.89Zm.971,76.976q-13.887,2.528-24.156,4.218-20.777,3.424-26.667,3.224l-4.948-41.385L729.276,1055Zm-20.477-13.27-2.57-8.486-12.44,1.348.365,9.318a92,92,0,0,0,14.645-2.18M834.831,933.028l3.648,23.545q-26.746,5.589-36.675,7.925l.818,10.649,37.964-5.791q3.238,18.228,5.8,33.745,9.786,59.348,10.089,82.506a327.6,327.6,0,0,1-32.451-16.219l13.164-2.64a56.67,56.67,0,0,0-1.7-10.271l-19.172,3.162,5.123,28.227-19.7,2.78q-3.722-28.224-4.776-31.8l-17.5,3.353,6.572,25.646-22.218,4.6L746.773,986.234l34.847-6.216-2.258-13.7-33.818,5.343-3.992-22.788,32.489-6.3-4.3-21.8,26.628-3.452,2.245,22.138Zm-47.8,65.558-14.989,2.942,2.528,12.477q2.055-.337,14.266-3.055Zm4.4,32.335-15.6,2.1,1.425,11.487q2.508-.411,15.674-3.053Zm27.826-37.413-13.088,3.1,1.731,11.906,12.7-1.156q.078-2.355-1.347-13.846m11.972-82.393a104.968,104.968,0,0,1-5.2,18.208l-15.971-1.586q1.086-13.308,1.209-18.253Zm-2.88,126.144-1.883-11.412-12.25,2.488,1.96,10.462a92.68,92.68,0,0,0,12.173-1.538" transform="translate(4761 7065)" fill="#fff"/><path d="M905.478,1016.8q-18.09,33.931-27.813,50.3-15.977-21.508-23.351-66.251a478.138,478.138,0,0,1-5.489-58.881l29.059-1.51q-3.858,30.651,2.015,66.254a161.778,161.778,0,0,0,4.983,21.686,184.816,184.816,0,0,0,20.6-11.6m119.505,13.821-14.227,24.619q-16.71-14.592-26.626-19.29a24.848,24.848,0,0,1-6.787,10.029,29.7,29.7,0,0,1-15.644,7.5,28.077,28.077,0,0,1-5.1.372q-13.311.321-22.008-6.922a23.546,23.546,0,0,1-9.062-16.559q-1.539-12.169,5.55-20.375,6.516-7.4,17.7-9.248a37.808,37.808,0,0,1,11.714-.056,266.5,266.5,0,0,0-7.78-31.542q-27.5,3.832-34.957,4.124l-6.943-32.149q18.258-3.011,33.9-6.292l-8.7-25.762,31.158-5.842q3.012,18.264,4.018,30.052l29.521-5.807,6.535,25.416q-13.965,3.48-28.386,8.433,7.514,32.76,7.566,45.878,20.108,6.768,38.56,23.418m-59.4-3.335q.042-2.585-3.813-4.646a16.925,16.925,0,0,0-7.85-2.106,11.416,11.416,0,0,0-6.126,1.948,4.912,4.912,0,0,0-2.291,5.3,7.063,7.063,0,0,0,4,5.084,10.049,10.049,0,0,0,7.737.717q8.331-2.078,8.34-6.3" transform="translate(4761 7065)" fill="#fff"/><path d="M740.128,1169.971l-14.936,60.139a225.361,225.361,0,0,0-9.959-24.851q-33.438,3.4-78.561,15.533l-6.636-33.137q80.5-15.147,110.092-17.684m12.561,125.942q-25.877,9.426-45.963,12.736a187.227,187.227,0,0,1-53.283,1.05q-1-20.234-.81-37.614,15.121,7.827,44.567,2.968,28.53-4.705,44.411-16.468Z" transform="translate(4761 7065)" fill="#fff"/><path d="M876.581,1154.035l3.338,27.35q-22.908,4.716-50.942,10.979l.475,32.745a45.953,45.953,0,0,1,24.849-8.552q14.413-.734,24.289,7.249t12.817,21.567q4.49,20.13-8.806,34.745-11.926,12.988-32.241,16.336-18.489,3.048-32.319-4.05,47.1-10.106,40.832-36.743a17.111,17.111,0,0,0-8.765-11.919,24.2,24.2,0,0,0-15.208-2.65q-15.978,2.634-31.246,13.828-.024-30-1.5-56.023-7.761,1.281-27.808,4.821l-5.2-31.5q11.679-1.689,29.521-4.4l-4.164-33.779,37.886-3.433-.932,32.742Z" transform="translate(4761 7065)" fill="#fff"/><path d="M1019.595,1222.593q3.464,21-10.671,34.819-11.734,11.314-31.59,14.587-23.056,3.8-34.3-4.66,24.537-4.75,36.158-16.749,10.4-10.859,6.962-23.186-4.728-17.273-25.267-13.887-14.646,2.184-32.735,16.183l-13.808-86.582,31.877-4.319q4.1,49.034,5.565,59.337,10.587-8.305,25.421-9.349,15.021-1.3,26.458,6.891,12.949,8.888,15.926,26.915m-12.485-104.15-10.693,26.147q-21.929-9.276-39.49-14.824l10.085-25.578q21.627,7.458,40.1,14.255" transform="translate(4761 7065)" fill="#fff"/></g></svg>