<?xml version="1.0" encoding="UTF-8"?>
<svg xmlns="http://www.w3.org/2000/svg" viewBox="0 0 167.6 27.75">
  <defs>
    <style>
      .cls-1, .cls-2 {
        fill: #b28247;
      }

      .cls-3 {
        isolation: isolate;
      }

      .cls-4 {
        fill: #231815;
      }

      .cls-5 {
        fill: #fff;
      }

      .cls-2 {
        mix-blend-mode: multiply;
      }
    </style>
  </defs>
  <g class="cls-3">
    <g id="_レイヤー_2" data-name="レイヤー_2">
      <g id="_テキスト_xFF08_B_xFF09_" data-name="テキスト_xFF08_B_xFF09_">
        <g>
          <rect class="cls-1" width="167.6" height="17.49"/>
          <rect class="cls-2" y="0" width="8.29" height="17.49"/>
          <g>
            <path class="cls-4" d="M9.2,26.16c-.11.62-.25,1.07-.48,1.57l-.52-.42c.23-.4.34-.71.48-1.35l.52.2ZM10.8,24.64c.61-.17,1.09-.43,1.47-.78h0q-.17.02-1.01.15c-.14.02-.18.04-.29.06l-.13-.56c.06,0,.09,0,.12,0h.07c.2-.32.31-.57.38-.89-.12.01-.17.02-.32.04l-.11-.63c.17.02.36.03.58.03.03,0,.08,0,.13,0,.22-.3.36-.58.44-.9l.72.14c-.3.55-.3.56-.43.74.53-.03.88-.04,1.01-.06-.1-.1-.15-.16-.34-.35l.55-.29c.35.31.66.68.98,1.11l-.57.34q-.19-.29-.25-.36c-.38.05-.7.08-2.32.19l.52.15c-.12.29-.21.46-.37.69.2-.02.34-.04.46-.06-.05-.12-.08-.16-.18-.33l.44-.18c.2.33.25.43.41.82h.1l-.06-.29h.19c.16-.27.27-.52.34-.85l.58.17c-.21.43-.24.49-.35.66.24-.02.31-.03.47-.05-.05-.08-.08-.13-.21-.33l.45-.21c.27.36.43.62.64,1.03l-.51.26c-.06-.15-.08-.2-.13-.31-.48.08-.55.09-.94.13.43.34.99.61,1.6.76-.13.22-.18.31-.31.64-.79-.28-1.38-.66-1.88-1.18-.36.45-.89.79-1.67,1.08-.08-.18-.16-.34-.27-.48v.53c0,.23,0,.36.02.54-.13-.01-.24-.01-.51-.01h-1.15c-.37,0-.41,0-.56.01.02-.21.03-.41.03-.63v-1.65c-.12-.17-.23-.27-.41-.41.42-.5.66-.92.85-1.48.07-.2.11-.39.13-.53l.69.14c-.03.07-.04.1-.06.18-.03.11-.04.12-.08.22h.42c.18,0,.28,0,.37-.03l.25.32c-.05.08-.07.1-.17.32-.13.27-.22.46-.32.63h.11c.16,0,.28,0,.41-.03-.01.18-.02.34-.02.62v1.13ZM9.64,22.91c.14-.22.22-.39.3-.62h-.45c-.12.25-.2.39-.32.62h.47ZM9.18,24.05h.28v-.56h-.28v.56ZM9.18,25.2h.28v-.6h-.28v.6ZM9.67,26.11c.1.44.16.82.22,1.41l-.51.12c-.03-.55-.08-.96-.15-1.44l.45-.09ZM10.25,26.06c.16.49.23.78.31,1.25l-.46.15c-.06-.49-.13-.8-.27-1.29l.42-.1ZM9.98,24.05h.28v-.56h-.28v.56ZM9.98,25.2h.28v-.6h-.28v.6ZM10.78,25.94c.18.4.25.6.38,1.04l-.43.17c-.11-.44-.2-.76-.34-1.07l.39-.14ZM14.78,26.19c-.06.05-.08.06-.14.1-.75.55-1.16.78-1.78,1.02-.47.18-1,.33-1.46.41-.11-.25-.18-.36-.37-.57.88-.13,1.65-.39,2.32-.75.46-.25.69-.42.88-.64l.55.42ZM13.35,24.97q-.08.06-.26.17c-.53.36-.93.53-1.69.75q-.12-.26-.33-.49c.86-.2,1.55-.53,1.8-.85l.48.42ZM14.03,25.58c-.26.19-.45.31-.57.39-.56.36-1.16.6-2.01.81-.12-.26-.17-.34-.36-.54.88-.17,1.51-.41,2.06-.78.19-.13.27-.2.36-.31l.51.42Z"/>
            <path class="cls-4" d="M19.95,24.28c-.09,1.67-.72,2.59-2.23,3.26-.17-.32-.25-.43-.52-.67.55-.21.8-.35,1.09-.59.54-.46.83-1.11.88-2h-1.28c-.26.43-.54.76-.95,1.13-.24-.23-.34-.3-.62-.47.51-.43.88-.9,1.18-1.53.16-.32.25-.6.29-.85l.81.18c-.05.1-.06.11-.11.25-.12.34-.2.48-.27.61t.08,0h2.45c.27,0,.45-.01.61-.04v.76q-.17-.02-.65-.02h-.75Z"/>
            <path class="cls-4" d="M23.43,23.01c.49.27.77.47,1.26.88l-.45.66c-.44-.42-.7-.62-1.26-.96l.45-.58ZM24.64,25.39c-.18.62-.38,1.11-.69,1.7-.13.27-.2.41-.28.53l-.67-.58c.33-.33.71-1.13,1.02-2.09l.62.44ZM23.77,21.3c.53.32.74.48,1.23.92l-.49.64c-.44-.44-.7-.66-1.23-.99l.48-.57ZM27.69,24.31c.08.46.21.84.43,1.24.29.55.68.97,1.28,1.37-.26.28-.34.4-.52.72-.67-.55-1.07-1.04-1.42-1.73-.25-.5-.38-.93-.5-1.6h-.89c-.05.75-.07.91-.14,1.27-.18.9-.43,1.51-.89,2.1-.2-.26-.34-.38-.64-.56.35-.45.53-.78.67-1.3.2-.69.27-1.6.27-3.13,0-.5,0-.8-.04-1.15.22.03.43.03.8.03h2.18c.36,0,.54,0,.76-.03-.03.25-.04.45-.04.76v1.3c0,.34,0,.54.04.75-.22-.02-.38-.03-.7-.03h-.64ZM28.24,23.61v-1.35h-2.14v.37c0,.33,0,.47-.02.98h2.16Z"/>
            <path class="cls-4" d="M32.52,25.55c-.11.15-.17.22-.36.43-.14-.2-.25-.33-.41-.48-.13,1.02-.32,1.62-.69,2.19-.23-.35-.33-.47-.56-.69.21-.36.31-.57.4-.92.14-.55.22-1.33.22-2.33,0-.28-.01-.54-.04-.77.27.03.48.04.8.04h.72c-.07-.26-.11-.34-.24-.6h-.59c-.37,0-.52,0-.71.03v-.76c.19.03.41.04.76.04h1.71v-.07c0-.15-.01-.28-.04-.44h.86c-.03.15-.04.27-.04.44v.07h1.71c.37,0,.59-.01.79-.04v.76c-.2-.02-.38-.03-.75-.03h-.54c-.14.31-.18.39-.29.6h.92c.38,0,.59,0,.79-.04v.71c-.22-.03-.42-.03-.79-.03h-4.33c0,.81-.01,1.1-.06,1.63.2-.2.34-.38.49-.66.16-.29.22-.45.37-.9l.71.16q-.07.18-.15.38h.79c0-.22,0-.33-.03-.45h.8c-.02.15-.03.25-.03.45h1.26c.34,0,.5,0,.67-.04v.74c-.2-.02-.36-.03-.68-.03h-1.25v.55h1.05c.33,0,.46,0,.63-.03v.69c-.2-.02-.32-.03-.63-.03h-1.05v.68h1.58c.28,0,.49-.01.67-.04v.75c-.21-.03-.42-.04-.69-.04h-3.89c-.24,0-.43,0-.67.03v-.74c.17.03.36.04.66.04h1.6v-.68h-.81c-.25,0-.45,0-.64.03v-.61ZM32.88,24.95c-.12.22-.19.35-.32.53.14.01.3.02.6.02h.82v-.55h-1.09ZM34.47,23.01c.12-.23.17-.34.27-.6h-1.57c.11.24.15.35.24.6h1.06Z"/>
            <path class="cls-4" d="M39.67,23.66c.71-.14,1.38-.36,2.12-.69.52-.23.82-.41,1.04-.6l.56.78c-.14.06-.15.07-.33.15-.63.33-1.34.62-2,.83-.51.15-.69.2-1.39.33v.9s0,.01,0,.02v.1c0,.41.03.57.13.66.12.13.52.18,1.2.18.47,0,1.11-.04,1.62-.11.34-.04.49-.08.8-.16l.04.93c-.14,0-.19,0-.69.06-.56.06-1.44.1-1.96.1-.88,0-1.36-.09-1.63-.3-.2-.15-.3-.37-.34-.71-.01-.12-.02-.24-.02-.64v-3.25c0-.36,0-.46-.04-.64h.94c-.03.18-.04.33-.04.65v1.41Z"/>
            <path class="cls-4" d="M50.69,23.74c-.07.13-.11.22-.2.44-.37,1.03-.9,1.81-1.62,2.37-.5.38-.95.62-1.84.95-.15-.35-.24-.47-.54-.81.85-.22,1.41-.48,1.95-.92.52-.43.82-.86,1.13-1.64h-3.41c-.47,0-.64,0-.9.03v-.85c.27.04.42.05.91.05h3.33c.43,0,.57-.01.79-.06l.4.45ZM45.85,21.62c.23.04.38.05.82.05h2.44c.44,0,.59,0,.82-.05v.86c-.22-.03-.35-.04-.8-.04h-2.47c-.46,0-.59,0-.81.04v-.86Z"/>
            <path class="cls-4" d="M56.84,21.84c-.08.13-.11.19-.24.5-.44,1.04-.71,1.58-.99,1.98.59.5.95.84,1.56,1.48l-.67.72c-.36-.48-.78-.91-1.42-1.48-.3.4-.66.79-1.09,1.17-.5.44-.95.76-1.67,1.16-.19-.34-.3-.46-.62-.73.78-.39,1.26-.71,1.81-1.21.34-.3.62-.6.89-.95-.56-.46-1.23-.92-1.86-1.26l.62-.62c.51.3.81.5,1.16.74q.53.38.58.41c.45-.74.9-1.75.99-2.26l.95.33Z"/>
            <path class="cls-4" d="M61.61,25.49c-.4.9-.85,1.32-1.42,1.32-.8,0-1.37-.81-1.37-1.94,0-.77.27-1.49.77-2.04.59-.64,1.42-.98,2.41-.98,1.68,0,2.77,1.02,2.77,2.6,0,1.21-.63,2.18-1.7,2.61-.34.14-.61.21-1.1.29-.12-.37-.2-.53-.43-.82.64-.08,1.06-.2,1.39-.39.61-.34.97-1,.97-1.75,0-.67-.3-1.22-.86-1.55-.22-.13-.4-.18-.71-.21-.13,1.1-.38,2.07-.73,2.86ZM60.58,22.98c-.59.42-.95,1.14-.95,1.89,0,.57.24,1.03.55,1.03.23,0,.47-.29.72-.9.27-.63.5-1.58.58-2.37-.36.04-.62.14-.9.34Z"/>
            <path class="cls-4" d="M66.06,22.84c.24-.02.35-.03.82-.14,1.6-.34,1.97-.4,2.79-.4,1.39,0,2.29.78,2.29,1.97,0,.95-.56,1.76-1.55,2.24-.64.31-1.18.44-2.47.58-.09-.38-.15-.53-.36-.9,1.12-.05,1.71-.15,2.3-.41.5-.22.92-.62,1.06-1.04.05-.14.08-.31.08-.5,0-.39-.2-.72-.53-.91-.22-.13-.52-.19-.9-.19-.73,0-1.63.16-2.76.5-.36.11-.41.12-.56.2l-.2-.99Z"/>
            <path class="cls-4" d="M74.12,21.68c.16.03.34.03.71.03.42,0,1.04-.03,1.3-.06.14-.01.19-.03.28-.08l.55.48c-.06.08-.1.16-.15.29-.04.08-.46,1.37-.53,1.59.55.08,1.02.21,1.55.44.05-.36.07-.64.07-1.3,0-.15,0-.23-.03-.37l.88.03c-.03.15-.04.2-.04.47-.02.62-.06,1.04-.13,1.48.22.11.53.27.75.4.19.11.22.12.32.17l-.32.92c-.2-.18-.61-.45-.97-.65-.2.52-.41.86-.76,1.23-.31.32-.66.58-1.06.79-.29-.36-.36-.43-.64-.63.53-.25.8-.43,1.09-.74.28-.3.51-.68.62-1.04-.5-.24-.91-.37-1.58-.48-.31.92-.49,1.37-.69,1.72-.26.45-.57.67-.96.67-.64,0-1.12-.57-1.12-1.33,0-.64.31-1.19.87-1.53.37-.22.74-.31,1.32-.34.18-.55.27-.82.44-1.46-.36.03-.53.04-1.21.06-.29.01-.41.02-.55.04l-.03-.82ZM74.33,25.01c-.18.19-.27.43-.27.67,0,.29.15.52.34.52.13,0,.24-.13.4-.44.14-.28.31-.71.46-1.17-.47.07-.71.18-.93.42Z"/>
            <path class="cls-4" d="M82.82,23.82c.2-.22.35-.35.85-.73.61-.46,1.05-.66,1.48-.66.59,0,.98.37.98.93,0,.23-.05.53-.18,1.07-.24,1.06-.29,1.35-.29,1.58s.11.35.29.35c.15,0,.34-.14.49-.36.17-.25.32-.55.41-.8.15.37.24.52.47.84-.21.36-.31.5-.49.69-.31.34-.65.5-1.04.5-.23,0-.45-.07-.6-.18-.25-.2-.37-.46-.37-.88s.03-.6.29-1.76c.11-.45.15-.72.15-.88s-.1-.26-.29-.26c-.22,0-.53.13-.87.38-.51.38-1.01.82-1.28,1.14-.01.32-.01.51-.01.71q0,.06,0,.83c0,.88,0,.9.03,1.16h-.9q.04-.29.05-1.11t.01-.94h-.01c-.06.1-.14.2-.5.6-.15.17-.25.29-.32.4l-.41-.83c.16-.11.27-.22.46-.4q.66-.65.79-.8c0-.34,0-.41.02-.69,0-.16,0-.18,0-.36-.74.05-.88.06-1.07.1l-.04-.79c.12.01.19.01.29.01.13,0,.52-.02.85-.04q0-.1.01-.27c0-.2,0-.41,0-.57,0-.18,0-.23-.02-.39h.89c-.02.1-.02.11-.03.27,0,.03,0,.13-.02.27,0,.14-.01.2-.03.62,0,0,.04-.01.08-.03l.26.29c-.07.06-.1.08-.2.21t-.1.13s-.04.06-.08.11v.41s-.02.04-.03.13h0Z"/>
            <path class="cls-4" d="M88.55,22.98c.62.32.87.46,1.4.83l-.44.66c-.5-.39-.78-.57-1.41-.89l.44-.6ZM90.05,25.37c-.42.99-.53,1.22-1.01,2.04-.05.08-.08.13-.13.24l-.69-.62c.1-.08.22-.24.38-.48.27-.42.53-.94.8-1.65l.65.47ZM88.95,21.27c.52.3.83.52,1.31.92l-.48.63c-.44-.41-.79-.67-1.32-.98l.48-.57ZM92.65,26.62c0,.43.01.74.05,1.04h-.9c.04-.31.05-.57.05-1.04v-2.48h-.91c-.33,0-.57.01-.84.04v-.84c.25.03.48.04.85.04h.9v-1.11c0-.4-.01-.69-.05-1.02h.9c-.04.27-.05.59-.05.99v1.13h1.07c.31,0,.6-.01.86-.04v.84c-.28-.03-.56-.04-.86-.04h-1.07v2.48Z"/>
            <path class="cls-4" d="M101.21,21.17l-5.31,6.58h-1.03l5.3-6.58h1.04Z"/>
            <path class="cls-4" d="M107.01,22c-.12.1-.15.13-.26.25-.53.55-1.05,1-1.65,1.44v2.99c0,.39,0,.59.04.78h-.98c.04-.2.04-.34.04-.76v-2.47c-.82.49-1.21.67-2.5,1.13-.15-.36-.22-.48-.47-.8,1.39-.38,2.56-.96,3.68-1.82.62-.48,1.1-.97,1.3-1.31l.8.56Z"/>
            <path class="cls-4" d="M113.92,22.98c-.05.13-.07.22-.08.47-.02.79-.1,1.87-.17,2.33-.18,1.21-.43,1.5-1.27,1.5-.27,0-.5-.02-.87-.08-.01-.44-.04-.57-.16-.9.41.11.69.16.92.16.3,0,.41-.15.52-.76.08-.48.15-1.44.15-2.24h-1.63c-.1.88-.25,1.41-.56,2.01-.38.74-1.01,1.38-1.89,1.94-.24-.37-.34-.48-.63-.74.88-.46,1.45-1.02,1.82-1.77.19-.39.29-.73.36-1.22.01-.1.03-.17.04-.22h-1.16c-.43,0-.53.01-.76.04v-.86c.23.04.42.06.77.06h1.23c.02-.27.03-.68.03-.88v-.18c0-.09,0-.15-.02-.27l.94.02c-.01.09-.02.12-.03.22,0,.04,0,.08,0,.13q-.01.15-.03.51c0,.15,0,.22-.03.44h1.55c.31,0,.38-.01.55-.07l.4.35Z"/>
            <path class="cls-4" d="M116.89,23.66c.71-.14,1.38-.36,2.12-.69.52-.23.82-.41,1.04-.6l.56.78c-.14.06-.15.07-.33.15-.63.33-1.34.62-2,.83-.51.15-.69.2-1.39.33v.9s0,.01,0,.02v.1c0,.41.03.57.13.66.12.13.52.18,1.2.18.47,0,1.11-.04,1.62-.11.34-.04.49-.08.8-.16l.04.93c-.14,0-.19,0-.69.06-.56.06-1.44.1-1.96.1-.88,0-1.36-.09-1.63-.3-.2-.15-.3-.37-.34-.71-.01-.12-.02-.24-.02-.64v-3.25c0-.36,0-.46-.04-.64h.94c-.03.18-.04.33-.04.65v1.41Z"/>
            <path class="cls-4" d="M127.91,23.74c-.07.13-.11.22-.2.44-.37,1.03-.9,1.81-1.62,2.37-.5.38-.95.62-1.84.95-.15-.35-.24-.47-.54-.81.85-.22,1.41-.48,1.95-.92.52-.43.82-.86,1.13-1.64h-3.41c-.47,0-.64,0-.9.03v-.85c.27.04.42.05.91.05h3.33c.43,0,.57-.01.79-.06l.4.45ZM123.07,21.62c.23.04.38.05.82.05h2.44c.44,0,.59,0,.82-.05v.86c-.22-.03-.35-.04-.8-.04h-2.47c-.46,0-.59,0-.81.04v-.86Z"/>
            <path class="cls-4" d="M134.07,21.84c-.08.13-.11.19-.24.5-.44,1.04-.71,1.58-.99,1.98.59.5.95.84,1.56,1.48l-.67.72c-.36-.48-.78-.91-1.42-1.48-.3.4-.66.79-1.09,1.17-.5.44-.95.76-1.67,1.16-.19-.34-.3-.46-.62-.73.78-.39,1.26-.71,1.81-1.21.34-.3.62-.6.89-.95-.56-.46-1.23-.92-1.86-1.26l.62-.62c.51.3.81.5,1.16.74q.53.38.58.41c.45-.74.9-1.75.99-2.26l.95.33Z"/>
            <path class="cls-4" d="M136.13,26.28c.6-.03,1.44-.24,2.07-.52.88-.38,1.53-.92,2.08-1.72.31-.45.5-.83.71-1.4.27.33.38.43.74.69-.6,1.28-1.26,2.11-2.22,2.75-.71.48-1.58.82-2.67,1.05-.28.06-.3.06-.46.12l-.26-.97ZM136.72,21.93c.83.52,1.27.84,1.81,1.35l-.6.76c-.56-.6-1.13-1.06-1.79-1.42l.58-.69Z"/>
            <path class="cls-4" d="M148.45,22.15q-.08.02-.59.19c-.4.13-.62.18-1.17.29q0,.95-.02,1.18h1.49c.47,0,.59,0,.85-.05v.84c-.26-.03-.39-.04-.84-.04h-1.55c-.08.65-.22,1.12-.47,1.53s-.65.8-1.14,1.11c-.2.13-.33.2-.65.35-.2-.36-.31-.49-.61-.74.5-.18.77-.33,1.09-.59.42-.34.69-.74.8-1.19.03-.12.05-.24.08-.47h-1.73c-.45,0-.58,0-.84.04v-.84c.26.04.38.05.85.05h1.79c.01-.29.01-.57.01-1.06-.57.08-.78.1-1.94.16-.07-.31-.11-.42-.26-.76.22.01.33.01.44.01.94,0,2.13-.16,3-.41.41-.12.61-.2.85-.33l.56.71Z"/>
            <path class="cls-4" d="M153.77,24.84q0-.17.02-.77c-.17.29-.34.53-.59.81-.1-.29-.18-.48-.36-.83.52-.51.93-1.17,1.24-1.93.14-.35.24-.69.27-.95l.79.24c-.06.16-.07.2-.14.4-.16.47-.26.71-.49,1.16v3.9c0,.33.01.58.04.85h-.82c.03-.25.04-.48.04-.85v-2.02ZM156.12,24.07v2.45c0,.14.04.18.19.22.17.04.38.06.88.06.79,0,1.09-.03,1.25-.13.08-.05.14-.17.17-.32.02-.13.03-.22.05-.55.31.13.43.16.76.22-.08.8-.18,1.07-.39,1.24-.27.19-.73.25-2.01.25s-1.64-.14-1.64-.7v-2.49c-.06.02-.11.04-.14.04-.2.07-.27.1-.41.16l-.06-.8c.17-.02.37-.07.61-.14v-.83c0-.33,0-.52-.04-.74h.83c-.04.2-.04.39-.04.71v.62l.72-.23v-1.14c0-.28-.01-.46-.04-.7h.81c-.03.22-.04.39-.04.68v.93l1.02-.33c.27-.08.43-.15.57-.21,0,.15,0,.2,0,.38-.01.84-.06,1.81-.12,2.26-.07.53-.25.68-.79.68-.13,0-.21,0-.38-.02-.04-.27-.08-.43-.2-.71.18.04.37.06.48.06.15,0,.18-.05.22-.38.04-.27.06-.74.06-1.3l-.86.28v1.82c0,.29,0,.46.04.7h-.81c.04-.22.04-.4.04-.72v-1.56l-.72.23Z"/>
          </g>
          <g>
            <path class="cls-5" d="M56.46,9.53c-.12.06-.13.09-.15.12-.39.87-.88,1.52-1.42,2.1l-1.09-.73c.85-.78,1.24-1.61,1.52-2.37l1.13.55c.06.03.14.09.14.17,0,.08-.05.13-.13.16ZM59.97,8.33v4.03c0,.72-.42.98-1.44.98h-.49l-.44-1.28c.36.03.61.04.72.04.24,0,.43-.13.43-.38v-3.39h-.59c-.02.78-.08,2.07-.41,2.94-.41,1.07-1.39,1.73-2.47,2.11l-.98-1.07c2.48-.52,2.58-1.95,2.61-3.99h-3v-1.18h3.94v-.97h-3.13v-1.13h3.13v-1.07l1.31.12c.2.02.25.06.25.13,0,.05-.02.09-.05.12-.09.09-.16.16-.16.21v.49h3.1v1.13h-3.1v.97h3.91v1.18h-3.15ZM61.76,12.02c-.37-1.07-.73-1.84-1.23-2.65l1.06-.57c.52.79.93,1.63,1.3,2.49l-1.13.73Z"/>
            <path class="cls-5" d="M68.66,5.52c-.13.5-.31,1.14-1.08,2.42h5.07v5.19h-1.28v-.41h-3.98v.58h-1.27v-3.45c-.52.55-.84.8-1.17,1.03l-1.04-.83c1.63-.97,2.81-2.77,3.33-4.55h-2.93v-1.22h9.08v1.22h-4.73ZM71.37,9.06h-3.98v2.54h3.98v-2.54Z"/>
            <path class="cls-5" d="M77.25,10.02c-.75,1.42-1.59,2.07-2.01,2.39l-1.11-.66c.46-.33,1.4-1.02,2.13-2.36.55-1.01.64-1.75.67-2.11h-2.07v-1.16h3.42c-.03.68-.1,2.15-1.02,3.9ZM82.89,12.42c-.75-.58-2.14-1.64-3.08-3.39v2.96c0,1.18-.6,1.36-1.99,1.37l-.47-1.23c.17.04.45.11.78.11.26,0,.49-.09.49-.37v-7.86l1.12.1c.25.02.36.03.36.16,0,.07-.03.09-.13.18-.11.09-.14.11-.14.15v.82c0,.88.24,1.57.44,2.08.69-.52,1.43-1.36,1.94-2.28l1.07.57c.22.12.31.18.31.27s-.09.1-.11.1c-.21.02-.23.02-.28.06-.7.88-1.48,1.65-2.37,2.33.67,1.07,1.61,1.99,2.96,2.83l-.88,1.04Z"/>
            <path class="cls-5" d="M86.49,13.2v-.97h3.12v-.83h-1.76v-.94h1.76v-.75h-1.46c-.13.23-.27.46-.45.73l-1.04-.5c-.14,1.73-.56,2.67-1.03,3.58l-1.13-.47c.39-.62,1.06-1.72,1.06-4.01,0-.18,0-1-.1-2.21h2.15c-.16-.39-.3-.66-.5-.96h-1.67v-.95h3.48v-.92l1.31.1c.05,0,.26.02.26.14,0,.05-.06.1-.1.12s-.13.1-.13.18v.38h3.49v.95h-1.53c-.15.4-.29.67-.47.96h2.15v.96h-5.88l.85.42c.14.08.18.12.18.16,0,.02,0,.04-.01.04-.02.03-.18.05-.22.07-.03.01-.05.04-.17.29h.95v-.81l1.1.17c.11.02.25.04.25.13,0,.04-.05.08-.09.1-.02.01-.1.06-.1.12v.29h2.59v.94h-2.59v.75h1.92v.94h-1.92v.83h3.22v.97h-7.51ZM86.69,7.79c-.01,1.11-.02,1.54-.03,1.98.57-.48,1.01-1.33,1.2-1.98h-1.16ZM88.48,5.87c.19.3.36.58.51.96h1.43c.09-.14.26-.42.46-.96h-2.4Z"/>
            <path class="cls-5" d="M96.97,8.58c-.41-.33-.99-.73-1.79-.99l.59-1.09c.68.3,1.16.56,1.79,1.09l-.59.99ZM96.83,12.64c-.12.21-.12.25-.12.52,0,.06-.01.12-.11.12-.13,0-.27-.1-.42-.21l-.86-.65c.31-.33.53-.56,1.06-1.45.59-1,.78-1.45.94-1.9l.97.74c-.43.97-.93,1.91-1.45,2.83ZM97.58,6.16c-.8-.69-1.34-.91-1.7-1.04l.68-1.03c.74.36,1.1.59,1.7,1.12l-.68.96ZM99.19,10.56v-3.49c-.19.14-.26.19-.47.33l-.95-.87c.44-.21.9-.41,1.65-1.23.58-.62.76-1,.96-1.4l1.09.26s.29.06.29.18c0,.03-.01.06-.04.09s-.18.1-.2.12c-.01.01-.16.25-.17.27h2.47l.41.4c-.5.6-.85.97-1.15,1.27h1.55v4.07h-5.42ZM99.8,11.39c-.1.47-.4,1.2-.87,2.01l-1.07-.65c.45-.56.7-.99,1.06-2.06l.89.38s.19.08.19.17c0,.09-.14.13-.2.14ZM100.59,5.78c-.28.3-.44.46-.7.71h1.57c.24-.24.42-.45.62-.71h-1.5ZM100.31,13.03c0-.28-.02-1.17-.23-1.97l1.09-.06c.24.76.32,1.54.36,1.97l-1.22.06ZM101.31,7.44h-.96v.6h.96v-.6ZM101.31,8.98h-.96v.64h.96v-.64ZM101.85,12.97c.02-.47-.08-1.26-.28-1.92l1.04-.12c.24.62.39,1.27.44,1.93l-1.21.11ZM103.43,7.44h-.99v.6h.99v-.6ZM103.43,8.98h-.99v.64h.99v-.64ZM104.09,13.32c-.24-.72-.58-1.46-1.08-2.16l1.03-.48c.44.65.83,1.42,1.13,2.14l-1.09.5Z"/>
            <path class="cls-5" d="M111.4,12.27c-.28.8-.95.82-1.36.83l-.38-1.03c.16.03.4.04.56.04.13,0,.22,0,.3-.42.12-.52.17-1.2.18-1.73h-.52c-.13,1.25-.62,2.35-1.35,3.12l-.86-.5v.68h-1.18v-5.89h-.86v-1.16h.86v-2.06l1.12.05c.12.01.28.02.28.12,0,.03-.07.08-.1.1-.08.05-.12.1-.12.15v1.64h.95v1.16h-.95v5.18c.37-.44,1.02-1.25,1.22-2.6h-.73v-.96h.79c.01-.14.02-.23.02-.36s-.01-.23-.02-.3l1.03.06c.16.01.25.02.25.11,0,.03-.04.06-.16.16-.04.04-.05.08-.08.32h1.5c-.02.47-.09,2.38-.4,3.28ZM113.59,13.14l-.39-1.03c.16.01.28.02.39.02.26,0,.33-.02.41-.38.1-.47.16-1.11.17-1.79h-.57c-.1,1.26-.52,2.31-1.4,3.18l-.78-.66c.86-.79,1.12-1.58,1.22-2.52h-.51v-.96h.53c.01-.37,0-.51-.01-.66h.02s-.59-1.13-.59-1.13c.47.03.53.03.6.03.52,0,.66-.22.72-1.21h-1.46c-.15.69-.6,1.51-1.73,2.32l-.87-.78c1.06-.54,1.36-1.22,1.5-1.54h-1.45v-1.04h1.64c.03-.34.03-.54.04-.9l.96.04c.1,0,.33.02.33.13,0,.04-.01.05-.14.15-.08.06-.08.08-.08.24,0,.1,0,.21-.01.34h2.52c-.03,2.65-.51,3.11-1.83,3.37l.75.09s.22.03.22.1c0,.04-.05.09-.1.14,0,.09-.01.26-.01.31h1.54c-.01,3.59-.32,4.09-1.64,4.14Z"/>
            <path class="cls-5" d="M123.58,7.65c-.42,1.54-.97,2.35-1.26,2.79.79.44,1.67.97,2.69,1.91l-.97.85c-.79-.78-1.41-1.23-2.5-1.83-1.27,1.15-2.34,1.59-4.25,1.85l-.65-1.14c1.57-.11,2.48-.32,3.71-1.3-.6-.27-.92-.4-1.4-.56-.04.14-.09.28-.28.58l-1.33-.44c.57-.99,1-1.88,1.33-2.7h-2.41v-1.13h2.87c.34-.91.58-1.58.85-2.51l1.39.33c.06.01.13.1.13.16,0,.03-.02.09-.1.13-.18.09-.19.1-.27.3-.32.91-.47,1.24-.61,1.58h4.91v1.13h-1.85ZM120.06,7.65c-.21.55-.34.86-.67,1.59.54.14.98.27,1.82.64.59-.78.84-1.49,1-2.23h-2.16Z"/>
            <path class="cls-5" d="M129.86,12.97v-1.12h2.36v-1.96h-1.71v-1.11h1.71v-1.63h-.93c-.13.36-.37.99-.7,1.45l-1.23-.41c.17-.18.32-.49.43-.7-.05-.1-.25-.42-.51-.61v6.38h-1.25v-6.87s-.03.03-.1.06c-.02.62-.05,1.34-.28,2.34l-1.13-.17c.1-.38.3-1.16.3-2.62l1.01.15c.14.02.15.03.19.06v-2.17l1.15.05c.25.01.4.04.4.15,0,.1-.08.15-.15.19-.1.06-.15.11-.15.17v1.25l.39-.24c.2.21.45.5.61.74.17-.52.26-.9.39-1.72l1.13.28c.2.05.29.08.29.19,0,.05-.04.11-.12.15-.06.04-.11.08-.15.12-.05.1-.14.52-.17.6h.56v-2.01l1.17.04c.3.01.39.04.39.14s-.07.16-.14.23-.16.14-.16.19v1.41h2.45v1.15h-2.45v1.63h1.91v1.11h-1.91v1.96h2.58v1.12h-6.21Z"/>
            <path class="cls-5" d="M137.16,8.7v-1h1.19c-.18-.57-.41-1.02-.61-1.38l.75-.32h-1.01v-.95h1.73v-1.04l1.43.08c.12.01.17.03.17.12,0,.05-.02.08-.08.11-.15.11-.16.12-.16.16v.58h1.51v.95h-1.15l.85.5c.09.05.12.1.12.14,0,.06-.05.1-.11.12-.15.04-.17.05-.22.16-.16.48-.27.68-.33.79h.98v1h-5.06ZM140.57,13.17v-.27h-1.81v.34h-1.08v-3.95h4.05v3.88h-1.16ZM138.76,5.99c.31.58.48,1.01.62,1.46l-.59.25h1.3c.3-.59.54-1.14.66-1.7h-1.99ZM140.57,10.38h-1.81v1.42h1.81v-1.42ZM144.42,12.36l-.74-1.1v2h-1.11V4.47h3.54l.41.59c-.84,1.72-.94,1.92-1.33,2.74.46.42,1.35,1.23,1.35,2.5,0,.86-.48,2-2.11,2.06ZM144.04,7.87c.19-.47.58-1.49.86-2.39h-1.23v5.62c.18.02.49.03.58.03.73,0,1.12-.5,1.12-.95,0-.9-.99-1.96-1.34-2.32Z"/>
          </g>
        </g>
      </g>
    </g>
  </g>
</svg>