<svg xmlns="http://www.w3.org/2000/svg" xmlns:xlink="http://www.w3.org/1999/xlink" width="1288.73" height="667.814" viewBox="0 0 1288.73 667.814"><defs><clipPath id="a"><rect width="1288.73" height="667.814" fill="none"/></clipPath><clipPath id="c"><rect width="723.815" height="453.496" transform="translate(268.126 152.66)" fill="none"/></clipPath></defs><g clip-path="url(#a)"><path d="M80,183.076l-80,251,70,213,332.639,20.738,430.091-54,281-99,144-115,31-176-13-53-309-72L495,94.076Z" fill="#b28247"/><g clip-path="url(#a)"><path d="M193.2,91.134c3.766-.771,5.564-1.666,7-2.951a2.969,2.969,0,0,1,1.8-.9,4.275,4.275,0,0,1,2.476.492,68,68,0,0,1,11.208,6.235,4.787,4.787,0,0,1,2.448,3.04,4.264,4.264,0,0,1-1.244,3.349,17.773,17.773,0,0,0-3.777,7.061c-6.5,21.432-13.493,37.108-21.431,49.8-10.205,16.205-25.217,33.2-38.325,43.6a4,4,0,0,1-2.212,1.114,5.213,5.213,0,0,1-3.617-1.051,38.86,38.86,0,0,0-14.952-4.422c20.671-16.283,30.671-27.365,42.407-45.169,9.4-14.726,14.47-25.743,20.139-45.841l-35.1,6.836c-9.523,16.693-15.441,26.2-22.619,34.423a4.592,4.592,0,0,1-2.8,2.107,3.539,3.539,0,0,1-2.33-.513,40.048,40.048,0,0,0-15.025-3.961c16.4-18.574,25.387-33.978,32.068-49.753,3.464-8.955,4.906-13.835,5.356-21.1,8.788,1.545,14.735,3.111,18.326,4.913a3.082,3.082,0,0,1,1.866,2.238,2.939,2.939,0,0,1-1.194,2.742c-1.315,1.114-2.069,2.887-3,4.536-1.2,2.742-2.292,5.168-3.609,8.081Z" fill="#fff"/><path d="M249.68,84.364c-1.659-10.056-3.008-15.523-5.112-21.014,6.242-.281,14.111-.68,18.578.08,1.822.148,2.694.9,2.863,1.924a6.222,6.222,0,0,1-.222,2.282c-.856,2.986-.547,6.677.68,14.11l4.854,29.443c1.249,7.579,2.479,13.216,3.466,18.292.36,2.186-.395,3.059-2.727,3.444l-11.66,1.922c-2.041.337-3.035-.247-3.178-2.021-.84-5.1-1.8-13.627-2.832-19.894ZM322.824,100.3c3.557,21.571,2.73,36.529-3.971,49.462-5.58,10.651-16.794,21.633-28.292,28.17a9.312,9.312,0,0,1-2.94,1.233,4.792,4.792,0,0,1-3.787-1.172,47.973,47.973,0,0,0-13.855-6.847c14.8-7.382,25.915-16.252,32.055-27.145,5.335-9.413,6.4-22.014,3.349-40.525L300.84,75.929c-2.067-12.534-3.127-17.151-5.521-23.493,7.092-.572,14.257-.7,19.477.082a2.48,2.48,0,0,1,2.448,2.141,4.679,4.679,0,0,1-.2,2.428c-.807,3.278-.182,7.068,1.307,16.1Z" fill="#fff"/><path d="M367.069,82.226c1.483-.993,2.528-1.016,3.958.4a79.119,79.119,0,0,1,16.092,19.5,9.982,9.982,0,0,1,.943,2.091c.145.875-.366,1.408-1.413,2.329a61.121,61.121,0,0,1-8.583,6.056c-1.92,1.066-2.914.48-3.979-1.439a87.3,87.3,0,0,0-17.571-21.207c4.5-3.587,7.733-5.766,10.553-7.728m28.289-11.852c1.482-.994,2.527-1.016,3.981.541a85.319,85.319,0,0,1,14.732,19.429c1.09,2.066.919,2.845-.809,4.177a61.093,61.093,0,0,1-9.311,6.176c-1.508.847-2.211.215-3.276-1.706a100.532,100.532,0,0,0-16.088-21.3c5.373-3.731,8.461-5.887,10.771-7.316m52.042.551c1.31.682,2.159,1.291,2.3,2.165s-.173,1.676-1.171,2.889c-1.873,2.255-2.413,5.339-3.147,8.155a180.113,180.113,0,0,1-15.615,42.4c-7.6,13.831-14.344,22.877-25.388,33.081a6.4,6.4,0,0,1-3.232,2.18,3.38,3.38,0,0,1-2.5-.635c-4.125-2.315-7.741-3.366-13.4-4.079,15.59-14.4,23.111-23.273,29.98-36.085,5.726-10.674,11.533-26.305,13.885-38.37a53.2,53.2,0,0,0,.8-16c6.435.885,13.426,2.428,17.479,4.3" fill="#fff"/><path d="M548.439,32.556c3.766-.771,5.564-1.666,7-2.95a2.963,2.963,0,0,1,1.8-.9,4.277,4.277,0,0,1,2.475.491,68.045,68.045,0,0,1,11.209,6.236,4.785,4.785,0,0,1,2.448,3.039,4.266,4.266,0,0,1-1.244,3.35,17.77,17.77,0,0,0-3.777,7.06c-6.5,21.433-13.493,37.108-21.432,49.8-10.2,16.2-25.216,33.2-38.324,43.6a4,4,0,0,1-2.213,1.114,5.211,5.211,0,0,1-3.616-1.051,38.878,38.878,0,0,0-14.952-4.422c20.67-16.283,30.671-27.364,42.406-45.169,9.4-14.725,14.471-25.742,20.14-45.841l-35.1,6.837c-9.523,16.693-15.441,26.2-22.62,34.422a4.592,4.592,0,0,1-2.8,2.108,3.55,3.55,0,0,1-2.331-.514,40.037,40.037,0,0,0-15.025-3.96c16.4-18.575,25.388-33.979,32.069-49.754,3.464-8.955,4.9-13.835,5.355-21.094,8.788,1.545,14.735,3.11,18.327,4.912a3.079,3.079,0,0,1,1.865,2.238,2.94,2.94,0,0,1-1.194,2.743c-1.314,1.114-2.069,2.886-2.995,4.535-1.2,2.743-2.291,5.169-3.608,8.081Z" fill="#fff"/><path d="M142.874,58.576l13.985,2.459c10.353,1.82,17.083,3.692,21.82,6.069a15.638,15.638,0,0,1,8.7,11.517q.056.338.1.675l3.38-.635a13.018,13.018,0,0,0,1.288-.311,15.592,15.592,0,0,1,7.8-3.586l1.022-.168,1.5-.037a17.3,17.3,0,0,1,7.262,1.665,79.656,79.656,0,0,1,13.089,7.291,16.968,16.968,0,0,1,7.841,11.478,16.637,16.637,0,0,1-4.044,13.566,6.47,6.47,0,0,0-1.376,2.656c-6.547,21.6-13.8,38.393-22.8,52.775-10.9,17.316-26.543,35.115-40.9,46.575a16.631,16.631,0,0,1-8.332,3.928l-1.024.169-1.6.046a18.169,18.169,0,0,1-9.739-3,26.975,26.975,0,0,0-9.677-2.6l-30.738-3.441,24.3-19.14c18.9-14.889,28.169-24.745,39.664-42.184A134.94,134.94,0,0,0,176.21,122.1l-8.083,1.574c-8.022,13.871-13.845,22.95-20.851,31.046a16.68,16.68,0,0,1-10.621,6.658l-1.024.169-1.5.038a16.363,16.363,0,0,1-8.082-2.174,27.267,27.267,0,0,0-9.314-2.347l-26.7-1.053,17.682-20.027c13.856-15.694,22.8-29.541,29.9-46.3,3.155-8.174,4.043-11.569,4.375-16.931Z" fill="#b28247"/><path d="M305.943,39.277a73.407,73.407,0,0,1,10.743.692A15.036,15.036,0,0,1,329.766,52.6a17.5,17.5,0,0,1-.407,7.649,102.952,102.952,0,0,0,1.514,10.872l4.472,27.118c4.146,25.14,2.583,42.3-5.225,57.365-6.655,12.7-19.4,25.468-33.288,33.364a21.175,21.175,0,0,1-7.165,2.725l-1.017.166-1.7.057a17.62,17.62,0,0,1-10.509-3.607,35.379,35.379,0,0,0-10.348-5.08l-29.639-9.54,27.864-13.9c13.155-6.56,22.125-13.969,26.663-22.02,3.807-6.718,4.4-16.951,1.883-32.23l-4.543-27.547c-2.062-12.505-2.981-16.066-4.872-21.076l-5.955-15.776L294.3,39.787C298.256,39.467,302.235,39.277,305.943,39.277ZM255.906,50.3a58.728,58.728,0,0,1,8.9.542c7.248.829,12.6,5.654,13.727,12.439a18.015,18.015,0,0,1-.341,7.051c-.273,1.327-.187,3.364.8,9.347l4.854,29.446c.9,5.44,1.784,9.847,2.573,13.766l.829,4.168c1.561,9.446-3.859,16.859-13.117,18.387l-12.688,2.092-2.032.091a14.63,14.63,0,0,1-14.765-13.095c-.4-2.467-.822-5.633-1.265-8.957-.479-3.6-.982-7.389-1.508-10.577l-4.711-28.571c-1.486-9.008-2.648-13.859-4.441-18.538l-6.294-16.427L244,50.672C248.341,50.476,252.306,50.3,255.906,50.3Z" fill="#b28247"/><path d="M416.032,51.9l15.618,2.148c5.049.694,14.5,2.314,21.081,5.36,5.678,2.94,8.694,6.762,9.494,11.618.754,4.582-.556,8.96-3.893,13.015a9.24,9.24,0,0,1-.316,1.9l-.35,1.391a193.012,193.012,0,0,1-16.7,45.18c-8.625,15.7-16.186,25.534-27.968,36.419a17.608,17.608,0,0,1-9.782,5.381l-1.024.169-1.519.039a16.026,16.026,0,0,1-8.591-2.5c-2.106-1.142-4.032-1.8-8.413-2.355l-27.058-3.41,20.035-18.5c14.941-13.8,21.344-21.452,27.406-32.759q.363-.676.724-1.378a14.25,14.25,0,0,1-1.964.136,13.946,13.946,0,0,1-4.841-.848,20.091,20.091,0,0,1-2.936,3.165,74.254,74.254,0,0,1-10.482,7.437,16.375,16.375,0,0,1-8.131,2.308c-3.253,0-9.323-1.1-13.427-8.5a73.976,73.976,0,0,0-14.771-17.762l-11.569-9.995L348.6,80.031c4.262-3.4,7.463-5.621,10.236-7.542l.98-.68a16.069,16.069,0,0,1,9.1-2.983,14.715,14.715,0,0,1,4.945.858l4.429-3.076c5.067-3.519,8.093-5.608,10.386-7.027a15.114,15.114,0,0,1,19.932,2.672,80.144,80.144,0,0,1,8.875,10.123c0-1.349-.071-2.869-.219-4.76Z" fill="#b28247"/><path d="M498.118,0,512.1,2.457c10.354,1.82,17.084,3.692,21.82,6.068a15.641,15.641,0,0,1,8.7,11.532q.055.331.1.662l3.38-.635a13.008,13.008,0,0,0,1.289-.312,15.589,15.589,0,0,1,7.794-3.584l1.022-.168,1.5-.037a17.3,17.3,0,0,1,7.256,1.662,79.728,79.728,0,0,1,13.1,7.294,16.96,16.96,0,0,1,7.841,11.476,16.639,16.639,0,0,1-4.044,13.568,6.469,6.469,0,0,0-1.376,2.656c-6.546,21.6-13.8,38.391-22.8,52.775-10.9,17.315-26.541,35.113-40.9,46.574a16.63,16.63,0,0,1-8.336,3.929l-1.022.168-1.6.046a18.168,18.168,0,0,1-9.738-3,26.99,26.99,0,0,0-9.677-2.6l-30.737-3.441,24.3-19.139c18.9-14.892,28.171-24.748,39.663-42.184a134.953,134.953,0,0,0,11.832-22.247L523.372,65.1c-8.021,13.87-13.845,22.949-20.853,31.045A16.68,16.68,0,0,1,491.9,102.8l-1.024.169-1.495.037a16.374,16.374,0,0,1-8.079-2.171,27.251,27.251,0,0,0-9.32-2.35l-26.7-1.052L462.968,77.4c13.857-15.694,22.8-29.542,29.9-46.3,3.154-8.171,4.042-11.566,4.375-16.93Z" fill="#b28247"/><path d="M193.2,91.134c3.766-.771,5.564-1.666,7-2.951a2.969,2.969,0,0,1,1.8-.9,4.275,4.275,0,0,1,2.476.492,68,68,0,0,1,11.208,6.235,4.787,4.787,0,0,1,2.448,3.04,4.264,4.264,0,0,1-1.244,3.349,17.773,17.773,0,0,0-3.777,7.061c-6.5,21.432-13.493,37.108-21.431,49.8-10.205,16.205-25.217,33.2-38.325,43.6a4,4,0,0,1-2.212,1.114,5.213,5.213,0,0,1-3.617-1.051,38.86,38.86,0,0,0-14.952-4.422c20.671-16.283,30.671-27.365,42.407-45.169,9.4-14.726,14.47-25.743,20.139-45.841l-35.1,6.836c-9.523,16.693-15.441,26.2-22.619,34.423a4.592,4.592,0,0,1-2.8,2.107,3.539,3.539,0,0,1-2.33-.513,40.048,40.048,0,0,0-15.025-3.961c16.4-18.574,25.387-33.978,32.068-49.753,3.464-8.955,4.906-13.835,5.356-21.1,8.788,1.545,14.735,3.111,18.326,4.913a3.082,3.082,0,0,1,1.866,2.238,2.939,2.939,0,0,1-1.194,2.742c-1.315,1.114-2.069,2.887-3,4.536-1.2,2.742-2.292,5.168-3.609,8.081Z" fill="#fff"/><path d="M249.68,84.364c-1.659-10.056-3.008-15.523-5.112-21.014,6.242-.281,14.111-.68,18.578.08,1.822.148,2.694.9,2.863,1.924a6.222,6.222,0,0,1-.222,2.282c-.856,2.986-.547,6.677.68,14.11l4.854,29.443c1.249,7.579,2.479,13.216,3.466,18.292.36,2.186-.395,3.059-2.727,3.444l-11.66,1.922c-2.041.337-3.035-.247-3.178-2.021-.84-5.1-1.8-13.627-2.832-19.894ZM322.824,100.3c3.557,21.571,2.73,36.529-3.971,49.462-5.58,10.651-16.794,21.633-28.292,28.17a9.312,9.312,0,0,1-2.94,1.233,4.792,4.792,0,0,1-3.787-1.172,47.973,47.973,0,0,0-13.855-6.847c14.8-7.382,25.915-16.252,32.055-27.145,5.335-9.413,6.4-22.014,3.349-40.525L300.84,75.929c-2.067-12.534-3.127-17.151-5.521-23.493,7.092-.572,14.257-.7,19.477.082a2.48,2.48,0,0,1,2.448,2.141,4.679,4.679,0,0,1-.2,2.428c-.807,3.278-.182,7.068,1.307,16.1Z" fill="#fff"/><path d="M367.069,82.226c1.483-.993,2.528-1.016,3.958.4a79.119,79.119,0,0,1,16.092,19.5,9.982,9.982,0,0,1,.943,2.091c.145.875-.366,1.408-1.413,2.329a61.121,61.121,0,0,1-8.583,6.056c-1.92,1.066-2.914.48-3.979-1.439a87.3,87.3,0,0,0-17.571-21.207c4.5-3.587,7.733-5.766,10.553-7.728m28.289-11.852c1.482-.994,2.527-1.016,3.981.541a85.319,85.319,0,0,1,14.732,19.429c1.09,2.066.919,2.845-.809,4.177a61.093,61.093,0,0,1-9.311,6.176c-1.508.847-2.211.215-3.276-1.706a100.532,100.532,0,0,0-16.088-21.3c5.373-3.731,8.461-5.887,10.771-7.316m52.042.551c1.31.682,2.159,1.291,2.3,2.165s-.173,1.676-1.171,2.889c-1.873,2.255-2.413,5.339-3.147,8.155a180.113,180.113,0,0,1-15.615,42.4c-7.6,13.831-14.344,22.877-25.388,33.081a6.4,6.4,0,0,1-3.232,2.18,3.38,3.38,0,0,1-2.5-.635c-4.125-2.315-7.741-3.366-13.4-4.079,15.59-14.4,23.111-23.273,29.98-36.085,5.726-10.674,11.533-26.305,13.885-38.37a53.2,53.2,0,0,0,.8-16c6.435.885,13.426,2.428,17.479,4.3" fill="#fff"/><path d="M548.439,32.556c3.766-.771,5.564-1.666,7-2.95a2.963,2.963,0,0,1,1.8-.9,4.277,4.277,0,0,1,2.475.491,68.045,68.045,0,0,1,11.209,6.236,4.785,4.785,0,0,1,2.448,3.039,4.266,4.266,0,0,1-1.244,3.35,17.77,17.77,0,0,0-3.777,7.06c-6.5,21.433-13.493,37.108-21.432,49.8-10.2,16.2-25.216,33.2-38.324,43.6a4,4,0,0,1-2.213,1.114,5.211,5.211,0,0,1-3.616-1.051,38.878,38.878,0,0,0-14.952-4.422c20.67-16.283,30.671-27.364,42.406-45.169,9.4-14.725,14.471-25.742,20.14-45.841l-35.1,6.837c-9.523,16.693-15.441,26.2-22.62,34.422a4.592,4.592,0,0,1-2.8,2.108,3.55,3.55,0,0,1-2.331-.514,40.037,40.037,0,0,0-15.025-3.96c16.4-18.575,25.388-33.979,32.069-49.754,3.464-8.955,4.9-13.835,5.355-21.094,8.788,1.545,14.735,3.11,18.327,4.912a3.079,3.079,0,0,1,1.865,2.238,2.94,2.94,0,0,1-1.194,2.743c-1.314,1.114-2.069,2.886-2.995,4.535-1.2,2.743-2.291,5.169-3.608,8.081Z" fill="#fff"/><g opacity="0.75" style="mix-blend-mode:multiply;isolation:isolate"><g clip-path="url(#c)"><path d="M420.767,248.082l5.865,38.605q-31.822,4.5-42.669,5.534,14.05,76.08,17.251,103.1-17.622-8.111-32.128-16.366t-24.536-12.86q11.784-1.438,23.244-3.331L357.174,301.4q-5.57,23.964-20.018,41.121-21.579,25.6-59.492,31.1a153.169,153.169,0,0,0,32.978-40Q321.806,314.745,323.126,303q-25.2,5.158-47.632,10.359l-7.369-38.607q52.3-7.873,78.351-12.419L338.9,225.515l39.622-5.783,2.1,29.458q.434,5.692.475,7.437Z"/><path d="M606.4,244.522l2.263,30.433L452.123,300.767l-5.8-30.6Q550.639,254.221,606.4,244.522"/><path d="M747.386,186.961a136.455,136.455,0,0,1,7.955,28.493q6.633,40.231-9.754,72.989-18.141,35.807-58.263,49.181,21.011-27.508,28.214-58.252,6.546-27.125,1.35-52.567l-93.033,22.1-7.162-40.4q90.135-13.86,130.693-21.551m28.068,3.136a22.245,22.245,0,0,1-9.871-.627q-11.124-3.672-12.975-14.891a16.435,16.435,0,0,1,.991-9.181q4.243-10.713,14.485-12.407a20.207,20.207,0,0,1,9.343.464q11.366,3.638,13.219,14.852a18.9,18.9,0,0,1-2.909,14.254,17.627,17.627,0,0,1-12.283,7.536m3.407-20.349a5.854,5.854,0,0,0-4.7-5.736q-5.808-1.8-8.824,4.211a6.077,6.077,0,0,0-.412,3.573q.884,5.365,5.838,6.552a12.553,12.553,0,0,0,2.479-.159q6.092-1,5.621-8.441"/><path d="M853.214,167.506l-12.046,34.8L801.543,186.8l13.053-30.2q19.815,4.751,38.618,10.914m95.539,8.29q-.031,42.336-27.677,76.7t-76.55,52.2l-22.443-37.376q45.405-14.748,76.566-38.423,27.176-20.507,50.1-53.094"/><path d="M445.143,459.71q11.058,67.058,13.718,125.723a1124.116,1124.116,0,0,1-115.05,20.723l-8.153-31.215q46.731-6.7,87.088-14.11l-8.428-60.223Q373.228,508.135,327.1,520l-9.357-40.033q25.4-5.441,53.2-10.025,39.741-6.554,74.2-10.231"/><path d="M640.047,467.394l2.263,30.433L485.77,523.639l-5.8-30.6q104.314-15.945,160.074-25.644"/><path d="M803.095,425.48l5.137,37.223q-14.391,2.373-25.32,4.425-14.309,2.867-19.67,3.745,5.38,37.188-12.134,63.114-16.293,24.228-48.4,33.026,34.7-47.8,27.38-92.175l-63.928,13.3-7.576-36.82,65.144-10.491q-6.082-30.8-10.4-47.877l41.693-5.373q4.45,33.078,6.744,46.977,15.522-3.059,41.334-9.07"/><path d="M989.678,409.742l2.263,30.433L835.4,465.987l-5.8-30.6q104.314-15.945,160.074-25.644"/></g></g><path d="M413.767,241.082l5.865,38.605q-31.822,4.5-42.669,5.534,14.05,76.08,17.251,103.1-17.622-8.111-32.128-16.366t-24.536-12.86q11.784-1.438,23.244-3.331L350.174,294.4q-5.57,23.964-20.018,41.121-21.579,25.6-59.492,31.1a153.169,153.169,0,0,0,32.978-40Q314.806,307.745,316.126,296q-25.2,5.158-47.632,10.359l-7.369-38.607q52.3-7.873,78.351-12.419L331.9,218.515l39.622-5.783,2.1,29.458q.434,5.692.475,7.437Z" fill="#fff"/><path d="M599.4,237.522l2.263,30.433L445.123,293.767l-5.8-30.6Q543.64,247.221,599.4,237.522" fill="#fff"/><path d="M740.386,179.961a136.455,136.455,0,0,1,7.955,28.493q6.633,40.231-9.754,72.989-18.141,35.807-58.263,49.181,21.011-27.508,28.214-58.252,6.546-27.125,1.35-52.567l-93.033,22.1-7.162-40.4q90.135-13.86,130.693-21.551m28.068,3.136a22.245,22.245,0,0,1-9.871-.627q-11.124-3.672-12.975-14.891a16.435,16.435,0,0,1,.991-9.181q4.243-10.713,14.485-12.407a20.207,20.207,0,0,1,9.343.464q11.366,3.638,13.219,14.852a18.9,18.9,0,0,1-2.909,14.254,17.627,17.627,0,0,1-12.283,7.536m3.407-20.349a5.854,5.854,0,0,0-4.7-5.736q-5.808-1.8-8.824,4.211a6.077,6.077,0,0,0-.412,3.573q.884,5.365,5.838,6.552a12.553,12.553,0,0,0,2.479-.159q6.092-1,5.621-8.441" fill="#fff"/><path d="M846.214,160.506l-12.046,34.8L794.543,179.8l13.053-30.2q19.815,4.751,38.618,10.914m95.539,8.29q-.031,42.336-27.677,76.7t-76.55,52.2l-22.443-37.376q45.405-14.748,76.566-38.423,27.176-20.507,50.1-53.094" fill="#fff"/><path d="M438.143,452.71q11.058,67.058,13.718,125.723a1124.116,1124.116,0,0,1-115.05,20.723l-8.153-31.215q46.731-6.7,87.088-14.11l-8.428-60.223Q366.228,501.135,320.1,513l-9.357-40.033q25.4-5.441,53.2-10.025,39.741-6.554,74.2-10.231" fill="#fff"/><path d="M633.047,460.394l2.263,30.433L478.77,516.639l-5.8-30.6q104.314-15.945,160.074-25.644" fill="#fff"/><path d="M796.095,418.48l5.137,37.223q-14.391,2.373-25.32,4.425-14.309,2.867-19.67,3.745,5.38,37.188-12.134,63.114-16.293,24.228-48.4,33.026,34.7-47.8,27.38-92.175l-63.928,13.3-7.576-36.82,65.144-10.491q-6.082-30.8-10.4-47.877l41.693-5.373q4.45,33.078,6.744,46.977,15.522-3.059,41.334-9.07" fill="#fff"/><path d="M982.678,402.742l2.263,30.433L828.4,458.987l-5.8-30.6q104.314-15.945,160.074-25.644" fill="#fff"/></g></g></svg>