<?xml version="1.0" encoding="UTF-8"?>
<svg xmlns="http://www.w3.org/2000/svg" viewBox="0 0 167.6 28.38">
  <defs>
    <style>
      .cls-1, .cls-2 {
        fill: #b28247;
      }

      .cls-3 {
        isolation: isolate;
      }

      .cls-4 {
        fill: #231815;
      }

      .cls-5 {
        fill: #fff;
      }

      .cls-2 {
        mix-blend-mode: multiply;
      }
    </style>
  </defs>
  <g class="cls-3">
    <g id="_レイヤー_2" data-name="レイヤー_2">
      <g id="_テキスト_xFF08_B_xFF09_" data-name="テキスト_xFF08_B_xFF09_">
        <g>
          <rect class="cls-1" width="167.6" height="18.14"/>
          <rect class="cls-2" x="0" width="8.29" height="18.14"/>
          <g>
            <path class="cls-4" d="M45.39,25.99c-.22.8-.41,1.32-.65,1.86-.08.16-.12.26-.13.29q-.05.09-.08.16l-.68-.57c.32-.38.64-1.14.92-2.17l.63.43ZM44.27,23.66c.59.32.69.4,1.25.83l-.43.65c-.5-.45-.69-.58-1.24-.9l.43-.58ZM44.57,21.91c.51.32.77.53,1.2.92l-.49.61c-.44-.44-.71-.66-1.18-.97l.47-.56ZM47.4,26.93c-.65.69-1.01.95-1.88,1.37-.13-.29-.22-.42-.45-.65.48-.18.69-.29,1-.5.28-.2.43-.34.69-.64l.64.43ZM49.58,25.69c.33,0,.55-.01.74-.04v.76c-.19-.03-.43-.04-.74-.04h-3.48c-.26,0-.46,0-.65.03v-.74c.18.03.34.04.55.04h.13v-2.52c0-.39,0-.59-.03-.77h.1c.65,0,1.57-.11,2.28-.27.43-.09.69-.17.92-.29l.57.65c-.08.03-.39.12-.49.15-.87.24-1.52.34-2.61.41v.66h2.54c.32,0,.57-.01.75-.04v.76c-.27-.03-.4-.03-.75-.03h-.26v1.31h.43ZM48.41,24.39h-1.55v1.31h1.55v-1.31ZM48.57,26.5c.34.32.5.45.8.64.33.2.55.29,1.03.46-.23.29-.31.41-.43.72-.9-.41-1.27-.66-2.02-1.39l.62-.43Z"/>
            <path class="cls-4" d="M52.93,23.52c0,1.29-.03,2-.11,2.67-.12.99-.31,1.59-.69,2.2-.1-.15-.12-.18-.29-.33-.21-.2-.22-.2-.35-.29.27-.41.4-.76.51-1.3.08-.39.13-.85.16-1.3,0-.2.03-1.18.03-1.55,0-.99,0-1.23-.05-1.5.24.03.47.04.83.04h3.53c.35,0,.58-.01.8-.04-.04.36-.06,1.07-.06,1.91,0,1.13.04,1.93.12,2.42.07.4.15.67.24.82.08-.23.13-.5.17-.97.17.25.27.38.46.53-.07.6-.13.88-.24,1.1-.11.23-.25.34-.42.34-.22,0-.41-.18-.59-.55-.2-.42-.33-.97-.41-1.74-.05-.53-.08-1.41-.08-2.25q0-.28,0-.9h-3.56v.69ZM54.35,23.88c-.39.03-.55.04-.99.06-.07-.25-.14-.4-.27-.6h.14c1.06,0,2.3-.17,2.63-.36l.44.61s-.04,0-.09.01c-.03,0-.22.04-.59.11-.17.04-.22.04-.6.09v.53h.62c.27,0,.42,0,.54-.02-.02.15-.02.24-.02.53v1.05c0,.25,0,.37.02.48-.13-.01-.21-.01-.46-.01h-.71v.8c.2-.02.31-.04.62-.08q-.03-.07-.09-.2c-.05-.11-.07-.15-.12-.24l.57-.2c.27.46.44.82.69,1.49l-.66.27c-.07-.25-.11-.38-.17-.53-.68.14-1.24.21-2.3.3-.27.02-.46.04-.56.06l-.13-.75c.06,0,.12,0,.19,0,.25,0,.83-.03,1.3-.06v-.86h-.57c-.17,0-.32,0-.56.04.02-.17.03-.33.03-.55v-1c0-.22,0-.38-.02-.54.13.01.29.02.55.02h.57v-.46ZM53.88,24.92v.88h.47v-.88h-.47ZM55.51,25.79v-.88h-.49v.88h.49Z"/>
            <path class="cls-4" d="M60.53,27.4c-.48,0-.65,0-.86.03v-.9c.26.04.38.05.88.05h3.19v-3.05h-3.07c-.5,0-.64,0-.9.04v-.91c.26.04.39.05.9.05h3.37q.36,0,.61-.01c-.02.19-.02.26-.02.58v3.84c0,.35,0,.55.04.72h-.94v-.43h-3.19Z"/>
            <path class="cls-4" d="M66.51,24.57c.31.04.44.05,1.13.05h3.73c.69,0,.83,0,1.13-.05v.97c-.28-.04-.36-.04-1.14-.04h-3.72c-.79,0-.86,0-1.14.04v-.97Z"/>
            <path class="cls-4" d="M73.61,26.9c.6-.04,1.44-.24,2.07-.52.88-.38,1.53-.92,2.08-1.72.31-.45.5-.83.71-1.4.27.33.38.43.74.69-.6,1.28-1.26,2.11-2.22,2.75-.71.48-1.58.82-2.67,1.05-.28.06-.3.06-.46.12l-.26-.97ZM74.21,22.55c.83.52,1.27.84,1.81,1.35l-.6.76c-.56-.59-1.13-1.06-1.79-1.42l.58-.69Z"/>
            <path class="cls-4" d="M83.32,26.11c-.4.9-.85,1.32-1.42,1.32-.8,0-1.37-.81-1.37-1.94,0-.77.27-1.49.77-2.04.59-.64,1.42-.98,2.41-.98,1.68,0,2.77,1.02,2.77,2.6,0,1.21-.63,2.18-1.7,2.61-.34.14-.61.21-1.1.29-.12-.37-.2-.53-.43-.82.64-.08,1.06-.2,1.39-.38.61-.34.97-1,.97-1.75,0-.67-.3-1.22-.86-1.55-.22-.13-.4-.18-.71-.21-.13,1.1-.38,2.07-.73,2.86ZM82.29,23.6c-.59.42-.95,1.14-.95,1.89,0,.57.24,1.03.55,1.03.23,0,.47-.29.72-.9.27-.63.5-1.58.58-2.37-.36.04-.62.14-.9.34Z"/>
            <path class="cls-4" d="M88.56,25.51v-3.71h2.1v.76h-1.26v2.94h-.83Z"/>
            <path class="cls-4" d="M93.96,22.8c-.06-.34-.09-.46-.17-.66l.92-.15c0,.18.04.38.08.66l.11.61,1.48-.23c.34-.06.49-.09.67-.15l.15.84q-.19.01-.67.09l-1.48.23.21,1.15,1.64-.26c.29-.05.54-.11.73-.16l.15.84c-.15,0-.17,0-.32.04-.04,0-.08,0-.11.01-.05,0-.14.02-.28.04l-1.67.27.25,1.36c.08.46.09.48.17.72l-.94.17c0-.21-.04-.41-.09-.74l-.25-1.38-1.73.27c-.34.06-.46.08-.71.15l-.14-.86c.24,0,.44-.02.74-.07l1.7-.27-.21-1.15-1.3.2c-.32.06-.58.11-.77.16l-.14-.86c.25,0,.48-.04.77-.08l1.3-.2-.11-.59Z"/>
            <path class="cls-4" d="M99.47,26.04c1.7.22,3.02.54,4.65,1.11l-.3.88c-.73-.32-1.37-.53-2.48-.78-.86-.2-1.44-.31-2.2-.41l.33-.8ZM100.03,24.07c1.12.14,2.24.39,3.65.81l-.27.86c-.55-.22-1.05-.36-1.93-.56-.6-.14-1.05-.22-1.77-.31l.32-.81ZM100.13,22.14c1.35.16,2.23.34,3.79.76l-.28.86c-1.16-.38-2.59-.69-3.82-.81l.31-.81Z"/>
            <path class="cls-4" d="M108.42,22.09c-.02.06-.04.14-.06.22-.01.09-.02.13-.04.24q-.02.15-.12.67c-.03.15-.03.17-.05.26.2-.01.3-.02.44-.02.46,0,.8.13,1.04.37.24.27.33.6.33,1.24,0,1.21-.2,2.16-.54,2.55-.2.23-.41.32-.78.32-.32,0-.61-.06-1.08-.2,0-.14.01-.24.01-.31,0-.18-.01-.32-.07-.6.38.17.78.27,1.02.27.2,0,.31-.13.42-.48.11-.36.18-1,.18-1.6,0-.64-.16-.83-.71-.83-.14,0-.24,0-.41.02-.21.85-.27,1.06-.43,1.52-.24.7-.43,1.15-.84,1.97q-.04.07-.11.21s-.02.05-.05.12l-.81-.45c.21-.28.49-.78.73-1.32.3-.69.4-.98.68-1.98-.36.04-1.02.16-1.25.22l-.09-.83c.26,0,1.11-.08,1.49-.14.13-.76.18-1.18.18-1.42v-.13l.91.1ZM110.74,22.98c.7.82,1.14,1.65,1.44,2.73l-.8.41c-.13-.6-.29-1.06-.56-1.59-.25-.52-.48-.84-.81-1.2l.72-.35Z"/>
            <path class="cls-4" d="M114.97,23.4c-.11.39-.22,1.04-.32,1.72q-.01.1-.04.2h.01c.41-.38,1.28-.65,2.12-.65,1.19,0,1.97.59,1.97,1.48,0,.51-.27,1.03-.72,1.35-.46.33-1.04.48-1.85.48-.6,0-.99-.05-1.79-.25,0-.43-.02-.57-.11-.9.69.24,1.29.35,1.88.35.99,0,1.67-.41,1.67-1.01,0-.47-.44-.75-1.18-.75-.62,0-1.28.19-1.74.51-.13.09-.17.13-.32.3l-.88-.03c.02-.13.02-.15.06-.42.06-.43.17-1.21.29-2.04.03-.17.04-.25.04-.41l.88.05ZM115.06,22.03c.48.27,1.82.67,2.61.78l-.29.8c-1.2-.27-1.93-.5-2.73-.88l.41-.71Z"/>
            <path class="cls-4" d="M122.43,24.65v3.71h-2.09v-.76h1.26v-2.94h.83Z"/>
          </g>
          <g>
            <path class="cls-5" d="M20.86,13.98c-.81-.26-1.58-.59-2.54-1.51l-.11.57c-.78.27-2.06.62-2.16.65-.1.03-.65.14-.66.14-.04,0-.17.16-.21.16-.07,0-.09-.11-.1-.18l-.16-.87c.23-.02.37-.04.84-.11v-1.51h-.8c-.17,1.31-.42,1.9-.7,2.45l-.97-.31c.32-.62.76-1.49.76-3.61,0-.21,0-.44-.03-1.04h7.43v.62h-6.44c0,.19.02.34.02.61,0,.3,0,.5-.02.68h6.46v.61h-.98l.29.25c.06.05.13.11.13.17,0,.07-.05.07-.15.07q-.09,0-.19.12c-.2.22-.43.41-.67.6.56.29.96.45,1.56.57l-.6.89ZM14.37,8.46v-2.35h1.76v-.53l.85.05c.07,0,.18,0,.18.1,0,.03-.12.14-.12.18v.2h.96v-.52l.88.06c.1,0,.18.02.18.09,0,.04-.14.18-.14.22v.16h1.88v2.35h-6.42ZM16.13,6.63h-.91v.36h.91v-.36ZM16.13,7.49h-.91v.38h.91v-.38ZM15.38,10.4v-.62h5.44v.62h-5.44ZM17.48,11.32h-.72v1.32c.4-.09.91-.21,1.37-.37-.27-.3-.45-.55-.65-.95ZM18,6.63h-.96v.36h.96v-.36ZM18,7.49h-.96v.38h.96v-.38ZM18.53,11.32c.2.29.36.47.66.71.22-.19.4-.46.5-.71h-1.16ZM19.87,6.63h-.96v.36h.96v-.36ZM19.87,7.49h-.96v.38h.96v-.38Z"/>
            <path class="cls-5" d="M23.99,13.73v-.86h2.76v-.73h-1.55v-.83h1.55v-.67h-1.29c-.11.2-.24.41-.4.65l-.92-.44c-.12,1.53-.5,2.36-.91,3.16l-1-.42c.34-.55.93-1.52.93-3.54,0-.16,0-.88-.09-1.95h1.9c-.14-.34-.27-.58-.44-.85h-1.48v-.84h3.08v-.81l1.16.09s.23.02.23.12c0,.05-.06.09-.09.1-.03.02-.11.09-.11.16v.33h3.08v.84h-1.35c-.13.35-.26.59-.42.85h1.9v.85h-5.2l.75.37c.12.07.16.1.16.14,0,.02,0,.04,0,.04-.02.03-.16.05-.19.06-.03,0-.05.04-.15.26h.84v-.71l.97.15c.1.02.22.04.22.11,0,.04-.05.07-.08.09-.02,0-.09.06-.09.11v.26h2.29v.83h-2.29v.67h1.7v.83h-1.7v.73h2.85v.86h-6.64ZM24.17,8.95c0,.98-.02,1.36-.03,1.75.5-.43.89-1.17,1.06-1.75h-1.03ZM25.75,7.25c.17.27.31.51.45.85h1.27c.08-.12.23-.37.41-.85h-2.12Z"/>
            <path class="cls-5" d="M39.45,12.27c-.22.94-.56,1.39-1.9,1.4l-.49-1.16c.32.03.67.04.74.04.42,0,.56-.16.71-.91.21-1.01.2-1.89.18-3.52h-.06c-.16.94-.62,3.66-3.26,5.66l-.89-.65c.45-.32,1.3-.96,2.09-2.19.83-1.28.99-2.29,1.08-2.82h-.36c-.51,1.73-1.17,2.76-2.04,3.67l-.82-.52c.38-.37.79-.76,1.29-1.65.39-.7.48-1.06.57-1.49h-.24c-.3.62-.49.86-.63,1.03l-.89-.46c.19-.22.29-.36.4-.57h-.56v1.47c.23-.08.44-.15.77-.29l-.02.97c-.25.11-.34.15-.75.3v3.21h-1.03v-2.84c-.29.11-.69.27-.74.28-.08.02-.15.06-.25.1-.07.09-.16.22-.21.22-.07,0-.08-.06-.08-.14l-.18-1.13c.53-.12.86-.2,1.47-.38v-1.75h-.56c-.11.47-.16.67-.25.95l-.94-.29c.22-.59.43-1.3.5-2.54l1.03.14c.06,0,.11.05.11.1,0,.02,0,.06-.06.1-.12.1-.13.1-.15.14,0,.02-.06.39-.07.45h.38v-1.48l1.1.08s.11.02.11.08-.05.09-.08.1c-.05.02-.11.06-.11.11v1.11h.79v.5c.21-.47.42-.98.61-1.94l1.13.16s.09.04.09.08c0,.05-.06.1-.11.12-.11.08-.12.09-.16.21-.09.33-.13.5-.29.93h3.3c0,1.5,0,3.83-.29,5.06Z"/>
            <path class="cls-5" d="M45.46,7.2v.43h2.44v4.44h-4.9v-4.44h1.42v-.43h-3.55v-.9h3.55v-.71l.97.1c.11,0,.27.02.27.15,0,.02,0,.06-.05.09-.02.02-.12.1-.14.12v.25h3.54v.9h-3.54ZM42.33,13.38v.49h-1.06v-5.96l.91.1c.1,0,.36.06.36.15,0,.04-.03.06-.08.09-.11.08-.14.1-.14.14v4.1h6.58v.89h-6.58ZM46.81,8.48h-2.73v.39h2.73v-.39ZM46.81,9.63h-2.73v.4h2.73v-.4ZM46.81,10.78h-2.73v.44h2.73v-.44Z"/>
            <path class="cls-5" d="M53.64,10.56c-.12.06-.13.1-.14.16-.28,1.69-.82,2.46-2.68,3.15l-.79-.88c1.78-.55,2.39-1.21,2.42-2.82l1.17.17c.08,0,.13.05.13.1s-.07.09-.1.1ZM54.58,7.35v.46h2.47v.83h-6.09v-.83h2.48v-.46h-3.31v-.9h3.31v-.75l1.2.11c.07,0,.12.05.12.1,0,.03-.04.07-.06.09-.09.09-.12.12-.12.17v.28h3.36v.9h-3.36ZM56.77,10.89v-1h-5.52v1h-1.06v-1.88h7.64v1.88h-1.06ZM56.81,13.72h-1.63c-.47,0-.87-.23-.87-.74v-2.81l1.08.11c.07,0,.12.05.12.11s-.03.09-.11.13c-.02.02-.06.06-.06.09v1.71c0,.29.08.38.38.38h.72c.3,0,.46-.11.53-.98l1.04.35c-.29,1.5-.67,1.65-1.22,1.65Z"/>
            <path class="cls-5" d="M60.58,10.48c-.2,1.82-.48,2.55-.78,3.21l-1.12-.18c.78-1.31.93-3.35.93-4.32v-1.76h3.28v3.06h-2.3ZM67.05,6.75c-.06,0-.29-.08-.35-.08-.07,0-.5.11-.6.13-.11.02-1,.19-1.71.28.02.58.03,1.05.03,1.21h2.7v.98h-1.05v4.52h-1.06v-4.52h-.61c-.1,1.51-.18,3.02-1.91,4.57l-.99-.63c1.24-1.03,1.84-1.89,1.84-4.61,0-.68-.04-1.16-.08-1.76h-4.09v-.96h4.12v.28c.14.02.28.03.42.03.55,0,1.72-.24,2.78-.63l.6.99s.04.11.04.12c0,.07-.03.08-.08.08ZM61.93,8.32h-1.25c0,.67,0,.75-.02,1.26h1.27v-1.26Z"/>
            <path class="cls-5" d="M72.25,5.25v9.07h-1.1V4.14h3.81v1.11h-2.71Z"/>
            <path class="cls-5" d="M79.76,13.94l-.79-.99c.44-.05,1.22-.17,1.84-.76.39-.37.62-.89.62-1.49,0-1.03-.78-1.36-1.08-1.49-.54,1.13-.95,1.83-1.76,2.71.07.26.1.3.21.65l-1.04.56c-.07-.16-.09-.19-.15-.4-.29.18-.88.54-1.54.54s-1.19-.53-1.19-1.4c0-.73.4-2.24,2.35-3.32.02-.42.05-.69.11-1.2-.68.03-.96.03-1.54.03l-.36-1.07c.39.04,1.26.11,2.05.08.13-.76.23-1.16.4-1.82l1.12.3c.27.08.27.13.27.16,0,.1-.13.13-.25.16-.12.27-.21.58-.33,1.06,1.41-.24,2.01-.46,2.64-.72v1.15c-1.03.3-1.71.44-2.84.57-.06.4-.07.45-.13.88.46-.09.7-.1,1.17-.09.05-.22.09-.36.13-.56l1.24.27-.17.5c1.21.41,1.94,1.21,1.94,2.48,0,2.37-2.19,2.98-2.93,3.2ZM77.23,9.72c-.97.81-1.24,1.49-1.24,1.93s.21.51.4.51c.42,0,.76-.28,1-.46-.11-.76-.14-1.22-.16-1.97ZM78.3,9.1c-.02.81.02,1.21.05,1.55.42-.64.64-1.07.88-1.67-.38-.01-.58.01-.94.12Z"/>
            <path class="cls-5" d="M86.75,13.58c-.76,0-1.28-.28-1.58-.55-.45-.42-.68-1.1-.68-3.72,0-.61.01-3.6,0-4.27l1.38.16s.33.03.33.15c0,.1-.18.23-.25.29-.12.13-.26,2.88-.26,4.22,0,1.55.11,1.84.26,2.03.26.33.64.39.87.39.86,0,2.17-.64,3.04-2.48l1.02.85c-.79,1.16-2.07,2.92-4.14,2.92ZM89.59,7.66c-.31-.36-.6-.62-.99-.93l.45-.51c.45.36.69.57,1,.93l-.46.51ZM90.57,6.71c-.27-.3-.52-.55-.99-.93l.45-.51c.4.31.67.55,1,.93l-.46.51Z"/>
            <path class="cls-5" d="M94.34,10.46c-.67,0-1.21-.54-1.21-1.21s.55-1.21,1.21-1.21,1.21.54,1.21,1.21-.54,1.21-1.21,1.21Z"/>
            <path class="cls-5" d="M106.79,8c-.17.03-.21.04-.25.08l-.63.7c-.12.14-1.07,1.09-2.6,1.82l-.71-.79v.03h-1.67c.2.27.62.86,1.5,1.46l-.7,1.02c-.4-.3-.65-.54-.94-.88v2.46h-1.21v-2.11c-.26.47-.52.84-.93,1.27l-1.08-.68c.73-.73,1.38-1.56,1.71-2.54h-1.46v-1.13h1.76v-.73l1.13.09c.17.01.26.04.26.13,0,.05-.18.24-.18.29v.23h1.81v.85c.55-.19,1.14-.41,1.99-1.16.63-.55.92-.98,1.18-1.38l1.04.66s.17.12.17.19c0,.1-.06.11-.19.13ZM98.41,8.32c-.13-.66-.48-1.29-.68-1.62l.98-.38c.35.6.57,1.25.69,1.65l-.99.34ZM102.32,5.71c-.08,0-.98.18-1.15.21-.95.18-1.93.24-2.9.25l-.53-1.11c.36.05.67.1,1.14.1.64,0,1.52-.06,2.35-.28.3-.08.45-.15.69-.27l.59.74c.08.1.12.21.12.25,0,.11-.03.11-.31.11ZM102.7,6.67c-.1.03-.11.04-.13.06-.3.59-.69,1.22-.92,1.54l-.94-.45s.04-.05.06-.09l-.98.21c-.1-.6-.32-1.14-.51-1.5l.92-.27c.21.31.43,1.04.57,1.54.38-.49.7-1.2.88-1.75l.99.41c.06.02.16.1.16.16s-.05.11-.12.12ZM107.4,10.67c-.05.02-.31.05-.36.08-.01.01-1.02,1.14-1.25,1.33-1.25,1.06-2.33,1.48-2.91,1.7l-.97-.93c.62-.19,1.27-.4,2.26-1.08,1.09-.75,1.59-1.41,2.09-2.04l.99.6s.21.12.21.22c0,.06-.03.1-.06.12ZM106.68,5.41s-.25.05-.26.08c-.03.02-.57.6-.68.71-.4.38-1.28,1.21-2.32,1.76l-.9-.98c.52-.19,1.03-.39,1.85-1.12.66-.59.93-1.01,1.19-1.4l1.04.66s.17.11.17.21c0,.08-.04.09-.09.1Z"/>
            <path class="cls-5" d="M110.45,10.46c-.67,0-1.21-.54-1.21-1.21s.55-1.21,1.21-1.21,1.21.54,1.21,1.21-.54,1.21-1.21,1.21Z"/>
            <path class="cls-5" d="M122.15,11.01c-.18,0-.81-.1-1.66-.94-.33.38-.62.69-1.02.95l-.86-.78h-1.85v.36h-.92v-2.33h2.87v1.86c.25-.15.6-.36,1.13-.94-.29-.52-.6-1.15-.87-2.52h-3.35c.02,2.32-.19,3.26-.89,4.39l-1.04-.54c.48-.87.86-1.62.86-3.48,0-.45-.02-.95-.04-1.43h4.32c-.03-.42-.03-.67-.02-1.04l1.07.06c.19.01.31.04.31.13,0,.04-.22.17-.25.22-.02.04,0,.58,0,.64h1.17c-.16-.18-.3-.32-.58-.61l.88-.49c.27.21.51.43.78.78l-.51.32h1.4v1.06h-3.04c.16.88.36,1.28.51,1.57.26-.42.46-.8.73-1.48l.94.46c.21.1.21.14.21.17,0,.06-.07.08-.14.09-.05.01-.1.02-.12.06-.24.55-.59,1.09-.97,1.62.17.16.47.42.67.42.26,0,.29-.44.31-.74l.95.58c-.02.28-.26,1.57-.97,1.57ZM116.03,11.73c-.15.04-.17.05-.2.09-.21.59-.54,1.33-1.08,2l-.97-.65c.56-.72.93-1.63,1.11-2.17l1,.47c.06.03.2.1.2.18,0,.04-.02.05-.06.06ZM115.9,7.86v-.82h2.84v.82h-2.84ZM120.83,13.28c-.1.16-.31.53-1.16.53h-2.49c-.41,0-.88-.26-.88-.63v-2.09l1.12.07c.17.01.24.01.24.1,0,.04-.02.09-.1.13-.03.02-.09.05-.09.1v.92c0,.3.38.32.51.32h1.36c.29,0,.69-.03.76-.98l.99.61c0,.23-.01.52-.26.94ZM117.89,8.94h-1.14v.58h1.14v-.58ZM118.66,12.36c-.18-.31-.54-.82-.87-1.18l.82-.56c.39.41.74.86.96,1.2l-.91.55ZM122.19,13.55c-.49-.96-.91-1.49-1.3-1.9l1.04-.64c.3.39.88,1.16,1.25,1.89l-.98.65Z"/>
            <path class="cls-5" d="M123.28,14.37v-1.11h2.71V4.19h1.1v10.18h-3.81Z"/>
            <path class="cls-5" d="M133.89,5.27c-.14.02-.15.03-.2.17-.15.44-.27.8-.57,1.4.12.03.18.06.18.14,0,.05-.05.11-.1.14-.07.06-.1.09-.1.13v6.6h-1.21v-5.08c-.26.44-.58.85-.72,1.03l-.95-.72c.88-1.11,1.85-2.53,2.42-4.55l1.14.42c.1.03.26.11.26.21,0,.08-.11.09-.17.1ZM135.51,11.69l.84.62s.14.11.14.17c0,.05-.06.08-.1.08-.23.04-.25.04-.33.12-.85.67-1.1.86-1.83,1.29l-.89-.87c.78-.32,1.52-.82,2.09-1.41h-1.96v-1.04h6.39v1.04h-4.34ZM134.19,10.22v-5.3h4.97v5.3h-4.97ZM137.93,5.86h-2.6v.6h2.6v-.6ZM137.93,7.25h-2.6v.61h2.6v-.61ZM137.93,8.59h-2.6v.66h2.6v-.66ZM139.15,13.98c-.81-.42-1.73-1.08-2.22-1.55l.9-.72c.44.41.96.84,2.24,1.4l-.93.87Z"/>
            <path class="cls-5" d="M148.93,13.73c-1.45-.56-2.24-1.07-3.24-2.12v2.26h-1.31v-2.34c-.38.41-.78.84-1.59,1.41-.73.52-1.19.7-1.64.89l-.96-1.07c.92-.25,1.8-.55,3.17-1.71h-2.9v-1.09h3.92v-.51h-1.21v-4.15h.97c.11-.23.19-.43.27-.68l1.23.1s.24.02.24.13c0,.04-.03.08-.05.1-.02.01-.15.06-.17.09-.04.02-.13.23-.15.27h1.53v4.15h-1.35c.14.02.22.06.22.14,0,.1-.14.15-.21.16v.2h4.03v1.09h-3.12c.66.6,1.41,1.17,3.32,1.64l-.98,1.03ZM141.43,9.42c-.17.08-.21.1-.25.18q-.11.18-.16.18c-.09,0-.14-.1-.18-.18l-.52-1.1c.86-.25,1.7-.59,2.52-.98l.18,1.09c-.7.38-1.1.57-1.59.81ZM142.15,7.18c-.7-.61-1.14-.9-1.59-1.15l.63-.99c.73.38,1.31.82,1.73,1.13l-.78,1.01ZM145.93,6.22h-1.69v.77h1.69v-.77ZM145.93,7.82h-1.69v.81h1.69v-.81ZM149.65,5.99c-.16.01-.21.04-.28.11-.6.58-.74.72-1.28,1.15l-.99-.73c.62-.46,1.14-.94,1.61-1.54l.97.7c.06.04.15.12.15.2,0,.1-.05.1-.17.11ZM149.09,9.64c-.67-.56-1.38-.99-1.93-1.29l.69-.95c.68.36,1.37.79,2.04,1.29l-.8.95Z"/>
            <path class="cls-5" d="M150.22,9.27v-1h1.19c-.18-.57-.41-1.02-.61-1.38l.75-.32h-1.01v-.95h1.73v-1.04l1.43.08c.12.01.17.03.17.12,0,.05-.02.08-.07.11-.15.11-.16.12-.16.16v.58h1.51v.95h-1.15l.85.5c.09.05.12.1.12.14,0,.06-.05.1-.11.12-.15.04-.17.05-.21.16-.16.48-.27.68-.33.79h.98v1h-5.06ZM153.62,13.75v-.27h-1.81v.34h-1.08v-3.95h4.05v3.88h-1.16ZM151.81,6.57c.31.58.48,1.01.62,1.46l-.59.25h1.3c.3-.59.54-1.14.66-1.7h-1.99ZM153.62,10.96h-1.81v1.42h1.81v-1.42ZM157.48,12.94l-.74-1.1v2h-1.11V5.05h3.54l.41.59c-.84,1.72-.94,1.92-1.33,2.74.46.42,1.35,1.23,1.35,2.5,0,.86-.48,2-2.11,2.06ZM157.1,8.45c.19-.47.58-1.49.86-2.39h-1.23v5.62c.18.02.49.03.58.03.73,0,1.12-.5,1.12-.95,0-.9-.99-1.96-1.34-2.32Z"/>
          </g>
        </g>
      </g>
    </g>
  </g>
</svg>