<?xml version="1.0" encoding="UTF-8"?>
<svg xmlns="http://www.w3.org/2000/svg" viewBox="0 0 167.6 27.91">
  <defs>
    <style>
      .cls-1, .cls-2 {
        fill: #b28247;
      }

      .cls-3 {
        isolation: isolate;
      }

      .cls-4 {
        fill: #231815;
      }

      .cls-5 {
        fill: #fff;
      }

      .cls-2 {
        mix-blend-mode: multiply;
      }
    </style>
  </defs>
  <g class="cls-3">
    <g id="_レイヤー_2" data-name="レイヤー_2">
      <g id="_テキスト_xFF08_B_xFF09_" data-name="テキスト_xFF08_B_xFF09_">
        <g>
          <rect class="cls-1" width="167.6" height="17.49"/>
          <rect class="cls-2" x="0" width="8.29" height="17.49"/>
          <g>
            <path class="cls-4" d="M2.89,23.38c-.18,0-.33,0-.55.04v-.76c.18.04.32.04.55.04h.32v-.57c0-.33,0-.51-.04-.71h.83c-.04.21-.04.37-.04.71v.58h.27c.15,0,.29,0,.42-.03v.74c-.15-.02-.28-.03-.43-.03h-.26v1.06c.29-.09.36-.12.68-.23v.69c-.32.13-.38.15-.68.25v1.99c0,.48-.25.67-.9.67-.15,0-.35,0-.57-.02-.02-.29-.06-.44-.16-.74.26.03.48.04.66.04s.22-.04.22-.2v-1.47q-.29.09-.49.15c-.16.05-.19.06-.29.1l-.15-.78c.23-.02.39-.06.93-.21v-1.29h-.32ZM4.29,26.82c.23.03.5.04.82.04h2.8c.34,0,.57-.01.8-.04v.79c-.25-.03-.48-.04-.81-.04h-2.79c-.35,0-.6.01-.82.04v-.78ZM5.58,26.19c-.26,0-.5,0-.71.03.01-.16.02-.36.02-.67v-3.11c0-.35,0-.57-.02-.76.18.02.36.03.72.03h1.9c.38,0,.57,0,.75-.03-.02.23-.03.43-.03.85v2.87c0,.36,0,.55.03.81-.17-.02-.41-.03-.71-.03h-1.95ZM5.63,23.61h1.81v-1.21h-1.81v1.21ZM5.63,25.51h1.81v-1.23h-1.81v1.23Z"/>
            <path class="cls-4" d="M12.2,23.48c-.57.99-.97,1.51-1.79,2.33-.27-.24-.43-.36-.71-.52.88-.81,1.28-1.3,1.75-2.15.37-.67.58-1.22.61-1.6l.9.24c-.05.1-.09.2-.24.57-.04.08-.04.1-.18.42h1.51c.41,0,.66-.01.81-.04l.46.53s-.03.05-.08.15c0,0-.01.03-.04.07,0,.01-.04.08-.08.18-.16.33-.41.79-.65,1.18-.29.48-.46.72-.82,1.18.4.37.6.57.93.95l-.6.58c-.44-.51-.64-.73-1.07-1.11-.46-.42-.74-.64-1.34-1.06l.58-.54c.36.25.57.4.9.66.55-.67.83-1.13,1.25-2.02h-2.12Z"/>
            <path class="cls-4" d="M19.13,27.21q-.04-.12-.09-.24-.41.15-1.42.46-.24.07-.59.2l-.18-.76c.09,0,.23-.03.44-.07v-2.94c0-.18,0-.31-.01-.48-.08.06-.12.09-.24.17-.08-.33-.15-.5-.28-.75.62-.37,1.13-.86,1.39-1.36h.76c.22.42.66.84,1.14,1.11-.2.22-.31.36-.46.59-.46-.32-.84-.7-1.05-1.03-.03.04-.05.07-.07.09-.33.43-.59.7-.99,1.02.12,0,.19,0,.34,0h.39v-.27c0-.13,0-.23-.03-.35h.7c-.02.11-.03.2-.03.36v.26h.25c.23,0,.42,0,.59-.03-.01.17-.02.31-.02.56v1.35c0,.27,0,.41.02.58-.18-.01-.36-.02-.55-.02h-1.14v.95c.53-.14.59-.15.78-.22-.07-.13-.12-.21-.25-.44l.6-.25c.22.36.39.67.56,1.03.3-.76.42-1.85.42-3.83,0-.67,0-.95-.04-1.26.24.02.46.04.76.04h1.72c.33,0,.56-.01.78-.04v.78c-.22-.02-.45-.04-.74-.04h-1.75v.37c0,.25,0,.3,0,.57h1.34c.34,0,.55,0,.7-.04l.29.32q-.04.11-.12.55c-.17.9-.35,1.39-.73,2.05.3.35.68.65,1.18.93-.18.26-.27.41-.41.74-.53-.35-.8-.6-1.19-1.06-.36.45-.62.71-1.13,1.11-.18-.31-.24-.41-.46-.66.53-.37.8-.62,1.14-1.08-.31-.56-.54-1.19-.67-1.88-.01.16-.01.29-.02.36-.08,1.51-.29,2.3-.86,3.24-.23-.25-.34-.34-.62-.49.17-.23.22-.32.31-.48l-.46.27ZM18.98,24.16v-.35h-.99v.35h.99ZM18,25.07h.99v-.36h-.99v.36ZM21.35,23.99c.12.64.27,1.08.52,1.55.23-.46.37-.92.47-1.55h-.99Z"/>
            <path class="cls-4" d="M30.76,21.3l-5.31,6.58h-1.03l5.3-6.58h1.04Z"/>
            <path class="cls-4" d="M34.31,22.51c-.92.08-1.27.1-2.19.13q-.08-.29-.26-.72h.34c1,0,2.3-.1,3.14-.24.66-.11.92-.17,1.29-.34l.57.7c-.6.15-1.55.33-2.12.39v.91h1.45c.4,0,.64-.01.88-.04v.78c-.24-.03-.5-.04-.86-.04h-1.46v.85h1.79c.39,0,.62-.01.85-.04v.79c-.24-.03-.48-.04-.85-.04h-1.79v1.37c0,.31-.1.53-.27.6-.16.07-.46.11-.79.11-.21,0-.55-.01-.95-.05-.03-.31-.08-.47-.21-.76.5.07.88.1,1.17.1.2,0,.27-.05.27-.22v-1.16h-1.95c-.39,0-.62.01-.86.04v-.79c.23.03.46.04.86.04h1.95v-.85h-1.56c-.31,0-.64.01-.88.04v-.78c.23.03.47.04.87.04h1.57v-.83Z"/>
            <path class="cls-4" d="M41.19,22.4h-1.39c-.32,0-.55.01-.75.04v-.81c.2.04.45.05.77.05h1.36c.43,0,.62,0,.8-.03-.03.23-.04.43-.04.78v4.57c0,.56-.24.71-1.17.71-.14,0-.27,0-.59-.02-.04-.3-.08-.48-.22-.81.44.06.7.08.98.08.18,0,.25-.05.25-.19v-1.64c-.59.54-.92.8-1.53,1.21-.18.12-.23.15-.33.22l-.39-.75c.42-.14,1.16-.65,1.88-1.3l.37.58v-2.71ZM39.8,22.72c.42.51.64.84.93,1.32l-.62.46c-.32-.6-.54-.95-.9-1.37l.59-.41ZM44.27,22.4h-1.35c-.32,0-.55.01-.76.04v-.81c.2.04.45.05.77.05h1.34c.43,0,.62,0,.79-.03-.03.2-.04.43-.04.78v4.57c0,.57-.24.71-1.26.71-.14,0-.23,0-.46,0-.03-.3-.08-.47-.22-.81.44.05.64.06.91.06.21,0,.27-.04.27-.18v-1.66c-.49.44-.85.72-1.41,1.09-.23.15-.26.17-.39.27l-.39-.74c.34-.15.5-.24.83-.46.42-.29.7-.5,1.02-.79l.34.58v-2.68ZM42.9,22.73c.39.46.59.75.92,1.32l-.62.46c-.3-.57-.49-.87-.9-1.37l.6-.4Z"/>
            <path class="cls-4" d="M47.84,23.17c-.24.35-.39.54-.71.88-.24-.25-.35-.36-.6-.52.45-.42.68-.7.92-1.15.17-.3.29-.63.34-.92l.8.19s-.06.15-.13.31c-.14.34-.15.36-.21.5h1v-.37c0-.28-.01-.45-.04-.69h.87c-.04.22-.04.39-.04.69v.37h1.47c.33,0,.54-.01.76-.04v.81c-.2-.03-.43-.04-.76-.04h-1.47v.96h1.95c.35,0,.57-.01.78-.04v.83c-.22-.03-.45-.04-.78-.04h-1.35v1.98c0,.15.08.18.52.18.48,0,.64-.04.71-.15.09-.14.13-.47.14-1.06.34.17.44.2.76.27-.05.74-.13,1.08-.29,1.3-.11.15-.29.27-.48.3-.22.04-.55.06-.97.06-.91,0-1.13-.11-1.13-.57v-2.32h-.79c-.03.53-.07.78-.17,1.09-.18.57-.54,1.04-1.09,1.42-.29.2-.49.3-1.06.53-.12-.27-.23-.44-.45-.72.73-.21,1.21-.49,1.55-.91.21-.25.34-.57.41-.95.01-.12.02-.16.04-.46h-1.06c-.33,0-.55.01-.78.04v-.83c.21.03.43.04.78.04h1.96v-.96h-1.41Z"/>
            <path class="cls-4" d="M57.13,23.39h-.97c-.21,0-.41,0-.57.02v-.62c.16.02.29.03.57.03h.98v-.39h-1.9c0,2-.06,2.94-.23,3.83-.12.65-.26,1.04-.52,1.47-.22-.26-.34-.37-.61-.58.22-.39.34-.76.43-1.35.09-.55.14-1.03.16-1.57.01-.5.04-1.47.04-1.73,0-.36,0-.52-.04-.74.24.03.43.04.86.04h1.67v-.08c0-.15,0-.28-.04-.4h.84c-.03.12-.04.25-.04.41v.06h1.84c.33,0,.59-.01.78-.04v.7c-.2-.02-.41-.04-.71-.04h-1.82v.39h1.35c.27,0,.42,0,.57-.03-.01.16-.02.28-.02.53v.44h.12c.25,0,.38,0,.55-.04v.71c-.17-.03-.31-.04-.55-.04h-.12v.49c0,.22,0,.34.02.48-.19-.01-.35-.02-.57-.02h-3.07c-.24,0-.43,0-.59.03v-.62c.15.01.3.02.57.02h1.02v-.37h-1.15c-.27,0-.46,0-.63.02v-.69c.15.02.32.03.62.03h1.15v-.36ZM56.36,27.86h-.79c.03-.24.04-.43.04-.68v-1.01c0-.2,0-.34-.03-.5.2.01.42.02.66.02h2.96c.25,0,.42,0,.6-.02-.02.17-.03.33-.03.59v.94c0,.27.01.46.04.67h-.8v-.29h-2.66v.29ZM56.36,26.94h2.66v-.62h-2.66v.62ZM59.03,23.39h-1.19v.36h1.19v-.36ZM57.84,24.39v.37h1.19v-.37h-1.19Z"/>
            <path class="cls-4" d="M65.72,25.65c-.18.29-.41.55-.74.83-.37.31-.6.45-1.17.74-.12-.2-.2-.29-.43-.5.57-.25.71-.32,1.03-.55.22-.17.4-.34.55-.53h-.52c-.27.25-.57.45-.97.64-.11-.19-.2-.32-.34-.47v1.28c0,.27-.06.43-.21.54-.15.11-.34.15-.76.15-.12,0-.16,0-.48-.01-.02-.3-.05-.45-.16-.72.24.02.45.04.63.04.17,0,.22-.04.22-.2v-1.51c-.46.14-.71.22-.76.25l-.1-.76c.17,0,.39-.05.87-.19v-1.33h-.29c-.16,0-.32,0-.51.04v-.76c.18.03.31.04.53.04h.28v-.57c0-.34,0-.52-.04-.71h.83c-.03.2-.04.37-.04.71v.57h.22c.15,0,.27,0,.39-.03v.73c-.16-.02-.22-.02-.38-.02h-.22v1.09q.13-.05.5-.18v-.15c.17.03.33.04.65.04h3c.32,0,.49,0,.69-.04v.71c-.21-.02-.42-.04-.69-.04h-2.13c-.07.12-.1.16-.18.29h2.21c.39,0,.48,0,.62-.02-.04.33-.04.34-.05.57-.08,1.05-.13,1.46-.26,1.76-.13.31-.42.42-1.06.42-.18,0-.27,0-.46-.01-.02-.27-.06-.44-.15-.67-.36.33-.67.55-1.13.78-.17-.22-.31-.36-.47-.49.97-.43,1.63-1.03,1.95-1.74h-.45ZM63.13,25.74c.55-.23.99-.57,1.28-.97h-.29c-.15,0-.37,0-.45.02v.11c-.27.1-.31.13-.53.21v.63ZM64.65,23.87c-.27,0-.48,0-.64.02.02-.21.03-.48.03-.76v-.97c0-.25,0-.41-.03-.6.2.02.34.03.71.03h2.06c.31,0,.47,0,.67-.03-.02.2-.03.32-.03.6v.99c0,.31,0,.43.03.74-.13-.01-.31-.02-.59-.02h-2.21ZM64.74,22.49h1.96v-.31h-1.96v.31ZM64.74,23.31h1.96v-.31h-1.96v.31ZM66.82,25.65c-.24.6-.49.97-.96,1.41.2.03.5.06.68.06.25,0,.32-.07.39-.38.04-.22.09-.61.12-1.09h-.24Z"/>
            <path class="cls-4" d="M71.28,25.13c-.44.8-.81,1.83-.8,2.25l-.81.04c0-.1-.01-.12-.05-.27-.18-.78-.25-1.48-.25-2.28s.04-1.2.26-2.65c.05-.32.05-.37.05-.51l.93.08c-.25.81-.43,2.11-.43,3.22,0,.1,0,.65,0,.69,0,.08,0,.16,0,.27.11-.32.13-.39.16-.46q.24-.57.31-.69l.62.31ZM71.11,23.11c.31.07.68.1,1.25.1.27,0,.32,0,.73-.04-.02-.64-.03-.71-.04-.92-.01-.31-.02-.35-.05-.53h.89c0,.14-.01.22-.01.26v.09c.01.23.02.57.04,1.02.46-.08.88-.18,1.04-.27l.05.83c-.11.01-.15.02-.39.07-.34.08-.38.08-.68.12,0,.15,0,.21,0,.34,0,.74-.05,1.32-.15,1.67-.15.58-.4,1.01-.8,1.36-.22.19-.41.32-.76.53-.22-.29-.38-.43-.68-.66.48-.22.8-.45,1.07-.76.36-.43.49-.93.49-1.96,0-.13,0-.24,0-.45-.24.02-.6.04-.95.04-.2,0-.46,0-.64-.02-.2-.01-.23-.01-.31-.01h-.11v-.81ZM74.34,21.31c.22.34.36.68.48,1.09l-.48.14c-.13-.45-.28-.79-.48-1.1l.48-.13ZM75.2,22.33c-.11-.38-.28-.77-.47-1.07l.45-.14c.19.29.34.62.48,1.05l-.46.16Z"/>
            <path class="cls-4" d="M81.66,21.3l-5.31,6.58h-1.03l5.3-6.58h1.04Z"/>
            <path class="cls-4" d="M88.21,22.54c-.06.12-.08.17-.12.32-.35,1.34-.76,2.18-1.44,2.93-.69.77-1.44,1.28-2.61,1.79-.2-.38-.29-.51-.62-.83.62-.2,1.01-.38,1.53-.71,1.09-.71,1.78-1.69,2.12-3.05h-3.33c-.47,0-.63,0-.88.04v-.91c.27.04.42.05.9.05h3.21c.39,0,.53-.01.75-.07l.48.46Z"/>
            <path class="cls-4" d="M95.27,23.87c-.07.13-.11.22-.2.44-.37,1.03-.9,1.81-1.62,2.37-.5.38-.95.62-1.84.95-.15-.35-.24-.47-.54-.81.85-.22,1.41-.48,1.95-.92.52-.43.82-.86,1.13-1.64h-3.41c-.47,0-.64,0-.9.03v-.85c.27.04.42.05.91.05h3.33c.43,0,.57-.01.79-.06l.4.45ZM90.43,21.75c.23.04.38.05.82.05h2.44c.44,0,.59,0,.82-.05v.86c-.22-.03-.35-.04-.8-.04h-2.47c-.46,0-.59,0-.81.04v-.86Z"/>
            <path class="cls-4" d="M102.38,22.13c-.12.1-.15.13-.26.25-.53.55-1.05,1-1.65,1.44v2.99c0,.39,0,.59.04.78h-.98c.04-.2.04-.34.04-.76v-2.47c-.82.49-1.21.67-2.5,1.13-.15-.36-.22-.48-.47-.8,1.39-.38,2.56-.96,3.68-1.82.62-.48,1.1-.97,1.3-1.31l.8.56Z"/>
            <path class="cls-4" d="M104.63,27.57c.03-.2.04-.39.04-.78v-4.49c0-.41-.01-.55-.04-.71h.96c-.02.19-.03.32-.03.74v1.3c.81.27,2.07.85,3.18,1.48l-.49.83c-.49-.35-1.48-.89-2.48-1.34-.16-.08-.18-.08-.24-.12.02.2.03.31.03.48v1.85c0,.38,0,.57.03.78h-.96ZM107.52,21.95c.31.33.5.6.73,1.03l-.49.26c-.23-.43-.43-.71-.73-1.04l.49-.25ZM108.6,22.8c-.21-.39-.44-.71-.71-1.02l.47-.25c.31.32.51.59.73.99l-.48.27Z"/>
            <path class="cls-4" d="M112.38,24.29s-.02.08-.03.1c0,.01-.01.06-.03.12-.22,1.03-.66,2.04-1.18,2.72-.33-.24-.48-.32-.81-.46.54-.58,1.09-1.83,1.18-2.7l.86.21ZM115.57,22.8c.15,0,.22,0,.38,0-.34-.11-.57-.41-.57-.77,0-.44.37-.81.81-.81s.81.36.81.81c0,.34-.21.64-.53.76v.83c-.23-.03-.34-.04-.89-.04h-1.62v3.4c0,.38,0,.6.03.78h-.95c.03-.19.04-.4.04-.79v-3.39h-1.55c-.54,0-.65,0-.88.04v-.86c.25.04.38.05.9.05h1.54v-.39c0-.4-.01-.55-.04-.72h.95c-.02.19-.03.29-.03.74v.37h1.6ZM115.49,24.08c.22.91.78,2.12,1.24,2.67-.36.18-.49.26-.8.48-.51-.78-.82-1.51-1.15-2.62-.06-.19-.06-.22-.11-.32l.83-.21ZM115.74,22.02c0,.25.2.46.46.46s.46-.21.46-.46-.2-.46-.46-.46-.46.2-.46.46Z"/>
            <path class="cls-4" d="M121.47,24.4c-.04.81-.19,1.39-.49,1.88-.37.62-.88,1-1.83,1.38-.18-.36-.27-.48-.57-.77.84-.26,1.37-.63,1.66-1.17.18-.32.29-.78.31-1.32h-1.71c-.48,0-.64,0-.89.03v-.83c.27.04.42.05.9.05h4.1c.48,0,.64,0,.9-.05v.83c-.25-.03-.41-.03-.89-.03h-1.5ZM118.66,21.84c.26.04.4.05.9.05h2.69c.51,0,.64,0,.9-.05v.85c-.23-.03-.4-.04-.89-.04h-2.72c-.49,0-.66,0-.89.04v-.85Z"/>
            <path class="cls-4" d="M126.01,27.57c.04-.22.04-.41.04-.78v-4.49c0-.34-.01-.52-.04-.71h.96c-.03.21-.03.3-.03.74v1.3c.96.34,2.06.85,3.18,1.48l-.49.83c-.58-.4-1.31-.8-2.48-1.34-.16-.08-.18-.08-.24-.12.02.2.03.28.03.48v1.85c0,.36,0,.55.03.78h-.96Z"/>
            <path class="cls-4" d="M137.16,21.3l-5.31,6.58h-1.03l5.3-6.58h1.04Z"/>
            <path class="cls-4" d="M139.01,23.45c-.29.6-.57,1.02-.95,1.47-.18-.27-.34-.43-.57-.6.53-.53.95-1.27,1.18-2.05.09-.3.13-.45.15-.65l.8.2q-.01.06-.06.18s-.02.06-.07.23c-.04.1-.1.28-.19.53h1.14v-.53c0-.36-.02-.58-.05-.84h.89c-.03.23-.04.46-.04.83v.54h1.46c.36,0,.66-.01.95-.04v.77c-.3-.03-.59-.04-.92-.04h-1.48v1.29h1.21c.35,0,.63-.01.86-.04v.77c-.25-.03-.53-.04-.86-.04h-1.21v1.48h1.68c.4,0,.69-.01.97-.05v.8c-.33-.03-.58-.05-.95-.05h-4.29c-.37,0-.67.01-.99.05v-.8c.3.04.6.05.97.05h1.8v-1.48h-1.08c-.33,0-.61.01-.85.04v-.77c.22.03.46.04.84.04h1.09v-1.29h-1.43Z"/>
            <path class="cls-4" d="M146.43,23.9c1.06-.2,2.61-.82,3.06-1.25l.56.79s-.26.12-.63.3c-.95.46-1.93.77-2.99.97v.92s0,.07,0,.09c0,.41.03.57.12.67.12.13.52.18,1.2.18.47,0,1.12-.04,1.62-.11.34-.04.49-.08.8-.17l.04.93c-.15,0-.18,0-.93.08-.41.04-1.29.08-1.72.08-.88,0-1.37-.09-1.64-.3-.2-.15-.3-.37-.34-.71-.01-.12-.02-.24-.02-.64v-3.25c0-.36,0-.47-.04-.64h.94c-.03.17-.04.29-.04.65v1.41ZM149.76,21.51c.28.31.47.6.7,1.06l-.5.23c-.22-.45-.4-.73-.69-1.07l.5-.22ZM150.81,22.4c-.19-.39-.41-.72-.67-1.04l.48-.22c.31.35.5.62.69,1.02l-.5.25Z"/>
            <path class="cls-4" d="M151.66,24.08c.31.04.44.05,1.13.05h3.73c.69,0,.83,0,1.13-.05v.97c-.28-.04-.36-.04-1.14-.04h-3.72c-.79,0-.86,0-1.14.04v-.97Z"/>
            <path class="cls-4" d="M160.85,21.83q-.03.2-.07,1.57c-.05,1.37-.2,2.16-.57,2.88-.24.48-.5.84-.97,1.3-.27-.35-.38-.46-.71-.68.34-.28.51-.47.72-.81.5-.81.67-1.71.67-3.67,0-.39,0-.45-.03-.64l.95.05ZM162.71,21.74c-.03.2-.04.32-.05.67l-.04,3.99c.49-.23.77-.44,1.07-.8.32-.38.53-.76.69-1.28.24.32.34.41.66.66-.29.69-.65,1.22-1.12,1.63-.4.34-.76.55-1.49.84-.15.06-.21.08-.3.13l-.45-.48c.05-.2.06-.36.06-.74l.04-3.95v-.21c0-.17,0-.33-.03-.46h.95Z"/>
          </g>
          <g>
            <path class="cls-5" d="M62.31,13.1l-.57-1.33c.34.04.85.12,1.35.12,2,0,2.92-1.04,2.92-2.04,0-.69-.55-1.13-1.36-1.13-.74,0-1.83.43-2.94,1.72l-.94-.5c.09-1.46.6-3.3.84-4.12l1.24.49c-.28.76-.51,1.56-.65,2.37.97-.88,2.1-1.09,2.65-1.09,1.13,0,2.39.8,2.39,2.36,0,3.04-3.6,3.1-4.93,3.13ZM64.72,6.29c-.69-.44-1.21-.72-2.49-1.17l.46-1.07c.72.23,1.75.61,2.58,1.11l-.55,1.13Z"/>
            <path class="cls-5" d="M69.63,9.27v-1.37h7.66v1.37h-7.66Z"/>
            <path class="cls-5" d="M86.48,11.89c-.88.85-1.75,1.09-2.24,1.23l-.74-1.03c.48-.1,1.31-.27,2.05-.96.64-.61.87-1.37.87-2,0-.94-.7-1.89-2-2.04-.32,1.09-.62,2-1.25,3.09.2.33.31.5.5.73l-.89.98c-.16-.22-.27-.38-.43-.66-.31.31-1.07,1.07-1.78,1.07-.75,0-1.36-.68-1.36-1.84,0-1.69,1.03-2.71,1.44-3.12-.3-.87-.46-1.41-.6-1.98l1.26-.51c.07.65.16,1.08.36,1.76.62-.32,1.06-.46,1.77-.58.13-.84.15-1.28.15-1.86l1.25.12c.1.01.34.03.34.16,0,.05-.04.08-.15.15-.03.02-.09.06-.09.11-.13.75-.14.83-.25,1.31.47.08,1.24.19,1.95.8.83.71,1.09,1.68,1.09,2.43,0,1.28-.76,2.2-1.24,2.65ZM81.07,8.49c-.68.92-.72,1.62-.72,1.87,0,.31.13.6.42.6.45,0,.89-.55,1.04-.74-.23-.49-.4-.86-.74-1.73ZM82.02,7.72c.15.41.31.8.53,1.26.29-.66.44-1.11.64-1.8-.39.1-.62.19-1.16.54Z"/>
            <path class="cls-5" d="M94.72,12.77c-1.48,0-1.48-1.26-1.48-1.33,0-.27.22-1.52.22-1.69,0-.39-.24-.57-.56-.57-.59,0-1.13.46-1.43.81-.16.17-.73.96-1.36,2.69l-1.33-.38c2.6-5.02,2.87-5.55,3.35-6.58.37-.79.52-1.13.66-1.48l1.22.65c.06.03.26.13.26.24,0,.04-.04.09-.09.1-.03.01-.21.04-.24.07-.16.05-.92,1.35-1.58,2.89.55-.22,1-.23,1.08-.23.95,0,1.35.64,1.35,1.3,0,.25-.25,1.43-.25,1.7,0,.38.17.51.44.51.74,0,1.51-1.06,1.91-1.64l.7,1.03c-.4.61-1.25,1.91-2.87,1.91Z"/>
            <path class="cls-5" d="M106.6,13.1h-2.22c-.41,0-.96-.16-.96-.8v-.96h-1.85l.79.44c.06.03.17.11.17.18,0,.16-.23.17-.38.16-.57.59-1.87,1.19-3.04,1.28l-.61-1.11c.27,0,.82-.02,1.5-.23.73-.23.99-.52,1.17-.73h-1.43v-4h1.48v-.42h-1.01v-.78h1.01v-.6l1.06.06c.13.01.34.03.34.15,0,.05-.02.09-.15.19v.19h1.16v-.6l1.09.06c.12.01.34.03.34.15,0,.06-.02.08-.17.22v.17h1.03v.78h-1.03v.42h1.48v4h-1.69v.34c0,.23.08.36.36.36h1.28c.33,0,.45-.11.55-1.09l1.04.48c-.25,1.48-.82,1.66-1.3,1.66ZM106.25,6.63v-1.18h-6.4v1.29h-1.2v-2.22h3.71v-.59l1.24.03c.12,0,.36.01.36.13,0,.08-.02.09-.13.19-.08.06-.08.08-.08.24h3.69v2.11h-1.2ZM105.17,8.09h-4.23v.43h4.23v-.43ZM105.17,9.12h-4.23v.43h4.23v-.43ZM105.17,10.16h-4.23v.44h4.23v-.44ZM103.63,6.92h-1.16v.42h1.16v-.42Z"/>
          </g>
        </g>
      </g>
    </g>
  </g>
</svg>