<?xml version="1.0" encoding="UTF-8"?>
<svg id="_レイヤー_2" data-name="レイヤー_2" xmlns="http://www.w3.org/2000/svg" viewBox="0 0 1306.55 610.08">
  <defs>
    <style>
      .cls-1 {
        fill: #231815;
      }

      .cls-2 {
        fill: #fff;
      }

      .cls-3 {
        fill: #e60012;
      }

      .cls-4 {
        fill: none;
        stroke: #000;
        stroke-width: 42.79px;
      }
    </style>
  </defs>
  <g id="_レイヤー_1-2" data-name="レイヤー_1">
    <g>
      <polygon class="cls-4" points="1243.79 373.94 1271.95 369.63 1250.33 35.38 69.62 133.2 71.45 140.02 41.78 142.48 150.24 546.4 891.38 432.92 880.55 502.09 943.62 424.92 1244.11 378.91 1243.79 373.94"/>
      <polygon class="cls-3" points="1243.79 373.94 1271.95 369.63 1250.33 35.38 69.62 133.2 71.45 140.02 41.78 142.48 150.24 546.4 891.38 432.92 880.55 502.09 943.62 424.92 1244.11 378.91 1243.79 373.94"/>
    </g>
    <rect class="cls-1" x="90.41" y="274.86" width="1143.87" height="137.11" transform="translate(-25.53 54.52) rotate(-4.62)"/>
    <g>
      <g>
        <path class="cls-1" d="M209.64,220.29l-14.51-1.35c.25-9.39.22-19.1-.08-29.14-.31-10.03-.91-20.64-1.82-31.84l14.56-1.18c.94,11.61,1.58,22.65,1.92,33.1.34,10.45.32,20.59-.07,30.41ZM243.59,215.02l6.52,19.69c-8.8,4.72-17.23,8.85-25.29,12.39-8.05,3.55-15.85,6.58-23.4,9.08l-4.34-20.82c7.22-2.37,14.64-5.21,22.25-8.51,7.61-3.3,15.7-7.25,24.25-11.83ZM240.44,171.36l1.85,22.91-38.29,3.1-1.85-22.91,38.29-3.1ZM241.64,292.42l-19.59,1.58-11.68-144.38,19.59-1.58,11.68,144.38ZM243.77,211.06l-1.73-21.34,70.94-5.74,1.73,21.34-70.94,5.74ZM244.26,179.58l-1.73-21.34,62.4-5.05,1.73,21.34-62.4,5.05ZM279.13,259.06l-12.67,18.4c-3.89-4.32-7.65-8.17-11.3-11.56-3.65-3.39-7.31-6.46-10.98-9.22l9.7-20.69c4.2,3.03,8.4,6.48,12.59,10.35,4.19,3.88,8.41,8.12,12.66,12.72ZM246.23,241.34l-1.73-21.34,70.94-5.74,1.73,21.34-70.94,5.74ZM288.27,192.45l-20.84,1.69-4.2-51.95,20.84-1.69,4.2,51.95ZM288.87,288.92c-1.59.13-4.11.2-7.56.22-3.46.02-6.79-.06-10-.22l-2.2-22.57c2.28.13,4.96.15,8.03.06,3.07-.09,5.61-.22,7.62-.38.83-.07,1.54-.23,2.11-.49.57-.26.97-.74,1.21-1.44.24-.7.31-1.68.21-2.94l-4.96-61.36,22.35-1.81,5.27,65.13c.36,4.39.4,8.13.15,11.2-.26,3.07-1.11,5.62-2.54,7.63-1.44,2.01-3.74,3.57-6.89,4.66-3.16,1.1-7.41,1.86-12.77,2.3Z"/>
        <path class="cls-1" d="M321.41,144.43l56.62-4.58,4.79,59.17-56.62,4.58-4.79-59.17ZM339.63,285.29l-15.46-16.12c3.6-5.45,6.4-11.5,8.39-18.13,1.99-6.64,3.23-14.26,3.71-22.89.48-8.62.27-18.58-.65-29.88l19.58-1.58c.81,10.04,1.12,19.31.92,27.81-.2,8.5-.94,16.32-2.21,23.48-1.28,7.16-3.1,13.81-5.46,19.95-2.37,6.14-5.31,11.93-8.83,17.38ZM354.12,281.59l-2.62-23.01c.59.06,1.59.13,2.99.23,1.4.1,2.9.16,4.5.19,1.6.03,3.05-.04,4.35-.19,1.29-.16,2.09-.41,2.4-.75.39-.35.62-1.71.68-4.08.06-2.37.03-5.16-.11-8.36-.13-3.2-.28-6.32-.44-9.36-.16-3.04-.27-5.4-.32-7.08l-23.23,1.88-1.73-21.34,43.82-3.54c.19,3.46.51,7.6.94,12.4.43,4.81.84,9.91,1.24,15.3.39,5.39.66,10.74.79,16.05.13,5.31.09,10.21-.14,14.7-.23,4.49-.82,8.15-1.77,10.96-.6,1.95-2,3.42-4.19,4.45-2.19,1.02-4.84,1.68-7.93,1.98-3.09.3-6.33.38-9.71.23-3.38-.15-6.56-.37-9.53-.65ZM342.73,164.19l1.33,16.48,17.45-1.41-1.33-16.48-17.45,1.41ZM412.94,241.76l-20.09,1.62-7.96-98.4,20.09-1.62,7.96,98.4ZM431.59,133.31l9.64,119.12c.36,4.4.45,8.12.27,11.19-.17,3.07-.9,5.6-2.17,7.6-1.27,2-3.38,3.54-6.32,4.62-2.95,1.08-7.01,1.83-12.2,2.25-2.68.22-5.07.33-7.18.34-2.11.01-4.84.05-8.2.11l-2.33-24.14c2.43-.09,4.79-.2,7.05-.33,2.26-.13,4.4-.28,6.41-.44.83-.07,1.54-.23,2.11-.49.57-.25.97-.73,1.21-1.44.24-.7.31-1.68.21-2.94l-9.2-113.78,20.72-1.68Z"/>
        <path class="cls-1" d="M457.65,200.71l-4.66-57.6,21.6-1.75,4.66,57.6-21.6,1.75ZM458.46,273.3l-5.04-62.3,22.85-1.85,5.04,62.3-22.85,1.85ZM473.46,199.43l-1.85-22.91,67.8-5.48,1.85,22.91-67.8,5.48ZM478.69,264.08l-1.85-22.91,67.8-5.48,1.85,22.91-67.8,5.48ZM499.27,241.88l-9.29-114.88,23.35-1.89,9.29,114.88-23.35,1.89ZM535.49,194.41l-4.66-57.6,21.59-1.75,4.66,57.6-21.59,1.75ZM545.09,266.3l-5.04-62.3,22.85-1.85,5.04,62.3-22.85,1.85Z"/>
        <path class="cls-1" d="M591.75,261.89l-16.27-19.85c1.52-3.07,2.77-6.07,3.76-8.99.98-2.92,1.71-6.17,2.18-9.73.47-3.57.68-7.74.63-12.53-.05-4.79-.36-10.63-.91-17.54l-4.71-58.22,108.6-8.79,1.78,21.97-86.5,7,2.93,36.25c.92,11.41,1.17,21.21.74,29.4-.43,8.2-1.63,15.51-3.6,21.93-1.97,6.42-4.84,12.79-8.63,19.1ZM691.36,256.04l-20.84,1.69-3.62-44.73-42.44,3.43,3.62,44.73-20.84,1.69-5.34-66.07,84.12-6.8,5.34,66.07ZM677.67,230.46l1.6,19.77-60.77,4.92-1.6-19.77,60.77-4.92ZM642.24,136.17l-22.1,1.79-1.98-24.48,22.1-1.79,1.98,24.48ZM653.11,198.79l-22.1,1.79-4.6-56.81,22.1-1.79,4.6,56.81ZM685.65,157.3l1.73,21.34-44.82,3.63-1.73-21.34,44.82-3.63Z"/>
        <path class="cls-1" d="M715.55,239.55l-2.16-26.68,69.43-5.62-5.03-62.15-69.18,5.6-2.16-26.68,93.03-7.53,9.34,115.51-93.28,7.55Z"/>
        <path class="cls-1" d="M934.94,148.98l1.85,22.91-103.96,8.41-1.85-22.91,103.96-8.41Z"/>
        <path class="cls-1" d="M1061.69,112.98l2.11,26.05-110.49,8.94-2.11-26.05,110.49-8.94ZM979.85,226.07l-4.97-27.08c7.14-1.31,12.84-3.49,17.1-6.52,4.26-3.03,7.23-6.98,8.9-11.86,1.67-4.87,2.22-10.82,1.65-17.83l-5.83-72.03,22.1-1.79,5.83,72.03c.96,11.83-.1,22.23-3.16,31.22-3.07,8.99-8.09,16.35-15.09,22.07-6.99,5.72-15.84,9.65-26.53,11.78Z"/>
        <path class="cls-1" d="M1186.04,128.67l1.85,22.91-103.96,8.41-1.85-22.91,103.96-8.41Z"/>
      </g>
      <g>
        <path class="cls-2" d="M206.73,216.59l-14.52-1.35c.25-9.39.22-19.11-.08-29.14-.31-10.03-.91-20.65-1.82-31.84l14.56-1.18c.94,11.61,1.58,22.65,1.92,33.1.34,10.45.32,20.59-.07,30.41ZM240.67,211.32l6.52,19.69c-8.8,4.71-17.23,8.85-25.28,12.39-8.05,3.55-15.85,6.58-23.4,9.08l-4.34-20.82c7.22-2.37,14.64-5.21,22.25-8.51,7.61-3.3,15.7-7.25,24.25-11.83ZM237.52,167.66l1.85,22.91-38.29,3.1-1.85-22.91,38.29-3.1ZM238.72,288.72l-19.59,1.58-11.68-144.38,19.59-1.58,11.68,144.38ZM240.86,207.36l-1.73-21.34,70.94-5.74,1.73,21.34-70.94,5.74ZM241.34,175.88l-1.73-21.34,62.4-5.05,1.73,21.34-62.4,5.05ZM276.21,255.36l-12.67,18.4c-3.89-4.32-7.65-8.17-11.3-11.56-3.65-3.39-7.31-6.46-10.98-9.22l9.7-20.69c4.21,3.03,8.4,6.48,12.59,10.36,4.19,3.87,8.41,8.11,12.65,12.72ZM243.31,237.65l-1.73-21.34,70.94-5.74,1.73,21.34-70.94,5.74ZM285.35,188.75l-20.84,1.69-4.2-51.95,20.84-1.69,4.2,51.95ZM285.95,285.22c-1.59.13-4.11.2-7.56.22-3.45.02-6.79-.06-10-.22l-2.2-22.57c2.28.13,4.96.15,8.03.06,3.07-.09,5.61-.22,7.62-.38.83-.07,1.54-.23,2.11-.49.57-.25.97-.73,1.21-1.44.24-.7.31-1.68.2-2.94l-4.96-61.36,22.35-1.81,5.27,65.13c.36,4.39.41,8.13.15,11.2-.26,3.07-1.1,5.62-2.54,7.63-1.44,2.01-3.74,3.56-6.89,4.66-3.15,1.1-7.41,1.86-12.77,2.3Z"/>
        <path class="cls-2" d="M318.49,140.73l56.62-4.58,4.79,59.17-56.62,4.58-4.79-59.17ZM336.71,281.59l-15.46-16.12c3.6-5.45,6.4-11.5,8.39-18.13,1.99-6.64,3.22-14.26,3.71-22.89.48-8.62.27-18.58-.65-29.88l19.59-1.58c.81,10.04,1.12,19.31.92,27.81-.2,8.49-.93,16.32-2.21,23.48-1.28,7.16-3.1,13.81-5.46,19.95-2.37,6.14-5.31,11.93-8.83,17.38ZM351.2,277.89l-2.62-23.01c.59.06,1.59.13,2.99.23,1.4.1,2.9.16,4.5.19,1.6.03,3.05-.04,4.34-.19,1.29-.16,2.09-.41,2.4-.75.39-.35.62-1.71.68-4.08s.03-5.16-.11-8.36c-.13-3.2-.28-6.32-.44-9.36-.16-3.04-.27-5.4-.32-7.08l-23.23,1.88-1.73-21.34,43.82-3.54c.2,3.46.51,7.6.94,12.4.43,4.81.84,9.91,1.24,15.3.39,5.39.66,10.74.79,16.05.13,5.31.09,10.21-.14,14.7-.23,4.49-.82,8.15-1.77,10.96-.6,1.94-2,3.43-4.19,4.45-2.19,1.02-4.84,1.68-7.93,1.98-3.09.3-6.33.38-9.71.23-3.38-.15-6.56-.37-9.53-.65ZM339.81,160.49l1.33,16.48,17.45-1.41-1.33-16.48-17.45,1.41ZM410.03,238.06l-20.09,1.62-7.96-98.4,20.09-1.62,7.96,98.4ZM428.68,129.61l9.64,119.12c.36,4.4.45,8.12.27,11.19-.17,3.07-.9,5.6-2.17,7.6-1.27,2-3.38,3.54-6.32,4.62-2.95,1.08-7.01,1.83-12.2,2.25-2.68.22-5.07.33-7.18.34-2.11.01-4.84.05-8.21.11l-2.33-24.14c2.44-.09,4.79-.2,7.05-.33,2.26-.13,4.4-.28,6.41-.44.83-.07,1.54-.23,2.11-.49.57-.25.97-.74,1.21-1.44.24-.7.3-1.68.2-2.94l-9.2-113.78,20.72-1.68Z"/>
        <path class="cls-2" d="M454.73,197.01l-4.66-57.6,21.59-1.75,4.66,57.6-21.59,1.75ZM455.54,269.61l-5.04-62.3,22.85-1.85,5.04,62.3-22.85,1.85ZM470.55,195.73l-1.85-22.91,67.8-5.48,1.85,22.91-67.8,5.48ZM475.78,260.39l-1.85-22.91,67.8-5.48,1.85,22.91-67.8,5.48ZM496.35,238.19l-9.29-114.88,23.35-1.89,9.29,114.88-23.35,1.89ZM532.57,190.71l-4.66-57.6,21.59-1.75,4.66,57.6-21.59,1.75ZM542.18,262.6l-5.04-62.3,22.85-1.85,5.04,62.3-22.85,1.85Z"/>
        <path class="cls-2" d="M588.83,258.19l-16.26-19.85c1.52-3.07,2.77-6.07,3.76-8.99.98-2.92,1.71-6.17,2.18-9.73.47-3.56.68-7.74.63-12.53-.05-4.79-.36-10.63-.91-17.54l-4.71-58.22,108.6-8.79,1.78,21.97-86.5,7,2.93,36.25c.92,11.41,1.17,21.21.74,29.4-.43,8.2-1.63,15.51-3.6,21.93-1.97,6.42-4.84,12.79-8.63,19.1ZM688.44,252.34l-20.84,1.69-3.62-44.73-42.44,3.43,3.62,44.73-20.84,1.69-5.34-66.07,84.12-6.8,5.34,66.07ZM674.75,226.76l1.6,19.77-60.77,4.92-1.6-19.77,60.77-4.92ZM639.32,132.47l-22.1,1.79-1.98-24.48,22.1-1.79,1.98,24.48ZM650.2,195.1l-22.1,1.79-4.6-56.81,22.1-1.79,4.6,56.81ZM682.73,153.61l1.73,21.34-44.82,3.63-1.73-21.34,44.82-3.63Z"/>
        <path class="cls-2" d="M712.64,235.86l-2.16-26.68,69.43-5.62-5.03-62.15-69.18,5.6-2.16-26.68,93.03-7.53,9.34,115.51-93.28,7.55Z"/>
        <path class="cls-2" d="M932.02,145.29l1.85,22.91-103.96,8.41-1.85-22.91,103.96-8.41Z"/>
        <path class="cls-2" d="M1058.77,109.29l2.11,26.05-110.49,8.94-2.11-26.05,110.49-8.94ZM976.93,222.37l-4.97-27.08c7.14-1.31,12.84-3.49,17.1-6.52,4.26-3.03,7.23-6.98,8.9-11.86,1.67-4.87,2.22-10.82,1.65-17.83l-5.83-72.03,22.1-1.79,5.83,72.03c.96,11.83-.1,22.23-3.16,31.22-3.06,8.99-8.09,16.35-15.09,22.07-6.99,5.72-15.84,9.65-26.53,11.78Z"/>
        <path class="cls-2" d="M1183.12,124.97l1.85,22.91-103.96,8.41-1.85-22.91,103.96-8.41Z"/>
      </g>
    </g>
    <g>
      <g>
        <path class="cls-2" d="M317.51,408.99c-3.67.3-7.16.11-10.45-.56-3.3-.67-5.91-1.33-7.83-1.98l1.3-15.68c2.13.5,4.54,1.01,7.24,1.52,2.69.52,5.29.68,7.79.48,1.65-.13,3.03-.46,4.14-.99s1.94-1.23,2.48-2.11c.54-.88.77-1.89.68-3.02-.11-1.4-.65-2.56-1.61-3.49-.96-.93-2.21-1.78-3.74-2.56-1.54-.78-3.22-1.56-5.05-2.35-1.78-.86-3.59-1.82-5.42-2.88-1.83-1.06-3.53-2.36-5.1-3.91-1.57-1.55-2.89-3.45-3.96-5.71-1.07-2.26-1.73-4.98-1.99-8.18-.38-4.72.26-8.81,1.94-12.26,1.68-3.45,4.16-6.2,7.45-8.24,3.29-2.04,7.17-3.24,11.64-3.6,2.87-.23,5.7-.11,8.47.37,2.77.48,5.24,1.17,7.4,2.06l-.99,15.65c-1.54-.54-3.54-1.04-5.99-1.48-2.45-.44-4.79-.57-7.02-.39-2.34.19-4.1.77-5.29,1.73-1.18.97-1.71,2.22-1.58,3.75.11,1.33.65,2.44,1.64,3.33.98.89,2.24,1.71,3.78,2.46,1.53.75,3.19,1.55,4.98,2.41,1.78.79,3.58,1.7,5.4,2.73,1.82,1.02,3.54,2.31,5.13,3.85,1.6,1.55,2.93,3.45,4,5.7,1.07,2.26,1.73,4.98,1.99,8.18.38,4.72-.2,8.91-1.76,12.55-1.55,3.64-4,6.55-7.33,8.73-3.33,2.18-7.45,3.47-12.35,3.86Z"/>
        <path class="cls-2" d="M371.27,404.04c-3.09.25-5.82.37-8.21.36-2.39,0-4.46-.04-6.24-.1l-5.8-71.76c2.17-.31,4.96-.72,8.38-1.23,3.42-.51,6.88-.91,10.39-1.19,3.35-.27,6.55-.29,9.6-.07s5.78.89,8.2,2c2.42,1.11,4.4,2.84,5.93,5.2,1.53,2.36,2.45,5.5,2.77,9.42.26,3.26-.3,6.37-1.7,9.33-1.39,2.96-3.6,5.3-6.62,7.02l.02.2c2.3.62,4.39,1.72,6.26,3.31,1.87,1.59,3.38,3.53,4.53,5.81,1.15,2.29,1.84,4.83,2.06,7.62.32,3.99-.03,7.42-1.06,10.28-1.03,2.86-2.75,5.23-5.17,7.1-2.42,1.87-5.57,3.35-9.45,4.43-3.88,1.08-8.5,1.84-13.88,2.28ZM372.09,358.46c1.97-.16,3.6-.53,4.89-1.1,1.29-.57,2.23-1.42,2.81-2.54.58-1.12.8-2.51.67-4.17-.18-2.2-.92-3.76-2.23-4.69-1.31-.93-2.92-1.32-4.84-1.17-1.33.11-2.55.27-3.66.5-1.11.22-1.71.34-1.82.35l1.06,13.07,3.11-.25ZM375.78,388.3c1.49-.12,2.78-.39,3.87-.81,1.09-.42,1.97-1,2.63-1.72.67-.72,1.14-1.58,1.44-2.58.29-.99.39-2.12.29-3.39-.24-2.93-1.2-4.93-2.9-5.99-1.69-1.07-3.69-1.51-5.97-1.33l-5.03.41,1.28,15.77c.7.01,1.38-.03,2.04-.11.66-.09,1.45-.17,2.35-.24Z"/>
        <path class="cls-2" d="M412.9,327.53c2.21-.45,4.84-.88,7.89-1.29,3.05-.41,6.43-.77,10.16-1.07,3.19-.26,6.34-.21,9.46.14,3.11.35,5.98,1.26,8.62,2.72,2.64,1.46,4.82,3.68,6.57,6.65,1.74,2.97,2.81,6.95,3.22,11.94.44,5.39-.14,10.01-1.73,13.85-1.59,3.85-4.03,6.84-7.31,8.98-3.28,2.14-7.24,3.4-11.87,3.77-.91.07-1.83.13-2.76.17-.94.04-1.83.1-2.68.17l2,24.75-15.73,1.27-5.83-72.06ZM434.15,357.76c2.66-.22,4.85-1.11,6.57-2.69,1.72-1.58,2.46-3.9,2.21-6.96-.24-2.93-1.08-4.97-2.54-6.12-1.46-1.15-3.31-1.64-5.54-1.46-.96.08-1.86.17-2.71.27-.85.1-1.61.25-2.29.44l1.35,16.67c.43-.03.88-.05,1.36-.06.48,0,1.01-.03,1.6-.08Z"/>
        <path class="cls-2" d="M491.94,327.97l-1.18-14.57,30.42-2.46,1.18,14.57-30.42,2.46ZM495.45,377.41l-3-22.16c1.84-3.77,3.38-7.69,4.63-11.78,1.25-4.08,2.19-8.35,2.82-12.79.63-4.44.95-9,.94-13.69l12.47,1.2c-.24,7.66-1.08,14.99-2.52,22-1.44,7.02-3.44,13.62-5.99,19.82-2.55,6.2-5.67,12-9.36,17.38ZM502.97,400.81l-4.6-56.89,25.71-2.08,4,49.4-19.16,1.55-1.1-13.57,8.3-.67-1.72-21.26-3.19.26,3.42,42.32-11.66.94ZM525.23,325.28l-1.18-14.57,40.8-3.3,1.18,14.57-40.8,3.3ZM527.15,358.98l-1.18-14.57,42.08-3.4,1.18,14.57-42.08,3.4ZM538.59,399.04l-12.27-11.56c1.41-2.39,2.56-4.79,3.44-7.21.88-2.42,1.49-5.09,1.84-8.04.35-2.94.5-6.45.43-10.53s-.33-9.01-.79-14.8l-2.35-29.04,13.25-1.07,2.35,29.04c.52,6.46.82,12.14.9,17.06s-.11,9.39-.56,13.41c-.45,4.02-1.19,7.85-2.21,11.48-1.02,3.63-2.36,7.39-4.03,11.28ZM553.52,397.73l-6.71-82.94,13.25-1.07,6.71,82.94-13.25,1.07Z"/>
        <path class="cls-2" d="M583.11,324.51l-1.1-13.57,71.22-5.76,1.1,13.57-71.22,5.76ZM583.84,333.5l-1.74-21.56,13.25-1.07,1.74,21.56-13.25,1.07ZM586.33,352.38l-2.68-15.25c3.07-.45,5.78-.9,8.13-1.36,2.35-.46,4.35-1.04,6.01-1.74,1.66-.7,2.99-1.63,3.99-2.78,1-1.15,1.7-2.62,2.1-4.39.39-1.77.48-3.99.26-6.65l13.25-1.07c.31,3.86.15,7.32-.49,10.39s-1.73,5.8-3.27,8.2c-1.55,2.4-3.6,4.53-6.15,6.38-2.56,1.85-5.59,3.45-9.1,4.8-3.51,1.36-7.52,2.52-12.05,3.49ZM590.24,396.67l-5.68-14.61c5.36-1.97,9.64-4,12.85-6.06s5.59-4.42,7.14-7.06c1.55-2.64,2.51-5.73,2.87-9.27.36-3.54.33-7.78-.06-12.7l13.25-1.07c.56,6.92.46,12.99-.29,18.21-.76,5.22-2.3,9.8-4.64,13.74-2.33,3.94-5.59,7.42-9.76,10.43-4.18,3.02-9.4,5.82-15.68,8.4ZM646.98,390.77c-4.26.34-7.68.27-10.27-.22-2.59-.49-4.51-1.79-5.78-3.9-1.27-2.11-2.09-5.46-2.46-10.05l-.95-11.68-38.73,3.13-1.1-13.57,52.46-4.24,1.77,21.86c.1,1.2.29,2.1.58,2.71.29.62.7,1.02,1.22,1.21.52.19,1.16.26,1.9.2.8-.06,1.44-.23,1.93-.51.49-.27.84-.74,1.05-1.39.21-.65.3-1.58.26-2.78l-.68-15.32,12.44.8.71,17.72c.2,4.41-.25,7.71-1.33,9.9-1.08,2.2-2.73,3.7-4.94,4.52-2.21.82-4.91,1.35-8.11,1.61ZM611.12,315.01l-1.24-15.27,14.05-1.14,1.24,15.27-14.05,1.14ZM640.52,346.59c-3.67.36-6.67.51-9.01.43-2.34-.08-4.15-.48-5.44-1.22-1.29-.73-2.25-1.94-2.87-3.64-.62-1.69-1.04-3.97-1.28-6.83l-1.36-16.77,13.25-1.07,1.2,14.77c.05.6.22,1.04.51,1.31.29.28.74.43,1.36.44.62.02,1.38-.01,2.28-.08.9-.07,1.62-.16,2.15-.27.53-.11.91-.33,1.15-.65.24-.32.37-.75.38-1.29l.12-4.43,13.38.52v3.92c.03,3.08-.11,5.53-.41,7.37s-.98,3.23-2.03,4.18c-1.05.96-2.63,1.65-4.73,2.09-2.11.44-5,.84-8.66,1.2ZM641.57,325.81l-1.5-18.56,13.25-1.07,1.5,18.56-13.25,1.07Z"/>
        <path class="cls-2" d="M676.47,339.06l-7.12-14.49c4.87-3.41,9.62-7.44,14.25-12.1,4.63-4.66,9.17-10.39,13.6-17.17l18.68-1.51c5.47,5.99,10.86,10.91,16.18,14.76,5.32,3.86,10.66,7.07,16.01,9.65l-4.7,15.45c-5.95-3.34-11.91-7.19-17.89-11.56-5.98-4.37-11.99-9.73-18.02-16.07-4.93,7.23-10,13.48-15.2,18.76-5.2,5.28-10.47,10.04-15.8,14.29ZM676.28,357.56l-1.18-14.57,70.26-5.68,1.18,14.57-70.26,5.68ZM733.81,362.35l2.92,14.23c-8.24,2.14-16.96,4.07-26.17,5.78-9.21,1.72-18.93,3.22-29.17,4.52l-1.66-14.53c10.03-1.21,19.54-2.65,28.54-4.32,9-1.67,17.51-3.56,25.54-5.68ZM689.03,336.34l-1.1-13.57,41.52-3.36,1.1,13.57-41.52,3.36ZM700.9,380.69l-11.2-7.33c1.87-4.71,3.73-9.39,5.57-14.06,1.85-4.67,3.65-9.32,5.42-13.95l11.34,7.12c-1.76,4.7-3.59,9.4-5.49,14.11-1.9,4.71-3.78,9.41-5.65,14.12ZM748.62,379.54l-11.03,6.72c-1.94-4.73-3.91-9.4-5.91-13.99s-4.07-9.11-6.2-13.56l10.63-7.69c1.99,4.12,4.01,8.53,6.05,13.22,2.04,4.69,4.19,9.79,6.46,15.3Z"/>
        <path class="cls-2" d="M826.68,351.02l3.62,16.99c-4.57,1.84-9.34,3.42-14.33,4.72-4.99,1.31-9.66,2.14-14.02,2.49-9,.73-16.2-.85-21.6-4.73-5.4-3.88-8.45-10.15-9.15-18.8-.6-7.45,1-14.13,4.81-20.03,3.81-5.9,9.74-11.35,17.8-16.36,8.06-5,18.12-9.8,30.18-14.4l4.18,16.84c-15.22,5.25-26.3,10.55-33.23,15.9-6.93,5.35-10.18,10.79-9.73,16.31.19,2.33.98,4.16,2.37,5.48,1.39,1.33,3.22,2.2,5.48,2.62,2.26.42,4.79.52,7.62.29,3.99-.32,8.3-1.17,12.93-2.55,4.63-1.38,8.99-2.97,13.08-4.78ZM796.82,322.6l-12.56,7.65c-2.2-5.38-4.34-10.93-6.41-16.66-2.07-5.73-4.05-11.63-5.93-17.7l13.19-5.89c1.81,5.82,3.7,11.44,5.67,16.87,1.96,5.43,3.98,10.68,6.05,15.73Z"/>
        <path class="cls-2" d="M861.97,338.22l-10.77-11.99c8.81-12.3,14.95-28.1,18.43-47.4l13.87,4.5c-4.05,22.16-11.22,40.46-21.52,54.88ZM911.58,301.76c-1.96,18.84-7.26,34.26-15.91,46.24-8.65,11.99-20.68,20.78-36.08,26.38l-4.42-16.92c11.87-4.31,21.21-10.66,28.04-19.04,6.82-8.39,11.32-19.33,13.5-32.84l-21.88,1.77-1.34-16.57,36.97-2.99,1.13,13.97ZM929.54,352.85l-4.95,16.27c-7.26-3.7-13.77-7.91-19.51-12.64-5.74-4.73-10.84-10.12-15.29-16.19l10.31-11.68c3.74,5.19,7.98,9.72,12.71,13.59,4.73,3.87,10.31,7.42,16.73,10.65Z"/>
        <path class="cls-2" d="M1012.2,275.84l1.1,13.57-73.78,5.97-1.1-13.57,73.78-5.97ZM962.42,310.21l-5.22,11.98-17.01-12.59,5.22-11.97,17.01,12.59ZM953.2,365.2l-11.27-8.13c1.31-2.99,2.54-6.15,3.69-9.49,1.15-3.34,2.32-6.97,3.5-10.88l11.93,6.47c-1.27,4.12-2.55,8.01-3.84,11.66-1.29,3.65-2.63,7.11-4.02,10.37ZM975.04,317.22l2.34,13.07c-5.35,1.37-10.79,2.62-16.29,3.73-5.51,1.12-11.01,2.16-16.5,3.14l-1.88-13.31c5.49-.98,10.94-2.01,16.35-3.08,5.41-1.07,10.73-2.26,15.99-3.55ZM953.95,311.89l-8.33-7.56c2.12-3.65,3.96-7,5.54-10.04,1.58-3.04,3-5.95,4.28-8.73l8.88,6.51c-1.59,3.48-3.28,6.88-5.04,10.2-1.77,3.32-3.54,6.53-5.33,9.62ZM957.05,333.34l-8.33-7.56c3.06-5.2,6.08-10.44,9.06-15.7,2.98-5.26,5.94-10.53,8.89-15.79l8.31,7.36c-2.89,5.33-5.84,10.64-8.84,15.94-3,5.3-6.03,10.55-9.09,15.75ZM969.48,283.31l-12.1,2.39c-.58-1.9-1.27-3.78-2.07-5.66-.79-1.88-1.65-3.82-2.56-5.82l11.48-4.14c1.04,2.26,2,4.51,2.88,6.75.88,2.24,1.67,4.4,2.37,6.49ZM982.9,364.7c-4.47.36-8.12.49-10.94.38-2.82-.11-5.01-.7-6.57-1.78-1.56-1.08-2.72-2.89-3.49-5.44-.77-2.55-1.34-6.09-1.7-10.61l-.83-10.28,14.05-1.14.83,10.28c.08,1,.28,1.79.59,2.36.31.58.78.99,1.39,1.25.61.25,1.36.41,2.25.47s1.97.04,3.25-.06c2.55-.21,4.49-.5,5.8-.87,1.31-.37,2.19-.93,2.64-1.67.45-.74.67-1.74.68-3.02l-.03-3.31,13.77.39v4.82c0,4.02-.33,7.19-.97,9.52-.64,2.33-1.75,4.04-3.32,5.14-1.57,1.1-3.76,1.88-6.56,2.34-2.8.46-6.41.87-10.83,1.23ZM982.55,332.59l-9.98,1.81c-.5-3.51-1.09-7.03-1.78-10.55-.69-3.53-1.37-6.87-2.06-10.03l9.74-2.8c.7,3.36,1.41,6.87,2.14,10.53.72,3.66,1.37,7.34,1.94,11.04ZM995.87,306.49l-5.22,11.97-17.01-12.59,5.22-11.97,17.01,12.59ZM985.38,347.63c-1.65-1.81-3.35-3.53-5.12-5.16-1.77-1.63-3.34-3-4.71-4.09l6.34-12.07c1.66,1.34,3.55,2.98,5.66,4.92s4.14,4,6.09,6.19l-8.25,10.21ZM987.41,308.18l-8.33-7.56c2.12-3.65,3.96-7,5.54-10.04,1.58-3.04,3-5.95,4.28-8.73l8.89,6.51c-1.59,3.48-3.28,6.88-5.04,10.2-1.77,3.32-3.54,6.53-5.33,9.62ZM1008.49,313.51l2.34,13.07c-5.35,1.37-10.31,2.53-14.87,3.46-4.56.94-9.37,1.88-14.44,2.83l-1.88-13.31c3.38-.61,6.6-1.22,9.66-1.83,3.06-.62,6.14-1.27,9.24-1.95,3.11-.69,6.42-1.44,9.94-2.26ZM993.89,283.95l-11.83-3.16c.57-2.26,1.08-4.41,1.53-6.45.45-2.05.84-4.02,1.17-5.92l12.21,1.93c-.37,2.11-.8,4.3-1.31,6.59-.51,2.29-1.1,4.63-1.76,7.02ZM990.51,329.63l-8.33-7.56c3.06-5.2,6.08-10.44,9.06-15.7,2.98-5.26,5.94-10.53,8.89-15.79l8.31,7.36c-2.89,5.33-5.84,10.64-8.84,15.94-3,5.3-6.03,10.55-9.09,15.75ZM1009.92,360.01c-1.66-3.28-3.43-6.65-5.32-10.12-1.89-3.46-3.97-6.98-6.24-10.55l9.39-9.1c2.26,3.5,4.58,7.11,6.94,10.84,2.36,3.73,4.44,7.39,6.23,11l-11.01,7.92ZM1016,328.88l-9.98,1.81c-.5-3.51-1.09-7.03-1.78-10.55-.69-3.53-1.37-6.87-2.06-10.03l9.74-2.8c.7,3.36,1.41,6.87,2.14,10.53s1.37,7.34,1.94,11.04Z"/>
        <path class="cls-2" d="M1028.9,290.56l-1.18-14.57,74.25-6.01,1.18,14.57-74.25,6.01ZM1095.31,347.57c-1.7.14-3.6.24-5.68.31-2.08.07-4.04.11-5.86.12l-1.45-14.95c.86,0,1.67-.02,2.45-.05.77-.03,1.8-.09,3.08-.2.53-.04.98-.15,1.34-.31.36-.16.62-.47.77-.92.15-.45.2-1.07.13-1.87l-1.66-20.46-41.04,3.32,3.08,38.13-13.41,1.08-4.26-52.7,67.87-5.49,3.08,38.03c.3,3.66.29,6.62,0,8.89-.3,2.27-1.1,3.96-2.4,5.07-1.3,1.11-3.31,1.78-6.03,2ZM1064.44,357.41l-7.51-92.82,14.37-1.16,7.51,92.82-14.37,1.16Z"/>
      </g>
      <g>
        <path class="cls-2" d="M317.51,408.99c-3.67.3-7.16.11-10.45-.56-3.3-.67-5.91-1.33-7.83-1.98l1.3-15.68c2.13.5,4.54,1.01,7.24,1.52,2.69.52,5.29.68,7.79.48,1.65-.13,3.03-.46,4.14-.99s1.94-1.23,2.48-2.11c.54-.88.77-1.89.68-3.02-.11-1.4-.65-2.56-1.61-3.49-.96-.93-2.21-1.78-3.74-2.56-1.54-.78-3.22-1.56-5.05-2.35-1.78-.86-3.59-1.82-5.42-2.88-1.83-1.06-3.53-2.36-5.1-3.91-1.57-1.55-2.89-3.45-3.96-5.71-1.07-2.26-1.73-4.98-1.99-8.18-.38-4.72.26-8.81,1.94-12.26,1.68-3.45,4.16-6.2,7.45-8.24,3.29-2.04,7.17-3.24,11.64-3.6,2.87-.23,5.7-.11,8.47.37,2.77.48,5.24,1.17,7.4,2.06l-.99,15.65c-1.54-.54-3.54-1.04-5.99-1.48-2.45-.44-4.79-.57-7.02-.39-2.34.19-4.1.77-5.29,1.73-1.18.97-1.71,2.22-1.58,3.75.11,1.33.65,2.44,1.64,3.33.98.89,2.24,1.71,3.78,2.46,1.53.75,3.19,1.55,4.98,2.41,1.78.79,3.58,1.7,5.4,2.73,1.82,1.02,3.54,2.31,5.13,3.85,1.6,1.55,2.93,3.45,4,5.7,1.07,2.26,1.73,4.98,1.99,8.18.38,4.72-.2,8.91-1.76,12.55-1.55,3.64-4,6.55-7.33,8.73-3.33,2.18-7.45,3.47-12.35,3.86Z"/>
        <path class="cls-2" d="M371.27,404.04c-3.09.25-5.82.37-8.21.36-2.39,0-4.46-.04-6.24-.1l-5.8-71.76c2.17-.31,4.96-.72,8.38-1.23,3.42-.51,6.88-.91,10.39-1.19,3.35-.27,6.55-.29,9.6-.07s5.78.89,8.2,2c2.42,1.11,4.4,2.84,5.93,5.2,1.53,2.36,2.45,5.5,2.77,9.42.26,3.26-.3,6.37-1.7,9.33-1.39,2.96-3.6,5.3-6.62,7.02l.02.2c2.3.62,4.39,1.72,6.26,3.31,1.87,1.59,3.38,3.53,4.53,5.81,1.15,2.29,1.84,4.83,2.06,7.62.32,3.99-.03,7.42-1.06,10.28-1.03,2.86-2.75,5.23-5.17,7.1-2.42,1.87-5.57,3.35-9.45,4.43-3.88,1.08-8.5,1.84-13.88,2.28ZM372.09,358.46c1.97-.16,3.6-.53,4.89-1.1,1.29-.57,2.23-1.42,2.81-2.54.58-1.12.8-2.51.67-4.17-.18-2.2-.92-3.76-2.23-4.69-1.31-.93-2.92-1.32-4.84-1.17-1.33.11-2.55.27-3.66.5-1.11.22-1.71.34-1.82.35l1.06,13.07,3.11-.25ZM375.78,388.3c1.49-.12,2.78-.39,3.87-.81,1.09-.42,1.97-1,2.63-1.72.67-.72,1.14-1.58,1.44-2.58.29-.99.39-2.12.29-3.39-.24-2.93-1.2-4.93-2.9-5.99-1.69-1.07-3.69-1.51-5.97-1.33l-5.03.41,1.28,15.77c.7.01,1.38-.03,2.04-.11.66-.09,1.45-.17,2.35-.24Z"/>
        <path class="cls-2" d="M412.9,327.53c2.21-.45,4.84-.88,7.89-1.29,3.05-.41,6.43-.77,10.16-1.07,3.19-.26,6.34-.21,9.46.14,3.11.35,5.98,1.26,8.62,2.72,2.64,1.46,4.82,3.68,6.57,6.65,1.74,2.97,2.81,6.95,3.22,11.94.44,5.39-.14,10.01-1.73,13.85-1.59,3.85-4.03,6.84-7.31,8.98-3.28,2.14-7.24,3.4-11.87,3.77-.91.07-1.83.13-2.76.17-.94.04-1.83.1-2.68.17l2,24.75-15.73,1.27-5.83-72.06ZM434.15,357.76c2.66-.22,4.85-1.11,6.57-2.69,1.72-1.58,2.46-3.9,2.21-6.96-.24-2.93-1.08-4.97-2.54-6.12-1.46-1.15-3.31-1.64-5.54-1.46-.96.08-1.86.17-2.71.27-.85.1-1.61.25-2.29.44l1.35,16.67c.43-.03.88-.05,1.36-.06.48,0,1.01-.03,1.6-.08Z"/>
        <path class="cls-2" d="M491.94,327.97l-1.18-14.57,30.42-2.46,1.18,14.57-30.42,2.46ZM495.45,377.41l-3-22.16c1.84-3.77,3.38-7.69,4.63-11.78,1.25-4.08,2.19-8.35,2.82-12.79.63-4.44.95-9,.94-13.69l12.47,1.2c-.24,7.66-1.08,14.99-2.52,22-1.44,7.02-3.44,13.62-5.99,19.82-2.55,6.2-5.67,12-9.36,17.38ZM502.97,400.81l-4.6-56.89,25.71-2.08,4,49.4-19.16,1.55-1.1-13.57,8.3-.67-1.72-21.26-3.19.26,3.42,42.32-11.66.94ZM525.23,325.28l-1.18-14.57,40.8-3.3,1.18,14.57-40.8,3.3ZM527.15,358.98l-1.18-14.57,42.08-3.4,1.18,14.57-42.08,3.4ZM538.59,399.04l-12.27-11.56c1.41-2.39,2.56-4.79,3.44-7.21.88-2.42,1.49-5.09,1.84-8.04.35-2.94.5-6.45.43-10.53s-.33-9.01-.79-14.8l-2.35-29.04,13.25-1.07,2.35,29.04c.52,6.46.82,12.14.9,17.06s-.11,9.39-.56,13.41c-.45,4.02-1.19,7.85-2.21,11.48-1.02,3.63-2.36,7.39-4.03,11.28ZM553.52,397.73l-6.71-82.94,13.25-1.07,6.71,82.94-13.25,1.07Z"/>
        <path class="cls-2" d="M583.11,324.51l-1.1-13.57,71.22-5.76,1.1,13.57-71.22,5.76ZM583.84,333.5l-1.74-21.56,13.25-1.07,1.74,21.56-13.25,1.07ZM586.33,352.38l-2.68-15.25c3.07-.45,5.78-.9,8.13-1.36,2.35-.46,4.35-1.04,6.01-1.74,1.66-.7,2.99-1.63,3.99-2.78,1-1.15,1.7-2.62,2.1-4.39.39-1.77.48-3.99.26-6.65l13.25-1.07c.31,3.86.15,7.32-.49,10.39s-1.73,5.8-3.27,8.2c-1.55,2.4-3.6,4.53-6.15,6.38-2.56,1.85-5.59,3.45-9.1,4.8-3.51,1.36-7.52,2.52-12.05,3.49ZM590.24,396.67l-5.68-14.61c5.36-1.97,9.64-4,12.85-6.06s5.59-4.42,7.14-7.06c1.55-2.64,2.51-5.73,2.87-9.27.36-3.54.33-7.78-.06-12.7l13.25-1.07c.56,6.92.46,12.99-.29,18.21-.76,5.22-2.3,9.8-4.64,13.74-2.33,3.94-5.59,7.42-9.76,10.43-4.18,3.02-9.4,5.82-15.68,8.4ZM646.98,390.77c-4.26.34-7.68.27-10.27-.22-2.59-.49-4.51-1.79-5.78-3.9-1.27-2.11-2.09-5.46-2.46-10.05l-.95-11.68-38.73,3.13-1.1-13.57,52.46-4.24,1.77,21.86c.1,1.2.29,2.1.58,2.71.29.62.7,1.02,1.22,1.21.52.19,1.16.26,1.9.2.8-.06,1.44-.23,1.93-.51.49-.27.84-.74,1.05-1.39.21-.65.3-1.58.26-2.78l-.68-15.32,12.44.8.71,17.72c.2,4.41-.25,7.71-1.33,9.9-1.08,2.2-2.73,3.7-4.94,4.52-2.21.82-4.91,1.35-8.11,1.61ZM611.12,315.01l-1.24-15.27,14.05-1.14,1.24,15.27-14.05,1.14ZM640.52,346.59c-3.67.36-6.67.51-9.01.43-2.34-.08-4.15-.48-5.44-1.22-1.29-.73-2.25-1.94-2.87-3.64-.62-1.69-1.04-3.97-1.28-6.83l-1.36-16.77,13.25-1.07,1.2,14.77c.05.6.22,1.04.51,1.31.29.28.74.43,1.36.44.62.02,1.38-.01,2.28-.08.9-.07,1.62-.16,2.15-.27.53-.11.91-.33,1.15-.65.24-.32.37-.75.38-1.29l.12-4.43,13.38.52v3.92c.03,3.08-.11,5.53-.41,7.37s-.98,3.23-2.03,4.18c-1.05.96-2.63,1.65-4.73,2.09-2.11.44-5,.84-8.66,1.2ZM641.57,325.81l-1.5-18.56,13.25-1.07,1.5,18.56-13.25,1.07Z"/>
        <path class="cls-2" d="M676.47,339.06l-7.12-14.49c4.87-3.41,9.62-7.44,14.25-12.1,4.63-4.66,9.17-10.39,13.6-17.17l18.68-1.51c5.47,5.99,10.86,10.91,16.18,14.76,5.32,3.86,10.66,7.07,16.01,9.65l-4.7,15.45c-5.95-3.34-11.91-7.19-17.89-11.56-5.98-4.37-11.99-9.73-18.02-16.07-4.93,7.23-10,13.48-15.2,18.76-5.2,5.28-10.47,10.04-15.8,14.29ZM676.28,357.56l-1.18-14.57,70.26-5.68,1.18,14.57-70.26,5.68ZM733.81,362.35l2.92,14.23c-8.24,2.14-16.96,4.07-26.17,5.78-9.21,1.72-18.93,3.22-29.17,4.52l-1.66-14.53c10.03-1.21,19.54-2.65,28.54-4.32,9-1.67,17.51-3.56,25.54-5.68ZM689.03,336.34l-1.1-13.57,41.52-3.36,1.1,13.57-41.52,3.36ZM700.9,380.69l-11.2-7.33c1.87-4.71,3.73-9.39,5.57-14.06,1.85-4.67,3.65-9.32,5.42-13.95l11.34,7.12c-1.76,4.7-3.59,9.4-5.49,14.11-1.9,4.71-3.78,9.41-5.65,14.12ZM748.62,379.54l-11.03,6.72c-1.94-4.73-3.91-9.4-5.91-13.99s-4.07-9.11-6.2-13.56l10.63-7.69c1.99,4.12,4.01,8.53,6.05,13.22,2.04,4.69,4.19,9.79,6.46,15.3Z"/>
        <path class="cls-2" d="M826.68,351.02l3.62,16.99c-4.57,1.84-9.34,3.42-14.33,4.72-4.99,1.31-9.66,2.14-14.02,2.49-9,.73-16.2-.85-21.6-4.73-5.4-3.88-8.45-10.15-9.15-18.8-.6-7.45,1-14.13,4.81-20.03,3.81-5.9,9.74-11.35,17.8-16.36,8.06-5,18.12-9.8,30.18-14.4l4.18,16.84c-15.22,5.25-26.3,10.55-33.23,15.9-6.93,5.35-10.18,10.79-9.73,16.31.19,2.33.98,4.16,2.37,5.48,1.39,1.33,3.22,2.2,5.48,2.62,2.26.42,4.79.52,7.62.29,3.99-.32,8.3-1.17,12.93-2.55,4.63-1.38,8.99-2.97,13.08-4.78ZM796.82,322.6l-12.56,7.65c-2.2-5.38-4.34-10.93-6.41-16.66-2.07-5.73-4.05-11.63-5.93-17.7l13.19-5.89c1.81,5.82,3.7,11.44,5.67,16.87,1.96,5.43,3.98,10.68,6.05,15.73Z"/>
        <path class="cls-2" d="M861.97,338.22l-10.77-11.99c8.81-12.3,14.95-28.1,18.43-47.4l13.87,4.5c-4.05,22.16-11.22,40.46-21.52,54.88ZM911.58,301.76c-1.96,18.84-7.26,34.26-15.91,46.24-8.65,11.99-20.68,20.78-36.08,26.38l-4.42-16.92c11.87-4.31,21.21-10.66,28.04-19.04,6.82-8.39,11.32-19.33,13.5-32.84l-21.88,1.77-1.34-16.57,36.97-2.99,1.13,13.97ZM929.54,352.85l-4.95,16.27c-7.26-3.7-13.77-7.91-19.51-12.64-5.74-4.73-10.84-10.12-15.29-16.19l10.31-11.68c3.74,5.19,7.98,9.72,12.71,13.59,4.73,3.87,10.31,7.42,16.73,10.65Z"/>
        <path class="cls-2" d="M1012.2,275.84l1.1,13.57-73.78,5.97-1.1-13.57,73.78-5.97ZM962.42,310.21l-5.22,11.98-17.01-12.59,5.22-11.97,17.01,12.59ZM953.2,365.2l-11.27-8.13c1.31-2.99,2.54-6.15,3.69-9.49,1.15-3.34,2.32-6.97,3.5-10.88l11.93,6.47c-1.27,4.12-2.55,8.01-3.84,11.66-1.29,3.65-2.63,7.11-4.02,10.37ZM975.04,317.22l2.34,13.07c-5.35,1.37-10.79,2.62-16.29,3.73-5.51,1.12-11.01,2.16-16.5,3.14l-1.88-13.31c5.49-.98,10.94-2.01,16.35-3.08,5.41-1.07,10.73-2.26,15.99-3.55ZM953.95,311.89l-8.33-7.56c2.12-3.65,3.96-7,5.54-10.04,1.58-3.04,3-5.95,4.28-8.73l8.88,6.51c-1.59,3.48-3.28,6.88-5.04,10.2-1.77,3.32-3.54,6.53-5.33,9.62ZM957.05,333.34l-8.33-7.56c3.06-5.2,6.08-10.44,9.06-15.7,2.98-5.26,5.94-10.53,8.89-15.79l8.31,7.36c-2.89,5.33-5.84,10.64-8.84,15.94-3,5.3-6.03,10.55-9.09,15.75ZM969.48,283.31l-12.1,2.39c-.58-1.9-1.27-3.78-2.07-5.66-.79-1.88-1.65-3.82-2.56-5.82l11.48-4.14c1.04,2.26,2,4.51,2.88,6.75.88,2.24,1.67,4.4,2.37,6.49ZM982.9,364.7c-4.47.36-8.12.49-10.94.38-2.82-.11-5.01-.7-6.57-1.78-1.56-1.08-2.72-2.89-3.49-5.44-.77-2.55-1.34-6.09-1.7-10.61l-.83-10.28,14.05-1.14.83,10.28c.08,1,.28,1.79.59,2.36.31.58.78.99,1.39,1.25.61.25,1.36.41,2.25.47s1.97.04,3.25-.06c2.55-.21,4.49-.5,5.8-.87,1.31-.37,2.19-.93,2.64-1.67.45-.74.67-1.74.68-3.02l-.03-3.31,13.77.39v4.82c0,4.02-.33,7.19-.97,9.52-.64,2.33-1.75,4.04-3.32,5.14-1.57,1.1-3.76,1.88-6.56,2.34-2.8.46-6.41.87-10.83,1.23ZM982.55,332.59l-9.98,1.81c-.5-3.51-1.09-7.03-1.78-10.55-.69-3.53-1.37-6.87-2.06-10.03l9.74-2.8c.7,3.36,1.41,6.87,2.14,10.53.72,3.66,1.37,7.34,1.94,11.04ZM995.87,306.49l-5.22,11.97-17.01-12.59,5.22-11.97,17.01,12.59ZM985.38,347.63c-1.65-1.81-3.35-3.53-5.12-5.16-1.77-1.63-3.34-3-4.71-4.09l6.34-12.07c1.66,1.34,3.55,2.98,5.66,4.92s4.14,4,6.09,6.19l-8.25,10.21ZM987.41,308.18l-8.33-7.56c2.12-3.65,3.96-7,5.54-10.04,1.58-3.04,3-5.95,4.28-8.73l8.89,6.51c-1.59,3.48-3.28,6.88-5.04,10.2-1.77,3.32-3.54,6.53-5.33,9.62ZM1008.49,313.51l2.34,13.07c-5.35,1.37-10.31,2.53-14.87,3.46-4.56.94-9.37,1.88-14.44,2.83l-1.88-13.31c3.38-.61,6.6-1.22,9.66-1.83,3.06-.62,6.14-1.27,9.24-1.95,3.11-.69,6.42-1.44,9.94-2.26ZM993.89,283.95l-11.83-3.16c.57-2.26,1.08-4.41,1.53-6.45.45-2.05.84-4.02,1.17-5.92l12.21,1.93c-.37,2.11-.8,4.3-1.31,6.59-.51,2.29-1.1,4.63-1.76,7.02ZM990.51,329.63l-8.33-7.56c3.06-5.2,6.08-10.44,9.06-15.7,2.98-5.26,5.94-10.53,8.89-15.79l8.31,7.36c-2.89,5.33-5.84,10.64-8.84,15.94-3,5.3-6.03,10.55-9.09,15.75ZM1009.92,360.01c-1.66-3.28-3.43-6.65-5.32-10.12-1.89-3.46-3.97-6.98-6.24-10.55l9.39-9.1c2.26,3.5,4.58,7.11,6.94,10.84,2.36,3.73,4.44,7.39,6.23,11l-11.01,7.92ZM1016,328.88l-9.98,1.81c-.5-3.51-1.09-7.03-1.78-10.55-.69-3.53-1.37-6.87-2.06-10.03l9.74-2.8c.7,3.36,1.41,6.87,2.14,10.53s1.37,7.34,1.94,11.04Z"/>
        <path class="cls-2" d="M1028.9,290.56l-1.18-14.57,74.25-6.01,1.18,14.57-74.25,6.01ZM1095.31,347.57c-1.7.14-3.6.24-5.68.31-2.08.07-4.04.11-5.86.12l-1.45-14.95c.86,0,1.67-.02,2.45-.05.77-.03,1.8-.09,3.08-.2.53-.04.98-.15,1.34-.31.36-.16.62-.47.77-.92.15-.45.2-1.07.13-1.87l-1.66-20.46-41.04,3.32,3.08,38.13-13.41,1.08-4.26-52.7,67.87-5.49,3.08,38.03c.3,3.66.29,6.62,0,8.89-.3,2.27-1.1,3.96-2.4,5.07-1.3,1.11-3.31,1.78-6.03,2ZM1064.44,357.41l-7.51-92.82,14.37-1.16,7.51,92.82-14.37,1.16Z"/>
      </g>
    </g>
  </g>
</svg>