<svg xmlns="http://www.w3.org/2000/svg" xmlns:xlink="http://www.w3.org/1999/xlink" width="1288.73" height="573.738" viewBox="0 0 1288.73 573.738"><defs><clipPath id="a"><rect width="830.373" height="435.724" transform="translate(128.235 2514.903)" fill="none"/></clipPath></defs><g transform="translate(-2718 -9509.002)"><path d="M1275.73,2555.74l-309-72L495,2479,80,2568,0,2819l70,213,332.639,20.738,430.091-54,281-99,144-115,31-176Z" transform="translate(2718 7030)" fill="#e60012"/><g transform="translate(2718 7030)" opacity="0.75" style="mix-blend-mode:multiply;isolation:isolate"><g clip-path="url(#a)"><path d="M269.371,2725.819l-19.482,36.775q-24.72-13.206-38.276-20.988-25.428,43.263-83.378,53.32a220.136,220.136,0,0,0,32.892-37.482q14.012-19.839,18.907-32.673-15.505-7.458-48.509-23.809l13.33-25.491,47.178,17.267q6.772-16.644,12.735-57.954l40.652,9.576q-4.275,28.762-19.364,61.8,12.459,5.71,43.315,19.656"/><path d="M437.683,2688.547l4.355,43.113q-96.723,16.455-145.729,23.03l-7.7-36.051q56.571-10.833,149.072-30.092M395.732,2608.8l4.932,37.508q-69.906,15.036-90.14,16.868-6.537-27.475-9-34.834,61.409-13.378,94.208-19.542"/><path d="M591.226,2686.271l3.807,30.681q-67.377,10.611-128.258,22.651l-4.581-29.3q35.965-8.187,60.966-14.561-.364-26.487-1.038-35.145-18.816,4.359-44.3,10.812l-5.629-34.137q8.573-1.161,45.637-7.275,35.637-5.624,39.745-6.554.218,37.786-1.659,65.9Z"/><path d="M755.906,2597.5l2.264,30.434L601.63,2653.75l-5.8-30.6Q700.147,2607.2,755.906,2597.5"/><path d="M830.943,2636.223q-19.324,36.249-29.71,53.74-17.068-22.978-24.945-70.775a510.3,510.3,0,0,1-5.864-62.9l31.042-1.613q-4.124,32.745,2.153,70.777a172.572,172.572,0,0,0,5.323,23.167q7.923-3.562,22-12.4m127.665,14.765-15.2,26.3q-17.85-15.588-28.444-20.606a26.556,26.556,0,0,1-7.25,10.714A31.728,31.728,0,0,1,891,2675.41a30.092,30.092,0,0,1-5.446.4q-14.219.342-23.509-7.4a25.147,25.147,0,0,1-9.68-17.688q-1.646-13,5.928-21.766,6.96-7.911,18.909-9.881a40.413,40.413,0,0,1,12.513-.059,284.533,284.533,0,0,0-8.311-33.7q-29.381,4.094-37.344,4.405l-7.416-34.343q19.5-3.216,36.21-6.722l-9.3-27.52,33.284-6.24q3.218,19.507,4.292,32.1l31.538-6.2,6.981,27.15q-14.919,3.717-30.323,9.008,8.025,35,8.082,49.011,21.479,7.227,41.193,25.015m-63.453-3.563q.042-2.76-4.074-4.963a18.084,18.084,0,0,0-8.386-2.249,12.207,12.207,0,0,0-6.545,2.08,5.25,5.25,0,0,0-2.447,5.664,7.545,7.545,0,0,0,4.276,5.431,10.733,10.733,0,0,0,8.267.766q8.9-2.219,8.909-6.729"/><path d="M654.306,2799.848l-15.955,64.245a240.79,240.79,0,0,0-10.639-26.548q-35.719,3.635-83.925,16.594l-7.088-35.4q86-16.182,117.607-18.892m13.419,134.54q-27.643,10.071-49.1,13.607a200.062,200.062,0,0,1-56.92,1.121q-1.062-21.615-.865-40.182,16.153,8.359,47.611,3.169,30.476-5.027,47.441-17.591Z"/><path d="M800.074,2782.825l3.565,29.217q-24.469,5.038-54.419,11.729l.508,34.981a49.068,49.068,0,0,1,26.545-9.136q15.4-.783,25.947,7.743t13.693,23.039q4.8,21.5-9.408,37.117-12.741,13.875-34.441,17.452-19.751,3.255-34.526-4.326,50.311-10.8,43.62-39.253a18.28,18.28,0,0,0-9.363-12.732,25.866,25.866,0,0,0-16.245-2.831q-17.071,2.815-33.381,14.772-.027-32.053-1.6-59.847-8.292,1.368-29.707,5.148l-5.549-33.648q12.477-1.8,31.535-4.7l-4.447-36.085,40.471-3.668-.995,34.978Z"/><path d="M952.851,2856.064q3.7,22.437-11.4,37.194-12.536,12.09-33.748,15.583-24.629,4.062-36.636-4.976,26.213-5.078,38.627-17.892,11.106-11.6,7.436-24.771-5.049-18.452-26.992-14.835-15.646,2.334-34.969,17.289l-14.751-92.493,34.054-4.614q4.375,52.381,5.944,63.39,11.31-8.875,27.157-9.99,16.049-1.389,28.263,7.362,13.836,9.5,17.014,28.753M939.514,2744.8l-11.424,27.934q-23.424-9.912-42.184-15.837l10.773-27.324q23.1,7.968,42.835,15.227"/></g></g><path d="M262.371,2718.819l-19.482,36.775q-24.72-13.206-38.276-20.988-25.428,43.263-83.378,53.32a220.136,220.136,0,0,0,32.892-37.482q14.012-19.839,18.907-32.673-15.505-7.458-48.509-23.809l13.33-25.491,47.178,17.267q6.772-16.644,12.735-57.954l40.652,9.576q-4.275,28.762-19.364,61.8,12.459,5.71,43.315,19.656" transform="translate(2718 7030)" fill="#fff"/><path d="M430.683,2681.547l4.355,43.113q-96.723,16.455-145.729,23.03l-7.7-36.051q56.571-10.833,149.072-30.092M388.732,2601.8l4.932,37.508q-69.906,15.036-90.14,16.868-6.537-27.475-9-34.834,61.409-13.378,94.208-19.542" transform="translate(2718 7030)" fill="#fff"/><path d="M584.226,2679.271l3.807,30.681q-67.377,10.611-128.258,22.651l-4.581-29.3q35.965-8.187,60.966-14.561-.364-26.487-1.038-35.145-18.816,4.359-44.3,10.812l-5.629-34.137q8.573-1.161,45.637-7.275,35.637-5.624,39.745-6.554.218,37.786-1.659,65.9Z" transform="translate(2718 7030)" fill="#fff"/><path d="M748.906,2590.5l2.264,30.434L594.63,2646.75l-5.8-30.6Q693.147,2600.2,748.906,2590.5" transform="translate(2718 7030)" fill="#fff"/><path d="M823.943,2629.223q-19.324,36.249-29.71,53.74-17.068-22.978-24.945-70.775a510.3,510.3,0,0,1-5.864-62.9l31.042-1.613q-4.124,32.745,2.153,70.777a172.572,172.572,0,0,0,5.323,23.167q7.923-3.562,22-12.4m127.665,14.765-15.2,26.3q-17.85-15.588-28.444-20.606a26.556,26.556,0,0,1-7.25,10.714A31.728,31.728,0,0,1,884,2668.41a30.092,30.092,0,0,1-5.446.4q-14.219.342-23.509-7.4a25.147,25.147,0,0,1-9.68-17.688q-1.646-13,5.928-21.766,6.96-7.911,18.909-9.881a40.413,40.413,0,0,1,12.513-.059,284.533,284.533,0,0,0-8.311-33.7q-29.381,4.094-37.344,4.405l-7.416-34.343q19.5-3.216,36.21-6.722l-9.3-27.52,33.284-6.24q3.218,19.507,4.292,32.1l31.538-6.2,6.981,27.15q-14.919,3.717-30.323,9.008,8.025,35,8.082,49.011,21.479,7.227,41.193,25.015m-63.453-3.563q.042-2.76-4.074-4.963a18.084,18.084,0,0,0-8.386-2.249,12.207,12.207,0,0,0-6.545,2.08,5.25,5.25,0,0,0-2.447,5.664,7.545,7.545,0,0,0,4.276,5.431,10.733,10.733,0,0,0,8.267.766q8.9-2.219,8.909-6.729" transform="translate(2718 7030)" fill="#fff"/><path d="M647.306,2792.848l-15.955,64.245a240.79,240.79,0,0,0-10.639-26.548q-35.719,3.635-83.925,16.594l-7.088-35.4q86-16.182,117.607-18.892m13.419,134.54q-27.643,10.071-49.1,13.607a200.062,200.062,0,0,1-56.92,1.121q-1.062-21.615-.865-40.182,16.153,8.359,47.611,3.169,30.476-5.027,47.441-17.591Z" transform="translate(2718 7030)" fill="#fff"/><path d="M793.074,2775.825l3.565,29.217q-24.469,5.038-54.419,11.729l.508,34.981a49.068,49.068,0,0,1,26.545-9.136q15.4-.783,25.947,7.743t13.693,23.039q4.8,21.5-9.408,37.117-12.741,13.875-34.441,17.452-19.751,3.255-34.526-4.326,50.311-10.8,43.62-39.253a18.28,18.28,0,0,0-9.363-12.732,25.866,25.866,0,0,0-16.245-2.831q-17.071,2.815-33.381,14.772-.027-32.053-1.6-59.847-8.292,1.368-29.707,5.148l-5.549-33.648q12.477-1.8,31.535-4.7l-4.447-36.085,40.471-3.668-.995,34.978Z" transform="translate(2718 7030)" fill="#fff"/><path d="M945.851,2849.064q3.7,22.437-11.4,37.194-12.536,12.09-33.748,15.583-24.629,4.062-36.636-4.976,26.213-5.078,38.627-17.892,11.106-11.6,7.436-24.771-5.049-18.452-26.992-14.835-15.646,2.334-34.969,17.289l-14.751-92.493,34.054-4.614q4.375,52.381,5.944,63.39,11.31-8.875,27.157-9.99,16.049-1.389,28.263,7.362,13.836,9.5,17.014,28.753M932.514,2737.8l-11.424,27.934q-23.424-9.912-42.184-15.837l10.773-27.324q23.1,7.968,42.835,15.227" transform="translate(2718 7030)" fill="#fff"/></g></svg>