<?xml version="1.0" encoding="UTF-8"?>
<svg id="_レイヤー_2" data-name="レイヤー_2" xmlns="http://www.w3.org/2000/svg" xmlns:xlink="http://www.w3.org/1999/xlink" viewBox="0 0 246.45 73.04">
  <defs>
    <style>
      .cls-1 {
        fill: #a5282a;
      }

      .cls-2 {
        fill: #cb9e3b;
      }

      .cls-3 {
        fill: #faf0f0;
      }

      .cls-4 {
        fill: #0b4324;
      }

      .cls-5 {
        fill: #0e100f;
      }

      .cls-6 {
        fill: #a5502c;
      }

      .cls-7 {
        fill: #b02428;
      }

      .cls-8 {
        fill: #110d09;
      }

      .cls-9 {
        fill: #dc534f;
      }

      .cls-10 {
        fill: #9a7d60;
      }

      .cls-11 {
        fill: #da4e4a;
      }

      .cls-12 {
        fill: #2e0706;
      }

      .cls-13 {
        fill: #161211;
      }

      .cls-14 {
        fill: #a4502b;
      }

      .cls-15 {
        fill: #fff;
      }

      .cls-16 {
        fill: #f9f9f9;
      }

      .cls-17 {
        fill: #0f0e0c;
      }

      .cls-18 {
        fill: #140b08;
      }

      .cls-19 {
        fill: #9c2a2c;
      }

      .cls-20 {
        clip-rule: evenodd;
        fill: none;
      }

      .cls-21 {
        fill: #ca9e3b;
      }

      .cls-22 {
        fill: #3a2729;
      }

      .cls-23 {
        fill: #d4cec6;
      }

      .cls-24 {
        fill: #c89d3f;
      }

      .cls-25 {
        fill: #fefefe;
      }

      .cls-26 {
        fill: #d2ccc4;
      }

      .cls-27 {
        fill: #907862;
      }

      .cls-28 {
        fill: #151716;
      }

      .cls-29 {
        fill: #310204;
      }

      .cls-30 {
        fill: #c99d3c;
      }

      .cls-31 {
        fill: #100f0d;
      }

      .cls-32 {
        clip-path: url(#clippath);
      }

      .cls-33 {
        fill: #c89d3d;
      }
    </style>
    <clipPath id="clippath">
      <path class="cls-20" d="M228.55,6.43s1.96-2,5.33-1.22c3.37.78,6.2,2.07,7.79,5.28,1.59,3.21,2.24,7.39-1.85,10.76,1.05.76,2.26,2.14,2.26,3.05,0,1.99-.43,20.44-11.49,27.42l5.13,2.23.21-.81s-.15-.23-.41-.41c-.26-.17.06-1.3.41-2.03.35-.73,1.84-3.83,4.51-3.86,2.67-.03,4.6,1.93,4.92,3.66,0,0,.86.1,1.03.41.16.3-.09,1.21-.21,1.62-.11.41-.18.87-1.03.81,0,0-.12,1.11-.62,1.42-.15,1.67-.15,5.22-1.44,6.09-.96.65-2.22.59-3.69.41-1.47-.18-3.09-.62-3.9-1.83-.8-1.19-.21-3.86-.21-3.86l-3.9-1.62s1.45,5.98,1.44,6.3c-.02.52-3.07,1.83-5.95,2.44-2.88.6-4.1.61-4.1.61l-.21,2.23c1.04.05,2.18.07,2.46.81.28.74,0,2.03,0,2.03,0,0,2.29-.26,2.67.2.38.47,1.39,1.48.21,3.25-.33.48-2.02,1.22-4.51,1.22s-5.13-.5-5.13-3.45c0-1.48-.25-3.55.21-3.66.45-.1,2.46-.2,2.46-.2v-2.23s-8.11.11-10.66-.2l.41,2.03c.82.04,2.06-.02,2.26,1.22.2,1.24.33,4.25.21,4.67-.12.42-1.03,1.62-4.72,1.62s-4.8-.62-5.13-2.03c-.33-1.41.74-2.33,1.64-2.44.9-.1,1.85-.2,1.85-.2,0,0-.73-1.39-.21-2.03.79-.96,2.05-.81,2.05-.81l-.41-2.23c-1.93-.38-6.17-1.37-9.02-3.25-.31-.21-.27-.25-.21-.81.06-.56,1.23-5.89,1.23-5.89-1.23.7-2.92,1.51-5.13,2.23,0,0,.25,4.07.21,4.47-.04.4-.57.67-.82,0-.25-.67-.41-4.06-.41-4.06,0,0-1.05.08-1.64,0,0,0,.91,4.63,1.03,5.28.11.65-.88.67-1.03,0-.14-.67-1.03-5.28-1.03-5.28-.47-.33-1.71-1.01-1.44-1.83.28-.82.82-1.02.82-1.02,0,0-.55-3.82-.62-4.26-.07-.44.68-.81.82-.2.14.61.82,4.06.82,4.06,0,0,1.06-.18,1.85,0,0,0-.18-4.37-.21-5.08-.03-.71.72-.72.82,0,.1.76.41,5.08.41,5.08,0,0,.8.56,1.03.81,0,0,3.92-1.62,4.72-2.44-1.93-1.2-5.75-4.07-8-11.17s-3.93-13.59-3.49-16.45c.33-1.08,1.86-2.79,4.51-3.45,0,0,.89-4.3,3.08-6.5,0,0,2.13-7.94,9.43-11.37,7.3-3.43,17.63-2.63,22.56,4.47h0Z"/>
    </clipPath>
  </defs>
  <g id="_テキスト" data-name="テキスト">
    <g>
      <g>
        <circle class="cls-29" cx="27.04" cy="36.55" r="27.04"/>
        <g>
          <path class="cls-15" d="M23.86,34.44c-2.01-.24-3.27-.67-4.58-1.41-.69.58-1.67,1.05-2.73,1.38l-1-1.6c.87-.11,1.69-.32,2.25-.65-.62-.44-1.33-.96-1.78-1.41l1.22-.77h-.97v-4.74h3.11v-.86h-3.27v-1.43c-.28.87-.62,1.66-.93,2.29v9.19h-1.69v-6.94c-.32.49-.7.91-1.05,1.2l-.49-2.28c.55-.53,1.03-1.11,1.43-1.74.52-.84.91-1.8,1.18-2.88l1.79.44c-.06.2-.1.38-.18.56h3.22v-1h1.64v1h3.37v1.6h-3.37v.86h3.12v4.74h-3.23c-.13.72-.31,1.29-.59,1.81,1.25.53,2.46.77,4.29.82l-.74,1.83ZM17.54,29.98c.34.39.87.84,1.32,1.17.18-.31.32-.87.35-1.17h-1.67ZM19.38,26.78h-1.48v1.63h1.46c.01-.31.01-.69.01-1.01v-.62ZM22.51,26.78h-1.49v.62c0,.32,0,.72-.01,1.01h1.5v-1.63Z"/>
          <path class="cls-15" d="M36.94,34.44l-.73-1.8c1.67,0,1.93-.06,1.93-.81v-1.41h-3.19v3.82h-1.69v-3.82h-3.19c-.17,1.63-.46,2.91-1.14,4.02l-1.28-1.57c.67-1.46.89-3.19.89-6.72v-4.02h11.3v9.37c0,2.29-.22,2.81-2.9,2.94ZM33.26,27.06h-3.04c0,.56-.01,1.22-.04,1.74h3.08v-1.74ZM33.26,23.81h-3.04v1.63h3.04v-1.63ZM38.14,23.81h-3.19v1.63h3.19v-1.63ZM38.14,27.06h-3.19v1.74h3.19v-1.74Z"/>
          <path class="cls-15" d="M17.81,47.14c.59.86,1.35,1.67,1.35,1.67l-1.43,1.08s-.72-.98-1.35-2.07l1.14-.69h-2.83l1.01.62s-.69,1.36-1.73,2.33l-1.26-1.32c.66-.51,1.12-1.05,1.41-1.63h-1.31v-1.6h.76v-5.41h-.65v-1.53h.65v-1.14h1.63v1.14h1.88v-1.14h1.63v1.14h.66v1.53h-.66v5.41h.67v1.6h-1.57ZM17.08,40.13h-1.88v.83h1.88v-.83ZM17.08,42.31h-1.88v.9h1.88v-.9ZM17.08,44.56h-1.88v.98h1.88v-.98ZM22.46,49.95l-.72-1.79c1.57,0,1.6,0,1.6-.73v-1.39h-1.84c-.13,1.45-.34,2.78-1.08,4.05l-1.35-1.73c.7-1.35.79-3.39.79-6.25v-4.31h5.17v9.75c0,1.93-.1,2.35-2.57,2.4ZM23.35,39.41h-1.8v1.67h1.8v-1.67ZM23.35,42.66h-1.8v1.81h1.8v-1.81Z"/>
          <path class="cls-15" d="M30.67,42.91v7.2h-1.69v-12.24h5.4v5.04h-3.71ZM32.69,39.19h-2.02v.63h2.02v-.63ZM32.69,40.99h-2.02v.69h2.02v-.69ZM37.84,50.04l-.35-.9h-5.73v-5.59h6v4.76c1.12,0,1.15-.07,1.15-.72v-4.68h-3.85v-5.04h5.54v9.82c0,1.9-.11,2.35-2.75,2.35ZM36.14,44.86h-2.77v.83h2.77v-.83ZM36.14,46.87h-2.77v.89h2.77v-.89ZM38.91,39.19h-2.16v.63h2.16v-.63ZM38.91,40.99h-2.16v.69h2.16v-.69Z"/>
        </g>
      </g>
      <g>
        <path class="cls-12" d="M68.89,17.24c-.32-.12-.72-.29-1.15-.48v.6h-6.63v-.56c-.48.23-.98.44-1.51.62l-.71-1.98c2.65-.89,4.02-2.04,4.43-2.71h1.92c.52.84,2.15,1.99,4.45,2.61l-.79,1.9ZM65.87,22.97l-.64-1.96h.32c1.39,0,1.44-.02,1.44-.62v-.53h-2.06v3.66h-1.92v-3.66h-3.3v-1.92h9.2v1.79c0,2.9-.22,3.24-3.05,3.24ZM64.33,14.52c-.35.36-.78.74-1.28,1.1h2.63c-.53-.32-.98-.72-1.34-1.1Z"/>
        <path class="cls-12" d="M79.94,23.28v-.44h-.96v.44h-1.92v-3.51l-.91,1.63s-.55-.85-.85-1.79v3.91h-1.92v-3.47c-.19.94-.54,1.76-1.03,2.42l-1.01-2.06c.84-.89,1.56-2.1,1.8-2.71h-1.45v-1.86h1.69v-.72c-.43,0-.9.04-1.4.04l-.36-1.85c3.47-.11,4.35-.58,4.35-.58l.89,1.82s-.52.19-1.56.36v.92h1.4v1.86h-1.26c.44.59,1.17,1.27,1.62,1.57v-5.82h4.8v9.82h-1.92ZM79.94,15.27h-.96v5.77h.96v-5.77Z"/>
        <path class="cls-12" d="M87.53,22.88c-2.25,0-3.8-1.48-3.8-4.8,0-3.59,1.55-5.06,3.87-5.06,1.66,0,2.71.58,3.3,1.85l-1.59.96c-.29-.74-.89-1.09-1.73-1.09-1.06,0-1.8.82-1.8,2.63.34-.52,1.1-.94,1.88-.94,1.76,0,3.37.94,3.37,3.11,0,2.04-1.24,3.35-3.5,3.35ZM87.48,18.13c-.82,0-1.34.43-1.56,1.13.06,1.21.73,1.92,1.56,1.92s1.48-.49,1.48-1.5-.64-1.55-1.48-1.55Z"/>
        <path class="cls-12" d="M99.83,21.77v1.75h-1.92v-1.75h-5.01v-1.8h1.4v-2.4c-.13.12-.41.37-.6.5l-1.09-1.79c1.64-1.38,2.11-3.57,2.11-3.57l1.92.31s-.06.32-.2.83h6.39v1.8h-3v1.04h2.81v1.8h-2.81v1.48h3.41v1.8h-3.41ZM97.91,15.66h-2.16c-.17.46-.67,1.04-.67,1.04h2.83v-1.04ZM97.91,18.5h-1.69v1.48h1.69v-1.48Z"/>
      </g>
      <g>
        <path class="cls-12" d="M63.6,41.28v-9.47l-2.52.94-.81-2.59c1.21-.38,2.14-.9,2.79-1.57.4-.4.68-.85.88-1.35h3.01v14.04h-3.35Z"/>
        <path class="cls-12" d="M77.64,41.66c-3.82,0-5.46-2.65-5.46-7.42,0-4.25,1.64-7.38,5.46-7.38s5.47,3.06,5.47,7.38c0,4.54-1.67,7.42-5.47,7.42ZM77.64,29.63c-1.48,0-2.18,1.71-2.18,4.61,0,3.06.72,4.66,2.18,4.66s2.18-1.6,2.18-4.66c0-2.84-.7-4.61-2.18-4.61Z"/>
        <path class="cls-12" d="M85.66,41.28v-2.41h2.34v2.41h-2.34Z"/>
        <path class="cls-12" d="M96.14,41.28h-3.39c.02-4.27,2.16-9.06,4.23-11.16h-6.05v-2.88h10.14v2.27c-3.35,2.59-4.92,7.72-4.93,11.78Z"/>
        <path class="cls-12" d="M107.29,41.62c-2.12-1.62-3.04-3.63-3.04-6.21,0-3.04,1.33-4.91,3.04-6.21l.97.94c-1,1-2.31,2.92-2.31,5.28,0,2.18,1.18,4.16,2.31,5.29l-.97.92Z"/>
        <path class="cls-12" d="M118.19,41.07h-.94l-.78-2.01h1.57c.78,0,.81-.18.81-.55v-.73h-5.3c-.18,1.09-.58,2.3-1.48,3.47l-1.66-1.69c1.21-1.47,1.22-3.6,1.22-4.3v-5.2h9.31v7.94c0,2.39-.22,3.07-2.74,3.07ZM118.85,32.06h-5.15v.99h5.15v-.99ZM118.85,34.92h-5.15v.99h5.15v-.99Z"/>
        <path class="cls-12" d="M124.47,41.62l-.99-.92c1.13-1.13,2.31-3.11,2.31-5.29,0-2.35-1.33-4.28-2.31-5.28l.99-.94c1.7,1.3,3.04,3.17,3.04,6.21,0,2.59-.94,4.59-3.04,6.21Z"/>
        <path class="cls-12" d="M147.05,34.29c-1.06,1.33-2.88,2.41-4.9,2.41-1.67,0-2.79-.65-3.55-1.1-1.15-.68-2.03-1.19-3.4-1.19-.36,0-1.91,0-3.12,1.6l-1.64-1.48c.68-.72,2.21-2.38,4.88-2.38,1.66,0,2.84.67,3.65,1.12,1.33.76,2.11,1.19,3.19,1.19,1.84,0,2.86-1.21,3.26-1.64l1.62,1.46Z"/>
      </g>
      <g>
        <path class="cls-12" d="M94.21,60.04v-9.47l-2.52.94-.81-2.59c1.21-.38,2.14-.9,2.79-1.57.4-.4.68-.85.88-1.35h3.01v14.04h-3.35Z"/>
        <path class="cls-12" d="M105.91,60.04v-9.47l-2.52.94-.81-2.59c1.21-.38,2.14-.9,2.79-1.57.4-.4.68-.85.88-1.35h3.01v14.04h-3.35Z"/>
        <path class="cls-12" d="M114.83,60.04v-2.41h2.34v2.41h-2.34Z"/>
        <path class="cls-12" d="M124.49,60.42c-2.9,0-4.61-1.31-5.22-3.37l2.79-1.19c.29,1.21,1.3,1.87,2.38,1.87,1.26,0,2.36-.72,2.36-1.75,0-1.24-.79-1.91-2.38-1.91h-1.8v-2.75h1.51c1.21,0,2.2-.58,2.2-1.58,0-.9-.67-1.5-1.66-1.5-1.17,0-1.91.67-2.07,1.64l-2.77-.94c.4-1.8,1.89-3.33,4.97-3.33s4.79,1.53,4.79,3.67c0,1.73-.97,2.83-2.47,3.19,1.5.29,2.92,1.37,2.92,3.64,0,2.68-1.78,4.3-5.54,4.3Z"/>
        <path class="cls-12" d="M138.1,60.42c-3.82,0-5.46-2.65-5.46-7.42,0-4.25,1.64-7.38,5.46-7.38s5.47,3.06,5.47,7.38c0,4.54-1.67,7.42-5.47,7.42ZM138.1,48.4c-1.48,0-2.18,1.71-2.18,4.61,0,3.06.72,4.66,2.18,4.66s2.18-1.6,2.18-4.66c0-2.84-.7-4.61-2.18-4.61Z"/>
        <path class="cls-12" d="M149.97,60.38c-2.12-1.62-3.04-3.63-3.04-6.21,0-3.04,1.33-4.91,3.04-6.21l.97.94c-1,1-2.31,2.92-2.31,5.28,0,2.18,1.18,4.16,2.31,5.29l-.97.92Z"/>
        <path class="cls-12" d="M152.8,59.5v-2.08h4.58v-3.61h-3.87v-2.08h3.87v-3.41h2.28v3.41h3.98v2.08h-3.98v3.61h4.64v2.08h-11.49Z"/>
        <path class="cls-12" d="M167.14,60.38l-.99-.92c1.13-1.13,2.31-3.11,2.31-5.29,0-2.35-1.33-4.28-2.31-5.28l.99-.94c1.7,1.3,3.04,3.17,3.04,6.21,0,2.59-.94,4.59-3.04,6.21Z"/>
      </g>
      <g class="cls-32">
        <g>
          <path class="cls-25" d="M248.86,74.26h-63.17c0-25.99,0-51.99,0-77.98,21.06,0,42.11,0,63.17,0,0,25.99,0,51.99,0,77.98ZM193.65,52.3c-.54.02-1.09.03-1.63.05-.23-1.12-.42-2.25-.73-3.34-.1-.35-.53-.62-.81-.92-.14.39-.44.8-.4,1.17.12,1.23.37,2.45.57,3.68-1.3,1.06-1.12,1.89.58,2.67.34,1.74.65,3.5,1.05,5.23.07.33.52.57.79.85.15-.34.48-.71.43-1.02-.22-1.56-.54-3.11-.82-4.66.37-.03.74-.06,1.12-.09.16,1.15.28,2.31.5,3.45.07.33.4.85.64.87.68.06.62-.54.59-1.01-.08-1.27-.17-2.54-.26-3.81,1.57-.59,3.14-1.19,4.72-1.79,0,.15.04.35,0,.53-.36,1.53-.7,3.07-1.11,4.59-.2.74-.05,1.26.7,1.54,2.37.88,4.71,1.84,7.11,2.61,1.57.5,1.63.4,1.75,1.99-.65.38-1.43.6-1.77,1.11-.33.5-.22,1.29-.31,2-.35.05-.78.11-1.22.18-.86.15-1.58.54-1.81,1.41-.26.97-.1,1.91.74,2.57.41.32.92.58,1.43.7,1.93.45,3.84.21,5.77-.12,1.89-.32,2.22-1.58,2.18-2.97-.02-.77-.16-1.54-.25-2.31q-.26-2.1-2.37-2.42c-.09-.45-.19-.92-.27-1.3h10.21c-.08.7-.15,1.26-.21,1.8-.49.07-.9.17-1.3.16-.91-.02-1.19.45-1.16,1.27.03.78-.06,1.56.02,2.33.15,1.37.46,2.76,1.9,3.33,2.33.92,4.74.84,7.08,0,1.12-.41,1.64-1.56,1.47-2.83-.13-.96-.84-1.53-2.1-1.7-.36-.05-.73-.07-1.1-.11.08-.05.17-.09.25-.14-.23-.65-.28-1.47-.73-1.9-.48-.46-1.32-.54-2.08-.82.07-.46.15-1.01.2-1.41,1.58-.35,3.05-.62,4.47-1.02,1.46-.41,2.89-.93,4.32-1.46,1.21-.45,1.3-.68,1-1.97-.38-1.62-.75-3.25-1.16-5.01.85.36,1.56.75,2.32.96,1.08.3,1.27.9,1.08,1.93-.34,1.81.25,2.95,1.95,3.65,1.02.42,2.13.73,3.23.82,2.52.21,3.57-.62,4.09-3.07.21-.99.19-2.03.44-3,.21-.8.39-1.6,1.22-2.21.48-.35.52-1.37.59-2.11.02-.22-.53-.49-.8-.75-.15-.15-.32-.31-.4-.51-1-2.64-3.84-3.59-6.08-2.99-1.44.38-2.38,1.45-2.97,2.74-.51,1.12-1.51,2.21-.59,3.59.05.07-.05.24-.1.45-1.57-.7-3.08-1.37-4.68-2.09.72-.54,1.33-.97,1.9-1.44,2.86-2.35,4.51-5.51,5.89-8.83,2.05-4.96,3.2-10.11,3.44-15.47.09-1.94-.47-3.51-2.25-4.52-.04-.02-.03-.12-.05-.18,3.6-2.72,3.9-8.19,1.18-12.02-2.73-3.83-8.77-5.25-12.49-2.98-1.67-2.08-3.64-3.79-6.12-4.9-3.3-1.49-6.73-1.61-10.28-1.21-6.11.68-10.76,3.53-13.79,8.83-1.41,2.47-2.7,5.02-3.96,7.57-1.34,2.71-1.3,2.73-3.8,4.53-.3.22-.58.47-.85.73-.91.89-1.29,1.98-1.03,3.21.74,3.58,1.29,7.22,2.34,10.71,1.73,5.76,3.54,11.58,9.26,15.28-1.27.64-2.37,1.2-3.48,1.75-.63.31-1.27.41-1.89-.04-.14-1.68-.26-3.37-.46-5.04-.04-.3-.42-.55-.64-.83-.2.32-.6.64-.58.95.06,1.52.23,3.03.36,4.54Z"/>
          <path class="cls-17" d="M194.96,52.68c.62.45,1.26.35,1.89.04,1.11-.55,2.21-1.11,3.48-1.75-5.72-3.71-7.53-9.52-9.26-15.28-1.05-3.49-1.6-7.13-2.34-10.71-.26-1.24.13-2.32,1.03-3.21.27-.26.54-.51.85-.73,2.5-1.79,2.46-1.81,3.8-4.53,1.26-2.55,2.54-5.1,3.96-7.57,3.03-5.3,7.69-8.14,13.79-8.83,3.55-.4,6.97-.28,10.28,1.21,2.48,1.11,4.45,2.82,6.12,4.9,3.72-2.27,9.77-.85,12.49,2.98,2.73,3.82,2.43,9.3-1.18,12.02.01.06.01.15.05.18,1.78,1,2.34,2.57,2.25,4.52-.24,5.36-1.39,10.52-3.44,15.47-1.37,3.32-3.02,6.48-5.89,8.83-.57.47-1.18.9-1.9,1.44,1.6.71,3.12,1.39,4.68,2.09.05-.2.15-.37.1-.45-.92-1.38.08-2.47.59-3.59.59-1.29,1.53-2.35,2.97-2.74,2.23-.59,5.08.36,6.08,2.99.07.19.24.36.4.51.27.26.82.53.8.75-.07.73-.12,1.76-.59,2.11-.83.61-1.01,1.41-1.22,2.21-.25.97-.23,2.01-.44,3-.52,2.45-1.57,3.28-4.09,3.07-1.09-.09-2.21-.4-3.23-.82-1.69-.71-2.29-1.84-1.95-3.65.19-1.03,0-1.63-1.08-1.93-.76-.21-1.47-.6-2.32-.96.41,1.76.78,3.39,1.16,5.01.3,1.28.21,1.52-1,1.97-1.43.53-2.86,1.05-4.32,1.46-1.43.4-2.89.67-4.47,1.02-.06.4-.14.96-.2,1.41.76.27,1.6.36,2.08.82.44.42.5,1.25.73,1.9-.08.05-.17.09-.25.14.37.04.73.06,1.1.11,1.26.16,1.96.74,2.1,1.7.17,1.27-.34,2.42-1.47,2.83-2.34.85-4.75.93-7.08,0-1.44-.57-1.75-1.97-1.9-3.33-.08-.77,0-1.56-.02-2.33-.03-.82.25-1.29,1.16-1.27.4,0,.81-.1,1.3-.16.06-.54.13-1.1.21-1.8h-10.21c.08.38.18.85.27,1.3q2.1.32,2.37,2.42c.1.77.23,1.54.25,2.31.04,1.4-.29,2.65-2.18,2.97-1.93.33-3.84.57-5.77.12-.51-.12-1.02-.38-1.43-.7-.84-.66-1-1.6-.74-2.57.24-.87.96-1.26,1.81-1.41.44-.07.87-.13,1.22-.18.09-.71-.03-1.5.31-2,.34-.51,1.12-.73,1.77-1.11-.12-1.59-.18-1.49-1.75-1.99-2.4-.77-4.75-1.73-7.11-2.61-.75-.28-.89-.79-.7-1.54.41-1.52.75-3.06,1.11-4.59.04-.18,0-.39,0-.53-1.58.6-3.15,1.19-4.72,1.79-.11-.91-.21-1.82-.32-2.72ZM242.07,53.15c.64.2,1.28.4,2.01.63-.16-.88-.18-.89-2.19-1.03-.75-.75-.04-1.5.08-2.22.02-.14.73-.2,1.12-.24.31-.04.62,0,1,0-.69-1.59-2.41-2.46-4.1-2.21-1.44.22-2.93,2.04-3.15,4.01,1.72.35,3.47.7,5.22,1.06ZM198.65,29.22c.94.54,1.67,1.2,2.52,1.41,3.06.75,6.13,1.63,9.25,1.91,2.95.26,5.98-.05,8.95-.32,4.19-.38,8.02-1.79,11.29-4.5,3.26-2.69,5.35-6.77,3.67-11.14-2.79-7.24-8.17-10.69-15.72-10.93-4.01-.13-7.93.57-11.74,1.81-5.09,1.67-8.97,4.77-11.33,9.59-.79,1.62-1.19,3.33-.96,5.08,1.47-.07,2.84-.27,4.18-.17,2.04.16,2.41.95,1.42,2.74.47,0,.92-.06,1.34.01.73.12,1.58.19,1.79,1.08.21.93-.45,1.44-1.18,1.8-1.06.52-2.15,1-3.46,1.61ZM240.67,26.09c-1.17.32-2.23.54-3.24.91-.39.14-.8.56-.97.94-.71,1.67-1.63,3.19-3,4.4-3.92,3.45-8.73,4.56-13.76,4.66-3.18.06-6.26-.92-9.06-2.42-1.49-.79-3.04-1.03-4.62-1.37-2.51-.53-5.13-.88-7.22-2.5-.94-.73-1.77-.94-2.95-.8-2.38.3-3.4-.83-2.89-2.87-.83-.27-1.66-.53-2.58-.83.09.56.15,1.09.25,1.61.94,4.92,2.33,9.71,4.36,14.3,1.79,4.06,4.38,7.44,8.83,8.79,2.57.78,5.27,1.23,7.94,1.61,4.37.61,8.77.65,13.13-.22,3.66-.73,6.76-2.42,9.06-5.39,2.48-3.19,3.88-6.9,5.02-10.7.98-3.29,1.57-6.67,1.71-10.13ZM231.35,59.78c-.56-2.53-1.1-4.98-1.62-7.32-9.3,3.15-18.49,2.29-27.71-.38-.5,2.07-1.05,4.21-1.5,6.37-.06.27.31.78.61.93,3.62,1.83,7.5,2.73,11.54,2.87,2.8.1,5.6.08,8.4,0,3.57-.1,6.95-1.06,10.3-2.48ZM229.15,7.93c.25.21.46.37.67.55,3.52,3.13,5.92,6.85,6.09,11.69.03.78.57.64,1.01.6,2.17-.16,3.45-1.49,4.13-3.38,1.46-4.11-.63-8.53-4.74-10.11-.74-.29-1.6-.3-2.32-.63-1.74-.78-3.65-.35-4.83,1.27ZM199,10.51c8.67-5.78,17.81-7.23,27.65-4.29-.04-.07-.11-.24-.23-.37-3.1-3.46-7.18-4.53-11.63-4.65-.58-.02-1.17.24-1.76.36-1.81.34-3.68.47-5.41,1.04-3.98,1.32-6.57,4.26-8.62,7.91ZM235.69,22.02c-1.06,3.5-3.39,5.97-6.39,7.88-4.1,2.61-8.73,3.4-13.48,3.7-1.16.07-2.32.01-3.48.01,2.29,1.29,4.69,1.97,7.23,2.04,2.85.08,5.57-.58,8.24-1.55,3.71-1.34,6.46-3.57,7.6-7.43.45-1.51.71-3.06.29-4.66ZM236.21,57.26c.13,1.89.29,2.13,2.07,2.71.55.18,1.11.32,1.68.42,1.69.3,2.73-.31,3.08-1.86.23-1.01.32-2.06.49-3.08.11-.65-.22-.92-.8-1.05-1.63-.35-3.26-.66-4.87-1.09-.67-.18-.87.06-.98.61-.22,1.12-.45,2.23-.67,3.35ZM219.34,66.98c0,.92-.12,1.74.03,2.52.16.82.25,1.94,1.34,2.05,1.71.18,3.44.14,5.16.16.28,0,.69-.13.83-.34.27-.4.52-.9.53-1.36,0-.21-.58-.47-.94-.61-.23-.09-.54-.02-.81-.02-1.31,0-1.69-.4-1.37-1.66.24-.95-.22-1.21-.98-1.16-1.21.08-2.42.26-3.78.42ZM207.93,71.96c1.09-.17,2.24-.28,3.34-.57.36-.09.82-.64.83-1,.05-1.07-.13-2.14-.15-3.22-.01-.71-.38-.85-.98-.83-.63.03-1.27.1-1.89.02-1.12-.14-1.47.18-1.26,1.27.25,1.3-.05,1.67-1.4,1.74-.2.01-.41.01-.61,0-.59-.02-1.11.07-1.23.77-.13.72.21,1.21.89,1.38.78.2,1.59.28,2.48.43ZM193.78,28.17c1.85,1.16,7.61-.38,8.51-2.22-3.04-.03-6.08-.38-8.51,2.22ZM200.08,23.23c-2.46-.62-4.52-.46-6.44.63-.36.2-.5.79-.74,1.19.42.16.89.51,1.26.44,1.56-.3,3.1-.7,4.62-1.15.41-.12.71-.59,1.3-1.11ZM236.9,26.22c1.13-.34,2.21-.61,3.24-1.01.31-.12.69-.61.68-.92-.04-1.3-2.48-2.69-3.63-2.18-.1,1.33-.19,2.63-.29,4.11ZM193.39,20.77c-.83.52-1.66.97-2.41,1.53-.66.49-1.26,1.14-.96,2.06.29.89,1.1,1.16,2.04,1.41-.39-1.05-.13-1.94.67-2.41,1.14-.66.98-1.5.66-2.59ZM242.62,51.13c.13.35.17.71.3.74.65.17,1.31.27,1.98.34.12.01.27-.21.41-.32-.12-.13-.22-.34-.36-.37-.68-.14-1.38-.24-2.33-.4Z"/>
          <path class="cls-6" d="M192.69,55.99c.28,1.55.6,3.1.82,4.66.04.31-.28.68-.43,1.02-.27-.28-.71-.52-.79-.85-.4-1.73-.71-3.48-1.05-5.23-.2-.89-.39-1.78-.58-2.67-.2-1.23-.44-2.45-.57-3.68-.04-.37.26-.78.4-1.17.28.31.71.57.81.92.31,1.1.49,2.23.73,3.34.22,1.21.44,2.43.66,3.64Z"/>
          <path class="cls-14" d="M194.96,52.68c.11.91.21,1.82.32,2.72.09,1.27.18,2.54.26,3.81.03.47.09,1.06-.59,1.01-.25-.02-.58-.54-.64-.87-.22-1.14-.34-2.3-.5-3.45-.05-1.2-.1-2.4-.15-3.6-.13-1.51-.3-3.03-.36-4.54-.01-.31.38-.63.58-.95.22.28.6.53.64.83.2,1.68.31,3.36.46,5.04Z"/>
          <path class="cls-18" d="M193.65,52.3c.05,1.2.1,2.4.15,3.6-.37.03-.74.06-1.11.09-.22-1.21-.44-2.43-.66-3.64.54-.02,1.09-.03,1.63-.05Z"/>
          <path class="cls-13" d="M190.66,52.92c.19.89.39,1.78.58,2.67-1.7-.78-1.88-1.61-.58-2.67Z"/>
          <path class="cls-10" d="M198.65,29.22c1.31-.61,2.4-1.08,3.46-1.61.73-.36,1.39-.87,1.18-1.8-.2-.89-1.06-.96-1.79-1.08-.42-.07-.87-.01-1.34-.01.99-1.8.62-2.59-1.42-2.74-1.34-.1-2.7.1-4.18.17-.23-1.75.17-3.47.96-5.08,2.37-4.82,6.24-7.92,11.33-9.59,3.81-1.25,7.73-1.94,11.74-1.81,7.55.24,12.93,3.69,15.72,10.93,1.68,4.36-.41,8.44-3.67,11.14-3.27,2.7-7.1,4.12-11.29,4.5-2.97.27-6,.59-8.95.32-3.12-.28-6.19-1.16-9.25-1.91-.85-.21-1.58-.87-2.52-1.41ZM207.62,18.35c-.28-.54-.46-1.11-.82-1.51-1.37-1.5-4.6-1.71-6.22-.47-1.99,1.53-1.78,3.77.5,4.81.67.3,1.42.41,1.81.52.77.84,1.26,1.64,1.99,2.1,1.62,1.03,3.39.88,5.06.07,1.11-.54,1.78-1.98,1.57-3.16-.21-1.19-1.15-1.69-2.19-2.02-.57-.18-1.19-.24-1.7-.34ZM218.17,22.99c-.49-.6-.92-1.21-1.44-1.73-.2-.2-.62-.17-.94-.25.09.31.08.71.29.9,1.09,1.02,1.51,2.25,1.18,3.66-.2.87-.66,1.68-.95,2.53-.09.25,0,.56,0,.84.28-.12.66-.18.81-.39.36-.5.62-1.08.9-1.61,1.05.32,2.02.64,3,.91,1.02.28,1.41.07,1.55-.98.15-1.13.21-2.28.22-3.42,0-1.51-.72-2.01-2.18-1.52-.86.29-1.67.7-2.44,1.03ZM223.41,13.47c-3.01-.02-5.75.94-8.38,2.24-.25.12-.36.53-.53.8.26.04.58.21.78.12,3.23-1.56,6.55-2.6,10.22-2.07.18.03.41-.21.61-.33-.15-.18-.28-.5-.46-.53-.73-.12-1.48-.16-2.22-.22Z"/>
          <path class="cls-25" d="M240.67,26.09c-.14,3.47-.72,6.84-1.71,10.13-1.13,3.81-2.54,7.51-5.02,10.7-2.31,2.97-5.4,4.65-9.06,5.39-4.36.87-8.76.83-13.13.22-2.67-.37-5.36-.83-7.94-1.61-4.46-1.35-7.04-4.73-8.83-8.79-2.03-4.59-3.42-9.38-4.36-14.3-.1-.52-.16-1.05-.25-1.61.92.29,1.75.56,2.58.83-.51,2.04.52,3.16,2.89,2.87,1.18-.15,2.01.07,2.95.8,2.09,1.62,4.71,1.96,7.22,2.5,1.58.34,3.14.58,4.62,1.37,2.8,1.49,5.88,2.48,9.06,2.42,5.03-.1,9.84-1.21,13.76-4.66,1.37-1.21,2.28-2.73,3-4.4.17-.39.58-.8.97-.94,1.01-.37,2.08-.6,3.24-.91ZM198.8,45.94c-.02,1.26,1.02,2.28,2.34,2.28,1.26,0,2.38-1.01,2.4-2.15.01-1.18-1.04-1.99-2.63-2.03-1.11-.03-2.09.85-2.1,1.89ZM229.53,48.48c1.42-.02,2.35-.79,2.31-1.92-.03-1.02-1.49-2.18-2.73-2.17-1.19.01-2.01.82-1.98,1.96.03,1.3.99,2.15,2.4,2.13ZM233.1,38.44c.21-.18.43-.35.81-.68-1.58-.41-2.7-1.87-4.37-.84-.19.12-.39.24-.58.37.2.14.39.32.61.42.36.16.76.26,1.13.42.77.35,1.5.77,2.28,1.09.25.1.58-.02.88-.03-.18-.2-.35-.4-.54-.59-.07-.07-.16-.12-.23-.16ZM215.09,51.1s0,0,0,0c.68,0,1.37.06,2.04-.03.25-.03.53-.35.66-.61.05-.11-.25-.56-.4-.57-1.38-.06-2.77-.09-4.16-.05-.22,0-.43.39-.65.6.26.21.49.57.77.62.56.1,1.15.03,1.73.03ZM200.83,36.67c-.79-.62-1.33-1.15-2.19-.76-.72.33-1.73.21-1.97,1.48.21.18.63.74.84.67,1.09-.35,2.13-.87,3.33-1.39ZM229.84,40.79c-1.23.04-1.84.46-1.84,1.08,0,.57.9,1.2,1.73,1.01.42-.1,1.08-.73,1.01-.95-.13-.48-.66-.86-.9-1.13ZM202.16,42.18c.35-.36.7-.72,1.05-1.08-.44-.33-.84-.82-1.34-.93-.62-.14-1.43-.15-1.42.89,0,1.08.98.65,1.71,1.12Z"/>
          <path class="cls-25" d="M231.35,59.78c-3.35,1.42-6.73,2.38-10.3,2.48-2.8.08-5.6.09-8.4,0-4.04-.14-7.92-1.04-11.54-2.87-.3-.15-.66-.67-.61-.93.45-2.16,1-4.3,1.5-6.37,9.22,2.67,18.42,3.53,27.71.38.52,2.35,1.06,4.8,1.62,7.32Z"/>
          <path class="cls-2" d="M229.15,7.93c1.18-1.62,3.09-2.05,4.83-1.27.72.32,1.58.34,2.32.63,4.1,1.57,6.19,6,4.74,10.11-.67,1.9-1.95,3.22-4.13,3.38-.44.03-.99.18-1.01-.6-.17-4.84-2.56-8.56-6.09-11.69-.2-.18-.42-.35-.67-.55Z"/>
          <path class="cls-21" d="M199,10.51c2.05-3.65,4.63-6.59,8.62-7.91,1.73-.57,3.6-.7,5.41-1.04.59-.11,1.18-.37,1.76-.36,4.45.12,8.54,1.19,11.63,4.65.12.13.19.3.23.37-9.85-2.94-18.98-1.49-27.65,4.29Z"/>
          <path class="cls-30" d="M235.69,22.02c.42,1.59.16,3.15-.29,4.66-1.14,3.85-3.89,6.09-7.6,7.43-2.68.96-5.39,1.63-8.24,1.55-2.53-.07-4.94-.75-7.23-2.04,1.16,0,2.32.06,3.48-.01,4.75-.3,9.38-1.09,13.48-3.7,3-1.91,5.33-4.38,6.39-7.88Z"/>
          <path class="cls-22" d="M236.21,57.26c.22-1.12.45-2.23.67-3.35.11-.55.31-.79.98-.61,1.61.43,3.24.74,4.87,1.09.58.12.91.4.8,1.05-.17,1.03-.27,2.07-.49,3.08-.35,1.56-1.39,2.17-3.08,1.86-.57-.1-1.13-.24-1.68-.42-1.78-.58-1.94-.82-2.07-2.71Z"/>
          <path class="cls-4" d="M219.34,66.98c1.36-.16,2.57-.33,3.78-.42.76-.05,1.22.21.98,1.16-.32,1.26.06,1.66,1.37,1.66.27,0,.58-.08.81.02.36.14.94.41.94.61,0,.46-.26.96-.53,1.36-.14.21-.54.34-.83.34-1.72-.01-3.45.02-5.16-.16-1.09-.11-1.18-1.23-1.34-2.05-.15-.77-.03-1.6-.03-2.52Z"/>
          <path class="cls-4" d="M207.93,71.96c-.89-.15-1.69-.23-2.48-.43-.68-.17-1.01-.66-.89-1.38.12-.7.64-.79,1.23-.77.2,0,.41,0,.61,0,1.36-.08,1.65-.44,1.4-1.74-.21-1.1.14-1.41,1.26-1.27.62.08,1.26,0,1.89-.02.6-.03.97.12.98.83.02,1.07.2,2.15.15,3.22-.02.36-.48.91-.83,1-1.1.29-2.26.4-3.34.57Z"/>
          <path class="cls-7" d="M242.07,53.15c-1.75-.35-3.49-.71-5.22-1.06.21-1.97,1.71-3.8,3.15-4.01,1.69-.26,3.41.62,4.1,2.21-.38,0-.7-.03-1,0-.4.05-1.1.1-1.12.24-.12.72-.84,1.47-.08,2.22.06.13.12.26.18.39Z"/>
          <path class="cls-33" d="M193.78,28.17c2.43-2.6,5.48-2.25,8.51-2.22-.9,1.84-6.67,3.38-8.51,2.22Z"/>
          <path class="cls-24" d="M200.08,23.23c-.59.52-.89.99-1.3,1.11-1.52.46-3.07.85-4.62,1.15-.38.07-.84-.28-1.26-.44.24-.41.38-.99.74-1.19,1.93-1.09,3.99-1.24,6.44-.63Z"/>
          <path class="cls-23" d="M236.9,26.22c.11-1.48.2-2.78.29-4.11,1.15-.51,3.59.88,3.63,2.18,0,.31-.37.8-.68.92-1.03.4-2.11.67-3.24,1.01Z"/>
          <path class="cls-26" d="M193.39,20.77c.32,1.09.48,1.93-.66,2.59-.8.47-1.06,1.36-.67,2.41-.94-.25-1.75-.52-2.04-1.41-.3-.92.29-1.57.96-2.06.75-.56,1.59-1.01,2.41-1.53Z"/>
          <path class="cls-1" d="M242.62,51.13c.95.16,1.65.25,2.33.4.14.03.24.24.36.37-.14.11-.29.33-.41.32-.66-.07-1.33-.18-1.98-.34-.13-.03-.17-.39-.3-.74Z"/>
          <path class="cls-19" d="M242.07,53.15c-.06-.13-.12-.26-.18-.39,2.01.14,2.03.14,2.19,1.03-.73-.23-1.37-.43-2.01-.63Z"/>
          <path class="cls-31" d="M207.62,18.35c.52.1,1.13.16,1.7.34,1.03.33,1.98.83,2.19,2.02.21,1.18-.46,2.63-1.57,3.16-1.67.81-3.44.97-5.06-.07-.72-.46-1.22-1.27-1.99-2.1-.39-.11-1.15-.22-1.81-.52-2.28-1.04-2.49-3.28-.5-4.81,1.62-1.24,4.85-1.03,6.22.47.37.4.54.97.82,1.51ZM205.62,19.71c-.89.66-1.51,1.37-1.2,2.17.22.58.95,1.19,1.58,1.35.87.23,1.87.2,2.77.04,1.26-.23,1.98-1.33,1.78-2.4-.16-.82-1.16-1.38-2.11-1.34-.07.58.05,1.3-.25,1.61-.35.36-1.1.55-1.63.46-.87-.14-1.09-.89-.94-1.89ZM201.18,17.2c-1.41,1.1-1.32,2.35.24,3.09.39.18.82.28,1.25.35.55.09.94-.04,1.32-.59.42-.59,1.13-1.04,1.79-1.39.69-.37.89-.81.25-1.27-.58-.41-1.29-.62-2.1-1,.46,1.35.24,1.98-.62,2.23-1.12.34-1.86-.16-2.13-1.43Z"/>
          <path class="cls-8" d="M218.17,22.99c.77-.33,1.58-.74,2.44-1.03,1.47-.49,2.18,0,2.18,1.52,0,1.14-.06,2.29-.22,3.42-.14,1.06-.53,1.26-1.55.98-.98-.27-1.94-.59-3-.91-.28.52-.54,1.1-.9,1.61-.15.21-.53.26-.81.39,0-.28-.09-.59,0-.84.29-.85.74-1.66.95-2.53.33-1.41-.08-2.65-1.18-3.66-.2-.19-.2-.6-.29-.9.32.08.74.05.94.25.52.51.95,1.12,1.44,1.73ZM221.63,27.11v-4.56c-1.03.47-2.07.86-3.01,1.4-.7.4-.42,2.02.33,2.28.79.28,1.6.52,2.68.87Z"/>
          <path class="cls-8" d="M223.41,13.47c.74.07,1.49.1,2.22.22.18.03.31.35.46.53-.21.12-.43.35-.61.33-3.66-.53-6.99.51-10.22,2.07-.19.09-.51-.07-.78-.12.17-.27.28-.68.53-.8,2.64-1.3,5.37-2.26,8.38-2.24Z"/>
          <path class="cls-9" d="M198.8,45.94c.02-1.04.99-1.92,2.1-1.89,1.59.04,2.65.85,2.63,2.03-.01,1.14-1.14,2.15-2.4,2.15-1.31,0-2.36-1.02-2.34-2.28ZM202.66,46.54c-.53,0-1.19.19-1.56-.05-.43-.27-.62-.93-1.07-1.69-.2.51-.55.96-.45,1.27.16.5.53,1.16.96,1.31.87.28,1.74.06,2.12-.84Z"/>
          <path class="cls-11" d="M229.53,48.48c-1.41.02-2.37-.83-2.4-2.13-.03-1.14.79-1.95,1.98-1.96,1.23-.01,2.7,1.15,2.73,2.17.04,1.13-.89,1.9-2.31,1.92ZM231,46.99c-1.63.62-2.16.1-1.99-1.95-.76.12-1.09.53-1.1,1.29,0,.76.35,1.28,1.02,1.45.8.2,1.63.2,2.07-.8Z"/>
          <path class="cls-28" d="M233.1,38.44c.06.04.16.09.23.16.18.19.36.39.54.59-.3.02-.63.14-.88.03-.78-.32-1.52-.74-2.28-1.09-.36-.17-.76-.26-1.13-.42-.22-.1-.41-.28-.61-.42.19-.12.39-.25.58-.37,1.67-1.03,2.79.43,4.37.84-.39.32-.6.5-.81.68Z"/>
          <path class="cls-28" d="M215.09,51.1c-.58,0-1.17.07-1.73-.03-.29-.05-.52-.4-.77-.62.22-.21.43-.6.65-.6,1.38-.04,2.77-.01,4.16.05.15,0,.45.46.4.57-.13.26-.41.57-.66.61-.67.08-1.36.03-2.04.03,0,0,0,0,0,0Z"/>
          <path class="cls-5" d="M200.83,36.67c-1.2.52-2.24,1.03-3.33,1.39-.21.07-.62-.49-.84-.67.24-1.27,1.25-1.15,1.97-1.48.86-.39,1.4.14,2.19.76Z"/>
          <path class="cls-28" d="M229.84,40.79c.24.27.77.65.9,1.13.06.23-.6.86-1.01.95-.83.19-1.73-.44-1.73-1.01,0-.62.62-1.04,1.84-1.08Z"/>
          <path class="cls-31" d="M202.16,42.18c-.73-.47-1.7-.04-1.71-1.12,0-1.04.8-1.03,1.42-.89.49.11.89.61,1.34.93-.35.36-.71.73-1.05,1.08Z"/>
          <path class="cls-16" d="M205.62,19.71c-.16,1,.07,1.76.94,1.89.52.08,1.28-.11,1.63-.46.3-.31.18-1.03.25-1.61.95-.03,1.96.53,2.11,1.34.2,1.07-.51,2.18-1.78,2.4-.9.16-1.9.19-2.77-.04-.62-.17-1.35-.77-1.58-1.35-.31-.8.31-1.5,1.2-2.17Z"/>
          <path class="cls-16" d="M201.18,17.2c.27,1.27,1.01,1.76,2.13,1.43.86-.26,1.08-.88.62-2.23.81.37,1.53.59,2.1,1,.64.45.44.9-.25,1.27-.67.35-1.38.8-1.79,1.39-.39.55-.77.68-1.32.59-.42-.07-.86-.17-1.25-.35-1.56-.73-1.65-1.98-.24-3.09Z"/>
          <path class="cls-27" d="M221.63,27.11c-1.08-.35-1.89-.6-2.68-.87-.76-.26-1.03-1.88-.33-2.28.94-.54,1.98-.93,3.01-1.4v4.56Z"/>
          <path class="cls-3" d="M202.66,46.54c-.37.91-1.25,1.13-2.12.84-.43-.14-.81-.8-.96-1.31-.1-.31.25-.77.45-1.27.45.76.63,1.41,1.07,1.69.38.24,1.03.05,1.56.05Z"/>
          <path class="cls-3" d="M231,46.99c-.44,1-1.27,1-2.07.8-.67-.17-1.03-.69-1.02-1.45,0-.76.34-1.17,1.1-1.29-.17,2.04.36,2.56,1.99,1.95Z"/>
        </g>
      </g>
    </g>
  </g>
</svg>