<svg xmlns="http://www.w3.org/2000/svg" xmlns:xlink="http://www.w3.org/1999/xlink" width="595.276" height="151.56" viewBox="0 0 595.276 151.56"><defs><clipPath id="a"><rect width="595.276" height="151.56" fill="none"/></clipPath></defs><g clip-path="url(#a)"><path d="M0,0,.076,143.964s.526-.027,3.139-.01c0,0,1.511,0,4.926.037v-.947l.126,0v.338a35.578,35.578,0,0,1,16.841,3.742c.139.061.552.238,1,.43h-.027a36.081,36.081,0,0,0,16.27,3.4,36.083,36.083,0,0,0,16.271-3.4H58.6c.454-.2.862-.371.995-.43a35.584,35.584,0,0,1,16.843-3.742,35.574,35.574,0,0,1,16.841,3.742c.1.043.507.212,1.038.43h-.063c1.087.477,2.207.947,3.419,1.38l.032.013h.006a36.532,36.532,0,0,0,12.813,2,36.07,36.07,0,0,0,13.667-2.318h0l.036-.015c.89-.342,1.736-.7,2.563-1.063h-.041c.5-.21.907-.382,1.016-.43a35.576,35.576,0,0,1,16.842-3.742,35.579,35.579,0,0,1,16.842,3.742c.138.061.546.238.991.43h-.017a36.081,36.081,0,0,0,16.27,3.4,35.916,35.916,0,0,0,14.076-2.476h0l.015-.006c.75-.3,1.472-.6,2.179-.915h-.031c.483-.205.889-.378,1.006-.43a39.772,39.772,0,0,1,33.684,0c.118.052.524.226,1,.43h-.03c.685.3,1.384.6,2.11.887l.027.012h0a41.249,41.249,0,0,0,28.16.041h0c.773-.3,1.514-.621,2.241-.94h-.032c.485-.205.892-.379,1.007-.43a39.779,39.779,0,0,1,33.687,0c.119.053.525.226,1,.43h-.029c.673.3,1.36.589,2.072.872l.034.015h0a41.281,41.281,0,0,0,28.037.113h0l.012-.006c.824-.32,1.611-.655,2.382-.994h-.036c.492-.208.9-.38,1.011-.43a39.768,39.768,0,0,1,33.682,0c.12.053.525.226,1,.43h-.029c.66.29,1.332.576,2.029.854l.043.019h0a41.208,41.208,0,0,0,28.291.04h0l.019-.008c.742-.294,1.455-.6,2.155-.9h-.031c.482-.205.888-.378,1.006-.43a37.023,37.023,0,0,1,10.054-3.257,54.933,54.933,0,0,1,6.608-.362,51.909,51.909,0,0,1,8.118.564,38.734,38.734,0,0,1,8.907,3.055c.109.048.515.22,1.015.43h-.04c.824.362,1.667.719,2.554,1.06l.036.015h.005a41.285,41.285,0,0,0,27.984-.246h0l.05-.022c.654-.263,1.289-.534,1.911-.807h-.026c.474-.2.879-.376,1-.43a39.783,39.783,0,0,1,33.689,0c.113.05.519.222,1.011.43h-.036c.769.338,1.553.672,2.375.992l.011,0h0a41.385,41.385,0,0,0,27.63.054h0l.029-.012c.866-.334,1.691-.684,2.5-1.038h-.039c.5-.209.9-.381,1.014-.43a39.79,39.79,0,0,1,33.692,0c.1.045.509.215,1.027.43h-.052a38.7,38.7,0,0,0,6.848,2.4,33.954,33.954,0,0,0,10.491,1.6h6.389l.038-3.4L595.222,0Z" fill="#220809"/><path d="M158.445,41.833h7.7v3.89l-8.323-.027c-.024.537-.074,1.047-.124,1.529,3.627-.08,7.875,1.851,9.167,6.063a12.214,12.214,0,0,1-1.341,9.657l-4.869-2.012.993-2.736,1.466.617a7.739,7.739,0,0,0,.025-4.185c-.771-2.549-3.155-3.594-5.565-3.46a26.353,26.353,0,0,0,.5,4.533c.348-.59.646-1.126.994-1.771l3.254,1.825c-2.385,4.962-5.589,6.813-8.6,6.813a6.036,6.036,0,0,1-6.111-4.4,8.238,8.238,0,0,1,1.242-6.545,11.1,11.1,0,0,1,4.993-3.729c.025-.7.1-1.448.174-2.2h-6.185V41.833h6.682c.05-.241.124-.483.149-.724l.372-1.931,3.7.751ZM151.365,57.1c.422,1.583,2.31,1.744,3.5,1.314a25.5,25.5,0,0,1-1.043-6.089,6.115,6.115,0,0,0-1.863,1.8,3.684,3.684,0,0,0-.6,2.978" fill="#fff"/><path d="M172.4,58.466c-3-4.534-1.739-10.892-.422-15.8l-1.739-.509.77-2.871,5.739,1.664c-1.044,3.755-3.081,9.335-1.74,13.52a5.5,5.5,0,0,0,4.7,4,6.3,6.3,0,0,0,5.788-3.381l3.378,2.415a10.369,10.369,0,0,1-8.744,5.284,9.185,9.185,0,0,1-7.726-4.318m7.626-6.975-.72-4,2.385-.456.7,3.97Zm3.329,0-.695-4,2.409-.456.671,3.97Z" fill="#fff"/><path d="M198.558,60.987l.894-2.763,2.285.858c.9-2.656,1.317-5.633-.1-7.511a4.329,4.329,0,0,0-1.937-1.449c-1.765,5.795-3.23,10.328-3.9,12.367l-3.85-1.395,3.875-11.589a19.123,19.123,0,0,0-5.738.859l-.9-3.97a20.93,20.93,0,0,1,7.9-.993c.423-1.4.82-2.87,1.839-6.277l3.7,1.207-1.69,5.956a8.791,8.791,0,0,1,3.7,2.789c1.664,2.2,2.41,5.768-.224,14.03Zm10.036-6.761a9.714,9.714,0,0,0-4.248-8.342l1.813-3.407a13.333,13.333,0,0,1,6.285,11.749Zm-1.416-11.454-.671-3.728,2.434-.483.621,3.728Zm3.4,1.744-.671-4,2.36-.536.7,4.023Z" fill="#fff"/><path d="M226.6,54.9l-.571-2.844,1.516-.4L226.426,47.2h-9.762l-.025-4.131h8.719l-.77-2.736,3.776-1.154,1.068,3.89h7.875l.025,4.131h-6.807l1.516,6.3Zm4.472,4.319a15.478,15.478,0,0,1-2.832,2.629,6.718,6.718,0,0,1-8.819-1.69c-1.49-1.959-1.615-4.346-1.615-6.921h3.9c0,1.931-.174,4.211,1.838,5.177a2.611,2.611,0,0,0,2.36.027,7.571,7.571,0,0,0,2.41-2.173Z" fill="#fff"/><path d="M246.446,39.66h3.9v6.01a9.644,9.644,0,0,1,4.5-1.18,7.876,7.876,0,0,1,7.3,4.721,10.637,10.637,0,0,1,.77,5.981,12.305,12.305,0,0,1-4.223,7.4l-2.783-3.032c2.485-2.065,4.174-6.061,2.534-8.9-1.813-3.167-5.713-2.147-8.1-.243l.025,12.071h-3.9V54.9a37.51,37.51,0,0,0-2.211,4.91l-3.652-1.4a25.825,25.825,0,0,1,5.863-9.925l-.025-1.206a8.649,8.649,0,0,0-3.751,1.046l-2.286-4.508,2.534-1.313.572,1.18a9.333,9.333,0,0,1,2.931-.429Z" fill="#fff"/><path d="M287.009,41.27,277,62.917l-5.714-3.111,1.317-2.6,2.012,1.153,5.912-13.037H265.4V41.27Z" fill="#fff"/><rect width="20.717" height="4.345" transform="translate(285.442 49.023)" fill="#fff"/><path d="M308.343,39.58h3.9V62.6h-3.9Zm17.885,11.884-2.409,6.3a29.112,29.112,0,0,1-6.111-3.111,19.413,19.413,0,0,1-4.745-5.1l3.23-2.575a19.158,19.158,0,0,0,2.956,3.514,15.082,15.082,0,0,0,3.6,2.226l.845-2.387Zm-8.222-3.809-.7-3.971,2.385-.509.671,4.024Zm3.3.858-.67-3.97,2.409-.483.621,3.97Z" fill="#fff"/><path d="M347.118,41.27,337.107,62.917l-5.714-3.111,1.317-2.6,2.012,1.153,5.912-13.037H325.506V41.27Z" fill="#fff"/><path d="M364.5,57.285v3.783H347.91V57.285h6.633V49.613l-4.869.376-.348-4.936,2.559-.215.1,1.288,11.129-.885.273,3.729-5.167.348v7.967Z" fill="#fff"/><path d="M385.22,62.059c-4.148-2.065-6.26-3.272-8.744-7.752l-6.011,8.021-4.472-3.863,1.764-2.281,1.465,1.315,8.819-11.91H367.012V41.511h19.177l-7.1,9.389c.5,1.207,2.385,4.828,7.776,7.35Z" fill="#fff"/><path d="M396.942,57.178H403.8v3.675h-12.42V57.178a48.284,48.284,0,0,0,6.434-6.036,6.384,6.384,0,0,0,1.565-3.889,2.215,2.215,0,0,0-2.534-2.469,12.265,12.265,0,0,0-5.093,1.5V42.129A14.641,14.641,0,0,1,397.464,41c4,0,6.26,2.173,6.26,5.822a8.335,8.335,0,0,1-1.391,4.533,32.969,32.969,0,0,1-5.391,5.767Z" fill="#fff"/><path d="M412.665,41a6.288,6.288,0,0,1,5.416,2.361c1.192,1.582,1.788,4.13,1.788,7.7s-.6,6.117-1.788,7.7a6.287,6.287,0,0,1-5.416,2.36,6.364,6.364,0,0,1-5.44-2.36c-1.167-1.582-1.764-4.131-1.764-7.7s.6-6.116,1.764-7.7A6.365,6.365,0,0,1,412.665,41m0,16.658a2.286,2.286,0,0,0,2.186-1.475,12.949,12.949,0,0,0,.721-5.124,12.94,12.94,0,0,0-.721-5.123,2.287,2.287,0,0,0-2.186-1.476,2.317,2.317,0,0,0-2.21,1.476,13.026,13.026,0,0,0-.7,5.123,13.035,13.035,0,0,0,.7,5.124,2.316,2.316,0,0,0,2.21,1.475" fill="#fff"/><path d="M427.245,57.178H434.1v3.675h-12.42V57.178a48.281,48.281,0,0,0,6.434-6.036,6.384,6.384,0,0,0,1.565-3.889,2.215,2.215,0,0,0-2.534-2.469,12.265,12.265,0,0,0-5.093,1.5V42.129A14.641,14.641,0,0,1,427.767,41c4,0,6.26,2.173,6.26,5.822a8.336,8.336,0,0,1-1.391,4.533,32.967,32.967,0,0,1-5.391,5.767Z" fill="#fff"/><path d="M443.763,41.27h4.025V53.529h2.631V57.1h-2.631v3.755h-4.025V57.1h-8.074V53.529Zm-4.348,12.2v.054h4.348V46.8h-.051Z" fill="#fff"/><path d="M105.884,103.674V124H97.5V84.6H107.76l-1.325-4.352H96.391V73.33h20.365V68.978h8.72V73.33h20.366v6.915h-9.99c-.441,1.132-1.048,2.623-1.876,4.352h10.762v28.675c0,1.848-.055,3.22-.11,4.292a9.208,9.208,0,0,1-1.215,4.71,3.786,3.786,0,0,1-1.655,1.014c-1.435.6-2.87.655-5.74.655-.221,0-2.483-.119-6.733-.357l-.276-4.352h-11.7v2.385h-7.561v-15.2c-.386.3-.993.655-1.877,1.192Zm0-11.923v7.631a18.563,18.563,0,0,0,4.47-3.935,5.953,5.953,0,0,0,1.159-3.7Zm30.465,11.506c-3.091.179-5.464.238-7.064.238-2.539,0-4.305-.477-5.188-1.371-.883-.834-1.325-2.683-1.325-5.306V91.751h-3.7c0,5.127-1.766,8.644-6.512,12.519h19.924v12.222a14.514,14.514,0,0,0,1.655.059c2.153,0,2.208-.059,2.208-2.384ZM124.87,84.6c.551-1.192,1.213-2.623,1.986-4.352H115.432c.607,1.908.993,3.339,1.269,4.352Zm.055,25.575h-7.617v3.338h7.617Zm11.424-18.421h-5.795V93.9c0,1.133.055,1.789.276,1.967a4.667,4.667,0,0,0,2.207.3c1.436,0,2.6,0,3.312-.06Z" fill="#fff"/><path d="M170.187,123.526v-1.907H163.84v1.907h-8.665V97.653h22.849v25.873Zm26.989-28.973h-35.1V71.541h35.1ZM163.84,114.7h6.347v-9.956H163.84ZM170.85,87.7H188.4V78.874H170.85Zm24.56,35.829v-1.907h-6.348v1.907h-7.836V97.653h22.848v25.873Zm-6.348-8.823h6.347v-9.956h-6.347Z" fill="#fff"/><path d="M213.242,98.309V90.678h13.687a18.779,18.779,0,0,0,1.766-3.16H215.008V80.126h5.464c-1.325-2.742-2.429-4.948-3.311-6.558l7.506-2.146a91.051,91.051,0,0,1,4.3,8.7H231.4a62.086,62.086,0,0,0,1.932-10.075l8.665.3a72.926,72.926,0,0,1-1.877,9.777h5.74a93.537,93.537,0,0,0,3.753-8.943l7.671,1.908c-.883,2.325-1.821,4.65-2.925,7.035h6.9v7.392H248.4a23.641,23.641,0,0,0,1.656,3.16h12.97v7.631h-6.843a46.083,46.083,0,0,0,7.395,5.246l-2.815,8.525a56.256,56.256,0,0,1-6.4-5.067c-.11,7.75-.773,11.863-2.207,14.129a4.2,4.2,0,0,1-1.932,1.55c-1.766.775-3.2.894-6.237.894-.772,0-3.532-.119-8.334-.3l-.22-7.333c3.808.179,6.237.358,7.34.3,2.705-.179,2.815-.357,3.036-7.929h-8.279c-2.815,7.929-9.051,13.712-17.772,16.455l-4.139-6.916c6.844-2.206,11.314-5.366,13.522-9.539h-5.961v-2.206a37.2,37.2,0,0,1-7.671,5.9l-2.815-8.466a40.736,40.736,0,0,0,7.782-5.246Zm18.489,0c-.994,1.311-1.766,2.265-2.318,2.921H247.9c-.773-1.013-1.49-1.967-2.208-2.921Zm9.6-7.631a28.293,28.293,0,0,1-1.435-3.16h-2.208c-.165.537-.662,1.61-1.379,3.16Z" fill="#fff"/><path d="M297.084,123.943H288.86v-8.167c-6.568,1.073-12.252,1.788-17.109,2.325l-.662-7.571,3.532-.417V79.47h-2.76V71.9H300.45V74.76h20.807v7.81c-1.159,9.717-3.532,17.944-7.119,24.74a34.085,34.085,0,0,0,8.775,8.108l-3.753,7.929a47.965,47.965,0,0,1-9.714-8.883,47.984,47.984,0,0,1-9.106,8.883l-3.256-5.425ZM282.569,84.657h6.292V79.47h-6.292Zm6.291,6.975h-6.292v5.007h6.292Zm0,12.042h-6.291v5.365c1.379-.178,3.477-.536,6.291-.954Zm16.668-19.912a72.784,72.784,0,0,0,3.643,14.308,62.222,62.222,0,0,0,3.642-15.5H298.96v-3.1h-1.876v35.114a33.8,33.8,0,0,0,7.395-7.751c-2.98-5.663-5.188-12.758-6.623-21.1Z" fill="#fff"/><path d="M330.756,123.347l-.441-7.273c2.262.178,3.642.238,4.139.238.662,0,.662,0,.662-2.384V106.3l-4.581.953-.5-8.167,5.078-.894V87.16h-5.023V79.589h5.023V70.467h8.058v9.122h3.312V71.9h29.526v7.81c-.938,2.205-1.876,4.292-2.759,6.2H380.1v7.273a50.523,50.523,0,0,1-7.12,15.917,53.536,53.536,0,0,0,8.776,7.572L378,124.181a47.558,47.558,0,0,1-10.266-8.823,47.866,47.866,0,0,1-12.252,8.823l-3.919-5.663c-1.159,2.325-2.208,4.173-2.98,5.663l-5.63-5.306c-.22,2.028-.828,3.339-1.766,3.875-.883.6-2.76.895-5.408.895-1.215,0-2.871-.119-5.023-.3M348.2,79.708V87.16h-5.022V96.1c.717-.179,2.152-.6,4.25-1.252l1.048,7.75c-2.1.716-3.863,1.252-5.3,1.669v8.824c0,1.252-.055,2.742-.11,4.352a62.493,62.493,0,0,0,6.623-16.693,96.82,96.82,0,0,0,2.262-21.044Zm4.084,37.14a44.545,44.545,0,0,0,10.652-7.809,60.71,60.71,0,0,1-5.077-10.194,78.594,78.594,0,0,1-5.575,18m15.785-37.14h-8.223A52.735,52.735,0,0,0,362.27,90.8a96.311,96.311,0,0,0,5.8-11.088m4.36,13.473h-3.146L367.9,95.566l-5.3-3.816a46.031,46.031,0,0,0,5.464,11.029,39.211,39.211,0,0,0,4.36-9.6" fill="#fff"/><path d="M410.292,69.216h8.886v5.723h18.434V82.51H420.668v4.471h16.447v7.154H420.668v4.889H435.9v24.86h-8.555V121.32H407.588v2.564h-8.444v-17.17a43.24,43.24,0,0,1-5.906,17.17l-5.739-7.869a32.888,32.888,0,0,0,3.256-10.493,128.285,128.285,0,0,0,.938-17.885v-12.7h18.6Zm1.767,29.808V82.51H399.917V94.433c0,1.074-.056,2.683-.111,4.591Zm15.287,7.392H407.588v7.81h19.758Z" fill="#fff"/><path d="M487.014,122.572h-6.679v-9.9h-2.648v11.566h-7.01V84.776h9.052V81.258H471.45l-2.87,6.081-1.269-1.311v6.319H462.84v2.444h6.678v7.154H446.669V94.791h8.224V92.347h-5.575V87.458l-1.931,1.908L445.9,80.305a67.156,67.156,0,0,0,8.334-9.9h8.665a83.621,83.621,0,0,0,7.562,7.989V73.926h9.272V69.633H487.4v4.293h2.042l-.773-2.028c-.386-.834-.5-1.371-.551-1.43l6.07-1.491,1.877,4.949h1.6v7.332H487.4v3.518h9.659v29.271c0,1.669-.056,3.1-.056,4.114a11.117,11.117,0,0,1-.993,4.53,2.788,2.788,0,0,1-1.215.954c-1.048.537-1.986.537-4.139.537h-2.428l-.718-7.452a7.636,7.636,0,0,0,1.159.059c1.215,0,1.215-.059,1.215-1.907v-2.206h-2.87ZM455,123.586h-7.451V103.912h21.3v19.674h-7.23v-2.325H455Zm-.11-38.154V81.139a47.37,47.37,0,0,1-3.533,4.293Zm.11,29.152h6.623v-4.292H455Zm7.506-33.922q-1.988-2.414-3.808-4.829c-1.435,2.146-2.539,3.756-3.422,4.829Zm.331,4.77h3.919c-.884-.895-2.153-2.326-3.919-4.412Zm14.791,9.776h2.7V91.929h-2.7Zm0,10.493h2.7v-3.518h-2.7ZM489.884,91.93h-2.87v3.279h2.87Zm0,10.253h-2.87V105.7h2.87Z" fill="#fff"/><path d="M40.337,48.923,27.5,53.82,49.325,72.482l3.849-28.456Z" fill="#e75740"/><path d="M62.915,39.564l7.787,16,5.191,3.7L65.657,38.229Z" fill="#0070c3"/><path d="M67.445,37.359,77.681,58.391l.293-6.367-7.787-16Z" fill="#0070c3"/><path d="M71.975,35.154l6.19,12.718.292-6.367-3.74-7.686Z" fill="#0070c3"/><path d="M54.2,43.807l4.542,3.236-2.143-4.4Z" fill="#0070c3"/><path d="M58.385,41.769l3.74,7.685,5.192,3.7-6.19-12.718Z" fill="#0070c3"/><path d="M78.9,31.782l-2.4,1.168,2.143,4.4Z" fill="#0070c3"/><path d="M56.6,42.639l2.143,4.4,3.386,2.412-3.741-7.685Z" fill="#005fb1"/><path d="M61.126,40.434l6.19,12.718L70.7,55.563l-7.787-16Z" fill="#005fb1"/><path d="M66.551,37.794l-.894.435L75.893,59.261l1.693,1.206.1-2.076L67.445,37.359Z" fill="#005fb1"/><path d="M70.187,36.025l7.787,16,.191-4.153-6.19-12.717Z" fill="#005fb1"/><path d="M76.505,32.95l-1.788.87,3.74,7.686.191-4.153Z" fill="#005fb1"/><path d="M9.337,58.814,14.131,75.95l4.444,4.568-6.3-22.526Z" fill="#ffb947"/><path d="M14.189,57.456l6.3,22.526,1.429-6.211L17.126,56.634Z" fill="#ffb947"/><path d="M19.041,56.1l3.81,13.621,1.429-6.211-2.3-8.232Z" fill="#ffb947"/><path d="M0,61.426l3.889,4L2.57,60.707Z" fill="#ffb947"/><path d="M4.485,60.171l2.3,8.231,4.444,4.569L7.422,59.349Z" fill="#ffb947"/><path d="M26.462,54.023l-2.57.719,1.32,4.716Z" fill="#ffb947"/><path d="M2.57,60.707l1.319,4.716,2.9,2.98-2.3-8.232Z" fill="#f79b38"/><path d="M7.422,59.349l3.81,13.621,2.9,2.979L9.337,58.813Z" fill="#f79b38"/><path d="M13.231,57.724l-.958.268,6.3,22.526,1.449,1.489.466-2.025-6.3-22.526Z" fill="#f79b38"/><path d="M17.125,56.635,21.92,73.771l.932-4.051L19.041,56.1Z" fill="#f79b38"/><path d="M23.893,54.742l-1.915.536,2.3,8.231.932-4.051Z" fill="#f79b38"/><path d="M91.481,24.031l11.774-7.081,1.221,28.69L79.707,31.112Z" fill="#004498"/><path d="M118.392,5.736,128.92,20.081l.853,6.316L115.934,7.54Z" fill="#009ce1"/><path d="M114.33,8.717l13.84,18.857-5.77-2.708L111.872,10.521Z" fill="#009ce1"/><path d="M110.269,11.7l8.369,11.4-5.77-2.708L107.811,13.5Z" fill="#009ce1"/><path d="M126.208,0l.746,5.527-2.9-3.948Z" fill="#009ce1"/><path d="M122.454,2.755l5.057,6.891.853,6.316L120,4.559Z" fill="#009ce1"/><path d="M104.056,16.258l2.151-1.579,2.9,3.948Z" fill="#009ce1"/><path d="M124.057,1.579l2.9,3.948.556,4.119-5.057-6.89Z" fill="#0089d7"/><path d="M120,4.56l8.369,11.4.556,4.119L118.392,5.737Z" fill="#0089d7"/><path d="M115.132,8.129l.8-.588L129.773,26.4l.278,2.059-1.881-.883L114.33,8.717Z" fill="#0089d7"/><path d="M111.872,10.522,122.4,24.867,118.637,23.1l-8.368-11.4Z" fill="#0089d7"/><path d="M106.207,14.679l1.6-1.177,5.057,6.891L109.1,18.627Z" fill="#0089d7"/><path d="M554.938,48.923l12.837,4.9L545.95,72.482,542.1,44.026Z" fill="#e75740"/><path d="M532.361,39.564l-7.787,16-5.191,3.7,10.236-21.032Z" fill="#0070c3"/><path d="M527.831,37.359,517.595,58.391l-.293-6.367,7.787-16Z" fill="#0070c3"/><path d="M523.3,35.154l-6.19,12.718-.292-6.367,3.74-7.686Z" fill="#0070c3"/><path d="M541.078,43.807l-4.542,3.236,2.143-4.4Z" fill="#0070c3"/><path d="M536.891,41.769l-3.74,7.685-5.192,3.7,6.19-12.718Z" fill="#0070c3"/><path d="M516.371,31.782l2.4,1.168-2.143,4.4Z" fill="#0070c3"/><path d="M538.679,42.639l-2.143,4.4-3.386,2.412,3.741-7.685Z" fill="#005fb1"/><path d="M534.149,40.434l-6.19,12.718-3.385,2.411,7.787-16Z" fill="#005fb1"/><path d="M528.725,37.794l.894.435L519.383,59.261l-1.693,1.206-.1-2.076,10.236-21.032Z" fill="#005fb1"/><path d="M525.089,36.025l-7.787,16-.191-4.153,6.19-12.717Z" fill="#005fb1"/><path d="M518.771,32.95l1.788.87-3.74,7.686-.191-4.153Z" fill="#005fb1"/><path d="M585.939,58.814,581.145,75.95,576.7,80.518,583,57.992Z" fill="#ffb947"/><path d="M581.087,57.456l-6.3,22.526-1.428-6.211,4.793-17.137Z" fill="#ffb947"/><path d="M576.235,56.1l-3.81,13.621L571,63.509l2.3-8.232Z" fill="#ffb947"/><path d="M595.276,61.426l-3.889,4,1.319-4.716Z" fill="#ffb947"/><path d="M590.791,60.171l-2.3,8.231-4.444,4.569,3.81-13.622Z" fill="#ffb947"/><path d="M568.813,54.023l2.57.719-1.32,4.716Z" fill="#ffb947"/><path d="M592.706,60.707l-1.319,4.716-2.9,2.98,2.3-8.232Z" fill="#f79b38"/><path d="M587.854,59.349l-3.81,13.621-2.9,2.979,4.794-17.136Z" fill="#f79b38"/><path d="M582.044,57.724l.958.268-6.3,22.526-1.449,1.489-.466-2.025,6.3-22.526Z" fill="#f79b38"/><path d="M578.15,56.635l-4.794,17.136-.932-4.051L576.235,56.1Z" fill="#f79b38"/><path d="M571.383,54.742l1.915.536L571,63.509l-.932-4.051Z" fill="#f79b38"/><path d="M503.794,24.031,492.02,16.95,490.8,45.64l24.769-14.528Z" fill="#004498"/><path d="M476.884,5.736,466.356,20.081,465.5,26.4,479.342,7.54Z" fill="#009ce1"/><path d="M480.945,8.717l-13.84,18.857,5.77-2.708L483.4,10.521Z" fill="#009ce1"/><path d="M485.007,11.7l-8.369,11.4,5.77-2.708,5.057-6.891Z" fill="#009ce1"/><path d="M469.068,0l-.746,5.527,2.9-3.948Z" fill="#009ce1"/><path d="M472.822,2.755l-5.057,6.891-.853,6.316,8.368-11.4Z" fill="#009ce1"/><path d="M491.22,16.258l-2.151-1.579-2.9,3.948Z" fill="#009ce1"/><path d="M471.219,1.579l-2.9,3.948-.556,4.119,5.057-6.89Z" fill="#0089d7"/><path d="M475.28,4.56l-8.369,11.4-.556,4.119L476.883,5.737Z" fill="#0089d7"/><path d="M480.144,8.129l-.8-.588L465.5,26.4l-.278,2.059,1.881-.883,13.84-18.857Z" fill="#0089d7"/><path d="M483.4,10.522,472.876,24.867l3.763-1.766,8.368-11.4Z" fill="#0089d7"/><path d="M489.069,14.679l-1.6-1.177-5.057,6.891,3.762-1.766Z" fill="#0089d7"/></g></svg>