<svg xmlns="http://www.w3.org/2000/svg" xmlns:xlink="http://www.w3.org/1999/xlink" width="603.491" height="85.415" viewBox="0 0 603.491 85.415"><defs><clipPath id="a"><rect width="603.491" height="85.415" transform="translate(0 0)" fill="none"/></clipPath></defs><g clip-path="url(#a)"><path d="M39.24,26.2a3.543,3.543,0,0,1-.572-.046l-4.44-.726a3.539,3.539,0,0,1-1.07-.357H31.735a3.132,3.132,0,0,1-1.925.354l-1.182-.2-.063.054a3.544,3.544,0,0,1-2.874.79l-3.012-.5a3.543,3.543,0,0,1-2.959-3.518l.069-10.521a3.544,3.544,0,0,1-.862-2.316c0-.04,0-.079,0-.119A3.541,3.541,0,0,1,19.3,5.733L20.5,4.016a3.544,3.544,0,0,1,.548-2.343A3.624,3.624,0,0,1,25.306.228l3.37,1.27a3.542,3.542,0,0,1,.647.323h.016q.054-.092.114-.182A3.625,3.625,0,0,1,33.691.228L37.06,1.5a3.543,3.543,0,0,1,.665.334l1.652-.056A3.544,3.544,0,0,1,42.933,4.45l.575,2.277a3.543,3.543,0,0,1-.64,3.045q-.076.1-.158.189l.074,12.671A3.544,3.544,0,0,1,39.24,26.2Z" fill="#24000f"/><path d="M56.117,26.257a3.543,3.543,0,0,1-.585-.049l-3.251-.544A3.542,3.542,0,0,1,49.8,23.938h-3.63a3.543,3.543,0,0,1-3.49-4.159l.576-3.265a3.534,3.534,0,0,1,.927-1.832L44.2,10.7a3.544,3.544,0,0,1-.9-2.363,3.685,3.685,0,0,1,1.339-2.828,3.544,3.544,0,0,1,3.058-4.4L50.728.786a3.547,3.547,0,0,1,.8.006,3.544,3.544,0,0,1,.488-.087L55.049.383A3.533,3.533,0,0,1,56.588.56a3.444,3.444,0,0,1,1.55-.043l3.924.806a3.543,3.543,0,0,1,2.622,4.669l-.158.439a3.543,3.543,0,0,1,.327,1.455l.068,7.391a3.534,3.534,0,0,1,.753,1.5l.654,2.822a3.543,3.543,0,0,1-3.452,4.344H59.442a3.544,3.544,0,0,1-3.325,2.318Z" fill="#24000f"/><path d="M71.535,1.289h4.579a3.544,3.544,0,0,1,3.128,1.878l.121,0a3.542,3.542,0,0,1,2.8,1.3,3.544,3.544,0,0,1,3.072-.387,3.634,3.634,0,0,1,2.446,3.012l.4,3.85a3.543,3.543,0,0,1-.516,2.236A3.543,3.543,0,0,1,89.15,17.49l-1.466,3.971a3.543,3.543,0,0,1-3.257,2.316,7.312,7.312,0,0,1-5.163,2.077A7.475,7.475,0,0,1,72,21.192a3.566,3.566,0,0,1-.569-.2l-4.2-1.854A3.544,3.544,0,0,1,65.118,15.9a3.678,3.678,0,0,1,1.943-3.241A3.544,3.544,0,0,1,65.783,9.3l.654-3.829a3.544,3.544,0,0,1,2.281-2.734A3.519,3.519,0,0,1,71.535,1.289Z" fill="#24000f"/><path d="M92.717,1.592H92.8a3.544,3.544,0,0,1,2.3.845c4.112-.187,8.247-.22,12.352-.22a3.544,3.544,0,0,1,3.537,3.765,22.774,22.774,0,0,1-2.9,10.551,3.543,3.543,0,0,1-4.332,1.475,16.2,16.2,0,0,1-2.248,5.855,3.544,3.544,0,0,1-4.4,1.328l-4.143-1.813A3.544,3.544,0,0,1,91.2,18.564a3.788,3.788,0,0,1,1.939-1.816,8.615,8.615,0,0,0,.43-2.763q0-.049,0-.1a3.545,3.545,0,0,1-.981-1.237h-.529a3.544,3.544,0,0,1-3.5-4.119l.654-3.971A3.544,3.544,0,0,1,92.717,1.592Z" fill="#24000f"/><path d="M116.629,1.471a3.529,3.529,0,0,1,1.644.407l.04.021a3.543,3.543,0,0,1,1.352,1.25A23.605,23.605,0,0,1,122.51,4,3.544,3.544,0,0,1,124.7,6.544a3.482,3.482,0,0,1,1.044-.356,3.574,3.574,0,0,1,2.749.639l3.647,2.761a3.543,3.543,0,0,1,.849,4.731,25.923,25.923,0,0,1-15.213,10.96,3.543,3.543,0,0,1-4.18-1.94l-1.942-4.253a3.544,3.544,0,0,1,1.607-4.625,3.725,3.725,0,0,1,3.14-.124l.171.076a17.365,17.365,0,0,0,1.8-.813l-4.931-1.735a3.544,3.544,0,0,1-1.9-5.1l2-3.508A3.543,3.543,0,0,1,116.629,1.471Z" fill="#24000f"/><path d="M143.575,25.652a3.537,3.537,0,0,1-2.489-1.02l-3.271-3.225a3.543,3.543,0,0,1-.689-4.092q.047-.094.1-.186l-2.173-1.6a3.544,3.544,0,0,1-1.08-4.418c.934-1.9,1.921-3.811,3.013-5.647a3.543,3.543,0,0,1-.022-1.783A3.636,3.636,0,0,1,138.7,1.387a3.577,3.577,0,0,1,2.839-.3L145.6,2.439a3.544,3.544,0,0,1,2.142,1.974q.043.1.079.2,2.277-.077,4.55-.08A3.543,3.543,0,0,1,155.852,7.4l.654,3.346a3.544,3.544,0,0,1-3.478,4.223h-.374a18.533,18.533,0,0,1-6.871,9.91A3.534,3.534,0,0,1,143.575,25.652Z" fill="#24000f"/><path d="M175.976,18.757H159.723a3.543,3.543,0,0,1-3.5-4.1l.615-3.89a3.544,3.544,0,0,1,3.5-2.99,3.78,3.78,0,0,1,2.293.786c4.234-.193,8.48-.242,12.711-.242a3.544,3.544,0,0,1,3.482,2.884l.634,3.346a3.543,3.543,0,0,1-3.482,4.2Z" fill="#24000f"/><path d="M188.5,25.693a3.542,3.542,0,0,1-.779-.087l-3.489-.786a3.544,3.544,0,0,1-2.765-3.457V7.918a3.544,3.544,0,0,1-1.031-2.5,3.622,3.622,0,0,1,3.2-3.608l4.52-.444a3.544,3.544,0,0,1,3.89,3.527V7.266a26.079,26.079,0,0,0,3.849,1.523l.251-.1a3.544,3.544,0,0,1,3.5.477,3.664,3.664,0,0,1,1.2,4.192l-1.685,4.173a3.544,3.544,0,0,1-4.424,2.029c-.9-.3-1.8-.619-2.691-.954v3.544a3.544,3.544,0,0,1-3.544,3.544Z" fill="#24000f"/><path d="M219.308,25.329q-.157,0-.317-.014a17.469,17.469,0,0,1-7.365-2.286,3.374,3.374,0,0,1-.879.4L206.07,24.8a3.544,3.544,0,0,1-4.54-3.4V9.167a3.543,3.543,0,0,1-1.031-2.5,3.622,3.622,0,0,1,3.213-3.609l4.52-.423a3.544,3.544,0,0,1,2.165.5,3.8,3.8,0,0,1,3.555.56c1.629-.109,3.443-.165,5.235-.165a3.544,3.544,0,0,1,3.471,2.831l.654,3.185a3.544,3.544,0,0,1-2.4,4.09l.038.01a3.622,3.622,0,0,1,2.66,4.05l-.813,4.7A3.544,3.544,0,0,1,219.308,25.329Zm-2.291-11.368a6.932,6.932,0,0,0,.848.308,3.541,3.541,0,0,1,.8-.47h-1.682Q217,13.88,217.018,13.961Z" fill="#24000f"/><path d="M231.818,26.2a2.185,2.185,0,0,1-.348-.027l-3.251-.523a3.543,3.543,0,0,1-2.98-3.554l.055-3.5a3.544,3.544,0,0,1-.907-2.368,3.607,3.607,0,0,1,.048-.586l-1.2-2.888a3.543,3.543,0,0,1,.217-3.159,3.544,3.544,0,0,1,.156-3.712l1.11-1.644a3.544,3.544,0,0,1,.55-2.409A3.625,3.625,0,0,1,229.534.4l3.369,1.29a3.546,3.546,0,0,1,.414.19l.034-.053A3.625,3.625,0,0,1,237.621.4l3.369,1.29a3.542,3.542,0,0,1,.694.358l1.2-.063a3.543,3.543,0,0,1,3.635,2.726l.575,2.439a3.544,3.544,0,0,1-.348,2.529,3.535,3.535,0,0,1,.187,2.492l-1.13,3.669a3.531,3.531,0,0,1-.954,1.535l.06,4.634a3.543,3.543,0,0,1-3.543,3.589h-7.755A3.43,3.43,0,0,1,231.818,26.2Z" fill="#24000f"/><path d="M264.378,25.773a3.561,3.561,0,0,1-.446-.028,10.471,10.471,0,0,1-7.034-3.618c-.5.585-.99,1.177-1.43,1.8a3.544,3.544,0,0,1-5.055.745l-3.488-2.7a3.544,3.544,0,0,1-1.192-3.922,3.644,3.644,0,0,1,2.742-2.425l.2-.037.265-.3a3.544,3.544,0,0,1-1.352-3.44l.674-3.83a3.542,3.542,0,0,1,1.9-2.555l1.167-2.937A3.544,3.544,0,0,1,254.623.282,3.626,3.626,0,0,1,257.5,1.709l3.363.3A3.544,3.544,0,0,1,264.089,5.7l-.073,1.572a3.534,3.534,0,0,1,.541,1.281l.653,3.185a3.544,3.544,0,0,1-.405,2.488c.022.2.048.367.075.5a3.542,3.542,0,0,1,1.465.045,3.634,3.634,0,0,1,2.277,1.695,3.578,3.578,0,0,1,.354,2.794l-1.208,3.992A3.544,3.544,0,0,1,264.378,25.773Z" fill="#24000f"/><path d="M281.236,25.672a3.53,3.53,0,0,1-1.73-.453c-4.565-2.559-7.183-6.741-7.183-11.476q0-.313.016-.627l-2.037.037a3.543,3.543,0,0,1-3.565-4.091l.615-3.93a3.543,3.543,0,0,1,3.5-3,3.775,3.775,0,0,1,2.346.828c4.038-.265,8.088-.353,12.14-.425a3.546,3.546,0,0,1,3.524,2.783l.713,3.245a3.543,3.543,0,0,1-3.393,4.3l-3.017.058a3.4,3.4,0,0,0-.109.814,1.487,1.487,0,0,0,.3.931,3.544,3.544,0,0,1,3.247,1.437,3.677,3.677,0,0,1,.146,4.127l-2.557,3.85A3.542,3.542,0,0,1,281.236,25.672Z" fill="#24000f"/><path d="M309.782,25.954c-.091,0-.182,0-.275-.011a40.531,40.531,0,0,1-11.027-2.225,3.542,3.542,0,0,1-1.889-1.639l-2.623.754a3.544,3.544,0,0,1-4.492-2.943l-.5-3.769a3.537,3.537,0,0,1,.657-2.56,3.543,3.543,0,0,1-.7-2.768l.615-3.629a3.536,3.536,0,0,1,.45-1.223,3.542,3.542,0,0,1-.184-1.127A3.622,3.622,0,0,1,293.038,1.2l3.9-.363a3.544,3.544,0,0,1,3.091,1.31A3.486,3.486,0,0,1,302.3,1L306.068.66a3.543,3.543,0,0,1,3.865,3.529v.093a3.543,3.543,0,0,1,3.786,3.505L313.8,16.9a3.467,3.467,0,0,1,.223,1.965l-.752,4.172A3.544,3.544,0,0,1,309.782,25.954Z" fill="#24000f"/><path d="M319.944,25.955a3.536,3.536,0,0,1-2.389-.926l-3.092-2.822a3.544,3.544,0,0,1-.137-5.1,3.755,3.755,0,0,1,.559-.466,3.544,3.544,0,0,1-1.289-3.367l.6-3.507a3.541,3.541,0,0,1,1.7-2.463l.542-3.1a3.544,3.544,0,0,1,3.49-2.932,3.784,3.784,0,0,1,2.23.738c2.716-.132,5.963-.214,8.533-.214a3.543,3.543,0,0,1,3.475,2.85l.6,2.983q.033.164.05.328a3.539,3.539,0,0,1,1.476,2.233l.6,2.982a3.544,3.544,0,0,1-.584,2.742,3.549,3.549,0,0,1,1.1,3.386l-.872,3.87a3.543,3.543,0,0,1-3.7,2.756,33.933,33.933,0,0,1-7.752-1.374,3.536,3.536,0,0,1-1.382-.836,17.342,17.342,0,0,1-1.443,1.388A3.535,3.535,0,0,1,319.944,25.955Z" fill="#24000f"/><path d="M356.213,26.216a3.543,3.543,0,0,1-.584-.048L351.05,25.4a3.534,3.534,0,0,1-1.88-.948,3.542,3.542,0,0,1-.412-.053,3.544,3.544,0,0,1-3.533,1.569l-3.012-.483a3.543,3.543,0,0,1-2.982-3.5v-.9a3.544,3.544,0,0,1-3.068-3.7l.2-3.729a3.549,3.549,0,0,1,.067-.523,3.539,3.539,0,0,1-.4-2.309l.59-3.54a3.9,3.9,0,0,1-.433-1.978A3.711,3.711,0,0,1,339.3,2.247,3.486,3.486,0,0,1,341.556,1.1l3.9-.362a3.543,3.543,0,0,1,2.587.8,3.437,3.437,0,0,1,1.769-.7L353.879.46a3.544,3.544,0,0,1,3.574,2.1,3.544,3.544,0,0,1,2.818,2.736l.575,2.66a3.542,3.542,0,0,1,.078.629,3.56,3.56,0,0,1,.14.482l.574,2.66a3.544,3.544,0,0,1-.407,2.54l.348,1.61a3.544,3.544,0,0,1-1.842,3.9l.019,2.874a3.544,3.544,0,0,1-3.543,3.566Z" fill="#24000f"/><path d="M374.322.3A3.544,3.544,0,0,1,377.4,2.089l2.1-.032A3.544,3.544,0,0,1,383,4.779l.6,2.5a3.542,3.542,0,0,1,.1.833,3.558,3.558,0,0,1,.142.457l.6,2.5A3.544,3.544,0,0,1,384,13.741l.267,1.015a3.543,3.543,0,0,1-.482,2.872,3.537,3.537,0,0,1,.516,1.156L384.9,21.2a3.543,3.543,0,0,1-3.441,4.389H368.514a3.543,3.543,0,0,1-1.721-.446,3.536,3.536,0,0,1-1.242-.269L361.9,23.365a3.544,3.544,0,0,1-2.08-4.134,3.76,3.76,0,0,1,1.628-2.25,14.257,14.257,0,0,0,.532-2.474,3.544,3.544,0,0,1-1.1-3.248L361.4,8.4a3.537,3.537,0,0,1,.413-1.134l.478-2.672a3.543,3.543,0,0,1,3.488-2.919,3.818,3.818,0,0,1,1.551.336A3.5,3.5,0,0,1,369.707.722l4.282-.4Q374.156.3,374.322.3Z" fill="#24000f"/><path d="M390.721,26.031a1.971,1.971,0,0,1-.335-.028l-2.933-.5a3.543,3.543,0,0,1-2.943-3.53l.062-5.814a3.543,3.543,0,0,1-.875-2.332,3.634,3.634,0,0,1,2.939-3.571l.034-2.768a3.544,3.544,0,0,1-.872-2.328,3.622,3.622,0,0,1,3.222-3.61L393,1.184a3.543,3.543,0,0,1,1.826.321c2.374-.16,4.654-.214,7.2-.214A3.544,3.544,0,0,1,405.57,4.8l.06,5.665a3.544,3.544,0,0,1,2.022,3.158l.1,8.043a3.544,3.544,0,0,1-3.543,3.587h-3.079a3.221,3.221,0,0,1-2.3.714l-2.934-.5a3.548,3.548,0,0,1-.736-.21h-2.444A3.6,3.6,0,0,1,390.721,26.031Z" fill="#24000f"/><path d="M417.842,25.632a3.544,3.544,0,0,1-3.38-2.487l-1.7-5.446-.4.115a3.543,3.543,0,0,1-4.479-2.868l-.694-4.515A3.544,3.544,0,0,1,408.511,7.1a3.607,3.607,0,0,1,2.109-3.4l4.163-1.814a3.544,3.544,0,0,1,3.563.43l1.093-.911a3.543,3.543,0,0,1,5.039.512l.873,1.094a3.543,3.543,0,0,1,2.284,1.061,3.642,3.642,0,0,1,.932,3.369,7.281,7.281,0,0,1,1.859,4.97c0,3.2-1.728,6.218-4.865,8.507a3.548,3.548,0,0,1-.765.425,3.544,3.544,0,0,1-2.864,3.556l-3.41.665A3.556,3.556,0,0,1,417.842,25.632Z" fill="#24000f"/><path d="M450.008,26.176a3.543,3.543,0,0,1-.494-.035l-4.579-.645a3.533,3.533,0,0,1-1.873-.872h-.173a3.1,3.1,0,0,1-2.016.623l-1.1-.123-.09.079a3.543,3.543,0,0,1-2.851.809l-3.092-.483a3.543,3.543,0,0,1-3-3.527l.067-9.208a3.544,3.544,0,0,1-.88-2.337,3.645,3.645,0,0,1,.354-1.564,3.543,3.543,0,0,1,.036-.966l.575-3.264a3.543,3.543,0,0,1,3.49-2.929,3.784,3.784,0,0,1,2.189.709A3.521,3.521,0,0,1,439.131.922l4.281-.4a3.543,3.543,0,0,1,3.361,1.689l3.062-.03a3.544,3.544,0,0,1,3.5,2.812l.6,2.821a3.544,3.544,0,0,1-.456,2.6l.076,12.2a3.544,3.544,0,0,1-3.543,3.566Z" fill="#24000f"/><path d="M460.12,26.031a1.972,1.972,0,0,1-.334-.028l-2.934-.5a3.544,3.544,0,0,1-2.943-3.531l.063-5.812a3.544,3.544,0,0,1-.876-2.332,3.634,3.634,0,0,1,2.94-3.571l.034-2.767a3.544,3.544,0,0,1-.872-2.328,3.622,3.622,0,0,1,3.222-3.61l3.984-.363a3.543,3.543,0,0,1,1.826.321c2.374-.16,4.654-.214,7.2-.214A3.544,3.544,0,0,1,474.969,4.8l.06,5.665a3.544,3.544,0,0,1,2.022,3.158l.1,8.043a3.544,3.544,0,0,1-3.543,3.587h-3.079a3.221,3.221,0,0,1-2.3.714l-2.934-.5a3.548,3.548,0,0,1-.736-.21h-2.444A3.6,3.6,0,0,1,460.12,26.031Z" fill="#24000f"/><path d="M493.588,26.156a3.557,3.557,0,0,1-.684-.067l-4.421-.866a3.541,3.541,0,0,1-.889-.3q-.315.219-.648.428a3.543,3.543,0,0,1-4.311-.419l-2.617-2.459a3.544,3.544,0,0,1-.945-3.673l-1.719-2.119a3.544,3.544,0,0,1-.613-3.345,3.662,3.662,0,0,1,.36-.771q.012-.1.029-.2l.555-3.164a3.533,3.533,0,0,1,.742-1.624l.335-1.814a3.535,3.535,0,0,1,.493-1.256,3.543,3.543,0,0,1,3.2-3.18l2.439-.227A3.405,3.405,0,0,1,486.17.738l4.341-.343a3.544,3.544,0,0,1,2.287.613h0l2.735.282a3.543,3.543,0,0,1,3.142,4.04,2.412,2.412,0,0,1,.272.655l.512,2.083a3.535,3.535,0,0,1,.644,1.346l.654,2.741q.034.142.056.285a3.617,3.617,0,0,1,.071,3.857l-1.9,3.023a3.528,3.528,0,0,1-1.523,1.334,17.94,17.94,0,0,1-.438,2.824A3.545,3.545,0,0,1,493.588,26.156Z" fill="#24000f"/><path d="M515.151,25.671c-9.818,0-10.581-6.044-10.581-7.9q0-.278.02-.552l-2.258-1.54a3.544,3.544,0,0,1-1.547-2.927,3.687,3.687,0,0,1,.7-2.155,3.543,3.543,0,0,1-.079-1.545l.655-3.831a3.56,3.56,0,0,1,3.764-2.936,3.567,3.567,0,0,1,3.331-1.4l4.56.666a3.543,3.543,0,0,1,2.332,1.392l1.491-.019a3.541,3.541,0,0,1,3.512,2.81l.674,3.186a3.543,3.543,0,0,1,.073.9q.049.126.089.258l1.229,4.05A3.543,3.543,0,0,1,520.9,18.5a3.632,3.632,0,0,1-.382.11v3.48a3.544,3.544,0,0,1-3.544,3.544Z" fill="#24000f"/><path d="M538.479,26.741q-.162,0-.325-.015l-4.6-.423a3.543,3.543,0,0,1-2.852-1.958,11.109,11.109,0,0,1-6.813-5.716,11.3,11.3,0,0,1-1.2-5.107,11.581,11.581,0,0,1,2.521-7.213A11.682,11.682,0,0,1,534.554,2a16.937,16.937,0,0,1,4.827.748,3.543,3.543,0,0,1,2.39,4.426l-1.064,3.515q.082.066.16.137a3.543,3.543,0,0,1,1.155,2.618V23.2a3.544,3.544,0,0,1-3.543,3.544Z" fill="#24000f"/><path d="M555.747,24.825H545.459a3.544,3.544,0,0,1-3.544-3.543V10.533a3.375,3.375,0,0,1-.944-2.443l.654-3.991a3.543,3.543,0,0,1,3.5-2.97,3.765,3.765,0,0,1,2.485.947h7.029A3.544,3.544,0,0,1,558.1,4.852l.675,3.044a3.543,3.543,0,0,1-.7,2.985q-.086.107-.178.206l.6,2.8a3.543,3.543,0,0,1-.374,2.477l1.052,4.022a3.544,3.544,0,0,1-3.428,4.44Z" fill="#24000f"/><path d="M568.563,24.986q-.17,0-.34-.016l-4.6-.443A3.544,3.544,0,0,1,560.42,21a3.751,3.751,0,0,1,1.031-2.577V12.61h-.422a3.543,3.543,0,0,1-3.5-4.12l.655-3.97a3.543,3.543,0,0,1,3.5-2.967,3.765,3.765,0,0,1,2.462.926h5.338a3.544,3.544,0,0,1,2.389-.926,3.627,3.627,0,0,1,3.575,2.967l.654,3.97a3.544,3.544,0,0,1-3.5,4.12h-.5v8.833a3.544,3.544,0,0,1-3.543,3.544Z" fill="#24000f"/><path d="M582.844,25.773a3.544,3.544,0,0,1-2.915-1.528l-2.954-4.272a3.543,3.543,0,0,1,.668-4.756,3.541,3.541,0,0,1,.011-.967l1.136-7.632a3.544,3.544,0,0,1-.576-2.933A3.631,3.631,0,0,1,581.947.918l4.44.342a3.544,3.544,0,0,1,3.226,4.1l-1.795,11.079a3.543,3.543,0,0,1,1.361,1.241,3.613,3.613,0,0,1-.8,4.789l-3.389,2.58A3.544,3.544,0,0,1,582.844,25.773Z" fill="#24000f"/><path d="M200.856,55.231a3.539,3.539,0,0,1-2.638-1.176L195.1,50.587a3.544,3.544,0,0,1-.631-3.739,3.543,3.543,0,0,1-2.07-3.829l.654-3.911a3.538,3.538,0,0,1,1.334-2.224l.491-2.918a3.544,3.544,0,0,1,3.494-2.956,3.778,3.778,0,0,1,2.338.821c1.305-.069,2.617-.108,3.928-.136a2.468,2.468,0,0,1,1.292-.848l2.517-.543a3.543,3.543,0,0,1,1.48,0l1.572-.34a3.544,3.544,0,0,1,4.269,3.06l.277,2.419a3.545,3.545,0,0,1-1.823,3.514,3.549,3.549,0,0,1,.208.668l.673,3.265a3.543,3.543,0,0,1-3.471,4.259h-2.862a15.684,15.684,0,0,1-5.863,7.425A3.532,3.532,0,0,1,200.856,55.231Z" fill="#24000f"/><path d="M221.418,54.908a3.544,3.544,0,0,1-3.223-2.072l-1.942-4.253a3.534,3.534,0,0,1-.115-2.659,3.544,3.544,0,0,1-1.061-3.206l.6-3.351a3.543,3.543,0,0,1-.1-2.141l.992-3.709a3.543,3.543,0,0,1,3.423-2.628,3.748,3.748,0,0,1,2.563,1.025l2.406.023a3.533,3.533,0,0,1,2.292.87,3.542,3.542,0,0,1,1.009-.387l2.517-.544a3.542,3.542,0,0,1,1.481,0l1.572-.34a3.544,3.544,0,0,1,4.269,3.06l.277,2.419a3.539,3.539,0,0,1-.928,2.819,3.545,3.545,0,0,1,.118,3.985,25.889,25.889,0,0,1-15.193,10.96A3.543,3.543,0,0,1,221.418,54.908Z" fill="#24000f"/><path d="M247.651,55.473a3.54,3.54,0,0,1-2.336-.879l-3.449-3.023a3.544,3.544,0,0,1-.65-4.574,3.692,3.692,0,0,1,.7-.807L239.9,44.7a3.543,3.543,0,0,1-1.1-4.381c.844-1.765,1.761-3.494,2.768-5.167a3.544,3.544,0,0,1-.029-1.733,3.635,3.635,0,0,1,1.73-2.324,3.576,3.576,0,0,1,2.856-.31l4.065,1.351a3.543,3.543,0,0,1,1.649,1.148c1.39-.048,2.779-.06,4.17-.06a3.543,3.543,0,0,1,3.533,3.821c-.649,8.255-3.615,13.585-9.919,17.821A3.537,3.537,0,0,1,247.651,55.473Z" fill="#24000f"/><path d="M270.8,54.667a3.544,3.544,0,0,1-2.957-1.591,3.544,3.544,0,0,1-3.888.122l-3.785-2.317a3.544,3.544,0,0,1-1.135-4.931,3.785,3.785,0,0,1,1.752-1.456,14.153,14.153,0,0,0,.691-3.522,3.543,3.543,0,0,1-.961-2.426,3.6,3.6,0,0,1,3.217-3.588l2.515-.233a3.614,3.614,0,0,1,3.176-3.213l4.519-.443a3.544,3.544,0,0,1,3.889,3.527v5.091a3.593,3.593,0,0,1,2.856,1.745l2.338,4.052a3.543,3.543,0,0,1-.869,4.549A24.942,24.942,0,0,1,271.5,54.6,3.543,3.543,0,0,1,270.8,54.667Z" fill="#24000f"/><path d="M295.263,55.552a1.915,1.915,0,0,1-.312-.025l-2.641-.435a3.543,3.543,0,0,1-2.147.313l-4.44-.746a3.544,3.544,0,0,1-2.956-3.495,3.753,3.753,0,0,1,.494-1.847,3.542,3.542,0,0,1-.571-1.569l-.417-3.729a3.532,3.532,0,0,1,.264-1.79,3.543,3.543,0,0,1-.315-2.16l.575-3.387a3.533,3.533,0,0,1,.569-1.409,3.542,3.542,0,0,1-.144-1,3.622,3.622,0,0,1,3.223-3.61l3.985-.362a3.543,3.543,0,0,1,2.675.881,3.461,3.461,0,0,1,2.044-.9l4.064-.343a3.543,3.543,0,0,1,3.841,3.531v.106h.064a3.543,3.543,0,0,1,3.583,3.513l.119,14.07a3.543,3.543,0,0,1-3.543,3.573h-5.985A3.62,3.62,0,0,1,295.263,55.552Z" fill="#24000f"/><path d="M326.944,55.573h-.069A47.387,47.387,0,0,1,315.09,54.06l-2.942,1a3.544,3.544,0,0,1-4.482-2.17L306.358,49.2a3.544,3.544,0,0,1,.663-3.507,3.543,3.543,0,0,1-.613-2.7l.635-3.527q.024-.131.056-.258a3.544,3.544,0,0,1-.3-3.712l1.784-3.486a3.543,3.543,0,0,1,3.154-1.929,3.679,3.679,0,0,1,2.408.907,3.749,3.749,0,0,1,4.132-.3c.644-.048,1.306-.083,2.045-.114a3.765,3.765,0,0,1,3.512.118c.922-.066,1.893-.108,2.977-.147a3.543,3.543,0,0,1,3.673,3.541v2.578a3.506,3.506,0,0,1,.306,2.585l-.634,2.278q-.042.152-.1.3l.2.827q.035.141.058.283a3.56,3.56,0,0,1,.141.445l.475,1.934a3.542,3.542,0,0,1,.029,1.56,3.464,3.464,0,0,1,.235,2.111l-.792,3.768A3.544,3.544,0,0,1,326.944,55.573Z" fill="#24000f"/><path d="M340.793,29.611a3.386,3.386,0,0,1,1.125.19l4.182,1.472a3.543,3.543,0,0,1,2.028,1.83c.53.23,1.091.446,1.7.654a3.543,3.543,0,0,1,3.041.076,3.632,3.632,0,0,1,1.812,4.4l-1.368,3.792a3.539,3.539,0,0,1,.413,1.065l.614,2.9a3.543,3.543,0,0,1-.21,2.13,3.539,3.539,0,0,1,.522,1.037,3.623,3.623,0,0,1-1.342,4.025L350.117,55.4a3.544,3.544,0,0,1-4.552-.429l-9.863.592a3.543,3.543,0,0,1-3.752-3.707l.112-2.337a3.544,3.544,0,0,1-1.313-3.4l.614-3.527a3.553,3.553,0,0,1,.2-.706l-1.333-3.247a3.544,3.544,0,0,1,1.267-4.263,3.677,3.677,0,0,1,3.293-.448,19.1,19.1,0,0,0,2.429-1.253,3.543,3.543,0,0,1,.126-.544A3.615,3.615,0,0,1,339.151,30,3.692,3.692,0,0,1,340.793,29.611Z" fill="#24000f"/><path d="M374.453,55.877a3.542,3.542,0,0,1-.577-.047l-4.519-.746a3.545,3.545,0,0,1-.879-.265l-2.324-.405-.048-.009a3.547,3.547,0,0,1-2.551.317q-.081.078-.166.151a3.543,3.543,0,0,1-2.865.8l-3.092-.5a3.544,3.544,0,0,1-2.973-3.514l.071-15a3.544,3.544,0,0,1-.865-2.319,3.622,3.622,0,0,1,3.214-3.609l3.885-.363a3.543,3.543,0,0,1,1.749.281c1.014-.064,2.066-.108,2.865-.134a3.545,3.545,0,0,1,.653.039l3.426-.309a3.544,3.544,0,0,1,1.905.361c1.11-.06,2.179-.1,2.949-.113a3.543,3.543,0,0,1,3.605,3.528l.079,18.3a3.544,3.544,0,0,1-3.543,3.559Z" fill="#24000f"/><path d="M390.945,55.7a2.115,2.115,0,0,1-.317-.024l-2.877-.435a3.543,3.543,0,0,1-1.746.173l-3.171-.484a3.543,3.543,0,0,1-3.009-3.5V45.293l-1.7-1.461a3.543,3.543,0,0,1-.623-4.676,3.791,3.791,0,0,1,1.541-1.3,22.437,22.437,0,0,0,.857-2.39,3.544,3.544,0,0,1-.305-2.515,3.616,3.616,0,0,1,4.281-2.668l3.663.875,1.19-.1a3.446,3.446,0,0,1,1.889-.774l3.964-.342a3.543,3.543,0,0,1,2.6.83l1.372-.123a3.544,3.544,0,0,1,3.861,3.529v4.434a3.528,3.528,0,0,1-.445,1.721l.3,1.392a3.544,3.544,0,0,1-.411,2.561l.09.464a3.543,3.543,0,0,1-.119,1.8l.2,1.019a3.545,3.545,0,0,1,.056.414,3.552,3.552,0,0,1,.186.6l.475,2.177a3.544,3.544,0,0,1-3.462,4.3H392.78A3.429,3.429,0,0,1,390.945,55.7Z" fill="#24000f"/><path d="M410.586,55.272a3.544,3.544,0,0,1-2.915-1.528l-2.954-4.273a3.544,3.544,0,0,1,.668-4.755,3.54,3.54,0,0,1,.011-.966l1.136-7.633a3.544,3.544,0,0,1-.573-2.944,3.631,3.631,0,0,1,3.73-2.754l4.44.342a3.543,3.543,0,0,1,3.226,4.1L415.56,45.938a3.543,3.543,0,0,1,1.361,1.241,3.612,3.612,0,0,1-.8,4.789l-3.389,2.58A3.544,3.544,0,0,1,410.586,55.272Z" fill="#24000f"/><path d="M20.074,85.173a3.543,3.543,0,0,1-.5-.035L15,84.492a3.533,3.533,0,0,1-1.872-.871h-.174a3.1,3.1,0,0,1-2.016.623l-1.1-.123-.09.079a3.543,3.543,0,0,1-2.851.809l-3.092-.483A3.543,3.543,0,0,1,.813,81L.88,71.791A3.544,3.544,0,0,1,0,69.454,3.646,3.646,0,0,1,.354,67.89a3.542,3.542,0,0,1,.036-.966L.965,63.66a3.543,3.543,0,0,1,3.49-2.929,3.784,3.784,0,0,1,2.189.709A3.521,3.521,0,0,1,9.2,59.919l4.281-.4A3.544,3.544,0,0,1,16.839,61.2l3.062-.03a3.544,3.544,0,0,1,3.5,2.812L24,66.808a3.544,3.544,0,0,1-.456,2.6l.076,12.2a3.544,3.544,0,0,1-3.543,3.566Z" fill="#24000f"/><path d="M30.187,85.029A1.969,1.969,0,0,1,29.853,85l-2.934-.5a3.543,3.543,0,0,1-2.945-3.531l.063-5.813a3.544,3.544,0,0,1-.876-2.332A3.635,3.635,0,0,1,26.1,69.249l.035-2.766a3.544,3.544,0,0,1-.873-2.329,3.622,3.622,0,0,1,3.223-3.61l3.985-.362a3.543,3.543,0,0,1,1.823.32c2.375-.16,4.655-.214,7.2-.214a3.543,3.543,0,0,1,3.543,3.506l.06,5.665a3.544,3.544,0,0,1,2.022,3.158l.1,8.042a3.543,3.543,0,0,1-3.543,3.587H40.6a3.221,3.221,0,0,1-2.3.715l-2.934-.5a3.547,3.547,0,0,1-.738-.211h-2.44A3.6,3.6,0,0,1,30.187,85.029Z" fill="#24000f"/><path d="M63.654,85.153a3.557,3.557,0,0,1-.684-.067l-4.421-.866a3.543,3.543,0,0,1-.889-.3q-.315.219-.649.428a3.543,3.543,0,0,1-4.311-.419L50.084,81.47a3.544,3.544,0,0,1-.945-3.672L47.42,75.679a3.544,3.544,0,0,1-.613-3.345,3.663,3.663,0,0,1,.361-.774q.012-.1.029-.2l.554-3.165a3.533,3.533,0,0,1,.742-1.626l.335-1.813a3.535,3.535,0,0,1,.493-1.257,3.544,3.544,0,0,1,3.2-3.18l2.439-.227a3.405,3.405,0,0,1,1.278-.361l4.341-.343A3.544,3.544,0,0,1,62.864,60h0l2.735.282a3.544,3.544,0,0,1,3.142,4.04,2.413,2.413,0,0,1,.272.655l.512,2.083a3.534,3.534,0,0,1,.644,1.346l.654,2.741q.034.142.056.285a3.617,3.617,0,0,1,.071,3.857l-1.9,3.023a3.528,3.528,0,0,1-1.523,1.334,17.942,17.942,0,0,1-.438,2.824A3.545,3.545,0,0,1,63.654,85.153Z" fill="#24000f"/><path d="M82.54,84.548a3.53,3.53,0,0,1-1.747-.462l-4.083-2.318a3.544,3.544,0,0,1-1.493-1.651A3.544,3.544,0,0,1,72.5,76.576l.039-1.474-.04-.023a3.543,3.543,0,0,1-1.671-2.255L69.8,68.429a3.544,3.544,0,0,1,2.012-4.048q0-.083,0-.167A3.619,3.619,0,0,1,75.112,60.6l4.519-.3a3.543,3.543,0,0,1,2.693.981q.094.09.18.187a3.543,3.543,0,0,1,1.668-.873l2.517-.545a3.543,3.543,0,0,1,1.512,0l1.514-.34a3.543,3.543,0,0,1,4.3,3.054l.277,2.419A3.543,3.543,0,0,1,92.924,68.4q.061.172.122.341a3.544,3.544,0,0,1,2.079,2.241A3.618,3.618,0,0,1,93.635,75.1l-3.587,2.237a3.543,3.543,0,0,1-1.991.535,21.819,21.819,0,0,1-2.6,5.148A3.542,3.542,0,0,1,82.54,84.548Z" fill="#24000f"/><path d="M112.677,84.185H97.831a3.543,3.543,0,0,1-3.49-4.158l.552-3.134a3.542,3.542,0,0,1,.022-1.074l.308-1.764a3.543,3.543,0,0,1-.307-2.172l.575-3.265a3.548,3.548,0,0,1,.21-.727l-.687-2.006a3.544,3.544,0,0,1,2.76-4.641l2.973-.5q.1-.016.19-.027a3.441,3.441,0,0,1,1.812-.733l4.262-.4a3.544,3.544,0,0,1,2.538.753,3.444,3.444,0,0,1,1.788.346l3.171,1.572a3.544,3.544,0,0,1,1.473,4.984l-.357.6a3.543,3.543,0,0,1,.517,1.817l.079,10.966a3.544,3.544,0,0,1-3.543,3.569Z" fill="#24000f"/><path d="M127.741,60.408a3.544,3.544,0,0,1,3.356,2.406l.477-.007a3.545,3.545,0,0,1,3.271,2.061,3.539,3.539,0,0,1,1.6.173,3.636,3.636,0,0,1,2.416,3.017l.4,4.011a3.544,3.544,0,0,1-.51,2.208,3.535,3.535,0,0,1,.675,2.535l-.614,4.636a3.544,3.544,0,0,1-3.8,3.067,18.128,18.128,0,0,1-7.9-2.317l-.044.089a3.543,3.543,0,0,1-4.64,1.637l-4.063-1.855a3.544,3.544,0,0,1-1.9-4.309,3.684,3.684,0,0,1,2-2.232q.514-1.366.921-2.822a3.544,3.544,0,0,1-1.912-3.768l.654-3.83a3.542,3.542,0,0,1,1.906-2.572,3.56,3.56,0,0,1,3.094-2.027l4.539-.1Z" fill="#24000f"/><path d="M152.04,83.862a3.542,3.542,0,0,1-2.7-1.245l-2.577-3.023a3.543,3.543,0,0,1-.694-3.328l-.039.014a3.544,3.544,0,0,1-4.524-2.144l-1.328-3.709a3.544,3.544,0,0,1,2.009-4.48,3.831,3.831,0,0,1,2.732-.047,22.161,22.161,0,0,1,5.869-.936c5.517,0,9.37,3.563,9.37,8.663,0,2.845-1.111,6.852-6.4,9.789A3.534,3.534,0,0,1,152.04,83.862Z" fill="#24000f"/><path d="M171.211,60.408a3.543,3.543,0,0,1,3.356,2.406l.477-.007a3.545,3.545,0,0,1,3.271,2.061,3.539,3.539,0,0,1,1.6.173,3.636,3.636,0,0,1,2.416,3.017l.4,4.011a3.544,3.544,0,0,1-.51,2.208,3.535,3.535,0,0,1,.675,2.535l-.614,4.636a3.544,3.544,0,0,1-3.8,3.067,18.128,18.128,0,0,1-7.9-2.317l-.044.089a3.543,3.543,0,0,1-4.64,1.637l-4.063-1.855a3.544,3.544,0,0,1-1.9-4.31,3.683,3.683,0,0,1,2-2.231q.514-1.366.921-2.822a3.543,3.543,0,0,1-1.912-3.768l.654-3.83a3.542,3.542,0,0,1,1.906-2.572,3.56,3.56,0,0,1,3.094-2.027l4.539-.1Z" fill="#24000f"/><path d="M203.679,85.416a3.558,3.558,0,0,1-.7-.069l-3.073-.614a3.544,3.544,0,0,1-4.327-.439,3.544,3.544,0,0,1-3.36-1.26L190.737,81.2l-3.117.907a3.544,3.544,0,0,1-4.5-2.943l-.5-3.79a3.544,3.544,0,0,1,.762-2.692l-.014-.016a3.543,3.543,0,0,1-.787-2.878l.614-3.628a3.535,3.535,0,0,1,.516-1.33,3.542,3.542,0,0,1-.169-1.082,3.622,3.622,0,0,1,3.2-3.608l3.9-.382a3.544,3.544,0,0,1,2.068.43q.114-.018.23-.029l3.924-.363a3.544,3.544,0,0,1,1.986.4c1.51-.068,3.091-.09,4.267-.09a3.543,3.543,0,0,1,3.543,3.5l.057,5.164a3.536,3.536,0,0,1,1.049,1.769l.634,2.58a3.544,3.544,0,0,1-.6,2.967,31.134,31.134,0,0,1-.668,6.554A3.545,3.545,0,0,1,203.679,85.416Z" fill="#24000f"/><path d="M217.238,59.029a3.383,3.383,0,0,1,1.124.19l4.182,1.472a3.543,3.543,0,0,1,2.157,2.142q.032.089.059.179a20.7,20.7,0,0,0,2.151,1.052l.008,0a3.544,3.544,0,0,1,2.788.178A3.621,3.621,0,0,1,231.366,69L229.4,72.993a3.542,3.542,0,0,1-.6.871l.055,7.052a3.544,3.544,0,0,1-3.543,3.571H217.5a3.211,3.211,0,0,1-2.254.746l-3.33-.5a3.543,3.543,0,0,1-3.013-3.545l.061-5.2a3.544,3.544,0,0,1-.913-2.374,3.626,3.626,0,0,1,.2-1.187l-1.585-2.666a3.543,3.543,0,0,1,1.058-4.744,3.7,3.7,0,0,1,2.906-.545l.064.016a19.6,19.6,0,0,0,2.929-1.962,3.542,3.542,0,0,1,.175-1,3.617,3.617,0,0,1,1.811-2.105A3.7,3.7,0,0,1,217.238,59.029Z" fill="#24000f"/><path d="M244.376,84.547a7.893,7.893,0,0,1-5.683-2.218l-2.815.825a3.544,3.544,0,0,1-4.54-3.4V68.184a3.544,3.544,0,0,1-1.031-2.5,3.621,3.621,0,0,1,3.212-3.608l4.519-.424a3.544,3.544,0,0,1,2.678.874q.106,0,.212.011a3.527,3.527,0,0,1,2.6-1.59l4.479-.423A3.544,3.544,0,0,1,251.88,63.9,3.537,3.537,0,0,1,253.2,66l.655,3.185a3.544,3.544,0,0,1-.724,2.953l-.017.021a3.544,3.544,0,0,1,1.152,4.021L252.8,80.171a3.545,3.545,0,0,1-3.28,2.322A7.313,7.313,0,0,1,244.376,84.547Z" fill="#24000f"/><path d="M260.055,85.253a3.544,3.544,0,0,1-2.96-1.6l-3.25-4.938a3.544,3.544,0,0,1,1.5-5.175l3.111-1.411a3.544,3.544,0,0,1,4.486,1.376l1.163,1.9a3.544,3.544,0,0,1,2.323,1.871,3.649,3.649,0,0,1-.826,4.335l-3.231,2.781A3.544,3.544,0,0,1,260.055,85.253Z" fill="#24000f"/><path d="M281.82,85.031a3.543,3.543,0,0,1-.578-.048l-3.409-.564a3.543,3.543,0,0,1-2.965-3.5V70.68h-2.739a3.544,3.544,0,0,1-3.491-4.153l.634-3.629a3.544,3.544,0,0,1,3.491-2.934,3.777,3.777,0,0,1,2.3.791c4.036-.164,9.452-.227,12.942-.227a3.543,3.543,0,0,1,3.474,2.845l.616,3.065a3.544,3.544,0,0,1-1.006,3.241,3.6,3.6,0,0,1,.846,4.6l-2.021,3.366a3.544,3.544,0,0,1-4.549,1.381v2.459a3.544,3.544,0,0,1-3.543,3.544Z" fill="#24000f"/><path d="M297.611,59.666a3.416,3.416,0,0,1,.635.06l3.726.705h0a3.533,3.533,0,0,1,1.757-.466h.079a3.544,3.544,0,0,1,2.073.669c1.962-.122,4.379-.205,6.272-.205a3.544,3.544,0,0,1,3.543,3.514l.079,9.554a3.544,3.544,0,0,1-.167,1.1,3.6,3.6,0,0,1,1.065,3.293l-.833,4.012a3.541,3.541,0,0,1-3.522,2.823,39.068,39.068,0,0,1-7.985-.918,3.527,3.527,0,0,1-1.774.476h-2.239a3.129,3.129,0,0,1-2.09.565l-2.835-.424a3.543,3.543,0,0,1-3.019-3.562l.053-3.247a3.544,3.544,0,0,1-.846-2.3,3.648,3.648,0,0,1,.42-1.7l.227-1.231a3.543,3.543,0,0,1-.153-1.849l.061-.329a3.544,3.544,0,0,1-.661-2.74L292,64.514a3.544,3.544,0,0,1,2.364-2.753A3.63,3.63,0,0,1,297.611,59.666Z" fill="#24000f"/><path d="M329.964,59.582a3.544,3.544,0,0,1,3.28,2.2l2.451-.026a3.543,3.543,0,0,1,3.5,2.809l.615,2.9a3.544,3.544,0,0,1-.452,2.6l.433,1.657a3.544,3.544,0,0,1-1.021,3.5l.066,5.521a3.544,3.544,0,0,1-3.543,3.586h-5.82a3.176,3.176,0,0,1-2.21.661l-3.171-.5a7.064,7.064,0,0,0-3.131-.827l-3.627-1.492a3.543,3.543,0,0,1-2.1-4.086,3.775,3.775,0,0,1,1.477-2.2,27.977,27.977,0,0,0,.808-5.918,3.259,3.259,0,0,1-.839-2.368l.615-3.528a3.543,3.543,0,0,1,3.491-2.935,3.792,3.792,0,0,1,1.98.568,3.538,3.538,0,0,1,2.693-1.722l4.182-.382Q329.8,59.582,329.964,59.582Z" fill="#24000f"/><path d="M360.627,85.395a3.543,3.543,0,0,1-.592-.05l-3.806-.645a3.678,3.678,0,0,0-3.476.432l-2.557-.484a3.534,3.534,0,0,1-1.322-.543h-.584a3.163,3.163,0,0,1-2.183.62l-2.617-.423a3.544,3.544,0,0,1-2.978-3.556l.054-3.278a3.544,3.544,0,0,1-.787-2.227,3.621,3.621,0,0,1,.142-1,3.547,3.547,0,0,1,.058-.517l.475-2.539q.026-.137.061-.27l-.5-.59a3.543,3.543,0,0,1,.237-4.85,16.905,16.905,0,0,0,1.662-1.97,1.784,1.784,0,0,1-.05-.376,3.605,3.605,0,0,1,1.3-2.775,3.56,3.56,0,0,1,2.948-.759l3.667.746a3.542,3.542,0,0,1,.937.333A3.478,3.478,0,0,1,352.9,59.6l3.845-.363a3.544,3.544,0,0,1,2.181.5l.539-.069a3.543,3.543,0,0,1,3.9,2.714l.023.1a3.064,3.064,0,0,1,.777,1.48l.516,2.661a3.543,3.543,0,0,1-.62,2.769l.11,12.427a3.544,3.544,0,0,1-3.543,3.575Z" fill="#24000f"/><path d="M378.47,84.669a3.53,3.53,0,0,1-1.731-.453c-4.564-2.559-7.181-6.742-7.181-11.477q0-.312.016-.626l-2.038.037a3.544,3.544,0,0,1-3.565-4.094l.615-3.91a3.543,3.543,0,0,1,2.631-2.884,3.713,3.713,0,0,1,3.218.7c4.037-.265,8.087-.353,12.138-.425A3.542,3.542,0,0,1,386.1,64.32l.711,3.237a3.543,3.543,0,0,1,.775,1.838l.277,2.419a3.543,3.543,0,0,1-2.814,3.876l-.794.161a3.634,3.634,0,0,1-.271,3.386l-2.557,3.85A3.542,3.542,0,0,1,378.47,84.669Z" fill="#24000f"/><path d="M400.185,84.064c-6.124,0-10.708-2.808-12.907-7.906a3.544,3.544,0,0,1,1.819-4.643l.524-.232a3.544,3.544,0,0,1-1.449-3.511l.674-3.829a3.543,3.543,0,0,1,3.49-2.929,3.718,3.718,0,0,1,2.346.842q1.4-.077,2.793-.123a3.544,3.544,0,0,1,1.955-1.2l2.517-.564a3.543,3.543,0,0,1,1.547,0l1.524-.342a3.544,3.544,0,0,1,4.3,3.054l.277,2.419a3.544,3.544,0,0,1-2.781,3.869l-.827.176a3.544,3.544,0,0,1-3.461,2.784h-4.6a3.763,3.763,0,0,1,.184,1.148,7.107,7.107,0,0,0,2.276.29,3.544,3.544,0,0,1,2.813-1.389,3.627,3.627,0,0,1,3.582,3l.713,4.635a3.544,3.544,0,0,1-2.943,4.038A27.44,27.44,0,0,1,400.185,84.064Z" fill="#24000f"/><path d="M429.221,85.032a3.543,3.543,0,0,1-.553-.043l-4.6-.726a3.541,3.541,0,0,1-2.517-1.73,3.544,3.544,0,0,1-3.893,2.293l-3.013-.483a3.544,3.544,0,0,1-2.966-3.158,3.541,3.541,0,0,1-.944-.8l-1.823-2.2a3.543,3.543,0,0,1-.18-4.29,3.543,3.543,0,0,1-.226-1.995l.566-3.213a3.547,3.547,0,0,1-.025-.378l-.039-2.922a3.544,3.544,0,0,1,2.791-3.51l4.015-.872a3.127,3.127,0,0,1,.984-.944,3.623,3.623,0,0,1,4.792,1.428l.221.407a3.542,3.542,0,0,1,2.683-1.774l4.281-.444a3.544,3.544,0,0,1,3.909,3.509l.079,18.282a3.544,3.544,0,0,1-3.543,3.559Z" fill="#24000f"/><path d="M452.743,84.952a3.542,3.542,0,0,1-.572-.047l-4.559-.746a3.473,3.473,0,0,0-1.411-.118l-3.172-.5a3.538,3.538,0,0,1-1.085-.359A3.545,3.545,0,0,1,437.9,84.19l-3.845-1.553a3.544,3.544,0,0,1-1.858-4.838,3.861,3.861,0,0,1,1.441-1.582,43.745,43.745,0,0,0,.757-9.381V66.04a3.544,3.544,0,0,1-.773-2.209,3.62,3.62,0,0,1,3.248-3.611l3.866-.323a3.544,3.544,0,0,1,2.318.622c3.219-.171,6.743-.251,9.611-.251a3.544,3.544,0,0,1,3.543,3.527l.08,17.6a3.544,3.544,0,0,1-3.543,3.56Z" fill="#24000f"/><path d="M463.24,83.863a3.544,3.544,0,0,1-2.978-1.623c-3.154-4.891-3.559-10.08-3.559-14.054,0-.884.021-1.768.063-2.63a3.544,3.544,0,0,1,3.992-3.343l4.539.584a3.544,3.544,0,0,1,3.047,2.958l2.717-1.068a3.544,3.544,0,0,1,4.58,1.966,15.081,15.081,0,0,0,1.794,3.2,3.543,3.543,0,0,1,2.9,2.394,3.627,3.627,0,0,1-1.127,3.946l-3.449,2.762a3.544,3.544,0,0,1-4.7-.236l-.146-.145a3.446,3.446,0,0,1-1.069,1.3l-4.519,3.306A3.544,3.544,0,0,1,463.24,83.863Z" fill="#24000f"/><path d="M489.644,60.408A3.543,3.543,0,0,1,493,62.815l.477-.007a3.546,3.546,0,0,1,3.271,2.061,3.539,3.539,0,0,1,1.6.173,3.636,3.636,0,0,1,2.416,3.017l.4,4.011a3.544,3.544,0,0,1-.51,2.208,3.535,3.535,0,0,1,.675,2.535l-.614,4.636a3.543,3.543,0,0,1-3.8,3.067,18.128,18.128,0,0,1-7.9-2.317l-.044.089a3.544,3.544,0,0,1-4.64,1.637l-4.063-1.855a3.544,3.544,0,0,1-1.9-4.31,3.683,3.683,0,0,1,2-2.231q.514-1.366.921-2.822a3.544,3.544,0,0,1-1.912-3.768l.654-3.83a3.542,3.542,0,0,1,1.906-2.572,3.56,3.56,0,0,1,3.094-2.027l4.539-.1Z" fill="#24000f"/><path d="M520.091,84.528q-.144,0-.29-.012a18.128,18.128,0,0,1-7.9-2.317l-.044.089a3.543,3.543,0,0,1-4.64,1.637l-4.063-1.855a3.544,3.544,0,0,1-1.9-4.31,3.683,3.683,0,0,1,2-2.231q.514-1.366.921-2.823a3.543,3.543,0,0,1-1.911-3.767l.654-3.83a3.542,3.542,0,0,1,1.905-2.572,3.56,3.56,0,0,1,3.094-2.027l4.54-.1a2.434,2.434,0,0,0,2.721.139l2.517-.543a3.543,3.543,0,0,1,1.49,0l1.582-.342a3.544,3.544,0,0,1,4.269,3.06l.277,2.419a3.545,3.545,0,0,1-1.612,3.39l.349,3.538a3.543,3.543,0,0,1-.51,2.208,3.535,3.535,0,0,1,.676,2.536L523.6,81.45A3.544,3.544,0,0,1,520.091,84.528Z" fill="#24000f"/><path d="M539.872,84.791a3.53,3.53,0,0,1-1.71-.442l-3.943-2.177a3.57,3.57,0,0,1-.381-.243l-3.375.985a3.544,3.544,0,0,1-4.536-3.4V68.184a3.544,3.544,0,0,1-1.031-2.5,3.621,3.621,0,0,1,3.212-3.608l4.518-.424a3.543,3.543,0,0,1,2.186.509,3.52,3.52,0,0,1,2.476-1.508l4.539-.524a3.543,3.543,0,0,1,3.949,3.433l.022.888a3.543,3.543,0,0,1,1.968,2.489l.674,3.245a3.543,3.543,0,0,1-2.5,4.13,17.52,17.52,0,0,1-3.119,8.9A3.542,3.542,0,0,1,539.872,84.791Z" fill="#24000f"/><path d="M557.048,84.708c-4.805,0-8.161-3.081-8.161-7.493a7.306,7.306,0,0,1,.779-3.321,3.544,3.544,0,0,1-.369-2.29l.3-1.712a3.544,3.544,0,0,1-.519-2.538l.654-3.749a3.544,3.544,0,0,1,3.491-2.935,3.757,3.757,0,0,1,1.249.217,3.429,3.429,0,0,1,1.678-.626l4.6-.423a3.544,3.544,0,0,1,3.216,1.479l.155,0a3.54,3.54,0,0,1,3.513,2.813l.654,3.1a3.543,3.543,0,0,1-.547,2.737l.324,1.494A3.543,3.543,0,0,1,568,73.218a3.545,3.545,0,0,1,.676,4.063l-1.943,3.971a3.543,3.543,0,0,1-4.052,1.878,3.66,3.66,0,0,1-.658-.236A7.533,7.533,0,0,1,557.048,84.708Z" fill="#24000f"/><path d="M582.446,85.134a3.532,3.532,0,0,1-1.631-.4l-3.845-2a3.544,3.544,0,0,1-1.836-2.421,7.322,7.322,0,0,1-3.326-6.368,7.709,7.709,0,0,1,.127-1.4,3.544,3.544,0,0,1-2.811-4.079l.674-3.91a3.544,3.544,0,0,1,3.492-2.942,3.785,3.785,0,0,1,2.164.691,3.551,3.551,0,0,1,2.763-1.884l4.519-.443a3.544,3.544,0,0,1,3.67,2.3l1.548-.019a3.549,3.549,0,0,1,3.518,2.847l.654,3.266a3.544,3.544,0,0,1-3.475,4.239h-.834a13.3,13.3,0,0,1,.394,3.37,13.55,13.55,0,0,1-2.911,7.706A3.542,3.542,0,0,1,582.446,85.134Z" fill="#24000f"/><path d="M596.558,85.153a6.991,6.991,0,1,1,6.934-6.99A6.979,6.979,0,0,1,596.558,85.153Z" fill="#24000f"/><path d="M34.8,21.927v-.081l1.347-.805V15.457h-4.4V9.813l-.793-.746V8.986l1.427-.141-1.7-1.25H29.626l.3.706-2.18.746,2.814-.121v6.531H26.276v7.115l-3.012-.5.079-12.094-.872-.766v-.08l1.387-.142-1.645-1.23,2.2-3.164-.4-.988.039-.06,3.37,1.27-.4.645,3.527-.141.377,1.431,1.844-2.157L32.4,3.6l.04-.06,3.369,1.27-.475.645L39.5,5.318l.575,2.277h-2.26l.258.625-2.339.786-.852-1.411H33.788l-.872,1.21L34.6,8.644v.5c1.348-.142,3.191-.242,4.559-.263l.08,13.768ZM26.653,7.595H25.7l-.813,1.29,1.387-.121v.384l1.269-.1Zm1.17,3.367H26.277v.746h1.546Zm0,2.1H26.277v.766h1.546ZM30.4,21.524v.4l-2.755-.464.039-4.616-.852-.725v-.08L30.4,15.7v.322c1.546-.081,3.013-.121,4.341-.121v5.624Zm1.586-4.092H30.4v.726h1.585Zm0,1.976H30.4v.745h1.585Zm4.162-8.446H34.6v.746h1.546Zm0,2.1H34.6v.766h1.546Z" fill="#1a1311"/><path d="M56.117,20.4v2.318l-3.251-.544V20.4h-6.7l.576-3.265h.079l.693.746,5.352-.142V16.565H50.943v.545l-3.23-.524.039-7.438-.911-.807V8.26l4.1-.382v.363L53.619,8.1,56.672,8,57.9,4.955l-.516-.908.04-.059,3.924.806L60.22,7.938l1.09-.02.079,8.647H56.117v1.089l6.1-.081.654,2.822ZM48.9,7.858l-.833-3.226L51.1,4.31l.892,2.963ZM52.945,10.4h-2V11.4h2Zm0,3.065h-2v.987h2Zm.278-6.007L52.39,4.229l3.033-.322.892,2.963ZM58.218,10.4h-2.18V11.4h2.18Zm0,3.065h-2.18v.987h2.18Z" fill="#1a1311"/><path d="M78.156,11.3l.317-1.411H75.361a39.989,39.989,0,0,1-2.5,7.861l-4.2-1.854v-.081l1.229-.484a32.087,32.087,0,0,0,1.962-5.442H69.276l.654-3.829h.079l.753.947,1.586-.1.119-1.027-.932-.968V4.833h4.579L75.9,6.769l3.528-.061L79.741,8.2l3.429.121.932-.886.059.02.4,3.85Zm6.125,8.93-.536-1.351-.654-.282a3.8,3.8,0,0,1-3.826,3.709c-2.219,0-4.221-1.23-4.221-3.91a3.849,3.849,0,0,1,4.221-3.912h.516V13.259l-1.031-.887v-.081l4.48-.443.02,3.286a15.121,15.121,0,0,1,2.576,1.129L84.36,20.234Zm-4.5-2.52-.555-.04c-.714-.061-1.05.322-1.05.726a.772.772,0,0,0,.793.7.932.932,0,0,0,.812-.968Z" fill="#1a1311"/><path d="M100.943,12.977l.039-.061,1.348-.463a12.432,12.432,0,0,0,1.189-3.346H92.063l.654-3.971H92.8l.753.928c4.619-.263,9.276-.3,13.895-.3a19.263,19.263,0,0,1-2.4,8.949Zm-6.561,7.156.04-.081,1.268-.423a10.963,10.963,0,0,0,1.427-5.644,12.456,12.456,0,0,0-.2-2.278l-1.13-.585-.02-.1,4.281-1.351a20.645,20.645,0,0,1,.5,4.535,14.268,14.268,0,0,1-2.021,7.74Z" fill="#1a1311"/><path d="M114.624,8.523l2-3.508.04.021.317,1.129a31.048,31.048,0,0,1,4.262,1.148l-.318,3.427Zm.258,9.091.08-.041,1.446.645A19.044,19.044,0,0,0,126.557,11.1l-.238-1.391.04-.06,3.647,2.761a22.483,22.483,0,0,1-13.182,9.454Z" fill="#1a1311"/><path d="M140.3,18.883l.04-.081,1.545.06a11.844,11.844,0,0,0,4.3-7.437h-4.361l-1.665,3.467-3.013-2.217a66.5,66.5,0,0,1,3.806-6.894l-.555-1.25.02-.081L144.485,5.8l-1.229,2.58c3.033-.182,6.085-.3,9.118-.3l.654,3.346h-3.27a15.042,15.042,0,0,1-6.184,10.683Z" fill="#1a1311"/><path d="M159.723,15.214l.615-3.89h.079l.694.867c4.737-.262,9.494-.323,14.231-.323l.634,3.346Z" fill="#1a1311"/><path d="M185.009,21.363V6.3l-1.031-.886V5.338l4.52-.444v6.733l1.189-1.592a29.57,29.57,0,0,0,6.4,2.5l1.388-.565.079.061L195.871,16.2a52.089,52.089,0,0,1-7.373-3v8.95Z" fill="#1a1311"/><path d="M205.073,21.4V7.555l-1.031-.887V6.587l4.52-.423V19.145l1.189.806v.08Zm14.232.383a12.928,12.928,0,0,1-8.86-4.273l3.013-3.084.059.041L213.4,15.8a9.871,9.871,0,0,0,5.431,2.277l1.21-1.008.079.021ZM211,10.256l.654-3.81h.079l.734.927c1.922-.2,4.341-.3,6.719-.3l.654,3.185Z" fill="#1a1311"/><path d="M242.419,14.791a29.271,29.271,0,0,1-3.588-.907l.4,1.371h-8.3l.337-1.472c-.991.363-2.082.706-3.33,1.029L226.5,11.385l.059-.041,1.17.464a19.7,19.7,0,0,0,6.223-2.7l-.317-.907.02-.06,2.775.866-1.407-1.048h-1.844l.377.948-2.339.786-1.05-1.734h-.318l-.99,1.633-2.32-1.733,2.081-3.084-.4-1.008.04-.061,3.369,1.29-.456.746,3.39-.222.356,1.512,1.785-2.257-.4-1.008.04-.061,3.369,1.29-.5.726,3.845-.2.575,2.439h-2.18l.495,1.129-2.339.806-1.189-1.935h-.694l-.813,1.19.536.161-.416.644a23.03,23.03,0,0,0,5.292,1.673l1.129-.523.08.019Zm-10.386,7.257v.624l-3.251-.523.08-5.141-.932-.786v-.08l4.1-.383v.5c2.794-.242,6.917-.3,9.256-.3l.079,6.088Zm6.1-3.548h-6.1v1.29h6.1Zm-1.17-5.321c-.773-.323-1.546-.686-2.339-1.109a14.774,14.774,0,0,1-2.12,1.189Z" fill="#1a1311"/><path d="M264.375,22.229a6.79,6.79,0,0,1-6.065-4.676,25.92,25.92,0,0,0-2.993,1.008,40.024,40.024,0,0,0-2.736,3.3l-3.488-2.7.02-.06,1.427-.262c1.883-2.2,3.806-4.355,5.887-6.39h-5.352l.674-3.83h.079l.734.947c2.834-.181,5.688-.282,8.523-.3l.653,3.185h-.991c-.852.826-1.743,1.633-2.576,2.5a27.479,27.479,0,0,1,3.072-.746c.179,2.279.853,3.951,3.172,4.6l1.09-.584.078.019Zm-11.3-14.513,1.546-3.891h.04l.476,1.231,5.41.483-.158,3.406Z" fill="#1a1311"/><path d="M281.239,22.128c-3.092-1.733-5.372-4.656-5.372-8.385a9.592,9.592,0,0,1,1.011-4.254l-6.64.121.615-3.93h.079l.753.947c4.559-.362,9.137-.463,13.717-.544l.713,3.245-5.293.1a8.919,8.919,0,0,0-1.308,4.313,5.67,5.67,0,0,0,2.716,4.7l1.507-.243.059.081Z" fill="#1a1311"/><path d="M309.779,22.41a37.107,37.107,0,0,1-10.07-2.015V12.412l-1.209.2.04-1.23h-1.269v3.769l.734-.222,1.229,2.7-6.244,1.794-.5-3.769.079-.02.992.686.694-.222V11.385h-1.824l.615-3.629h.079l.753.947.377-.04V5.579l-.893-.765V4.733l3.9-.363V8.442l.754-.04.515,2.519.039-1.875h.08l.832.706.218-.041V6.89l-.872-.767v-.08L302.6,5.7V9.148l.892-.182V5.378l-.872-.766v-.08l3.766-.343V8.462l3.786-.645.079,9.312-3.865-.584v1.27l-2.894-.464V11.828l-.892.141v6.007a30,30,0,0,0,6.72,1.129l1.149-.887.059.02Zm-2.5-11.146-.892.121v4.776l.892-.563Z" fill="#1a1311"/><path d="M316.852,19.589l.06-.061,1.327-.04a11.267,11.267,0,0,0,2.855-4.293l-.615-1.068.04-.081,4.1,1.088a15.922,15.922,0,0,1-4.678,7.277Zm16.214,2.8a30.769,30.769,0,0,1-6.9-1.209V13.864H317.09l.6-3.507h.079l.673.847c3.846-.222,10.545-.322,14.371-.322l.6,2.982H329.5v5a29.992,29.992,0,0,0,3.231.443l1.129-.805.08.019ZM319.31,8.321l.614-3.507H320l.655.826c2.894-.181,6.957-.3,10.029-.3l.6,2.983Z" fill="#1a1311"/><path d="M351.634,21.907v-.08l1.329-.787V16.625h-2.5l.733,2.036v.021l1.11.2.02.1-2.913,1.935-2.022-3.508,2.418-.786h-2.418l.059-.322-1.665.282v5.886l-3.012-.483V17.069l-3.073.5.2-3.729.079-.02.892.746,1.9-.364V10.8h-.734l-.2,1.774L339.524,11.4l.793-4.757-.635-.766.02-.121,2.736.343-.3,1.934.635-.06V5.458l-.892-.745V4.632l3.9-.362V7.817h.952l.634,2.983h-1.586v2.862l1.011-.2.793,2.116.376-2.055h.08l.6.745,4.321-.2v-.242l-.892-.766v-.081l4.063-.383.02,1.391,1.387-.02.575,2.66h-1.942l.039,6.047Zm-4.459-9.434.575-3.1h.079l.615.746,2.6-.121V8.7h-3.29l.574-3.1h.08l.594.766,2.042-.141V5.217l-.892-.766V4.37l4.063-.382v2.1l2.6-.04.575,2.66h-3.172v1.17l3.39-.06.574,2.66Z" fill="#1a1311"/><path d="M368.93,11.889c-.1,4.032-.654,7.094-2.022,9.715l-3.647-1.512.02-.08.972-.4a19.892,19.892,0,0,0,1.466-7.719h-1.348l.516-2.862h.079l.674.685,2.3-.1L367.681,8.1h-2.418l.516-2.882h.079l.674.706,4.459-.161V5.137l-.951-.808V4.25l4.282-.4V5.68l5.232-.08.6,2.5h-2.478l-.218,1.331,2.934-.041.6,2.5Zm-.416,10.16.516-2.8h.079l.673.7,3.707-.16v-.948H370l.337-1.814-1.467-.786.892-2.9-.456-1.028.02-.081,3.191.706-.159.565,1.13-.062v-.281l-.892-.766v-.081l4.063-.362v1.39l3.568-.02.615,2.338H376.66v.888l3.073-.041.614,2.338H376.66v.867l4.2-.08.594,2.419ZM374.421,8.1h-3.469l.376,1.391,2.736-.019Zm-.932,7.559h-1.744l-.3,1.088,2.042-.079Z" fill="#1a1311"/><path d="M390.987,21.706v.805l-2.933-.5.079-7.417-.892-.766v-.08l3.746-.364v.464c1.348-.121,2.973-.181,4.42-.181v8.043Zm2.339-9.313v.4l-3.171-.525.079-6.35-.892-.765V5.076l3.984-.363v.463c2.953-.261,5.629-.342,8.7-.342l.08,7.559Zm-.773,4.112h-1.566v2.3h1.566Zm6.382-8.889h-5.609V9.793h5.609Zm.5,14.09v.765l-2.934-.5.08-7.478-.893-.786v-.08l3.747-.364v.625a43.427,43.427,0,0,1,4.678-.221l.1,8.043Zm1.823-5.2h-1.823v2.3h1.823Z" fill="#1a1311"/><path d="M417.844,22.088l-2.735-8.748-3.726,1.068-.694-4.515.079-.02,1.11.786,2.22-.545L413.3,7.575l-1.249-.545-.02-.08L416.2,5.136l1.289,4.112a29.083,29.083,0,0,1,3.488-.766l-2.121-1.975,2.854-2.379,2.042,2.56,1.348-.141.039.04-1.526,1.976a3.765,3.765,0,0,1,3.271,3.849c0,2.379-1.586,4.314-3.41,5.645l-2.854-3.387.04-.061,1.427.122a2.964,2.964,0,0,0,1.189-1.935c0-.907-.832-1.149-1.566-1.149a12.176,12.176,0,0,0-3.27.725l2.815,9.051Z" fill="#1a1311"/><path d="M445.429,21.987v-.081l1.328-.826V15.275l-4.043.867V12.715h-2.2l1.428.383-1.428,3,.754-.081v.4l4.479-.161V21.08h-4.479v.645l-2.874-.322.019-4.334-.654-.565v-.08l2.538-.282-2.775-1.15v-.06l.971-.363.773-1.854h-1.883v9.8l-3.092-.483.079-10.825-.892-.746v-.08l3.548-.4v.2l.377-.02-.258-1.613h-3.33l.575-3.264h.079l.6.765,5.351-.182V5.337l-.951-.806V4.45l4.281-.4V5.781l6.125-.06.6,2.821h-3.39l-.218,1.331h3.072l.08,12.759ZM443.8,8.542h-3.39l.4,1.451,2.616-.08Zm-.952,9.695h-1.585v1.129h1.585Zm3.9-5.522h-1.229v1.673l1.229.625Z" fill="#1a1311"/><path d="M460.386,21.706v.805l-2.934-.5.08-7.417-.893-.766v-.08l3.747-.364v.464c1.348-.121,2.973-.181,4.42-.181v8.043Zm2.339-9.313v.4l-3.171-.525.079-6.35-.892-.765V5.076l3.984-.363v.463c2.953-.261,5.629-.342,8.7-.342l.08,7.559Zm-.773,4.112h-1.566v2.3h1.566Zm6.382-8.889h-5.609V9.793h5.609Zm.5,14.09v.765l-2.934-.5.079-7.478-.892-.786v-.08l3.747-.364v.625a43.427,43.427,0,0,1,4.678-.221l.1,8.043Zm1.823-5.2H468.83v2.3h1.823Z" fill="#1a1311"/><path d="M489.164,21.746v-.081l1.348-.766a18.57,18.57,0,0,0,.317-3.609h-1.585a9.827,9.827,0,0,1-4.182,5.06l-2.617-2.459.039-.081,1.249-.04a8.4,8.4,0,0,0,2.22-2.48h-1.645l.2-.947a16.662,16.662,0,0,1-2.16.867l-2.24-2.761.04-.121,1.011.161a11.3,11.3,0,0,0,3.785-1.512h-4.321l.555-3.164h.08l.674.726,4.519-.162.238-.967h-5l.555-3h.079l.674.746.337-.021-.555-2.277,2.6-.242.832,2.379,1.031-.061.1-1.814-.892-.766V4.27l4.341-.343-.2,2.943,1.031-.02.813-2.318,2.735.282-.4,2.016h.733l.634,2.58h-6.065l-.238.907,6.819-.081.654,2.741h-3.152A18.227,18.227,0,0,0,496.7,14.57l1.13-.222.06.061-1.9,3.023c-.634-.383-1.269-.786-1.9-1.229a30.373,30.373,0,0,1-.495,6.409Zm-.535-8.769a8.422,8.422,0,0,1-1.823,1.955c1.645-.08,3.587-.141,5.331-.181-.475-.383-.911-.746-1.288-1.109l1.189-.665Z" fill="#1a1311"/><path d="M519.67,15.174l-1.269-.665-2.338.483.04,2.8-4.1-.362-.02-.081,1.03-.887v-.786c-.872.3-1.625.766-1.625,1.814,0,1.31,2.339,1.391,3.191,1.391.436,0,.872-.021,1.308-.021l1.011-1.128h.08v4.354c-.615,0-1.21.04-1.824.04-2.835,0-7.037-.625-7.037-4.353,0-2.359,2.082-3.891,4.064-4.637a2.577,2.577,0,0,0-.952-.161,7.655,7.655,0,0,0-1.9.3c-.476.645-.972,1.25-1.507,1.855l-3.488-2.379v-.08l1.288-.263a17.712,17.712,0,0,0,2.28-2.76H504.9l.655-3.831h.079l.753.948,2.795-.142.237-1.048-.792-1.108.019-.081,4.56.666-.357,1.471,4.737-.061.674,3.186h-6.68c-.159.341-.337.665-.535,1.007a15.5,15.5,0,0,1,1.665-.1,2.867,2.867,0,0,1,2.676,1.411L518.5,11.1l1.229,4.05Z" fill="#1a1311"/><path d="M533.88,22.774v-.081l1.031-.887v-.383c-3.251-.02-6.323-1.31-7.849-4.374a7.737,7.737,0,0,1-.833-3.527,8.019,8.019,0,0,1,1.744-5,8.158,8.158,0,0,1,6.581-2.983,13.589,13.589,0,0,1,3.826.6l-1.269,4.192-.079-.019-.575-1.068a7.65,7.65,0,0,0-2.022-.3,4.347,4.347,0,0,0-4.638,4.535c0,2.983,2.438,4.476,5.114,4.556V14.852l-1.031-.907v-.081l4.6-.423V23.2Z" fill="#1a1311"/><path d="M545.459,21.282V8.664h-.991l.654-3.991h.08l.753.947h8.681l.675,3.044h-6.284v2.923h5.352l.654,3.044h-6.006v3.607h4.718l.753-1.41.079-.021,1.17,4.475Z" fill="#1a1311"/><path d="M563.963,21v-.08l1.031-.888V9.066h-3.965l.655-3.97h.079l.753.926h8.6l.754-.926h.079l.654,3.97h-4.043V21.442Z" fill="#1a1311"/><path d="M582.844,22.229l-2.954-4.272,3.152-1.453,1.883,2.923,1.269.161.039.061Zm-1.685-7.458,1.368-9.191-.872-1.048.02-.081,4.44.342-1.884,11.631Z" fill="#1a1311"/><path d="M206.106,43.6a12.245,12.245,0,0,1-5.252,8.083l-3.113-3.467.04-.061,1.606.142a10.34,10.34,0,0,0,2.953-4.7H195.9l.654-3.911h.079l.734.948c1.8-.141,3.647-.162,5.451-.2,2.715-.06,5.431-.1,8.147-.1l.673,3.265Zm-8.384-5.16.654-3.89h.079l.753.926c2.577-.2,5.193-.241,7.79-.281l-.317-.888,2.517-.543.278,2.418-.813.162.416,2.1Zm12.824-2.2-.812-2.278,2.517-.544.277,2.419Z" fill="#1a1311"/><path d="M218.565,43.342l.674-3.769h.079l.734.927,4.658-.3.535,3.145Zm.436-5.2.992-3.709h.079l.654,1.008,4.2.04.258,3.185Zm.476,8.969.079-.04,1.447.645A19.044,19.044,0,0,0,231.152,40.6l-.238-1.391.04-.06,3.627,2.761a22.43,22.43,0,0,1-13.162,9.453Zm10.347-8.929-.813-2.3,2.517-.544.278,2.419Zm3.052-.343-.812-2.3L234.581,35l.277,2.419Z" fill="#1a1311"/><path d="M244.2,48.906l.039-.061,1.466-.019a19.119,19.119,0,0,0,3.252-2.843l-3.45-1.612,2.36-3.487.058.04.3,1.17,2.716,1.007a13.279,13.279,0,0,0,1.051-2.983h-5.114l-1.864,3.95L242,41.851a55.229,55.229,0,0,1,3.548-6.37l-.556-1.249.019-.081,4.065,1.351-.733,1.551c2.556-.241,5.112-.282,7.669-.282-.534,6.793-2.7,11.349-8.363,15.158Z" fill="#1a1311"/><path d="M262.016,47.858l.039-.061,1.25-.3a17.217,17.217,0,0,0,1.782-8.143l-1.031-.806v-.06l4.361-.4v2.258a18.032,18.032,0,0,1-2.616,9.836Zm15.519-4.637.08-.02,2.338,4.052a21.8,21.8,0,0,1-9.157,3.87V36.005l-1.03-.887v-.081l4.519-.443V46.407a14.889,14.889,0,0,0,2.973-1.633Z" fill="#1a1311"/><path d="M286.31,51.164v-.081l1.348-.786V46.951l-1.447.4-.417-3.729.08-.02.891.645.893-.283V40.662h-1.943l.575-3.387h.079l.635.786.654-.059V35.058l-.893-.786v-.081l3.985-.362V37.78l.951-.021.6,2.9H290.75V43l.555-.162,1.169,2.742-1.724.484V51.91Zm9.217.02v.846l-2.934-.483L292.672,38l-.792-.807v-.081l3.647-.3v.565l.812-.061V34.655l-.892-.766v-.081l4.064-.343v3.69l3.647-.041.119,14.07Zm.892-11.087h-.892v2.722h.892Zm0,5.382h-.892v2.862h.892Zm3.9-5.382h-.951v2.722h.951Zm0,5.382h-.951v2.862h.951Z" fill="#1a1311"/><path d="M326.943,52.029a41.851,41.851,0,0,1-11.913-1.692l-4.024,1.37L309.7,48.019l.06-.04,1.13.5L312.1,48.1V43.624h-2.2l.635-3.527h.079l.615.766c1.129-.141,2.715-.282,3.983-.323v7.015c.734.2,1.487.383,2.28.545l-.991-1.049,1.665-.887h-2.5l.456-2.338h.08l.554.6,1.269-.021V43.5H316.4l.455-2.338h.08l.555.625.535-.02v-.323l-.773-.625v-.08l2.24-.2a13.286,13.286,0,0,1-3.271-.644V36.549h2.617V35.9h-2.914l.476-2.176h.079l.555.644c1.348-.161,2.537-.222,4.162-.282v3.951h-2.5v.544a17.325,17.325,0,0,0,2.061.142l.793-.424.06.02-.635,2.278H320.8v1.068l1.427-.04v-.262l-.773-.625v-.081l2.656-.242a11.87,11.87,0,0,1-2.339-.523V36.549H324.5V35.9h-3.032l.476-2.176h.079l.555.644c1.348-.161,2.715-.222,4.361-.282v3.951h-2.7v.524a21.511,21.511,0,0,0,2.279.141l.773-.4h.08l-.634,2.278A17.209,17.209,0,0,1,325,40.5v1.068h1.348l.476,1.935H325v.727h2.022l.475,1.934h-2.636l1.824.987L325.02,48.9l-2.954-1.532,1.309-1.209h-3.707l1.308,1.209-1.982,1.008a50.59,50.59,0,0,0,7.671.564l.991-.684h.079ZM309.956,37.113l1.784-3.486h.059l.5,1.209,3.369.867-.793,3.144Zm12.269,6.39H320.8v.827l1.427-.06Z" fill="#1a1311"/><path d="M337.254,42.577l.4-2.238c-.775.363-1.586.686-2.479,1.008l-1.664-4.052.058-.04,1.23.484a24.139,24.139,0,0,0,6.382-3.467l-.455-1.069.019-.06,4.182,1.472-.4.644a25.541,25.541,0,0,0,5.549,2.3l1.189-.563.079.04-1.505,4.171c-.953-.322-1.864-.665-2.716-1.007l.514,2.379ZM348.1,52.494l-1.387-2.278-.139,1.149-11.079.665.2-4.132h.079l.892.947,1.109-.04.556-2.076h-4.083l.614-3.527h.08l.753.926c3.924-.221,10.128-.3,14.569-.3l.614,2.9h-8.88l-.535,1.934,4.221-.161-.3-.463,3.112-1.25,1.526,3.206,1.249.221.019.061ZM338.7,40.057c2.239-.182,4.915-.282,7.394-.3a27.3,27.3,0,0,1-3.926-2.176,20.8,20.8,0,0,1-3.587,2.318Z" fill="#1a1311"/><path d="M358,51.668l.079-16.57-.872-.765v-.081l3.885-.363v.423c1.308-.14,3.171-.222,4.4-.262v7.377h-4.4V52.172Zm4.6-15.3h-1.506v.685H362.6Zm0,2.4h-1.506v.686H362.6Zm4.163,12.155V47.777h-1.07a8.4,8.4,0,0,1-1.269,3.508l-3.231-1.572.02-.082,1.091-.342a5.85,5.85,0,0,0,.574-1.512H361.59l.515-2.62h.079l.575.685.3-.02V44.21h-1.01l.515-2.54h.079l.595.685c1.7-.142,4.6-.2,6.6-.2l.516,2.056h-.813v1.43h.714l.535,2.137h-1.249v3.629Zm0-6.712h-.932v1.471l.932-.02Zm3.171,7.377v-.081l1.348-.786V41.427h-1.506v.464l-3.013-.464.079-6.469-.872-.767v-.08l3.806-.343v.484c1.605-.121,3.449-.2,4.6-.222l.079,18.3Zm1.348-15.218h-1.506v.685h1.506Zm0,2.4h-1.506v.686h1.506Z" fill="#1a1311"/><path d="M391.158,51.507v.665l-2.933-.444.059-6.874-1.744-1.41V51.91l-3.171-.484v-7.76l-2.934-2.521.04-.059.991-.162a24.565,24.565,0,0,0,2.26-5.987l-.694-1.129.02-.08,4.222,1.008,3.468-.3V36.47h1.051V34.636l-.872-.747v-.081l3.964-.342v3h1.05V35.341l-.872-.746v-.081l3.806-.342v4.434h-5.054l2.755.726-.317.987,2.081-.019.476,2.176h-3.053V43.5l2.339-.02.376,1.935h-2.715v.907l2.418-.021.377,1.936h-2.8V49.39l3.053-.06.475,2.177Zm-3.9-8.406a31.229,31.229,0,0,0,1.823-3.608l-.357-.585-.99-.161.079-3.145-.515-.443a44.4,44.4,0,0,1-2.241,6.067l1.487-.181V43.2Zm6.283-3.75-.416-.745h-2.379v.343l1.527.362-.5,1.169,1.348-.06Zm-.654,3.125h-1.725v1.069l1.725-.021Zm0,2.943h-1.725v.947l1.725-.02Zm0,2.822h-1.725v1.311l1.725-.082Z" fill="#1a1311"/><path d="M410.586,51.728l-2.954-4.273L410.784,46l1.883,2.923,1.269.161.039.061ZM408.9,44.27l1.368-9.191L409.4,34.03l.02-.08,4.44.342-1.884,11.63Z" fill="#1a1311"/><path d="M15.495,80.983V80.9l1.328-.826V74.272l-4.043.867V71.712h-2.2l1.428.383-1.428,3,.754-.08v.4l4.479-.162v4.818H11.333v.645L8.459,80.4l.019-4.334L7.824,75.5v-.08l2.538-.282-2.775-1.15v-.06l.971-.363.773-1.854H7.448v9.8l-3.092-.483L4.435,70.2l-.892-.746v-.081l3.548-.4v.2l.377-.021L7.21,67.539H3.88l.575-3.264h.079l.6.765,5.351-.182v-.524l-.951-.806v-.081l4.281-.4v1.734l6.125-.06.6,2.821H17.14l-.218,1.33h3.072l.08,12.76ZM13.87,67.539H10.48l.4,1.451,2.616-.08Zm-.952,9.695H11.333v1.129h1.585Zm3.9-5.522H15.594v1.673l1.229.625Z" fill="#1a1311"/><path d="M30.452,80.7v.806L27.518,81l.08-7.418-.893-.766V72.74l3.747-.362v.463c1.348-.121,2.973-.181,4.42-.181V80.7Zm2.339-9.313v.4l-3.172-.524.08-6.349-.893-.766v-.081l3.985-.362v.462c2.953-.261,5.629-.342,8.7-.342l.08,7.558ZM32.018,75.5H30.452v2.3h1.566ZM38.4,66.613H32.791V68.79H38.4ZM38.9,80.7v.766l-2.934-.5.079-7.478-.892-.786v-.08l3.747-.364v.625a43.428,43.428,0,0,1,4.678-.221l.1,8.042Zm1.823-5.2H38.9v2.3h1.823Z" fill="#1a1311"/><path d="M59.23,80.743v-.081l1.348-.766a18.57,18.57,0,0,0,.317-3.609H59.31a9.824,9.824,0,0,1-4.183,5.06l-2.616-2.459.039-.081,1.249-.04a8.4,8.4,0,0,0,2.22-2.48H54.374l.2-.947a16.8,16.8,0,0,1-2.16.867l-2.24-2.761.04-.121,1.011.161a11.323,11.323,0,0,0,3.785-1.512h-4.32l.554-3.165h.079l.675.727,4.519-.163.238-.966H51.758l.555-3h.079l.674.746.337-.021-.555-2.277,2.6-.242.832,2.379,1.031-.061.1-1.814-.892-.766v-.08l4.341-.343-.2,2.943,1.031-.02.813-2.318,2.735.282-.4,2.016h.733l.634,2.58H60.142l-.238.906,6.819-.08.654,2.741H64.225a18.322,18.322,0,0,0,2.537,1.593l1.13-.222.06.061-1.9,3.023c-.634-.384-1.269-.786-1.9-1.229a30.374,30.374,0,0,1-.5,6.409Zm-.535-8.769a8.423,8.423,0,0,1-1.823,1.955c1.645-.08,3.587-.141,5.331-.182-.475-.382-.911-.745-1.288-1.108l1.19-.665Z" fill="#1a1311"/><path d="M78.46,78.686l.06-.08,1.486-.263a11.739,11.739,0,0,0,1.943-5.926c0-1.43-.278-1.794-1.863-1.794l-.4.061-.178,6.672-3.469-.686.139-5.221-1.9.565L73.247,67.62l.06-.02,1.189.725,1.784-.443.06-2.741-.991-.927v-.081l4.519-.3-.1,3.609.913-.021c3.428-.08,4.856,2.459,4.856,5.06A16.693,16.693,0,0,1,82.543,81Zm7.275-12.335-.813-2.3,2.517-.545.278,2.419Zm2.438,7.981A54.685,54.685,0,0,1,85.021,67.1l3.528-.786a44.7,44.7,0,0,0,1.884,5.422l1.308.3.019.061Zm.614-8.324-.812-2.278,2.517-.565.277,2.419Z" fill="#1a1311"/><path d="M97.831,80.642l.575-3.266h.079l.6.745c2.735-.14,6.878-.241,10.268-.282V72.5H98.406l.575-3.265h.079l.6.746,4.361-.142V64.415l-.932-.826v-.081l4.262-.4v6.632l5.252-.061.079,10.966Zm2.1-11.329-1.566-4.575,2.973-.5,1.01,3.326.873.544.039.06Zm-1.527,7.116.535-3.064h.079l.556.725c3.349-.282,6.917-.322,8.919-.322l.555,2.661Zm9.673-8.708,1.9-2.781-.258-1.029.04-.06,3.171,1.572L110.4,69.7Z" fill="#1a1311"/><path d="M129.327,72.418l.634-2.882h-2.735A38.371,38.371,0,0,1,123.9,80.7l-4.063-1.855.019-.059,1.309-.485a38.594,38.594,0,0,0,2.556-8.767h-2.755l.654-3.83h.08l.733.947,1.645-.121.1-1.451-.971-.948v-.08l4.539-.1-.178,2.459,4.063-.06.595,2.862,2.12.06.932-.887.06.021.4,4.011Zm5.966,8.566a13.35,13.35,0,0,1-8.047-3.043l2.457-3.588.06.02.158,1.39a10.434,10.434,0,0,0,4.738,1.573l1.169-.988h.079Z" fill="#1a1311"/><path d="M149.461,77.295l.06-.061,1.308.142c1.347-.867,2.616-2.036,2.616-3.769,0-1.633-1.427-2.016-2.775-2.016a20.955,20.955,0,0,0-5.827,1.35l-1.328-3.709.1-.04.991.484a22.507,22.507,0,0,1,6.184-1.169c3.172,0,5.827,1.633,5.827,5.12,0,3.144-2,5.261-4.578,6.691Z" fill="#1a1311"/><path d="M172.8,72.418l.634-2.882H170.7a38.37,38.37,0,0,1-3.33,11.166L163.3,78.847l.019-.059,1.309-.485a38.594,38.594,0,0,0,2.556-8.767h-2.755l.654-3.83h.08l.733.947,1.645-.121.1-1.451-.971-.948v-.08l4.539-.1-.178,2.459,4.063-.06.6,2.862,2.12.06.932-.887.06.021.4,4.011Zm5.966,8.566a13.35,13.35,0,0,1-8.047-3.043l2.457-3.588.06.02.158,1.39a10.434,10.434,0,0,0,4.738,1.573l1.169-.988h.079Z" fill="#1a1311"/><path d="M186.63,78.707l-.5-3.79h.079l.991.685.773-.262V70.381h-1.9l.614-3.628h.079l.754.948.455-.04V64.516l-.892-.766v-.081l3.9-.382v4.192h.912l.614,2.9H190.99v4.012l.575-.182,1.229,2.7Zm12.9,2.337v-.08L200.7,80.4a15.562,15.562,0,0,0,.3-1.936l-2.973,3.266-1.586-1.935,2.577-2.621-.04-.4h-1.249l.536.343L194.974,80.8l-1.585-1.956,2.259-2.338-.218-.584-1.189,1.33-1.764-1.693,1.328-1.593H192.14l.555-2.982h.079l.694.745c3.052-.222,7.453-.343,10.862-.343l.634,2.58h-7.829l-.674.767,7.809-.182a32.284,32.284,0,0,1-.594,7.318Zm-2.339-10.279v.423l-3.092-.5.08-6.127-.912-.786V63.69l3.924-.363v.524c1.863-.161,4.3-.2,5.927-.2l.079,7.115Zm2.914-5.019h-2.914v.726h2.914Zm0,2.459h-2.914v.706h2.914Zm1.011,8.566H199.89l1.169.867Z" fill="#1a1311"/><path d="M213.7,72.116l.258-1.492c-.635.322-1.309.645-2.061.987l-2.181-3.668.059-.04,1.289.322a22.113,22.113,0,0,0,6.561-4.535l-.456-1.068.02-.061,4.182,1.472-.436.726a23.815,23.815,0,0,0,5.926,3.084l1.249-.444.079.04-1.962,3.991c-.991-.423-1.923-.867-2.814-1.331l.455,2.017Zm2.081,8.828v.786l-3.33-.5.08-6.833-.932-.786v-.081l4.182-.383v.544c3.152-.221,7.136-.3,9.475-.3l.059,7.559Zm6.244-4.8h-6.244v2.177h6.244Zm-3.211-8.95a16.724,16.724,0,0,1-2.993,2.358c1.962-.121,4.083-.221,6.164-.242a27.108,27.108,0,0,1-3.171-2.116" fill="#1a1311"/><path d="M234.882,79.754V66.573l-1.031-.888v-.08l4.519-.424V77.517l1.189.786v.081Zm14.509-.826-.536-1.351-.653-.282A3.784,3.784,0,0,1,244.376,81c-2.22,0-4.222-1.209-4.222-3.91a3.872,3.872,0,0,1,4.222-3.911l.515.02V69.9h-4.935l.674-3.829h.079l.733.947,3.449-.182v-1.39l-1.03-.887v-.081l4.479-.423v2.681l1.387-.021.655,3.185H248.34v3.93a15.429,15.429,0,0,1,2.6,1.129l-1.467,3.992Zm-4.5-2.5-.555-.061c-.714-.06-1.03.323-1.03.726a.756.756,0,0,0,.773.726.953.953,0,0,0,.812-.989Z" fill="#1a1311"/><path d="M260.055,81.709l-3.25-4.938,3.111-1.411,2.062,3.367,1.268.12.04.081Z" fill="#1a1311"/><path d="M278.411,80.923V67.137h-6.282l.634-3.629h.078l.694.867c4.024-.222,10.505-.3,14.469-.3l.616,3.065h-6.8v3.688l1.131-1.189a30.842,30.842,0,0,0,4.717,3l1.169-.222.059.04-2.021,3.366a37.565,37.565,0,0,1-5.055-3.084v8.748Z" fill="#1a1311"/><path d="M294.972,68.083l.515-2.962h.079l.556.706,1.308-.1.694-1.532-.556-.927.02-.06,3.726.7-.594,1.632,1.7-.04.535,2.579Zm3.786,12.66v.6l-2.835-.424L296,76.066l-.872-.746v-.08l3.628-.364v.364c1.09-.1,2.339-.161,3.8-.182v5.685Zm-3.271-6.451.476-2.58h.079l.5.605c1.724-.161,3.786-.282,5.47-.282l.5,2.257Zm.079-3.1.476-2.58h.08l.495.6c1.724-.161,3.707-.282,5.312-.282l.5,2.258Zm4.2,6.289h-1.011v1.048h1.011Zm12.606,3.709a33.328,33.328,0,0,1-8.464-1.149v-8.87L303,70.381V70.3l4.1-.383V70.6h1.9V67.056h-5.867l.6-3.548h.079l.634.786c1.983-.181,5.293-.322,7.711-.322l.079,9.554H307.1v4.031A40.47,40.47,0,0,0,311.82,78l1.308-.867.08.04Z" fill="#1a1311"/><path d="M324.2,68.205c-.119,4.636-.575,8.789-1.883,12.175l-3.627-1.492.019-.081.932-.443a30.979,30.979,0,0,0,1.487-10.159h-.952l.615-3.528h.079l.753.948,5.094-.181V64.395l-.931-.806v-.081l4.182-.382v2.237l5.768-.061.615,2.9Zm3.627,12.578v.705l-3.171-.5.079-5.684-.773-.766v-.08l3.865-.364v.343l.436-.04V69.576l-.911-.786v-.081l4.162-.383V70.2l4.182-.161.674,2.58H331.51v1.592l3.707-.081.079,6.652Zm4.3-4.071h-4.3v1.733h4.3Z" fill="#1a1311"/><path d="M356.821,81.206v-.08l1.07-.766V78.223h-.971V80.48l-2.557-.443V78.223h-.951V81.65l-2.557-.484V69.294l-.654-.646v-.08l3.211-.343v.544l.654-.04V67.3h-3.409l-.753,1.29-2.617-1.753a14.075,14.075,0,0,1-.892,1.249l2.379-.2v1.492l1.11-.04.495,1.935h-1.605v.967l1.367-.04.476,2.177h-7.155l.475-2.539h.08l.436.563L346,72.338V71.269h-1.863l.257-1.27-1.685-1.976a24.844,24.844,0,0,0,3.192-4.071l-.5-.826v-.061l3.667.746-.376.726,1.724,1.43.119-.019.277-1.714h.08l.535.726,2.636-.141v-.826l-.832-.786v-.081l3.845-.363V64.7l.852-.021-.079-1.229,2.061-.262.337,1.451h.436L361.2,67.3h-4.123v1.249l3.429-.14.119,13.444Zm-10.148-.645v.665l-2.617-.423.08-4.878-.813-.685v-.081l3.35-.3v.322l3.548-.161v5.543ZM346,69.031l-.218-.181-.615.686L346,69.5Zm1.724,8.164h-1.051v1.229h1.051Zm6.64-5.967h-.951v1.028h.951Zm0,3.286h-.951v1.209h.951Zm3.528-3.286h-.971v1.028h.971Zm0,3.286h-.971v1.209h.971Z" fill="#1a1311"/><path d="M378.473,81.125c-3.092-1.734-5.371-4.656-5.371-8.386a9.6,9.6,0,0,1,1.01-4.253l-6.64.121.615-3.91.079-.02.754.947c4.558-.362,9.137-.463,13.716-.544l.713,3.245-5.292.1a8.922,8.922,0,0,0-1.308,4.313,5.668,5.668,0,0,0,2.715,4.7l1.507-.242.059.081Zm.833-8.164-.813-2.278,2.517-.564.278,2.439Zm3.052-.342-.812-2.278,2.517-.544.277,2.419Z" fill="#1a1311"/><path d="M403.2,75.522h.08l.713,4.635a23.926,23.926,0,0,1-3.806.364c-4.241,0-7.888-1.674-9.653-5.766l4-1.773.04.06-.4,1.23c1.209,2.1,3.806,2.64,6.026,2.64a15.792,15.792,0,0,0,2.18-.141Zm-11.536-7.136.674-3.829h.06l.753.947c2.5-.181,5-.263,7.492-.3l-.436-1.209,2.517-.564L403,65.847l-.972.2.5,2.338Zm12.428-2.459-.812-2.277,2.517-.565.277,2.419Z" fill="#1a1311"/><path d="M415.208,80.843V75.562l-1.745,2.559-1.823-2.2,2.577-3.407H412l.575-3.265h.079l.614.745,1.943-.181V68.366l-.694-.6-1.923.5-.039-2.922,5.57-1.21.277-.907.079-.04,1.666,3.063L415.9,67.378l2.32-.2v2.539l1.923-.019.574,2.821h-2.5v.443l1.466,1.008,1.031-.262.079.04-1.506,2.984-1.07-.645v5.24Zm6.283-4.455V66.27l3.251.806-.317,7.781,1.031.886v.081Zm3.132,4.374v-.08l1.269-.807V64.616l-1.031-.886v-.08l4.281-.444.079,18.282Z" fill="#1a1311"/><path d="M448.184,80.662v-.08l1.268-.625V76.308h-2.7v4.233l-3.172-.5V76.308h-3.052a19.561,19.561,0,0,1-1.308,4.6l-3.845-1.553.039-.08,1.13-.424c.872-2.3,1.387-6.208,1.387-12.012V64.5l-.773-.666v-.08l3.866-.323v.766c3.667-.262,8.146-.383,11.634-.383l.08,17.6Zm-4.6-9.171h-2.6c-.02.725-.059,1.471-.139,2.2h2.735Zm0-4.737h-2.557V68.87h2.557Zm5.867,0h-2.7V68.87h2.7Zm0,4.737h-2.7v2.2h2.7Z" fill="#1a1311"/><path d="M463.24,80.319c-2.379-3.689-2.993-7.8-2.993-12.134,0-.826.02-1.653.059-2.459l4.539.584-.02.081-1.03.847-.02.684a20.754,20.754,0,0,0,1.705,8.91l2.259.1.02.08Zm10.307-4.132a23.12,23.12,0,0,1-4.42-6.934l3.231-1.27a17.829,17.829,0,0,0,3.29,5.261l1.328.121.02.06Z" fill="#1a1311"/><path d="M491.23,72.418l.634-2.882h-2.735A38.371,38.371,0,0,1,485.8,80.7l-4.063-1.855.019-.059,1.309-.485a38.593,38.593,0,0,0,2.556-8.767h-2.755l.654-3.83h.08l.733.947,1.645-.121.1-1.451-.971-.948v-.08l4.539-.1-.178,2.459,4.063-.06.6,2.862,2.12.06.932-.887.06.021.4,4.011Zm5.966,8.566a13.35,13.35,0,0,1-8.047-3.043l2.457-3.588.06.02.158,1.39a10.434,10.434,0,0,0,4.738,1.573l1.169-.988h.079Z" fill="#1a1311"/><path d="M514.122,72.418l.634-2.882h-2.735a38.37,38.37,0,0,1-3.33,11.166l-4.063-1.855.019-.059,1.309-.485a38.646,38.646,0,0,0,2.557-8.767h-2.755l.654-3.83h.079l.734.947,1.645-.121.1-1.451L508,64.134v-.081l4.54-.1-.179,2.459,4.063-.06.595,2.862,2.121.06.931-.887.06.021.4,4.011Zm5.966,8.566a13.35,13.35,0,0,1-8.047-3.043l2.458-3.588.059.02.159,1.39a10.414,10.414,0,0,0,4.737,1.573l1.169-.988h.08Zm-3.349-14.693-.813-2.279,2.517-.543.278,2.418Zm3.072-.343L519,63.67l2.518-.544.277,2.419Z" fill="#1a1311"/><path d="M529.471,79.513V66.573l-1.031-.888v-.08l4.518-.424v12.1l1.21.786v.08Zm6.461-.443.039-.081,1.309-.322a12.461,12.461,0,0,0,1.625-6.551l-.02-1.21h-4.757l.674-3.89h.08l.733.948,3.191-.2-.059-2.64-1.052-.866v-.081l4.539-.524.1,4.011H544.3l.674,3.245h-2.558l.019,1.451a14.258,14.258,0,0,1-2.557,8.89Z" fill="#1a1311"/><path d="M563.47,79.674l-.456-1.432c-.594-.322-1.248-.6-1.922-.886a3.946,3.946,0,0,1-4.044,3.809c-2.477,0-4.618-1.229-4.618-3.95,0-2.621,2.22-3.951,4.539-3.951h.535V72.216h-4.717l.654-3.73h.079l.753.928,3.231-.141v-1.31h-4.935l.654-3.749h.079l.753.947L557.5,65v-.242l-1.03-.887V63.79l4.6-.423V64.9l3.092-.04.654,3.1h-3.746v1.209l2.854-.06.674,3.1h-3.528v1.652a28.361,28.361,0,0,1,4.42,1.855l-1.943,3.971Zm-5.847-3.125a3.976,3.976,0,0,0-.833-.12c-.832,0-1.01.383-1.01.766,0,.362.257.665.852.665a1.045,1.045,0,0,0,.991-.968Z" fill="#1a1311"/><path d="M578.6,79.594v-.081l1.288-.323a5.878,5.878,0,0,0,1.427-2.076,2.912,2.912,0,0,1-2.12.786,3.642,3.642,0,0,1-3.846-3.95,4.319,4.319,0,0,1,4.242-4.233v-.645h-6.977l.674-3.91h.079l.733.947,5.491-.182V64.92l-1.031-.887v-.081l4.519-.443v2.358L588,65.806l.654,3.266h-5.57v2.137c1.111,1.048,1.586,2.559,1.586,4.777a10.067,10.067,0,0,1-2.22,5.6Zm-.258-5.6c0,.524.3.807.654.807.515,0,.853-.444.872-1.855-1.03.04-1.526.565-1.526,1.048" fill="#1a1311"/><path d="M596.558,81.609a3.447,3.447,0,1,1,3.39-3.446,3.433,3.433,0,0,1-3.39,3.446m0-4.878a1.431,1.431,0,1,0,1.407,1.432,1.43,1.43,0,0,0-1.407-1.432" fill="#1a1311"/><path d="M34.8,21.927v-.081l1.347-.805V15.457h-4.4V9.813l-.793-.746V8.986l1.427-.141-1.7-1.25H29.626l.3.706-2.18.746,2.814-.121v6.531H26.276v7.115l-3.012-.5.079-12.094-.872-.766v-.08l1.387-.142-1.645-1.23,2.2-3.164-.4-.988.039-.06,3.37,1.27-.4.645,3.527-.141.377,1.431,1.844-2.157L32.4,3.6l.04-.06,3.369,1.27-.475.645L39.5,5.318l.575,2.277h-2.26l.258.625-2.339.786-.852-1.411H33.788l-.872,1.21L34.6,8.644v.5c1.348-.142,3.191-.242,4.559-.263l.08,13.768ZM26.653,7.595H25.7l-.813,1.29,1.387-.121v.384l1.269-.1Zm1.17,3.367H26.277v.746h1.546Zm0,2.1H26.277v.766h1.546ZM30.4,21.524v.4l-2.755-.464.039-4.616-.852-.725v-.08L30.4,15.7v.322c1.546-.081,3.013-.121,4.341-.121v5.624Zm1.586-4.092H30.4v.726h1.585Zm0,1.976H30.4v.745h1.585Zm4.162-8.446H34.6v.746h1.546Zm0,2.1H34.6v.766h1.546Z" fill="#ffec00"/><path d="M56.117,20.4v2.318l-3.251-.544V20.4h-6.7l.576-3.265h.079l.693.746,5.352-.142V16.565H50.943v.545l-3.23-.524.039-7.438-.911-.807V8.26l4.1-.382v.363L53.619,8.1,56.672,8,57.9,4.955l-.516-.908.04-.059,3.924.806L60.22,7.938l1.09-.02.079,8.647H56.117v1.089l6.1-.081.654,2.822ZM48.9,7.858l-.833-3.226L51.1,4.31l.892,2.963ZM52.945,10.4h-2V11.4h2Zm0,3.065h-2v.987h2Zm.278-6.007L52.39,4.229l3.033-.322.892,2.963ZM58.218,10.4h-2.18V11.4h2.18Zm0,3.065h-2.18v.987h2.18Z" fill="#ffec00"/><path d="M78.156,11.3l.317-1.411H75.361a39.989,39.989,0,0,1-2.5,7.861l-4.2-1.854v-.081l1.229-.484a32.087,32.087,0,0,0,1.962-5.442H69.276l.654-3.829h.079l.753.947,1.586-.1.119-1.027-.932-.968V4.833h4.579L75.9,6.769l3.528-.061L79.741,8.2l3.429.121.932-.886.059.02.4,3.85Zm6.125,8.93-.536-1.351-.654-.282a3.8,3.8,0,0,1-3.826,3.709c-2.219,0-4.221-1.23-4.221-3.91a3.849,3.849,0,0,1,4.221-3.912h.516V13.259l-1.031-.887v-.081l4.48-.443.02,3.286a15.121,15.121,0,0,1,2.576,1.129L84.36,20.234Zm-4.5-2.52-.555-.04c-.714-.061-1.05.322-1.05.726a.772.772,0,0,0,.793.7.932.932,0,0,0,.812-.968Z" fill="#ffec00"/><path d="M100.943,12.977l.039-.061,1.348-.463a12.432,12.432,0,0,0,1.189-3.346H92.063l.654-3.971H92.8l.753.928c4.619-.263,9.276-.3,13.895-.3a19.263,19.263,0,0,1-2.4,8.949Zm-6.561,7.156.04-.081,1.268-.423a10.963,10.963,0,0,0,1.427-5.644,12.456,12.456,0,0,0-.2-2.278l-1.13-.585-.02-.1,4.281-1.351a20.645,20.645,0,0,1,.5,4.535,14.268,14.268,0,0,1-2.021,7.74Z" fill="#ffec00"/><path d="M114.624,8.523l2-3.508.04.021.317,1.129a31.048,31.048,0,0,1,4.262,1.148l-.318,3.427Zm.258,9.091.08-.041,1.446.645A19.044,19.044,0,0,0,126.557,11.1l-.238-1.391.04-.06,3.647,2.761a22.483,22.483,0,0,1-13.182,9.454Z" fill="#ffec00"/><path d="M140.3,18.883l.04-.081,1.545.06a11.844,11.844,0,0,0,4.3-7.437h-4.361l-1.665,3.467-3.013-2.217a66.5,66.5,0,0,1,3.806-6.894l-.555-1.25.02-.081L144.485,5.8l-1.229,2.58c3.033-.182,6.085-.3,9.118-.3l.654,3.346h-3.27a15.042,15.042,0,0,1-6.184,10.683Z" fill="#ffec00"/><path d="M159.723,15.214l.615-3.89h.079l.694.867c4.737-.262,9.494-.323,14.231-.323l.634,3.346Z" fill="#ffec00"/><path d="M185.009,21.363V6.3l-1.031-.886V5.338l4.52-.444v6.733l1.189-1.592a29.57,29.57,0,0,0,6.4,2.5l1.388-.565.079.061L195.871,16.2a52.089,52.089,0,0,1-7.373-3v8.95Z" fill="#ffec00"/><path d="M205.073,21.4V7.555l-1.031-.887V6.587l4.52-.423V19.145l1.189.806v.08Zm14.232.383a12.928,12.928,0,0,1-8.86-4.273l3.013-3.084.059.041L213.4,15.8a9.871,9.871,0,0,0,5.431,2.277l1.21-1.008.079.021ZM211,10.256l.654-3.81h.079l.734.927c1.922-.2,4.341-.3,6.719-.3l.654,3.185Z" fill="#ffec00"/><path d="M242.419,14.791a29.271,29.271,0,0,1-3.588-.907l.4,1.371h-8.3l.337-1.472c-.991.363-2.082.706-3.33,1.029L226.5,11.385l.059-.041,1.17.464a19.7,19.7,0,0,0,6.223-2.7l-.317-.907.02-.06,2.775.866-1.407-1.048h-1.844l.377.948-2.339.786-1.05-1.734h-.318l-.99,1.633-2.32-1.733,2.081-3.084-.4-1.008.04-.061,3.369,1.29-.456.746,3.39-.222.356,1.512,1.785-2.257-.4-1.008.04-.061,3.369,1.29-.5.726,3.845-.2.575,2.439h-2.18l.495,1.129-2.339.806-1.189-1.935h-.694l-.813,1.19.536.161-.416.644a23.03,23.03,0,0,0,5.292,1.673l1.129-.523.08.019Zm-10.386,7.257v.624l-3.251-.523.08-5.141-.932-.786v-.08l4.1-.383v.5c2.794-.242,6.917-.3,9.256-.3l.079,6.088Zm6.1-3.548h-6.1v1.29h6.1Zm-1.17-5.321c-.773-.323-1.546-.686-2.339-1.109a14.774,14.774,0,0,1-2.12,1.189Z" fill="#ffec00"/><path d="M264.375,22.229a6.79,6.79,0,0,1-6.065-4.676,25.92,25.92,0,0,0-2.993,1.008,40.024,40.024,0,0,0-2.736,3.3l-3.488-2.7.02-.06,1.427-.262c1.883-2.2,3.806-4.355,5.887-6.39h-5.352l.674-3.83h.079l.734.947c2.834-.181,5.688-.282,8.523-.3l.653,3.185h-.991c-.852.826-1.743,1.633-2.576,2.5a27.479,27.479,0,0,1,3.072-.746c.179,2.279.853,3.951,3.172,4.6l1.09-.584.078.019Zm-11.3-14.513,1.546-3.891h.04l.476,1.231,5.41.483-.158,3.406Z" fill="#ffec00"/><path d="M281.239,22.128c-3.092-1.733-5.372-4.656-5.372-8.385a9.592,9.592,0,0,1,1.011-4.254l-6.64.121.615-3.93h.079l.753.947c4.559-.362,9.137-.463,13.717-.544l.713,3.245-5.293.1a8.919,8.919,0,0,0-1.308,4.313,5.67,5.67,0,0,0,2.716,4.7l1.507-.243.059.081Z" fill="#ffec00"/><path d="M309.779,22.41a37.107,37.107,0,0,1-10.07-2.015V12.412l-1.209.2.04-1.23h-1.269v3.769l.734-.222,1.229,2.7-6.244,1.794-.5-3.769.079-.02.992.686.694-.222V11.385h-1.824l.615-3.629h.079l.753.947.377-.04V5.579l-.893-.765V4.733l3.9-.363V8.442l.754-.04.515,2.519.039-1.875h.08l.832.706.218-.041V6.89l-.872-.767v-.08L302.6,5.7V9.148l.892-.182V5.378l-.872-.766v-.08l3.766-.343V8.462l3.786-.645.079,9.312-3.865-.584v1.27l-2.894-.464V11.828l-.892.141v6.007a30,30,0,0,0,6.72,1.129l1.149-.887.059.02Zm-2.5-11.146-.892.121v4.776l.892-.563Z" fill="#ffec00"/><path d="M316.852,19.589l.06-.061,1.327-.04a11.267,11.267,0,0,0,2.855-4.293l-.615-1.068.04-.081,4.1,1.088a15.922,15.922,0,0,1-4.678,7.277Zm16.214,2.8a30.769,30.769,0,0,1-6.9-1.209V13.864H317.09l.6-3.507h.079l.673.847c3.846-.222,10.545-.322,14.371-.322l.6,2.982H329.5v5a29.992,29.992,0,0,0,3.231.443l1.129-.805.08.019ZM319.31,8.321l.614-3.507H320l.655.826c2.894-.181,6.957-.3,10.029-.3l.6,2.983Z" fill="#ffec00"/><path d="M351.634,21.907v-.08l1.329-.787V16.625h-2.5l.733,2.036v.021l1.11.2.02.1-2.913,1.935-2.022-3.508,2.418-.786h-2.418l.059-.322-1.665.282v5.886l-3.012-.483V17.069l-3.073.5.2-3.729.079-.02.892.746,1.9-.364V10.8h-.734l-.2,1.774L339.524,11.4l.793-4.757-.635-.766.02-.121,2.736.343-.3,1.934.635-.06V5.458l-.892-.745V4.632l3.9-.362V7.817h.952l.634,2.983h-1.586v2.862l1.011-.2.793,2.116.376-2.055h.08l.6.745,4.321-.2v-.242l-.892-.766v-.081l4.063-.383.02,1.391,1.387-.02.575,2.66h-1.942l.039,6.047Zm-4.459-9.434.575-3.1h.079l.615.746,2.6-.121V8.7h-3.29l.574-3.1h.08l.594.766,2.042-.141V5.217l-.892-.766V4.37l4.063-.382v2.1l2.6-.04.575,2.66h-3.172v1.17l3.39-.06.574,2.66Z" fill="#ffec00"/><path d="M368.93,11.889c-.1,4.032-.654,7.094-2.022,9.715l-3.647-1.512.02-.08.972-.4a19.892,19.892,0,0,0,1.466-7.719h-1.348l.516-2.862h.079l.674.685,2.3-.1L367.681,8.1h-2.418l.516-2.882h.079l.674.706,4.459-.161V5.137l-.951-.808V4.25l4.282-.4V5.68l5.232-.08.6,2.5h-2.478l-.218,1.331,2.934-.041.6,2.5Zm-.416,10.16.516-2.8h.079l.673.7,3.707-.16v-.948H370l.337-1.814-1.467-.786.892-2.9-.456-1.028.02-.081,3.191.706-.159.565,1.13-.062v-.281l-.892-.766v-.081l4.063-.362v1.39l3.568-.02.615,2.338H376.66v.888l3.073-.041.614,2.338H376.66v.867l4.2-.08.594,2.419ZM374.421,8.1h-3.469l.376,1.391,2.736-.019Zm-.932,7.559h-1.744l-.3,1.088,2.042-.079Z" fill="#ffec00"/><path d="M390.987,21.706v.805l-2.933-.5.079-7.417-.892-.766v-.08l3.746-.364v.464c1.348-.121,2.973-.181,4.42-.181v8.043Zm2.339-9.313v.4l-3.171-.525.079-6.35-.892-.765V5.076l3.984-.363v.463c2.953-.261,5.629-.342,8.7-.342l.08,7.559Zm-.773,4.112h-1.566v2.3h1.566Zm6.382-8.889h-5.609V9.793h5.609Zm.5,14.09v.765l-2.934-.5.08-7.478-.893-.786v-.08l3.747-.364v.625a43.427,43.427,0,0,1,4.678-.221l.1,8.043Zm1.823-5.2h-1.823v2.3h1.823Z" fill="#ffec00"/><path d="M417.844,22.088l-2.735-8.748-3.726,1.068-.694-4.515.079-.02,1.11.786,2.22-.545L413.3,7.575l-1.249-.545-.02-.08L416.2,5.136l1.289,4.112a29.083,29.083,0,0,1,3.488-.766l-2.121-1.975,2.854-2.379,2.042,2.56,1.348-.141.039.04-1.526,1.976a3.765,3.765,0,0,1,3.271,3.849c0,2.379-1.586,4.314-3.41,5.645l-2.854-3.387.04-.061,1.427.122a2.964,2.964,0,0,0,1.189-1.935c0-.907-.832-1.149-1.566-1.149a12.176,12.176,0,0,0-3.27.725l2.815,9.051Z" fill="#ffec00"/><path d="M445.429,21.987v-.081l1.328-.826V15.275l-4.043.867V12.715h-2.2l1.428.383-1.428,3,.754-.081v.4l4.479-.161V21.08h-4.479v.645l-2.874-.322.019-4.334-.654-.565v-.08l2.538-.282-2.775-1.15v-.06l.971-.363.773-1.854h-1.883v9.8l-3.092-.483.079-10.825-.892-.746v-.08l3.548-.4v.2l.377-.02-.258-1.613h-3.33l.575-3.264h.079l.6.765,5.351-.182V5.337l-.951-.806V4.45l4.281-.4V5.781l6.125-.06.6,2.821h-3.39l-.218,1.331h3.072l.08,12.759ZM443.8,8.542h-3.39l.4,1.451,2.616-.08Zm-.952,9.695h-1.585v1.129h1.585Zm3.9-5.522h-1.229v1.673l1.229.625Z" fill="#ffec00"/><path d="M460.386,21.706v.805l-2.934-.5.08-7.417-.893-.766v-.08l3.747-.364v.464c1.348-.121,2.973-.181,4.42-.181v8.043Zm2.339-9.313v.4l-3.171-.525.079-6.35-.892-.765V5.076l3.984-.363v.463c2.953-.261,5.629-.342,8.7-.342l.08,7.559Zm-.773,4.112h-1.566v2.3h1.566Zm6.382-8.889h-5.609V9.793h5.609Zm.5,14.09v.765l-2.934-.5.079-7.478-.892-.786v-.08l3.747-.364v.625a43.427,43.427,0,0,1,4.678-.221l.1,8.043Zm1.823-5.2H468.83v2.3h1.823Z" fill="#ffec00"/><path d="M489.164,21.746v-.081l1.348-.766a18.57,18.57,0,0,0,.317-3.609h-1.585a9.827,9.827,0,0,1-4.182,5.06l-2.617-2.459.039-.081,1.249-.04a8.4,8.4,0,0,0,2.22-2.48h-1.645l.2-.947a16.662,16.662,0,0,1-2.16.867l-2.24-2.761.04-.121,1.011.161a11.3,11.3,0,0,0,3.785-1.512h-4.321l.555-3.164h.08l.674.726,4.519-.162.238-.967h-5l.555-3h.079l.674.746.337-.021-.555-2.277,2.6-.242.832,2.379,1.031-.061.1-1.814-.892-.766V4.27l4.341-.343-.2,2.943,1.031-.02.813-2.318,2.735.282-.4,2.016h.733l.634,2.58h-6.065l-.238.907,6.819-.081.654,2.741h-3.152A18.227,18.227,0,0,0,496.7,14.57l1.13-.222.06.061-1.9,3.023c-.634-.383-1.269-.786-1.9-1.229a30.373,30.373,0,0,1-.495,6.409Zm-.535-8.769a8.422,8.422,0,0,1-1.823,1.955c1.645-.08,3.587-.141,5.331-.181-.475-.383-.911-.746-1.288-1.109l1.189-.665Z" fill="#ffec00"/><path d="M519.67,15.174l-1.269-.665-2.338.483.04,2.8-4.1-.362-.02-.081,1.03-.887v-.786c-.872.3-1.625.766-1.625,1.814,0,1.31,2.339,1.391,3.191,1.391.436,0,.872-.021,1.308-.021l1.011-1.128h.08v4.354c-.615,0-1.21.04-1.824.04-2.835,0-7.037-.625-7.037-4.353,0-2.359,2.082-3.891,4.064-4.637a2.577,2.577,0,0,0-.952-.161,7.655,7.655,0,0,0-1.9.3c-.476.645-.972,1.25-1.507,1.855l-3.488-2.379v-.08l1.288-.263a17.712,17.712,0,0,0,2.28-2.76H504.9l.655-3.831h.079l.753.948,2.795-.142.237-1.048-.792-1.108.019-.081,4.56.666-.357,1.471,4.737-.061.674,3.186h-6.68c-.159.341-.337.665-.535,1.007a15.5,15.5,0,0,1,1.665-.1,2.867,2.867,0,0,1,2.676,1.411L518.5,11.1l1.229,4.05Z" fill="#ffec00"/><path d="M533.88,22.774v-.081l1.031-.887v-.383c-3.251-.02-6.323-1.31-7.849-4.374a7.737,7.737,0,0,1-.833-3.527,8.019,8.019,0,0,1,1.744-5,8.158,8.158,0,0,1,6.581-2.983,13.589,13.589,0,0,1,3.826.6l-1.269,4.192-.079-.019-.575-1.068a7.65,7.65,0,0,0-2.022-.3,4.347,4.347,0,0,0-4.638,4.535c0,2.983,2.438,4.476,5.114,4.556V14.852l-1.031-.907v-.081l4.6-.423V23.2Z" fill="#ffec00"/><path d="M545.459,21.282V8.664h-.991l.654-3.991h.08l.753.947h8.681l.675,3.044h-6.284v2.923h5.352l.654,3.044h-6.006v3.607h4.718l.753-1.41.079-.021,1.17,4.475Z" fill="#ffec00"/><path d="M563.963,21v-.08l1.031-.888V9.066h-3.965l.655-3.97h.079l.753.926h8.6l.754-.926h.079l.654,3.97h-4.043V21.442Z" fill="#ffec00"/><path d="M582.844,22.229l-2.954-4.272,3.152-1.453,1.883,2.923,1.269.161.039.061Zm-1.685-7.458,1.368-9.191-.872-1.048.02-.081,4.44.342-1.884,11.631Z" fill="#ffec00"/><path d="M206.106,43.6a12.245,12.245,0,0,1-5.252,8.083l-3.113-3.467.04-.061,1.606.142a10.34,10.34,0,0,0,2.953-4.7H195.9l.654-3.911h.079l.734.948c1.8-.141,3.647-.162,5.451-.2,2.715-.06,5.431-.1,8.147-.1l.673,3.265Zm-8.384-5.16.654-3.89h.079l.753.926c2.577-.2,5.193-.241,7.79-.281l-.317-.888,2.517-.543.278,2.418-.813.162.416,2.1Zm12.824-2.2-.812-2.278,2.517-.544.277,2.419Z" fill="#ffec00"/><path d="M218.565,43.342l.674-3.769h.079l.734.927,4.658-.3.535,3.145Zm.436-5.2.992-3.709h.079l.654,1.008,4.2.04.258,3.185Zm.476,8.969.079-.04,1.447.645A19.044,19.044,0,0,0,231.152,40.6l-.238-1.391.04-.06,3.627,2.761a22.43,22.43,0,0,1-13.162,9.453Zm10.347-8.929-.813-2.3,2.517-.544.278,2.419Zm3.052-.343-.812-2.3L234.581,35l.277,2.419Z" fill="#ffec00"/><path d="M244.2,48.906l.039-.061,1.466-.019a19.119,19.119,0,0,0,3.252-2.843l-3.45-1.612,2.36-3.487.058.04.3,1.17,2.716,1.007a13.279,13.279,0,0,0,1.051-2.983h-5.114l-1.864,3.95L242,41.851a55.229,55.229,0,0,1,3.548-6.37l-.556-1.249.019-.081,4.065,1.351-.733,1.551c2.556-.241,5.112-.282,7.669-.282-.534,6.793-2.7,11.349-8.363,15.158Z" fill="#ffec00"/><path d="M262.016,47.858l.039-.061,1.25-.3a17.217,17.217,0,0,0,1.782-8.143l-1.031-.806v-.06l4.361-.4v2.258a18.032,18.032,0,0,1-2.616,9.836Zm15.519-4.637.08-.02,2.338,4.052a21.8,21.8,0,0,1-9.157,3.87V36.005l-1.03-.887v-.081l4.519-.443V46.407a14.889,14.889,0,0,0,2.973-1.633Z" fill="#ffec00"/><path d="M286.31,51.164v-.081l1.348-.786V46.951l-1.447.4-.417-3.729.08-.02.891.645.893-.283V40.662h-1.943l.575-3.387h.079l.635.786.654-.059V35.058l-.893-.786v-.081l3.985-.362V37.78l.951-.021.6,2.9H290.75V43l.555-.162,1.169,2.742-1.724.484V51.91Zm9.217.02v.846l-2.934-.483L292.672,38l-.792-.807v-.081l3.647-.3v.565l.812-.061V34.655l-.892-.766v-.081l4.064-.343v3.69l3.647-.041.119,14.07Zm.892-11.087h-.892v2.722h.892Zm0,5.382h-.892v2.862h.892Zm3.9-5.382h-.951v2.722h.951Zm0,5.382h-.951v2.862h.951Z" fill="#ffec00"/><path d="M326.943,52.029a41.851,41.851,0,0,1-11.913-1.692l-4.024,1.37L309.7,48.019l.06-.04,1.13.5L312.1,48.1V43.624h-2.2l.635-3.527h.079l.615.766c1.129-.141,2.715-.282,3.983-.323v7.015c.734.2,1.487.383,2.28.545l-.991-1.049,1.665-.887h-2.5l.456-2.338h.08l.554.6,1.269-.021V43.5H316.4l.455-2.338h.08l.555.625.535-.02v-.323l-.773-.625v-.08l2.24-.2a13.286,13.286,0,0,1-3.271-.644V36.549h2.617V35.9h-2.914l.476-2.176h.079l.555.644c1.348-.161,2.537-.222,4.162-.282v3.951h-2.5v.544a17.325,17.325,0,0,0,2.061.142l.793-.424.06.02-.635,2.278H320.8v1.068l1.427-.04v-.262l-.773-.625v-.081l2.656-.242a11.87,11.87,0,0,1-2.339-.523V36.549H324.5V35.9h-3.032l.476-2.176h.079l.555.644c1.348-.161,2.715-.222,4.361-.282v3.951h-2.7v.524a21.511,21.511,0,0,0,2.279.141l.773-.4h.08l-.634,2.278A17.209,17.209,0,0,1,325,40.5v1.068h1.348l.476,1.935H325v.727h2.022l.475,1.934h-2.636l1.824.987L325.02,48.9l-2.954-1.532,1.309-1.209h-3.707l1.308,1.209-1.982,1.008a50.59,50.59,0,0,0,7.671.564l.991-.684h.079ZM309.956,37.113l1.784-3.486h.059l.5,1.209,3.369.867-.793,3.144Zm12.269,6.39H320.8v.827l1.427-.06Z" fill="#ffec00"/><path d="M337.254,42.577l.4-2.238c-.775.363-1.586.686-2.479,1.008l-1.664-4.052.058-.04,1.23.484a24.139,24.139,0,0,0,6.382-3.467l-.455-1.069.019-.06,4.182,1.472-.4.644a25.541,25.541,0,0,0,5.549,2.3l1.189-.563.079.04-1.505,4.171c-.953-.322-1.864-.665-2.716-1.007l.514,2.379ZM348.1,52.494l-1.387-2.278-.139,1.149-11.079.665.2-4.132h.079l.892.947,1.109-.04.556-2.076h-4.083l.614-3.527h.08l.753.926c3.924-.221,10.128-.3,14.569-.3l.614,2.9h-8.88l-.535,1.934,4.221-.161-.3-.463,3.112-1.25,1.526,3.206,1.249.221.019.061ZM338.7,40.057c2.239-.182,4.915-.282,7.394-.3a27.3,27.3,0,0,1-3.926-2.176,20.8,20.8,0,0,1-3.587,2.318Z" fill="#ffec00"/><path d="M358,51.668l.079-16.57-.872-.765v-.081l3.885-.363v.423c1.308-.14,3.171-.222,4.4-.262v7.377h-4.4V52.172Zm4.6-15.3h-1.506v.685H362.6Zm0,2.4h-1.506v.686H362.6Zm4.163,12.155V47.777h-1.07a8.4,8.4,0,0,1-1.269,3.508l-3.231-1.572.02-.082,1.091-.342a5.85,5.85,0,0,0,.574-1.512H361.59l.515-2.62h.079l.575.685.3-.02V44.21h-1.01l.515-2.54h.079l.595.685c1.7-.142,4.6-.2,6.6-.2l.516,2.056h-.813v1.43h.714l.535,2.137h-1.249v3.629Zm0-6.712h-.932v1.471l.932-.02Zm3.171,7.377v-.081l1.348-.786V41.427h-1.506v.464l-3.013-.464.079-6.469-.872-.767v-.08l3.806-.343v.484c1.605-.121,3.449-.2,4.6-.222l.079,18.3Zm1.348-15.218h-1.506v.685h1.506Zm0,2.4h-1.506v.686h1.506Z" fill="#ffec00"/><path d="M391.158,51.507v.665l-2.933-.444.059-6.874-1.744-1.41V51.91l-3.171-.484v-7.76l-2.934-2.521.04-.059.991-.162a24.565,24.565,0,0,0,2.26-5.987l-.694-1.129.02-.08,4.222,1.008,3.468-.3V36.47h1.051V34.636l-.872-.747v-.081l3.964-.342v3h1.05V35.341l-.872-.746v-.081l3.806-.342v4.434h-5.054l2.755.726-.317.987,2.081-.019.476,2.176h-3.053V43.5l2.339-.02.376,1.935h-2.715v.907l2.418-.021.377,1.936h-2.8V49.39l3.053-.06.475,2.177Zm-3.9-8.406a31.229,31.229,0,0,0,1.823-3.608l-.357-.585-.99-.161.079-3.145-.515-.443a44.4,44.4,0,0,1-2.241,6.067l1.487-.181V43.2Zm6.283-3.75-.416-.745h-2.379v.343l1.527.362-.5,1.169,1.348-.06Zm-.654,3.125h-1.725v1.069l1.725-.021Zm0,2.943h-1.725v.947l1.725-.02Zm0,2.822h-1.725v1.311l1.725-.082Z" fill="#ffec00"/><path d="M410.586,51.728l-2.954-4.273L410.784,46l1.883,2.923,1.269.161.039.061ZM408.9,44.27l1.368-9.191L409.4,34.03l.02-.08,4.44.342-1.884,11.63Z" fill="#ffec00"/><path d="M15.495,80.983V80.9l1.328-.826V74.272l-4.043.867V71.712h-2.2l1.428.383-1.428,3,.754-.08v.4l4.479-.162v4.818H11.333v.645L8.459,80.4l.019-4.334L7.824,75.5v-.08l2.538-.282-2.775-1.15v-.06l.971-.363.773-1.854H7.448v9.8l-3.092-.483L4.435,70.2l-.892-.746v-.081l3.548-.4v.2l.377-.021L7.21,67.539H3.88l.575-3.264h.079l.6.765,5.351-.182v-.524l-.951-.806v-.081l4.281-.4v1.734l6.125-.06.6,2.821H17.14l-.218,1.33h3.072l.08,12.76ZM13.87,67.539H10.48l.4,1.451,2.616-.08Zm-.952,9.695H11.333v1.129h1.585Zm3.9-5.522H15.594v1.673l1.229.625Z" fill="#ffec00"/><path d="M30.452,80.7v.806L27.518,81l.08-7.418-.893-.766V72.74l3.747-.362v.463c1.348-.121,2.973-.181,4.42-.181V80.7Zm2.339-9.313v.4l-3.172-.524.08-6.349-.893-.766v-.081l3.985-.362v.462c2.953-.261,5.629-.342,8.7-.342l.08,7.558ZM32.018,75.5H30.452v2.3h1.566ZM38.4,66.613H32.791V68.79H38.4ZM38.9,80.7v.766l-2.934-.5.079-7.478-.892-.786v-.08l3.747-.364v.625a43.428,43.428,0,0,1,4.678-.221l.1,8.042Zm1.823-5.2H38.9v2.3h1.823Z" fill="#ffec00"/><path d="M59.23,80.743v-.081l1.348-.766a18.57,18.57,0,0,0,.317-3.609H59.31a9.824,9.824,0,0,1-4.183,5.06l-2.616-2.459.039-.081,1.249-.04a8.4,8.4,0,0,0,2.22-2.48H54.374l.2-.947a16.8,16.8,0,0,1-2.16.867l-2.24-2.761.04-.121,1.011.161a11.323,11.323,0,0,0,3.785-1.512h-4.32l.554-3.165h.079l.675.727,4.519-.163.238-.966H51.758l.555-3h.079l.674.746.337-.021-.555-2.277,2.6-.242.832,2.379,1.031-.061.1-1.814-.892-.766v-.08l4.341-.343-.2,2.943,1.031-.02.813-2.318,2.735.282-.4,2.016h.733l.634,2.58H60.142l-.238.906,6.819-.08.654,2.741H64.225a18.322,18.322,0,0,0,2.537,1.593l1.13-.222.06.061-1.9,3.023c-.634-.384-1.269-.786-1.9-1.229a30.374,30.374,0,0,1-.5,6.409Zm-.535-8.769a8.423,8.423,0,0,1-1.823,1.955c1.645-.08,3.587-.141,5.331-.182-.475-.382-.911-.745-1.288-1.108l1.19-.665Z" fill="#ffec00"/><path d="M78.46,78.686l.06-.08,1.486-.263a11.739,11.739,0,0,0,1.943-5.926c0-1.43-.278-1.794-1.863-1.794l-.4.061-.178,6.672-3.469-.686.139-5.221-1.9.565L73.247,67.62l.06-.02,1.189.725,1.784-.443.06-2.741-.991-.927v-.081l4.519-.3-.1,3.609.913-.021c3.428-.08,4.856,2.459,4.856,5.06A16.693,16.693,0,0,1,82.543,81Zm7.275-12.335-.813-2.3,2.517-.545.278,2.419Zm2.438,7.981A54.685,54.685,0,0,1,85.021,67.1l3.528-.786a44.7,44.7,0,0,0,1.884,5.422l1.308.3.019.061Zm.614-8.324-.812-2.278,2.517-.565.277,2.419Z" fill="#ffec00"/><path d="M97.831,80.642l.575-3.266h.079l.6.745c2.735-.14,6.878-.241,10.268-.282V72.5H98.406l.575-3.265h.079l.6.746,4.361-.142V64.415l-.932-.826v-.081l4.262-.4v6.632l5.252-.061.079,10.966Zm2.1-11.329-1.566-4.575,2.973-.5,1.01,3.326.873.544.039.06Zm-1.527,7.116.535-3.064h.079l.556.725c3.349-.282,6.917-.322,8.919-.322l.555,2.661Zm9.673-8.708,1.9-2.781-.258-1.029.04-.06,3.171,1.572L110.4,69.7Z" fill="#ffec00"/><path d="M129.327,72.418l.634-2.882h-2.735A38.371,38.371,0,0,1,123.9,80.7l-4.063-1.855.019-.059,1.309-.485a38.594,38.594,0,0,0,2.556-8.767h-2.755l.654-3.83h.08l.733.947,1.645-.121.1-1.451-.971-.948v-.08l4.539-.1-.178,2.459,4.063-.06.595,2.862,2.12.06.932-.887.06.021.4,4.011Zm5.966,8.566a13.35,13.35,0,0,1-8.047-3.043l2.457-3.588.06.02.158,1.39a10.434,10.434,0,0,0,4.738,1.573l1.169-.988h.079Z" fill="#ffec00"/><path d="M149.461,77.295l.06-.061,1.308.142c1.347-.867,2.616-2.036,2.616-3.769,0-1.633-1.427-2.016-2.775-2.016a20.955,20.955,0,0,0-5.827,1.35l-1.328-3.709.1-.04.991.484a22.507,22.507,0,0,1,6.184-1.169c3.172,0,5.827,1.633,5.827,5.12,0,3.144-2,5.261-4.578,6.691Z" fill="#ffec00"/><path d="M172.8,72.418l.634-2.882H170.7a38.37,38.37,0,0,1-3.33,11.166L163.3,78.847l.019-.059,1.309-.485a38.594,38.594,0,0,0,2.556-8.767h-2.755l.654-3.83h.08l.733.947,1.645-.121.1-1.451-.971-.948v-.08l4.539-.1-.178,2.459,4.063-.06.6,2.862,2.12.06.932-.887.06.021.4,4.011Zm5.966,8.566a13.35,13.35,0,0,1-8.047-3.043l2.457-3.588.06.02.158,1.39a10.434,10.434,0,0,0,4.738,1.573l1.169-.988h.079Z" fill="#ffec00"/><path d="M186.63,78.707l-.5-3.79h.079l.991.685.773-.262V70.381h-1.9l.614-3.628h.079l.754.948.455-.04V64.516l-.892-.766v-.081l3.9-.382v4.192h.912l.614,2.9H190.99v4.012l.575-.182,1.229,2.7Zm12.9,2.337v-.08L200.7,80.4a15.562,15.562,0,0,0,.3-1.936l-2.973,3.266-1.586-1.935,2.577-2.621-.04-.4h-1.249l.536.343L194.974,80.8l-1.585-1.956,2.259-2.338-.218-.584-1.189,1.33-1.764-1.693,1.328-1.593H192.14l.555-2.982h.079l.694.745c3.052-.222,7.453-.343,10.862-.343l.634,2.58h-7.829l-.674.767,7.809-.182a32.284,32.284,0,0,1-.594,7.318Zm-2.339-10.279v.423l-3.092-.5.08-6.127-.912-.786V63.69l3.924-.363v.524c1.863-.161,4.3-.2,5.927-.2l.079,7.115Zm2.914-5.019h-2.914v.726h2.914Zm0,2.459h-2.914v.706h2.914Zm1.011,8.566H199.89l1.169.867Z" fill="#ffec00"/><path d="M213.7,72.116l.258-1.492c-.635.322-1.309.645-2.061.987l-2.181-3.668.059-.04,1.289.322a22.113,22.113,0,0,0,6.561-4.535l-.456-1.068.02-.061,4.182,1.472-.436.726a23.815,23.815,0,0,0,5.926,3.084l1.249-.444.079.04-1.962,3.991c-.991-.423-1.923-.867-2.814-1.331l.455,2.017Zm2.081,8.828v.786l-3.33-.5.08-6.833-.932-.786v-.081l4.182-.383v.544c3.152-.221,7.136-.3,9.475-.3l.059,7.559Zm6.244-4.8h-6.244v2.177h6.244Zm-3.211-8.95a16.724,16.724,0,0,1-2.993,2.358c1.962-.121,4.083-.221,6.164-.242a27.108,27.108,0,0,1-3.171-2.116" fill="#ffec00"/><path d="M234.882,79.754V66.573l-1.031-.888v-.08l4.519-.424V77.517l1.189.786v.081Zm14.509-.826-.536-1.351-.653-.282A3.784,3.784,0,0,1,244.376,81c-2.22,0-4.222-1.209-4.222-3.91a3.872,3.872,0,0,1,4.222-3.911l.515.02V69.9h-4.935l.674-3.829h.079l.733.947,3.449-.182v-1.39l-1.03-.887v-.081l4.479-.423v2.681l1.387-.021.655,3.185H248.34v3.93a15.429,15.429,0,0,1,2.6,1.129l-1.467,3.992Zm-4.5-2.5-.555-.061c-.714-.06-1.03.323-1.03.726a.756.756,0,0,0,.773.726.953.953,0,0,0,.812-.989Z" fill="#ffec00"/><path d="M260.055,81.709l-3.25-4.938,3.111-1.411,2.062,3.367,1.268.12.04.081Z" fill="#ffec00"/><path d="M278.411,80.923V67.137h-6.282l.634-3.629h.078l.694.867c4.024-.222,10.505-.3,14.469-.3l.616,3.065h-6.8v3.688l1.131-1.189a30.842,30.842,0,0,0,4.717,3l1.169-.222.059.04-2.021,3.366a37.565,37.565,0,0,1-5.055-3.084v8.748Z" fill="#ffec00"/><path d="M294.972,68.083l.515-2.962h.079l.556.706,1.308-.1.694-1.532-.556-.927.02-.06,3.726.7-.594,1.632,1.7-.04.535,2.579Zm3.786,12.66v.6l-2.835-.424L296,76.066l-.872-.746v-.08l3.628-.364v.364c1.09-.1,2.339-.161,3.8-.182v5.685Zm-3.271-6.451.476-2.58h.079l.5.605c1.724-.161,3.786-.282,5.47-.282l.5,2.257Zm.079-3.1.476-2.58h.08l.495.6c1.724-.161,3.707-.282,5.312-.282l.5,2.258Zm4.2,6.289h-1.011v1.048h1.011Zm12.606,3.709a33.328,33.328,0,0,1-8.464-1.149v-8.87L303,70.381V70.3l4.1-.383V70.6h1.9V67.056h-5.867l.6-3.548h.079l.634.786c1.983-.181,5.293-.322,7.711-.322l.079,9.554H307.1v4.031A40.47,40.47,0,0,0,311.82,78l1.308-.867.08.04Z" fill="#ffec00"/><path d="M324.2,68.205c-.119,4.636-.575,8.789-1.883,12.175l-3.627-1.492.019-.081.932-.443a30.979,30.979,0,0,0,1.487-10.159h-.952l.615-3.528h.079l.753.948,5.094-.181V64.395l-.931-.806v-.081l4.182-.382v2.237l5.768-.061.615,2.9Zm3.627,12.578v.705l-3.171-.5.079-5.684-.773-.766v-.08l3.865-.364v.343l.436-.04V69.576l-.911-.786v-.081l4.162-.383V70.2l4.182-.161.674,2.58H331.51v1.592l3.707-.081.079,6.652Zm4.3-4.071h-4.3v1.733h4.3Z" fill="#ffec00"/><path d="M356.821,81.206v-.08l1.07-.766V78.223h-.971V80.48l-2.557-.443V78.223h-.951V81.65l-2.557-.484V69.294l-.654-.646v-.08l3.211-.343v.544l.654-.04V67.3h-3.409l-.753,1.29-2.617-1.753a14.075,14.075,0,0,1-.892,1.249l2.379-.2v1.492l1.11-.04.495,1.935h-1.605v.967l1.367-.04.476,2.177h-7.155l.475-2.539h.08l.436.563L346,72.338V71.269h-1.863l.257-1.27-1.685-1.976a24.844,24.844,0,0,0,3.192-4.071l-.5-.826v-.061l3.667.746-.376.726,1.724,1.43.119-.019.277-1.714h.08l.535.726,2.636-.141v-.826l-.832-.786v-.081l3.845-.363V64.7l.852-.021-.079-1.229,2.061-.262.337,1.451h.436L361.2,67.3h-4.123v1.249l3.429-.14.119,13.444Zm-10.148-.645v.665l-2.617-.423.08-4.878-.813-.685v-.081l3.35-.3v.322l3.548-.161v5.543ZM346,69.031l-.218-.181-.615.686L346,69.5Zm1.724,8.164h-1.051v1.229h1.051Zm6.64-5.967h-.951v1.028h.951Zm0,3.286h-.951v1.209h.951Zm3.528-3.286h-.971v1.028h.971Zm0,3.286h-.971v1.209h.971Z" fill="#ffec00"/><path d="M378.473,81.125c-3.092-1.734-5.371-4.656-5.371-8.386a9.6,9.6,0,0,1,1.01-4.253l-6.64.121.615-3.91.079-.02.754.947c4.558-.362,9.137-.463,13.716-.544l.713,3.245-5.292.1a8.922,8.922,0,0,0-1.308,4.313,5.668,5.668,0,0,0,2.715,4.7l1.507-.242.059.081Zm.833-8.164-.813-2.278,2.517-.564.278,2.439Zm3.052-.342-.812-2.278,2.517-.544.277,2.419Z" fill="#ffec00"/><path d="M403.2,75.522h.08l.713,4.635a23.926,23.926,0,0,1-3.806.364c-4.241,0-7.888-1.674-9.653-5.766l4-1.773.04.06-.4,1.23c1.209,2.1,3.806,2.64,6.026,2.64a15.792,15.792,0,0,0,2.18-.141Zm-11.536-7.136.674-3.829h.06l.753.947c2.5-.181,5-.263,7.492-.3l-.436-1.209,2.517-.564L403,65.847l-.972.2.5,2.338Zm12.428-2.459-.812-2.277,2.517-.565.277,2.419Z" fill="#ffec00"/><path d="M415.208,80.843V75.562l-1.745,2.559-1.823-2.2,2.577-3.407H412l.575-3.265h.079l.614.745,1.943-.181V68.366l-.694-.6-1.923.5-.039-2.922,5.57-1.21.277-.907.079-.04,1.666,3.063L415.9,67.378l2.32-.2v2.539l1.923-.019.574,2.821h-2.5v.443l1.466,1.008,1.031-.262.079.04-1.506,2.984-1.07-.645v5.24Zm6.283-4.455V66.27l3.251.806-.317,7.781,1.031.886v.081Zm3.132,4.374v-.08l1.269-.807V64.616l-1.031-.886v-.08l4.281-.444.079,18.282Z" fill="#ffec00"/><path d="M448.184,80.662v-.08l1.268-.625V76.308h-2.7v4.233l-3.172-.5V76.308h-3.052a19.561,19.561,0,0,1-1.308,4.6l-3.845-1.553.039-.08,1.13-.424c.872-2.3,1.387-6.208,1.387-12.012V64.5l-.773-.666v-.08l3.866-.323v.766c3.667-.262,8.146-.383,11.634-.383l.08,17.6Zm-4.6-9.171h-2.6c-.02.725-.059,1.471-.139,2.2h2.735Zm0-4.737h-2.557V68.87h2.557Zm5.867,0h-2.7V68.87h2.7Zm0,4.737h-2.7v2.2h2.7Z" fill="#ffec00"/><path d="M463.24,80.319c-2.379-3.689-2.993-7.8-2.993-12.134,0-.826.02-1.653.059-2.459l4.539.584-.02.081-1.03.847-.02.684a20.754,20.754,0,0,0,1.705,8.91l2.259.1.02.08Zm10.307-4.132a23.12,23.12,0,0,1-4.42-6.934l3.231-1.27a17.829,17.829,0,0,0,3.29,5.261l1.328.121.02.06Z" fill="#ffec00"/><path d="M491.23,72.418l.634-2.882h-2.735A38.371,38.371,0,0,1,485.8,80.7l-4.063-1.855.019-.059,1.309-.485a38.593,38.593,0,0,0,2.556-8.767h-2.755l.654-3.83h.08l.733.947,1.645-.121.1-1.451-.971-.948v-.08l4.539-.1-.178,2.459,4.063-.06.6,2.862,2.12.06.932-.887.06.021.4,4.011Zm5.966,8.566a13.35,13.35,0,0,1-8.047-3.043l2.457-3.588.06.02.158,1.39a10.434,10.434,0,0,0,4.738,1.573l1.169-.988h.079Z" fill="#ffec00"/><path d="M514.122,72.418l.634-2.882h-2.735a38.37,38.37,0,0,1-3.33,11.166l-4.063-1.855.019-.059,1.309-.485a38.646,38.646,0,0,0,2.557-8.767h-2.755l.654-3.83h.079l.734.947,1.645-.121.1-1.451L508,64.134v-.081l4.54-.1-.179,2.459,4.063-.06.595,2.862,2.121.06.931-.887.06.021.4,4.011Zm5.966,8.566a13.35,13.35,0,0,1-8.047-3.043l2.458-3.588.059.02.159,1.39a10.414,10.414,0,0,0,4.737,1.573l1.169-.988h.08Zm-3.349-14.693-.813-2.279,2.517-.543.278,2.418Zm3.072-.343L519,63.67l2.518-.544.277,2.419Z" fill="#ffec00"/><path d="M529.471,79.513V66.573l-1.031-.888v-.08l4.518-.424v12.1l1.21.786v.08Zm6.461-.443.039-.081,1.309-.322a12.461,12.461,0,0,0,1.625-6.551l-.02-1.21h-4.757l.674-3.89h.08l.733.948,3.191-.2-.059-2.64-1.052-.866v-.081l4.539-.524.1,4.011H544.3l.674,3.245h-2.558l.019,1.451a14.258,14.258,0,0,1-2.557,8.89Z" fill="#ffec00"/><path d="M563.47,79.674l-.456-1.432c-.594-.322-1.248-.6-1.922-.886a3.946,3.946,0,0,1-4.044,3.809c-2.477,0-4.618-1.229-4.618-3.95,0-2.621,2.22-3.951,4.539-3.951h.535V72.216h-4.717l.654-3.73h.079l.753.928,3.231-.141v-1.31h-4.935l.654-3.749h.079l.753.947L557.5,65v-.242l-1.03-.887V63.79l4.6-.423V64.9l3.092-.04.654,3.1h-3.746v1.209l2.854-.06.674,3.1h-3.528v1.652a28.361,28.361,0,0,1,4.42,1.855l-1.943,3.971Zm-5.847-3.125a3.976,3.976,0,0,0-.833-.12c-.832,0-1.01.383-1.01.766,0,.362.257.665.852.665a1.045,1.045,0,0,0,.991-.968Z" fill="#ffec00"/><path d="M578.6,79.594v-.081l1.288-.323a5.878,5.878,0,0,0,1.427-2.076,2.912,2.912,0,0,1-2.12.786,3.642,3.642,0,0,1-3.846-3.95,4.319,4.319,0,0,1,4.242-4.233v-.645h-6.977l.674-3.91h.079l.733.947,5.491-.182V64.92l-1.031-.887v-.081l4.519-.443v2.358L588,65.806l.654,3.266h-5.57v2.137c1.111,1.048,1.586,2.559,1.586,4.777a10.067,10.067,0,0,1-2.22,5.6Zm-.258-5.6c0,.524.3.807.654.807.515,0,.853-.444.872-1.855-1.03.04-1.526.565-1.526,1.048" fill="#ffec00"/><path d="M596.558,81.609a3.447,3.447,0,1,1,3.39-3.446,3.433,3.433,0,0,1-3.39,3.446m0-4.878a1.431,1.431,0,1,0,1.407,1.432,1.43,1.43,0,0,0-1.407-1.432" fill="#ffec00"/></g></svg>