<svg xmlns="http://www.w3.org/2000/svg" width="1288.73" height="573.738" viewBox="0 0 1288.73 573.738"><g transform="translate(-4761 -8704.002)"><path d="M1275.73,1715.74l-309-72L495,1639,80,1728,0,1979l70,213,332.639,20.738,430.091-54,281-99,144-115,31-176Z" transform="translate(4761 7065)" fill="#ee8485"/><path d="M324.043,1905.2q4.57,39.108,7.133,54.625-50.639,9.993-87.842,16.126-39.49,6.511-56.185,7.623-5.1-43.7-6.131-61.354l29.6-3.942a346.626,346.626,0,0,1,5.336,36.633q7.57-1.012,13.278-1.956,7.531-1.242,12.25-2.488l-9.368-59.649q-15.634,3.282-29.1,5.5-19.173,3.162-34.007,4.2l-6.061-58.084,24.8-4.558,8.686,35.612q20.009-3.766,29.6-6.757L216,1814.463l34.237-5.645,8.123,53.523q24.042-4.9,28.725-6.378l-5.009-28.95,25.411-3.721q8.307,31.924,10.758,46.758.754,4.569.977,7.342-36.981,7.5-57.331,10.626l8.584,50.634q18.144-3.7,32.983-6.142l-5.208-23.056Z" transform="translate(4761 7065)"/><path d="M481.952,1782.566l3.824,31.725-120.627,17.781a130.523,130.523,0,0,1,2.86,40.089q-2.131,22.629-13,37.78-7.053,9.841-21.331,19.93A190.217,190.217,0,0,0,339.857,1855q-1.055-7.794-4.223-21.343-3.437-15.138-4.451-21.305l64.445-11.564-6.531-28.23,35.227-5.34,1.706,24.571Zm-1.061,63.244,3.572,24.5q-15.713,2.828-39.372,5.789l2.631,17.385,33.473-3.175q6.18,33.216,5.416,57.017-34.161,6.1-55.389,9.6-21,3.463-29.292,4.361l-11.614-57.637q22.371-5.1,30.476-7.135l-11.8-57.371,31.536-4.966,2.818,19.933Zm-28.153,72.4-26.631,4.861,2.184,13.239a110.1,110.1,0,0,0,26.779-2.541Z" transform="translate(4761 7065)"/><path d="M647.034,1755.344l3.824,31.725L530.231,1804.85a130.522,130.522,0,0,1,2.86,40.089q-2.132,22.629-13,37.78-7.054,9.84-21.332,19.93a190.2,190.2,0,0,0,6.176-74.872q-1.055-7.794-4.222-21.343-3.437-15.138-4.452-21.3l64.446-11.564-6.532-28.23,35.227-5.341,1.706,24.572Zm-1.06,63.244,3.571,24.5q-15.712,2.827-39.372,5.789l2.631,17.384,33.473-3.175q6.182,33.216,5.416,57.018-34.16,6.1-55.389,9.6-21,3.464-29.291,4.361L555.4,1876.429q22.371-5.1,30.476-7.135l-11.805-57.371,31.536-4.966,2.819,19.933Zm-28.154,72.4-26.63,4.861,2.183,13.238a110.09,110.09,0,0,0,26.779-2.54Z" transform="translate(4761 7065)"/><path d="M751.9,1766.89q-4.718,1.251-9.74,2.075-30.588,5.045-43.873-8.709-19.512,23.853-48.576,28.174a249.686,249.686,0,0,0,17.153-22.523q10.754-15.842,13.315-24.469l29.977-4.474q4.469,8.643,18.184,18.571t23.56,11.355m-8.486,46.65,3.157,21.987-75.628,13.409-3.164-17.767L697,1824.945l-1.848-8.37q-8.18,1.584-12.973,2.373a56.613,56.613,0,0,1-6.43.826l-3.765-21.418,20.429-4.072-3.4-14.914,21.227-3.5,1.533,14.986,20.277-3.577,2.023,17.953-19.746,3.959,1.163,9.891Zm.971,76.976q-13.887,2.526-24.156,4.217-20.775,3.426-26.666,3.225l-4.949-41.386,47.211-8.019Zm-20.476-13.27-2.571-8.486-12.439,1.348.365,9.318a92,92,0,0,0,14.645-2.18M841.383,1726.58l3.649,23.546q-26.746,5.587-36.676,7.924l.818,10.65,37.965-5.791q3.237,18.227,5.8,33.743,9.786,59.349,10.088,82.507a327.24,327.24,0,0,1-32.45-16.22l13.163-2.639a56.691,56.691,0,0,0-1.694-10.271l-19.173,3.161,5.123,28.228-19.7,2.781q-3.72-28.226-4.776-31.8l-17.5,3.355,6.573,25.644L770.37,1886l-17.044-106.212,34.847-6.215-2.258-13.7-33.818,5.343L748.1,1742.43l32.488-6.3-4.3-21.8,26.628-3.453,2.244,22.138Zm-47.8,65.559-14.989,2.94,2.527,12.479q2.055-.339,14.266-3.056Zm4.394,32.334-15.6,2.1,1.425,11.488q2.509-.414,15.674-3.054ZM825.8,1787.06l-13.088,3.1,1.73,11.906,12.7-1.156q.079-2.355-1.346-13.846m11.971-82.393a104.969,104.969,0,0,1-5.2,18.208l-15.971-1.586q1.087-13.308,1.21-18.253Zm-2.88,126.144-1.882-11.412-12.251,2.488,1.96,10.463a92.941,92.941,0,0,0,12.173-1.539" transform="translate(4761 7065)"/><path d="M912.03,1810.354q-18.09,33.931-27.813,50.3-15.977-21.508-23.351-66.251a478.12,478.12,0,0,1-5.489-58.881l29.059-1.51q-3.858,30.651,2.015,66.253a161.794,161.794,0,0,0,4.983,21.687,184.655,184.655,0,0,0,20.6-11.6m119.505,13.821-14.227,24.619q-16.71-14.592-26.626-19.29a24.848,24.848,0,0,1-6.787,10.029,29.7,29.7,0,0,1-15.644,7.5,28.077,28.077,0,0,1-5.1.372q-13.311.321-22.008-6.922a23.548,23.548,0,0,1-9.062-16.559q-1.539-12.17,5.55-20.375,6.516-7.4,17.7-9.249a37.84,37.84,0,0,1,11.714-.055,266.491,266.491,0,0,0-7.78-31.542q-27.5,3.832-34.957,4.124l-6.943-32.149q18.258-3.011,33.9-6.293l-8.7-25.761,31.158-5.842q3.012,18.264,4.018,30.052l29.521-5.806,6.535,25.415q-13.965,3.48-28.386,8.433,7.514,32.76,7.566,45.878,20.108,6.768,38.56,23.418m-59.4-3.335q.042-2.585-3.813-4.646a16.925,16.925,0,0,0-7.85-2.1,11.4,11.4,0,0,0-6.126,1.947,4.913,4.913,0,0,0-2.291,5.3,7.063,7.063,0,0,0,4,5.083,10.053,10.053,0,0,0,7.737.717q8.331-2.078,8.34-6.3" transform="translate(4761 7065)"/><path d="M746.681,1963.522l-14.936,60.14a225.265,225.265,0,0,0-9.959-24.85q-33.438,3.4-78.561,15.532l-6.636-33.136q80.5-15.148,110.092-17.686m12.561,125.944q-25.876,9.426-45.963,12.736a187.262,187.262,0,0,1-53.283,1.05q-1-20.235-.81-37.615,15.122,7.826,44.567,2.967,28.53-4.7,44.411-16.466Z" transform="translate(4761 7065)"/><path d="M883.133,1947.588l3.338,27.349q-22.908,4.718-50.942,10.98l.475,32.744a45.97,45.97,0,0,1,24.849-8.552q14.413-.734,24.289,7.25t12.817,21.567q4.49,20.128-8.806,34.745-11.926,12.989-32.241,16.336-18.489,3.048-32.319-4.05,47.1-10.107,40.832-36.743a17.108,17.108,0,0,0-8.765-11.919,24.207,24.207,0,0,0-15.208-2.65q-15.978,2.635-31.246,13.827-.024-30-1.5-56.023-7.761,1.28-27.808,4.821l-5.2-31.5q11.679-1.687,29.521-4.4l-4.164-33.779,37.886-3.433-.932,32.741Z" transform="translate(4761 7065)"/><path d="M1026.148,2016.146q3.464,21-10.671,34.819-11.734,11.314-31.59,14.587-23.057,3.8-34.3-4.661,24.537-4.749,36.158-16.747,10.4-10.86,6.962-23.187-4.728-17.273-25.267-13.887-14.646,2.184-32.735,16.182L920.9,1936.67l31.877-4.318q4.1,49.032,5.565,59.337,10.587-8.305,25.421-9.349,15.021-1.3,26.458,6.891,12.949,8.888,15.926,26.915M1013.663,1912l-10.693,26.147q-21.928-9.276-39.49-14.824l10.085-25.578q21.627,7.458,40.1,14.255" transform="translate(4761 7065)"/><rect width="868.602" height="407.875" transform="translate(4923.938 8761.79)" fill="none"/><path d="M317.49,1898.648q4.57,39.108,7.133,54.625-50.638,9.993-87.842,16.126-39.491,6.511-56.185,7.623-5.1-43.7-6.131-61.354l29.6-3.942a346.629,346.629,0,0,1,5.336,36.633q7.57-1.013,13.278-1.956,7.532-1.242,12.25-2.488l-9.368-59.649q-15.635,3.282-29.1,5.5-19.173,3.162-34.007,4.2l-6.061-58.084,24.8-4.558,8.686,35.612q20.009-3.766,29.6-6.757l-10.025-52.272,34.237-5.645,8.123,53.523q24.042-4.9,28.725-6.378l-5.009-28.95,25.411-3.721q8.309,31.924,10.758,46.758.754,4.569.977,7.342-36.981,7.5-57.331,10.626l8.584,50.634q18.144-3.7,32.983-6.142L291.7,1902.9Z" transform="translate(4761 7065)" fill="#fff"/><path d="M475.4,1776.013l3.824,31.725L358.6,1825.519a130.524,130.524,0,0,1,2.86,40.089q-2.131,22.629-13,37.78-7.053,9.842-21.331,19.93a190.217,190.217,0,0,0,6.176-74.872q-1.054-7.794-4.223-21.343-3.436-15.138-4.451-21.305l64.445-11.564L382.544,1766l35.227-5.34,1.706,24.571Zm-1.061,63.244,3.572,24.5q-15.713,2.828-39.372,5.789l2.631,17.385,33.473-3.175q6.18,33.216,5.416,57.017-34.161,6.1-55.389,9.6-21,3.463-29.292,4.361L383.763,1897.1q22.371-5.1,30.476-7.135l-11.805-57.371,31.536-4.966,2.818,19.933Zm-28.153,72.4-26.631,4.861,2.184,13.239a110.092,110.092,0,0,0,26.779-2.541Z" transform="translate(4761 7065)" fill="#fff"/><path d="M640.481,1748.792l3.824,31.725L523.678,1798.3a130.524,130.524,0,0,1,2.86,40.089q-2.132,22.629-13,37.78-7.055,9.84-21.332,19.93a190.2,190.2,0,0,0,6.176-74.872q-1.054-7.794-4.223-21.343-3.435-15.138-4.451-21.3l64.446-11.564-6.532-28.23,35.227-5.341,1.706,24.572Zm-1.06,63.244,3.571,24.5q-15.712,2.827-39.372,5.789l2.631,17.384,33.473-3.175q6.181,33.216,5.416,57.018-34.16,6.1-55.389,9.6-21,3.464-29.291,4.361l-11.615-57.637q22.371-5.1,30.476-7.135l-11.8-57.371,31.536-4.966,2.819,19.933Zm-28.154,72.4-26.63,4.861,2.183,13.238a110.09,110.09,0,0,0,26.779-2.54Z" transform="translate(4761 7065)" fill="#fff"/><path d="M745.351,1760.338q-4.718,1.251-9.741,2.075-30.586,5.045-43.873-8.71-19.512,23.854-48.576,28.175a249.524,249.524,0,0,0,17.154-22.524q10.754-15.84,13.315-24.469l29.977-4.474q4.469,8.644,18.184,18.572t23.56,11.355m-8.486,46.65,3.156,21.986-75.628,13.41-3.164-17.767,29.219-6.224-1.849-8.37q-8.18,1.583-12.973,2.373a56.84,56.84,0,0,1-6.429.826l-3.765-21.418,20.428-4.072-3.4-14.914,21.228-3.5,1.532,14.986,20.278-3.577,2.022,17.953-19.745,3.959,1.163,9.891Zm.971,76.976q-13.887,2.526-24.156,4.217-20.777,3.426-26.667,3.225l-4.948-41.386,47.211-8.02Zm-20.477-13.27-2.57-8.486-12.44,1.348.365,9.318a92,92,0,0,0,14.645-2.18m117.472-150.666,3.648,23.545q-26.746,5.589-36.675,7.925l.818,10.65,37.964-5.791q3.238,18.227,5.8,33.742,9.786,59.351,10.089,82.508a327.373,327.373,0,0,1-32.451-16.22l13.164-2.639a56.67,56.67,0,0,0-1.7-10.271l-19.172,3.161,5.123,28.228-19.7,2.78q-3.722-28.224-4.776-31.8l-17.5,3.354,6.572,25.645-22.218,4.6-17.045-106.212,34.847-6.215-2.258-13.7-33.818,5.343-3.992-22.787,32.489-6.3-4.3-21.8,26.628-3.453,2.245,22.138Zm-47.8,65.559-14.989,2.939,2.528,12.479q2.055-.337,14.266-3.055Zm4.4,32.334-15.6,2.1,1.425,11.487q2.508-.414,15.674-3.053Zm27.826-37.413-13.088,3.1,1.731,11.906,12.7-1.156q.078-2.355-1.347-13.846m11.972-82.393a104.994,104.994,0,0,1-5.2,18.208l-15.971-1.586q1.086-13.308,1.209-18.253Zm-2.88,126.144-1.883-11.412-12.25,2.488,1.96,10.462a92.848,92.848,0,0,0,12.173-1.538" transform="translate(4761 7065)" fill="#fff"/><path d="M905.478,1803.8q-18.09,33.931-27.813,50.3-15.977-21.508-23.351-66.251a478.139,478.139,0,0,1-5.489-58.881l29.059-1.51q-3.858,30.651,2.015,66.253a161.794,161.794,0,0,0,4.983,21.687,184.816,184.816,0,0,0,20.6-11.6m119.505,13.821-14.227,24.619q-16.71-14.592-26.626-19.29a24.848,24.848,0,0,1-6.787,10.029,29.7,29.7,0,0,1-15.644,7.5,28.077,28.077,0,0,1-5.1.372q-13.311.321-22.008-6.922a23.548,23.548,0,0,1-9.062-16.559q-1.539-12.17,5.55-20.375,6.516-7.4,17.7-9.249a37.81,37.81,0,0,1,11.714-.055,266.491,266.491,0,0,0-7.78-31.542q-27.5,3.832-34.957,4.124l-6.943-32.149q18.258-3.011,33.9-6.293l-8.7-25.761,31.158-5.842q3.012,18.264,4.018,30.052l29.521-5.807,6.535,25.416q-13.965,3.48-28.386,8.433,7.514,32.76,7.566,45.878,20.108,6.768,38.56,23.418m-59.4-3.335q.042-2.585-3.813-4.646a16.927,16.927,0,0,0-7.85-2.106,11.408,11.408,0,0,0-6.126,1.948,4.912,4.912,0,0,0-2.291,5.3,7.063,7.063,0,0,0,4,5.084,10.053,10.053,0,0,0,7.737.717q8.331-2.078,8.34-6.3" transform="translate(4761 7065)" fill="#fff"/><path d="M740.128,1956.97l-14.936,60.14a225.281,225.281,0,0,0-9.959-24.851q-33.438,3.4-78.561,15.532l-6.636-33.136q80.5-15.147,110.092-17.685m12.561,125.943q-25.877,9.426-45.963,12.736a187.262,187.262,0,0,1-53.283,1.05q-1-20.235-.81-37.615,15.121,7.827,44.567,2.968,28.53-4.7,44.411-16.467Z" transform="translate(4761 7065)" fill="#fff"/><path d="M876.581,1941.035l3.338,27.349q-22.908,4.718-50.942,10.98l.475,32.745a45.953,45.953,0,0,1,24.849-8.552q14.413-.734,24.289,7.249t12.817,21.567q4.49,20.128-8.806,34.745-11.926,12.989-32.241,16.335-18.489,3.05-32.319-4.049,47.1-10.107,40.832-36.743a17.109,17.109,0,0,0-8.765-11.919,24.2,24.2,0,0,0-15.208-2.65q-15.978,2.634-31.246,13.827-.024-30-1.5-56.022-7.761,1.28-27.808,4.82l-5.2-31.5q11.679-1.687,29.521-4.4l-4.164-33.779,37.886-3.433-.932,32.742Z" transform="translate(4761 7065)" fill="#fff"/><path d="M1019.595,2009.593q3.464,21-10.671,34.819-11.734,11.315-31.59,14.587-23.056,3.8-34.3-4.661,24.537-4.749,36.158-16.748,10.4-10.859,6.962-23.186-4.728-17.273-25.267-13.887-14.646,2.184-32.735,16.182l-13.808-86.582,31.877-4.318q4.1,49.032,5.565,59.337,10.587-8.305,25.421-9.349,15.021-1.3,26.458,6.891,12.949,8.888,15.926,26.915m-12.485-104.15-10.693,26.147q-21.929-9.276-39.49-14.824l10.085-25.578q21.627,7.458,40.1,14.255" transform="translate(4761 7065)" fill="#fff"/></g></svg>