<?xml version="1.0" encoding="UTF-8"?>
<svg xmlns="http://www.w3.org/2000/svg" viewBox="0 0 167.6 35.82">
  <defs>
    <style>
      .cls-1 {
        mix-blend-mode: multiply;
      }

      .cls-1, .cls-2 {
        fill: #ef8586;
      }

      .cls-3 {
        isolation: isolate;
      }

      .cls-4 {
        fill: #231815;
      }

      .cls-5 {
        fill: #fff;
      }
    </style>
  </defs>
  <g class="cls-3">
    <g id="_レイヤー_2" data-name="レイヤー_2">
      <g id="_テキスト_xFF08_B_xFF09_" data-name="テキスト_xFF08_B_xFF09_">
        <g>
          <rect class="cls-2" width="167.6" height="17.49"/>
          <rect class="cls-1" width="8.29" height="17.49"/>
          <g>
            <path class="cls-4" d="M33.87,24.79c-.44.37-.64.67-.64.97,0,.46.51.65,1.69.65.83,0,1.75-.13,2.2-.3l.08.96c-.13,0-.15,0-.31.03-.84.13-1.29.16-1.89.16-.76,0-1.38-.08-1.75-.23-.6-.24-.9-.62-.9-1.17s.27-1,.9-1.53l.61.46ZM32.81,21.91c.54.13,1.16.18,2.1.18.89,0,1.39-.04,1.85-.13l.03.79c-.42.18-1.28.72-1.87,1.16l-.61-.48c.44-.28.52-.33.69-.43.07-.04.09-.06.18-.11.05-.03.06-.03.15-.08-.31.04-.61.06-1.05.06-.36,0-.94-.04-1.28-.08-.08,0-.13-.01-.16-.01-.01,0-.05,0-.1,0l.06-.83ZM36.51,23.47c.31.33.5.59.74,1.03l-.49.26c-.23-.43-.43-.71-.74-1.04l.49-.25ZM37.59,24.32c-.21-.38-.44-.71-.71-1.02l.47-.24c.31.32.51.59.73.99l-.48.27Z"/>
            <path class="cls-4" d="M41.29,24.4c.42-.22.77-.3,1.28-.3,1.13,0,1.87.59,1.87,1.49,0,.58-.29,1.08-.82,1.42-.43.27-1.04.41-1.74.41-.58,0-1.08-.08-1.69-.26,0-.36-.03-.52-.12-.92.55.25,1.23.39,1.78.39,1.02,0,1.7-.41,1.7-1.03,0-.5-.46-.81-1.24-.81-.9,0-2.04.49-2.72,1.17l-.54-.73c.22-.12.53-.34.92-.66.8-.67,1.32-1.16,2.09-1.95t.07-.08s.03-.03.05-.06h0s-.04,0-.06,0c-.28.04-1.13.09-1.74.1-.29,0-.45.02-.57.04l-.03-.83c.22.04.42.05.95.05.68,0,1.46-.04,1.99-.08.22-.02.27-.03.39-.08l.45.64q-.14.09-1.21,1.12c-.4.39-.73.67-1.12.96h.02s.05-.02.05-.02Z"/>
            <path class="cls-4" d="M47.84,24.79c-.44.37-.64.67-.64.97,0,.46.51.65,1.69.65.83,0,1.75-.13,2.2-.3l.08.96c-.13,0-.15,0-.31.03-.84.13-1.29.16-1.89.16-.76,0-1.38-.08-1.75-.23-.6-.24-.9-.62-.9-1.17s.27-1,.9-1.53l.61.46ZM46.78,21.91c.54.13,1.16.18,2.1.18.89,0,1.39-.04,1.85-.13l.03.79c-.42.18-1.28.72-1.87,1.16l-.61-.48c.44-.28.52-.33.69-.43.07-.04.09-.06.18-.11.05-.03.06-.03.15-.08-.31.04-.61.06-1.05.06-.36,0-.94-.04-1.28-.08-.08,0-.13-.01-.16-.01-.01,0-.05,0-.1,0l.06-.83ZM50.48,23.47c.31.33.5.59.74,1.03l-.49.26c-.23-.43-.43-.71-.74-1.04l.49-.25ZM51.56,24.32c-.21-.38-.44-.71-.71-1.02l.47-.24c.31.32.51.59.73.99l-.48.27Z"/>
            <path class="cls-4" d="M55.26,24.4c.42-.22.77-.3,1.28-.3,1.13,0,1.87.59,1.87,1.49,0,.58-.29,1.08-.82,1.42-.43.27-1.04.41-1.74.41-.58,0-1.08-.08-1.69-.26,0-.36-.03-.52-.12-.92.55.25,1.23.39,1.78.39,1.02,0,1.7-.41,1.7-1.03,0-.5-.46-.81-1.24-.81-.9,0-2.04.49-2.72,1.17l-.54-.73c.22-.12.53-.34.92-.66.8-.67,1.32-1.16,2.09-1.95t.07-.08s.03-.03.05-.06h0s-.04,0-.06,0c-.28.04-1.13.09-1.74.1-.29,0-.45.02-.57.04l-.03-.83c.22.04.42.05.95.05.68,0,1.46-.04,1.99-.08.22-.02.27-.03.39-.08l.45.64q-.14.09-1.21,1.12c-.4.39-.73.67-1.12.96h.02s.05-.02.05-.02Z"/>
            <path class="cls-4" d="M61.13,23.38c-.29.6-.57,1.02-.95,1.47-.18-.27-.34-.43-.57-.6.53-.53.95-1.27,1.18-2.04.09-.3.13-.45.15-.65l.8.2q-.01.06-.06.18s-.02.06-.07.23c-.04.1-.1.28-.19.52h1.14v-.53c0-.37-.02-.58-.05-.84h.9c-.03.23-.04.46-.04.83v.54h1.46c.36,0,.66-.01.95-.04v.77c-.3-.03-.59-.04-.92-.04h-1.48v1.29h1.21c.35,0,.63-.01.86-.04v.77c-.25-.03-.53-.04-.86-.04h-1.21v1.48h1.68c.4,0,.69-.01.97-.05v.8c-.33-.04-.58-.05-.95-.05h-4.29c-.37,0-.67.01-.99.05v-.8c.3.04.6.05.97.05h1.8v-1.48h-1.08c-.33,0-.61.01-.85.04v-.77c.22.03.46.04.84.04h1.09v-1.29h-1.43Z"/>
            <path class="cls-4" d="M72.5,21.91c-.08.13-.11.19-.24.5-.44,1.04-.71,1.58-.99,1.98.59.5.95.84,1.56,1.49l-.67.72c-.36-.48-.78-.91-1.42-1.48-.3.4-.66.79-1.09,1.17-.5.44-.95.76-1.67,1.16-.19-.34-.3-.46-.62-.73.78-.38,1.26-.71,1.81-1.21.34-.3.62-.6.89-.95-.56-.46-1.23-.92-1.86-1.26l.62-.62c.51.3.81.5,1.16.74q.53.38.58.41c.45-.74.9-1.75.99-2.26l.95.33Z"/>
            <path class="cls-4" d="M75.64,26.78v.49h-.9c.02-.17.03-.34.03-.6v-4.01c0-.27,0-.4-.03-.59.17.01.32.02.6.02h3.98c.3,0,.43,0,.59-.02-.01.18-.02.32-.02.58v4.01c0,.26,0,.45.03.61h-.9v-.48h-3.36ZM79,22.88h-3.36v3.1h3.36v-3.1Z"/>
            <path class="cls-4" d="M81.71,26.35c.6-.04,1.44-.24,2.07-.52.88-.38,1.53-.92,2.08-1.72.31-.45.5-.83.71-1.4.27.33.38.43.74.69-.6,1.28-1.26,2.11-2.22,2.75-.71.48-1.58.82-2.67,1.05-.28.06-.3.06-.46.12l-.26-.97ZM82.31,22c.83.52,1.27.84,1.81,1.35l-.6.76c-.56-.59-1.13-1.06-1.79-1.42l.58-.69Z"/>
            <path class="cls-4" d="M94.16,22.71c-.07.1-.1.17-.18.42-.32,1.06-.82,2.01-1.44,2.7-.64.74-1.41,1.28-2.49,1.78-.2-.35-.29-.47-.59-.74.7-.29,1.09-.5,1.53-.83,1-.74,1.66-1.7,2.04-2.96l-2.11.04c-.43.68-.97,1.28-1.64,1.79-.21-.29-.31-.38-.68-.6.8-.55,1.3-1.11,1.81-2.03.22-.4.33-.67.36-.92l.96.19q-.04.06-.12.22s-.02.04-.09.2t-.09.18-.11.22c.09,0,.2-.01.34-.01l1.53-.02c.27,0,.35-.01.51-.07l.45.44Z"/>
            <path class="cls-4" d="M97.21,21.67c-.03.2-.03.26-.03.63v1.93c0,.35,0,.44.03.62h-.96c.02-.16.04-.38.04-.63v-1.93c0-.36,0-.45-.03-.63h.95ZM100.39,21.68c-.03.17-.04.25-.04.65v.95c0,1.09-.05,1.68-.18,2.12-.2.7-.65,1.23-1.38,1.63-.37.21-.72.35-1.37.54-.12-.34-.2-.46-.49-.83.69-.13,1.09-.28,1.51-.56.66-.43.89-.86.97-1.79.03-.3.04-.61.04-1.17v-.88c0-.36,0-.5-.04-.67h.97Z"/>
            <path class="cls-4" d="M102.43,24.01c.31.04.44.05,1.13.05h3.73c.69,0,.83,0,1.13-.05v.97c-.28-.04-.36-.04-1.14-.04h-3.72c-.79,0-.86,0-1.14.04v-.97Z"/>
            <path class="cls-4" d="M112.66,21.7c-.08.15-.08.17-.18.5-.53,1.75-.94,2.91-1.39,3.99,1.1-.08,2.31-.23,2.91-.36-.08-.17-.16-.32-.33-.64-.31-.58-.43-.78-.67-1.11l.79-.31c.65.95,1.27,2.13,1.69,3.24l-.85.44q-.09-.29-.34-.87-.09.02-.25.06c-.71.15-1.87.29-3.96.5-.39.04-.5.05-.64.08l-.12-.95h.18c.14,0,.31,0,.6-.02.37-.88.65-1.67,1.02-2.82.33-1.03.46-1.53.51-1.94l1.02.2Z"/>
            <path class="cls-4" d="M117.5,21.96c.43.76.64,1.25.95,2.23l-.91.32c-.2-.8-.53-1.65-.89-2.26l.86-.29ZM121.91,22.17c-.06.15-.08.21-.19.69-.27,1.26-.83,2.41-1.55,3.23-.55.63-1.16,1.08-2.02,1.53-.23-.37-.34-.49-.64-.76.82-.35,1.41-.76,1.95-1.34.5-.55.86-1.15,1.14-1.99.2-.61.33-1.16.35-1.58l.97.22Z"/>
            <path class="cls-4" d="M123.35,24.01c.31.04.44.05,1.13.05h3.73c.69,0,.83,0,1.13-.05v.97c-.28-.04-.36-.04-1.14-.04h-3.72c-.79,0-.86,0-1.14.04v-.97Z"/>
            <path class="cls-4" d="M136.31,22.78c-.08.11-.11.17-.22.47-.83,2.29-1.92,3.5-4.03,4.48-.21-.36-.34-.52-.58-.73,1.05-.41,1.96-1.01,2.52-1.67-.43-.37-1-.76-1.44-.99l.53-.62c.55.31.92.55,1.41.94.29-.43.59-1.05.78-1.65l-2.18.02c-.38.66-1,1.36-1.64,1.88-.22-.25-.35-.36-.7-.56.71-.53,1.34-1.24,1.75-2,.24-.44.36-.71.41-.97l.91.2c-.08.13-.08.14-.21.4-.12.24-.13.27-.17.34.07,0,.09,0,.2-.01h1.62c.15-.02.31-.03.39-.04-.16-.31-.29-.51-.51-.79l.54-.16c.29.36.46.64.64,1.09l-.26.08.22.32ZM136.75,22.29c-.17-.39-.37-.74-.62-1.07l.52-.17c.29.34.46.62.64,1.05l-.54.19Z"/>
            <path class="cls-4" d="M26.6,31.38c-.29.6-.57,1.02-.95,1.47-.18-.27-.34-.43-.57-.6.53-.53.95-1.27,1.18-2.04.09-.3.13-.45.15-.65l.8.2q-.01.06-.06.18s-.02.06-.07.23c-.04.1-.1.28-.19.52h1.14v-.53c0-.37-.02-.58-.05-.84h.9c-.03.23-.04.46-.04.83v.54h1.46c.36,0,.66-.01.95-.04v.77c-.3-.03-.59-.04-.92-.04h-1.48v1.29h1.21c.35,0,.63-.01.86-.04v.77c-.25-.03-.53-.04-.86-.04h-1.21v1.48h1.68c.4,0,.69-.01.97-.05v.8c-.33-.04-.58-.05-.95-.05h-4.29c-.37,0-.67.01-.99.05v-.8c.3.04.6.05.97.05h1.8v-1.48h-1.08c-.33,0-.61.01-.85.04v-.77c.22.03.46.04.84.04h1.09v-1.29h-1.43Z"/>
            <path class="cls-4" d="M37.97,29.91c-.08.13-.11.19-.24.5-.44,1.04-.71,1.58-.99,1.98.59.5.95.84,1.56,1.49l-.67.72c-.36-.48-.78-.91-1.42-1.48-.3.4-.66.79-1.09,1.17-.5.44-.95.76-1.67,1.16-.19-.34-.3-.46-.62-.73.78-.38,1.26-.71,1.81-1.21.34-.3.62-.6.89-.95-.56-.46-1.23-.92-1.86-1.26l.62-.62c.51.3.81.5,1.16.74q.53.38.58.41c.45-.74.9-1.75.99-2.26l.95.33Z"/>
            <path class="cls-4" d="M41.11,34.78v.49h-.9c.02-.17.03-.34.03-.6v-4.01c0-.27,0-.4-.03-.59.17.01.32.02.6.02h3.98c.3,0,.43,0,.59-.02-.01.18-.02.32-.02.58v4.01c0,.26,0,.45.03.61h-.9v-.48h-3.36ZM44.47,30.88h-3.36v3.1h3.36v-3.1Z"/>
            <path class="cls-4" d="M47.18,34.35c.6-.04,1.44-.24,2.07-.52.88-.38,1.53-.92,2.08-1.72.31-.45.5-.83.71-1.4.27.33.38.43.74.69-.6,1.28-1.26,2.11-2.22,2.75-.71.48-1.58.82-2.67,1.05-.28.06-.3.06-.46.12l-.26-.97ZM47.77,30c.83.52,1.27.84,1.81,1.35l-.6.76c-.56-.59-1.13-1.06-1.79-1.42l.58-.69Z"/>
            <path class="cls-4" d="M54.87,35.5c.03-.2.04-.39.04-.79v-4.49c0-.41-.01-.55-.04-.71h.96c-.02.19-.03.32-.03.74v1.3c.81.27,2.07.85,3.18,1.48l-.49.83c-.49-.35-1.48-.89-2.48-1.34-.16-.08-.18-.08-.24-.12.02.2.03.32.03.48v1.85c0,.38,0,.57.03.78h-.96ZM57.76,29.88c.31.33.5.59.73,1.03l-.49.26c-.23-.43-.43-.71-.73-1.04l.49-.25ZM58.85,30.73c-.21-.38-.44-.71-.71-1.02l.47-.25c.31.32.51.59.73.99l-.48.27Z"/>
            <path class="cls-4" d="M61.55,31.16c.29.54.43.88.69,1.66l-.79.25c-.18-.71-.32-1.08-.64-1.7l.74-.22ZM65.57,31.21c-.04.11-.06.14-.1.36-.2.95-.52,1.72-.97,2.33-.52.71-1.1,1.16-2.14,1.69-.18-.31-.27-.41-.56-.69.49-.19.78-.34,1.19-.64.82-.6,1.29-1.31,1.59-2.43.09-.34.13-.59.13-.81l.85.2ZM63.05,30.87c.37.69.5,1,.68,1.61l-.78.25c-.13-.53-.34-1.07-.64-1.65l.74-.21Z"/>
            <path class="cls-4" d="M72.79,30.71c-.07.1-.1.17-.18.42-.32,1.06-.82,2.01-1.44,2.7-.64.74-1.41,1.28-2.49,1.78-.2-.35-.29-.47-.59-.74.7-.29,1.09-.5,1.53-.83,1-.74,1.66-1.7,2.04-2.96l-2.11.04c-.43.68-.97,1.28-1.64,1.79-.21-.29-.31-.38-.68-.6.8-.55,1.3-1.11,1.81-2.03.22-.4.33-.67.36-.92l.96.19q-.04.06-.12.22s-.02.04-.09.2t-.09.18-.11.22c.09,0,.2-.01.34-.01l1.53-.02c.27,0,.35-.01.51-.07l.45.44Z"/>
            <path class="cls-4" d="M79.27,29.23l-5.31,6.58h-1.03l5.3-6.58h1.04Z"/>
            <path class="cls-4" d="M80.47,33.49c1.7.22,3.02.54,4.65,1.11l-.3.88c-.73-.32-1.37-.53-2.48-.78-.86-.2-1.44-.31-2.2-.41l.33-.8ZM81.03,31.52c1.12.14,2.24.39,3.65.81l-.27.86c-.55-.22-1.05-.36-1.93-.56-.6-.14-1.05-.22-1.77-.31l.32-.81ZM81.13,29.58c1.35.16,2.23.34,3.79.76l-.28.86c-1.16-.38-2.59-.69-3.82-.81l.31-.81Z"/>
            <path class="cls-4" d="M86.92,33.76c.27.04.42.05.9.05h4.02c.47,0,.63,0,.9-.05v.94c-.25-.03-.43-.04-.88-.04h-4.05c-.46,0-.64,0-.88.04v-.94ZM87.63,30.35c.25.04.41.05.83.05h2.75c.41,0,.57,0,.83-.05v.92c-.23-.03-.4-.04-.82-.04h-2.77c-.42,0-.59,0-.82.04v-.92Z"/>
            <path class="cls-4" d="M96.73,30.12c-.02.08-.03.08-.04.14l-.02.12-.03.2-.02.17c-.29,2.01-.84,3.39-1.78,4.47-.33-.32-.46-.42-.8-.6.42-.42.71-.85,1-1.49.3-.65.55-1.52.66-2.4.04-.29.06-.53.06-.68v-.1l.96.17ZM98.72,29.94c0,.32.13,1.01.29,1.61.34,1.3.83,2.24,1.56,3.03-.36.22-.5.34-.77.64-.93-1.11-1.58-2.72-1.86-4.61-.04-.29-.06-.4-.1-.5l.87-.17ZM99.31,29.52c.26.36.41.66.58,1.13l-.53.17c-.16-.45-.31-.75-.57-1.14l.53-.15ZM100.28,30.54c-.16-.43-.34-.78-.56-1.11l.52-.15c.27.37.42.67.57,1.09l-.53.17Z"/>
            <path class="cls-4" d="M101.47,32.01c.31.04.44.05,1.13.05h3.73c.69,0,.83,0,1.13-.05v.97c-.28-.04-.36-.04-1.14-.04h-3.72c-.79,0-.86,0-1.14.04v-.97Z"/>
            <path class="cls-4" d="M114.23,31.09c-.06.11-.07.23-.08.46-.02.79-.1,1.88-.17,2.34-.18,1.21-.43,1.5-1.27,1.5-.27,0-.5-.02-.87-.08,0-.42-.04-.59-.16-.9.41.12.69.17.93.17.3,0,.41-.15.52-.76.08-.48.15-1.44.15-2.24h-1.63c-.17,1.77-.92,2.98-2.45,3.94-.23-.36-.35-.49-.63-.74,1.34-.69,2.06-1.74,2.21-3.2h-1.16c-.44,0-.54,0-.76.04v-.85c.22.04.35.05.77.05h1.22c.02-.27.04-.68.04-.88v-.17c0-.08,0-.14-.02-.27l.94.02c-.01.1-.02.11-.03.22,0,.04,0,.08,0,.13v.13s-.03.38-.03.38c0,.19,0,.2-.03.44h1.55c.23,0,.3,0,.38-.02l-.02-.06-.04-.07c-.15-.35-.32-.65-.55-.97l.51-.19c.27.36.43.64.62,1.11l-.36.14.39.34ZM114.56,30.46c-.17-.41-.37-.77-.6-1.09l.5-.2c.29.37.45.65.62,1.07l-.51.22Z"/>
            <path class="cls-4" d="M115.97,32.01c.31.04.44.05,1.13.05h3.73c.69,0,.83,0,1.13-.05v.97c-.28-.04-.36-.04-1.14-.04h-3.72c-.79,0-.86,0-1.14.04v-.97Z"/>
            <path class="cls-4" d="M125.05,32.22s-.02.08-.03.1c0,.01-.01.06-.03.12-.22,1.03-.66,2.04-1.18,2.72-.33-.24-.48-.32-.81-.46.54-.58,1.09-1.83,1.18-2.7l.86.21ZM128.24,30.73c.15,0,.22,0,.38,0-.34-.11-.57-.41-.57-.77,0-.44.37-.8.81-.8s.81.36.81.8c0,.34-.21.64-.53.76v.83c-.23-.03-.34-.04-.89-.04h-1.62v3.4c0,.38,0,.59.03.78h-.95c.03-.19.04-.4.04-.79v-3.39h-1.55c-.54,0-.65,0-.88.04v-.86c.25.04.38.05.9.05h1.54v-.39c0-.4-.01-.55-.04-.72h.95c-.02.19-.03.29-.03.74v.37h1.6ZM128.16,32.01c.22.91.78,2.12,1.24,2.67-.36.18-.49.26-.8.48-.51-.78-.82-1.51-1.15-2.62-.06-.19-.06-.22-.11-.32l.83-.21ZM128.41,29.95c0,.25.2.46.46.46s.46-.21.46-.46-.2-.46-.46-.46-.46.2-.46.46Z"/>
            <path class="cls-4" d="M134.14,32.33c-.04.81-.19,1.39-.49,1.88-.37.62-.88,1-1.83,1.38-.18-.36-.27-.48-.57-.77.84-.26,1.37-.63,1.66-1.17.18-.32.29-.78.31-1.32h-1.71c-.48,0-.64,0-.89.04v-.83c.27.04.42.05.9.05h4.1c.48,0,.64,0,.9-.05v.83c-.25-.03-.41-.04-.89-.04h-1.5ZM131.33,29.77c.26.04.4.05.9.05h2.69c.51,0,.64,0,.9-.05v.85c-.23-.03-.4-.04-.89-.04h-2.72c-.49,0-.66,0-.89.04v-.85Z"/>
            <path class="cls-4" d="M138.68,35.5c.04-.22.04-.41.04-.79v-4.49c0-.34-.01-.53-.04-.71h.96c-.03.21-.03.3-.03.74v1.3c.96.34,2.06.85,3.18,1.48l-.49.83c-.58-.4-1.31-.8-2.48-1.34-.16-.08-.18-.08-.24-.12.02.2.03.28.03.48v1.85c0,.36,0,.55.03.78h-.96Z"/>
          </g>
          <g>
            <path class="cls-5" d="M58.49,12.34c-1.35,0-3.26-.37-3.38-2.62h1.45c.06,1.26,1.22,1.4,1.8,1.4.37,0,1.93-.04,1.93-1.15,0-.57-.34-.79-1.06-.95l-1.9-.42c-1.01-.23-2.11-.8-2.11-2.29,0-1.69,1.63-2.35,3.17-2.35.66,0,1.65.12,2.37.78.45.41.62.79.78,1.7h-1.46c-.05-1.19-1.31-1.25-1.71-1.25-.26,0-1.72.02-1.72,1.04,0,.45.27.81,1.11.99l2.05.45c.6.13,1.97.59,1.97,2.13,0,1.44-1.21,2.53-3.29,2.53Z"/>
            <path class="cls-5" d="M66.61,12.08c-.16-.22-.17-.59-.17-.84-.16.31-.52.98-1.87.98-1.59,0-2.03-.97-2.03-1.7,0-1.33,1.2-1.73,2.49-1.92.62-.09,1.33-.21,1.33-.74,0-.46-.5-.6-.94-.6-.13,0-.74-.01-1.11.36-.16.16-.19.29-.23.57h-1.28c.11-1.8,1.71-2.04,2.49-2.04,1.34,0,2.5.58,2.5,2.08v3.19c0,.21.04.48.32.67h-1.5ZM65.33,9.5c-.54.09-1.34.28-1.34.98,0,.41.4.73.92.73.58,0,1.44-.37,1.44-1.17v-.66l.08-.38c-.25.29-.48.39-1.1.5Z"/>
            <path class="cls-5" d="M72.61,12.08v-3.66c0-.65-.27-1.08-.98-1.08-.58,0-1.27.29-1.27,1.36v3.38h-1.42v-5.8h1.42v.49l-.05.5c.23-.4.66-1.12,1.79-1.12,1.23,0,1.94.73,1.94,2.05v3.89h-1.42Z"/>
            <path class="cls-5" d="M78.87,12.08v-3.66c0-.65-.27-1.08-.98-1.08-.58,0-1.27.29-1.27,1.36v3.38h-1.42v-5.8h1.42v.49l-.05.5c.23-.4.66-1.12,1.79-1.12,1.23,0,1.94.73,1.94,2.05v3.89h-1.42Z"/>
            <path class="cls-5" d="M84.3,11.99c-.47,1.2-1.14,1.54-2.12,1.54-.3,0-.46-.03-.65-.09v-1.1c.21.04.36.05.46.05.52,0,.71-.26.87-.51l-2.1-5.6h1.49l1.2,3.48.21.75.18-.79,1.2-3.45h1.51l-2.24,5.7Z"/>
            <path class="cls-5" d="M94.7,12.08h-3.67v-7.86h3.45c1.59,0,2.53.73,2.53,1.96,0,.5-.17.9-.45,1.21-.25.27-.45.38-1.03.47.77.14,1.02.3,1.29.58.34.36.47.84.47,1.27,0,1.14-.93,2.37-2.58,2.37ZM94.62,5.45h-2.13v1.92h1.9c.64,0,1.17-.32,1.17-1,0-.55-.38-.92-.94-.92ZM94.73,8.56h-2.25v2.29h2.08c.58,0,1.25-.34,1.25-1.18,0-.71-.51-1.11-1.08-1.11Z"/>
            <path class="cls-5" d="M98.43,12.08v-7.86h1.42v7.86h-1.42Z"/>
            <path class="cls-5" d="M104.77,12.08v-.45l.06-.6c-.16.37-.51,1.2-1.81,1.2s-1.9-.87-1.9-2.21v-3.73h1.42v3.73c0,.79.53,1.06.99,1.06.75,0,1.23-.64,1.23-1.42v-3.36h1.42v5.8h-1.42Z"/>
            <path class="cls-5" d="M108.56,9.61c.05.29.27,1.46,1.41,1.46.26,0,.82-.06,1.06-.7h1.43c-.18.48-.68,1.85-2.56,1.85-1.57,0-2.76-1.04-2.76-3.03s1.28-3.05,2.71-3.05c.96,0,1.7.44,2.13,1.1.5.75.55,1.54.58,2.36h-4.01ZM109.86,7.31c-1.06,0-1.24,1-1.3,1.37h2.47c-.03-.91-.45-1.37-1.16-1.37Z"/>
          </g>
        </g>
      </g>
    </g>
  </g>
</svg>