<?xml version="1.0" encoding="UTF-8"?>
<svg xmlns="http://www.w3.org/2000/svg" viewBox="0 0 167.6 44.03">
  <defs>
    <style>
      .cls-1 {
        mix-blend-mode: multiply;
      }

      .cls-1, .cls-2 {
        fill: #ef8586;
      }

      .cls-3 {
        isolation: isolate;
      }

      .cls-4 {
        fill: #231815;
      }

      .cls-5 {
        fill: #fff;
      }
    </style>
  </defs>
  <g class="cls-3">
    <g id="_レイヤー_2" data-name="レイヤー_2">
      <g id="_テキスト_xFF08_B_xFF09_" data-name="テキスト_xFF08_B_xFF09_">
        <g>
          <rect class="cls-2" width="167.6" height="17.49"/>
          <rect class="cls-1" width="8.29" height="17.49"/>
          <g>
            <path class="cls-4" d="M48.76,21.67c-.08.24-.12.42-.25,1.35-.05.29-.08.53-.09.7h.02s.01-.04.04-.15c.07-.25.25-.59.44-.83.39-.48.82-.71,1.33-.71.48,0,.9.22,1.2.63.35.47.5,1.04.5,1.86,0,1.35-.63,2.36-1.81,2.88-.36.16-.85.3-1.37.39-.14-.4-.22-.55-.41-.83.7-.08,1.11-.18,1.53-.4.81-.41,1.18-1.08,1.18-2.14,0-1.01-.34-1.57-.94-1.57-.27,0-.51.12-.76.37-.55.57-.88,1.43-.88,2.26v.15h-.84s0-.06,0-.08v-.13c0-.2-.02-.72-.02-.86,0-.57.04-1.34.1-1.83l.11-.87c.01-.12.02-.15.02-.24l.89.05Z"/>
            <path class="cls-4" d="M55.2,24.81s.04-.05.13-.15c.22-.25.59-.41.9-.41s.63.16.78.4c.14.22.18.48.18,1.28,0,.5.03.64.15.75.08.06.2.1.37.1.37,0,.67-.26.88-.75.13-.32.23-.75.27-1.11.23.24.34.31.77.53-.3,1.45-.99,2.18-2.04,2.18-.54,0-.93-.21-1.1-.61-.08-.18-.12-.43-.12-.78v-.07c0-.25,0-.42,0-.49,0-.22-.01-.32-.05-.41-.05-.1-.18-.16-.32-.16-.38,0-.77.35-1.11.98-.21.4-.5,1.18-.59,1.6l-.9-.29c.1-.2.16-.37.39-.98q1.61-4.48,1.66-4.76l.95.24c-.1.19-.13.27-.34.81-.4,1.02-.71,1.79-.86,2.12h.01Z"/>
            <path class="cls-4" d="M62.72,25c-.44.37-.64.67-.64.97,0,.46.51.65,1.69.65.83,0,1.75-.13,2.2-.3l.08.96c-.13,0-.15,0-.31.03-.84.13-1.29.16-1.89.16-.76,0-1.38-.08-1.75-.23-.6-.24-.9-.62-.9-1.17s.27-1,.9-1.53l.61.46ZM61.66,22.12c.54.13,1.16.18,2.1.18.89,0,1.39-.04,1.85-.13l.03.79c-.42.18-1.28.72-1.87,1.16l-.61-.48c.44-.28.52-.33.69-.43.07-.04.09-.06.18-.11.05-.03.06-.03.15-.08-.31.04-.61.06-1.05.06-.36,0-.94-.03-1.28-.08-.08,0-.13-.01-.16-.01-.01,0-.05,0-.1,0l.06-.83ZM65.36,23.68c.31.33.5.59.74,1.03l-.49.26c-.23-.43-.43-.71-.74-1.04l.49-.25ZM66.44,24.52c-.21-.38-.44-.71-.71-1.01l.47-.25c.31.32.51.59.73.99l-.48.27Z"/>
            <path class="cls-4" d="M68.13,22.75c.25.04.53.06.94.06.08,0,.16,0,.32,0,.06-.34.13-.88.13-1.07,0-.03,0-.07,0-.13l.92.08q-.05.16-.13.67c-.04.2-.04.24-.07.4.52-.05.85-.11,1.2-.21l.04.81q-.06,0-.22.04c-.36.07-.92.14-1.15.15-.08.43-.25,1.18-.43,1.81-.2.73-.32,1.08-.79,2.32l-.88-.34c.48-.89,1.02-2.52,1.25-3.77-.05,0-.08,0-.09,0h-.41s-.11,0-.22,0c-.12,0-.22,0-.28,0-.04,0-.07,0-.13,0l.02-.81ZM71.61,25.46c-.28.35-.36.53-.36.77,0,.36.35.54,1.05.54.51,0,1.18-.11,1.59-.26l.06.86c-.13.01-.18.02-.34.05-.58.08-.89.11-1.3.11-.62,0-1.07-.09-1.41-.28-.3-.17-.5-.51-.5-.86,0-.37.13-.69.52-1.21l.69.28ZM73.69,24.55c-.34-.04-.53-.05-.88-.05-.69,0-1.15.05-1.85.2l-.06-.77c.99-.19,1.33-.22,2.09-.22.19,0,.25,0,.69,0v.83Z"/>
            <path class="cls-4" d="M75.52,24.21q.2-.01.73-.13c.95-.21,1.58-.29,2.16-.29.8,0,1.34.23,1.65.71.17.27.26.56.26.9,0,.93-.66,1.69-1.77,2.04-.43.13-.61.16-1.52.27-.07-.35-.13-.48-.3-.8h.11c.26,0,.65-.04.99-.11.54-.1.85-.23,1.17-.48.34-.25.5-.56.5-.95,0-.55-.41-.84-1.15-.84-.48,0-1.02.08-1.84.27-.45.11-.57.14-.81.24l-.18-.84Z"/>
            <path class="cls-4" d="M83.48,24.83s-.02.08-.03.1c0,.03-.03.1-.05.21-.27,1-.56,1.72-.9,2.26-.27-.22-.44-.34-.75-.47.35-.47.79-1.6.92-2.35l.81.26ZM86.3,23.14c-.19.04-.36.11-.6.25-.45.29-.69.58-.69.84,0,.08.03.19.06.26.07.13.1.17.52.62.25.27.39.46.48.67.09.21.14.42.14.62,0,.36-.17.73-.45.96-.25.21-.56.31-.95.31-.5,0-.97-.17-1.47-.55.11-.3.14-.46.2-.85.39.37.83.58,1.21.58.32,0,.55-.2.55-.48,0-.12-.04-.25-.11-.39-.08-.18-.16-.27-.44-.59-.41-.45-.53-.71-.53-1.06,0-.32.13-.63.38-.91.14-.16.22-.22.5-.42h-.09s-.14-.02-.14-.02c-.43-.05-.82-.15-1.41-.37-.13-.05-.13-.05-.24-.08l.31-.78c.2.11.49.22.93.34.51.14,1.31.26,1.71.26.02,0,.07,0,.14,0v.82ZM87.08,24.45c.52.76.9,1.58,1.14,2.42l-.83.39c-.11-.69-.73-2.13-1.07-2.49l.76-.32ZM88.2,22.92c0,.45-.36.81-.81.81s-.81-.36-.81-.81.37-.81.81-.81.81.36.81.81ZM86.92,22.92c0,.25.21.46.46.46s.46-.21.46-.46-.2-.46-.46-.46-.46.2-.46.46Z"/>
            <path class="cls-4" d="M91.04,21.67c-.08.24-.12.42-.25,1.35-.05.29-.08.53-.09.7h.02s.01-.04.04-.15c.07-.25.25-.59.44-.83.39-.48.82-.71,1.33-.71.48,0,.9.22,1.2.63.35.47.5,1.04.5,1.86,0,1.35-.63,2.36-1.81,2.88-.36.16-.85.3-1.37.39-.14-.4-.22-.55-.41-.83.7-.08,1.11-.18,1.53-.4.81-.41,1.18-1.08,1.18-2.14,0-1.01-.34-1.57-.94-1.57-.27,0-.51.12-.76.37-.55.57-.88,1.43-.88,2.26v.15h-.84s0-.06,0-.08v-.13c0-.2-.02-.72-.02-.86,0-.57.04-1.34.1-1.83l.11-.87c.01-.12.02-.15.02-.24l.89.05Z"/>
            <path class="cls-4" d="M98.89,25.77c-.4.9-.85,1.32-1.42,1.32-.8,0-1.37-.81-1.37-1.94,0-.77.27-1.49.77-2.04.59-.64,1.42-.98,2.41-.98,1.68,0,2.77,1.02,2.77,2.6,0,1.21-.63,2.18-1.7,2.61-.34.14-.61.21-1.1.29-.12-.37-.2-.53-.43-.82.64-.08,1.06-.2,1.39-.38.61-.34.97-1,.97-1.75,0-.67-.3-1.22-.86-1.55-.22-.13-.4-.18-.71-.21-.13,1.1-.38,2.07-.73,2.86ZM97.86,23.26c-.59.42-.95,1.14-.95,1.89,0,.57.24,1.03.55,1.03.23,0,.47-.29.72-.9.27-.63.5-1.58.58-2.37-.36.04-.62.14-.9.34Z"/>
            <path class="cls-4" d="M109.06,22.91c-.07.1-.1.17-.18.42-.32,1.06-.82,2.01-1.44,2.7-.64.74-1.41,1.28-2.49,1.78-.2-.35-.29-.47-.59-.74.7-.29,1.09-.5,1.53-.83,1-.74,1.66-1.7,2.04-2.96l-2.11.04c-.43.68-.97,1.28-1.64,1.79-.21-.29-.31-.38-.68-.6.8-.55,1.3-1.11,1.81-2.03.22-.4.33-.67.36-.92l.96.19q-.04.06-.12.22s-.02.04-.09.2t-.09.18-.11.22c.09,0,.2-.01.34-.01l1.53-.02c.27,0,.35-.01.51-.07l.45.44Z"/>
            <path class="cls-4" d="M112.14,21.89c-.03.19-.04.36-.04.71l-.04,4c.73-.14,1.39-.41,1.91-.77.64-.44,1.08-.92,1.43-1.6.27.36.37.46.67.71-.48.74-.93,1.21-1.56,1.63-.7.47-1.41.74-2.55.96-.19.04-.27.06-.42.12l-.45-.54c.05-.19.06-.32.06-.72l.03-3.78q0-.49-.04-.72h.99Z"/>
            <path class="cls-4" d="M117.62,24.22c.31.04.44.05,1.13.05h3.73c.69,0,.83,0,1.13-.05v.97c-.28-.04-.36-.04-1.14-.04h-3.72c-.79,0-.86,0-1.14.04v-.97Z"/>
            <path class="cls-4" d="M128.62,22.31c.21,0,.29,0,.41-.01,0-.46.36-.81.81-.81s.81.36.81.8-.37.81-.81.81c-.04,0-.08,0-.13-.01-.57,2.29-1.81,3.72-4.02,4.64-.18-.36-.3-.53-.62-.83,1.94-.6,3.21-1.91,3.66-3.77h-3.33c-.52,0-.65,0-.88.04v-.91c.25.04.42.05.9.05h3.21ZM129.38,22.28c0,.25.2.46.46.46s.46-.21.46-.46-.2-.46-.46-.46-.46.2-.46.46Z"/>
            <path class="cls-4" d="M49.82,32.03c.37.31.58.5.87.78q.38.39.43.43c.36-.31.66-.59.92-.88.3-.34.69-.86.85-1.14t.04-.06s0-.02.01-.04c-.07,0-.18.01-.32.01h-3.34c-.57,0-.64,0-.9.04v-.89c.27.04.44.05.91.05h3.89c.3,0,.41-.01.58-.06l.49.55c-.11.11-.15.16-.31.41-.66,1.07-1.4,1.93-2.26,2.65.29.34.56.67.92,1.17l-.73.59c-.39-.63-.76-1.11-1.35-1.76-.54-.6-.89-.94-1.4-1.35l.69-.5Z"/>
            <path class="cls-4" d="M56.78,34.99v.49h-.9c.02-.17.03-.34.03-.6v-4.01c0-.27,0-.4-.03-.59.17.01.32.02.6.02h3.98c.3,0,.43,0,.59-.02-.01.18-.02.32-.02.58v4.01c0,.26,0,.45.03.61h-.9v-.48h-3.36ZM60.15,31.09h-3.36v3.1h3.36v-3.1Z"/>
            <path class="cls-4" d="M62.85,34.56c.6-.04,1.44-.24,2.07-.52.88-.38,1.53-.92,2.08-1.72.31-.45.5-.83.71-1.4.27.33.38.43.74.69-.6,1.28-1.26,2.11-2.22,2.75-.71.48-1.58.82-2.67,1.05-.28.06-.3.06-.46.12l-.26-.97ZM63.45,30.21c.83.52,1.27.84,1.81,1.35l-.6.76c-.56-.59-1.13-1.06-1.79-1.42l.58-.69Z"/>
            <path class="cls-4" d="M71.69,32.32s-.02.09-.03.11c0,0-.01.05-.03.12-.22,1.02-.66,2.03-1.18,2.72-.33-.24-.48-.32-.81-.45.54-.58,1.09-1.83,1.18-2.7l.86.21ZM74.85,30.83c-.19-.46-.35-.75-.61-1.11l.52-.18c.27.36.44.64.62,1.11l-.48.18c.49,0,.64,0,.88-.05v.86c-.23-.03-.34-.04-.89-.04h-1.62v3.4c0,.39,0,.6.03.79h-.95c.03-.19.04-.4.04-.79v-3.39h-1.55c-.54,0-.65,0-.88.04v-.86c.25.04.38.05.9.05h1.54v-.39c0-.41-.01-.56-.04-.73h.95c-.02.19-.03.3-.03.75v.37h1.58ZM74.8,32.11c.22.91.78,2.13,1.24,2.67-.36.18-.49.27-.8.49-.51-.79-.82-1.51-1.15-2.62-.06-.19-.06-.22-.11-.33l.83-.21ZM75.79,30.55c-.17-.41-.37-.77-.6-1.09l.5-.18c.29.37.45.65.62,1.06l-.51.2Z"/>
            <path class="cls-4" d="M77.09,32.22c.31.04.44.05,1.13.05h3.73c.69,0,.83,0,1.13-.05v.97c-.28-.04-.36-.04-1.14-.04h-3.72c-.79,0-.86,0-1.14.04v-.97Z"/>
            <path class="cls-4" d="M85.38,35.71c.04-.22.04-.41.04-.79v-4.49c0-.34-.01-.53-.04-.71h.96c-.03.21-.03.3-.03.74v1.3c.96.34,2.06.85,3.18,1.48l-.49.83c-.58-.4-1.31-.8-2.48-1.34-.16-.08-.18-.08-.24-.12.02.2.03.28.03.48v1.85c0,.37,0,.55.03.78h-.96Z"/>
            <path class="cls-4" d="M98.58,29.44l-5.31,6.58h-1.03l5.3-6.58h1.04Z"/>
            <path class="cls-4" d="M101.95,30.44c-.38,0-.65.01-.86.04v-.76c.21.03.49.04.86.04h4.44c.38,0,.7-.01.89-.04v.76c-.21-.02-.49-.04-.88-.04h-1.13v.45h1.02c.28,0,.46,0,.64-.02-.02.2-.03.34-.03.59v.71c0,.28,0,.41.03.59-.18-.02-.37-.03-.64-.03h-1.75v.49h1.91c.41,0,.65-.01.85-.04v.76c-.25-.03-.5-.04-.85-.04h-1.37c.57.56,1.42.98,2.38,1.18-.22.27-.32.41-.45.72-1.06-.34-1.91-.88-2.51-1.59.01.29.02.46.02.62v.39c0,.36,0,.54.04.71h-.85c.03-.2.04-.4.04-.71v-.39c0-.19,0-.36.02-.62-.53.68-1.23,1.15-2.38,1.6-.13-.29-.25-.46-.48-.7.5-.13.82-.25,1.16-.41.44-.22.84-.5,1.13-.81h-1.29c-.34,0-.59.01-.83.04v-.76c.22.04.43.04.83.04h1.84v-.49h-1.65c-.29,0-.44,0-.64.03.02-.2.03-.34.03-.59v-.71c0-.25,0-.4-.03-.59.19.01.32.02.64.02h.97v-.45h-1.13ZM102.23,31.52v.61h.85v-.61h-.85ZM103.76,30.89h.82v-.45h-.82v.45ZM103.76,32.13h.82v-.61h-.82v.61ZM105.27,32.13h.9v-.61h-.9v.61Z"/>
            <path class="cls-4" d="M111.03,34.63c0,.29-.02.46-.06.6-.06.25-.31.41-.64.41-.44,0-.97-.2-1.32-.5-.25-.22-.38-.49-.38-.79,0-.33.22-.7.6-1.04.25-.22.56-.4,1.02-.6v-1.08q-.06,0-.29.01c-.1,0-.2,0-.38,0-.11,0-.3,0-.39,0-.09,0-.15,0-.17,0-.03,0-.08,0-.15,0v-.78c.19.04.47.06.84.06.07,0,.15,0,.24,0,.17,0,.2,0,.28,0v-.46c0-.4,0-.58-.04-.8h.88c-.04.22-.04.37-.04.76v.45c.53-.06.99-.15,1.35-.27l.03.78c-.12.02-.26.04-.74.13-.23.04-.37.06-.64.09v.91c.48-.14.92-.2,1.43-.2,1.17,0,2,.71,2,1.71,0,.91-.68,1.6-1.59,1.6-.57,0-.97-.27-1.15-.78-.09-.24-.12-.47-.12-.9.36-.1.48-.15.78-.31-.01.13-.01.2-.01.31,0,.29.03.48.1.62.08.15.25.24.44.24.41,0,.71-.33.71-.78,0-.6-.49-.99-1.24-.99-.42,0-.85.08-1.34.23v1.38ZM110.23,33.51c-.53.28-.83.59-.83.84,0,.12.07.22.23.32.14.1.31.15.45.15.12,0,.15-.06.15-.29v-1.02ZM114.12,32.09c-.35-.55-.86-1.11-1.4-1.51l.66-.44c.61.47,1.02.89,1.39,1.44l-.64.52Z"/>
            <path class="cls-4" d="M117.8,32.99c-.44.36-.64.66-.64.96,0,.46.51.65,1.7.65.83,0,1.75-.13,2.2-.29l.08.96c-.12,0-.16,0-.31.03-.84.12-1.29.15-1.89.15-.76,0-1.38-.08-1.75-.23-.6-.23-.9-.62-.9-1.17s.27-1,.9-1.52l.61.46ZM116.73,30.12c.54.13,1.16.18,2.1.18.89,0,1.39-.04,1.85-.13l.03.79c-.42.19-1.18.66-1.87,1.16l-.61-.48c.37-.23.71-.44,1.03-.62-.31.04-.61.06-1.05.06-.36,0-.94-.04-1.28-.08-.14-.01-.16-.02-.26-.02l.06-.83Z"/>
            <path class="cls-4" d="M122.59,33.74c.16-.11.44-.35,1.27-1.12.02-.43.02-.43.03-1.01q-.85.06-1.06.11l-.05-.79c.11,0,.17.01.23.01.12,0,.51-.02.9-.05.01-.18.02-.27.02-.53,0-.13,0-.23,0-.29v-.07c0-.11,0-.17-.03-.31h.9c-.04.19-.04.2-.07.68q0,.13-.02.33v.13c.05-.01.06-.01.1-.04l.27.29c-.1.08-.15.14-.4.46-.02.3-.02.46-.03.48h.01s.08-.08.17-.14c.76-.55,1.33-.77,2.02-.77.5,0,1.02.22,1.37.57.35.36.54.88.54,1.44,0,.88-.42,1.62-1.12,1.98-.36.17-.77.27-1.25.27-.36,0-.69-.05-1.04-.15,0-.37-.02-.53-.13-.91.39.17.83.26,1.25.26.84,0,1.43-.59,1.43-1.45,0-.75-.46-1.22-1.2-1.22-.58,0-1.27.36-2.04,1.06v.73c0,1,.01,1.79.05,2.09h-.91c.04-.21.04-.41.04-1.12v-.62c0-.2,0-.27.01-.41h-.01c-.05.07-.1.13-.31.33-.25.25-.45.46-.54.6l-.41-.81Z"/>
            <path class="cls-4" d="M29.24,37.64c.03.47.24,1.48.46,2.19q.46-.17,1.81-.62c.13-.04.16-.06.27-.1l.3.88c-.61.12-1.53.39-2.31.67-1.02.38-1.53.83-1.53,1.33s.48.73,1.6.73c.88,0,1.74-.1,2.26-.29l.08.96c-.15,0-.19,0-.57.05-.76.08-1.15.11-1.64.11-.97,0-1.58-.12-2.03-.39-.38-.23-.61-.67-.61-1.17,0-.47.22-.92.62-1.25.27-.23.5-.37.95-.6-.17-.57-.29-1.04-.47-1.9-.07-.34-.08-.35-.11-.46l.91-.15Z"/>
            <path class="cls-4" d="M35.91,40.61c.42-.22.77-.3,1.28-.3,1.13,0,1.87.59,1.87,1.49,0,.58-.29,1.08-.82,1.42-.43.27-1.04.41-1.74.41-.58,0-1.08-.08-1.69-.26,0-.36-.03-.52-.12-.92.55.25,1.23.39,1.78.39,1.02,0,1.7-.41,1.7-1.03,0-.5-.46-.81-1.24-.81-.9,0-2.04.49-2.72,1.17l-.54-.73c.22-.12.53-.34.92-.66.8-.67,1.32-1.16,2.09-1.95t.07-.08s.03-.03.05-.06h0s-.04,0-.06,0c-.28.04-1.13.09-1.74.11-.29,0-.45.02-.57.04l-.03-.83c.22.04.42.05.95.05.68,0,1.46-.04,1.99-.08.22-.02.27-.03.39-.08l.45.64q-.14.09-1.21,1.12c-.4.39-.73.67-1.12.96h.02s.05-.02.05-.02Z"/>
            <path class="cls-4" d="M42.9,37.64c.03.47.24,1.48.46,2.19q.46-.17,1.81-.62c.13-.04.16-.06.27-.1l.3.88c-.61.12-1.53.39-2.31.67-1.02.38-1.53.83-1.53,1.33s.48.73,1.6.73c.88,0,1.74-.1,2.26-.29l.08.96c-.15,0-.19,0-.57.05-.76.08-1.15.11-1.64.11-.97,0-1.58-.12-2.03-.39-.38-.23-.61-.67-.61-1.17,0-.47.22-.92.62-1.25.27-.23.5-.37.95-.6-.17-.57-.29-1.04-.47-1.9-.07-.34-.08-.35-.11-.46l.91-.15Z"/>
            <path class="cls-4" d="M49.57,40.61c.42-.22.77-.3,1.28-.3,1.13,0,1.87.59,1.87,1.49,0,.58-.29,1.08-.82,1.42-.43.27-1.04.41-1.74.41-.58,0-1.08-.08-1.69-.26,0-.36-.03-.52-.12-.92.55.25,1.23.39,1.78.39,1.02,0,1.7-.41,1.7-1.03,0-.5-.46-.81-1.24-.81-.9,0-2.04.49-2.72,1.17l-.54-.73c.22-.12.53-.34.92-.66.8-.67,1.32-1.16,2.09-1.95t.07-.08s.03-.03.05-.06h0s-.04,0-.06,0c-.28.04-1.13.09-1.74.11-.29,0-.45.02-.57.04l-.03-.83c.22.04.42.05.95.05.68,0,1.46-.04,1.99-.08.22-.02.27-.03.39-.08l.45.64q-.14.09-1.21,1.12c-.4.39-.73.67-1.12.96h.02s.05-.02.05-.02Z"/>
            <path class="cls-4" d="M59.56,38.42q-.08.02-.59.19c-.4.13-.62.18-1.17.29q0,.95-.02,1.18h1.49c.47,0,.59,0,.85-.05v.84c-.26-.03-.39-.04-.84-.04h-1.55c-.08.65-.22,1.12-.47,1.53s-.65.8-1.14,1.11c-.2.13-.33.2-.65.35-.2-.36-.31-.49-.61-.74.5-.18.77-.33,1.09-.59.42-.34.69-.74.8-1.19.03-.12.05-.24.08-.47h-1.73c-.45,0-.58,0-.84.04v-.84c.26.04.38.05.85.05h1.79c.01-.29.01-.57.01-1.06-.57.08-.78.1-1.94.16-.07-.32-.11-.42-.26-.76.22.01.33.01.44.01.94,0,2.13-.16,3-.41.41-.12.61-.2.85-.33l.56.71Z"/>
            <path class="cls-4" d="M61.7,40.22c.31.04.44.05,1.13.05h3.73c.69,0,.83,0,1.13-.05v.97c-.28-.04-.36-.04-1.14-.04h-3.72c-.79,0-.86,0-1.14.04v-.97Z"/>
            <path class="cls-4" d="M73.61,43.81c-.48-.62-1.46-1.56-2.15-2.08-.7.81-1.65,1.53-2.67,2.02-.19-.36-.29-.5-.57-.78.72-.26,1.64-.86,2.3-1.51.63-.62,1.11-1.32,1.46-2.11l.04-.08.02-.05s0-.03.02-.06c-.08,0-.1,0-.15,0h-.06s-2.1.04-2.1.04c-.38,0-.55.02-.76.05l-.03-.89c.2.04.33.04.62.04h.17l2.34-.04c.39,0,.45-.01.62-.08l.52.62c-.07.08-.16.22-.22.38-.27.64-.65,1.3-1.02,1.79.78.53,1.16.86,2.32,1.98l-.67.74ZM73.34,37.65c.31.33.5.59.73,1.03l-.47.26c-.23-.43-.43-.71-.74-1.04l.47-.25ZM74.43,38.49c-.21-.39-.44-.71-.71-1.02l.44-.22c.31.32.51.59.73.99l-.46.25Z"/>
            <path class="cls-4" d="M78.26,38.33c-.03.08-.04.16-.09.54-.14.95-.31,1.73-.55,2.39-.31.86-.67,1.49-1.24,2.17-.34-.32-.45-.41-.8-.6.42-.42.71-.85,1-1.49.3-.65.55-1.52.66-2.4.04-.29.06-.53.06-.68v-.1l.96.17ZM80.24,38.15c.02.39.13,1,.29,1.61.34,1.28.8,2.18,1.56,3.03-.37.24-.49.34-.77.64-.5-.6-.86-1.23-1.19-2.06-.3-.74-.55-1.67-.67-2.55-.04-.27-.06-.4-.1-.5l.87-.17Z"/>
            <path class="cls-4" d="M83.53,42.56c.6-.04,1.44-.24,2.07-.52.88-.38,1.53-.92,2.08-1.72.31-.45.5-.83.71-1.4.27.33.38.43.74.69-.6,1.28-1.26,2.11-2.22,2.75-.71.48-1.58.82-2.67,1.05-.28.06-.3.06-.46.12l-.26-.97ZM84.13,38.21c.83.52,1.27.84,1.81,1.35l-.6.76c-.56-.59-1.13-1.06-1.79-1.42l.58-.69Z"/>
            <path class="cls-4" d="M92.41,38.33c-.02.08-.03.08-.04.14l-.02.12-.03.2-.02.17c-.29,2.01-.84,3.39-1.78,4.47-.33-.32-.46-.42-.8-.6.42-.42.71-.85,1-1.49.3-.65.55-1.52.66-2.4.04-.29.06-.53.06-.68v-.1l.96.17ZM94.4,38.15c0,.32.13,1.01.29,1.61.34,1.29.83,2.24,1.56,3.03-.36.22-.5.34-.77.64-.93-1.11-1.58-2.72-1.86-4.61-.04-.29-.06-.4-.1-.5l.87-.17ZM94.99,37.73c.26.36.41.66.58,1.13l-.53.17c-.16-.45-.31-.75-.57-1.14l.53-.15ZM95.96,38.75c-.16-.43-.34-.79-.56-1.11l.52-.15c.27.37.42.67.57,1.09l-.53.17Z"/>
            <path class="cls-4" d="M97.15,40.22c.31.04.44.05,1.13.05h3.73c.69,0,.83,0,1.13-.05v.97c-.28-.04-.36-.04-1.14-.04h-3.72c-.79,0-.86,0-1.14.04v-.97Z"/>
            <path class="cls-4" d="M110.09,39.05c-.06.09-.1.17-.18.42-.41,1.25-.75,1.87-1.41,2.65-.62.71-1.48,1.33-2.49,1.77-.18-.33-.31-.48-.6-.74,1.84-.7,3.02-1.95,3.58-3.78l-2.11.03c-.39.64-1.06,1.37-1.64,1.8-.21-.29-.31-.38-.68-.6.76-.5,1.32-1.13,1.81-2.03.21-.38.34-.71.36-.93l.96.2c-.05.06-.06.08-.12.21-.06.13-.12.27-.19.41-.04.06-.04.07-.05.1l-.06.1c.08,0,.2-.01.34-.01l1.53-.02c.19,0,.31,0,.36-.01-.16-.35-.29-.57-.51-.88l.52-.18c.27.37.43.64.62,1.11l-.3.11.24.27ZM110.54,38.54c-.17-.41-.37-.77-.6-1.09l.51-.17c.29.37.45.65.62,1.06l-.52.2Z"/>
            <path class="cls-4" d="M116.66,37.44l-5.31,6.58h-1.03l5.3-6.58h1.04Z"/>
            <path class="cls-4" d="M123.93,39.51q-.03.06-.08.2c-.07.2-.08.2-.1.27.29.07.49.17.73.34.45.34.67.77.67,1.32,0,.76-.41,1.36-1.21,1.75-.41.2-.81.31-1.43.37-.08-.3-.14-.43-.37-.79.57,0,.93-.08,1.34-.28.56-.27.82-.61.82-1.09,0-.44-.29-.8-.79-.97-.38.83-.71,1.34-1.22,1.86-.63.67-1.25,1.01-1.83,1.01-.65,0-1.09-.5-1.09-1.23,0-.58.25-1.13.69-1.57.28-.27.54-.45.96-.63,0-.22.01-.5.03-.84-.08,0-.46,0-1.13-.03h-.13s-.08,0-.16,0v-.78c.32.07.73.11,1.31.11h.15q0-.14.03-.42c0-.09.01-.27.01-.4,0-.03,0-.06-.01-.11l.87.04c-.06.19-.08.37-.13.86,1.12-.06,2.12-.2,2.65-.37l.04.81c-.1,0-.12,0-.27.03-.77.13-1.91.23-2.47.25-.02.3-.03.53-.04.67.38-.08.54-.09.97-.09.08,0,.14,0,.27.01.08-.22.12-.37.14-.53l.79.22ZM120.46,41.37c-.21.27-.31.56-.31.85,0,.32.15.51.4.51.2,0,.39-.08.61-.27-.09-.46-.12-.9-.12-1.58-.31.2-.43.31-.57.48ZM121.83,41.95s.03-.04.08-.1c.33-.37.61-.82.87-1.4-.08,0-.11,0-.18,0-.31,0-.56.04-.84.13,0,.64,0,.71.05,1.21t0,.09s0,.04,0,.08h.01Z"/>
            <path class="cls-4" d="M128.64,41.27c-.44.8-.81,1.83-.8,2.25l-.81.04c0-.1-.01-.12-.05-.27-.18-.78-.25-1.48-.25-2.28s.04-1.2.26-2.65c.05-.31.05-.37.05-.51l.93.08c-.25.81-.43,2.11-.43,3.22,0,.1,0,.65,0,.69,0,.08,0,.16,0,.27.11-.31.13-.38.16-.46q.24-.57.31-.69l.62.31ZM128.46,39.25c.31.07.68.1,1.25.1.27,0,.32,0,.73-.03-.02-.64-.03-.71-.04-.92-.01-.31-.02-.35-.05-.53h.89c0,.14-.01.22-.01.26v.09c.01.23.02.57.04,1.02.46-.08.88-.18,1.04-.27l.05.83c-.11.01-.15.02-.39.07-.34.08-.38.08-.68.12,0,.15,0,.21,0,.34,0,.74-.05,1.32-.15,1.67-.15.58-.4,1.01-.8,1.36-.22.19-.41.32-.76.53-.22-.29-.38-.43-.68-.66.48-.22.8-.45,1.07-.76.36-.43.49-.93.49-1.96,0-.13,0-.24,0-.45-.24.02-.6.04-.95.04-.2,0-.46,0-.64-.02-.2-.01-.23-.01-.31-.01h-.11v-.81ZM131.7,37.45c.22.34.36.68.48,1.09l-.48.14c-.13-.45-.28-.79-.48-1.1l.48-.13ZM132.55,38.47c-.11-.38-.28-.77-.47-1.07l.45-.14c.19.29.34.62.48,1.05l-.46.16Z"/>
            <path class="cls-4" d="M134.9,38.9c-.28.27-.51.47-.83.69-.07-.31-.14-.5-.27-.71.39-.25.6-.41.84-.67.24-.25.35-.41.5-.71h.8c.28.46.5.65,1.06.96-.19.25-.26.37-.37.64-.16-.12-.19-.14-.31-.24v.41c-.11-.01-.2-.02-.34-.02h-.75c-.12,0-.22,0-.33.02v-.37ZM136.58,43.41c-.11-.01-.34-.02-.44-.02h-1.1v.04c0,.17.01.41.03.55h-.78c.03-.22.04-.47.04-.79v-3.21c0-.27,0-.33-.02-.48.12.01.22.02.43.02h1.39c.3,0,.42,0,.54-.02-.01.19-.02.36-.02.57v.96c0,.22,0,.41.02.62-.12,0-.26-.01-.5-.01h-1.13v.29h1.06c.27,0,.38,0,.54-.02v.6c-.15-.01-.31-.02-.54-.02h-1.06v.31h1.09c.29,0,.39,0,.54-.02v.57c.27-.26.47-.57.57-.92.08-.26.13-.53.16-.98h-.06c-.27,0-.39,0-.52.03v-.78c.17.03.27.04.5.04h.11v-1.08c-.29,0-.39,0-.55.03v-.76c.16.02.29.03.58.03h1.18c.31-.57.47-.96.62-1.47l.74.25c-.21.5-.39.88-.6,1.23h.19c.26,0,.43-.01.62-.03v.77c-.18-.03-.34-.03-.57-.03h-.04v1.08h.15c.25,0,.42-.01.58-.04v.8c-.18-.03-.37-.04-.59-.04h-.14v1.83c0,.32,0,.48.04.7h-.81c.03-.2.04-.39.04-.71v-1.83h-.78c-.04.6-.11,1.01-.25,1.42-.18.49-.37.81-.72,1.16-.19-.23-.33-.34-.65-.51l.11-.08ZM135.04,40.31h.94v-.28h-.94v.28ZM135.04,41.11h.94v-.29h-.94v.29ZM135.98,38.74c.08,0,.11,0,.19,0-.22-.19-.31-.29-.59-.65-.22.32-.32.44-.51.65.08,0,.12,0,.17,0h.75ZM137.57,38.91c-.11-.41-.23-.67-.53-1.16l.66-.26c.25.41.41.74.55,1.14l-.69.27ZM138.14,40.41c0,.13,0,.18,0,.3h.75v-1.08h-.74v.78Z"/>
            <path class="cls-4" d="M144.81,41.11q0-.17.02-.77c-.17.29-.34.53-.59.81-.1-.29-.18-.48-.36-.83.52-.51.93-1.17,1.24-1.93.14-.35.24-.69.27-.95l.79.24c-.06.16-.07.2-.14.4-.16.47-.26.71-.49,1.16v3.9c0,.33.01.58.04.85h-.82c.03-.25.04-.48.04-.85v-2.02ZM147.15,40.34v2.45c0,.14.04.18.19.22.17.04.38.06.88.06.79,0,1.09-.03,1.25-.13.08-.05.14-.17.17-.32.02-.13.03-.22.05-.55.31.13.43.16.76.22-.08.8-.18,1.07-.39,1.24-.27.19-.73.25-2.01.25s-1.64-.14-1.64-.7v-2.49c-.06.02-.11.04-.14.04-.2.07-.27.1-.41.16l-.06-.8c.17-.02.37-.07.61-.14v-.83c0-.33,0-.52-.04-.74h.83c-.04.2-.04.39-.04.71v.62l.72-.23v-1.14c0-.28-.01-.46-.04-.7h.81c-.03.22-.04.39-.04.68v.93l1.02-.33c.27-.08.43-.15.57-.21,0,.15,0,.2,0,.38-.01.84-.06,1.81-.12,2.26-.07.53-.25.68-.79.68-.13,0-.21,0-.38-.02-.04-.27-.08-.43-.2-.71.18.04.36.06.47.06.15,0,.18-.05.22-.38.04-.27.06-.74.06-1.29l-.86.28v1.82c0,.29,0,.46.04.7h-.81c.04-.22.04-.4.04-.72v-1.56l-.72.23Z"/>
          </g>
          <g>
            <path class="cls-5" d="M49.97,13.28c-2.05-.59-2.83-1.17-3.42-1.64v1.68h-1.33v-1.63c-.96.74-2.08,1.23-3.22,1.63l-.94-1.01c1.22-.25,2.12-.53,2.94-1.15h-2.74v-.99h3.95v-.44h-3.06v-3.48h7.52v3.48h-3.13v.44h3.95v.99h-2.76c1.13.71,2.08.89,3.02,1.02l-.79,1.1ZM48.13,5.65v.33h-1.29v-.33h-1.92v.33h-1.24v-.33h-2.43v-1.02h2.43v-.63l1.2.05c.2.01.26.1.26.16,0,.02-.13.15-.15.17q-.06.08-.06.25h1.92v-.65l1.23.09c.11.01.23.01.23.13,0,.03-.01.08-.09.15s-.08.1-.08.13v.15h2.4v1.02h-2.4ZM45.22,7.05h-1.78v.52h1.78v-.52ZM45.22,8.34h-1.78v.54h1.78v-.54ZM48.38,7.05h-1.83v.52h1.83v-.52ZM48.38,8.34h-1.83v.54h1.83v-.54Z"/>
            <path class="cls-5" d="M56.71,9.2v2.56c0,1.5-.47,1.56-2.53,1.56l-.61-1.3c.91.12,1.01.14,1.22.14.31,0,.61-.1.61-.6v-2.36h-3.99v-1.2h3.99v-1.58l.7.17c.54-.43.93-.79,1.1-.96h-4.79v-1.17h6.57l.65.67c-1.2,1.09-2.14,1.9-2.91,2.54v.33h3.97v1.2h-3.97Z"/>
            <path class="cls-5" d="M61.11,12.51v-1.24h3.93v-5.28h-3.24v-1.21h7.82v1.21h-3.25v5.28h3.91v1.24h-9.17Z"/>
            <path class="cls-5" d="M76.61,9.51c0,.24,0,.26-.02.5h3.19c-.01.57-.21,2.37-.74,2.87-.43.41-1.1.46-1.84.47l-.42-1.16c1.19.08,1.69.02,1.7-1.16h-2.04c-.34.92-.8,1.65-2.14,2.49l-.94-.86c1.75-.92,2.03-1.78,2.03-3.13h-1.76c-.08,1.81-.59,2.9-1.11,3.75l-1.16-.45c.22-.27.58-.75.85-1.85.26-1.03.32-2.1.32-3.18,0-.94-.05-1.7-.09-2.17h7.51v2.45h-2.57v.43h3.42v1.02h-4.18ZM71.6,5.11v-1.01h9.31v1.01h-9.31ZM78.78,6.48h-5.11v.61h5.11v-.61ZM76.14,8.05h-2.47v.43h2.47v-.43Z"/>
            <path class="cls-5" d="M87.42,6.14v6.64h-1.45v-6.64h-2.8v-1.23h7.06v1.23h-2.8Z"/>
            <path class="cls-5" d="M95.77,12.77l-.58-1.69h-3.31l-.58,1.69h-1.6l3.02-7.86h1.65l3.02,7.86h-1.61ZM93.71,6.84l-.17-.69-.18.69-1.04,3.03h2.46l-1.06-3.03Z"/>
            <path class="cls-5" d="M101.1,6.14v6.64h-1.45v-6.64h-2.8v-1.23h7.06v1.23h-2.8Z"/>
            <path class="cls-5" d="M108.18,13.03c-2.11,0-3.28-1.23-3.28-3.36v-4.76h1.46v4.93c0,1.36.76,1.88,1.78,1.88,1.18,0,1.81-.66,1.81-1.88v-4.93h1.45v4.76c0,2.49-1.53,3.36-3.22,3.36Z"/>
            <path class="cls-5" d="M116.66,9.74v3.03h-1.45v-3.03l-2.78-4.84h1.64l1.62,3.08.26.54.25-.54,1.62-3.08h1.64l-2.78,4.84Z"/>
            <path class="cls-5" d="M124.93,12.77l-.58-1.69h-3.31l-.58,1.69h-1.6l3.02-7.86h1.65l3.02,7.86h-1.61ZM122.87,6.84l-.17-.69-.18.69-1.04,3.03h2.46l-1.06-3.03Z"/>
          </g>
        </g>
      </g>
    </g>
  </g>
</svg>