<?xml version="1.0" encoding="UTF-8"?>
<svg xmlns="http://www.w3.org/2000/svg" viewBox="0 0 167.6 36.78">
  <defs>
    <style>
      .cls-1 {
        mix-blend-mode: multiply;
      }

      .cls-1, .cls-2 {
        fill: #ef8586;
      }

      .cls-3 {
        isolation: isolate;
      }

      .cls-4 {
        fill: #231815;
      }

      .cls-5 {
        fill: #fff;
      }
    </style>
  </defs>
  <g class="cls-3">
    <g id="_レイヤー_2" data-name="レイヤー_2">
      <g id="_テキスト_xFF08_B_xFF09_" data-name="テキスト_xFF08_B_xFF09_">
        <g>
          <rect class="cls-2" width="167.6" height="17.49"/>
          <rect class="cls-1" width="8.29" height="17.49"/>
          <g>
            <path class="cls-5" d="M59.23,7.95c-.12,3.07-.83,4.15-2.92,5.42l-.88-.84c1.95-1.07,2.56-2.17,2.61-4.58h-2.04v2.47h-1.28v-2.47h-1.99v-1.23h1.99v-2.06l1.19.13c.25.03.32.04.32.15,0,.04-.02.06-.09.11-.12.09-.14.11-.14.16v1.51h2.04c0-.82,0-1.54-.02-2.22l1.11.15c.09.01.33.04.33.17,0,.04-.03.08-.1.13-.08.06-.1.09-.12.14v1.63h1.81v1.23h-1.82Z"/>
            <path class="cls-5" d="M68.7,10.56c-.8-.74-1.88-1.62-3.17-2.15v4.65h-1.27V4.52l1.29.23s.26.04.26.17c0,.06-.28.24-.28.29v2.83l.51-.8c.55.24.91.38,1.83.98.85.56,1.25.92,1.68,1.29l-.85,1.03Z"/>
            <path class="cls-5" d="M78.87,7.97c-.09.47-.44,1.88-1.29,3.17-.82,1.24-1.83,1.99-2.5,2.49l-1.04-.91c1.86-1.16,3.29-2.65,3.61-5.58h-4.84v2.21h-1.24v-3.35h3.1v-1.81l1.14.06c.23.01.36.05.36.15,0,.02-.01.05-.08.12-.09.09-.11.12-.11.17v1.3h1.93c.12,0,.24-.06.39-.17l.92.82c-.13.23-.15.33-.34,1.33Z"/>
            <path class="cls-5" d="M87.07,12.23v-.38h-5.63v-1.19h5.63v-3.75h-5.61v-1.2h6.89v6.51h-1.28Z"/>
            <path class="cls-5" d="M90.92,9.5v-1.37h7.66v1.37h-7.66Z"/>
            <path class="cls-5" d="M104.85,12.86c-3.22,0-3.56-.57-3.56-1.69v-6.61l1.23.17c.06.01.32.05.32.17,0,.04-.02.08-.09.13-.14.11-.15.12-.15.16v2.6c1.28-.23,2.77-.62,4.3-1.56l.93.89c.08.08.16.13.16.24,0,.02-.01.1-.1.1-.1,0-.23-.05-.33-.04-1.49.61-2.8,1.1-4.96,1.56v1.7c0,.62.03.96,1.82.96,1.61,0,2.96-.2,3.6-.3v1.39c-1.06.09-2.11.14-3.18.14Z"/>
            <path class="cls-5" d="M109.95,9.5v-1.37h7.66v1.37h-7.66Z"/>
          </g>
          <g>
            <path class="cls-4" d="M18.28,23.98c-.29.6-.57,1.02-.95,1.47-.18-.27-.34-.43-.57-.59.53-.53.95-1.27,1.18-2.04.09-.3.13-.45.15-.65l.8.2q-.01.06-.06.18s-.02.06-.07.23c-.04.1-.1.28-.19.53h1.14v-.53c0-.36-.02-.58-.05-.84h.9c-.03.23-.04.46-.04.83v.54h1.46c.36,0,.66-.01.95-.04v.77c-.3-.03-.59-.04-.92-.04h-1.48v1.29h1.21c.35,0,.63-.01.86-.04v.77c-.25-.03-.53-.04-.86-.04h-1.21v1.48h1.68c.4,0,.69-.01.97-.05v.8c-.33-.04-.58-.05-.95-.05h-4.29c-.37,0-.67.01-.99.05v-.8c.3.04.6.05.97.05h1.8v-1.48h-1.08c-.33,0-.61.01-.85.04v-.77c.22.03.46.04.84.04h1.09v-1.29h-1.43Z"/>
            <path class="cls-4" d="M24.72,26.1c1.7.22,3.02.54,4.65,1.11l-.3.88c-.73-.32-1.37-.53-2.48-.78-.86-.2-1.44-.31-2.2-.41l.33-.8ZM25.28,24.12c1.12.14,2.24.39,3.65.81l-.27.86c-.55-.22-1.05-.36-1.93-.56-.6-.14-1.05-.22-1.77-.31l.32-.81ZM25.38,22.19c1.35.16,2.23.34,3.79.76l-.28.86c-1.16-.38-2.59-.69-3.82-.81l.31-.81Z"/>
            <path class="cls-4" d="M31.8,23.77c.29.54.43.88.69,1.66l-.79.25c-.18-.71-.32-1.08-.64-1.7l.74-.22ZM35.82,23.82c-.04.11-.06.14-.1.36-.2.95-.52,1.72-.97,2.33-.52.71-1.1,1.16-2.14,1.69-.18-.31-.27-.41-.56-.69.49-.19.78-.34,1.19-.64.82-.6,1.29-1.31,1.59-2.43.09-.34.13-.59.13-.81l.85.2ZM33.29,23.48c.37.69.5,1,.68,1.61l-.78.25c-.13-.53-.34-1.07-.64-1.65l.74-.21Z"/>
            <path class="cls-4" d="M42.9,23.31c-.07.1-.1.17-.18.42-.32,1.06-.82,2.01-1.44,2.7-.64.74-1.41,1.28-2.49,1.78-.2-.35-.29-.47-.59-.74.7-.29,1.09-.5,1.53-.83,1-.74,1.66-1.7,2.04-2.96l-2.11.04c-.43.68-.97,1.28-1.64,1.79-.21-.29-.31-.38-.68-.6.8-.55,1.3-1.11,1.81-2.03.22-.4.33-.67.36-.92l.96.19q-.04.06-.12.22s-.02.04-.09.2t-.09.18-.11.22c.09,0,.2-.01.34-.01l1.53-.02c.27,0,.35-.01.51-.07l.45.44Z"/>
            <path class="cls-4" d="M49.4,28.03c-.58-.71-1.39-1.5-2.15-2.08-.79.88-1.6,1.5-2.67,2.02-.2-.36-.28-.48-.57-.78.54-.21.88-.4,1.4-.77,1.06-.74,1.9-1.76,2.35-2.85l.08-.18q-.11,0-2.32.04c-.34,0-.53.02-.76.06l-.03-.9c.2.04.33.04.62.04h.17l2.46-.04c.39,0,.45-.01.62-.08l.46.48c-.09.11-.15.2-.22.38-.32.75-.67,1.36-1.09,1.93.44.29.82.59,1.29,1.02q.18.15,1.02.97l-.67.73Z"/>
            <path class="cls-4" d="M51.81,23.98c.65.26,1.34.61,1.86.95l-.43.79c-.46-.36-1.25-.78-1.9-1.02l.47-.72ZM51.49,27.12c.55,0,1.28-.17,2.02-.46,1.28-.45,2.33-1.6,2.84-3.09.27.29.41.41.73.62-.87,2.12-2.35,3.27-4.86,3.76-.3.06-.36.08-.49.12l-.24-.96ZM52.34,22.29c.66.25,1.36.59,1.86.9l-.45.77c-.57-.39-1.36-.8-1.87-.96l.46-.71ZM55.99,22.15c.31.33.5.6.74,1.03l-.49.26c-.23-.43-.43-.71-.74-1.04l.49-.25ZM57.07,23c-.21-.38-.44-.71-.71-1.02l.47-.25c.32.32.51.59.73.99l-.48.27Z"/>
            <path class="cls-4" d="M62.66,27.18c.32,0,.46,0,.64-.04v.8c-.19-.02-.35-.03-.64-.03h-3.63c-.31,0-.46,0-.64.03v-.8c.2.04.32.04.64.04h2.06c.12-.62.27-1.61.34-2.25h-1.74c-.34,0-.44,0-.62.03v-.79c.18.03.37.04.64.04h1.77c.25,0,.35-.01.52-.06l.38.34q-.08.22-.16.8c-.1.77-.18,1.27-.3,1.9h.74Z"/>
            <path class="cls-4" d="M64.54,24.62c.31.04.44.05,1.13.05h3.73c.69,0,.83,0,1.13-.05v.97c-.28-.04-.36-.04-1.14-.04h-3.72c-.79,0-.86,0-1.14.04v-.97Z"/>
            <path class="cls-4" d="M76.46,28.03c-.58-.71-1.39-1.5-2.15-2.08-.79.88-1.6,1.5-2.67,2.02-.2-.36-.28-.48-.57-.78.54-.21.88-.4,1.4-.77,1.06-.74,1.9-1.76,2.35-2.85l.08-.18q-.11,0-2.32.04c-.34,0-.53.02-.76.06l-.03-.9c.2.04.33.04.62.04h.17l2.46-.04c.39,0,.45-.01.62-.08l.46.48c-.09.11-.15.2-.22.38-.32.75-.67,1.36-1.09,1.93.44.29.82.59,1.29,1.02q.18.15,1.02.97l-.67.73Z"/>
            <path class="cls-4" d="M80.19,28.42c-.39-.56-.57-.87-.76-1.38-.25-.64-.37-1.26-.37-1.93s.11-1.24.36-1.87c.2-.51.37-.82.77-1.38h.98c-.49.62-.69.93-.89,1.39-.25.57-.37,1.17-.37,1.86s.12,1.34.37,1.92c.2.46.39.77.89,1.39h-.98Z"/>
            <path class="cls-4" d="M86.48,22.51c-.08.13-.11.19-.24.5-.44,1.04-.71,1.58-.99,1.98.59.5.95.84,1.56,1.49l-.67.72c-.36-.48-.78-.91-1.42-1.48-.3.4-.66.79-1.09,1.17-.5.44-.95.76-1.67,1.16-.19-.34-.3-.46-.62-.73.78-.38,1.26-.71,1.81-1.21.34-.3.62-.6.89-.95-.56-.46-1.23-.92-1.86-1.26l.62-.62c.51.3.81.5,1.16.74q.53.38.58.41c.45-.74.9-1.75.99-2.26l.95.33Z"/>
            <path class="cls-4" d="M88.64,27.39v.49h-.9c.02-.17.03-.34.03-.6v-4.01c0-.27,0-.4-.03-.59.17.01.32.02.6.02h3.98c.3,0,.43,0,.59-.02-.01.18-.02.32-.02.58v4.01c0,.26,0,.45.03.61h-.9v-.48h-3.36ZM92,23.49h-3.36v3.1h3.36v-3.1Z"/>
            <path class="cls-4" d="M93.73,26.95c.6-.04,1.44-.24,2.07-.52.88-.38,1.53-.92,2.08-1.72.31-.45.5-.83.71-1.4.27.33.38.43.74.69-.6,1.28-1.26,2.11-2.22,2.75-.71.48-1.58.82-2.67,1.05-.28.06-.3.06-.46.12l-.26-.97ZM94.32,22.6c.83.52,1.27.84,1.81,1.35l-.6.76c-.56-.59-1.13-1.06-1.79-1.42l.58-.69Z"/>
            <path class="cls-4" d="M101.91,25.13c0,.46-.37.83-.83.83s-.83-.37-.83-.83.37-.83.83-.83.83.37.83.83Z"/>
            <path class="cls-4" d="M108.24,23.44c-.06.09-.1.17-.18.42-.41,1.25-.75,1.87-1.41,2.65-.62.71-1.48,1.33-2.49,1.77-.18-.33-.31-.48-.6-.74,1.84-.7,3.02-1.95,3.58-3.78l-2.11.03c-.39.64-1.06,1.37-1.64,1.8-.21-.29-.31-.38-.68-.6.76-.5,1.32-1.13,1.81-2.03.21-.38.34-.71.36-.93l.96.2c-.05.06-.06.08-.12.21-.06.13-.12.27-.19.41-.04.06-.04.07-.05.1l-.06.1c.08,0,.2-.01.34-.01l1.53-.02c.19,0,.31,0,.36-.01-.16-.35-.29-.57-.51-.88l.52-.18c.27.37.43.64.62,1.11l-.3.11.24.27ZM108.69,22.94c-.17-.41-.37-.77-.6-1.09l.51-.17c.29.37.45.65.62,1.06l-.52.2Z"/>
            <path class="cls-4" d="M110.87,22.29c-.03.19-.04.36-.04.71l-.04,4c.73-.14,1.39-.41,1.91-.77.64-.44,1.08-.92,1.43-1.6.27.36.37.46.67.71-.48.74-.93,1.21-1.56,1.63-.7.47-1.41.74-2.55.96-.19.04-.27.06-.42.12l-.45-.54c.05-.19.06-.32.06-.72l.03-3.78q0-.49-.04-.72h.99Z"/>
            <path class="cls-4" d="M115.37,24.62c.31.04.44.05,1.13.05h3.73c.69,0,.83,0,1.13-.05v.97c-.28-.04-.36-.04-1.14-.04h-3.72c-.79,0-.86,0-1.14.04v-.97Z"/>
            <path class="cls-4" d="M125.39,22.7c.21,0,.29,0,.41-.01,0-.46.36-.81.81-.81s.81.36.81.8-.37.81-.81.81c-.04,0-.08,0-.13-.01-.57,2.29-1.81,3.72-4.02,4.64-.18-.36-.3-.53-.62-.83,1.94-.6,3.21-1.91,3.66-3.77h-3.33c-.52,0-.65,0-.88.04v-.91c.25.04.42.05.9.05h3.21ZM126.15,22.68c0,.25.2.46.46.46s.46-.21.46-.46-.2-.46-.46-.46-.46.2-.46.46Z"/>
            <path class="cls-4" d="M133.16,23.07c-.06.12-.08.17-.12.32-.35,1.34-.76,2.18-1.44,2.93-.69.77-1.44,1.28-2.61,1.79-.2-.38-.29-.51-.62-.83.62-.2,1.01-.38,1.53-.71,1.09-.71,1.78-1.7,2.12-3.05h-3.33c-.47,0-.63,0-.88.04v-.91c.27.04.42.05.9.05h3.21c.39,0,.53-.01.75-.07l.48.46Z"/>
            <path class="cls-4" d="M135.31,22.37q-.03.2-.07,1.57c-.05,1.37-.2,2.16-.57,2.88-.24.48-.5.84-.97,1.3-.27-.35-.38-.46-.71-.68.34-.28.51-.47.72-.81.5-.81.67-1.71.67-3.67,0-.38,0-.45-.03-.64l.95.05ZM137.16,22.28c-.03.2-.04.32-.05.67l-.04,3.99c.49-.23.77-.44,1.07-.8.32-.38.53-.76.69-1.28.24.31.34.41.66.66-.29.69-.65,1.22-1.12,1.63-.4.34-.76.55-1.49.84-.15.06-.21.08-.3.13l-.45-.48c.05-.2.06-.36.06-.74l.04-3.95v-.21c0-.18,0-.33-.03-.46h.95Z"/>
            <path class="cls-4" d="M139.81,24.62c.31.04.44.05,1.13.05h3.73c.69,0,.83,0,1.13-.05v.97c-.28-.04-.36-.04-1.14-.04h-3.72c-.79,0-.86,0-1.14.04v-.97Z"/>
            <path class="cls-4" d="M146.85,22.76c.36.64.59,1.18.85,2.06l-.86.27c-.2-.78-.47-1.51-.8-2.09l.81-.24ZM151.83,22.79c-.06.15-.08.2-.17.68-.5,2.25-1.61,3.66-3.71,4.68-.19-.34-.28-.46-.62-.79.78-.29,1.4-.67,1.97-1.22.57-.53.94-1.12,1.23-1.93.22-.6.34-1.18.35-1.65l.96.22ZM148.68,22.42c.34.57.6,1.2.84,1.98l-.85.27c-.2-.78-.41-1.32-.79-2.03l.8-.22Z"/>
            <path class="cls-4" d="M152.08,28.42c.5-.62.69-.93.89-1.39.25-.58.37-1.21.37-1.92s-.11-1.28-.36-1.86c-.2-.46-.41-.78-.9-1.39h.99c.39.55.56.86.76,1.38.25.64.36,1.21.36,1.87s-.12,1.29-.37,1.93c-.2.51-.37.82-.76,1.38h-.99Z"/>
            <path class="cls-4" d="M46.81,31.94c-.06.09-.1.17-.18.42-.41,1.25-.75,1.87-1.41,2.65-.62.71-1.48,1.33-2.49,1.77-.18-.33-.31-.48-.6-.74,1.84-.7,3.02-1.95,3.58-3.78l-2.11.03c-.39.64-1.06,1.37-1.64,1.8-.21-.29-.31-.38-.68-.6.76-.5,1.32-1.13,1.81-2.03.21-.38.34-.71.36-.93l.96.2c-.05.06-.06.08-.12.21-.06.13-.12.27-.19.41-.04.06-.04.07-.05.1l-.06.1c.08,0,.2-.01.34-.01l1.53-.02c.19,0,.31,0,.36-.01-.16-.35-.29-.57-.51-.88l.52-.18c.27.37.43.64.62,1.11l-.3.11.24.27ZM47.26,31.44c-.17-.41-.37-.77-.6-1.09l.51-.17c.29.37.45.65.62,1.06l-.52.2Z"/>
            <path class="cls-4" d="M50.28,30.79c-.03.19-.04.36-.04.71l-.04,4c.73-.14,1.39-.41,1.91-.77.64-.44,1.08-.92,1.43-1.6.27.36.37.46.67.71-.48.74-.93,1.21-1.56,1.63-.7.47-1.41.74-2.55.96-.19.04-.27.06-.42.12l-.45-.54c.05-.19.06-.32.06-.72l.03-3.78q0-.49-.04-.72h.99Z"/>
            <path class="cls-4" d="M55.62,33.12c.31.04.44.05,1.13.05h3.73c.69,0,.83,0,1.13-.05v.97c-.28-.04-.36-.04-1.14-.04h-3.72c-.79,0-.86,0-1.14.04v-.97Z"/>
            <path class="cls-4" d="M66.48,31.2c.21,0,.29,0,.41-.01,0-.46.36-.81.81-.81s.81.36.81.8-.37.81-.81.81c-.04,0-.08,0-.13-.01-.57,2.29-1.81,3.72-4.02,4.64-.18-.36-.3-.53-.62-.83,1.94-.6,3.21-1.91,3.66-3.77h-3.33c-.52,0-.65,0-.88.04v-.91c.25.04.42.05.9.05h3.21ZM67.24,31.18c0,.25.2.46.46.46s.46-.21.46-.46-.2-.46-.46-.46-.46.2-.46.46Z"/>
            <path class="cls-4" d="M75.09,31.57c-.06.12-.08.17-.12.32-.35,1.34-.76,2.18-1.44,2.93-.69.77-1.44,1.28-2.61,1.79-.2-.38-.29-.51-.62-.83.62-.2,1.01-.38,1.53-.71,1.09-.71,1.78-1.7,2.12-3.05h-3.33c-.47,0-.63,0-.88.04v-.91c.27.04.42.05.9.05h3.21c.39,0,.53-.01.75-.07l.48.46Z"/>
            <path class="cls-4" d="M78.08,30.87q-.03.2-.07,1.57c-.05,1.37-.2,2.16-.57,2.88-.24.48-.5.84-.97,1.3-.27-.35-.38-.46-.71-.68.34-.28.51-.47.72-.81.5-.81.67-1.71.67-3.67,0-.38,0-.45-.03-.64l.95.05ZM79.93,30.78c-.03.2-.04.32-.05.67l-.04,3.99c.49-.23.77-.44,1.07-.8.32-.38.53-.76.69-1.28.24.31.34.41.66.66-.29.69-.65,1.22-1.12,1.63-.4.34-.76.55-1.49.84-.15.06-.21.08-.3.13l-.45-.48c.05-.2.06-.36.06-.74l.04-3.95v-.21c0-.18,0-.33-.03-.46h.95Z"/>
            <path class="cls-4" d="M83.42,33.12c.31.04.44.05,1.13.05h3.73c.69,0,.83,0,1.13-.05v.97c-.28-.04-.36-.04-1.14-.04h-3.72c-.79,0-.86,0-1.14.04v-.97Z"/>
            <path class="cls-4" d="M91.3,31.26c.36.64.59,1.18.85,2.06l-.86.27c-.2-.78-.47-1.51-.8-2.09l.81-.24ZM96.28,31.29c-.06.15-.08.2-.17.68-.5,2.25-1.61,3.66-3.71,4.68-.19-.34-.28-.46-.62-.79.78-.29,1.4-.67,1.97-1.22.57-.53.94-1.12,1.23-1.93.22-.6.34-1.18.35-1.65l.96.22ZM93.13,30.92c.34.57.6,1.2.84,1.98l-.85.27c-.2-.78-.41-1.32-.79-2.03l.8-.22Z"/>
            <path class="cls-4" d="M98.74,32.48c-.29.6-.57,1.02-.95,1.47-.18-.27-.34-.43-.57-.59.53-.53.95-1.27,1.18-2.04.09-.3.13-.45.15-.65l.8.2q-.01.06-.06.18s-.02.06-.07.23c-.04.1-.1.28-.19.53h1.14v-.53c0-.36-.02-.58-.05-.84h.9c-.03.23-.04.46-.04.83v.54h1.46c.36,0,.66-.01.95-.04v.77c-.3-.03-.59-.04-.92-.04h-1.48v1.29h1.21c.35,0,.63-.01.86-.04v.77c-.25-.03-.53-.04-.86-.04h-1.21v1.48h1.68c.4,0,.69-.01.97-.05v.8c-.33-.04-.58-.05-.95-.05h-4.29c-.37,0-.67.01-.99.05v-.8c.3.04.6.05.97.05h1.8v-1.48h-1.08c-.33,0-.61.01-.85.04v-.77c.22.03.46.04.84.04h1.09v-1.29h-1.43Z"/>
            <path class="cls-4" d="M105.28,32.48c.65.26,1.34.61,1.86.95l-.43.79c-.46-.36-1.25-.78-1.9-1.02l.47-.72ZM104.96,35.62c.55,0,1.28-.17,2.02-.46,1.28-.45,2.33-1.6,2.84-3.09.27.29.41.41.73.62-.87,2.12-2.35,3.27-4.86,3.76-.3.06-.36.08-.49.12l-.24-.96ZM105.82,30.79c.66.25,1.36.59,1.86.9l-.45.77c-.57-.39-1.36-.8-1.87-.96l.46-.71ZM109.46,30.65c.31.33.5.6.74,1.03l-.49.26c-.23-.43-.43-.71-.74-1.04l.49-.25ZM110.55,31.5c-.21-.38-.44-.71-.71-1.02l.47-.25c.32.32.51.59.73.99l-.48.27Z"/>
            <path class="cls-4" d="M116.13,35.68c.32,0,.46,0,.64-.04v.8c-.19-.02-.35-.03-.64-.03h-3.63c-.31,0-.46,0-.64.03v-.8c.2.04.32.04.64.04h2.06c.12-.62.27-1.61.34-2.25h-1.74c-.34,0-.44,0-.62.03v-.79c.18.03.37.04.64.04h1.77c.25,0,.35-.01.52-.06l.38.34q-.08.22-.16.8c-.1.77-.18,1.27-.3,1.9h.74Z"/>
            <path class="cls-4" d="M118.01,33.12c.31.04.44.05,1.13.05h3.73c.69,0,.83,0,1.13-.05v.97c-.28-.04-.36-.04-1.14-.04h-3.72c-.79,0-.86,0-1.14.04v-.97Z"/>
            <path class="cls-4" d="M129.93,36.53c-.58-.71-1.39-1.5-2.15-2.08-.79.88-1.6,1.5-2.67,2.02-.2-.36-.28-.48-.57-.78.54-.21.88-.4,1.4-.77,1.06-.74,1.9-1.76,2.35-2.85l.08-.18q-.11,0-2.32.04c-.34,0-.53.02-.76.06l-.03-.9c.2.04.33.04.62.04h.17l2.46-.04c.39,0,.45-.01.62-.08l.46.48c-.09.11-.15.2-.22.38-.32.75-.67,1.36-1.09,1.93.44.29.82.59,1.29,1.02q.18.15,1.02.97l-.67.73Z"/>
          </g>
        </g>
      </g>
    </g>
  </g>
</svg>