<?xml version="1.0" encoding="UTF-8"?>
<svg xmlns="http://www.w3.org/2000/svg" viewBox="0 0 167.6 45.04">
  <defs>
    <style>
      .cls-1 {
        mix-blend-mode: multiply;
      }

      .cls-1, .cls-2 {
        fill: #ef8586;
      }

      .cls-3 {
        isolation: isolate;
      }

      .cls-4 {
        fill: #231815;
      }

      .cls-5 {
        fill: #fff;
      }
    </style>
  </defs>
  <g class="cls-3">
    <g id="_レイヤー_2" data-name="レイヤー_2">
      <g id="_テキスト_xFF08_B_xFF09_" data-name="テキスト_xFF08_B_xFF09_">
        <g>
          <rect class="cls-2" width="167.6" height="17.49"/>
          <rect class="cls-1" y=".05" width="8.29" height="17.49"/>
          <g>
            <path class="cls-4" d="M37.85,22.97c-.02.13-.02.14-.03.57-.03,1.2-.22,1.87-.69,2.48-.42.54-.93.9-1.81,1.26-.18-.38-.27-.5-.55-.8.57-.17.88-.32,1.22-.59.71-.57.94-1.17.94-2.49,0-.21,0-.27-.04-.42h.95ZM40.69,22.09c-.1.12-.1.13-.28.49-.25.52-.65,1.04-1.08,1.41-.28.25-.51.4-.84.58-.21-.29-.31-.4-.63-.64.47-.21.73-.37,1.02-.64.29-.27.5-.55.67-.89h-3.68c-.49,0-.66,0-.95.04v-.88c.27.04.48.06.96.06h3.66c.42,0,.48,0,.68-.06l.47.53Z"/>
            <path class="cls-4" d="M42.77,22.89c.29.54.43.88.69,1.66l-.79.25c-.18-.71-.32-1.08-.64-1.7l.74-.22ZM46.79,22.93c-.04.11-.05.14-.1.36-.2.95-.52,1.72-.97,2.33-.52.71-1.1,1.16-2.14,1.69-.18-.31-.27-.41-.56-.69.49-.19.78-.34,1.19-.64.82-.6,1.29-1.31,1.59-2.43.09-.34.13-.59.13-.81l.85.2ZM44.26,22.6c.37.69.5,1,.68,1.61l-.78.25c-.13-.53-.34-1.07-.64-1.65l.74-.21Z"/>
            <path class="cls-4" d="M52.59,21.82c.21,0,.29,0,.41-.01,0-.46.36-.81.81-.81s.81.36.81.8-.37.81-.81.81c-.04,0-.08,0-.13-.01-.57,2.29-1.81,3.72-4.02,4.64-.18-.36-.3-.53-.62-.83,1.94-.6,3.21-1.91,3.66-3.77h-3.33c-.52,0-.65,0-.88.04v-.91c.25.04.42.05.9.05h3.21ZM53.35,21.8c0,.25.2.46.46.46s.46-.21.46-.46-.2-.46-.46-.46-.46.2-.46.46Z"/>
            <path class="cls-4" d="M57.22,21.49q-.03.2-.07,1.57c-.05,1.37-.2,2.16-.57,2.88-.24.48-.5.84-.97,1.3-.27-.35-.38-.46-.71-.68.34-.28.51-.47.72-.81.5-.81.67-1.71.67-3.67,0-.38,0-.45-.03-.64l.95.05ZM59.08,21.4c-.03.2-.04.32-.05.67l-.04,3.99c.49-.23.77-.44,1.07-.8.32-.38.53-.76.69-1.28.24.31.34.41.66.66-.29.69-.65,1.22-1.12,1.63-.4.34-.76.55-1.49.84-.15.06-.21.08-.3.13l-.45-.48c.05-.2.06-.36.06-.74l.04-3.95v-.21c0-.18,0-.33-.03-.46h.95Z"/>
            <path class="cls-4" d="M64.59,21.84c-.02.08-.03.08-.04.14v.12s-.05.2-.05.2l-.02.17c-.29,2.01-.84,3.39-1.78,4.47-.33-.32-.46-.42-.8-.6.42-.42.71-.85,1-1.49.3-.65.55-1.52.66-2.4.04-.29.06-.53.06-.68v-.1l.96.17ZM66.58,21.67c0,.32.13,1.01.29,1.61.34,1.29.83,2.24,1.56,3.03-.36.22-.51.34-.77.64-.93-1.11-1.58-2.72-1.86-4.61-.04-.29-.06-.4-.1-.5l.87-.17ZM68.57,22.08c0,.45-.37.81-.81.81s-.81-.36-.81-.81.37-.81.81-.81.81.36.81.81ZM67.3,22.08c0,.25.2.46.46.46s.46-.21.46-.46-.2-.46-.46-.46-.46.2-.46.46Z"/>
            <path class="cls-4" d="M74.77,21.79c-.12.11-.15.13-.26.25-.53.55-1.05,1-1.65,1.44v2.99c0,.38,0,.59.04.78h-.98c.04-.2.04-.34.04-.76v-2.46c-.82.49-1.21.67-2.5,1.13-.15-.36-.22-.48-.47-.8,1.39-.38,2.56-.96,3.68-1.82.62-.48,1.1-.97,1.3-1.31l.8.56Z"/>
            <path class="cls-4" d="M81.5,20.96l-5.31,6.58h-1.03l5.3-6.58h1.04Z"/>
            <path class="cls-4" d="M84.11,21.84c-.02.08-.03.08-.04.14v.12s-.05.2-.05.2l-.02.17c-.29,2.01-.84,3.39-1.78,4.47-.33-.32-.46-.42-.8-.6.42-.42.71-.85,1-1.49.3-.65.55-1.52.66-2.4.04-.29.06-.53.06-.68v-.1l.96.17ZM86.1,21.67c0,.32.13,1.01.29,1.61.34,1.29.83,2.24,1.56,3.03-.36.22-.51.34-.77.64-.93-1.11-1.58-2.72-1.86-4.61-.04-.29-.06-.4-.1-.5l.87-.17ZM88.09,22.08c0,.45-.37.81-.81.81s-.81-.36-.81-.81.37-.81.81-.81.81.36.81.81ZM86.82,22.08c0,.25.2.46.46.46s.46-.21.46-.46-.2-.46-.46-.46-.46.2-.46.46Z"/>
            <path class="cls-4" d="M89.32,26.07c.6-.04,1.44-.24,2.07-.52.88-.38,1.53-.92,2.08-1.72.31-.45.5-.83.71-1.4.27.33.38.43.74.69-.6,1.28-1.26,2.11-2.22,2.75-.71.48-1.58.82-2.67,1.05-.28.06-.3.06-.46.12l-.26-.97ZM89.92,21.72c.83.52,1.27.84,1.81,1.35l-.6.76c-.56-.59-1.13-1.06-1.79-1.42l.58-.69Z"/>
            <path class="cls-4" d="M100.35,21.82c.21,0,.29,0,.41-.01,0-.46.36-.81.81-.81s.81.36.81.8-.37.81-.81.81c-.04,0-.08,0-.13-.01-.57,2.29-1.81,3.72-4.02,4.64-.18-.36-.3-.53-.62-.83,1.94-.6,3.21-1.91,3.66-3.77h-3.33c-.52,0-.65,0-.88.04v-.91c.25.04.42.05.9.05h3.21ZM101.11,21.8c0,.25.2.46.46.46s.46-.21.46-.46-.2-.46-.46-.46-.46.2-.46.46Z"/>
            <path class="cls-4" d="M105.22,21.98c-.06-.34-.09-.46-.17-.66l.92-.15c0,.18.04.38.08.66l.11.61,1.48-.23c.34-.06.49-.09.67-.15l.15.84q-.19.01-.67.09l-1.48.23.21,1.15,1.64-.26c.29-.05.54-.11.73-.16l.15.84c-.15,0-.17,0-.32.04-.04,0-.08,0-.11.01-.05,0-.14.02-.28.04l-1.67.27.25,1.36c.08.46.09.48.17.72l-.94.17c0-.21-.04-.41-.09-.74l-.25-1.38-1.73.27c-.34.06-.46.08-.71.15l-.14-.86c.24,0,.44-.02.74-.07l1.7-.27-.21-1.15-1.3.2c-.32.06-.58.11-.77.16l-.14-.86c.25,0,.48-.04.77-.08l1.3-.2-.11-.59Z"/>
            <path class="cls-4" d="M110.23,26.07c.6-.04,1.44-.24,2.07-.52.88-.38,1.53-.92,2.08-1.72.31-.45.5-.83.71-1.4.27.33.38.43.74.69-.6,1.28-1.26,2.11-2.22,2.75-.71.48-1.58.82-2.67,1.05-.28.06-.3.06-.46.12l-.26-.97ZM110.82,21.72c.83.52,1.27.84,1.81,1.35l-.6.76c-.56-.59-1.13-1.06-1.79-1.42l.58-.69Z"/>
            <path class="cls-4" d="M118.96,21.84c-.02.08-.03.08-.04.14v.12s-.05.2-.05.2l-.02.17c-.29,2.01-.84,3.39-1.78,4.47-.33-.32-.46-.42-.8-.6.42-.42.71-.85,1-1.49.3-.65.55-1.52.66-2.4.04-.29.06-.53.06-.68v-.1l.96.17ZM120.95,21.67c0,.32.13,1.01.29,1.61.34,1.29.83,2.24,1.56,3.03-.36.22-.51.34-.77.64-.93-1.11-1.58-2.72-1.86-4.61-.04-.29-.06-.4-.1-.5l.87-.17ZM122.94,22.08c0,.45-.37.81-.81.81s-.81-.36-.81-.81.37-.81.81-.81.81.36.81.81ZM121.67,22.08c0,.25.2.46.46.46s.46-.21.46-.46-.2-.46-.46-.46-.46.2-.46.46Z"/>
            <path class="cls-4" d="M129.14,21.79c-.12.11-.15.13-.26.25-.53.55-1.05,1-1.65,1.44v2.99c0,.38,0,.59.04.78h-.98c.04-.2.04-.34.04-.76v-2.46c-.82.49-1.21.67-2.5,1.13-.15-.36-.22-.48-.47-.8,1.39-.38,2.56-.96,3.68-1.82.62-.48,1.1-.97,1.3-1.31l.8.56Z"/>
            <path class="cls-4" d="M48.36,33.92c-.05.04-.14.12-.4.35-.18.16-.41.32-.67.48.59.31,1.17.5,1.83.62-.17.27-.25.46-.37.81-1.05-.27-1.83-.64-2.52-1.22-.5-.43-.78-.79-1.07-1.39h-.61v1.59c.61-.13.92-.22,1.41-.38v.7c-.75.25-1.49.43-2.73.67-.17.04-.19.04-.32.07l-.15-.78c.22,0,.53-.04.99-.13v-1.74h-.38c-.29,0-.48,0-.71.04v-.76c.15.03.41.04.73.04h.36v-2.21c0-.38,0-.5-.03-.69.21.03.42.04.76.04h3.14c.41,0,.6,0,.81-.04v.74c-.22-.03-.38-.04-.8-.04h-3.07v.35h2.97c.28,0,.5-.01.64-.04v.64c-.14-.02-.47-.04-.64-.04h-2.97v.34h2.97c.28,0,.51-.01.64-.04v.64c-.2-.03-.36-.04-.64-.04h-2.97v.37h3.73c.31,0,.5-.01.69-.04v.76c-.18-.03-.38-.04-.63-.04h-.66l.66.34ZM45.95,33.58c.2.36.38.55.73.81.35-.24.74-.58.94-.81h-1.67Z"/>
            <path class="cls-4" d="M53.7,31.17c.34.52.68.9,1.22,1.32.54.43,1.04.71,1.74.97-.15.22-.29.5-.38.74-.4-.18-.53-.25-.87-.46v1.73c0,.33.01.54.04.76h-.82v-.34h-2.63v.34h-.81c.03-.22.04-.46.04-.76v-1.71c-.29.17-.44.26-.83.45-.12-.3-.2-.46-.38-.71.65-.26,1.16-.55,1.66-.94.53-.42.89-.83,1.22-1.39h.81ZM52.85,30.23c-.32.44-.56.69-1.02,1.05-.33.27-.48.35-1.15.71-.15-.26-.28-.42-.49-.63.55-.27.94-.48,1.26-.74.37-.29.57-.53.76-.85l.63.46ZM54.72,33.27c-.57-.43-1.03-.9-1.41-1.44-.36.53-.85,1.02-1.39,1.44h2.8ZM52,35.19h2.63v-1.24h-2.63v1.24ZM54.39,29.75c.34.45.6.69,1.08,1.02.26.17.47.29,1.01.53-.18.22-.32.46-.44.7-1.05-.59-1.51-.96-2.24-1.8l.6-.46Z"/>
            <path class="cls-4" d="M58.89,32.17c0,1.31-.11,2.11-.38,2.79-.2.5-.39.85-.68,1.24-.2-.27-.37-.43-.65-.66.29-.38.44-.62.59-1.04.12-.3.2-.62.24-.97.03-.27.08-1.1.08-1.41v-1.51c0-.29-.01-.5-.05-.74h.9c-.04.18-.04.35-.04.76v1.55ZM61.12,30.18c-.03.25-.04.45-.04.81v3.59c0,.42.01.67.04.9h-.9c.03-.24.04-.48.04-.89v-3.59c0-.38-.01-.59-.04-.81h.9ZM63.35,29.86c-.04.23-.05.43-.05.83v4.54c0,.46.01.69.05.94h-.9c.03-.24.04-.5.04-.94v-4.54c0-.39,0-.59-.04-.83h.9Z"/>
            <path class="cls-4" d="M66.84,30.63c.15-.31.25-.6.32-.92l.88.08c-.13.34-.23.57-.36.84h1.62c.41,0,.6,0,.86-.03-.03.24-.04.43-.04.86v3.92c0,.41,0,.59.04.81h-.8v-.36h-3.46v.36h-.79c.03-.17.04-.48.04-.81v-3.92c0-.42,0-.62-.04-.86.25.03.45.03.86.03h.85ZM65.92,32.14h3.46v-.79h-3.46v.79ZM65.92,33.61h3.46v-.8h-3.46v.8ZM65.92,35.13h3.46v-.85h-3.46v.85Z"/>
            <path class="cls-4" d="M72.76,32.04c.2.15.39.32.57.51.13-.15.19-.23.31-.41-.17-.17-.34-.3-.6-.49l.34-.46c.23.15.37.25.57.43.11-.22.16-.36.27-.71h-.92c-.33.62-.79,1.18-1.28,1.57-.16-.23-.29-.37-.5-.54.55-.38.93-.83,1.22-1.45.14-.29.2-.48.24-.74l.77.1c-.03.06-.04.08-.06.14q-.02.06-.06.15s0,.01-.05.13h.56c.22,0,.37,0,.5-.03l.38.38q-.04.11-.08.27c-.03.07-.06.17-.12.34.17.01.34.02.57.02h.22c.02-.29.02-.44.02-.72,0-.39,0-.5-.04-.7h.81c-.03.17-.03.25-.03.62,0,.23-.01.46-.04.81h.83c.3,0,.53-.01.74-.04v.76c-.22-.03-.43-.04-.74-.04h-.77c.18.45.4.77.77,1.12.31.29.53.43.94.63-.18.24-.26.39-.39.74-.82-.48-1.39-1.09-1.69-1.81-.15.37-.36.74-.58.99-.24.27-.56.51-1.04.78-.11-.23-.23-.39-.46-.62.52-.24.8-.45,1.09-.8.21-.27.37-.61.48-1.02h-.12c-.34,0-.44,0-.68.04v-.41c-.27.73-.6,1.23-1.12,1.77-.2.21-.52.46-.83.68-.18.12-.34.2-.73.41-.11-.26-.22-.43-.46-.65.62-.27.9-.44,1.32-.79-.15-.18-.37-.4-.55-.53l.43-.43ZM71.61,35.8c.46-.48.7-.86.95-1.5l.65.31c-.3.79-.5,1.13-.96,1.7l-.64-.51ZM73.76,36.22c-.01-.71-.05-1.14-.15-1.67l.69-.08c.12.6.17.92.22,1.67l-.76.08ZM75.4,36.17c-.09-.63-.2-1.06-.41-1.6l.67-.15c.24.58.36.95.5,1.59l-.76.16ZM77.34,36.24c-.35-.74-.55-1.08-.99-1.62l.57-.36c.54.67.76.99,1.09,1.59l-.68.39ZM77.07,29.88c.25.29.48.58.64.87l-.57.36c-.21-.41-.32-.57-.62-.92l.55-.32Z"/>
            <path class="cls-4" d="M85.51,31.65c-.16-.02-.29-.03-.58-.03-.13,1.15-.37,1.91-.84,2.65.49.52.93.83,1.62,1.16-.27.3-.4.49-.53.77-.84-.55-1.18-.83-1.58-1.28-.5.55-1.04.94-1.81,1.32-.11-.29-.22-.46-.46-.73.78-.32,1.3-.67,1.78-1.22-.34-.53-.6-1.07-.77-1.65-.14.2-.22.31-.43.56-.05-.08-.06-.11-.11-.17v.65c-.29.11-.53.19-.69.25v1.51c0,.29.01.6.05.82h-.83c.03-.22.05-.55.05-.82v-1.27c-.62.19-1.01.3-1.14.35l-.15-.84c.31-.02.54-.06,1.29-.27v-1.53h-.42c-.08.55-.12.71-.25,1.16-.22-.17-.41-.28-.66-.38.14-.37.2-.59.27-1.02.06-.39.09-.8.09-1.03,0-.09,0-.13-.02-.25l.73.07q-.01.1-.05.55c0,.07,0,.08-.02.2h.33v-.8c0-.22-.01-.41-.05-.6h.82c-.03.18-.04.34-.04.6v.8h.22c.22,0,.34,0,.46-.04v.78c-.12-.02-.22-.03-.43-.03h-.25v1.32c.22-.07.27-.08.65-.22-.15-.18-.2-.24-.35-.36.3-.32.41-.48.61-.87.34-.69.57-1.45.6-1.98l.8.15c-.03.08-.04.15-.1.34-.04.17-.08.3-.18.64h1.61c.35,0,.59-.01.74-.04v.8ZM82.89,31.62c-.03.06-.04.09-.08.17.15.67.4,1.27.77,1.83.34-.62.5-1.16.59-2h-1.28Z"/>
            <path class="cls-4" d="M89.4,34.08c-.29.26-.45.36-.86.6-.08-.15-.12-.2-.27-.37-.4.25-.74.43-1.39.74,0,0-.04.03-.09.06-.01,0-.04.01-.07.04l-.17-.82c.19-.04.44-.13.79-.28v-1.86h-.2c-.2,0-.37,0-.55.04v-.75c.16.03.32.04.55.04h.2v-.87c0-.36-.01-.57-.04-.78h.81c-.04.22-.04.41-.04.78v.86h.12c.23,0,.37,0,.5-.03v.74c-.17-.02-.3-.03-.49-.03h-.13v1.51c.19-.1.24-.13.47-.26v.48c.38-.23.63-.44.83-.71h-.15c-.29,0-.48.01-.65.04v-.7c.16.03.34.04.66.04h3.06c.34,0,.55-.01.73-.04v.7c-.2-.02-.42-.03-.72-.03h-2.14c-.06.11-.1.16-.19.29h2.23c.34,0,.48,0,.68-.02-.01.11-.02.2-.03.41-.04.88-.14,1.59-.29,1.91-.14.32-.37.41-.98.41-.19,0-.32,0-.59-.02-.03-.26-.08-.44-.19-.64-.38.33-.67.53-1.16.77-.15-.23-.27-.35-.5-.53.62-.27.91-.44,1.28-.76.29-.25.51-.53.73-.93h-.42c-.43.65-1.03,1.13-1.94,1.53-.12-.22-.22-.34-.45-.53.8-.29,1.26-.58,1.62-1h-.54ZM89.61,32.27c-.27,0-.5,0-.64.03.02-.2.03-.4.03-.68v-1.02c0-.3,0-.42-.03-.64.22.03.38.04.71.04h2.04c.35,0,.55,0,.75-.04-.02.2-.03.34-.03.69v.97c0,.31,0,.51.03.67-.15-.01-.36-.02-.64-.02h-2.21ZM89.71,30.91h1.98v-.29h-1.98v.29ZM89.71,31.71h1.98v-.29h-1.98v.29ZM91.85,34.08c-.27.6-.55.97-.98,1.37.29.04.52.06.72.06.26,0,.34-.07.4-.37.05-.25.08-.55.12-1.06h-.26Z"/>
            <path class="cls-4" d="M96.96,34.03c-.4.9-.85,1.32-1.42,1.32-.8,0-1.37-.81-1.37-1.94,0-.77.27-1.49.77-2.04.59-.64,1.42-.98,2.41-.98,1.68,0,2.77,1.02,2.77,2.6,0,1.21-.63,2.18-1.7,2.61-.34.14-.61.21-1.1.29-.12-.37-.2-.53-.43-.82.64-.08,1.06-.2,1.39-.38.61-.34.97-1,.97-1.75,0-.67-.3-1.22-.86-1.55-.22-.13-.4-.18-.71-.21-.13,1.1-.38,2.07-.73,2.86ZM95.93,31.52c-.59.42-.95,1.14-.95,1.89,0,.57.24,1.03.55,1.03.23,0,.47-.29.72-.9.27-.63.5-1.58.58-2.37-.36.04-.62.14-.9.34Z"/>
            <path class="cls-4" d="M101.6,32.61c.32.13.52.17,1.23.27.03-.25.09-.72.12-.98-.41-.06-.53-.07-1-.17-.1-.02-.13-.03-.24-.05l.07-.77c.29.11.79.21,1.27.25.1-.59.14-.95.14-1.16,0-.02,0-.04,0-.07l.93.08c-.08.22-.1.32-.22,1.18.79-.01,1.2-.05,1.6-.15l-.03.82c-.09,0-.13.01-.28.03-.5.04-.73.06-.98.06-.07,0-.13,0-.43,0-.07.51-.09.65-.13.99.21,0,.27,0,.34,0,.5,0,1-.05,1.34-.14l-.02.81c-.07,0-.09,0-.21.02-.31.04-.72.06-1.05.06-.11,0-.17,0-.45-.01-.02.19-.04.37-.04.5,0,.34.08.56.26.72.2.17.48.26.87.26.89,0,1.4-.39,1.4-1.08,0-.41-.21-.8-.63-1.18.39-.03.54-.06.87-.18.18.2.25.31.33.44.18.31.3.71.3,1.03,0,.5-.24.98-.67,1.31-.4.31-.93.46-1.58.46-1.27,0-1.97-.61-1.97-1.74,0-.18,0-.36.04-.59-.42-.06-.69-.1-.97-.16-.15-.04-.17-.04-.27-.04l.08-.81Z"/>
            <path class="cls-4" d="M107.91,31.38c.24-.02.35-.04.82-.14,1.6-.34,1.97-.4,2.79-.4,1.39,0,2.29.78,2.29,1.97,0,.95-.56,1.76-1.55,2.24-.64.32-1.18.44-2.47.58-.09-.38-.15-.53-.36-.9,1.12-.05,1.71-.15,2.3-.41.5-.22.92-.62,1.06-1.04.05-.14.08-.31.08-.5,0-.38-.2-.72-.53-.91-.22-.13-.52-.19-.9-.19-.73,0-1.63.16-2.76.5-.36.11-.41.12-.56.2l-.2-.99Z"/>
            <path class="cls-4" d="M115.98,31.99c-.28,0-.6.01-.83.04v-.74c.19.02.44.03.84.03h1.6v-.43h-.99c-.32,0-.53,0-.76.04v-.71c.2.03.41.04.77.04h.98c0-.27,0-.35-.04-.53h.84c-.03.15-.04.27-.04.53h.53c.34,0,.55-.01.75-.04v.52c.47-.39.69-.62.85-.88l.66.43c-.52.5-.75.7-1.19,1.03h.68c.38,0,.6,0,.8-.03v.74c-.24-.03-.47-.04-.8-.04h-1.68c-.22.13-.35.2-.59.32h1.49c.36,0,.58,0,.74-.03-.02.17-.03.35-.03.64v1.13c0,.27,0,.49.02.63.48.53.6.68.89,1.13l-.68.46c-.29-.57-.52-.9-.82-1.23l.5-.33c-.15,0-.34-.01-.57-.01h-2.77c-.31,0-.53,0-.69.03.02-.18.03-.38.03-.67v-.88c-.32.13-.58.23-1.06.38-.07-.2-.2-.42-.41-.67.98-.24,1.64-.47,2.58-.91h-1.59ZM115.09,35.76c.46-.38.67-.64.9-1.1l.65.32c-.28.57-.49.86-.91,1.28l-.64-.5ZM117.19,36.24v-.22c0-.32-.04-.74-.1-1.08l.69-.07c.08.42.14.86.15,1.3l-.75.06ZM117.2,33.21h2.62v-.33h-2.62v.33ZM117.2,34.09h2.62v-.33h-2.62v.33ZM118.79,31.33c.3-.19.45-.29.62-.42-.15,0-.29-.01-.5-.01h-.56v.43h.44ZM118.83,36.24c-.11-.63-.14-.74-.34-1.27l.69-.14c.19.46.27.72.4,1.24l-.76.17Z"/>
            <path class="cls-4" d="M29.69,40.15c-.06.13-.07.18-.11.39-.12.8-.22,1.2-.44,1.69-.34.81-.9,1.43-1.73,1.93-.42.26-.78.42-1.39.63-.16-.36-.25-.48-.56-.83.66-.16,1.05-.31,1.49-.58,1.02-.63,1.55-1.52,1.68-2.81h-3.42v.9c0,.22,0,.41.02.56h-.94c.02-.17.04-.39.04-.59v-1.02c0-.29,0-.48-.03-.67.25.03.37.04.76.04h1.37v-.6c0-.22,0-.35-.04-.51h.97c-.02.12-.04.31-.04.5v.6h1.26q.52,0,.69-.06l.41.41Z"/>
            <path class="cls-4" d="M36.62,39.29c-.12.11-.15.13-.26.25-.53.55-1.05,1-1.65,1.44v2.99c0,.38,0,.59.04.78h-.98c.04-.2.04-.34.04-.76v-2.46c-.82.49-1.21.67-2.5,1.13-.15-.36-.22-.48-.47-.8,1.39-.38,2.56-.96,3.68-1.82.62-.48,1.1-.97,1.3-1.31l.8.56Z"/>
            <path class="cls-4" d="M38.06,43.57c.6-.04,1.44-.24,2.07-.52.88-.38,1.53-.92,2.08-1.72.31-.45.5-.83.71-1.4.27.33.38.43.74.69-.6,1.28-1.26,2.11-2.22,2.75-.71.48-1.58.82-2.67,1.05-.28.06-.3.06-.46.12l-.26-.97ZM38.65,39.22c.83.52,1.27.84,1.81,1.35l-.6.76c-.56-.59-1.13-1.06-1.79-1.42l.58-.69Z"/>
            <path class="cls-4" d="M49.96,40.43c.49,0,.64,0,.91-.05v.88c-.25-.03-.43-.03-.9-.03h-1.44c-.06.97-.18,1.44-.5,1.97-.38.64-.88,1.07-1.79,1.57-.24-.4-.34-.53-.64-.76.84-.36,1.37-.8,1.69-1.38.21-.38.29-.69.34-1.41h-1.74c-.46,0-.64,0-.9.03v-.88c.27.04.43.05.91.05h1.77c0-.29,0-.42,0-.55v-.41c0-.3,0-.48-.03-.67h.96c-.03.22-.03.23-.04.67v.42q-.01.46-.01.54h1.39Z"/>
            <path class="cls-4" d="M52.17,41.24c.31.04.44.05,1.13.05h3.73c.69,0,.83,0,1.13-.05v.97c-.28-.04-.36-.04-1.14-.04h-3.72c-.79,0-.86,0-1.14.04v-.97Z"/>
            <path class="cls-4" d="M61.59,39.34c-.02.08-.03.08-.04.14v.12s-.05.2-.05.2l-.02.17c-.29,2.01-.84,3.39-1.78,4.47-.33-.32-.46-.42-.8-.6.42-.42.71-.85,1-1.49.3-.65.55-1.52.66-2.4.04-.29.06-.53.06-.68v-.1l.96.17ZM63.58,39.17c0,.32.13,1.01.29,1.61.34,1.29.83,2.24,1.56,3.03-.36.22-.51.34-.77.64-.93-1.11-1.58-2.72-1.86-4.61-.04-.29-.06-.4-.1-.5l.87-.17ZM65.57,39.58c0,.45-.37.81-.81.81s-.81-.36-.81-.81.37-.81.81-.81.81.36.81.81ZM64.3,39.58c0,.25.2.46.46.46s.46-.21.46-.46-.2-.46-.46-.46-.46.2-.46.46Z"/>
            <path class="cls-4" d="M71.77,39.29c-.12.11-.15.13-.26.25-.53.55-1.05,1-1.65,1.44v2.99c0,.38,0,.59.04.78h-.98c.04-.2.04-.34.04-.76v-2.46c-.82.49-1.21.67-2.5,1.13-.15-.36-.22-.48-.47-.8,1.39-.38,2.56-.96,3.68-1.82.62-.48,1.1-.97,1.3-1.31l.8.56Z"/>
            <path class="cls-4" d="M78.5,38.46l-5.31,6.58h-1.03l5.3-6.58h1.04Z"/>
            <path class="cls-4" d="M80.96,41.45s-.02.08-.03.1c0,.01-.01.06-.03.12-.22,1.03-.66,2.04-1.18,2.72-.33-.24-.48-.32-.81-.46.54-.58,1.09-1.83,1.18-2.7l.86.21ZM84.15,39.95c.15,0,.22,0,.38,0-.34-.11-.57-.41-.57-.77,0-.44.37-.8.81-.8s.81.36.81.8c0,.34-.21.64-.53.76v.83c-.23-.03-.34-.03-.89-.03h-1.62v3.4c0,.38,0,.59.03.78h-.95c.03-.19.04-.4.04-.79v-3.39h-1.55c-.54,0-.65,0-.88.03v-.86c.25.04.38.05.9.05h1.54v-.39c0-.4-.01-.55-.04-.72h.95c-.02.19-.03.29-.03.74v.37h1.6ZM84.07,41.24c.22.91.78,2.12,1.24,2.67-.36.17-.49.26-.8.48-.51-.78-.82-1.51-1.15-2.62-.06-.19-.06-.22-.11-.32l.83-.21ZM84.32,39.17c0,.25.2.46.46.46s.46-.21.46-.46-.2-.46-.46-.46-.46.2-.46.46Z"/>
            <path class="cls-4" d="M89.91,41.56c-.04.8-.19,1.39-.49,1.88-.37.62-.88,1-1.83,1.38-.18-.36-.27-.48-.57-.77.84-.26,1.37-.63,1.66-1.17.18-.32.29-.78.31-1.32h-1.71c-.48,0-.64,0-.89.04v-.83c.27.04.42.05.9.05h4.1c.48,0,.64,0,.9-.05v.83c-.25-.03-.41-.04-.89-.04h-1.5ZM87.1,38.99c.26.04.4.05.9.05h2.69c.51,0,.64,0,.9-.05v.85c-.23-.03-.4-.04-.89-.04h-2.72c-.49,0-.66,0-.89.04v-.85Z"/>
            <path class="cls-4" d="M94.3,44.73c.04-.22.04-.41.04-.79v-4.49c0-.34-.01-.53-.04-.71h.96c-.03.21-.03.3-.03.74v1.3c.96.34,2.06.85,3.18,1.48l-.49.83c-.58-.4-1.31-.8-2.48-1.34-.16-.08-.18-.08-.24-.12.02.2.03.28.03.48v1.85c0,.37,0,.55.03.78h-.96Z"/>
            <path class="cls-4" d="M99.85,42.19c.2-.1.57-.52,1.51-1.69.24-.31.38-.46.53-.55.15-.09.31-.13.48-.13.35,0,.51.11,1.04.71.83.92,1.49,1.56,2.27,2.23.4.35.51.43.67.53l-.44.96c-1.31-1.19-1.67-1.55-2.96-2.96q-.45-.49-.57-.49c-.11,0-.14.02-.43.41-.29.39-.88,1.11-1.25,1.56-.11.13-.14.17-.24.29l-.6-.86ZM104.6,39.5c.31.33.5.6.74,1.03l-.49.26c-.23-.43-.43-.71-.74-1.04l.49-.25ZM105.69,40.35c-.21-.38-.44-.71-.71-1.02l.47-.25c.32.32.51.59.73.99l-.48.27Z"/>
            <path class="cls-4" d="M107.09,41.24c.31.04.44.05,1.13.05h3.73c.69,0,.83,0,1.13-.05v.97c-.28-.04-.36-.04-1.14-.04h-3.72c-.79,0-.86,0-1.14.04v-.97Z"/>
            <path class="cls-4" d="M115.11,44.07c-.48,0-.65,0-.86.03v-.9c.26.04.38.05.88.05h3.19v-3.05h-3.07c-.5,0-.64,0-.9.04v-.91c.26.04.39.05.9.05h3.37q.36,0,.61-.01c-.02.19-.02.26-.02.58v3.84c0,.35,0,.55.04.72h-.94v-.43h-3.19Z"/>
            <path class="cls-4" d="M120.96,43.57c.6-.04,1.44-.24,2.07-.52.88-.38,1.53-.92,2.08-1.72.31-.45.5-.83.71-1.4.27.33.38.43.74.69-.6,1.28-1.26,2.11-2.22,2.75-.71.48-1.58.82-2.67,1.05-.28.06-.3.06-.46.12l-.26-.97ZM121.56,39.22c.83.52,1.27.84,1.81,1.35l-.6.76c-.56-.59-1.13-1.06-1.79-1.42l.58-.69Z"/>
            <path class="cls-4" d="M129.7,39.34c-.02.08-.03.08-.04.14v.12s-.05.2-.05.2l-.02.17c-.29,2.01-.84,3.39-1.78,4.47-.33-.32-.46-.42-.8-.6.42-.42.71-.85,1-1.49.3-.65.55-1.52.66-2.4.04-.29.06-.53.06-.68v-.1l.96.17ZM131.68,39.17c0,.32.13,1.01.29,1.61.34,1.29.83,2.24,1.56,3.03-.36.22-.51.34-.77.64-.93-1.11-1.58-2.72-1.86-4.61-.04-.29-.06-.4-.1-.5l.87-.17ZM133.67,39.58c0,.45-.37.81-.81.81s-.81-.36-.81-.81.37-.81.81-.81.81.36.81.81ZM132.41,39.58c0,.25.2.46.46.46s.46-.21.46-.46-.2-.46-.46-.46-.46.2-.46.46Z"/>
            <path class="cls-4" d="M139.87,39.29c-.12.11-.15.13-.26.25-.53.55-1.05,1-1.65,1.44v2.99c0,.38,0,.59.04.78h-.98c.04-.2.04-.34.04-.76v-2.46c-.82.49-1.21.67-2.5,1.13-.15-.36-.22-.48-.47-.8,1.39-.38,2.56-.96,3.68-1.82.62-.48,1.1-.97,1.3-1.31l.8.56Z"/>
          </g>
          <g>
            <path class="cls-5" d="M24.23,13.47l-.79-.99c.44-.05,1.22-.17,1.84-.76.39-.37.62-.89.62-1.49,0-1.03-.78-1.36-1.08-1.49-.54,1.13-.95,1.83-1.76,2.71.08.26.1.3.21.65l-1.03.56c-.08-.16-.09-.19-.15-.4-.29.18-.88.54-1.54.54s-1.19-.53-1.19-1.4c0-.73.4-2.24,2.35-3.32.02-.42.05-.69.11-1.2-.68.03-.96.03-1.54.03l-.36-1.07c.39.04,1.26.11,2.05.08.13-.76.23-1.16.4-1.82l1.12.3c.27.08.27.13.27.16,0,.1-.13.13-.25.16-.12.27-.2.58-.33,1.06,1.41-.24,2.01-.46,2.64-.72v1.15c-1.03.3-1.71.44-2.84.57-.06.4-.08.45-.13.88.46-.09.7-.1,1.17-.09.05-.22.09-.36.13-.56l1.24.27-.17.5c1.21.41,1.94,1.21,1.94,2.48,0,2.37-2.19,2.98-2.93,3.2ZM21.7,9.25c-.97.81-1.24,1.49-1.24,1.93s.21.51.4.51c.42,0,.76-.28,1-.46-.11-.76-.14-1.22-.16-1.97ZM22.77,8.63c-.02.81.02,1.21.05,1.55.42-.64.64-1.07.88-1.67-.38-.01-.58.01-.94.12Z"/>
            <path class="cls-5" d="M31.79,12.66l-.56-1.13c.4.03.61.04.79.04.89,0,3.11-.4,3.11-2.03,0-1.15-.99-1.42-1.55-1.42-.48,0-1.55.32-2.1.5-.21.06-.92.29-1.94.66l-.53-1.13c1.03-.14,1.77-.36,2.89-.68.67-.19,1.29-.29,1.73-.29,1.34,0,2.54.72,2.54,2.44,0,2.42-2.55,2.84-4.38,3.05Z"/>
            <path class="cls-5" d="M41.97,12.67c-.96,0-2.5-.09-3.12-.68-.17-.15-.36-.39-.36-.84,0-.96.57-1.56,1.08-2.06l.99.81c-.27.23-.63.56-.63.93,0,.21.09.29.15.34.3.26,1.36.26,1.83.26,1.85,0,2.55-.13,3.36-.29l.06,1.34c-.95.09-2.11.19-3.36.19ZM42.25,8.02l-.79-.85,1.1-.93c-1.79,0-2.52-.01-3.16-.06l-.29-1.24c.96.16,1.93.25,2.91.25.79,0,1.58-.02,2.37-.13l.51.91c-.95.65-2.06,1.56-2.65,2.06Z"/>
            <path class="cls-5" d="M51.38,13.15c-1.27,0-1.83-.15-2.37-.43-.78-.41-1.1-1.16-1.1-1.84,0-1.35,1.04-2.04,2.23-2.74-.3-.32-.51-.67-.63-.97-.15-.36-.21-.67-.55-2.72l1.38-.21c.01.6.02,1.75.31,2.55.15.41.38.58.62.73,1.24-.58,1.38-.65,2.7-1.27l.4,1.31c-1.7.46-3.3,1.26-3.99,1.7-.48.3-1.28.85-1.28,1.57,0,.78.85,1.15,1.98,1.15s2.24-.21,3.33-.48v1.38c-.65.1-1.69.26-3.04.26Z"/>
            <path class="cls-5" d="M62.91,10.59c-.5-.34-1.29-.9-2.47-.9-.86,0-1.58.43-1.58,1.16,0,.83.72,1.16,1.98,1.16.73,0,1.35-.12,1.66-.18l.09,1.22c-.56.11-1.13.12-1.7.12-.62,0-2.09-.05-2.84-1.02-.11-.14-.42-.55-.42-1.26,0-1.56,1.36-2.22,2.54-2.22.4,0,.97.11,1.31.18-.4-.55-.64-.95-1.01-1.67-1.39.43-2.14.57-3.02.64l-.55-1.13c.41.02.63.02.85,0,.16-.01.94-.1,2.25-.45-.28-.65-.49-1.15-.7-1.89l1.09-.16c.08-.01.38-.08.38.06,0,.05-.14.27-.14.33,0,.03.11.46.45,1.28.79-.32,1.13-.53,1.58-.86l.54,1.02c-.36.21-.7.41-1.68.79.72,1.34,1.24,2.03,2.08,2.87l-.69.92Z"/>
            <path class="cls-5" d="M68.51,12.66l-.56-1.13c.4.03.61.04.79.04.89,0,3.11-.4,3.11-2.03,0-1.15-.99-1.42-1.55-1.42-.48,0-1.55.32-2.1.5-.21.06-.92.29-1.94.66l-.53-1.13c1.03-.14,1.77-.36,2.89-.68.67-.19,1.29-.29,1.73-.29,1.34,0,2.54.72,2.54,2.44,0,2.42-2.55,2.84-4.38,3.05Z"/>
            <path class="cls-5" d="M78.81,13.15c-1.27,0-1.83-.15-2.37-.43-.78-.41-1.1-1.16-1.1-1.84,0-1.35,1.04-2.04,2.23-2.74-.3-.32-.51-.67-.63-.97-.15-.36-.21-.67-.55-2.72l1.38-.21c.01.6.02,1.75.31,2.55.15.41.38.58.62.73,1.24-.58,1.38-.65,2.7-1.27l.4,1.31c-1.7.46-3.3,1.26-3.99,1.7-.48.3-1.28.85-1.28,1.57,0,.78.85,1.15,1.98,1.15s2.24-.21,3.33-.48v1.38c-.65.1-1.69.26-3.04.26Z"/>
            <path class="cls-5" d="M91.87,11.06c-.81,1.2-1.93,1.66-2.51,1.9l-.8-1.11c.48-.14,1.28-.37,1.94-1.15.66-.78.78-1.67.78-2.14,0-.59-.17-1.31-.78-1.88-.68-.65-1.43-.69-1.83-.72-.34,2.56-.98,4.07-1.34,4.79-.32.67-.82,1.57-1.38,1.57-.39,0-2.15-.97-2.15-2.9,0-2.39,1.97-4.57,4.75-4.57,2.24,0,4.01,1.52,4.01,3.92,0,.95-.29,1.7-.69,2.29ZM86.08,6.91c-.77.73-1.08,1.73-1.08,2.39,0,.87.5,1.32.69,1.32.56,0,1.49-2.81,1.7-4.49-.31.11-.8.27-1.31.78Z"/>
            <path class="cls-5" d="M99.67,9.57l-1-.85c.67-.61,1.39-1.35,1.96-2.33h-6.74v-1.16h7.25c.14,0,.31-.16.38-.24l.99,1c-.53.78-1.66,2.42-2.83,3.58ZM98.73,6.94s-.15.14-.16.18c-.02.02-.06.78-.09.92-.37,3.08-2.19,4.43-2.76,4.85l-1.15-.68c2.27-1.57,2.78-3.29,2.69-5.53l1.26.06c.23.01.26.01.26.1,0,.03-.02.05-.05.1Z"/>
            <path class="cls-5" d="M104.9,9.34c-.18-.61-.46-1.19-.82-1.73l.99-.38c.37.57.65,1.13.83,1.73l-1,.38ZM110.51,7.41c-.1.05-.11.1-.22.52-.81,3.31-2.98,4.57-4.02,5.17l-.86-.77c2.09-1.03,3.55-2.51,3.96-5.56l1.06.32c.14.04.21.12.21.19,0,.06-.02.08-.14.12ZM106.89,8.81c-.18-.65-.43-1.2-.76-1.75l.96-.37c.4.64.61,1.3.73,1.75l-.93.37Z"/>
            <path class="cls-5" d="M119.95,6.74c-.41,1.09-.87,2.32-1.9,3.64-1.15,1.5-2.45,2.22-3.19,2.63l-1.17-.95c.73-.33,2.26-1.04,3.58-2.82.82-1.1,1.15-2.08,1.35-2.64h-5.74v-1.25h6.1c.13,0,.25-.09.36-.17l1.07.97c-.17.15-.33.31-.44.59ZM120.67,5.51c-.55,0-1-.46-1-1.03s.44-1.02,1-1.02,1.01.46,1.01,1.02-.45,1.03-1.01,1.03ZM120.67,3.87c-.31,0-.59.26-.59.6s.29.61.59.61.59-.25.59-.61c0-.34-.27-.6-.59-.6Z"/>
            <path class="cls-5" d="M125.11,5.62c-.08.06-.08.09-.08.14,0,2.01,0,2.18-.05,2.65-.26,2.23-1.54,3.29-2.33,3.91l-1.2-.87c1.03-.6,2.3-1.52,2.3-4.2,0-1-.08-1.71-.12-2.04l1.3.09c.19.01.31.04.31.16,0,.04-.02.05-.15.16ZM127.1,12.33l-.92-.71v-6.54l1.25.15c.1.01.3.03.3.14,0,.04-.02.08-.12.16,0,.01-.13.12-.13.13v4.71c.93-.51,2.15-1.71,2.84-2.76l.73,1.09c-1.06,1.42-2.67,2.91-3.96,3.63Z"/>
            <path class="cls-5" d="M135.51,6.24s-.23.13-.26.17c-.04.04-.22.78-.26.92-.79,2.65-1.85,4.08-2.35,4.75l-1.37-.54c1.49-1.61,2.39-3.86,2.74-5.85l1.3.29s.26.06.26.17c0,.04-.03.06-.06.09ZM139.54,11.75c-.38-1.75-1.43-4.18-2.51-5.52l1.12-.64c.96,1.25,2.13,3.52,2.74,5.54l-1.35.61ZM140.24,6.65c-.55,0-1.01-.46-1.01-1.04s.45-1.03,1.01-1.03,1.02.47,1.02,1.03-.46,1.04-1.02,1.04ZM140.24,5c-.34,0-.59.29-.59.6,0,.33.27.61.59.61s.6-.27.6-.61c0-.32-.26-.6-.6-.6Z"/>
            <path class="cls-5" d="M149.17,5.44c-.16.01-.18.03-.33.19-.54.61-1.14,1.17-1.78,1.68v5.74h-1.35v-4.74c-.73.48-1.46.94-2.71,1.53l-.94-.96c2.25-.88,4.62-2.65,6.25-4.58l.94.78s.18.17.18.26c0,.08-.04.09-.26.1Z"/>
          </g>
        </g>
      </g>
    </g>
  </g>
</svg>