<svg xmlns="http://www.w3.org/2000/svg" xmlns:xlink="http://www.w3.org/1999/xlink" width="1288.73" height="667.783" viewBox="0 0 1288.73 667.783"><defs><clipPath id="a"><rect width="1288.73" height="667.783" fill="none"/></clipPath><clipPath id="c"><rect width="713.982" height="429.83" transform="translate(278.027 176.334)" fill="none"/></clipPath></defs><g clip-path="url(#a)"><path d="M80,183.045l-80,251,70,213,332.639,20.738,430.091-54,281-99,144-115,31-176-13-53-309-72L495,94.045Z" fill="#ee8485"/><g clip-path="url(#a)"><path d="M193.259,91.139c3.766-.771,5.564-1.666,7-2.951a2.969,2.969,0,0,1,1.8-.9,4.28,4.28,0,0,1,2.476.491,68.162,68.162,0,0,1,11.209,6.236,4.784,4.784,0,0,1,2.448,3.04,4.262,4.262,0,0,1-1.244,3.35,17.765,17.765,0,0,0-3.777,7.059c-6.5,21.433-13.493,37.109-21.432,49.8-10.2,16.206-25.216,33.2-38.324,43.6a4,4,0,0,1-2.213,1.114,5.211,5.211,0,0,1-3.616-1.051,38.866,38.866,0,0,0-14.952-4.423c20.67-16.282,30.671-27.364,42.406-45.17,9.4-14.724,14.471-25.741,20.139-45.84l-35.1,6.836c-9.523,16.693-15.442,26.2-22.62,34.423a4.6,4.6,0,0,1-2.8,2.108,3.55,3.55,0,0,1-2.331-.514,40.08,40.08,0,0,0-15.025-3.961c16.4-18.574,25.388-33.978,32.069-49.753,3.463-8.955,4.9-13.834,5.355-21.1,8.788,1.545,14.735,3.111,18.327,4.913a3.08,3.08,0,0,1,1.865,2.237,2.94,2.94,0,0,1-1.194,2.743c-1.314,1.114-2.069,2.887-3,4.536-1.195,2.742-2.291,5.168-3.608,8.081Z" fill="#fff"/><path d="M249.744,84.37c-1.658-10.057-3.008-15.524-5.112-21.016,6.242-.281,14.111-.68,18.578.081,1.822.146,2.694.9,2.863,1.922a6.21,6.21,0,0,1-.223,2.284c-.856,2.986-.546,6.677.68,14.111l4.854,29.443c1.25,7.578,2.479,13.214,3.467,18.292.359,2.185-.4,3.057-2.727,3.442l-11.66,1.923c-2.041.336-3.035-.248-3.178-2.021-.84-5.1-1.8-13.628-2.831-19.893Zm73.144,15.935c3.558,21.572,2.73,36.53-3.971,49.463-5.58,10.651-16.794,21.633-28.292,28.171a9.363,9.363,0,0,1-2.941,1.233A4.792,4.792,0,0,1,283.9,178a47.873,47.873,0,0,0-13.855-6.848c14.8-7.382,25.916-16.251,32.054-27.145,5.336-9.413,6.4-22.015,3.35-40.526L300.9,75.934c-2.067-12.536-3.128-17.151-5.521-23.494,7.092-.571,14.257-.7,19.477.083a2.479,2.479,0,0,1,2.448,2.14,4.679,4.679,0,0,1-.2,2.428c-.807,3.278-.182,7.068,1.307,16.1Z" fill="#fff"/><path d="M367.134,82.23c1.482-.993,2.527-1.016,3.957.395a79.1,79.1,0,0,1,16.092,19.5,9.98,9.98,0,0,1,.943,2.09c.145.875-.366,1.408-1.412,2.33a61.305,61.305,0,0,1-8.584,6.057c-1.919,1.065-2.914.48-3.979-1.44A87.36,87.36,0,0,0,356.58,89.958c4.5-3.585,7.733-5.765,10.554-7.728m28.289-11.851c1.481-.993,2.526-1.015,3.98.542a85.221,85.221,0,0,1,14.733,19.428c1.089,2.066.918,2.844-.809,4.177a61.035,61.035,0,0,1-9.312,6.176c-1.507.847-2.21.214-3.276-1.706a100.505,100.505,0,0,0-16.088-21.3c5.374-3.731,8.461-5.886,10.772-7.315m52.041.552c1.311.682,2.16,1.291,2.3,2.164s-.173,1.675-1.171,2.888c-1.873,2.256-2.413,5.34-3.147,8.155a180.169,180.169,0,0,1-15.615,42.4c-7.6,13.831-14.344,22.877-25.387,33.083a6.4,6.4,0,0,1-3.234,2.178,3.38,3.38,0,0,1-2.5-.634c-4.124-2.315-7.741-3.366-13.4-4.08,15.591-14.4,23.111-23.273,29.981-36.085,5.726-10.674,11.532-26.3,13.884-38.37a53.222,53.222,0,0,0,.8-16c6.434.885,13.426,2.428,17.478,4.306" fill="#fff"/><path d="M548.505,32.559c3.767-.771,5.564-1.666,7-2.95a2.961,2.961,0,0,1,1.8-.9,4.274,4.274,0,0,1,2.477.491,68.178,68.178,0,0,1,11.208,6.235,4.785,4.785,0,0,1,2.449,3.04,4.265,4.265,0,0,1-1.244,3.351,17.753,17.753,0,0,0-3.778,7.059c-6.495,21.433-13.492,37.108-21.431,49.8-10.2,16.205-25.217,33.2-38.325,43.6a4,4,0,0,1-2.212,1.113,5.207,5.207,0,0,1-3.616-1.051,38.906,38.906,0,0,0-14.952-4.423c20.67-16.282,30.671-27.363,42.407-45.169,9.4-14.724,14.469-25.741,20.139-45.841l-35.105,6.837c-9.524,16.693-15.441,26.2-22.62,34.422a4.591,4.591,0,0,1-2.8,2.108,3.548,3.548,0,0,1-2.33-.514,40.061,40.061,0,0,0-15.025-3.96c16.4-18.575,25.388-33.979,32.069-49.753,3.464-8.956,4.906-13.835,5.355-21.1,8.789,1.546,14.736,3.112,18.326,4.913a3.082,3.082,0,0,1,1.867,2.238,2.946,2.946,0,0,1-1.2,2.743c-1.314,1.114-2.069,2.886-2.995,4.536-1.2,2.742-2.292,5.168-3.608,8.08Z" fill="#fff"/><path d="M142.937,58.58l13.985,2.459c10.352,1.82,17.082,3.692,21.82,6.069a15.639,15.639,0,0,1,8.7,11.514q.056.34.1.679l3.381-.635a13.019,13.019,0,0,0,1.288-.311A15.592,15.592,0,0,1,200,74.77l1.024-.169,1.5-.037a17.3,17.3,0,0,1,7.256,1.662,79.868,79.868,0,0,1,13.092,7.292A16.964,16.964,0,0,1,230.712,95a16.636,16.636,0,0,1-4.048,13.572,6.455,6.455,0,0,0-1.372,2.649c-6.547,21.6-13.8,38.394-22.8,52.776-10.9,17.312-26.538,35.112-40.9,46.576a16.632,16.632,0,0,1-8.334,3.929l-1.024.169-1.6.046a18.168,18.168,0,0,1-9.738-3,26.973,26.973,0,0,0-9.677-2.6l-30.738-3.442,24.3-19.139c18.9-14.89,28.17-24.746,39.663-42.184A134.894,134.894,0,0,0,176.274,122.1l-8.082,1.574c-8.021,13.869-13.844,22.948-20.852,31.046a16.687,16.687,0,0,1-10.608,6.657l-1.03.171-1.5.037a16.374,16.374,0,0,1-8.079-2.172,27.3,27.3,0,0,0-9.325-2.351L90.114,156l17.673-20.017c13.857-15.7,22.8-29.543,29.9-46.3,3.154-8.174,4.042-11.57,4.374-16.931Z" fill="#ee8485"/><path d="M306,39.282a73.438,73.438,0,0,1,10.746.692A15.03,15.03,0,0,1,329.83,52.6a17.489,17.489,0,0,1-.407,7.65,102.989,102.989,0,0,0,1.514,10.872l4.472,27.118c4.146,25.139,2.584,42.3-5.225,57.366-6.655,12.7-19.4,25.468-33.287,33.365a21.223,21.223,0,0,1-7.139,2.721l-1.03.171-1.717.057a17.623,17.623,0,0,1-10.505-3.6,35.3,35.3,0,0,0-10.349-5.082l-29.65-9.537,27.873-13.9c13.156-6.561,22.126-13.969,26.661-22.018,3.809-6.72,4.4-16.953,1.885-32.233L288.383,78c-2.061-12.5-2.98-16.062-4.873-21.079l-5.952-15.776,16.807-1.353C298.32,39.472,302.3,39.282,306,39.282ZM255.965,50.3a58.737,58.737,0,0,1,8.9.542c7.248.824,12.6,5.647,13.73,12.434a18.042,18.042,0,0,1-.347,7.082c-.267,1.3-.181,3.338.806,9.325l4.854,29.444c.9,5.446,1.787,9.858,2.576,13.782l.826,4.151c1.558,9.449-3.863,16.859-13.117,18.387L261.5,147.543l-2.031.09a14.631,14.631,0,0,1-14.766-13.094c-.4-2.469-.823-5.64-1.266-8.967-.479-3.593-.981-7.383-1.507-10.567l-4.711-28.57c-1.485-9.005-2.647-13.857-4.441-18.541l-6.293-16.426,17.573-.791C248.4,50.48,252.366,50.3,255.965,50.3Z" fill="#ee8485"/><path d="M416.1,51.9l15.616,2.148c5.051.695,14.508,2.316,21.085,5.364,5.67,2.935,8.688,6.756,9.489,11.613.754,4.583-.556,8.961-3.893,13.016a9.2,9.2,0,0,1-.316,1.9l-.351,1.392a193.057,193.057,0,0,1-16.7,45.179c-8.626,15.7-16.187,25.534-27.965,36.42a17.632,17.632,0,0,1-9.8,5.382l-1.019.167-1.514.039a16.032,16.032,0,0,1-8.587-2.495c-2.106-1.143-4.032-1.8-8.418-2.358l-27.053-3.414,20.032-18.5c14.939-13.8,21.343-21.45,27.407-32.759q.362-.675.723-1.376a14.253,14.253,0,0,1-1.964.136,13.941,13.941,0,0,1-4.842-.849,20.106,20.106,0,0,1-2.925,3.157,74.449,74.449,0,0,1-10.49,7.445,16.38,16.38,0,0,1-8.133,2.309c-3.254,0-9.326-1.1-13.429-8.5a74.035,74.035,0,0,0-14.772-17.762l-11.568-10,11.958-9.528c4.262-3.4,7.462-5.619,10.236-7.541l.978-.679a16.062,16.062,0,0,1,9.1-2.983,14.715,14.715,0,0,1,4.944.858l4.438-3.081c5.064-3.517,8.088-5.6,10.382-7.022a15.114,15.114,0,0,1,19.929,2.674,80,80,0,0,1,8.875,10.121c0-1.349-.07-2.87-.219-4.761Z" fill="#ee8485"/><path d="M498.181,0l13.988,2.461c10.354,1.821,17.082,3.693,21.818,6.068a15.644,15.644,0,0,1,8.7,11.518q.055.338.1.675l3.381-.635a13.019,13.019,0,0,0,1.288-.311,15.585,15.585,0,0,1,7.79-3.584l1.024-.169,1.5-.037a17.289,17.289,0,0,1,7.266,1.666,79.814,79.814,0,0,1,13.082,7.287,16.966,16.966,0,0,1,7.845,11.481,16.639,16.639,0,0,1-4.044,13.568,6.464,6.464,0,0,0-1.377,2.657c-6.544,21.6-13.795,38.388-22.8,52.773-10.9,17.311-26.538,35.11-40.9,46.576a16.629,16.629,0,0,1-8.336,3.928l-1.022.168-1.6.046a18.161,18.161,0,0,1-9.744-3.005,27.031,27.031,0,0,0-9.674-2.594l-30.73-3.446,24.291-19.135c18.9-14.891,28.171-24.747,39.664-42.184A134.929,134.929,0,0,0,531.52,63.525L523.437,65.1c-8.023,13.872-13.848,22.952-20.852,31.045a16.681,16.681,0,0,1-10.622,6.659l-1.023.168-1.494.037a16.368,16.368,0,0,1-8.085-2.175,27.278,27.278,0,0,0-9.316-2.346L445.356,97.43l17.678-20.022c13.856-15.694,22.8-29.542,29.9-46.3,3.155-8.174,4.043-11.57,4.374-16.93Z" fill="#ee8485"/><path d="M193.259,91.139c3.766-.771,5.564-1.666,7-2.951a2.969,2.969,0,0,1,1.8-.9,4.28,4.28,0,0,1,2.476.491,68.162,68.162,0,0,1,11.209,6.236,4.784,4.784,0,0,1,2.448,3.04,4.262,4.262,0,0,1-1.244,3.35,17.765,17.765,0,0,0-3.777,7.059c-6.5,21.433-13.493,37.109-21.432,49.8-10.2,16.206-25.216,33.2-38.324,43.6a4,4,0,0,1-2.213,1.114,5.211,5.211,0,0,1-3.616-1.051,38.866,38.866,0,0,0-14.952-4.423c20.67-16.282,30.671-27.364,42.406-45.17,9.4-14.724,14.471-25.741,20.139-45.84l-35.1,6.836c-9.523,16.693-15.442,26.2-22.62,34.423a4.6,4.6,0,0,1-2.8,2.108,3.55,3.55,0,0,1-2.331-.514,40.08,40.08,0,0,0-15.025-3.961c16.4-18.574,25.388-33.978,32.069-49.753,3.463-8.955,4.9-13.834,5.355-21.1,8.788,1.545,14.735,3.111,18.327,4.913a3.08,3.08,0,0,1,1.865,2.237,2.94,2.94,0,0,1-1.194,2.743c-1.314,1.114-2.069,2.887-3,4.536-1.195,2.742-2.291,5.168-3.608,8.081Z" fill="#fff"/><path d="M249.744,84.37c-1.658-10.057-3.008-15.524-5.112-21.016,6.242-.281,14.111-.68,18.578.081,1.822.146,2.694.9,2.863,1.922a6.21,6.21,0,0,1-.223,2.284c-.856,2.986-.546,6.677.68,14.111l4.854,29.443c1.25,7.578,2.479,13.214,3.467,18.292.359,2.185-.4,3.057-2.727,3.442l-11.66,1.923c-2.041.336-3.035-.248-3.178-2.021-.84-5.1-1.8-13.628-2.831-19.893Zm73.144,15.935c3.558,21.572,2.73,36.53-3.971,49.463-5.58,10.651-16.794,21.633-28.292,28.171a9.363,9.363,0,0,1-2.941,1.233A4.792,4.792,0,0,1,283.9,178a47.873,47.873,0,0,0-13.855-6.848c14.8-7.382,25.916-16.251,32.054-27.145,5.336-9.413,6.4-22.015,3.35-40.526L300.9,75.934c-2.067-12.536-3.128-17.151-5.521-23.494,7.092-.571,14.257-.7,19.477.083a2.479,2.479,0,0,1,2.448,2.14,4.679,4.679,0,0,1-.2,2.428c-.807,3.278-.182,7.068,1.307,16.1Z" fill="#fff"/><path d="M367.134,82.23c1.482-.993,2.527-1.016,3.957.395a79.1,79.1,0,0,1,16.092,19.5,9.98,9.98,0,0,1,.943,2.09c.145.875-.366,1.408-1.412,2.33a61.305,61.305,0,0,1-8.584,6.057c-1.919,1.065-2.914.48-3.979-1.44A87.36,87.36,0,0,0,356.58,89.958c4.5-3.585,7.733-5.765,10.554-7.728m28.289-11.851c1.481-.993,2.526-1.015,3.98.542a85.221,85.221,0,0,1,14.733,19.428c1.089,2.066.918,2.844-.809,4.177a61.035,61.035,0,0,1-9.312,6.176c-1.507.847-2.21.214-3.276-1.706a100.505,100.505,0,0,0-16.088-21.3c5.374-3.731,8.461-5.886,10.772-7.315m52.041.552c1.311.682,2.16,1.291,2.3,2.164s-.173,1.675-1.171,2.888c-1.873,2.256-2.413,5.34-3.147,8.155a180.169,180.169,0,0,1-15.615,42.4c-7.6,13.831-14.344,22.877-25.387,33.083a6.4,6.4,0,0,1-3.234,2.178,3.38,3.38,0,0,1-2.5-.634c-4.124-2.315-7.741-3.366-13.4-4.08,15.591-14.4,23.111-23.273,29.981-36.085,5.726-10.674,11.532-26.3,13.884-38.37a53.222,53.222,0,0,0,.8-16c6.434.885,13.426,2.428,17.478,4.306" fill="#fff"/><path d="M548.505,32.559c3.767-.771,5.564-1.666,7-2.95a2.961,2.961,0,0,1,1.8-.9,4.274,4.274,0,0,1,2.477.491,68.178,68.178,0,0,1,11.208,6.235,4.785,4.785,0,0,1,2.449,3.04,4.265,4.265,0,0,1-1.244,3.351,17.753,17.753,0,0,0-3.778,7.059c-6.495,21.433-13.492,37.108-21.431,49.8-10.2,16.205-25.217,33.2-38.325,43.6a4,4,0,0,1-2.212,1.113,5.207,5.207,0,0,1-3.616-1.051,38.906,38.906,0,0,0-14.952-4.423c20.67-16.282,30.671-27.363,42.407-45.169,9.4-14.724,14.469-25.741,20.139-45.841l-35.105,6.837c-9.524,16.693-15.441,26.2-22.62,34.422a4.591,4.591,0,0,1-2.8,2.108,3.548,3.548,0,0,1-2.33-.514,40.061,40.061,0,0,0-15.025-3.96c16.4-18.575,25.388-33.979,32.069-49.753,3.464-8.956,4.906-13.835,5.355-21.1,8.789,1.546,14.736,3.112,18.326,4.913a3.082,3.082,0,0,1,1.867,2.238,2.946,2.946,0,0,1-1.2,2.743c-1.314,1.114-2.069,2.886-2.995,4.536-1.2,2.742-2.292,5.168-3.608,8.08Z" fill="#fff"/><g opacity="0.75" style="mix-blend-mode:multiply;isolation:isolate"><g clip-path="url(#c)"><path d="M445.662,337.915l-15.348,42.1a411.8,411.8,0,0,1-63.107-39.436q-26.307,36.4-76.671,51.465,31.341-33.218,48.827-66.91,16.179-30.971,17.484-54.98Q330.59,276.5,285.76,287.141q-4.917-23.731-7.733-39.3l121.354-23.516q2.809,44.371-19,88.29,12.05,9.283,31.739,17.808,22.654,9.791,33.545,7.493"/><path d="M561.8,214.07q-11.985,21.514-37.539,47.266L546.848,358.8l-36.331,5.992-13.376-88.713q-23.665,9.912-43.413,13.169a141.33,141.33,0,0,1-32.545,1.61q85.546-62.947,99.426-100.3Z"/><path d="M737.924,222.849l2.263,30.434L583.647,279.1l-5.8-30.6q104.316-15.943,160.075-25.644"/><path d="M791.275,226.825q-11.76,10.712-20.588,17.923-13.215-16.354-22.135-27.909l21.238-17.027q15.041,18.312,21.485,27.013m48.418-17.751-22.622,19.259q-2.638-3.822-22.541-27.34l25.788-18.279q13.413,19.078,19.375,26.36m71.836-27.625q.132,41.81-18.49,73.178Q869.61,294.81,820.516,303.9q30.722-29.355,42.04-65.539a125.251,125.251,0,0,0,4.048-62.031Z"/><path d="M445.209,459.715q11.058,67.058,13.719,125.725a1124.514,1124.514,0,0,1-115.051,20.724l-8.153-31.216q46.731-6.7,87.089-14.11l-8.429-60.224q-41.09,7.527-87.219,19.392l-9.357-40.034q25.4-5.44,53.2-10.025,39.74-6.553,74.2-10.232"/><path d="M640.113,467.4l2.262,30.433L485.836,523.645l-5.8-30.6Q584.352,477.1,640.113,467.4"/><path d="M803.162,425.485l5.137,37.224q-14.391,2.373-25.319,4.425-14.309,2.865-19.67,3.745,5.38,37.187-12.134,63.113-16.293,24.23-48.4,33.028,34.7-47.8,27.379-92.177l-63.928,13.3-7.576-36.821,65.144-10.491q-6.082-30.8-10.4-47.877l41.693-5.373q4.451,33.08,6.745,46.977,15.522-3.059,41.333-9.07"/><path d="M989.746,409.747l2.264,30.433L835.469,465.992l-5.8-30.6q104.316-15.943,160.075-25.644"/></g></g><path d="M438.662,330.915l-15.348,42.1a411.8,411.8,0,0,1-63.107-39.436q-26.307,36.4-76.671,51.465,31.341-33.218,48.827-66.91,16.179-30.971,17.484-54.98Q323.59,269.5,278.76,280.141q-4.917-23.731-7.733-39.3l121.354-23.516q2.809,44.371-19,88.29,12.05,9.283,31.739,17.808,22.654,9.791,33.545,7.493" fill="#fff"/><path d="M554.8,207.07q-11.985,21.514-37.539,47.266L539.848,351.8l-36.331,5.992-13.376-88.713q-23.665,9.912-43.413,13.169a141.33,141.33,0,0,1-32.545,1.61q85.546-62.947,99.426-100.3Z" fill="#fff"/><path d="M730.924,215.849l2.263,30.434L576.647,272.1l-5.8-30.6q104.316-15.943,160.075-25.644" fill="#fff"/><path d="M784.275,219.825q-11.76,10.712-20.588,17.923-13.215-16.354-22.135-27.909l21.238-17.027q15.041,18.312,21.485,27.013m48.418-17.751-22.622,19.259q-2.638-3.822-22.541-27.34l25.788-18.279q13.413,19.078,19.375,26.36m71.836-27.625q.132,41.81-18.49,73.178Q862.61,287.81,813.516,296.9q30.722-29.355,42.04-65.539a125.251,125.251,0,0,0,4.048-62.031Z" fill="#fff"/><path d="M438.209,452.715q11.058,67.058,13.719,125.725a1124.514,1124.514,0,0,1-115.051,20.724l-8.153-31.216q46.731-6.7,87.089-14.11l-8.429-60.224q-41.09,7.527-87.219,19.392l-9.357-40.034q25.4-5.44,53.2-10.025,39.74-6.553,74.2-10.232" fill="#fff"/><path d="M633.113,460.4l2.262,30.433L478.836,516.645l-5.8-30.6Q577.352,470.1,633.113,460.4" fill="#fff"/><path d="M796.162,418.485l5.137,37.224q-14.391,2.373-25.319,4.425-14.309,2.865-19.67,3.745,5.38,37.187-12.134,63.113-16.293,24.23-48.4,33.028,34.7-47.8,27.379-92.177l-63.928,13.3-7.576-36.821,65.144-10.491q-6.082-30.8-10.4-47.877l41.693-5.373q4.451,33.08,6.745,46.977,15.522-3.059,41.333-9.07" fill="#fff"/><path d="M982.746,402.747l2.264,30.433L828.469,458.992l-5.8-30.6q104.316-15.943,160.075-25.644" fill="#fff"/></g></g></svg>