<?xml version="1.0" encoding="UTF-8"?>
<svg id="_レイヤー_2" data-name="レイヤー_2" xmlns="http://www.w3.org/2000/svg" viewBox="0 0 1306.55 610.08">
  <defs>
    <style>
      .cls-1 {
        fill: #231815;
      }

      .cls-2 {
        fill: #fff;
      }

      .cls-3 {
        fill: #ee8485;
      }

      .cls-4 {
        fill: none;
        stroke: #000;
        stroke-width: 42.79px;
      }
    </style>
  </defs>
  <g id="_レイヤー_1-2" data-name="レイヤー_1">
    <g>
      <polygon class="cls-4" points="1243.79 373.94 1271.95 369.63 1250.33 35.38 69.62 133.2 71.45 140.02 41.78 142.48 150.24 546.4 891.38 432.92 880.55 502.09 943.62 424.92 1244.11 378.91 1243.79 373.94"/>
      <polygon class="cls-3" points="1243.79 373.94 1271.95 369.63 1250.33 35.38 69.62 133.2 71.45 140.02 41.78 142.48 150.24 546.4 891.38 432.92 880.55 502.09 943.62 424.92 1244.11 378.91 1243.79 373.94"/>
    </g>
    <rect class="cls-1" x="90.41" y="274.86" width="1143.87" height="137.11" transform="translate(-25.53 54.52) rotate(-4.62)"/>
    <g>
      <path class="cls-1" d="M220.5,288.52l-10.38-24.22c4.51-2.43,8.97-5.39,13.39-8.9,4.42-3.5,8.7-7.41,12.85-11.71,4.15-4.3,8.09-8.85,11.83-13.64,3.74-4.79,7.21-9.76,10.43-14.92,3.21-5.16,6.05-10.34,8.52-15.54,2.47-5.2,4.53-10.29,6.19-15.27l5.29,1.12-62.22,5.03-2.06-25.52,80.91-6.54,1.99,24.59c-1.46,6.41-3.57,13-6.32,19.77-2.75,6.78-6.02,13.54-9.81,20.29-3.79,6.75-8,13.33-12.64,19.74-4.64,6.41-9.56,12.45-14.75,18.13-5.19,5.68-10.59,10.86-16.2,15.54-5.6,4.68-11.28,8.7-17.03,12.05ZM300.69,280.64c-2.96-2.96-5.87-5.79-8.73-8.5-2.86-2.71-5.69-5.34-8.5-7.9-2.81-2.56-5.58-5.01-8.33-7.37-2.75-2.36-5.47-4.61-8.16-6.77-2.69-2.15-5.36-4.26-8-6.31l10.75-23.15c2.81,2.15,5.68,4.39,8.59,6.73,2.91,2.34,5.83,4.79,8.76,7.34,2.93,2.55,5.86,5.15,8.8,7.8,2.94,2.65,5.9,5.43,8.9,8.33,3,2.9,6.03,5.88,9.08,8.94l-13.16,20.87Z"/>
      <path class="cls-1" d="M333.49,233.28l-4.4-26.87c7.14-1.51,13.97-3.48,20.5-5.91,6.53-2.43,12.77-5.36,18.72-8.79,5.95-3.42,11.64-7.36,17.05-11.82,5.41-4.46,10.56-9.49,15.43-15.09,4.87-5.6,9.46-11.78,13.79-18.52l17.26,17.48c-4.99,7.73-10.3,14.78-15.92,21.17-5.63,6.39-11.58,12.18-17.84,17.38-6.26,5.2-12.82,9.81-19.68,13.82-6.85,4.01-14.03,7.43-21.51,10.25-7.49,2.83-15.28,5.13-23.39,6.92ZM375.94,199.52l22.87-1.85,6.19,76.55-22.87,1.85-6.19-76.55Z"/>
      <path class="cls-1" d="M554.72,183.35l1.82,22.44-101.82,8.24-1.82-22.44,101.82-8.24Z"/>
      <path class="cls-1" d="M585.41,198.66c-2.05-9.01-4.33-17.88-6.85-26.6-2.52-8.72-5.28-17.34-8.28-25.86l19.85-10.12c3.12,9.03,6,18.13,8.65,27.3,2.64,9.17,5.08,18.41,7.32,27.72l-20.68,7.55ZM600.94,257.44l-3.42-26.95c9.79-1.41,18.17-3.58,25.15-6.52,6.98-2.94,12.69-6.88,17.11-11.83,4.43-4.95,7.74-11.12,9.95-18.52,2.21-7.4,3.37-16.23,3.49-26.5.12-10.27-.62-22.25-2.23-35.95l21.54-2.98c2.01,16.65,2.74,31.5,2.18,44.54-.55,13.04-2.42,24.46-5.58,34.26-3.17,9.8-7.75,18.14-13.76,25.01-6,6.88-13.52,12.39-22.55,16.52-9.03,4.13-19.66,7.11-31.89,8.92ZM618.39,191.66c-2.05-9.01-4.34-17.88-6.86-26.6-2.52-8.72-5.28-17.34-8.28-25.86l19.85-10.12c3.12,9.03,6,18.13,8.65,27.3,2.64,9.17,5.08,18.41,7.32,27.72l-20.68,7.55Z"/>
      <path class="cls-1" d="M708.75,242.22l-2.11-26.13,68-5.5-4.92-60.87-67.75,5.48-2.11-26.13,91.12-7.37,9.15,113.13-91.36,7.39Z"/>
      <path class="cls-1" d="M923.62,153.51l1.82,22.44-101.82,8.24-1.82-22.44,101.82-8.24Z"/>
      <path class="cls-1" d="M1047.76,118.25l2.06,25.51-108.21,8.75-2.06-25.51,108.21-8.75ZM967.6,229.01l-4.87-26.53c6.99-1.29,12.57-3.42,16.75-6.38,4.17-2.97,7.08-6.84,8.71-11.61,1.64-4.77,2.18-10.59,1.62-17.46l-5.71-70.55,21.64-1.75,5.71,70.55c.94,11.58-.1,21.77-3.1,30.57-3,8.81-7.93,16.01-14.78,21.62-6.85,5.61-15.51,9.46-25.99,11.54Z"/>
      <path class="cls-1" d="M1169.55,133.62l1.82,22.44-101.82,8.24-1.82-22.44,101.82-8.24Z"/>
    </g>
    <g>
      <path class="cls-2" d="M217.64,284.9l-10.38-24.22c4.51-2.43,8.97-5.39,13.39-8.9,4.42-3.5,8.7-7.41,12.85-11.72,4.15-4.3,8.09-8.85,11.83-13.64,3.74-4.79,7.21-9.76,10.43-14.92,3.21-5.16,6.05-10.34,8.52-15.54,2.47-5.2,4.53-10.29,6.19-15.28l5.29,1.12-62.22,5.03-2.06-25.52,80.91-6.55,1.99,24.59c-1.46,6.41-3.57,13-6.32,19.77-2.75,6.77-6.02,13.54-9.81,20.29-3.79,6.75-8,13.33-12.64,19.74-4.64,6.41-9.56,12.45-14.75,18.13-5.19,5.68-10.59,10.86-16.2,15.54-5.6,4.68-11.28,8.7-17.03,12.05ZM297.83,277.02c-2.96-2.96-5.87-5.79-8.73-8.5-2.86-2.71-5.69-5.34-8.5-7.9-2.81-2.56-5.58-5.01-8.33-7.37-2.75-2.35-5.47-4.61-8.16-6.77-2.69-2.15-5.36-4.26-8-6.32l10.75-23.15c2.81,2.15,5.68,4.39,8.59,6.73,2.91,2.34,5.83,4.79,8.76,7.34,2.93,2.55,5.86,5.15,8.8,7.8,2.94,2.65,5.9,5.43,8.9,8.33,3,2.91,6.02,5.88,9.08,8.94l-13.17,20.87Z"/>
      <path class="cls-2" d="M330.63,229.65l-4.4-26.87c7.14-1.5,13.97-3.48,20.5-5.91,6.53-2.44,12.77-5.37,18.72-8.79,5.95-3.42,11.64-7.36,17.05-11.82,5.41-4.46,10.56-9.49,15.43-15.09,4.87-5.6,9.46-11.78,13.79-18.52l17.26,17.48c-4.99,7.73-10.3,14.78-15.92,21.17-5.63,6.39-11.58,12.18-17.84,17.38-6.26,5.2-12.82,9.8-19.68,13.81-6.86,4.01-14.03,7.43-21.51,10.25-7.49,2.82-15.28,5.13-23.39,6.92ZM373.08,195.9l22.87-1.85,6.19,76.55-22.87,1.85-6.19-76.55Z"/>
      <path class="cls-2" d="M551.86,179.73l1.82,22.44-101.82,8.24-1.82-22.44,101.82-8.24Z"/>
      <path class="cls-2" d="M582.56,195.04c-2.05-9.01-4.34-17.88-6.85-26.6-2.52-8.72-5.28-17.34-8.28-25.86l19.85-10.12c3.12,9.03,6,18.13,8.65,27.31,2.64,9.17,5.08,18.41,7.32,27.72l-20.68,7.55ZM598.08,253.82l-3.42-26.95c9.79-1.41,18.17-3.58,25.15-6.52,6.98-2.94,12.69-6.88,17.11-11.83,4.43-4.95,7.74-11.12,9.95-18.52,2.21-7.4,3.37-16.23,3.49-26.51.12-10.27-.62-22.25-2.23-35.95l21.54-2.98c2.01,16.65,2.73,31.5,2.18,44.54-.55,13.04-2.42,24.46-5.58,34.26-3.17,9.8-7.75,18.14-13.76,25.02-6,6.88-13.52,12.39-22.55,16.52-9.03,4.13-19.66,7.11-31.89,8.92ZM615.53,188.04c-2.05-9.01-4.33-17.88-6.86-26.6-2.52-8.72-5.28-17.34-8.28-25.86l19.85-10.11c3.12,9.03,6,18.13,8.65,27.3,2.64,9.17,5.08,18.42,7.32,27.72l-20.68,7.55Z"/>
      <path class="cls-2" d="M705.89,238.6l-2.11-26.13,68-5.5-4.92-60.87-67.75,5.48-2.11-26.13,91.12-7.37,9.15,113.13-91.36,7.39Z"/>
      <path class="cls-2" d="M920.76,149.89l1.82,22.44-101.82,8.24-1.82-22.44,101.82-8.24Z"/>
      <path class="cls-2" d="M1044.9,114.63l2.06,25.52-108.21,8.75-2.06-25.52,108.21-8.75ZM964.74,225.39l-4.87-26.53c6.99-1.29,12.58-3.42,16.75-6.38,4.17-2.97,7.08-6.84,8.71-11.61s2.17-10.59,1.62-17.46l-5.71-70.55,21.64-1.75,5.71,70.55c.94,11.58-.1,21.77-3.1,30.57-3,8.8-7.93,16.01-14.77,21.62s-15.51,9.46-25.99,11.54Z"/>
      <path class="cls-2" d="M1166.69,130l1.82,22.44-101.82,8.24-1.82-22.44,101.82-8.24Z"/>
    </g>
    <g>
      <g>
        <path class="cls-2" d="M388.82,408.93l-4.71-58.27,32.97-2.67,4.5,55.68-9.69.78-3.57-44.16-13.59,1.1,3.78,46.75-9.69.78ZM392.15,382.42l-.81-10.04,21.68-1.75.81,10.04-21.68,1.75ZM393.94,403.09l-.81-10.04,21.21-1.72.81,10.04-21.21,1.72ZM400.58,395.49l-3.24-40.03,7.44-.6,3.24,40.03-7.44.6ZM414.97,365.41l-.93-11.52,24.75-2,.93,11.52-24.75,2ZM428.49,413.46c-.99.08-2.26.15-3.82.2-1.56.05-3.82.15-6.79.29l-1.04-10.62c2.56-.16,4.47-.27,5.71-.35,1.24-.07,2.18-.14,2.81-.19.39-.03.73-.11.99-.23.27-.12.46-.3.58-.53.12-.23.16-.57.13-1.01l-3.39-41.2,11.11-.9,3.49,42.46c.17,2.07.24,3.82.22,5.26-.02,1.44-.31,2.63-.87,3.57-.56.94-1.55,1.66-2.98,2.17-1.43.51-3.48.88-6.16,1.09Z"/>
        <path class="cls-2" d="M456.28,410.69l-4.91-60.71,51.4-4.16,4,49.41c.17,2.07.18,3.83.04,5.27s-.57,2.65-1.29,3.6c-.72.95-1.85,1.68-3.39,2.21-1.54.52-3.66.89-6.33,1.11-1.26.1-2.72.18-4.38.24-1.66.06-3.54.12-5.63.2l-1.1-11.36c1.66-.08,3.35-.18,5.09-.3s3.08-.21,4.02-.29c.39-.03.72-.11.99-.23.27-.12.46-.35.57-.68.11-.33.14-.79.1-1.38l-2.86-35.37-29.19,2.36,3.98,49.18-11.11.9ZM468.44,391.27l-6.89-10.15c2.12-2.16,3.89-4.14,5.29-5.97,1.4-1.82,2.5-3.7,3.29-5.62.8-1.92,1.34-4.12,1.64-6.6.3-2.48.39-5.48.28-9.02-.11-3.53-.37-7.81-.77-12.83l10.4-.84c.47,5.81.74,10.87.81,15.17.07,4.3-.12,8.1-.57,11.38-.45,3.28-1.22,6.24-2.31,8.88-1.09,2.64-2.55,5.2-4.38,7.68-1.82,2.48-4.09,5.11-6.79,7.91ZM496.65,379.77l-7.64,8.5c-2.32-3.23-4.68-6.15-7.07-8.76-2.39-2.61-4.86-4.97-7.41-7.09l5.56-10.71c2.88,2.34,5.72,5.04,8.5,8.08s5.47,6.37,8.06,9.98Z"/>
        <path class="cls-2" d="M590.3,407.61c-7.57.61-14.1-.22-19.59-2.51-5.49-2.28-9.79-5.65-12.89-10.11-3.1-4.46-4.88-9.5-5.33-15.14-.48-5.95.6-11.66,3.24-17.12,2.64-5.46,6.88-9.71,12.71-12.75l18.73,10.85c-1.45.12-2.93.83-4.45,2.13-1.52,1.3-2.78,2.98-3.77,5.04-.99,2.06-1.38,4.42-1.16,7.08.16,1.91.71,3.74,1.66,5.48.95,1.74,2.29,3.13,4,4.17,1.71,1.04,3.67,1.47,5.88,1.29,2.3-.19,4.14-.87,5.55-2.05,1.4-1.18,2.42-2.66,3.05-4.42.63-1.76.87-3.55.72-5.36-.21-2.66-1.15-4.94-2.8-6.84-1.65-1.9-3.59-3.4-5.82-4.5-2.23-1.1-4.34-1.79-6.33-2.06l-17.38-6.94-.23-2.87c-4.59-2.73-8.12-6.17-10.59-10.3-2.48-4.13-3.92-8.7-4.32-13.7-.54-6.7.54-12.43,3.23-17.2,2.7-4.77,6.5-8.52,11.42-11.28,4.91-2.75,10.43-4.38,16.56-4.87,6.89-.56,12.83.35,17.81,2.73,4.99,2.38,8.89,5.68,11.72,9.89,2.82,4.21,4.45,8.93,4.87,14.13.45,5.53-.48,10.71-2.79,15.56-2.3,4.84-5.61,8.67-9.92,11.48l-19.05-10.02c1.02-.08,2.15-.71,3.38-1.88,1.23-1.17,2.29-2.7,3.16-4.59.88-1.89,1.22-3.95,1.04-6.18-.13-1.6-.56-3.17-1.28-4.71-.73-1.55-1.75-2.83-3.07-3.84-1.33-1.02-3.05-1.44-5.18-1.27-1.96.16-3.51.79-4.66,1.9-1.15,1.11-1.94,2.43-2.38,3.96-.43,1.54-.59,3.04-.47,4.53.25,3.08,1.66,5.75,4.24,8,2.58,2.25,5.6,3.67,9.07,4.24l16.92,6.02.23,2.87c3.02,1.36,5.84,3.17,8.46,5.42,2.62,2.25,4.79,5.02,6.51,8.3,1.72,3.29,2.76,7.16,3.12,11.63.52,6.49-.5,12.32-3.08,17.51-2.58,5.18-6.48,9.38-11.7,12.58-5.22,3.2-11.57,5.11-19.06,5.71Z"/>
        <path class="cls-2" d="M667.49,393.3l-7.65-9.34c.72-1.44,1.31-2.86,1.77-4.23.46-1.38.81-2.9,1.03-4.58.22-1.68.32-3.64.3-5.9-.02-2.25-.17-5-.43-8.25l-2.22-27.4,51.11-4.13.84,10.34-40.71,3.29,1.38,17.06c.43,5.37.55,9.98.35,13.83-.2,3.86-.77,7.3-1.69,10.32s-2.28,6.02-4.06,8.99ZM714.36,390.55l-9.81.79-1.7-21.05-19.97,1.62,1.7,21.05-9.81.79-2.51-31.09,39.58-3.2,2.52,31.09ZM707.92,378.51l.75,9.31-28.6,2.31-.75-9.31,28.6-2.31ZM691.25,334.14l-10.4.84-.93-11.52,10.4-.84.93,11.52ZM696.37,363.61l-10.4.84-2.16-26.73,10.4-.84,2.16,26.73ZM711.68,344.09l.81,10.04-21.09,1.71-.81-10.04,21.09-1.71Z"/>
        <path class="cls-2" d="M725.6,345.64l-2.96-12.4c.89-1.21,2.09-2.93,3.6-5.16,1.5-2.23,3.04-4.64,4.62-7.25l9.81-.79c1.97,2.32,3.93,4.49,5.88,6.51,1.95,2.02,3.73,3.71,5.35,5.07l-3.12,10.73c-2.89-2.94-5.52-5.71-7.87-8.32-2.35-2.61-4.64-5.21-6.88-7.81l4.37-.35c-1.79,2.92-3.65,5.92-5.61,9-1.95,3.08-4.35,6.67-7.19,10.76ZM750.42,350.39l.81,10.04-23.81,1.93-.81-10.04,23.81-1.93ZM753.26,386.96l-8.63.7-1.25-15.43-6.85.55,1.25,15.43-8.62.7-2-24.74,24.1-1.95,2,24.74ZM747.75,339.46l.75,9.31-20.26,1.64-.75-9.31,20.26-1.64ZM743.28,356.18l-9.22.75-1.8-22.3,9.22-.75,1.8,22.3ZM747.99,375.49l.75,9.31-15.48,1.25-.75-9.31,15.48-1.25ZM749.4,334.12l-.87-9.97,31.73-2.57.81,9.97-31.67,2.56ZM754.76,387.88l-4.04-50,29.66-2.4,3.14,38.85c.22,2.71.27,4.9.14,6.57-.12,1.67-.48,2.9-1.07,3.69s-1.46,1.23-2.6,1.33c-1.18.1-2.35.15-3.5.17-1.15.02-2.1,0-2.86-.03l-.96-9.66c.44.02.81.03,1.13.06.32.02.62.03.89,0,.16-.01.31-.07.46-.19.15-.11.26-.33.33-.66.07-.33.08-.79.04-1.38l-2.3-28.43-13.83,1.12,3.26,40.32-7.92.64ZM756.1,360.27l-.69-8.57,22.33-1.81.69,8.57-22.33,1.81ZM757.26,373.11l-.69-8.57,22.21-1.8.69,8.57-22.21,1.8ZM765.2,383.84l-5.33-65.95,8.27-.67,5.33,65.95-8.27.67ZM779.59,324.32l-6.32,2c-.55-1.39-1.11-2.76-1.7-4.1-.58-1.34-1.21-2.68-1.87-4.01l5.89-2.86c.75,1.48,1.46,2.97,2.12,4.48.66,1.51,1.28,3,1.88,4.49Z"/>
        <path class="cls-2" d="M819.84,378.53c-1.62.13-3.04.1-4.26-.1-1.23-.2-2.08-.35-2.56-.46l-.09-12.18c.92.17,1.73.28,2.41.33.68.04,1.27.04,1.78,0,1.18-.1,2.07-.35,2.67-.77.6-.42,1.03-1.19,1.3-2.3.27-1.11.47-2.74.62-4.88.15-2.04.22-4.13.21-6.26-.01-2.13-.13-4.6-.36-7.4-.12-1.43-.29-2.49-.53-3.19-.23-.7-.65-1.15-1.24-1.35-.59-.2-1.48-.25-2.66-.16-2.25.18-4.61.46-7.1.83-2.49.38-5.13.85-7.92,1.42-2.79.57-5.75,1.26-8.9,2.06l-1.65-12.28c1.29-.25,2.97-.56,5.04-.93,2.07-.37,4.3-.72,6.69-1.06,2.39-.34,4.77-.67,7.15-.99,2.37-.31,4.52-.55,6.46-.71,4.69-.38,8.2.64,10.53,3.05,2.34,2.41,3.75,6.6,4.23,12.56.24,2.95.36,5.55.36,7.78,0,2.23-.04,4.29-.12,6.18-.27,5.03-.81,9.02-1.62,11.99-.81,2.96-2.05,5.12-3.73,6.47-1.67,1.35-3.91,2.14-6.71,2.36ZM803.37,380.75l-9.06-5.36c1.2-1.83,2.34-4.41,3.42-7.75,1.08-3.33,2.02-7.15,2.82-11.45.8-4.3,1.46-8.85,1.99-13.65.52-4.8.85-9.61.97-14.42.12-4.82.02-9.34-.33-13.58l9.91-.28c.32,3.99.43,8.4.33,13.24-.1,4.84-.41,9.81-.91,14.9-.5,5.09-1.18,10.07-2.03,14.92-.86,4.85-1.88,9.3-3.08,13.33-1.2,4.04-2.54,7.4-4.03,10.1ZM830.78,332.89c-1.22-2.82-2.32-5.2-3.31-7.13-.99-1.93-1.97-3.72-2.93-5.38l5.66-5.07c1.33,2.17,2.55,4.4,3.66,6.69,1.12,2.29,2.16,4.56,3.14,6.81l-6.21,4.07ZM839.95,361.73c-.34-2.25-.85-4.7-1.52-7.35-.67-2.65-1.49-5.44-2.46-8.39-.97-2.94-2.08-5.93-3.31-8.95l9.07-4.08c1.04,2.59,2.09,5.44,3.13,8.55,1.04,3.11,2.01,6.26,2.9,9.43.89,3.17,1.59,6.2,2.1,9.08l-9.91,1.69ZM840.71,329.26c-1.22-2.82-2.32-5.2-3.31-7.13-.99-1.93-1.97-3.72-2.93-5.38l5.66-5.07c1.32,2.17,2.55,4.4,3.66,6.69,1.12,2.29,2.16,4.56,3.14,6.81l-6.21,4.07Z"/>
        <path class="cls-2" d="M864.92,335.93l-8.97-3.51c1.15-3.46,2.17-7.1,3.07-10.92.9-3.81,1.72-8.01,2.46-12.58l9.4,1.54c-.79,4.87-1.69,9.39-2.68,13.56-.99,4.17-2.09,8.14-3.29,11.9ZM860.05,361l-.69-8.57,54.35-4.4.69,8.57-54.35,4.4ZM862.32,377.32l-2.86-10.32c4.45-1.4,8.79-2.98,13.03-4.73,4.24-1.76,8.02-3.61,11.35-5.57l3.68,7.29c-3.83,3.13-7.87,5.75-12.12,7.86-4.25,2.1-8.61,3.93-13.09,5.48ZM863.13,349.83l-2.43-30.06,3.95-5.52,43.25-3.5.69,8.57-37.81,3.06,1.58,19.57,38.11-3.08.57,7.09-47.91,3.88ZM870.18,331.12l-.51-6.35,37.16-3.01.51,6.35-37.16,3.01ZM870.88,339.76l-.51-6.35,37.16-3.01.51,6.35-37.16,3.01ZM882.07,344.35l-2.05-25.33,10.4-.84,2.05,25.33-10.4.84ZM889.88,316.59l-9.67-1.97c.34-1.17.67-2.31.97-3.42.31-1.11.59-2.28.85-3.49l10.03.45c-.28,1.46-.6,2.88-.96,4.28-.36,1.39-.77,2.77-1.21,4.15ZM883.45,376.87l-2.53-31.24,10.4-.84,2.53,31.24-10.4.84ZM914.78,373.08c-4.67-.81-9.25-1.92-13.77-3.31-4.51-1.39-8.93-3.33-13.25-5.8l2.46-7.78c3.6,1.39,7.63,2.62,12.1,3.67,4.46,1.05,9,1.91,13.62,2.58l-1.16,10.65Z"/>
        <path class="cls-2" d="M937.97,327.42l-4.75,8.86c-2.24-2.2-4.32-4.3-6.25-6.29-1.93-2-3.57-3.86-4.94-5.58l2.79-11.08c2.73,3.35,5.1,6.1,7.12,8.27,2.02,2.17,4.03,4.11,6.03,5.83ZM945.08,332.27l1.58,10.72-21.57,3.9-1.58-10.72,21.57-3.9ZM930.49,323.86l-6.25-3.8c1.13-3.16,2.13-6.11,3-8.83.87-2.72,1.59-5.39,2.18-8.02l6.64,2.73c-.65,2.78-1.43,5.64-2.34,8.59-.91,2.95-1.99,6.06-3.23,9.33ZM931.45,369.57l-5.76-.58c.14-4.17.21-7.91.22-11.21.01-3.3-.06-6.42-.22-9.38l5.69-.16c.17,3.6.25,7.18.24,10.72,0,3.54-.07,7.08-.18,10.61ZM933.42,343.17l-6.16-4.11c1.92-4.71,3.79-9.45,5.6-14.2,1.81-4.76,3.55-9.63,5.21-14.62l6.35,3.5c-1.69,5.14-3.46,10.15-5.33,15.04-1.86,4.88-3.76,9.68-5.67,14.4ZM942.71,372.08l-8.62.7-2.61-32.27,8.63-.7,2.61,32.27ZM949.26,343.53l-5.43,1.93c-.76-3.01-1.55-6.01-2.36-8.99-.82-2.98-1.68-5.95-2.59-8.9l5.28-2.36c1,3.04,1.91,6.1,2.73,9.18.82,3.08,1.62,6.13,2.38,9.14ZM949.08,365.54l-5.06.71c-.35-3.34-.74-6.57-1.17-9.68s-.87-6.21-1.32-9.3l5.03-1c.45,3.09.89,6.21,1.32,9.37.43,3.16.83,6.46,1.19,9.9ZM944.63,320.11l-.87-10.78,34.27-2.77.87,10.78-34.27,2.77ZM947.65,335.33l-.81-10.04,30.72-2.49.81,10.04-30.72,2.49ZM980.91,368.69l-9.81.79-1.7-21.05-10.69.87,1.7,21.05-9.81.79-2.51-31.09,30.31-2.45,2.51,31.09ZM957.29,328.08l-2.15-26.59,10.4-.84,2.15,26.59-10.4.84ZM972.03,356.63l.75,9.31-15.95,1.29-.75-9.31,15.95-1.29Z"/>
        <path class="cls-2" d="M1010.08,305.08l11.93-.97,1.14,33.21-8.92.72-4.15-32.96ZM1020.53,359.24c-1.93.16-3.61-.53-5.04-2.04-1.43-1.52-2.24-3.46-2.43-5.83-.19-2.31.3-4.33,1.47-6.07,1.17-1.73,2.72-2.67,4.65-2.83,1.89-.15,3.54.53,4.95,2.05,1.41,1.52,2.21,3.44,2.4,5.75.19,2.36-.29,4.41-1.44,6.14-1.15,1.73-2.67,2.67-4.56,2.82Z"/>
      </g>
      <g>
        <path class="cls-2" d="M388.82,408.93l-4.71-58.27,32.97-2.67,4.5,55.68-9.69.78-3.57-44.16-13.59,1.1,3.78,46.75-9.69.78ZM392.15,382.42l-.81-10.04,21.68-1.75.81,10.04-21.68,1.75ZM393.94,403.09l-.81-10.04,21.21-1.72.81,10.04-21.21,1.72ZM400.58,395.49l-3.24-40.03,7.44-.6,3.24,40.03-7.44.6ZM414.97,365.41l-.93-11.52,24.75-2,.93,11.52-24.75,2ZM428.49,413.46c-.99.08-2.26.15-3.82.2-1.56.05-3.82.15-6.79.29l-1.04-10.62c2.56-.16,4.47-.27,5.71-.35,1.24-.07,2.18-.14,2.81-.19.39-.03.73-.11.99-.23.27-.12.46-.3.58-.53.12-.23.16-.57.13-1.01l-3.39-41.2,11.11-.9,3.49,42.46c.17,2.07.24,3.82.22,5.26-.02,1.44-.31,2.63-.87,3.57-.56.94-1.55,1.66-2.98,2.17-1.43.51-3.48.88-6.16,1.09Z"/>
        <path class="cls-2" d="M456.28,410.69l-4.91-60.71,51.4-4.16,4,49.41c.17,2.07.18,3.83.04,5.27s-.57,2.65-1.29,3.6c-.72.95-1.85,1.68-3.39,2.21-1.54.52-3.66.89-6.33,1.11-1.26.1-2.72.18-4.38.24-1.66.06-3.54.12-5.63.2l-1.1-11.36c1.66-.08,3.35-.18,5.09-.3s3.08-.21,4.02-.29c.39-.03.72-.11.99-.23.27-.12.46-.35.57-.68.11-.33.14-.79.1-1.38l-2.86-35.37-29.19,2.36,3.98,49.18-11.11.9ZM468.44,391.27l-6.89-10.15c2.12-2.16,3.89-4.14,5.29-5.97,1.4-1.82,2.5-3.7,3.29-5.62.8-1.92,1.34-4.12,1.64-6.6.3-2.48.39-5.48.28-9.02-.11-3.53-.37-7.81-.77-12.83l10.4-.84c.47,5.81.74,10.87.81,15.17.07,4.3-.12,8.1-.57,11.38-.45,3.28-1.22,6.24-2.31,8.88-1.09,2.64-2.55,5.2-4.38,7.68-1.82,2.48-4.09,5.11-6.79,7.91ZM496.65,379.77l-7.64,8.5c-2.32-3.23-4.68-6.15-7.07-8.76-2.39-2.61-4.86-4.97-7.41-7.09l5.56-10.71c2.88,2.34,5.72,5.04,8.5,8.08s5.47,6.37,8.06,9.98Z"/>
        <path class="cls-2" d="M590.3,407.61c-7.57.61-14.1-.22-19.59-2.51-5.49-2.28-9.79-5.65-12.89-10.11-3.1-4.46-4.88-9.5-5.33-15.14-.48-5.95.6-11.66,3.24-17.12,2.64-5.46,6.88-9.71,12.71-12.75l18.73,10.85c-1.45.12-2.93.83-4.45,2.13-1.52,1.3-2.78,2.98-3.77,5.04-.99,2.06-1.38,4.42-1.16,7.08.16,1.91.71,3.74,1.66,5.48.95,1.74,2.29,3.13,4,4.17,1.71,1.04,3.67,1.47,5.88,1.29,2.3-.19,4.14-.87,5.55-2.05,1.4-1.18,2.42-2.66,3.05-4.42.63-1.76.87-3.55.72-5.36-.21-2.66-1.15-4.94-2.8-6.84-1.65-1.9-3.59-3.4-5.82-4.5-2.23-1.1-4.34-1.79-6.33-2.06l-17.38-6.94-.23-2.87c-4.59-2.73-8.12-6.17-10.59-10.3-2.48-4.13-3.92-8.7-4.32-13.7-.54-6.7.54-12.43,3.23-17.2,2.7-4.77,6.5-8.52,11.42-11.28,4.91-2.75,10.43-4.38,16.56-4.87,6.89-.56,12.83.35,17.81,2.73,4.99,2.38,8.89,5.68,11.72,9.89,2.82,4.21,4.45,8.93,4.87,14.13.45,5.53-.48,10.71-2.79,15.56-2.3,4.84-5.61,8.67-9.92,11.48l-19.05-10.02c1.02-.08,2.15-.71,3.38-1.88,1.23-1.17,2.29-2.7,3.16-4.59.88-1.89,1.22-3.95,1.04-6.18-.13-1.6-.56-3.17-1.28-4.71-.73-1.55-1.75-2.83-3.07-3.84-1.33-1.02-3.05-1.44-5.18-1.27-1.96.16-3.51.79-4.66,1.9-1.15,1.11-1.94,2.43-2.38,3.96-.43,1.54-.59,3.04-.47,4.53.25,3.08,1.66,5.75,4.24,8,2.58,2.25,5.6,3.67,9.07,4.24l16.92,6.02.23,2.87c3.02,1.36,5.84,3.17,8.46,5.42,2.62,2.25,4.79,5.02,6.51,8.3,1.72,3.29,2.76,7.16,3.12,11.63.52,6.49-.5,12.32-3.08,17.51-2.58,5.18-6.48,9.38-11.7,12.58-5.22,3.2-11.57,5.11-19.06,5.71Z"/>
        <path class="cls-2" d="M667.49,393.3l-7.65-9.34c.72-1.44,1.31-2.86,1.77-4.23.46-1.38.81-2.9,1.03-4.58.22-1.68.32-3.64.3-5.9-.02-2.25-.17-5-.43-8.25l-2.22-27.4,51.11-4.13.84,10.34-40.71,3.29,1.38,17.06c.43,5.37.55,9.98.35,13.83-.2,3.86-.77,7.3-1.69,10.32s-2.28,6.02-4.06,8.99ZM714.36,390.55l-9.81.79-1.7-21.05-19.97,1.62,1.7,21.05-9.81.79-2.51-31.09,39.58-3.2,2.52,31.09ZM707.92,378.51l.75,9.31-28.6,2.31-.75-9.31,28.6-2.31ZM691.25,334.14l-10.4.84-.93-11.52,10.4-.84.93,11.52ZM696.37,363.61l-10.4.84-2.16-26.73,10.4-.84,2.16,26.73ZM711.68,344.09l.81,10.04-21.09,1.71-.81-10.04,21.09-1.71Z"/>
        <path class="cls-2" d="M725.6,345.64l-2.96-12.4c.89-1.21,2.09-2.93,3.6-5.16,1.5-2.23,3.04-4.64,4.62-7.25l9.81-.79c1.97,2.32,3.93,4.49,5.88,6.51,1.95,2.02,3.73,3.71,5.35,5.07l-3.12,10.73c-2.89-2.94-5.52-5.71-7.87-8.32-2.35-2.61-4.64-5.21-6.88-7.81l4.37-.35c-1.79,2.92-3.65,5.92-5.61,9-1.95,3.08-4.35,6.67-7.19,10.76ZM750.42,350.39l.81,10.04-23.81,1.93-.81-10.04,23.81-1.93ZM753.26,386.96l-8.63.7-1.25-15.43-6.85.55,1.25,15.43-8.62.7-2-24.74,24.1-1.95,2,24.74ZM747.75,339.46l.75,9.31-20.26,1.64-.75-9.31,20.26-1.64ZM743.28,356.18l-9.22.75-1.8-22.3,9.22-.75,1.8,22.3ZM747.99,375.49l.75,9.31-15.48,1.25-.75-9.31,15.48-1.25ZM749.4,334.12l-.87-9.97,31.73-2.57.81,9.97-31.67,2.56ZM754.76,387.88l-4.04-50,29.66-2.4,3.14,38.85c.22,2.71.27,4.9.14,6.57-.12,1.67-.48,2.9-1.07,3.69s-1.46,1.23-2.6,1.33c-1.18.1-2.35.15-3.5.17-1.15.02-2.1,0-2.86-.03l-.96-9.66c.44.02.81.03,1.13.06.32.02.62.03.89,0,.16-.01.31-.07.46-.19.15-.11.26-.33.33-.66.07-.33.08-.79.04-1.38l-2.3-28.43-13.83,1.12,3.26,40.32-7.92.64ZM756.1,360.27l-.69-8.57,22.33-1.81.69,8.57-22.33,1.81ZM757.26,373.11l-.69-8.57,22.21-1.8.69,8.57-22.21,1.8ZM765.2,383.84l-5.33-65.95,8.27-.67,5.33,65.95-8.27.67ZM779.59,324.32l-6.32,2c-.55-1.39-1.11-2.76-1.7-4.1-.58-1.34-1.21-2.68-1.87-4.01l5.89-2.86c.75,1.48,1.46,2.97,2.12,4.48.66,1.51,1.28,3,1.88,4.49Z"/>
        <path class="cls-2" d="M819.84,378.53c-1.62.13-3.04.1-4.26-.1-1.23-.2-2.08-.35-2.56-.46l-.09-12.18c.92.17,1.73.28,2.41.33.68.04,1.27.04,1.78,0,1.18-.1,2.07-.35,2.67-.77.6-.42,1.03-1.19,1.3-2.3.27-1.11.47-2.74.62-4.88.15-2.04.22-4.13.21-6.26-.01-2.13-.13-4.6-.36-7.4-.12-1.43-.29-2.49-.53-3.19-.23-.7-.65-1.15-1.24-1.35-.59-.2-1.48-.25-2.66-.16-2.25.18-4.61.46-7.1.83-2.49.38-5.13.85-7.92,1.42-2.79.57-5.75,1.26-8.9,2.06l-1.65-12.28c1.29-.25,2.97-.56,5.04-.93,2.07-.37,4.3-.72,6.69-1.06,2.39-.34,4.77-.67,7.15-.99,2.37-.31,4.52-.55,6.46-.71,4.69-.38,8.2.64,10.53,3.05,2.34,2.41,3.75,6.6,4.23,12.56.24,2.95.36,5.55.36,7.78,0,2.23-.04,4.29-.12,6.18-.27,5.03-.81,9.02-1.62,11.99-.81,2.96-2.05,5.12-3.73,6.47-1.67,1.35-3.91,2.14-6.71,2.36ZM803.37,380.75l-9.06-5.36c1.2-1.83,2.34-4.41,3.42-7.75,1.08-3.33,2.02-7.15,2.82-11.45.8-4.3,1.46-8.85,1.99-13.65.52-4.8.85-9.61.97-14.42.12-4.82.02-9.34-.33-13.58l9.91-.28c.32,3.99.43,8.4.33,13.24-.1,4.84-.41,9.81-.91,14.9-.5,5.09-1.18,10.07-2.03,14.92-.86,4.85-1.88,9.3-3.08,13.33-1.2,4.04-2.54,7.4-4.03,10.1ZM830.78,332.89c-1.22-2.82-2.32-5.2-3.31-7.13-.99-1.93-1.97-3.72-2.93-5.38l5.66-5.07c1.33,2.17,2.55,4.4,3.66,6.69,1.12,2.29,2.16,4.56,3.14,6.81l-6.21,4.07ZM839.95,361.73c-.34-2.25-.85-4.7-1.52-7.35-.67-2.65-1.49-5.44-2.46-8.39-.97-2.94-2.08-5.93-3.31-8.95l9.07-4.08c1.04,2.59,2.09,5.44,3.13,8.55,1.04,3.11,2.01,6.26,2.9,9.43.89,3.17,1.59,6.2,2.1,9.08l-9.91,1.69ZM840.71,329.26c-1.22-2.82-2.32-5.2-3.31-7.13-.99-1.93-1.97-3.72-2.93-5.38l5.66-5.07c1.32,2.17,2.55,4.4,3.66,6.69,1.12,2.29,2.16,4.56,3.14,6.81l-6.21,4.07Z"/>
        <path class="cls-2" d="M864.92,335.93l-8.97-3.51c1.15-3.46,2.17-7.1,3.07-10.92.9-3.81,1.72-8.01,2.46-12.58l9.4,1.54c-.79,4.87-1.69,9.39-2.68,13.56-.99,4.17-2.09,8.14-3.29,11.9ZM860.05,361l-.69-8.57,54.35-4.4.69,8.57-54.35,4.4ZM862.32,377.32l-2.86-10.32c4.45-1.4,8.79-2.98,13.03-4.73,4.24-1.76,8.02-3.61,11.35-5.57l3.68,7.29c-3.83,3.13-7.87,5.75-12.12,7.86-4.25,2.1-8.61,3.93-13.09,5.48ZM863.13,349.83l-2.43-30.06,3.95-5.52,43.25-3.5.69,8.57-37.81,3.06,1.58,19.57,38.11-3.08.57,7.09-47.91,3.88ZM870.18,331.12l-.51-6.35,37.16-3.01.51,6.35-37.16,3.01ZM870.88,339.76l-.51-6.35,37.16-3.01.51,6.35-37.16,3.01ZM882.07,344.35l-2.05-25.33,10.4-.84,2.05,25.33-10.4.84ZM889.88,316.59l-9.67-1.97c.34-1.17.67-2.31.97-3.42.31-1.11.59-2.28.85-3.49l10.03.45c-.28,1.46-.6,2.88-.96,4.28-.36,1.39-.77,2.77-1.21,4.15ZM883.45,376.87l-2.53-31.24,10.4-.84,2.53,31.24-10.4.84ZM914.78,373.08c-4.67-.81-9.25-1.92-13.77-3.31-4.51-1.39-8.93-3.33-13.25-5.8l2.46-7.78c3.6,1.39,7.63,2.62,12.1,3.67,4.46,1.05,9,1.91,13.62,2.58l-1.16,10.65Z"/>
        <path class="cls-2" d="M937.97,327.42l-4.75,8.86c-2.24-2.2-4.32-4.3-6.25-6.29-1.93-2-3.57-3.86-4.94-5.58l2.79-11.08c2.73,3.35,5.1,6.1,7.12,8.27,2.02,2.17,4.03,4.11,6.03,5.83ZM945.08,332.27l1.58,10.72-21.57,3.9-1.58-10.72,21.57-3.9ZM930.49,323.86l-6.25-3.8c1.13-3.16,2.13-6.11,3-8.83.87-2.72,1.59-5.39,2.18-8.02l6.64,2.73c-.65,2.78-1.43,5.64-2.34,8.59-.91,2.95-1.99,6.06-3.23,9.33ZM931.45,369.57l-5.76-.58c.14-4.17.21-7.91.22-11.21.01-3.3-.06-6.42-.22-9.38l5.69-.16c.17,3.6.25,7.18.24,10.72,0,3.54-.07,7.08-.18,10.61ZM933.42,343.17l-6.16-4.11c1.92-4.71,3.79-9.45,5.6-14.2,1.81-4.76,3.55-9.63,5.21-14.62l6.35,3.5c-1.69,5.14-3.46,10.15-5.33,15.04-1.86,4.88-3.76,9.68-5.67,14.4ZM942.71,372.08l-8.62.7-2.61-32.27,8.63-.7,2.61,32.27ZM949.26,343.53l-5.43,1.93c-.76-3.01-1.55-6.01-2.36-8.99-.82-2.98-1.68-5.95-2.59-8.9l5.28-2.36c1,3.04,1.91,6.1,2.73,9.18.82,3.08,1.62,6.13,2.38,9.14ZM949.08,365.54l-5.06.71c-.35-3.34-.74-6.57-1.17-9.68s-.87-6.21-1.32-9.3l5.03-1c.45,3.09.89,6.21,1.32,9.37.43,3.16.83,6.46,1.19,9.9ZM944.63,320.11l-.87-10.78,34.27-2.77.87,10.78-34.27,2.77ZM947.65,335.33l-.81-10.04,30.72-2.49.81,10.04-30.72,2.49ZM980.91,368.69l-9.81.79-1.7-21.05-10.69.87,1.7,21.05-9.81.79-2.51-31.09,30.31-2.45,2.51,31.09ZM957.29,328.08l-2.15-26.59,10.4-.84,2.15,26.59-10.4.84ZM972.03,356.63l.75,9.31-15.95,1.29-.75-9.31,15.95-1.29Z"/>
        <path class="cls-2" d="M1010.08,305.08l11.93-.97,1.14,33.21-8.92.72-4.15-32.96ZM1020.53,359.24c-1.93.16-3.61-.53-5.04-2.04-1.43-1.52-2.24-3.46-2.43-5.83-.19-2.31.3-4.33,1.47-6.07,1.17-1.73,2.72-2.67,4.65-2.83,1.89-.15,3.54.53,4.95,2.05,1.41,1.52,2.21,3.44,2.4,5.75.19,2.36-.29,4.41-1.44,6.14-1.15,1.73-2.67,2.67-4.56,2.82Z"/>
      </g>
    </g>
  </g>
</svg>