<?xml version="1.0" encoding="UTF-8"?>
<svg xmlns="http://www.w3.org/2000/svg" viewBox="0 0 167.6 45.5">
  <defs>
    <style>
      .cls-1 {
        mix-blend-mode: multiply;
      }

      .cls-1, .cls-2 {
        fill: #ef8586;
      }

      .cls-3 {
        isolation: isolate;
      }

      .cls-4 {
        fill: #231815;
      }

      .cls-5 {
        fill: #fff;
      }
    </style>
  </defs>
  <g class="cls-3">
    <g id="_レイヤー_2" data-name="レイヤー_2">
      <g id="_テキスト_xFF08_B_xFF09_" data-name="テキスト_xFF08_B_xFF09_">
        <g>
          <rect class="cls-2" width="167.6" height="17.49"/>
          <rect class="cls-1" width="8.29" height="17.49"/>
          <g>
            <path class="cls-4" d="M4.61,23.42c-.02.13-.02.14-.03.57-.03,1.2-.22,1.87-.69,2.48-.42.54-.93.9-1.81,1.26-.18-.38-.27-.5-.55-.8.57-.17.88-.32,1.22-.59.71-.57.94-1.17.94-2.49,0-.21,0-.27-.04-.42h.95ZM7.45,22.54c-.1.12-.1.13-.28.49-.25.52-.65,1.04-1.08,1.41-.28.25-.51.4-.84.58-.21-.29-.31-.4-.63-.64.47-.21.73-.37,1.02-.64.29-.27.5-.55.67-.89h-3.68c-.49,0-.66,0-.95.04v-.88c.27.04.48.06.96.06h3.66c.42,0,.48,0,.68-.06l.47.53Z"/>
            <path class="cls-4" d="M9.53,23.34c.29.54.43.88.69,1.66l-.79.25c-.18-.71-.32-1.08-.64-1.7l.74-.22ZM13.55,23.39c-.04.11-.05.14-.1.36-.2.95-.52,1.72-.97,2.33-.52.71-1.1,1.16-2.14,1.69-.18-.31-.27-.41-.56-.69.49-.19.78-.34,1.19-.64.82-.6,1.29-1.31,1.59-2.43.09-.34.13-.59.13-.81l.85.2ZM11.02,23.05c.37.69.5,1,.68,1.61l-.78.25c-.13-.53-.34-1.07-.64-1.65l.74-.21Z"/>
            <path class="cls-4" d="M19.35,22.28c.21,0,.29,0,.41-.01,0-.46.36-.81.81-.81s.81.36.81.8-.37.81-.81.81c-.04,0-.08,0-.13-.01-.57,2.29-1.81,3.72-4.02,4.64-.18-.36-.3-.53-.62-.83,1.94-.6,3.21-1.9,3.66-3.77h-3.33c-.52,0-.65,0-.88.04v-.91c.25.04.42.05.9.05h3.21ZM20.11,22.25c0,.25.2.46.46.46s.46-.21.46-.46-.2-.46-.46-.46-.46.2-.46.46Z"/>
            <path class="cls-4" d="M23.98,21.94q-.03.2-.07,1.57c-.05,1.37-.2,2.16-.57,2.88-.24.48-.5.84-.97,1.3-.27-.35-.38-.46-.71-.68.34-.28.51-.47.72-.81.5-.81.67-1.71.67-3.67,0-.38,0-.45-.03-.64l.95.05ZM25.84,21.86c-.03.2-.04.32-.05.67l-.04,3.99c.49-.23.77-.44,1.07-.8.32-.38.53-.76.69-1.28.24.31.34.41.66.66-.29.69-.65,1.22-1.12,1.63-.4.34-.76.55-1.49.84-.15.06-.21.08-.3.13l-.45-.48c.05-.2.06-.36.06-.74l.04-3.95v-.21c0-.18,0-.33-.03-.46h.95Z"/>
            <path class="cls-4" d="M29.6,23.5c.72.29,1.26.56,1.86.95l-.44.79c-.56-.41-1.18-.75-1.9-1.03l.47-.71ZM29.28,26.64c.53,0,1.29-.17,2.02-.46.87-.34,1.46-.79,2.02-1.54.38-.5.6-.92.81-1.55.29.3.39.39.73.62-.32.78-.62,1.26-1.05,1.77-.89,1.02-2.08,1.65-3.8,1.99-.25.05-.35.07-.49.11l-.24-.95ZM30.14,21.81c.72.28,1.28.55,1.86.9l-.45.77c-.64-.43-1.26-.76-1.87-.97l.46-.71Z"/>
            <path class="cls-4" d="M40.38,26.75c.32,0,.46,0,.64-.04v.8c-.19-.02-.35-.03-.64-.03h-3.63c-.31,0-.46,0-.64.03v-.8c.2.04.32.04.64.04h2.06c.12-.62.27-1.61.34-2.25h-1.74c-.34,0-.44,0-.62.03v-.79c.18.03.37.04.64.04h1.77c.25,0,.35-.01.52-.06l.38.34q-.08.22-.16.8c-.1.77-.18,1.27-.3,1.9h.74Z"/>
            <path class="cls-4" d="M43.31,27.68c.04-.22.04-.41.04-.79v-4.49c0-.34-.01-.53-.04-.71h.96c-.03.21-.03.3-.03.74v1.3c.96.34,2.06.85,3.18,1.48l-.49.83c-.58-.4-1.31-.8-2.48-1.34-.16-.08-.18-.08-.24-.12.02.2.03.28.03.48v1.85c0,.36,0,.55.03.78h-.96Z"/>
            <path class="cls-4" d="M48.99,24.19c.31.04.44.05,1.13.05h3.73c.69,0,.83,0,1.13-.05v.97c-.28-.04-.36-.04-1.14-.04h-3.72c-.79,0-.86,0-1.14.04v-.97Z"/>
            <path class="cls-4" d="M57.89,21.86c-.03.19-.04.36-.04.71l-.04,4c.73-.14,1.39-.41,1.91-.77.64-.44,1.08-.92,1.43-1.6.27.36.37.46.67.71-.48.74-.93,1.21-1.56,1.63-.7.47-1.41.74-2.55.96-.19.04-.27.06-.42.12l-.45-.54c.05-.19.06-.32.06-.72l.03-3.78q0-.49-.04-.72h.99Z"/>
            <path class="cls-4" d="M62.81,26.53c.6-.04,1.44-.24,2.07-.52.88-.38,1.53-.92,2.08-1.72.31-.45.5-.83.71-1.4.27.33.38.43.74.69-.6,1.28-1.26,2.11-2.22,2.75-.71.48-1.58.82-2.67,1.05-.28.06-.3.06-.46.12l-.26-.97ZM63.41,22.18c.83.52,1.27.84,1.81,1.35l-.6.76c-.56-.59-1.13-1.06-1.79-1.42l.58-.69Z"/>
            <path class="cls-4" d="M69.19,24.72c.21-.26.32-.35.57-.51.35-.22.61-.3.94-.3.27,0,.5.05.74.17q.15.08.52.32c.44.28.74.4,1.02.4.12,0,.29-.05.43-.11.25-.13.4-.25.6-.52l.46.46c-.24.3-.36.42-.55.56-.29.22-.62.33-1,.33-.17,0-.35-.03-.51-.08-.22-.07-.34-.13-.79-.43-.51-.32-.69-.39-.99-.39-.38,0-.64.14-1,.53l-.45-.43Z"/>
            <path class="cls-4" d="M76.48,22.31c-.4,0-.6,0-.79.03v-.72c.23.03.48.04.81.04h3.61c.32,0,.57-.01.81-.04v.72c-.21-.02-.42-.03-.78-.03h-1.54v.27h2.1c.34,0,.48,0,.67-.03-.03.2-.03.33-.03.62v.67c0,.27,0,.43.04.62h-.73v-1.25h-2.05v.98c0,.29,0,.45.04.63h-.79c.03-.18.04-.34.04-.63v-.98h-1.92v1.26h-.73c.03-.18.04-.36.04-.6v-.69c0-.28,0-.42-.03-.62.19.02.34.03.67.03h1.97v-.27h-1.41ZM80.07,25.71h-3.61c-.25,0-.48,0-.69.04v-.71c.22.03.41.04.76.04h3.69c.2,0,.44-.01.64-.04-.02.24-.03.42-.03.63v1.53c0,.27,0,.48.04.76h-.81v-.31h-3.63c-.26,0-.5.01-.75.04v-.74c.2.02.46.04.72.04h3.67v-.34h-3.54c-.29,0-.46,0-.63.03v-.66c.18.02.34.03.66.03h3.51v-.33ZM77.6,23.96c-.13-.02-.27-.03-.41-.03h-.51c-.15,0-.29,0-.41.03v-.53c.1.01.24.02.41.02h.51c.18,0,.3,0,.41-.02v.53ZM77.6,24.71c-.13-.02-.27-.03-.41-.03h-.51c-.15,0-.31,0-.41.03v-.53c.09.01.24.02.41.02h.51c.18,0,.31,0,.41-.02v.53ZM80.35,23.96c-.13-.02-.27-.03-.41-.03h-.59c-.15,0-.29,0-.41.03v-.53c.1.01.24.02.41.02h.59c.17,0,.3,0,.41-.02v.53ZM80.35,24.71c-.12-.02-.27-.03-.41-.03h-.59c-.15,0-.31,0-.41.03v-.53c.09.01.24.02.41.02h.59c.17,0,.31,0,.41-.02v.53Z"/>
            <path class="cls-4" d="M85.41,25.74c-.4.9-.85,1.32-1.42,1.32-.8,0-1.37-.81-1.37-1.94,0-.77.27-1.49.77-2.04.59-.64,1.42-.98,2.41-.98,1.68,0,2.77,1.02,2.77,2.6,0,1.21-.63,2.18-1.7,2.61-.34.14-.61.21-1.1.29-.12-.37-.2-.53-.43-.82.64-.08,1.06-.2,1.39-.38.61-.34.97-1,.97-1.75,0-.67-.3-1.22-.86-1.55-.22-.13-.4-.18-.71-.21-.13,1.1-.38,2.07-.73,2.86ZM84.38,23.23c-.59.42-.95,1.14-.95,1.89,0,.57.24,1.03.55,1.03.23,0,.47-.29.72-.9.27-.63.5-1.58.58-2.37-.36.04-.62.14-.9.34Z"/>
            <path class="cls-4" d="M90.62,24.56c-.38,0-.62.01-.85.04v-.78c.21.03.45.04.86.04h4.61c.41,0,.66-.01.87-.04v.78c-.24-.02-.49-.04-.85-.04h-2.74c-.2.34-.29.5-.45.72h2.75c.32,0,.46,0,.6-.03-.02.22-.03.39-.03.6v1.36c0,.27,0,.45.04.71h-.82v-.3h-2.84v.29h-.83c.03-.21.04-.41.04-.64v-.84c-.3.25-.53.39-.92.62-.11-.29-.22-.48-.43-.75.59-.27.91-.47,1.28-.81.31-.29.51-.55.72-.94h-1ZM92.5,22.04c0-.24-.01-.39-.04-.57h.85c-.04.17-.04.34-.04.57v.62h1.51v-.41c0-.15-.01-.31-.04-.46h.83c-.03.17-.04.32-.04.49v.6c0,.21,0,.36.02.48-.18,0-.34-.01-.58-.01h-4.1c-.27,0-.41,0-.58.01.01-.15.02-.29.02-.47v-.6c0-.19-.01-.36-.04-.5h.83c-.03.13-.04.28-.04.45v.41h1.44v-.62ZM91.75,26.93h2.87v-.96h-2.87v.96Z"/>
            <path class="cls-4" d="M100.86,23.56c.6,1.16,1.46,2.02,2.72,2.71-.27.29-.33.37-.54.74-.63-.44-1.01-.76-1.35-1.11-.47-.49-.79-.94-1.13-1.59.04.32.05.57.05.79v1.96c0,.34.01.62.05.87h-.91c.04-.27.05-.53.05-.88v-1.95c0-.17.01-.49.04-.76-.53,1.08-1.28,1.92-2.4,2.7-.17-.32-.31-.51-.52-.71,1.16-.67,2.14-1.69,2.63-2.77h-1.54c-.31,0-.57.01-.84.05v-.83c.27.04.5.05.84.05h1.79v-.66c0-.27-.01-.46-.05-.65h.91c-.04.2-.05.38-.05.64v.67h1.88c.36,0,.62-.01.85-.05v.83c-.26-.04-.54-.05-.85-.05h-1.63Z"/>
            <path class="cls-4" d="M107.14,22.25c0-.26-.01-.49-.05-.71h.92c-.04.24-.05.43-.05.71v4.37h1.7v-3.15c0-.27-.02-.47-.04-.67h.88c-.03.24-.04.44-.04.67v3.54c0,.32.01.58.05.86h-.84v-.5h-4.11v.5h-.83c.03-.27.04-.49.04-.84v-3.54c0-.24-.01-.48-.04-.69h.87c-.03.19-.04.38-.04.69v3.13h1.59v-4.37Z"/>
            <path class="cls-4" d="M111.67,24.72c.21-.26.32-.35.57-.51.35-.22.61-.3.94-.3.27,0,.5.05.74.17q.15.08.52.32c.44.28.74.4,1.02.4.12,0,.29-.05.43-.11.25-.13.4-.25.6-.52l.46.46c-.24.3-.36.42-.55.56-.29.22-.62.33-1,.33-.17,0-.35-.03-.51-.08-.22-.07-.34-.13-.79-.43-.51-.32-.69-.39-.99-.39-.38,0-.64.14-1,.53l-.45-.43Z"/>
            <path class="cls-4" d="M123.2,21.41l-5.31,6.58h-1.03l5.3-6.58h1.04Z"/>
            <path class="cls-4" d="M125.72,24.96c-.44.36-.64.66-.64.96,0,.46.51.65,1.7.65.83,0,1.75-.13,2.2-.29l.08.96c-.12,0-.16,0-.31.03-.84.12-1.29.15-1.89.15-.76,0-1.38-.08-1.75-.23-.6-.23-.9-.62-.9-1.17s.27-.99.9-1.52l.61.46ZM124.66,22.09c.54.13,1.16.18,2.1.18.89,0,1.39-.04,1.85-.13l.03.79c-.42.19-1.18.66-1.87,1.16l-.61-.48c.37-.23.71-.44,1.03-.62-.31.04-.61.06-1.05.06-.36,0-.94-.04-1.28-.08-.14-.01-.16-.02-.26-.02l.06-.83Z"/>
            <path class="cls-4" d="M132.22,21.86c0,.27.08.77.17,1.13.48-.2.89-.28,1.35-.28h.19c.15-.6.2-.85.2-1.09l.88.17c-.04.08-.06.13-.07.2-.1.38-.19.72-.22.82.41.11.66.22.94.42.56.41.86,1.01.86,1.74,0,1.03-.6,1.86-1.64,2.3-.34.15-.6.22-1.14.34-.11-.35-.17-.47-.43-.82.48-.04.76-.11,1.14-.27.48-.2.79-.45.98-.75.15-.26.24-.55.24-.86,0-.46-.16-.81-.51-1.09-.19-.15-.34-.22-.63-.3-.28.96-.76,1.95-1.28,2.61-.25.32-.55.61-.83.77-.22.13-.41.19-.65.19-.72,0-1.21-.63-1.21-1.58,0-.86.39-1.6,1.12-2.15-.04-.11-.16-.71-.24-1.11-.01-.09-.03-.13-.07-.24l.85-.16ZM131.33,25.5c0,.46.2.77.48.77.2,0,.42-.15.66-.46-.32-.71-.43-1.03-.57-1.61-.39.41-.56.81-.56,1.3ZM133,25.13s.02-.06.04-.09c.28-.48.47-.92.7-1.62-.48,0-.83.08-1.21.28.11.48.2.77.42,1.32.02.06.03.07.04.11h0Z"/>
            <path class="cls-4" d="M137.98,23.28c.51.29.75.46,1.26.88l-.44.64c-.48-.45-.72-.64-1.26-.96l.43-.57ZM139.2,25.71c-.29.9-.47,1.32-.84,2.02-.05.09-.07.12-.11.21l-.69-.58c.06-.06.15-.18.24-.31.29-.46.51-.98.76-1.79l.64.45ZM138.28,21.55c.52.32.66.42,1.2.9l-.47.61c-.5-.5-.62-.59-1.2-.97l.48-.54ZM143.06,22.71c.3,0,.52-.01.73-.04-.03.25-.04.47-.04.79v3.53c0,.34,0,.55.04.9h-.78v-.37h-2.75v.36h-.79c.03-.21.04-.54.04-.83v-3.63c0-.32,0-.53-.03-.74.18.02.37.03.69.03h1.04v-.53c0-.31-.01-.53-.05-.71h.85c-.04.22-.05.4-.05.74v.5h1.08ZM140.27,23.42v1.27h.96v-1.27h-.96ZM140.27,25.38v1.42h.96v-1.42h-.96ZM141.98,24.69h1.04v-1.27h-1.04v1.27ZM141.98,26.81h1.04v-1.42h-1.04v1.42Z"/>
            <path class="cls-4" d="M150.92,23.42c-.02.13-.02.14-.03.57-.03,1.2-.22,1.87-.69,2.48-.42.54-.93.9-1.81,1.26-.18-.38-.27-.5-.55-.8.57-.17.88-.32,1.22-.59.71-.57.94-1.17.94-2.49,0-.21,0-.27-.04-.42h.95ZM153.76,22.54c-.1.12-.1.13-.28.49-.25.52-.65,1.04-1.08,1.41-.28.25-.51.4-.84.58-.21-.29-.31-.4-.63-.64.47-.21.73-.37,1.02-.64.29-.27.5-.55.67-.89h-3.68c-.49,0-.66,0-.95.04v-.88c.27.04.48.06.96.06h3.66c.42,0,.48,0,.68-.06l.47.53Z"/>
            <path class="cls-4" d="M159.57,22.09c-.08.13-.11.19-.24.5-.44,1.04-.71,1.58-.99,1.98.59.5.95.84,1.56,1.49l-.67.72c-.36-.48-.78-.91-1.42-1.48-.3.4-.66.79-1.09,1.17-.5.44-.95.76-1.67,1.16-.19-.34-.3-.46-.62-.73.78-.38,1.26-.71,1.81-1.21.34-.3.62-.6.89-.95-.56-.46-1.23-.92-1.86-1.26l.62-.62c.51.3.81.5,1.16.74q.53.38.58.41c.45-.74.9-1.75.99-2.26l.95.33Z"/>
            <path class="cls-4" d="M162.7,21.85c-.03.2-.03.26-.03.63v1.93c0,.35,0,.44.03.62h-.96c.02-.16.04-.38.04-.63v-1.93c0-.36,0-.45-.03-.63h.95ZM165.87,21.86c-.03.17-.04.25-.04.65v.95c0,1.09-.05,1.68-.18,2.12-.2.7-.65,1.23-1.38,1.63-.37.21-.72.35-1.37.54-.12-.34-.2-.46-.49-.83.69-.13,1.09-.28,1.51-.56.66-.43.89-.86.97-1.79.03-.3.04-.61.04-1.17v-.88c0-.36,0-.5-.04-.67h.97Z"/>
            <path class="cls-4" d="M13.19,31.98c-.05.13-.07.22-.08.47-.02.79-.1,1.87-.17,2.33-.18,1.21-.43,1.5-1.27,1.5-.27,0-.5-.02-.87-.08-.01-.44-.04-.57-.16-.9.41.11.69.16.92.16.3,0,.41-.15.52-.76.08-.48.15-1.44.15-2.24h-1.63c-.1.88-.25,1.41-.56,2.01-.38.74-1.01,1.38-1.89,1.94-.24-.37-.34-.48-.63-.74.88-.46,1.45-1.02,1.82-1.76.19-.39.29-.73.36-1.22.01-.1.03-.17.04-.22h-1.16c-.43,0-.53.01-.76.04v-.86c.23.04.42.06.77.06h1.23c.02-.27.03-.68.03-.88v-.17c0-.09,0-.15-.02-.27l.94.02c-.01.09-.02.12-.03.22,0,.04,0,.08,0,.13q-.01.15-.03.51c0,.15,0,.22-.03.44h1.55c.31,0,.38-.01.55-.07l.4.35Z"/>
            <path class="cls-4" d="M14.7,35.28c.6-.04,1.44-.24,2.07-.52.88-.38,1.53-.92,2.08-1.72.31-.45.5-.83.71-1.4.27.33.38.43.74.69-.6,1.28-1.26,2.11-2.22,2.75-.71.48-1.58.82-2.67,1.05-.28.06-.3.06-.46.12l-.26-.97ZM15.3,30.93c.83.52,1.27.84,1.81,1.35l-.6.76c-.56-.59-1.13-1.06-1.79-1.42l.58-.69Z"/>
            <path class="cls-4" d="M27.01,31.63c-.07.1-.1.17-.18.42-.32,1.06-.82,2.01-1.44,2.7-.64.74-1.41,1.28-2.49,1.78-.2-.35-.29-.47-.59-.74.7-.29,1.09-.5,1.53-.83,1-.74,1.66-1.7,2.04-2.96l-2.11.04c-.43.68-.97,1.28-1.64,1.79-.21-.29-.31-.38-.68-.6.8-.55,1.3-1.11,1.81-2.03.22-.4.33-.67.36-.92l.96.19q-.04.06-.12.22s-.02.04-.09.2t-.09.18-.11.22c.09,0,.2-.01.34-.01l1.53-.02c.27,0,.35-.01.51-.07l.45.44Z"/>
            <path class="cls-4" d="M29.45,32.09c.29.54.43.88.69,1.66l-.79.25c-.18-.71-.32-1.08-.64-1.7l.74-.22ZM33.47,32.14c-.04.11-.06.14-.1.36-.2.95-.52,1.72-.97,2.33-.52.71-1.1,1.16-2.14,1.69-.18-.31-.27-.41-.56-.69.49-.19.78-.34,1.19-.64.82-.6,1.29-1.31,1.59-2.43.09-.34.13-.59.13-.81l.85.2ZM30.95,31.8c.37.69.5,1,.68,1.61l-.78.25c-.13-.53-.34-1.07-.64-1.65l.74-.21Z"/>
            <path class="cls-4" d="M37.13,31.18c-.06-.34-.09-.46-.17-.66l.92-.15c0,.18.04.38.08.66l.11.61,1.48-.23c.34-.06.49-.09.67-.15l.15.84q-.19.01-.67.09l-1.48.23.21,1.15,1.64-.26c.29-.05.54-.11.73-.16l.15.84c-.15,0-.17,0-.32.03-.04,0-.08,0-.11.01-.05,0-.14.02-.28.04l-1.67.27.25,1.36c.08.46.09.48.17.72l-.94.17c0-.21-.04-.41-.09-.74l-.25-1.38-1.73.27c-.34.06-.46.08-.71.15l-.14-.86c.24,0,.44-.02.74-.07l1.7-.27-.21-1.15-1.3.2c-.32.06-.58.11-.77.16l-.14-.86c.25,0,.48-.04.77-.08l1.3-.2-.11-.59Z"/>
            <path class="cls-4" d="M42.36,32.94c.31.04.44.05,1.13.05h3.73c.69,0,.83,0,1.13-.05v.97c-.28-.04-.36-.04-1.14-.04h-3.72c-.79,0-.86,0-1.14.04v-.97Z"/>
            <path class="cls-4" d="M54.88,30.16l-5.31,6.58h-1.03l5.3-6.58h1.04Z"/>
            <path class="cls-4" d="M56.91,32.59q-.57.24-1.21.45l-.21-.71c.44-.06.76-.15,1.42-.41v-.99c0-.27,0-.45-.04-.7h.8c-.03.21-.04.41-.04.69v1.79c0,.27,0,.42.03.57h-.78c.03-.16.04-.3.04-.57v-.11ZM56.3,33.97c-.27,0-.53.01-.74.04v-.62c.19.03.38.04.74.04h5.01c.3,0,.46,0,.6-.04v.61c-.25-.02-.53-.03-.79-.03h-1.57v.26h1.11c.32,0,.54,0,.71-.02-.01.2-.02.41-.02.65v1.19c0,.25.01.47.04.67h-.77v-.25h-3.76v.24h-.76c.02-.22.04-.43.04-.67v-1.23c0-.2,0-.39-.02-.6.17.01.4.02.71.02h.97c.01-.11.02-.15.02-.26h-1.52ZM56.24,30.52c.22.26.29.35.57.85l-.52.37c-.26-.46-.31-.53-.6-.88l.54-.34ZM57.44,35.39c-.13-.15-.27-.29-.44-.41.37-.08.5-.15.64-.32h-.79v.74h.58ZM56.86,35.8v.19h3.77v-.19h-3.77ZM60.62,35.39v-.74h-.56c.14.08.31.13.48.17-.06.36-.18.41-.88.41-.59,0-.75-.07-.75-.33v-.25h-.55c-.17.38-.43.6-.88.74h3.14ZM60.33,31.31c.27-.16.43-.31.67-.59-.79.15-1.55.22-2.92.28-.08-.25-.14-.37-.28-.57,1.03-.01,1.78-.06,2.46-.15.3-.05.5-.1.77-.21l.6.5c-.28.07-.38.1-.57.13l.53.22c-.22.3-.41.47-.68.65h.2c-.01.08-.02.13-.03.25h.22c.32,0,.44,0,.64-.03v.63c-.2-.03-.33-.04-.64-.04h-.22v.42c0,.37-.18.48-.77.48-.17,0-.32,0-.53-.01-.04-.2-.09-.41-.18-.6.22.04.44.06.6.06.12,0,.17-.04.17-.15v-.2h-1.51c.24.22.38.38.58.62l-.6.34c-.19-.29-.34-.46-.55-.69l.51-.27h-.37c-.31,0-.44,0-.64.04v-.63c.19.03.34.03.64.03h1.93c0-.12-.01-.17-.02-.25h.31l-.36-.26ZM58.73,31c.16.26.19.31.31.56l-.57.21c-.15-.3-.17-.36-.29-.54l.55-.23ZM58.48,33.97c0,.14-.01.16-.02.26h.46v-.26h-.43ZM59.94,30.91c.1.17.15.29.26.57l-.59.23c-.06-.19-.18-.46-.26-.57l.6-.23ZM59.56,34.71c0,.12.04.14.24.14s.23-.03.24-.2h-.48v.06Z"/>
            <path class="cls-4" d="M63.35,32.03c.51.29.75.46,1.26.88l-.44.64c-.48-.45-.72-.64-1.26-.96l.43-.57ZM64.58,34.46c-.29.9-.47,1.32-.84,2.02-.05.09-.07.12-.11.21l-.69-.58c.06-.06.15-.18.24-.31.29-.46.51-.98.76-1.79l.64.45ZM63.65,30.3c.52.32.66.42,1.2.9l-.47.61c-.5-.5-.62-.59-1.2-.97l.48-.54ZM68.43,31.46c.3,0,.52-.01.73-.04-.03.25-.04.47-.04.79v3.53c0,.34,0,.55.04.9h-.78v-.37h-2.75v.36h-.79c.03-.21.04-.54.04-.83v-3.63c0-.32,0-.53-.03-.74.18.02.37.03.69.03h1.04v-.53c0-.31-.01-.53-.05-.71h.85c-.04.22-.05.4-.05.74v.5h1.08ZM65.64,32.17v1.27h.96v-1.27h-.96ZM65.64,34.13v1.42h.96v-1.42h-.96ZM67.35,33.44h1.04v-1.27h-1.04v1.27ZM67.35,35.56h1.04v-1.42h-1.04v1.42Z"/>
            <path class="cls-4" d="M70.64,33.06c.32.13.52.17,1.23.27.03-.25.09-.72.12-.98-.41-.06-.53-.07-1-.17-.1-.02-.13-.03-.24-.05l.07-.77c.29.11.79.21,1.27.25.1-.59.14-.95.14-1.16,0-.02,0-.04,0-.07l.93.08c-.08.22-.1.32-.22,1.18.79-.01,1.2-.05,1.6-.15l-.03.82c-.09,0-.13.01-.28.03-.5.04-.73.06-.98.06-.07,0-.13,0-.43,0-.07.51-.09.65-.13.99.21,0,.27,0,.34,0,.5,0,1-.05,1.34-.14l-.02.81c-.07,0-.09,0-.21.02-.31.04-.72.06-1.05.06-.11,0-.17,0-.45-.01-.02.19-.04.37-.04.5,0,.34.08.56.26.72.2.17.48.26.87.26.89,0,1.4-.39,1.4-1.08,0-.41-.21-.8-.63-1.18.39-.03.54-.06.87-.18.18.2.25.31.33.44.18.31.3.71.3,1.03,0,.5-.24.98-.67,1.31-.4.31-.93.46-1.58.46-1.27,0-1.97-.61-1.97-1.74,0-.18,0-.36.04-.59-.42-.06-.69-.1-.97-.16-.15-.04-.17-.04-.27-.04l.08-.81Z"/>
            <path class="cls-4" d="M79.8,33.33c.42-.22.77-.3,1.28-.3,1.13,0,1.87.59,1.87,1.49,0,.58-.29,1.08-.82,1.42-.43.27-1.04.41-1.74.41-.58,0-1.08-.08-1.69-.26,0-.36-.03-.52-.12-.92.55.25,1.23.39,1.78.39,1.02,0,1.7-.41,1.7-1.03,0-.5-.46-.81-1.24-.81-.9,0-2.04.49-2.72,1.17l-.54-.73c.22-.12.53-.34.92-.66.8-.67,1.32-1.16,2.09-1.95t.07-.08s.03-.03.05-.06h0s-.04,0-.06,0c-.28.04-1.13.09-1.74.1-.29,0-.45.02-.57.04l-.03-.83c.22.04.42.05.95.05.68,0,1.46-.04,1.99-.08.22-.02.27-.03.39-.08l.45.64q-.14.09-1.21,1.12c-.4.39-.73.67-1.12.96h.02s.05-.02.05-.02Z"/>
            <path class="cls-4" d="M85.2,30.67c.16.03.34.04.71.04.42,0,1.04-.03,1.3-.06.14-.01.19-.03.28-.08l.55.48c-.06.08-.1.16-.15.29-.04.08-.46,1.37-.53,1.59.55.08,1.02.21,1.55.44.05-.36.07-.64.07-1.29,0-.15,0-.23-.03-.37l.88.04c-.03.15-.04.2-.04.47-.02.62-.06,1.04-.13,1.48.22.11.53.27.75.4.19.11.22.12.32.17l-.32.92c-.2-.17-.61-.45-.97-.65-.2.52-.41.86-.76,1.23-.31.32-.66.58-1.06.79-.29-.36-.36-.43-.64-.63.53-.25.8-.43,1.09-.74.28-.3.51-.68.62-1.04-.5-.24-.91-.37-1.58-.48-.31.92-.49,1.37-.69,1.72-.26.45-.57.67-.96.67-.64,0-1.12-.57-1.12-1.33,0-.64.31-1.19.87-1.53.37-.22.74-.32,1.32-.34.18-.55.27-.82.44-1.46-.36.03-.53.04-1.21.06-.29.01-.41.02-.55.04l-.03-.82ZM85.41,34.01c-.18.19-.27.43-.27.67,0,.29.15.52.34.52.13,0,.24-.13.4-.44.14-.28.31-.71.46-1.17-.47.07-.71.18-.93.42Z"/>
            <path class="cls-4" d="M92.99,35.71v.49h-.9c.02-.17.03-.34.03-.6v-4.01c0-.27,0-.4-.03-.59.17.01.32.02.6.02h3.98c.3,0,.43,0,.59-.02-.01.18-.02.32-.02.58v4.01c0,.26,0,.45.03.61h-.9v-.48h-3.36ZM96.35,31.81h-3.36v3.1h3.36v-3.1Z"/>
            <path class="cls-4" d="M98.9,32.94c.31.04.44.05,1.13.05h3.73c.69,0,.83,0,1.13-.05v.97c-.28-.04-.36-.04-1.14-.04h-3.72c-.79,0-.86,0-1.14.04v-.97Z"/>
            <path class="cls-4" d="M110.82,36.35c-.58-.71-1.39-1.5-2.15-2.08-.79.88-1.6,1.5-2.67,2.02-.2-.36-.28-.48-.57-.78.54-.21.88-.4,1.4-.77,1.06-.74,1.9-1.76,2.35-2.85l.08-.18q-.11,0-2.32.04c-.34,0-.53.02-.76.06l-.03-.9c.2.04.33.04.62.04h.17l2.46-.04c.39,0,.45-.01.62-.08l.46.48c-.09.11-.15.2-.22.38-.32.75-.67,1.36-1.09,1.93.44.29.82.59,1.29,1.02q.18.15,1.02.97l-.67.73Z"/>
            <path class="cls-4" d="M113.46,36.43c.04-.22.04-.41.04-.79v-4.49c0-.34-.01-.53-.04-.71h.96c-.03.21-.03.3-.03.74v1.3c.96.34,2.06.85,3.18,1.48l-.49.83c-.58-.4-1.31-.8-2.48-1.34-.16-.08-.18-.08-.24-.12.02.2.03.28.03.48v1.85c0,.36,0,.55.03.78h-.96Z"/>
            <path class="cls-4" d="M120.65,33.15s-.02.08-.03.1c0,.01-.01.06-.03.12-.22,1.03-.66,2.04-1.18,2.72-.33-.24-.48-.32-.81-.46.54-.58,1.09-1.83,1.18-2.7l.86.21ZM123.84,31.66c.15,0,.22,0,.38,0-.34-.11-.57-.41-.57-.77,0-.44.37-.8.81-.8s.81.36.81.8c0,.34-.21.64-.53.76v.83c-.23-.03-.34-.04-.89-.04h-1.62v3.4c0,.38,0,.59.03.78h-.95c.03-.19.04-.4.04-.79v-3.39h-1.55c-.54,0-.65,0-.88.04v-.86c.25.04.38.05.9.05h1.54v-.39c0-.4-.01-.55-.04-.72h.95c-.02.19-.03.29-.03.74v.37h1.6ZM123.76,32.94c.22.91.78,2.12,1.24,2.67-.36.18-.49.26-.8.48-.51-.78-.82-1.51-1.15-2.62-.06-.19-.06-.22-.11-.32l.83-.21ZM124.01,30.88c0,.25.2.46.46.46s.46-.21.46-.46-.2-.46-.46-.46-.46.2-.46.46Z"/>
            <path class="cls-4" d="M125.92,32.94c.31.04.44.05,1.13.05h3.73c.69,0,.83,0,1.13-.05v.97c-.28-.04-.36-.04-1.14-.04h-3.72c-.79,0-.86,0-1.14.04v-.97Z"/>
            <path class="cls-4" d="M138.82,31.63c-.07.1-.1.17-.18.42-.32,1.06-.82,2.01-1.44,2.7-.64.74-1.41,1.28-2.49,1.78-.2-.35-.29-.47-.59-.74.7-.29,1.09-.5,1.53-.83,1-.74,1.66-1.7,2.04-2.96l-2.11.04c-.43.68-.97,1.28-1.64,1.79-.21-.29-.31-.38-.68-.6.8-.55,1.3-1.11,1.81-2.03.22-.4.33-.67.36-.92l.96.19q-.04.06-.12.22s-.02.04-.09.2t-.09.18-.11.22c.09,0,.2-.01.34-.01l1.53-.02c.27,0,.35-.01.51-.07l.45.44Z"/>
            <path class="cls-4" d="M144.23,31.8v-.32s0-.22,0-.22c0-.46,0-.62-.04-.78h.9c-.02.16-.03.2-.03.47q0,.43,0,.85h.45c.5,0,.64,0,.91-.05v.85c-.25-.03-.44-.04-.9-.04h-.47c-.01.84-.01.89-.05,1.16-.1.9-.4,1.49-1.01,2.01-.38.32-.72.5-1.37.74-.13-.3-.22-.43-.53-.74.66-.2,1-.37,1.34-.67.47-.41.68-.88.74-1.68.01-.16.01-.33.03-.81h-1.81v1.05c0,.29,0,.41.03.59h-.91c.02-.15.03-.34.03-.6v-1.04h-.43c-.46,0-.65,0-.9.04v-.85c.27.04.41.05.91.05h.41v-.7c0-.29,0-.44-.04-.62h.92c-.03.23-.03.24-.03.6v.72h1.82Z"/>
            <path class="cls-4" d="M147.79,35.28c.6-.04,1.44-.24,2.07-.52.88-.38,1.53-.92,2.08-1.72.31-.45.5-.83.71-1.4.27.33.38.43.74.69-.6,1.28-1.26,2.11-2.22,2.75-.71.48-1.58.82-2.67,1.05-.28.06-.3.06-.46.12l-.26-.97ZM148.38,30.93c.83.52,1.27.84,1.81,1.35l-.6.76c-.56-.59-1.13-1.06-1.79-1.42l.58-.69Z"/>
            <path class="cls-4" d="M155.35,36.43c.03-.2.04-.39.04-.79v-4.49c0-.41-.01-.55-.04-.71h.96c-.02.19-.03.32-.03.74v1.3c.81.27,2.07.85,3.18,1.48l-.49.83c-.49-.35-1.48-.89-2.48-1.34-.16-.08-.18-.08-.24-.12.02.2.03.32.03.48v1.85c0,.38,0,.57.03.78h-.96ZM158.23,30.81c.31.33.5.59.73,1.03l-.49.26c-.23-.43-.43-.71-.73-1.04l.49-.25ZM159.32,31.66c-.21-.38-.44-.71-.71-1.02l.47-.25c.31.32.51.59.73.99l-.48.27Z"/>
            <path class="cls-4" d="M20.54,39.14c-.08.24-.12.42-.25,1.35-.05.29-.08.53-.09.7h.02s.01-.04.04-.15c.07-.25.25-.59.44-.83.39-.48.82-.71,1.33-.71.48,0,.9.22,1.2.63.35.47.5,1.04.5,1.86,0,1.35-.63,2.36-1.81,2.88-.36.16-.85.3-1.37.39-.14-.4-.22-.55-.41-.83.7-.08,1.11-.18,1.53-.4.81-.41,1.18-1.08,1.18-2.14,0-1.01-.34-1.57-.94-1.57-.27,0-.51.12-.76.37-.55.57-.88,1.43-.88,2.26v.15h-.84s0-.06,0-.08v-.13c0-.2-.02-.72-.02-.86,0-.57.04-1.34.1-1.83l.11-.87c.01-.12.02-.15.02-.24l.89.05Z"/>
            <path class="cls-4" d="M26.84,42.28s.04-.05.13-.15c.22-.25.59-.41.9-.41s.63.16.78.4c.14.22.18.48.18,1.28,0,.5.03.64.15.75.08.06.2.1.37.1.37,0,.67-.26.88-.75.13-.32.23-.75.27-1.11.23.24.34.31.77.53-.3,1.45-.99,2.18-2.04,2.18-.54,0-.93-.21-1.1-.61-.08-.18-.12-.43-.12-.78v-.07c0-.25,0-.42,0-.49,0-.22-.01-.32-.05-.41-.05-.1-.18-.16-.32-.16-.38,0-.77.35-1.11.98-.21.4-.5,1.18-.59,1.6l-.9-.29c.1-.2.16-.37.39-.98q1.61-4.47,1.66-4.76l.95.24c-.1.19-.13.27-.34.81-.4,1.02-.71,1.79-.86,2.12h.01Z"/>
            <path class="cls-4" d="M34.23,42.47c-.44.37-.64.67-.64.97,0,.46.51.65,1.69.65.83,0,1.75-.13,2.2-.3l.08.96c-.13,0-.15,0-.31.03-.84.13-1.29.16-1.89.16-.76,0-1.38-.08-1.75-.23-.6-.24-.9-.62-.9-1.17s.27-1,.9-1.53l.61.46ZM33.16,39.59c.54.13,1.16.18,2.1.18.89,0,1.39-.04,1.85-.13l.03.79c-.42.18-1.28.72-1.87,1.16l-.61-.48c.44-.28.52-.33.69-.43.07-.04.09-.06.18-.11.05-.03.06-.03.15-.08-.31.04-.61.06-1.05.06-.36,0-.94-.04-1.28-.08-.08,0-.13-.01-.16-.01-.01,0-.05,0-.1,0l.06-.83ZM36.86,41.15c.31.33.5.59.74,1.03l-.49.26c-.23-.43-.43-.71-.74-1.04l.49-.25ZM37.95,42c-.21-.38-.44-.71-.71-1.02l.47-.24c.31.32.51.59.73.99l-.48.27Z"/>
            <path class="cls-4" d="M45.1,40.38c-.07.1-.1.17-.18.42-.32,1.06-.82,2.01-1.44,2.7-.64.74-1.41,1.28-2.49,1.78-.2-.35-.29-.47-.59-.74.7-.29,1.09-.5,1.53-.83,1-.74,1.66-1.7,2.04-2.96l-2.11.04c-.43.68-.97,1.28-1.64,1.79-.21-.29-.31-.38-.68-.6.8-.55,1.3-1.11,1.81-2.03.22-.4.33-.67.36-.92l.96.19q-.04.06-.12.22s-.02.04-.09.2t-.09.18-.11.22c.09,0,.2-.01.34-.01l1.53-.02c.27,0,.35-.01.51-.07l.45.44Z"/>
            <path class="cls-4" d="M52.07,41.48c-.07.13-.11.22-.2.44-.37,1.03-.9,1.81-1.62,2.37-.5.38-.95.62-1.84.95-.15-.35-.24-.47-.54-.81.85-.22,1.41-.48,1.95-.92.52-.43.82-.86,1.13-1.64h-3.41c-.47,0-.64,0-.9.04v-.85c.27.04.42.05.91.05h3.33c.43,0,.57-.01.79-.06l.4.45ZM47.23,39.36c.23.04.38.05.82.05h2.44c.44,0,.59,0,.82-.05v.86c-.22-.03-.35-.04-.8-.04h-2.47c-.46,0-.59,0-.81.04v-.86Z"/>
            <path class="cls-4" d="M58.69,40.15c-.06.12-.08.17-.12.32-.35,1.34-.76,2.18-1.44,2.93-.69.77-1.44,1.28-2.61,1.79-.2-.38-.29-.51-.62-.83.62-.2,1.01-.38,1.53-.71,1.09-.71,1.78-1.7,2.12-3.05h-3.33c-.47,0-.63,0-.88.04v-.91c.27.04.42.05.9.05h3.21c.39,0,.53-.01.75-.07l.48.46Z"/>
            <path class="cls-4" d="M60.83,45.18c.04-.22.04-.41.04-.79v-4.49c0-.34-.01-.53-.04-.71h.96c-.03.21-.03.3-.03.74v1.3c.96.34,2.06.85,3.18,1.48l-.49.83c-.58-.4-1.31-.8-2.48-1.34-.16-.08-.18-.08-.24-.12.02.2.03.28.03.48v1.85c0,.36,0,.55.03.78h-.96Z"/>
            <path class="cls-4" d="M67.38,44.52c-.48,0-.65,0-.86.03v-.9c.26.04.38.05.88.05h3.19v-3.05h-3.07c-.5,0-.64,0-.9.04v-.91c.26.04.39.05.9.05h3.37q.36,0,.61-.01c-.02.19-.02.26-.02.58v3.84c0,.35,0,.55.04.72h-.94v-.43h-3.19Z"/>
            <path class="cls-4" d="M73.22,41.69c.31.04.44.05,1.13.05h3.73c.69,0,.83,0,1.13-.05v.97c-.28-.04-.36-.04-1.14-.04h-3.72c-.79,0-.86,0-1.14.04v-.97Z"/>
            <path class="cls-4" d="M86.14,41.48c-.07.13-.11.22-.2.44-.37,1.03-.9,1.81-1.62,2.37-.5.38-.95.62-1.84.95-.15-.35-.24-.47-.54-.81.85-.22,1.41-.48,1.95-.92.52-.43.82-.86,1.13-1.64h-3.41c-.47,0-.64,0-.9.04v-.85c.27.04.42.05.91.05h3.33c.43,0,.57-.01.79-.06l.4.45ZM81.3,39.36c.23.04.38.05.82.05h2.44c.44,0,.59,0,.82-.05v.86c-.22-.03-.35-.04-.8-.04h-2.47c-.46,0-.59,0-.81.04v-.86Z"/>
            <path class="cls-4" d="M92.63,38.91l-5.31,6.58h-1.03l5.3-6.58h1.04Z"/>
            <path class="cls-4" d="M94.02,41.8q0-.32,0-.54c-.27.34-.44.51-.77.81-.13-.25-.24-.39-.5-.66.5-.42.8-.76,1.12-1.25.29-.46.48-.9.55-1.27l.85.18c-.07.13-.08.15-.13.29-.06.15-.11.26-.18.41h3.38c.36,0,.55,0,.76-.04q-.03.27-.04,1.04c-.01,1.56-.13,3.13-.29,3.87-.13.61-.38.78-1.14.78-.22,0-.58-.02-1.01-.06-.02-.29-.05-.46-.16-.78.48.08.79.11,1.13.11.37,0,.44-.1.52-.81.1-.76.15-1.94.17-3.42h-3.71c-.15.25-.23.36-.39.58.17,0,.33.01.53.01h1.81c.29,0,.48,0,.73-.04-.02.22-.04.5-.04.81v2c0,.17,0,.29.02.46-.2-.01-.4-.02-.66-.02h-1.8v.46h-.78c.02-.22.04-.49.04-.8v-2.15ZM94.76,42.37h1.7v-.67h-1.7v.67ZM94.76,43.66h1.7v-.71h-1.7v.71Z"/>
            <path class="cls-4" d="M100.89,41.06c.65.26,1.34.61,1.86.95l-.43.79c-.46-.36-1.25-.78-1.9-1.02l.47-.72ZM100.57,44.19c.55,0,1.28-.17,2.02-.46,1.28-.45,2.33-1.6,2.84-3.09.27.29.41.41.73.62-.87,2.12-2.35,3.27-4.86,3.76-.3.06-.36.08-.49.12l-.24-.96ZM101.43,39.36c.66.25,1.36.59,1.86.9l-.45.77c-.57-.39-1.36-.8-1.87-.96l.46-.71ZM105.07,39.22c.31.33.5.6.74,1.03l-.49.26c-.23-.43-.43-.71-.74-1.04l.49-.25ZM106.15,40.07c-.21-.38-.44-.71-.71-1.02l.47-.25c.32.32.51.59.73.99l-.48.27Z"/>
            <path class="cls-4" d="M108.81,40.92c-.05-.3-.07-.37-.13-.53l.83-.13c0,.14.02.29.07.54l.11.54,2.09-.35c.2-.03.32-.06.46-.12l.49.44c-.06.09-.11.17-.18.34-.31.78-.71,1.3-1.38,1.82-.25-.27-.36-.34-.65-.5.52-.32.9-.73,1.19-1.25q-.08.02-.26.05l-1.65.27.5,2.59q.07.39.13.57l-.88.15c0-.18-.01-.34-.06-.57l-.48-2.61-.6.1c-.25.04-.41.08-.62.15l-.15-.8c.22,0,.4-.02.67-.06l.58-.1-.11-.55Z"/>
            <path class="cls-4" d="M116.81,39.38c-.08.15-.08.17-.18.5-.53,1.75-.94,2.91-1.39,3.99,1.1-.08,2.31-.23,2.91-.36-.08-.17-.16-.32-.33-.64-.31-.58-.43-.78-.67-1.11l.79-.31c.65.95,1.27,2.13,1.69,3.24l-.85.44q-.09-.29-.34-.87-.09.02-.25.06c-.71.15-1.87.29-3.96.5-.39.04-.5.05-.64.08l-.12-.95h.18c.14,0,.31,0,.6-.02.37-.88.65-1.67,1.02-2.82.33-1.03.46-1.53.51-1.94l1.02.2Z"/>
            <path class="cls-4" d="M122.66,45.49c-.39-.56-.57-.87-.76-1.38-.25-.64-.37-1.26-.37-1.93s.11-1.24.36-1.87c.2-.51.37-.82.77-1.38h.98c-.49.62-.69.93-.89,1.39-.25.57-.37,1.17-.37,1.86s.12,1.34.37,1.92c.2.46.39.77.89,1.39h-.98Z"/>
            <path class="cls-4" d="M125.53,43.35c0-.14,0-.25-.01-.41-.3.1-.42.14-.82.25-.11-.37-.15-.48-.34-.74,1.11-.22,1.77-.47,2.67-1-.37-.31-.57-.51-.81-.82-.37.34-.71.58-1.24.86-.14-.28-.24-.41-.46-.62.5-.25.71-.38,1.02-.63.54-.44.93-.91,1.15-1.37l.84.15c-.15.25-.21.33-.32.48h1.47c.28,0,.44,0,.62-.04l.41.47c-.11.12-.15.18-.41.5-.22.28-.6.67-.97.99.79.42,1.46.66,2.56.89-.15.27-.22.45-.32.78-.41-.11-.56-.16-.79-.23-.01.14-.01.27-.01.46v1.41c0,.29,0,.48.04.69h-.8v-.38h-2.75v.38h-.78c.03-.22.04-.42.04-.69v-1.41ZM129.36,42.74c-.79-.29-1.11-.45-1.67-.8-.53.34-1.04.6-1.58.8h3.26ZM126.28,44.41h2.75v-1.02h-2.75v1.02ZM126.7,40.16c.34.4.58.61.97.88.36-.27.55-.47.9-.89h-1.87Z"/>
            <path class="cls-4" d="M133.97,41.5c-.14-.02-.26-.03-.45-.03h-.1c.24.5.38.71.66,1-.15.21-.25.41-.33.65-.16-.25-.26-.42-.4-.76.01.18.02.22.02.41,0,.06,0,.13,0,.22,0,.11,0,.2,0,.26v1.37c0,.39,0,.6.04.83h-.77c.03-.26.04-.49.04-.83v-1.11q0-.34.01-.52c0-.17,0-.25.02-.44-.16.55-.39,1.02-.73,1.52-.1-.3-.2-.5-.36-.73.3-.39.48-.68.69-1.15.12-.27.23-.55.29-.74h-.29c-.19,0-.34,0-.5.04v-.74c.17.03.32.04.52.04h.35v-.79c-.2.05-.33.07-.67.13-.08-.27-.14-.41-.27-.65.6-.06,1.21-.2,1.72-.41.12-.06.18-.08.26-.13l.38.62s-.2.07-.38.14c-.07.03-.12.05-.34.12v.97h.15c.16,0,.26,0,.38-.01v-.64c.17.03.38.04.65.04h1.05v-.29c-.38.02-.63.03-1.25.04-.07-.25-.15-.41-.26-.59.27,0,.47,0,.56,0,1.13,0,2.44-.15,2.9-.33l.46.6q-.05,0-.21.04c-.37.08-.9.15-1.52.2v.34h1.19c.28,0,.51-.01.7-.04v.66c-.18-.02-.38-.03-.65-.03h-1.24v.29h.9c.34,0,.49,0,.67-.02-.02.17-.02.28-.02.59v1.12c0,.34,0,.47.02.65-.18-.01-.31-.02-.6-.02h-.97v.33h.95c.36,0,.52,0,.69-.04v.66c-.23-.02-.44-.03-.69-.03h-.95v.34h1.16c.31,0,.57-.01.76-.04v.68c-.2-.03-.44-.04-.79-.04h-2.88c-.34,0-.6.01-.78.04v-.67c.16.01.44.03.76.03h1.09v-.34h-.91c-.32,0-.48,0-.69.02v-.64c.19.02.34.03.69.03h.9v-.33h-.88c-.3,0-.44,0-.6.02.01-.18.02-.34.02-.67v-1.09c0-.32,0-.44-.02-.6.18.01.33.02.65.02h.82v-.29h-1.04c-.22,0-.46,0-.6.01v.72ZM134.81,41.61v.34h.8v-.34h-.8ZM134.81,42.46v.34h.8v-.34h-.8ZM137.17,41.95v-.34h-.88v.34h.88ZM137.17,42.8v-.34h-.88v.34h.88Z"/>
            <path class="cls-4" d="M138.98,45.49c.5-.62.69-.93.89-1.39.25-.58.37-1.21.37-1.92s-.11-1.28-.36-1.86c-.2-.46-.41-.78-.9-1.39h.99c.39.55.56.86.76,1.38.25.64.36,1.21.36,1.87s-.12,1.29-.37,1.93c-.2.51-.37.82-.76,1.38h-.99Z"/>
            <path class="cls-4" d="M143.59,42.58q0-.17.02-.77c-.17.29-.34.53-.59.81-.1-.29-.18-.48-.36-.83.52-.51.93-1.17,1.24-1.93.14-.35.24-.69.27-.95l.79.24c-.06.16-.07.2-.14.4-.16.47-.26.71-.49,1.16v3.9c0,.33.01.58.04.85h-.82c.03-.25.04-.48.04-.85v-2.02ZM145.94,41.81v2.45c0,.14.04.18.19.22.17.04.38.06.88.06.79,0,1.09-.03,1.25-.13.08-.05.14-.17.17-.32.02-.13.03-.22.05-.55.31.13.43.16.76.22-.08.8-.18,1.07-.39,1.24-.27.19-.73.25-2.01.25s-1.64-.14-1.64-.7v-2.49c-.06.02-.11.04-.14.04-.2.07-.27.1-.41.16l-.06-.8c.17-.02.37-.07.61-.14v-.83c0-.33,0-.52-.04-.74h.83c-.04.2-.04.39-.04.71v.62l.72-.23v-1.14c0-.28-.01-.46-.04-.7h.81c-.03.22-.04.39-.04.68v.93l1.02-.33c.27-.08.43-.15.57-.21,0,.15,0,.2,0,.38-.01.84-.06,1.81-.12,2.26-.07.53-.25.68-.79.68-.13,0-.21,0-.38-.02-.04-.27-.08-.43-.2-.71.18.04.37.06.48.06.15,0,.18-.05.22-.38.04-.27.06-.74.06-1.29l-.86.28v1.82c0,.29,0,.46.04.7h-.81c.04-.22.04-.4.04-.72v-1.56l-.72.23Z"/>
          </g>
          <g>
            <path class="cls-5" d="M26.57,8.15v4.65h-1.42v-4.65h-.78v-1.14h.78v-.59c0-1.03.78-1.48,1.59-1.48h.82v1.23h-.46c-.3,0-.53.14-.53.48v.36h.99v1.14h-.99Z"/>
            <path class="cls-5" d="M31.42,12.95c-2.24,0-3.01-1.57-3.01-2.99,0-1.93,1.39-3.08,3.04-3.08,1.93,0,3.03,1.38,3.03,3.06,0,1.49-.91,3.02-3.06,3.02ZM31.46,8c-.8,0-1.58.62-1.58,1.9,0,1.1.6,1.92,1.63,1.92,1.34,0,1.54-1.18,1.54-1.91,0-1.33-.79-1.91-1.58-1.91Z"/>
            <path class="cls-5" d="M38.7,12.95c-2.24,0-3.01-1.57-3.01-2.99,0-1.93,1.39-3.08,3.04-3.08,1.93,0,3.03,1.38,3.03,3.06,0,1.49-.91,3.02-3.06,3.02ZM38.73,8c-.8,0-1.58.62-1.58,1.9,0,1.1.6,1.92,1.63,1.92,1.34,0,1.54-1.18,1.54-1.91,0-1.33-.79-1.91-1.58-1.91Z"/>
            <path class="cls-5" d="M46.76,12.81v-.29l.06-.47c-.18.34-.48.9-1.45.9-1.49,0-2.42-1.13-2.42-2.97s.98-3.1,2.34-3.1c1,0,1.37.62,1.54.92l-.06-.6v-2.24h1.43v7.86h-1.43ZM45.59,8.12c-1.17,0-1.22,1.47-1.22,1.8,0,.96.43,1.72,1.2,1.72.57,0,1.2-.46,1.2-1.71,0-.5-.08-1.81-1.17-1.81Z"/>
            <path class="cls-5" d="M54.93,12.81l-.56-.73c-.36.3-1.2.99-2.35.99-1.36,0-2.42-.95-2.42-2.28,0-1.41,1.2-2.17,1.84-2.57l-.11-.14c-.12-.15-.62-.82-.62-1.54,0-1.07.86-1.84,2.03-1.84,1.07,0,1.93.66,1.93,1.8,0,1.06-.74,1.59-1.39,2.04l1.11,1.46c.25-.58.27-.92.28-1.22h1.37c-.08.88-.27,1.5-.8,2.34l1.29,1.7h-1.59ZM52.15,9.16c-.53.32-1.11.7-1.11,1.5,0,.75.51,1.18,1.13,1.18.69,0,1.2-.51,1.45-.75l-1.48-1.93ZM52.7,5.8c-.34,0-.69.24-.69.68,0,.4.21.67.27.75l.26.33c.3-.22.82-.58.82-1.12,0-.38-.3-.65-.66-.65Z"/>
            <path class="cls-5" d="M61.16,12.81v-.29l.06-.47c-.18.34-.48.9-1.45.9-1.49,0-2.42-1.13-2.42-2.97s.98-3.1,2.34-3.1c1,0,1.37.62,1.54.92l-.06-.6v-2.24h1.43v7.86h-1.43ZM59.98,8.12c-1.17,0-1.22,1.47-1.22,1.8,0,.96.43,1.72,1.2,1.72.57,0,1.2-.46,1.2-1.71,0-.5-.08-1.81-1.17-1.81Z"/>
            <path class="cls-5" d="M65.39,10.33c.05.29.27,1.46,1.41,1.46.26,0,.82-.06,1.06-.7h1.43c-.18.48-.68,1.85-2.56,1.85-1.57,0-2.76-1.04-2.76-3.03s1.28-3.05,2.71-3.05c.96,0,1.7.44,2.13,1.1.5.75.55,1.54.58,2.36h-4.01ZM66.7,8.04c-1.06,0-1.24,1-1.3,1.37h2.47c-.03-.91-.45-1.37-1.16-1.37Z"/>
            <path class="cls-5" d="M72.92,12.95c-.41,0-1.27-.08-1.87-.68-.33-.33-.46-.62-.53-1.36h1.42c.04.28.16.9,1.04.9.12,0,.83,0,.83-.57,0-.4-.29-.53-1.21-.85-1.18-.43-1.98-.71-1.98-1.77,0-.97.93-1.76,2.25-1.76.48,0,1.17.1,1.69.6.36.36.46.66.53,1.31h-1.42c-.03-.42-.22-.79-.83-.79-.57,0-.8.32-.8.54,0,.29.27.39.72.56,1.44.55,1.5.58,1.83.81.41.29.65.73.65,1.24,0,1.13-1.07,1.8-2.33,1.8Z"/>
            <path class="cls-5" d="M76.76,6.34v-1.4h1.42v1.4h-1.42ZM76.76,12.81v-5.8h1.42v5.8h-1.42Z"/>
            <path class="cls-5" d="M84.54,8.25c.03.11.06.23.06.43,0,.93-.68,1.83-2.35,1.83-.31,0-.46-.02-.61-.04-.27.08-.38.15-.38.3,0,.27.47.32.86.36,1.49.11,2.13.17,2.56.6.23.23.37.56.37.94,0,1.03-1.13,1.58-2.94,1.58-1.36,0-2.47-.29-2.47-1.24,0-.83.69-.95.94-.99-.28-.1-.77-.27-.77-.8s.53-.88.85-1.09c-.27-.17-.8-.53-.8-1.4,0-1.23,1.13-1.86,2.46-1.86,1.04,0,1.5.38,1.71.57.43-.48.6-.57,1.18-.57v1.04c-.26,0-.39,0-.69.33ZM82.27,7.95c-.76,0-1.12.38-1.12.81,0,.68.8.7,1.06.7s1.11-.04,1.11-.75c0-.55-.5-.75-1.04-.75ZM82.65,12.24c-.13-.01-.79-.02-.93-.03-.39.14-.57.23-.57.53,0,.18.01.46,1.21.46,1.07,0,1.15-.21,1.15-.45,0-.36-.46-.46-.86-.51Z"/>
            <path class="cls-5" d="M90.09,12.81v-3.66c0-.65-.27-1.08-.98-1.08-.58,0-1.27.29-1.27,1.36v3.38h-1.42v-5.8h1.42v.49l-.05.5c.23-.4.66-1.12,1.79-1.12,1.23,0,1.94.73,1.94,2.05v3.89h-1.42Z"/>
            <path class="cls-5" d="M100.23,13.07c-2.61,0-3.76-1.96-3.76-4.12s1.07-4.27,3.87-4.27c2.24,0,3.21,1.49,3.34,2.74h-1.54c-.3-1.45-1.55-1.45-1.77-1.45-1.23,0-2.36.99-2.36,2.96,0,1.84.99,2.87,2.2,2.87.52,0,1.03-.19,1.43-.58.36-.34.43-.61.5-1.06h1.54c-.14,1.31-1.14,2.91-3.45,2.91Z"/>
            <path class="cls-5" d="M108.53,13.07c-2.33,0-3.93-1.66-3.93-4.19s1.62-4.19,3.93-4.19,3.94,1.65,3.94,4.19-1.62,4.19-3.94,4.19ZM108.53,6c-1.35,0-2.4,1.01-2.4,2.88s1.04,2.89,2.4,2.89,2.41-1.1,2.41-2.89-1-2.88-2.41-2.88Z"/>
            <path class="cls-5" d="M118.76,12.81l-3.1-5.01-.59-1.29.15,1.76v4.55h-1.4v-7.86h1.55l3.1,5.01.59,1.29-.15-1.76v-4.55h1.4v7.86h-1.55Z"/>
            <path class="cls-5" d="M125.57,12.81h-1.45l-2.8-7.86h1.56l1.72,5.45.25,1.09.24-1.09,1.73-5.45h1.55l-2.8,7.86Z"/>
            <path class="cls-5" d="M129.35,12.81v-7.86h5.95v1.23h-4.5v1.95h4.16v1.13h-4.16v2.33h4.68v1.23h-6.12Z"/>
            <path class="cls-5" d="M140.45,9.78v3.03h-1.45v-3.03l-2.78-4.84h1.64l1.62,3.08.26.54.25-.54,1.62-3.08h1.64l-2.78,4.84Z"/>
          </g>
        </g>
      </g>
    </g>
  </g>
</svg>