<?xml version="1.0" encoding="UTF-8"?>
<svg xmlns="http://www.w3.org/2000/svg" viewBox="0 0 167.6 44.74">
  <defs>
    <style>
      .cls-1 {
        mix-blend-mode: multiply;
      }

      .cls-1, .cls-2 {
        fill: #ef8586;
      }

      .cls-3 {
        isolation: isolate;
      }

      .cls-4 {
        fill: #231815;
      }

      .cls-5 {
        fill: #fff;
      }
    </style>
  </defs>
  <g class="cls-3">
    <g id="_レイヤー_2" data-name="レイヤー_2">
      <g id="_テキスト_xFF08_B_xFF09_" data-name="テキスト_xFF08_B_xFF09_">
        <g>
          <rect class="cls-2" width="167.6" height="17.49"/>
          <rect class="cls-1" width="8.29" height="17.49"/>
          <g>
            <path class="cls-4" d="M16.41,23.8c.65.26,1.34.61,1.86.95l-.43.79c-.46-.36-1.25-.78-1.9-1.02l.47-.72ZM16.09,26.94c.55,0,1.28-.17,2.02-.46,1.28-.45,2.33-1.6,2.84-3.09.27.29.41.41.73.62-.87,2.12-2.35,3.27-4.86,3.76-.3.06-.36.08-.49.12l-.24-.96ZM16.95,22.1c.66.25,1.36.59,1.86.9l-.45.77c-.57-.39-1.36-.8-1.87-.96l.46-.71ZM20.59,21.96c.31.33.5.6.74,1.03l-.49.26c-.23-.43-.43-.71-.74-1.04l.49-.25ZM21.67,22.81c-.21-.38-.44-.71-.71-1.02l.47-.25c.32.32.51.59.73.99l-.48.27Z"/>
            <path class="cls-4" d="M24.19,23.67c-.05-.3-.07-.37-.13-.53l.83-.13c0,.14.02.29.07.54l.11.54,2.09-.35c.2-.03.32-.06.46-.12l.49.44c-.06.09-.11.17-.18.34-.31.78-.71,1.3-1.38,1.82-.25-.27-.36-.34-.65-.5.52-.32.9-.73,1.19-1.25q-.08.02-.26.05l-1.65.27.5,2.59q.07.39.13.57l-.88.15c0-.18-.01-.34-.06-.57l-.48-2.61-.6.1c-.25.04-.41.08-.62.15l-.15-.8c.22,0,.4-.02.67-.06l.58-.1-.11-.55Z"/>
            <path class="cls-4" d="M29.49,24.44c.31.04.44.05,1.13.05h3.73c.69,0,.83,0,1.13-.05v.97c-.28-.04-.36-.04-1.14-.04h-3.72c-.79,0-.86,0-1.14.04v-.97Z"/>
            <path class="cls-4" d="M37.17,23.8c.65.26,1.34.61,1.86.95l-.43.79c-.46-.36-1.25-.78-1.9-1.02l.47-.72ZM36.86,26.94c.55,0,1.28-.17,2.02-.46,1.28-.45,2.33-1.6,2.84-3.09.27.29.41.41.73.62-.87,2.12-2.35,3.27-4.86,3.76-.3.06-.36.08-.49.12l-.24-.96ZM37.71,22.1c.66.25,1.36.59,1.86.9l-.45.77c-.57-.39-1.36-.8-1.87-.96l.46-.71ZM41.35,21.96c.31.33.5.6.74,1.03l-.49.26c-.23-.43-.43-.71-.74-1.04l.49-.25ZM42.44,22.81c-.21-.38-.44-.71-.71-1.02l.47-.25c.32.32.51.59.73.99l-.48.27Z"/>
            <path class="cls-4" d="M43.57,24.44c.31.04.44.05,1.13.05h3.73c.69,0,.83,0,1.13-.05v.97c-.28-.04-.36-.04-1.14-.04h-3.72c-.79,0-.86,0-1.14.04v-.97Z"/>
            <path class="cls-4" d="M53.07,23.67c-.02.13-.02.14-.03.57-.03,1.2-.22,1.87-.69,2.48-.42.54-.93.9-1.81,1.26-.18-.38-.27-.5-.55-.8.57-.17.88-.32,1.22-.59.71-.57.94-1.17.94-2.49,0-.21,0-.27-.04-.42h.95ZM55.91,22.78c-.1.12-.1.13-.28.49-.25.52-.65,1.04-1.08,1.41-.28.25-.51.4-.84.58-.21-.29-.31-.4-.63-.64.47-.21.73-.37,1.02-.64.29-.27.5-.55.67-.89h-3.68c-.49,0-.66,0-.95.04v-.88c.27.04.48.06.96.06h3.66c.42,0,.48,0,.68-.06l.47.53Z"/>
            <path class="cls-4" d="M62,22.48c-.12.11-.15.13-.26.25-.53.55-1.05,1-1.65,1.44v2.99c0,.38,0,.59.04.78h-.98c.04-.2.04-.34.04-.76v-2.46c-.82.49-1.21.67-2.5,1.13-.15-.36-.22-.48-.47-.8,1.39-.38,2.56-.96,3.68-1.82.62-.48,1.1-.97,1.3-1.31l.8.56Z"/>
            <path class="cls-4" d="M68.36,27.84c-.58-.71-1.39-1.5-2.15-2.08-.79.88-1.6,1.5-2.67,2.02-.2-.36-.28-.48-.57-.78.54-.21.88-.4,1.4-.77,1.06-.74,1.9-1.76,2.35-2.85l.08-.18q-.11,0-2.32.04c-.34,0-.53.02-.76.06l-.03-.9c.2.04.33.04.62.04h.17l2.46-.04c.39,0,.45-.01.62-.08l.46.48c-.09.11-.15.2-.22.38-.32.75-.67,1.36-1.09,1.93.44.29.82.59,1.29,1.02q.18.15,1.02.97l-.67.73Z"/>
            <path class="cls-4" d="M75.32,23.13c-.07.1-.1.17-.18.42-.32,1.06-.82,2.01-1.44,2.7-.64.74-1.41,1.28-2.49,1.78-.2-.35-.29-.47-.59-.74.7-.29,1.09-.5,1.53-.83,1-.74,1.66-1.7,2.04-2.96l-2.11.04c-.43.68-.97,1.28-1.64,1.79-.21-.29-.31-.38-.68-.6.8-.55,1.3-1.11,1.81-2.03.22-.4.33-.67.36-.92l.96.19q-.04.06-.12.22s-.02.04-.09.2t-.09.18-.11.22c.09,0,.2-.01.34-.01l1.53-.02c.27,0,.35-.01.51-.07l.45.44Z"/>
            <path class="cls-4" d="M78.09,22.09c-.03.2-.03.26-.03.63v1.93c0,.35,0,.44.03.62h-.96c.02-.16.04-.38.04-.63v-1.93c0-.36,0-.45-.03-.63h.95ZM81.27,22.1c-.03.17-.04.25-.04.65v.95c0,1.09-.05,1.68-.18,2.12-.2.7-.65,1.23-1.38,1.63-.37.21-.72.35-1.37.54-.12-.34-.2-.46-.49-.83.69-.13,1.09-.28,1.51-.56.66-.43.89-.86.97-1.79.03-.3.04-.61.04-1.17v-.88c0-.36,0-.5-.04-.67h.97Z"/>
            <path class="cls-4" d="M83.02,24.44c.31.04.44.05,1.13.05h3.73c.69,0,.83,0,1.13-.05v.97c-.28-.04-.36-.04-1.14-.04h-3.72c-.79,0-.86,0-1.14.04v-.97Z"/>
            <path class="cls-4" d="M92.98,22.12c-.08.15-.08.17-.18.5-.53,1.75-.94,2.91-1.39,3.99,1.1-.08,2.31-.23,2.91-.36-.08-.17-.16-.32-.33-.64-.31-.58-.43-.78-.67-1.11l.79-.31c.65.95,1.27,2.13,1.69,3.24l-.85.44q-.09-.29-.34-.87-.09.02-.25.06c-.71.15-1.87.29-3.96.5-.39.04-.5.05-.64.08l-.12-.95h.18c.14,0,.31,0,.6-.02.37-.88.65-1.67,1.02-2.82.33-1.03.46-1.53.51-1.94l1.02.2Z"/>
            <path class="cls-4" d="M98.69,28.23c-.39-.56-.57-.87-.76-1.38-.25-.64-.37-1.26-.37-1.93s.11-1.24.36-1.87c.2-.51.37-.82.77-1.38h.98c-.49.62-.69.93-.89,1.39-.25.57-.37,1.17-.37,1.86s.12,1.34.37,1.92c.2.46.39.77.89,1.39h-.98Z"/>
            <path class="cls-4" d="M102.82,27.75h-.81v-1.66h-1.66v-.81h1.66v-1.66h.81v1.66h1.66v.81h-1.66v1.66Z"/>
            <path class="cls-4" d="M110.53,27.84c-.58-.71-1.39-1.5-2.15-2.08-.79.88-1.6,1.5-2.67,2.02-.2-.36-.28-.48-.57-.78.54-.21.88-.4,1.4-.77,1.06-.74,1.9-1.76,2.35-2.85l.08-.18q-.11,0-2.32.04c-.34,0-.53.02-.76.06l-.03-.9c.2.04.33.04.62.04h.17l2.46-.04c.39,0,.45-.01.62-.08l.46.48c-.09.11-.15.2-.22.38-.32.75-.67,1.36-1.09,1.93.44.29.82.59,1.29,1.02q.18.15,1.02.97l-.67.73Z"/>
            <path class="cls-4" d="M117.34,22.48c-.12.11-.15.13-.26.25-.53.55-1.05,1-1.65,1.44v2.99c0,.38,0,.59.04.78h-.98c.04-.2.04-.34.04-.76v-2.46c-.82.49-1.21.67-2.5,1.13-.15-.36-.22-.48-.47-.8,1.39-.38,2.56-.96,3.68-1.82.62-.48,1.1-.97,1.3-1.31l.8.56Z"/>
            <path class="cls-4" d="M123.97,23.47c-.05.13-.07.22-.08.47-.02.79-.1,1.87-.17,2.33-.18,1.21-.43,1.5-1.27,1.5-.27,0-.5-.02-.87-.08-.01-.44-.04-.57-.16-.9.41.11.69.16.92.16.3,0,.41-.15.52-.76.08-.48.15-1.44.15-2.24h-1.63c-.1.88-.25,1.41-.56,2.01-.38.74-1.01,1.38-1.89,1.94-.24-.37-.34-.48-.63-.74.88-.46,1.45-1.02,1.82-1.76.19-.39.29-.73.36-1.22.01-.1.03-.17.04-.22h-1.16c-.43,0-.53.01-.76.04v-.86c.23.04.42.06.77.06h1.23c.02-.27.03-.68.03-.88v-.17c0-.09,0-.15-.02-.27l.94.02c-.01.09-.02.12-.03.22,0,.04,0,.08,0,.13q-.01.15-.03.51c0,.15,0,.22-.03.44h1.55c.31,0,.38-.01.55-.07l.4.35Z"/>
            <path class="cls-4" d="M126.15,22.38c.43.76.64,1.25.95,2.23l-.91.32c-.2-.8-.53-1.65-.89-2.26l.86-.29ZM130.56,22.59c-.06.15-.08.21-.19.69-.27,1.26-.83,2.41-1.55,3.23-.55.63-1.16,1.08-2.02,1.53-.23-.37-.34-.49-.64-.76.82-.35,1.41-.76,1.95-1.34.5-.55.86-1.15,1.14-1.99.2-.61.33-1.16.35-1.58l.97.22Z"/>
            <path class="cls-4" d="M131.72,24.44c.31.04.44.05,1.13.05h3.73c.69,0,.83,0,1.13-.05v.97c-.28-.04-.36-.04-1.14-.04h-3.72c-.79,0-.86,0-1.14.04v-.97Z"/>
            <path class="cls-4" d="M143.49,27.84c-.58-.71-1.39-1.5-2.15-2.08-.79.88-1.6,1.5-2.67,2.02-.2-.36-.28-.48-.57-.78.54-.21.88-.4,1.4-.77,1.06-.74,1.9-1.76,2.35-2.85l.08-.18q-.11,0-2.32.04c-.34,0-.53.02-.76.06l-.03-.9c.2.04.33.04.62.04h.17l2.46-.04c.39,0,.45-.01.62-.08l.46.48c-.09.11-.15.2-.22.38-.32.75-.67,1.36-1.09,1.93.44.29.82.59,1.29,1.02q.18.15,1.02.97l-.67.73Z"/>
            <path class="cls-4" d="M144.98,28.23c.5-.62.69-.93.89-1.39.25-.58.37-1.21.37-1.92s-.11-1.28-.36-1.86c-.2-.46-.41-.78-.9-1.39h.99c.39.55.56.86.76,1.38.25.64.36,1.21.36,1.87s-.12,1.29-.37,1.93c-.2.51-.37.82-.76,1.38h-.99Z"/>
            <path class="cls-4" d="M2.4,32.05c.65.26,1.34.61,1.86.95l-.43.79c-.46-.36-1.25-.78-1.9-1.02l.47-.72ZM2.09,35.19c.55,0,1.28-.17,2.02-.46,1.28-.45,2.33-1.6,2.84-3.09.27.29.41.41.73.62-.87,2.12-2.35,3.27-4.86,3.76-.3.06-.36.08-.49.12l-.24-.96ZM2.94,30.35c.66.25,1.36.59,1.86.9l-.45.77c-.57-.39-1.36-.8-1.87-.96l.46-.71ZM6.58,30.21c.31.33.5.6.74,1.03l-.49.26c-.23-.43-.43-.71-.74-1.04l.49-.25ZM7.67,31.06c-.21-.38-.44-.71-.71-1.02l.47-.25c.32.32.51.59.73.99l-.48.27Z"/>
            <path class="cls-4" d="M10.19,31.92c-.05-.3-.07-.37-.13-.53l.83-.13c0,.14.02.29.07.54l.11.54,2.09-.35c.2-.03.32-.06.46-.12l.49.44c-.06.09-.11.17-.18.34-.31.78-.71,1.3-1.38,1.82-.25-.27-.36-.34-.65-.5.52-.32.9-.73,1.19-1.25q-.08.02-.26.05l-1.65.27.5,2.59q.07.39.13.57l-.88.15c0-.18-.01-.34-.06-.57l-.48-2.61-.6.1c-.25.04-.41.08-.62.15l-.15-.8c.22,0,.4-.02.67-.06l.58-.1-.11-.55Z"/>
            <path class="cls-4" d="M15.48,32.69c.31.04.44.05,1.13.05h3.73c.69,0,.83,0,1.13-.05v.97c-.28-.04-.36-.04-1.14-.04h-3.72c-.79,0-.86,0-1.14.04v-.97Z"/>
            <path class="cls-4" d="M23.17,32.05c.65.26,1.34.61,1.86.95l-.43.79c-.46-.36-1.25-.78-1.9-1.02l.47-.72ZM22.85,35.19c.55,0,1.28-.17,2.02-.46,1.28-.45,2.33-1.6,2.84-3.09.27.29.41.41.73.62-.87,2.12-2.35,3.27-4.86,3.76-.3.06-.36.08-.49.12l-.24-.96ZM23.71,30.35c.66.25,1.36.59,1.86.9l-.45.77c-.57-.39-1.36-.8-1.87-.96l.46-.71ZM27.35,30.21c.31.33.5.6.74,1.03l-.49.26c-.23-.43-.43-.71-.74-1.04l.49-.25ZM28.44,31.06c-.21-.38-.44-.71-.71-1.02l.47-.25c.32.32.51.59.73.99l-.48.27Z"/>
            <path class="cls-4" d="M29.57,32.69c.31.04.44.05,1.13.05h3.73c.69,0,.83,0,1.13-.05v.97c-.28-.04-.36-.04-1.14-.04h-3.72c-.79,0-.86,0-1.14.04v-.97Z"/>
            <path class="cls-4" d="M37.07,34.16c1.7.22,3.02.54,4.65,1.11l-.3.88c-.73-.32-1.37-.53-2.48-.78-.86-.2-1.44-.31-2.2-.41l.33-.8ZM37.63,32.19c1.12.14,2.24.39,3.65.81l-.27.86c-.55-.22-1.05-.36-1.93-.56-.6-.14-1.05-.22-1.77-.31l.32-.81ZM37.73,30.26c1.35.16,2.23.34,3.79.76l-.28.86c-1.16-.38-2.59-.69-3.82-.81l.31-.81Z"/>
            <path class="cls-4" d="M45.37,30.43q-.03.2-.07,1.57c-.05,1.37-.2,2.16-.57,2.88-.24.48-.5.84-.97,1.3-.27-.35-.38-.46-.71-.68.34-.28.51-.47.72-.81.5-.81.67-1.71.67-3.67,0-.38,0-.45-.03-.64l.95.05ZM47.22,30.35c-.03.2-.04.32-.05.67l-.04,3.99c.49-.23.77-.44,1.07-.8.32-.38.53-.76.69-1.28.24.31.34.41.66.66-.29.69-.65,1.22-1.12,1.63-.4.34-.76.55-1.49.84-.15.06-.21.08-.3.13l-.45-.48c.05-.2.06-.36.06-.74l.04-3.95v-.21c0-.18,0-.33-.03-.46h.95Z"/>
            <path class="cls-4" d="M55.94,31.38c-.07.1-.1.17-.18.42-.32,1.06-.82,2.01-1.44,2.7-.64.74-1.41,1.28-2.49,1.78-.2-.35-.29-.47-.59-.74.7-.29,1.09-.5,1.53-.83,1-.74,1.66-1.7,2.04-2.96l-2.11.04c-.43.68-.97,1.28-1.64,1.79-.21-.29-.31-.38-.68-.6.8-.55,1.3-1.11,1.81-2.03.22-.4.33-.67.36-.92l.96.19q-.04.06-.12.22s-.02.04-.09.2t-.09.18-.11.22c.09,0,.2-.01.34-.01l1.53-.02c.27,0,.35-.01.51-.07l.45.44Z"/>
            <path class="cls-4" d="M61.52,30.77c.21,0,.29,0,.41-.01,0-.46.36-.81.81-.81s.81.36.81.8-.37.81-.81.81c-.04,0-.08,0-.13-.01-.57,2.29-1.81,3.72-4.02,4.64-.18-.36-.3-.53-.62-.83,1.94-.6,3.21-1.9,3.66-3.77h-3.33c-.52,0-.65,0-.88.04v-.91c.25.04.42.05.9.05h3.21ZM62.29,30.75c0,.25.2.46.46.46s.46-.21.46-.46-.2-.46-.46-.46-.46.2-.46.46Z"/>
            <path class="cls-4" d="M67.18,33.03c-.08,1.73-.74,2.66-2.32,3.26-.17-.35-.29-.5-.57-.78,1.37-.43,1.92-1.13,1.97-2.49h-1.7c-.55,0-.65,0-.89.04v-.83c.25.04.39.05.9.05h4.1c.52,0,.66,0,.9-.05v.83c-.24-.03-.34-.04-.89-.04h-1.5ZM68.24,31.31c-.22-.03-.31-.04-.89-.04h-2.09c-.57,0-.67,0-.89.04v-.85c.24.04.38.05.9.05h2.06c.53,0,.67,0,.9-.05v.85ZM68.64,30c.27.36.43.64.62,1.11l-.53.2c-.2-.47-.36-.76-.62-1.12l.52-.18ZM69.64,31c-.16-.4-.37-.76-.6-1.09l.51-.18c.28.37.45.65.62,1.06l-.52.2Z"/>
            <path class="cls-4" d="M74.9,31.85q-.1.08-.24.23c-.35.38-.86.83-1.3,1.15v2.38c0,.32,0,.5.04.67h-.9c.03-.21.04-.34.04-.67v-1.88c-.63.37-1.13.59-1.98.89-.15-.32-.21-.44-.44-.73.66-.18,1.09-.34,1.66-.63.79-.41,1.4-.85,1.99-1.42.23-.23.32-.33.43-.5l.71.51Z"/>
            <path class="cls-4" d="M75.5,35.02c.6-.04,1.44-.24,2.07-.52.88-.38,1.53-.92,2.08-1.72.31-.45.5-.83.71-1.4.27.33.38.43.74.69-.6,1.28-1.26,2.11-2.22,2.75-.71.48-1.58.82-2.67,1.05-.28.06-.3.06-.46.12l-.26-.97ZM76.09,30.67c.83.52,1.27.84,1.81,1.35l-.6.76c-.56-.59-1.13-1.06-1.79-1.42l.58-.69Z"/>
            <path class="cls-4" d="M87.12,31.51c-.06.09-.1.17-.18.42-.41,1.25-.75,1.87-1.41,2.65-.62.71-1.48,1.33-2.49,1.77-.18-.33-.31-.48-.6-.74,1.83-.7,3.02-1.95,3.58-3.78l-2.11.03c-.39.64-1.06,1.37-1.64,1.8-.21-.29-.31-.38-.68-.6.76-.5,1.32-1.13,1.81-2.03.21-.38.34-.71.36-.93l.96.2c-.05.06-.06.08-.12.21-.06.13-.12.27-.19.41-.04.06-.04.07-.05.1l-.06.11c.08,0,.2-.01.34-.01l1.53-.02c.19,0,.31,0,.36-.01-.16-.35-.29-.57-.51-.88l.52-.17c.27.36.43.64.62,1.11l-.3.11.24.27ZM87.57,31.01c-.17-.41-.37-.77-.6-1.09l.5-.17c.29.37.45.65.62,1.06l-.52.2Z"/>
            <path class="cls-4" d="M93.41,29.91l-5.31,6.58h-1.03l5.3-6.58h1.04Z"/>
            <path class="cls-4" d="M94.66,32.05c.65.26,1.34.61,1.86.95l-.43.79c-.46-.36-1.25-.78-1.9-1.02l.47-.72ZM94.35,35.19c.55,0,1.28-.17,2.02-.46,1.28-.45,2.33-1.6,2.84-3.09.27.29.41.41.73.62-.87,2.12-2.35,3.27-4.86,3.76-.3.06-.36.08-.49.12l-.24-.96ZM95.2,30.35c.66.25,1.36.59,1.86.9l-.45.77c-.57-.39-1.36-.8-1.87-.96l.46-.71ZM98.84,30.21c.31.33.5.6.74,1.03l-.49.26c-.23-.43-.43-.71-.74-1.04l.49-.25ZM99.93,31.06c-.21-.38-.44-.71-.71-1.02l.47-.25c.32.32.51.59.73.99l-.48.27Z"/>
            <path class="cls-4" d="M102.45,31.92c-.05-.3-.07-.37-.13-.53l.83-.13c0,.14.02.29.07.54l.11.54,2.09-.35c.2-.03.32-.06.46-.12l.49.44c-.06.09-.11.17-.18.34-.31.78-.71,1.3-1.38,1.82-.25-.27-.36-.34-.65-.5.52-.32.9-.73,1.19-1.25q-.08.02-.26.05l-1.65.27.5,2.59q.07.39.13.57l-.88.15c0-.18-.01-.34-.06-.57l-.48-2.61-.6.1c-.25.04-.41.08-.62.15l-.15-.8c.22,0,.4-.02.67-.06l.58-.1-.11-.55Z"/>
            <path class="cls-4" d="M107.74,32.69c.31.04.44.05,1.13.05h3.73c.69,0,.83,0,1.13-.05v.97c-.28-.04-.36-.04-1.14-.04h-3.72c-.79,0-.86,0-1.14.04v-.97Z"/>
            <path class="cls-4" d="M115.43,32.05c.65.26,1.34.61,1.86.95l-.43.79c-.46-.36-1.25-.78-1.9-1.02l.47-.72ZM115.11,35.19c.55,0,1.28-.17,2.02-.46,1.28-.45,2.33-1.6,2.84-3.09.27.29.41.41.73.62-.87,2.12-2.35,3.27-4.86,3.76-.3.06-.36.08-.49.12l-.24-.96ZM115.97,30.35c.66.25,1.36.59,1.86.9l-.45.77c-.57-.39-1.36-.8-1.87-.96l.46-.71ZM119.61,30.21c.31.33.5.6.74,1.03l-.49.26c-.23-.43-.43-.71-.74-1.04l.49-.25ZM120.7,31.06c-.21-.38-.44-.71-.71-1.02l.47-.25c.32.32.51.59.73.99l-.48.27Z"/>
            <path class="cls-4" d="M121.83,32.69c.31.04.44.05,1.13.05h3.73c.69,0,.83,0,1.13-.05v.97c-.28-.04-.36-.04-1.14-.04h-3.72c-.79,0-.86,0-1.14.04v-.97Z"/>
            <path class="cls-4" d="M130.07,35.65c-.49,0-.65,0-.9.03v-.87c.27.04.42.05.92.05h3.21v-1.39h-2.91c-.47,0-.64,0-.9.04v-.86c.27.04.43.05.91.05h2.9v-1.29h-3.14c-.47,0-.66,0-.9.04v-.88c.27.04.42.05.92.05h3.4c.36,0,.43,0,.62-.02-.01.15-.01.31-.01.6v4.18c0,.34,0,.51.03.69h-.9v-.41h-3.23Z"/>
            <path class="cls-4" d="M135.78,32.69c.31.04.44.05,1.13.05h3.73c.69,0,.83,0,1.13-.05v.97c-.28-.04-.36-.04-1.14-.04h-3.72c-.79,0-.86,0-1.14.04v-.97Z"/>
            <path class="cls-4" d="M148.44,31.51c-.06.09-.1.17-.18.42-.41,1.25-.75,1.87-1.41,2.65-.62.71-1.48,1.33-2.49,1.77-.18-.33-.31-.48-.6-.74,1.84-.7,3.02-1.95,3.58-3.78l-2.11.03c-.39.64-1.06,1.37-1.64,1.8-.21-.29-.31-.38-.68-.6.76-.5,1.32-1.13,1.81-2.03.21-.38.34-.71.36-.93l.96.2c-.05.06-.06.08-.12.21-.06.13-.12.27-.19.41-.04.06-.04.07-.05.1l-.06.11c.08,0,.2-.01.34-.01l1.53-.02c.19,0,.31,0,.36-.01-.16-.35-.29-.57-.51-.88l.52-.17c.27.36.43.64.62,1.11l-.3.11.24.27ZM148.89,31.01c-.17-.41-.37-.77-.6-1.09l.51-.17c.29.37.45.65.62,1.06l-.52.2Z"/>
            <path class="cls-4" d="M151.85,30.43q-.03.2-.07,1.57c-.05,1.37-.2,2.16-.57,2.88-.24.48-.5.84-.97,1.3-.27-.35-.38-.46-.71-.68.34-.28.51-.47.72-.81.5-.81.67-1.71.67-3.67,0-.38,0-.45-.03-.64l.95.05ZM153.71,30.35c-.03.2-.04.32-.05.67l-.04,3.99c.49-.23.77-.44,1.07-.8.32-.38.53-.76.69-1.28.24.31.34.41.66.66-.29.69-.65,1.22-1.12,1.63-.4.34-.76.55-1.49.84-.15.06-.21.08-.3.13l-.45-.48c.05-.2.06-.36.06-.74l.04-3.95v-.21c0-.18,0-.33-.03-.46h.95Z"/>
            <path class="cls-4" d="M157.74,36.17c.04-.22.04-.41.04-.79v-4.49c0-.34-.01-.53-.04-.71h.96c-.03.21-.03.3-.03.74v1.3c.96.34,2.06.85,3.18,1.48l-.49.83c-.58-.4-1.31-.8-2.48-1.34-.16-.08-.18-.08-.24-.12.02.2.03.28.03.48v1.85c0,.36,0,.55.03.78h-.96Z"/>
            <path class="cls-4" d="M16.31,39.35c.32.08.79.12,1.51.12.13-.56.18-.85.2-1.16l.94.08q-.04.13-.11.41-.12.52-.17.66c.53-.01,1.32-.07,1.79-.13.52-.06.65-.09.9-.16l.04.85c-.16,0-.22.01-.41.04-1.02.11-1.63.16-2.51.18-.15.5-.41,1.17-.55,1.42h0c.47-.29,1.08-.44,1.77-.44,1.23,0,1.97.53,1.97,1.42,0,1.04-1,1.71-2.54,1.71-.62,0-1.24-.08-1.79-.25,0-.4,0-.54-.07-.89.63.22,1.22.34,1.81.34,1.02,0,1.67-.36,1.67-.92,0-.43-.42-.67-1.18-.67-.52,0-1.06.13-1.51.34-.26.13-.39.23-.51.41l-.85-.29c.11-.17.22-.38.33-.63.23-.53.49-1.21.59-1.55-.37,0-.69-.02-1.06-.05-.1,0-.17,0-.22,0h-.05v-.82Z"/>
            <path class="cls-4" d="M25.6,38.39q-.04.13-.11.47c-.04.17-.07.31-.15.62.48-.05.85-.11,1.12-.2l.02.81c-.08,0-.09,0-.22.04-.25.04-.68.09-1.11.13-.2.7-.46,1.37-.77,2.03-.16.34-.22.47-.49.96q-.09.17-.13.25l-.8-.45c.24-.32.44-.64.68-1.12.27-.56.39-.85.66-1.65-.32,0-.36,0-.44,0-.09,0-.13,0-.28,0h-.37v-.81c.25.05.52.06.95.06.08,0,.2,0,.36,0,.12-.5.2-.92.21-1.22l.9.09ZM28.77,44.07c-.25-.3-.66-.63-1.07-.87,0,.06.02.11.02.14,0,.26-.12.56-.3.74-.24.25-.66.39-1.16.39-.92,0-1.53-.46-1.53-1.18s.62-1.21,1.51-1.21c.21,0,.36.01.65.06-.02-.32-.04-.6-.04-.81,0-.27.01-.48.05-.71l.81.04c-.07.26-.08.42-.08.71s.01.56.06.96c.51.22.58.26,1.11.64.11.07.13.1.25.19q.05.06.1.1l-.38.78ZM26.29,42.78c-.46,0-.75.19-.75.48s.25.46.69.46c.48,0,.71-.2.71-.59,0-.07-.01-.24-.01-.24-.25-.08-.41-.11-.63-.11ZM28.81,40.85c-.61-.41-1.23-.71-2.02-.98l.42-.68c.83.32,1.35.56,1.98.94l-.38.72Z"/>
            <path class="cls-4" d="M30.84,40.19c.19.02.26.02.41.02.68,0,1.61-.06,2.49-.15.31-.04.44-.06.56-.11l.47.6c-.13.09-.28.22-.6.52-.38.36-.98.9-1.2,1.07.18-.06.27-.08.43-.08.27,0,.45.09.58.29.1.15.13.25.15.64.05.55.14.65.6.65s1.02-.11,1.38-.27l.11.87c-.12,0-.16.01-.62.08-.43.06-.68.08-.98.08-.5,0-.78-.08-.98-.27-.2-.18-.25-.35-.29-.9-.01-.27-.03-.36-.07-.45-.05-.09-.16-.15-.29-.15-.33,0-.64.2-1.21.74-.36.34-.73.75-.99,1.04l-.64-.73q.31-.21,1.62-1.4c.16-.15.29-.27.81-.77.19-.18.46-.44.82-.78-.4.06-.58.09-.91.12q-.1,0-.71.06-.13.01-.37.04c-.26.02-.31.03-.54.06l-.05-.84ZM31.71,38.38c.79.25,1.7.37,2.79.39l-.13.78c-1.39-.08-1.94-.17-2.91-.41l.25-.76Z"/>
            <path class="cls-4" d="M39.9,42.48c-.4.9-.85,1.32-1.42,1.32-.8,0-1.37-.81-1.37-1.94,0-.77.27-1.49.77-2.04.59-.64,1.42-.98,2.41-.98,1.68,0,2.77,1.02,2.77,2.6,0,1.21-.63,2.18-1.7,2.61-.34.14-.61.21-1.1.29-.12-.37-.2-.53-.43-.82.64-.08,1.06-.2,1.39-.38.61-.34.97-1,.97-1.75,0-.67-.3-1.22-.86-1.55-.22-.13-.4-.18-.71-.21-.13,1.1-.38,2.07-.73,2.86ZM38.87,39.97c-.59.42-.95,1.14-.95,1.89,0,.57.24,1.03.55,1.03.23,0,.47-.29.72-.9.27-.63.5-1.58.58-2.37-.36.04-.62.14-.9.34Z"/>
            <path class="cls-4" d="M44.51,44.45c0-.07,0-.12-.03-.27-.13-.83-.19-1.5-.19-2.23,0-.63.04-1.25.13-1.85q.04-.22.19-1.01c.05-.25.08-.45.08-.52v-.02l.95.09c-.28.61-.57,2.43-.56,3.52,0,.17,0,.27,0,.27v.08c0,.08,0,.15,0,.26h0l.04-.07.08-.2c.11-.28.11-.3.19-.48.01-.04.04-.1.08-.22l.58.25c-.41.82-.69,1.68-.69,2.15,0,.05,0,.08.01.18l-.84.06ZM46.1,39.86c.32.08.69.1,1.26.1.23,0,.39,0,.65,0,0-.16,0-.27,0-.33v-.74c0-.17,0-.22-.02-.28h.87c-.04.19-.05.48-.05.95v.33c.5-.06.88-.13,1.15-.24l.03.79c-.06,0-.08,0-.2.04-.28.06-.64.12-.97.15v.16c0,.33.01.53.04.92l.02.36v.29c.49.22.75.38,1.11.64.09.06.13.09.2.13l-.33.84c-.2-.22-.37-.35-.97-.74,0,.05,0,.06,0,.1,0,.15-.02.29-.06.39-.16.41-.65.65-1.33.65-.92,0-1.48-.43-1.48-1.15,0-.67.6-1.15,1.44-1.15.26,0,.45.03.62.09-.01-.24-.03-.74-.05-1.49-.28.01-.44.01-.62.01-.27,0-.54,0-.88-.03-.11,0-.17,0-.21-.01h-.13s-.06,0-.06,0h-.04v-.8ZM47.52,42.8c-.45,0-.73.17-.73.46,0,.27.25.43.64.43.27,0,.47-.08.57-.21.06-.08.09-.19.09-.38,0-.08,0-.19,0-.19-.22-.08-.37-.1-.57-.1ZM49.34,38.19c.21.34.37.68.48,1.09l-.47.17c-.13-.45-.28-.79-.47-1.1l.46-.16ZM50.2,39.2c-.11-.38-.29-.77-.47-1.07l.43-.16c.19.29.34.62.48,1.05l-.44.18Z"/>
            <path class="cls-4" d="M53.53,38.39q-.04.13-.11.47c-.04.17-.07.31-.15.62.48-.05.85-.11,1.12-.2l.02.81c-.08,0-.09,0-.22.04-.25.04-.68.09-1.11.13-.2.7-.46,1.37-.77,2.03-.16.34-.22.47-.49.96q-.09.17-.13.25l-.8-.45c.24-.32.44-.64.68-1.12.27-.56.39-.85.66-1.65-.32,0-.36,0-.44,0-.09,0-.13,0-.28,0h-.37v-.81c.25.05.52.06.95.06.08,0,.2,0,.36,0,.12-.5.2-.92.21-1.22l.9.09ZM56.7,44.07c-.25-.3-.66-.63-1.07-.87,0,.06.02.11.02.14,0,.26-.12.56-.3.74-.24.25-.66.39-1.16.39-.92,0-1.53-.46-1.53-1.18s.62-1.21,1.51-1.21c.21,0,.36.01.65.06-.02-.32-.04-.6-.04-.81,0-.27.01-.48.05-.71l.81.04c-.07.26-.08.42-.08.71s.01.56.06.96c.51.22.58.26,1.11.64.11.07.13.1.25.19q.05.06.1.1l-.38.78ZM54.22,42.78c-.46,0-.75.19-.75.48s.25.46.69.46c.48,0,.71-.2.71-.59,0-.07-.01-.24-.01-.24-.25-.08-.41-.11-.63-.11ZM56.74,40.85c-.61-.41-1.23-.71-2.02-.98l.42-.68c.83.32,1.35.56,1.98.94l-.38.72Z"/>
            <path class="cls-4" d="M60.37,38.39q-.04.13-.11.47c-.04.17-.07.31-.15.62.48-.05.85-.11,1.12-.2l.02.81c-.08,0-.09,0-.22.04-.25.04-.68.09-1.11.13-.2.7-.46,1.37-.77,2.03-.16.34-.22.47-.49.96q-.09.17-.13.25l-.8-.45c.24-.32.44-.64.68-1.12.27-.56.39-.85.66-1.65-.32,0-.36,0-.44,0-.09,0-.13,0-.28,0h-.37v-.81c.25.05.52.06.95.06.08,0,.2,0,.36,0,.12-.5.2-.92.21-1.22l.9.09ZM63.54,44.07c-.25-.3-.66-.63-1.07-.87,0,.06.02.11.02.14,0,.26-.12.56-.3.74-.24.25-.66.39-1.16.39-.92,0-1.53-.46-1.53-1.18s.62-1.21,1.51-1.21c.21,0,.36.01.65.06-.02-.32-.04-.6-.04-.81,0-.27.01-.48.05-.71l.81.04c-.07.26-.08.42-.08.71s.01.56.06.96c.51.22.58.26,1.11.64.11.07.13.1.25.19q.05.06.1.1l-.38.78ZM61.06,42.78c-.46,0-.75.19-.75.48s.25.46.69.46c.48,0,.71-.2.71-.59,0-.07-.01-.24-.01-.24-.25-.08-.41-.11-.63-.11ZM63.58,40.85c-.61-.41-1.23-.71-2.02-.98l.42-.68c.83.32,1.35.56,1.98.94l-.38.72Z"/>
            <path class="cls-4" d="M68.72,40.42q0,.07-.01.18c-.09,1.19-.35,1.93-.9,2.59-.45.53-.95.88-1.82,1.28-.18-.36-.28-.5-.58-.77.6-.21,1.01-.44,1.42-.81.64-.57.93-1.29,1-2.48h-1.68c-.41.65-.66.96-1.16,1.42-.27-.29-.38-.37-.71-.55.64-.53,1.11-1.13,1.48-1.93.21-.43.29-.69.35-1l.91.22q-.05.11-.27.6c-.06.13-.13.28-.21.46q.2,0,3.06,0c.5,0,.59,0,.88-.04v.86q-.18-.02-.43-.02c-.09,0-.25,0-.46,0h-.86Z"/>
            <path class="cls-4" d="M71.08,40.94c.31.04.44.05,1.13.05h3.73c.69,0,.83,0,1.13-.05v.97c-.28-.04-.36-.04-1.14-.04h-3.72c-.79,0-.86,0-1.14.04v-.97Z"/>
            <path class="cls-4" d="M80.3,39.17c-.06-.34-.09-.46-.17-.66l.92-.15c0,.18.04.38.08.66l.11.61,1.48-.23c.34-.06.49-.09.67-.15l.15.84q-.19.01-.67.09l-1.48.23.21,1.15,1.64-.26c.29-.05.54-.11.73-.16l.15.84c-.15,0-.17,0-.32.03-.04,0-.08,0-.11.01-.05,0-.14.02-.28.04l-1.67.27.25,1.36c.08.46.09.48.17.72l-.94.17c0-.21-.04-.41-.09-.74l-.25-1.38-1.73.27c-.34.06-.46.08-.71.15l-.14-.86c.24,0,.44-.02.74-.07l1.7-.27-.21-1.15-1.3.2c-.32.06-.58.11-.77.16l-.14-.86c.25,0,.48-.04.77-.08l1.3-.2-.11-.59Z"/>
            <path class="cls-4" d="M91.94,38.16l-5.31,6.58h-1.03l5.3-6.58h1.04Z"/>
            <path class="cls-4" d="M97.47,39.63c-.07.1-.1.17-.18.42-.32,1.06-.82,2.01-1.44,2.7-.64.74-1.41,1.28-2.49,1.78-.2-.35-.29-.47-.59-.74.7-.29,1.09-.5,1.53-.83,1-.74,1.66-1.7,2.04-2.96l-2.11.04c-.43.68-.97,1.28-1.64,1.79-.21-.29-.31-.38-.68-.6.8-.55,1.3-1.11,1.81-2.03.22-.4.33-.67.36-.92l.96.19q-.04.06-.12.22s-.02.04-.09.2t-.09.18-.11.22c.09,0,.2-.01.34-.01l1.53-.02c.27,0,.35-.01.51-.07l.45.44Z"/>
            <path class="cls-4" d="M99.77,40.08c.29.54.43.88.69,1.66l-.79.25c-.18-.71-.32-1.08-.64-1.7l.74-.22ZM103.79,40.13c-.04.11-.05.14-.1.36-.2.95-.52,1.72-.97,2.33-.52.71-1.1,1.16-2.14,1.69-.18-.31-.27-.41-.56-.69.49-.19.78-.34,1.19-.64.82-.6,1.29-1.31,1.59-2.43.09-.34.13-.59.13-.81l.85.2ZM101.27,39.79c.37.69.5,1,.68,1.61l-.78.25c-.13-.53-.34-1.07-.64-1.65l.74-.21Z"/>
            <path class="cls-4" d="M107.31,39.17c-.06-.34-.09-.46-.17-.66l.92-.15c0,.18.04.38.08.66l.11.61,1.48-.23c.34-.06.49-.09.67-.15l.15.84q-.19.01-.67.09l-1.48.23.21,1.15,1.64-.26c.29-.05.54-.11.73-.16l.15.84c-.15,0-.17,0-.32.03-.04,0-.08,0-.11.01-.05,0-.14.02-.28.04l-1.67.27.25,1.36c.08.46.09.48.17.72l-.94.17c0-.21-.04-.41-.09-.74l-.25-1.38-1.73.27c-.34.06-.46.08-.71.15l-.14-.86c.24,0,.44-.02.74-.07l1.7-.27-.21-1.15-1.3.2c-.32.06-.58.11-.77.16l-.14-.86c.25,0,.48-.04.77-.08l1.3-.2-.11-.59Z"/>
            <path class="cls-4" d="M112.4,40.94c.31.04.44.05,1.13.05h3.73c.69,0,.83,0,1.13-.05v.97c-.28-.04-.36-.04-1.14-.04h-3.72c-.79,0-.86,0-1.14.04v-.97Z"/>
            <path class="cls-4" d="M120.68,39.34c-.24.33-.38.48-.71.78-.17-.2-.31-.34-.53-.5.41-.31.62-.53.83-.87.12-.2.2-.37.25-.57l.76.14q-.15.29-.2.37h.9c.31,0,.5-.01.68-.04v.57c.3-.32.52-.68.62-1.03l.7.19s-.06.13-.15.32h1.28c.36,0,.57-.01.77-.04v.72c-.22-.03-.42-.04-.73-.04h-.55c.13.2.15.25.27.49l-.69.22c-.13-.31-.2-.46-.34-.71h-.38c-.14.2-.27.34-.42.5-.02.1-.02.15-.03.36h1.58c.36,0,.57,0,.76-.04v.7c-.2-.03-.47-.04-.76-.04h-1.59v.46h2.04c.37,0,.61-.01.81-.04v.73c-.24-.03-.47-.04-.8-.04h-.62v.46h.55c.31,0,.58-.01.81-.04v.72c-.23-.03-.48-.04-.82-.04h-.54v.97c0,.34-.11.52-.37.61-.14.05-.4.07-.83.07-.15,0-.27,0-.53-.01-.05-.3-.09-.45-.21-.73.32.04.56.05.88.05.25,0,.31-.03.31-.17v-.79h-2.28c.39.31.5.41.97.91l-.63.48c-.36-.46-.54-.64-.97-.99l.53-.41h-.86c-.34,0-.59.01-.81.04v-.72c.23.03.49.04.81.04h3.25v-.46h-3.28c-.31,0-.58.01-.82.04v-.73c.2.03.45.04.8.04h1.88v-.46h-1.36c-.34,0-.59.01-.77.04v-.69c.2.03.43.04.78.04h1.35c0-.19-.01-.28-.04-.41h.51c-.15-.15-.21-.2-.37-.3.07-.06.1-.08.15-.14-.1,0-.26-.01-.38-.01h-.36c.11.2.15.27.25.5l-.69.21c-.12-.38-.17-.48-.29-.71h-.38Z"/>
            <path class="cls-4" d="M129.64,42.31c-.32,0-.5,0-.68.04v-.71c.16.02.27.03.54.03h.09v-.61h-.12c-.23,0-.35,0-.55.04v-.59c-.16.2-.24.29-.44.49-.03.57-.05.81-.1,1.15.23.36.5.65.83.9-.18.26-.27.4-.38.69-.29-.3-.45-.5-.62-.76-.22.71-.5,1.23-.96,1.71-.15-.25-.29-.42-.5-.6.4-.41.63-.83.8-1.46.2-.66.27-1.65.27-3.32,0-.6,0-.75-.05-1.02h.81q-.04.23-.04,1.34c0,.15,0,.24,0,.46.19-.28.28-.44.36-.62l.53.41c-.09.12-.22.29-.38.51.13.01.24.02.45.02h.12v-.22c0-.14,0-.22-.03-.33h.7c-.01.09-.02.17-.02.32v.24h1.51v-.23c0-.14,0-.21-.02-.32h.72c-.02.1-.03.19-.03.32v.23h.27c.24,0,.38,0,.58-.04v.73c-.19-.03-.34-.04-.58-.04h-.27v.61h.11c.29,0,.44,0,.64-.04v.73c-.22-.03-.42-.04-.71-.04h-.58v1.44c0,.14.04.16.41.16.18,0,.29-.04.31-.13.04-.12.06-.34.07-.74.2.13.34.19.66.28-.04.64-.11.95-.28,1.1-.13.12-.41.18-.9.18-.78,0-.97-.11-.97-.55v-1.73h-.55c-.04.43-.07.61-.17.88-.25.74-.71,1.18-1.6,1.54-.12-.29-.23-.46-.43-.64.5-.16.77-.32,1.04-.61.28-.3.42-.68.44-1.18h-.25ZM126.78,41.43c.1-.33.13-.48.17-.86.03-.33.05-.59.05-.81v-.18l.59.07c-.01.9-.08,1.46-.22,2.07l-.58-.29ZM131.32,39.77c0,.22,0,.29.02.41h-.71c.01-.11.02-.22.02-.41v-.24h-.81c-.25,0-.5.01-.68.04v-.73c.22.03.38.04.68.04h.81v-.18c0-.2,0-.31-.04-.47h.74c-.03.14-.04.27-.04.48v.17h1.02c.27,0,.47-.01.67-.04v.74c-.2-.02-.42-.04-.65-.04h-1.04v.23ZM131.75,41.66v-.61h-1.51v.61h1.51Z"/>
            <path class="cls-4" d="M135.93,38.61c0-.15,0-.23-.03-.36h.78c-.02.12-.02.2-.02.36v.06h1.44v-.06c0-.14,0-.23-.03-.36h.78c-.01.12-.02.2-.02.36v.06h.94c.32,0,.55-.01.79-.04v.71c-.23-.03-.46-.04-.79-.04h-.94v.13c0,.1,0,.13,0,.23h.24c.36,0,.55,0,.76-.03-.02.16-.03.37-.03.77v.81c0,.46,0,.65.03.82-.23-.02-.45-.03-.76-.03h-1.32v.34h1.95c.41,0,.63-.01.84-.04v.71c-.25-.03-.5-.04-.84-.04h-1.4c.57.45,1.31.72,2.43.9-.2.22-.28.36-.44.68-.57-.13-1.02-.29-1.44-.5-.47-.23-.72-.42-1.13-.82.02.13.03.34.03.5v.29c0,.35,0,.5.04.67h-.82c.03-.19.04-.39.04-.67v-.3c0-.12,0-.19.02-.5-.7.65-1.39,1.03-2.47,1.34-.15-.31-.23-.43-.43-.66,1.02-.21,1.7-.49,2.3-.95h-1.32c-.36,0-.59.01-.83.04v-.71c.22.04.43.04.83.04h1.9v-.34h-1.27c-.33,0-.54,0-.76.03.03-.2.04-.38.04-.74v-.95c0-.33,0-.51-.04-.7.21.02.41.03.77.03h.17c0-.08,0-.13,0-.22v-.15h-.88c-.34,0-.54,0-.77.04v-.71c.22.03.46.04.77.04h.88v-.06ZM135.74,40.23v.34h1.27v-.34h-1.27ZM135.74,41.1v.36h1.27v-.36h-1.27ZM138.09,39.67c0-.08,0-.12,0-.22v-.15h-1.44v.13c0,.11,0,.14,0,.23h1.43ZM139.09,40.57v-.34h-1.34v.34h1.34ZM139.09,41.45v-.36h-1.34v.36h1.34Z"/>
            <path class="cls-4" d="M144.15,40.68c0-.22,0-.37-.02-.53h.37c.48-.28.67-.43,1.19-.9h-2.79c-.37,0-.6.01-.85.04v-.83c.24.03.47.04.84.04h3.17c.36,0,.47,0,.61-.03l.46.51q-.18.17-.66.62c-.34.32-.89.72-1.49,1.08v.3h1.71c.46,0,.71-.01.95-.04v.85c-.27-.03-.53-.04-.95-.04h-1.71v2.04c0,.62-.24.77-1.17.77-.14,0-.28,0-.79-.03-.06-.41-.09-.54-.22-.84.42.06.68.08,1.02.08.29,0,.34-.03.34-.18v-1.85h-1.88c-.42,0-.66.01-.95.04v-.85c.26.03.52.04.97.04h1.86v-.31Z"/>
          </g>
          <g>
            <path class="cls-5" d="M59.02,12.93c-1.96,0-2.75-1.44-2.75-2.97,0-2.23,1.54-3.1,2.93-3.1.73,0,1.39.23,1.89.72.47.46.57.84.65,1.49h-1.42c-.04-.61-.48-1.08-1.12-1.08-.74,0-1.5.64-1.5,1.9,0,.75.27,1.9,1.36,1.9,1.02,0,1.18-.86,1.24-1.14h1.46c-.13.54-.54,2.29-2.73,2.29Z"/>
            <path class="cls-5" d="M66.48,12.79c-.16-.22-.17-.59-.17-.84-.16.31-.52.98-1.87.98-1.59,0-2.03-.97-2.03-1.7,0-1.33,1.2-1.73,2.49-1.92.62-.09,1.33-.21,1.33-.74,0-.46-.5-.6-.94-.6-.13,0-.74-.01-1.11.36-.16.16-.19.29-.23.57h-1.28c.11-1.8,1.71-2.04,2.49-2.04,1.34,0,2.5.58,2.5,2.08v3.19c0,.21.04.48.32.67h-1.5ZM65.2,10.2c-.54.09-1.34.28-1.34.98,0,.41.4.73.92.73.58,0,1.44-.37,1.44-1.17v-.66l.08-.38c-.25.29-.48.39-1.1.5Z"/>
            <path class="cls-5" d="M70.52,8.14v4.65h-1.42v-4.65h-.78v-1.14h.78v-.59c0-1.03.78-1.48,1.59-1.48h.82v1.23h-.46c-.3,0-.53.14-.53.48v.36h.99v1.14h-.99Z"/>
            <path class="cls-5" d="M73.37,10.31c.05.29.27,1.46,1.41,1.46.26,0,.82-.06,1.06-.7h1.43c-.18.48-.68,1.85-2.56,1.85-1.57,0-2.76-1.04-2.76-3.03s1.28-3.05,2.71-3.05c.96,0,1.7.44,2.13,1.1.5.75.55,1.54.58,2.36h-4.01ZM74.67,8.02c-1.06,0-1.24,1-1.3,1.37h2.47c-.03-.91-.45-1.37-1.16-1.37ZM74.26,6.3h-.87l1.21-1.75h1.33l-1.67,1.75Z"/>
            <path class="cls-5" d="M88.45,12.79v-6.91l-1.73,6.91h-1.57l-1.73-6.91v6.91h-1.34v-7.86h2.28l1.39,5.43.18,1.25.18-1.25,1.4-5.43h2.27v7.86h-1.34Z"/>
            <path class="cls-5" d="M91.35,6.32v-1.4h1.42v1.4h-1.42ZM91.35,12.79v-5.8h1.42v5.8h-1.42Z"/>
            <path class="cls-5" d="M94.16,12.79v-7.86h1.42v7.86h-1.42Z"/>
            <path class="cls-5" d="M103.49,12.79v-6.91l-1.73,6.91h-1.57l-1.73-6.91v6.91h-1.34v-7.86h2.28l1.39,5.43.18,1.25.18-1.25,1.4-5.43h2.27v7.86h-1.34Z"/>
            <path class="cls-5" d="M109.9,12.79v-.45l.06-.6c-.16.37-.51,1.2-1.81,1.2s-1.9-.87-1.9-2.21v-3.73h1.42v3.73c0,.79.53,1.06.99,1.06.75,0,1.23-.64,1.23-1.42v-3.36h1.42v5.8h-1.42Z"/>
          </g>
        </g>
      </g>
    </g>
  </g>
</svg>